<svg width="56" height="48" viewBox="0 0 56 48" fill="none" xmlns="http://www.w3.org/2000/svg">
<path d="M0.0292549 37.0072C0.321804 36.4866 0.775256 36.342 1.36035 36.3709C2.10635 36.4143 2.85236 36.3564 3.59836 36.3853C4.08106 36.4143 4.22734 36.2696 4.21271 35.7924C4.19808 32.5385 4.19808 29.2991 4.19808 26.0453C4.19808 25.0474 4.40287 24.845 5.41216 24.845C7.02118 24.845 8.6302 24.845 10.2246 24.845C11.0876 24.845 11.3509 25.1197 11.3509 25.9874C11.3509 29.2124 11.3509 32.4518 11.3509 35.6767C11.3509 35.8936 11.3509 36.0961 11.3509 36.3709C12.1554 36.3709 12.9014 36.3853 13.6474 36.3564C13.7498 36.3564 13.8815 36.1829 13.9107 36.0527C13.9546 35.9081 13.9253 35.7346 13.9253 35.5755C13.9253 28.7785 13.9253 21.9671 13.9253 15.1701C13.9253 14.1723 14.1301 13.9553 15.1394 13.9553C16.7338 13.9553 18.3136 13.9553 19.908 13.9553C20.8441 13.9553 21.1074 14.2156 21.1074 15.1412C21.1074 21.9671 21.1074 28.7785 21.1074 35.6044C21.1074 35.8358 21.1074 36.0672 21.1074 36.3709C21.8973 36.3709 22.6433 36.3853 23.3893 36.3564C23.4917 36.3564 23.638 36.1829 23.6672 36.0672C23.7111 35.9226 23.6819 35.749 23.6819 35.5899C23.6819 30.5862 23.6819 25.597 23.6819 20.5932C23.6819 19.6243 23.9305 19.3785 24.9106 19.3785C26.505 19.3785 28.0847 19.3785 29.6791 19.3785C30.5714 19.3785 30.8639 19.6677 30.8639 20.5498C30.8639 24.2086 30.8639 27.8674 30.8639 31.5407C30.8639 31.7432 30.8639 31.9312 30.8639 32.2782C31.0395 32.0613 31.1272 31.9745 31.1857 31.8588C31.8732 30.6875 32.5754 29.5305 33.2336 28.3447C33.3799 28.0988 33.4238 27.7662 33.4238 27.477C33.4384 21.5622 33.4384 15.6474 33.4384 9.71808C33.4384 8.72023 33.6285 8.53223 34.6525 8.53223C36.2469 8.53223 37.8266 8.53223 39.421 8.53223C40.3572 8.53223 40.6058 8.77807 40.6058 9.73254C40.6058 12.7839 40.6205 15.8354 40.5912 18.8723C40.5912 19.2628 40.6936 19.4508 41.0447 19.6677C41.4689 19.9135 41.8784 20.2895 42.1125 20.6945C46.6324 28.3736 51.1084 36.0816 55.6136 43.7608C56.7253 45.6552 55.2772 47.622 53.3171 47.6076C44.3943 47.5497 35.4716 47.5497 26.5488 47.6076C24.5595 47.622 23.0675 45.6263 24.1938 43.8042C24.2377 43.7318 24.267 43.6451 24.3401 43.4571C24.0622 43.4571 23.8281 43.4571 23.6087 43.4571C16.178 43.4571 8.76185 43.4571 1.3311 43.4715C0.760628 43.4715 0.292549 43.3558 0 42.8352C0.0292549 40.9118 0.0292549 38.9595 0.0292549 37.0072ZM39.9622 46.0023C44.3066 46.0023 48.6509 46.0023 52.9807 46.0023C53.1855 46.0023 53.3902 46.0168 53.5804 45.9879C54.2386 45.9011 54.5312 45.3516 54.2533 44.7586C54.1655 44.5851 54.0631 44.4115 53.9607 44.238C50.2892 37.9472 46.6177 31.6708 42.9462 25.38C42.2149 24.1219 41.4835 22.8492 40.7229 21.5911C40.284 20.8535 39.5965 20.868 39.1285 21.5911C39.0553 21.6923 38.9968 21.808 38.9383 21.9237C36.1006 26.7683 33.2628 31.6275 30.4397 36.4721C28.86 39.1764 27.2802 41.8663 25.7151 44.5706C25.3494 45.1925 25.4664 45.7276 26.0223 45.9156C26.2563 46.0023 26.5196 46.0023 26.7683 46.0023C31.1711 46.0023 35.5594 46.0023 39.9622 46.0023ZM1.76992 41.7795C1.90157 41.794 1.97471 41.8084 2.04784 41.8084C9.71264 41.8084 17.3774 41.8084 25.0422 41.794C25.2177 41.794 25.481 41.6204 25.5834 41.4614C26.1978 40.4635 26.7829 39.4367 27.368 38.4244C27.4265 38.3232 27.4411 38.2075 27.485 38.0773C18.8987 38.0773 10.3416 38.0773 1.76992 38.0773C1.76992 39.3355 1.76992 40.5358 1.76992 41.7795ZM19.396 36.3709C19.396 29.4293 19.396 22.56 19.396 15.6184C18.3136 15.6184 17.2897 15.6474 16.2511 15.604C15.7099 15.5895 15.5782 15.7775 15.5782 16.2837C15.5929 22.7769 15.5929 29.2557 15.5929 35.749C15.5929 35.9515 15.6368 36.1539 15.6514 36.3709C16.924 36.3709 18.1381 36.3709 19.396 36.3709ZM25.3786 21.0994C25.364 21.3742 25.3494 21.62 25.3494 21.8659C25.3494 26.4357 25.3494 30.9911 25.3494 35.561C25.3494 35.7056 25.364 35.8503 25.3494 35.9949C25.3348 36.2986 25.481 36.3998 25.7736 36.3998C26.5927 36.3853 27.4119 36.3998 28.231 36.3853C28.3626 36.3853 28.5821 36.342 28.6113 36.2696C28.8307 35.8069 29.1525 35.3296 29.1525 34.8524C29.1964 30.4705 29.1818 26.0887 29.1818 21.7068C29.1818 21.5188 29.1818 21.3163 29.1818 21.1138C27.8799 21.0994 26.6512 21.0994 25.3786 21.0994ZM35.1059 24.9028C35.1498 24.9173 35.179 24.9317 35.2229 24.9317C35.3253 24.7726 35.4277 24.6136 35.5155 24.4545C36.2322 23.2397 36.9197 22.0105 37.6657 20.8102C37.8998 20.4197 38.2947 20.116 38.5872 19.7545C38.7335 19.5809 38.8944 19.3495 38.8944 19.1471C38.9091 16.3126 38.909 13.4781 38.909 10.6436C38.909 10.2676 38.8067 10.123 38.4117 10.1375C37.5341 10.1519 36.6564 10.1375 35.7788 10.1375C35.0474 10.1375 35.0474 10.1375 35.0474 10.8461C35.0474 15.3581 35.0474 19.8701 35.0474 24.3822C35.0767 24.5702 35.1059 24.7437 35.1059 24.9028ZM9.62487 36.3853C9.66875 36.2696 9.68338 36.2407 9.68338 36.1973C9.68338 33.0881 9.68338 29.9644 9.69801 26.8551C9.69801 26.508 9.52248 26.4791 9.24456 26.4791C8.33765 26.4791 7.41612 26.508 6.50922 26.4647C5.98263 26.4357 5.82173 26.6093 5.83636 27.1299C5.86561 29.9933 5.85099 32.8567 5.85099 35.7201C5.85099 35.8213 5.82173 35.9515 5.86561 36.0383C5.93875 36.1684 6.0704 36.3564 6.17279 36.3564C7.31373 36.3998 8.4693 36.3853 9.62487 36.3853Z" fill="#036EB7"/>
<path d="M35.4886 1.60524C34.7426 1.60524 34.1282 1.60524 33.5139 1.60524C32.8703 1.59078 32.5192 1.30155 32.5338 0.780928C32.5485 0.274771 32.8703 0 33.4992 0C34.7718 0 36.059 0 37.3316 0C37.9899 0 38.2971 0.289233 38.3117 0.954468C38.3263 2.21263 38.3263 3.48525 38.3117 4.74342C38.3117 5.33634 37.9606 5.68342 37.4779 5.69788C36.966 5.69788 36.6441 5.33634 36.6295 4.71449C36.6149 4.20833 36.6295 3.70218 36.6149 3.19602C36.6149 3.1671 36.5856 3.13817 36.4247 2.89233C36.3077 3.10925 36.2346 3.31171 36.1029 3.44187C33.4407 6.29081 30.7785 9.13975 28.1017 11.9742C27.502 12.6105 27.3118 12.6395 26.5366 12.2201C23.7574 10.6727 20.9781 9.12529 18.2135 7.56343C18.0526 7.47666 17.8917 7.38989 17.687 7.28866C16.9263 8.1419 16.1657 8.99514 15.4051 9.83391C13.1378 12.3792 10.8559 14.9099 8.58867 17.4407C8.47165 17.5709 8.32538 17.7733 8.19373 17.7878C7.87193 17.8167 7.49161 17.8312 7.24294 17.6721C6.90651 17.4697 6.848 17.0792 7.06741 16.7176C7.18443 16.5296 7.33071 16.3706 7.47698 16.2115C10.5488 12.7841 13.6205 9.35668 16.6923 5.92927C17.2481 5.30742 17.4968 5.26403 18.2428 5.68342C21.0513 7.24528 23.8597 8.8216 26.6682 10.3835C26.9169 10.5136 27.0924 10.6438 27.3703 10.3545C29.9886 7.53451 32.6216 4.74342 35.2399 1.93786C35.313 1.89447 35.3423 1.82217 35.4886 1.60524Z" fill="#036EB7"/>
<path d="M37.3834 29.6897C37.3541 28.0845 38.4366 26.9709 39.9432 26.9709C41.4498 26.9709 42.5761 28.0845 42.4884 29.603C42.4006 31.1504 42.1958 32.6833 42.0349 34.2162C41.874 35.7347 41.6839 37.2532 41.523 38.7716C41.4206 39.755 40.8501 40.3624 39.9432 40.3624C39.0655 40.3624 38.4805 39.784 38.3781 38.8295C38.0563 35.9516 37.7345 33.0738 37.4273 30.1959C37.3834 29.9934 37.3834 29.8054 37.3834 29.6897ZM39.8701 37.2821C39.9139 37.2821 39.9578 37.2821 40.0163 37.2676C40.2796 34.7658 40.5429 32.2639 40.8208 29.762C40.8647 29.3571 40.8355 28.9377 40.4405 28.7787C40.1334 28.663 39.7092 28.663 39.4166 28.7931C39.0363 28.9522 38.9924 29.3571 39.0509 29.7765C39.1972 30.9624 39.2996 32.1338 39.4312 33.3196C39.5629 34.6356 39.7238 35.9516 39.8701 37.2821Z" fill="#036EB7"/>
<path d="M39.9336 44.8165C38.7927 44.8165 37.9297 43.9633 37.9297 42.8353C37.9297 41.7218 38.822 40.8396 39.9336 40.8396C41.0307 40.8396 41.9376 41.7507 41.9376 42.8498C41.9376 43.9633 41.06 44.8165 39.9336 44.8165ZM39.9044 42.3725C39.7581 42.6039 39.5972 42.7485 39.6118 42.8642C39.6411 42.9944 39.8313 43.0812 39.9483 43.1824C40.0507 43.0667 40.2262 42.9365 40.2408 42.8064C40.2555 42.7052 40.0653 42.575 39.9044 42.3725Z" fill="#036EB7"/>
</svg>
