<svg width="56" height="58" viewBox="0 0 56 58" fill="none" xmlns="http://www.w3.org/2000/svg">
<path d="M10.2361 54.1607C10.2361 54.5512 10.2516 54.8635 10.2361 55.1603C10.205 55.7539 9.87885 56.1287 9.30414 56.1443C6.50824 56.16 3.72787 56.16 0.931967 56.1443C0.38832 56.1443 0.0465983 55.7695 0.0155328 55.2072C0 54.7386 0.0155328 54.27 0.0155328 53.8014C0.0155328 48.7875 0.0155328 43.7893 0 38.7754C0 38.2288 0.155328 37.8227 0.543647 37.4322C3.15315 34.8237 5.76266 32.2152 8.35664 29.5755C8.76049 29.1694 9.17987 28.9976 9.73905 28.9976C11.7738 29.0289 13.8086 28.9976 15.8434 29.0132C16.2318 29.0132 16.4803 28.9039 16.7599 28.6228C21.078 24.2649 25.4116 19.9227 29.7297 15.5492C30.1491 15.1275 30.5685 14.9557 31.1588 14.9557C33.5197 14.9869 35.8807 14.9713 38.2572 14.9557C38.4902 14.9557 38.8009 14.8463 38.9562 14.6745C43.1035 10.5197 47.2352 6.36495 51.3824 2.19454C51.4601 2.11644 51.5222 2.03835 51.6776 1.86653C50.5437 1.86653 49.534 1.86653 48.5089 1.86653C48.0584 1.86653 47.7167 1.71034 47.5303 1.28861C47.2818 0.710688 47.6546 0.0234293 48.307 0.0234293C50.202 -0.00780976 52.097 -0.00780976 54.0075 0.0234293C54.5511 0.0234293 54.8773 0.382678 54.8929 0.929361C54.9084 2.8037 54.9084 4.66243 54.8929 6.53677C54.8929 7.09907 54.489 7.47394 53.992 7.48956C53.4638 7.50518 53.06 7.11469 53.0445 6.52115C53.0289 5.47464 53.0445 4.42813 53.0445 3.25667C52.827 3.45972 52.6717 3.6003 52.5319 3.74087C48.3846 7.91128 44.2218 12.0817 40.0901 16.2677C39.6707 16.6895 39.2513 16.8769 38.6611 16.8613C36.3312 16.83 34.0168 16.8613 31.6869 16.8456C31.283 16.8456 31.0034 16.955 30.7238 17.2518C26.4213 21.594 22.0876 25.9362 17.785 30.2784C17.3501 30.7158 16.9152 30.9032 16.2939 30.9032C14.2591 30.872 12.2243 30.8876 10.1895 30.9032C9.95651 30.9032 9.66139 30.9657 9.5216 31.1219C7.47127 33.1524 5.43647 35.2142 3.38615 37.276C3.37061 37.2916 3.35508 37.3384 3.30848 37.4478C3.91426 37.4478 4.47344 37.4478 5.04815 37.4478C6.35291 37.4478 7.64213 37.4478 8.94688 37.4478C9.97205 37.4478 10.2516 37.7289 10.2516 38.7598C10.2516 38.916 10.2516 39.0722 10.2516 39.3065C10.4691 39.3065 10.6866 39.3065 10.8885 39.3065C15.2066 39.1347 19.5247 38.9785 23.8273 38.7911C25.8465 38.713 27.8503 38.5568 29.8695 38.4787C31.516 38.4162 32.8363 39.4939 33.0538 41.0247C33.2868 42.6803 32.3703 44.0392 30.7238 44.4922C30.0404 44.6796 29.3414 44.8514 28.5027 45.0701C29.9317 45.648 31.2209 46.1791 32.5101 46.6633C32.6965 46.7414 32.9606 46.6633 33.178 46.6164C39.2203 45.0389 45.2625 43.4457 51.3203 41.8681C53.3396 41.337 55.188 42.2898 55.8093 44.1486C56.4306 46.0385 55.4986 47.9441 53.526 48.7095C46.443 51.4585 39.3445 54.2075 32.2461 56.9409C31.9354 57.0659 31.516 57.0659 31.1898 56.9878C26.2659 55.8476 21.3576 54.6605 16.4337 53.5359C15.7968 53.3953 15.0979 53.5203 14.43 53.5984C13.0475 53.7389 11.6651 53.9576 10.2361 54.1607ZM10.2672 52.2707C12.0068 52.0208 13.6999 51.7709 15.3775 51.5522C15.6881 51.5053 16.0298 51.521 16.3405 51.5834C21.2333 52.7237 26.1417 53.8951 31.0345 55.0197C31.3762 55.0978 31.8111 55.0822 32.1373 54.9573C36.7816 53.1766 41.4259 51.3804 46.0547 49.5841C48.2914 48.7251 50.5281 47.8504 52.7649 46.9913C53.4638 46.7258 53.9764 46.304 54.0696 45.5075C54.2249 44.1642 53.1221 43.3207 51.6931 43.6956C45.5887 45.2888 39.4843 46.882 33.3955 48.5064C32.7742 48.6782 32.2461 48.6314 31.6558 48.3814C29.7142 47.5692 27.7571 46.7882 25.7844 46.0229C25.5204 45.9136 25.1786 45.9136 24.8991 45.976C23.8273 46.2103 22.7555 46.5071 21.6838 46.757C21.0935 46.8976 20.5809 46.6164 20.4567 46.0698C20.3479 45.5699 20.6431 45.1013 21.2178 44.9451C21.3886 44.8983 21.5595 44.8671 21.7304 44.8202C24.5263 44.1173 27.3222 43.4144 30.1181 42.7116C30.8947 42.5085 31.2675 42.0243 31.1743 41.3527C31.0811 40.6966 30.584 40.3374 29.7763 40.3686C28.6114 40.4155 27.462 40.4936 26.297 40.5404C21.1091 40.7591 15.9211 40.9778 10.7332 41.1965C10.5623 41.1965 10.407 41.2121 10.2361 41.2277C10.2672 44.9139 10.2672 48.5533 10.2672 52.2707ZM1.91053 39.3221C1.91053 44.336 1.91053 49.2874 1.91053 54.2388C4.08512 54.2388 6.22865 54.2388 8.3411 54.2388C8.3411 49.2405 8.3411 44.2891 8.3411 39.3221C6.18205 39.3221 4.06959 39.3221 1.91053 39.3221Z" fill="#036EB7"/>
<path d="M42.8086 18.7356C48.913 18.72 53.9456 23.7807 53.9456 29.9192C53.9456 36.1045 48.9751 41.1653 42.8863 41.1809C36.6266 41.1965 31.625 36.1826 31.625 29.888C31.6405 23.7651 36.6576 18.7513 42.8086 18.7356ZM52.0972 29.9817C52.0972 24.8272 47.9344 20.61 42.8552 20.61C37.6672 20.61 33.5045 24.7804 33.5045 29.9973C33.5045 35.1361 37.7138 39.3378 42.8707 39.3221C47.9189 39.3065 52.0972 35.0893 52.0972 29.9817Z" fill="#036EB7"/>
<path d="M41.8805 34.6363C41.5077 34.6363 41.2126 34.6519 40.933 34.6363C40.3893 34.6051 40.0165 34.199 40.0165 33.6991C40.0165 33.1837 40.3893 32.8088 40.9485 32.7776C41.5232 32.762 42.1135 32.7776 42.6882 32.762C43.2939 32.7463 43.6978 32.4027 43.7133 31.8716C43.7444 31.325 43.3561 30.9345 42.7192 30.8876C41.3058 30.7627 40.3272 29.9348 40.0476 28.6228C39.7835 27.4201 40.3583 26.2642 41.5543 25.5457C41.6941 25.4676 41.8028 25.2334 41.8339 25.0615C41.8805 24.796 41.8339 24.5149 41.8649 24.2493C41.9115 23.7495 42.3309 23.3746 42.8124 23.4059C43.325 23.4371 43.6357 23.7339 43.6978 24.2337C43.7444 24.5461 43.6978 24.8585 43.6978 25.2646C43.9774 25.2646 44.2415 25.2646 44.5055 25.2646C45.1424 25.2802 45.5462 25.6395 45.5617 26.1861C45.5773 26.7484 45.1579 27.1233 44.4744 27.1389C43.9308 27.1546 43.3871 27.1233 42.8435 27.1389C42.2377 27.1546 41.8494 27.5138 41.8339 28.0449C41.8183 28.5759 42.1911 28.9508 42.7969 28.9977C44.2415 29.1382 45.1889 29.9192 45.4841 31.2312C45.7637 32.4652 45.2045 33.5742 43.9619 34.3395C43.8376 34.4176 43.7289 34.6207 43.6978 34.7769C43.6512 35.0424 43.6978 35.3236 43.6823 35.5891C43.6357 36.1045 43.2474 36.4638 42.7658 36.4638C42.2843 36.4638 41.8805 36.1045 41.8494 35.5891C41.8494 35.3236 41.8805 35.0112 41.8805 34.6363Z" fill="#036EB7"/>
</svg>
