<svg width="56" height="56" viewBox="0 0 56 56" fill="none" xmlns="http://www.w3.org/2000/svg">
<path d="M19.8729 13.1029C19.8729 9.81583 19.8729 6.63436 19.8729 3.45288C19.8729 2.44265 19.888 1.41734 19.8729 0.407108C19.8729 0.120625 19.9332 -0.0150781 20.2499 0.0150781C20.3403 0.0301562 20.4308 0.0150781 20.5363 0.0150781C32.1163 0.0150781 43.7264 0.0150781 55.3366 0C55.8945 0 56 0.150781 56 0.678514C55.9849 15.8923 55.9849 31.1061 56 46.3349C56 46.8476 55.8794 46.9984 55.3667 46.9833C53.3161 46.9532 51.2655 46.9833 49.2149 46.9682C48.8379 46.9682 48.7022 47.0587 48.657 47.4507C48.0237 52.3059 43.7868 56 38.8411 56C33.9106 56 29.6435 52.2908 29.0253 47.4507C28.9801 47.0587 28.8444 46.9531 28.4674 46.9531C27.0953 46.9531 27.1255 46.9381 27.0953 48.3253C27.0802 49.6521 27.231 50.9941 27.0048 52.3209C26.643 54.4017 24.8336 55.9698 22.7377 55.9698C16.6311 56 10.5094 56 4.4028 55.9698C1.92999 55.9548 0.0301562 53.9192 0.0301562 51.371C0 45.0533 0 38.7356 0 32.4179C0 29.2062 0 25.9795 0 22.7679C0 20.4308 1.37211 18.6968 3.63382 18.1992C3.96554 18.1239 4.04093 17.9278 4.13139 17.6715C5.45827 14.0075 8.02154 11.7458 11.8363 11.007C14.5202 10.4943 17.0232 11.1125 19.2849 12.6807C19.4507 12.8013 19.6166 12.9219 19.8729 13.1029ZM25.2859 18.9682C25.2859 17.581 25.301 16.2843 25.2709 14.9876C25.2558 14.5805 25.3613 14.4448 25.7986 14.4448C27.8643 14.475 29.93 14.475 32.0108 14.4448C32.4631 14.4448 32.5234 14.5956 32.5234 14.9876C32.5083 18.0334 32.5083 21.0792 32.5083 24.1249C32.5083 25.2859 32.5083 25.2709 33.6844 25.301C34.1971 25.3161 34.3328 25.1804 34.3328 24.6677C34.3177 19.6467 34.3177 14.6257 34.3177 9.60474C34.3177 9.18255 34.3931 9.03177 34.8605 9.03177C36.9111 9.06193 38.9618 9.06193 41.0124 9.03177C41.4647 9.03177 41.5703 9.16747 41.5703 9.58966C41.5552 14.4448 41.5552 19.2999 41.5552 24.14C41.5552 25.2859 41.5552 25.2407 42.6861 25.301C43.2892 25.3312 43.3796 25.1201 43.3646 24.5773C43.3495 17.7921 43.3646 10.9919 43.3344 4.20679C43.3344 3.69413 43.4701 3.58858 43.9526 3.58858C45.9429 3.61874 47.9332 3.61874 49.9386 3.58858C50.4362 3.58858 50.587 3.69413 50.587 4.22186C50.5719 11.007 50.587 17.8072 50.5568 24.5924C50.5568 25.105 50.6322 25.3161 51.2052 25.2859C52.3662 25.2407 52.336 25.2709 52.3813 26.447C52.3963 26.9596 52.2606 27.0953 51.748 27.0953C43.7566 27.0802 35.7652 27.0953 27.7738 27.0652C27.1707 27.0652 27.0802 27.2461 27.0802 27.7738C27.0953 33.0964 27.0953 38.419 27.0953 43.7415C27.0953 45.1589 27.0953 45.1438 28.4825 45.1438C28.8444 45.1438 28.965 45.0382 29.0102 44.6764C29.6586 39.7911 33.8654 36.112 38.7959 36.0969C43.7566 36.0819 47.9785 39.7609 48.6419 44.6764C48.6871 45.0382 48.8078 45.1438 49.1696 45.1438C50.6774 45.1287 52.1852 45.1287 53.678 45.1438C54.07 45.1438 54.1755 45.0382 54.1755 44.6462C54.1605 30.518 54.1605 16.3899 54.1755 2.27679C54.1755 1.86968 54.0398 1.79429 53.6629 1.79429C43.1685 1.80937 32.6742 1.80937 22.1799 1.79429C21.7577 1.79429 21.6521 1.89984 21.6521 2.32202C21.6672 6.43834 21.6672 10.5547 21.6672 14.6861C21.6672 14.8971 21.6672 15.0932 21.7878 15.2741C22.3306 16.0582 22.7227 16.9025 23.0092 17.8072C23.0695 17.9731 23.1147 18.1239 23.3258 18.154C24.0043 18.2596 24.6074 18.5611 25.2859 18.9682ZM25.2859 37.0167C25.2859 32.252 25.2859 27.5024 25.2859 22.7377C25.2859 21.6521 24.8487 20.8228 23.9289 20.2499C23.5821 20.0388 23.4615 20.0689 23.4766 20.5213C23.4917 23.7329 23.4766 26.9596 23.5067 30.1712C23.5067 30.6236 23.371 30.7291 22.9488 30.7141C16.7065 30.699 10.4642 30.699 4.22186 30.7141C3.76952 30.7141 3.61874 30.6236 3.63382 30.1411C3.66397 26.9445 3.6489 23.748 3.6489 20.5514C3.6489 20.4157 3.73936 20.2197 3.58858 20.1443C3.4378 20.0539 3.3021 20.2046 3.18148 20.28C2.26171 20.853 1.83953 21.6974 1.83953 22.783C1.83953 32.2671 1.83953 41.7361 1.83953 51.2202C1.83953 53.0899 2.94023 54.2057 4.80991 54.2057C10.6451 54.2057 16.4653 54.2057 22.3005 54.2057C24.2154 54.2057 25.3161 53.105 25.3161 51.2052C25.2859 46.4556 25.2859 41.7361 25.2859 37.0167ZM13.525 28.9047C17.9882 28.9198 21.6521 25.2859 21.6823 20.8379C21.6974 16.3446 18.0635 12.6656 13.5854 12.6656C9.12224 12.6505 5.45827 16.2843 5.42811 20.7324C5.39795 25.2256 9.03177 28.9047 13.525 28.9047ZM30.699 46.0485C30.699 50.5116 34.3177 54.1755 38.7808 54.1906C43.2741 54.2057 46.9381 50.5568 46.9531 46.0786C46.9531 41.6155 43.3344 37.9515 38.8713 37.9365C34.378 37.9214 30.7141 41.5552 30.699 46.0485ZM48.7625 15.3796C48.7625 12.2283 48.7625 9.06193 48.7625 5.91061C48.7625 5.56381 48.7022 5.41303 48.3102 5.42811C47.4055 5.45827 46.5008 5.45827 45.5961 5.42811C45.2192 5.41303 45.1287 5.53366 45.1287 5.89553C45.1438 12.2132 45.1438 18.531 45.1287 24.8487C45.1287 25.2407 45.2644 25.3161 45.6112 25.301C46.4706 25.2859 47.3452 25.2709 48.2046 25.301C48.657 25.3161 48.7625 25.1804 48.7625 24.7431C48.7474 21.622 48.7625 18.5008 48.7625 15.3796ZM39.7307 18.1389C39.7307 15.8621 39.7157 13.5854 39.7458 11.3086C39.7458 10.9316 39.6403 10.8261 39.2784 10.8411C38.3586 10.8713 37.4389 10.8562 36.5191 10.8411C36.2326 10.8411 36.1271 10.9015 36.1271 11.2181C36.1422 15.7868 36.1422 20.3554 36.1271 24.9241C36.1271 25.2256 36.2176 25.3161 36.504 25.301C37.3936 25.2859 38.2682 25.2709 39.1578 25.301C39.6101 25.3161 39.7609 25.2106 39.7609 24.7281C39.7157 22.5267 39.7307 20.3253 39.7307 18.1389ZM30.699 20.8078C30.699 19.4809 30.6839 18.1389 30.7141 16.8121C30.7291 16.3446 30.5633 16.2542 30.1411 16.2693C29.2816 16.2994 28.4071 16.2994 27.5477 16.2693C27.1707 16.2542 27.0802 16.3748 27.0802 16.7367C27.0953 19.4356 27.0953 22.1497 27.0802 24.8487C27.0802 25.2407 27.2159 25.3161 27.5627 25.301C28.4674 25.2859 29.3721 25.2709 30.2617 25.301C30.6085 25.3161 30.7141 25.2106 30.699 24.8638C30.6839 23.5067 30.699 22.1497 30.699 20.8078ZM21.6672 26.6581C20.9435 27.4723 20.2046 28.1809 19.2396 28.9047C20.0539 28.9047 20.6871 28.9047 21.3204 28.9047C21.5466 28.9047 21.6672 28.8594 21.6672 28.6031C21.6672 27.9548 21.6672 27.3064 21.6672 26.6581ZM5.41303 26.4922C5.41303 27.3215 5.41303 27.9698 5.41303 28.6182C5.41303 28.7539 5.39795 28.8896 5.59397 28.9047C6.28756 28.9047 6.98115 28.9047 7.8406 28.9047C6.86053 28.1809 6.15186 27.4572 5.41303 26.4922Z" fill="#036EB7"/>
<path d="M46.0817 28.9047C48.0117 28.9047 49.9568 28.9198 51.8868 28.8896C52.2939 28.8896 52.3843 29.0103 52.3843 29.3872C52.3693 30.699 52.3843 30.699 51.0725 30.699C47.484 30.699 43.8954 30.6839 40.3068 30.7141C39.8243 30.7141 39.7188 30.5935 39.7188 30.1261C39.7489 28.9047 39.7338 28.9047 40.9552 28.9047C42.659 28.9047 44.3779 28.9047 46.0817 28.9047Z" fill="#036EB7"/>
<path d="M44.2723 32.5235C45.5992 32.5235 46.9412 32.5386 48.268 32.5084C48.6751 32.4934 48.7656 32.6291 48.7656 33.0211C48.7505 34.3329 48.7656 34.3329 47.4538 34.3329C45.0564 34.3329 42.6439 34.3178 40.2465 34.348C39.8092 34.348 39.7188 34.2273 39.7188 33.8202C39.7338 32.5386 39.7188 32.5386 41.0004 32.5386C42.1011 32.5235 43.1867 32.5235 44.2723 32.5235Z" fill="#036EB7"/>
<path d="M52.3646 33.4281C52.3646 34.3328 52.3646 34.3328 51.279 34.3177C50.5703 34.3177 50.5703 34.3177 50.5703 33.217C50.5703 32.5234 50.5703 32.5234 51.6861 32.5234C52.3646 32.5234 52.3646 32.5234 52.3646 33.4281Z" fill="#036EB7"/>
<path d="M9.02858 35.2526C9.19444 37.258 8.3953 37.9818 6.31452 37.9818C4.27898 37.9818 3.57031 37.2882 3.57031 35.2376C3.57031 33.202 4.21867 32.4783 6.34468 32.4783C8.31991 32.4933 9.19444 33.1417 9.02858 35.2526ZM7.21921 35.2225C7.21921 34.3329 7.21921 34.3329 6.52562 34.3329C5.42492 34.3329 5.42492 34.3329 5.42492 35.0415C5.42492 36.1272 5.42492 36.1272 6.20898 36.1272C7.21921 36.1272 7.21921 36.1272 7.21921 35.2225Z" fill="#036EB7"/>
<path d="M16.2551 35.2526C16.421 37.258 15.6219 37.9818 13.5411 37.9818C11.5055 37.9818 10.7969 37.2882 10.7969 35.2376C10.7969 33.202 11.4452 32.4783 13.5712 32.4783C15.5465 32.4933 16.421 33.1417 16.2551 35.2526ZM14.4458 35.2828C14.4458 34.3329 14.4458 34.3329 13.4657 34.3329C13.3601 34.3329 13.2395 34.348 13.134 34.3329C12.7419 34.2726 12.5761 34.4233 12.6364 34.8305C12.6515 34.9662 12.6364 35.0868 12.6364 35.2225C12.6364 36.1422 12.6364 36.1422 13.5863 36.1422C14.4458 36.1272 14.4458 36.1272 14.4458 35.2828Z" fill="#036EB7"/>
<path d="M18.0623 35.1923C17.8964 33.1869 18.7257 32.4933 20.7311 32.4783C22.8722 32.4783 23.5055 33.202 23.5055 35.2376C23.5055 37.2731 22.8119 37.9818 20.7613 37.9818C18.7559 37.9667 17.8813 37.3334 18.0623 35.1923ZM20.7763 34.3178C19.8716 34.3178 19.8716 34.3178 19.8716 35.0114C19.8716 36.1272 19.8716 36.1272 20.5803 36.1272C21.681 36.1272 21.681 36.1272 21.681 35.4185C21.6659 34.3178 21.6659 34.3178 20.7763 34.3178Z" fill="#036EB7"/>
<path d="M3.62088 42.3694C3.45503 40.3791 4.35971 39.5799 6.22939 39.7307C6.59127 39.7609 6.93806 39.7156 7.29994 39.7458C8.24986 39.791 9.00376 40.5299 9.03392 41.4798C9.06407 42.1131 9.06407 42.7614 9.03392 43.3947C9.00376 44.3748 8.24986 45.1136 7.2547 45.1438C6.66666 45.1588 6.09369 45.1588 5.50564 45.1438C4.38987 45.1287 3.63596 44.3898 3.62088 43.259C3.60581 42.9725 3.62088 42.6709 3.62088 42.3694ZM6.33494 41.5552C5.43025 41.5552 5.43025 41.5552 5.43025 42.2488C5.43025 43.3645 5.43025 43.3645 6.13892 43.3645C7.23962 43.3645 7.23962 43.3645 7.23962 42.6559C7.22455 41.5552 7.22455 41.5552 6.33494 41.5552Z" fill="#036EB7"/>
<path d="M10.8404 42.4297C10.6745 40.3791 11.534 39.5951 13.5092 39.7459C13.8409 39.776 14.1877 39.7308 14.5194 39.7609C15.4694 39.8062 16.2233 40.545 16.2534 41.51C16.2836 42.1433 16.2836 42.7916 16.2534 43.4249C16.2233 44.405 15.4694 45.1438 14.4742 45.174C13.8862 45.189 13.3132 45.189 12.7251 45.174C11.6094 45.1589 10.8705 44.405 10.8404 43.2892C10.8253 42.9876 10.8404 42.7012 10.8404 42.4297ZM13.5846 41.5552C12.6347 41.5552 12.6347 41.5552 12.6347 42.4901C12.6347 42.5805 12.6498 42.6861 12.6347 42.7765C12.5291 43.2892 12.7704 43.4551 13.2529 43.3646C13.3283 43.3495 13.4037 43.3646 13.4791 43.3646C14.4591 43.3646 14.4591 43.3646 14.4591 42.3996C14.444 41.5552 14.444 41.5552 13.5846 41.5552Z" fill="#036EB7"/>
<path d="M23.4739 42.4598C23.6398 44.4953 22.8105 45.204 20.7749 45.204C18.7092 45.204 18.0307 44.4803 18.0156 42.4749C18.0156 40.379 18.7092 39.7005 20.7749 39.7156C22.7954 39.7156 23.6398 40.3941 23.4739 42.4598ZM20.7598 43.3494C21.6796 43.3494 21.6796 43.3494 21.6796 42.6709C21.6796 41.54 21.6796 41.54 20.986 41.54C19.8702 41.54 19.8702 41.54 19.8702 42.309C19.8702 43.3494 19.8702 43.3494 20.7598 43.3494Z" fill="#036EB7"/>
<path d="M9.03439 49.6671C9.20025 51.7177 8.40111 52.4264 6.29018 52.4264C4.28479 52.4264 3.44042 51.7177 3.60628 49.7274C3.63643 49.3957 3.5912 49.0489 3.62136 48.7172C3.66659 47.7522 4.40542 47.0285 5.37041 46.9832C5.97354 46.9682 6.57666 46.9682 7.17978 46.9832C8.26541 46.9983 9.01931 47.7371 9.03439 48.8228C9.03439 49.0942 9.03439 49.3806 9.03439 49.6671ZM6.35049 50.5718C7.2401 50.5718 7.2401 50.5718 7.2401 49.9235C7.2401 48.7775 7.2401 48.7775 6.51635 48.7775C5.43073 48.7775 5.43073 48.7775 5.43073 49.5163C5.41565 50.5718 5.41565 50.5718 6.35049 50.5718Z" fill="#036EB7"/>
<path d="M13.572 52.3814C11.5063 52.5472 10.7977 51.7481 10.8127 49.6522C10.8127 47.6469 11.4762 46.8025 13.572 46.9683C13.8887 46.9985 14.2053 46.9683 14.537 46.9834C15.4869 47.0287 16.2408 47.7675 16.271 48.7174C16.3012 49.3054 16.2861 49.8784 16.271 50.4665C16.2559 51.6576 15.5171 52.3814 14.3109 52.3964C14.0545 52.3814 13.8133 52.3814 13.572 52.3814ZM13.5268 48.7777C12.6372 48.7777 12.6372 48.7777 12.6372 49.4261C12.6372 50.572 12.6372 50.572 13.3609 50.572C14.4466 50.572 14.4466 50.572 14.4466 49.8332C14.4466 48.7777 14.4466 48.7777 13.5268 48.7777Z" fill="#036EB7"/>
<path d="M23.4744 49.6671C23.6403 51.7328 22.7959 52.4114 20.7905 52.4114C18.7399 52.4114 18.0312 51.7479 18.0312 49.637C18.0312 47.5864 18.7701 46.7872 20.7302 46.9531C21.0318 46.9832 21.3334 46.9531 21.6349 46.9531C22.7205 46.9832 23.4594 47.7221 23.4895 48.8077C23.4744 49.1093 23.4744 49.3957 23.4744 49.6671ZM19.8708 49.6219C19.8708 50.5718 19.8708 50.5718 20.7905 50.5718C21.6801 50.5718 21.6801 50.5718 21.6801 49.6973C21.6801 48.7625 21.6801 48.7625 20.7302 48.7625C19.8708 48.7775 19.8708 48.7775 19.8708 49.6219Z" fill="#036EB7"/>
<path d="M13.4057 21.6973C12.9985 21.6822 12.5764 21.6973 12.1692 21.6219C10.8876 21.3957 9.95277 20.295 9.93769 19.0134C9.92261 17.7016 10.7971 16.5707 12.124 16.3295C12.5914 16.239 12.6668 16.0581 12.6517 15.651C12.6216 14.4598 12.6517 14.4749 13.8429 14.4447C14.3254 14.4296 14.5365 14.5352 14.4611 15.0478C14.4159 15.3946 14.3556 15.8017 14.4913 16.1033C14.6421 16.435 15.1095 16.2993 15.4261 16.435C16.361 16.8421 16.9188 17.5357 17.1299 18.5309C17.2053 18.8927 17.0847 19.0134 16.7379 18.9681C16.4967 18.938 16.2554 18.9531 15.9991 18.9681C15.6221 18.9983 15.3356 18.9832 15.1999 18.5158C15.0944 18.169 14.7325 18.0634 14.3556 18.0634C13.8128 18.0634 13.2699 18.0484 12.7271 18.0634C12.124 18.0785 11.732 18.4555 11.7471 18.9832C11.7621 19.4959 12.1391 19.8427 12.7271 19.8577C13.285 19.8728 13.858 19.8577 14.4159 19.8577C15.8483 19.8728 16.9942 20.9132 17.145 22.2853C17.2958 23.6574 16.376 24.924 14.9738 25.1954C14.5667 25.2708 14.431 25.4065 14.446 25.8136C14.4762 27.0651 14.446 27.05 13.2096 27.0801C12.7874 27.0801 12.5613 26.9897 12.6517 26.5373C12.6517 26.5072 12.6517 26.4619 12.6517 26.4318C12.6517 26.1001 12.7422 25.7231 12.6216 25.4216C12.4859 25.0898 12.0335 25.2406 11.732 25.12C10.767 24.7129 10.194 24.0193 9.96785 23.0091C9.89246 22.6472 10.0131 22.5266 10.3599 22.5718C10.6011 22.602 10.8424 22.5869 11.0987 22.5718C11.4757 22.5416 11.7621 22.5718 11.8978 23.0241C12.0034 23.3709 12.3653 23.4765 12.7422 23.4765C13.285 23.4765 13.8278 23.4916 14.3706 23.4765C14.9738 23.4614 15.3658 23.0694 15.3507 22.5416C15.3356 22.029 14.9436 21.6822 14.3706 21.6671C14.054 21.652 13.7374 21.6671 13.4057 21.6671C13.4057 21.6973 13.4057 21.6973 13.4057 21.6973Z" fill="#036EB7"/>
<path d="M38.8093 39.7458C39.729 39.7458 39.729 39.7458 39.729 40.6505C39.729 40.7108 39.729 40.7712 39.729 40.8164C39.6536 41.2989 39.7894 41.5401 40.3472 41.6457C41.4932 41.8719 42.1415 42.671 42.3979 43.7868C42.4733 44.1034 42.4431 44.2994 42.036 44.2542C41.7797 44.224 41.5083 44.2391 41.2519 44.2542C40.9051 44.2693 40.6186 44.2844 40.498 43.8169C40.4076 43.4701 40.0457 43.3495 39.6687 43.3495C39.1108 43.3495 38.5379 43.3344 37.98 43.3495C37.407 43.3646 37.0301 43.7415 37.0301 44.2542C37.0301 44.7669 37.407 45.1287 37.9951 45.1438C38.5529 45.1589 39.1259 45.1438 39.6838 45.1438C41.1464 45.1589 42.3074 46.2143 42.4431 47.6015C42.5637 48.9887 41.644 50.2402 40.2266 50.4965C39.7441 50.5719 39.729 50.783 39.729 51.1449C39.7441 52.3662 39.729 52.3511 38.5077 52.3813C38.0403 52.3964 37.8443 52.2757 37.9197 51.7932C37.9347 51.7178 37.9197 51.6425 37.9197 51.5671C37.9197 51.2655 38.0101 50.9187 37.8895 50.6775C37.7538 50.4211 37.3467 50.5267 37.0753 50.4211C36.0801 50.0442 35.477 49.3506 35.2508 48.3102C35.1905 47.9936 35.2056 47.7975 35.6127 47.8428C35.869 47.8729 36.1405 47.8579 36.3968 47.8428C36.7436 47.8277 37.0301 47.8126 37.1507 48.28C37.2412 48.6268 37.603 48.7475 37.98 48.7475C38.5379 48.7475 39.1108 48.7625 39.6687 48.7475C40.2417 48.7324 40.6186 48.3554 40.6186 47.8428C40.6186 47.3301 40.2417 46.9682 39.6536 46.9532C39.0958 46.9381 38.5228 46.9532 37.9649 46.9532C36.5023 46.9381 35.3413 45.8826 35.2056 44.4954C35.085 43.0932 36.0349 41.8417 37.4673 41.5854C37.8292 41.5251 37.9498 41.4044 37.9046 41.0576C37.8895 40.9069 37.9046 40.7561 37.9046 40.6053C37.9197 39.7458 37.9197 39.7458 38.8093 39.7458Z" fill="#036EB7"/>
</svg>
