<svg width="57" height="57" viewBox="0 0 57 57" fill="none" xmlns="http://www.w3.org/2000/svg">
<path d="M4.55481 25.2728C4.55481 22.5286 4.55481 19.8597 4.55481 17.1457C3.43873 17.1457 2.35281 17.1306 1.2669 17.1457C0.784271 17.1457 0.361971 17.0854 0.135739 16.5878C-0.0904929 16.0751 0.180986 15.7283 0.527875 15.3966C3.40856 12.5318 6.27417 9.65187 9.15486 6.78704C9.78831 6.15376 10.1955 6.13868 10.829 6.77196C13.7248 9.65187 16.6054 12.5469 19.4861 15.4268C19.8179 15.7585 20.0593 16.0902 19.8481 16.5727C19.637 17.0703 19.2297 17.1608 18.732 17.1457C17.6461 17.1306 16.5602 17.1457 15.429 17.1457C15.429 19.3169 15.429 21.458 15.429 23.7197C17.2389 21.2168 19.5917 19.6788 22.5931 19.1058C22.5931 16.3616 22.5931 13.6325 22.5931 10.828C21.9596 10.828 21.3111 10.828 20.6625 10.828C20.1497 10.828 19.652 10.828 19.1392 10.828C18.7019 10.828 18.3701 10.6772 18.1891 10.2701C18.0081 9.84789 18.1589 9.50109 18.4605 9.19953C19.4258 8.24961 20.376 7.28461 21.3412 6.33469C23.2868 4.38962 25.2324 2.44455 27.1629 0.514555C27.8567 -0.163959 28.2338 -0.179037 28.9276 0.514555C31.7932 3.37939 34.6437 6.22915 37.5093 9.09398C37.8411 9.4257 38.1277 9.7725 37.9165 10.2852C37.7054 10.7827 37.2831 10.8581 36.8004 10.8581C35.7145 10.843 34.6286 10.8581 33.4974 10.8581C33.4824 11.0843 33.4673 11.2652 33.4673 11.4462C33.4673 15.4117 33.4673 19.3772 33.4673 23.3578C33.4673 23.5991 33.5125 23.8403 33.603 24.0514C33.9348 24.7903 34.3571 25.4839 34.6286 26.2378C34.9001 26.9766 35.0509 27.7456 35.2168 28.409C36.9814 27.9416 38.7762 27.4591 40.6464 26.9615C40.6464 23.8253 40.6464 20.5533 40.6464 17.1909C39.7264 17.1909 38.8214 17.1909 37.9014 17.1909C37.6903 17.1909 37.4942 17.1758 37.2831 17.1909C36.8155 17.206 36.4234 17.0854 36.2273 16.6029C36.0463 16.1505 36.2424 15.8037 36.5591 15.5022C37.9919 14.0698 39.4398 12.6373 40.8726 11.1898C42.3356 9.72726 43.7985 8.26469 45.2615 6.80212C45.8799 6.18391 46.3022 6.18391 46.8904 6.78704C49.7862 9.68203 52.697 12.5921 55.5928 15.4871C55.9246 15.8188 56.1357 16.1656 55.9246 16.633C55.7134 17.1004 55.3213 17.1909 54.8538 17.1909C53.7678 17.1758 52.6668 17.1909 51.4904 17.1909C51.4904 17.402 51.4904 17.598 51.4904 17.794C51.4904 22.0461 51.4904 26.2981 51.5055 30.5501C51.5055 30.8517 51.6563 31.2135 51.8675 31.4246C57.4177 37.1845 57.4026 46.0353 51.8072 51.765C51.6413 51.9459 51.5206 52.2475 51.5055 52.4887C51.4754 53.318 51.5055 54.1473 51.4904 54.9766C51.4754 55.6702 51.1436 56.017 50.4347 56.017C47.2976 56.017 44.1454 56.0471 41.0084 56.0019C39.1985 55.9717 37.4791 55.5496 35.8201 54.8258C35.6542 54.7504 35.4732 54.6901 35.2621 54.5996C35.247 54.8258 35.247 55.0067 35.2319 55.1726C35.1716 55.6702 34.885 55.9567 34.3873 56.0019C34.2214 56.017 34.0555 56.017 33.8745 56.017C23.0304 56.017 12.2015 56.017 1.35739 56.017C0.241314 56.017 0 55.7757 0 54.66C0 45.3266 0 36.0084 0 26.675C0 25.5592 0.241314 25.318 1.35739 25.318C2.44331 25.2728 3.46889 25.2728 4.55481 25.2728ZM29.0633 39.7326C29.2443 39.7326 29.4253 39.7326 29.6062 39.7326C31.0391 39.7326 32.4719 39.7326 33.8896 39.7326C35.0509 39.7326 35.2922 39.9588 35.2922 41.1048C35.2922 44.7386 35.2922 48.3573 35.2771 51.9911C35.2771 52.3681 35.3978 52.5641 35.7296 52.73C37.3283 53.5592 39.0024 54.0417 40.7972 54.1624C47.735 54.6449 53.8885 49.2771 54.2354 42.3261C54.4767 37.5162 52.5764 33.6411 48.5494 31.0024C44.4622 28.3336 40.1336 28.213 35.7447 30.3541C35.3978 30.5199 35.247 30.7461 35.2168 31.1231C35.0811 32.4047 34.704 33.6109 34.1007 34.7569C32.9394 36.9281 31.2502 38.5264 29.0633 39.7326ZM24.4783 38.8129C29.4856 38.8129 33.4974 34.7267 33.4673 29.6303C33.4522 24.8204 29.3499 20.7644 24.4783 20.7644C19.471 20.7644 15.3989 24.7903 15.3989 29.766C15.414 34.787 19.456 38.8129 24.4783 38.8129ZM49.7409 29.5851C49.7409 29.2534 49.7409 29.0574 49.7409 28.8463C49.7409 24.8053 49.7409 20.7644 49.7409 16.7235C49.7409 15.5776 49.9671 15.3514 51.1436 15.3514C51.7167 15.3514 52.2898 15.3514 52.7724 15.3514C50.5252 13.1048 48.293 10.8732 46.1664 8.74719C43.9795 10.9335 41.7474 13.1651 39.5605 15.3514C39.4851 15.3363 39.5152 15.3514 39.5605 15.3514C40.1185 15.3514 40.6916 15.3514 41.2497 15.3514C42.2451 15.3514 42.5166 15.6228 42.5166 16.6179C42.5166 19.905 42.5166 23.192 42.5166 26.4941C42.5166 26.6901 42.5166 26.8861 42.5166 27.1123C45.1409 27.3083 47.4937 28.1074 49.7409 29.5851ZM24.4482 18.94C27.178 19.0003 29.5459 19.8899 31.6725 21.6993C31.6725 21.3826 31.6725 21.1866 31.6725 20.9755C31.6725 17.3869 31.6725 13.7983 31.6725 10.2098C31.6725 9.32016 31.9741 9.01859 32.8489 9.01859C33.4974 9.01859 34.1309 9.01859 34.6739 9.01859C32.4417 6.78704 30.1945 4.5404 28.083 2.42947C25.9111 4.60072 23.679 6.83227 21.4921 9.01859C21.4166 9.00352 21.4468 9.01859 21.477 9.01859C22.0652 9.01859 22.6383 9.01859 23.2265 9.01859C24.1465 9.01859 24.4331 9.30508 24.4331 10.2248C24.4331 12.9087 24.4331 15.6077 24.4331 18.2916C24.4482 18.5027 24.4482 18.7138 24.4482 18.94ZM10.0749 8.70195C7.84272 10.9335 5.61056 13.1651 3.42365 15.3363C3.33315 15.3212 3.3784 15.3363 3.40856 15.3363C3.99677 15.3363 4.56989 15.3363 5.15809 15.3363C6.0781 15.3363 6.36467 15.6228 6.36467 16.5576C6.36467 19.2415 6.36467 21.9405 6.36467 24.6244C6.36467 24.8204 6.36467 25.0315 6.36467 25.2426C8.80797 25.2426 11.1759 25.2426 13.589 25.2426C13.589 25.0014 13.589 24.8053 13.589 24.5943C13.589 21.9104 13.589 19.2114 13.589 16.5275C13.589 15.6379 13.8907 15.3514 14.7654 15.3363C15.414 15.3363 16.0474 15.3363 16.6959 15.3363C14.4336 13.0595 12.2165 10.828 10.0749 8.70195ZM33.4522 41.5722C27.4193 41.5722 21.4317 41.5722 15.4592 41.5722C15.4592 42.1753 15.4592 42.7483 15.4592 43.3062C21.477 43.3062 27.4495 43.3062 33.4522 43.3062C33.4522 42.7181 33.4522 42.1602 33.4522 41.5722ZM15.4441 46.9098C21.477 46.9098 27.4646 46.9098 33.4371 46.9098C33.4371 46.3067 33.4371 45.7337 33.4371 45.1758C27.4193 45.1758 21.4468 45.1758 15.4441 45.1758C15.4441 45.7488 15.4441 46.3067 15.4441 46.9098ZM15.4441 50.5286C21.477 50.5286 27.4646 50.5286 33.4371 50.5286C33.4371 49.9254 33.4371 49.3525 33.4371 48.7946C27.4193 48.7946 21.4468 48.7946 15.4441 48.7946C15.4441 49.3675 15.4441 49.9254 15.4441 50.5286ZM33.4522 52.4133C27.4043 52.4133 21.4166 52.4133 15.4441 52.4133C15.4441 53.0164 15.4441 53.5743 15.4441 54.1322C21.4619 54.1322 27.4495 54.1322 33.4522 54.1322C33.4522 53.5442 33.4522 52.9863 33.4522 52.4133ZM1.90035 37.9233C1.90035 38.5716 1.90035 39.1295 1.90035 39.6723C7.90304 39.6723 13.8605 39.6723 19.833 39.6723C19.1091 39.1898 18.4153 38.7073 17.6914 38.2701C17.4048 38.1042 17.0579 37.9233 16.7412 37.9233C11.9903 37.9082 7.22435 37.9082 2.47347 37.9082C2.29249 37.9233 2.1115 37.9233 1.90035 37.9233ZM15.5949 36.0988C15.2933 35.5862 15.0067 35.164 14.8107 34.7116C14.6598 34.3799 14.4638 34.3045 14.1169 34.3045C10.2106 34.3196 6.30434 34.3045 2.39806 34.3196C2.23216 34.3196 2.08134 34.3347 1.91543 34.3498C1.91543 34.968 1.91543 35.5259 1.91543 36.0988C6.47024 36.0988 10.9949 36.0988 15.5949 36.0988ZM13.9208 27.1123C9.90897 27.1123 5.9122 27.1123 1.90035 27.1123C1.90035 27.7154 1.90035 28.2884 1.90035 28.8613C5.82171 28.8613 9.7129 28.8613 13.6192 28.8613C13.7248 28.2733 13.8152 27.7003 13.9208 27.1123ZM13.9208 32.4801C13.8152 31.8619 13.7097 31.2889 13.6192 30.7461C9.68274 30.7461 5.77646 30.7461 1.90035 30.7461C1.90035 31.3492 1.90035 31.9071 1.90035 32.4801C5.9122 32.4801 9.89389 32.4801 13.9208 32.4801ZM1.88527 43.2911C5.80663 43.2911 9.69782 43.2911 13.5588 43.2911C13.5588 42.6729 13.5588 42.115 13.5588 41.5571C9.65257 41.5571 5.77646 41.5571 1.88527 41.5571C1.88527 42.1451 1.88527 42.703 1.88527 43.2911ZM13.5739 46.94C13.5739 46.3218 13.5739 45.7488 13.5739 45.1758C9.65257 45.1758 5.77646 45.1758 1.91543 45.1758C1.91543 45.779 1.91543 46.3519 1.91543 46.94C5.80663 46.94 9.66765 46.94 13.5739 46.94ZM1.90035 50.5286C5.82171 50.5286 9.69782 50.5286 13.5739 50.5286C13.5739 49.9254 13.5739 49.3525 13.5739 48.7946C9.66765 48.7946 5.79154 48.7946 1.90035 48.7946C1.90035 49.3675 1.90035 49.9254 1.90035 50.5286ZM13.589 52.3982C9.66765 52.3982 5.79154 52.3982 1.91543 52.3982C1.91543 53.0014 1.91543 53.5743 1.91543 54.1322C5.82171 54.1322 9.69782 54.1322 13.589 54.1322C13.589 53.5592 13.589 53.0014 13.589 52.3982ZM49.7108 53.514C49.3789 53.7251 49.0924 53.906 48.6852 54.1473C49.1225 54.1473 49.4091 54.1473 49.7108 54.1473C49.7108 53.9362 49.7108 53.7553 49.7108 53.514Z" fill="#036EB7"/>
<path d="M47.1461 36.9733C46.9349 37.3201 46.8293 37.5764 46.6484 37.7725C43.7224 40.7127 40.7814 43.6529 37.8404 46.5781C37.3728 47.0455 36.8299 47.0756 36.4528 46.6836C36.0758 46.2916 36.1059 45.7638 36.5886 45.2964C39.5145 42.3713 42.4254 39.4461 45.3513 36.5361C45.668 36.2194 46.03 35.9782 46.4523 36.2345C46.7087 36.3853 46.8897 36.7019 47.1461 36.9733Z" fill="#036EB7"/>
<path d="M38.0044 35.2092C39.4975 35.2092 40.7041 36.4607 40.689 37.9534C40.6739 39.416 39.4372 40.6223 37.9742 40.6072C36.466 40.5921 35.2595 39.3557 35.2896 37.863C35.3047 36.4004 36.5264 35.2092 38.0044 35.2092ZM38.8942 37.9082C38.8942 37.4257 38.487 37.0186 38.0044 37.0186C37.4916 37.0186 37.0844 37.4408 37.0995 37.9534C37.1146 38.4359 37.5369 38.828 38.0195 38.8129C38.5021 38.8129 38.8942 38.3907 38.8942 37.9082Z" fill="#036EB7"/>
<path d="M47.9303 45.1759C47.9152 46.6384 46.6784 47.8597 45.2155 47.8447C43.7073 47.8296 42.5007 46.5932 42.5158 45.1005C42.5308 43.6228 43.7525 42.4316 45.2306 42.4316C46.7237 42.4467 47.9303 43.6831 47.9303 45.1759ZM46.1204 45.1608C46.1355 44.6783 45.7433 44.2561 45.2607 44.241C44.7479 44.2259 44.3256 44.633 44.3256 45.1457C44.3256 45.6282 44.7328 46.0353 45.2155 46.0353C45.6981 46.0504 46.1053 45.6433 46.1204 45.1608Z" fill="#036EB7"/>
<path d="M25.3416 24.3529C26.4275 24.5338 27.257 25.0163 27.7548 25.9813C28.0564 26.5694 27.9357 27.0971 27.4682 27.3534C26.9856 27.6098 26.4879 27.4288 26.1711 26.8408C25.9147 26.3734 25.5377 26.1623 25.0249 26.1774C24.6478 26.1924 24.2708 26.1623 23.8937 26.1924C23.215 26.2377 22.6872 26.7503 22.6419 27.3534C22.5967 27.9566 22.9888 28.4843 23.6524 28.6652C24.2859 28.8311 24.9344 28.9668 25.5678 29.1327C27.0006 29.4945 27.9961 30.6405 28.0564 31.9824C28.1167 33.3244 27.1666 34.6362 25.7639 35.0583C25.417 35.1639 25.3114 35.3147 25.3416 35.6464C25.3567 35.8273 25.3567 36.0233 25.3416 36.2043C25.2813 36.6868 24.8891 37.0487 24.4216 37.0185C23.9239 36.9883 23.6222 36.7019 23.5619 36.2043C23.5318 35.8876 23.5619 35.571 23.5619 35.2393C22.476 35.0583 21.6465 34.5758 21.1488 33.6109C20.8471 33.0228 20.9527 32.4951 21.4353 32.2387C21.918 31.9824 22.4157 32.1483 22.7324 32.7363C22.9888 33.2037 23.3508 33.4148 23.8786 33.3998C24.2406 33.3998 24.5875 33.4148 24.9495 33.3847C25.6131 33.3394 26.2013 32.7816 26.2616 32.1784C26.322 31.6205 25.8997 31.0777 25.221 30.8968C24.6177 30.7309 24.0144 30.5952 23.4111 30.4595C21.918 30.1127 20.9075 28.9819 20.8622 27.5645C20.8019 26.1472 21.7068 24.9259 23.1999 24.4886C23.5016 24.3981 23.6072 24.2775 23.577 23.991C23.5619 23.8101 23.5619 23.6141 23.577 23.4331C23.6222 22.9356 23.9842 22.5888 24.4518 22.5737C24.9495 22.5586 25.3265 22.9205 25.3718 23.4482C25.3718 23.7347 25.3416 24.0212 25.3416 24.3529Z" fill="#036EB7"/>
</svg>
