<svg xmlns="http://www.w3.org/2000/svg" width="50" height="62" viewBox="0 0 50 62">
    <defs>
        <radialGradient id="yvk81l6rxc" cx="72.814%" cy="37.262%" r="99.356%" fx="72.814%" fy="37.262%" gradientTransform="matrix(-.72934 0 0 -1 1.26 .745)">
            <stop offset="4%" stop-color="#EA4D4F"/>
            <stop offset="100%" stop-color="#E03022"/>
        </radialGradient>
        <radialGradient id="6jcvpb5a2d" cx="71.221%" cy="32.056%" r="100.117%" fx="71.221%" fy="32.056%" gradientTransform="matrix(.68888 0 0 1 .222 0)">
            <stop offset="0%" stop-color="#FBEEDF"/>
            <stop offset="11%" stop-color="#FCEE83"/>
            <stop offset="100%" stop-color="#F6CC46"/>
        </radialGradient>
        <radialGradient id="fgfoaxztce" cx="27.186%" cy="37.262%" r="99.356%" fx="27.186%" fy="37.262%" gradientTransform="matrix(.72934 0 0 1 .074 0)">
            <stop offset="4%" stop-color="#EA4D4F"/>
            <stop offset="100%" stop-color="#E03022"/>
        </radialGradient>
        <radialGradient id="83y9g6qqjf" cx="50%" cy="50.063%" r="64.905%" fx="50%" fy="50.063%" gradientTransform="matrix(.64962 0 0 1 .175 0)">
            <stop offset="4%" stop-color="#EA4D4F"/>
            <stop offset="100%" stop-color="#C2281B"/>
        </radialGradient>
        <radialGradient id="xkeki75uog" cx="28.779%" cy="32.056%" r="100.117%" fx="28.779%" fy="32.056%" gradientTransform="matrix(-.68888 0 0 -1 .486 .641)">
            <stop offset="0%" stop-color="#FBEEDF"/>
            <stop offset="11%" stop-color="#FCEE83"/>
            <stop offset="100%" stop-color="#F6CC46"/>
        </radialGradient>
        <radialGradient id="hc8wc046hi" cx="50.004%" cy="50.01%" r="96.659%" fx="50.004%" fy="50.01%" gradientTransform="matrix(.393 0 0 1 .304 0)">
            <stop offset="4%" stop-color="#EA4D4F"/>
            <stop offset="100%" stop-color="#9E1F14"/>
        </radialGradient>
        <radialGradient id="691dne87lj" cx="20.653%" cy="37.348%" r="113.43%" fx="20.653%" fy="37.348%" gradientTransform="matrix(.71382 0 0 1 .06 0)">
            <stop offset="0%" stop-color="#F5C3E2"/>
            <stop offset="15%" stop-color="#EA4D4F"/>
            <stop offset="100%" stop-color="#891A10"/>
        </radialGradient>
        <filter id="pbvj54cx7a" width="100%" height="100%" x="0%" y="0%" filterUnits="objectBoundingBox">
            <feGaussianBlur in="SourceGraphic"/>
        </filter>
        <filter id="j98yegw83b" width="100%" height="100%" x="0%" y="0%" filterUnits="objectBoundingBox">
            <feGaussianBlur in="SourceGraphic"/>
        </filter>
        <linearGradient id="tg0enj6nsh" x1=".002%" x2="99.994%" y1="49.988%" y2="49.988%">
            <stop offset="0%" stop-color="#F7D248"/>
            <stop offset="50%" stop-color="#FCEE83"/>
            <stop offset="100%" stop-color="#F6CC46"/>
        </linearGradient>
    </defs>
    <g fill="none" fill-rule="evenodd">
        <g fill-rule="nonzero">
            <g>
                <g>
                    <g transform="translate(-198 -4) translate(198 4) translate(2.577) translate(.359 6.524)">
                        <path fill="#E7B26F" d="M44.028 28.307c.015-2.99-.828-5.922-2.428-8.448-.04-.068-.056-.146-.048-.224.224-2.193.185-5.456-.555-10.337C39.447-.946 36.433-.3 35.377.275c-.223.127-.4.321-.505.555L30.39 11.203c-.1.234-.34.376-.593.348-5.277-1.65-10.942-1.579-16.176.203l-.221.07c-.288.094-.6-.049-.716-.328L8.049.843C7.948.606 7.77.41 7.544.288 6.488-.287 3.461-.946 1.934 9.31c-.772 5.178-.785 8.566-.515 10.749.03.275.115.542.248.786.055.102.059.223.01.329C.563 23.389-.012 25.838 0 28.318v.518c0 5.513 2.88 10.462 7.444 13.849 1.01.746 2.08 1.406 3.2 1.973 7.13 3.518 15.486 3.54 22.633.058 1.056-.527 2.067-1.136 3.026-1.822 4.731-3.388 7.733-8.428 7.733-14.056v-.274c0-.089-.008-.172-.008-.257z"/>
                        <path fill="#FAF8F4" d="M11.088 11.024L7.544 2.868c-.135-.325-.412-.571-.75-.668-.894-.235-2.56.222-3.463 6.266-.529 3.514-.54 5.819-.351 7.31.075.546.449 1.006.97 1.191.52.185 1.1.065 1.504-.311 1.532-1.45 3.225-2.717 5.046-3.779.624-.39.873-1.175.588-1.853zM31.88 11.024l3.548-8.156c.132-.324.405-.57.74-.67.892-.235 2.558.222 3.46 6.266.53 3.514.54 5.819.354 7.31-.075.547-.45 1.008-.97 1.193-.522.185-1.103.064-1.507-.313-1.528-1.448-3.218-2.715-5.036-3.777-.625-.389-.875-1.174-.59-1.853zM38.534 32.385c.04.874-.06 1.748-.296 2.59-.99 4.863-4.41 9.062-8.974 11.301-4.988 1.444-10.294 1.366-15.238-.225-4.243-2.3-7.259-6.353-8.244-11.078-.237-.842-.336-1.716-.294-2.59l.037-.43c.184-1.691.974-3.487 2.724-5.28 7.192-7.375 13.763 2.195 13.763 2.195s6.583-9.57 13.764-2.196c1.748 1.794 2.532 3.59 2.72 5.28l.038.433z"/>
                        <circle cx="13.486" cy="24.464" r="2.369" fill="#562E13"/>
                        <circle cx="30.535" cy="24.464" r="2.369" fill="#562E13"/>
                        <circle cx="13.512" cy="22.872" r="1" fill="#F9F9F9" filter="url(#pbvj54cx7a)"/>
                        <circle cx="30.468" cy="22.872" r="1" fill="#F9F9F9" filter="url(#j98yegw83b)"/>
                        <ellipse cx="15.134" cy="19.988" fill="#FAF8F4" rx="1.232" ry="1.772" transform="rotate(-45 15.134 19.988)"/>
                        <ellipse cx="29.18" cy="19.988" fill="#FAF8F4" rx="1.772" ry="1.232" transform="rotate(-45 29.18 19.988)"/>
                        <path fill="#562E13" d="M29.865 35.254c-.109-.113-.259-.177-.416-.177-.157 0-.307.064-.416.177-2.053 2.053-5.21.2-6.288-.54-.094-.069-.15-.178-.152-.294v-.681c2.088-.246 3.684-1.818 3.684-3.72 0-2.076-1.912-3.754-4.27-3.754-2.358 0-4.272 1.678-4.272 3.755 0 1.901 1.607 3.473 3.684 3.719v.68c-.002.117-.058.226-.152.295-1.08.74-4.224 2.589-6.288.54-.22-.224-.576-.235-.808-.024-.119.113-.186.27-.186.434 0 .164.067.321.186.435.822.833 1.95 1.295 3.12 1.278.783-.014 1.557-.165 2.288-.446.786-.297 1.535-.687 2.23-1.161.116-.082.27-.082.387 0 .7.465 1.447.854 2.23 1.161.73.28 1.505.432 2.288.446 1.178.017 2.31-.451 3.133-1.295.12-.102.191-.252.195-.41.003-.158-.06-.31-.177-.418z"/>
                    </g>
                    <g transform="translate(-198 -4) translate(198 4) translate(2.577)">
                        <path fill="url(#yvk81l6rxc)" d="M40.644 10.756L30.49 12.682v5.772l10.154 1.92c.783.092 1.569-.155 2.158-.679.59-.524.927-1.275.927-2.064V13.49c-.003-.787-.341-1.536-.93-2.058-.59-.522-1.374-.768-2.155-.676z"/>
                        <path fill="url(#6jcvpb5a2d)" d="M40.978 19.515c-.075 0-.15-.004-.225-.012l-9.38-1.835v-4.219l9.38-1.834c.536-.068 1.076.1 1.48.458.405.36.634.876.63 1.417v4.137c0 1.042-.843 1.886-1.885 1.888z"/>
                        <path fill="url(#fgfoaxztce)" d="M3.085 10.756l10.153 1.926v5.772l-10.153 1.92c-.783.092-1.569-.155-2.158-.679C.337 19.171 0 18.42 0 17.631V13.49c.002-.787.34-1.536.93-2.058.59-.522 1.373-.768 2.155-.676z"/>
                        <path fill="url(#83y9g6qqjf)" d="M21.877 8.204c3.568 0 6.77 1.33 8.957 3.436l-.965-8.126C29.634 1.511 27.937 0 25.92 0h-8.102c-2.017 0-3.714 1.51-3.949 3.514l-.97 8.138c2.187-2.109 5.398-3.448 8.978-3.448z"/>
                        <path fill="url(#xkeki75uog)" d="M2.763 19.515c.075 0 .15-.004.226-.012l9.38-1.835v-4.219l-9.38-1.834c-.537-.068-1.077.1-1.481.458-.404.36-.634.876-.63 1.417v4.137c0 1.042.844 1.886 1.885 1.888z"/>
                        <path fill="url(#tg0enj6nsh)" d="M34.803 20.189l-.357-1.643c-.08-.366-.285-.693-.58-.924l-.086-.063c-3.547-2.686-11.903-2.806-11.903-2.806s-8.357.12-11.905 2.806l-.085.063c-.295.23-.5.558-.58.924L8.95 20.19c-.027.121.013.247.104.331.092.084.22.114.34.077.207-.064.47-.14.784-.225 1.973-.533 6.027-1.39 11.7-1.39 5.672 0 9.724.857 11.69 1.392.314.085.577.16.784.225.12.04.252.012.346-.073.093-.085.134-.214.105-.337z"/>
                        <path fill="url(#hc8wc046hi)" d="M33.78 17.56c-.468-5.233-5.618-9.356-11.903-9.356-6.284 0-11.428 4.123-11.905 9.357 3.548-2.686 11.905-2.806 11.905-2.806s8.362.12 11.903 2.806z"/>
                        <ellipse cx="21.874" cy="17.133" fill="url(#691dne87lj)" rx="1.7" ry="1.213"/>
                    </g>
                </g>
            </g>
        </g>
    </g>
</svg>
