<svg xmlns="http://www.w3.org/2000/svg" width="19" height="21" viewBox="0 0 19 21">
    <defs>
        <radialGradient id="abq8icvn3a" cx="60.119%" cy="61.665%" r="52.141%" fx="60.119%" fy="61.665%" gradientTransform="scale(.83384 1) rotate(-34.4 .661 .423)">
            <stop offset="0%" stop-color="#FFFFB7"/>
            <stop offset="43%" stop-color="#F7D248"/>
            <stop offset="100%" stop-color="#FEBF5C"/>
        </radialGradient>
        <radialGradient id="9safujnp5c" cx="-181.42%" cy="-149.127%" r="53.412%" fx="-181.42%" fy="-149.127%" gradientTransform="matrix(.88044 0 0 1 -.217 0)">
            <stop offset="0%" stop-color="#FFFFB7"/>
            <stop offset="43%" stop-color="#F7D248"/>
            <stop offset="100%" stop-color="#FEBF5C"/>
        </radialGradient>
        <radialGradient id="t0325z16pd" cx="50.335%" cy="26.757%" r="88.576%" fx="50.335%" fy="26.757%" gradientTransform="matrix(-1 0 0 -.88684 1.007 .505)">
            <stop offset="0%" stop-color="#E47F5E"/>
            <stop offset="90%" stop-color="#A92628"/>
        </radialGradient>
        <linearGradient id="guram577wb" x1="6.406%" x2="105.656%" y1="79.866%" y2="31.58%">
            <stop offset="0%" stop-color="#F7D248"/>
            <stop offset="50%" stop-color="#FCEE50"/>
            <stop offset="100%" stop-color="#F6CC46"/>
        </linearGradient>
    </defs>
    <g fill="none" fill-rule="evenodd">
        <g>
            <g>
                <g transform="translate(-198 -43) translate(198 4) translate(0 39.086)">
                    <ellipse cx="7.295" cy="6.979" fill="#FAF8F4" fill-rule="nonzero" rx="1.811" ry="2.528" transform="rotate(-26.48 7.295 6.979)"/>
                    <g fill-rule="nonzero">
                        <path fill="url(#abq8icvn3a)" d="M8.343 5.503c1.805-1.957.33-5.449.33-5.449.279.407-.772 3.028-3.16 4.663C3.126 6.352.302 6.38.023 5.977c0 0 2.888 2.526 5.387 1.532l2.933-2.006z"/>
                        <path fill="url(#guram577wb)" d="M8.672.054c.28.407-.77 3.028-3.159 4.663C3.126 6.352.302 6.38.023 5.977c-.28-.406 2.093-1.096 4.483-2.732C6.895 1.608 8.402-.353 8.672.055z"/>
                        <path fill="url(#9safujnp5c)" d="M6.827 1.902c.47.684-.32 1.57-1.493 2.373-1.172.802-2.282 1.219-2.752.532-.47-.686-.342-2.535.83-3.338 1.173-.803 2.945-.253 3.415.433z"/>
                    </g>
                    <path fill="url(#t0325z16pd)" fill-rule="nonzero" d="M15.19 5.49s1.078 1.884 2.959 2.693c0 0-4.149 8.731-7.972 10.882l-.004-.01c-.411.23-.878.36-1.373.36-1.657 0-3-1.456-3-3.25 0-1.24.641-2.319 1.584-2.867l-.001-.002s5.384-2.959 7.807-7.806z" transform="matrix(-1 0 0 1 23.949 0)"/>
                    <path stroke="#FFC217" stroke-linecap="round" stroke-linejoin="round" d="M6.072 8.932s2.34-.74 3.065-2.558"/>
                </g>
            </g>
        </g>
    </g>
</svg>
