<?xml version="1.0" encoding="utf-8"?>
<!-- Generator: Adobe Illustrator 24.3.0, SVG Export Plug-In . SVG Version: 6.00 Build 0)  -->
<svg version="1.1" id="圖層_1" xmlns="http://www.w3.org/2000/svg" xmlns:xlink="http://www.w3.org/1999/xlink" x="0px" y="0px"
	 viewBox="0 0 312.3 150" style="enable-background:new 0 0 312.3 150;" xml:space="preserve">
<style type="text/css">
	.st0{fill:#003B90;}
	.st1{fill:#FFF000;}
	.st2{fill:#F1284E;}
	.st3{fill:#00AED3;}
</style>
<g>
	<g>
		<g>
			<path class="st0" d="M11.2,70.8c0,0,3-0.9,2.8-3.1c0,0,0.7-0.7,0.5-2.2c0,0,0.8-1.3,0.9-2c0,0,1.1-1-1.9-2.6l-1-1
				c0,0-1.9-1.7-6.6-3.3c0,0-3.4-1.4-4.8,0c0,0-0.8,0.2-0.7,1.7c0,0,0.8,2.3,1.6,3.6l1.6,2.5L3.8,66c0,0,1,1.9,1.7,2.5
				C5.5,68.6,6.8,71.4,11.2,70.8"/>
			<path class="st0" d="M22.5,62.3c0,0,0.3,1.2,0.2,2.1c0,0,0.3,2.1,3.6,1.9c0,0,2.5-0.1,5.7-2.1c0,0,5.1-1.5,8.6-3.4
				c0,0,1.9-0.8,3.5-1.5c0,0,5.3-2.1,7.5-2.9c0,0,5.2-2.3,12.2-3.4c0,0,6.4-0.9,16.6,0.4c0,0,5,0.4,9.7-0.1c0,0,1.5-0.1,2-1.9
				c0,0-0.1-0.5,0.4-0.9c0,0,0.6-2.5-3.1-3.9c0,0-2.1-1.1-8-1.6c0,0-3.8-1.1-8.3,0.1c0,0-4.6,0.7-6,0.3c0,0-2.2,0.1-2-1.5l-0.1-5
				c0,0-0.3-0.5,5.6-2.4c0,0,2.7-1.6,5.1-5.3c0,0,1.4-2.1-0.2-3.4l-1.2-2.2l-4.2,0.3c0,0-5.6,0.2-5.8-2.3c0,0-0.4,0.3,0-3.8l0.4-4.1
				c0,0,0.8-5.6,0.2-7.1c0,0-0.8-5.2-9.1-6.9c0,0-5.6-1.6-8.1-0.1c0,0-2.8,0.6-1.5,3.4l0.7,7.2c0,0,0.1,0.9,0.8,1.6
				c0,0,1.8,5.7,2.1,9.5c0,0,0.2,2.5-2,3.1c0,0-3.9,1.8-8.5,1.8l-6.4,0.2c0,0-5.3-0.2-5.9,2.2c0,0-0.3,1.2,0,2.8l0.4,4.7
				c0,0,0.1,0.8,1.3,0.9l2.3,1.6c0,0,0.5,0.4,1.9-0.1c0,0,7.3,0.4,11.1-0.5c0,0,4.2-0.6,6.7-0.8c0,0,1.5-0.2,1.2,3.4
				c0,0-1.2,4.7-4.4,6.1c0,0-4.1,2.2-13.3,4.2c0,0-2.4,0.7-4.4,0.4L25.6,53c0,0-2.7-1.4-4-0.6l-0.1,1c0,0-0.8,1.4-0.3,4.4
				C21.2,57.7,21.6,60.8,22.5,62.3"/>
			<path class="st0" d="M121.8,135.7l-1.9-1.1l-4.1-0.1l-1.5-0.3c-3-0.9-10.3-0.4-10.3-0.4c-5.6-0.1-13.3-0.2-13.3-0.2
				c-3.6,0.2-8.3-0.9-8.3-0.9c-7.2-1.8-9.3-1.5-11.5-1.8c-2.2-0.3-1.8,0.2-5.2-0.9c-3.4-1.1-8.7-1.6-10.2-1.7
				c-1.5,0-3.2-0.6-3.2-0.6c-2.9-1.3-10.8-3.7-10.8-3.7l-4.1-1.3c-4.1-1.3-4.9-2.4-4.9-2.4c-1.7-1-1-2.5-1-2.5c0.5-1.3,2.6-2,2.6-2
				l3.2-2.2c1.6-0.2,3.6-2.9,3.6-2.9l3-2.4c2.2-0.9,2.2,1.7,2.2,1.7l-0.1,7c0.4,0.8,0.6,2.3,0.6,2.3c0.2,0.6,3.1,0.4,3.1,0.4
				l0.5-0.4c1.5,0.6,2.4,0.1,2.4,0.1c2.1-0.9,2.8-3.2,2.8-3.2c1.6-1,2-4.2,2-4.2l1.7-4.4c0.2-2.3,2.3-1.9,2.3-1.9c5.2,0.6,10,4,10,4
				c1,0.4,1.9,1.5,1.9,1.5l2-0.1c3,2,4.6,0.7,4.6,0.7c1.3,0.2,3.6-0.4,3.6-0.4c3.9-0.7,5.6-2.2,5.6-2.2c5.1-1.7,4.9-2.4,4.9-2.4
				c1.6-1.6,0-2.2,0-2.2l-2.7-1.8c-2.3-0.1-5-0.3-5-0.3c-1.3-0.6-6.5-1.4-6.5-1.4l-1.5-0.2c-1.5-0.2-6.8-1.3-6.8-1.3
				c-1.6-0.3-0.2-1.4-0.2-1.4l5.7-2c6.9-2.4,8.6-3.7,8.6-3.7c1.3-0.7,1-3.2,1-3.2c-1.3-1.9-1.5-4.4-1.5-4.4
				c-0.1-4.8-1.4-4.5-1.4-4.5l-2.1,0.1l-0.9-0.1c-0.9,0-3.3-0.8-3.3-0.8c-2-1.2-2.4-4.6-2.4-4.6c-1-2.9,0.8-4.4,0.8-4.4
				c1.7-1.8,5.4-7,5.4-7c1.9-2.4-1.5-4.3-1.5-4.3l-1.4-0.8c-1.4-0.8-1.6-0.4-1.6-0.4l-1.2,0.5c-1.1-0.1-6.8,0.4-6.8,0.4
				c-14.1,2.1-17.2,3.7-17.2,3.7c-6.1,2.1-8.6,5.5-8.6,5.5c-1.6,0.9-3,2.5-3,2.5c-1.6,2.3-0.8,7.6-0.8,7.6c0.3,1.4,0.2,4.6,0.2,4.6
				c-0.4,0.8-1.8,1.6-1.8,1.6c-0.2,2.6,1.7,5.4,1.7,5.4l1.1,3.2c-0.2,0.9,0.8,2.3,0.8,2.3c0.4,1.6-0.7,3-0.7,3c-1.1,0.6-3.3,3-3.3,3
				c-4,2.7-5.7,7.2-5.7,7.2c-2.1,1.2-3.2,3.9-3.2,3.9l-0.1,0.8l-0.9,0.9c-1.5,3.1-5.4,2.1-5.4,2.1c-1.4-0.7-1.3-2-1.3-2l0.1-5.5
				c0.4-6.3-0.9-8.2-0.9-8.2c-0.4-1.6-0.6-6.1-0.6-6.1c0.5-1.7,0.1-5.5,0.1-5.5c-0.6-0.7-1.1-4.6-1.1-4.6c-3.7-5.1-8.2-4.7-8.2-4.7
				c-0.2,0.3,0.2,4.3,0.2,4.3l0.5,2c0.1,1,0.2,3.5,0.2,3.5c0.5,2.1-0.1,6.4-0.1,6.4c-0.4,2.2-0.2,4.3-0.2,4.3l0.1,4.3
				c-0.3,2.6-1.1,9-1.1,9c-0.6,0.8-0.9,2-0.9,2C8.8,118,9,123.6,9,123.6c-0.4,1.3,0.7,3.6,0.7,3.6c2.1,1.7,4.1,1.8,4.1,1.8l8.8,0.1
				c1.8-0.1,6.5,1.3,6.5,1.3c5.8,1.2,11.6,3.7,11.6,3.7c5.1,4,6.3,3.8,6.3,3.8c1.6,1.4,4.9,2.5,4.9,2.5l1.8,1l1.5,0.6
				c0.7,1.1,5.4,1.5,5.4,1.5l3,1.3c1.6,0.2,8.1,4.4,8.1,4.4l3.1,0c0-0.4,2.6-1.8,2.6-1.8l0.8-0.3c1.1-1.1,4.6-2.1,4.6-2.1
				c5.1-0.6,5.9-1.2,5.9-1.2l6.4-0.9l13.1-0.3c5-0.1,8.2,1.1,8.2,1.1c1.1,1.3,2.7,1.3,2.7,1.3c1.8,0.1,2.1-2,2.1-2
				c0.7-0.2,0.8-1.1,0.8-1.1c0.5-0.8,2.6-3,2.6-3c0.8-0.8-0.2-1.8-0.2-1.8C123.6,135.3,121.8,135.7,121.8,135.7 M67.8,85
				c0,0,1.4-2.4,5.3-2.1l1.8,0.2c0,0,0.7,0.3,0.2,1.9c0,0-0.3,2.1-1.5,2.8c0,0-1,1.9-2.7,2.1c0,0-1.4,1.6-2.6,1.8c0,0-2.2,1-2.7,1.8
				l-2.5,1.6c0,0-1.6,0.6-1.6-0.4l0.3-3.5c0,0,0.6-1.2,1.5-2c0,0,1.9-2.3,3.4-2.8L67.8,85z M49.4,69.9c0,0,1.3-1.4,2.7-1.8l4.9-0.8
				c0,0,1.3-0.1,2-0.7c0,0,1-0.5,2.2-0.3c0,0,1.1-0.3,1.7-0.7c0,0,1.8-0.8,3.8,1.2c0,0,1.1,0.8-2.5,2.8c0,0-1,2.1-3.2,3.2l-0.9,1
				l-2.1,1.1L57,75.7l-0.6,0.1c0,0-2.1,1.4-3.8,1.4c0,0-1.6,0.4-2-1l-0.8-1.4l-0.1-1C49.6,73.7,48.2,71.5,49.4,69.9"/>
			<path class="st0" d="M222.7,93.7c-1-0.4-2.8-1-2.8-1c-1.4-1.4-4-2.7-4-2.7c-1-0.9-4.3-3.5-4.3-3.5c-0.7-1.2-1.9-2.3-1.9-2.3
				c-1.7-2.8-3.6-3.6-3.6-3.6c-2.8-1.4-2.7,2.3-2.7,2.3c-0.1,1.4,1.2,6.6,1.2,6.6l0.4,9.9c-0.2,2.1-2.9,5.5-2.9,5.5
				c-0.6,0.3-2.5,2.3-2.5,2.3l-1.2,1.2c-1.2,1.2-3.8,3-3.8,3c-1.6,1.7-7.1,3.8-7.1,3.8c-3,0.9-5.8,2.1-5.8,2.1c-0.7-0.1-4,0.8-4,0.8
				c-2.1,0.1-8.6,0.3-8.6,0.3c-6.1,0.2-10.3-2-10.3-2c-2.3-1.3-5.1-3.2-5.1-3.2c-1.8-1-3.3-3.1-3.3-3.1c-1.4-1.6-2.2-4.5-2.2-4.5
				l1.2-1.9c0.8-0.5,1.3-1.4,1.3-1.4c0.8-1.3,2.8-2,2.8-2c1.1-0.8,3.5,0.7,3.5,0.7c0.5,0.5,2.4,1.2,2.4,1.2l0.8,0.2
				c2,1,3.3,0.3,3.3,0.3c0.9-0.3,1.6-1.5,1.6-1.5c1.5-0.6,2.1-3.8,2.1-3.8c0.7-2.3,1.4-5.9,1.4-5.9c1-1.5,0.9-2.3,0.9-2.3
				c0.1-1.9,0.8-4.2,0.8-4.2l1.9-7.5c1.4-6.8,1.8-11.5,1.8-11.5c1-7.3,1.4-15,1.4-15c0.5-0.8,0.7-3.5,0.7-3.5c0.5-1,0.3-2.1,0.3-2.1
				c-0.6-4.2-3.5-4.9-3.5-4.9l-0.5-0.1c-4.9-2.4-10.5-2.4-10.5-2.4c-7.2-0.6-9.2,1-9.2,1c-1.6,0.5-6.6,2.9-6.6,2.9
				c-2.1,0.3-4.4,2-4.4,2c-3.6,1-9,3.9-9,3.9c-1.9,1.3-4.5,1.1-4.5,1.1c-2.3-0.6-5.6-4.2-5.6-4.2c-0.7-1-2.5-0.8-2.5-0.8
				c-2,1.9-2,5.4-2,5.4c-0.1,0.5-0.3,2.5-0.3,2.5c-0.7,1.9-0.2,6.8-0.2,6.8c-0.7,2.3-0.1,9.6-0.1,9.6c-0.5,0.2-0.3,9.5-0.3,9.5v1.1
				v1.8c-0.8,1.7-0.6,5.9-0.6,5.9c0,1.9-0.1,6.2-0.1,6.2c-0.3,2.7,1.9,7.7,1.9,7.7c1.8,3.7,5.2,4.6,5.2,4.6l0.9,0.6
				c1.1,0.5,0.7,1.8,0.7,1.8c-0.2,0.4-2.4,2.7-2.4,2.7c-0.4,0-2,1.1-2,1.1c-0.7,0-1.9,0.8-1.9,0.8c-2.1,1-4.8,1.1-4.8,1.1
				c-1.2-0.2-4.2,0.4-4.2,0.4c-4.1,1-4.2,1.8-4.2,1.8c-0.7,0.3-0.3,1.2-0.3,1.2c0.1,1.2,2.5,3.4,2.5,3.4c0.8,0.1,2.6,1.4,2.6,1.4
				c0.2,0.5,2.8,2.5,2.8,2.5c3,2,6.4,2.1,6.4,2.1c3.1,0.5,7-2.9,7-2.9c3.8-2.5,4.3-3.6,4.3-3.6l1.8-2c1.2-1.6,3.4-2.9,3.4-2.9
				c2.8-2.6,4.9,0.4,4.9,0.4c1.4,1.4,5.4,5.3,5.4,5.3c1.6,2.1,4.2,3.6,4.2,3.6l2.1,1c2,1.4,6.4,2.6,6.4,2.6c2.4,1.2,13.4,1,13.4,1
				c7.1,0.5,12.7-1,12.7-1c4.1-0.8,8.4-2.1,8.4-2.1c3.2-0.8,7.5-3.3,7.5-3.3c2.8-1,5.5-2.8,5.5-2.8l3.2-2.5c6.3-4.1,9.9-9.3,9.9-9.3
				c4.4-4.5,4-9.4,4-9.4C224.1,93.9,222.7,93.7,222.7,93.7 M138.5,96c0,0-0.2,0.8-1.8,1.6c0,0-1,0.9-1.4,1.3c0,0-1.7,1-1.7,0
				c0,0-0.5-0.1-0.1-1.9c0,0,0.1-1.4,2-1.6c0,0,0.6-0.8,2.7-0.2l0.6,0.1C139,95.2,139.3,96,138.5,96 M141.7,82.9
				c0,0-6.6,0.9-7.5,1.1l-0.9-0.1c0,0,0-0.8-0.5-0.7c0,0,0.5-1.2,0.4-2l0.2-2.9c0,0,0.2-1.5,2.9-1.9c0,0,2.7-0.1,3.8-1
				c0,0,4.5-1,5.3-2.7c0,0,2.8-0.6,3-1.8c0,0,0.8-0.6,1.7-2c0,0,1.3-1,1.3-1.9c0,0,0.8-1.8,0-2.3c0,0,0.3-1-1.3-1c0,0-2.3-1-5.3,0.3
				c0,0-5.4,1.4-6.3,1.7c0,0-3.5,0.6-4.4,0.1c0,0-1-0.2-0.6-0.9c0,0-0.6-3.6-0.1-4.7c0,0,0.3-1.7,2.6-1.2l2.3,0.5
				c0,0,3.7,0.9,4.4,1.1c0,0-0.8,0.2,2.3,0.1c0,0,2.1,0.3,3.3,1c0,0,1.9,0.9,4-0.3l2.1-1.2c0,0,0.8-0.4,1-1.2c0,0,0.7-0.9,1.1-1
				c0,0,0.4-3.4-1.3-4.2c0,0-2.5-1.2-3.4-2.3c0,0-1.8-1-3.6-1.7c0,0-1.7-0.5-2.3-0.9c0,0-0.8-0.7,0.5-0.9c0,0,1.5-0.4,2.9-1
				c0,0,2.3-1.4,5.7-0.2l1.8,0.6c0,0,2,0.4,2.2,3.9c0,0,0.6,8.4,0.5,11.5c0,0,0,7.1-1.1,11.8l-0.4,2.9c0,0-1.3,1.8-1.2,2.8
				c0,0-0.6,0.8-3.5,1C153,81.2,145.4,81.7,141.7,82.9"/>
		</g>
	</g>
	<g>
		<path class="st1" d="M264.4,95.5L264.4,95.5c0,0,0.1,0.1,0.1,0.1C264.4,95.6,264.4,95.5,264.4,95.5z"/>
		<path class="st1" d="M249.1,99.2c-0.1-0.2-0.2-0.5-0.4-0.7C248.8,98.7,249,98.9,249.1,99.2z"/>
		<path class="st1" d="M247.9,96.7c-0.2-0.4-0.3-0.8-0.5-1.2C247.5,95.9,247.7,96.3,247.9,96.7z"/>
		<path class="st1" d="M250.5,101.5c-0.1-0.2-0.3-0.4-0.4-0.7C250.2,101.1,250.3,101.3,250.5,101.5z"/>
		<path class="st1" d="M248.5,98c-0.1-0.3-0.2-0.5-0.4-0.8C248.2,97.4,248.3,97.7,248.5,98z"/>
		<path class="st1" d="M249.8,100.3c-0.1-0.2-0.3-0.4-0.4-0.7C249.5,99.9,249.6,100.1,249.8,100.3z"/>
		<path class="st1" d="M251.3,102.6c-0.2-0.2-0.3-0.4-0.5-0.7C250.9,102.2,251.1,102.4,251.3,102.6z"/>
		<path class="st1" d="M255,107.1c-0.2-0.2-0.4-0.4-0.6-0.6C254.7,106.7,254.8,106.9,255,107.1z"/>
		<path class="st1" d="M254.1,106.1c-0.2-0.2-0.4-0.4-0.6-0.6C253.7,105.7,253.9,105.9,254.1,106.1z"/>
		<path class="st1" d="M252.2,103.9c-0.2-0.3-0.5-0.6-0.7-0.9C251.8,103.4,252,103.7,252.2,103.9z"/>
		<path class="st1" d="M276.6,116.6c-0.3,0-0.6,0-1-0.1C276,116.6,276.3,116.6,276.6,116.6z"/>
		<path class="st1" d="M270.6,100.2C270.6,100.2,270.7,100.2,270.6,100.2C270.7,100.2,270.6,100.2,270.6,100.2z"/>
		<path class="st1" d="M276.7,101.9c0.1,0,0.2,0,0.3,0C276.9,101.9,276.8,101.9,276.7,101.9z"/>
		<path class="st1" d="M266.6,97.7c0.1,0.1,0.2,0.1,0.2,0.2C266.7,97.8,266.6,97.7,266.6,97.7z"/>
		<path class="st1" d="M275,101.6c0.1,0,0.2,0,0.2,0C275.2,101.7,275.1,101.6,275,101.6z"/>
		<path class="st1" d="M265.6,96.8c-0.1-0.1-0.2-0.2-0.3-0.2C265.4,96.6,265.5,96.7,265.6,96.8z"/>
		<path class="st1" d="M311.8,83.3C311.8,83.3,311.8,83.3,311.8,83.3c0,18.4-15,33.4-33.4,33.4c-0.5,0-0.9,0-1.4,0
			c0.5,0,0.9,0,1.4,0C296.8,116.7,311.8,101.7,311.8,83.3C311.8,83.3,311.8,83.3,311.8,83.3z"/>
		<polygon class="st1" points="297.1,83.3 297.1,83.3 297.1,83.3 		"/>
		<path class="st1" d="M269.1,99.4c0.1,0.1,0.2,0.1,0.3,0.2C269.3,99.5,269.2,99.5,269.1,99.4z"/>
		<path class="st1" d="M267.8,98.5c0.1,0.1,0.1,0.1,0.2,0.2C267.9,98.7,267.8,98.6,267.8,98.5z"/>
		<path class="st1" d="M273.6,101.3c0.1,0,0.2,0,0.2,0.1C273.7,101.3,273.6,101.3,273.6,101.3z"/>
		<path class="st1" d="M271.9,100.8c0.1,0,0.2,0.1,0.3,0.1C272.1,100.8,272,100.8,271.9,100.8z"/>
		<path class="st1" d="M256,108c-0.2-0.2-0.4-0.4-0.6-0.5C255.6,107.6,255.8,107.8,256,108z"/>
		<path class="st1" d="M253.2,105.1c-0.3-0.3-0.6-0.7-0.8-1C252.6,104.5,252.9,104.8,253.2,105.1z"/>
		<path class="st1" d="M275.2,116.5c-0.3,0-0.6-0.1-0.9-0.1C274.6,116.5,274.9,116.5,275.2,116.5z"/>
		<path class="st1" d="M266.8,114.6c-0.3-0.1-0.6-0.2-0.8-0.3C266.2,114.3,266.5,114.5,266.8,114.6z"/>
		<path class="st1" d="M268.4,115.1c-0.4-0.1-0.8-0.3-1.3-0.4C267.6,114.9,268,115,268.4,115.1z"/>
		<path class="st1" d="M264.2,113.5c-0.2-0.1-0.5-0.2-0.7-0.4C263.7,113.2,263.9,113.4,264.2,113.5z"/>
		<path class="st1" d="M273.8,116.4c-0.3,0-0.6-0.1-0.8-0.1C273.2,116.3,273.5,116.3,273.8,116.4z"/>
		<path class="st1" d="M269.7,115.5c-0.4-0.1-0.9-0.2-1.3-0.4C268.9,115.3,269.3,115.4,269.7,115.5z"/>
		<path class="st1" d="M272.4,116.1c-0.3-0.1-0.6-0.1-0.8-0.2C271.8,116,272.1,116.1,272.4,116.1z"/>
		<path class="st1" d="M263,112.9c-0.2-0.1-0.5-0.3-0.7-0.4C262.5,112.6,262.7,112.7,263,112.9z"/>
		<path class="st1" d="M271.1,115.9c-0.3-0.1-0.6-0.1-0.9-0.2C270.4,115.7,270.7,115.8,271.1,115.9z"/>
		<path class="st1" d="M265.4,114c-0.3-0.1-0.5-0.2-0.8-0.3C264.9,113.8,265.2,113.9,265.4,114z"/>
		<path class="st1" d="M259.5,110.7c-0.3-0.2-0.7-0.5-1-0.7C258.8,110.3,259.1,110.5,259.5,110.7z"/>
		<path class="st1" d="M260.7,111.5c-0.4-0.2-0.7-0.5-1.1-0.7C259.9,111.1,260.3,111.3,260.7,111.5z"/>
		<path class="st1" d="M258.1,109.7c-0.2-0.2-0.5-0.4-0.7-0.5C257.7,109.4,257.9,109.6,258.1,109.7z"/>
		<path class="st1" d="M257,108.9c-0.2-0.2-0.4-0.3-0.6-0.5C256.6,108.5,256.8,108.7,257,108.9z"/>
		<path class="st1" d="M261.8,112.2c-0.3-0.1-0.5-0.3-0.8-0.5C261.3,111.9,261.6,112.1,261.8,112.2z"/>
		<path class="st2" d="M311.8,83.3C311.8,83.3,311.8,83.3,311.8,83.3C311.8,83.3,311.8,83.3,311.8,83.3l-14.7,0l0,0c0,0,0,0,0,0
			c0,0,0,0,0,0c0,10.3-8.4,18.6-18.6,18.6c-0.5,0-1,0-1.5-0.1c-0.1,0-0.2,0-0.3,0c-0.5,0-0.9-0.1-1.4-0.2c-0.1,0-0.2,0-0.2,0
			c-0.4-0.1-0.8-0.2-1.3-0.3c-0.1,0-0.2,0-0.2-0.1c-0.4-0.1-0.9-0.3-1.3-0.4c-0.1,0-0.2-0.1-0.3-0.1c-0.4-0.2-0.8-0.3-1.3-0.5
			c0,0,0,0-0.1,0c-0.4-0.2-0.8-0.4-1.2-0.6c-0.1-0.1-0.2-0.1-0.3-0.2c-0.4-0.2-0.8-0.5-1.1-0.7c-0.1,0-0.1-0.1-0.2-0.2
			c-0.3-0.2-0.6-0.5-0.9-0.7c-0.1-0.1-0.2-0.1-0.2-0.2c-0.3-0.3-0.7-0.6-1-0.9c-0.1-0.1-0.2-0.2-0.3-0.2c-0.3-0.3-0.6-0.6-0.9-0.9
			c0,0-0.1-0.1-0.1-0.1c-2.1-2.4-3.5-5.3-4.2-8.5l0,0c-2-9.6-8.7-16.9-16.8-21.6c0,0-1.9-1.1-2.9-1.5c0,0-9.8-3.5-19.6-0.9l-0.8,0.9
			l-1.2,1.2l-1.6,1.7h0l-1.5,1.5l-1.7,1.8l-1.5,1.6l-3.2,3.3h17.9c0.3,0,0.6,0,0.9,0c0.1,0,0.2,0,0.3,0h0.6v0c0,0,0,0,0,0
			c0.2,0,0.3,0,0.5,0.1c0.1,0,0.2,0,0.4,0c0.2,0,0.4,0.1,0.6,0.1c0.1,0,0.1,0,0.2,0c0.2,0,0.5,0.1,0.7,0.1c0,0,0,0,0,0
			c1.9,0.4,3.6,1.1,5.3,2.1c4.5,2.6,8,7.1,9.1,12.5c0.4,2,0.9,3.8,1.7,5.6c0.2,0.4,0.3,0.8,0.5,1.2c0.1,0.2,0.1,0.3,0.2,0.5
			c0.1,0.3,0.2,0.5,0.4,0.8c0.1,0.2,0.2,0.3,0.3,0.5c0.1,0.2,0.2,0.5,0.4,0.7c0.1,0.2,0.2,0.3,0.3,0.5c0.1,0.2,0.3,0.4,0.4,0.7
			c0.1,0.2,0.2,0.3,0.3,0.5c0.1,0.2,0.3,0.4,0.4,0.7c0.1,0.2,0.2,0.3,0.3,0.5c0.2,0.2,0.3,0.5,0.5,0.7c0.1,0.1,0.2,0.3,0.3,0.4
			c0.2,0.3,0.4,0.6,0.7,0.9c0,0.1,0.1,0.1,0.1,0.2c0.3,0.3,0.6,0.7,0.8,1c0.1,0.1,0.2,0.2,0.3,0.4c0.2,0.2,0.4,0.4,0.6,0.6
			c0.1,0.1,0.3,0.3,0.4,0.4c0.2,0.2,0.4,0.4,0.6,0.6c0.1,0.1,0.3,0.3,0.4,0.4c0.2,0.2,0.4,0.4,0.6,0.5c0.1,0.1,0.3,0.3,0.4,0.4
			c0.2,0.2,0.4,0.3,0.6,0.5c0.1,0.1,0.3,0.2,0.4,0.3c0.2,0.2,0.4,0.4,0.7,0.5c0.1,0.1,0.2,0.2,0.4,0.3c0.3,0.2,0.6,0.5,1,0.7
			c0,0,0.1,0.1,0.1,0.1c0.4,0.2,0.7,0.5,1.1,0.7c0.1,0.1,0.3,0.2,0.4,0.2c0.3,0.2,0.5,0.3,0.8,0.5c0.1,0.1,0.3,0.2,0.5,0.3
			c0.2,0.1,0.5,0.3,0.7,0.4c0.2,0.1,0.3,0.2,0.5,0.2c0.2,0.1,0.5,0.2,0.7,0.4c0.2,0.1,0.3,0.2,0.5,0.2c0.3,0.1,0.5,0.2,0.8,0.3
			c0.2,0.1,0.3,0.1,0.5,0.2c0.3,0.1,0.6,0.2,0.8,0.3c0.1,0.1,0.3,0.1,0.4,0.2c0.4,0.2,0.8,0.3,1.3,0.4c0,0,0,0,0,0
			c0.4,0.1,0.9,0.3,1.3,0.4c0.1,0,0.3,0.1,0.4,0.1c0.3,0.1,0.6,0.2,0.9,0.2c0.2,0,0.3,0.1,0.5,0.1c0.3,0.1,0.6,0.1,0.8,0.2
			c0.2,0,0.4,0.1,0.5,0.1c0.3,0,0.6,0.1,0.8,0.1c0.2,0,0.4,0.1,0.5,0.1c0.3,0,0.6,0.1,0.9,0.1c0.2,0,0.3,0,0.5,0c0.3,0,0.6,0,1,0.1
			c0.1,0,0.3,0,0.4,0c0.5,0,0.9,0,1.4,0C296.8,116.7,311.8,101.7,311.8,83.3z"/>
	</g>
	<path class="st0" d="M228.4,35.3l-14.7,0L199,50l14.7,0h19.4l-10.3,10.8c3.3-0.7,10.9-1.6,19,1.5l14.5-15.1V35.3H228.4z"/>
	<g>
		<path class="st3" d="M245.7,98.1c-0.2,1-0.4,1.9-0.7,2.8h2C246.4,99.9,246,98.9,245.7,98.1z"/>
		<path class="st3" d="M253.4,109.1h-12.6c-0.6,0.7-1.2,1.4-1.8,2.1h16.9C255,110.5,254.2,109.8,253.4,109.1z"/>
		<path class="st3" d="M247.7,102.3h-3.1c-0.3,0.7-0.6,1.4-0.9,2.1h5.4C248.6,103.6,248.1,102.9,247.7,102.3z"/>
		<path class="st3" d="M220.9,118.9c-0.8,0-1.6,0-2.4-0.1c-5.7,5.5-11.5,8.7-15.7,10.5c5.4,2.8,11.6,4.4,18.1,4.4
			c13.8,0,26-7.1,33.2-17.8h-21.3C229.3,117.8,225.2,118.9,220.9,118.9z"/>
		<path class="st3" d="M256.1,112.5h-18.5c-0.9,0.8-1.8,1.5-2.7,2.1h20C255.3,113.9,255.7,113.2,256.1,112.5z"/>
		<path class="st3" d="M250.2,105.7h-7.1c-0.4,0.7-0.8,1.4-1.3,2.1h10.3C251.4,107.1,250.7,106.3,250.2,105.7z"/>
		<path class="st0" d="M310.4,74.5h-16.6c0.6,0.7,1.1,1.4,1.5,2.1H311C310.8,75.9,310.6,75.2,310.4,74.5z"/>
		<path class="st0" d="M283.6,55.1h-9.2l0.7-5h20.3v0l14.7-14.7h-14.7l-33.3,0L258,66.4h48.1C301,59.5,292.8,55.1,283.6,55.1z"/>
		<path class="st0" d="M311.7,81.3h-14.8c0.1,0.7,0.2,1.3,0.2,2h14.7C311.8,82.6,311.8,82,311.7,81.3z"/>
		<path class="st0" d="M307.1,67.7h-49.2l-0.3,2.1h50.8C308,69.1,307.5,68.4,307.1,67.7z"/>
		<path class="st0" d="M311.3,77.9h-15.4c0.3,0.7,0.5,1.4,0.7,2.1h15C311.5,79.3,311.4,78.6,311.3,77.9z"/>
		<path class="st0" d="M309,71.1h-19.8c1.2,0.5,2.3,1.3,3.2,2.1h17.4C309.7,72.5,309.4,71.8,309,71.1z"/>
		<path class="st2" d="M306.2,66.4H258l-0.2,1.3h49.2C306.8,67.3,306.5,66.8,306.2,66.4z"/>
		<path class="st2" d="M308.4,69.8h-50.8l0,0h26c2,0,4,0.5,5.7,1.3H309C308.8,70.7,308.6,70.2,308.4,69.8z"/>
		<path class="st2" d="M309.9,73.2h-17.4c0.5,0.4,0.9,0.8,1.3,1.3h16.6C310.3,74.1,310.1,73.6,309.9,73.2z"/>
		<path class="st2" d="M311,76.6h-15.7c0.2,0.4,0.5,0.9,0.7,1.3h15.4C311.2,77.5,311.1,77.1,311,76.6z"/>
		<path class="st2" d="M311.6,80h-15c0.1,0.4,0.2,0.9,0.3,1.3h14.8C311.7,80.9,311.7,80.5,311.6,80z"/>
		<path class="st2" d="M247,101h-2c-0.1,0.4-0.3,0.9-0.4,1.3h3.1C247.5,101.8,247.2,101.4,247,101z"/>
		<path class="st2" d="M249.1,104.4h-5.4c-0.2,0.4-0.4,0.9-0.7,1.3h7.1C249.8,105.2,249.5,104.8,249.1,104.4z"/>
		<path class="st2" d="M252.1,107.8h-10.3c-0.3,0.4-0.6,0.9-0.9,1.3h12.6C252.9,108.6,252.5,108.2,252.1,107.8z"/>
		<path class="st2" d="M256.5,111.7c-0.2-0.2-0.4-0.3-0.7-0.5H239c-0.4,0.4-0.9,0.9-1.3,1.3h18.5
			C256.3,112.2,256.4,111.9,256.5,111.7z"/>
		<path class="st2" d="M235,114.6c-0.7,0.5-1.4,0.9-2.1,1.3h21.3c0.3-0.4,0.6-0.9,0.8-1.3H235z"/>
	</g>
</g>
</svg>
