<?xml version="1.0" encoding="utf-8"?>
<!-- Generator: Adobe Illustrator 24.2.1, SVG Export Plug-In . SVG Version: 6.00 Build 0)  -->
<svg version="1.1" id="圖層_1"
	xmlns="http://www.w3.org/2000/svg"
	xmlns:xlink="http://www.w3.org/1999/xlink" x="0px" y="0px" viewBox="0 0 528.7 483.4" style="enable-background:new 0 0 528.7 483.4;" xml:space="preserve">
	<style type="text/css">
	.st0{opacity:0.6;}
	.st1{
		fill:#62b4dc70;   
		stroke-width: 1px;
    	stroke: #62B4D0;
    	stroke-dasharray: 600;
    	stroke-dashoffset: 600;
		animation: drawing-svg 5s infinite;
	}

  	@keyframes drawing-svg {
		100% {
		stroke-dashoffset: 0;
		}
	}
	</style>
	<g id="组_380" transform="translate(-115.292 -44.264)" class="st0">
		<g id="组_378" transform="translate(193.75 44.264)">
			<g id="组_318_1_" transform="translate(127.352 41.747)">
				<path id="路径_295_1_" class="st1" d="M0.8,3.9c-1.8,3.5-0.4,7.9,3.1,9.7s7.9,0.4,9.7-3.1C15.4,7,14,2.6,10.5,0.8l0,0
				C7-1,2.6,0.4,0.8,3.9z"/>
			</g>
			<g id="组_319_1_" transform="translate(215.557 54.011)">
				<path id="路径_296_1_" class="st1" d="M0.8,3.9c-1.8,3.5-0.4,7.9,3.1,9.7s7.9,0.4,9.7-3.1C15.4,7,14,2.6,10.5,0.8l0,0
				C7-1,2.6,0.4,0.8,3.9z"/>
			</g>
			<g id="组_320_1_" transform="translate(219.016 15.101)">
				<path id="路径_297_1_" class="st1" d="M0.6,3.1c-1.5,2.8-0.3,6.2,2.5,7.7s6.2,0.4,7.7-2.4s0.4-6.2-2.4-7.7l0,0
				C5.5-0.8,2.1,0.3,0.6,3.1z"/>
			</g>
			<g id="组_321_1_" transform="translate(240.325)">
				<path id="路径_298_1_" class="st1" d="M0.6,3.1c-1.5,2.8-0.3,6.2,2.5,7.7s6.2,0.4,7.7-2.4s0.4-6.2-2.4-7.7l0,0
				C5.5-0.8,2.1,0.3,0.6,3.1z"/>
			</g>
			<g id="组_322_1_" transform="translate(159.444 466.928)">
				<path id="路径_299_1_" class="st1" d="M0.6,3.1c-1.5,2.8-0.3,6.2,2.5,7.7s6.2,0.4,7.7-2.4s0.4-6.2-2.4-7.7l0,0
				C5.5-0.8,2.1,0.3,0.6,3.1z"/>
			</g>
			<g id="组_323_1_" transform="translate(81.545 432.978)">
				<path id="路径_300_1_" class="st1" d="M0.6,3.1c-1.5,2.8-0.3,6.2,2.5,7.7s6.2,0.4,7.7-2.4s0.4-6.2-2.4-7.7l0,0
				C5.5-0.8,2.1,0.3,0.6,3.1z"/>
			</g>
			<g id="组_324_1_" transform="translate(0 350.324)">
				<path id="路径_301_1_" class="st1" d="M0.6,3.1c-1.5,2.8-0.3,6.2,2.5,7.7s6.2,0.4,7.7-2.4s0.4-6.2-2.4-7.7S2.1,0.3,0.6,3.1
				L0.6,3.1z"/>
			</g>
			<g id="组_325_1_" transform="translate(148.378 7.412)">
				<path id="路径_302_1_" class="st1" d="M0.6,3.1c-1.5,2.8-0.3,6.2,2.5,7.7s6.2,0.4,7.7-2.4s0.4-6.2-2.4-7.7l0,0
				C5.5-0.8,2.1,0.3,0.6,3.1z"/>
			</g>
			<g id="组_326_1_" transform="translate(193.224 448.367)">
				<path id="路径_303_1_" class="st1" d="M0.6,3.1c-1.5,2.8-0.3,6.2,2.5,7.7s6.2,0.4,7.7-2.4s0.4-6.2-2.4-7.7l0,0
				C5.5-0.8,2.1,0.3,0.6,3.1z"/>
			</g>
			<g id="组_327_1_" transform="translate(180.306 364.438)">
				<path id="路径_304_1_" class="st1" d="M0.8,3.9c-1.8,3.5-0.4,7.9,3.1,9.7c3.5,1.8,7.9,0.4,9.7-3.1C15.4,7,14,2.6,10.5,0.8l0,0
				C7-1,2.6,0.4,0.8,3.9z"/>
			</g>
			<g id="组_328_1_" transform="translate(121.851 428.774)">
				<path id="路径_305_1_" class="st1" d="M0.8,3.9c-1.8,3.5-0.4,7.9,3.1,9.7c3.5,1.8,7.9,0.4,9.7-3.1C15.4,7,14,2.6,10.5,0.8l0,0
				C7-1,2.6,0.4,0.8,3.9z"/>
			</g>
			<g id="组_329_1_" transform="translate(62.465 374.678)">
				<path id="路径_306_1_" class="st1" d="M0.8,3.9c-1.8,3.5-0.4,7.9,3.1,9.7c3.5,1.8,7.9,0.4,9.7-3.1s0.4-7.9-3.1-9.7l0,0
				C7-1,2.6,0.4,0.8,3.9z"/>
			</g>
			<g id="组_377" transform="translate(5.691 4.855)">
				<g id="组_360" transform="translate(44.01 1.657)">
					<g id="组_330_1_" transform="translate(254.932 42.732)">
						<path id="路径_307_1_" class="st1" d="M1.2,1.3L0,0l65,16.6l0.3,0.1l36.1,94.9L1.2,1.3z M3.1,1.9l95.3,104.9l-34-89.2
						L3.1,1.9z"/>
					</g>
					<g id="组_331_1_" transform="translate(152.7)">
						<path id="路径_308_1_" class="st1" d="M43.4,0l62.3,44.4L1.3,33.8L0,33.6L43.4,0z M43.4,1.3L2.7,32.9L101.9,43L43.4,1.3z"/>
					</g>
					<g id="组_332_1_" transform="translate(1.928 374.951)">
						<path id="路径_309_1_" class="st1" d="M0,0l98.1,59.6l-63.2-0.8L0,0z M3.1,3.1l32.4,54.7l58.8,0.8L3.1,3.1z"/>
					</g>
					<g id="组_333_1_" transform="translate(97.144 433.424)">
						<path id="路径_310_1_" class="st1" d="M0,0l64.8,6.4L18,32.6l-0.5,0.3L0,0z M1.9,1.2l16.1,30.2L61.4,7.1L1.9,1.2z"/>
					</g>
					<g id="组_334_1_" transform="translate(158.892 438.465)">
						<path id="路径_311_1_" class="st1" d="M0,1.2L80.1,0L32.8,31.3L0,1.2z M2.7,2.2l30.2,27.7L76.5,1.1L2.7,2.2z"/>
					</g>
					<g id="组_335_1_" transform="translate(235.676 382.53)">
						<path id="路径_312_1_" class="st1" d="M63.9,0L47.6,53.8L0,57.1L63.9,0z M61.8,3.3L3,55.9l43.8-3L61.8,3.3z"/>
					</g>
					<g id="组_336_1_" transform="translate(297.245 302.857)">
						<path id="路径_313_1_" class="st1" d="M56.4,0l0.8,62.7l0,0.4L0,82.3L56.4,0z M55.3,3.3l-52.7,77l53.4-18L55.3,3.3z"/>
					</g>
					<g id="组_337_1_" transform="translate(352.029 216.096)">
						<path id="路径_314_1_" class="st1" d="M30.1,0l13.5,54.2l0.1,0.3L0,90L30.1,0z M30,3.7L2.1,86.9l40.4-32.8L30,3.7z"/>
					</g>
					<g id="组_338_1_" transform="translate(353.751 150.73)">
						<path id="路径_315_1_" class="st1" d="M0,0l35.2,19.8l-6.6,49.4L0,0z M2.1,2.4l25.9,62.8l6-44.8L2.1,2.4z"/>
					</g>
					<g id="组_339_1_" transform="translate(151.714 32.477)">
						<path id="路径_316_1_" class="st1" d="M0,0l105.7,10.8L82.3,48.2L0,0z M4.7,1.5l77.2,45.2l22-35.1L4.7,1.5z"/>
					</g>
					<g id="组_340_1_" transform="translate(232.079 78.322)">
						<path id="路径_317_1_" class="st1" d="M0,0l123,73.2l1,0.6L62.3,92.4l-0.4,0.1L0,0z M3.5,3.3l58.9,88l59.1-17.8L3.5,3.3z"/>
					</g>
					<g id="组_341_1_" transform="translate(293.12 169.012)">
						<path id="路径_318_1_" class="st1" d="M0,0l89.6,48.7L60,137L0,0z M2.2,2.4l57.7,131.7l28.4-84.8L2.2,2.4z"/>
					</g>
					<g id="组_342_1_" transform="translate(297.942 290.048)">
						<path id="路径_319_1_" class="st1" d="M5.1,0.7l0-0.6L56,14.2L0,96L5.1,0.7z M6.1,1.4L1.3,92.3l53.1-77.5L6.1,1.4z"/>
					</g>
					<g id="组_343_1_" transform="translate(249.645 169.258)">
						<path id="路径_320_1_" class="st1" d="M0.3,31.3L0,30.9L45,0l9.6,123.7L0.3,31.3z M1.4,31.2l51.8,88.1L44.1,1.9L1.4,31.2z"/>
					</g>
					<g id="组_344_1_" transform="translate(135.459 32.475)">
						<path id="路径_321_1_" class="st1" d="M18.1,0.6L18.3,0l81.9,48L0.8,49.5l-0.8,0L18.1,0.6z M18.9,1.5L1.5,48.5L96.5,47
						L18.9,1.5z"/>
					</g>
					<g id="组_345_1_" transform="translate(232.61 362.236)">
						<path id="路径_322_1_" class="st1" d="M0,0.8L0,0l66.1,21.4l0.9,0.3L4.1,77.9L0,0.8z M1.1,1.5L5,75.7l59.9-53.5L1.1,1.5z"/>
					</g>
					<g id="组_346_1_" transform="translate(232.615 435.219)">
						<path id="路径_323_1_" class="st1" d="M0.4,2.1c-1,1.9-0.2,4.2,1.6,5.2c1.9,1,4.2,0.2,5.2-1.6s0.2-4.2-1.7-5.2
						C3.7-0.5,1.4,0.2,0.4,2.1L0.4,2.1z"/>
					</g>
					<g id="组_347_1_" transform="translate(0 373.096)">
						<path id="路径_324_1_" class="st1" d="M0.4,2.1c-1,1.9-0.2,4.2,1.6,5.2c1.9,1,4.2,0.2,5.2-1.6s0.2-4.2-1.7-5.2
						C3.7-0.5,1.4,0.2,0.4,2.1z"/>
					</g>
					<g id="组_348_1_" transform="translate(300.321 287.199)">
						<path id="路径_325_1_" class="st1" d="M0.4,2.1c-1,1.9-0.2,4.2,1.6,5.2c1.9,1,4.2,0.2,5.2-1.6s0.2-4.2-1.7-5.2
						C3.7-0.5,1.4,0.2,0.4,2.1L0.4,2.1z"/>
					</g>
					<g id="组_349_1_" transform="translate(350.207 147.53)">
						<path id="路径_326_1_" class="st1" d="M0.4,2.1c-1,1.9-0.2,4.2,1.6,5.2c1.9,1,4.2,0.2,5.2-1.7c1-1.9,0.2-4.2-1.7-5.2
						C3.7-0.5,1.4,0.2,0.4,2.1L0.4,2.1z"/>
					</g>
					<g id="组_350_1_" transform="translate(149.942 29.868)">
						<path id="路径_327_1_" class="st1" d="M0.4,2.1c-1,1.9-0.2,4.2,1.6,5.2s4.2,0.2,5.2-1.6c1-1.9,0.2-4.2-1.7-5.2
						C3.7-0.5,1.4,0.2,0.4,2.1L0.4,2.1z"/>
					</g>
					<g id="组_351_1_" transform="translate(251.563 39.158)">
						<path id="路径_328_1_" class="st1" d="M0.4,2.1c-1,1.9-0.2,4.2,1.6,5.2c1.9,1,4.2,0.2,5.2-1.6s0.2-4.2-1.7-5.2
						C3.7-0.5,1.4,0.2,0.4,2.1L0.4,2.1z"/>
					</g>
					<g id="组_352_1_" transform="translate(349.775 301.273)">
						<path id="路径_329_1_" class="st1" d="M0.4,2.1c-1,1.9-0.2,4.2,1.6,5.2c1.9,1,4.2,0.2,5.2-1.6s0.2-4.2-1.7-5.2l0,0
						C3.7-0.5,1.4,0.2,0.4,2.1z"/>
					</g>
					<g id="组_353_1_" transform="translate(378.037 213.907)">
						<path id="路径_330_1_" class="st1" d="M0.4,2.1c-1,1.9-0.2,4.2,1.6,5.2s4.2,0.2,5.2-1.7s0.2-4.2-1.6-5.2l0,0
						C3.7-0.6,1.4,0.2,0.4,2.1z"/>
					</g>
					<g id="组_354_1_" transform="translate(228.36 359.814)">
						<path id="路径_331_1_" class="st1" d="M0.4,2.1c-1,1.9-0.2,4.2,1.6,5.2s4.2,0.2,5.2-1.6c1-1.9,0.2-4.2-1.7-5.2
						C3.7-0.5,1.4,0.2,0.4,2.1L0.4,2.1z"/>
					</g>
					<g id="组_355_1_" transform="translate(295.325 380.51)">
						<path id="路径_332_1_" class="st1" d="M0.4,2.1c-1,1.9-0.2,4.2,1.6,5.2s4.2,0.2,5.2-1.6c1-1.9,0.2-4.2-1.7-5.2
						C3.7-0.5,1.4,0.2,0.4,2.1L0.4,2.1z"/>
					</g>
					<g id="组_356_1_" transform="translate(93.717 428.275)">
						<path id="路径_333_1_" class="st1" d="M0.4,2.1c-1,1.9-0.2,4.2,1.7,5.2c1.9,1,4.2,0.2,5.2-1.6c1-1.9,0.2-4.2-1.7-5.2l0,0
						C3.7-0.5,1.4,0.2,0.4,2.1z"/>
					</g>
					<g id="组_357_1_" transform="translate(131.416 74.092)">
						<path id="路径_334_1_" class="st1" d="M0.6,3.1c-1.5,2.8-0.3,6.2,2.5,7.7s6.2,0.4,7.7-2.4s0.4-6.2-2.4-7.7l0,0
						C5.5-0.8,2.1,0.3,0.6,3.1z"/>
					</g>
					<g id="组_358_1_" transform="translate(288.522 164.726)">
						<path id="路径_335_1_" class="st1" d="M0.6,3.1c-1.5,2.8-0.3,6.2,2.5,7.7s6.2,0.4,7.7-2.4s0.4-6.2-2.4-7.7l0,0
						C5.5-0.8,2.1,0.3,0.6,3.1z"/>
					</g>
					<g id="组_359_1_" transform="translate(229.061 75.926)">
						<path id="路径_336_1_" class="st1" d="M0.6,3.1c-1.5,2.8-0.3,6.2,2.5,7.7s6.2,0.4,7.7-2.4s0.4-6.2-2.4-7.7l0,0
						C5.5-0.8,2.1,0.3,0.6,3.1z"/>
					</g>
				</g>
				<g id="组_361_1_">
					<path id="路径_337_1_" class="st1" d="M236.5,0l130.6,62.5L300.6,53l-0.1,0L236.5,0z M243.7,4.6L300.9,52l59.5,8.5L243.7,4.6z
					"/>
					<path id="路径_338_1_" class="st1" d="M147.4,7.4l94.7-5.8l-22.7,14.1l-72-7.2L147.4,7.4z M238,3L154,8.1l65.2,6.5L238,3z"/>
					<path id="路径_339_1_" class="st1" d="M365.3,110.1l-0.2-0.2l-2-50.4l71.7,116.1L365.3,110.1z M366.1,109.4l63.7,59.9
					L364.4,63.5L366.1,109.4z"/>
					<path id="路径_340_1_" class="st1" d="M414.5,206.2l-0.1-0.2l18.3-35.4l7.2,105.1L414.5,206.2z M415.6,206.1l22.8,62.3
					l-6.4-94L415.6,206.1z"/>
					<path id="路径_341_1_" class="st1" d="M416,288.3l24.5-17.8l-42.1,96.9l-1-0.3L416,288.3z M416.9,288.9l-17.2,72.6l38.2-88
					L416.9,288.9z"/>
					<path id="路径_342_1_" class="st1" d="M357.9,370.2l0.1-0.3l41.2-3.4L325.1,440L357.9,370.2z M358.8,370.9l-30.1,64.2
					l67.9-67.3L358.8,370.9z"/>
					<path id="路径_343_1_" class="st1" d="M276.5,433.4l0.2-0.1l52.6,4l-96,35L276.5,433.4z M277.1,434.3l-39,35l86.3-31.4
					L277.1,434.3z"/>
					<path id="路径_344_1_" class="st1" d="M0,351.7l64.5,26.8l0.2,0.1l17.5,58.2L0,351.7z M4.3,354.6L80,433l-16.1-53.6L4.3,354.6
					z"/>
					<path id="路径_345_1_" class="st1" d="M192,450.9l0.2-0.1l46.3,20.6l-81.8-3.8L192,450.9z M192.2,452L161,466.8l72,3.3
					L192.2,452z"/>
					<path id="路径_346_1_" class="st1" d="M123,432.4l0.2,0l38,36.4l-82.5-34.3L123,432.4z M122.8,433.5l-39.4,1.8l73,30.3
					L122.8,433.5z"/>
					<path id="路径_347_1_" class="st1" d="M218.8,14.4L303,53l-86,2.7L218.8,14.4z M219.8,16l-1.7,38.7l80.4-2.6L219.8,16z"/>
					<path id="路径_348_1_" class="st1" d="M300.2,51.4l68.2,60l-68.9-29l-0.3-0.1L300.2,51.4z M301.2,53.7l-1,27.9l62.6,26.4
					L301.2,53.7z"/>
					<path id="路径_349_1_" class="st1" d="M339.7,157.5l-0.4-0.3l26.4-48.7l50.7,99L339.7,157.5z M340.7,156.9l73,47.7l-48-93.7
					L340.7,156.9z"/>
					<path id="路径_350_1_" class="st1" d="M379.1,219l36.5-13.8l1.5,85.5L379.1,219z M380.5,219.6l35.3,66.8l-1.4-79.6
					L380.5,219.6z"/>
					<path id="路径_351_1_" class="st1" d="M299.7,80.8l40.8,76l0.4,0.7l-82.2,4.4l-0.9,0.1L299.7,80.8z M299.7,83l-40.2,77.8
					l79.6-4.3L299.7,83z"/>
					<path id="路径_352_1_" class="st1" d="M217,55.4l-0.4-1l83.8,27.3l-41.9,81.1L217,55.4z M218.4,56l40.3,104.1L299,82.2
					L218.4,56z"/>
					<path id="路径_353_1_" class="st1" d="M219.1,14.7l0.7-0.2L218,55.2l0,0.6l-93.5-10.9L219.1,14.7z M218.7,15.9l-89.3,28.5
					L217,54.6L218.7,15.9z"/>
					<path id="路径_354_1_" class="st1" d="M340,156.5l0.3,0l41,64.1L256.5,161L340,156.5z M339.7,157.6l-79,4.3l117.7,56.2
					L339.7,157.6z"/>
					<path id="路径_355_1_" class="st1" d="M379.4,219.1l0.5-0.9l37.4,70.7l-92.3,29.4L379.4,219.1z M379.8,220.4l-52.7,96.1
					l88.6-28.2L379.8,220.4z"/>
					<path id="路径_356_1_" class="st1" d="M325.2,317.1l92.6-29.5l-59.4,83.7L325.2,317.1z M326.8,317.7l31.7,51.7l56.6-79.9
					L326.8,317.7z"/>
					<path id="路径_357_1_" class="st1" d="M325.5,317.2l0.4-0.9l33,53.8l0.3,0.4l-83.5,64.9L325.5,317.2z M326.1,318.6
					l-47.9,113.5l79.6-61.8L326.1,318.6z"/>
					<path id="路径_358_1_" class="st1" d="M180.3,366.9l-0.2-1.2l98,68.3l-85.9,17.9l-0.6,0.1L180.3,366.9z M181.5,367.9
					l11.1,82.9l82.9-17.3L181.5,367.9z"/>
					<path id="路径_359_1_" class="st1" d="M181.2,365.6l11.6,86.5l-70.8-18.9L181.2,365.6z M180.5,368L124,432.7l67.6,18
					L180.5,368z"/>
				</g>
				<path id="路径_360_1_" class="st1" d="M333.9,152.7c-1.8,3.5-0.4,7.9,3.1,9.7s7.9,0.4,9.7-3.1c1.8-3.5,0.4-7.9-3.1-9.7l0,0
				C340,147.8,335.7,149.2,333.9,152.7z"/>
				<path id="路径_361_1_" class="st1" d="M359.8,107.6c-1.5,2.8-0.4,6.2,2.5,7.7c2.8,1.4,6.2,0.3,7.7-2.4c1.5-2.8,0.4-6.2-2.5-7.7
				l0,0C364.6,103.7,361.2,104.8,359.8,107.6z"/>
				<g id="组_362_1_" transform="translate(372.979 212.674)">
					<path id="路径_362_1_" class="st1" d="M0.8,3.9c-1.8,3.5-0.4,7.9,3.1,9.7s7.9,0.4,9.7-3.1C15.4,7,14,2.6,10.5,0.8l0,0
					C7-1,2.6,0.4,0.8,3.9z"/>
				</g>
				<g id="组_363_1_" transform="translate(292.515 75.654)">
					<path id="路径_363_1_" class="st1" d="M0.8,3.9c-1.8,3.5-0.4,7.9,3.1,9.7s7.9,0.4,9.7-3.1C15.4,7,14,2.6,10.5,0.8l0,0
					C7-1,2.6,0.4,0.8,3.9z"/>
				</g>
				<g id="组_364_1_" transform="translate(295.217 47.159)">
					<path id="路径_364_1_" class="st1" d="M0.6,3.1c-1.5,2.8-0.3,6.2,2.5,7.7s6.2,0.4,7.7-2.4s0.4-6.2-2.4-7.7l0,0
					C5.5-0.8,2.1,0.3,0.6,3.1z"/>
				</g>
				<g id="组_365_1_" transform="translate(358.677 56.54)">
					<path id="路径_365_1_" class="st1" d="M0.6,3.1c-1.5,2.8-0.3,6.2,2.5,7.7s6.2,0.4,7.7-2.4s0.4-6.2-2.4-7.7l0,0
					C5.5-0.8,2.1,0.3,0.6,3.1z"/>
				</g>
				<g id="组_366_1_" transform="translate(426.245 167.986)">
					<path id="路径_366_1_" class="st1" d="M0.6,3.1c-1.5,2.8-0.3,6.2,2.5,7.7s6.2,0.4,7.7-2.4s0.4-6.2-2.4-7.7l0,0
					C5.5-0.8,2.1,0.3,0.6,3.1z"/>
				</g>
				<g id="组_367_1_" transform="translate(407.565 200.653)">
					<path id="路径_367_1_" class="st1" d="M0.6,3.1c-1.5,2.8-0.3,6.2,2.5,7.7s6.2,0.4,7.7-2.4s0.4-6.2-2.4-7.7l0,0
					C5.5-0.8,2.1,0.3,0.6,3.1L0.6,3.1z"/>
				</g>
				<g id="组_368_1_" transform="translate(409.338 282.604)">
					<path id="路径_368_1_" class="st1" d="M0.6,3.1c-1.5,2.8-0.4,6.2,2.5,7.7s6.2,0.4,7.7-2.4s0.4-6.2-2.4-7.7S2.1,0.3,0.6,3.1
					L0.6,3.1z"/>
				</g>
				<g id="组_369_1_" transform="translate(321.15 430.62)">
					<path id="路径_369_1_" class="st1" d="M0.6,3.1c-1.5,2.8-0.3,6.2,2.5,7.7s6.2,0.4,7.7-2.4s0.4-6.2-2.4-7.7l0,0
					C5.5-0.8,2.1,0.3,0.6,3.1z"/>
				</g>
				<g id="组_370_1_" transform="translate(231.225 466.989)">
					<path id="路径_370_1_" class="st1" d="M0.6,3.1c-1.5,2.8-0.4,6.2,2.5,7.7s6.2,0.4,7.7-2.4s0.4-6.2-2.4-7.7l0,0
					C5.5-0.8,2.1,0.3,0.6,3.1z"/>
				</g>
				<g id="组_371_1_" transform="translate(433.17 266.105)">
					<path id="路径_371_1_" class="st1" d="M0.6,3.1c-1.5,2.8-0.3,6.2,2.5,7.7s6.2,0.4,7.7-2.4s0.4-6.2-2.4-7.7l0,0
					C5.5-0.8,2.1,0.3,0.6,3.1z"/>
				</g>
				<g id="组_372_1_" transform="translate(392.171 362.873)">
					<path id="路径_372_1_" class="st1" d="M0.6,3.1c-1.5,2.8-0.4,6.2,2.5,7.7s6.2,0.4,7.7-2.4s0.4-6.2-2.4-7.7l0,0
					C5.5-0.8,2.1,0.3,0.6,3.1z"/>
				</g>
				<g id="组_373_1_" transform="translate(353.098 362.67)">
					<path id="路径_373_1_" class="st1" d="M0.8,3.9c-1.8,3.5-0.4,7.9,3.1,9.7c3.5,1.8,7.9,0.4,9.7-3.1C15.4,7,14,2.6,10.5,0.8l0,0
					C7-1,2.6,0.4,0.8,3.9z"/>
				</g>
				<g id="组_374_1_" transform="translate(270.682 426.33)">
					<path id="路径_374_1_" class="st1" d="M0.8,3.9c-1.8,3.5-0.4,7.9,3.1,9.7c3.5,1.8,7.9,0.4,9.7-3.1C15.4,7,14,2.6,10.5,0.8l0,0
					C7-1,2.6,0.4,0.8,3.9z"/>
				</g>
				<g id="组_375_1_" transform="translate(248.671 150.765)">
					<circle id="椭圆_25_1_" class="st1" cx="11.7" cy="11.7" r="10.2"/>
				</g>
				<g id="组_376_1_" transform="translate(316.455 308.08)">
					<path id="路径_375_1_" class="st1" d="M1.1,5.5c-2.6,5-0.6,11.1,4.4,13.7s11.1,0.6,13.7-4.4s0.6-11.1-4.4-13.7l0,0
					C9.9-1.4,3.7,0.5,1.1,5.5L1.1,5.5z"/>
				</g>
			</g>
		</g>
		<g id="组_379" transform="translate(115.292 88.701)">
			<circle id="椭圆_26_1_" class="st1" cx="206.6" cy="37.7" r="7.7"/>
			<path id="路径_376_1_" class="st1" d="M108.5,374c0,4.3-3.4,7.7-7.7,7.7s-7.7-3.5-7.7-7.7c0-4.3,3.4-7.7,7.7-7.7
			S108.5,369.7,108.5,374L108.5,374z"/>
			<circle id="椭圆_27_1_" class="st1" cx="155.7" cy="5.4" r="5.4"/>
			<circle id="椭圆_28_1_" class="st1" cx="5.4" cy="337.3" r="5.4"/>

			<ellipse id="椭圆_29_1_" transform="matrix(2.993967e-03 -1 1 2.993967e-03 -280.3834 289.3159)" class="st1" cx="4.9" cy="285.3" rx="3" ry="3"/>
		</g>
	</g>
</svg>
