<?xml version="1.0" encoding="iso-8859-1"?>
<!-- Generator: Adobe Illustrator 19.0.0, SVG Export Plug-In . SVG Version: 6.00 Build 0)  -->
<svg version="1.1" id="Capa_1" xmlns="http://www.w3.org/2000/svg" xmlns:xlink="http://www.w3.org/1999/xlink" x="0px" y="0px"
	 viewBox="0 0 512 512" style="enable-background:new 0 0 512 512;" xml:space="preserve">
<path style="fill:#FFDCCE;" d="M480.029,72.509L324.019,210.245l-85.581-7.369l0,0l0,0l-72.084,32.83
	c-12.064,5.495-17.39,19.728-11.895,31.793c5.495,12.065,19.728,17.39,31.793,11.896l66.82-30.433l0.294,0.927l16.504,243.272
	l211.158-220.628L480.029,72.509z"/>
<polygon style="fill:#FFCBB6;" points="480.029,72.509 462.69,87.816 463.527,255.032 267.604,459.741 269.871,493.161 
	481.029,272.534 "/>
<path style="fill:#FFEEE7;" d="M367.044,419.957c11.294,6.94,26.077,3.41,33.017-7.885c6.94-11.294,3.41-26.075-7.883-33.016
	l13.633,8.376c11.294,6.94,26.077,3.41,33.017-7.885c6.94-11.295,3.41-26.077-7.885-33.017l-153.264-94.175l-157.695-27.826
	L63.977,352.544l113.182,63.426l112.351,69.035c11.294,6.94,26.077,3.41,33.017-7.885c6.94-11.294,3.41-26.075-7.883-33.016
	l13.633,8.377c11.294,6.94,26.077,3.41,33.017-7.885c6.94-11.294,3.41-26.076-7.885-33.017L367.044,419.957z"/>
<g>
	<path style="fill:#FFDCCE;" d="M415.811,371.431l-50.625-31.108c-3.741-2.299-8.637-1.152-10.969,2.569l-5.808,9.27l56.918,34.973
		c11.451,7.037,26.893,3.615,33.724-7.96c1.59-2.694,2.592-5.578,3.046-8.499C434.503,375.96,424.197,376.584,415.811,371.431z"/>
	<path style="fill:#FFDCCE;" d="M376.045,403.955l-33.424-20.538c-3.725-2.289-8.598-1.163-10.942,2.527l-5.611,8.834l40.526,24.901
		c10.925,6.714,25.418,4.065,32.725-6.473c2.327-3.355,3.668-7.069,4.12-10.822C395.762,408.412,384.845,409.362,376.045,403.955z"
		/>
	<path style="fill:#FFDCCE;" d="M342.028,438.73l-20.544-12.623c-3.749-2.303-8.655-1.147-10.98,2.588l-5.795,9.306l22.909,14.077
		c9.161,5.629,21.06,4.965,29.144-2.125c3.109-2.726,5.171-5.922,6.472-9.282C356.491,443.266,348.66,442.805,342.028,438.73z"/>
	<path style="fill:#FFDCCE;" d="M299.512,471.004l-10.223-6.282l-9.076,14.57l9.299,5.714c11.294,6.94,26.077,3.41,33.017-7.885
		c1.282-2.086,2.204-4.293,2.789-6.546C317.772,475.556,307.722,476.049,299.512,471.004z"/>
	<polygon style="fill:#FFDCCE;" points="63.977,352.544 177.16,415.97 188.594,397.358 74.581,328.307 	"/>
	<path style="fill:#FFDCCE;" d="M148.465,324.236c6.88-11.149,21.405-14.701,32.634-8.063c11.584,6.848,15.003,22.279,7.937,33.731
		l-41.73,67.631c-6.961,11.281-21.75,14.785-33.031,7.823l0,0c-11.281-6.961-14.784-21.75-7.823-33.031L148.465,324.236z"/>
</g>
<path style="fill:#FFCBB6;" d="M118.703,404.579l42.014-68.092c6.342-10.277,19.176-14.092,29.942-9.428
	c-1.914-4.413-5.141-8.275-9.558-10.886c-11.229-6.638-25.754-3.086-32.634,8.063l-42.014,68.092
	c-6.961,11.281-3.458,26.07,7.823,33.031c0.944,0.583,1.914,1.085,2.901,1.523C114.098,419.897,114.392,411.567,118.703,404.579z"/>
<path style="fill:#FFDCCE;" d="M180.917,363.063c6.88-11.149,21.405-14.702,32.634-8.063c11.584,6.848,15.003,22.279,7.937,33.731
	l-33.327,54.013c-6.961,11.281-21.75,14.784-33.031,7.823l0,0c-11.281-6.961-14.784-21.75-7.823-33.031L180.917,363.063z"/>
<path style="fill:#FFCBB6;" d="M159.558,429.788l33.611-54.473c6.342-10.277,19.176-14.092,29.942-9.428
	c-1.914-4.413-5.141-8.275-9.558-10.886c-11.229-6.638-25.754-3.086-32.634,8.063l-33.611,54.473
	c-6.961,11.281-3.458,26.07,7.823,33.031c0.944,0.583,1.914,1.085,2.901,1.523C154.953,445.106,155.247,436.775,159.558,429.788z"/>
<path style="fill:#FFDCCE;" d="M213.369,401.889c6.88-11.149,21.405-14.701,32.634-8.063c11.584,6.848,15.003,22.279,7.937,33.731
	l-24.924,40.395c-6.961,11.281-21.75,14.785-33.031,7.823l0,0c-11.281-6.961-14.784-21.75-7.823-33.031L213.369,401.889z"/>
<path style="fill:#FFCBB6;" d="M199.949,477.74c-2.601-6.757-2.131-14.607,1.964-21.244l25.208-40.855
	c6.133-9.94,18.341-13.834,28.876-9.86c-1.838-4.856-5.221-9.134-9.993-11.954c-11.229-6.638-25.754-3.086-32.634,8.063
	l-25.208,40.855c-6.961,11.281-3.458,26.07,7.823,33.031l0,0C197.266,476.567,198.593,477.215,199.949,477.74z"/>
<path style="fill:#FFDCCE;" d="M245.821,440.716c6.88-11.149,21.405-14.702,32.634-8.063c11.584,6.848,15.003,22.279,7.937,33.731
	l-16.522,26.776c-6.961,11.281-21.75,14.784-33.031,7.823l0,0c-11.281-6.961-14.784-21.75-7.823-33.031L245.821,440.716z"/>
<path style="fill:#FFCBB6;" d="M243.268,482.205l16.805-27.236c6.062-9.824,18.057-13.745,28.506-9.999
	c-1.805-5.004-5.234-9.426-10.123-12.317c-11.229-6.638-25.754-3.086-32.634,8.063l-16.805,27.236
	c-6.961,11.281-3.458,26.07,7.823,33.031l0,0c1.398,0.863,2.85,1.563,4.335,2.11C238.723,496.418,239.244,488.726,243.268,482.205z"
	/>
<polygon style="fill:#808E9B;" points="127.985,208.526 7.97,160.52 7.97,375.547 55.976,392.549 "/>
<polygon style="fill:#6B7B8B;" points="7.97,375.547 55.976,392.549 66.593,365.418 7.97,339.526 "/>
<polygon style="fill:#55697A;" points="318.342,181.523 468.361,329.541 504.032,296.203 504.032,7.501 "/>
<polygon style="fill:#40566A;" points="447.041,308.505 468.361,329.541 504.032,296.203 504.032,250.036 "/>
<path d="M281.604,245.966c-0.847-0.521-1.821-0.874-2.804-1.028l-21.763-3.84c-4.025-0.712-7.98,2.058-8.69,6.084
	s2.057,7.98,6.083,8.69l20.537,3.624l68.297,41.965c3.334,2.049,7.907,1.054,10.12-2.166c2.375-3.455,1.303-8.422-2.266-10.616
	L281.604,245.966z"/>
<path d="M498.91,290.724l-30.409,28.42L329.163,181.662L509.161,12.974c3.022-2.833,3.176-7.58,0.344-10.602
	s-7.58-3.176-10.602-0.344l-185.69,174.022c-3.062,2.869-3.126,7.865-0.139,10.813l12.325,12.16l-3.934,3.474l-82.381-7.094
	c-1.271-0.108-2.592,0.111-3.752,0.647l-65.273,29.728c-0.19-0.049-0.38-0.097-0.577-0.132l-37.546-6.626l3.036-7.761
	c1.501-3.837-0.374-8.168-4.2-9.697L10.756,153.555c-3.848-1.541-8.212,0.332-9.75,4.179c-1.539,3.846,0.332,8.212,4.179,9.75
	l113.103,45.242L51.636,383.055l-41.162-14.579c-3.906-1.382-8.192,0.661-9.575,4.567s0.662,8.192,4.567,9.575l48.006,17.002
	c3.768,1.335,8.034-0.618,9.489-4.338L74.1,366.816l29.187,16.356l-3.219,5.218c-9.121,14.783-4.516,34.231,10.268,43.353
	c7.818,4.824,17.523,5.968,26.259,3.14c1.401,9.104,6.751,17.228,14.596,22.068c7.818,4.824,17.522,5.968,26.259,3.14
	c1.402,9.104,6.75,17.227,14.595,22.068c7.842,4.839,17.496,5.978,26.261,3.149c1.404,9.1,6.751,17.22,14.594,22.059
	c11.399,7.033,26.487,5.982,36.762-2.63c2.59-2.171,4.819-4.762,6.593-7.638l5.117-8.292l4.213,2.588
	c11.414,7.013,26.498,5.933,36.757-2.698c2.586-2.176,4.81-4.771,6.579-7.65c3.516-5.723,4.971-12.138,4.587-18.381
	c2.382,0.573,4.82,0.881,7.28,0.881c10.894,0,21.199-5.745,26.9-15.023c3.434-5.59,5.003-11.962,4.605-18.378
	c2.376,0.57,4.809,0.876,7.261,0.876c10.894,0,21.2-5.745,26.9-15.023c3.437-5.594,5.005-11.971,4.604-18.391
	c2.402,0.572,4.841,0.871,7.269,0.871c10.594,0,20.953-5.334,26.894-15.003c9.094-14.801,4.452-34.24-10.349-43.334l-5.14-3.158
	l17.239-18.012l16.125,15.91c2.828,2.789,7.489,2.851,10.39,0.141l35.671-33.337c3.026-2.828,3.186-7.575,0.358-10.602
	C506.683,288.055,501.937,287.895,498.91,290.724z M118.213,418.976c-7.744-4.778-10.156-14.965-5.379-22.709l42.014-68.092
	c4.689-7.6,14.751-10.085,22.434-5.546c7.95,4.7,10.144,15.599,5.371,23.336l-41.73,67.631
	C136.145,421.34,125.957,423.752,118.213,418.976z M159.069,444.184c-7.65-4.721-10.107-15.047-5.379-22.709l33.61-54.473
	c4.689-7.599,14.751-10.085,22.434-5.546c7.95,4.7,10.144,15.599,5.37,23.336l-33.327,54.013
	C177,446.548,166.811,448.961,159.069,444.184z M212.392,471.406c-4.291,1.017-8.718,0.3-12.469-2.014
	c-7.649-4.721-10.106-15.048-5.378-22.709l25.208-40.855c4.689-7.6,14.752-10.085,22.434-5.546c7.95,4.7,10.144,15.599,5.371,23.336
	l-24.924,40.395C220.318,467.765,216.681,470.39,212.392,471.406z M263.488,489.222c-4.721,7.65-15.047,10.105-22.71,5.378
	c-7.649-4.72-10.105-15.048-5.378-22.709l16.805-27.236c4.689-7.598,14.752-10.087,22.434-5.545
	c7.95,4.699,10.144,15.599,5.371,23.336L263.488,489.222z M416.654,328.948l-37.182-22.847c-3.448-2.119-8.199-0.984-10.317,2.464
	c-2.119,3.448-0.984,8.199,2.464,10.317l55.397,34.039c7.752,4.764,10.184,14.946,5.421,22.699
	c-4.764,7.752-14.947,10.184-22.7,5.421l-59.413-36.508c-3.529-2.17-8.149-1.065-10.317,2.464
	c-2.168,3.529-1.065,8.149,2.464,10.317l45.78,28.13c7.659,4.706,10.134,15.029,5.421,22.699
	c-4.706,7.659-15.029,10.133-22.699,5.421l-41.488-25.493c-3.53-2.169-8.149-1.065-10.317,2.464
	c-2.168,3.529-1.065,8.149,2.464,10.317l27.854,17.115c7.658,4.707,10.134,15.028,5.421,22.699
	c-4.706,7.658-15.029,10.134-22.699,5.421c0,0-24.496-15.037-24.725-15.147c-3.425-1.654-7.613-0.477-9.645,2.831
	c-2.168,3.529-1.065,8.149,2.464,10.317l10.419,6.402c7.752,4.764,10.183,14.946,5.42,22.699
	c-4.706,7.659-15.029,10.133-22.699,5.421l-4.189-2.574l3.527-5.717c4.509-7.308,5.908-16.308,3.837-24.692
	c-2.042-8.274-7.136-15.176-14.341-19.435c-5.622-3.322-11.911-4.668-18.035-4.255c1.15-4.94,1.156-10.146-0.076-15.137
	c-2.042-8.274-7.136-15.176-14.341-19.435c-5.622-3.323-11.911-4.669-18.035-4.256c3.093-13.288-2.601-27.585-14.417-34.571
	c-5.622-3.322-11.911-4.668-18.035-4.256c3.093-13.288-2.601-27.585-14.417-34.571c-14.669-8.671-33.884-3.922-42.834,10.582
	l-30.91,50.096L79.62,352.711l46.738-119.442l25.448,4.491c-7.238,8.99-9.273,21.647-4.173,32.848
	c5.278,11.588,16.744,18.445,28.718,18.444c4.361,0,8.79-0.91,13.011-2.832l43.928-20.008c3.72-1.694,5.412-6.215,3.717-9.935
	c-1.694-3.719-6.215-5.413-9.935-3.717l-43.928,20.007c-8.279,3.772-18.086,0.103-21.858-8.178
	c-3.771-8.281-0.103-18.086,8.178-21.858l70.294-32.015l83.618,7.201c0.215,0.019,0.43,0.028,0.644,0.028
	c1.82,0,3.587-0.663,4.964-1.877l7.118-6.285l100.186,98.849L416.654,328.948z"/>
<g>
</g>
<g>
</g>
<g>
</g>
<g>
</g>
<g>
</g>
<g>
</g>
<g>
</g>
<g>
</g>
<g>
</g>
<g>
</g>
<g>
</g>
<g>
</g>
<g>
</g>
<g>
</g>
<g>
</g>
</svg>
