<?xml version="1.0" encoding="utf-8"?>
<!-- Generator: Adobe Illustrator 24.2.1, SVG Export Plug-In . SVG Version: 6.00 Build 0)  -->
<svg version="1.1" xmlns="http://www.w3.org/2000/svg" xmlns:xlink="http://www.w3.org/1999/xlink" x="0px" y="0px"
	 viewBox="0 0 393.68 411.71" style="enable-background:new 0 0 393.68 411.71;" xml:space="preserve">
<style type="text/css">
	.st0{fill:#FFFFFF;}
</style>
<g id="圖層_2">
	<g>
		<path class="st0" d="M224.18,6.44c6.76,1.06,13.56,1.86,20.26,3.23c30.39,6.22,57.61,18.58,79.2,41.57
			c16.92,18.02,28.28,39.21,35.15,62.83c9.09,31.24,9.89,62.75,2.93,94.54c-6.69,30.56-17.5,59.54-32.65,86.9
			c-1.76,3.17-3.12,6.61-5.19,9.55c-4.11,5.85-3.91,12.06-2.27,18.49c5.7,22.28,13.67,43.7,24.72,63.9
			c1.11,2.02,2.47,3.99,4.07,5.64c2.34,2.41,3.25,5.06,2.01,8.13c-1.27,3.16-3.95,4.05-7.26,4.05
			c-38.42-0.05-76.84-0.03-115.26-0.03c-15.96,0-31.93,0.01-47.9-0.01c-5.59-0.01-7.77-1.9-8.43-7.4
			c-1.16-9.59-3.62-18.77-8.03-27.42c-1.14-2.24-2.15-2.7-4.77-2.08c-13.7,3.27-27.39,6.73-41.26,9.03
			c-11.06,1.83-22.36,2.84-33.18-2.45c-9.4-4.59-14.72-13.48-13.73-23.95c0.51-5.38,0.71-10.79,0.99-15.33
			c-4.06-2.23-7.56-3.69-10.52-5.87c-4.08-3.01-5.57-7.29-4.49-12.41c0.2-0.94,0.02-2.42-0.59-2.99c-3.45-3.23-4.01-7.45-4.31-11.74
			c-0.27-3.88-0.14-7.79-0.49-11.67c-0.4-4.43-2.37-5.54-6.67-6.62c-4.53-1.14-9.23-2.7-13.05-5.26c-5.92-3.97-7.47-9.71-5.03-16.43
			c1.58-4.34,3.87-8.47,6.22-12.47c3.48-5.92,7.15-11.74,11-17.42c8.14-12.02,8.82-25.15,6.09-38.81c-1.85-9.25-4.33-18.4-5.79-27.7
			c-2.25-14.35,0.14-28.44,4.11-42.22c14.99-51.97,49.05-86.28,98.75-105.87c15.25-6.01,31.07-9.84,47.48-11.02
			c0.74-0.05,1.45-0.45,2.17-0.68C207.05,6.44,215.61,6.44,224.18,6.44z M333.21,391.97c-0.92-1.85-1.53-3.1-2.16-4.34
			c-9.75-19.24-16.84-39.44-22.34-60.29c-2.8-10.62-2.32-20.32,3.88-29.66c2.78-4.19,4.84-8.86,7.23-13.31
			c9.35-17.39,16.88-35.54,22.54-54.44c7.86-26.24,12.59-52.85,9.7-80.45c-2.6-24.86-9.67-48.19-22.98-69.41
			c-10.58-16.87-24.21-30.99-41.72-40.55c-34.52-18.84-71.31-24.34-109.81-15.88C138.8,32.16,106.3,51.01,83.29,84
			c-15.68,22.48-24.72,47.45-24.41,75.25c0.05,4.29,0.85,8.57,1.34,13.23c4.29-2.63,7.69-5.04,11.37-6.89
			c9.39-4.74,19.06-8.33,29.82-4.94c1.21,0.38,2.53,0.84,3.44,1.65c2.32,2.08,3.22,4.67,1.78,7.69c-1.76,3.67-4.94,4.53-8.5,3.67
			c-5.15-1.24-10.1-0.91-14.73,1.5c-5.49,2.86-10.78,6.1-16.18,9.14c-2.67,1.51-3.1,3.54-2.43,6.5c3.8,16.68,2.56,32.69-6.87,47.5
			c-4.38,6.89-8.66,13.84-12.92,20.8c-1.21,1.98-2.26,4.07-3.32,6.15c-1.18,2.31-0.84,4,2,4.59c2.65,0.55,5.3,1.08,7.94,1.7
			c8.75,2.07,14.88,9.67,15.14,18.88c0.13,4.46,0.02,8.94,0.02,13.35c5.25,0.66,10.56-0.83,12.81,4.58
			c2.73,6.58-3.52,8.39-7.43,11.77c2.18,0.75,3.73,1.37,5.33,1.82c5.15,1.45,8.33,4.75,8.94,10.06c0.41,3.58,0.37,7.22,0.31,10.82
			c-0.06,3.37-0.37,6.73-0.63,10.1c-0.38,4.95,1.84,8.66,6.39,9.92c5.03,1.39,10.49,2.78,15.55,2.23
			c11.93-1.32,23.88-3.16,35.55-5.94c19.18-4.57,37.88-10.8,54.51-21.8c4.49-2.97,8.31-6.96,12.35-10.59
			c3.31-2.98,6.86-3.32,9.71-0.72c2.93,2.68,3.06,6.12,0.21,9.71c-1.29,1.62-2.73,3.14-4.23,4.56c-8.43,7.93-18.6,13.11-28.91,18.03
			c-3.33,1.59-6.75,2.99-9.6,4.25c2.76,8.59,5.78,16.58,7.77,24.82c0.96,4,2.53,4.67,6.17,4.66c43.48-0.12,86.96-0.07,130.44-0.07
			C325.51,391.97,329.01,391.97,333.21,391.97z"/>
		<path class="st0" d="M177.06,179.35c-4.93,0-9.87,0.09-14.8-0.04c-2.07-0.06-3.16,0.56-4.18,2.48
			c-5.69,10.65-18.32,14.06-28.27,7.82c-9.88-6.2-12.32-19.2-5.22-28.86c1.37-1.86,1.49-3.24,0.64-5.24
			c-2.89-6.79-5.51-13.69-8.47-20.44c-0.63-1.44-2.08-2.9-3.51-3.54c-7.93-3.52-13.12-11.14-12.76-19.24
			c0.38-8.54,5.95-15.73,14.27-18.53c1.05-0.35,2.29-0.82,2.92-1.64c3.75-4.8,7.43-9.67,10.94-14.66c0.56-0.8,0.46-2.42,0.09-3.46
			c-3.26-9.11-0.8-18.41,6.4-23.73c7.58-5.6,16.8-5.24,24.87,0.77c1.07,0.8,2.84,1.27,4.13,1.04c7-1.25,13.98-2.67,20.91-4.28
			c1.35-0.31,2.96-1.47,3.56-2.69c3.85-7.7,9.99-12.06,18.52-11.97c8.51,0.09,14.63,4.47,18.26,12.31c0.54,1.18,1.96,2.27,3.22,2.72
			c2.54,0.91,5.27,1.29,7.89,2.02c5.05,1.41,9.37,2.5,14.68-1.28c6.64-4.74,14.52-3.41,21.03,1.64c6.45,5,9.26,11.77,7.28,19.94
			c-0.56,2.3-0.05,3.66,1.82,4.82c0.76,0.48,1.49,1.07,2.1,1.73c3.55,3.87,7.06,5.37,12.73,3.2c7.1-2.72,15.83,1.42,20.34,7.99
			c4.75,6.93,4.89,15.86-0.12,22.57c-1.61,2.16-1.68,3.67-0.39,5.82c1.39,2.33,2.57,4.8,3.67,7.29c2.31,5.22,5.12,9.31,10.77,12.2
			c10.1,5.16,12.42,18.73,5.91,28c-6.63,9.45-19.81,11.47-28.76,4.09c-2.19-1.81-3.78-1.98-6.1-0.82c-2.08,1.04-4.33,1.71-6.48,2.62
			c-3.58,1.52-4.47,4.52-2.29,7.62c1.79,2.55,3.62,5.07,5.44,7.59c3,4.15,5.9,7.83,11.19,10.06c9.68,4.07,13.25,16.28,8.72,25.85
			c-4.57,9.65-15.68,13.94-25.59,9.65c-2.28-0.98-3.81-0.73-5.57,0.84c-2.33,2.06-4.81,3.95-7.28,5.86
			c-3.58,2.77-6.48,5.68-8.33,10.25c-4.22,10.44-17.34,14.38-27.27,8.98c-10.07-5.48-13.61-17.99-7.47-27.74
			c1.73-2.74,1.32-4.39-0.29-6.76c-6.03-8.91-11.92-17.93-17.73-26.98c-1.26-1.96-2.59-2.73-4.99-2.68
			c-8.01,0.17-13.92-3.54-17.53-10.64c-0.96-1.89-1.97-2.65-4.11-2.58C186.93,179.46,182,179.35,177.06,179.35z M289.12,195.78
			c-2.3-3.21-4.46-6.11-6.48-9.1c-1.1-1.63-2.15-1.93-4.19-1.43c-9.23,2.29-17.23-1.1-22.27-9.27c-0.97-1.57-1.75-2.06-3.66-1.56
			c-4,1.04-8.07,2-12.18,2.41c-4.99,0.5-9,2.01-10.5,7.25c-0.34,1.17-0.64,2.82-0.08,3.69c6.36,9.94,12.86,19.79,19.41,29.6
			c0.55,0.82,1.77,1.77,2.63,1.72c7.59-0.38,13.58,2.56,18.3,8.71c3.29-2.63,6.46-5.06,9.5-7.66c0.64-0.54,1.23-1.77,1.07-2.51
			C278.75,208.69,281.54,201.57,289.12,195.78z M219.31,69.14c7.75,7.77,15.42,15.48,23.16,23.14c0.69,0.68,1.73,1.14,2.69,1.41
			c5.24,1.44,9.18,4.48,12.16,9.04c0.65,0.99,2.53,1.9,3.67,1.72c5.61-0.88,11.18-2.08,16.73-3.34c0.89-0.2,2.07-1.2,2.25-2.02
			c0.87-3.87,1.6-7.77-3.12-10.11c-1.69-0.84-3.15-2.3-4.49-3.69c-1.52-1.57-2.87-1.47-4.8-0.65c-10.97,4.65-23.97-1.09-26.28-12.72
			c-1.27-6.4-4.17-8.5-9.74-9.11c-1.4-0.15-2.75-0.94-4.13-0.95c-1.09-0.01-2.48,0.43-3.22,1.18
			C222.48,64.78,221.11,66.83,219.31,69.14z M173.72,128.43c-1.77-2.78-3.22-5.35-5-7.68c-0.56-0.73-1.95-1.15-2.98-1.16
			c-8.03-0.09-16.06-0.1-24.09,0.01c-0.98,0.01-2.25,0.56-2.87,1.3c-2.86,3.39-5.54,6.94-8.68,10.93c2.17,5.37,4.67,11.59,7.2,17.81
			c1.42,3.5,5.13,4.57,8.23,2.28c2.08-1.54,4.01-3.28,6-4.94C158.96,140.76,166.39,134.55,173.72,128.43z M188.73,133.5
			c-10.94,9.11-21.63,18.02-32.08,26.71c1.15,4.96,4.01,6.22,8.55,5.95c7.1-0.41,14.24-0.11,21.36-0.11c7.92,0,7.96,0.03,12.04-6.5
			c0.51-0.82,0.73-2.27,0.36-3.12C195.7,148.87,192.27,141.38,188.73,133.5z M132.04,95.49c2.43,3.37,4.41,6.35,6.65,9.11
			c0.66,0.82,2.04,1.48,3.1,1.49c8.02,0.12,16.04,0.12,24.06,0c1.05-0.02,2.4-0.74,3.05-1.57c1.42-1.8,2.48-3.88,3.82-6.07
			c-6.24-4.01-12.52-8.08-18.85-12.07c-0.7-0.44-1.7-0.48-2.57-0.53c-3.31-0.18-6.62-0.33-9.93-0.38c-0.76-0.01-1.84,0.2-2.25,0.72
			C136.55,89.4,134.12,92.72,132.04,95.49z M229.54,130.72c-2.54-3.16-4.66-6.06-7.08-8.68c-1.05-1.13-2.64-1.96-4.14-2.42
			c-1.3-0.4-2.87,0.15-4.24-0.12c-5.86-1.18-9.82,1.12-12.13,6.45c-0.4,0.92-0.71,2.23-0.35,3.06c3.15,7.37,6.41,14.69,9.74,21.99
			c1.11,2.43,4.38,2.74,5.76,0.5C221.41,144.45,225.59,137.32,229.54,130.72z M164.64,77.25c6.58,4.21,13.29,8.5,20.17,12.9
			c4.08-6.82,7.9-13.23,11.49-19.23c-2.58-3.16-4.75-6.01-7.15-8.65c-0.57-0.62-1.96-0.9-2.87-0.74c-5.6,0.99-11.18,2.07-16.72,3.33
			c-0.91,0.21-2,1.34-2.29,2.28C166.25,70.31,165.56,73.58,164.64,77.25z M286.9,114.04c-1.23-0.27-1.74-0.54-2.19-0.45
			c-7.86,1.52-15.72,3.05-23.55,4.69c-0.88,0.18-1.88,0.87-2.37,1.63c-1.74,2.67-3.28,5.46-5.07,8.5
			c6.76,5.4,13.67,10.91,20.82,16.62C278.72,134.55,282.72,124.52,286.9,114.04z M197.64,94.93c1.9,2.16,4.09,3.66,4.85,5.69
			c2.23,5.92,6.74,6.06,11.79,5.57c1.67-0.16,3.39,0.15,5.04-0.1c0.96-0.14,2.07-0.77,2.67-1.53c1.94-2.49,3.68-5.15,5.16-7.25
			c-6.43-6.43-12.89-12.88-19.36-19.34C204.49,83.5,200.97,89.37,197.64,94.93z M241.97,136.26c-4.42,7.34-8.86,14.29-12.72,21.54
			c-0.64,1.2,1.06,3.85,2.08,5.6c0.39,0.67,1.99,1.1,2.91,0.93c6.09-1.11,12.16-2.36,18.2-3.7c0.84-0.19,1.76-0.94,2.25-1.68
			c1.77-2.66,3.37-5.44,5.17-8.39C254.13,145.99,248.2,141.25,241.97,136.26z M291.55,156.6c4.9-1.13,9.62-2.62,9.18-9.33
			c-0.04-0.58,0.35-1.27,0.71-1.78c2.6-3.6,5.25-7.17,8.26-11.27c-1.78-3.58-3.9-8.01-6.21-12.34c-0.53-0.99-1.86-2.41-2.51-2.27
			c-1.07,0.24-2.3,1.43-2.75,2.52c-3.04,7.28-5.58,14.78-8.91,21.91C287.07,148.87,286.32,152.89,291.55,156.6z M120.38,106.38
			c-3.51,0.1-6.24,2.99-6.21,6.57c0.03,3.61,2.8,6.42,6.34,6.44c3.67,0.02,6.52-2.99,6.4-6.76
			C126.81,109.13,123.83,106.28,120.38,106.38z M147.04,172.64c-0.03-3.3-3.2-6.47-6.5-6.5c-3.32-0.03-6.5,3.05-6.61,6.39
			c-0.11,3.43,3.25,6.8,6.69,6.7C143.96,179.14,147.06,175.95,147.04,172.64z M220.11,172.82c0.08-3.34-2.91-6.51-6.3-6.67
			c-3.27-0.15-6.53,2.86-6.74,6.21c-0.21,3.46,2.98,6.86,6.47,6.88C216.85,179.26,220.02,176.16,220.11,172.82z M240.15,119.39
			c3.32,0,6.49-3.1,6.56-6.41c0.07-3.48-3.24-6.73-6.74-6.61c-3.37,0.12-6.43,3.29-6.37,6.59
			C233.66,116.28,236.83,119.39,240.15,119.39z M253.47,232.64c-3.38-0.02-6.51,3-6.59,6.35c-0.08,3.32,2.95,6.48,6.34,6.59
			c3.55,0.12,6.81-3.03,6.77-6.53C259.95,235.68,256.88,232.66,253.47,232.64z M299.99,93.04c-3.34-0.06-6.44,2.99-6.51,6.39
			c-0.07,3.42,2.81,6.52,6.22,6.68c3.5,0.17,6.78-3.03,6.75-6.57C306.42,96.15,303.39,93.1,299.99,93.04z M300.05,206.02
			c-3.36-0.05-6.45,2.94-6.57,6.35c-0.12,3.55,3.03,6.77,6.57,6.7c3.42-0.06,6.38-3.1,6.38-6.53
			C306.43,209.14,303.43,206.08,300.05,206.02z M153.47,66.36c0-3.66-2.61-6.31-6.25-6.35c-3.68-0.04-6.39,2.54-6.48,6.16
			c-0.09,3.79,2.69,6.61,6.47,6.57C150.85,72.7,153.47,70.03,153.47,66.36z M193.45,112.74c-0.07-3.46-3.07-6.4-6.5-6.37
			c-3.43,0.03-6.4,3.01-6.43,6.45c-0.03,3.55,3.18,6.7,6.69,6.56C190.65,119.25,193.52,116.19,193.45,112.74z M259.99,72.74
			c3.65,0.04,6.36-2.56,6.44-6.19c0.08-3.68-2.46-6.42-6.07-6.54c-3.84-0.12-6.67,2.58-6.67,6.36
			C253.7,69.99,256.38,72.69,259.99,72.74z M207.09,46.72c-3.63-0.08-6.42,2.53-6.53,6.1c-0.11,3.62,2.49,6.49,6.04,6.64
			c3.76,0.16,6.71-2.61,6.74-6.33C213.37,49.53,210.71,46.8,207.09,46.72z M326.29,152.77c0.02-3.64-2.63-6.34-6.28-6.39
			c-3.63-0.04-6.42,2.6-6.49,6.17c-0.08,3.8,2.73,6.66,6.48,6.61C323.62,159.12,326.27,156.43,326.29,152.77z M279.75,165.85
			c-0.06-3.59-2.9-6.24-6.58-6.15c-3.65,0.09-6.29,2.87-6.21,6.54c0.08,3.61,2.91,6.26,6.59,6.18
			C277.18,172.34,279.82,169.54,279.75,165.85z"/>
	</g>
</g>
</svg>
