<svg xmlns="http://www.w3.org/2000/svg" width="121" height="140.833" viewBox="0 0 121 140.833">
    <defs>
        <style>
            .cls-1{fill:#fff}
        </style>
    </defs>
    <g id="ai" transform="translate(-8.475 -5.8)">
        <path id="Path_3174" d="M48.156 10a29.356 29.356 0 1 0 29.355 29.356C77.14 23.377 64.134 10 48.156 10zm0 53.137a23.782 23.782 0 1 1 23.781-23.781 23.948 23.948 0 0 1-23.781 23.781z" class="cls-1" data-name="Path 3174" transform="translate(28.042 11.407)"/>
        <path id="Path_3175" d="M44.971 15.506l-13.377 16.35-3.344-5.574a2.743 2.743 0 1 0-4.831 2.6l5.2 8.918c0 .372.372.372.372.743h.743a1.365 1.365 0 0 0 1.115.372 1.365 1.365 0 0 0 1.115-.372.364.364 0 0 0 .372-.372l.372-.372 15.979-19.321a2.838 2.838 0 0 0 .743-1.858 2.043 2.043 0 0 0-1.115-1.858 2.957 2.957 0 0 0-3.344.744z" class="cls-1" data-name="Path 3175" transform="translate(39.773 23.737)"/>
        <path id="Path_3176" d="M114.842 21.778A52.779 52.779 0 0 0 76.569 5.8a55.477 55.477 0 0 0-38.646 15.607A53.4 53.4 0 0 0 21.945 59.68a24.136 24.136 0 0 1-2.973 11.52L9.311 89.036a7.87 7.87 0 0 0 0 7.06 7.193 7.193 0 0 0 6.317 3.716h5.945v16.35a13.322 13.322 0 0 0 13.377 13.377h12.263v10.776a6.263 6.263 0 0 0 6.317 6.317h53.137a6.263 6.263 0 0 0 6.317-6.317v-13.748a95.407 95.407 0 0 1 10.4-42.733 53.954 53.954 0 0 0 5.945-24.153c1.12-14.121-4.454-27.87-14.487-37.903zM108.9 126.567v13.749a.985.985 0 0 1-1.115 1.115H54.273a.985.985 0 0 1-1.115-1.115v-13.378a2.54 2.54 0 0 0-2.6-2.6H35.694a8.248 8.248 0 0 1-8.175-8.175V97.211a2.54 2.54 0 0 0-2.6-2.6h-8.548c-.743 0-1.486-.372-1.486-1.115a1.688 1.688 0 0 1 0-1.858L24.546 73.8a31.993 31.993 0 0 0 3.716-14.12A48.845 48.845 0 0 1 76.94 11V9.144l.372 1.486a48.665 48.665 0 0 1 34.558 14.493 46.488 46.488 0 0 1 13.749 34.557 47.3 47.3 0 0 1-5.2 21.552 93.457 93.457 0 0 0-11.519 45.335z" class="cls-1" data-name="Path 3176"/>
    </g>
</svg>
