<svg xmlns="http://www.w3.org/2000/svg" width="111.363" height="110.993" viewBox="0 0 111.363 110.993">
  <g id="Group_686" data-name="Group 686" transform="translate(-0.447 -0.381)">
    <g id="Group_678" data-name="Group 678" transform="translate(0.947 0.881)">
      <g id="累積放款金額-01" transform="translate(8.821 21.35)">
        <path id="路径_342" data-name="路径 342" d="M12.691,72.047A46.81,46.81,0,0,1,9.928,55.929,47.39,47.39,0,0,1,23.437,22.617" transform="translate(-9.927 -22.617)" fill="none" stroke="#2664a5" stroke-linecap="round" stroke-linejoin="round" stroke-width="1"/>
        <path id="路径_343" data-name="路径 343" d="M103.906,56.531A48.77,48.77,0,0,1,101.3,72.345a46.519,46.519,0,0,1-20.57,25.173" transform="translate(-11.184 -23.219)" fill="none" stroke="#2664a5" stroke-linecap="round" stroke-linejoin="round" stroke-width="1"/>
      </g>
      <path id="Path_1323" data-name="Path 1323" d="M49.22,110.816A55.188,55.188,0,1,1,91.229,98.643" transform="translate(-0.947 -0.881)" fill="none" stroke="#2664a5" stroke-linecap="round" stroke-linejoin="round" stroke-width="1"/>
    </g>
    <path id="Path_1324" data-name="Path 1324" d="M81.952,79.283a5.865,5.865,0,0,1,0-2.951,2.462,2.462,0,0,0,.016-4.888,6.344,6.344,0,0,0,2.172-4.7,6.448,6.448,0,0,0-3.711-5.859,2.49,2.49,0,0,0-2.186-3.872,5.869,5.869,0,0,1,0-2.92c3.251.17,3.465-4.92.174-4.92H72.468L70.14,41.332,81.3,38.4a2,2,0,0,0,0-3.836l-21.65-5.686a11.9,11.9,0,0,0-6.04,0l-8.05,2.115a.816.816,0,0,0,.415,1.577l8.05-2.114a10.272,10.272,0,0,1,5.211,0l21.65,5.686a.351.351,0,0,1,0,.679L64.222,41.2l-5.244-4.755V34.555a2.429,2.429,0,0,0-4.857,0v2.319a.815.815,0,0,0,.388.694,3.819,3.819,0,0,0,3.573.265l4.257,3.859-3.1.815a10.272,10.272,0,0,1-5.211,0l-21.65-5.686a.351.351,0,0,1,0-.679l9.47-2.488a.816.816,0,0,0-.415-1.577l-9.47,2.487a2,2,0,0,0,0,3.836l11.158,2.931L40.79,49.169H38.824A6.379,6.379,0,0,0,34.5,60.3H31.579a2.46,2.46,0,0,0-.272,4.9,5.869,5.869,0,0,1,0,2.952,2.462,2.462,0,0,0-.017,4.888A6.367,6.367,0,0,0,35.5,84.188h46.18a2.461,2.461,0,0,0,.273-4.905ZM57.347,36.372a2.159,2.159,0,0,1-1.594,0V34.555a.8.8,0,0,1,1.594,0ZM77.76,65.218a1.461,1.461,0,0,1,0,2.921H43.593V65.218Zm-35.8,9.819-2.249,1.181v-11h2.249Zm-3.881-6.9h-5.1a7.5,7.5,0,0,0,0-2.921h5.1Zm.394,10.126a.816.816,0,0,0,.8.025l3.7-1.943h37.3a7.5,7.5,0,0,0,0,2.921H35.5a1.461,1.461,0,0,1,0-2.921h2.582v1.221a.815.815,0,0,0,.394.7ZM76.569,57.009H38.763a1.46,1.46,0,1,1,0-2.92h22.1c-.02.581-.017,1.433.8,1.433h4.7c.823,0,.823-.852.8-1.433h9.4a7.511,7.511,0,0,0,0,2.92ZM64.014,48.436c.719,0,1.4,2.551,1.516,5.454H62.5c.112-2.9.8-5.454,1.516-5.454Zm15.23,3.192a.829.829,0,0,1-.828.828H67.057c-.053-.554-.125-1.108-.224-1.656H78.416a.829.829,0,0,1,.828.828Zm-8.478-2.46H66.426a3.471,3.471,0,0,0-1.6-2.187V42.727l3.731-.98ZM44.7,41.746l8.913,2.341a11.939,11.939,0,0,0,6.04,0l3.549-.932v3.827a3.471,3.471,0,0,0-1.6,2.187H42.492ZM35.391,58.889A4.713,4.713,0,0,1,34.014,55.5a4.794,4.794,0,0,1,4.809-4.7H61.2c-.1.549-.171,1.1-.224,1.657H38.763a3.092,3.092,0,0,0,0,6.184H78.416a.829.829,0,0,1,0,1.656H38.763A4.713,4.713,0,0,1,35.391,58.889Zm-4.64,3.869a.83.83,0,0,1,.828-.829H77.76a4.749,4.749,0,1,1-.062,9.5h-4.28a.817.817,0,0,0,0,1.632H81.68a.828.828,0,0,1,0,1.656H43.593V73.058H69.119a.816.816,0,0,0,0-1.632H43.593V69.771H77.76a3.092,3.092,0,0,0,0-6.184H31.579a.829.829,0,0,1-.828-.828Zm.828,8.668a.828.828,0,0,1,0-1.656h6.5v1.656Zm50.1,11.129H35.5a4.754,4.754,0,0,1-4.748-4.8,4.794,4.794,0,0,1,4.81-4.7h2.52v1.656H35.5a3.092,3.092,0,0,0,0,6.184h46.18a.828.828,0,0,1,0,1.656Z" transform="translate(-0.5 -0.49)" fill="#195ca0"/>
  </g>
</svg>
