<svg xmlns="http://www.w3.org/2000/svg" width="111.467" height="111.039" viewBox="0 0 111.467 111.039">
  <g id="全台學生貸市佔率-01" transform="translate(-0.269 -0.419)">
    <g id="累積放款金額-01" transform="translate(9.638 22.318)">
      <path id="路径_342" d="M9.289,64.2A46.913,46.913,0,0,1,6.52,48.087a47.452,47.452,0,0,1,13.5-33.317" transform="translate(-6.52 -14.77)" fill="none" stroke="#195ca0" stroke-linecap="round" stroke-linejoin="round" stroke-width="1"/>
      <path id="路径_343" d="M74.666,36.31a48.614,48.614,0,0,1-2.614,15.808A46.407,46.407,0,0,1,51.48,77.283" transform="translate(18.062 -2.993)" fill="none" stroke="#195ca0" stroke-linecap="round" stroke-linejoin="round" stroke-width="1"/>
    </g>
    <path id="路径_1322" d="M49.1,110.9A55.155,55.155,0,1,1,91.106,98.742" transform="translate(0 0)" fill="none" stroke="#195ca0" stroke-linecap="round" stroke-linejoin="round" stroke-width="1"/>
    <g id="组_283" transform="translate(27.144 11.752)">
      <path id="路径_267" d="M23.353,77.42l.17-.046a.753.753,0,0,1-.186-.387,1.12,1.12,0,0,1-.356-.557c-.093-.4-.031-.51.356-.8l.015-.371.062.046.031.2.093.031.062-.077-.062-.093.093-.077-.046-.077.046-.093a.483.483,0,0,1-.17-.309l-.062-.046-.077.062.077.217-.093.124a7.006,7.006,0,0,0-.8-1.593c-.2-.4-.371-.8-.572-1.206-.108-.217-.247-.418-.356-.634-.077-.17-.124-.356-.2-.526-.015-.031-.062-.062-.077-.093a6.012,6.012,0,0,0-.572-1.485l.031-.139-.093-.186c.124-.186-.031-.464-.093-.65a2.572,2.572,0,0,0-.882-1.284,1.416,1.416,0,0,0-.495-.278l-.093-.217c-.062.015-.124.015-.17.031-.309-.155-.51-.4-.789-.572-.015-.015-.479-.217-.51-.232-.17-.062-.371-.031-.51-.155l.2-.217a3.315,3.315,0,0,0,1.1-.418h.031c.093-.387-.124.155-.974.186l.031-.4c0-.093-.031-.186-.031-.263.015-.186.2-.371.155-.557l.139-.108.34-.046.2.077.015-.247a.619.619,0,0,1-.278-.155c0-.077-.031-.278-.124-.325h-.108a2.12,2.12,0,0,1-.015-.7l.418-.031.062-.046a.627.627,0,0,0-.217-.464c.232-.139.124-.541.278-.758a6.37,6.37,0,0,1,.882-.124l-.186-.108-.619.031-.124-.093a1.827,1.827,0,0,1,.17-.418l.093-.015.186-.155-.093-.155.062-.155.139-.093.077-.155.232-.108.015-.062-.093-.17.015-.077.077-.046a.523.523,0,0,1-.2-.278l.046-.155.139-.046.093-.2.062-.031.186.077.062-.015.294.124h.108a3.765,3.765,0,0,1-.7-.619l-.015-.108a1.907,1.907,0,0,0,.371-1.191l.077-.046.062.046-.108.619.247-.031.124.015.062-.031a.313.313,0,0,1,.062-.232l-.015-.046.155-.387-.124-.34H20l-.077-.046-.031-.124.046-.077-.031-.108.139-.2L19.9,56.09l-.108-.155.186-.294a.311.311,0,0,0,.2-.062h.077l.062-.139-.217-.077-.046.031-.232.015-.093-.093a.335.335,0,0,0,0-.34l.139-.124.093-.34.356-.031.046-.031c-.309-.031-.634-.356-.588-.6l.634-.077-.139-.108-.387.015-.031-.077.124-.17-.139-.108v-.108l.2.015.077-.17-.17.031a.612.612,0,0,0-.294-.108l-.062-.124a3.318,3.318,0,0,0-.108-1.5l-.108.124-.062-.046c.51-.8.541-1.794,1.392-2.428l.124-.015c.062.046.031.2.031.263l.17-.124.124.155.186.046.155.124c.015-.108-.387-.433-.464-.526-.062-.17.077-.294.108-.449.015-.077-.015-.17,0-.247.031-.17.124-.588.34-.711l-.015-.077-.17.031-.062-.031c.17-.263.619-.866.974-.944l-.093-.062c0-.093.449-.464.526-.557h.093a8.584,8.584,0,0,0,.758-.742l-.046-.093c.077-.495.495-.464.619-.711l.093-.278c.077-.108.2-.217.278-.325.108-.186.186-.387.294-.572a.516.516,0,0,1,.17-.2l.108-.062c.124-.232.217-.464.356-.681.17-.278.541-.665.51-.99h.139c.031-.387.371-.495.541-.835l.155-.015.108-.217a1.326,1.326,0,0,0,.6-.309l.139.046a1.712,1.712,0,0,1,.572-.789c.093-.062.263-.077.34-.17,0-.077.015-.232.093-.278L28.55,38.6l-.139.046c-.046-.124.155-.557.2-.681l-.062-.108.356-.418-.015-.062a10.2,10.2,0,0,1,1.253-1.083h.263l.247.17h.155c.077.015.186.247.217.294H31.1c-.139-.51-.387-.634-.974-.758l-.031-.062.371-.526c.015-.015.124-.077.139-.093a4.5,4.5,0,0,0,.263-.464,2.26,2.26,0,0,0,.34-.51c-.031-.062-.046-.124-.077-.2l.155-.387.17.062a.641.641,0,0,1,.294-.278,1.341,1.341,0,0,1,.418-1.129.677.677,0,0,1,.124-.387c.278-.062.6-.572.526-.789a.732.732,0,0,0,.247-.387.982.982,0,0,1,.418-.062.361.361,0,0,1,.031-.495l.155-.015a.575.575,0,0,0,.232-.4l.093-.015.124-.124.108-.015c.186-.325.464-.371.681-.588.031-.031.155-.309.2-.356.108-.124.263-.247.371-.371.015-.015.124-.4.139-.449.077-.17.217-.34.278-.51s.046-.371.108-.541a7.869,7.869,0,0,1,.464-.773c.015-.031.031-.155.046-.2A3.682,3.682,0,0,1,37,25.31c.062-.062.263-.031.34-.046.17-.015.356-.093.526-.093.155,0,.371.077.526.015l-.247-.17-.062-.17H38l-.031-.108.217-.371a.691.691,0,0,0,.541-.418,3.375,3.375,0,0,1,1.423-.17c.015,0,.387.155.418.17l.572-.015.077-.108a1.656,1.656,0,0,0-.619-.062l-.093-.124-.155.031-.093-.093-.124.015a6.3,6.3,0,0,1,.758-.665c.2-.17.077-.541.294-.742a2.211,2.211,0,0,1,.309-.217.872.872,0,0,1,.186-.062l.108.062a.575.575,0,0,1,.34-.155c.015-.015.077-.077.077-.093.062-.139.108-.309.17-.449.015-.015.093-.077.093-.093.031-.124.155-.773.263-.82l.108-.031a1.272,1.272,0,0,1-.093-.588l-.093-.046-.031-.093a.974.974,0,0,1,.309-.4l.108-.015.139.077h.17a.19.19,0,0,0-.015-.2l.17-.031.093-.108-.124-.186c.124-.17.093-.356.186-.541.046-.093.124-.2.186-.309,0,0,.278-.217.294-.217l.232.015.077-.046c-.046-.062-.263-.108-.325-.124a1.02,1.02,0,0,1,.65-.681l-.062-.108.062-.077a2.438,2.438,0,0,0,.371-.232c.031-.015.077-.124.108-.155a1.931,1.931,0,0,0,.186-.139c.108-.186.2-.371.294-.557L45.7,15.5c.077-.155-.062-.294.062-.449a3.964,3.964,0,0,1,.7-.742,5.669,5.669,0,0,1,.82-.34c.217-.108.4-.278.619-.387.17-.093.4-.124.588-.217a.328.328,0,0,1,.108-.046c.124-.031.294-.015.433-.046.232-.062.464-.124.7-.2.124-.046.263-.17.4-.17l.062.046c.031-.031.387-.278.4-.294.186-.077.449-.108.634-.186.093-.031.17-.093.263-.124a8.018,8.018,0,0,1,.866-.263,2.2,2.2,0,0,1,1.005.046h.294l.232-.17c.371-.108.851.046,1.222-.062a3.423,3.423,0,0,0,.541-.247c.2-.077.418-.108.619-.186.278-.108,1.129-.65,1.114-.9l-.294-.186.34-.217.139-.263c.108-.217.247-.217.387-.371.015-.015.2-.356.217-.371s-.015-.108-.015-.124a2.817,2.817,0,0,1,.232-.418l.325.077a.725.725,0,0,0,.418-.526c.155-.062,1.021-.371,1.036-.495l.263.093a1.228,1.228,0,0,0,.418-.155l-.015-.077.046-.077c.062-.046.418.093.495.124l.124-.046.217.031.294-.139.17.015.17.124a1.553,1.553,0,0,1,.371.062c.2.263.356.2.51.294.572.34.588.634.742,1.145l.124.093.247-.046.062.062-.062.2.263.356a1.377,1.377,0,0,0,.557.17l.108-.139h.17a.837.837,0,0,1,.34-.232l.031.062-.263.263.046.108-.2.232c0,.155.51.356.665.418l.031.217.062.046.294-.046.263.186L66.817,11l.108.077.247.031-.046.186.124.124-.031.046-.124.046-.139-.062-.031.309a1.1,1.1,0,0,1,.557-.263A.511.511,0,0,1,67.7,11.2l-.124-.031v-.031l.17-.139.17.015.046.062-.046.093c.278.015.433.325.588.34l.062-.015.093-.093.155.015a.4.4,0,0,0,.186.263h.325l.093.278.217.015c.155-.34.8-.217,1.036,0a1.212,1.212,0,0,1,.8.077l.665-.062.108-.093.093.015-.015.124-.139.124.062.077h.17a.368.368,0,0,1-.108.325c.077.139-.093.34-.077.433a.973.973,0,0,0,.4.588l-.046.124c.124.247.046.727.4.851l-.124.108.139.046a2.314,2.314,0,0,1,.449-.093c.356-.062.479-.17.82.031l.124.2.077-.015.124-.077.232.124.031.108c-.031.108-.232.17-.356.17a3.4,3.4,0,0,1-.356.309c-.015.015-.124.031-.155.046a3.311,3.311,0,0,0-.294.2,1.632,1.632,0,0,1-.371.093c-.557.139-.882.263-1.067.712-.217.046-.278.2-.433.278-.371.186-.34-.062-.526.387a.428.428,0,0,0-.046.2,2.764,2.764,0,0,1-.634.572l-.278.186c-.031.031-.155.247-.186.294-.093.108-.2.2-.294.309a6.142,6.142,0,0,0-.572,2.583,3.5,3.5,0,0,0,.371,1.114c0,.031.015.077.015.108l-.232.046.046.046.217.046.062.062-.031.124c.015.015.093.139.093.139.046.356.093.711.155,1.052a2.862,2.862,0,0,0,.758,1.237,1.42,1.42,0,0,0,.495.155l.031.046-.015.062-.588-.077-.108.155a.384.384,0,0,0,.2.4l.093-.062.108.015.046.093-.108.077c-.155.217.17,1.129-.031,1.237a2.786,2.786,0,0,0-.851.232c-.139.093-.124.387-.077.51a.761.761,0,0,1,.356.433l.2.031.031.062-.062.046a2.012,2.012,0,0,0-1.036.479c-.046.4-.479.526-.6.742a2.889,2.889,0,0,0-.309.789c-.031.155-.015.325-.046.479a3.059,3.059,0,0,1-.278.742l-.217.418v.139l.015.294c0,.093-.108.232-.046.309a.832.832,0,0,1-.155.309c-.108.077-.479.325-.495.433a3.416,3.416,0,0,1-.124.572c-.015.046-.062.062-.093.093-.2.186-.325.356-.681.34-.124.046-.294.356-.34.449-.124.062-.758.356-.789.387a2.827,2.827,0,0,0-.727.974c.356.634.309.619.062,1.3-.062.17-.789.557-.959.742l-.2.294a.731.731,0,0,0-.155.309l.015.247a.9.9,0,0,0,.062.278,2.179,2.179,0,0,0,.789.928.528.528,0,0,1,.077.479h-.139l-.108.17a1.292,1.292,0,0,0-.9,1.237l.124.139-.031.046.062.046a4.788,4.788,0,0,0-.232,1.268c-.062.247-.093.51-.17.773a5.949,5.949,0,0,1-.325.619c-.062.139-.093.294-.139.433s-.263.247-.278.418a5.241,5.241,0,0,0-.031.7c0,.124.077.263.077.4a1.468,1.468,0,0,1-.139.325,2.576,2.576,0,0,1-.278.433c-.263.325-.4.464-.186.835a3.092,3.092,0,0,0-.155.325c-.062.263-.077.541-.155.789a1.751,1.751,0,0,1-.155.2,2.838,2.838,0,0,0-.186.711c-.031.186.015.387-.015.572,0,.015-.232.773-.247.82a3.888,3.888,0,0,0-.309.449,4.042,4.042,0,0,0-.093.418c-.031.077-.124.17-.155.247a1.2,1.2,0,0,0,.031.526.34.34,0,0,0,.247.309v.108l.093.077a1.342,1.342,0,0,0-.557,1.067,1.194,1.194,0,0,1-.031.232,3.509,3.509,0,0,1-.294.526,1.015,1.015,0,0,1-.356.665,6.813,6.813,0,0,1-.046.8c-.015.093-.108.2-.124.294,0,.031.046.155.046.186a4.708,4.708,0,0,1-.217.6c0,.015-.062.062-.062.077l-.186.015a3.791,3.791,0,0,0-.7.711,3.611,3.611,0,0,1-.108.387c-.015.031-.139.139-.155.17-.062.247-.108.479-.155.727l.108.186c.046.17-.433.387-.541.479-.278.232,0,.882.17,1.114l-.232.541a.3.3,0,0,1,.031.232l.108.247.108.031.046.062-.263.2-.2-.062a1.664,1.664,0,0,1-.371.495l-.387-.015c-.139.077-.464.294-.495.433l.062.124c-.356.217-.217.247-.278.526a4.91,4.91,0,0,1-.217.619c-.031.093-.139.17-.17.294l-.139.077-.031.124c-.232.077-.139.433-.186.526a2.972,2.972,0,0,1-.773.944l-.217.031c-.309.263-.387.789-.588,1.114a6.158,6.158,0,0,1-.634.789s-.278.124-.309.139c-.015.062-.062.232-.155.263a1.414,1.414,0,0,0-.9.217L50.823,71a.81.81,0,0,0-.155.418c.046.309.4.82.2,1.129l-.124.015a1.694,1.694,0,0,0-.17.155,1.284,1.284,0,0,0-.093.325,2.865,2.865,0,0,1-.325.51.463.463,0,0,0-.155.062,12.231,12.231,0,0,1-.974.8,6.357,6.357,0,0,1-.65.325c-.186.093-.464.124-.665.2-.263.108-.464.356-.711.479l-.464.232-.217.108a.776.776,0,0,0-.124.093l-.2.155a3.4,3.4,0,0,0-.294.464c-.217.433-.124,1.222-.433,1.5-.17.17-.433.294-.6.464-.015.015-.247.371-.247.387-.124.278-.217.572-.325.851-.093.217-.217.449-.294.681a8.15,8.15,0,0,0-.217.882l-.046.031c-.139.325-.263.665-.433.974-.046.093-.17.186-.217.278l-.572,1.315c-.015.031-.139.139-.155.17a5,5,0,0,0-.2.51,6.969,6.969,0,0,0,.155,2.645L42.1,87.2c-.015.031-.108.247-.108.263a2.308,2.308,0,0,0,.031.325c0,.139-.124.294-.108.418a2.466,2.466,0,0,0,.093.464l-.124.263a.711.711,0,0,1,.062.433l.093.031.031.046c-.773.479.046.866.062,1.1-.015.031-.263.464-.263.464a2.367,2.367,0,0,0,.124.928c.031.077.17.217.139.294-.186.077-.433.34-.433.51l-.186.046-.046.093L41.5,93c-.093.294-.9.387-.944.449a1.593,1.593,0,0,1-.093.541c-.139.541.186.82.526,1.253l-.015.2.108.186-.015.077a.576.576,0,0,1-.278.031l-.108-.062-.17-.4-.217-.015a2.136,2.136,0,0,0-.479-.433l-.278-.031-.217-.17-.062.108-.046.046-.093-.155a.811.811,0,0,0-.464-.093l-.541-.325-.093.015-.4.325c-.046.2-.124.711-.449.742l-.155-.046c-.093-.093-.186-.2-.294-.294h-.139c-.139-.294.155-.758.093-1.129-.077-.418-.433-.51-.619-.758l-.124-.263c-.17-.356-.139-.464.247-.712a.346.346,0,0,1-.015-.325c.4-.108.325-.526.124-.742l.093-.124c.093-.015.325-.108.356-.186-.062-.17-.232-.913-.464-.974a.907.907,0,0,1-.062-.356l.015-.108a5.307,5.307,0,0,1-.51-1.64c-.2-.155-.217-.418-.387-.588-.015-.015-.449-.309-.479-.34a.912.912,0,0,0-.062-.124v-.015c-.015-.2-.093-.789-.278-.913V85.37a4.7,4.7,0,0,0-.681-.789c-.155-.093-.371-.077-.51-.294-.108-.155-.108-.356-.232-.526a2.21,2.21,0,0,0-.541-.464,3.646,3.646,0,0,0-.433-.186c-.155-.077-.294-.186-.464-.263-.2-.093-.418-.17-.619-.263-.325-.139-.65-.325-.99-.464a2.242,2.242,0,0,1-.974-.495c.139-.046.681.232.8.294l.108-.015.062-.093c0-.124-.418-.356-.541-.4l-.2.046-.124-.031-.186.124-.124-.031a1.019,1.019,0,0,1-.325-.356l.139-.062.046-.124-.139.031a1.151,1.151,0,0,1-.186-.449l-.077.124-.108-.015-.062-.217-.124.015a1.644,1.644,0,0,1-.17-.139l.046.278-.062.108c-.108-.015-.356-.433-.418-.541l-.232-.077-.015.031.077.371.4.217.062.108-.062.046a12.289,12.289,0,0,1-1.346-.773l-.2.062a.263.263,0,0,1-.031-.217.958.958,0,0,0-.217-.217c-.2-.124-.4-.247-.588-.387-.232-.2-.449-.449-.665-.665-.046-.046-.124-.077-.17-.124C24.173,78.255,23.8,77.605,23.353,77.42Z" transform="translate(-17.12 -7.43)" fill="none" stroke="#195ca0" stroke-linecap="round" stroke-linejoin="round" stroke-width="1"/>
    </g>
    <g id="Group_687" data-name="Group 687" transform="translate(38.237 46.113)">
      <path id="Path_1509" data-name="Path 1509" d="M37.24,33.91h5.151V47.4H37.24V33.91Z" transform="translate(-18.322 -28.101)" fill="none" stroke="#195ca0" stroke-linecap="round" stroke-linejoin="round" stroke-width="1"/>
      <path id="Path_1510" data-name="Path 1510" d="M39.8,37.742s-5.707-1.964-5.707-7.579c0,0-3.573-.371-3.264,3.728.309,4.114.727,4.114.727,4.114H26.48a1.5,1.5,0,0,0,0,3h-.247a1.474,1.474,0,0,0,.139,2.923c-.294,0-1.361.077-1.361,1.531,0,1.686,1.454,1.5,1.454,1.5H27.81a1.194,1.194,0,0,0-.882.387,1.17,1.17,0,0,0-.294.913,1.406,1.406,0,0,0,.387,1.083,1.461,1.461,0,0,0,1.067.449h6.9l4.795-1.33H43.8v-10.7L39.8,37.742" transform="translate(-25.009 -30.154)" fill="none" stroke="#195ca0" stroke-linecap="round" stroke-linejoin="round" stroke-width="1"/>
    </g>
    <g id="Group_688" data-name="Group 688" transform="translate(50.875 36.022)">
      <path id="Path_1511" data-name="Path 1511" d="M39.351,35.973A6.171,6.171,0,1,1,45.523,29.8,6.169,6.169,0,0,1,39.351,35.973Zm0-11.786A5.615,5.615,0,1,0,44.966,29.8,5.624,5.624,0,0,0,39.351,24.187Z" transform="translate(-33.18 -23.63)" fill="#195ca0"/>
      <path id="Path_1512" data-name="Path 1512" d="M37.8,29.068A1.794,1.794,0,1,1,39.6,27.274a.278.278,0,0,1-.557,0A1.222,1.222,0,1,0,37.82,28.5a.277.277,0,0,1,.278.278A.3.3,0,0,1,37.8,29.068Z" transform="translate(-31.633 -22.619)" fill="#195ca0"/>
      <path id="Path_1513" data-name="Path 1513" d="M37.8,31.013a1.8,1.8,0,0,1-1.794-1.794.278.278,0,1,1,.557,0A1.222,1.222,0,1,0,37.789,28a.278.278,0,0,1,0-.557,1.8,1.8,0,0,1,1.794,1.794A1.769,1.769,0,0,1,37.8,31.013Z" transform="translate(-31.633 -21.547)" fill="#195ca0"/>
      <path id="Path_1514" data-name="Path 1514" d="M37.268,32.937a.277.277,0,0,1-.278-.278v-7.3a.278.278,0,1,1,.557,0v7.3A.268.268,0,0,1,37.268,32.937Z" transform="translate(-31.097 -22.837)" fill="#195ca0"/>
    </g>
  </g>
</svg>
