<svg xmlns="http://www.w3.org/2000/svg" width="112.638" height="112.204" viewBox="0 0 112.638 112.204">
  <g id="金融帳號-01" transform="translate(-0.269 -0.419)">
    <g id="累積放款金額-01" transform="translate(9.732 22.544)">
      <path id="路径_342" d="M9.318,64.728A47.411,47.411,0,0,1,6.52,48.44,47.955,47.955,0,0,1,20.166,14.77" transform="translate(-6.52 -14.77)" fill="none" stroke="#2867a6" stroke-linecap="round" stroke-linejoin="round" stroke-width="1"/>
      <path id="路径_343" d="M74.911,36.31A49.129,49.129,0,0,1,72.27,52.285,46.9,46.9,0,0,1,51.48,77.717" transform="translate(18.799 -2.64)" fill="none" stroke="#2867a6" stroke-linecap="round" stroke-linejoin="round" stroke-width="1"/>
    </g>
    <path id="路径_1322" d="M49.608,112.064A55.739,55.739,0,1,1,92.063,99.778" transform="translate(0 0)" fill="none" stroke="#2867a6" stroke-linecap="round" stroke-linejoin="round" stroke-width="1"/>
    <g id="Group_684" data-name="Group 684" transform="translate(22.332 27.702)">
      <g id="Group_683" data-name="Group 683" transform="translate(0 0)">
        <g id="Group_682" data-name="Group 682">
          <path id="Path_1500" data-name="Path 1500" d="M37.361,46.438H55.634A1.075,1.075,0,0,0,56.775,45.3V35.011a1.075,1.075,0,0,0-1.141-1.141H37.361a1.075,1.075,0,0,0-1.141,1.141V45.3A1.083,1.083,0,0,0,37.361,46.438ZM38.5,36.152H54.493V44.14H38.5Z" transform="translate(-0.831 -7.609)" fill="#2867a6"/>
          <path id="Path_1501" data-name="Path 1501" d="M17.641,33.232H26.77a1.141,1.141,0,1,0,0-2.282H17.641a1.141,1.141,0,1,0,0,2.282Z" transform="translate(-11.936 -9.254)" fill="#2867a6"/>
          <path id="Path_1502" data-name="Path 1502" d="M26.411,33.232H35.54a1.141,1.141,0,1,0,0-2.282H26.411a1.141,1.141,0,1,0,0,2.282Z" transform="translate(-6.997 -9.254)" fill="#2867a6"/>
          <path id="Path_1503" data-name="Path 1503" d="M17.641,36.152h14.85a1.141,1.141,0,0,0,0-2.282H17.641a1.141,1.141,0,0,0,0,2.282Z" transform="translate(-11.936 -7.609)" fill="#2867a6"/>
          <path id="Path_1504" data-name="Path 1504" d="M33.484,33.87H30.061a1.141,1.141,0,1,0,0,2.282h3.423a1.141,1.141,0,0,0,0-2.282Z" transform="translate(-4.942 -7.609)" fill="#2867a6"/>
          <path id="Path_1505" data-name="Path 1505" d="M81.06,29.169a4.284,4.284,0,0,0-3.079-1.719l-2.735-.328V21.634a4.58,4.58,0,0,0-4.564-4.564H18.144a4.58,4.58,0,0,0-4.564,4.564v36.53a4.591,4.591,0,0,0,3.267,4.377,4.444,4.444,0,0,0,4.033,4.533l52.756,5.94h.453a4.569,4.569,0,0,0,4.564-3.877l3.423-36.655A4.347,4.347,0,0,0,81.06,29.169Zm-65.2-4.111h57.1V31.9h-57.1Zm2.282-5.705H70.681a2.3,2.3,0,0,1,2.282,2.282v1.141h-57.1V21.634A2.285,2.285,0,0,1,18.144,19.352ZM15.862,58.18V34.2h57.1V58.18a2.3,2.3,0,0,1-2.282,2.282H18.144A2.285,2.285,0,0,1,15.862,58.18ZM79.81,32.029,76.386,68.684a2.312,2.312,0,0,1-2.517,2.063l-52.646-5.94a2.327,2.327,0,0,1-2.063-2.063H70.665A4.58,4.58,0,0,0,75.23,58.18V29.294l2.626.234a1.951,1.951,0,0,1,1.485.8A2.236,2.236,0,0,1,79.81,32.029Z" transform="translate(-13.58 -17.07)" fill="#2867a6"/>
        </g>
      </g>
    </g>
  </g>
</svg>
