<svg xmlns="http://www.w3.org/2000/svg" width="21" height="20.993" viewBox="0 0 21 20.993">
  <g id="Group_401" data-name="Group 401" transform="translate(-175.017 710.573)">
    <path id="Path_257" data-name="Path 257" d="M185.519-710.573H194.8a1.129,1.129,0,0,1,1.213,1.219q0,9.275.007,18.551a1.2,1.2,0,0,1-1.223,1.223c-1.684-.021-3.369-.007-5.054-.007-.206,0-.207,0-.207-.2q0-3.847,0-7.694c0-.2,0-.2.2-.2.783,0,1.567,0,2.35,0,.133,0,.183-.037.2-.178q.175-1.439.373-2.875c.019-.141-.02-.179-.156-.179-.927,0-1.854,0-2.78.005-.145,0-.2-.037-.193-.188.011-.706,0-1.413.021-2.119a1.573,1.573,0,0,1,.13-.562,1.1,1.1,0,0,1,1.077-.63c.6-.028,1.208-.019,1.812-.025.22,0,.221,0,.221-.22q0-1.221,0-2.442c0-.223,0-.233-.229-.243-.843-.036-1.687-.1-2.53-.087a3.756,3.756,0,0,0-2.75,1.139,3.671,3.671,0,0,0-1,2.132,15.267,15.267,0,0,0-.075,1.576c-.011.5-.008.993,0,1.489,0,.146-.047.18-.184.179-.789-.006-1.577,0-2.366-.006-.154,0-.2.043-.2.2q.009,1.42,0,2.841c0,.146.043.2.192.194.783-.006,1.567,0,2.35,0,.2,0,.205,0,.205.2q0,3.854,0,7.709c0,.145-.036.192-.187.192q-4.931-.006-9.862,0a1.121,1.121,0,0,1-1.144-1.149q0-9.344,0-18.689a1.121,1.121,0,0,1,1.146-1.147Z" transform="translate(0 0)" fill="#fff"/>
  </g>
</svg>
