<svg xmlns="http://www.w3.org/2000/svg" width="20.948" height="20.993" viewBox="0 0 20.948 20.993">
  <g id="Group_403" data-name="Group 403" transform="translate(-1288.388 813.026)">
    <path id="Path_261" data-name="Path 261" d="M1298.875-813.025q3.928,0,7.857,0a2.49,2.49,0,0,1,2.519,1.9,3,3,0,0,1,.081.71q.007,7.873,0,15.745a2.51,2.51,0,0,1-2.615,2.629q-7.857.005-15.713,0a2.51,2.51,0,0,1-2.616-2.628q0-7.859,0-15.717a2.512,2.512,0,0,1,2.63-2.643Q1294.947-813.029,1298.875-813.025Zm-.012,19.99h7.8a1.521,1.521,0,0,0,1.674-1.679q0-7.818,0-15.636a1.52,1.52,0,0,0-1.677-1.675h-15.6a1.52,1.52,0,0,0-1.673,1.678q0,7.818,0,15.636a1.52,1.52,0,0,0,1.676,1.676Z" transform="translate(0)" fill="#fff"/>
    <path id="Path_262" data-name="Path 262" d="M1341.358-758.861a8.8,8.8,0,0,1,6.34,2.433,5.466,5.466,0,0,1,.322,7.714,17,17,0,0,1-3.617,3.09c-.776.523-1.586,1-2.39,1.476a2.523,2.523,0,0,1-.688.271.789.789,0,0,1-1.005-.867,8.344,8.344,0,0,1,.127-.845c.049-.265-.054-.382-.317-.419a8.956,8.956,0,0,1-2.856-.875,6.7,6.7,0,0,1-3.427-3.617,5.537,5.537,0,0,1,1.552-6.067,8.436,8.436,0,0,1,4.778-2.192C1340.6-758.818,1341.036-758.834,1341.358-758.861Zm0,13.918c.222-.118.408-.2.575-.31,1.072-.709,2.159-1.4,3.2-2.146a10.555,10.555,0,0,0,2.427-2.353,4.354,4.354,0,0,0,.048-5.225,6.157,6.157,0,0,0-2.229-1.932,8.336,8.336,0,0,0-5.267-.835,7.138,7.138,0,0,0-4.177,2.054,4.485,4.485,0,0,0-1.346,4.179,5.1,5.1,0,0,0,2.2,3.188,7.8,7.8,0,0,0,3.436,1.324c1,.153,1.336.595,1.2,1.587C1341.412-745.276,1341.391-745.14,1341.361-744.943Z" transform="translate(-42.618 -51.172)" fill="#fff"/>
    <path id="Path_263" data-name="Path 263" d="M1460.928-675.178c0,.5,0,.918,0,1.331,0,.353-.195.574-.492.577a.5.5,0,0,1-.5-.565c0-.957,0-1.914,0-2.871a.49.49,0,0,1,.353-.529.494.494,0,0,1,.6.266c.279.465.563.927.847,1.389.045.074.1.145.19.284,0-.526,0-.973,0-1.42a.506.506,0,0,1,.39-.531.489.489,0,0,1,.6.506c.007.985,0,1.969,0,2.954a.475.475,0,0,1-.358.5.471.471,0,0,1-.568-.227c-.292-.457-.579-.917-.869-1.375C1461.077-674.965,1461.025-675.036,1460.928-675.178Z" transform="translate(-162.066 -128.266)" fill="#fff"/>
    <path id="Path_264" data-name="Path 264" d="M1523.983-674.763v.471c.305,0,.6,0,.888,0,.376,0,.592.19.588.5s-.213.488-.573.491c-.45,0-.9,0-1.35,0a.5.5,0,0,1-.563-.564q-.008-1.436,0-2.872a.5.5,0,0,1,.546-.551q.7-.01,1.406,0a.481.481,0,0,1,.534.5.5.5,0,0,1-.545.5c-.3.008-.6,0-.927,0v.5h.8c.452,0,.673.168.668.505s-.225.49-.658.492l-.744,0A.359.359,0,0,0,1523.983-674.763Z" transform="translate(-221.621 -128.238)" fill="#fff"/>
    <path id="Path_265" data-name="Path 265" d="M1379.712-674.179c.317,0,.608,0,.9,0,.366,0,.6.206.593.508s-.232.485-.583.488c-.45,0-.9,0-1.35,0a.489.489,0,0,1-.554-.539q-.011-1.45,0-2.9a.483.483,0,0,1,.488-.547c.3,0,.5.207.506.564.007.7,0,1.4,0,2.1Z" transform="translate(-85.332 -128.35)" fill="#fff"/>
    <path id="Path_266" data-name="Path 266" d="M1433.9-675.174c0,.469,0,.939,0,1.408,0,.367-.206.593-.514.585s-.479-.225-.48-.586q0-1.408,0-2.817c0-.366.178-.575.481-.582s.51.212.513.583C1433.9-676.113,1433.9-675.644,1433.9-675.174Z" transform="translate(-136.531 -128.354)" fill="#fff"/>
  </g>
</svg>
