<svg id="_3-01" data-name="3-01" xmlns="http://www.w3.org/2000/svg" xmlns:xlink="http://www.w3.org/1999/xlink" width="92.927" height="92.927" viewBox="0 0 92.927 92.927">
  <defs>
    <linearGradient id="linear-gradient" x1="-0.001" y1="0.5" x2="1.001" y2="0.5" gradientUnits="objectBoundingBox">
      <stop offset="0" stop-color="#81c3f3"/>
      <stop offset="1" stop-color="#157efb"/>
    </linearGradient>
    <linearGradient id="linear-gradient-2" x1="-0.001" y1="0.502" x2="0.994" y2="0.502" xlink:href="#linear-gradient"/>
  </defs>
  <g id="Group_522" data-name="Group 522" transform="translate(0 0)">
    <g id="Group_521" data-name="Group 521">
      <g id="Group_520" data-name="Group 520">
        <g id="Group_519" data-name="Group 519">
          <path id="Path_1118" data-name="Path 1118" d="M24.293,65.861A41.422,41.422,0,0,1,3.4,30" transform="translate(1.589 16.463)" fill="rgba(0,0,0,0)" stroke="#036eb7" stroke-linecap="round" stroke-linejoin="round" stroke-width="1" opacity="0.8"/>
          <path id="Path_1119" data-name="Path 1119" d="M37.8,4.6A41.653,41.653,0,0,1,66.956,44.2" transform="translate(20.825 2.26)" fill="rgba(0,0,0,0)" stroke="#036eb7" stroke-linecap="round" stroke-linejoin="round" stroke-width="1" opacity="0.8"/>
          <path id="Path_1120" data-name="Path 1120" d="M57.571,36A34.788,34.788,0,0,1,41.2,57.049" transform="translate(22.726 19.818)" fill="rgba(0,0,0,0)" stroke="#036eb7" stroke-linecap="round" stroke-linejoin="round" stroke-width="1" opacity="0.6"/>
          <path id="Path_1121" data-name="Path 1121" d="M7.9,35.565A35.133,35.133,0,0,1,42.358,7.5" transform="translate(4.106 3.882)" fill="rgba(0,0,0,0)" stroke="#036eb7" stroke-linecap="round" stroke-linejoin="round" stroke-width="1" opacity="0.6"/>
          <path id="Path_1122" data-name="Path 1122" d="M44.662,15.5a31.173,31.173,0,0,1,9.667,22.608,27.313,27.313,0,0,1-.624,6.237A30.6,30.6,0,0,1,41.7,63.055" transform="translate(23.006 8.355)" fill="rgba(0,0,0,0)" stroke="#036eb7" stroke-linecap="round" stroke-linejoin="round" stroke-width="1" opacity="0.4"/>
          <path id="Path_1123" data-name="Path 1123" d="M11.036,43.455a31.071,31.071,0,0,1-.936-7.64A31.647,31.647,0,0,1,14.622,19.6" transform="translate(5.336 10.648)" fill="rgba(0,0,0,0)" stroke="#036eb7" stroke-linecap="round" stroke-linejoin="round" stroke-width="1" opacity="0.4"/>
          <path id="Path_1124" data-name="Path 1124" d="M46.663.2A46.463,46.463,0,1,0,93.127,46.663,46.38,46.38,0,0,0,46.663.2m0,.936A45.528,45.528,0,1,1,1.136,46.663,45.581,45.581,0,0,1,46.663,1.136" transform="translate(-0.2 -0.2)" fill-rule="evenodd" fill="url(#linear-gradient)"/>
        </g>
      </g>
    </g>
  </g>
  <g id="Group_523" data-name="Group 523" transform="translate(35.081 29.78)">
    <path id="Path_1125" data-name="Path 1125" d="M41.254,45.026a2.132,2.132,0,0,1,2.183-2.183,1.52,1.52,0,0,1,1.4.624,2.261,2.261,0,0,1,0,3.118,1.9,1.9,0,0,1-1.4.624,2.132,2.132,0,0,1-2.183-2.183m0-4.678a2,2,0,0,1,.624-1.559,1.9,1.9,0,0,1,1.4-.624,2.183,2.183,0,1,1,0,4.366,1.52,1.52,0,0,1-1.4-.624,2.77,2.77,0,0,1-.624-1.559m0-9.355a1.52,1.52,0,0,1,.624-1.4,2.261,2.261,0,0,1,3.118,0,1.9,1.9,0,0,1,.624,1.4,2.183,2.183,0,1,1-4.366,0m0-4.678a1.52,1.52,0,0,1,.624-1.4,2,2,0,0,1,1.559-.624,1.52,1.52,0,0,1,1.4.624,1.9,1.9,0,0,1,.624,1.4,2,2,0,0,1-.624,1.559,1.9,1.9,0,0,1-1.4.624,2.132,2.132,0,0,1-2.183-2.183M36.888,49.7a2,2,0,0,1,.624-1.559,1.9,1.9,0,0,1,1.4-.624,2.183,2.183,0,1,1,0,4.366,1.52,1.52,0,0,1-1.4-.624,2.52,2.52,0,0,1-.624-1.559m0-14.188a1.52,1.52,0,0,1,.624-1.4,1.9,1.9,0,0,1,1.4-.624,2,2,0,0,1,1.559.624,1.9,1.9,0,0,1,.624,1.4A2.132,2.132,0,0,1,38.915,37.7a1.52,1.52,0,0,1-1.4-.624,2,2,0,0,1-.624-1.559m0-14.033A2.131,2.131,0,0,1,39.071,19.3a1.52,1.52,0,0,1,1.4.624,2,2,0,0,1,.624,1.559,1.52,1.52,0,0,1-.624,1.4,1.9,1.9,0,0,1-1.4.624,2,2,0,0,1-1.559-.624,1.52,1.52,0,0,1-.624-1.4M31.587,49.7a1.52,1.52,0,0,1,.624-1.4,1.9,1.9,0,0,1,1.4-.624,2,2,0,0,1,1.559.624,1.9,1.9,0,0,1,.624,1.4,2.131,2.131,0,0,1-2.183,2.183,1.52,1.52,0,0,1-1.4-.624,2.52,2.52,0,0,1-.624-1.559m0-14.033a2.131,2.131,0,0,1,2.183-2.183,1.52,1.52,0,0,1,1.4.624,2,2,0,0,1,.624,1.559,1.52,1.52,0,0,1-.624,1.4,1.9,1.9,0,0,1-1.4.624,2,2,0,0,1-1.559-.624,1.9,1.9,0,0,1-.624-1.4m0-14.188a2.205,2.205,0,0,1,3.742-1.559,2.261,2.261,0,0,1,0,3.118,2.183,2.183,0,0,1-3.742-1.559M26.13,49.7a1.52,1.52,0,0,1,.624-1.4,2,2,0,0,1,1.559-.624,1.52,1.52,0,0,1,1.4.624,1.9,1.9,0,0,1,.624,1.4,2,2,0,0,1-.624,1.559,1.9,1.9,0,0,1-1.4.624A2.131,2.131,0,0,1,26.13,49.7m-.156-28.065A2,2,0,0,1,26.6,20.08a1.9,1.9,0,0,1,1.4-.624,2.132,2.132,0,0,1,2.183,2.183A2.132,2.132,0,0,1,28,23.822a1.52,1.52,0,0,1-1.4-.624,2.77,2.77,0,0,1-.624-1.559M22.7,45.026a2.131,2.131,0,0,1,2.183-2.183,1.52,1.52,0,0,1,1.4.624,2,2,0,0,1,.624,1.559,1.52,1.52,0,0,1-.624,1.4,1.9,1.9,0,0,1-1.4.624,2.234,2.234,0,0,1-1.559-.624,1.976,1.976,0,0,1-.624-1.4m0-18.71a2.131,2.131,0,0,1,2.183-2.183,1.52,1.52,0,0,1,1.4.624,2.261,2.261,0,0,1,0,3.118,1.9,1.9,0,0,1-1.4.624,2,2,0,0,1-1.559-.624,2.234,2.234,0,0,1-.624-1.559" transform="translate(-22.7 -19.3)" fill-rule="evenodd" fill="url(#linear-gradient-2)"/>
  </g>
</svg>
