<svg xmlns="http://www.w3.org/2000/svg" width="112.638" height="112.204" viewBox="0 0 112.638 112.204">
  <g id="以普惠金融為志業-01" transform="translate(0.221 -0.419)">
    <g id="组_678" transform="translate(0.325 0.965)">
      <g id="累積放款金額-01-2" transform="translate(8.917 21.579)">
        <path id="路径_342-2" d="M8.828,64.727A47.411,47.411,0,0,1,6.03,48.44,47.954,47.954,0,0,1,19.676,14.77" transform="translate(-6.03 -14.77)" fill="none" stroke="#195ca0" stroke-linecap="round" stroke-linejoin="round" stroke-width="1"/>
        <path id="路径_343-2" d="M74.411,36.31A49.129,49.129,0,0,1,71.77,52.285,46.9,46.9,0,0,1,50.98,77.717" transform="translate(19.283 -2.64)" fill="none" stroke="#195ca0" stroke-linecap="round" stroke-linejoin="round" stroke-width="1"/>
      </g>
      <path id="路径_1323" d="M49.118,112.064A55.739,55.739,0,1,1,91.573,99.778" transform="translate(-0.325 -0.965)" fill="none" stroke="#195ca0" stroke-linecap="round" stroke-linejoin="round" stroke-width="1"/>
    </g>
    <g id="Group_693" data-name="Group 693" transform="translate(22.373 26.811)">
      <path id="Path_1414" data-name="Path 1414" d="M22.76,48.15,20.79,59.639H41.2L39.047,48.15" transform="translate(-10.849 -0.24)" fill="none" stroke="#195ca0" stroke-linecap="round" stroke-linejoin="round" stroke-width="1"/>
      <circle id="Ellipse_75" data-name="Ellipse 75" cx="8.066" cy="8.066" r="8.066" transform="translate(13.865 5.346)" fill="none" stroke="#195ca0" stroke-linecap="round" stroke-linejoin="round" stroke-width="1"/>
      <line id="Line_76" data-name="Line 76" y1="2.251" x2="3.908" transform="translate(38.906 11.161)" fill="none" stroke="#195ca0" stroke-linecap="round" stroke-linejoin="round" stroke-width="1"/>
      <line id="Line_77" data-name="Line 77" x2="5.862" y2="3.423" transform="translate(48.129 10.535)" fill="none" stroke="#195ca0" stroke-linecap="round" stroke-linejoin="round" stroke-width="1"/>
      <line id="Line_78" data-name="Line 78" y1="7.206" x2="5.096" transform="translate(57.929 5.659)" fill="none" stroke="#195ca0" stroke-linecap="round" stroke-linejoin="round" stroke-width="1"/>
      <circle id="Ellipse_76" data-name="Ellipse 76" cx="3.001" cy="3.001" r="3.001" transform="translate(33.764 12.521)" fill="none" stroke="#195ca0" stroke-linecap="round" stroke-linejoin="round" stroke-width="1"/>
      <circle id="Ellipse_77" data-name="Ellipse 77" cx="3.001" cy="3.001" r="3.001" transform="translate(42.314 6.503)" fill="none" stroke="#195ca0" stroke-linecap="round" stroke-linejoin="round" stroke-width="1"/>
      <circle id="Ellipse_78" data-name="Ellipse 78" cx="3.001" cy="3.001" r="3.001" transform="translate(53.553 12.521)" fill="none" stroke="#195ca0" stroke-linecap="round" stroke-linejoin="round" stroke-width="1"/>
      <circle id="Ellipse_79" data-name="Ellipse 79" cx="3.001" cy="3.001" r="3.001" transform="translate(61.415)" fill="none" stroke="#195ca0" stroke-linecap="round" stroke-linejoin="round" stroke-width="1"/>
      <path id="Path_1415" data-name="Path 1415" d="M35.11,41.1s-4.877-7.925-7.925-7.925A16.667,16.667,0,0,0,16.7,48.926s-.61,7.1,2.7,7.1H35.094s4.408-2.7,0-7.1V41.1s4.58-7.44,8.566-7.44c0,0,9.269,1.36,9.269,12.442" transform="translate(-13.179 -8.676)" fill="none" stroke="#195ca0" stroke-linecap="round" stroke-linejoin="round" stroke-width="1"/>
      <path id="Path_1416" data-name="Path 1416" d="M24.551,39.8c-2.235,0-2.5,5.408-2.5,5.408H41.527S43.152,39.8,39.635,39.8" transform="translate(-10.139 -4.942)" fill="none" stroke="#195ca0" stroke-linecap="round" stroke-linejoin="round" stroke-width="1"/>
      <line id="Line_79" data-name="Line 79" x2="39.547" transform="translate(0 47.91)" fill="none" stroke="#195ca0" stroke-linecap="round" stroke-linejoin="round" stroke-width="1"/>
      <g id="Group_692" data-name="Group 692" transform="translate(39.531 30.137)">
        <g id="Group_691" data-name="Group 691" transform="translate(0 10.864)">
          <path id="Path_1417" data-name="Path 1417" d="M39.73,49.5a10.476,10.476,0,0,0,13.443,0" transform="translate(-39.714 -40.481)" fill="none" stroke="#195ca0" stroke-linecap="round" stroke-linejoin="round" stroke-width="1"/>
          <line id="Line_80" data-name="Line 80" y2="5.299" transform="translate(13.443 3.72)" fill="none" stroke="#195ca0" stroke-linecap="round" stroke-linejoin="round" stroke-width="1"/>
          <line id="Line_81" data-name="Line 81" y2="5.299" transform="translate(0.016 3.72)" fill="none" stroke="#195ca0" stroke-linecap="round" stroke-linejoin="round" stroke-width="1"/>
          <ellipse id="Ellipse_80" data-name="Ellipse 80" cx="6.721" cy="3.298" rx="6.721" ry="3.298" fill="none" stroke="#195ca0" stroke-linecap="round" stroke-linejoin="round" stroke-width="1"/>
        </g>
        <path id="Path_1418" data-name="Path 1418" d="M48.28,43.01a11.31,11.31,0,0,0,14.506,0" transform="translate(-34.9 -33.272)" fill="none" stroke="#195ca0" stroke-linecap="round" stroke-linejoin="round" stroke-width="1"/>
        <path id="Path_1419" data-name="Path 1419" d="M48.28,46.12a11.31,11.31,0,0,0,14.506,0" transform="translate(-34.9 -31.52)" fill="none" stroke="#195ca0" stroke-linecap="round" stroke-linejoin="round" stroke-width="1"/>
        <path id="Path_1420" data-name="Path 1420" d="M48.28,49.5a11.31,11.31,0,0,0,14.506,0" transform="translate(-34.9 -29.617)" fill="none" stroke="#195ca0" stroke-linecap="round" stroke-linejoin="round" stroke-width="1"/>
        <line id="Line_82" data-name="Line 82" y2="15.725" transform="translate(27.902 4.033)" fill="none" stroke="#195ca0" stroke-linecap="round" stroke-linejoin="round" stroke-width="1"/>
        <line id="Line_83" data-name="Line 83" y2="15.725" transform="translate(13.38 4.033)" fill="none" stroke="#195ca0" stroke-linecap="round" stroke-linejoin="round" stroke-width="1"/>
        <ellipse id="Ellipse_81" data-name="Ellipse 81" cx="7.253" cy="3.564" rx="7.253" ry="3.564" transform="translate(13.38)" fill="none" stroke="#195ca0" stroke-linecap="round" stroke-linejoin="round" stroke-width="1"/>
      </g>
    </g>
  </g>
</svg>
