<svg xmlns="http://www.w3.org/2000/svg" width="366.448" height="389.998" viewBox="0 0 366.448 389.998">
  <g id="Group_703" data-name="Group 703" transform="translate(-1967 -433.35)">
    <g id="Group_700" data-name="Group 700" transform="translate(1993.784 433.35)">
      <g id="Group_687" data-name="Group 687" transform="translate(55.491 66.55)">
        <path id="Path_1419" data-name="Path 1419" d="M2569.342,711.634a2.67,2.67,0,0,1-2.4-3.829l17.688-36.726a9.936,9.936,0,0,0-4.644-13.245l-64.844-31.189a9.926,9.926,0,0,0-13.247,4.643l-29.2,59.84a2.67,2.67,0,1,1-4.8-2.341l29.191-59.826a15.264,15.264,0,0,1,20.366-7.126l64.845,31.189a15.282,15.282,0,0,1,7.14,20.373l-17.689,36.727A2.67,2.67,0,0,1,2569.342,711.634Z" transform="translate(-2371.705 -620.317)" fill="#037cf9"/>
        <path id="Path_1420" data-name="Path 1420" d="M2491.855,1138.56a15.175,15.175,0,0,1-6.593-1.508l-32.551-15.656a2.67,2.67,0,1,1,2.315-4.811l32.551,15.656a9.938,9.938,0,0,0,13.247-4.643l15.437-31.983a2.67,2.67,0,0,1,4.809,2.321l-15.435,31.979A15.282,15.282,0,0,1,2491.855,1138.56Z" transform="translate(-2361.124 -925.462)" fill="#037cf9"/>
        <path id="Path_1421" data-name="Path 1421" d="M2522.021,1109.012a2.654,2.654,0,0,1-1.156-.265l-47.474-22.834a2.67,2.67,0,1,1,2.314-4.811l47.474,22.834a2.67,2.67,0,0,1-1.159,5.076Z" transform="translate(-2374.444 -916.917)" fill="#037cf9"/>
        <path id="Path_1422" data-name="Path 1422" d="M2639.866,697.036a2.656,2.656,0,0,1-1.156-.264l-84.042-40.422a2.67,2.67,0,0,1,2.314-4.812l84.043,40.423a2.67,2.67,0,0,1-1.159,5.076Z" transform="translate(-2426.79 -640.254)" fill="#037cf9"/>
        <path id="Path_1423" data-name="Path 1423" d="M2478.271,1126.807a2.659,2.659,0,0,1-1.155-.265l-8.981-4.32a2.669,2.669,0,1,1,2.314-4.811l8.981,4.32a2.67,2.67,0,0,1-1.159,5.076Z" transform="translate(-2371.057 -940.302)" fill="#037cf9"/>
        <path id="Path_1424" data-name="Path 1424" d="M2200.812,971.571a2.671,2.671,0,0,1-2.4-3.827l25.383-52.773,10.192-56.783a31.19,31.19,0,0,1,13.252-24.746l53.926-37.4a15.465,15.465,0,0,1,18.093,25.08l-38.932,29.079a82.24,82.24,0,0,1,14.99,24.625,61.812,61.812,0,0,1,4,28.661c-1.238,11.783-6.133,23.229-14.549,34.02a2.67,2.67,0,1,1-4.21-3.284c7.792-9.99,12.316-20.519,13.449-31.294a56.526,56.526,0,0,0-3.683-26.2,75.909,75.909,0,0,0-15.851-24.954,2.67,2.67,0,0,1,.258-4.059l41.329-30.87a10.126,10.126,0,0,0-11.85-16.419l-53.922,37.392a25.83,25.83,0,0,0-10.971,20.673,2.621,2.621,0,0,1-.042.428l-10.293,57.349a2.687,2.687,0,0,1-.222.685l-25.541,53.1A2.671,2.671,0,0,1,2200.812,971.571Z" transform="translate(-2198.144 -731.705)" fill="#037cf9"/>
        <path id="Path_1425" data-name="Path 1425" d="M2687.571,895.762a14.371,14.371,0,0,1-13.807-10.516h0a14.37,14.37,0,0,1,9.987-17.672l23.6-6.558a14.353,14.353,0,1,1,7.686,27.658l-23.6,6.558A14.417,14.417,0,0,1,2687.571,895.762Zm23.635-29.935a9.06,9.06,0,0,0-2.427.333l-23.6,6.558a9.024,9.024,0,0,0-6.271,11.1h0a9.013,9.013,0,0,0,11.1,6.271l23.6-6.558a9.017,9.017,0,0,0-2.4-17.7Z" transform="translate(-2504.131 -775.001)" fill="#037cf9"/>
        <path id="Path_1426" data-name="Path 1426" d="M2672.878,968.941a14.354,14.354,0,0,1-3.848-28.183l23.6-6.558a14.353,14.353,0,1,1,7.686,27.658l-23.6,6.558A14.315,14.315,0,0,1,2672.878,968.941Zm23.591-29.928a8.995,8.995,0,0,0-2.411.33l-23.6,6.558a9.014,9.014,0,0,0,4.827,17.37l23.6-6.558a9.015,9.015,0,0,0-2.417-17.7Z" transform="translate(-2494.65 -822.135)" fill="#037cf9"/>
        <path id="Path_1427" data-name="Path 1427" d="M2634.808,1048.023a14.357,14.357,0,0,1-3.821-28.188l23.6-6.558a14.353,14.353,0,1,1,7.686,27.658l-23.6,6.558A14.405,14.405,0,0,1,2634.808,1048.023Zm23.618-29.933a8.992,8.992,0,0,0-2.411.33l-23.6,6.558a9.014,9.014,0,0,0-6.271,11.1h0a9.014,9.014,0,0,0,11.1,6.271l23.6-6.558a9.015,9.015,0,0,0-2.417-17.7Z" transform="translate(-2470.145 -873.065)" fill="#037cf9"/>
        <path id="Path_1428" data-name="Path 1428" d="M2368.154,1273.386a2.671,2.671,0,0,1-2.4-3.828l23.933-49.759a2.672,2.672,0,0,1,2.466-1.511,45.207,45.207,0,0,0,27.854-8.194,37.431,37.431,0,0,0,8.956-8.716,2.67,2.67,0,0,1,4.476,2.911,41.807,41.807,0,0,1-10.124,10,50.659,50.659,0,0,1-29.549,9.347l-23.2,48.234A2.669,2.669,0,0,1,2368.154,1273.386Z" transform="translate(-2305.921 -993.773)" fill="#037cf9"/>
      </g>
      <path id="Path_1429" data-name="Path 1429" d="M2049.195,1040.207a2.67,2.67,0,0,1-2.6-2.059,165.774,165.774,0,0,1-3.049-58.477,2.67,2.67,0,1,1,5.3.669,160.436,160.436,0,0,0,2.949,56.587,2.671,2.671,0,0,1-2.6,3.281Z" transform="translate(-2042.246 -783.706)" fill="#037cf9" opacity="0.3"/>
      <path id="Path_1430" data-name="Path 1430" d="M2266.183,1378.691a162.381,162.381,0,0,1-73.952-17.569,165.625,165.625,0,0,1-56.531-47,2.67,2.67,0,0,1,4.243-3.241,160.259,160.259,0,0,0,54.7,45.479,157.094,157.094,0,0,0,71.543,16.994,160.232,160.232,0,0,0,28.654-2.578,2.67,2.67,0,1,1,.958,5.253A165.6,165.6,0,0,1,2266.183,1378.691Z" transform="translate(-2102.083 -997.85)" fill="#037cf9" opacity="0.3"/>
      <path id="Path_1431" data-name="Path 1431" d="M2932.782,1145.629a2.671,2.671,0,0,1-2.575-3.378c1.323-4.812,2.429-9.746,3.289-14.664a2.67,2.67,0,0,1,5.26.919c-.888,5.084-2.032,10.184-3.4,15.16A2.671,2.671,0,0,1,2932.782,1145.629Z" transform="translate(-2614.078 -879.052)" fill="#037cf9" opacity="0.3"/>
      <path id="Path_1432" data-name="Path 1432" d="M2892.585,834.538a2.671,2.671,0,0,1-2.609-2.114,157.081,157.081,0,0,0-26.872-60.169,2.67,2.67,0,0,1,4.316-3.144,162.4,162.4,0,0,1,27.779,62.2,2.671,2.671,0,0,1-2.614,3.226Z" transform="translate(-2570.593 -648.891)" fill="#037cf9" opacity="0.3"/>
      <g id="Group_690" data-name="Group 690" transform="translate(3.294 267.316)">
        <g id="Group_688" data-name="Group 688" transform="translate(0 13.704)" opacity="0.3">
          <path id="Path_1433" data-name="Path 1433" d="M2059.865,1228.189h-5.7a2.67,2.67,0,1,1,0-5.339h5.7a2.67,2.67,0,0,1,0,5.339Z" transform="translate(-2051.5 -1222.85)" fill="#037cf9"/>
          <path id="Path_1434" data-name="Path 1434" d="M2120.577,1228.189h-6.407a2.67,2.67,0,1,1,0-5.339h6.407a2.67,2.67,0,1,1,0,5.339Z" transform="translate(-2090.143 -1222.85)" fill="#037cf9"/>
        </g>
        <g id="Group_689" data-name="Group 689" transform="translate(13.704)">
          <path id="Path_1435" data-name="Path 1435" d="M2092.67,1257.384a2.669,2.669,0,0,1-2.67-2.67v-5.7a2.67,2.67,0,0,1,5.339,0v5.7A2.67,2.67,0,0,1,2092.67,1257.384Z" transform="translate(-2090 -1224.281)" fill="#037cf9" opacity="0.3"/>
          <path id="Path_1436" data-name="Path 1436" d="M2092.67,1196.1a2.669,2.669,0,0,1-2.67-2.669v-6.407a2.67,2.67,0,0,1,5.339,0v6.407A2.669,2.669,0,0,1,2092.67,1196.1Z" transform="translate(-2090 -1184.35)" fill="#037cf9" opacity="0.3"/>
        </g>
      </g>
      <g id="Group_693" data-name="Group 693" transform="translate(306.561 198.618)" opacity="0.3">
        <g id="Group_691" data-name="Group 691" transform="translate(0 13.704)">
          <path id="Path_1437" data-name="Path 1437" d="M2911.865,1035.189h-5.7a2.67,2.67,0,1,1,0-5.339h5.7a2.67,2.67,0,0,1,0,5.339Z" transform="translate(-2903.5 -1029.85)" fill="#037cf9"/>
          <path id="Path_1438" data-name="Path 1438" d="M2972.577,1035.189h-6.407a2.67,2.67,0,1,1,0-5.339h6.407a2.67,2.67,0,1,1,0,5.339Z" transform="translate(-2942.143 -1029.85)" fill="#037cf9"/>
        </g>
        <g id="Group_692" data-name="Group 692" transform="translate(13.704)">
          <path id="Path_1439" data-name="Path 1439" d="M2944.67,1064.384a2.669,2.669,0,0,1-2.67-2.67v-5.7a2.67,2.67,0,0,1,5.339,0v5.7A2.669,2.669,0,0,1,2944.67,1064.384Z" transform="translate(-2942 -1031.281)" fill="#037cf9"/>
          <path id="Path_1440" data-name="Path 1440" d="M2944.67,1003.1a2.669,2.669,0,0,1-2.67-2.67V994.02a2.67,2.67,0,0,1,5.339,0v6.407A2.67,2.67,0,0,1,2944.67,1003.1Z" transform="translate(-2942 -991.35)" fill="#037cf9"/>
        </g>
      </g>
      <g id="Group_696" data-name="Group 696" transform="translate(111.858)" opacity="0.3">
        <g id="Group_694" data-name="Group 694" transform="translate(0 13.704)">
          <path id="Path_1441" data-name="Path 1441" d="M2364.865,477.189h-5.7a2.67,2.67,0,0,1,0-5.339h5.7a2.67,2.67,0,1,1,0,5.339Z" transform="translate(-2356.5 -471.85)" fill="#037cf9"/>
          <path id="Path_1442" data-name="Path 1442" d="M2425.577,477.189h-6.407a2.67,2.67,0,1,1,0-5.339h6.407a2.67,2.67,0,1,1,0,5.339Z" transform="translate(-2395.143 -471.85)" fill="#037cf9"/>
        </g>
        <g id="Group_695" data-name="Group 695" transform="translate(13.704)">
          <path id="Path_1443" data-name="Path 1443" d="M2397.67,506.384a2.669,2.669,0,0,1-2.67-2.67v-5.7a2.67,2.67,0,1,1,5.339,0v5.7A2.67,2.67,0,0,1,2397.67,506.384Z" transform="translate(-2395 -473.281)" fill="#037cf9"/>
          <path id="Path_1444" data-name="Path 1444" d="M2397.67,445.1a2.67,2.67,0,0,1-2.67-2.67V436.02a2.67,2.67,0,1,1,5.339,0v6.407A2.67,2.67,0,0,1,2397.67,445.1Z" transform="translate(-2395 -433.35)" fill="#037cf9"/>
        </g>
      </g>
      <g id="Group_699" data-name="Group 699" transform="translate(298.374 287.605)" opacity="0.3">
        <g id="Group_697" data-name="Group 697" transform="translate(0 13.704)">
          <path id="Path_1445" data-name="Path 1445" d="M2888.865,1285.189h-5.7a2.67,2.67,0,1,1,0-5.339h5.7a2.67,2.67,0,0,1,0,5.339Z" transform="translate(-2880.5 -1279.85)" fill="#037cf9"/>
          <path id="Path_1446" data-name="Path 1446" d="M2949.577,1285.189h-6.407a2.67,2.67,0,1,1,0-5.339h6.407a2.67,2.67,0,1,1,0,5.339Z" transform="translate(-2919.143 -1279.85)" fill="#037cf9"/>
        </g>
        <g id="Group_698" data-name="Group 698" transform="translate(13.704)">
          <path id="Path_1447" data-name="Path 1447" d="M2921.67,1314.384a2.669,2.669,0,0,1-2.67-2.67v-5.7a2.67,2.67,0,0,1,5.339,0v5.7A2.67,2.67,0,0,1,2921.67,1314.384Z" transform="translate(-2919 -1281.281)" fill="#037cf9"/>
          <path id="Path_1448" data-name="Path 1448" d="M2921.67,1253.1a2.669,2.669,0,0,1-2.67-2.67v-6.407a2.67,2.67,0,1,1,5.339,0v6.407A2.67,2.67,0,0,1,2921.67,1253.1Z" transform="translate(-2919 -1241.35)" fill="#037cf9"/>
        </g>
      </g>
      <path id="Path_1449" data-name="Path 1449" d="M2152.353,1063.846a8.653,8.653,0,1,1,8.653-8.652A8.663,8.663,0,0,1,2152.353,1063.846Zm0-11.966a3.313,3.313,0,1,0,3.313,3.313A3.318,3.318,0,0,0,2152.353,1051.88Z" transform="translate(-2107.588 -828.278)" fill="#037cf9" opacity="0.3"/>
      <path id="Path_1450" data-name="Path 1450" d="M2468.631,577.336a8.653,8.653,0,1,1,8.653-8.653A8.662,8.662,0,0,1,2468.631,577.336Zm0-11.966a3.314,3.314,0,1,0,3.314,3.314A3.317,3.317,0,0,0,2468.631,565.37Z" transform="translate(-2311.288 -514.939)" fill="#037cf9" opacity="0.3"/>
      <path id="Path_1451" data-name="Path 1451" d="M2814.631,1207.337a8.653,8.653,0,1,1,8.653-8.653A8.662,8.662,0,0,1,2814.631,1207.337Zm0-11.966a3.314,3.314,0,1,0,3.314,3.313A3.317,3.317,0,0,0,2814.631,1195.37Z" transform="translate(-2534.13 -920.693)" fill="#037cf9" opacity="0.3"/>
    </g>
    <path id="Path_1452" data-name="Path 1452" d="M2658.136,1373.37a43.01,43.01,0,1,1,43.01-43.01A43.058,43.058,0,0,1,2658.136,1373.37Zm0-80.681a37.671,37.671,0,1,0,37.671,37.671A37.713,37.713,0,0,0,2658.136,1292.689Z" transform="translate(-417.428 -550.022)" fill="#037cf9" opacity="0.6"/>
    <g id="Group_701" data-name="Group 701" transform="translate(2227.575 751.451)">
      <path id="Path_1453" data-name="Path 1453" d="M2712.2,1392h-.361c-7.043,0-12.772-4.85-12.772-10.811a2.67,2.67,0,0,1,5.339,0c0,2.966,3.4,5.472,7.433,5.472h.361c4.029,0,7.433-2.506,7.433-5.472s-3.4-5.473-7.433-5.473c-7.042,0-12.772-4.85-12.772-10.811v-.059c0-5.961,5.73-10.811,12.772-10.811h.361c7.043,0,12.772,4.85,12.772,10.811a2.67,2.67,0,1,1-5.339,0c0-2.966-3.4-5.472-7.433-5.472h-.361c-4.029,0-7.433,2.506-7.433,5.472v.059c0,2.966,3.4,5.472,7.433,5.472,7.043,0,12.773,4.85,12.773,10.811S2719.239,1392,2712.2,1392Z" transform="translate(-2699.063 -1344.421)" fill="#037cf9" opacity="0.6"/>
      <path id="Path_1454" data-name="Path 1454" d="M2731.516,1335.56a2.67,2.67,0,0,1-2.67-2.67V1329.7a2.67,2.67,0,0,1,5.339,0v3.194A2.67,2.67,0,0,1,2731.516,1335.56Z" transform="translate(-2718.245 -1327.026)" fill="#037cf9" opacity="0.6"/>
      <path id="Path_1455" data-name="Path 1455" d="M2731.516,1472.9a2.669,2.669,0,0,1-2.67-2.67v-3.558a2.67,2.67,0,1,1,5.339,0v3.558A2.669,2.669,0,0,1,2731.516,1472.9Z" transform="translate(-2718.245 -1415.245)" fill="#037cf9" opacity="0.6"/>
    </g>
    <path id="Path_1456" data-name="Path 1456" d="M2182.383,633.683a2.672,2.672,0,0,1-2.609-3.246l9.233-41.8-96.954-21.417-9.773,45.6a2.67,2.67,0,0,1-5.221-1.119l10.335-48.225a2.67,2.67,0,0,1,3.186-2.047L2192.765,584a2.67,2.67,0,0,1,2.031,3.183l-9.809,44.4A2.67,2.67,0,0,1,2182.383,633.683Z" transform="translate(-70.845 -82.449)" fill="#037cf9" opacity="0.6"/>
    <path id="Path_1457" data-name="Path 1457" d="M2197.87,648.182a2.672,2.672,0,0,1-2.609-3.246l3.853-17.443a10.688,10.688,0,0,1-5.714-9.053L2131.213,604.7a10.464,10.464,0,0,1-3.819,4.163,10.683,10.683,0,0,1-5.385,1.618l-3.321,15.033a10.685,10.685,0,0,1,4.2,3.706,10.426,10.426,0,0,1,1.472,8.049,2.67,2.67,0,0,1-5.214-1.151,5.128,5.128,0,0,0-.717-3.96,5.483,5.483,0,0,0-3.432-2.32,2.669,2.669,0,0,1-2.031-3.182l4.333-19.616a2.669,2.669,0,0,1,3.183-2.031,5.455,5.455,0,0,0,4.085-.676,5.2,5.2,0,0,0,2.333-3.318,2.669,2.669,0,0,1,3.182-2.031l66.744,14.744a2.669,2.669,0,0,1,2.031,3.183,5.259,5.259,0,0,0,.718,4.006,5.138,5.138,0,0,0,3.218,2.276,2.67,2.67,0,0,1,2.031,3.183l-4.354,19.71A2.67,2.67,0,0,1,2197.87,648.182Z" transform="translate(-93.971 -106.638)" fill="#037cf9" opacity="0.6"/>
    <path id="Path_1458" data-name="Path 1458" d="M2224.79,669.617a8.567,8.567,0,1,1,8.364-6.72h0A8.581,8.581,0,0,1,2224.79,669.617Zm0-11.795a3.228,3.228,0,1,0,.7.076A3.233,3.233,0,0,0,2224.788,657.823Zm5.759,4.5h0Z" transform="translate(-160.51 -141.133)" fill="#037cf9" opacity="0.6"/>
    <g id="Group_702" data-name="Group 702" transform="translate(1967 536.041)">
      <path id="Path_1459" data-name="Path 1459" d="M2111.276,826.7h-.06a9.182,9.182,0,0,1,.056-18.364h.06a9.182,9.182,0,0,1-.056,18.364Zm0-13.024a3.843,3.843,0,0,0-3.842,3.818h0a3.842,3.842,0,0,0,3.818,3.867h.025a3.843,3.843,0,0,0,.023-7.685Zm-6.511,3.8h0Z" transform="translate(-2054.007 -777.554)" fill="#037cf9" opacity="0.6"/>
      <path id="Path_1460" data-name="Path 1460" d="M2077.877,798.023H1969.67a2.67,2.67,0,0,1-2.67-2.67V724.52a2.67,2.67,0,0,1,2.67-2.67h108.208a2.67,2.67,0,0,1,2.67,2.67v70.833A2.67,2.67,0,0,1,2077.877,798.023Zm-105.538-5.339h102.869V727.189H1972.339Z" transform="translate(-1967 -721.85)" fill="#037cf9" opacity="0.6"/>
      <path id="Path_1461" data-name="Path 1461" d="M2078.937,806.09h-73.651a2.67,2.67,0,0,1-2.559-1.908,9.811,9.811,0,0,0-5.18-6.045,2.67,2.67,0,0,1-1.522-2.41V759.5a2.67,2.67,0,0,1,1.522-2.41,9.881,9.881,0,0,0,5-5.487,2.669,2.669,0,0,1,2.508-1.754h74.117a2.67,2.67,0,0,1,2.508,1.754,9.808,9.808,0,0,0,5.557,5.729,2.67,2.67,0,0,1,1.675,2.478v35.6a2.67,2.67,0,0,1-1.675,2.477,9.866,9.866,0,0,0-5.739,6.288A2.67,2.67,0,0,1,2078.937,806.09Zm-71.8-5.339h69.96a15.319,15.319,0,0,1,6.477-7.014V761.494a15.17,15.17,0,0,1-6.138-6.3h-70.644a15.335,15.335,0,0,1-5.424,5.886V794.15A15.173,15.173,0,0,1,2007.133,800.75Z" transform="translate(-1985.694 -739.883)" fill="#037cf9" opacity="0.6"/>
    </g>
  </g>
</svg>
