<svg xmlns="http://www.w3.org/2000/svg" width="540.93" height="593.383" viewBox="0 0 540.93 593.383">
  <g id="Group_3640" data-name="Group 3640" transform="translate(-810.5 -2878.113)">
    <g id="Group_319" data-name="Group 319" transform="translate(749.66 2866.384)">
      <path id="Path_337" data-name="Path 337" d="M156.691,318.251s1.2-3.061,2.129-3.594c0,0,1.464-1.73-2.129-6.388,0,0-7.186-9.449-8.384-5.456a7.314,7.314,0,0,0-.8,3.194s-.133,1.73-1.065,1.863a6.1,6.1,0,0,0-2.529,3.726,3.731,3.731,0,0,1-4.924.931s-2.928-2.4-3.593-4.258c0,0-2.662-2.529-5.989.665,0,0-2.661,3.593.932,5.19,0,0,3.061,1.6-.533,4.924,0,0-2.928,1.863-.133,4.924,0,0,.932,1.2,3.327.8,0,0,2,2.958,2.662.082a5.408,5.408,0,0,1,3.327-3.142,1.734,1.734,0,0,0,1.863-2.129s1.2-3.593,6.122-2.4a7.492,7.492,0,0,1,4.125,3.061s.665,1.6,3.46.931C154.561,321.178,156.557,321.844,156.691,318.251Z" transform="translate(-31.763 -137.096)" fill="none" stroke="#112e53" stroke-miterlimit="10" stroke-width="1"/>
      <path id="Path_338" data-name="Path 338" d="M104.317,333.263s4.259,1.2,6.521-.931c0,0,3.726-2.8,3.593-4.791,0,0-.266-2.262-2.129-2a2.843,2.843,0,0,1-2.529-.687s-1.6-.378-3.593,2.018c0,0-1.464.665-.931,4.125,0,0,.4.932-.932,1.2C104.317,332.2,103.246,333.048,104.317,333.263Z" transform="translate(-20.113 -147.983)" fill="none" stroke="#112e53" stroke-miterlimit="10" stroke-width="1"/>
      <path id="Path_339" data-name="Path 339" d="M129.927,594.461s1.6,3.693,5.09,1.9a2.865,2.865,0,0,1,1.7-.7s.7-1.095,0-3.69c0,0,.2-1.4,2.1-1.5a2.393,2.393,0,0,0,2.2-2,2.791,2.791,0,0,1,3.094-1.7s3.393-.8,3.393,1.3c0,0,.7,1.6,1.5-.1a1.389,1.389,0,0,0,0-1.9s-1.6-3.194-.5-3.494c0,0,1.1-2.2-1.7-3.393a4.252,4.252,0,0,0-3.793,1.7s-3.338,2.4-3.366-.3c0,0,.371-1.4-1.425-2.1a2.648,2.648,0,0,0-.6-2.4s-.8-3.293.6-3.693c0,0,1.1-1.3-1.3-2.5,0,0,.3-2.7-1.9-1.7a3.321,3.321,0,0,0-3.593-.222s-4.391.821-2,2.018c0,0,.6,2.617,1.3.3,0,0,2.3-1,2.4.8a1.3,1.3,0,0,0,1.1,1.4s1.5-.2,1,2c0,0-1.8,1.2.3,1.4,0,0,1.3.1.8,1.3a2.215,2.215,0,0,0,.7,1.8s.9,1.9-.5,2.4c0,0-1.6.962-.7,3.276a1.731,1.731,0,0,1-2.994-.681s.3-3.824-2.5-1.763c0,0-3.227,2.162-1.613,4.557a3.124,3.124,0,0,0,2.91,2s1,.6,3.194,0c0,0,2,.3-.1,2.695a2.328,2.328,0,0,1-2.795.8s-1.6.9-1.8-.6c0,0-2.234-.2-1.865-1.2,0,0-1.528-1.9-2.227.9,0,0-.8,2.595,3.194,2.2C129.228,593.562,130.027,592.863,129.927,594.461Z" transform="translate(-30.584 -262.858)" fill="none" stroke="#112e53" stroke-miterlimit="10" stroke-width="1"/>
      <path id="Path_340" data-name="Path 340" d="M145.382,543.8s0-1.7,1.7-.7c0,0,2.595.6,0,1.7,0,0-1.4-.464-1.7.866,0,0-1.2,1.629-1.3-.667C144.085,545,143.885,544,145.382,543.8Z" transform="translate(-39.153 -251.121)" fill="none" stroke="#112e53" stroke-miterlimit="10" stroke-width="1"/>
      <path id="Path_341" data-name="Path 341" d="M114.32,579.557s-.4-2.4,1.7-2.1c0,0,2,.846,2.595-.026,0,0,.8-1.471-1.5-1.371,0,0-1.7.9-2-.5a1.422,1.422,0,0,1-.2-1.6s-.6-1.7-1.6,0a1.905,1.905,0,0,0-.6,2.417s-1.6,1.076-1,2.274c0,0-1,1.7.3,2a1.59,1.59,0,0,1-.666,2.2s-2.229,0-1.53.9c0,0-1.17.567-.136,1.132a1.305,1.305,0,0,1,1.633,1.463s-.327,2.36-2.06.98c0,0-1.334-.916-1.334,0a4.506,4.506,0,0,1-1.2.916s-1.8,1.6.5,1.9a2.121,2.121,0,0,0,1.6-1.1,6.37,6.37,0,0,1,3.575-.3s2.214,1.5,1.415-2.7c0,0-1.4-2.4,0-2.595,0,0,1.3.5,1.2-1.3C115.018,582.151,115.517,580.156,114.32,579.557Z" transform="translate(-21.165 -265.521)" fill="none" stroke="#112e53" stroke-miterlimit="10" stroke-width="1"/>
      <path id="Path_342" data-name="Path 342" d="M120.071,624.447s-3.762-.932-2.28,2.129c0,0,.949,1.331,3.078,0a2.09,2.09,0,0,1,2.662-.267s2.129-.533,0-2c0,0-.4-1.2-1.6,0C121.935,624.313,121.4,625.378,120.071,624.447Z" transform="translate(-26.55 -289.451)" fill="none" stroke="#112e53" stroke-miterlimit="10" stroke-width="1"/>
      <path id="Path_343" data-name="Path 343" d="M111.794,658.677s1.73-1.065,0-2c0,0-2.025-1.565.385-1.315,0,0,.22.916,1.514.782,0,0,1.5,0,0,2.529,0,0,2.034.932.667,1.464,0,0-1.146,2,.473,2,0,0,.8,3.061-1.917,1.464,0,0-3.117,1.2-2.851-.666,0,0-1.6-2.21.665-3.234C110.73,659.7,110.464,658.677,111.794,658.677Z" transform="translate(-22.799 -304.385)" fill="none" stroke="#112e53" stroke-miterlimit="10" stroke-width="1"/>
      <path id="Path_344" data-name="Path 344" d="M123.625,664.379s-1.239.931,0,1.331a1.528,1.528,0,0,0,1.638-.665s2.129-.48,0-1.5C125.264,663.54,123.625,663.049,123.625,664.379Z" transform="translate(-29.214 -308.224)" fill="none" stroke="#112e53" stroke-miterlimit="10" stroke-width="1"/>
      <path id="Path_345" data-name="Path 345" d="M93.27,712.336a3.989,3.989,0,0,1,3.46,0s.266.665-.665.8c0,0,1.233,3.194-1.047,2.529,0,0-.417,3.327-1.747.665,0,0-2-1.863-.932-2.263C92.338,714.066,91.939,711.937,93.27,712.336Z" transform="translate(-14.521 -331.161)" fill="none" stroke="#112e53" stroke-miterlimit="10" stroke-width="1"/>
      <path id="Path_346" data-name="Path 346" d="M148.4,700.224s-2.049.665-.759,1.73c0,0,1.269,1.863,2.078,0C149.716,701.954,150.126,699.559,148.4,700.224Z" transform="translate(-40.636 -325.571)" fill="none" stroke="#112e53" stroke-miterlimit="10" stroke-width="1"/>
      <path id="Path_347" data-name="Path 347" d="M165.561,698.808s-2.262-.22-1.2,2.019c0,0,1.331,1.724,1.2-1.013C165.561,699.814,167.557,699.34,165.561,698.808Z" transform="translate(-48.618 -324.953)" fill="none" stroke="#112e53" stroke-miterlimit="10" stroke-width="1"/>
      <path id="Path_348" data-name="Path 348" d="M117.456,693.508s-1.615,1.331,0,1.6C117.456,695.1,119.036,694.972,117.456,693.508Z" transform="translate(-26.216 -322.448)" fill="none" stroke="#112e53" stroke-miterlimit="10" stroke-width="1"/>
      <path id="Path_349" data-name="Path 349" d="M119.161,697.949s-1.642,1.357,0,1.281c0,0,.844-.089,1.11-1.281C120.271,697.949,119.915,695.814,119.161,697.949Z" transform="translate(-27.017 -324.1)" fill="none" stroke="#112e53" stroke-miterlimit="10" stroke-width="1"/>
      <path id="Path_350" data-name="Path 350" d="M63.311,651.837s-1.2-1.863-1.73,0c0,0-.931,2,.865,2a4.236,4.236,0,0,0,2.728-1.412S65.266,651.052,63.311,651.837Z" transform="translate(0 -302.336)" fill="none" stroke="#112e53" stroke-miterlimit="10" stroke-width="1"/>
      <path id="Path_351" data-name="Path 351" d="M160.83,573.177s.532-2.307,2.4-.555C163.225,572.623,163.359,574.508,160.83,573.177Z" transform="translate(-47.081 -264.931)" fill="none" stroke="#20f8fd" stroke-miterlimit="10" stroke-width="1"/>
      <path id="Path_352" data-name="Path 352" d="M373.695,989.785s-5.19,1.2-3.992,3.992c0,0,.2,2-1.2,2.2,0,0-1,2.2,2.595,1,0,0,2.6.358,2.6-3.414a3.255,3.255,0,0,0,3.194-2.375S377.687,985.792,373.695,989.785Z" transform="translate(-145.298 -461.956)" fill="none" stroke="#112e53" stroke-miterlimit="10" stroke-width="1"/>
      <path id="Path_353" data-name="Path 353" d="M802.779,1078.566s-.8,1.2-2.994,0c0,0-2.4-2.262-2.994.266a1.739,1.739,0,0,0,1.2,2.129s1.952,1.6,1.775,3.194c0,0-.377,2.595,2.018,2.2,0,0,1.4,0,1,2.4,0,0,.8,2,2.595,0a3.537,3.537,0,0,1,3.393,2s2.4,3.593,4.991,0c0,0,2.4-.8-2-4.591,0,0-7.186-2.8-4.392-4.392,0,0,3.793-1.4,1.2-2,0,0-1.389-1.8-2.99-1C805.578,1078.766,804.575,1076.969,802.779,1078.566Z" transform="translate(-348.012 -504.226)" fill="none" stroke="#112e53" stroke-miterlimit="10" stroke-width="1"/>
      <path id="Path_354" data-name="Path 354" d="M833.361,1110.85s-2.595-.2-1,1.8C832.363,1112.647,836.356,1115.242,833.361,1110.85Z" transform="translate(-364.621 -519.942)" fill="none" stroke="#112e53" stroke-miterlimit="10" stroke-width="1"/>
      <path id="Path_355" data-name="Path 355" d="M787.536,892.819s-2.4,1,0,3.194c0,0,1.4.4,0,2.2,0,0,.6,1,2.795,0,0,0,1.8,3.194,3.793,1.6,0,0,1.4-.95,0-3.27,0,0,0-1.72,2.4-1.92,0,0,2.529-3.194-5.023-1.8C791.5,892.819,788.336,890.568,787.536,892.819Z" transform="translate(-343.15 -416.293)" fill="none" stroke="#112e53" stroke-miterlimit="10" stroke-width="1"/>
      <path id="Path_356" data-name="Path 356" d="M944.521,200.138s-3.094.5,0,2c0,0,.4.9,2.2.8,0,0,4.991.706,3.793-1.394,0,0,.1-1.5-1.7-1.4,0,0-.215-3.882-2.894-1.4A2.628,2.628,0,0,1,944.521,200.138Z" transform="translate(-417.292 -87.918)" fill="none" stroke="#112e53" stroke-miterlimit="10" stroke-width="1"/>
      <path id="Path_357" data-name="Path 357" d="M150.855,157.305s-2.995-1-3.594,2.8a3.645,3.645,0,0,1-2.4,2.4s-2,3.593,1.2,3.393c0,0,1.18.8,1.489-1.6a1.515,1.515,0,0,1,2.1-.8s3.793-.6,4.192-5.39c0,0,3.194-1.8-1-2.2C152.85,155.908,152.194,157.381,150.855,157.305Z" transform="translate(-39.235 -68.042)" fill="none" stroke="#112e53" stroke-miterlimit="10" stroke-width="1"/>
      <path id="Path_358" data-name="Path 358" d="M132.065,154.234s4.192-4.192-1.2-4.391a3.474,3.474,0,0,1-4.591,0s-4.791-.2-2.595,3.194c0,0-.8,1.4,1.8,1.2a2.112,2.112,0,0,1,1.2,2.2s.6,2.2,2.994,0C129.669,156.43,130.667,153.636,132.065,154.234Z" transform="translate(-29.229 -65.171)" fill="none" stroke="#112e53" stroke-miterlimit="10" stroke-width="1"/>
      <path id="Path_359" data-name="Path 359" d="M104.908,118.443s3.393,2.4,6.388-1.6a3.014,3.014,0,0,1,4.082-2,3.566,3.566,0,0,0,2.106-3.393s.578-3.593-2.106-2.795c0,0-2.086.2-2.684,1.4,0,0-3.992-.6-4.791,2.595,0,0-1.8,2.595-2.994-.2,0,0-.4-1-2.8-.4,0,0-1.6-2.427,0-3.509,0,0-.4-3.078-2.994-2.08,0,0-2.795,1.4-1,2.4,0,0,1.391,2.31-.6,3.85,0,0-3.39,3.936-.995,5.533,0,0,2.595,3.821,4.791.912A4.761,4.761,0,0,0,104.908,118.443Z" transform="translate(-16.244 -44.551)" fill="none" stroke="#112e53" stroke-miterlimit="10" stroke-width="1"/>
      <path id="Path_360" data-name="Path 360" d="M136.973,77.694s1-4.192-4.392-1.2c0,0-5.19,2.595-5.19,3.793a2.886,2.886,0,0,0-1.2,3.992s1.369,1.8-.414,2.795c0,0-1.184,2.595,1.012,3.393,0,0,2.595,1.8,1-2.2,0,0-.42-5.067,1.687-5.129a5.672,5.672,0,0,0,5.256-2.457s1.587-2.6,2.313,1c0,0,1.873,3.194,3.695-.4C140.74,81.288,140.965,77.3,136.973,77.694Z" transform="translate(-30.344 -29.953)" fill="none" stroke="#112e53" stroke-miterlimit="10" stroke-width="1"/>
      <path id="Path_361" data-name="Path 361" d="M172.625,81.127s2.994.921,4.392-1.336c0,0,2.2.338,1.6-3.455,0,0,.6-2.595,2,0,0,0,1,2,2.795,1,0,0,1.4-2.995-1.8-3.593,0,0-4.287,1.437-3.441-1.677,0,0,.247-2.914-2.348-2.116a2.532,2.532,0,0,0-1,3.992s-2.2,3.394-5.39-.8c0,0,1.4-2.074,0-3.332,0,0-2.595-3.333-4.192,0,0,0-2.662,1.336-1.031,3.133,0,0-1.364,3.793,1.231.8,0,0,3.793-4.029,2.2,1.08,0,0-.8,2.477,1.4,0,0,0,3.593-.082,1.4,3.511a1.882,1.882,0,0,0-.6,2.981s-.4,2.609,2,1.81C171.826,83.122,173.423,83.522,172.625,81.127Z" transform="translate(-48.429 -26.597)" fill="none" stroke="#112e53" stroke-miterlimit="10" stroke-width="1"/>
      <g id="组_283" data-name="组 283" transform="translate(172.25 36.475)">
        <path id="路径_267" data-name="路径 267" d="M311.844,508.578l1.124-.345a5.146,5.146,0,0,1-1.209-2.535,6.951,6.951,0,0,1-2.277-3.6c-.617-2.589-.2-3.261,2.256-5.156l.052-2.342.376.348.232,1.306.566.191.422-.5-.422-.614.569-.5-.285-.5.334-.578c-.448-.405-1.226-1.447-1.12-2.034l-.376-.348-.473.38.469,1.422-.572.81c-.918-3.744-3.39-6.83-5.142-10.3-1.294-2.565-2.4-5.2-3.69-7.766-.688-1.373-1.6-2.7-2.249-4.075-.5-1.073-.845-2.276-1.256-3.379-.061-.163-.42-.417-.47-.578-1.008-3.235-1.834-6.591-3.7-9.6l.236-.882-.607-1.152c.791-1.214-.161-3.02-.557-4.17a16.071,16.071,0,0,0-5.693-8.305,7.833,7.833,0,0,0-3.183-1.744l-.607-1.422a5.313,5.313,0,0,1-1.13.153c-1.969-1.029-3.244-2.56-5.037-3.656-.107-.068-3.107-1.391-3.295-1.459-1.089-.388-2.373-.208-3.247-.965l1.272-1.381c1.792-.5,6-1.483,7.029-2.64h.174c.569-2.481-.783.963-6.3,1.148l.2-2.606c.044-.584-.242-1.186-.184-1.691.127-1.186,1.253-2.4.992-3.605l.851-.73c.742-.071,1.482-.161,2.215-.265l1.321.459.1-1.57a5.207,5.207,0,0,1-1.834-1c.03-.519-.183-1.777-.8-2.109h-.66c-.068-.837-.524-3.883-.133-4.452l2.639-.191.431-.27a4.374,4.374,0,0,0-1.362-2.992c1.5-.88.815-3.52,1.753-4.911.2-.323,5.012-.719,5.708-.8l-1.224-.692-4.008.186-.8-.613c-.149-.323.906-2.32,1.091-2.722l.613-.118,1.229-.957-.563-1.036.431-.963L283,397.6l.522-1,1.468-.724.143-.385-.614-1.116.145-.534.516-.307a3.413,3.413,0,0,1-1.313-1.809l.331-1.036.851-.3.614-1.268.426-.229,1.224.46.431-.107,1.885.845.658-.038c-1.827-.919-2.979-2.732-4.518-4l-.143-.729c2.083-2.777,2.058-4.572,2.424-7.671l.477-.306.419.306-.716,3.991,1.609-.228.565.422.423-.189a1.951,1.951,0,0,1,.381-1.494l-.09-.31,1.045-2.532-.8-2.157-1.078-.036-.522-.348-.183-.846.283-.5-.19-.691.9-1.265-.9-.269-.707-1,1.186-1.914a2.113,2.113,0,0,0,1.278-.423l.518.041.382-.882-1.369-.539-.286.229-1.462.115-.563-.576a2.181,2.181,0,0,0,.048-2.157l.9-.765.617-2.147,2.27-.186.283-.233c-1.953-.216-4.1-2.265-3.775-3.878l4.107-.5-.938-.691-2.456.149-.239-.533.761-1.079-.9-.729-.043-.729,1.319.078.477-1.073-1.13.228a3.2,3.2,0,0,0-1.891-.654l-.38-.767c1.048-2.923-.272-6.7-.734-9.669l-.712.8-.376-.344c3.308-5.138,3.507-11.524,8.927-15.677l.755-.075c.372.3.232,1.254.232,1.651l1.137-.8.8,1.037,1.214.253.977.818c.054-.688-2.454-2.783-3.035-3.335-.361-1.064.494-1.9.719-2.877.108-.486-.082-1.078,0-1.575.183-1.108.824-3.81,2.143-4.6l-.093-.46-1.136.228-.375-.232c1.053-1.679,4.007-5.533,6.263-6.086l-.613-.423c-.011-.548,2.871-3.034,3.421-3.559l.565-.037a48.7,48.7,0,0,0,4.846-4.822l-.28-.647c.507-3.158,3.206-3.029,3.943-4.6a17.707,17.707,0,0,1,.623-1.8c.456-.735,1.34-1.37,1.806-2.1.732-1.154,1.212-2.481,1.864-3.676a3.29,3.29,0,0,1,1.063-1.248l.7-.431c.755-1.452,1.442-2.992,2.293-4.406,1.057-1.762,3.478-4.3,3.236-6.379h.852c.216-2.522,2.391-3.217,3.465-5.4l.948-.095.715-1.35a8.6,8.6,0,0,0,3.87-1.952l.9.292a10.983,10.983,0,0,1,3.667-5.093c.634-.41,1.646-.511,2.176-1.059-.045-.454.108-1.536.634-1.834l-.122-.354-.916.308c-.331-.755.981-3.609,1.284-4.422l-.381-.7,2.249-2.7-.12-.418c1.275-1.914,5.816-5,8.02-6.964l1.69-.014,1.618,1.066,1,.045c.48.107,1.179,1.548,1.39,1.9l.521.041c-.863-3.306-2.535-4.038-6.273-4.887l-.168-.418,2.393-3.359c.085-.123.824-.46.92-.586.686-.923,1.1-2.034,1.735-2.983a16.86,16.86,0,0,0,2.174-3.259c-.153-.418-.333-.838-.456-1.264l1.035-2.536,1.079.431a3.711,3.711,0,0,1,1.891-1.762c-.251-2.239.563-5.716,2.719-7.261a3.883,3.883,0,0,1,.822-2.506c1.765-.372,3.854-3.7,3.337-5.091a4.9,4.9,0,0,0,1.557-2.459,7.02,7.02,0,0,1,2.7-.423,2.264,2.264,0,0,1,.225-3.173l1-.093c.666-.534,1.63-1.827,1.479-2.635l.607-.135.838-.79.739-.1c1.166-2.132,3.005-2.4,4.355-3.787.2-.207.991-1.948,1.257-2.292.655-.841,1.7-1.544,2.382-2.378.081-.1.784-2.556.921-2.853.5-1.078,1.389-2.157,1.8-3.257.4-1.067.258-2.406.712-3.451a50.115,50.115,0,0,1,2.958-4.961c.146-.246.184-1.039.323-1.322a20.486,20.486,0,0,1,3.073-3.943c.351-.4,1.665-.2,2.168-.251,1.049-.108,2.324-.622,3.359-.619,1.013,0,2.373.539,3.336.074l-1.626-1.14-.368-1.05-.525.028-.248-.739,1.351-2.389a4.284,4.284,0,0,0,3.437-2.713c2.027-1.026,6.9-1.37,9.141-1.1.078.009,2.481,1.021,2.712,1.115.054.023,3.461-.082,3.732-.089l.493-.692a11.842,11.842,0,0,0-3.939-.437l-.55-.776-.96.233-.549-.637-.569.066c1.387-1.725,3.183-2.777,4.867-4.234,1.307-1.129.517-3.5,1.874-4.757a18.231,18.231,0,0,1,2.024-1.394,8.09,8.09,0,0,1,1.186-.413l.686.358a3.532,3.532,0,0,1,2.149-.948c.071-.08.464-.488.489-.552.36-.927.658-1.953,1.1-2.849.062-.125.593-.524.618-.619.2-.792.97-4.949,1.679-5.285l.745-.237a7.6,7.6,0,0,1-.619-3.775l-.6-.289-.205-.6a5.064,5.064,0,0,1,1.969-2.555l.74-.061.9.5,1.128-.018a1.312,1.312,0,0,0-.057-1.294l1.135-.194.576-.656-.755-1.231c.819-1.128.548-2.3,1.162-3.475.341-.647.818-1.307,1.213-1.942.028-.045,1.792-1.353,1.908-1.441l1.52.091.487-.306c-.251-.384-1.648-.7-2.119-.763a6.5,6.5,0,0,1,4.141-4.344l-.376-.668.323-.73a27.13,27.13,0,0,0,2.382-1.462c.171-.136.528-.79.719-.971s1.108-.733,1.193-.855a35.159,35.159,0,0,0,1.906-3.568l-.248-.389c.475-1.015-.39-1.85.363-2.926a29.663,29.663,0,0,1,4.508-4.791c.92-.836,4.129-1.588,5.275-2.157,1.408-.7,2.615-1.757,4.025-2.454,1.131-.561,2.6-.822,3.82-1.412a3.518,3.518,0,0,1,.7-.34c.836-.232,1.935-.145,2.8-.339a44.481,44.481,0,0,0,4.477-1.294c.784-.272,1.694-1.052,2.589-1.046l.385.251c.245-.178,2.463-1.834,2.576-1.881,1.156-.525,2.873-.732,4.123-1.156.579-.2,1.095-.614,1.674-.814a56.761,56.761,0,0,1,5.581-1.69,15.712,15.712,0,0,1,6.487.279,11.815,11.815,0,0,0,1.877-.037l1.51-1.091c2.357-.731,5.456.292,7.9-.364,1.155-.307,2.354-1.136,3.485-1.547,1.254-.456,2.727-.668,3.956-1.157,1.792-.712,7.258-4.161,7.21-5.744l-1.843-1.221,2.219-1.36.863-1.66c.742-1.438,1.547-1.361,2.481-2.437.058-.069,1.326-2.241,1.373-2.352.054-.133-.123-.67-.069-.8a27.863,27.863,0,0,1,1.468-2.7l2.086.488a4.925,4.925,0,0,0,2.708-3.343c1-.415,6.553-2.409,6.68-3.164l1.684.585a11.089,11.089,0,0,0,2.733-.961l-.12-.493.279-.521c.4-.253,2.727.641,3.211.795l.755-.3,1.348.164,1.9-.906,1.089.089,1.114.789a9.737,9.737,0,0,1,2.432.39c1.246,1.655,2.3,1.256,3.27,1.845,3.694,2.239,3.823,4.072,4.761,7.391l.764.647,1.587-.252.422.4-.385,1.282,1.679,2.265a8.241,8.241,0,0,0,3.549,1.079l.678-.863,1.046-.019a5.881,5.881,0,0,1,2.224-1.459l.216.353L583.539,74l.286.705-1.262,1.478c.041.947,3.236,2.251,4.282,2.7l.215,1.371.431.251,1.888-.348,1.7,1.152.746-.094.728.507,1.568.167-.252,1.148.8.786-.183.342-.792.3-.863-.437-.232,1.99a6.971,6.971,0,0,1,3.581-1.646,3.387,3.387,0,0,1,1.366-1.857l-.822-.229-.038-.208,1.112-.851,1.131.088.293.389-.279.59c1.759.095,2.774,2.134,3.817,2.17l.439-.129.153-.659,1.04.126c.095.463.568,1.483,1.172,1.7l2.132.043c.2.581.388,1.168.56,1.755l1.345.1c1.013-2.146,5.177-1.394,6.633-.041a7.677,7.677,0,0,1,5.128.487l4.239-.4.719-.647.614.115-.116.836-.9.786.375.5,1.052-.014a2.444,2.444,0,0,1-.677,2.082c.489.863-.623,2.235-.48,2.781a6.078,6.078,0,0,0,2.582,3.759l-.323.763c.838,1.548.258,4.726,2.62,5.432l-.808.684.907.264a11.043,11.043,0,0,1,2.934-.6c2.325-.389,3.128-1.116,5.265.18l.794,1.274.521-.06.755-.545,1.5.837.152.669c-.166.668-1.529,1.049-2.255,1.107a24.481,24.481,0,0,1-2.287,2.012c-.13.086-.781.2-.971.292-.678.323-1.223.942-1.915,1.254a17.408,17.408,0,0,1-2.4.622c-3.538.921-5.673,1.67-6.865,4.569-1.389.255-1.769,1.26-2.8,1.794-2.383,1.236-2.166-.362-3.415,2.466-.146.324-.431.9-.276,1.3a16.367,16.367,0,0,1-4.117,3.726l-1.818,1.18c-.175.161-.988,1.568-1.227,1.864-.557.681-1.324,1.274-1.892,1.95-2.012,2.406-4,13.1-3.679,16.658a23.349,23.349,0,0,0,2.344,7.206,6.278,6.278,0,0,1,.068.7l-1.489.283.343.289,1.38.274.381.388-.153.8c.068.1.616.863.623.92.324,2.242.552,4.53.971,6.761a18.475,18.475,0,0,0,4.878,7.953,8.5,8.5,0,0,0,3.185,1.008l.164.251-.143.414-3.806-.529-.675.961a2.435,2.435,0,0,0,1.308,2.579l.618-.409.692.12.286.633-.709.474c-.991,1.439,1.1,7.3-.207,8a19.234,19.234,0,0,0-5.463,1.461c-.917.623-.833,2.466-.534,3.308a4.7,4.7,0,0,1,2.253,2.8l1.339.236.161.423-.442.34c-2.427-.026-5.081,1.892-6.687,3.112-.341,2.575-3.118,3.361-3.871,4.777a16.628,16.628,0,0,0-1.974,5.06c-.174,1-.084,2.075-.3,3.066a20.727,20.727,0,0,1-1.834,4.77l-1.38,2.672a2.548,2.548,0,0,0,.03.933l.058,1.865c-.017.556-.706,1.51-.273,2.017a4.676,4.676,0,0,1-.971,1.975c-.671.5-3.036,2.061-3.2,2.764a19.441,19.441,0,0,1-.846,3.683c-.142.287-.382.376-.623.617-1.257,1.243-2.129,2.286-4.349,2.217-.791.256-1.929,2.338-2.2,2.927-.825.4-4.927,2.338-5.088,2.481a17.476,17.476,0,0,0-4.631,6.262c2.32,4.109,1.942,4.008.412,8.318-.389,1.1-5.03,3.6-6.139,4.77l-1.321,1.884a4.2,4.2,0,0,0-.95,1.942l.13,1.587a3.967,3.967,0,0,0,.422,1.742c2.13,3.344,1.779,3.466,5.1,5.994.705.539.783,2.4.449,3.084h-.876l-.686,1.125c-3.591,1.618-6.2,4.546-5.746,8l.747.889-.239.307.375.27c-1.349,3.192-.863,5.155-1.53,8.153-.365,1.632-.647,3.326-1.1,4.941-.376,1.315-1.536,2.681-2.091,3.97-.384.89-.63,1.878-.937,2.788s-1.691,1.545-1.833,2.708a27.5,27.5,0,0,0-.153,4.447c.045.844.491,1.726.533,2.573a6.134,6.134,0,0,1-.892,2.064,26.654,26.654,0,0,1-1.8,2.747c-1.648,2.133-2.577,2.964-1.176,5.359a15.33,15.33,0,0,0-.971,2.1c-.431,1.663-.467,3.451-.96,5.1-.051.17-.839,1.086-.971,1.333A15.944,15.944,0,0,0,553,338.994c-.151,1.195.119,2.5-.09,3.68-.016.085-1.479,4.992-1.625,5.246-.563.96-1.561,1.914-2.023,2.894-.375.795-.289,1.856-.6,2.682-.2.539-.833,1.066-1.015,1.6a7.4,7.4,0,0,0,.215,3.432c.143.72.489,1.816,1.568,2.034l.037.647.559.539c-2.749,2.471-3.055,3.451-3.559,6.823a7.725,7.725,0,0,1-.216,1.469,24.252,24.252,0,0,1-1.886,3.391c-.74,2.732-.5,2.191-2.27,4.29-.1,1.694-.034,3.544-.3,5.219-.1.6-.712,1.264-.822,1.871-.034.175.3.988.27,1.152a36.045,36.045,0,0,1-1.369,3.9c-.017.051-.375.431-.432.5l-1.186.107a24.589,24.589,0,0,0-4.44,4.61,16.89,16.89,0,0,1-.692,2.45c-.1.21-.9.937-.955,1.107a43.02,43.02,0,0,0-.951,4.71l.74,1.2c.251,1.1-2.764,2.481-3.482,3.081-1.789,1.495-.023,5.716,1.1,7.148l-1.5,3.47a1.751,1.751,0,0,1,.169,1.458l1.108,1.892.708.236.324.423-1.711,1.329-1.267-.353a12.506,12.506,0,0,1-2.351,3.213l-2.45-.055c-.874.473-2.967,1.906-3.188,2.817l.369.808c-2.306,1.378-1.371,1.636-1.834,3.4-.342,1.309-.914,2.651-1.36,3.943-.2.6-.9,1.078-1.056,1.911l-.9.534-.242.8c-1.539.522-.936,2.78-1.168,3.369-.924,2.347-3.056,4.206-4.961,6.068l-1.368.222c-2,1.726-2.495,5.032-3.8,7.118a33.714,33.714,0,0,1-4.054,5.037c-.048.045-1.762.79-1.942.863-.065.425-.431,1.489-.96,1.726a8.814,8.814,0,0,0-5.784,1.367l-1.486.963a5.874,5.874,0,0,0-1.013,2.682c.345,1.973,2.637,5.24,1.288,7.261l-.75.075c-.113.1-1.06.9-1.091.951a16.889,16.889,0,0,0-.634,2.069,15.532,15.532,0,0,1-2.1,3.289c-.119.042-.991.337-1.04.375-2.021,1.662-4.076,3.636-6.255,5.143a37.536,37.536,0,0,1-4.206,2.086c-1.178.584-3.009.794-4.293,1.315-1.7.691-2.976,2.282-4.541,3.127l-3.02,1.466c-.98.478-1.2.554-1.395.664-.153.088-.287.2-.777.553l-1.325.963a17.1,17.1,0,0,0-1.86,2.947c-1.4,2.77-.838,7.826-2.8,9.7-1.138,1.079-2.817,1.915-3.923,3.009-.051.052-1.563,2.379-1.618,2.487-.827,1.758-1.374,3.653-2.112,5.44-.589,1.431-1.435,2.883-1.917,4.331-.607,1.834-.947,3.818-1.41,5.678l-.284.187c-.913,2.075-1.726,4.255-2.767,6.286-.317.621-1.107,1.213-1.377,1.834l-3.68,8.506c-.089.2-.876.881-.995,1.111a21.3,21.3,0,0,0-1.245,3.257c-1.377,4.567.153,12.385,1.04,17.024.007.044-.063.153-.082.2-.081.2-.667,1.565-.683,1.68-.089.66.209,1.439.175,2.113-.046.863-.772,1.885-.729,2.722a22.172,22.172,0,0,0,.59,2.958l-.814,1.649a4.13,4.13,0,0,1,.355,2.8l.565.16.18.306c-4.961,3.076.281,5.562.369,7.03-.132.236-1.665,2.937-1.662,2.988.1,2.015-.075,4.087.844,6,.246.508,1.143,1.345.878,1.929-1.226.539-2.756,2.157-2.788,3.327l-1.221.34-.284.576.18.808c-.6,1.865-5.73,2.537-6.059,2.927a10.718,10.718,0,0,1-.6,3.467c-.872,3.51,1.186,5.318,3.418,8.112l-.147,1.343.74,1.231-.191.422a3.085,3.085,0,0,1-1.779.186l-.745-.389-1.056-2.542-1.357-.12a13.536,13.536,0,0,0-3.067-2.784l-1.778-.163-1.346-1.12-.431.729-.422.154-.554-1.04a5.835,5.835,0,0,0-2.988-.633l-3.451-2.049-.565.074-2.589,2.139c-.282,1.326-.819,4.589-2.933,4.753l-1.029-.31c-.633-.634-1.241-1.286-1.86-1.929l-.887.031c-.944-1.878,1.013-4.924.559-7.217-.531-2.688-2.76-3.272-3.991-4.863l-.77-1.69c-1.049-2.3-.944-2.975,1.605-4.569a2.431,2.431,0,0,1-.126-2.109c2.544-.709,2.049-3.373.783-4.763l.611-.8c.6-.13,2.119-.665,2.3-1.222-.381-1.117-1.51-5.9-2.959-6.311a6.531,6.531,0,0,1-.361-2.255l.1-.666c-1.281-3.344-3.2-7.01-3.309-10.537-1.284-1.007-1.442-2.655-2.461-3.737-.085-.092-2.838-2-3.128-2.2-.037-.027-.331-.695-.369-.771l-.01-.146c-.075-1.308-.647-5.1-1.786-5.891l.011-1.771c-.705-.953-3.273-4.388-4.375-5.045-1.013-.6-2.34-.5-3.273-1.9-.69-1.032-.686-2.306-1.531-3.387a13.826,13.826,0,0,0-3.451-3.006c-.814-.481-1.941-.763-2.8-1.2-1.016-.519-1.919-1.234-2.947-1.738-1.245-.613-2.679-1.12-3.98-1.662-2.14-.9-4.207-2.118-6.41-2.937-2.157-.8-4.86-1.521-6.277-3.173.854-.287,4.368,1.534,5.2,1.9l.654-.115.382-.576c-.027-.755-2.664-2.313-3.507-2.621l-1.316.344-.844-.238-1.224.766-.755-.157a7.673,7.673,0,0,1-2.1-2.309l.855-.371.28-.777-.8.108a7.221,7.221,0,0,1-1.162-2.845l-.475.842-.655-.079-.371-1.421-.795.116a5.632,5.632,0,0,1-1.079-.924l.275,1.766-.431.729c-.66-.075-2.27-2.823-2.708-3.466l-1.454-.5-.142.228.507,2.347,2.576,1.352.423.693-.431.344c-3.9-1.43-5.272-3.417-8.616-4.94l-1.274.382a1.489,1.489,0,0,1-.18-1.347,5.352,5.352,0,0,0-1.415-1.391A42.982,42.982,0,0,1,324.3,521c-1.51-1.287-2.88-2.917-4.256-4.314-.28-.282-.81-.483-1.078-.77C317.091,513.914,314.711,509.708,311.844,508.578Z" transform="translate(-271.885 -58.35)" fill="none" stroke="#112e53" stroke-miterlimit="10" stroke-width="1"/>
        <g id="组_282" data-name="组 282" transform="translate(13.928 16.076)">
          <path id="路径_268" data-name="路径 268" d="M876.823,104.525l-11.936,1.7-1.826,1.455.912,2.216c.869,1.165.494,2.146,1.207,3.38l1.81,2.413c-3.153.877-6.008,2.712-9.254,1.932l-5.23-2.736c-.522-.177-2.924-.154-3.379-.431-.057-.034-3.969-3.417-4.048-3.507-1.873-2.122-2.522-4.449-5.019-6.521A5.694,5.694,0,0,1,841.887,102l13.051-5.254" transform="translate(-554.688 -92.594)" fill="none" stroke="#112e53" stroke-miterlimit="3.864" stroke-width="0.5"/>
          <path id="路径_269" data-name="路径 269" d="M715.465,115.573a82.628,82.628,0,0,0,11.351,6.891c4.048,1.883,7.118,2.211,10.757,5.269a15.9,15.9,0,0,1,.628,6.122,28.908,28.908,0,0,1-3.062,3.978l-3.783,1.941a41.994,41.994,0,0,1-5.379.573L724.02,141.7a8.5,8.5,0,0,1-1.826,4.27l1.1,2.054-1.921,1.346-.038,3.207a23.735,23.735,0,0,1,5.149,3.507L726.126,159l1.826,2.63,1.51.323,3.02.654c2.547.058,3.165-.534,6.633.463l2.533,2.4c1.93,1.834,3.876,2.015,4.1,4.352a6.225,6.225,0,0,1-.279,2.525c-.4.616-1.747,1.546-2.072,2.133a5.675,5.675,0,0,0,.742,5.736c1.169,1.505,4.787,4.334,6.484,5.745l.74,4.084" transform="translate(-495.726 -101.505)" fill="none" stroke="#112e53" stroke-miterlimit="3.864" stroke-width="0.5"/>
          <path id="路径_270" data-name="路径 270" d="M783.593,209.574l5.265.108c3.939-1.138,6.687-3.919,9.168-6.494.388-.086,4.147-.909,4.276-.962a9.653,9.653,0,0,0,4.028-3.979,19,19,0,0,1,0-6.024c.153-.164,1.37-1.488,1.465-1.551a81.192,81.192,0,0,1,8.171-4.067c.755-.233,4.469-.778,4.9-.965,2.481-1.062,6.189-4.4,9.047-5.424,1.687-.6,3.991-.674,5.609-1.349a11.4,11.4,0,0,0,1.757-1.067l3.51-2.13c1.665-1.193,3.029-2.858,4.752-3.976,1.316-.853,3.371-1.258,4.657-2.129,0,0,2.544.625,3.146-.5a12.913,12.913,0,0,1,2.214-2.573,8.975,8.975,0,0,1-2.214-1.127c-.8-.647-1.81-2.253-.4-3.38a4.945,4.945,0,0,1,4.625-1.448c2.415.323,4.829,0,6.236-1.125s4.023-1.288,5.03-1.609a14.389,14.389,0,0,1,3.822-.97,39.122,39.122,0,0,1,5.155.992" transform="translate(-527.966 -121.029)" fill="none" stroke="#112e53" stroke-miterlimit="3.864" stroke-width="0.5"/>
          <path id="路径_271" data-name="路径 271" d="M687.937,232.083a35.892,35.892,0,0,1-5.247-.313c-1.207-.324-1.408-.971-2.817-2.092s-.2-2.574.8-3.861-1.609-2.575-1.81-4.024,0-2.574-2.614-3.861a3.618,3.618,0,0,1-2.212-3.7s-4.024-.161-3.488-1.326l.242-2.848a4.682,4.682,0,0,0,.12-1.425c-.007-.039-1.894-4.369-1.959-4.473-.963-1.553-2.8-2.522-4.573-3.343l-4.746-2.212c-2.088-.849-9.186-2.273-10.512-3.128-1.394-.9-2.662-2.708-3.913-3.8-1.2-1.039-5.575-1.742-4.168-3.834s2.012-3.22.6-4.347-1.81-1.608-3.02-.647-2.614,1.769-4.225.323a7.955,7.955,0,0,1-2.013-2.415,27.841,27.841,0,0,1-4.827.161c-2.415-.161-7.042-.8-5.432-2.737s2.415-2.091,1.007-3.379-4.225-1.77-5.634-1.77-3.822.161-3.822.161h-4.1" transform="translate(-445.62 -128.697)" fill="none" stroke="#112e53" stroke-miterlimit="3.864" stroke-width="0.5"/>
          <path id="路径_272" data-name="路径 272" d="M727.524,308.81a27.97,27.97,0,0,1,4.885-6.113c1.912-1.693,5.8-3.6,7.449-5.234,1.887-1.863.933-4.845,1.941-6.991,1.4-2.994,1.594-1.583,1.952-5.343" transform="translate(-501.432 -181.743)" fill="none" stroke="#112e53" stroke-miterlimit="3.864" stroke-width="0.5"/>
          <line id="直线_24" data-name="直线 24" y1="1.923" x2="10.283" transform="translate(215.809 127.067)" fill="none" stroke="#112e53" stroke-miterlimit="3.864" stroke-width="0.5"/>
          <path id="路径_273" data-name="路径 273" d="M569.388,235.763l3.983,3.275c2.351.877,6.432.927,8.935.795" transform="translate(-426.599 -158.382)" fill="none" stroke="#112e53" stroke-miterlimit="3.864" stroke-width="0.5"/>
          <path id="路径_274" data-name="路径 274" d="M593.936,243.492l1.089.552,2.2,1.107a3.973,3.973,0,0,1,.689,1.005l1.383,2.01c.552,1.175.546,2.9,1.234,3.991.259.411.6.539.983.878a29.308,29.308,0,0,0,7.7,4.775c3.02,1.465,5.069,1.479,7.715,3.8.793,2.781-.28,3.957-.246,6.123.027,1.795.709,3.647.742,5.442.031,1.67-.97.735-.115,3.336l.248.746c.317.107,3.828,1.359,3.917,1.366.4.044,11.395-.108,12.6-.171,3.775-.208,7.6-1.15,11.367-.462,3.538,1.551,5.817,4.979,7.6,7.724a5.792,5.792,0,0,1,.863,1.329c.033.1.107,3.648.113,3.984" transform="translate(-438.215 -162.04)" fill="none" stroke="#112e53" stroke-miterlimit="3.864" stroke-width="0.5"/>
          <path id="路径_275" data-name="路径 275" d="M752.974,343.637l-3.308-3.02a25.665,25.665,0,0,0-10.281.855l-3.917-1.465-1.329-2.626-3.559-.3c-.181-.2-2.18-2.373-2.206-2.433a24.2,24.2,0,0,1-.854-4.567" transform="translate(-501.431 -203.016)" fill="none" stroke="#112e53" stroke-miterlimit="3.864" stroke-width="0.5"/>
          <path id="路径_276" data-name="路径 276" d="M775.837,355.815l1.793.814,3.587,1.628a7.555,7.555,0,0,0,1.755.068,24.776,24.776,0,0,1,7.786,1.213,43.072,43.072,0,0,1,6.363,3.413c.413.027,4.638.317,4.771.3a54.294,54.294,0,0,0,7.946-3.193l-1.234-3.208a43.965,43.965,0,0,1,5.015.981c1.171.386,2.415.736,3.554,1.172,1.472.561,2.894,1.354,4.392,1.854,4.825,1.618,9.9,2.883,14.785,4.4" transform="translate(-524.295 -215.194)" fill="none" stroke="#112e53" stroke-miterlimit="3.864" stroke-width="0.5"/>
          <path id="路径_277" data-name="路径 277" d="M471.082,335.763c.619.924,1.207,1.863,1.789,2.8a40.292,40.292,0,0,1,4.522,2.05l2.041,1.882a28.24,28.24,0,0,0,6.579,4.774,96.753,96.753,0,0,0,10.73,4.848c3.02,1.084,6.795,1.517,9.656,2.838,2.964,1.366,2.115,2.221,6.076,2.861a4.219,4.219,0,0,0,1.015.164c3.991-.193,7.029-1.377,11.385-.852l1.824-1.453a6.743,6.743,0,0,1,2.928-4.564l2.61-1.032a7.3,7.3,0,0,1,1.3-.517l4.157-.444a11.531,11.531,0,0,1,2.079-.223c.057,0,4.828,1.142,4.9,1.175.188.081,2.2,1.8,2.566,2.044,1.161.767,2.55,1.448,3.783,2.147l2.944.1a31.327,31.327,0,0,1,3.667-1.833c.963-.314,2.4-.245,3.421-.48,1.408-.323,2.525-.889,4.023-1.186l3.182-.641a38.691,38.691,0,0,0,3.8-2.228c1.251-.655,3.02-1.186,4.144-1.935,2.293-1.531,4.463-3.544,6.6-5.237l1.482.1,1.827,1.754a107.271,107.271,0,0,1,9.77-8.921" transform="translate(-380.078 -204.757)" fill="none" stroke="#112e53" stroke-miterlimit="3.864" stroke-width="0.5"/>
          <path id="路径_278" data-name="路径 278" d="M734.885,379.254a74.31,74.31,0,0,1,9.6-6.451,7.856,7.856,0,0,0,.7-3.367,8.069,8.069,0,0,1,.653-2.657c.863-1.177,4.944-3.467,6.349-4.166.092-.311,1.048-3.606,1.1-3.69s2.9-2.838,3.175-3.1" transform="translate(-504.916 -215.196)" fill="none" stroke="#112e53" stroke-miterlimit="3.864" stroke-width="0.5"/>
          <path id="路径_279" data-name="路径 279" d="M428.975,411.073l2.812,1.24c3.156,3.427,3.388,5.979,5.435,9.112,1.766,2.7,6.511,5.228,9.729,4.263s4.225-.161,5.029.323a12.278,12.278,0,0,1,3.02,3.863,23.191,23.191,0,0,1,1.609,5.632c0,.971.4,2.413,1.609,2.413a41.964,41.964,0,0,1,5.23.971l3.02,1.932" transform="translate(-360.152 -241.343)" fill="none" stroke="#112e53" stroke-miterlimit="3.864" stroke-width="0.5"/>
          <path id="路径_280" data-name="路径 280" d="M500.146,434.142l2.415.483a5.745,5.745,0,0,0,3.02.483c1.206-.323,3.42.161,5.028.647s4.024.323,4.627-.324,5.23-4.024,5.834-4.988,2.415-3.863,2.415-3.863,2.413-1.932,4.023-1.932,1.005-1.448.6-2.9.4-2.253,1.41-4.185,1.81-1.448,4.625-.8,2.617,1.288,3.02,3.22,1.81,1.771,2.615.483a12.745,12.745,0,0,1,2.413-2.575,31.734,31.734,0,0,1,3.219.161c1.207.161,5.23-2.413,5.23-2.413a18.236,18.236,0,0,0,5.65-.7c.719-.739,3.623-4.206,3.972-4.453.108-.072,3.284-1.4,3.612-1.544l4.352.2c4.024-1.994,7.8-5.3,12.41-6.284,1.578-.337,3.658-.15,5.17-.576,1.983-.559,3.82-1.916,5.8-2.512l2.978-.385a9.96,9.96,0,0,1,1.488-.194c1.111,0,2.481.484,3.612.586,1.274.115,2.684.069,3.973.1l4.713-2.9a69.654,69.654,0,0,1,15.435,1.758" transform="translate(-393.832 -234.671)" fill="none" stroke="#112e53" stroke-miterlimit="3.864" stroke-width="0.5"/>
          <path id="路径_281" data-name="路径 281" d="M681.051,400.305c.369,1.274-.681,3.377-1.806,4.259-3.335,1.168-4.9,1.309-7.578,3.273l-1.219,2.613c-.083,1.218-.391,3.9.8,4.668,2.224,1.422,3.127,1.384,5.463,3.3l.723,2.812c-1.425,3.353-3.241,4.483-5.285,7.163-.8,1.052-1.28,2.315-2.049,3.388a34.355,34.355,0,0,1-4.828,5.421,30.455,30.455,0,0,1,2.147,13.63l-.075,1.873c-.417,1.281-1.492,2.61-2.05,3.873-1.941,4.357-3.691,8.785-5.533,13.17a17.271,17.271,0,0,0-.607,2.423,12.515,12.515,0,0,0-3.973,4.257l.855,1.744a9.912,9.912,0,0,1,4.828,3.977,27.857,27.857,0,0,1,.854,8.917c-.375,1.529-1.778,3.328-2.413,4.84a20.224,20.224,0,0,0-1.806,7.458c-3.4.755-8.461,2.122-11.325,3.864a22.379,22.379,0,0,1-2.032,8.233l-2.049,1.354c-1.868.147-9.462.97-10.985,1.925l-2.562,2.13a12.209,12.209,0,0,0-3.332,4.261l.722,1.646c-.361,1.646-3.212,3.952-4.808,4.839" transform="translate(-451.085 -236.247)" fill="none" stroke="#112e53" stroke-miterlimit="3.864" stroke-width="0.5"/>
          <path id="路径_282" data-name="路径 282" d="M298.325,672.253a122.258,122.258,0,0,0,12.923,4.54c2.265-.416,3.175.205,4.477-.416,1.458-.7,2.28-3.147,3.42-4.345a24.808,24.808,0,0,1,6.3-5.207c1.8-1.045,3.343-2.481,5.17-3.483a52.309,52.309,0,0,1,6.638-3.38,34.279,34.279,0,0,0,7.755-3.09c2.894-.129,5.871,1.254,7.356,1.267l5.22-.641,2.61-.323,4.47,1.458c.551,2.02,1.778,2.481,2.887,3.976a44.4,44.4,0,0,1,2.547,4.746l3.973,1.942c.576,2.373-1.13,3.405-1.805,5.325-.043.122-.727,4.013-.723,4.071s1.22,2.756,1.331,3c-1.834,2.953,1.382,6.371,4.352,7.949l3.251-.287a29.271,29.271,0,0,1,4.58-2.61A39.175,39.175,0,0,0,390,687.912a40.994,40.994,0,0,0,5.187-.382" transform="translate(-298.325 -357.657)" fill="none" stroke="#112e53" stroke-miterlimit="3.864" stroke-width="0.5"/>
          <line id="直线_25" data-name="直线 25" x1="4.251" y2="1.052" transform="translate(9.225 382.691)" fill="none" stroke="#112e53" stroke-miterlimit="3.864" stroke-width="0.5"/>
          <path id="路径_283" data-name="路径 283" d="M405.152,890.446c0-.4-.028-4.807,0-4.913.534-1.912,4.863-8.485,5.779-10.434-.97-2.279-3.849-8.484-3.02-10.942l1.834-6.56a34.314,34.314,0,0,0,1.694-5c.081-.422-1.122-4.654-1.122-5.437,0-3.207,2.491-8.22,3.65-11.292.186-.492,1.861-3.387,1.989-3.894,2.4.16,8.887,1.748,10.863,1.127.025-.009,4.53-.561,4.626-.647,1.24-1.029,3.352-3.2,4.627-4.185,1.942-1.5,3.415-4.816,6.233-4.454,2.732.349,4.126,2.983,6.789,3.6,3.883.323,6.336-1.395,9.824-1.834a45.739,45.739,0,0,1,5.456,1.463c1.629.71,2.975,2.191,4.6,2.92l2.589.584,1.294.293a14.053,14.053,0,0,0,6.31-2.618c2.064-.432,6.027.463,7.891,1.078" transform="translate(-348.872 -436.649)" fill="none" stroke="#112e53" stroke-miterlimit="3.864" stroke-width="0.5"/>
          <path id="路径_284" data-name="路径 284" d="M405.186,624.749a3.235,3.235,0,0,1-2.415.971c-1.609,0-2.415.8-4.023.971s-3.02,1.125-2.011,2.091,1.005.971,1.005,2.253a2.325,2.325,0,0,0,2.212,2.254c1.207.161,3.823.8,4.422,2.091a2.427,2.427,0,0,0,4.225.647c1.81-1.932,2.212-2.735,3.218-2.413s4.627,1.769,5.432-.647,1.005-2.575-.6-3.863a32.734,32.734,0,0,1-3.42-3.539c-.8-.8-1.608.97-2.011,1.768s-2.214.484-2.214-.8-.4-1.288-1.408-2.253S405.186,624.749,405.186,624.749Z" transform="translate(-344.735 -342.078)" fill="none" stroke="#112e53" stroke-miterlimit="3.864" stroke-width="0.5"/>
          <path id="路径_285" data-name="路径 285" d="M312.135,606.487a19.294,19.294,0,0,1,3.895,1.343c1.007.647,3.02-1.609,5.029-.484s7.242,1.771,7.242-.97-.6-6.759,1.81-4.184,3.219,2.091,4.024.647a23.253,23.253,0,0,1,3.217-3.861,6.5,6.5,0,0,1,4.025-1.449,16.765,16.765,0,0,0,3.42-.161s.6-3.218,1.608-3.057a4.587,4.587,0,0,0,4.225-1.127,48.283,48.283,0,0,1,3.622-3.22,5.565,5.565,0,0,0,2.815-1.286c.8-.971,4.627-1.287,5.432-.161a2.187,2.187,0,0,0,3.22.483c1.005-.8,4.422-2.575,6.839-2.092,1.659.331,2.558.971,3.611,1.019l.942,3.044,2.716,1.788a4.011,4.011,0,0,0,2.085,1.551c1.106.161,2.614.324,3.217.886a3.812,3.812,0,0,0,2.215.8c.5,0,6.938.483,7.744.725a7.554,7.554,0,0,0,2.614-.161l1.911-1.125,3.533-.122-.324,1.915.914,1.585a9.4,9.4,0,0,1,2.413-1.127c.906-.161,1.408-.161,1.911.242a5.467,5.467,0,0,0,3.721.241,4.58,4.58,0,0,1,3.32,0,6.218,6.218,0,0,0,3.117.647c.5-.161,1.007-1.046.8-2.334s-1.006-2.091-.5-2.815a13.529,13.529,0,0,1,1.306-1.529l2.314-2.495" transform="translate(-304.86 -324.514)" fill="none" stroke="#112e53" stroke-miterlimit="3.864" stroke-width="0.5"/>
          <path id="路径_286" data-name="路径 286" d="M771.56,256.956s-.252,2.46-1.26,3.1.2,2.413,1.007,3.379.4,1.932-.6,2.575-2.615,1.288-2.615,2.252.6.8-1.207,1.609-4.023,1.127-4.828.161-1.207-1.771-2.212-.971-1.976.947-1.592,2.727" transform="translate(-515.932 -168.411)" fill="none" stroke="#112e53" stroke-miterlimit="3.864" stroke-width="0.5"/>
          <path id="路径_287" data-name="路径 287" d="M592.009,200.4a37.813,37.813,0,0,1,3.105,3.128,2.848,2.848,0,0,0,1.207.964l5.231.161s3.418,2.253,4.422,3.057a8.149,8.149,0,0,1,2.614,4.023,10.579,10.579,0,0,1,.8,4.668c-.2,1.449-1.008,1.449-2.012.647a15.744,15.744,0,0,1-2.614-2.253,2.007,2.007,0,0,0-2.795-.5l-.023.016c-.8.647-4.023,3.059-4.023,3.059l-1.81,1.769a19.468,19.468,0,0,0-2.615.161c-.8.161-.788,2.782-.494,3.8" transform="translate(-437.303 -141.646)" fill="none" stroke="#112e53" stroke-miterlimit="3.864" stroke-width="0.5"/>
          <path id="路径_288" data-name="路径 288" d="M781.781,98.6c-2.415.647-2.415,1.125-3.02,2.252s-3.02,5.793.2,6.115,3.822,0,4.828.647a2.491,2.491,0,0,1,1.407,2.253c.2,1.288.8,4.5.6,5.149s1.812.971-1.408,1.127-2.815.97-2.815,2.253,0,2.573,1.206,3.54,2.212.8,2.614-.8,1.812-1.769,2.415-.8,3.02,2.253,3.02,3.22a2.238,2.238,0,0,0,1.609,1.932c.8.323,3.02,1.127,3.217,2.574s.6,1.449,3.22,1.609,3.822,0,5.432.161,2.815-.8,1.206-1.771a4.276,4.276,0,0,1-2.413-3.379c-.2-1.449-.4-4.185,2.413-4.185s4.225-.161,5.03-.8,1.006-1.287,0-1.932-5.632-1.127-4.225-2.415a3.668,3.668,0,0,0,1.207-3.378c0-.971-.4-1.287.6-2.092s.6-1.449-.4-2.253-2.215-1.769-3.22-1.769-2.415-.647-1.207-1.609,1.609-2.9.2-3.7-2.012-1.127-2.012-2.735-1.207-3.541-1.207-4.507.6-1.769-1.608-2.252-2.617-3.38-4.225-1.609-1.41,2.415-3.42,2.736-1.812,1.125-3.02,2.091l-3.02,2.415A5.438,5.438,0,0,1,781.781,98.6Z" transform="translate(-524.999 -88.868)" fill="none" stroke="#112e53" stroke-miterlimit="3.864" stroke-width="0.5"/>
          <path id="路径_289" data-name="路径 289" d="M425.778,467.531c-.6,1.127-4.225,1.127-6.639,1.448s-.8,2.413.8,3.54-.4,2.092-.8,3.38a3.419,3.419,0,0,1-1.81,2.413c-1.207.8-.2,2.415.2,3.541s1.206,1.449,0,3.54-3.568,5.618-3.185,7.4c.3,1.4.507,3.295,1.655,4.49,2.714,2.826,7.758,3.584,11.272,6.263-3.4.372-8.365,2.75-11.081,4.273l-6.538-2L403,506.7l-3.973-2.7-11.557-2.324-7.981-.556-6.9-2.975-5.189-.977-8.383,1.72-9.5.556-2.589-.093-3.928-1.426" transform="translate(-319.464 -268.06)" fill="none" stroke="#112e53" stroke-miterlimit="3.864" stroke-width="0.5"/>
          <path id="路径_290" data-name="路径 290" d="M481.948,544.007a30.5,30.5,0,0,1,3.35,3.326c.8,1.125,1.812,2.735-1.006,3.7s-.4,4.989-.4,4.989l.4,4.345a10.736,10.736,0,0,1-1.609,3.7c-1.005,1.127-.4,5.632-.4,5.632a32.216,32.216,0,0,0,3.22-1.608c1.005-.647,1.408.8,2.212,2.252s6.236-.8,7.242-1.287a29.814,29.814,0,0,0,3.02-1.93s5.25,2.589,5.393,2.6a40.074,40.074,0,0,1,10.74,2.818c.093.048,1.861,1.67,2.05,1.842a38.275,38.275,0,0,1-.722,3.775c-.33,1.094-1.247,2.3-1.444,3.39-.528,2.9,1.747,6.363,1.691,9.4.336.193,3.607,2.088,3.744,2.133l5.663,1.169c1.985.1,4.266-.607,6.273-.576,2.064.034,4.567.539,6.634.783a45.543,45.543,0,0,0,11.1.978,20.011,20.011,0,0,1,6.16,4.174,7.084,7.084,0,0,1,.361,4.941C554,606.821,551.3,607,549.23,608.713a11.409,11.409,0,0,0,.474,4.651c3.109,1.919,7.034,2.7,9.905,4.853a5.777,5.777,0,0,1-.723,4.941c.825,1.328,1.821,2.7,2.529,4.069.747,1.444,1.095,3.158,1.941,4.555l1.692,1.455c4.035,1.892,8.029,3.911,12.188,5.632,1.993-.311,4.007-.586,6.025-.77l1.006.617,2.014,1.229c1.894,1.863,2.985,4.493,4.714,6.5.108.118,1.941,1.871,2.035,1.942.827.586,2.006,1.021,2.906,1.553,2.511,1.483,4.94,3.169,7.241,4.854,1.807-.266,7.037-1.1,8.553-1.928l.483-1c1.526-3.179.539-2.212.715-5.1a25.72,25.72,0,0,1,1.693-6.392l5.3-11.362c1.032-2.215,1.442-3.523,2.65-5.681l2.889-3.291a22.914,22.914,0,0,0,3.5-4.549c1.031-2.373-.078-5.486-1.462-7.658l.279-.937c.7-2.347.992-2.354,2.971-4,2.106-1.755,5.577-4.892,9.047-4.545,1.421.742,3.344,3.775,3.984,4.954" transform="translate(-385.22 -304.251)" fill="none" stroke="#112e53" stroke-miterlimit="3.864" stroke-width="0.5"/>
          <path id="路径_291" data-name="路径 291" d="M463.213,639.795a10.81,10.81,0,0,1-5.476,1.952l-2.589,2.7-1.635.48-3.268.961c-.041.018-2.753,2.405-2.795,2.46a41.313,41.313,0,0,0-2.6,5.113,20.621,20.621,0,0,0-6.875,4.768,6.788,6.788,0,0,1-1.356,1.271c-1.774,1.033-4.825,1.306-6.539,2.373l-2.953,2.955-1.477,1.478c-1.588.183-3.493-.021-4.979.289-2.265.472-3.288,2.773-5.435,3.289a12.9,12.9,0,0,1-5.66-2.814l-2.507,1.352a68.663,68.663,0,0,1,.228,11.043c.1,1.633-.663,6.205-1.806,7.55-1.07,1.265-3.235,2.265-4.447,3.485l-2.5,3.162c-3.517,4.454-5.9,9.449-10.275,13.49a38.958,38.958,0,0,1-3.973,2.612c-1.754,1.2-3.427,2.481-5.187,3.675-2.73,1.851-6.6,3.99-8.8,6.191a9.662,9.662,0,0,0-1.039,1.421l-2.078,2.841c-.663,1.2-.906,2.719-1.445,3.972-.518,1.2-1.21,2.4-1.805,3.581-2.355,1.23-3.537.488-5.435.863-2.391.48-4.49,2.3-6.747,2.9a6.091,6.091,0,0,1-1.287.095c-4.458.333-4.752-.471-8.712-.88h-2.9c-4.365,0-6.552.512-10.853-.849l-4.092-1.294" transform="translate(-310.432 -349.58)" fill="none" stroke="#112e53" stroke-miterlimit="3.864" stroke-width="0.5"/>
          <path id="路径_292" data-name="路径 292" d="M574,694.272c-1.812.378-3.718.882-5.55,1.155-1.676.251-3.814.1-5.416.48-.081.018-4.237,1.769-4.352,1.834-1.489.863-3.559,2.814-5.094,3.9a4.46,4.46,0,0,0-1.046.742c-.037.047-2.459,4.48-2.527,4.645-.524,1.25-.522,2.742-1.084,3.973-1.272,2.788-4.93,4.291-5.531,7.356-.487,2.481,1.043,7.032.836,8.334-.014.084-2.335,5.351-2.509,5.717-.125.262-1.078,1.7-1.1,1.84-.286,1.424.171,3.331.13,4.845-1.464,1.173-6.014,5.749-6.633,7.064-.125.266-.811,4.519-.95,5.134-.323,1.455-.8,2.912-1.2,4.359.746,2.424,2.481,4.46,4.226,6.464a7.686,7.686,0,0,1,1.21,1.39l.733,3,.368,1.5a42.683,42.683,0,0,0,1.2,4.86,44.13,44.13,0,0,1,4.979,2.337c1.154.763,2.493,3.035,2.186,4.277l-2.071,2.235a9.9,9.9,0,0,0,.854,4.961c-.579,1.848-4.01,3.327-5.948,4.076-.89.344-2.028.423-2.912.774-.365.146-1.962,1.206-2.186,1.261-2.049.511-6.233.653-8.971,1.256-2.265,1.313-1.966,3.894-3.155,5.633-1.233,1.8-3.379,3.38-4.733,5.146a18.233,18.233,0,0,0-1.444,2.912,30.347,30.347,0,0,0-2.072,4.371,13.484,13.484,0,0,0,.494,7.777c.743,1.632,2.39,3.406,2.913,5.056.125.4-.055,5.922-.134,6.9a73.18,73.18,0,0,0,5.094,5.544l.249,1.459c-1.524,1.626-3.581,1.9-4.848,2.912l-1.381,1.748-.692.874a6.552,6.552,0,0,0,.971,4.082,20.34,20.34,0,0,0,5.817,3.114c3.353,3.371,2.083,9.258,3.517,13.415,1.924,2.274,6.092,3.064,9.22,3.8.576.708,2.866,2.747,3.991,2.92.995.151,1.577.12,2.589.195l5.166.4" transform="translate(-400.333 -375.36)" fill="none" stroke="#112e53" stroke-miterlimit="3.864" stroke-width="0.5"/>
        </g>
      </g>
      <g id="屏東" transform="translate(301.009 553.924)">
        <path id="Path_362" data-name="Path 362" d="M533.592,1049.284c0,4.772-8.639,13.666-8.639,13.666s-8.639-8.894-8.639-13.666a8.639,8.639,0,0,1,17.278,0Z" transform="translate(-516.314 -1040.645)" fill="#bd4910"/>
        <path id="Path_363" data-name="Path 363" d="M533.129,1052.482a4.084,4.084,0,1,1-4.084-4.084A4.084,4.084,0,0,1,533.129,1052.482Z" transform="translate(-520.406 -1044.314)" fill="#fff"/>
      </g>
      <g id="台南" transform="translate(205.272 400.42)">
        <path id="Path_366" data-name="Path 366" d="M351.85,757.882c0,4.772-8.639,13.666-8.639,13.666s-8.639-8.894-8.639-13.666a8.639,8.639,0,0,1,17.278,0Z" transform="translate(-334.572 -749.243)" fill="#bd4910"/>
        <path id="Path_367" data-name="Path 367" d="M351.388,761.08A4.084,4.084,0,1,1,347.3,757,4.084,4.084,0,0,1,351.388,761.08Z" transform="translate(-338.664 -752.912)" fill="#fff"/>
      </g>
      <g id="嘉義" transform="translate(199.987 338.748)">
        <path id="Path_368" data-name="Path 368" d="M341.817,640.807c0,4.772-8.639,13.666-8.639,13.666s-8.639-8.894-8.639-13.666a8.639,8.639,0,0,1,17.278,0Z" transform="translate(-324.539 -632.168)" fill="#bd4910"/>
        <path id="Path_369" data-name="Path 369" d="M341.354,644a4.084,4.084,0,1,1-4.084-4.084A4.084,4.084,0,0,1,341.354,644Z" transform="translate(-328.631 -635.836)" fill="#fff"/>
      </g>
      <g id="雲林" transform="translate(211.269 290.453)">
        <path id="Path_370" data-name="Path 370" d="M363.235,549.126c0,4.772-8.639,13.666-8.639,13.666s-8.639-8.894-8.639-13.666a8.639,8.639,0,1,1,17.278,0Z" transform="translate(-345.957 -540.487)" fill="#bd4910"/>
        <path id="Path_371" data-name="Path 371" d="M362.773,552.324a4.084,4.084,0,1,1-4.084-4.084A4.084,4.084,0,0,1,362.773,552.324Z" transform="translate(-350.049 -544.156)" fill="#fff"/>
      </g>
      <g id="彰化" transform="translate(244.813 249.471)">
        <path id="Path_372" data-name="Path 372" d="M426.913,471.328c0,4.771-8.639,13.666-8.639,13.666s-8.639-8.895-8.639-13.666a8.639,8.639,0,0,1,17.278,0Z" transform="translate(-409.635 -462.689)" fill="#bd4910"/>
        <path id="Path_373" data-name="Path 373" d="M426.45,474.526a4.084,4.084,0,1,1-4.084-4.084A4.084,4.084,0,0,1,426.45,474.526Z" transform="translate(-413.727 -466.358)" fill="#fff"/>
      </g>
      <g id="金門" transform="translate(111.343 155.386)">
        <path id="Path_374" data-name="Path 374" d="M173.541,292.724c0,4.771-8.639,13.665-8.639,13.665s-8.639-8.894-8.639-13.665a8.639,8.639,0,1,1,17.278,0Z" transform="translate(-156.263 -284.085)" fill="#bd4910"/>
        <path id="Path_375" data-name="Path 375" d="M173.078,295.921a4.084,4.084,0,1,1-4.084-4.084A4.084,4.084,0,0,1,173.078,295.921Z" transform="translate(-160.355 -287.753)" fill="#fff"/>
      </g>
      <g id="連江" transform="translate(117.004 30.568)">
        <path id="Path_376" data-name="Path 376" d="M184.288,55.776c0,4.772-8.639,13.666-8.639,13.666s-8.639-8.894-8.639-13.666a8.639,8.639,0,0,1,17.278,0Z" transform="translate(-167.01 -47.137)" fill="#bd4910"/>
        <path id="Path_377" data-name="Path 377" d="M183.826,58.974a4.084,4.084,0,1,1-4.084-4.084A4.084,4.084,0,0,1,183.826,58.974Z" transform="translate(-171.102 -50.806)" fill="#fff"/>
      </g>
      <g id="台中" transform="translate(294.818 203.831)">
        <path id="Path_378" data-name="Path 378" d="M521.839,384.688c0,4.772-8.639,13.666-8.639,13.666s-8.639-8.894-8.639-13.666a8.639,8.639,0,0,1,17.278,0Z" transform="translate(-504.561 -376.049)" fill="#bd4910"/>
        <path id="Path_379" data-name="Path 379" d="M521.377,387.886a4.084,4.084,0,1,1-4.084-4.084A4.084,4.084,0,0,1,521.377,387.886Z" transform="translate(-508.653 -379.718)" fill="#fff"/>
      </g>
      <g id="苗栗" transform="translate(313.382 156.453)">
        <path id="Path_380" data-name="Path 380" d="M557.081,294.748c0,4.771-8.639,13.665-8.639,13.665s-8.639-8.894-8.639-13.665a8.639,8.639,0,1,1,17.278,0Z" transform="translate(-539.803 -286.109)" fill="#bd4910"/>
        <path id="Path_381" data-name="Path 381" d="M556.619,297.945a4.084,4.084,0,1,1-4.084-4.084A4.084,4.084,0,0,1,556.619,297.945Z" transform="translate(-543.895 -289.777)" fill="#fff"/>
      </g>
      <g id="新竹" transform="translate(343.815 107.709)">
        <path id="Path_382" data-name="Path 382" d="M614.852,202.216c0,4.772-8.639,13.666-8.639,13.666s-8.639-8.894-8.639-13.666a8.639,8.639,0,1,1,17.278,0Z" transform="translate(-597.574 -193.577)" fill="#bd4910"/>
        <path id="Path_383" data-name="Path 383" d="M614.389,205.414a4.084,4.084,0,1,1-4.084-4.084A4.084,4.084,0,0,1,614.389,205.414Z" transform="translate(-601.666 -197.246)" fill="#fff"/>
      </g>
      <g id="基隆" transform="translate(478.364 47.85)">
        <path id="Path_384" data-name="Path 384" d="M870.273,88.584c0,4.771-8.639,13.665-8.639,13.665S853,93.355,853,88.584a8.639,8.639,0,1,1,17.278,0Z" transform="translate(-852.995 -79.945)" fill="#bd4910"/>
        <path id="Path_385" data-name="Path 385" d="M869.81,91.781a4.084,4.084,0,1,1-4.084-4.084A4.084,4.084,0,0,1,869.81,91.781Z" transform="translate(-857.087 -83.613)" fill="#fff"/>
      </g>
      <g id="台北" transform="translate(442.732 44.293)">
        <path id="Path_386" data-name="Path 386" d="M802.63,81.831c0,4.771-8.639,13.666-8.639,13.666s-8.639-8.895-8.639-13.666a8.639,8.639,0,1,1,17.278,0Z" transform="translate(-785.352 -73.192)" fill="#2ca6e0"/>
        <path id="Path_387" data-name="Path 387" d="M802.167,85.029a4.084,4.084,0,1,1-4.084-4.084A4.084,4.084,0,0,1,802.167,85.029Z" transform="translate(-789.444 -76.861)" fill="#fff"/>
      </g>
      <g id="新北" transform="translate(471.334 88.152)">
        <path id="Path_388" data-name="Path 388" d="M856.927,165.09c0,4.772-8.639,13.666-8.639,13.666s-8.639-8.894-8.639-13.666a8.639,8.639,0,0,1,17.278,0Z" transform="translate(-839.649 -156.451)" fill="#bd4910"/>
        <path id="Path_389" data-name="Path 389" d="M856.464,168.287a4.084,4.084,0,1,1-4.084-4.084A4.084,4.084,0,0,1,856.464,168.287Z" transform="translate(-843.741 -160.119)" fill="#fff"/>
      </g>
      <g id="宜蘭" transform="translate(479.851 167.285)">
        <path id="Path_390" data-name="Path 390" d="M873.095,315.311c0,4.771-8.639,13.665-8.639,13.665s-8.639-8.894-8.639-13.665a8.639,8.639,0,1,1,17.278,0Z" transform="translate(-855.817 -306.672)" fill="#bd4910"/>
        <path id="Path_391" data-name="Path 391" d="M872.632,318.508a4.084,4.084,0,1,1-4.084-4.084A4.084,4.084,0,0,1,872.632,318.508Z" transform="translate(-859.909 -310.34)" fill="#fff"/>
      </g>
      <g id="花蓮" transform="translate(423.031 308.711)">
        <path id="Path_392" data-name="Path 392" d="M765.231,583.787c0,4.772-8.639,13.666-8.639,13.666s-8.639-8.894-8.639-13.666a8.639,8.639,0,0,1,17.278,0Z" transform="translate(-747.953 -575.148)" fill="#bd4910"/>
        <path id="Path_393" data-name="Path 393" d="M764.769,586.985a4.084,4.084,0,1,1-4.084-4.084A4.084,4.084,0,0,1,764.769,586.985Z" transform="translate(-752.045 -578.817)" fill="#fff"/>
      </g>
      <g id="南投" transform="translate(337.532 272.492)">
        <path id="Path_394" data-name="Path 394" d="M602.925,515.03c0,4.772-8.639,13.666-8.639,13.666s-8.639-8.894-8.639-13.666a8.639,8.639,0,0,1,17.278,0Z" transform="translate(-585.647 -506.391)" fill="#bd4910"/>
        <path id="Path_395" data-name="Path 395" d="M602.462,518.227a4.084,4.084,0,1,1-4.084-4.084A4.084,4.084,0,0,1,602.462,518.227Z" transform="translate(-589.739 -510.059)" fill="#fff"/>
      </g>
      <g id="台東" transform="translate(355.603 434.625)" opacity="0.62">
        <path id="Path_396" data-name="Path 396" d="M637.23,822.814c0,4.771-8.639,13.665-8.639,13.665s-8.639-8.894-8.639-13.665a8.639,8.639,0,1,1,17.278,0Z" transform="translate(-619.952 -814.175)" fill="#bd4910"/>
        <path id="Path_397" data-name="Path 397" d="M636.768,826.011a4.084,4.084,0,1,1-4.084-4.084A4.084,4.084,0,0,1,636.768,826.011Z" transform="translate(-624.044 -817.844)" fill="#fff"/>
      </g>
      <g id="蘭嶼" transform="translate(449.757 557.959)">
        <path id="Path_398" data-name="Path 398" d="M815.966,1056.944c0,4.771-8.639,13.665-8.639,13.665s-8.639-8.894-8.639-13.665a8.639,8.639,0,1,1,17.278,0Z" transform="translate(-798.688 -1048.305)" fill="#bd4910"/>
        <path id="Path_399" data-name="Path 399" d="M815.5,1060.141a4.084,4.084,0,1,1-4.084-4.084A4.084,4.084,0,0,1,815.5,1060.141Z" transform="translate(-802.78 -1051.973)" fill="#fff"/>
      </g>
      <g id="澎湖" transform="translate(99.379 299.82)">
        <path id="Path_400" data-name="Path 400" d="M150.829,566.908c0,4.771-8.639,13.665-8.639,13.665s-8.639-8.894-8.639-13.665a8.639,8.639,0,0,1,17.278,0Z" transform="translate(-133.551 -558.269)" fill="#bd4910"/>
        <path id="Path_401" data-name="Path 401" d="M150.366,570.105a4.084,4.084,0,1,1-4.084-4.084A4.084,4.084,0,0,1,150.366,570.105Z" transform="translate(-137.643 -561.938)" fill="#fff"/>
      </g>
      <path id="Path_402" data-name="Path 402" d="M667.162,113.093S481.6,221.151,525.389,623.181" transform="translate(-216.434 -47.781)" fill="none" stroke="#1ea7e7" stroke-miterlimit="10" stroke-width="0.75" stroke-dasharray="12"/>
      <path id="Path_403" data-name="Path 403" d="M601.433,343.716s187.033-80,104.734-229" transform="translate(-255.585 -48.548)" fill="none" stroke="#1ea6e6" stroke-miterlimit="10" stroke-width="0.75" stroke-dasharray="12"/>
      <path id="Path_404" data-name="Path 404" d="M346.931,530.2S196.816,118.183,572.5,114.591" transform="translate(-121.133 -48.49)" fill="none" stroke="#2693df" stroke-miterlimit="10" stroke-width="0.75" stroke-dasharray="12"/>
      <path id="Path_405" data-name="Path 405" d="M343.855,471.516S268.707,121.78,581.315,116.591" transform="translate(-129.944 -49.436)" fill="none" stroke="#2693df" stroke-miterlimit="10" stroke-width="0.75" stroke-dasharray="12"/>
      <g id="桃圓" transform="translate(358.159 69.392)">
        <path id="Path_406" data-name="Path 406" d="M642.082,129.477c0,4.771-8.639,13.665-8.639,13.665s-8.639-8.894-8.639-13.665a8.639,8.639,0,1,1,17.278,0Z" transform="translate(-624.804 -120.838)" fill="#bd4910"/>
        <path id="Path_407" data-name="Path 407" d="M641.619,132.675a4.084,4.084,0,1,1-4.084-4.084A4.084,4.084,0,0,1,641.619,132.675Z" transform="translate(-628.896 -124.507)" fill="#fff"/>
      </g>
      <path id="Path_408" data-name="Path 408" d="M642.452,129.982s6.159-63.412,83.719-25.147" transform="translate(-274.997 -38.064)" fill="none" stroke="#2794e0" stroke-miterlimit="10" stroke-width="0.75" stroke-dasharray="12"/>
      <path id="Path_409" data-name="Path 409" d="M613.139,174.341s-17.386-87.863,98.194-62.6" transform="translate(-260.685 -44.981)" fill="none" stroke="#2693df" stroke-miterlimit="10" stroke-width="0.75" stroke-dasharray="12"/>
      <path id="Path_410" data-name="Path 410" d="M550.109,219.455S498.6,62.236,679.458,108.257" transform="translate(-228.088 -41.499)" fill="none" stroke="#1ea7e7" stroke-miterlimit="10" stroke-width="0.75" stroke-dasharray="12"/>
      <path id="Path_411" data-name="Path 411" d="M505.483,268.4S413.857,59.382,653.2,109" transform="translate(-202.026 -42.238)" fill="none" stroke="#2794e0" stroke-miterlimit="10" stroke-width="0.75" stroke-dasharray="12"/>
      <path id="Path_412" data-name="Path 412" d="M320.394,410.144S191.045,103.6,563.139,116.483" transform="translate(-112.295 -49.198)" fill="none" stroke="#2794e0" stroke-miterlimit="10" stroke-width="0.75" stroke-dasharray="12"/>
      <path id="Path_413" data-name="Path 413" d="M424.985,320.456s-28.646-192.012,197.722-205.17" transform="translate(-171.533 -48.819)" fill="none" stroke="#2693df" stroke-miterlimit="10" stroke-width="0.75" stroke-dasharray="12"/>
      <path id="Path_414" data-name="Path 414" d="M346.011,360.758S235.472,119.461,576.75,115.286" transform="translate(-126.629 -48.819)" fill="none" stroke="#2794e0" stroke-miterlimit="10" stroke-width="0.75" stroke-dasharray="12"/>
      <path id="Path_415" data-name="Path 415" d="M636.352,506.081S872.474,363,723.284,116.286" transform="translate(-272.11 -49.292)" fill="none" stroke="#1ea7e7" stroke-miterlimit="10" stroke-width="0.75" stroke-dasharray="12"/>
      <path id="Path_416" data-name="Path 416" d="M763.353,378.265s171.76-109.292,18.978-264.979" transform="translate(-332.21 -47.872)" fill="none" stroke="#1ea7e7" stroke-miterlimit="10" stroke-width="0.75" stroke-dasharray="12"/>
      <path id="Path_417" data-name="Path 417" d="M839.344,238.777s87.969-89.769-36.592-122.491" transform="translate(-350.854 -49.292)" fill="none" stroke="#1fa7e7" stroke-miterlimit="10" stroke-width="0.75" stroke-dasharray="12"/>
      <path id="Path_418" data-name="Path 418" d="M830.354,160.239s19.171-37.852-28.6-42.4" transform="translate(-350.381 -50.026)" fill="none" stroke="#1ea7e7" stroke-miterlimit="10" stroke-width="0.75" stroke-dasharray="12"/>
      <path id="Path_419" data-name="Path 419" d="M837.385,113.032s-15.806-21.239-35.633-2.9" transform="translate(-350.381 -42.849)" fill="none" stroke="#2794e0" stroke-miterlimit="10" stroke-width="0.75" stroke-dasharray="12"/>
      <path id="Path_420" data-name="Path 420" d="M183.41,53.011S345.59-47.4,508.611,66.5" transform="translate(-57.767 0)" fill="none" stroke="#2794e0" stroke-miterlimit="10" stroke-width="0.75" stroke-dasharray="12"/>
      <path id="Path_421" data-name="Path 421" d="M172.663,200.746s68.83-217.5,330.862-111.2" transform="translate(-52.681 -22.79)" fill="none" stroke="#2794e0" stroke-miterlimit="10" stroke-width="0.75" stroke-dasharray="12"/>
      <path id="Path_422" data-name="Path 422" d="M149.619,363.283s-7.262-320.009,342.8-255.223" transform="translate(-41.77 -41.301)" fill="none" stroke="#2794e0" stroke-miterlimit="10" stroke-width="0.75" stroke-dasharray="12"/>
      <path id="Path_423" data-name="Path 423" d="M812.269,629.243s322.327-252.828-6.517-511.481" transform="translate(-352.274 -49.99)" fill="none" stroke="#1fa7e7" stroke-miterlimit="10" stroke-width="0.75" stroke-dasharray="12"/>
      <g id="Group_318" data-name="Group 318" transform="translate(299.992 373.33)">
        <path id="Path_424" data-name="Path 424" d="M526.554,703.293a5.9,5.9,0,1,1-6.5-5.286A5.925,5.925,0,0,1,526.554,703.293Z" transform="translate(-514.57 -697.891)" fill="#e58a00"/>
        <path id="Path_425" data-name="Path 425" d="M526.16,703.02a5.905,5.905,0,1,1-6.488-5.168A5.865,5.865,0,0,1,526.16,703.02Z" transform="translate(-514.384 -697.817)" fill="#ffe100"/>
        <path id="Path_426" data-name="Path 426" d="M514.421,704.3a5.914,5.914,0,0,1,11.761-1.252Z" transform="translate(-514.392 -697.821)" fill="#f9d000"/>
        <path id="Path_427" data-name="Path 427" d="M526.05,704.256a4.628,4.628,0,1,1-5.085-4.05A4.6,4.6,0,0,1,526.05,704.256Z" transform="translate(-515.537 -698.935)" fill="#da8000"/>
        <path id="Path_428" data-name="Path 428" d="M526.131,704.529a4.5,4.5,0,1,1-4.93-3.846A4.423,4.423,0,0,1,526.131,704.529Z" transform="translate(-515.702 -699.161)" fill="#f8b900"/>
        <path id="Path_429" data-name="Path 429" d="M517.278,709.074v0a4.478,4.478,0,0,0,8.9-.947v0Z" transform="translate(-515.753 -702.696)" fill="#f29606" opacity="0.2"/>
        <path id="Path_430" data-name="Path 430" d="M523.386,702.527l-.831.155.116.587c-1.006.359-1.414,1.016-1.246,1.862a1.337,1.337,0,0,0,.5.823,2.551,2.551,0,0,0,1.35.342l.313,1.579a1.451,1.451,0,0,1-1.25-.76l-.613.846a2.092,2.092,0,0,0,1.981.734l.127.71.916-.156-.153-.705a2.12,2.12,0,0,0,1.1-.766,1.5,1.5,0,0,0,.238-1.2,1.64,1.64,0,0,0-.415-.792,1.2,1.2,0,0,0-.587-.37,9.244,9.244,0,0,0-1-.129l-.277-1.4a.906.906,0,0,1,.765.517l.78-.418a1.691,1.691,0,0,0-1.677-.89Zm-1.1,2.3a.575.575,0,0,1,.138-.541.945.945,0,0,1,.4-.241l.256,1.291Q522.388,705.32,522.289,704.822Zm2.744,2a.7.7,0,0,1-.145.605.947.947,0,0,1-.466.3l-.294-1.48Q524.927,706.289,525.033,706.823Z" transform="translate(-517.698 -700.046)" fill="#dd8000"/>
        <path id="Path_431" data-name="Path 431" d="M522.815,702.617l-.831.155.116.587c-1.007.358-1.415,1.016-1.246,1.862a1.336,1.336,0,0,0,.5.823,2.546,2.546,0,0,0,1.35.342l.313,1.579a1.144,1.144,0,0,1-1.07-.709l-.562.818a1.691,1.691,0,0,0,1.75.712l.127.71.916-.156-.153-.706a2.112,2.112,0,0,0,1.1-.765,1.5,1.5,0,0,0,.239-1.2,1.641,1.641,0,0,0-.415-.793,1.2,1.2,0,0,0-.587-.37,9.079,9.079,0,0,0-1-.129l-.277-1.4a.906.906,0,0,1,.765.517l.78-.418a1.692,1.692,0,0,0-1.677-.889Zm-1.1,2.3a.574.574,0,0,1,.138-.54.946.946,0,0,1,.4-.242l.256,1.292Q521.817,705.41,521.718,704.912Zm2.744,2a.7.7,0,0,1-.145.605.943.943,0,0,1-.466.3l-.294-1.48Q524.355,706.38,524.462,706.913Z" transform="translate(-517.428 -700.089)" fill="#ffec1e"/>
      </g>
    </g>
  </g>
</svg>
