<svg xmlns="http://www.w3.org/2000/svg" width="116" height="116" viewBox="0 0 116 116">
<style type="text/css">
  .rotate {
    animation: rotate 5s linear infinite;
    transform-box: fill-box;
    transform-origin: center;
}

@keyframes rotate {
  from { transform: rotate(0deg); }
  to { transform: rotate(360deg); }
}
</style>
  <g id="Group_694" data-name="Group 694" transform="translate(-0.447 -0.381)">
    <g id="累積放款金額-01" transform="translate(9.998 22.789)">
      <path id="路径_342" data-name="路径 342" d="M12.763,73.339A48.034,48.034,0,0,1,9.928,56.8,48.628,48.628,0,0,1,23.79,22.617" transform="translate(-9.927 -22.617)" fill="none" stroke="#2664a5" stroke-linecap="round" stroke-linejoin="round" stroke-width="1"/>
      <path id="路径_343" data-name="路径 343" d="M104.512,56.531a50.044,50.044,0,0,1-2.679,16.227A47.734,47.734,0,0,1,80.725,98.589" transform="translate(-9.367 -22.349)" fill="none" stroke="#2664a5" stroke-linecap="round" stroke-linejoin="round" stroke-width="1"/>
    </g>
    <g id="Group_676" data-name="Group 676" transform="translate(26.653 28.029)">
      <path id="Path_1312" data-name="Path 1312" d="M86.8,61.647a1.015,1.015,0,0,1-1.015-1.015V58.6a1.015,1.015,0,0,1,2.031,0v2.031A1.015,1.015,0,0,1,86.8,61.647Z" transform="translate(-25.982 -27.581)" fill="#195ca0"/>
      <path id="Path_1313" data-name="Path 1313" d="M86.8,68.8a1.015,1.015,0,0,1-1.015-1.016v-3.6a1.015,1.015,0,0,1,2.031,0v3.6A1.016,1.016,0,0,1,86.8,68.8Z" transform="translate(-25.982 -27.536)" fill="#195ca0"/>
      <path id="Path_1314" data-name="Path 1314" d="M86.8,74.365a1.015,1.015,0,0,1-1.015-1.015V71.319a1.015,1.015,0,0,1,2.031,0V73.35A1.015,1.015,0,0,1,86.8,74.365Z" transform="translate(-25.982 -27.48)" fill="#195ca0"/>
      <path id="Path_1315" data-name="Path 1315" d="M84.2,84.536H30.538a4.092,4.092,0,0,1-4.087-4.088V44.4a4.092,4.092,0,0,1,4.087-4.088H84.2A4.093,4.093,0,0,1,88.287,44.4V58.738a1.015,1.015,0,0,1-2.031,0V44.4A2.059,2.059,0,0,0,84.2,42.344H30.538A2.058,2.058,0,0,0,28.482,44.4V80.448a2.059,2.059,0,0,0,2.056,2.057H84.2a2.06,2.06,0,0,0,2.057-2.057V73.587a1.015,1.015,0,1,1,2.031,0v6.861A4.093,4.093,0,0,1,84.2,84.536Z" transform="translate(-26.451 -27.717)" fill="#195ca0"/>
      <path id="Path_1316" data-name="Path 1316" d="M65.31,58.968H49.428a19.357,19.357,0,0,1-7.759-1.615L27.061,51a1.015,1.015,0,0,1,.81-1.862L42.48,55.491a17.317,17.317,0,0,0,6.949,1.446H65.31a17.32,17.32,0,0,0,6.949-1.446l14.608-6.355A1.015,1.015,0,1,1,87.676,51L73.068,57.353A19.349,19.349,0,0,1,65.31,58.968Z" transform="translate(-26.451 -27.648)" fill="#195ca0"/>
      <path id="Path_1317" data-name="Path 1317" d="M72.358,42.443H42.148a1.015,1.015,0,0,1-1.015-1.015V30.862a3.049,3.049,0,0,1,3.046-3.046H70.327a3.05,3.05,0,0,1,3.046,3.046V41.428A1.015,1.015,0,0,1,72.358,42.443Zm-29.2-2.031H71.342v-9.55a1.016,1.016,0,0,0-1.015-1.015H44.179a1.017,1.017,0,0,0-1.016,1.015Z" transform="translate(-26.335 -27.816)" fill="#195ca0"/>
      <path id="Path_1318" data-name="Path 1318" d="M66.853,42.406H47.567a1.015,1.015,0,0,1-1.016-1.015v-6.87a2.033,2.033,0,0,1,2.031-2.031H65.838a2.032,2.032,0,0,1,2.03,2.031v6.87A1.015,1.015,0,0,1,66.853,42.406ZM48.582,40.375H65.838V34.521H48.582Z" transform="translate(-26.292 -27.779)" fill="#195ca0"/>
      <path id="Path_1319" data-name="Path 1319" d="M59.5,68.275H54.833a3.049,3.049,0,0,1-3.046-3.046V57.89A1.015,1.015,0,0,1,52.8,56.875h8.733A1.016,1.016,0,0,1,62.55,57.89v7.34A3.049,3.049,0,0,1,59.5,68.275Zm-5.686-9.37V65.23a1.017,1.017,0,0,0,1.015,1.016H59.5A1.017,1.017,0,0,0,60.52,65.23V58.906Z" transform="translate(-26.251 -27.586)" fill="#195ca0"/>
      <path id="Path_1320" data-name="Path 1320" d="M61.342,63.554H52.991a1.015,1.015,0,0,1,0-2.031h8.352a1.015,1.015,0,1,1,0,2.031Z" transform="translate(-26.249 -27.549)" fill="#195ca0"/>
      <path id="Path_1321" data-name="Path 1321" d="M46.654,78.761H33.982a2.247,2.247,0,0,1-2.245-2.245V62.539a1.015,1.015,0,1,1,2.031,0V76.517a.214.214,0,0,0,.214.214H46.654a1.015,1.015,0,1,1,0,2.031Z" transform="translate(-26.409 -27.549)" fill="#195ca0"/>
    </g>
    <path id="Path_1322" class="rotate" data-name="Path 1322" d="M50.482,113.688A56.63,56.63,0,1,1,93.588,101.2" transform="translate(0 0)" fill="none" stroke="#2664a5" stroke-linecap="round" stroke-linejoin="round" stroke-width="1"/>
  </g>
</svg>
