<svg xmlns="http://www.w3.org/2000/svg" width="112.397" height="112.154" viewBox="0 0 112.397 112.154">
  <g id="普匯你的手機ATM-01" transform="translate(-0.5 -0.501)">
    <path id="Path_1397" data-name="Path 1397" d="M68.593,20.512v58.3a7.171,7.171,0,0,1-7.19,7.19s-2.032-.313-2.032-2.032c0-1.876,2.032-2.032,2.032-2.032a4.942,4.942,0,0,0,3.283-4.689v-61.9a4.87,4.87,0,0,0-4.846-4.846H58.9A2.169,2.169,0,0,0,57.026,11.6,3.4,3.4,0,0,1,53.9,13.79H36.081A3.4,3.4,0,0,1,32.954,11.6a1.829,1.829,0,0,0-1.719-1.25H30.3A4.87,4.87,0,0,0,25.451,15.2V79.128a2.047,2.047,0,0,1-1.876,2.032A1.938,1.938,0,0,1,21.7,79.128V13.79A7.171,7.171,0,0,1,28.89,6.6H61.716a7.177,7.177,0,0,1,6.878,5.315v.313C68.281,12.071,68.593,12.852,68.593,20.512Z" transform="translate(11.656 3.143)" fill="none" stroke="#195ca0" stroke-linecap="round" stroke-linejoin="round" stroke-miterlimit="10" stroke-width="1"/>
    <path id="Path_1398" data-name="Path 1398" d="M66.651,107.125v-3.908l1.563-7.347V78.051A2.634,2.634,0,0,0,65.4,75.238a2.738,2.738,0,0,0-2.814,2.97V76.332s0-2.814-2.657-2.814c-2.5,0-2.5,2.814-2.5,2.814v0a2.814,2.814,0,0,0-5.627,0V62.42s0-2.814-2.657-2.814a2.6,2.6,0,0,0-2.657,2.657V81.646s0-4.533-3.439-4.533c-3.126,0-3.126,3.908-3.126,3.908v13.13a3.181,3.181,0,0,0,.938,2.345l5.158,5.94a2.809,2.809,0,0,1,.625,1.407v3.126c0,7.034-5.784,4.846-5.784,4.846A56.142,56.142,0,0,1,1,57.731C1,25.062,27.885-1.042,60.4,1.146c27.823,1.876,50.332,25.01,51.9,53.3A57.131,57.131,0,0,1,96.037,97.9" transform="translate(0 0)" fill="none" stroke="#195ca0" stroke-linecap="round" stroke-linejoin="round" stroke-miterlimit="10" stroke-width="1"/>
    <path id="Path_1399" data-name="Path 1399" d="M9.214,65.532A47.651,47.651,0,0,1,6.4,49.119,48.252,48.252,0,0,1,20.155,15.2" transform="translate(3.041 7.986)" fill="none" stroke="#195ca0" stroke-linecap="round" stroke-linejoin="round" stroke-miterlimit="10" stroke-width="1"/>
    <path id="Path_1400" data-name="Path 1400" d="M75.3,36.9A49.682,49.682,0,0,1,72.646,53,47.368,47.368,0,0,1,51.7,78.635" transform="translate(28.55 20.205)" fill="none" stroke="#195ca0" stroke-linecap="round" stroke-linejoin="round" stroke-miterlimit="10" stroke-width="1"/>
    <g id="Group_690" data-name="Group 690" transform="translate(41.574 23.55)">
      <g id="Group_684" data-name="Group 684" transform="translate(17.355)">
        <path id="Path_1401" data-name="Path 1401" d="M47.5,16.741a6.063,6.063,0,0,0-2.36-1.157,7.023,7.023,0,0,0-7.081,2.97h0a9,9,0,0,1,5.737.672A9.63,9.63,0,0,1,48.2,24.432a17.353,17.353,0,0,1,1.125,6.956.962.962,0,0,1-.016.219,22.829,22.829,0,0,1-.266,2.657c-.109.719-.266,1.454-.453,2.2h0a39.684,39.684,0,0,0,1.923-10.942,15.58,15.58,0,0,0-1.016-6.1A7.214,7.214,0,0,0,47.5,16.741Z" transform="translate(-38.06 -15.433)" fill="none" stroke="#195ca0" stroke-linecap="round" stroke-linejoin="round" stroke-width="0.5"/>
        <path id="Path_1402" data-name="Path 1402" d="M38.07,17.746h0a9,9,0,0,1,5.737.672,9.63,9.63,0,0,1,4.408,5.205,17.353,17.353,0,0,1,1.125,6.956.962.962,0,0,1-.016.219,22.827,22.827,0,0,1-.266,2.657c-.109.719-.266,1.454-.453,2.2h0a39.684,39.684,0,0,0,1.923-10.942C50.012,13.307,38.07,17.746,38.07,17.746Z" transform="translate(-38.054 -14.609)" fill="none" stroke="#195ca0" stroke-linecap="round" stroke-linejoin="round" stroke-width="0.5" opacity="0.82"/>
        <path id="Path_1403" data-name="Path 1403" d="M50.534,25.542a15.581,15.581,0,0,0-1.016-6.1,7.328,7.328,0,0,0-2.016-2.7,6.063,6.063,0,0,0-2.36-1.157,7.023,7.023,0,0,0-7.081,2.97C38.076,18.57,50.018,14.131,50.534,25.542Z" transform="translate(-38.06 -15.433)" fill="none" stroke="#195ca0" stroke-linecap="round" stroke-linejoin="round" stroke-width="0.5" opacity="0.21"/>
      </g>
      <g id="Group_685" data-name="Group 685" transform="translate(6.898 21.816)">
        <path id="Path_1404" data-name="Path 1404" d="M49.064,38.487a6.012,6.012,0,0,0,2.173-1.469,7,7,0,0,0,.922-7.628h0a8.994,8.994,0,0,1-3.439,4.642,9.741,9.741,0,0,1-6.706,1.25,17.487,17.487,0,0,1-6.6-2.47,1.3,1.3,0,0,1-.188-.125,21.4,21.4,0,0,1-2.173-1.547c-.563-.453-1.125-.953-1.688-1.485h0a39.223,39.223,0,0,0,8.535,7.1,15.4,15.4,0,0,0,5.8,2.141A7.037,7.037,0,0,0,49.064,38.487Z" transform="translate(-31.37 -29.39)" fill="none" stroke="#195ca0" stroke-linecap="round" stroke-linejoin="round" stroke-width="0.5"/>
        <path id="Path_1405" data-name="Path 1405" d="M52.159,29.39h0a8.994,8.994,0,0,1-3.439,4.642,9.741,9.741,0,0,1-6.706,1.25,17.487,17.487,0,0,1-6.6-2.47,1.3,1.3,0,0,1-.188-.125,21.4,21.4,0,0,1-2.173-1.547c-.563-.453-1.125-.953-1.688-1.485h0a39.223,39.223,0,0,0,8.535,7.1C50.08,41.973,52.159,29.39,52.159,29.39Z" transform="translate(-31.37 -29.39)" fill="none" stroke="#195ca0" stroke-linecap="round" stroke-linejoin="round" stroke-width="0.5" opacity="0.82"/>
        <path id="Path_1406" data-name="Path 1406" d="M36.84,36.752a15.4,15.4,0,0,0,5.8,2.141,7.467,7.467,0,0,0,3.345-.406,6.012,6.012,0,0,0,2.173-1.469,7,7,0,0,0,.922-7.628S47,41.973,36.84,36.752Z" transform="translate(-28.29 -29.39)" fill="none" stroke="#195ca0" stroke-linecap="round" stroke-linejoin="round" stroke-width="0.5" opacity="0.21"/>
      </g>
      <g id="Group_686" data-name="Group 686" transform="translate(0 3.293)">
        <path id="Path_1407" data-name="Path 1407" d="M27.024,28.4a5.972,5.972,0,0,0,.188,2.626,7,7,0,0,0,6.127,4.627h0a8.849,8.849,0,0,1-2.282-5.3,9.692,9.692,0,0,1,2.282-6.424,17.5,17.5,0,0,1,5.455-4.47c.063-.031.125-.063.2-.109a22.865,22.865,0,0,1,2.423-1.11c.688-.266,1.391-.5,2.126-.7h0A39.408,39.408,0,0,0,33.12,21.37a15.772,15.772,0,0,0-4.767,3.939A7.223,7.223,0,0,0,27.024,28.4Z" transform="translate(-26.957 -17.54)" fill="none" stroke="#195ca0" stroke-linecap="round" stroke-linejoin="round" stroke-width="0.5"/>
        <path id="Path_1408" data-name="Path 1408" d="M32.64,35.656h0a8.849,8.849,0,0,1-2.282-5.3,9.692,9.692,0,0,1,2.282-6.424,17.5,17.5,0,0,1,5.455-4.47c.063-.031.125-.063.2-.109a22.866,22.866,0,0,1,2.423-1.11c.688-.266,1.391-.5,2.126-.7h0a39.408,39.408,0,0,0-10.426,3.83C22.793,27.544,32.64,35.656,32.64,35.656Z" transform="translate(-26.258 -17.54)" fill="none" stroke="#195ca0" stroke-linecap="round" stroke-linejoin="round" stroke-width="0.5" opacity="0.82"/>
        <path id="Path_1409" data-name="Path 1409" d="M33.12,19.99a15.772,15.772,0,0,0-4.767,3.939,7.355,7.355,0,0,0-1.329,3.095,5.972,5.972,0,0,0,.188,2.626,7,7,0,0,0,6.127,4.627S23.492,26.164,33.12,19.99Z" transform="translate(-26.957 -16.16)" fill="none" stroke="#195ca0" stroke-linecap="round" stroke-linejoin="round" stroke-width="0.5" opacity="0.21"/>
      </g>
      <g id="Group_689" data-name="Group 689" transform="translate(8.82 11.734)">
        <g id="Group_687" data-name="Group 687" transform="translate(0 0.172)">
          <rect id="Rectangle_180" data-name="Rectangle 180" width="1.501" height="1.407" fill="none" stroke="#195ca0" stroke-linecap="round" stroke-linejoin="round" stroke-width="0.5"/>
          <path id="Path_1410" data-name="Path 1410" d="M33.042,24.62a.407.407,0,0,0-.422.406v5.3h1.032a.407.407,0,0,0,.422-.406v-5.3Z" transform="translate(-32.589 -22.166)" fill="none" stroke="#195ca0" stroke-linecap="round" stroke-linejoin="round" stroke-width="0.5"/>
        </g>
        <g id="Group_688" data-name="Group 688" transform="translate(3.533)">
          <path id="Path_1411" data-name="Path 1411" d="M40.5,24.269v-.922a.417.417,0,0,0-.422-.406H34.86v8.316h1.125a.4.4,0,0,0,.406-.391V28.02h3.6v-.938a.4.4,0,0,0-.406-.391h-3.2V24.237H40.5Z" transform="translate(-34.86 -22.94)" fill="none" stroke="#195ca0" stroke-linecap="round" stroke-linejoin="round" stroke-width="0.5"/>
          <path id="Path_1412" data-name="Path 1412" d="M45.965,24.269v-.922a.417.417,0,0,0-.422-.406h-6.5v.938a.4.4,0,0,0,.406.391h2.282v.063h0v6.925h1.11a.408.408,0,0,0,.391-.391h0V24.284h2.735Z" transform="translate(-32.506 -22.94)" fill="none" stroke="#195ca0" stroke-linecap="round" stroke-linejoin="round" stroke-width="0.5"/>
        </g>
      </g>
    </g>
  </g>
</svg>
