<svg xmlns="http://www.w3.org/2000/svg" width="111.467" height="111.039" viewBox="0 0 111.467 111.039">
  <g id="雙證件-01" transform="translate(-0.269 -0.419)">
    <g id="累積放款金額-01" transform="translate(9.638 22.318)">
      <path id="路径_342" d="M9.289,64.2A46.913,46.913,0,0,1,6.52,48.087a47.452,47.452,0,0,1,13.5-33.317" transform="translate(-6.52 -14.77)" fill="none" stroke="#2867a6" stroke-linecap="round" stroke-linejoin="round" stroke-width="1"/>
      <path id="路径_343" d="M74.666,36.31a48.614,48.614,0,0,1-2.614,15.808A46.407,46.407,0,0,1,51.48,77.283" transform="translate(18.062 -2.993)" fill="none" stroke="#2867a6" stroke-linecap="round" stroke-linejoin="round" stroke-width="1"/>
    </g>
    <path id="路径_1322" d="M49.1,110.9A55.155,55.155,0,1,1,91.106,98.742" transform="translate(0 0)" fill="none" stroke="#2867a6" stroke-linecap="round" stroke-linejoin="round" stroke-width="1"/>
    <g id="Group_685" data-name="Group 685" transform="translate(16.965 21.833)">
      <path id="Path_1506" data-name="Path 1506" d="M67.424,82.3,13.242,56.239a3.513,3.513,0,0,1-1.64-4.687l16.89-35.111a3.513,3.513,0,0,1,4.687-1.64L87.362,40.865A3.513,3.513,0,0,1,89,45.551L72.111,80.662A3.527,3.527,0,0,1,67.424,82.3Z" transform="translate(-11.256 -14.456)" fill="none" stroke="#2867a6" stroke-linecap="round" stroke-linejoin="round" stroke-width="1"/>
      <path id="Path_1507" data-name="Path 1507" d="M78.243,67.675H18.121a3.518,3.518,0,0,1-3.511-3.511V25.2a3.518,3.518,0,0,1,3.511-3.511H78.243A3.518,3.518,0,0,1,81.754,25.2V64.163A3.528,3.528,0,0,1,78.243,67.675Z" transform="translate(-9.423 -10.501)" fill="#f5f6f8" stroke="#2867a6" stroke-linecap="round" stroke-linejoin="round" stroke-width="1"/>
      <line id="Line_50" data-name="Line 50" x2="26.913" transform="translate(38.489 20.16)" fill="none" stroke="#2867a6" stroke-linecap="round" stroke-linejoin="round" stroke-width="1"/>
      <line id="Line_51" data-name="Line 51" x2="26.913" transform="translate(38.489 27.414)" fill="none" stroke="#2867a6" stroke-linecap="round" stroke-linejoin="round" stroke-width="1"/>
      <line id="Line_52" data-name="Line 52" x2="26.913" transform="translate(38.489 34.653)" fill="none" stroke="#2867a6" stroke-linecap="round" stroke-linejoin="round" stroke-width="1"/>
      <line id="Line_53" data-name="Line 53" x2="26.913" transform="translate(38.489 41.891)" fill="none" stroke="#2867a6" stroke-linecap="round" stroke-linejoin="round" stroke-width="1"/>
      <line id="Line_54" data-name="Line 54" x2="53.301" transform="translate(12.101 49.13)" fill="none" stroke="#2867a6" stroke-linecap="round" stroke-linejoin="round" stroke-width="1"/>
      <circle id="Ellipse_57" data-name="Ellipse 57" cx="5.847" cy="5.847" r="5.847" transform="translate(16.587 20.175)" fill="none" stroke="#2867a6" stroke-linecap="round" stroke-linejoin="round" stroke-width="1"/>
      <path id="Path_1508" data-name="Path 1508" d="M31.509,34.72c9.234,4.377,7.022,12.018,7.022,12.018H19.878s-1.98-8.26,6.79-12.018" transform="translate(-6.647 -3.377)" fill="none" stroke="#2867a6" stroke-linecap="round" stroke-linejoin="round" stroke-width="1"/>
    </g>
  </g>
</svg>
