<svg id="_4-01" data-name="4-01" xmlns="http://www.w3.org/2000/svg" xmlns:xlink="http://www.w3.org/1999/xlink" width="92.927" height="92.927" viewBox="0 0 92.927 92.927">
  <defs>
    <linearGradient id="linear-gradient" x1="-0.001" y1="0.5" x2="1.001" y2="0.5" gradientUnits="objectBoundingBox">
      <stop offset="0" stop-color="#81c3f3"/>
      <stop offset="1" stop-color="#157efb"/>
    </linearGradient>
    <linearGradient id="linear-gradient-2" x1="-0.015" y1="0.512" x2="0.978" y2="0.512" xlink:href="#linear-gradient"/>
    <linearGradient id="linear-gradient-3" x1="-0.015" y1="0.491" x2="0.978" y2="0.491" xlink:href="#linear-gradient"/>
    <linearGradient id="linear-gradient-4" x1="0.018" y1="0.491" x2="1.011" y2="0.491" xlink:href="#linear-gradient"/>
    <linearGradient id="linear-gradient-5" x1="-0.015" y1="0.515" x2="0.978" y2="0.515" xlink:href="#linear-gradient"/>
    <linearGradient id="linear-gradient-6" x1="0.009" y1="0.497" x2="1.001" y2="0.497" xlink:href="#linear-gradient"/>
    <linearGradient id="linear-gradient-7" x1="-0.015" y1="0.51" x2="0.978" y2="0.51" xlink:href="#linear-gradient"/>
    <linearGradient id="linear-gradient-8" x1="0.018" y1="0.51" x2="1.011" y2="0.51" xlink:href="#linear-gradient"/>
    <linearGradient id="linear-gradient-9" x1="-0.015" y1="0.506" x2="0.978" y2="0.506" xlink:href="#linear-gradient"/>
    <linearGradient id="linear-gradient-10" x1="0.009" y1="0.506" x2="1.001" y2="0.506" xlink:href="#linear-gradient"/>
    <linearGradient id="linear-gradient-11" x1="0.005" y1="0.506" x2="0.997" y2="0.506" xlink:href="#linear-gradient"/>
    <linearGradient id="linear-gradient-12" x1="0.018" y1="0.506" x2="1.011" y2="0.506" xlink:href="#linear-gradient"/>
    <linearGradient id="linear-gradient-13" x1="-0.011" y1="0.506" x2="0.982" y2="0.506" xlink:href="#linear-gradient"/>
    <linearGradient id="linear-gradient-14" x1="-0.015" y1="0.503" x2="0.978" y2="0.503" xlink:href="#linear-gradient"/>
  </defs>
  <g id="Group_527" data-name="Group 527" transform="translate(0 0)">
    <g id="Group_526" data-name="Group 526">
      <g id="Group_525" data-name="Group 525">
        <g id="Group_524" data-name="Group 524">
          <path id="Path_1126" data-name="Path 1126" d="M24.293,65.861A41.422,41.422,0,0,1,3.4,30" transform="translate(1.589 16.463)" fill="none" stroke="#036eb7" stroke-linecap="round" stroke-linejoin="round" stroke-width="1" opacity="0.8"/>
          <path id="Path_1127" data-name="Path 1127" d="M37.8,4.6A41.653,41.653,0,0,1,66.956,44.2" transform="translate(20.825 2.26)" fill="none" stroke="#036eb7" stroke-linecap="round" stroke-linejoin="round" stroke-width="1" opacity="0.8"/>
          <path id="Path_1128" data-name="Path 1128" d="M57.571,36A34.788,34.788,0,0,1,41.2,57.049" transform="translate(22.726 19.818)" fill="none" stroke="#036eb7" stroke-linecap="round" stroke-linejoin="round" stroke-width="1" opacity="0.6"/>
          <path id="Path_1129" data-name="Path 1129" d="M7.9,35.565A35.133,35.133,0,0,1,42.358,7.5" transform="translate(4.106 3.882)" fill="none" stroke="#036eb7" stroke-linecap="round" stroke-linejoin="round" stroke-width="1" opacity="0.6"/>
          <path id="Path_1130" data-name="Path 1130" d="M44.662,15.5a31.173,31.173,0,0,1,9.667,22.608,27.313,27.313,0,0,1-.624,6.237A30.6,30.6,0,0,1,41.7,63.055" transform="translate(23.006 8.355)" fill="none" stroke="#036eb7" stroke-linecap="round" stroke-linejoin="round" stroke-width="1" opacity="0.4"/>
          <path id="Path_1131" data-name="Path 1131" d="M11.036,43.455a31.071,31.071,0,0,1-.936-7.64A31.647,31.647,0,0,1,14.622,19.6" transform="translate(5.336 10.648)" fill="none" stroke="#036eb7" stroke-linecap="round" stroke-linejoin="round" stroke-width="1" opacity="0.4"/>
          <path id="Path_1132" data-name="Path 1132" d="M46.663.2A46.463,46.463,0,1,0,93.127,46.663,46.38,46.38,0,0,0,46.663.2m0,.936A45.528,45.528,0,1,1,1.136,46.663,45.581,45.581,0,0,1,46.663,1.136" transform="translate(-0.2 -0.2)" fill-rule="evenodd" fill="url(#linear-gradient)"/>
        </g>
      </g>
    </g>
  </g>
  <g id="Group_528" data-name="Group 528" transform="translate(33.366 28.221)">
    <path id="Path_1133" data-name="Path 1133" d="M32.3,20.483a2,2,0,0,1,.624-1.559,1.9,1.9,0,0,1,1.4-.624,2.132,2.132,0,0,1,2.183,2.183,2.131,2.131,0,0,1-2.183,2.183,1.52,1.52,0,0,1-1.4-.624,2,2,0,0,1-.624-1.559" transform="translate(-15.617 -18.3)" fill-rule="evenodd" fill="url(#linear-gradient-2)"/>
    <path id="Path_1134" data-name="Path 1134" d="M32.3,24.583a2,2,0,0,1,.624-1.559,1.9,1.9,0,0,1,1.4-.624,2.132,2.132,0,0,1,2.183,2.183,2.131,2.131,0,0,1-2.183,2.183,1.52,1.52,0,0,1-1.4-.624,2.234,2.234,0,0,1-.624-1.559" transform="translate(-15.617 -16.007)" fill-rule="evenodd" fill="url(#linear-gradient-3)"/>
    <path id="Path_1135" data-name="Path 1135" d="M28.8,24.583a2,2,0,0,1,.624-1.559,1.9,1.9,0,0,1,1.4-.624,2.132,2.132,0,0,1,2.183,2.183,2.132,2.132,0,0,1-2.183,2.183,1.52,1.52,0,0,1-1.4-.624,3.293,3.293,0,0,1-.624-1.559" transform="translate(-17.574 -16.007)" fill-rule="evenodd" fill="url(#linear-gradient-4)"/>
    <path id="Path_1136" data-name="Path 1136" d="M32.3,28.483a2,2,0,0,1,.624-1.559,1.9,1.9,0,0,1,1.4-.624,2.131,2.131,0,0,1,2.183,2.183,2,2,0,0,1-.624,1.559,1.885,1.885,0,0,1-1.559.468,1.52,1.52,0,0,1-1.4-.624,1.52,1.52,0,0,1-.624-1.4" transform="translate(-15.617 -13.827)" fill-rule="evenodd" fill="url(#linear-gradient-5)"/>
    <path id="Path_1137" data-name="Path 1137" d="M26.3,28.483a2,2,0,0,1,.624-1.559,1.9,1.9,0,0,1,1.4-.624,2.131,2.131,0,0,1,2.183,2.183,2.131,2.131,0,0,1-2.183,2.183,1.52,1.52,0,0,1-1.4-.624,2.77,2.77,0,0,1-.624-1.559" transform="translate(-18.972 -13.827)" fill-rule="evenodd" fill="url(#linear-gradient-6)"/>
    <path id="Path_1138" data-name="Path 1138" d="M32.3,31.983a2,2,0,0,1,.624-1.559,1.9,1.9,0,0,1,1.4-.624,2.205,2.205,0,0,1,1.559,3.742,2,2,0,0,1-1.559.624,1.52,1.52,0,0,1-1.4-.624,2,2,0,0,1-.624-1.559" transform="translate(-15.617 -11.87)" fill-rule="evenodd" fill="url(#linear-gradient-7)"/>
    <path id="Path_1139" data-name="Path 1139" d="M24,31.983a2,2,0,0,1,.624-1.559,1.9,1.9,0,0,1,1.4-.624,2.205,2.205,0,0,1,1.559,3.742,2,2,0,0,1-1.559.624,1.52,1.52,0,0,1-1.4-.624A2.77,2.77,0,0,1,24,31.983" transform="translate(-20.258 -11.87)" fill-rule="evenodd" fill="url(#linear-gradient-8)"/>
    <path id="Path_1140" data-name="Path 1140" d="M32.3,35.783a2,2,0,0,1,.624-1.559,1.9,1.9,0,0,1,1.4-.624,2.205,2.205,0,0,1,1.559,3.742,2,2,0,0,1-1.559.624,1.52,1.52,0,0,1-1.4-.624,2,2,0,0,1-.624-1.559" transform="translate(-15.617 -9.745)" fill-rule="evenodd" fill="url(#linear-gradient-9)"/>
    <path id="Path_1141" data-name="Path 1141" d="M28.7,35.783a2,2,0,0,1,.624-1.559,1.9,1.9,0,0,1,1.4-.624,2.205,2.205,0,0,1,1.559,3.742,2,2,0,0,1-1.559.624,1.52,1.52,0,0,1-1.4-.624,2.77,2.77,0,0,1-.624-1.559" transform="translate(-17.63 -9.745)" fill-rule="evenodd" fill="url(#linear-gradient-10)"/>
    <path id="Path_1142" data-name="Path 1142" d="M25.3,35.783a2,2,0,0,1,.624-1.559,1.9,1.9,0,0,1,1.4-.624,2.205,2.205,0,0,1,1.559,3.742,2,2,0,0,1-1.559.624,1.52,1.52,0,0,1-1.4-.624,2,2,0,0,1-.624-1.559" transform="translate(-19.531 -9.745)" fill-rule="evenodd" fill="url(#linear-gradient-11)"/>
    <path id="Path_1143" data-name="Path 1143" d="M21.6,35.783a2,2,0,0,1,.624-1.559,1.9,1.9,0,0,1,1.4-.624,2.205,2.205,0,0,1,1.559,3.742,2,2,0,0,1-1.559.624,1.52,1.52,0,0,1-1.4-.624,2.77,2.77,0,0,1-.624-1.559" transform="translate(-21.6 -9.745)" fill-rule="evenodd" fill="url(#linear-gradient-12)"/>
    <path id="Path_1144" data-name="Path 1144" d="M35.7,35.783a2,2,0,0,1,.624-1.559,1.9,1.9,0,0,1,1.4-.624,2.205,2.205,0,0,1,1.559,3.742,2,2,0,0,1-1.559.624,1.52,1.52,0,0,1-1.4-.624,2,2,0,0,1-.624-1.559" transform="translate(-13.716 -9.745)" fill-rule="evenodd" fill="url(#linear-gradient-13)"/>
    <path id="Path_1145" data-name="Path 1145" d="M32.3,39.583a2,2,0,0,1,.624-1.559,1.9,1.9,0,0,1,1.4-.624,2.183,2.183,0,1,1,0,4.366,1.52,1.52,0,0,1-1.4-.624,2,2,0,0,1-.624-1.559" transform="translate(-15.617 -7.62)" fill-rule="evenodd" fill="url(#linear-gradient-14)"/>
  </g>
</svg>
