<svg xmlns="http://www.w3.org/2000/svg" width="537.476" height="401.461" viewBox="0 0 537.476 401.461">
  <g id="手機線條圖-04" transform="translate(0.529 113.06)">
    <path id="Path_1248" data-name="Path 1248" d="M206.447,8.639S184.141-6.6,153.48,8.11,21.33,70.3,21.33,70.3-7.185,82.371,23.162,97.809,333.929,260.9,333.929,260.9s24.843,16.319,53.787,5c33.812-13.23,138.359-65.991,138.359-65.991s19.838-9.52,2.4-22.321Z" transform="translate(-3.626 -1.706)" fill="none" stroke="#036eb7" stroke-linecap="round" stroke-linejoin="round" stroke-width="1"/>
    <path id="Path_1249" data-name="Path 1249" d="M25.606,96.016c29.2,16.787,308,161.638,310.8,163.118l.123.061.115.077a62.5,62.5,0,0,0,30.462,8.524h0a55.233,55.233,0,0,0,20.727-3.8c33.3-13.031,137.071-65.347,138.167-65.9,1.924-.928,7.5-4.477,7.865-8.531.284-3.227-2.928-6.362-5.749-8.47l-322-168.92-.138-.092c-.092-.061-9.482-6.286-24.031-6.431a58.784,58.784,0,0,0-26.1,6.117C125.538,26.315,24.7,73.495,23.682,73.97l-.092.038s-13.721,6.516-8.164,13.8C15.426,87.814,17.726,91.485,25.606,96.016Z" transform="translate(-4.774 -2.626)" fill="none" stroke="#036eb7" stroke-linecap="round" stroke-linejoin="round" stroke-width="1"/>
    <path id="Path_1250" data-name="Path 1250" d="M526.8,199.084s11.5,2.821,11.582,19.24-13.943,23.739-13.943,23.739-121.357,55.7-141.157,65.331-48.713-2.69-48.713-2.69S41.944,150.125,26.207,142.882c0,0-19.087-8.072-23.341-21.317S9.956,96.782,15.9,93.77" transform="translate(-1.934 -23.2)" fill="none" stroke="#036eb7" stroke-linecap="round" stroke-linejoin="round" stroke-width="1"/>
    <path id="Path_1251" data-name="Path 1251" d="M35.056,131.54S27.8,142.363,34.4,152.305" transform="translate(-8.866 -32.019)" fill="none" stroke="#036eb7" stroke-linecap="round" stroke-linejoin="round" stroke-width="1"/>
    <path id="Path_1252" data-name="Path 1252" d="M32.019,130.03S25.374,140,29.712,150.09" transform="translate(-8.076 -31.666)" fill="none" stroke="#036eb7" stroke-linecap="round" stroke-linejoin="round" stroke-width="1"/>
    <path id="Path_1253" data-name="Path 1253" d="M427.666,337.58s-7.259,10.823-.652,20.765" transform="translate(-100.529 -80.122)" fill="none" stroke="#036eb7" stroke-linecap="round" stroke-linejoin="round" stroke-width="1"/>
    <path id="Path_1254" data-name="Path 1254" d="M424.629,336.06s-6.646,9.973-2.307,20.06" transform="translate(-99.738 -79.768)" fill="none" stroke="#036eb7" stroke-linecap="round" stroke-linejoin="round" stroke-width="1"/>
    <path id="Path_1255" data-name="Path 1255" d="M105.322,185.538,85.293,175.282a6.734,6.734,0,0,1-3.4-5.557h0c.069-2.039,1.709-2.867,3.649-1.847l20.029,10.256a6.734,6.734,0,0,1,3.4,5.557h0C108.9,185.73,107.261,186.557,105.322,185.538Z" transform="translate(-20.6 -40.4)" fill="none" stroke="#036eb7" stroke-linecap="round" stroke-linejoin="round" stroke-width="1"/>
    <path id="Path_1256" data-name="Path 1256" d="M58.883,162.224l-11.789-5.657a3.9,3.9,0,0,1-2.054-3.181h0c.008-1.188.951-1.694,2.093-1.127l11.789,5.657a3.9,3.9,0,0,1,2.054,3.181h0C60.968,162.285,60.026,162.791,58.883,162.224Z" transform="translate(-11.998 -36.801)" fill="none" stroke="#036eb7" stroke-linecap="round" stroke-linejoin="round" stroke-width="1"/>
    <path id="Path_1257" data-name="Path 1257" d="M150.322,209.163l-19.9-10.517a6.76,6.76,0,0,1-3.334-5.6h0c.092-2.039,1.748-2.844,3.672-1.8l19.9,10.517a6.76,6.76,0,0,1,3.334,5.6h0C153.9,209.4,152.246,210.213,150.322,209.163Z" transform="translate(-31.153 -45.85)" fill="none" stroke="#036eb7" stroke-linecap="round" stroke-linejoin="round" stroke-width="1"/>
    <ellipse id="Ellipse_50" data-name="Ellipse 50" cx="2.966" cy="1.855" rx="2.966" ry="1.855" transform="matrix(0.6, -0.8, 0.8, 0.6, 471.209, 235.228)" fill="none" stroke="#036eb7" stroke-linecap="round" stroke-linejoin="round" stroke-width="1"/>
    <ellipse id="Ellipse_51" data-name="Ellipse 51" cx="2.966" cy="1.855" rx="2.966" ry="1.855" transform="matrix(0.6, -0.8, 0.8, 0.6, 435.843, 251.69)" fill="none" stroke="#036eb7" stroke-linecap="round" stroke-linejoin="round" stroke-width="1"/>
    <path id="Path_1258" data-name="Path 1258" d="M601.461,315.88l-13.805,6.485c-1.955.92-3.541.023-3.526-1.985h0a6.609,6.609,0,0,1,3.6-5.335l13.805-6.485c1.955-.92,3.541-.023,3.526,1.985h0A6.626,6.626,0,0,1,601.461,315.88Z" transform="translate(-137.859 -73.263)" fill="none" stroke="#036eb7" stroke-linecap="round" stroke-linejoin="round" stroke-width="1"/>
    <path id="Path_1259" data-name="Path 1259" d="M141.763,49.912,125.674,57.47a3.385,3.385,0,0,1-3.434-.966h0c-.951-.973-.966-2.123-.031-2.568L138.3,46.378a3.385,3.385,0,0,1,3.434.966h0C142.683,48.318,142.7,49.467,141.763,49.912Z" transform="translate(-29.853 -12.096)" fill="none" stroke="#036eb7" stroke-linecap="round" stroke-linejoin="round" stroke-width="1"/>
    <path id="Path_1260" data-name="Path 1260" d="M158.314,44.322h0a3.385,3.385,0,0,1-3.434-.966h0c-.951-.973-.966-2.123-.031-2.568h0a3.385,3.385,0,0,1,3.434.966h0C159.234,42.728,159.249,43.885,158.314,44.322Z" transform="translate(-37.473 -10.791)" fill="none" stroke="#036eb7" stroke-linecap="round" stroke-linejoin="round" stroke-width="1"/>
    <path id="Path_1261" data-name="Path 1261" d="M33.862,93.681c29.58,15.722,305.424,160.3,308.2,161.761l.368.192.337.215a57.108,57.108,0,0,0,25.924,7.535c.452.015.912.031,1.372.031a49.268,49.268,0,0,0,18.512-3.4c32.462-12.709,133.346-63.5,137.653-65.676l.107-.054a12.245,12.245,0,0,0,1.6-.958,3.006,3.006,0,0,0,.138-4.768c-.015-.015-.031-.023-.046-.038a2.531,2.531,0,0,0-.452-.291L205.971,19.527l-.36-.245a41.886,41.886,0,0,0-19.57-5.412c-.406-.015-.82-.023-1.242-.031a52.949,52.949,0,0,0-23.479,5.534c-2.384,1.142-5.212,2.491-8.393,4.009h0c9.306,4.745,1.3,9.175,1.3,9.175s-60.8,27.725-71.7,32.854-17.469-.644-17.469-.644C45.551,73.912,32.812,79.876,31.225,80.62,31.217,80.612,19.045,85.809,33.862,93.681Z" transform="translate(-7.672 -4.539)" fill="none" stroke="#036eb7" stroke-linecap="round" stroke-linejoin="round" stroke-width="1"/>
  </g>
  <g id="硬幣-05" transform="translate(225.166 183.442)">
    <path id="Path_1262" data-name="Path 1262" d="M68.091,8.381l-8.608-5C53.254-.236,44.621.271,35.1,5.769,16.193,16.688.9,43.157.97,64.9,1,75.7,4.81,83.294,10.961,86.868q4.188,2.423,8.368,4.862" transform="translate(-0.97 -1.07)" fill="none" stroke="#036eb7" stroke-linecap="round" stroke-linejoin="round" stroke-width="1"/>
    <g id="Group_552" data-name="Group 552" transform="translate(0 0)">
      <path id="Path_1263" data-name="Path 1263" d="M68.091,8.381l-8.608-5C53.254-.236,44.621.271,35.1,5.769,16.193,16.688.9,43.157.97,64.9,1,75.7,4.81,83.294,10.961,86.868Q15.484,89.5,20,92.117" transform="translate(-0.97 -1.07)" fill="none" stroke="#036eb7" stroke-linecap="round" stroke-linejoin="round" stroke-width="1"/>
    </g>
    <path id="Path_1264" data-name="Path 1264" d="M46.652,12.48C27.743,23.4,12.46,49.876,12.52,71.611S27.966,102.117,46.884,91.2s34.2-37.4,34.14-59.131S65.578,1.56,46.652,12.48Z" transform="translate(-2.597 -2.016)" fill="none" stroke="#036eb7" stroke-linecap="round" stroke-linejoin="round" stroke-width="1"/>
    <path id="Path_1265" data-name="Path 1265" d="M48,23.4C33.518,31.759,21.817,52.025,21.86,68.674,21.9,85.306,33.681,92.033,48.165,83.665S74.351,55.023,74.308,38.391C74.265,21.742,62.469,15.041,48,23.4Z" transform="translate(-3.913 -3.71)" fill="none" stroke="#036eb7" stroke-linecap="round" stroke-linejoin="round" stroke-width="1"/>
    <path id="Path_1266" data-name="Path 1266" d="M60.775,55.239c-.026-9.7-12.371.077-12.388-4.553-.009-1.314,1.04-2.56,2.56-3.445a13.942,13.942,0,0,1,7.483-1.512l2.216-6.615A13.675,13.675,0,0,0,53.1,40.54l-.017-5.49-4.407,2.543.017,5.679c-4.029,3.213-6.563,7.517-6.555,11.615.026,9.519,12.371-.464,12.388,4.3,0,1.538-1.16,3.007-3.033,4.089-2.44,1.409-6.039,1.873-8.453.842L40.75,70.711c2.139.808,5.017.6,8.024-.6l.017,5.945L53.2,73.512l-.017-5.782C57.562,64.629,60.793,60.007,60.775,55.239Z" transform="translate(-6.575 -5.858)" fill="none" stroke="#036eb7" stroke-linecap="round" stroke-linejoin="round" stroke-width="1"/>
  </g>
  <g id="硬幣-05-2" data-name="硬幣-05" transform="translate(303.398 68.021)">
    <path id="Path_1262-2" data-name="Path 1262" d="M73.9,9.014,64.551,3.581C57.783-.349,48.4.2,38.058,6.176,17.512,18.041.9,46.8.97,70.43,1,82.164,5.143,90.416,11.827,94.3q4.551,2.632,9.092,5.284" transform="translate(-0.97 -1.07)" fill="none" stroke="#036eb7" stroke-linecap="round" stroke-linejoin="round" stroke-width="1"/>
    <g id="Group_552-2" data-name="Group 552" transform="translate(0 0)">
      <path id="Path_1263-2" data-name="Path 1263" d="M73.9,9.014,64.551,3.581C57.783-.349,48.4.2,38.058,6.176,17.512,18.041.9,46.8.97,70.43,1,82.164,5.143,90.416,11.827,94.3q4.915,2.857,9.82,5.7" transform="translate(-0.97 -1.07)" fill="none" stroke="#036eb7" stroke-linecap="round" stroke-linejoin="round" stroke-width="1"/>
    </g>
    <path id="Path_1264-2" data-name="Path 1264" d="M49.608,12.886C29.062,24.751,12.455,53.522,12.52,77.14S29.3,110.289,49.86,98.424s37.163-40.636,37.1-64.253S70.173,1.022,49.608,12.886Z" transform="translate(-1.738 -1.517)" fill="none" stroke="#036eb7" stroke-linecap="round" stroke-linejoin="round" stroke-width="1"/>
    <path id="Path_1265-2" data-name="Path 1265" d="M50.267,23.712c-15.739,9.083-28.453,31.1-28.407,49.2C21.907,90.98,34.705,98.289,50.444,89.2S78.9,58.074,78.851,40C78.8,21.91,65.987,14.629,50.267,23.712Z" transform="translate(-2.359 -2.316)" fill="none" stroke="#036eb7" stroke-linecap="round" stroke-linejoin="round" stroke-width="1"/>
    <path id="Path_1266-2" data-name="Path 1266" d="M62.51,56.987c-.028-10.539-13.442.084-13.461-4.948-.009-1.428,1.13-2.782,2.782-3.743a15.15,15.15,0,0,1,8.131-1.643l2.408-7.188a14.859,14.859,0,0,0-8.2,1.55l-.019-5.965-4.789,2.763.019,6.17c-4.378,3.491-7.132,8.168-7.123,12.621.028,10.343,13.442-.5,13.461,4.677,0,1.671-1.26,3.267-3.3,4.443-2.651,1.531-6.563,2.035-9.186.915L40.75,73.8c2.324.877,5.452.653,8.719-.653l.019,6.46,4.789-2.763-.019-6.283C59.019,67.191,62.529,62.168,62.51,56.987Z" transform="translate(-3.615 -3.33)" fill="none" stroke="#036eb7" stroke-linecap="round" stroke-linejoin="round" stroke-width="1"/>
  </g>
  <g id="硬幣-05-3" data-name="硬幣-05" transform="translate(225.166 0.644)">
    <path id="Path_1262-3" data-name="Path 1262" d="M76.532,9.3,66.841,3.672C59.83-.4,50.11.171,39.394,6.36,18.108,18.653.893,48.45.97,72.928,1,85.085,5.293,93.634,12.218,97.658q4.715,2.727,9.42,5.474" transform="translate(-0.97 -1.07)" fill="none" stroke="#036eb7" stroke-linecap="round" stroke-linejoin="round" stroke-width="1"/>
    <g id="Group_552-3" data-name="Group 552" transform="translate(0 0)">
      <path id="Path_1263-3" data-name="Path 1263" d="M76.532,9.3,66.841,3.672C59.83-.4,50.11.171,39.394,6.36,18.108,18.653.893,48.45.97,72.928,1,85.085,5.293,93.634,12.218,97.658q5.092,2.959,10.174,5.909" transform="translate(-0.97 -1.07)" fill="none" stroke="#036eb7" stroke-linecap="round" stroke-linejoin="round" stroke-width="1"/>
    </g>
    <path id="Path_1264-3" data-name="Path 1264" d="M50.944,13.07C29.658,25.363,12.452,55.17,12.52,79.638s17.389,34.343,38.685,22.051,38.5-42.1,38.434-66.568S72.25.778,50.944,13.07Z" transform="translate(-1.349 -1.291)" fill="none" stroke="#036eb7" stroke-linecap="round" stroke-linejoin="round" stroke-width="1"/>
    <path id="Path_1265-3" data-name="Path 1265" d="M51.29,23.852C34.984,33.263,21.812,56.077,21.86,74.82c.048,18.724,13.308,26.3,29.614,16.877S80.952,59.453,80.9,40.729C80.855,21.986,67.576,14.442,51.29,23.852Z" transform="translate(-1.656 -1.686)" fill="none" stroke="#036eb7" stroke-linecap="round" stroke-linejoin="round" stroke-width="1"/>
    <path id="Path_1266-3" data-name="Path 1266" d="M63.294,57.778c-.029-10.919-13.927.087-13.946-5.126-.01-1.48,1.17-2.882,2.882-3.878a15.7,15.7,0,0,1,8.424-1.7l2.5-7.447a15.394,15.394,0,0,0-8.491,1.605l-.019-6.18-4.961,2.863.019,6.393c-4.536,3.617-7.389,8.462-7.379,13.076.029,10.716,13.927-.522,13.946,4.845,0,1.731-1.306,3.385-3.414,4.6-2.747,1.586-6.8,2.108-9.517.948L40.75,75.2c2.408.909,5.648.677,9.033-.677l.019,6.693,4.961-2.863-.019-6.509C59.677,68.348,63.313,63.145,63.294,57.778Z" transform="translate(-2.277 -2.187)" fill="none" stroke="#036eb7" stroke-linecap="round" stroke-linejoin="round" stroke-width="1"/>
  </g>
</svg>
