<svg id="_5-01" data-name="5-01" xmlns="http://www.w3.org/2000/svg" xmlns:xlink="http://www.w3.org/1999/xlink" width="92.927" height="92.927" viewBox="0 0 92.927 92.927">
  <defs>
    <linearGradient id="linear-gradient" y1="0.502" x2="1" y2="0.502" gradientUnits="objectBoundingBox">
      <stop offset="0" stop-color="#81c3f3"/>
      <stop offset="1" stop-color="#157efb"/>
    </linearGradient>
    <linearGradient id="linear-gradient-2" x1="-0.001" y1="0.5" x2="1.001" y2="0.5" xlink:href="#linear-gradient"/>
  </defs>
  <g id="Group_529" data-name="Group 529" transform="translate(33.522 29.78)">
    <path id="Path_1146" data-name="Path 1146" d="M43.372,45.026a2.132,2.132,0,0,1,2.183-2.183,1.52,1.52,0,0,1,1.4.624,2.77,2.77,0,0,1,.624,1.559,2,2,0,0,1-.624,1.559,1.9,1.9,0,0,1-1.4.624A2,2,0,0,1,44,46.585a2.77,2.77,0,0,1-.624-1.559m0-4.678A2,2,0,0,1,44,38.79a1.9,1.9,0,0,1,1.4-.624,2.183,2.183,0,1,1,0,4.366,1.52,1.52,0,0,1-1.4-.624,2.77,2.77,0,0,1-.624-1.559m0-18.71A2,2,0,0,1,44,20.08a1.9,1.9,0,0,1,1.4-.624,2.234,2.234,0,0,1,1.559.624,2.261,2.261,0,0,1,0,3.118,2,2,0,0,1-1.559.624A1.52,1.52,0,0,1,44,23.2a2,2,0,0,1-.624-1.559M37.915,49.7a2,2,0,0,1,.624-1.559,1.9,1.9,0,0,1,1.4-.624,2.234,2.234,0,0,1,1.559.624,2.183,2.183,0,0,1-1.559,3.742,1.52,1.52,0,0,1-1.4-.624,4.048,4.048,0,0,1-.624-1.559m0-14.188a1.52,1.52,0,0,1,.624-1.4,1.9,1.9,0,0,1,1.4-.624,2,2,0,0,1,1.559.624,1.9,1.9,0,0,1,.624,1.4A2.131,2.131,0,0,1,39.942,37.7a1.52,1.52,0,0,1-1.4-.624,2.77,2.77,0,0,1-.624-1.559m0-14.033A2.131,2.131,0,0,1,40.1,19.3a1.52,1.52,0,0,1,1.4.624,2,2,0,0,1,.624,1.559,1.52,1.52,0,0,1-.624,1.4,1.9,1.9,0,0,1-1.4.624,2,2,0,0,1-1.559-.624,1.52,1.52,0,0,1-.624-1.4M32.77,49.7a1.52,1.52,0,0,1,.624-1.4,1.9,1.9,0,0,1,1.4-.624,2,2,0,0,1,1.559.624,1.9,1.9,0,0,1,.624,1.4A2.132,2.132,0,0,1,34.8,51.887a1.52,1.52,0,0,1-1.4-.624A2.52,2.52,0,0,1,32.77,49.7m-.156-14.033A2.131,2.131,0,0,1,34.8,33.488a1.52,1.52,0,0,1,1.4.624,2,2,0,0,1,.624,1.559,1.52,1.52,0,0,1-.624,1.4,1.9,1.9,0,0,1-1.4.624,2,2,0,0,1-1.559-.624,2.8,2.8,0,0,1-.624-1.4m0-14.188a2.205,2.205,0,0,1,3.742-1.559,2.261,2.261,0,0,1,0,3.118,2.183,2.183,0,0,1-3.742-1.559M27.157,49.7a1.52,1.52,0,0,1,.624-1.4,2,2,0,0,1,1.559-.624,1.52,1.52,0,0,1,1.4.624,1.9,1.9,0,0,1,.624,1.4,2.234,2.234,0,0,1-.624,1.559,1.9,1.9,0,0,1-1.4.624A2.131,2.131,0,0,1,27.157,49.7m0-14.033A2.205,2.205,0,0,1,30.9,34.112a2,2,0,0,1,.624,1.559,1.52,1.52,0,0,1-.624,1.4,2.261,2.261,0,0,1-3.118,0,1.52,1.52,0,0,1-.624-1.4m0-14.033a2,2,0,0,1,.624-1.559,1.9,1.9,0,0,1,1.4-.624,2.132,2.132,0,0,1,2.183,2.183,2.131,2.131,0,0,1-2.183,2.183,1.52,1.52,0,0,1-1.4-.624,2,2,0,0,1-.624-1.559M21.7,45.026a2.132,2.132,0,0,1,2.183-2.183,1.52,1.52,0,0,1,1.4.624,2.77,2.77,0,0,1,.624,1.559,1.52,1.52,0,0,1-.624,1.4,1.9,1.9,0,0,1-1.4.624,2.234,2.234,0,0,1-1.559-.624,1.976,1.976,0,0,1-.624-1.4m0-9.355a1.52,1.52,0,0,1,.624-1.4,2.261,2.261,0,0,1,3.118,0,1.9,1.9,0,0,1,.624,1.4,2.131,2.131,0,0,1-2.183,2.183,2,2,0,0,1-1.559-.624,2.234,2.234,0,0,1-.624-1.559m0-4.678a2.131,2.131,0,0,1,2.183-2.183,2.205,2.205,0,0,1,1.559,3.742,2.261,2.261,0,0,1-3.118,0,2.234,2.234,0,0,1-.624-1.559m0-4.678a2.132,2.132,0,0,1,2.183-2.183,1.52,1.52,0,0,1,1.4.624,2.261,2.261,0,0,1,0,3.118,1.9,1.9,0,0,1-1.4.624,2,2,0,0,1-1.559-.624,2.234,2.234,0,0,1-.624-1.559m0-4.678a2,2,0,0,1,.624-1.559,1.9,1.9,0,0,1,1.4-.624,2.132,2.132,0,0,1,2.183,2.183,1.52,1.52,0,0,1-.624,1.4,2,2,0,0,1-1.559.624,1.52,1.52,0,0,1-1.4-.624,1.693,1.693,0,0,1-.624-1.4" transform="translate(-21.7 -19.3)" fill-rule="evenodd" fill="url(#linear-gradient)"/>
  </g>
  <g id="Group_533" data-name="Group 533" transform="translate(0 0)">
    <g id="Group_532" data-name="Group 532">
      <g id="Group_531" data-name="Group 531">
        <g id="Group_530" data-name="Group 530">
          <path id="Path_1147" data-name="Path 1147" d="M24.293,65.861A41.422,41.422,0,0,1,3.4,30" transform="translate(1.589 16.463)" fill="none" stroke="#036eb7" stroke-linecap="round" stroke-linejoin="round" stroke-width="1" opacity="0.8"/>
          <path id="Path_1148" data-name="Path 1148" d="M37.8,4.6A41.653,41.653,0,0,1,66.956,44.2" transform="translate(20.825 2.26)" fill="none" stroke="#036eb7" stroke-linecap="round" stroke-linejoin="round" stroke-width="1" opacity="0.8"/>
          <path id="Path_1149" data-name="Path 1149" d="M57.571,36A34.788,34.788,0,0,1,41.2,57.049" transform="translate(22.726 19.818)" fill="none" stroke="#036eb7" stroke-linecap="round" stroke-linejoin="round" stroke-width="1" opacity="0.6"/>
          <path id="Path_1150" data-name="Path 1150" d="M7.9,35.565A35.133,35.133,0,0,1,42.358,7.5" transform="translate(4.106 3.882)" fill="none" stroke="#036eb7" stroke-linecap="round" stroke-linejoin="round" stroke-width="1" opacity="0.6"/>
          <path id="Path_1151" data-name="Path 1151" d="M44.662,15.5a31.173,31.173,0,0,1,9.667,22.608,27.313,27.313,0,0,1-.624,6.237A30.6,30.6,0,0,1,41.7,63.055" transform="translate(23.006 8.355)" fill="none" stroke="#036eb7" stroke-linecap="round" stroke-linejoin="round" stroke-width="1" opacity="0.4"/>
          <path id="Path_1152" data-name="Path 1152" d="M11.036,43.455a31.071,31.071,0,0,1-.936-7.64A31.647,31.647,0,0,1,14.622,19.6" transform="translate(5.336 10.648)" fill="none" stroke="#036eb7" stroke-linecap="round" stroke-linejoin="round" stroke-width="1" opacity="0.4"/>
          <path id="Path_1153" data-name="Path 1153" d="M46.663.2A46.463,46.463,0,1,0,93.127,46.663,46.38,46.38,0,0,0,46.663.2m0,.936A45.528,45.528,0,1,1,1.136,46.663,45.581,45.581,0,0,1,46.663,1.136" transform="translate(-0.2 -0.2)" fill-rule="evenodd" fill="url(#linear-gradient-2)"/>
        </g>
      </g>
    </g>
  </g>
</svg>
