<svg xmlns="http://www.w3.org/2000/svg" width="111.21" height="110.97" viewBox="0 0 111.21 110.97">
  <g id="無人打擾-01" transform="translate(-0.5 -0.501)">
    <path id="Path_1515" data-name="Path 1515" d="M68.094,20.363V78.046A7.1,7.1,0,0,1,60.98,85.16s-2.01-.309-2.01-2.01c0-1.856,2.01-2.01,2.01-2.01A4.89,4.89,0,0,0,64.228,76.5V15.26a4.818,4.818,0,0,0-4.794-4.794h-.928a2.145,2.145,0,0,0-1.856,1.083,3.363,3.363,0,0,1-3.093,2.165H35.927a3.363,3.363,0,0,1-3.093-2.165,1.809,1.809,0,0,0-1.7-1.237h-.928a4.818,4.818,0,0,0-4.794,4.794v63.25a2.025,2.025,0,0,1-1.856,2.01,1.918,1.918,0,0,1-1.856-2.01V13.714A7.1,7.1,0,0,1,28.814,6.6H61.289a7.1,7.1,0,0,1,6.8,5.258v.309C67.784,12.013,68.094,12.786,68.094,20.363Z" transform="translate(11.312 3.05)" fill="none" stroke="#195ca0" stroke-linecap="round" stroke-linejoin="round" stroke-miterlimit="10" stroke-width="1"/>
    <path id="Path_1516" data-name="Path 1516" d="M65.951,105.995v-3.866L67.5,94.86V77.231a2.606,2.606,0,0,0-2.784-2.784,2.709,2.709,0,0,0-2.784,2.938V75.529s0-2.784-2.629-2.784c-2.474,0-2.474,2.784-2.474,2.784v0a2.784,2.784,0,0,0-5.567,0V61.766s0-2.784-2.629-2.784A2.575,2.575,0,0,0,46,61.611V80.787S46,76.3,42.6,76.3c-3.093,0-3.093,3.866-3.093,3.866v12.99a3.147,3.147,0,0,0,.928,2.32l5.1,5.877a2.779,2.779,0,0,1,.619,1.392v3.093c0,6.959-5.722,4.794-5.722,4.794A55.544,55.544,0,0,1,1,57.127C1,24.806,27.6-1.02,59.765,1.145,87.292,3,109.561,25.888,111.108,53.879A56.522,56.522,0,0,1,95.025,96.871" transform="translate(0 0)" fill="none" stroke="#195ca0" stroke-linecap="round" stroke-linejoin="round" stroke-miterlimit="10" stroke-width="1"/>
    <path id="Path_1517" data-name="Path 1517" d="M9.184,65A47.144,47.144,0,0,1,6.4,48.758,47.738,47.738,0,0,1,20.009,15.2" transform="translate(2.951 7.75)" fill="none" stroke="#195ca0" stroke-linecap="round" stroke-linejoin="round" stroke-miterlimit="10" stroke-width="1"/>
    <path id="Path_1518" data-name="Path 1518" d="M75.052,36.9a49.153,49.153,0,0,1-2.629,15.929A46.863,46.863,0,0,1,51.7,78.19" transform="translate(27.705 19.608)" fill="none" stroke="#195ca0" stroke-linecap="round" stroke-linejoin="round" stroke-miterlimit="10" stroke-width="1"/>
    <g id="Group_692" data-name="Group 692" transform="translate(41.827 24.536)">
      <g id="Group_689" data-name="Group 689">
        <path id="Path_1519" data-name="Path 1519" d="M36.54,43.434c-2.382,0-4.67,0-7.052-.093h-.665a1.446,1.446,0,0,1-.665-.278,1.792,1.792,0,0,1-.758-1.423,8.763,8.763,0,0,1,1.531-5.057A5.813,5.813,0,0,1,31.5,34.589a12.413,12.413,0,0,1,1.717-.572,11.333,11.333,0,0,0,3.047-1.144c.278-.186.572-.278.851-.479a.324.324,0,0,0,.093-.186V30.3c0-.093,0-.186-.093-.186a9.424,9.424,0,0,1-1.052-2.861,1.381,1.381,0,0,0-.186-.572,5.334,5.334,0,0,1-.665-1.995,4.245,4.245,0,0,1,0-1.531,4.768,4.768,0,0,0,.093-1.144,4.107,4.107,0,0,1,1.717-4.1,6.94,6.94,0,0,1,3.433-1.624,6.465,6.465,0,0,1,5.815,1.995,4.519,4.519,0,0,1,1.144,2.675,5.562,5.562,0,0,1-.093,1.237,2.126,2.126,0,0,0,.093.758,4.4,4.4,0,0,1,.093,1.052,4.661,4.661,0,0,1-.479,2.289,5.286,5.286,0,0,0-.479,1.052c-.186.572-.387,1.237-.572,1.809a2.182,2.182,0,0,1-.278.479,1.822,1.822,0,0,0-.186.758v1.423c0,.093.093.093.093.186.278.186.665.278.959.479a.62.62,0,0,1,0,1.052.579.579,0,0,1-.387.093,5.2,5.2,0,0,1-1.624-.758c-.186-.093-.186-.186-.186-.387V29.64a9.021,9.021,0,0,0,1.144-3.047c0-.186.093-.278.093-.479,0-.093.093-.186.186-.278a.942.942,0,0,0,.387-.851c.093-.387.093-.851.186-1.237a.544.544,0,0,0-.186-.387c-.093-.093-.186-.278-.093-.387,0-.387.093-.851.093-1.237a3.346,3.346,0,0,0-1.423-3.34,5.47,5.47,0,0,0-6.109-.186,8.958,8.958,0,0,0-1.144.959,3.045,3.045,0,0,0-.851,2.675,4.4,4.4,0,0,1,.093,1.052c0,.186,0,.387-.186.479a.341.341,0,0,0-.093.278,4.863,4.863,0,0,0,.186,1.624,1.781,1.781,0,0,0,.387.572.49.49,0,0,1,.186.387c.093.387.186.758.278,1.237a8.687,8.687,0,0,0,.959,2.2.579.579,0,0,1,.093.387v2.474a.341.341,0,0,1-.093.278,2.515,2.515,0,0,1-1.052.758,15.743,15.743,0,0,1-3.526,1.423c-.387.093-.851.186-1.237.278a5.144,5.144,0,0,0-3.34,3.248,11.489,11.489,0,0,0-.572,2.567v.387c0,.278.186.479.572.479,1.33,0,2.768.093,4.1.093H44.071a.416.416,0,0,1,.387.387.458.458,0,0,1-.093.572l-.278.278c-.093,0-.093.093-.186.093C41.411,43.434,38.921,43.434,36.54,43.434Z" transform="translate(-27.4 -16.226)" fill="#195ca0"/>
      </g>
      <g id="Group_691" data-name="Group 691" transform="translate(18.047 18.626)">
        <g id="Group_690" data-name="Group 690">
          <path id="Path_1520" data-name="Path 1520" d="M44.127,28.27a5.057,5.057,0,1,0,5.057,5.057A5.069,5.069,0,0,0,44.127,28.27Zm-4.16,5.057a4.161,4.161,0,0,1,4.16-4.16,4.116,4.116,0,0,1,2.6.912l-5.83,5.83A4,4,0,0,1,39.967,33.327Zm4.16,4.145a4.116,4.116,0,0,1-2.6-.912l5.83-5.83a4.147,4.147,0,0,1-3.232,6.743Z" transform="translate(-39.07 -28.27)" fill="#195ca0"/>
        </g>
      </g>
    </g>
  </g>
</svg>
