<svg xmlns="http://www.w3.org/2000/svg" width="114.246" height="113.865" viewBox="0 0 114.246 113.865">
  <g id="Group_695" data-name="Group 695" transform="translate(-0.447 -0.381)">
    <g id="Group_678" data-name="Group 678" transform="translate(0.947 0.881)">
      <g id="累積放款金額-01" transform="translate(9.051 21.908)">
        <path id="路径_342" data-name="路径 342" d="M12.763,73.339A48.034,48.034,0,0,1,9.928,56.8,48.628,48.628,0,0,1,23.79,22.617" transform="translate(-9.927 -22.617)" fill="none" stroke="#2664a5" stroke-linecap="round" stroke-linejoin="round" stroke-width="1"/>
        <path id="路径_343" data-name="路径 343" d="M104.512,56.531a50.044,50.044,0,0,1-2.679,16.227A47.734,47.734,0,0,1,80.725,98.589" transform="translate(-9.367 -22.349)" fill="none" stroke="#2664a5" stroke-linecap="round" stroke-linejoin="round" stroke-width="1"/>
      </g>
      <path id="Path_1323" data-name="Path 1323" d="M50.482,113.688A56.63,56.63,0,1,1,93.588,101.2" transform="translate(-0.947 -0.881)" fill="none" stroke="#2664a5" stroke-linecap="round" stroke-linejoin="round" stroke-width="1"/>
    </g>
    <path id="Path_1324" data-name="Path 1324" d="M83.332,80.61a6.019,6.019,0,0,1,0-3.028,2.526,2.526,0,0,0,.016-5.015,6.51,6.51,0,0,0,2.228-4.827,6.616,6.616,0,0,0-3.808-6.012,2.555,2.555,0,0,0-2.244-3.973,6.022,6.022,0,0,1,0-3c3.336.174,3.556-5.049.178-5.049H73.6l-2.389-8.042,11.45-3.008a2.048,2.048,0,0,0,0-3.936L60.447,28.889a12.207,12.207,0,0,0-6.2,0l-8.261,2.17a.838.838,0,0,0,.425,1.619l8.261-2.169a10.54,10.54,0,0,1,5.347,0l22.215,5.835a.36.36,0,0,1,0,.7l-17.1,4.491-5.381-4.879V34.714a2.492,2.492,0,0,0-4.984,0v2.38a.836.836,0,0,0,.4.713,3.919,3.919,0,0,0,3.667.272l4.368,3.96-3.186.837a10.54,10.54,0,0,1-5.347,0L32.459,37.04a.36.36,0,0,1,0-.7l9.717-2.553a.837.837,0,0,0-.425-1.619l-9.717,2.552a2.048,2.048,0,0,0,0,3.936l11.45,3.008-2.389,8.042H39.077a6.545,6.545,0,0,0-4.432,11.42h-3a2.525,2.525,0,0,0-.279,5.032,6.022,6.022,0,0,1,0,3.029,2.526,2.526,0,0,0-.017,5.015,6.533,6.533,0,0,0,4.319,11.438H83.052a2.525,2.525,0,0,0,.28-5.033ZM58.084,36.578a2.216,2.216,0,0,1-1.636,0V34.714a.818.818,0,0,1,1.636,0Zm20.946,29.6a1.5,1.5,0,0,1,0,3H43.972v-3ZM42.3,76.254l-2.308,1.212V66.178H42.3Zm-3.982-7.079H33.084a7.693,7.693,0,0,0,0-3h5.231Zm.4,10.391a.838.838,0,0,0,.821.025l3.8-1.994H81.612a7.693,7.693,0,0,0,0,3H35.665a1.5,1.5,0,0,1,0-3h2.65V78.85a.836.836,0,0,0,.4.716Zm39.09-21.811H39.015a1.5,1.5,0,1,1,0-3H61.693c-.02.6-.017,1.471.824,1.471h4.818c.845,0,.845-.874.823-1.471h9.651a7.708,7.708,0,0,0,0,3Zm-12.883-8.8c.738,0,1.44,2.618,1.555,5.6h-3.11c.115-2.979.817-5.6,1.555-5.6Zm15.628,3.276a.85.85,0,0,1-.85.85H68.048c-.054-.568-.128-1.137-.23-1.7H79.7a.85.85,0,0,1,.85.85Zm-8.7-2.524H67.4a3.561,3.561,0,0,0-1.637-2.245V43.1l3.828-1.006ZM45.1,42.093l9.146,2.4a12.251,12.251,0,0,0,6.2,0l3.642-.957v3.927a3.561,3.561,0,0,0-1.637,2.245H42.842ZM35.554,59.684a4.836,4.836,0,0,1-1.412-3.475,4.92,4.92,0,0,1,4.935-4.825H62.033c-.1.563-.175,1.131-.23,1.7H39.015a3.173,3.173,0,0,0,0,6.346H79.7a.85.85,0,0,1,0,1.7H39.015A4.836,4.836,0,0,1,35.554,59.684Zm-4.761,3.97a.851.851,0,0,1,.85-.851H79.031a4.873,4.873,0,1,1-.063,9.745H74.576a.838.838,0,0,0,0,1.675h8.478a.85.85,0,0,1,0,1.7H43.972v-1.7H70.164a.838.838,0,0,0,0-1.674H43.972v-1.7H79.031a3.173,3.173,0,0,0,0-6.346H31.643a.851.851,0,0,1-.85-.85Zm.85,8.895a.85.85,0,0,1,0-1.7h6.672v1.7Zm51.41,11.42H35.665a4.878,4.878,0,0,1-4.872-4.921,4.92,4.92,0,0,1,4.936-4.824h2.586v1.7h-2.65a3.173,3.173,0,0,0,0,6.346H83.052a.85.85,0,0,1,0,1.7Z" transform="translate(0.223 0.218)" fill="#195ca0"/>
  </g>
</svg>
