<svg id="Group_404" data-name="Group 404" xmlns="http://www.w3.org/2000/svg" width="15.129" height="9.807" viewBox="0 0 15.129 9.807">
  <g id="Group_266" data-name="Group 266">
    <g id="Group_265" data-name="Group 265">
      <g id="Group_263" data-name="Group 263">
        <path id="Path_254" data-name="Path 254" d="M748.954,457.642H736.817a1.5,1.5,0,0,1-1.5-1.5v-6.815a1.5,1.5,0,0,1,1.5-1.5h12.137a1.5,1.5,0,0,1,1.5,1.5v6.815A1.5,1.5,0,0,1,748.954,457.642Zm-12.137-8.9a.588.588,0,0,0-.586.586v6.815a.588.588,0,0,0,.586.588h12.137a.587.587,0,0,0,.586-.588v-6.815a.587.587,0,0,0-.586-.586Z" transform="translate(-735.321 -447.835)" fill="#fff"/>
      </g>
      <g id="Group_264" data-name="Group 264" transform="translate(0.23 0.331)">
        <path id="Path_255" data-name="Path 255" d="M742.8,453.244a.446.446,0,0,1-.24-.07l-6.878-4.289a.455.455,0,1,1,.48-.772l6.638,4.141,6.64-4.141a.455.455,0,0,1,.48.772l-6.878,4.289A.447.447,0,0,1,742.8,453.244Z" transform="translate(-735.467 -448.045)" fill="#fff"/>
      </g>
    </g>
  </g>
</svg>
