<svg xmlns="http://www.w3.org/2000/svg" width="11.803" height="11.066" viewBox="0 0 11.803 11.066">
  <path id="Path_890" data-name="Path 890" d="M747.187,434.849l-.242-.054c-.414-.095-.844-.194-1.278-.251a1.074,1.074,0,0,0-.932.31,2.786,2.786,0,0,0-.392.671v0a7.582,7.582,0,0,1-4.191-3.537l.008-.01a1.467,1.467,0,0,0,.288-1.757c-.221-.457-.453-.9-.689-1.349l-.172-.332a.987.987,0,0,0-.894-.6,1.153,1.153,0,0,0-.249.028,3.209,3.209,0,0,0-1.765,1.15,1.32,1.32,0,0,0-.228,1.3l.085.261a8.014,8.014,0,0,0,.433,1.131,12.979,12.979,0,0,0,7.167,6.706,6.759,6.759,0,0,0,2.3.493,4.071,4.071,0,0,0,.57-.039,1.065,1.065,0,0,0,.975-.926,12.227,12.227,0,0,0,.191-1.956A1.115,1.115,0,0,0,747.187,434.849Z" transform="translate(-736.374 -427.942)" fill="#fff"/>
</svg>
