<svg xmlns="http://www.w3.org/2000/svg" width="111.467" height="111.039" viewBox="0 0 111.467 111.039">
  <g id="高端AI科技-01" transform="translate(0.221 -0.419)">
    <path id="Path_1413" data-name="Path 1413" d="M85.486,46.536a3.066,3.066,0,0,0-.541.046l-1.423-5.336a2.075,2.075,0,0,0-.773-4.006,2.1,2.1,0,0,0-1.021.278l-3.542-4.841a3.214,3.214,0,1,0-4.872-3.991L66.8,26.243a2.548,2.548,0,0,0,.062-.495,2.073,2.073,0,0,0-3.991-.8L47.761,20.721a1.7,1.7,0,0,0,.031-.278,2.08,2.08,0,0,0-4.161,0c0,.046.015.093.015.124L31.891,22.577a3.218,3.218,0,0,0-6.28.99,3.155,3.155,0,0,0,.263,1.268l-8.2,5.6A2.073,2.073,0,1,0,15.6,33.806L14.32,43.118c-.093,0-.17-.015-.263-.015a3.217,3.217,0,0,0,0,6.434,3.177,3.177,0,0,0,1.7-.495l6.7,7.115a2.016,2.016,0,0,0-.495,1.33,2.074,2.074,0,0,0,4.13.278L39.254,58a3.218,3.218,0,0,0,6.373-.124h7.533a2.069,2.069,0,0,0,3.728.8l7.27,3.434a2.393,2.393,0,0,0-.108.665,2.107,2.107,0,0,0,1.423,1.98L63.939,70.9a1.021,1.021,0,0,0-.217-.015c-.046,0-.108.015-.155.015l-.418.077a1.716,1.716,0,0,0-.742.479l-.247.34a1.809,1.809,0,0,0-.232.866,1.779,1.779,0,0,0,3.558,0,1.721,1.721,0,0,0-.309-1.005l8.956-7.935a3.19,3.19,0,0,0,2.057.742c.155,0,.309-.015.464-.031l.479-.108a3.216,3.216,0,0,0,2.274-3.078,3.148,3.148,0,0,0-.9-2.212l5.259-6.574a3.177,3.177,0,0,0,1.748.51,3.215,3.215,0,0,0,3.217-3.217A3.272,3.272,0,0,0,85.486,46.536ZM82.748,41.4a1.894,1.894,0,0,0,.294-.031l1.423,5.336a3.232,3.232,0,0,0-2.181,2.722l-6-.974c0-.031.015-.062.015-.093a2.047,2.047,0,0,0-.495-1.33l5.723-6.063A1.9,1.9,0,0,0,82.748,41.4ZM72.957,61.508l-4.872.742a2.074,2.074,0,0,0-2-1.531,1.686,1.686,0,0,0-.4.046L62.64,51.408a3.5,3.5,0,0,0,1.129-.681L73.5,59.482a3.178,3.178,0,0,0-.541,1.779A.666.666,0,0,0,72.957,61.508ZM44.018,41.819l7.254-2.336A2.09,2.09,0,0,0,53.159,40.7a1.982,1.982,0,0,0,1.16-.356l4.95,5.754a3.16,3.16,0,0,0-.773,1.268L44.018,43.3a3.58,3.58,0,0,0,.077-.711A2.58,2.58,0,0,0,44.018,41.819ZM16.841,44.8l9.3-5.738a2.068,2.068,0,0,0,1.624.789,1.194,1.194,0,0,0,.232-.031L29.865,47.8a2.051,2.051,0,0,0-1.268,1.33L17.213,46.691a2.98,2.98,0,0,0,.015-.371A2.841,2.841,0,0,0,16.841,44.8Zm11.631-5.089a2.062,2.062,0,0,0,1.145-1.021l8.182,3a3.2,3.2,0,0,0,.356,2.568l-6.017,4.114a2.07,2.07,0,0,0-1.562-.711,1.194,1.194,0,0,0-.232.031Zm9.5,1.531-8.182-2.985a2.391,2.391,0,0,0,.062-.479,1.964,1.964,0,0,0-.247-.959L38.7,30.558a2.091,2.091,0,0,0,1.408.7l.371,8.167A3.116,3.116,0,0,0,37.97,41.246Zm2.923-.9a2.243,2.243,0,1,1-2.243,2.243A2.244,2.244,0,0,1,40.893,40.349Zm.046-.99-.371-8.151a2.047,2.047,0,0,0,1.176-.634L51.349,37.6a2.1,2.1,0,0,0-.278,1.021,1.783,1.783,0,0,0,.046.4l-7.254,2.336A3.229,3.229,0,0,0,40.94,39.359Zm13.611-8.646a2.243,2.243,0,1,1,2.243-2.243A2.244,2.244,0,0,1,54.551,30.713Zm2.351-.046,7.7,6.017a2.051,2.051,0,0,0-.294.959l-9.095.588a2.071,2.071,0,0,0-1.578-1.64l.6-4.919a2.284,2.284,0,0,0,.325.015A3.121,3.121,0,0,0,56.9,30.667Zm-3.14.928-.572,4.95h-.015a2.065,2.065,0,0,0-1.516.665l-9.605-7.022a2.278,2.278,0,0,0,.263-.851l9.064-.356A3.2,3.2,0,0,0,53.762,31.595Zm.928,8.43a2.1,2.1,0,0,0,.541-1.284l9.095-.588A2.1,2.1,0,0,0,65.3,39.56l-2.6,5.816a3.157,3.157,0,0,0-3.047.418Zm11.075-.278a2.079,2.079,0,0,0,.619.108,2.057,2.057,0,0,0,1.021-.278l5.383,7.285a2.122,2.122,0,0,0-.634,1.268H64.775a3.181,3.181,0,0,0-1.624-2.552Zm-4.192,6.388a2.243,2.243,0,1,1-2.243,2.243A2.244,2.244,0,0,1,61.573,46.134Zm2.521,4.238a3.212,3.212,0,0,0,.681-1.748h7.378a2.075,2.075,0,0,0,2.057,1.841h.062l1.16,7.672a3.227,3.227,0,0,0-1.655.974ZM74.21,46.289a2.057,2.057,0,0,0-1.021.278l-5.383-7.285a2.109,2.109,0,0,0,.619-1.1l12.266,1.176a2.176,2.176,0,0,0,.479,1.284l-5.723,6.063A2.163,2.163,0,0,0,74.21,46.289Zm1.949-18.344a2.243,2.243,0,1,1-2.243,2.243A2.244,2.244,0,0,1,76.159,27.944Zm0,5.46a3.253,3.253,0,0,0,1.64-.449L81.34,37.8a2.007,2.007,0,0,0-.619,1.083L68.456,37.7a2.173,2.173,0,0,0-.294-.99l5.661-4.331A3.153,3.153,0,0,0,76.159,33.4Zm-9.528-6.713,6.5,2.428a2.975,2.975,0,0,0-.186,1.067,3.233,3.233,0,0,0,.572,1.825l-5.646,4.315a2.081,2.081,0,0,0-1.485-.634h-.031L65.3,27.759A2.136,2.136,0,0,0,66.631,26.691ZM64.79,27.821h.031l1.052,7.935a2.045,2.045,0,0,0-.959.541L57.227,30.28a3.171,3.171,0,0,0,.557-1.81,3.067,3.067,0,0,0-.046-.541l5.135-1.423A2.039,2.039,0,0,0,64.79,27.821ZM47.637,21.2l15.1,4.223a1.721,1.721,0,0,0,0,.65L57.6,27.465A3.21,3.21,0,0,0,52.494,26l-5.042-4.439A1.558,1.558,0,0,0,47.637,21.2ZM45.7,22.531a2.156,2.156,0,0,0,1.454-.588l5,4.408a3.188,3.188,0,0,0-.82,2.134V28.5l-9.048.34a2.073,2.073,0,0,0-.727-1.268L44.9,22.361A2.027,2.027,0,0,0,45.7,22.531ZM32.046,23.583A3.021,3.021,0,0,0,32,23.057l11.724-2.011a1.918,1.918,0,0,0,.742,1.052l-3.325,5.2a1.969,1.969,0,0,0-.9-.217,2.1,2.1,0,0,0-1.748.959l-6.682-3.264A2.974,2.974,0,0,0,32.046,23.583Zm6.249,4.9a2.037,2.037,0,0,0-.124.681,1.964,1.964,0,0,0,.247.959l-9.095,6.264a1.964,1.964,0,0,0-1.16-.665L28.8,26.8h.031A3.216,3.216,0,0,0,31.6,25.222Zm-9.466-7.378a2.475,2.475,0,1,1-2.475,2.475A2.482,2.482,0,0,1,28.829,21.108Zm-2.738,4.176A3.173,3.173,0,0,0,28.3,26.753l-.634,8.94a2.069,2.069,0,0,0-1.624.913l-7.981-4.083a2.236,2.236,0,0,0,.139-.711,2.056,2.056,0,0,0-.247-.959ZM16.068,33.9h.046a2.077,2.077,0,0,0,1.732-.928l7.981,4.083a2.236,2.236,0,0,0-.139.711,2.161,2.161,0,0,0,.2.882l-9.3,5.738a3.984,3.984,0,0,0-.495-.526c-.046-.031-.278-.217-.278-.217a.543.543,0,0,0-.124-.077,3.022,3.022,0,0,0-.9-.356ZM14.026,48.578a2.243,2.243,0,1,1,2.243-2.243A2.244,2.244,0,0,1,14.026,48.578ZM25.163,55.77a2.067,2.067,0,0,0-2.382.077L16.13,48.779a3.207,3.207,0,0,0,1.005-1.593L28.519,49.63c0,.046-.015.093-.015.139a2.086,2.086,0,0,0,.557,1.408ZM39.176,57.5v.031L26.06,57.3a2.114,2.114,0,0,0-.541-1.206l3.9-4.594a2.066,2.066,0,0,0,2.784-.479l7.61,4.547A3.361,3.361,0,0,0,39.176,57.5Zm-6.7-6.9a1.956,1.956,0,0,0,.186-.851,2.009,2.009,0,0,0-.247-.959l6.032-4.13a3.256,3.256,0,0,0,2.413,1.129l.944,8.538a3.187,3.187,0,0,0-1.64.866Zm9.93,9.141A2.243,2.243,0,1,1,44.652,57.5,2.244,2.244,0,0,1,42.409,59.745ZM53.1,57.41H45.626a3.227,3.227,0,0,0-3.217-3.124H42.3l-.944-8.523a3.31,3.31,0,0,0,1.609-.711L53.561,56.2A2.012,2.012,0,0,0,53.1,57.41Zm3.295-1.578a2.1,2.1,0,0,0-1.222-.4,2.043,2.043,0,0,0-1.268.449l-10.6-11.152a3.329,3.329,0,0,0,.588-.944L58.4,47.866a2.892,2.892,0,0,0-.046.526,3.2,3.2,0,0,0,1.268,2.552Zm7.935,5.878-7.239-3.434a2.089,2.089,0,0,0,.155-.773,2.016,2.016,0,0,0-.495-1.33l3.279-4.98a3.275,3.275,0,0,0,1.547.387,2.446,2.446,0,0,0,.588-.062l3.063,9.4A2.112,2.112,0,0,0,64.326,61.71Zm1.547,3.171a1.171,1.171,0,0,0,.232.015,2.081,2.081,0,0,0,1.531-.681l.278-.4a1.988,1.988,0,0,0,.263-1.005V62.73l4.857-.742a3.312,3.312,0,0,0,.758,1.438l-8.925,7.919a1.861,1.861,0,0,0-.526-.325ZM76.159,63.5A2.243,2.243,0,1,1,78.4,61.261,2.244,2.244,0,0,1,76.159,63.5Zm1.964-4.795a3.214,3.214,0,0,0-1.964-.681,1.331,1.331,0,0,0-.247.015l-1.16-7.672a2.053,2.053,0,0,0,1.438-1.423l6.079.99a3.179,3.179,0,0,0,1.083,2.243ZM85.486,52a2.243,2.243,0,1,1,2.243-2.243A2.244,2.244,0,0,1,85.486,52Z" transform="translate(5.749 9.516)" fill="#195ca0"/>
    <g id="组_678" transform="translate(0.325 0.965)">
      <g id="累積放款金額-01-2" transform="translate(8.824 21.353)">
        <path id="路径_342-2" d="M8.8,64.2A46.913,46.913,0,0,1,6.03,48.087a47.452,47.452,0,0,1,13.5-33.317" transform="translate(-6.03 -14.77)" fill="none" stroke="#195ca0" stroke-linecap="round" stroke-linejoin="round" stroke-width="1"/>
        <path id="路径_343-2" d="M74.166,36.31a48.614,48.614,0,0,1-2.614,15.808A46.407,46.407,0,0,1,50.98,77.283" transform="translate(18.547 -2.993)" fill="none" stroke="#195ca0" stroke-linecap="round" stroke-linejoin="round" stroke-width="1"/>
      </g>
      <path id="路径_1323" d="M48.606,110.9A55.155,55.155,0,1,1,90.616,98.742" transform="translate(-0.325 -0.965)" fill="none" stroke="#195ca0" stroke-linecap="round" stroke-linejoin="round" stroke-width="1"/>
    </g>
  </g>
</svg>
