<svg xmlns="http://www.w3.org/2000/svg" xmlns:xlink="http://www.w3.org/1999/xlink" width="113.358" height="112.98" viewBox="0 0 113.358 112.98">
  <defs>
    <linearGradient id="linear-gradient" y1="0.5" x2="1" y2="0.5" gradientUnits="objectBoundingBox">
      <stop offset="0" stop-color="#66e2ff"/>
      <stop offset="1" stop-color="#71a0ff"/>
    </linearGradient>
    <linearGradient id="linear-gradient-4" x1="0" y1="0.5" x2="1" y2="0.5" xlink:href="#linear-gradient"/>
    <linearGradient id="linear-gradient-9" x1="0" y1="0.5" x2="1" y2="0.5" xlink:href="#linear-gradient"/>
  </defs>
  <g id="Group_681" data-name="Group 681" transform="translate(-0.447 -0.381)">
    <g id="累積放款金額-01">
      <path id="路径_342" data-name="路径 342" d="M12.741,72.941a47.657,47.657,0,0,1-2.813-16.41A48.247,48.247,0,0,1,23.681,22.617" fill="none" stroke="#2664a5" stroke-linecap="round" stroke-linejoin="round" stroke-width="1"/>
      <path id="路径_343" data-name="路径 343" d="M104.325,56.531a49.652,49.652,0,0,1-2.658,16.1A47.359,47.359,0,0,1,80.725,98.259" fill="none" stroke="#2664a5" stroke-linecap="round" stroke-linejoin="round" stroke-width="1"/>
    </g>
    <g id="Group_676" data-name="Group 676">
      <path id="Path_1312" data-name="Path 1312" d="M86.794,61.615a1.007,1.007,0,0,1-1.007-1.007V58.593a1.007,1.007,0,0,1,2.015,0v2.015A1.007,1.007,0,0,1,86.794,61.615Z" fill="url(#linear-gradient)"/>
      <path id="Path_1313" data-name="Path 1313" d="M86.794,68.751a1.007,1.007,0,0,1-1.007-1.008V64.175a1.007,1.007,0,0,1,2.015,0v3.568A1.008,1.008,0,0,1,86.794,68.751Z" fill="url(#linear-gradient)"/>
      <path id="Path_1314" data-name="Path 1314" d="M86.794,74.333a1.007,1.007,0,0,1-1.007-1.007V71.311a1.007,1.007,0,0,1,2.015,0v2.015A1.007,1.007,0,0,1,86.794,74.333Z" fill="url(#linear-gradient)"/>
      <path id="Path_1315" data-name="Path 1315" d="M83.746,84.189H30.506a4.06,4.06,0,0,1-4.055-4.056V44.369a4.06,4.06,0,0,1,4.055-4.056h53.24A4.061,4.061,0,0,1,87.8,44.369V58.593a1.007,1.007,0,0,1-2.015,0V44.369a2.043,2.043,0,0,0-2.041-2.041H30.506a2.042,2.042,0,0,0-2.04,2.041V80.133a2.043,2.043,0,0,0,2.04,2.041h53.24a2.044,2.044,0,0,0,2.041-2.041V73.326a1.007,1.007,0,1,1,2.015,0v6.807A4.061,4.061,0,0,1,83.746,84.189Z" fill="url(#linear-gradient-4)"/>
      <path id="Path_1316" data-name="Path 1316" d="M65,58.89H49.248a19.2,19.2,0,0,1-7.7-1.6L27.056,50.982a1.007,1.007,0,0,1,.8-1.847L42.354,55.44a17.181,17.181,0,0,0,6.894,1.435H65A17.184,17.184,0,0,0,71.9,55.44l14.493-6.305a1.007,1.007,0,1,1,.8,1.847L72.7,57.288A19.2,19.2,0,0,1,65,58.89Z" fill="url(#linear-gradient-4)"/>
      <path id="Path_1317" data-name="Path 1317" d="M72.113,42.328H42.14a1.007,1.007,0,0,1-1.007-1.007V30.838a3.025,3.025,0,0,1,3.022-3.022H70.1a3.026,3.026,0,0,1,3.022,3.022V41.321A1.007,1.007,0,0,1,72.113,42.328ZM43.147,40.313H71.105V30.838A1.008,1.008,0,0,0,70.1,29.831H44.155a1.009,1.009,0,0,0-1.008,1.007Z" fill="url(#linear-gradient-4)"/>
      <path id="Path_1318" data-name="Path 1318" d="M66.694,42.328H47.559a1.007,1.007,0,0,1-1.008-1.007V34.505a2.017,2.017,0,0,1,2.015-2.015H65.687A2.017,2.017,0,0,1,67.7,34.505v6.816A1.007,1.007,0,0,1,66.694,42.328ZM48.566,40.313H65.687V34.505H48.566Z" fill="url(#linear-gradient-4)"/>
      <path id="Path_1319" data-name="Path 1319" d="M59.443,68.186H54.809a3.025,3.025,0,0,1-3.022-3.022V57.882a1.007,1.007,0,0,1,1.007-1.007h8.664a1.008,1.008,0,0,1,1.008,1.007v7.282A3.025,3.025,0,0,1,59.443,68.186ZM53.8,58.89v6.274a1.009,1.009,0,0,0,1.007,1.008h4.634a1.009,1.009,0,0,0,1.008-1.008V58.89Z" fill="url(#linear-gradient-4)"/>
      <path id="Path_1320" data-name="Path 1320" d="M61.269,63.538H52.983a1.007,1.007,0,0,1,0-2.015h8.286a1.007,1.007,0,1,1,0,2.015Z" fill="url(#linear-gradient-9)"/>
      <path id="Path_1321" data-name="Path 1321" d="M46.537,78.626H33.964A2.229,2.229,0,0,1,31.737,76.4V62.531a1.007,1.007,0,1,1,2.015,0V76.4a.212.212,0,0,0,.212.212H46.537a1.007,1.007,0,1,1,0,2.015Z" fill="url(#linear-gradient-4)"/>
    </g>
    <path id="Path_1322" data-name="Path 1322" d="M50.093,112.8A56.186,56.186,0,1,1,92.861,100.41" fill="none" stroke="#2664a5" stroke-linecap="round" stroke-linejoin="round" stroke-width="1"/>
  </g>
</svg>
