<svg xmlns="http://www.w3.org/2000/svg" width="112.063" height="112.111" viewBox="0 0 112.063 112.111">
  <g id="電子信箱-01" transform="translate(-0.345 -0.303)">
    <path id="Path_1492" data-name="Path 1492" d="M48.688,111.4a58.738,58.738,0,0,0,12.951.316A55.576,55.576,0,0,0,51.847,1,55.816,55.816,0,0,0,.99,52.493,54.4,54.4,0,0,0,8.1,83.607a11.347,11.347,0,0,0,9.792,5.686h71.7a5.326,5.326,0,0,0,5.37-5.37V28.328a5.326,5.326,0,0,0-5.37-5.37H23.259a5.326,5.326,0,0,0-5.37,5.37V83.923" transform="translate(0 0)" fill="none" stroke="#3670ac" stroke-linecap="round" stroke-linejoin="round" stroke-width="1"/>
    <path id="Path_1493" data-name="Path 1493" d="M88.317,20.8H11.4" transform="translate(6.11 11.571)" fill="none" stroke="#2867a6" stroke-linecap="round" stroke-linejoin="round" stroke-width="1"/>
    <path id="Path_1494" data-name="Path 1494" d="M18.391,18.4a1.9,1.9,0,1,1-1.9-1.9A1.921,1.921,0,0,1,18.391,18.4Z" transform="translate(7.965 9.08)" fill="none" stroke="#2867a6" stroke-linecap="round" stroke-linejoin="round" stroke-width="1"/>
    <path id="Path_1495" data-name="Path 1495" d="M23.691,18.4a1.825,1.825,0,0,1-1.9,1.9,1.921,1.921,0,0,1-1.9-1.9,1.9,1.9,0,0,1,3.791,0Z" transform="translate(11.035 9.08)" fill="none" stroke="#2867a6" stroke-linecap="round" stroke-linejoin="round" stroke-width="1"/>
    <path id="Path_1496" data-name="Path 1496" d="M28.991,18.4a1.9,1.9,0,1,1-1.9-1.9A1.825,1.825,0,0,1,28.991,18.4Z" transform="translate(14.106 9.08)" fill="none" stroke="#2867a6" stroke-linecap="round" stroke-linejoin="round" stroke-width="1"/>
    <path id="Path_1497" data-name="Path 1497" d="M17.3,15.65A46.6,46.6,0,0,1,46.045,5.7a45.408,45.408,0,0,1,24.639,7.107" transform="translate(9.529 2.822)" fill="none" stroke="#2867a6" stroke-linecap="round" stroke-linejoin="round" stroke-width="1"/>
    <path id="Path_1498" data-name="Path 1498" d="M60.407,64.638A46.449,46.449,0,0,1,44.77,67.323,46.067,46.067,0,0,1,19.5,59.9" transform="translate(10.804 34.226)" fill="none" stroke="#2867a6" stroke-linecap="round" stroke-linejoin="round" stroke-width="1"/>
    <g id="Group_681" data-name="Group 681" transform="translate(27.476 39.447)">
      <g id="Group_680" data-name="Group 680">
        <path id="Path_1499" data-name="Path 1499" d="M63.449,42.2V30.1a4.826,4.826,0,0,0-4.817-4.817H22.527A4.826,4.826,0,0,0,17.71,30.1v24.07a4.826,4.826,0,0,0,4.817,4.817H49.519A13.237,13.237,0,0,0,68.867,66.85a1.2,1.2,0,0,0-1.2-2.085,10.834,10.834,0,1,1,5.417-9.382v1.2a2.4,2.4,0,0,1-4.8,0V51.767a1.2,1.2,0,0,0-1.2-1.2,1.239,1.239,0,0,0-.837.332,5.959,5.959,0,0,0-3.98-1.548,6.018,6.018,0,0,0,0,12.035,5.938,5.938,0,0,0,4.486-2.053,4.809,4.809,0,0,0,8.75-2.764v-1.2A13.289,13.289,0,0,0,63.449,42.2ZM22.527,27.7H58.632c.047,0,.095.032.142.032l-17.2,14.12a2.069,2.069,0,0,1-1.9.063L22.4,27.728A.3.3,0,0,1,22.527,27.7ZM61.033,42.2A13.251,13.251,0,0,0,49,55.368c0,.411.032.805.063,1.2H22.527a2.4,2.4,0,0,1-2.4-2.4V30.1a2.448,2.448,0,0,1,.205-.963l17.926,14.7a4.217,4.217,0,0,0,4.564.047,1.317,1.317,0,0,0,.19-.126L60.828,29.134a2.448,2.448,0,0,1,.205.963V42.2Zm1.216,16.789a3.617,3.617,0,1,1,3.617-3.617A3.626,3.626,0,0,1,62.249,58.984Z" transform="translate(-17.71 -25.28)" fill="#2867a6"/>
      </g>
    </g>
  </g>
</svg>
