<svg xmlns="http://www.w3.org/2000/svg" width="110.708" height="112.164" viewBox="0 0 110.708 112.164">
  <g id="核准率100_-01" data-name="核准率100%-01" transform="translate(-0.9 -0.46)">
    <path id="路径_971" d="M22.756,85.082V22.874L22.6,16.622a5.414,5.414,0,0,1,5.314-5.471h1.25A2.281,2.281,0,0,1,31.2,12.4a3.582,3.582,0,0,0,3.439,2.345h19.85A3.74,3.74,0,0,0,57.924,12.4a2.089,2.089,0,0,1,2.032-1.25H61.05a5.414,5.414,0,0,1,5.314,5.471V85.066" transform="translate(11.936 5.736)" fill="none" stroke="#2766a6" stroke-linecap="round" stroke-linejoin="round" stroke-miterlimit="10" stroke-width="1"/>
    <path id="路径_972" d="M77.988,90.818a5.237,5.237,0,0,1-5.158,5.314H39.85s-2.188.156-2.188,2.188,2.188,2.345,2.188,2.345H75.487a6.8,6.8,0,0,0,6.721-6.877V19.7a6.907,6.907,0,0,0-6.721-6.877H37.193A6.8,6.8,0,0,0,30.472,19.7V93.616c0,12.66-8.128,6.877-8.128,6.877a57.136,57.136,0,0,1-4.689-4.22A55.923,55.923,0,0,1,1.4,56.728C1.416,25.953,25.939.96,56.262.96s54.846,25.008,54.846,55.784c0,28.291-20.632,51.564-47.344,55.315" transform="translate(0)" fill="none" stroke="#2766a6" stroke-linecap="round" stroke-linejoin="round" stroke-miterlimit="10" stroke-width="1"/>
    <path id="路径_973" d="M66.44,39.97a4.2,4.2,0,1,1,0-.031Z" transform="translate(31.867 19.587)" fill="none" stroke="#2766a6" stroke-linecap="round" stroke-linejoin="round" stroke-miterlimit="10" stroke-width="1"/>
    <path id="路径_974" d="M69.856,30.634a3.213,3.213,0,1,1,0-.156C69.856,30.525,69.856,30.587,69.856,30.634Z" transform="translate(34.844 14.856)" fill="none" stroke="#2766a6" stroke-linecap="round" stroke-linejoin="round" stroke-miterlimit="10" stroke-width="1"/>
    <path id="路径_975" d="M61.8,38.564,53.2,33.25" transform="translate(29.164 18.18)" fill="none" stroke="#2766a6" stroke-linecap="round" stroke-linejoin="round" stroke-miterlimit="10" stroke-width="1"/>
    <path id="路径_976" d="M61.9,38.752l4.064-7.5" transform="translate(34.063 17.054)" fill="none" stroke="#2766a6" stroke-linecap="round" stroke-linejoin="round" stroke-miterlimit="10" stroke-width="1"/>
    <path id="路径_977" d="M11,23.95A46.784,46.784,0,0,0,6.78,39.424a48.545,48.545,0,0,0,8.128,31.886" transform="translate(2.904 12.944)" fill="none" stroke="#2766a6" stroke-linecap="round" stroke-linejoin="round" stroke-miterlimit="10" stroke-width="1"/>
    <g id="组_464" transform="translate(35.221 55.164)">
      <path id="路径_978" d="M26.366-6.79,13.064.322a1.826,1.826,0,0,1-1.375.141L6.891-.976a2.393,2.393,0,0,0-1.876.219L.5,1.822A1.638,1.638,0,0,0,2.123,4.667c.016-.016.047-.016.063-.031L4.968,2.9a1.484,1.484,0,0,1,1.782.141L14.018,9.45,26.35,2.963" transform="translate(16.648 7.603)" fill="none" stroke="#2766a6" stroke-linecap="round" stroke-linejoin="round" stroke-miterlimit="10" stroke-width="1"/>
      <path id="路径_979" d="M.071,4.22l-1.11,1.11A1.585,1.585,0,0,1-3.29,5.283a1.586,1.586,0,0,1,0-2.2l1.11-1.11a1.585,1.585,0,0,1,2.251,0,1.6,1.6,0,0,1,0,2.251Z" transform="translate(14.731 12.27)" fill="none" stroke="#2766a6" stroke-linecap="round" stroke-linejoin="round" stroke-miterlimit="10" stroke-width="1"/>
      <path id="路径_980" d="M1.511,5.652.4,6.762A1.585,1.585,0,0,1-1.85,6.715a1.586,1.586,0,0,1,0-2.2L-.74,3.4a1.6,1.6,0,0,1,2.251.031A1.605,1.605,0,0,1,1.511,5.652Z" transform="translate(15.542 13.089)" fill="none" stroke="#2766a6" stroke-linecap="round" stroke-linejoin="round" stroke-miterlimit="10" stroke-width="1"/>
      <path id="路径_981" d="M2.938,7.1,1.829,8.2A1.587,1.587,0,0,1-.422,8.087a1.562,1.562,0,0,1,0-2.11l1.11-1.11a1.586,1.586,0,1,1,2.282,2.2c-.016.016-.016.031-.031.031Z" transform="translate(16.365 13.889)" fill="none" stroke="#2766a6" stroke-linecap="round" stroke-linejoin="round" stroke-miterlimit="10" stroke-width="1"/>
      <path id="路径_982" d="M4.391,8.512,3.3,9.622A1.618,1.618,0,0,1,1.03,9.591a1.586,1.586,0,0,1,0-2.2l1.11-1.11A1.588,1.588,0,0,1,4.391,8.512Z" transform="translate(17.163 14.73)" fill="none" stroke="#2766a6" stroke-linecap="round" stroke-linejoin="round" stroke-miterlimit="10" stroke-width="1"/>
      <path id="路径_983" d="M5.564,2.66,9.05,5.692A1.562,1.562,0,0,1,7,8.052c-.016-.016-.031-.031-.047-.031L3.47,4.973" transform="translate(18.787 12.923)" fill="none" stroke="#2766a6" stroke-linecap="round" stroke-linejoin="round" stroke-miterlimit="10" stroke-width="1"/>
      <path id="路径_984" d="M3.515,4.14,7,7.172A1.561,1.561,0,0,1,4.922,9.5L3.39,8.094" transform="translate(18.742 13.757)" fill="none" stroke="#2766a6" stroke-linecap="round" stroke-linejoin="round" stroke-miterlimit="10" stroke-width="1"/>
      <path id="路径_985" d="M4.026,6.67,5.558,8.077a1.561,1.561,0,0,1-2.079,2.329L2.26,9.312" transform="translate(18.106 15.181)" fill="none" stroke="#2766a6" stroke-linecap="round" stroke-linejoin="round" stroke-miterlimit="10" stroke-width="1"/>
      <path id="路径_986" d="M10.5,3.551a1.337,1.337,0,0,1,.125,1.891.476.476,0,0,1-.125.125,1.574,1.574,0,0,1-2.2.125L4.81,2.66" transform="translate(19.542 12.923)" fill="none" stroke="#2766a6" stroke-linecap="round" stroke-linejoin="round" stroke-miterlimit="10" stroke-width="1"/>
      <path id="路径_987" d="M-10.77-7.31-.063-1.136,5.454-2.23a4.069,4.069,0,0,1,1.938.094L11.956-.761" transform="translate(10.77 7.31)" fill="none" stroke="#2766a6" stroke-linecap="round" stroke-linejoin="round" stroke-miterlimit="10" stroke-width="1"/>
      <path id="路径_988" d="M.3,4.873-10.77-.66" transform="translate(10.77 11.054)" fill="none" stroke="#2766a6" stroke-linecap="round" stroke-linejoin="round" stroke-miterlimit="10" stroke-width="1"/>
    </g>
    <g id="Group_695" data-name="Group 695" transform="translate(38.459 30.564)">
      <g id="Group_693" data-name="Group 693" transform="translate(27.978)">
        <path id="Path_1521" data-name="Path 1521" d="M45.907,24.518a.42.42,0,0,1-.422-.422h-.844a1.265,1.265,0,0,0,.844,1.188v.5h.844v-.5a1.261,1.261,0,0,0-.422-2.454.422.422,0,1,1,.422-.422h.844a1.265,1.265,0,0,0-.844-1.188v-.5h-.844v.5a1.261,1.261,0,0,0,.422,2.454.422.422,0,1,1,0,.844Z" transform="translate(-42.093 -19.438)" fill="#2766a6"/>
        <path id="Path_1522" data-name="Path 1522" d="M46.824,27.528a3.814,3.814,0,1,0-3.814-3.814A3.809,3.809,0,0,0,46.824,27.528Zm0-6.768a2.97,2.97,0,1,1-2.97,2.97A2.968,2.968,0,0,1,46.824,20.76Z" transform="translate(-43.01 -19.9)" fill="#2766a6"/>
      </g>
      <path id="Path_1523" data-name="Path 1523" d="M44.01,29.977c0-.891.375-1.407.969-1.407.61,0,.969.5.969,1.407s-.375,1.422-.969,1.422S44.01,30.883,44.01,29.977Zm1.657,0c0-.75-.266-1.157-.672-1.157s-.672.406-.672,1.157.266,1.172.672,1.172C45.385,31.149,45.667,30.727,45.667,29.977Zm1.954-1.407H47.9l-2.5,4.658H45.12Zm-.563,3.251c0-.907.375-1.407.985-1.407.594,0,.969.5.969,1.407s-.391,1.422-.969,1.422C47.433,33.228,47.058,32.728,47.058,31.821Zm1.657,0c0-.75-.266-1.157-.672-1.157s-.672.406-.672,1.157.266,1.172.672,1.172C48.433,32.993,48.715,32.571,48.715,31.821Z" transform="translate(-14.469 -15.019)" fill="#2766a6"/>
      <g id="Group_694" data-name="Group 694" transform="translate(0 4.111)">
        <path id="Path_1524" data-name="Path 1524" d="M29.252,37.519c-.735,0-1.11-.344-1.11-1.016V25.312a4.82,4.82,0,0,1-2.094,1.078.9.9,0,0,1-.656-.266.8.8,0,0,1-.281-.641.907.907,0,0,1,.469-.766l2.563-1.829a2.3,2.3,0,0,1,1.329-.359q.891,0,.891,1.172V36.519C30.377,37.191,30,37.519,29.252,37.519Z" transform="translate(-25.11 -22.53)" fill="#2766a6"/>
        <path id="Path_1525" data-name="Path 1525" d="M38.636,34.831a3.632,3.632,0,0,1-7,.047,14.85,14.85,0,0,1-.594-4.845,14.907,14.907,0,0,1,.61-4.845,3.618,3.618,0,0,1,6.971-.016,14.7,14.7,0,0,1,.61,4.814A15.292,15.292,0,0,1,38.636,34.831ZM36.87,26.8c-.281-1.579-.86-2.36-1.735-2.36-1.266,0-1.907,1.86-1.907,5.6a21.649,21.649,0,0,0,.172,3.173c.281,1.579.86,2.376,1.735,2.376s1.469-.8,1.735-2.407a22.455,22.455,0,0,0,.172-3.2A19.624,19.624,0,0,0,36.87,26.8Z" transform="translate(-21.771 -22.53)" fill="#2766a6"/>
        <path id="Path_1526" data-name="Path 1526" d="M44.766,34.831a3.632,3.632,0,0,1-7,.047,14.85,14.85,0,0,1-.594-4.845,14.907,14.907,0,0,1,.61-4.845,3.618,3.618,0,0,1,6.971-.016,14.7,14.7,0,0,1,.61,4.814A15.292,15.292,0,0,1,44.766,34.831ZM43,26.8c-.281-1.579-.86-2.36-1.735-2.36-1.266,0-1.907,1.86-1.907,5.6a21.648,21.648,0,0,0,.172,3.173c.281,1.579.86,2.376,1.735,2.376s1.469-.8,1.735-2.407a22.456,22.456,0,0,0,.172-3.2A21.65,21.65,0,0,0,43,26.8Z" transform="translate(-18.32 -22.53)" fill="#2766a6"/>
      </g>
    </g>
  </g>
</svg>
