<?xml version="1.0" encoding="utf-8"?>
<!-- Generator: Adobe Illustrator 24.2.1, SVG Export Plug-In . SVG Version: 6.00 Build 0)  -->
<svg version="1.1" id="圖層_1" xmlns="http://www.w3.org/2000/svg" xmlns:xlink="http://www.w3.org/1999/xlink" x="0px" y="0px"
	 viewBox="0 0 634.3 460.6" style="enable-background:new 0 0 634.3 460.6;" xml:space="preserve">
<style type="text/css">
	.st0{enable-background:new    ;}
	.st1{fill:#036EB7;}
	.st2{fill:#F29600;}
	.st3{fill:none;stroke:#2664A5;stroke-width:2;stroke-linecap:round;stroke-linejoin:round;}
	.st4{fill:none;stroke:#2664A5;stroke-width:2;stroke-miterlimit:10;}
	.st5{fill:none;stroke:#2664A5;stroke-linecap:round;stroke-linejoin:round;}
	.st6{
        fill:none;stroke:#F29600;stroke-linecap:round;stroke-linejoin:round;stroke-dasharray:12;
        animation: dash 5s linear reverse infinite;
    }
	.st7{fill:none;stroke:#F29600;stroke-linecap:round;stroke-linejoin:round;}
	.st8{fill:#124385;}
	.st9{opacity:0.82;fill:url(#路径_940_1_);enable-background:new    ;}
	.st10{opacity:0.21;fill:url(#路径_941_1_);enable-background:new    ;}
	.st11{opacity:0.82;fill:url(#路径_943_1_);enable-background:new    ;}
	.st12{opacity:0.21;fill:url(#路径_944_1_);enable-background:new    ;}
	.st13{opacity:0.82;fill:url(#路径_946_1_);enable-background:new    ;}
	.st14{opacity:0.21;fill:url(#路径_947_1_);enable-background:new    ;}
	.st15{fill:#CE391A;}
	.st16{fill:#083A6E;}

    #路径_953,
    #直线_44,
    #路径_951 {
        stroke-dasharray: 12;
        stroke-dashoffset: 100%;
        animation: dash 7s linear infinite;
    }

    #直线_44,
    #路径_953 {
        animation-direction: reverse;
    }

    #路径_951 {
        animation-direction: normal;
    }

    @keyframes dash {
      0% {
        stroke-dashoffset: 100%;
      }
      100% {
        stroke-dashoffset: 0%;
      }
    }
</style>
<g id="组_3797" transform="translate(-291.668 -4285)">
	<g class="st0">
		<path class="st1" d="M317.8,4553.3c-0.8,0.3-1.7,0.5-2.5,0.7v6.8c0,1.2-0.3,1.9-1,2.2c-0.8,0.4-1.9,0.4-3.7,0.4
			c-0.1-0.6-0.4-1.6-0.7-2.2c1.1,0,2.2,0,2.5,0c0.4,0,0.5-0.1,0.5-0.5v-6.1l-3,0.8l-0.6-2.3c1-0.2,2.3-0.5,3.7-0.9v-5.1h-3.3v-2.2
			h3.3v-5.1h2.3v5.1h3v2.2h-3v4.5l2.2-0.6L317.8,4553.3z M331.5,4551.6c-1,3.2-2.7,5.6-4.8,7.5c1.8,1.1,4,1.9,6.5,2.3
			c-0.5,0.5-1.2,1.6-1.5,2.2c-2.7-0.7-5-1.7-7-3c-2.2,1.4-4.7,2.4-7.3,3c-0.2-0.7-0.8-1.7-1.2-2.2c2.4-0.5,4.6-1.2,6.6-2.4
			c-1.7-1.6-3-3.4-4-5.5l0.6-0.2h-1.3v-2.3h11.4l0.4-0.1L331.5,4551.6z M322.8,4543.6c0,2.4-0.7,5.3-4.1,7c-0.3-0.5-1.1-1.4-1.6-1.8
			c2.9-1.5,3.4-3.5,3.4-5.3v-2.8h8.6v5.8c0,0.7,0.1,1,0.5,1h1.7c0.4,0,1-0.1,1.4-0.2c0,0.6,0.1,1.5,0.2,2c-0.4,0.1-0.9,0.2-1.5,0.2
			h-2c-2.1,0-2.6-0.9-2.6-3.1v-3.6h-4V4543.6z M321.1,4553.3c0.9,1.7,2.1,3.2,3.6,4.4c1.5-1.2,2.7-2.7,3.6-4.4H321.1z"/>
		<path class="st1" d="M352.9,4543.7c0,0.2,0,0.4-0.1,0.6c1.4,1.4,4.2,2.3,7.6,2.5c-0.5,0.5-1.1,1.4-1.3,2c-3-0.4-5.3-1.4-7-2.9
			c-0.9,1.2-3,2.3-7.5,2.9c-0.2-0.5-0.8-1.4-1.2-1.8h-6.6v-1.9h7.5v1.7c5.6-0.7,6.2-2.2,6.2-3.3v-0.3h-2.2c-0.6,0.9-1.2,1.8-1.9,2.4
			c-0.4-0.3-1.3-1-1.8-1.2c1.4-1.2,2.4-3,3-4.8l2.2,0.5c-0.2,0.4-0.3,0.9-0.5,1.3h8.1l0.3-0.1l1.7,0.5c-0.7,1.4-1.5,2.9-2.3,3.8
			l-1.9-0.7c0.3-0.5,0.7-1.1,1.1-1.8h-3.6V4543.7z M352.7,4559.4c2.7,0.9,5.6,2,7.3,2.8l-2.2,1.3c-1.6-0.9-4.3-2-7-2.9l1.5-1.2h-7.8
			l2.2,1c-2.1,1.3-5.4,2.5-8,3.3c-0.4-0.5-1.3-1.4-1.8-1.8c2.7-0.5,5.7-1.4,7.5-2.4h-4.2V4549h17v10.5H352.7z M343.8,4543h-6.4v-1.8
			h6.4V4543z M342.6,4552h12.2v-1.5h-12.2V4552z M342.6,4554.9h12.2v-1.5h-12.2V4554.9z M342.6,4557.9h12.2v-1.5h-12.2V4557.9z"/>
		<path class="st1" d="M377.1,4539.9c0,1-0.1,2.3-0.2,3.9c0.4,3.3,2,13.6,11,17.7c-0.7,0.5-1.4,1.4-1.8,2.1
			c-6.1-2.9-8.9-8.6-10.3-13.3c-1.3,4.9-4.1,10.1-9.9,13.4c-0.4-0.6-1.2-1.4-2-1.9c10.6-5.5,10.3-17.6,10.4-21.8H377.1z"/>
		<path class="st1" d="M408.7,4556.1h-6.7l-1.6,5.5h-3.1l6.3-19.1h3.5l6.3,19.1h-3.2L408.7,4556.1z M408,4553.8l-0.8-2.6
			c-0.6-2.1-1.2-4.2-1.8-6.4h-0.1c-0.5,2.2-1.1,4.3-1.8,6.4l-0.8,2.6H408z"/>
	</g>
	<g class="st0">
		<path class="st2" d="M317.2,4358.3c-0.6,1.7-1.5,3.5-2.4,5.1v18h-2.3v-14.3c-0.8,1-1.5,2-2.3,2.8c-0.2-0.6-0.9-1.8-1.3-2.4
			c2.4-2.4,4.8-6.1,6.2-9.8L317.2,4358.3z M323.8,4378.1c-1.5,1.3-4,2.6-6,3.4c-0.4-0.4-1.3-1.3-1.9-1.7c2.1-0.6,4.3-1.6,5.6-2.6
			L323.8,4378.1z M323.5,4360.6h-6.1v-1.6h6.1v-1.4h2.4v1.4h6.3v1.6H326v1.1h5.7v1.5H326v1.2h7.2v1.6h-16.8v-1.6h7.2v-1.2h-5.4v-1.5
			h5.4V4360.6z M318.3,4377v-9.8h13.2v9.8H318.3z M320.7,4370h8.5v-1.3h-8.5V4370z M320.7,4372.7h8.5v-1.4h-8.5V4372.7z
			 M320.7,4375.4h8.5v-1.4h-8.5V4375.4z M328.3,4377.1c1.8,1,3.8,2.3,4.9,3.3l-2.2,1.3c-1-1-3.2-2.5-4.9-3.6L328.3,4377.1z"/>
		<path class="st2" d="M344.1,4371.7c-0.3-0.7-0.9-1.8-1.5-2.9v12.7h-2.1v-12.2c-0.8,2.7-1.8,5.3-2.9,7c-0.2-0.7-0.8-1.8-1.1-2.4
			c1.5-2.1,3-5.9,3.7-9.1h-3v-2.2h3.4v-4.9h2.1v4.9h2.6v2.2h-2.6v1.2c0.6,0.8,2.4,3.3,2.8,4L344.1,4371.7z M354.2,4378.9h6.1v1.8
			h-11.6v0.9h-2.2v-7.8c-0.4,0.4-0.9,0.9-1.3,1.3c-0.2-0.4-0.8-1.5-1.2-2c1.5-1.2,3-3,3.9-4.9h-2.1v-5.1h6.1v5.1H349l1,0.3
			c-0.3,0.5-0.5,1.1-0.9,1.6h2.9c-0.1-0.4-0.3-0.9-0.4-1.3l2.1-0.5c0.2,0.5,0.5,1.2,0.7,1.8h5.5v1.6h-5.6v1.3h4.6v1.6h-4.6v1.3h4.6
			v1.6h-4.6V4378.9z M349.3,4361.4H345v-1.8h4.3v-1.9h2.1v4.9h-2.1V4361.4z M347.7,4366.5h2.4v-2h-2.4V4366.5z M352.1,4372.9v-1.3
			h-3.4v1.3H352.1z M352.1,4374.6h-3.4v1.3h3.4V4374.6z M348.7,4378.9h3.4v-1.3h-3.4V4378.9z M359.4,4368.1h-6.2v-5.1h6.2V4368.1z
			 M360.5,4359.6v1.8h-4.7v1.1h-2.1v-4.9h2.1v1.9H360.5z M357.5,4364.6H355v2h2.5V4364.6z"/>
		<path class="st2" d="M386.2,4370.5v11h-2.7v-1.4h-18v-9.5h2.7v7.1h6.3v-8.6h-7.7v-9.1h2.5v6.8h5.2v-9h2.7v9h5.4v-6.8h2.7v9.1h-8
			v8.6h6.4v-7.1H386.2z"/>
		<path class="st2" d="M413.7,4370v1.8h-16.6v0.9h-2.4v-7.9c-0.6,0.8-1.4,1.5-2,2.1c-0.3-0.5-1.2-1.4-1.7-1.8
			c2.2-1.8,4.4-4.7,5.7-7.6l2.2,0.7c-0.3,0.7-0.7,1.4-1.1,2.1h5.3c-0.3-0.7-0.6-1.5-1-2.1l2.2-0.7c0.5,0.9,1.1,1.9,1.4,2.8h7.3v1.8
			h-7.6v1.5h6.3v1.6h-6.3v1.5h6.3v1.6h-6.3v1.6H413.7z M394.7,4373.5h17.6v8h-2.5v-1.2h-12.6v1.2h-2.4V4373.5z M397.1,4375.5v3h12.6
			v-3H397.1z M403.2,4362.1h-6.1v1.5h6.1V4362.1z M403.2,4365.3h-6.1v1.5h6.1V4365.3z M397.1,4370h6.1v-1.6h-6.1V4370z"/>
	</g>
	<g class="st0">
		<path class="st2" d="M825.5,4358.1h2.4v23.5h-2.4v-6.9c-4.4,1.6-5.3,2-5.8,2.4c-0.2-0.6-0.6-1.7-0.9-2.2c0.4-0.3,0.9-0.7,0.9-1.8
			v-12.6h2.4v12.9l3.5-1.1V4358.1z M840.3,4364.8c-0.7,4-1.7,7.3-3.4,10c1.5,2,3.2,3.5,5.3,4.6c-0.6,0.4-1.3,1.3-1.7,2
			c-2-1.1-3.6-2.7-5-4.5c-1.5,1.9-3.3,3.4-5.6,4.7c-0.3-0.5-1.1-1.5-1.6-2c2.4-1.2,4.3-2.8,5.8-4.8c-1.1-2-2.1-4.2-2.8-6.6
			c-0.5,1-1.1,1.9-1.7,2.6c-0.3-0.5-1.2-1.6-1.7-2.1c2.2-2.6,3.5-6.7,4.2-11.2l2.5,0.4c-0.3,1.5-0.6,3-1,4.5h8.4v2.3H840.3z
			 M832.7,4365.4c0.7,2.6,1.6,5.1,2.8,7.3c1.1-2.2,1.9-4.8,2.4-7.8h-5L832.7,4365.4z"/>
		<path class="st2" d="M850.1,4375.9c-0.7,2.1-1.8,4.3-2.9,5.6c-0.4-0.4-1.3-1-1.8-1.2c1.2-1.2,2.1-3,2.6-4.9L850.1,4375.9z
			 M854.3,4375h-7.6v-16.4h7.6V4375z M852.1,4360.6h-3.3v2.9h3.3V4360.6z M852.1,4365.3h-3.3v2.9h3.3V4365.3z M852.1,4370.1h-3.3v3
			h3.3V4370.1z M852.9,4375.3c0.8,1.3,1.7,3,2.2,4.1l-1.9,0.9c-0.3-1.1-1.3-2.9-2.1-4.2L852.9,4375.3z M869.4,4377.3h-1.4v1.9
			c0,1.1-0.2,1.6-1,2c-0.8,0.3-2,0.3-3.8,0.3c-0.1-0.5-0.4-1.4-0.6-2c1.2,0.1,2.4,0.1,2.7,0c0.4,0,0.4-0.1,0.4-0.4v-1.8h-7.5v4.2
			h-2.2v-4.2h-1.5v-1.8h1.5v-6.6h4.8v-1.2h-6.2v-1.8h3.5v-1.4h-2.3v-1.7h2.3v-1.3h-3v-1.8h3v-2.1h2.1v2.1h3.3v-2.1h2.2v2.1h3v1.8h-3
			v1.3h2.6v1.7h-2.6v1.4h3.5v1.8h-6.3v1.2h5v6.6h1.4V4377.3z M858.3,4370.7v1.5h2.6v-1.5H858.3z M858.3,4375.5h2.6v-1.7h-2.6V4375.5
			z M860.4,4362.8h3.3v-1.3h-3.3V4362.8z M860.4,4365.9h3.3v-1.4h-3.3V4365.9z M863.1,4370.7v1.5h2.8v-1.5H863.1z M865.8,4375.5
			v-1.7h-2.8v1.7H865.8z"/>
		<path class="st2" d="M880.7,4358.3c-0.7,1.7-1.5,3.5-2.4,5.1v18H876v-14.3c-0.8,1-1.5,2-2.3,2.8c-0.2-0.6-0.9-1.8-1.3-2.4
			c2.4-2.4,4.8-6.1,6.2-9.8L880.7,4358.3z M887.4,4378.1c-1.5,1.3-4,2.6-6,3.4c-0.4-0.4-1.3-1.3-1.9-1.7c2.1-0.6,4.3-1.6,5.6-2.6
			L887.4,4378.1z M887.1,4360.6H881v-1.6h6.1v-1.4h2.4v1.4h6.3v1.6h-6.3v1.1h5.7v1.5h-5.7v1.2h7.2v1.6h-16.8v-1.6h7.2v-1.2h-5.4
			v-1.5h5.4V4360.6z M881.8,4377v-9.8H895v9.8H881.8z M884.2,4370h8.5v-1.3h-8.5V4370z M884.2,4372.7h8.5v-1.4h-8.5V4372.7z
			 M884.2,4375.4h8.5v-1.4h-8.5V4375.4z M891.8,4377.1c1.8,1,3.8,2.3,4.9,3.3l-2.2,1.3c-1-1-3.2-2.5-4.9-3.6L891.8,4377.1z"/>
		<path class="st2" d="M907.6,4371.7c-0.3-0.7-0.9-1.8-1.5-2.9v12.7H904v-12.2c-0.8,2.7-1.8,5.3-2.9,7c-0.2-0.7-0.8-1.8-1.1-2.4
			c1.5-2.1,3-5.9,3.7-9.1h-3v-2.2h3.4v-4.9h2.1v4.9h2.6v2.2h-2.6v1.2c0.6,0.8,2.4,3.3,2.8,4L907.6,4371.7z M917.7,4378.9h6.1v1.8
			h-11.6v0.9h-2.2v-7.8c-0.4,0.4-0.9,0.9-1.3,1.3c-0.2-0.4-0.8-1.5-1.2-2c1.5-1.2,3-3,3.9-4.9h-2.1v-5.1h6.1v5.1h-2.9l1,0.3
			c-0.3,0.5-0.5,1.1-0.9,1.6h2.9c-0.1-0.4-0.3-0.9-0.4-1.3l2.1-0.5c0.2,0.5,0.5,1.2,0.7,1.8h5.5v1.6h-5.6v1.3h4.6v1.6h-4.6v1.3h4.6
			v1.6h-4.6V4378.9z M912.8,4361.4h-4.3v-1.8h4.3v-1.9h2.1v4.9h-2.1V4361.4z M911.2,4366.5h2.4v-2h-2.4V4366.5z M915.6,4372.9v-1.3
			h-3.4v1.3H915.6z M915.6,4374.6h-3.4v1.3h3.4V4374.6z M912.2,4378.9h3.4v-1.3h-3.4V4378.9z M922.9,4368.1h-6.2v-5.1h6.2V4368.1z
			 M924,4359.6v1.8h-4.7v1.1h-2.1v-4.9h2.1v1.9H924z M921.1,4364.6h-2.5v2h2.5V4364.6z"/>
	</g>
	<g id="组_433" transform="translate(62.772 4216.742)">
		<path id="路径_929" class="st3" d="M242.1,269.9c0,0,21-10.1,35.9-6.4c0,0,9.4,1.9,17.1,2.8c0,0,11.3,0.6,7,8.2
			c0,0-3.4,3-14,2.1c0,0-9.4-0.9-2.7,1.8c9.2,2.4,18.8,2.4,28,0c0,0,23.2-9.7,26.8-5.2c0,0,4,5.5,0,9.1c0,0-26.8,15.5-37.8,16.8
			c0,0-14.9,1.5-25.9-1.5c0,0-11.3-3-18.9-3"/>
		<path id="路径_930" class="st3" d="M230.2,272.7l5.8-2.7l16.4,29.6l-5.8,3.6"/>
		<g id="组_432">
			<path id="路径_931" class="st4" d="M315.6,214.1c0,0,0.4-13-16.7-13c0,0-15.2-0.2-15.2,13c0,0-1.4,15.6,15.9,15.6
				c0,0,15.9-1.8,15.9,13c0,0,0.6,13.4-16,13.4c0,0-16,0.8-16-13.4"/>
			<line id="直线_40" class="st3" x1="302.4" y1="195.6" x2="302.4" y2="260.8"/>
			<line id="直线_41" class="st3" x1="296.3" y1="195.6" x2="296.3" y2="260.8"/>
		</g>
		<path id="路径_932" class="st3" d="M263.1,256.1c-15.2-20.2-11.1-48.9,9.1-64.1c20.2-15.2,48.9-11.1,64.1,9.1
			c15.2,20.2,11.1,48.9-9.1,64.1c-4.8,3.6-10.4,6.3-16.2,7.8"/>
	</g>
	<g class="st0">
		<path class="st1" d="M828.5,4553.3c-0.8,0.3-1.7,0.5-2.5,0.7v6.8c0,1.2-0.3,1.9-1,2.2c-0.8,0.4-1.9,0.4-3.7,0.4
			c-0.1-0.6-0.4-1.6-0.7-2.2c1.1,0,2.2,0,2.5,0c0.4,0,0.5-0.1,0.5-0.5v-6.1l-3,0.8l-0.6-2.3c1-0.2,2.3-0.5,3.7-0.9v-5.1h-3.3v-2.2
			h3.3v-5.1h2.3v5.1h3v2.2h-3v4.5l2.2-0.6L828.5,4553.3z M842.3,4551.6c-1,3.2-2.7,5.6-4.8,7.5c1.8,1.1,4,1.9,6.5,2.3
			c-0.5,0.5-1.2,1.6-1.5,2.2c-2.7-0.7-5-1.7-7-3c-2.2,1.4-4.7,2.4-7.3,3c-0.2-0.7-0.8-1.7-1.2-2.2c2.4-0.5,4.6-1.2,6.6-2.4
			c-1.7-1.6-3-3.4-4-5.5l0.7-0.2h-1.3v-2.3h11.4l0.4-0.1L842.3,4551.6z M833.5,4543.6c0,2.4-0.7,5.3-4.1,7c-0.3-0.5-1.1-1.4-1.6-1.8
			c2.9-1.5,3.4-3.5,3.4-5.3v-2.8h8.6v5.8c0,0.7,0.1,1,0.5,1h1.7c0.4,0,1-0.1,1.4-0.2c0,0.6,0.1,1.5,0.2,2c-0.4,0.1-0.9,0.2-1.5,0.2
			h-2c-2.1,0-2.6-0.9-2.6-3.1v-3.6h-4V4543.6z M831.8,4553.3c0.9,1.7,2.1,3.2,3.6,4.4c1.5-1.2,2.7-2.7,3.6-4.4H831.8z"/>
		<path class="st1" d="M863.6,4543.7c0,0.2,0,0.4-0.1,0.6c1.4,1.4,4.2,2.3,7.6,2.5c-0.5,0.5-1.1,1.4-1.3,2c-3-0.4-5.3-1.4-7-2.9
			c-0.9,1.2-3,2.3-7.5,2.9c-0.2-0.5-0.8-1.4-1.2-1.8h-6.6v-1.9h7.5v1.7c5.6-0.7,6.2-2.2,6.2-3.3v-0.3h-2.2c-0.6,0.9-1.2,1.8-1.9,2.4
			c-0.4-0.3-1.3-1-1.8-1.2c1.4-1.2,2.4-3,3-4.8l2.2,0.5c-0.2,0.4-0.3,0.9-0.5,1.3h8.1l0.3-0.1l1.7,0.5c-0.7,1.4-1.5,2.9-2.3,3.8
			l-1.9-0.7c0.3-0.5,0.7-1.1,1.1-1.8h-3.6V4543.7z M863.4,4559.4c2.7,0.9,5.6,2,7.3,2.8l-2.2,1.3c-1.6-0.9-4.3-2-7-2.9l1.5-1.2h-7.8
			l2.2,1c-2.1,1.3-5.4,2.5-8,3.3c-0.4-0.5-1.3-1.4-1.8-1.8c2.7-0.5,5.7-1.4,7.5-2.4H851V4549h17v10.5H863.4z M854.5,4543h-6.4v-1.8
			h6.4V4543z M853.4,4552h12.2v-1.5h-12.2V4552z M853.4,4554.9h12.2v-1.5h-12.2V4554.9z M853.4,4557.9h12.2v-1.5h-12.2V4557.9z"/>
		<path class="st1" d="M887.9,4539.9c0,1-0.1,2.3-0.2,3.9c0.4,3.3,2,13.6,11,17.7c-0.7,0.5-1.4,1.4-1.8,2.1
			c-6.1-2.9-8.9-8.6-10.3-13.3c-1.3,4.9-4.1,10.1-9.9,13.4c-0.4-0.6-1.2-1.4-2-1.9c10.6-5.5,10.3-17.6,10.4-21.8H887.9z"/>
		<path class="st1" d="M910.6,4542.5h5.9c3.9,0,6.8,1.2,6.8,4.7c0,1.8-1,3.6-2.7,4.1v0.1c2.2,0.5,3.8,1.9,3.8,4.6
			c0,3.8-3.1,5.6-7.3,5.6h-6.4V4542.5z M916.2,4550.4c2.9,0,4.1-1.1,4.1-2.9c0-2-1.4-2.8-4.1-2.8h-2.7v5.6H916.2z M916.6,4559.2
			c3,0,4.7-1.1,4.7-3.4c0-2.2-1.7-3.1-4.7-3.1h-3v6.5H916.6z"/>
	</g>
	<g id="组_435" transform="translate(62.772 4216.742)">
		<path id="路径_933" class="st3" d="M752.8,269.9c0,0,21-10.1,35.9-6.4c0,0,9.4,1.9,17.1,2.8c0,0,11.3,0.6,7,8.2
			c0,0-3.4,3-14,2.1c0,0-9.4-0.9-2.7,1.8c9.2,2.4,18.8,2.4,28,0c0,0,23.2-9.7,26.8-5.2c0,0,4,5.5,0,9.1c0,0-26.8,15.5-37.8,16.8
			c0,0-14.9,1.5-25.9-1.5c0,0-11.3-3-18.9-3"/>
		<path id="路径_934" class="st3" d="M740.9,272.7l5.8-2.7l16.5,29.6l-5.8,3.6"/>
		<g id="组_434">
			<path id="路径_935" class="st4" d="M826.3,214.1c0,0,0.4-13-16.7-13c0,0-15.2-0.2-15.2,13c0,0-1.4,15.6,15.9,15.6
				c0,0,15.9-1.8,15.9,13c0,0,0.6,13.4-16,13.4c0,0-16,0.8-16-13.4"/>
			<line id="直线_42" class="st3" x1="813.1" y1="195.6" x2="813.1" y2="260.8"/>
			<line id="直线_43" class="st3" x1="807" y1="195.6" x2="807" y2="260.8"/>
		</g>
		<path id="路径_936" class="st3" d="M773.8,256.1c-15.2-20.2-11.1-48.9,9.1-64.1c20.2-15.2,48.9-11.1,64.1,9.1
			s11.1,48.9-9.1,64.1c-4.8,3.6-10.4,6.3-16.2,7.8"/>
	</g>
	<g class="st0">
		<path class="st1" d="M563.3,4437.8c-0.6,1.7-1.5,3.5-2.4,5.1v18h-2.3v-14.3c-0.8,1-1.5,2-2.3,2.8c-0.2-0.6-0.9-1.8-1.3-2.4
			c2.4-2.4,4.8-6.1,6.2-9.8L563.3,4437.8z M569.9,4457.6c-1.5,1.3-4,2.6-6,3.4c-0.4-0.4-1.3-1.3-1.9-1.7c2.1-0.6,4.3-1.6,5.6-2.6
			L569.9,4457.6z M569.6,4440.1h-6.1v-1.6h6.1v-1.4h2.4v1.4h6.3v1.6h-6.3v1.1h5.7v1.5h-5.7v1.2h7.2v1.6h-16.8v-1.6h7.2v-1.2h-5.4
			v-1.5h5.4V4440.1z M564.4,4456.5v-9.8h13.2v9.8H564.4z M566.7,4449.5h8.5v-1.3h-8.5V4449.5z M566.7,4452.2h8.5v-1.4h-8.5V4452.2z
			 M566.7,4454.9h8.5v-1.4h-8.5V4454.9z M574.4,4456.6c1.8,1,3.8,2.3,4.9,3.3l-2.2,1.3c-1-1-3.2-2.5-4.9-3.6L574.4,4456.6z"/>
		<path class="st1" d="M590.2,4451.2c-0.3-0.7-0.9-1.8-1.5-2.9v12.7h-2.1v-12.2c-0.8,2.7-1.8,5.3-2.9,7c-0.2-0.7-0.8-1.8-1.1-2.4
			c1.5-2.1,3-5.9,3.7-9.1h-3v-2.2h3.4v-4.9h2.1v4.9h2.6v2.2h-2.6v1.2c0.6,0.8,2.4,3.3,2.8,4L590.2,4451.2z M600.3,4458.4h6.1v1.8
			h-11.6v0.9h-2.2v-7.8c-0.4,0.4-0.9,0.9-1.3,1.3c-0.2-0.4-0.8-1.5-1.2-2c1.5-1.2,3-3,3.9-4.9h-2.1v-5.1h6.1v5.1h-2.9l1,0.3
			c-0.3,0.5-0.5,1.1-0.9,1.6h2.9c-0.1-0.4-0.3-0.9-0.4-1.3l2.1-0.5c0.2,0.5,0.5,1.2,0.7,1.8h5.5v1.6h-5.6v1.3h4.6v1.6h-4.6v1.3h4.6
			v1.6h-4.6V4458.4z M595.4,4440.9h-4.3v-1.8h4.3v-1.9h2.1v4.9h-2.1V4440.9z M593.8,4446h2.4v-2h-2.4V4446z M598.2,4452.5v-1.3h-3.4
			v1.3H598.2z M598.2,4454.1h-3.4v1.3h3.4V4454.1z M594.8,4458.4h3.4v-1.3h-3.4V4458.4z M605.5,4447.6h-6.2v-5.1h6.2V4447.6z
			 M606.6,4439.1v1.8h-4.7v1.1h-2.1v-4.9h2.1v1.9H606.6z M603.6,4444.1h-2.5v2h2.5V4444.1z"/>
		<path class="st1" d="M630.9,4453.4h3v1.8h-3v3.5c0,1.1-0.2,1.6-1,1.9c-0.8,0.3-2,0.3-3.7,0.3c-0.1-0.6-0.4-1.4-0.7-2
			c1.2,0.1,2.4,0.1,2.8,0.1c0.4,0,0.5-0.1,0.5-0.4v-3.4h-4.8c1,0.9,1.9,2,2.4,2.9l-1.8,1.1c-0.4-0.9-1.4-2.2-2.3-3.1l1.5-0.9h-2.8
			v1.4h-4.2v4.3h-2.2v-4.3H610v-2.2h4.4v-1.8h-3.5v-9.1h3.5v-1.7h-4v-2.1h4v-2.7h2.2v2.7h3.9v2.1h-3.9v1.7h3.6v9.1h-3.6v1.8h4.1
			v-1.1h8v-1.2h2.2V4453.4z M612.7,4447.3h2v-2h-2V4447.3z M612.7,4450.9h2v-2h-2V4450.9z M618.4,4445.3h-2.1v2h2.1V4445.3z
			 M618.4,4449h-2.1v2h2.1V4449z M620.7,4450.4c1.5,0,3.4-0.1,5.4-0.1v-1.5h-4.7v-6.8h4.7v-1.2H621v-1.8h5.2v-1.8h2.1v1.8h5.4v1.8
			h-5.4v1.2h4.8v6.8h-1.5c1,1,2,2.2,2.5,3.1l-1.7,0.9c-0.2-0.3-0.4-0.7-0.6-1c-4,0.1-8,0.2-10.9,0.3L620.7,4450.4z M623.4,4444.7
			h2.7v-1.3h-2.7V4444.7z M626.1,4447.4v-1.4h-2.7v1.4H626.1z M628.2,4443.4v1.3h2.8v-1.3H628.2z M631,4446.1h-2.8v1.4h2.8V4446.1z
			 M628.2,4450.2l2.3,0c-0.3-0.4-0.6-0.7-0.9-1l0.9-0.4h-2.2V4450.2z"/>
		<path class="st1" d="M645.6,4443.4h-8.3v-2h8.3V4443.4z M645,4459.6h-5v1.1h-1.7v-8.7h6.7V4459.6z M644.9,4446.9h-6.5v-1.9h6.5
			V4446.9z M638.4,4448.4h6.5v1.9h-6.5V4448.4z M641.2,4441.4c-0.2-0.9-0.8-2.4-1.4-3.5l1.7-0.6c0.6,1.1,1.2,2.5,1.5,3.4
			L641.2,4441.4z M640,4453.9v3.8h3.2v-3.8H640z M660.8,4455.9c-0.9,0.6-1.9,1.2-2.9,1.6c1,0.8,2.2,1.4,3.6,1.7
			c-0.4,0.4-1,1.2-1.3,1.7c-3.4-1.1-5.6-3.4-6.9-6.5h-0.4c-0.6,0.6-1.3,1.1-2.1,1.6v2.4l3.5-0.6c0,0.6,0,1.4,0.1,1.8
			c-4.3,0.9-5.1,1.2-5.5,1.4c-0.2-0.4-0.7-1.1-1-1.5c0.4-0.3,1.1-1,1.1-2.3v-0.3c-0.9,0.4-1.8,0.8-2.7,1.1c-0.2-0.4-0.8-1.2-1.2-1.6
			c1.8-0.5,3.7-1.2,5.1-2.1h-4.7v-1.7h3.8v-1.1h-2.6v-1.6h2.6v-1.1h-3v-1.5h3v-1.3H647v-4.4h5.9v4.4h-1.2v1.3h3.4v-1.3h-1v-4.4h6
			v4.4h-2.9v1.3h3.4v1.5h-3.4v1.1h2.9v1.6h-2.9v1.1h3.9v1.7h-5.7c0.3,0.7,0.8,1.3,1.3,1.9c1-0.5,2.1-1.2,2.8-1.7L660.8,4455.9z
			 M660.9,4440.8H646v-1.8h6.4c-0.2-0.5-0.5-1-0.7-1.5l2-0.6c0.4,0.6,0.8,1.5,1.1,2.1h6.1V4440.8z M648.8,4444.7h2.2v-1.7h-2.2
			V4444.7z M651.7,4450h3.4v-1.1h-3.4V4450z M651.7,4452.7h3.4v-1.1h-3.4V4452.7z M655.9,4444.7h2.3v-1.7h-2.3V4444.7z"/>
	</g>
	<g class="st0">
		<path class="st2" d="M545.1,4498.7h-2v10.6c0,0.9-0.2,1.3-0.8,1.5c-0.6,0.2-1.7,0.2-3.3,0.2c-0.1-0.3-0.3-0.9-0.5-1.3
			c1.3,0.1,2.6,0,3,0c0.4,0,0.5-0.1,0.5-0.5v-10.6h-11v-1.2h14.2V4498.7z M533.7,4506.9v1.3h-1.2v-7.2h6.5v5.9H533.7z M533.7,4502.2
			v3.6h4.2v-3.6H533.7z"/>
		<path class="st2" d="M551,4504.9v4.5c0,0.7-0.1,1-0.6,1.2c-0.4,0.2-1,0.2-2.1,0.2c0-0.3-0.2-0.8-0.4-1.1c0.7,0,1.4,0,1.6,0
			c0.2,0,0.3-0.1,0.3-0.3v-4.2c-0.8,0.2-1.5,0.4-2.1,0.6l-0.4-1.2c0.7-0.2,1.5-0.4,2.5-0.7v-3.4h-2.2v-1.1h2.2v-3.2h1.2v3.2h2.1v1.1
			H551v3.1l2.1-0.6l0.2,1.1L551,4504.9z M562.1,4502.8h-2.7v8.1h-1.2v-8.1h-3v0c0,2.9-0.3,5.7-2,8.1c-0.2-0.3-0.6-0.6-0.9-0.8
			c1.6-2.3,1.7-4.9,1.7-7.4v-5c2.3-0.3,5.1-0.7,6.7-1.3l0.7,1c-1.6,0.5-4.1,0.9-6.3,1.2v3h6.9V4502.8z"/>
		<path class="st2" d="M568.4,4496.7c-0.4,1.1-0.8,2.1-1.2,3.1v11.1H566v-9c-0.5,0.8-1,1.5-1.5,2.1c-0.1-0.3-0.4-0.9-0.6-1.2
			c1.4-1.6,2.6-4,3.4-6.5L568.4,4496.7z M572.6,4509.3c-1,0.7-2.5,1.3-4,1.6c-0.2-0.2-0.4-0.6-0.7-0.8c1.4-0.3,2.9-0.9,3.8-1.4
			L572.6,4509.3z M571.7,4498.1h-3.1v-0.9h10.2v0.9h-3.3v0.9h2.8v3.1h-9.3v-3.1h2.8V4498.1z M569.2,4508.6v-5.7h8.8v5.7H569.2z
			 M569.9,4501.3h1.7v-1.5h-1.7V4501.3z M570.3,4504.5h6.5v-0.9h-6.5V4504.5z M570.3,4506.2h6.5v-0.9h-6.5V4506.2z M570.3,4507.9
			h6.5v-0.9h-6.5V4507.9z M574.4,4498.1h-1.8v0.9h1.8V4498.1z M572.6,4501.3h1.8v-1.5h-1.8V4501.3z M575.2,4508.7
			c1.4,0.5,2.9,1.1,3.8,1.6l-1,0.7c-0.8-0.5-2.2-1.1-3.6-1.6L575.2,4508.7z M575.4,4499.8v1.5h1.8v-1.5H575.4z"/>
		<path class="st2" d="M585.3,4497h1.1l-4.8,15.6h-1.1L585.3,4497z"/>
		<path class="st2" d="M602.6,4505.4H596v5.6h-1.2v-5.6h-6.5v-1.2h6.5v-5.6h-5.6v-1.2h12.5v1.2H596v5.6h6.6V4505.4z M591.3,4499.4
			c0.7,1.2,1.3,2.7,1.5,3.6l-1.1,0.4c-0.2-0.9-0.8-2.5-1.4-3.7L591.3,4499.4z M597.8,4503.1c0.6-1,1.3-2.6,1.7-3.8l1.2,0.4
			c-0.6,1.3-1.3,2.8-2,3.8L597.8,4503.1z"/>
		<path class="st2" d="M609.1,4496.7c-0.4,1.1-0.8,2.1-1.2,3.1v11.1h-1.1v-9c-0.5,0.8-1,1.5-1.5,2.1c-0.1-0.3-0.4-0.9-0.6-1.2
			c1.4-1.6,2.6-4,3.4-6.5L609.1,4496.7z M613.3,4509.3c-1,0.7-2.5,1.3-4,1.6c-0.2-0.2-0.4-0.6-0.7-0.8c1.4-0.3,2.9-0.9,3.8-1.4
			L613.3,4509.3z M612.3,4498.1h-3.1v-0.9h10.2v0.9h-3.3v0.9h2.8v3.1h-9.3v-3.1h2.8V4498.1z M609.9,4508.6v-5.7h8.8v5.7H609.9z
			 M610.6,4501.3h1.7v-1.5h-1.7V4501.3z M611,4504.5h6.5v-0.9H611V4504.5z M611,4506.2h6.5v-0.9H611V4506.2z M611,4507.9h6.5v-0.9
			H611V4507.9z M615.1,4498.1h-1.8v0.9h1.8V4498.1z M613.3,4501.3h1.8v-1.5h-1.8V4501.3z M615.8,4508.7c1.4,0.5,2.9,1.1,3.8,1.6
			l-1,0.7c-0.8-0.5-2.2-1.1-3.6-1.6L615.8,4508.7z M616.1,4499.8v1.5h1.8v-1.5H616.1z"/>
		<path class="st2" d="M634.4,4506.4h1.9v0.9h-1.9v2.4c0,0.6-0.1,0.9-0.6,1c-0.5,0.2-1.2,0.2-2.2,0.2c0-0.3-0.2-0.7-0.4-1
			c0.8,0,1.5,0,1.7,0c0.2,0,0.3,0,0.3-0.2v-2.4h-5v0.8h-2.7v2.8h-1.1v-2.8h-2.8v-1.1h2.8v-1.3h-2.3v-5.5h2.3v-1.2h-2.6v-1h2.6v-1.7
			h1.1v1.7h2.5v1h-2.5v1.2h2.3v5.5h-2.3v1.3h2.6v-0.7h5.1v-0.8h1.1V4506.4z M623.2,4502.6h1.5v-1.4h-1.5V4502.6z M623.2,4504.9h1.5
			v-1.5h-1.5V4504.9z M627,4501.2h-1.5v1.4h1.5V4501.2z M627,4503.5h-1.5v1.5h1.5V4503.5z M628.2,4504.6c0.9,0,2.1,0,3.4,0v-1h-2.9
			v-4.2h2.9v-0.9h-3.3v-0.9h3.3v-1.2h1v1.2h3.4v0.9h-3.4v0.9h3v4.2h-1.1c0.7,0.6,1.4,1.4,1.8,2l-0.8,0.5c-0.1-0.2-0.3-0.4-0.5-0.7
			c-2.5,0.1-5.1,0.1-6.8,0.2L628.2,4504.6z M630,4507.5c0.6,0.5,1.3,1.3,1.6,1.8l-0.9,0.6c-0.3-0.6-0.9-1.4-1.5-1.9L630,4507.5z
			 M629.8,4501h1.9v-1h-1.9V4501z M631.7,4502.7v-1h-1.9v1H631.7z M632.7,4500.1v1h2v-1H632.7z M634.8,4501.8h-2v1h2V4501.8z
			 M632.7,4504.5l1.7,0c-0.2-0.2-0.5-0.5-0.7-0.7l0.6-0.3h-1.6V4504.5z"/>
		<path class="st2" d="M643.5,4500h-5v-1h5V4500z M643.1,4510H640v0.8h-0.9v-5.4h4V4510z M639.2,4501.2h3.9v0.9h-3.9V4501.2z
			 M639.2,4503.3h3.9v1h-3.9V4503.3z M640,4506.4v2.7h2.2v-2.7H640z M641,4498.9c-0.1-0.6-0.5-1.5-0.9-2.1l0.9-0.3
			c0.4,0.7,0.8,1.6,0.9,2.1L641,4498.9z M652.8,4507.7c-0.6,0.4-1.3,0.8-1.9,1.1c0.7,0.6,1.5,1,2.4,1.2c-0.2,0.2-0.5,0.6-0.7,0.9
			c-2-0.6-3.5-2.1-4.2-4h-0.2c-0.4,0.4-0.9,0.7-1.4,1.1v1.7l2.4-0.5c0,0.3,0,0.7,0,0.9c-2.8,0.6-3.2,0.8-3.5,0.9
			c-0.1-0.2-0.4-0.6-0.5-0.8c0.2-0.2,0.6-0.6,0.6-1.3v-0.5c-0.6,0.3-1.2,0.5-1.8,0.7c-0.1-0.2-0.4-0.6-0.6-0.8
			c1.2-0.3,2.6-0.8,3.5-1.5h-3.2v-0.9h2.4v-0.9h-1.7v-0.8h1.7v-0.8h-2v-0.8h2v-0.9h-1.6v-2.7h3.5v2.7h-0.8v0.9h2.4v-0.9h-0.7v-2.7
			h3.6v2.7h-1.8v0.9h2.1v0.8h-2.1v0.8h1.8v0.8h-1.8v0.9h2.5v0.9h-3.7c0.2,0.5,0.5,0.9,0.9,1.3c0.7-0.3,1.4-0.8,1.9-1.1L652.8,4507.7
			z M653,4498.5h-9.1v-0.9h4.1c-0.1-0.4-0.3-0.7-0.5-1l1-0.3c0.3,0.4,0.5,0.9,0.7,1.3h3.9V4498.5z M645.4,4501.1h1.7v-1.2h-1.7
			V4501.1z M647.1,4504.3h2.4v-0.8h-2.4V4504.3z M647.1,4506h2.4v-0.9h-2.4V4506z M649.8,4501.1h1.7v-1.2h-1.7V4501.1z"/>
		<path class="st2" d="M660,4496.7c-0.4,1.1-1,2.2-1.6,3.3v10.9h-1.2v-9.1c-0.5,0.7-1.1,1.4-1.6,2c-0.1-0.3-0.4-0.9-0.7-1.1
			c1.6-1.5,3.1-3.9,4-6.3L660,4496.7z M664,4508.9c-0.9,0.8-2.5,1.6-3.8,2.1c-0.2-0.2-0.7-0.6-0.9-0.8c1.3-0.4,2.7-1,3.6-1.7
			L664,4508.9z M669.9,4500.5v0.9h-10.4v-0.9h4.6v-0.9h-3.5v-0.8h3.5v-0.8h-3.9v-0.8h3.9v-0.9h1.2v0.9h4.1v0.8h-4.1v0.8h3.7v0.8
			h-3.7v0.9H669.9z M668.9,4508.2h-8.1v-6h8.1V4508.2z M667.7,4503h-5.8v1h5.8V4503z M667.7,4504.6h-5.8v1h5.8V4504.6z
			 M667.7,4506.3h-5.8v1h5.8V4506.3z M666.8,4508.4c1.1,0.6,2.4,1.4,3.1,2l-1.1,0.7c-0.7-0.6-2-1.5-3.1-2.2L666.8,4508.4z"/>
		<path class="st2" d="M676.8,4504.8c-0.2-0.4-0.7-1.3-1.1-2v8.2h-1.1v-8.1c-0.5,1.8-1.3,3.7-2,4.8c-0.1-0.4-0.4-0.9-0.6-1.2
			c1-1.3,2-3.8,2.4-6h-2v-1.1h2.2v-3.1h1.1v3.1h1.7v1.1h-1.7v0.8c0.4,0.5,1.5,2.2,1.8,2.6L676.8,4504.8z M682.7,4509.5h3.9v0.9h-7.3
			v0.6h-1.1v-5c-0.3,0.4-0.7,0.7-1,1c-0.1-0.2-0.4-0.7-0.6-0.9c1-0.8,2-2,2.6-3.3h-1.4v-3.1h3.6v3.1h-1.9l0.6,0.2
			c-0.2,0.4-0.4,0.8-0.6,1.2h2.1c-0.1-0.3-0.3-0.7-0.4-0.9l1-0.3c0.2,0.4,0.4,0.8,0.5,1.2h3.5v0.8h-3.6v0.9h2.9v0.8h-2.9v1h2.9v0.8
			h-2.9V4509.5z M680,4498.6h-2.8v-0.9h2.8v-1.3h1v3h-1V4498.6z M678.7,4501.9h1.8v-1.5h-1.8V4501.9z M681.7,4504.9h-2.4v0.9h2.4
			V4504.9z M681.7,4506.7h-2.4v1h2.4V4506.7z M679.3,4509.5h2.4v-1h-2.4V4509.5z M686,4502.8h-3.7v-3.1h3.7V4502.8z M686.7,4497.6
			v0.9h-3v0.8h-1.1v-3h1.1v1.3H686.7z M685.1,4500.5h-1.9v1.5h1.9V4500.5z"/>
	</g>
	<g class="st0">
		<path class="st1" d="M433.2,4685.5v9H432v-0.8h-4.5v4.4h-1.2v-4.4h-4.3v0.9h-1.2v-9h5.5v-2.1h1.2v2.1H433.2z M421.9,4686.7v2.3
			h4.3v-2.3H421.9z M426.3,4692.5v-2.4h-4.3v2.4H426.3z M427.5,4686.7v2.3h4.5v-2.3H427.5z M432,4692.5v-2.4h-4.5v2.4H432z"/>
		<path class="st1" d="M436.5,4686.1h5.5v1h-5.5V4686.1z M441.5,4689.1h-4.7v-0.9h4.7V4689.1z M436.9,4690.3h4.7v0.9h-4.7V4690.3z
			 M441.5,4697.1H438v0.7h-1v-5.4h4.5V4697.1z M438,4693.5v2.7h2.4v-2.7H438z M439.2,4685.9c-0.1-0.6-0.5-1.5-0.8-2.2l1-0.3
			c0.3,0.7,0.7,1.5,0.8,2.1L439.2,4685.9z M450.1,4696.8c0,0.6-0.1,0.9-0.5,1c-0.4,0.2-1.1,0.2-2.1,0.2c0-0.3-0.2-0.7-0.3-1
			c0.7,0,1.4,0,1.6,0c0.2,0,0.3-0.1,0.3-0.2v-1.4h-5c-0.2,1-0.5,2-1.2,2.8c-0.2-0.2-0.6-0.7-0.8-0.8c0.9-1.2,1.1-2.8,1.1-4.1v-2.9h7
			V4696.8z M451.1,4688.6v0.9h-8.9v-0.9h3.8v-1.1h-3.2v-0.9h3.2v-1h-3.6v-0.9h3.6v-1.3h1.2v1.3h3.8v0.9h-3.8v1h3.5v0.9h-3.5v1.1
			H451.1z M449,4694.6v-1.2h-4.8c0,0.4,0,0.8,0,1.2H449z M444.2,4691.4v1.2h4.8v-1.2H444.2z"/>
		<path class="st1" d="M457.9,4683.8c-0.4,1.1-1,2.2-1.6,3.3v10.9h-1.2v-9.1c-0.5,0.7-1.1,1.4-1.6,2c-0.1-0.3-0.4-0.9-0.7-1.1
			c1.6-1.5,3.1-3.9,4-6.3L457.9,4683.8z M461.9,4696c-0.9,0.8-2.5,1.6-3.8,2.1c-0.2-0.2-0.7-0.6-0.9-0.8c1.3-0.4,2.7-1,3.6-1.7
			L461.9,4696z M467.8,4687.6v0.9h-10.4v-0.9h4.6v-0.9h-3.5v-0.8h3.5v-0.8h-3.9v-0.8h3.9v-0.9h1.2v0.9h4.1v0.8h-4.1v0.8h3.7v0.8
			h-3.7v0.9H467.8z M466.8,4695.3h-8.1v-6h8.1V4695.3z M465.6,4690.1h-5.8v1h5.8V4690.1z M465.6,4691.7h-5.8v1h5.8V4691.7z
			 M465.6,4693.4h-5.8v1h5.8V4693.4z M464.7,4695.5c1.1,0.6,2.4,1.4,3.1,2l-1.1,0.7c-0.7-0.6-2-1.5-3.1-2.2L464.7,4695.5z"/>
		<path class="st1" d="M474.7,4691.9c-0.2-0.4-0.7-1.3-1.1-2v8.2h-1.1v-8.1c-0.5,1.8-1.3,3.7-2,4.8c-0.1-0.4-0.4-0.9-0.6-1.2
			c1-1.3,2-3.8,2.4-6h-2v-1.1h2.2v-3.1h1.1v3.1h1.7v1.1h-1.7v0.8c0.4,0.5,1.5,2.2,1.8,2.6L474.7,4691.9z M480.6,4696.6h3.9v0.9h-7.3
			v0.6h-1.1v-5c-0.3,0.4-0.7,0.7-1,1c-0.1-0.2-0.4-0.7-0.6-0.9c1-0.8,2-2,2.6-3.3h-1.4v-3.1h3.6v3.1h-1.9l0.6,0.2
			c-0.2,0.4-0.4,0.8-0.6,1.2h2.1c-0.1-0.3-0.3-0.7-0.4-0.9l1-0.3c0.2,0.4,0.4,0.8,0.5,1.2h3.5v0.8h-3.6v0.9h2.9v0.8h-2.9v1h2.9v0.8
			h-2.9V4696.6z M477.9,4685.6h-2.8v-0.9h2.8v-1.3h1v3h-1V4685.6z M476.6,4689h1.8v-1.5h-1.8V4689z M479.6,4692h-2.4v0.9h2.4V4692z
			 M479.6,4693.8h-2.4v1h2.4V4693.8z M477.2,4696.6h2.4v-1h-2.4V4696.6z M484,4689.8h-3.7v-3.1h3.7V4689.8z M484.7,4684.7v0.9h-3
			v0.8h-1.1v-3h1.1v1.3H484.7z M483,4687.6h-1.9v1.5h1.9V4687.6z"/>
		<path class="st1" d="M499.5,4693.5h1.9v0.9h-1.9v2.4c0,0.6-0.1,0.9-0.6,1c-0.5,0.2-1.2,0.2-2.2,0.2c0-0.3-0.2-0.7-0.4-1
			c0.8,0,1.5,0,1.7,0c0.2,0,0.3,0,0.3-0.2v-2.4h-5v0.8h-2.7v2.8h-1.1v-2.8h-2.8v-1.1h2.8v-1.3h-2.3v-5.5h2.3v-1.2H487v-1h2.6v-1.7
			h1.1v1.7h2.5v1h-2.5v1.2h2.3v5.5h-2.3v1.3h2.6v-0.7h5.1v-0.8h1.1V4693.5z M488.3,4689.7h1.5v-1.4h-1.5V4689.7z M488.3,4692h1.5
			v-1.5h-1.5V4692z M492.1,4688.3h-1.5v1.4h1.5V4688.3z M492.1,4690.6h-1.5v1.5h1.5V4690.6z M493.4,4691.7c0.9,0,2.1,0,3.4,0v-1
			h-2.9v-4.2h2.9v-0.9h-3.3v-0.9h3.3v-1.2h1v1.2h3.4v0.9h-3.4v0.9h3v4.2h-1.1c0.7,0.6,1.4,1.4,1.8,2l-0.8,0.5
			c-0.1-0.2-0.3-0.4-0.5-0.7c-2.5,0.1-5.1,0.1-6.8,0.2L493.4,4691.7z M495.1,4694.6c0.6,0.5,1.3,1.3,1.6,1.8l-0.9,0.6
			c-0.3-0.6-0.9-1.4-1.5-1.9L495.1,4694.6z M494.9,4688.1h1.9v-1h-1.9V4688.1z M496.8,4689.8v-1h-1.9v1H496.8z M497.8,4687.1v1h2v-1
			H497.8z M499.9,4688.8h-2v1h2V4688.8z M497.8,4691.6l1.7,0c-0.2-0.2-0.5-0.5-0.7-0.7l0.6-0.3h-1.6V4691.6z"/>
		<path class="st1" d="M508.6,4687.1h-5v-1h5V4687.1z M508.2,4697.1h-3.1v0.8h-0.9v-5.4h4V4697.1z M504.3,4688.2h3.9v0.9h-3.9
			V4688.2z M504.3,4690.4h3.9v1h-3.9V4690.4z M505.1,4693.5v2.7h2.2v-2.7H505.1z M506.1,4686c-0.1-0.6-0.5-1.5-0.9-2.1l0.9-0.3
			c0.4,0.7,0.8,1.6,0.9,2.1L506.1,4686z M517.9,4694.8c-0.6,0.4-1.3,0.8-1.9,1.1c0.7,0.6,1.5,1,2.4,1.2c-0.2,0.2-0.5,0.6-0.7,0.9
			c-2-0.6-3.5-2.1-4.2-4h-0.2c-0.4,0.4-0.9,0.7-1.4,1.1v1.7l2.4-0.5c0,0.3,0,0.7,0,0.9c-2.8,0.6-3.2,0.8-3.5,0.9
			c-0.1-0.2-0.4-0.6-0.5-0.8c0.2-0.2,0.6-0.6,0.6-1.3v-0.5c-0.6,0.3-1.2,0.5-1.8,0.7c-0.1-0.2-0.4-0.6-0.6-0.8
			c1.2-0.3,2.6-0.8,3.5-1.5h-3.2v-0.9h2.4v-0.9h-1.7v-0.8h1.7v-0.8h-2v-0.8h2v-0.9h-1.6v-2.7h3.5v2.7h-0.8v0.9h2.4v-0.9h-0.7v-2.7
			h3.6v2.7h-1.8v0.9h2.1v0.8h-2.1v0.8h1.8v0.8h-1.8v0.9h2.5v0.9h-3.7c0.2,0.5,0.5,0.9,0.9,1.3c0.7-0.3,1.4-0.8,1.9-1.1L517.9,4694.8
			z M518.1,4685.6H509v-0.9h4.1c-0.1-0.4-0.3-0.7-0.5-1l1-0.3c0.3,0.4,0.5,0.9,0.7,1.3h3.9V4685.6z M510.5,4688.2h1.7v-1.3h-1.7
			V4688.2z M512.3,4691.4h2.4v-0.8h-2.4V4691.4z M512.3,4693.1h2.4v-0.9h-2.4V4693.1z M514.9,4688.2h1.7v-1.3h-1.7V4688.2z"/>
	</g>
	<g class="st0">
		<path class="st1" d="M700.7,4687.9v0.9c0,2.7-0.2,6.6-1.9,9.2c-0.2-0.2-0.8-0.5-1-0.6c1.6-2.5,1.7-6.1,1.7-8.6v-4.7h11.9v3.7
			H700.7z M700.7,4685.2v1.6h9.5v-1.6H700.7z M711.5,4694c-0.8,0.6-1.7,1.2-2.5,1.6c1,0.7,2.2,1.2,3.6,1.5c-0.3,0.2-0.6,0.7-0.7,1
			c-2.8-0.7-4.9-2.4-6-4.8h-2.2v3.3l3.4-0.8c0,0.3-0.1,0.8,0,1c-4,1-4.5,1.1-4.8,1.3c0-0.3-0.3-0.8-0.5-1c0.3-0.2,0.8-0.5,0.8-1.2
			v-2.6h-1.7v-1h2.8v-1.7h-2.4v-1h2.4v-1.4h1.1v1.4h3.2v-1.4h1.1v1.4h2.7v1H709v1.7h3.3v1h-5.4c0.3,0.6,0.8,1.2,1.3,1.7
			c0.8-0.5,1.8-1.1,2.4-1.6L711.5,4694z M704.7,4692.2h3.2v-1.7h-3.2V4692.2z"/>
		<path class="st1" d="M718.9,4691.6c-0.8,2-2,3.9-3.2,5.1c-0.3-0.2-0.8-0.6-1.1-0.7c1.3-1.1,2.4-2.9,3.1-4.7L718.9,4691.6z
			 M722.5,4689.5v8.4h-1.2v-8.4H715v-1.2h14v1.2H722.5z M727.6,4685.7h-11.2v-1.2h11.2V4685.7z M726.3,4691.2
			c1.2,1.5,2.4,3.5,2.9,4.8l-1.2,0.5c-0.4-1.3-1.6-3.4-2.8-4.9L726.3,4691.2z"/>
		<path class="st1" d="M744.2,4693.5h1.9v0.9h-1.9v2.4c0,0.6-0.1,0.9-0.6,1c-0.5,0.2-1.2,0.2-2.2,0.2c0-0.3-0.2-0.7-0.4-1
			c0.8,0,1.5,0,1.7,0c0.2,0,0.3,0,0.3-0.2v-2.4h-5v0.8h-2.7v2.8h-1.1v-2.8h-2.8v-1.1h2.8v-1.3H732v-5.5h2.3v-1.2h-2.6v-1h2.6v-1.7
			h1.1v1.7h2.5v1h-2.5v1.2h2.3v5.5h-2.3v1.3h2.6v-0.7h5.1v-0.8h1.1V4693.5z M732.9,4689.7h1.5v-1.4h-1.5V4689.7z M732.9,4692h1.5
			v-1.5h-1.5V4692z M736.7,4688.3h-1.5v1.4h1.5V4688.3z M736.7,4690.6h-1.5v1.5h1.5V4690.6z M738,4691.7c0.9,0,2.1,0,3.4,0v-1h-2.9
			v-4.2h2.9v-0.9h-3.3v-0.9h3.3v-1.2h1v1.2h3.4v0.9h-3.4v0.9h3v4.2h-1.1c0.7,0.6,1.4,1.4,1.8,2l-0.8,0.5c-0.1-0.2-0.3-0.4-0.5-0.7
			c-2.5,0.1-5.1,0.1-6.8,0.2L738,4691.7z M739.7,4694.6c0.6,0.5,1.3,1.3,1.6,1.8l-0.9,0.6c-0.3-0.6-0.9-1.4-1.5-1.9L739.7,4694.6z
			 M739.5,4688.1h1.9v-1h-1.9V4688.1z M741.4,4689.8v-1h-1.9v1H741.4z M742.5,4687.1v1h2v-1H742.5z M744.5,4688.8h-2v1h2V4688.8z
			 M742.5,4691.6l1.7,0c-0.2-0.2-0.5-0.5-0.7-0.7l0.6-0.3h-1.6V4691.6z"/>
		<path class="st1" d="M753.3,4687.1h-5v-1h5V4687.1z M752.8,4697.1h-3.1v0.8h-0.9v-5.4h4V4697.1z M748.9,4688.2h3.9v0.9h-3.9
			V4688.2z M748.9,4690.4h3.9v1h-3.9V4690.4z M749.7,4693.5v2.7h2.2v-2.7H749.7z M750.7,4686c-0.1-0.6-0.5-1.5-0.9-2.1l0.9-0.3
			c0.4,0.7,0.8,1.6,0.9,2.1L750.7,4686z M762.6,4694.8c-0.6,0.4-1.3,0.8-1.9,1.1c0.7,0.6,1.5,1,2.4,1.2c-0.2,0.2-0.5,0.6-0.7,0.9
			c-2-0.6-3.5-2.1-4.2-4h-0.2c-0.4,0.4-0.9,0.7-1.4,1.1v1.7l2.4-0.5c0,0.3,0,0.7,0,0.9c-2.8,0.6-3.2,0.8-3.5,0.9
			c-0.1-0.2-0.4-0.6-0.5-0.8c0.2-0.2,0.6-0.6,0.6-1.3v-0.5c-0.6,0.3-1.2,0.5-1.8,0.7c-0.1-0.2-0.4-0.6-0.6-0.8
			c1.2-0.3,2.6-0.8,3.5-1.5h-3.2v-0.9h2.4v-0.9h-1.7v-0.8h1.7v-0.8h-2v-0.8h2v-0.9h-1.6v-2.7h3.5v2.7h-0.8v0.9h2.4v-0.9h-0.7v-2.7
			h3.6v2.7h-1.8v0.9h2.1v0.8h-2.1v0.8h1.8v0.8h-1.8v0.9h2.5v0.9h-3.7c0.2,0.5,0.5,0.9,0.9,1.3c0.7-0.3,1.4-0.8,1.9-1.1L762.6,4694.8
			z M762.7,4685.6h-9.1v-0.9h4.1c-0.1-0.4-0.3-0.7-0.5-1l1-0.3c0.3,0.4,0.5,0.9,0.7,1.3h3.9V4685.6z M755.1,4688.2h1.7v-1.3h-1.7
			V4688.2z M756.9,4691.4h2.4v-0.8h-2.4V4691.4z M756.9,4693.1h2.4v-0.9h-2.4V4693.1z M759.5,4688.2h1.7v-1.3h-1.7V4688.2z"/>
		<path class="st1" d="M771.1,4693c-2,0.7-4.1,1.5-5.7,2l-0.5-1.1c0.7-0.2,1.5-0.5,2.4-0.8v-6.7h-2.1v-1.1h5.4v1.1h-2.1v6.3l2.3-0.8
			L771.1,4693z M774.3,4696c-1,0.8-2.7,1.6-4.1,2.1c-0.2-0.2-0.5-0.6-0.8-0.8c1.4-0.4,3-1.2,3.8-1.9L774.3,4696z M774.1,4686.8
			c0.1-0.5,0.3-1.1,0.4-1.6h-3.8v-1h9v1h-3.9c-0.2,0.5-0.4,1.1-0.5,1.6h3.8v8.3h-7.6v-8.3H774.1z M777.9,4687.7h-5.3v1.5h5.3V4687.7
			z M777.9,4690.1h-5.3v1.6h5.3V4690.1z M777.9,4692.6h-5.3v1.6h5.3V4692.6z M776.8,4695.4c1.1,0.5,2.5,1.4,3.2,2l-0.9,0.7
			c-0.7-0.6-2.1-1.5-3.2-2L776.8,4695.4z"/>
		<path class="st1" d="M794.5,4684.4v13.5h-1.2v-1.1h-8.4v1.1h-1.2v-13.5H794.5z M784.9,4685.6v2.6h8.4v-2.6H784.9z M784.9,4689.3
			v2.6h8.4v-2.6H784.9z M793.3,4695.7v-2.6h-8.4v2.6H793.3z"/>
	</g>
	<g id="组_436" transform="translate(62.772 4216.742)">
		<line id="直线_44" class="st5" x1="704.9" y1="257.9" x2="386.6" y2="257.9"/>
		<path id="路径_937" class="st5" d="M698.3,252.1l7.2,5.8l-6.5,6.4"/>
	</g>
	<g id="组_437" transform="translate(62.772 4216.742)">
		<line id="直线_45" class="st6" x1="704.9" y1="150.9" x2="386.6" y2="150.9"/>
		<path id="路径_938" class="st7" d="M698.3,145.1l7.2,5.8l-6.5,6.4"/>
	</g>
	<g id="组_444" transform="translate(62.772 4216.742)">
		<g id="组_438">
			<path id="路径_939" class="st8" d="M577.4,451.6c-1.8-1.4-3.9-2.4-6.1-3c-6.5-1.5-13.7,1.5-18.2,7.7l0,0
				c7.5-1.3,12.4,0.5,14.7,1.7c5,2.5,8.9,7.2,11.3,13.4c2.2,5.7,3.2,11.8,2.9,17.9c0,0.2,0,0.4,0,0.6c-0.1,2.3-0.3,4.6-0.7,6.8
				c-0.3,1.9-0.7,3.7-1.2,5.6l0,0c0,0,4.8-14,4.9-28.1c0.2-5.3-0.7-10.7-2.6-15.7C581.4,455.8,579.7,453.4,577.4,451.6z"/>
			
				<linearGradient id="路径_940_1_" gradientUnits="userSpaceOnUse" x1="14.4092" y1="832.5504" x2="14.7292" y2="832.9904" gradientTransform="matrix(32.045 0 0 -48.2205 110.1913 40614.4609)">
				<stop  offset="0" style="stop-color:#FFFFFF"/>
				<stop  offset="1" style="stop-color:#231815"/>
			</linearGradient>
			<path id="路径_940" class="st9" d="M553.2,456.3L553.2,456.3c7.5-1.3,12.4,0.5,14.7,1.7c5,2.5,8.9,7.2,11.3,13.4
				c2.2,5.7,3.2,11.8,2.9,17.9c0,0.2,0,0.4,0,0.6c-0.1,2.3-0.3,4.6-0.7,6.8c-0.3,1.9-0.7,3.7-1.2,5.6l0,0c0,0,4.8-14,4.9-28.1
				C583.9,444.8,553.2,456.3,553.2,456.3z"/>
			
				<linearGradient id="路径_941_1_" gradientUnits="userSpaceOnUse" x1="13.9811" y1="826.9842" x2="14.8501" y2="826.7902" gradientTransform="matrix(32.0662 0 0 -25.9548 110.0497 21921.9902)">
				<stop  offset="0" style="stop-color:#FFFFFF;stop-opacity:0"/>
				<stop  offset="9.300000e-02" style="stop-color:#DDF2FC;stop-opacity:0.231"/>
				<stop  offset="0.234" style="stop-color:#AEE0F7;stop-opacity:0.557"/>
				<stop  offset="0.35" style="stop-color:#8BD3F4;stop-opacity:0.796"/>
				<stop  offset="0.436" style="stop-color:#76CBF2;stop-opacity:0.945"/>
				<stop  offset="0.482" style="stop-color:#6EC8F2"/>
				<stop  offset="0.567" style="stop-color:#8DD4F4;stop-opacity:0.78"/>
				<stop  offset="0.684" style="stop-color:#B5E3F8;stop-opacity:0.506"/>
				<stop  offset="0.79" style="stop-color:#D5EFFB;stop-opacity:0.286"/>
				<stop  offset="0.881" style="stop-color:#EBF7FD;stop-opacity:0.129"/>
				<stop  offset="0.954" style="stop-color:#F9FDFE;stop-opacity:3.500000e-02"/>
				<stop  offset="1" style="stop-color:#FFFFFF;stop-opacity:0"/>
			</linearGradient>
			<path id="路径_941" class="st10" d="M585.2,474.2c0.2-5.3-0.7-10.7-2.6-15.7c-1.2-2.7-2.9-5.1-5.2-6.9c-1.8-1.4-3.9-2.4-6.1-3
				c-6.5-1.5-13.7,1.5-18.2,7.7C553.2,456.3,583.9,444.8,585.2,474.2z"/>
		</g>
		<g id="组_439">
			<path id="路径_942" class="st8" d="M571.7,527.7c2.1-0.8,4-2.1,5.6-3.8c4.5-4.9,5.5-12.6,2.4-19.6l0,0
				c-2.6,7.2-6.6,10.5-8.8,11.9c-4.7,3.1-10.7,4.1-17.2,3.2c-6-0.9-11.8-3.1-17-6.4c-0.2-0.1-0.3-0.2-0.5-0.3
				c-1.9-1.2-3.8-2.5-5.6-4c-1.5-1.2-2.9-2.4-4.3-3.8l0,0c0,0,9.8,11.2,22,18.2c4.6,2.8,9.6,4.7,14.9,5.5
				C566.1,529,569,528.7,571.7,527.7z"/>
			
				<linearGradient id="路径_943_1_" gradientUnits="userSpaceOnUse" x1="3.1674" y1="783.4481" x2="3.3594" y2="784.4052" gradientTransform="matrix(53.418 0 0 -22.1805 -64.0723 18810.4648)">
				<stop  offset="0" style="stop-color:#FFFFFF"/>
				<stop  offset="1" style="stop-color:#231815"/>
			</linearGradient>
			<path id="路径_943" class="st11" d="M579.7,504.3L579.7,504.3c-2.6,7.2-6.6,10.5-8.8,11.9c-4.7,3.1-10.7,4.1-17.2,3.2
				c-6-0.9-11.8-3.1-17-6.4c-0.2-0.1-0.3-0.2-0.5-0.3c-1.9-1.2-3.8-2.5-5.6-4c-1.5-1.2-2.9-2.4-4.3-3.8l0,0c0,0,9.8,11.2,22,18.2
				C574.4,536.6,579.7,504.3,579.7,504.3z"/>
			
				<linearGradient id="路径_944_1_" gradientUnits="userSpaceOnUse" x1="-116.3076" y1="858.151" x2="-115.4706" y2="857.946" gradientTransform="matrix(33.2775 0 0 -24.546 96.7676 20795.6855)">
				<stop  offset="0" style="stop-color:#FFFFFF;stop-opacity:0"/>
				<stop  offset="9.300000e-02" style="stop-color:#DDF2FC;stop-opacity:0.231"/>
				<stop  offset="0.234" style="stop-color:#AEE0F7;stop-opacity:0.557"/>
				<stop  offset="0.35" style="stop-color:#8BD3F4;stop-opacity:0.796"/>
				<stop  offset="0.436" style="stop-color:#76CBF2;stop-opacity:0.945"/>
				<stop  offset="0.482" style="stop-color:#6EC8F2"/>
				<stop  offset="0.567" style="stop-color:#8DD4F4;stop-opacity:0.78"/>
				<stop  offset="0.684" style="stop-color:#B5E3F8;stop-opacity:0.506"/>
				<stop  offset="0.79" style="stop-color:#D5EFFB;stop-opacity:0.286"/>
				<stop  offset="0.881" style="stop-color:#EBF7FD;stop-opacity:0.129"/>
				<stop  offset="0.954" style="stop-color:#F9FDFE;stop-opacity:3.500000e-02"/>
				<stop  offset="1" style="stop-color:#FFFFFF;stop-opacity:0"/>
			</linearGradient>
			<path id="路径_944" class="st12" d="M548.2,523.2c4.6,2.8,9.6,4.7,14.9,5.5c2.9,0.3,5.8,0,8.6-1c2.1-0.8,4-2.1,5.6-3.8
				c4.5-4.9,5.5-12.6,2.4-19.6C579.7,504.3,574.4,536.6,548.2,523.2z"/>
		</g>
		<g id="组_440">
			<path id="路径_945" class="st8" d="M508.7,484.6c-0.3,2.3-0.2,4.6,0.5,6.7c2,6.4,8.2,11.1,15.7,11.9l0,0
				c-4.9-5.9-5.7-11-5.9-13.6c-0.3-5.6,1.8-11.3,5.9-16.5c3.8-4.7,8.6-8.7,14-11.5c0.2-0.1,0.3-0.2,0.5-0.3c2-1.1,4.1-2,6.2-2.8
				c1.8-0.7,3.6-1.3,5.5-1.8l0,0c0,0-14.6,2.8-26.8,9.8c-4.7,2.5-8.9,6-12.2,10.1C510.4,479,509.2,481.7,508.7,484.6z"/>
			
				<linearGradient id="路径_946_1_" gradientUnits="userSpaceOnUse" x1="-42.6765" y1="738.1947" x2="-42.4055" y2="738.6507" gradientTransform="matrix(37.6338 0 0 -46.546 31.9986 39211.7773)">
				<stop  offset="0" style="stop-color:#FFFFFF"/>
				<stop  offset="1" style="stop-color:#231815"/>
			</linearGradient>
			<path id="路径_946" class="st13" d="M524.9,503.2L524.9,503.2c-4.9-5.9-5.7-11-5.9-13.6c-0.3-5.6,1.8-11.3,5.9-16.5
				c3.8-4.7,8.6-8.7,14-11.5c0.2-0.1,0.3-0.2,0.5-0.3c2-1.1,4.1-2,6.2-2.8c1.8-0.7,3.6-1.3,5.5-1.8l0,0c0,0-14.6,2.8-26.8,9.8
				C499.6,482.4,524.9,503.2,524.9,503.2z"/>
			
				<linearGradient id="路径_947_1_" gradientUnits="userSpaceOnUse" x1="-80.8898" y1="838.5955" x2="-79.1918" y2="838.4586" gradientTransform="matrix(16.401 0 0 -36.717 173.4359 30972.5117)">
				<stop  offset="0" style="stop-color:#FFFFFF;stop-opacity:0"/>
				<stop  offset="9.300000e-02" style="stop-color:#DDF2FC;stop-opacity:0.231"/>
				<stop  offset="0.234" style="stop-color:#AEE0F7;stop-opacity:0.557"/>
				<stop  offset="0.35" style="stop-color:#8BD3F4;stop-opacity:0.796"/>
				<stop  offset="0.436" style="stop-color:#76CBF2;stop-opacity:0.945"/>
				<stop  offset="0.482" style="stop-color:#6EC8F2"/>
				<stop  offset="0.567" style="stop-color:#8DD4F4;stop-opacity:0.78"/>
				<stop  offset="0.684" style="stop-color:#B5E3F8;stop-opacity:0.506"/>
				<stop  offset="0.79" style="stop-color:#D5EFFB;stop-opacity:0.286"/>
				<stop  offset="0.881" style="stop-color:#EBF7FD;stop-opacity:0.129"/>
				<stop  offset="0.954" style="stop-color:#F9FDFE;stop-opacity:3.500000e-02"/>
				<stop  offset="1" style="stop-color:#FFFFFF;stop-opacity:0"/>
			</linearGradient>
			<path id="路径_947" class="st14" d="M524.4,466.5c-4.7,2.5-8.9,6-12.2,10.1c-1.7,2.3-2.9,5.1-3.4,7.9c-0.3,2.3-0.2,4.6,0.5,6.7
				c2,6.4,8.2,11.1,15.7,11.9C524.9,503.2,499.6,482.4,524.4,466.5z"/>
		</g>
		<g id="组_443">
			<g id="组_441">
				<rect id="矩形_112" x="531.2" y="478.8" class="st15" width="3.8" height="3.6"/>
				<path id="路径_948" class="st16" d="M532.4,485.1c-0.6,0-1.1,0.5-1.1,1v13.6h2.6c0.6,0,1.1-0.5,1.1-1v-13.6H532.4z"/>
			</g>
			<g id="组_442">
				<path id="路径_949" class="st16" d="M554.8,481.7v-2.4c0-0.6-0.5-1-1.1-1h-13.4v21.4h2.8h0h0c0.6,0,1-0.4,1-1v0v0v-7.3h9.3
					v-2.3v0v0c0-0.6-0.5-1-1-1h0h0h-8.2v-6.3L554.8,481.7z"/>
				<path id="路径_950" class="st16" d="M574.9,481.8v-2.4c0-0.6-0.5-1-1.1-1h-16.7v2.3c0,0,0,0,0,0c0,0,0,0,0,0
					c0,0.6,0.5,1,1.1,1h5.9v0.2l0,0v17.8h2.8c0,0,0,0,0.1,0s0,0,0.1,0c0.6,0,1-0.5,1-1v-16.9H574.9z"/>
			</g>
		</g>
	</g>
	<g id="组_445" transform="translate(62.772 4216.742)">
		<path id="路径_951" class="st5" d="M386.6,286.5c0,0,10.2,94.1,109.3,193.2"/>
		<path id="路径_952" class="st5" d="M494.6,471l1.7,9.1l-9.1,0.7"/>
	</g>
	<g id="组_446" transform="translate(62.772 4216.742)">
		<path id="路径_953" class="st5" d="M704.9,286.5c0,0-10.2,94.1-109.3,193.2"/>
		<path id="路径_954" class="st5" d="M697.6,291.6l7.4-5.5l4.6,7.9"/>
	</g>
	<g id="组_453" transform="translate(62.772 4216.742)">
		<g id="组_448">
			<g id="组_447">
				<path id="路径_955" class="st2" d="M324.5,103.5c-1.6-3.6-3.7-7-6.3-10.1c-0.3-0.4-0.9-0.5-1.3-0.1c-0.4,0.3-0.5,0.9-0.1,1.3
					c2.4,3,4.4,6.2,6,9.7c1.6,3.3,2.2,7,1.9,10.7c-0.3,3.3-2,6.4-4.5,8.6c-2.5,2-5.4,3.5-8.5,4.4c-3.9,1.1-8,1.7-12.1,1.7
					c0,0,0,0,0,0c-4.1,0-8.1-0.6-12.1-1.7c-3.1-0.8-6-2.3-8.5-4.4c-2.5-2.2-4.2-5.3-4.5-8.6c-0.6-5.3,1.3-11.2,5.8-17.6
					c2.9-4.1,6.3-7.8,10-11.2h18.5c1.2,1.1,2.7,2.5,4.3,4.2c0.3,0.4,0.9,0.4,1.3,0s0.4-0.9,0-1.3l0,0c-1.3-1.3-2.5-2.5-3.5-3.5
					c1.3-0.9,1.5-2.7,0.6-3.9c-0.5-0.7-1.4-1.1-2.3-1.1h-0.3c1.2-1.7,2.3-3.6,3.3-5.4c1.3-2.6,1.7-4.4,1.2-5.6
					c-0.3-0.7-1-1.2-1.7-1.2c-1.2-0.2-2.8,0.3-4.8,0.9c-4.8,2-10.1,2-14.9,0c-2-0.6-3.6-1.1-4.8-0.9c-0.8,0.1-1.4,0.6-1.7,1.2
					c-0.5,1.2-0.1,2.9,1.2,5.6c1,1.9,2.1,3.7,3.3,5.4H290c-1.6,0-2.8,1.3-2.8,2.8c0,0.9,0.4,1.7,1.1,2.3
					c-6.2,5.8-16.9,17.6-15.5,29.5c0.8,6.9,5.7,12,14.3,14.5c4.1,1.2,8.3,1.8,12.6,1.7c0.1,0,0.2,0,0.4,0c4.1,0,8.2-0.6,12.2-1.8
					c8.6-2.5,13.5-7.6,14.3-14.5C326.9,111.1,326.2,107.1,324.5,103.5z M287.4,70.3c0-0.1,0.1-0.1,0.3-0.2c1.4,0.1,2.7,0.4,4,0.9
					c5.1,2.1,10.8,2.1,15.9,0c1.3-0.5,2.6-0.8,4-0.9c0.3,0,0.3,0.1,0.3,0.2c0.1,0.2,0.6,2-4.6,9.6c-0.1,0.2-0.3,0.4-0.4,0.7h-14.6
					c-0.1-0.2-0.2-0.5-0.4-0.7C286.7,72.3,287.3,70.4,287.4,70.3z M290,82.3h19.3c0.6,0,1,0.5,1,1s-0.5,1-1,1c0,0,0,0,0,0H290
					c-0.6,0-1-0.5-1-1C289,82.8,289.4,82.3,290,82.3z"/>
			</g>
		</g>
		<g id="组_450">
			<g id="组_449">
				<path id="路径_956" class="st2" d="M310,97.1c-5.7-5.7-15-5.7-20.7,0c-2,2-3.4,4.6-4,7.3c-0.1,0.5,0.2,1,0.7,1.1
					c0.5,0.1,1-0.2,1.1-0.7c1.5-6.9,8.3-11.4,15.2-9.9s11.4,8.3,9.9,15.2c-1.5,6.9-8.3,11.4-15.2,9.9c-4.9-1-8.8-4.9-9.9-9.8
					c-0.1-0.5-0.6-0.8-1.1-0.7s-0.8,0.6-0.7,1.1l0,0c1.8,7.9,9.6,12.9,17.5,11.1s12.9-9.6,11.1-17.5C313.4,101.5,312,99.1,310,97.1z
					"/>
			</g>
		</g>
		<g id="组_452">
			<g id="组_451">
				<path id="路径_957" class="st2" d="M300.6,106.7L300.6,106.7l-0.1-5l0.1,0c0.8,0.1,1.5,0.3,2.1,0.6c0.2,0.1,0.4,0.2,0.7,0.2
					c0.6,0,0.9-0.8,0.9-1.2c0-0.6-0.7-0.9-1.3-1.2c-0.8-0.3-1.7-0.4-2.5-0.4h-0.1V99c0-0.2-0.3-0.4-0.6-0.4c-0.3,0-0.6,0.2-0.6,0.4
					v0.8l-0.1,0c-1.3,0.1-4.4,0.8-4.4,4.3c0,2.9,2.3,3.8,4.4,4.5l0.1,0v5.8l-0.1,0c-1.1-0.1-2.2-0.6-3-1.3c-0.3-0.3-0.6-0.5-0.8-0.5
					c-0.5,0-1,0.7-1,1.2c0,1.1,1.9,2.6,4.8,2.7h0.1v0.9c0,0.2,0.2,0.4,0.6,0.4c0.3,0,0.6-0.2,0.6-0.4v-0.9l0.1,0
					c2.5-0.1,4.3-2.3,4.2-4.7c0,0,0,0,0,0C304.9,108.5,302.8,107.5,300.6,106.7z M299.5,106.3l-0.2-0.1c-1.3-0.5-2.3-1-2.3-2.4
					c0-1.2,0.8-1.9,2.4-2.1l0.1,0L299.5,106.3L299.5,106.3z M300.6,114.3l-0.1,0l0,0V109l0.2,0.1c1.1,0.5,2.2,1.1,2.2,2.8
					C302.8,113.1,301.8,114.2,300.6,114.3z"/>
			</g>
		</g>
	</g>
	<g id="组_460" transform="translate(62.772 4216.742)">
		<g id="组_455">
			<g id="组_454">
				<path id="路径_958" class="st2" d="M835.2,103.5c-1.6-3.6-3.7-7-6.2-10.1c-0.3-0.4-0.9-0.5-1.3-0.1s-0.5,0.9-0.1,1.3
					c2.4,3,4.4,6.2,6,9.7c1.6,3.3,2.2,7,1.9,10.7c-0.3,3.3-2,6.4-4.5,8.6c-2.5,2-5.4,3.5-8.5,4.4c-3.9,1.1-8,1.7-12.1,1.7
					c0,0,0,0,0,0c-4.1,0-8.1-0.6-12.1-1.7c-3.1-0.8-6-2.3-8.5-4.4c-2.5-2.2-4.2-5.3-4.5-8.6c-0.6-5.3,1.3-11.2,5.8-17.6
					c2.9-4.1,6.3-7.8,10-11.2h18.5c1.2,1.1,2.7,2.5,4.3,4.2c0.3,0.4,0.9,0.4,1.3,0s0.4-0.9,0-1.3l0,0c-1.3-1.3-2.5-2.5-3.5-3.5
					c1.3-0.9,1.5-2.7,0.6-3.9c-0.5-0.7-1.4-1.1-2.3-1.1h-0.3c1.2-1.7,2.3-3.6,3.3-5.4c1.3-2.6,1.7-4.4,1.2-5.6
					c-0.3-0.7-1-1.2-1.7-1.2c-1.2-0.2-2.8,0.3-4.8,0.9c-4.8,2-10.1,2-14.9,0c-2-0.6-3.6-1.1-4.8-0.9c-0.8,0.1-1.4,0.6-1.7,1.2
					c-0.5,1.2-0.1,2.9,1.2,5.6c1,1.9,2.1,3.7,3.3,5.4h-0.3c-1.6,0-2.8,1.3-2.8,2.8c0,0.9,0.4,1.7,1.1,2.3
					c-6.2,5.8-16.9,17.6-15.5,29.5c0.8,6.9,5.7,12,14.3,14.5c4.1,1.2,8.3,1.8,12.6,1.7c0.1,0,0.2,0,0.4,0c4.1,0,8.2-0.6,12.2-1.8
					c8.6-2.5,13.5-7.6,14.3-14.5C837.6,111.1,836.9,107.1,835.2,103.5z M798.1,70.3c0-0.1,0.1-0.1,0.3-0.2c1.4,0.1,2.7,0.4,4,0.9
					c5.1,2.1,10.8,2.1,15.9,0c1.3-0.5,2.6-0.8,4-0.9c0.3,0,0.3,0.1,0.3,0.2c0.1,0.2,0.6,2-4.6,9.6c-0.1,0.2-0.3,0.4-0.4,0.7h-14.6
					c-0.1-0.2-0.2-0.5-0.4-0.7C797.4,72.3,798,70.4,798.1,70.3z M800.7,82.3H820c0.6,0,1,0.5,1,1c0,0.6-0.5,1-1,1h-19.3
					c-0.6,0-1-0.5-1-1C799.7,82.8,800.1,82.3,800.7,82.3L800.7,82.3z"/>
			</g>
		</g>
		<g id="组_457">
			<g id="组_456">
				<path id="路径_959" class="st2" d="M820.7,97.1c-5.7-5.7-15-5.7-20.7,0c-2,2-3.4,4.6-4,7.4c-0.1,0.5,0.2,1,0.7,1.1
					s1-0.2,1.1-0.7l0,0c1.5-6.9,8.3-11.4,15.2-9.9c6.9,1.5,11.4,8.3,9.9,15.2c-1.5,6.9-8.3,11.4-15.2,9.9c-4.9-1-8.8-4.8-9.9-9.8
					c-0.1-0.5-0.6-0.8-1.1-0.7c-0.5,0.1-0.8,0.6-0.7,1.1l0,0c1.8,7.9,9.6,12.9,17.5,11.1s12.9-9.6,11.1-17.5
					C824.1,101.5,822.7,99.1,820.7,97.1z"/>
			</g>
		</g>
		<g id="组_459">
			<g id="组_458">
				<path id="路径_960" class="st2" d="M811.3,106.7L811.3,106.7l-0.1-5l0.1,0c0.8,0.1,1.5,0.3,2.1,0.6c0.2,0.1,0.4,0.2,0.7,0.2
					c0.6,0,0.9-0.8,0.9-1.2c0-0.6-0.7-0.9-1.3-1.2c-0.8-0.3-1.7-0.4-2.5-0.4h-0.1V99c0-0.2-0.3-0.4-0.6-0.4c-0.3,0-0.6,0.2-0.6,0.4
					v0.8l-0.1,0c-1.3,0.1-4.4,0.8-4.4,4.3c0,2.9,2.3,3.8,4.4,4.5l0.1,0v5.8l-0.1,0c-1.1-0.1-2.2-0.6-3-1.3c-0.3-0.3-0.6-0.5-0.8-0.5
					c-0.5,0-1,0.7-1,1.2c0,1.1,1.9,2.6,4.8,2.7h0.1v0.9c0,0.2,0.2,0.4,0.6,0.4c0.3,0,0.6-0.2,0.6-0.4v-0.9l0.1,0
					c2.5-0.1,4.3-2.3,4.2-4.7c0,0,0,0,0,0C815.6,108.5,813.5,107.5,811.3,106.7z M810.3,106.3l-0.2-0.1c-1.3-0.5-2.3-1-2.3-2.4
					c0-1.2,0.8-1.9,2.4-2.1l0.1,0C810.3,101.7,810.3,106.3,810.3,106.3z M811.3,114.3l-0.1,0l0,0V109l0.2,0.1
					c1.1,0.5,2.2,1.1,2.2,2.8C813.5,113.1,812.5,114.2,811.3,114.3L811.3,114.3z"/>
			</g>
		</g>
	</g>
</g>
</svg>
