<svg xmlns="http://www.w3.org/2000/svg" width="70" height="70" viewBox="0 0 70 70">
  <g id="rechts" transform="translate(-10 -10)">
    <g id="Group_3623" data-name="Group 3623">
      <g id="Group_3622" data-name="Group 3622">
        <g id="Group_3621" data-name="Group 3621" transform="translate(10 10)">
          <circle id="Ellipse_95" data-name="Ellipse 95" cx="35" cy="35" r="35" fill="none"/>
          <circle id="Ellipse_96" data-name="Ellipse 96" cx="35" cy="35" r="35" fill="none"/>
        </g>
        <path id="Path_4443" data-name="Path 4443" d="M35.683,41.36v4.675A1.709,1.709,0,0,0,38.6,47.244l8.8-8.805a3.418,3.418,0,0,0,0-4.834l-8.8-8.8a1.709,1.709,0,0,0-2.918,1.208v7.7a1.709,1.709,0,0,1-1.706,1.709l-24.55.059a3.436,3.436,0,0,1-3.4-3.91,29.48,29.48,0,1,1,1.811,14.79" transform="translate(10 10)" fill="none" stroke="#2664a5" stroke-linecap="round" stroke-linejoin="round" stroke-width="1" fill-rule="evenodd"/>
      </g>
    </g>
  </g>
</svg>
