<svg xmlns="http://www.w3.org/2000/svg" xmlns:xlink="http://www.w3.org/1999/xlink" width="1531.001" height="500" viewBox="0 0 1531.001 500">
  <defs>
    <clipPath id="clip-path">
      <rect id="Rectangle_145" data-name="Rectangle 145" width="1531.001" height="500" transform="translate(0 0)" fill="none"/>
    </clipPath>
  </defs>
  <g id="Group_628" data-name="Group 628" transform="translate(0)">
    <g id="Group_627" data-name="Group 627" clip-path="url(#clip-path)">
      <g id="Group_626" data-name="Group 626">
        <g id="Group_625" data-name="Group 625">
          <g id="Group_624" data-name="Group 624">
            <g id="Group_621" data-name="Group 621" opacity="0.8">
              <path id="Path_1384" data-name="Path 1384" d="M1493.548,427.4l16.877-9.626s9.127-5.813,23.44-5.813c0,0,9.24-.32,16.976,3.826s332.35,218.964,332.35,218.964a11.987,11.987,0,0,1,5.794,10.031c.272,7.368-6.49,12.351-6.49,12.351a66.1,66.1,0,0,1-6.592,4.365c-4.72,2.85-135.781,79.06-135.781,79.06a42.819,42.819,0,0,1-19.552,4.763c-12.665-.02-17.722-3.215-17.722-3.215L1372.28,524.446s-8.861-5.292-8.552-12.06,7.013-12.614,7.013-12.614.92-1.045,5.423-3.647l13.443-7.772a5.333,5.333,0,0,1,5.81-.176l5.428,2.8a11.854,11.854,0,0,0,5.566,1.3,11.67,11.67,0,0,0,5.076-.91l85.423-49.9a4.726,4.726,0,0,0,2.152-3.363c.23-1.924-1.627-3.725-1.627-3.725l-4.81-4.1S1491.034,428.835,1493.548,427.4Z" fill="none" stroke="#4490c4" stroke-width="1"/>
              <path id="Path_1385" data-name="Path 1385" d="M1886.862,633.472c12.383,8.165,9.016,18.475,9.016,18.475-2.468,7.471-10.38,12.821-10.38,12.821L1743.866,747.2a66.179,66.179,0,0,1-25.42,5.137c-14.412,0-22.953-5.673-22.953-5.673s-321.752-212.632-329.8-217.594-8.973-11.243-8.973-11.243c-1.842-12.641,13.038-21.418,13.038-21.418" fill="none" stroke="#4490c4" stroke-width="1"/>
              <path id="Path_1386" data-name="Path 1386" d="M1369.76,496.41s-11.59,5.231-17.161,21c0,0-3.621,13.482,6.964,22.953a157.349,157.349,0,0,0,14.525,10.352L1693.112,760.92s10.413,7.205,23.227,7.205c0,0,18.692.558,32.649-7.658s127.889-74.529,127.889-74.529l9.458-5.774s15.024-9.5,14.2-26.38c0,0-.592-12.011-13.672-20.312" fill="none" stroke="#4490c4" stroke-width="1"/>
              <path id="Path_1387" data-name="Path 1387" d="M1473.6,449.634c0,1.328-1.74,2.4-3.886,2.4s-3.885-1.077-3.885-2.4,1.74-2.4,3.885-2.4,3.885,1.076,3.885,2.4Z" fill="none" stroke="#4490c4" stroke-width="1"/>
              <path id="Path_1388" data-name="Path 1388" d="M1459.675,457.1l-21.518,12.41a.5.5,0,0,1-.068.04l-.018.01h0a2.241,2.241,0,0,1-1.073.258c-.891,0-1.614-.447-1.614-1a.973.973,0,0,1,.685-.814l21.325-12.314.056-.032a2.229,2.229,0,0,1,1.1-.27c.892,0,1.614.447,1.614,1a.856.856,0,0,1-.465.7Z" fill="none" stroke="#4490c4" stroke-width="1"/>
              <path id="Path_1389" data-name="Path 1389" d="M1369.76,496.41s-13,8.883-11.385,19.7c0,0,.324,6.2,7.99,11.293s330.014,217.424,330.014,217.424,8.449,5.7,22.652,5.7S1742.1,746,1742.1,746l140.946-82.39s12.48-7.879,11.3-17.8c-1.07-8.948-7.483-12.344-7.483-12.344L1558.133,416.716S1549.813,410,1533.6,410s-26.873,6.365-26.873,6.365Z" fill="none" stroke="#4490c4" stroke-width="1"/>
            </g>
            <g id="Group_622" data-name="Group 622" opacity="0.8">
              <path id="Path_1390" data-name="Path 1390" d="M1139.548-182.6l16.877-9.626s9.126-5.813,23.44-5.813c0,0,9.24-.32,16.976,3.826s332.35,218.964,332.35,218.964a11.985,11.985,0,0,1,5.793,10.031c.273,7.368-6.49,12.351-6.49,12.351A65.964,65.964,0,0,1,1521.9,51.5c-4.72,2.85-135.781,79.058-135.781,79.058a42.8,42.8,0,0,1-19.552,4.764c-12.665-.02-17.722-3.214-17.722-3.214l-330.57-217.66s-8.86-5.292-8.551-12.06,7.014-12.615,7.014-12.615.92-1.044,5.422-3.646l13.444-7.773a5.331,5.331,0,0,1,5.81-.175l5.427,2.8a11.866,11.866,0,0,0,5.566,1.3,11.658,11.658,0,0,0,5.076-.91l85.424-49.9a4.722,4.722,0,0,0,2.152-3.362c.23-1.925-1.627-3.725-1.627-3.725l-4.81-4.1s-1.592-1.44.923-2.875Z" fill="none" stroke="#4490c4" stroke-width="1"/>
              <path id="Path_1391" data-name="Path 1391" d="M1532.861,23.471c12.383,8.166,9.017,18.476,9.017,18.476-2.469,7.471-10.38,12.821-10.38,12.821L1389.866,137.2a66.178,66.178,0,0,1-25.42,5.137c-14.413,0-22.953-5.67-22.953-5.67S1019.74-75.967,1011.7-80.928s-8.974-11.244-8.974-11.244c-1.84-12.642,13.038-21.42,13.038-21.42" fill="none" stroke="#4490c4" stroke-width="1"/>
              <path id="Path_1392" data-name="Path 1392" d="M1015.76-113.59s-11.591,5.23-17.162,21c0,0-3.621,13.482,6.964,22.953a157.44,157.44,0,0,0,14.524,10.352L1339.11,150.92s10.414,7.205,23.228,7.205c0,0,18.69.557,32.648-7.658s127.89-74.529,127.89-74.529l9.458-5.775s15.023-9.5,14.2-26.379c0,0-.592-12.011-13.672-20.312" fill="none" stroke="#4490c4" stroke-width="1"/>
              <path id="Path_1393" data-name="Path 1393" d="M1330.608,129.4s-5.866,8.108-2.159,14.762" fill="none" stroke="#4490c4" stroke-width="1"/>
              <path id="Path_1394" data-name="Path 1394" d="M1328.57,128.129s-5.866,8.108-2.16,14.763" fill="none" stroke="#4490c4" stroke-width="1"/>
              <path id="Path_1395" data-name="Path 1395" d="M1102.185-7.276c-2.146-1.42-4.137-3.21-4.137-5.53,0-1.838,1.97-1.911,4.18-.593l19.7,13.2c2.175,1.365,4.177,3.912,4.177,5.828,0,2.32-2.03,1.648-4.2.243Z" fill="none" stroke="#4490c4" stroke-width="1"/>
              <path id="Path_1396" data-name="Path 1396" d="M1453.369,114.84c-2.252,1.052-4.078.077-4.078-2.176a7.352,7.352,0,0,1,4.078-5.98l19.82-11.764.534-.284c2.252-1.051,4.329.247,4.329,2.5s-1.99,5.01-4.241,6.06l-19.845,11.325-.6.32Z" fill="none" stroke="#4490c4" stroke-width="1"/>
              <path id="Path_1397" data-name="Path 1397" d="M1447.016,115.64a5.8,5.8,0,0,1-2.8,4.413c-1.545.892-2.8.363-2.8-1.183a5.808,5.808,0,0,1,2.8-4.413C1445.763,113.567,1447.016,114.1,1447.016,115.64Z" fill="none" stroke="#4490c4" stroke-width="1"/>
              <path id="Path_1398" data-name="Path 1398" d="M1487.182,92.155a5.8,5.8,0,0,1-2.8,4.413c-1.545.892-2.8.362-2.8-1.183a5.806,5.806,0,0,1,2.8-4.413C1485.93,90.082,1487.182,90.61,1487.182,92.155Z" fill="none" stroke="#4490c4" stroke-width="1"/>
              <path id="Path_1399" data-name="Path 1399" d="M1015.76-113.59s-13,8.883-11.386,19.7c0,0,.324,6.2,7.99,11.294s330.014,217.424,330.014,217.424,8.449,5.7,22.652,5.7S1388.1,136,1388.1,136l140.946-82.39s12.48-7.879,11.3-17.8c-1.068-8.949-7.483-12.344-7.483-12.344l-328.73-216.756S1195.813-200,1179.6-200s-26.873,6.364-26.873,6.364Z" fill="none" stroke="#4490c4" stroke-width="1"/>
            </g>
            <g id="Group_623" data-name="Group 623" opacity="0.6">
              <path id="Path_1400" data-name="Path 1400" d="M1606.548,125.4l16.878-9.627s9.126-5.812,23.44-5.812c0,0,9.24-.32,16.975,3.826s332.35,218.963,332.35,218.963a11.986,11.986,0,0,1,5.794,10.032c.273,7.368-6.49,12.35-6.49,12.35a65.734,65.734,0,0,1-6.591,4.365c-4.72,2.85-135.782,79.06-135.782,79.06a42.79,42.79,0,0,1-19.552,4.763c-12.664-.02-17.722-3.214-17.722-3.214L1485.28,222.446s-8.86-5.292-8.552-12.06,7.014-12.615,7.014-12.615.919-1.045,5.422-3.647l13.444-7.772a5.331,5.331,0,0,1,5.81-.175l5.427,2.8a11.861,11.861,0,0,0,5.566,1.295,11.67,11.67,0,0,0,5.076-.91l85.423-49.9a4.728,4.728,0,0,0,2.153-3.363c.23-1.924-1.628-3.724-1.628-3.724l-4.81-4.1S1604.034,126.835,1606.548,125.4Z" fill="none" stroke="#4490c4" stroke-width="1"/>
              <path id="Path_1401" data-name="Path 1401" d="M1482.76,194.41s-13,8.883-11.386,19.7c0,0,.325,6.2,7.99,11.294s330.014,217.424,330.014,217.424,8.449,5.7,22.652,5.7S1855.1,444,1855.1,444l140.946-82.389s12.48-7.879,11.3-17.8c-1.068-8.948-7.483-12.343-7.483-12.343l-328.73-216.757S1662.813,108,1646.6,108s-26.873,6.364-26.873,6.364Z" fill="none" stroke="#4490c4" stroke-width="1"/>
              <path id="Path_1402" data-name="Path 1402" d="M1999.862,331.471c12.383,8.166,9.017,18.475,9.017,18.475-2.469,7.472-10.38,12.822-10.38,12.822L1856.865,445.2a66.179,66.179,0,0,1-25.42,5.137c-14.412,0-22.952-5.67-22.952-5.67s-321.752-212.635-329.8-217.595-8.973-11.244-8.973-11.244c-1.84-12.642,13.038-21.42,13.038-21.42" fill="none" stroke="#4490c4" stroke-width="1"/>
              <path id="Path_1403" data-name="Path 1403" d="M1482.76,194.41s-11.59,5.23-17.161,21c0,0-3.621,13.482,6.964,22.953a157.358,157.358,0,0,0,14.525,10.352L1806.112,458.92s10.413,7.2,23.227,7.2c0,0,18.692.558,32.649-7.657s127.889-74.529,127.889-74.529l9.459-5.775s15.023-9.5,14.2-26.379c0,0-.592-12.011-13.672-20.312" fill="none" stroke="#4490c4" stroke-width="1"/>
              <path id="Path_1404" data-name="Path 1404" d="M1489.762,234.289s-5.865,8.109-2.158,14.763" fill="none" stroke="#4490c4" stroke-width="1"/>
              <path id="Path_1405" data-name="Path 1405" d="M1487.723,233.013s-5.865,8.108-2.158,14.762" fill="none" stroke="#4490c4" stroke-width="1"/>
              <path id="Path_1406" data-name="Path 1406" d="M1499.133,254.45a4.426,4.426,0,0,1-2.015-3.18,1.253,1.253,0,0,1,2.046-1.092l9.574,6.585a4.073,4.073,0,0,1,2.047,3,1.249,1.249,0,0,1-2.047,1.093l-9.6-6.406Z" fill="none" stroke="#4490c4" stroke-width="1"/>
              <path id="Path_1407" data-name="Path 1407" d="M1532.832,276.754c-2.146-1.418-4.137-3.21-4.137-5.53,0-1.838,1.969-1.911,4.18-.592l19.7,13.2c2.175,1.364,4.177,3.91,4.177,5.827,0,2.32-2.031,1.647-4.2.242Z" fill="none" stroke="#4490c4" stroke-width="1"/>
            </g>
          </g>
        </g>
      </g>
    </g>
  </g>
</svg>
