<svg xmlns="http://www.w3.org/2000/svg" width="110.898" height="110.946" viewBox="0 0 110.898 110.946">
  <g id="累積註冊用戶-01" transform="translate(0.508 0.525)">
    <path id="Path_349" data-name="Path 349" d="M47.946,110.005a58.122,58.122,0,0,0,12.815.313A54.993,54.993,0,0,0,51.072.763,55.231,55.231,0,0,0,.748,51.711,53.83,53.83,0,0,0,7.781,82.5a11.228,11.228,0,0,0,9.69,5.626H88.424a5.27,5.27,0,0,0,5.314-5.314V27.8a5.27,5.27,0,0,0-5.314-5.314H22.785A5.27,5.27,0,0,0,17.471,27.8V82.812" transform="translate(-0.614 -0.589)" fill="none" stroke="#195ca0" stroke-linecap="round" stroke-linejoin="round" stroke-width="1"/>
    <path id="Path_350" data-name="Path 350" d="M87.51,20.8H11.4" transform="translate(5.457 10.787)" fill="none" stroke="#195ca0" stroke-linecap="round" stroke-linejoin="round" stroke-width="1"/>
    <path id="Path_351" data-name="Path 351" d="M18.351,18.375A1.875,1.875,0,1,1,16.475,16.5,1.9,1.9,0,0,1,18.351,18.375Z" transform="translate(7.258 8.367)" fill="none" stroke="#195ca0" stroke-linecap="round" stroke-linejoin="round" stroke-width="1"/>
    <path id="Path_352" data-name="Path 352" d="M23.651,18.375a1.806,1.806,0,0,1-1.875,1.875A1.9,1.9,0,0,1,19.9,18.375a1.875,1.875,0,0,1,3.751,0Z" transform="translate(10.241 8.367)" fill="none" stroke="#195ca0" stroke-linecap="round" stroke-linejoin="round" stroke-width="1"/>
    <path id="Path_353" data-name="Path 353" d="M28.951,18.375A1.875,1.875,0,1,1,27.075,16.5,1.806,1.806,0,0,1,28.951,18.375Z" transform="translate(13.224 8.367)" fill="none" stroke="#195ca0" stroke-linecap="round" stroke-linejoin="round" stroke-width="1"/>
    <path id="Path_354" data-name="Path 354" d="M40.2,25.8H64.268" transform="translate(21.667 13.601)" fill="none" stroke="#195ca0" stroke-linecap="round" stroke-linejoin="round" stroke-width="1"/>
    <path id="Path_355" data-name="Path 355" d="M45.7,30.7H61.172M45.7,38.358H61.172" transform="translate(24.763 16.359)" fill="none" stroke="#195ca0" stroke-linecap="round" stroke-linejoin="round" stroke-width="1"/>
    <g id="Group_344" data-name="Group 344" transform="translate(57.178 65.965)">
      <path id="Path_356" data-name="Path 356" d="M53.766,51.085A8.283,8.283,0,1,1,45.483,42.8a8.141,8.141,0,0,1,8.283,8.283Z" transform="translate(-37.2 -42.797)" fill="none" stroke="#195ca0" stroke-linecap="round" stroke-linejoin="round" stroke-width="1"/>
      <path id="Path_357" data-name="Path 357" d="M39.7,49.213l2.813,2.813L48.139,46.4" transform="translate(-35.793 -40.769)" fill="none" stroke="#195ca0" stroke-linecap="round" stroke-linejoin="round" stroke-width="1"/>
    </g>
    <path id="Path_358" data-name="Path 358" d="M17.3,15.546A46.111,46.111,0,0,1,45.744,5.7a44.932,44.932,0,0,1,24.38,7.033" transform="translate(8.778 2.288)" fill="none" stroke="#195ca0" stroke-linecap="round" stroke-linejoin="round" stroke-width="1"/>
    <path id="Path_359" data-name="Path 359" d="M59.978,64.589a45.962,45.962,0,0,1-15.472,2.657A45.584,45.584,0,0,1,19.5,59.9" transform="translate(10.016 32.794)" fill="none" stroke="#195ca0" stroke-linecap="round" stroke-linejoin="round" stroke-width="1"/>
    <g id="Group_345" data-name="Group 345" transform="translate(24.828 35.379)">
      <path id="Path_360" data-name="Path 360" d="M31.5,67.883c-3.907,0-7.658,0-11.565-.156H18.844a2.334,2.334,0,0,1-1.094-.469,2.968,2.968,0,0,1-1.25-2.344A14.343,14.343,0,0,1,19,56.63a9.707,9.707,0,0,1,4.22-3.282,19.792,19.792,0,0,1,2.813-.938,19.347,19.347,0,0,0,5-1.875c.469-.313.938-.469,1.407-.781a.546.546,0,0,0,.156-.313V46.315c0-.156,0-.313-.156-.313a15.271,15.271,0,0,1-1.719-4.689,2.221,2.221,0,0,0-.313-.938,9.044,9.044,0,0,1-1.094-3.282,6.727,6.727,0,0,1,0-2.5,7.609,7.609,0,0,0,.156-1.875A6.7,6.7,0,0,1,32.285,26a11.072,11.072,0,0,1,5.626-2.657,10.579,10.579,0,0,1,9.533,3.282A7.415,7.415,0,0,1,49.32,31a8.911,8.911,0,0,1-.156,2.032,3.441,3.441,0,0,0,.156,1.25A7.009,7.009,0,0,1,49.476,36a7.72,7.72,0,0,1-.781,3.751,8.376,8.376,0,0,0-.781,1.719c-.313.938-.625,2.032-.938,2.969a3.416,3.416,0,0,1-.469.781,2.944,2.944,0,0,0-.313,1.25v2.344c0,.156.156.156.156.313.469.313,1.094.469,1.563.781a1.02,1.02,0,0,1,0,1.719.94.94,0,0,1-.625.156,8.292,8.292,0,0,1-2.657-1.25c-.313-.156-.313-.313-.313-.625V45.221a14.972,14.972,0,0,0,1.875-5c0-.313.156-.469.156-.781,0-.156.156-.313.313-.469a1.523,1.523,0,0,0,.625-1.407c.156-.625.156-1.407.313-2.032a.812.812,0,0,0-.313-.625c-.156-.156-.313-.469-.156-.625,0-.625.156-1.407.156-2.032.469-2.344-.625-4.063-2.344-5.47a8.935,8.935,0,0,0-10-.313,16.553,16.553,0,0,0-1.875,1.563,5.028,5.028,0,0,0-1.407,4.376,7.009,7.009,0,0,1,.156,1.719c0,.313,0,.625-.313.781a.574.574,0,0,0-.156.469,7.742,7.742,0,0,0,.313,2.657,3.269,3.269,0,0,0,.625.938.812.812,0,0,1,.313.625c.156.625.313,1.25.469,2.032a14.741,14.741,0,0,0,1.563,3.595.94.94,0,0,1,.156.625V49.91a.574.574,0,0,1-.156.469,4.432,4.432,0,0,1-1.719,1.25,26.4,26.4,0,0,1-5.783,2.344c-.625.156-1.407.313-2.032.469a8.43,8.43,0,0,0-5.47,5.314,18.431,18.431,0,0,0-.938,4.22V64.6c0,.469.313.781.938.781,2.188,0,4.532.156,6.72.156h17.5a.672.672,0,0,1,.625.625.736.736,0,0,1-.156.938l-.469.469c-.156,0-.156.156-.313.156C39.474,67.883,35.41,67.883,31.5,67.883Z" transform="translate(-16.5 -23.226)" fill="#195ca0"/>
    </g>
  </g>
</svg>
