<svg xmlns="http://www.w3.org/2000/svg" width="116" height="116" viewBox="0 0 116 116">
<style type="text/css">
  .rotate {
    animation: rotate 5s linear infinite;
    transform-box: fill-box;
    transform-origin: center;
}

@keyframes rotate {
  from { transform: rotate(0deg); }
  to { transform: rotate(360deg); }
}
</style>
  <g id="外匯車-01" transform="translate(-0.261 -0.386)">
    <g id="组_678" transform="translate(0.809 0.931)">
      <g id="累積放款金額-01-2" transform="translate(9.033 22.015)">
        <path id="路径_342-2" d="M9.357,65.434A49.086,49.086,0,0,1,20.309,14.8" transform="translate(-6.5 -14.8)" fill="none" stroke="#195ca0" stroke-linecap="round" stroke-linejoin="round" stroke-width="1"/>
        <path id="路径_343-2" d="M75.309,36.3a50.941,50.941,0,0,1-2.7,16.19A47.792,47.792,0,0,1,51.5,78.363" transform="translate(19.928 -2.173)" fill="none" stroke="#195ca0" stroke-linecap="round" stroke-linejoin="round" stroke-width="1"/>
      </g>
      <path id="路径_1323" class="rotate" d="M50.318,113.738a56.447,56.447,0,1,1,43.174-12.381" transform="translate(-0.809 -0.931)" fill="none" stroke="#195ca0" stroke-linecap="round" stroke-linejoin="round" stroke-width="1"/>
    </g>
    <g id="Group_3559" data-name="Group 3559" transform="translate(20.477 30.542)">
      <path id="Path_4422" data-name="Path 4422" d="M14.633,50.3s-.794,4.921,2.381,4.921h12.54s2.381.159,2.381-4.921" transform="translate(-12.41 -1.549)" fill="none" stroke="#195ca0" stroke-linecap="round" stroke-linejoin="round" stroke-width="1"/>
      <path id="Path_4423" data-name="Path 4423" d="M47.633,50.3s-.794,4.921,2.381,4.921h12.54s2.381.159,2.381-4.921" transform="translate(6.97 -1.549)" fill="none" stroke="#195ca0" stroke-linecap="round" stroke-linejoin="round" stroke-width="1"/>
      <path id="Path_4424" data-name="Path 4424" d="M19.6,30.8s28.412,2.063,53.491,0" transform="translate(-9.441 -13.001)" fill="none" stroke="#195ca0" stroke-linecap="round" stroke-linejoin="round" stroke-width="1"/>
      <path id="Path_4425" data-name="Path 4425" d="M22.248,28.759s-7.778-1.111-7.778,3.651a3.967,3.967,0,0,0,3.968,3.651s-5.4,2.381-3.968,13.016a5.562,5.562,0,0,0-1.27,3.809v6.825a3.947,3.947,0,0,0,2.222,3.333H84.628s2.54-.794,2.54-2.857V51.616s0-1.9-1.27-2.381V42.568s.159-3.333-3.492-6.508c0,0,3.651-.952,3.651-3.651,0,0,.635-3.809-7.936-3.809" transform="translate(-13.2 -14.293)" fill="none" stroke="#195ca0" stroke-linecap="round" stroke-linejoin="round" stroke-width="1"/>
      <path id="Path_4426" data-name="Path 4426" d="M18.9,35.163s1.9-15.555,13.968-15.555h26.19s15.714-1.27,15.714,15.555" transform="translate(-9.852 -19.586)" fill="none" stroke="#195ca0" stroke-linecap="round" stroke-linejoin="round" stroke-width="1"/>
      <path id="Path_4427" data-name="Path 4427" d="M57.052,48.427H28.163A2.1,2.1,0,0,1,26.1,46.363h0A2.1,2.1,0,0,1,28.163,44.3h28.73a2.1,2.1,0,0,1,2.063,2.063h0A1.875,1.875,0,0,1,57.052,48.427Z" transform="translate(-5.624 -5.072)" fill="none" stroke="#195ca0" stroke-linecap="round" stroke-linejoin="round" stroke-width="1"/>
      <path id="Path_4428" data-name="Path 4428" d="M23.614,48.427H19.963A2.1,2.1,0,0,1,17.9,46.363h0A2.1,2.1,0,0,1,19.963,44.3h3.651a2.1,2.1,0,0,1,2.063,2.063h0A2,2,0,0,1,23.614,48.427Z" transform="translate(-10.44 -5.072)" fill="none" stroke="#195ca0" stroke-linecap="round" stroke-linejoin="round" stroke-width="1"/>
      <path id="Path_4429" data-name="Path 4429" d="M55.814,48.427H52.163A2.1,2.1,0,0,1,50.1,46.363h0A2.1,2.1,0,0,1,52.163,44.3h3.651a2.1,2.1,0,0,1,2.063,2.063h0A2.1,2.1,0,0,1,55.814,48.427Z" transform="translate(8.471 -5.072)" fill="none" stroke="#195ca0" stroke-linecap="round" stroke-linejoin="round" stroke-width="1"/>
      <path id="Path_4430" data-name="Path 4430" d="M47.812,41.876H61.145a4.076,4.076,0,0,0,0-5.873S47.018,35.527,47.812,41.876Z" transform="translate(7.108 -9.95)" fill="none" stroke="#195ca0" stroke-linecap="round" stroke-linejoin="round" stroke-width="1"/>
      <path id="Path_4431" data-name="Path 4431" d="M30.8,41.876H17.47a4.076,4.076,0,0,1,0-5.873S31.6,35.527,30.8,41.876Z" transform="translate(-11.438 -9.95)" fill="none" stroke="#195ca0" stroke-linecap="round" stroke-linejoin="round" stroke-width="1"/>
    </g>
  </g>
</svg>
