<svg id="_1-01" data-name="1-01" xmlns="http://www.w3.org/2000/svg" xmlns:xlink="http://www.w3.org/1999/xlink" width="92.927" height="92.927" viewBox="0 0 92.927 92.927">
  <defs>
    <linearGradient id="linear-gradient" x1="-0.001" y1="0.5" x2="1.001" y2="0.5" gradientUnits="objectBoundingBox">
      <stop offset="0" stop-color="#81c3f3"/>
      <stop offset="1" stop-color="#157efb"/>
    </linearGradient>
    <linearGradient id="linear-gradient-2" x1="0.002" y1="0.501" x2="0.998" y2="0.501" xlink:href="#linear-gradient"/>
  </defs>
  <g id="Group_512" data-name="Group 512" transform="translate(0 0)">
    <g id="Group_511" data-name="Group 511">
      <g id="Group_510" data-name="Group 510">
        <g id="Group_509" data-name="Group 509">
          <path id="Path_1090" data-name="Path 1090" d="M24.293,65.861A41.422,41.422,0,0,1,3.4,30" transform="translate(1.589 16.463)" fill="none" stroke="#036eb7" stroke-linecap="round" stroke-linejoin="round" stroke-width="1" opacity="0.8"/>
          <path id="Path_1091" data-name="Path 1091" d="M37.8,4.6A41.653,41.653,0,0,1,66.956,44.2" transform="translate(20.825 2.26)" fill="none" stroke="#036eb7" stroke-linecap="round" stroke-linejoin="round" stroke-width="1" opacity="0.8"/>
          <path id="Path_1092" data-name="Path 1092" d="M57.571,36A34.788,34.788,0,0,1,41.2,57.049" transform="translate(22.726 19.818)" fill="none" stroke="#036eb7" stroke-linecap="round" stroke-linejoin="round" stroke-width="1" opacity="0.6"/>
          <path id="Path_1093" data-name="Path 1093" d="M7.9,35.565A35.133,35.133,0,0,1,42.358,7.5" transform="translate(4.106 3.882)" fill="none" stroke="#036eb7" stroke-linecap="round" stroke-linejoin="round" stroke-width="1" opacity="0.6"/>
          <path id="Path_1094" data-name="Path 1094" d="M44.662,15.5a31.173,31.173,0,0,1,9.667,22.608,27.313,27.313,0,0,1-.624,6.237A30.6,30.6,0,0,1,41.7,63.055" transform="translate(23.006 8.355)" fill="none" stroke="#036eb7" stroke-linecap="round" stroke-linejoin="round" stroke-width="1" opacity="0.4"/>
          <path id="Path_1095" data-name="Path 1095" d="M11.036,43.455a31.071,31.071,0,0,1-.936-7.64A31.647,31.647,0,0,1,14.622,19.6" transform="translate(5.336 10.648)" fill="none" stroke="#036eb7" stroke-linecap="round" stroke-linejoin="round" stroke-width="1" opacity="0.4"/>
          <path id="Path_1096" data-name="Path 1096" d="M46.663.2A46.463,46.463,0,1,0,93.127,46.663,46.38,46.38,0,0,0,46.663.2m0,.936A45.528,45.528,0,1,1,1.136,46.663,45.581,45.581,0,0,1,46.663,1.136" transform="translate(-0.2 -0.2)" fill-rule="evenodd" fill="url(#linear-gradient)"/>
        </g>
      </g>
    </g>
  </g>
  <g id="Group_513" data-name="Group 513" transform="translate(41.63 29.78)">
    <path id="Path_1097" data-name="Path 1097" d="M32.357,49.7a1.52,1.52,0,0,1,.624-1.4,2,2,0,0,1,1.559-.624,1.52,1.52,0,0,1,1.4.624,1.9,1.9,0,0,1,.624,1.4,2,2,0,0,1-.624,1.559,1.9,1.9,0,0,1-1.4.624,2.234,2.234,0,0,1-1.559-.624,2,2,0,0,1-.624-1.559m0-4.678a1.52,1.52,0,0,1,.624-1.4A2,2,0,0,1,34.54,43a1.52,1.52,0,0,1,1.4.624,1.9,1.9,0,0,1,.624,1.4,1.693,1.693,0,0,1-.624,1.4,1.9,1.9,0,0,1-1.4.624,2.234,2.234,0,0,1-1.559-.624,1.52,1.52,0,0,1-.624-1.4m0-4.678a2,2,0,0,1,.624-1.559,1.9,1.9,0,0,1,1.4-.624,2.131,2.131,0,0,1,2.183,2.183,1.52,1.52,0,0,1-.624,1.4,2,2,0,0,1-1.559.624,1.52,1.52,0,0,1-1.4-.624,1.52,1.52,0,0,1-.624-1.4m0-4.678a2,2,0,0,1,.624-1.559,1.9,1.9,0,0,1,1.4-.624,1.52,1.52,0,0,1,1.4.624,2,2,0,0,1,.624,1.559,1.52,1.52,0,0,1-.624,1.4,1.9,1.9,0,0,1-1.4.624,1.52,1.52,0,0,1-1.4-.624,1.52,1.52,0,0,1-.624-1.4m0-4.678a2.131,2.131,0,0,1,2.183-2.183,1.52,1.52,0,0,1,1.4.624,2.261,2.261,0,0,1,0,3.118,1.9,1.9,0,0,1-1.4.624,2.234,2.234,0,0,1-1.559-.624,2,2,0,0,1-.624-1.559m0-4.678a2.131,2.131,0,0,1,2.183-2.183,1.52,1.52,0,0,1,1.4.624,2.261,2.261,0,0,1,0,3.118,1.9,1.9,0,0,1-1.4.624,2.234,2.234,0,0,1-1.559-.624,2,2,0,0,1-.624-1.559m0-4.678a2,2,0,0,1,.624-1.559,1.9,1.9,0,0,1,1.4-.624,2.131,2.131,0,0,1,2.183,2.183,2.131,2.131,0,0,1-2.183,2.183,1.52,1.52,0,0,1-1.4-.624,2,2,0,0,1-.624-1.559M26.9,21.483a2,2,0,0,1,.624-1.559,1.9,1.9,0,0,1,1.4-.624,2.131,2.131,0,0,1,2.183,2.183,1.52,1.52,0,0,1-.624,1.4,2,2,0,0,1-1.559.624,1.52,1.52,0,0,1-1.4-.624,1.52,1.52,0,0,1-.624-1.4" transform="translate(-26.9 -19.3)" fill-rule="evenodd" fill="url(#linear-gradient-2)"/>
  </g>
</svg>
