<svg id="clock" xmlns="http://www.w3.org/2000/svg" width="14.67" height="14.67" viewBox="0 0 14.67 14.67">
  <path id="Path_927" data-name="Path 927" d="M7.335,14.67A7.335,7.335,0,1,1,14.67,7.335,7.343,7.343,0,0,1,7.335,14.67Zm0-13.753a6.418,6.418,0,1,0,6.418,6.418A6.425,6.425,0,0,0,7.335.917Zm0,0" fill="#fff"/>
  <path id="Path_928" data-name="Path 928" d="M243.668,109.737a.455.455,0,0,1-.324-.135l-3.209-3.209a.459.459,0,0,1-.134-.324V101.79a.458.458,0,0,1,.917,0v4.089l3.075,3.075a.459.459,0,0,1-.324.783Zm0,0" transform="translate(-233.123 -98.429)" fill="#fff"/>
</svg>
