<svg id="_6-01" data-name="6-01" xmlns="http://www.w3.org/2000/svg" xmlns:xlink="http://www.w3.org/1999/xlink" width="92.927" height="92.927" viewBox="0 0 92.927 92.927">
  <defs>
    <linearGradient id="linear-gradient" x1="-0.001" y1="0.5" x2="1.001" y2="0.5" gradientUnits="objectBoundingBox">
      <stop offset="0" stop-color="#81c3f3"/>
      <stop offset="1" stop-color="#157efb"/>
    </linearGradient>
    <linearGradient id="linear-gradient-2" x1="0.013" y1="0.485" x2="1.005" y2="0.485" xlink:href="#linear-gradient"/>
    <linearGradient id="linear-gradient-3" x1="0.018" y1="0.485" x2="1.011" y2="0.485" xlink:href="#linear-gradient"/>
    <linearGradient id="linear-gradient-4" x1="0.007" y1="0.506" x2="0.999" y2="0.506" xlink:href="#linear-gradient"/>
    <linearGradient id="linear-gradient-5" x1="0.007" x2="0.999" xlink:href="#linear-gradient"/>
    <linearGradient id="linear-gradient-6" x1="-0.011" y1="0.494" x2="0.982" y2="0.494" xlink:href="#linear-gradient"/>
    <linearGradient id="linear-gradient-7" x1="-0.017" y1="0.515" x2="0.976" y2="0.515" xlink:href="#linear-gradient"/>
    <linearGradient id="linear-gradient-8" x1="-0.015" y1="0.504" x2="0.978" y2="0.504" xlink:href="#linear-gradient"/>
    <linearGradient id="linear-gradient-9" x1="0.001" y1="0.502" x2="0.993" y2="0.502" xlink:href="#linear-gradient"/>
    <linearGradient id="linear-gradient-10" x1="0.009" y1="0.498" x2="1.001" y2="0.498" xlink:href="#linear-gradient"/>
    <linearGradient id="linear-gradient-11" x1="0.014" y1="0.502" x2="1.007" y2="0.502" xlink:href="#linear-gradient"/>
    <linearGradient id="linear-gradient-12" x1="0.009" y1="0.514" x2="1.001" y2="0.514" xlink:href="#linear-gradient"/>
    <linearGradient id="linear-gradient-13" x1="-0.007" x2="0.986" xlink:href="#linear-gradient"/>
    <linearGradient id="linear-gradient-14" x1="0.016" y1="0.509" x2="1.009" y2="0.509" xlink:href="#linear-gradient"/>
    <linearGradient id="linear-gradient-15" x1="-0.017" y1="0.509" x2="0.976" y2="0.509" xlink:href="#linear-gradient"/>
    <linearGradient id="linear-gradient-16" x1="-0.013" y1="0.489" x2="0.979" y2="0.489" xlink:href="#linear-gradient"/>
    <linearGradient id="linear-gradient-17" x1="0.008" y1="0.489" x2="1.001" y2="0.489" xlink:href="#linear-gradient"/>
    <linearGradient id="linear-gradient-18" x1="-0.007" y1="0.514" x2="0.985" y2="0.514" xlink:href="#linear-gradient"/>
  </defs>
  <g id="Group_537" data-name="Group 537" transform="translate(0 0)">
    <g id="Group_536" data-name="Group 536">
      <g id="Group_535" data-name="Group 535">
        <g id="Group_534" data-name="Group 534">
          <path id="Path_1154" data-name="Path 1154" d="M24.293,65.861A41.422,41.422,0,0,1,3.4,30" transform="translate(1.589 16.463)" fill="none" stroke="#036eb7" stroke-linecap="round" stroke-linejoin="round" stroke-width="1" opacity="0.8"/>
          <path id="Path_1155" data-name="Path 1155" d="M37.8,4.6A41.653,41.653,0,0,1,66.956,44.2" transform="translate(20.825 2.26)" fill="none" stroke="#036eb7" stroke-linecap="round" stroke-linejoin="round" stroke-width="1" opacity="0.8"/>
          <path id="Path_1156" data-name="Path 1156" d="M57.571,36A34.788,34.788,0,0,1,41.2,57.049" transform="translate(22.726 19.818)" fill="none" stroke="#036eb7" stroke-linecap="round" stroke-linejoin="round" stroke-width="1" opacity="0.6"/>
          <path id="Path_1157" data-name="Path 1157" d="M7.9,35.565A35.133,35.133,0,0,1,42.358,7.5" transform="translate(4.106 3.882)" fill="none" stroke="#036eb7" stroke-linecap="round" stroke-linejoin="round" stroke-width="1" opacity="0.6"/>
          <path id="Path_1158" data-name="Path 1158" d="M44.662,15.5a31.173,31.173,0,0,1,9.667,22.608,27.313,27.313,0,0,1-.624,6.237A30.6,30.6,0,0,1,41.7,63.055" transform="translate(23.006 8.355)" fill="none" stroke="#036eb7" stroke-linecap="round" stroke-linejoin="round" stroke-width="1" opacity="0.4"/>
          <path id="Path_1159" data-name="Path 1159" d="M11.036,43.455a31.071,31.071,0,0,1-.936-7.64A31.647,31.647,0,0,1,14.622,19.6" transform="translate(5.336 10.648)" fill="none" stroke="#036eb7" stroke-linecap="round" stroke-linejoin="round" stroke-width="1" opacity="0.4"/>
          <path id="Path_1160" data-name="Path 1160" d="M46.663.2A46.463,46.463,0,1,0,93.127,46.663,46.38,46.38,0,0,0,46.663.2m0,.936A45.528,45.528,0,1,1,1.136,46.663,45.581,45.581,0,0,1,46.663,1.136" transform="translate(-0.2 -0.2)" fill-rule="evenodd" fill="url(#linear-gradient)"/>
        </g>
      </g>
    </g>
  </g>
  <g id="Group_538" data-name="Group 538" transform="translate(35.237 29.624)">
    <path id="Path_1161" data-name="Path 1161" d="M33.9,24.683a2,2,0,0,1,.624-1.559,1.9,1.9,0,0,1,1.4-.624,2.132,2.132,0,0,1,2.183,2.183,2.131,2.131,0,0,1-2.183,2.183,1.52,1.52,0,0,1-1.4-.624,4.048,4.048,0,0,1-.624-1.559" transform="translate(-16.593 -17.355)" fill-rule="evenodd" fill="url(#linear-gradient-2)"/>
    <path id="Path_1162" data-name="Path 1162" d="M23.4,24.683a2,2,0,0,1,.624-1.559,1.9,1.9,0,0,1,1.4-.624,2.132,2.132,0,0,1,2.183,2.183,2.131,2.131,0,0,1-2.183,2.183,1.52,1.52,0,0,1-1.4-.624,4.048,4.048,0,0,1-.624-1.559" transform="translate(-22.464 -17.355)" fill-rule="evenodd" fill="url(#linear-gradient-3)"/>
    <path id="Path_1163" data-name="Path 1163" d="M22.8,27.783a2,2,0,0,1,.624-1.559,1.9,1.9,0,0,1,1.4-.624,2.131,2.131,0,0,1,2.183,2.183,2.132,2.132,0,0,1-2.183,2.183,1.52,1.52,0,0,1-1.4-.624,2,2,0,0,1-.624-1.559" transform="translate(-22.8 -15.621)" fill-rule="evenodd" fill="url(#linear-gradient-4)"/>
    <path id="Path_1164" data-name="Path 1164" d="M22.8,31.083a2,2,0,0,1,.624-1.559,1.9,1.9,0,0,1,1.4-.624,2.205,2.205,0,0,1,1.559,3.742,2,2,0,0,1-1.559.624,1.52,1.52,0,0,1-1.4-.624,2,2,0,0,1-.624-1.559" transform="translate(-22.8 -13.776)" fill-rule="evenodd" fill="url(#linear-gradient-5)"/>
    <path id="Path_1165" data-name="Path 1165" d="M23.1,34.383a2,2,0,0,1,.624-1.559,1.9,1.9,0,0,1,1.4-.624,2.205,2.205,0,0,1,1.559,3.742,2,2,0,0,1-1.559.624,1.52,1.52,0,0,1-1.4-.624,2,2,0,0,1-.624-1.559" transform="translate(-22.632 -11.931)" fill-rule="evenodd" fill="url(#linear-gradient-6)"/>
    <path id="Path_1166" data-name="Path 1166" d="M24,37.483a2,2,0,0,1,.624-1.559,1.9,1.9,0,0,1,1.4-.624,2.183,2.183,0,1,1,0,4.366,1.52,1.52,0,0,1-1.4-.624A2,2,0,0,1,24,37.483" transform="translate(-22.129 -10.197)" fill-rule="evenodd" fill="url(#linear-gradient-7)"/>
    <path id="Path_1167" data-name="Path 1167" d="M32.9,38.083a2,2,0,0,1,.624-1.559,1.9,1.9,0,0,1,1.4-.624,2.183,2.183,0,1,1,0,4.366,1.52,1.52,0,0,1-1.4-.624,2.77,2.77,0,0,1-.624-1.559" transform="translate(-17.152 -9.862)" fill-rule="evenodd" fill="url(#linear-gradient-8)"/>
    <path id="Path_1168" data-name="Path 1168" d="M34.5,35.183a2,2,0,0,1,.624-1.559,1.9,1.9,0,0,1,1.4-.624,2.205,2.205,0,0,1,1.559,3.742,2,2,0,0,1-1.559.624,1.52,1.52,0,0,1-1.4-.624,2,2,0,0,1-.624-1.559" transform="translate(-16.258 -11.483)" fill-rule="evenodd" fill="url(#linear-gradient-9)"/>
    <path id="Path_1169" data-name="Path 1169" d="M34.1,31.783a2,2,0,0,1,.624-1.559,1.9,1.9,0,0,1,1.4-.624,2.205,2.205,0,0,1,1.559,3.742,2,2,0,0,1-1.559.624,1.52,1.52,0,0,1-1.4-.624,2.77,2.77,0,0,1-.624-1.559" transform="translate(-16.481 -13.385)" fill-rule="evenodd" fill="url(#linear-gradient-10)"/>
    <path id="Path_1170" data-name="Path 1170" d="M32,29.183a2,2,0,0,1,.624-1.559,1.9,1.9,0,0,1,1.4-.624,2.205,2.205,0,0,1,1.559,3.742,2,2,0,0,1-1.559.624,1.52,1.52,0,0,1-1.4-.624A2.77,2.77,0,0,1,32,29.183" transform="translate(-17.656 -14.838)" fill-rule="evenodd" fill="url(#linear-gradient-11)"/>
    <path id="Path_1171" data-name="Path 1171" d="M25.7,29.483a2,2,0,0,1,.624-1.559,1.9,1.9,0,0,1,1.4-.624,2.205,2.205,0,0,1,1.559,3.742,2,2,0,0,1-1.559.624,1.52,1.52,0,0,1-1.4-.624,2.77,2.77,0,0,1-.624-1.559" transform="translate(-21.178 -14.671)" fill-rule="evenodd" fill="url(#linear-gradient-12)"/>
    <path id="Path_1172" data-name="Path 1172" d="M28.9,28.683a2,2,0,0,1,.624-1.559,1.9,1.9,0,0,1,1.4-.624,2.131,2.131,0,0,1,2.183,2.183,2.131,2.131,0,0,1-2.183,2.183,1.52,1.52,0,0,1-1.4-.624,2,2,0,0,1-.624-1.559" transform="translate(-19.389 -15.118)" fill-rule="evenodd" fill="url(#linear-gradient-13)"/>
    <path id="Path_1173" data-name="Path 1173" d="M26.5,39.583a2,2,0,0,1,.624-1.559,1.9,1.9,0,0,1,1.4-.624,2.183,2.183,0,1,1,0,4.366,1.52,1.52,0,0,1-1.4-.624,2.77,2.77,0,0,1-.624-1.559" transform="translate(-20.731 -9.023)" fill-rule="evenodd" fill="url(#linear-gradient-14)"/>
    <path id="Path_1174" data-name="Path 1174" d="M30,39.583a2,2,0,0,1,.624-1.559,1.9,1.9,0,0,1,1.4-.624,2.183,2.183,0,1,1,0,4.366,1.52,1.52,0,0,1-1.4-.624A2,2,0,0,1,30,39.583" transform="translate(-18.774 -9.023)" fill-rule="evenodd" fill="url(#linear-gradient-15)"/>
    <path id="Path_1175" data-name="Path 1175" d="M31.9,22.083a2,2,0,0,1,.624-1.559,1.9,1.9,0,0,1,1.4-.624,2.131,2.131,0,0,1,2.183,2.183,2.131,2.131,0,0,1-2.183,2.183,1.52,1.52,0,0,1-1.4-.624,2.234,2.234,0,0,1-.624-1.559" transform="translate(-17.712 -18.809)" fill-rule="evenodd" fill="url(#linear-gradient-16)"/>
    <path id="Path_1176" data-name="Path 1176" d="M25.4,22.083a2,2,0,0,1,.624-1.559,1.9,1.9,0,0,1,1.4-.624,2.131,2.131,0,0,1,2.183,2.183,2.131,2.131,0,0,1-2.183,2.183,1.52,1.52,0,0,1-1.4-.624,3.293,3.293,0,0,1-.624-1.559" transform="translate(-21.346 -18.809)" fill-rule="evenodd" fill="url(#linear-gradient-17)"/>
    <path id="Path_1177" data-name="Path 1177" d="M28.6,21.383a2,2,0,0,1,.624-1.559,1.9,1.9,0,0,1,1.4-.624,2.132,2.132,0,0,1,2.183,2.183,2.132,2.132,0,0,1-2.183,2.183,1.52,1.52,0,0,1-1.4-.624,2,2,0,0,1-.624-1.559" transform="translate(-19.557 -19.2)" fill-rule="evenodd" fill="url(#linear-gradient-18)"/>
  </g>
</svg>
