<svg xmlns="http://www.w3.org/2000/svg" xmlns:xlink="http://www.w3.org/1999/xlink" width="113.358" height="112.98" viewBox="0 0 113.358 112.98">
  <defs>
    <linearGradient id="linear-gradient" y1="0.5" x2="1" y2="0.5" gradientUnits="objectBoundingBox">
      <stop offset="0" stop-color="#66e2ff"/>
      <stop offset="1" stop-color="#71a0ff"/>
    </linearGradient>
  </defs>
  <g id="Group_677" data-name="Group 677" transform="translate(-0.447 -0.381)">
    <g id="Group_678" data-name="Group 678">
      <g id="累積放款金額-01">
        <path id="路径_342" data-name="路径 342" d="M12.741,72.941a47.657,47.657,0,0,1-2.813-16.41A48.247,48.247,0,0,1,23.681,22.617" fill="none" stroke="#2664a5" stroke-linecap="round" stroke-linejoin="round" stroke-width="1"/>
        <path id="路径_343" data-name="路径 343" d="M104.325,56.531a49.652,49.652,0,0,1-2.658,16.1A47.359,47.359,0,0,1,80.725,98.259" fill="none" stroke="#2664a5" stroke-linecap="round" stroke-linejoin="round" stroke-width="1"/>
      </g>
      <path id="Path_1323" data-name="Path 1323" d="M50.093,112.8A56.186,56.186,0,1,1,92.861,100.41" fill="none" stroke="#2664a5" stroke-linecap="round" stroke-linejoin="round" stroke-width="1"/>
    </g>
    <path id="Path_1324" data-name="Path 1324" d="M82.907,80.2a5.971,5.971,0,0,1,0-3,2.506,2.506,0,0,0,.016-4.976,6.459,6.459,0,0,0,2.211-4.789,6.564,6.564,0,0,0-3.778-5.965,2.535,2.535,0,0,0-2.226-3.942,5.975,5.975,0,0,1,0-2.973c3.31.173,3.528-5.009.177-5.009H73.252l-2.37-7.979,11.36-2.984a2.032,2.032,0,0,0,0-3.905L60.2,28.886a12.111,12.111,0,0,0-6.149,0l-8.2,2.153a.831.831,0,0,0,.422,1.606l8.2-2.152a10.457,10.457,0,0,1,5.305,0L81.82,36.282a.357.357,0,0,1,0,.691L64.857,41.429l-5.339-4.841V34.665a2.473,2.473,0,0,0-4.945,0v2.361a.829.829,0,0,0,.395.707,3.888,3.888,0,0,0,3.638.27l4.334,3.929-3.161.83a10.457,10.457,0,0,1-5.305,0L32.433,36.973a.357.357,0,0,1,0-.691l9.641-2.533a.831.831,0,0,0-.422-1.606l-9.641,2.532a2.032,2.032,0,0,0,0,3.905l11.36,2.984L41,49.543H39a6.494,6.494,0,0,0-4.4,11.33H31.623a2.5,2.5,0,0,0-.277,4.993,5.975,5.975,0,0,1,0,3.005,2.506,2.506,0,0,0-.017,4.976,6.482,6.482,0,0,0,4.285,11.348H82.629a2.506,2.506,0,0,0,.278-4.994ZM57.857,36.515a2.2,2.2,0,0,1-1.623,0V34.665a.812.812,0,0,1,1.623,0ZM78.639,65.882a1.487,1.487,0,0,1,0,2.974H43.855V65.882Zm-36.445,10-2.29,1.2v-11.2h2.29Zm-3.951-7.023h-5.19a7.633,7.633,0,0,0,0-2.974h5.19Zm.4,10.309a.831.831,0,0,0,.815.025l3.77-1.978H81.2a7.633,7.633,0,0,0,0,2.974H35.614a1.487,1.487,0,0,1,0-2.974h2.629v1.243a.829.829,0,0,0,.4.71Zm38.783-21.64H38.937a1.487,1.487,0,1,1,0-2.973h22.5c-.02.591-.017,1.459.818,1.459h4.78c.838,0,.838-.867.817-1.459h9.575a7.647,7.647,0,0,0,0,2.973ZM64.645,48.8c.732,0,1.429,2.6,1.543,5.553H63.1c.114-2.956.811-5.553,1.543-5.553Zm15.505,3.25a.844.844,0,0,1-.843.843H67.743c-.054-.564-.127-1.128-.228-1.686H79.307a.844.844,0,0,1,.843.843Zm-8.631-2.5H67.1a3.533,3.533,0,0,0-1.624-2.227V42.984l3.8-1ZM44.978,41.986l9.074,2.383a12.155,12.155,0,0,0,6.149,0l3.613-.949v3.9a3.533,3.533,0,0,0-1.624,2.227H42.734ZM35.5,59.439a4.8,4.8,0,0,1-1.4-3.448A4.881,4.881,0,0,1,39,51.2H61.775c-.1.559-.174,1.122-.228,1.687H38.937a3.148,3.148,0,0,0,0,6.3h40.37a.844.844,0,0,1,0,1.686H38.937A4.8,4.8,0,0,1,35.5,59.439ZM30.78,63.378a.845.845,0,0,1,.843-.844H78.639a4.835,4.835,0,1,1-.063,9.669H74.219a.832.832,0,0,0,0,1.662H82.63a.843.843,0,0,1,0,1.686H43.855V73.864H69.842a.831.831,0,0,0,0-1.661H43.855V70.517H78.639a3.148,3.148,0,0,0,0-6.3H31.623a.844.844,0,0,1-.843-.843Zm.843,8.825a.843.843,0,0,1,0-1.686h6.62V72.2ZM82.63,83.533H35.614a4.84,4.84,0,0,1-4.834-4.882,4.881,4.881,0,0,1,4.9-4.786h2.566v1.686H35.614a3.148,3.148,0,0,0,0,6.3H82.629a.843.843,0,0,1,0,1.686Z" fill="url(#linear-gradient)"/>
  </g>
</svg>
