<svg xmlns="http://www.w3.org/2000/svg" width="110.693" height="112.164" viewBox="0 0 110.693 112.164">
  <g id="Group_465" data-name="Group 465" transform="translate(0.5 0.5)">
    <path id="Path_971" data-name="Path 971" d="M21.956,84.81V22.619l-.156-6.25A5.4,5.4,0,0,1,27.113,10.9h1.25a2.252,2.252,0,0,1,2.031,1.25,3.578,3.578,0,0,0,3.438,2.344H53.677a3.731,3.731,0,0,0,3.438-2.344,2.094,2.094,0,0,1,2.031-1.25h1.094a5.4,5.4,0,0,1,5.313,5.469V84.81" transform="translate(11.327 5.038)" fill="none" stroke="#2766a6" stroke-linecap="round" stroke-linejoin="round" stroke-width="1"/>
    <path id="Path_972" data-name="Path 972" d="M77.166,90.548a5.237,5.237,0,0,1-5.157,5.313H39.039s-2.188.156-2.188,2.188,2.188,2.344,2.188,2.344H74.666a6.8,6.8,0,0,0,6.719-6.875V19.451a6.907,6.907,0,0,0-6.719-6.875H36.383a6.8,6.8,0,0,0-6.719,6.875v73.91c0,12.657-8.125,6.875-8.125,6.875a57.084,57.084,0,0,1-4.688-4.219A55.856,55.856,0,0,1,.6,56.484C.6,25.7,25.132.7,55.447.7s54.847,25,54.847,55.784c0,28.283-20.626,51.565-47.346,55.315" transform="translate(-0.6 -0.7)" fill="none" stroke="#2766a6" stroke-linecap="round" stroke-linejoin="round" stroke-width="1"/>
    <path id="Path_973" data-name="Path 973" d="M65.638,39.719A4.219,4.219,0,1,1,61.419,35.5,4.2,4.2,0,0,1,65.638,39.719Z" transform="translate(31.242 18.878)" fill="none" stroke="#2766a6" stroke-linecap="round" stroke-width="1"/>
    <path id="Path_974" data-name="Path 974" d="M68.95,30.381a3.272,3.272,0,0,1-3.125,3.281,3.285,3.285,0,1,1,3.125-3.281Z" transform="translate(34.336 14.152)" fill="none" stroke="#2766a6" stroke-linecap="round" stroke-width="1"/>
    <path id="Path_975" data-name="Path 975" d="M60.994,38.313,52.4,33" transform="translate(28.542 17.471)" fill="none" stroke="#2766a6" stroke-linecap="round" stroke-width="1"/>
    <path id="Path_976" data-name="Path 976" d="M61.1,38.5,65.163,31" transform="translate(33.436 16.346)" fill="none" stroke="#2766a6" stroke-linecap="round" stroke-width="1"/>
    <path id="Path_977" data-name="Path 977" d="M10.2,23.7A46.657,46.657,0,0,0,5.98,39.17a48.543,48.543,0,0,0,8.125,31.877" transform="translate(2.301 12.239)" fill="none" stroke="#2766a6" stroke-linecap="round" stroke-linejoin="round" stroke-width="1"/>
    <g id="Group_464" data-name="Group 464" transform="translate(33.808 42.949)">
      <path id="Path_978" data-name="Path 978" d="M59.372,28.706l-13.3,7.114a1.82,1.82,0,0,1-1.373.136l-4.8-1.438a2.392,2.392,0,0,0-1.872.214l-4.524,2.585a1.638,1.638,0,1,0,1.681,2.811l2.777-1.736a1.51,1.51,0,0,1,1.8.148l7.271,6.4,12.337-6.491" transform="translate(-16.359 -27.893)" fill="none" stroke="#2766a6" stroke-linecap="round" stroke-linejoin="round" stroke-width="1"/>
      <path id="Path_979" data-name="Path 979" d="M33.082,39.722,31.974,40.83a1.592,1.592,0,0,1-2.252-2.25l1.109-1.111a1.592,1.592,0,1,1,2.25,2.253Z" transform="translate(-18.286 -23.224)" fill="none" stroke="#2766a6" stroke-linecap="round" stroke-linejoin="round" stroke-width="1"/>
      <path id="Path_980" data-name="Path 980" d="M34.523,41.161l-1.109,1.109a1.592,1.592,0,0,1-2.25-2.252l1.106-1.109a1.593,1.593,0,0,1,2.253,2.252Z" transform="translate(-17.475 -22.414)" fill="none" stroke="#2766a6" stroke-linecap="round" stroke-linejoin="round" stroke-width="1"/>
      <path id="Path_981" data-name="Path 981" d="M35.963,42.6l-1.108,1.1A1.591,1.591,0,0,1,32.6,41.462l1.109-1.111a1.592,1.592,0,1,1,2.25,2.252Z" transform="translate(-16.665 -21.603)" fill="none" stroke="#2766a6" stroke-linecap="round" stroke-linejoin="round" stroke-width="1"/>
      <path id="Path_982" data-name="Path 982" d="M37.4,44.042,36.3,45.15a1.592,1.592,0,0,1-2.252-2.25l1.108-1.109A1.592,1.592,0,0,1,37.4,44.042Z" transform="translate(-15.854 -20.793)" fill="none" stroke="#2766a6" stroke-linecap="round" stroke-linejoin="round" stroke-width="1"/>
      <path id="Path_983" data-name="Path 983" d="M38.567,38.157l3.485,3.035a1.561,1.561,0,1,1-2.084,2.324l-3.485-3.035" transform="translate(-14.221 -22.577)" fill="none" stroke="#2766a6" stroke-linecap="round" stroke-linejoin="round" stroke-width="1"/>
      <path id="Path_984" data-name="Path 984" d="M36.532,39.644l3.486,3.035A1.561,1.561,0,0,1,37.932,45L36.4,43.59" transform="translate(-14.27 -21.74)" fill="none" stroke="#2766a6" stroke-linecap="round" stroke-linejoin="round" stroke-width="1"/>
      <path id="Path_985" data-name="Path 985" d="M37.029,42.169l1.536,1.413a1.56,1.56,0,1,1-2.083,2.324L35.27,44.818" transform="translate(-14.903 -20.319)" fill="none" stroke="#2766a6" stroke-linecap="round" stroke-linejoin="round" stroke-width="1"/>
      <path id="Path_986" data-name="Path 986" d="M43.506,39.054a1.337,1.337,0,0,1,0,2.017,1.566,1.566,0,0,1-2.2.122l-3.485-3.036" transform="translate(-13.47 -22.577)" fill="none" stroke="#2766a6" stroke-linecap="round" stroke-linejoin="round" stroke-width="1"/>
      <path id="Path_987" data-name="Path 987" d="M22.236,28.186l10.713,6.168,5.514-1.1a3.971,3.971,0,0,1,1.933.094l4.569,1.372" transform="translate(-22.236 -28.186)" fill="none" stroke="#2766a6" stroke-linecap="round" stroke-linejoin="round" stroke-width="1"/>
      <path id="Path_988" data-name="Path 988" d="M33.308,40.372,22.236,34.834" transform="translate(-22.236 -24.446)" fill="none" stroke="#2766a6" stroke-linecap="round" stroke-linejoin="round" stroke-width="1"/>
    </g>
  </g>
</svg>
