<?xml version="1.0" encoding="utf-8"?>
<!-- Generator: Adobe Illustrator 22.0.1, SVG Export Plug-In . SVG Version: 6.00 Build 0)  -->
<svg version="1.1" id="圖層_1" xmlns="http://www.w3.org/2000/svg" xmlns:xlink="http://www.w3.org/1999/xlink" x="0px" y="0px"
	 viewBox="0 0 310 78" style="enable-background:new 0 0 310 78;" xml:space="preserve">
<style type="text/css">
	.st0{fill:#FBD900;}
	.st1{fill:#FFFFFF;}
</style>
<g>
	<path class="st0" d="M273,77.1H37c-19.2,0-34.9-15.6-34.9-34.9v-5C2.2,18,17.8,2.4,37,2.4h236c19.2,0,34.9,15.6,34.9,34.9v5
		C307.8,61.5,292.2,77.1,273,77.1z M37,5.4C19.5,5.4,5.2,19.7,5.2,37.2v5c0,17.6,14.3,31.9,31.9,31.9H273
		c17.6,0,31.9-14.3,31.9-31.9v-5c0-17.6-14.3-31.9-31.9-31.9H37V5.4z"/>
</g>
<g>
	<g>
		<path class="st1" d="M80.6,45.9c0,1.8-1.5,3.3-3.3,3.3l0,0c-1.8,0-3.3-1.5-3.3-3.3V31c0-1.8,1.5-3.3,3.3-3.3l0,0
			c1.8,0,3.3,1.5,3.3,3.3V45.9z"/>
		<path class="st1" d="M39.7,45.9c0,1.8-1.5,3.3-3.3,3.3l0,0c-1.8,0-3.3-1.5-3.3-3.3V31c0-1.8,1.5-3.3,3.3-3.3l0,0
			c1.8,0,3.3,1.5,3.3,3.3V45.9z"/>
	</g>
	<g>
		<path class="st1" d="M64.3,15.4l2.7-3.7c0.1-0.1,0-0.2-0.2-0.3s-0.3-0.1-0.4-0.1l-2.7,3.9c-1.9-0.7-4.1-1.2-6.8-1.2
			c-2.8,0-5,0.4-6.9,1.1l-2.7-3.8c-0.1-0.1-0.2-0.1-0.4,0.1c-0.2,0.1-0.2,0.3-0.2,0.3l2.6,3.7C41.7,18.7,41.5,27,41.5,27h30.7
			C72.2,27,71.9,18.8,64.3,15.4z M50.1,22.1c-1,0-1.8-0.8-1.8-1.8s0.8-1.8,1.8-1.8s1.8,0.8,1.8,1.8C52,21.3,51.1,22.1,50.1,22.1z
			 M63.6,22.1c-1,0-1.8-0.8-1.8-1.8s0.8-1.8,1.8-1.8s1.8,0.8,1.8,1.8C65.4,21.3,64.6,22.1,63.6,22.1z"/>
	</g>
	<path class="st1" d="M72.3,28.8h-1.9H43.2h-1.9v12.8l0,0V55c0,1,0.8,1.9,1.9,1.9h4V65c0,1.8,1.5,3.3,3.3,3.3s3.3-1.5,3.3-3.3v-8.2
		h6.1V65c0,1.8,1.5,3.3,3.3,3.3c1.8,0,3.3-1.5,3.3-3.3v-8.2h4c1,0,1.9-0.8,1.9-1.9V41.6l0,0L72.3,28.8L72.3,28.8z"/>
</g>
<g>
	<path class="st1" d="M101.3,26v-9.8h2.8c3.6,0,5.4,1.6,5.4,4.8c0,1.5-0.5,2.7-1.5,3.6s-2.3,1.4-4,1.4H101.3z M103,17.6v7h1.3
		c1.1,0,2-0.3,2.7-0.9c0.6-0.6,1-1.5,1-2.7c0-2.3-1.2-3.4-3.6-3.4H103z"/>
	<path class="st1" d="M114.3,26.2c-1.1,0-1.9-0.3-2.6-1c-0.6-0.7-1-1.5-1-2.6c0-1.2,0.3-2.1,1-2.8c0.7-0.7,1.6-1,2.7-1
		s1.9,0.3,2.6,1c0.6,0.6,0.9,1.5,0.9,2.7c0,1.1-0.3,2-1,2.7C116.3,25.8,115.4,26.2,114.3,26.2z M114.4,20.1c-0.6,0-1.1,0.2-1.5,0.6
		s-0.5,1-0.5,1.8c0,0.7,0.2,1.3,0.5,1.7c0.4,0.4,0.9,0.6,1.5,0.6s1.1-0.2,1.4-0.6s0.5-1,0.5-1.8s-0.2-1.4-0.5-1.8
		C115.5,20.3,115,20.1,114.4,20.1z"/>
	<path class="st1" d="M125.8,26h-1.6v-3.9c0-1.3-0.5-2-1.4-2c-0.5,0-0.9,0.2-1.2,0.5c-0.3,0.4-0.5,0.8-0.5,1.4v4h-1.6v-7h1.6v1.2
		l0,0c0.5-0.9,1.3-1.3,2.3-1.3c0.8,0,1.3,0.2,1.7,0.7c0.4,0.5,0.6,1.2,0.6,2.1L125.8,26L125.8,26z"/>
	<path class="st1" d="M137.1,19l-2.1,7h-1.7l-1.3-4.7c0-0.2-0.1-0.4-0.1-0.6l0,0c0,0.2,0,0.4-0.1,0.6l-1.4,4.8h-1.6l-2.1-7h1.6
		l1.3,5c0,0.2,0.1,0.4,0.1,0.6l0,0c0-0.2,0.1-0.4,0.1-0.6l1.4-5h1.5l1.3,5.1c0,0.2,0.1,0.4,0.1,0.6l0,0c0-0.2,0-0.4,0.1-0.6l1.2-5.1
		L137.1,19L137.1,19z"/>
	<path class="st1" d="M139.9,26h-1.6V15.6h1.6V26z"/>
	<path class="st1" d="M145.1,26.2c-1.1,0-1.9-0.3-2.6-1c-0.6-0.7-1-1.5-1-2.6c0-1.2,0.3-2.1,1-2.8c0.7-0.7,1.6-1,2.7-1
		c1.1,0,1.9,0.3,2.6,1c0.6,0.6,0.9,1.5,0.9,2.7c0,1.1-0.3,2-1,2.7C147.1,25.8,146.2,26.2,145.1,26.2z M145.1,20.1
		c-0.6,0-1.1,0.2-1.5,0.6s-0.5,1-0.5,1.8c0,0.7,0.2,1.3,0.5,1.7c0.4,0.4,0.9,0.6,1.5,0.6s1.1-0.2,1.4-0.6s0.5-1,0.5-1.8
		s-0.2-1.4-0.5-1.8C146.2,20.3,145.8,20.1,145.1,20.1z"/>
	<path class="st1" d="M155.5,26H154v-1.1l0,0c-0.5,0.8-1.2,1.3-2.1,1.3c-0.7,0-1.2-0.2-1.6-0.6c-0.4-0.4-0.6-0.9-0.6-1.5
		c0-1.3,0.8-2.1,2.3-2.3l2.1-0.3c0-1-0.5-1.5-1.4-1.5c-0.8,0-1.6,0.3-2.3,0.9v-1.4c0.7-0.4,1.6-0.7,2.6-0.7c1.8,0,2.7,0.9,2.7,2.6
		V26H155.5z M154,22.6l-1.5,0.2c-0.5,0.1-0.8,0.2-1,0.3s-0.3,0.4-0.3,0.9c0,0.3,0.1,0.5,0.3,0.7s0.5,0.3,0.9,0.3
		c0.5,0,0.9-0.2,1.2-0.5s0.5-0.8,0.5-1.3L154,22.6L154,22.6z"/>
	<path class="st1" d="M163.8,26h-1.6v-1.2l0,0c-0.5,0.9-1.3,1.4-2.4,1.4c-0.9,0-1.5-0.3-2.1-0.9c-0.5-0.6-0.8-1.5-0.8-2.6
		c0-1.2,0.3-2.1,0.9-2.8c0.6-0.7,1.3-1,2.3-1c0.9,0,1.6,0.4,2.1,1.1l0,0v-4.3h1.6V26z M162.2,22.8v-0.9c0-0.5-0.2-0.9-0.5-1.3
		s-0.7-0.5-1.2-0.5c-0.6,0-1.1,0.2-1.4,0.7c-0.3,0.4-0.5,1.1-0.5,1.8c0,0.7,0.2,1.3,0.5,1.7c0.3,0.4,0.8,0.6,1.3,0.6s1-0.2,1.3-0.6
		S162.2,23.4,162.2,22.8z"/>
	<path class="st1" d="M173.7,16.9c-0.2-0.1-0.5-0.2-0.7-0.2c-0.8,0-1.2,0.4-1.2,1.3v1h1.6v1.2h-1.6V26h-1.6v-5.8H169V19h1.2v-1.1
		c0-0.7,0.2-1.3,0.7-1.7c0.5-0.4,1.1-0.6,1.8-0.6c0.4,0,0.7,0,0.9,0.1v1.2H173.7z"/>
	<path class="st1" d="M177.7,26.2c-1.1,0-1.9-0.3-2.6-1c-0.6-0.7-1-1.5-1-2.6c0-1.2,0.3-2.1,1-2.8c0.7-0.7,1.6-1,2.7-1
		c1.1,0,1.9,0.3,2.6,1c0.6,0.6,0.9,1.5,0.9,2.7c0,1.1-0.3,2-1,2.7S178.8,26.2,177.7,26.2z M177.7,20.1c-0.6,0-1.1,0.2-1.5,0.6
		s-0.5,1-0.5,1.8c0,0.7,0.2,1.3,0.5,1.7s0.9,0.6,1.5,0.6s1.1-0.2,1.4-0.6s0.5-1,0.5-1.8s-0.2-1.4-0.5-1.8
		C178.8,20.3,178.3,20.1,177.7,20.1z"/>
	<path class="st1" d="M187,20.5c-0.2-0.2-0.5-0.2-0.8-0.2c-0.5,0-0.9,0.2-1.2,0.6s-0.5,1-0.5,1.7V26h-1.6v-7h1.6v1.4l0,0
		c0.2-0.5,0.4-0.9,0.7-1.2c0.3-0.3,0.7-0.4,1.1-0.4c0.3,0,0.5,0,0.7,0.1V20.5z"/>
</g>
<g>
	<path class="st1" d="M122.2,59.9h-4.7l-2.3-6.6H105l-2.3,6.6H98l9.8-26h4.9L122.2,59.9z M114,49.7l-3.6-10.4
		c-0.1-0.3-0.2-0.9-0.3-1.6H110c-0.1,0.7-0.2,1.2-0.4,1.6L106,49.7H114z"/>
	<path class="st1" d="M141.9,59.9h-4.2V49.4c0-3.5-1.2-5.2-3.7-5.2c-1.3,0-2.3,0.5-3.2,1.4c-0.8,1-1.3,2.2-1.3,3.6v10.6h-4.2V41.3
		h4.2v3.1h0.1c1.4-2.3,3.4-3.5,6-3.5c2,0,3.6,0.7,4.6,2c1.1,1.3,1.6,3.2,1.6,5.7L141.9,59.9L141.9,59.9z"/>
	<path class="st1" d="M164,59.9h-4.2v-3.2h-0.1c-1.4,2.4-3.4,3.6-6.3,3.6c-2.3,0-4.1-0.8-5.5-2.5s-2.1-3.9-2.1-6.8
		c0-3.1,0.8-5.5,2.3-7.4s3.5-2.8,6.1-2.8c2.5,0,4.3,1,5.5,3h0.1V32.3h4.2V59.9z M159.8,51.4V49c0-1.3-0.4-2.4-1.3-3.4
		s-2-1.4-3.3-1.4c-1.6,0-2.8,0.6-3.7,1.8s-1.4,2.8-1.4,4.9c0,1.9,0.4,3.4,1.3,4.5s2,1.6,3.5,1.6c1.4,0,2.6-0.5,3.5-1.6
		C159.4,54.3,159.8,53,159.8,51.4z"/>
	<path class="st1" d="M180.3,45.3c-0.5-0.4-1.2-0.6-2.2-0.6c-1.2,0-2.3,0.6-3.1,1.7c-0.8,1.1-1.3,2.7-1.3,4.6v8.9h-4.2V41.3h4.2v3.8
		h0.1c0.4-1.3,1-2.3,1.9-3.1s1.8-1.1,2.9-1.1c0.8,0,1.3,0.1,1.7,0.3L180.3,45.3L180.3,45.3z"/>
	<path class="st1" d="M191.2,60.3c-2.9,0-5.2-0.9-6.9-2.6c-1.7-1.7-2.6-4-2.6-6.9c0-3.1,0.9-5.6,2.7-7.3s4.2-2.6,7.2-2.6
		c2.9,0,5.2,0.9,6.8,2.6c1.6,1.7,2.4,4.1,2.4,7.1s-0.9,5.3-2.6,7.1S194.1,60.3,191.2,60.3z M191.4,44.2c-1.6,0-2.9,0.6-3.9,1.7
		c-1,1.2-1.4,2.7-1.4,4.8c0,2,0.5,3.5,1.5,4.6s2.3,1.7,3.9,1.7c1.7,0,2.9-0.6,3.8-1.7c0.9-1.1,1.3-2.7,1.3-4.7s-0.4-3.6-1.3-4.7
		C194.3,44.8,193,44.2,191.4,44.2z"/>
	<path class="st1" d="M207.3,37.4c-0.7,0-1.3-0.2-1.8-0.7c-0.5-0.4-0.7-1-0.7-1.7s0.2-1.3,0.7-1.7c0.5-0.5,1.1-0.7,1.8-0.7
		s1.3,0.2,1.8,0.7s0.7,1,0.7,1.7s-0.2,1.2-0.7,1.7C208.6,37.1,208,37.4,207.3,37.4z M209.3,59.9h-4.2V41.3h4.2V59.9z"/>
	<path class="st1" d="M231.8,59.9h-4.2v-3.2h-0.1c-1.4,2.4-3.4,3.6-6.3,3.6c-2.3,0-4.1-0.8-5.5-2.5s-2.1-3.9-2.1-6.8
		c0-3.1,0.8-5.5,2.3-7.4s3.5-2.8,6.1-2.8c2.5,0,4.3,1,5.5,3h0.1V32.3h4.2V59.9z M227.6,51.4V49c0-1.3-0.4-2.4-1.3-3.4
		c-0.9-0.9-2-1.4-3.3-1.4c-1.6,0-2.8,0.6-3.7,1.8s-1.4,2.8-1.4,4.9c0,1.9,0.4,3.4,1.3,4.5s2,1.6,3.5,1.6c1.4,0,2.6-0.5,3.5-1.6
		S227.6,53,227.6,51.4z"/>
</g>
</svg>
