<svg xmlns="http://www.w3.org/2000/svg" width="86" height="108.527" viewBox="0 0 86 108.527">
  <g id="组_3862" data-name="组 3862" transform="translate(-851 -606)">
    <path id="路径_4564" data-name="路径 4564" d="M222.472,269.32a18.636,18.636,0,0,0-5.645-12.921l4.355-7.543a.571.571,0,1,0-.99-.571l-4.217,7.3a24.537,24.537,0,0,0-14.075-6.029h-5.16a24.536,24.536,0,0,0-14.075,6.029l-4.217-7.3a.571.571,0,1,0-.99.571l4.355,7.543a18.637,18.637,0,0,0-5.645,12.922Zm-15.534-9.186a2.657,2.657,0,0,1,5.312-.014v.014a2.657,2.657,0,0,1-5.312.014Zm-19.828,0a2.657,2.657,0,0,1,5.312-.014v.014a2.657,2.657,0,0,1-5.312.014Zm-19.374,14.347a5.134,5.134,0,0,0-5.135,5.135v22.025a5.134,5.134,0,0,0,10.268,0V279.616A5.134,5.134,0,0,0,167.737,274.481Zm8.281-2.97h0c-.017.195-.032.391-.032.591v33.37a6.412,6.412,0,0,0,6.367,6.48h.252v13.2a5.134,5.134,0,0,0,10.268,0v-13.2h12.895v13.2a5.134,5.134,0,0,0,10.268,0v-13.2h.251a6.412,6.412,0,0,0,6.367-6.48V272.1c0-.2-.007-.4-.024-.591Zm54.887,2.97a5.135,5.135,0,0,0-5.134,5.135v22.025a5.134,5.134,0,0,0,10.268,0V279.616A5.134,5.134,0,0,0,230.9,274.481Z" transform="translate(694.398 358.003)" fill="#a3c53a"/>
    <text id="android下載" transform="translate(851 710.527)" fill="#fff" font-size="16" font-family="ArialMT, Arial"><tspan x="0" y="0">android</tspan><tspan y="0" font-family="YuGothicUI-Regular, Yu Gothic UI">下載</tspan></text>
  </g>
</svg>
