<?xml version="1.0" encoding="utf-8"?>
<!-- Generator: Adobe Illustrator 22.0.1, SVG Export Plug-In . SVG Version: 6.00 Build 0)  -->
<svg version="1.1" id="圖層_1" xmlns="http://www.w3.org/2000/svg" xmlns:xlink="http://www.w3.org/1999/xlink" x="0px" y="0px"
	 viewBox="0 0 310 78" style="enable-background:new 0 0 310 78;" xml:space="preserve">
<style type="text/css">
	.st0{fill:#50BA9E;}
	.st1{enable-background:new    ;}
	.st2{fill:#FFFFFF;}
</style>
<g>
	<path class="st0" d="M273,75.8H37C17.8,75.8,2.2,60.2,2.2,41v-5C2.2,16.7,17.8,1.1,37,1.1h236c19.2,0,34.9,15.6,34.9,34.9v5
		C307.8,60.2,292.2,75.8,273,75.8z M37,4.1C19.5,4.1,5.2,18.4,5.2,36v5c0,17.6,14.3,31.9,31.9,31.9H273c17.6,0,31.9-14.3,31.9-31.9
		v-5c0-17.6-14.3-31.9-31.9-31.9C273,4.1,37,4.1,37,4.1z"/>
</g>
<g class="st1">
	<path class="st2" d="M101.3,24.7v-9.8h2.8c3.6,0,5.4,1.6,5.4,4.8c0,1.5-0.5,2.7-1.5,3.6c-1,0.9-2.3,1.4-4,1.4H101.3z M103,16.3v7
		h1.3c1.1,0,2-0.3,2.7-0.9c0.6-0.6,1-1.5,1-2.7c0-2.3-1.2-3.4-3.6-3.4H103z"/>
	<path class="st2" d="M114.3,24.9c-1.1,0-1.9-0.3-2.6-1s-1-1.5-1-2.6c0-1.2,0.3-2.1,1-2.8s1.6-1,2.7-1c1.1,0,1.9,0.3,2.6,1
		c0.6,0.6,0.9,1.5,0.9,2.7c0,1.1-0.3,2-1,2.7C116.3,24.5,115.4,24.9,114.3,24.9z M114.4,18.8c-0.6,0-1.1,0.2-1.5,0.6
		c-0.4,0.4-0.5,1-0.5,1.8c0,0.7,0.2,1.3,0.5,1.7c0.4,0.4,0.9,0.6,1.5,0.6c0.6,0,1.1-0.2,1.4-0.6c0.3-0.4,0.5-1,0.5-1.8
		c0-0.8-0.2-1.4-0.5-1.8S115,18.8,114.4,18.8z"/>
	<path class="st2" d="M125.8,24.7h-1.6v-3.9c0-1.3-0.5-2-1.4-2c-0.5,0-0.9,0.2-1.2,0.5c-0.3,0.4-0.5,0.8-0.5,1.4v4h-1.6v-7h1.6v1.2
		h0c0.5-0.9,1.3-1.3,2.3-1.3c0.8,0,1.3,0.2,1.7,0.7c0.4,0.5,0.6,1.2,0.6,2.1V24.7z"/>
	<path class="st2" d="M137.1,17.7l-2.1,7h-1.7l-1.3-4.7c0-0.2-0.1-0.4-0.1-0.6h0c0,0.2,0,0.4-0.1,0.6l-1.4,4.8h-1.6l-2.1-7h1.6
		l1.3,5c0,0.2,0.1,0.4,0.1,0.6h0c0-0.2,0.1-0.4,0.1-0.6l1.4-5h1.5l1.3,5.1c0,0.2,0.1,0.4,0.1,0.6h0c0-0.2,0-0.4,0.1-0.6l1.2-5.1
		H137.1z"/>
	<path class="st2" d="M139.9,24.7h-1.6V14.4h1.6V24.7z"/>
	<path class="st2" d="M145.1,24.9c-1.1,0-1.9-0.3-2.6-1s-1-1.5-1-2.6c0-1.2,0.3-2.1,1-2.8s1.6-1,2.7-1c1.1,0,1.9,0.3,2.6,1
		c0.6,0.6,0.9,1.5,0.9,2.7c0,1.1-0.3,2-1,2.7C147.1,24.5,146.2,24.9,145.1,24.9z M145.1,18.8c-0.6,0-1.1,0.2-1.5,0.6
		c-0.4,0.4-0.5,1-0.5,1.8c0,0.7,0.2,1.3,0.5,1.7c0.4,0.4,0.9,0.6,1.5,0.6c0.6,0,1.1-0.2,1.4-0.6c0.3-0.4,0.5-1,0.5-1.8
		c0-0.8-0.2-1.4-0.5-1.8S145.8,18.8,145.1,18.8z"/>
	<path class="st2" d="M155.5,24.7H154v-1.1h0c-0.5,0.8-1.2,1.3-2.1,1.3c-0.7,0-1.2-0.2-1.6-0.6c-0.4-0.4-0.6-0.9-0.6-1.5
		c0-1.3,0.8-2.1,2.3-2.3l2.1-0.3c0-1-0.5-1.5-1.4-1.5c-0.8,0-1.6,0.3-2.3,0.9v-1.4c0.7-0.4,1.6-0.7,2.6-0.7c1.8,0,2.7,0.9,2.7,2.6
		V24.7z M154,21.3l-1.5,0.2c-0.5,0.1-0.8,0.2-1,0.3c-0.2,0.2-0.3,0.4-0.3,0.9c0,0.3,0.1,0.5,0.3,0.7c0.2,0.2,0.5,0.3,0.9,0.3
		c0.5,0,0.9-0.2,1.2-0.5c0.3-0.3,0.5-0.8,0.5-1.3V21.3z"/>
	<path class="st2" d="M163.8,24.7h-1.6v-1.2h0c-0.5,0.9-1.3,1.4-2.4,1.4c-0.9,0-1.5-0.3-2.1-0.9s-0.8-1.5-0.8-2.6
		c0-1.2,0.3-2.1,0.9-2.8c0.6-0.7,1.3-1,2.3-1c0.9,0,1.6,0.4,2.1,1.1h0v-4.3h1.6V24.7z M162.2,21.5v-0.9c0-0.5-0.2-0.9-0.5-1.3
		c-0.3-0.3-0.7-0.5-1.2-0.5c-0.6,0-1.1,0.2-1.4,0.7c-0.3,0.4-0.5,1.1-0.5,1.8c0,0.7,0.2,1.3,0.5,1.7s0.8,0.6,1.3,0.6
		c0.5,0,1-0.2,1.3-0.6C162.1,22.6,162.2,22.1,162.2,21.5z"/>
	<path class="st2" d="M173.7,15.6c-0.2-0.1-0.5-0.2-0.7-0.2c-0.8,0-1.2,0.4-1.2,1.3v0.9h1.6V19h-1.6v5.8h-1.6V19H169v-1.2h1.2v-1.1
		c0-0.7,0.2-1.3,0.7-1.7c0.5-0.4,1.1-0.6,1.8-0.6c0.4,0,0.7,0,0.9,0.1V15.6z"/>
	<path class="st2" d="M177.7,24.9c-1.1,0-1.9-0.3-2.6-1s-1-1.5-1-2.6c0-1.2,0.3-2.1,1-2.8s1.6-1,2.7-1c1.1,0,1.9,0.3,2.6,1
		c0.6,0.6,0.9,1.5,0.9,2.7c0,1.1-0.3,2-1,2.7S178.8,24.9,177.7,24.9z M177.7,18.8c-0.6,0-1.1,0.2-1.5,0.6c-0.4,0.4-0.5,1-0.5,1.8
		c0,0.7,0.2,1.3,0.5,1.7c0.4,0.4,0.9,0.6,1.5,0.6c0.6,0,1.1-0.2,1.4-0.6c0.3-0.4,0.5-1,0.5-1.8c0-0.8-0.2-1.4-0.5-1.8
		S178.3,18.8,177.7,18.8z"/>
	<path class="st2" d="M187,19.2c-0.2-0.2-0.5-0.2-0.8-0.2c-0.5,0-0.9,0.2-1.2,0.6s-0.5,1-0.5,1.7v3.3h-1.6v-7h1.6v1.4h0
		c0.2-0.5,0.4-0.9,0.7-1.2c0.3-0.3,0.7-0.4,1.1-0.4c0.3,0,0.5,0,0.7,0.1V19.2z"/>
</g>
<g class="st1">
	<path class="st2" d="M122.2,58.1h-4.7l-2.3-6.6h-10.2l-2.3,6.6h-4.7l9.8-26h4.9L122.2,58.1z M114,47.9l-3.6-10.4
		c-0.1-0.3-0.2-0.9-0.3-1.6H110c-0.1,0.7-0.2,1.2-0.4,1.6L106,47.9H114z"/>
	<path class="st2" d="M129.6,55.3L129.6,55.3l-0.1,11.3h-4.2V39.5h4.2v3.3h0.1c1.4-2.5,3.5-3.7,6.3-3.7c2.4,0,4.2,0.8,5.5,2.5
		c1.3,1.7,2,3.9,2,6.7c0,3.1-0.7,5.6-2.2,7.4c-1.5,1.9-3.5,2.8-6.1,2.8C132.8,58.5,130.9,57.4,129.6,55.3z M129.5,48v2.3
		c0,1.4,0.4,2.5,1.3,3.5s2,1.4,3.3,1.4c1.6,0,2.8-0.6,3.7-1.8c0.9-1.2,1.3-2.9,1.3-5.1c0-1.8-0.4-3.3-1.2-4.3c-0.8-1-2-1.6-3.4-1.6
		c-1.5,0-2.7,0.5-3.6,1.6C130,45.1,129.5,46.4,129.5,48z"/>
	<path class="st2" d="M152.1,55.3L152.1,55.3L152,66.6h-4.2V39.5h4.2v3.3h0.1c1.4-2.5,3.5-3.7,6.3-3.7c2.4,0,4.2,0.8,5.5,2.5
		c1.3,1.7,2,3.9,2,6.7c0,3.1-0.7,5.6-2.2,7.4c-1.5,1.9-3.5,2.8-6.1,2.8C155.2,58.5,153.3,57.4,152.1,55.3z M151.9,48v2.3
		c0,1.4,0.4,2.5,1.3,3.5s2,1.4,3.3,1.4c1.6,0,2.8-0.6,3.7-1.8c0.9-1.2,1.3-2.9,1.3-5.1c0-1.8-0.4-3.3-1.2-4.3c-0.8-1-2-1.6-3.4-1.6
		c-1.5,0-2.7,0.5-3.6,1.6C152.4,45.1,151.9,46.4,151.9,48z"/>
	<path class="st2" d="M174.4,58.1h-4.2V30.5h4.2V58.1z"/>
	<path class="st2" d="M195.7,49.9H183c0,1.7,0.6,3,1.6,4c1,0.9,2.4,1.4,4.2,1.4c2,0,3.8-0.6,5.5-1.8v3.4c-1.7,1.1-3.9,1.6-6.7,1.6
		c-2.7,0-4.9-0.8-6.4-2.5c-1.6-1.7-2.3-4.1-2.3-7.1c0-2.9,0.9-5.3,2.6-7.1c1.7-1.8,3.8-2.7,6.4-2.7c2.5,0,4.5,0.8,5.9,2.5
		s2.1,3.9,2.1,6.8V49.9z M191.6,46.9c0-1.5-0.4-2.7-1.1-3.5s-1.7-1.3-2.9-1.3c-1.2,0-2.2,0.4-3.1,1.3s-1.4,2-1.6,3.5H191.6z"/>
	<path class="st2" d="M212,35.6c-0.7,0-1.3-0.2-1.8-0.7c-0.5-0.4-0.7-1-0.7-1.7c0-0.7,0.2-1.3,0.7-1.7c0.5-0.5,1.1-0.7,1.8-0.7
		c0.7,0,1.3,0.2,1.8,0.7c0.5,0.5,0.7,1,0.7,1.7c0,0.7-0.2,1.2-0.7,1.7C213.3,35.3,212.7,35.6,212,35.6z M214.1,58.1h-4.2V39.5h4.2
		V58.1z"/>
	<path class="st2" d="M230.8,58.5c-3.8,0-6.8-1.2-9-3.7c-2.3-2.4-3.4-5.6-3.4-9.5c0-4.2,1.2-7.5,3.5-10c2.3-2.5,5.4-3.7,9.4-3.7
		c3.7,0,6.6,1.2,8.8,3.6s3.4,5.6,3.4,9.5c0,4.3-1.1,7.6-3.4,10.1C237.7,57.3,234.6,58.5,230.8,58.5z M231,35.4
		c-2.4,0-4.3,0.9-5.8,2.7c-1.5,1.8-2.2,4.1-2.2,7c0,2.9,0.7,5.2,2.2,7c1.5,1.8,3.4,2.7,5.7,2.7c2.5,0,4.5-0.8,5.9-2.5
		c1.4-1.7,2.2-4,2.2-7.1c0-3.1-0.7-5.5-2.1-7.2C235.4,36.2,233.5,35.4,231,35.4z"/>
	<path class="st2" d="M247,57v-4.5c0.4,0.4,0.9,0.7,1.4,1c0.6,0.3,1.1,0.5,1.8,0.7c0.6,0.2,1.2,0.4,1.9,0.5c0.6,0.1,1.2,0.2,1.7,0.2
		c1.8,0,3.2-0.3,4.1-0.9c0.9-0.6,1.3-1.5,1.3-2.6c0-0.6-0.1-1.2-0.4-1.6c-0.3-0.5-0.7-0.9-1.2-1.2c-0.5-0.4-1.2-0.7-1.9-1.1
		c-0.7-0.3-1.5-0.7-2.3-1.1c-0.9-0.5-1.7-1-2.5-1.4c-0.8-0.5-1.4-1-2-1.6c-0.6-0.6-1-1.3-1.3-2c-0.3-0.7-0.5-1.6-0.5-2.6
		c0-1.2,0.3-2.3,0.8-3.2c0.6-0.9,1.3-1.6,2.2-2.2c0.9-0.6,1.9-1,3.1-1.3c1.1-0.3,2.3-0.4,3.5-0.4c2.7,0,4.7,0.3,6,0.9v4.3
		c-1.5-1.1-3.4-1.6-5.7-1.6c-0.6,0-1.3,0.1-1.9,0.2s-1.2,0.3-1.7,0.6c-0.5,0.3-0.9,0.6-1.2,1.1c-0.3,0.4-0.5,1-0.5,1.6
		c0,0.6,0.1,1.1,0.4,1.5s0.6,0.8,1.1,1.2c0.5,0.4,1,0.7,1.7,1s1.5,0.7,2.3,1.1c0.9,0.5,1.8,1,2.6,1.5c0.8,0.5,1.5,1.1,2.1,1.7
		c0.6,0.6,1.1,1.3,1.5,2.1c0.4,0.8,0.5,1.6,0.5,2.6c0,1.3-0.3,2.4-0.8,3.3s-1.3,1.6-2.2,2.2s-1.9,1-3.1,1.2
		c-1.2,0.3-2.4,0.4-3.7,0.4c-0.4,0-1,0-1.6-0.1s-1.3-0.2-2-0.3c-0.7-0.1-1.3-0.3-1.9-0.5S247.4,57.3,247,57z"/>
</g>
<g>
	<path class="st2" d="M57.8,16.1c3.5-4.6,8.4-4.6,8.4-4.6s0.7,4.3-2.8,8.5c-3.7,4.5-7.9,3.7-7.9,3.7S54.7,20.2,57.8,16.1z"/>
	<path class="st2" d="M56,26.7c1.8,0,5.1-2.5,9.5-2.5c7.5,0,10.4,5.3,10.4,5.3s-5.8,2.9-5.8,10.1c0,8.1,7.2,10.8,7.2,10.8
		s-5,14.1-11.8,14.1c-3.1,0-5.5-2.1-8.8-2.1s-6.7,2.2-8.8,2.2c-6.2,0-14-13.4-14-24.1c0-10.6,6.6-16.1,12.8-16.1
		C50.7,24.4,53.9,26.7,56,26.7z"/>
</g>
</svg>
