<svg xmlns="http://www.w3.org/2000/svg" width="142" height="172" viewBox="0 0 142 172">
    <defs>
        <linearGradient id="5jgk30rq4a" x1="50%" x2="50%" y1="0%" y2="100%">
            <stop offset="0%" stop-color="#F5515F"/>
            <stop offset="100%" stop-color="#9F041B"/>
        </linearGradient>
        <linearGradient id="suuef1py5b" x1="50%" x2="50%" y1="0%" y2="100%">
            <stop offset="0%" stop-color="#FFE54F"/>
            <stop offset="100%" stop-color="#FFC727"/>
        </linearGradient>
        <linearGradient id="t0laqjmpkc" x1="50%" x2="50%" y1="0%" y2="100%">
            <stop offset="0%" stop-color="#F5515F"/>
            <stop offset="100%" stop-color="#9F041B"/>
        </linearGradient>
        <linearGradient id="0j0hzrqymd" x1="50%" x2="50%" y1="0%" y2="100%">
            <stop offset="0%" stop-color="#F5515F"/>
            <stop offset="100%" stop-color="#9F041B"/>
        </linearGradient>
        <linearGradient id="sc5qzziare" x1="50%" x2="50%" y1="0%" y2="100%">
            <stop offset="0%" stop-color="#FFE54F"/>
            <stop offset="100%" stop-color="#FFC727"/>
        </linearGradient>
        <linearGradient id="az2z08r0gf" x1="50%" x2="50%" y1="0%" y2="100%">
            <stop offset="0%" stop-color="#F5515F"/>
            <stop offset="100%" stop-color="#9F041B"/>
        </linearGradient>
        <linearGradient id="mpf8oj3pdg" x1="50%" x2="50%" y1="0%" y2="100%">
            <stop offset="0%" stop-color="#F5515F"/>
            <stop offset="100%" stop-color="#9F041B"/>
        </linearGradient>
    </defs>
    <g fill="none" fill-rule="evenodd">
        <g>
            <g>
                <g>
                    <path fill="#F1B162" d="M138.92 89.457c0-9.916-2.772-18.908-7.652-26.64-.11-.223-.185-.445-.147-.704.702-6.919.554-17.205-1.775-32.597-4.88-32.302-14.38-30.267-17.708-28.453-.702.406-1.257.998-1.59 1.738L95.928 35.51c-.326.751-1.085 1.183-1.868 1.097-7.621-2.418-15.88-3.745-24.51-3.745-9.366 0-18.297 1.563-26.45 4.389-.234.074-.47.144-.702.22-.887.296-1.886-.148-2.255-1.036L25.539 2.838c-.332-.74-.887-1.369-1.59-1.739C20.624-.714 11.086-2.786 6.28 29.553c-2.44 16.354-2.477 27.01-1.627 33.892.111.925.37 1.74.777 2.48.184.332.184.702.037 1.035C2.065 73.694.179 81.28.179 89.494c0 .264.01.526.013.79-.005.28-.013.56-.013.84 0 17.388 9.072 32.993 23.454 43.669 3.124 2.318 6.496 4.406 10.083 6.227 10.459 5.31 22.721 8.367 35.834 8.367 12.963 0 25.094-2.99 35.475-8.188 3.373-1.69 6.562-3.613 9.534-5.743 14.907-10.686 24.362-26.58 24.362-44.332 0-.289-.008-.576-.013-.863.004-.269.013-.535.013-.804" transform="translate(-27 -526) translate(28 527) translate(.926 20.584)"/>
                    <path fill="#FBF9F5" d="M35.135 34.955L23.97 9.24c-.443-1.036-1.294-1.813-2.366-2.11-2.81-.74-8.059.703-10.905 19.759-1.664 11.1-1.7 18.352-1.11 23.051.444 3.774 5.028 5.365 7.8 2.775 3.513-3.367 8.836-7.77 15.897-11.914 1.96-1.184 2.736-3.7 1.849-5.846M100.642 34.955L111.807 9.24c.443-1.036 1.293-1.813 2.365-2.11 2.81-.74 8.06.703 10.906 19.759 1.664 11.1 1.7 18.352 1.11 23.051-.444 3.774-5.029 5.365-7.801 2.775-3.512-3.367-8.835-7.77-15.896-11.914-1.96-1.184-2.736-3.7-1.849-5.846M121.608 102.317c.152 2.853-.22 5.598-.93 8.185-3.118 15.339-13.893 28.566-28.276 35.643-7.156 2.098-14.844 3.242-22.852 3.242-8.874 0-17.356-1.404-25.156-3.955-13.306-7.23-22.956-20.09-25.971-34.932-.712-2.585-1.083-5.329-.93-8.18l.115-1.357c.596-5.329 3.07-10.99 8.586-16.65 22.662-23.255 43.364 6.923 43.364 6.923s20.74-30.178 43.364-6.923c5.507 5.66 7.977 11.321 8.57 16.65l.116 1.354z" transform="translate(-27 -526) translate(28 527) translate(.926 20.584)"/>
                    <path fill="#5C2C0A" d="M50.157 77.339c0 4.125-3.34 7.469-7.462 7.469-4.12 0-7.462-3.344-7.462-7.469s3.341-7.469 7.462-7.469c4.122 0 7.462 3.344 7.462 7.469M103.866 77.339c0 4.125-3.34 7.469-7.462 7.469-4.12 0-7.462-3.344-7.462-7.469s3.341-7.469 7.462-7.469c4.122 0 7.462 3.344 7.462 7.469" transform="translate(-27 -526) translate(28 527) translate(.926 20.584)"/>
                    <path fill="#FAFAFA" d="M42.777 71.013c.72 0 1.302.584 1.302 1.303 0 .72-.583 1.302-1.302 1.302-.718 0-1.301-.583-1.301-1.302 0-.72.583-1.303 1.301-1.303M96.198 71.013c.719 0 1.302.584 1.302 1.303 0 .72-.583 1.302-1.302 1.302-.718 0-1.301-.583-1.301-1.302 0-.72.583-1.303 1.301-1.303" transform="translate(-27 -526) translate(28 527) translate(.926 20.584)"/>
                    <path fill="#FBF9F5" d="M43.937 59.274c1.516-1.517 4.512-.978 6.692 1.204 2.18 2.182 2.718 5.18 1.202 6.697-1.516 1.518-4.512.979-6.692-1.203-2.18-2.182-2.718-5.18-1.202-6.698M89.389 60.477c2.18-2.182 5.176-2.72 6.692-1.204 1.516 1.518.977 4.516-1.203 6.698-2.18 2.182-5.176 2.72-6.691 1.204-1.516-1.517-.978-4.516 1.202-6.698" transform="translate(-27 -526) translate(28 527) translate(.926 20.584)"/>
                    <path fill="#5C2C0A" d="M94.3 111.361c-.74-.74-1.885-.74-2.625 0-6.47 6.475-16.414.63-19.815-1.702-.296-.222-.48-.555-.48-.925v-2.146c6.58-.777 11.608-5.735 11.608-11.73 0-6.548-6.026-11.84-13.457-11.84-7.43 0-13.456 5.292-13.456 11.84 0 5.995 5.064 10.953 11.608 11.73v2.146c0 .37-.185.703-.48.925-3.402 2.331-13.31 8.177-19.815 1.702-.703-.703-1.812-.74-2.551-.074-.777.703-.777 1.998 0 2.738 2.698 2.664 5.988 4.033 9.833 4.033 2.255 0 4.658-.48 7.209-1.406 2.957-1.11 5.471-2.59 7.024-3.663.37-.259.85-.259 1.22 0 1.59 1.036 4.103 2.553 7.024 3.663 2.55.925 4.954 1.406 7.209 1.406 3.844 0 7.171-1.369 9.87-4.07.813-.74.813-1.924.074-2.627" transform="translate(-27 -526) translate(28 527) translate(.926 20.584)"/>
                </g>
                <g>
                    <path fill="url(#5jgk30rq4a)" d="M128.05 33.863l-31.987 6.073v18.201l31.988 6.073c5.174.608 9.719-3.439 9.719-8.652V42.516c0-4.865-3.957-8.713-8.69-8.714-.34 0-.682.02-1.03.06" transform="translate(-27 -526) translate(28 527) translate(0 .231)"/>
                    <path fill="url(#suuef1py5b)" d="M128.397 36.598L98.84 42.386v13.302l29.557 5.787c.236.028.475.042.71.042 3.274 0 5.937-2.674 5.937-5.96V42.517c0-3.286-2.663-5.96-5.938-5.96-.234 0-.473.014-.709.042" transform="translate(-27 -526) translate(28 527) translate(0 .231)"/>
                    <path fill="url(#t0laqjmpkc)" d="M0 42.516v13.042c0 5.213 4.545 9.26 9.719 8.652l31.988-6.073v-18.2L9.72 33.862c-.347-.04-.69-.06-1.03-.06C3.957 33.802 0 37.65 0 42.515" transform="translate(-27 -526) translate(28 527) translate(0 .231)"/>
                    <path fill="url(#0j0hzrqymd)" d="M56.138 0c-6.344 0-11.687 4.748-12.44 11.053l-3.062 25.69c6.894-6.678 17.01-10.895 28.288-10.895 11.243 0 21.332 4.192 28.224 10.834l-3.055-25.629C93.341 4.748 87.998 0 81.653 0H56.138z" transform="translate(-27 -526) translate(28 527) translate(0 .231)"/>
                    <path fill="url(#suuef1py5b)" d="M2.768 42.516v13.042c0 3.285 2.664 5.959 5.938 5.959.234 0 .473-.014.708-.042l29.558-5.787V42.386L9.414 36.598c-.235-.028-.474-.042-.708-.042-3.274 0-5.938 2.674-5.938 5.96" transform="translate(-27 -526) translate(28 527) translate(0 .231)"/>
                    <path fill="url(#sc5qzziare)" d="M31.418 55.35c-.089.067-.18.133-.266.201-.928.73-1.578 1.753-1.828 2.906l-1.127 5.181c-.178.824.594 1.534 1.399 1.286.65-.2 1.48-.443 2.47-.71 6.216-1.678 18.989-4.379 36.858-4.379 17.87 0 30.642 2.7 36.859 4.38.99.266 1.818.509 2.47.709.804.248 1.577-.462 1.398-1.286l-1.126-5.18c-.251-1.154-.901-2.178-1.829-2.907-.086-.068-.177-.134-.265-.2-11.18-8.468-37.507-8.848-37.507-8.848s-26.327.38-37.506 8.847" transform="translate(-27 -526) translate(28 527) translate(0 .231)"/>
                    <path fill="url(#az2z08r0gf)" d="M31.418 55.35c11.18-8.467 37.506-8.847 37.506-8.847s26.327.38 37.507 8.847c-1.476-16.502-17.705-29.502-37.507-29.502s-36.03 13-37.506 29.502" transform="translate(-27 -526) translate(28 527) translate(0 .231)"/>
                    <path fill="url(#mpf8oj3pdg)" d="M68.912 57.832c2.958 0 5.356-1.714 5.356-3.828 0-2.113-2.398-3.827-5.356-3.827-2.958 0-5.356 1.714-5.356 3.827 0 2.114 2.398 3.828 5.356 3.828z" transform="translate(-27 -526) translate(28 527) translate(0 .231)"/>
                </g>
                <path stroke="#000" stroke-linejoin="round" stroke-width="2" d="M81.653.231c6.345 0 11.688 4.748 12.44 11.054h0l3.056 25.626c.858.826 1.666 1.691 2.421 2.59l4.843-.92 6.561-15.196c.3-.666.779-1.212 1.384-1.611l.206-.128c2.649-1.443 9.21-3.027 14.237 12.683l1.25-.235c.347-.04.69-.06 1.03-.06h0l.257.004c4.617.137 8.432 3.933 8.432 8.71h0v13.041l-.004.26c-.108 3.725-2.539 6.815-5.83 7.968.667 8.04.575 14.098.11 18.68-.037.26.037.481.148.703 4.88 7.733 7.652 16.725 7.652 26.64 0 .27-.009.536-.013.805.005.287.013.574.013.863 0 17.751-9.454 33.646-24.362 44.332-2.972 2.13-6.16 4.053-9.534 5.742-8.833 4.424-18.933 7.248-29.735 7.992l-.146.01c-.255.017-.51.033-.767.048l-.186.01c-.23.013-.462.025-.694.036l-.273.012c-.21.01-.42.018-.632.026l-.317.01-.579.018-.32.007c-.607.013-1.215.02-1.825.02-.294 0-.588-.002-.88-.005l.88.005c-.401 0-.8-.003-1.2-.009l-.61-.01-.298-.008c-.2-.004-.4-.01-.6-.017l-.32-.01-.546-.022-.378-.017-.584-.03-.262-.015c-.25-.014-.498-.029-.746-.045l-.133-.01c-10.973-.746-21.223-3.638-30.157-8.174-3.587-1.82-6.96-3.909-10.083-6.228-14.382-10.675-23.454-26.28-23.454-43.668 0-.281.008-.56.012-.84-.003-.264-.012-.526-.012-.79 0-8.215 1.885-15.8 5.286-22.534.148-.333.148-.703-.037-1.036-.406-.74-.665-1.554-.776-2.479-.583-4.72-.749-11.216-.008-20.108C2.338 62.668 0 59.529 0 55.789h0V42.747c0-4.864 3.957-8.713 8.69-8.713h0l.34.006c.228.01.458.027.689.054h0l.949.178c4.996-15.634 11.563-14.03 14.207-12.589.703.37 1.257 1 1.59 1.74h0l6.562 15.096 5.24.996c.74-.882 1.53-1.73 2.369-2.543l3.063-25.687C44.45 4.979 49.794.23 56.139.23h0z" transform="translate(-27 -526) translate(28 527)"/>
            </g>
        </g>
    </g>
</svg>
