<svg xmlns="http://www.w3.org/2000/svg" width="162" height="130" viewBox="0 0 162 130">
    <g fill="none" fill-rule="evenodd">
        <g>
            <g>
                <path fill="#F1B162" d="M136.97 79.703c0 26.621-25.523 48.202-57.008 48.202-31.485 0-57.008-21.58-57.008-48.202S48.477 31.5 79.962 31.5c31.485 0 57.008 21.58 57.008 48.203" transform="translate(-12 -163) translate(13 164)"/>
                <path fill="#FBF9F5" d="M122.736 88.962c.125 2.36-.18 4.632-.765 6.773-2.563 12.69-11.422 23.633-23.246 29.488-5.883 1.736-12.204 2.682-18.788 2.682-7.296 0-14.27-1.162-20.682-3.272-10.94-5.981-18.873-16.621-21.352-28.9-.585-2.139-.89-4.41-.765-6.768l.095-1.123c.49-4.408 2.524-9.092 7.06-13.775 18.63-19.24 35.65 5.728 35.65 5.728s17.051-24.967 35.652-5.728c4.528 4.683 6.558 9.367 7.047 13.775l.094 1.12z" transform="translate(-12 -163) translate(13 164)"/>
                <path fill="#5C2C0A" d="M63.993 68.298c0 3.412-2.747 6.178-6.135 6.178s-6.134-2.766-6.134-6.178c0-3.413 2.746-6.18 6.134-6.18 3.388 0 6.135 2.767 6.135 6.18M108.15 68.298c0 3.412-2.746 6.178-6.135 6.178-3.388 0-6.135-2.766-6.135-6.178 0-3.413 2.747-6.18 6.135-6.18 3.389 0 6.135 2.767 6.135 6.18" transform="translate(-12 -163) translate(13 164)"/>
                <path fill="#FAFAFA" d="M57.926 63.064c.59 0 1.07.483 1.07 1.078 0 .595-.48 1.077-1.07 1.077-.59 0-1.07-.482-1.07-1.077s.48-1.078 1.07-1.078M101.846 63.064c.59 0 1.07.483 1.07 1.078 0 .595-.48 1.077-1.07 1.077-.591 0-1.07-.482-1.07-1.077s.479-1.078 1.07-1.078" transform="translate(-12 -163) translate(13 164)"/>
                <path fill="#FBF9F5" d="M58.88 53.352c1.245-1.255 3.709-.81 5.5.995 1.793 1.806 2.236 4.287.99 5.542-1.247 1.255-3.71.81-5.502-.996-1.793-1.805-2.235-4.286-.989-5.541M96.248 54.347c1.792-1.805 4.255-2.25 5.501-.996 1.247 1.255.804 3.737-.988 5.542-1.793 1.805-4.256 2.25-5.502.995-1.246-1.255-.804-3.736.989-5.541" transform="translate(-12 -163) translate(13 164)"/>
                <path fill="#5C2C0A" d="M100.285 96.445c-.608-.612-1.55-.612-2.158 0-5.319 5.357-13.494.52-16.29-1.408-.244-.184-.396-.46-.396-.765V92.496c5.41-.643 9.544-4.745 9.544-9.704 0-5.418-4.954-9.795-11.063-9.795-6.11 0-11.064 4.377-11.064 9.795 0 4.96 4.164 9.061 9.544 9.704V94.272c0 .306-.152.581-.395.765-2.796 1.928-10.942 6.765-16.291 1.408-.578-.582-1.49-.612-2.097-.061-.638.581-.638 1.653 0 2.265 2.219 2.204 4.924 3.337 8.084 3.337 1.854 0 3.83-.398 5.927-1.163 2.432-.919 4.498-2.143 5.775-3.031.304-.214.699-.214 1.003 0 1.307.857 3.374 2.112 5.775 3.03 2.097.766 4.072 1.164 5.926 1.164 3.161 0 5.897-1.133 8.115-3.367.669-.613.669-1.592.061-2.174" transform="translate(-12 -163) translate(13 164)"/>
                <path fill="#FFF9E8" d="M7.246 24.54c-1.27-.123-2.501-.328-3.672-.631C2.1 23.527.591 24.4.37 25.79-.698 32.517-.993 49.21 22.136 50.08l3.184-6.97C10.588 41.122 7.448 31.647 7.246 24.54" transform="translate(-12 -163) translate(13 164)"/>
                <path fill="#BE0301" d="M7.246 24.54c.202 7.107 3.342 16.582 18.074 18.57l11.107-24.314S19.88 25.759 7.246 24.539" transform="translate(-12 -163) translate(13 164)"/>
                <path fill="#FFF9E8" d="M152.673 24.54c1.27-.123 2.501-.328 3.672-.631 1.476-.382 2.983.491 3.204 1.881 1.069 6.727 1.363 23.42-21.766 24.29l-3.184-6.97c14.733-1.988 17.872-11.463 18.074-18.57" transform="translate(-12 -163) translate(13 164)"/>
                <path fill="#BE0301" d="M152.673 24.54c-.202 7.107-3.341 16.582-18.074 18.57l-11.106-24.314s16.546 6.963 29.18 5.743" transform="translate(-12 -163) translate(13 164)"/>
                <path fill="#E3322A" d="M42.429 87.137c-1.71-.04-3.291.377-4.532 1.105-1.034-.485-2.246-.779-3.55-.81-.982-.023-1.922.105-2.779.356-1.26-1.13-3.135-1.87-5.249-1.92-3.887-.093-7.104 2.18-7.186 5.077-.082 2.897 3.003 5.32 6.89 5.412.983.023 1.923-.106 2.78-.356 1.259 1.13 3.134 1.87 5.249 1.92 1.71.04 3.291-.377 4.532-1.104 1.034.485 2.246.778 3.549.81 3.887.091 7.105-2.182 7.186-5.079.082-2.896-3.003-5.32-6.89-5.411M117.316 87.137c1.71-.04 3.291.377 4.532 1.105 1.034-.485 2.246-.779 3.55-.81.982-.023 1.922.105 2.779.356 1.26-1.13 3.135-1.87 5.249-1.92 3.887-.093 7.104 2.18 7.186 5.077.082 2.897-3.003 5.32-6.89 5.412-.983.023-1.923-.106-2.78-.356-1.259 1.13-3.134 1.87-5.249 1.92-1.71.04-3.291-.377-4.532-1.104-1.034.485-2.246.778-3.549.81-3.887.091-7.105-2.182-7.186-5.079-.082-2.896 3.003-5.32 6.89-5.411" transform="translate(-12 -163) translate(13 164)"/>
                <path fill="#BE0301" d="M140.816 78.666c1.77-5.342 2.462-11.379 2.462-17.25 0-32.04-28.347-58.012-63.316-58.012-34.968 0-63.316 25.972-63.316 58.011 0 6.008.614 11.802 2.464 17.251h121.706z" transform="translate(-12 -163) translate(13 164)"/>
                <path fill="#E3322A" d="M108.764 7.957c-1.563-.7-3.227.738-2.58 2.217 2.195 5.008 3.304 13.297-8.81 19.144-18.46 8.91-12.928 30.504-12.928 30.504L95.15 74.678l33.936 9.518 13.926-12.973S154.39 28.42 108.764 7.957M51.526 7.957c1.563-.7 3.227.738 2.58 2.217-2.195 5.008-3.304 13.297 8.81 19.144 18.46 8.91 12.928 30.504 12.928 30.504L65.14 74.678l-33.936 9.518-13.926-12.973S5.901 28.42 51.526 7.957" transform="translate(-12 -163) translate(13 164)"/>
                <path fill="#FFF9E8" d="M142.565 71.223s-5.843 6.23-24.215 6.23c-10.621 0-25.86-9.318-31.708-12.47-4.172-2.25-9.356-2.25-13.528 0-5.847 3.152-21.086 12.47-31.708 12.47-18.372 0-24.127-6.23-24.127-6.23s-7.628 13.953 4.237 20.223c21.467 11.345 58.446-9.269 58.446-9.269s36.979 20.614 58.446 9.27c11.865-6.271 4.157-20.224 4.157-20.224" transform="translate(-12 -163) translate(13 164)"/>
                <path fill="#C82E3C" d="M75.874 61.82c0 1.103-.976 1.998-2.181 1.998s-2.182-.895-2.182-1.999c0-1.103.977-1.998 2.182-1.998s2.181.895 2.181 1.998M88.38 61.82c0 1.103-.976 1.998-2.181 1.998s-2.181-.895-2.181-1.999c0-1.103.976-1.998 2.181-1.998s2.181.895 2.181 1.998" transform="translate(-12 -163) translate(13 164)"/>
                <path fill="#FD0000" d="M75.844 67.815c0 4.415-3.907 7.995-8.725 7.995-4.82 0-8.726-3.58-8.726-7.995s3.907-7.994 8.726-7.994c4.818 0 8.725 3.58 8.725 7.994" transform="translate(-12 -163) translate(13 164)"/>
                <path fill="#FF9C28" d="M73.405 65.84c0 3.323-2.94 6.017-6.568 6.017-3.628 0-6.569-2.694-6.569-6.018s2.941-6.018 6.569-6.018 6.568 2.694 6.568 6.018" transform="translate(-12 -163) translate(13 164)"/>
                <path fill="#FD0000" d="M101.499 67.815c0 4.415-3.907 7.995-8.726 7.995-4.819 0-8.725-3.58-8.725-7.995s3.906-7.994 8.725-7.994c4.82 0 8.726 3.58 8.726 7.994" transform="translate(-12 -163) translate(13 164)"/>
                <path fill="#FF9C28" d="M99.624 65.84c0 3.323-2.941 6.017-6.569 6.017s-6.569-2.694-6.569-6.018 2.941-6.018 6.569-6.018 6.569 2.694 6.569 6.018" transform="translate(-12 -163) translate(13 164)"/>
                <path fill="#FF3F40" d="M70.117 62.455c0 1.454-1.287 2.633-2.874 2.633-1.588 0-2.874-1.179-2.874-2.633 0-1.455 1.286-2.634 2.874-2.634 1.587 0 2.874 1.179 2.874 2.634M95.523 62.455c0 1.454-1.287 2.633-2.874 2.633-1.588 0-2.875-1.179-2.875-2.633 0-1.455 1.287-2.634 2.875-2.634 1.587 0 2.874 1.179 2.874 2.634" transform="translate(-12 -163) translate(13 164)"/>
                <path fill="#3B9130" d="M80.117 20.626c-2.549 2.534-8.393 1.258-8.275-1.806-4.257 1.036-7.875-2.327-5.124-4.761-4.338-.858-4.348-5.023-.013-5.898-2.763-2.423.84-5.8 5.1-4.78-.131-3.065 5.707-4.363 8.268-1.84 2.55-2.533 8.394-1.257 8.276 1.807 4.257-1.036 7.875 2.327 5.123 4.761 4.339.858 4.348 5.023.014 5.898 2.763 2.423-.84 5.8-5.101 4.78.132 3.064-5.707 4.363-8.268 1.839" transform="translate(-12 -163) translate(13 164)"/>
                <path fill="#F6F7EE" d="M91.318 11.333c0 3.762-5.072 6.812-11.328 6.812-6.256 0-11.328-3.05-11.328-6.812 0-3.763 5.072-6.813 11.328-6.813 6.256 0 11.328 3.05 11.328 6.813" transform="translate(-12 -163) translate(13 164)"/>
                <path fill="#E73B2E" d="M88.35 11.026c.214 1.405-.748 2.744-2.226 3.077-1.287.29-3.24.53-6.179.53s-4.892-.24-6.178-.53c-1.479-.332-2.44-1.672-2.226-3.076.755-4.94 4.23-7.623 8.404-7.623 4.174 0 7.65 2.684 8.405 7.622" transform="translate(-12 -163) translate(13 164)"/>
                <path fill="#FFF9E8" d="M40.591 33.755l-6.904-4.038c-2.75-1.61-6.408-.878-8.164 1.643-4.84 6.945-14.338 23.058-1.395 33.728 13.005 10.722 26.555 5.262 33.035.647 1.727-1.23 1.9-3.56.367-4.989l-.236-.218-16.703-26.773zM119.813 33.755l6.904-4.038c2.75-1.61 6.408-.878 8.165 1.643 4.84 6.945 14.338 23.058 1.395 33.728-13.006 10.722-26.555 5.262-33.036.647-1.727-1.23-1.9-3.56-.366-4.989l.235-.218 16.703-26.773z" transform="translate(-12 -163) translate(13 164)"/>
                <path fill="#BE0301" d="M57.21 51.794s-11.016.346-8.87-13.866c0 0-5.815.303-7.749-4.173-6.738 2.113-11.585 7.962-11.585 14.851 0 8.67 7.67 15.698 17.133 15.698 4.259 0 8.152-1.428 11.15-3.785-1.276-1.74-2.748-4.978-.079-8.725" transform="translate(-12 -163) translate(13 164)"/>
                <path fill="#240009" d="M57.21 51.794s-10.98.343-8.88-13.8c-.054 0-.107-.003-.16-.003-7.707 0-13.954 5.724-13.954 12.785 0 7.06 6.247 12.783 13.953 12.783 3.472 0 6.645-1.164 9.086-3.085-1.267-1.752-2.69-4.966-.045-8.68" transform="translate(-12 -163) translate(13 164)"/>
                <path fill="#E3322A" d="M57.21 51.794s-7.499.234-8.917-7.667c-4.754.879-8.334 4.727-8.334 9.342 0 5.265 4.658 9.532 10.403 9.532 2.674 0 5.112-.925 6.955-2.443-1.282-1.732-2.795-4.99-.107-8.764" transform="translate(-12 -163) translate(13 164)"/>
                <path fill="#240009" d="M57.21 51.794s-4.397.136-7.094-3.347c-3.371.772-5.87 3.564-5.87 6.892 0 3.923 3.472 7.104 7.755 7.104 2.047 0 3.908-.728 5.293-1.915-1.276-1.739-2.757-4.981-.084-8.734" transform="translate(-12 -163) translate(13 164)"/>
                <path fill="#BE0301" d="M103.08 51.794s11.016.346 8.87-13.866c0 0 5.815.303 7.749-4.173 6.738 2.113 11.585 7.962 11.585 14.851 0 8.67-7.67 15.698-17.133 15.698-4.259 0-8.152-1.428-11.15-3.785 1.276-1.74 2.748-4.978.079-8.725" transform="translate(-12 -163) translate(13 164)"/>
                <path fill="#240009" d="M103.08 51.794s10.98.343 8.88-13.8c.054 0 .107-.003.16-.003 7.707 0 13.954 5.724 13.954 12.785 0 7.06-6.247 12.783-13.953 12.783-3.472 0-6.644-1.164-9.086-3.085 1.267-1.752 2.69-4.966.045-8.68" transform="translate(-12 -163) translate(13 164)"/>
                <path fill="#E3322A" d="M103.08 51.794s7.498.234 8.917-7.667c4.754.879 8.334 4.727 8.334 9.342 0 5.265-4.658 9.532-10.404 9.532-2.673 0-5.11-.925-6.954-2.443 1.282-1.732 2.795-4.99.107-8.764" transform="translate(-12 -163) translate(13 164)"/>
                <path fill="#240009" d="M103.08 51.794s4.397.136 7.094-3.347c3.371.772 5.87 3.564 5.87 6.892 0 3.923-3.472 7.104-7.755 7.104-2.047 0-3.908-.728-5.293-1.915 1.276-1.739 2.757-4.981.084-8.734" transform="translate(-12 -163) translate(13 164)"/>
                <path fill="#FBF9F5" d="M53.929 57.788c0 1.49-1.319 2.698-2.945 2.698s-2.945-1.208-2.945-2.698 1.319-2.698 2.945-2.698 2.945 1.208 2.945 2.698M111.869 57.966c0 1.392-1.232 2.52-2.752 2.52-1.52 0-2.751-1.128-2.751-2.52 0-1.392 1.232-2.52 2.751-2.52 1.52 0 2.752 1.128 2.752 2.52" transform="translate(-12 -163) translate(13 164)"/>
                <path fill="#FFF9E8" d="M57.289 60.52c-1.276-1.741-2.748-4.98-.079-8.726 0 0-11.016.346-8.87-13.866 0 0-5.815.303-7.749-4.173 0 0-.657-1.162-.215-3.062.696-2.994 4.231-4.64 7.316-3.463 4.242 1.618 10.31 5.61 12.987 15.414 4.33 15.86-3.39 17.875-3.39 17.875M103.03 60.52c1.276-1.741 2.748-4.98.079-8.726 0 0 11.016.346 8.87-13.866 0 0 5.815.303 7.749-4.173 0 0 .657-1.162.215-3.062-.696-2.994-4.231-4.64-7.316-3.463-4.243 1.618-10.31 5.61-12.987 15.414-4.33 15.86 3.39 17.875 3.39 17.875" transform="translate(-12 -163) translate(13 164)"/>
                <path fill="#FDF8EF" d="M82.06 4.97c0 .419-.926.759-2.069.759-1.143 0-2.07-.34-2.07-.759s.927-.758 2.07-.758c1.143 0 2.07.34 2.07.758" transform="translate(-12 -163) translate(13 164)"/>
                <path stroke="#000" stroke-linejoin="round" d="M88.35 3.348c2.386-.58 4.571.221 5.546 1.467 4.318.887 8.469 2.18 12.403 3.83.465-.725 1.485-1.128 2.465-.688 7.996 3.586 14.242 7.859 19.105 12.467 5.764 1.977 16.193 4.947 24.804 4.115 1.27-.122 2.501-.327 3.672-.63 1.476-.382 2.983.491 3.204 1.881.973 6.127 1.304 20.522-16.121 23.698 2.115 12.21-.417 21.735-.417 21.735h0l-.3.28c.933 1.856 5.796 12.5-2.21 18.614.065.268.103.545.111.828.082 2.897-3.003 5.32-6.89 5.412h-.247c-7.724 17.74-27.434 30.578-50.827 31.496l-.277.009c-.2.008-.401.014-.602.02-.087 0-.173.003-.26.005-.514.012-1.03.018-1.547.018h-.025 0c-1.24 0-2.47-.033-3.69-.1l-.114-.007c-.572-.03-1.14-.07-1.706-.116l-.155-.014c-.254-.02-.508-.042-.76-.066-.039-.006-.077-.01-.115-.013-4.932-.475-9.673-1.485-14.142-2.956l-.03-.016c-15.15-5.005-27.147-15.331-32.777-28.261l-.058.002h0l-.367-.001c-3.887-.092-6.972-2.515-6.89-5.412.009-.323.057-.638.14-.943-8.577-6.738-1.994-18.779-1.994-18.779l.054.056-.002-.007-.052-.049s-2.523-9.491-.429-21.672C-.939 46.508-.61 31.959.37 25.791c.22-1.39 1.729-2.264 3.204-1.882 1.17.303 2.402.508 3.672.63h0l.38.035c8.837.735 19.467-2.413 25.013-4.352 4.828-4.531 11.008-8.731 18.887-12.265.926-.415 1.888-.079 2.383.572 3.951-1.638 8.12-2.915 12.455-3.784 1.014-1.178 3.131-1.917 5.442-1.365-.132-3.064 5.706-4.362 8.267-1.838 2.55-2.534 8.394-1.258 8.276 1.806z" transform="translate(-12 -163) translate(13 164)"/>
            </g>
        </g>
    </g>
</svg>
