<svg xmlns="http://www.w3.org/2000/svg" width="153" height="122" viewBox="0 0 153 122">
    <g fill="none" fill-rule="evenodd">
        <g>
            <g>
                <path fill="#F1B162" d="M128.41 74.721c0 24.958-23.929 45.19-53.446 45.19S21.52 99.68 21.52 74.721s23.928-45.19 53.445-45.19 53.445 20.232 53.445 45.19" transform="translate(-206 -71) translate(208 72)"/>
                <path fill="#FBF9F5" d="M115.065 83.402c.118 2.213-.169 4.343-.717 6.35-2.403 11.896-10.708 22.155-21.793 27.645-5.516 1.627-11.442 2.514-17.614 2.514-6.84 0-13.378-1.089-19.39-3.068-10.255-5.607-17.693-15.582-20.017-27.093-.549-2.005-.835-4.134-.717-6.345l.089-1.053c.459-4.133 2.366-8.524 6.618-12.914 17.466-18.037 33.423 5.37 33.423 5.37s15.985-23.407 33.423-5.37c4.245 4.39 6.149 8.781 6.606 12.914l.09 1.05z" transform="translate(-206 -71) translate(208 72)"/>
                <path fill="#5C2C0A" d="M59.994 64.029c0 3.2-2.575 5.793-5.752 5.793-3.176 0-5.751-2.594-5.751-5.793 0-3.2 2.575-5.793 5.751-5.793 3.177 0 5.752 2.594 5.752 5.793M101.39 64.029c0 3.2-2.574 5.793-5.75 5.793-3.177 0-5.752-2.594-5.752-5.793 0-3.2 2.575-5.793 5.751-5.793 3.177 0 5.752 2.594 5.752 5.793" transform="translate(-206 -71) translate(208 72)"/>
                <path fill="#FAFAFA" d="M54.305 59.123c.554 0 1.004.452 1.004 1.01s-.45 1.01-1.004 1.01-1.003-.452-1.003-1.01.45-1.01 1.003-1.01M95.48 59.123c.554 0 1.003.452 1.003 1.01s-.449 1.01-1.003 1.01c-.554 0-1.003-.452-1.003-1.01s.45-1.01 1.003-1.01" transform="translate(-206 -71) translate(208 72)"/>
                <path fill="#FBF9F5" d="M55.2 50.017c1.168-1.176 3.477-.759 5.157.934 1.68 1.692 2.095 4.018.927 5.195-1.169 1.177-3.478.759-5.158-.934-1.68-1.692-2.095-4.018-.927-5.195M90.232 50.95c1.68-1.692 3.99-2.11 5.158-.933 1.168 1.176.753 3.502-.927 5.195-1.68 1.692-3.99 2.11-5.158.933-1.168-1.177-.753-3.502.927-5.195" transform="translate(-206 -71) translate(208 72)"/>
                <path fill="#5C2C0A" d="M94.017 90.417c-.57-.574-1.453-.574-2.023 0-4.986 5.023-12.651.488-15.272-1.32-.228-.172-.37-.43-.37-.717v-1.665c5.071-.603 8.946-4.448 8.946-9.097 0-5.08-4.644-9.184-10.372-9.184-5.727 0-10.371 4.104-10.371 9.184 0 4.649 3.903 8.494 8.947 9.097v1.665c0 .287-.143.545-.37.717-2.622 1.808-10.258 6.343-15.273 1.32-.542-.545-1.396-.574-1.966-.057-.599.545-.599 1.55 0 2.124 2.08 2.066 4.616 3.128 7.579 3.128 1.738 0 3.59-.373 5.556-1.09 2.28-.862 4.217-2.01 5.414-2.842.285-.201.655-.201.94 0 1.226.804 3.163 1.98 5.414 2.841 1.966.718 3.818 1.09 5.556 1.09 2.964 0 5.528-1.061 7.608-3.156.627-.574.627-1.492.057-2.038" transform="translate(-206 -71) translate(208 72)"/>
                <path fill="#FFE715" d="M6.793 23.006c-1.19-.115-2.345-.307-3.442-.591-1.383-.358-2.797.46-3.004 1.763C-.655 30.485-.931 46.134 20.753 46.95l2.984-6.534C9.926 38.552 6.982 29.669 6.793 23.006" transform="translate(-206 -71) translate(208 72)"/>
                <path fill="#E3322A" d="M6.793 23.006c.19 6.663 3.133 15.546 16.944 17.41L34.15 17.621S18.638 24.15 6.793 23.006" transform="translate(-206 -71) translate(208 72)"/>
                <path fill="#FFE715" d="M143.131 23.006c1.191-.115 2.345-.307 3.442-.591 1.384-.358 2.798.46 3.004 1.763 1.002 6.307 1.278 21.956-20.405 22.772l-2.985-6.534c13.812-1.864 16.755-10.747 16.944-17.41" transform="translate(-206 -71) translate(208 72)"/>
                <path fill="#E3322A" d="M143.131 23.006c-.19 6.663-3.132 15.546-16.944 17.41l-10.413-22.795s15.513 6.528 27.357 5.385M39.777 81.69c-1.604-.037-3.085.355-4.249 1.037-.969-.455-2.105-.73-3.327-.76-.921-.021-1.802.1-2.606.334-1.18-1.06-2.939-1.753-4.92-1.8-3.645-.087-6.661 2.045-6.738 4.76-.077 2.716 2.815 4.987 6.46 5.073.921.022 1.802-.098 2.606-.333 1.18 1.06 2.938 1.753 4.92 1.8 1.604.038 3.086-.353 4.25-1.035.969.454 2.105.73 3.327.758 3.644.087 6.66-2.045 6.737-4.76.077-2.715-2.816-4.987-6.46-5.073M109.984 81.69c1.604-.037 3.085.355 4.249 1.037.969-.455 2.105-.73 3.327-.76.921-.021 1.802.1 2.606.334 1.18-1.06 2.939-1.753 4.92-1.8 3.645-.087 6.661 2.045 6.738 4.76.077 2.716-2.815 4.987-6.46 5.073-.921.022-1.802-.098-2.606-.333-1.18 1.06-2.938 1.753-4.92 1.8-1.604.038-3.086-.353-4.25-1.035-.969.454-2.105.73-3.327.758-3.644.087-6.66-2.045-6.737-4.76-.077-2.715 2.815-4.987 6.46-5.073" transform="translate(-206 -71) translate(208 72)"/>
                <path fill="#FF9C28" d="M132.015 73.75c1.66-5.009 2.308-10.668 2.308-16.173 0-30.036-26.576-54.386-59.358-54.386-32.783 0-59.36 24.35-59.36 54.386 0 5.632.576 11.064 2.31 16.173h114.1z" transform="translate(-206 -71) translate(208 72)"/>
                <path fill="#FC7801" d="M101.966 7.46c-1.465-.657-3.025.692-2.418 2.078 2.057 4.695 3.097 12.466-8.26 17.948-17.306 8.353-12.12 28.597-12.12 28.597L89.202 70.01l31.815 8.923 13.056-12.162s10.667-40.13-32.107-59.313M48.306 7.46c1.464-.657 3.025.692 2.418 2.078-2.057 4.695-3.097 12.466 8.26 17.948 17.306 8.353 12.12 28.597 12.12 28.597L61.069 70.01l-31.815 8.923L16.2 66.772S5.532 26.642 48.306 7.459" transform="translate(-206 -71) translate(208 72)"/>
                <path fill="#FFF9E8" d="M133.654 66.772s-5.477 5.84-22.7 5.84c-9.959 0-24.245-8.735-29.727-11.69-3.911-2.109-8.771-2.109-12.682 0-5.482 2.955-19.769 11.69-29.727 11.69-17.224 0-22.619-5.84-22.619-5.84s-7.151 13.08 3.972 18.959c20.125 10.635 54.794-8.69 54.794-8.69s34.667 19.325 54.792 8.69c11.124-5.879 3.897-18.959 3.897-18.959" transform="translate(-206 -71) translate(208 72)"/>
                <path fill="#C82E3C" d="M71.132 57.956c0 1.035-.916 1.874-2.045 1.874-1.13 0-2.045-.84-2.045-1.874 0-1.035.916-1.874 2.045-1.874 1.13 0 2.045.839 2.045 1.874M82.857 57.956c0 1.035-.916 1.874-2.045 1.874-1.13 0-2.046-.84-2.046-1.874 0-1.035.916-1.874 2.046-1.874s2.045.839 2.045 1.874" transform="translate(-206 -71) translate(208 72)"/>
                <path fill="#FD0000" d="M71.104 63.577c0 4.14-3.663 7.495-8.18 7.495-4.518 0-8.18-3.356-8.18-7.495 0-4.14 3.662-7.495 8.18-7.495 4.517 0 8.18 3.356 8.18 7.495" transform="translate(-206 -71) translate(208 72)"/>
                <path fill="#FF9C28" d="M68.818 61.724c0 3.116-2.758 5.642-6.159 5.642-3.4 0-6.158-2.526-6.158-5.642 0-3.116 2.758-5.642 6.158-5.642 3.401 0 6.159 2.526 6.159 5.642" transform="translate(-206 -71) translate(208 72)"/>
                <path fill="#FD0000" d="M95.155 63.577c0 4.14-3.662 7.495-8.18 7.495s-8.18-3.356-8.18-7.495c0-4.14 3.662-7.495 8.18-7.495s8.18 3.356 8.18 7.495" transform="translate(-206 -71) translate(208 72)"/>
                <path fill="#FF9C28" d="M93.397 61.724c0 3.116-2.757 5.642-6.158 5.642-3.401 0-6.158-2.526-6.158-5.642 0-3.116 2.757-5.642 6.158-5.642 3.401 0 6.158 2.526 6.158 5.642" transform="translate(-206 -71) translate(208 72)"/>
                <path fill="#FF3F40" d="M65.735 58.551c0 1.364-1.206 2.47-2.695 2.47-1.488 0-2.694-1.106-2.694-2.47s1.206-2.469 2.694-2.469c1.489 0 2.695 1.105 2.695 2.47M89.553 58.551c0 1.364-1.206 2.47-2.695 2.47-1.488 0-2.694-1.106-2.694-2.47s1.206-2.469 2.694-2.469c1.489 0 2.695 1.105 2.695 2.47" transform="translate(-206 -71) translate(208 72)"/>
                <path fill="#3B9130" d="M75.11 19.337c-2.39 2.375-7.87 1.18-7.759-1.694-3.99.971-7.382-2.18-4.802-4.463-4.068-.804-4.077-4.709-.013-5.529-2.59-2.272.787-5.438 4.782-4.482-.124-2.872 5.35-4.09 7.75-1.724 2.39-2.375 7.87-1.179 7.76 1.694 3.99-.971 7.382 2.181 4.802 4.463 4.067.805 4.076 4.71.013 5.53 2.59 2.271-.787 5.437-4.782 4.481.124 2.873-5.35 4.09-7.751 1.724" transform="translate(-206 -71) translate(208 72)"/>
                <path fill="#F6F7EE" d="M85.61 10.624c0 3.527-4.754 6.387-10.62 6.387-5.865 0-10.62-2.86-10.62-6.387 0-3.527 4.755-6.386 10.62-6.386 5.866 0 10.62 2.86 10.62 6.386" transform="translate(-206 -71) translate(208 72)"/>
                <path fill="#E73B2E" d="M82.828 10.337c.201 1.317-.7 2.573-2.086 2.885-1.207.272-3.038.497-5.793.497-2.756 0-4.586-.225-5.793-.497-1.386-.312-2.287-1.568-2.086-2.884.707-4.63 3.966-7.147 7.879-7.147 3.913 0 7.171 2.516 7.879 7.146" transform="translate(-206 -71) translate(208 72)"/>
                <path fill="#7D4F2A" d="M38.054 31.646l-6.472-3.787c-2.579-1.508-6.008-.822-7.655 1.54-4.537 6.512-13.441 21.618-1.307 31.621 12.192 10.052 24.895 4.933 30.97.607 1.62-1.153 1.782-3.338.344-4.677l-.22-.205-15.66-25.1zM112.325 31.646l6.472-3.787c2.579-1.508 6.008-.822 7.655 1.54 4.537 6.512 13.441 21.618 1.307 31.621-12.192 10.052-24.895 4.933-30.97.607-1.62-1.153-1.782-3.338-.344-4.677l.22-.205 15.66-25.1z" transform="translate(-206 -71) translate(208 72)"/>
                <path fill="#BE0301" d="M53.635 48.557s-10.328.324-8.317-13c0 0-5.45.285-7.264-3.911-6.317 1.98-10.861 7.464-10.861 13.923 0 8.127 7.191 14.716 16.062 14.716 3.993 0 7.643-1.338 10.453-3.548-1.196-1.632-2.576-4.667-.073-8.18" transform="translate(-206 -71) translate(208 72)"/>
                <path fill="#E3322A" d="M53.635 48.557s-10.294.322-8.325-12.937c-.051 0-.1-.003-.151-.003-7.225 0-13.081 5.366-13.081 11.985 0 6.62 5.856 11.985 13.08 11.985 3.255 0 6.23-1.091 8.519-2.893-1.189-1.642-2.523-4.655-.042-8.137" transform="translate(-206 -71) translate(208 72)"/>
                <path fill="#FC7801" d="M53.635 48.557s-7.03.22-8.36-7.188c-4.457.824-7.813 4.432-7.813 8.759 0 4.935 4.366 8.936 9.753 8.936 2.507 0 4.792-.867 6.52-2.291-1.202-1.623-2.62-4.678-.1-8.216" transform="translate(-206 -71) translate(208 72)"/>
                <path fill="#240009" d="M53.635 48.557s-4.123.128-6.651-3.138c-3.16.723-5.503 3.341-5.503 6.461 0 3.679 3.255 6.66 7.27 6.66 1.919 0 3.663-.682 4.963-1.795-1.197-1.63-2.586-4.67-.08-8.188" transform="translate(-206 -71) translate(208 72)"/>
                <path fill="#BE0301" d="M96.637 48.557s10.328.324 8.317-13c0 0 5.45.285 7.264-3.911 6.317 1.98 10.86 7.464 10.86 13.923 0 8.127-7.19 14.716-16.061 14.716-3.993 0-7.643-1.338-10.453-3.548 1.196-1.632 2.575-4.667.073-8.18" transform="translate(-206 -71) translate(208 72)"/>
                <path fill="#E3322A" d="M96.637 48.557s10.294.322 8.325-12.937c.05 0 .1-.003.151-.003 7.225 0 13.081 5.366 13.081 11.985 0 6.62-5.856 11.985-13.08 11.985-3.255 0-6.23-1.091-8.519-2.893 1.188-1.642 2.523-4.655.042-8.137" transform="translate(-206 -71) translate(208 72)"/>
                <path fill="#FC7801" d="M96.637 48.557s7.03.22 8.36-7.188c4.457.824 7.813 4.432 7.813 8.759 0 4.935-4.366 8.936-9.753 8.936-2.507 0-4.792-.867-6.52-2.291 1.202-1.623 2.62-4.678.1-8.216" transform="translate(-206 -71) translate(208 72)"/>
                <path fill="#240009" d="M96.637 48.557s4.123.128 6.651-3.138c3.16.723 5.503 3.341 5.503 6.461 0 3.679-3.255 6.66-7.27 6.66-1.92 0-3.663-.682-4.963-1.795 1.197-1.63 2.585-4.67.08-8.188" transform="translate(-206 -71) translate(208 72)"/>
                <path fill="#FBF9F5" d="M50.559 54.176c0 1.397-1.237 2.53-2.761 2.53-1.525 0-2.761-1.133-2.761-2.53 0-1.397 1.236-2.53 2.76-2.53 1.525 0 2.762 1.133 2.762 2.53M104.877 54.343c0 1.305-1.155 2.363-2.58 2.363-1.424 0-2.579-1.058-2.579-2.363s1.155-2.363 2.58-2.363c1.424 0 2.579 1.058 2.579 2.363" transform="translate(-206 -71) translate(208 72)"/>
                <path fill="#FFF9E8" d="M53.708 56.737c-1.196-1.632-2.576-4.667-.073-8.18 0 0-10.328.324-8.317-13 0 0-5.45.285-7.264-3.911 0 0-.616-1.09-.202-2.871.653-2.807 3.967-4.35 6.859-3.247 3.978 1.517 9.666 5.26 12.176 14.451 4.06 14.868-3.179 16.758-3.179 16.758M96.591 56.737c1.196-1.632 2.576-4.667.073-8.18 0 0 10.328.324 8.317-13 0 0 5.45.285 7.264-3.911 0 0 .616-1.09.202-2.871-.653-2.807-3.967-4.35-6.859-3.247-3.978 1.517-9.666 5.26-12.176 14.451-4.06 14.868 3.179 16.758 3.179 16.758" transform="translate(-206 -71) translate(208 72)"/>
                <path fill="#FDF8EF" d="M76.932 4.66c0 .392-.869.71-1.94.71-1.072 0-1.94-.318-1.94-.71 0-.393.868-.712 1.94-.712 1.071 0 1.94.319 1.94.711" transform="translate(-206 -71) translate(208 72)"/>
                <path stroke="#000" stroke-linejoin="round" stroke-width="2" d="M82.827 3.139c2.237-.544 4.286.207 5.2 1.374 4.048.832 7.94 2.044 11.629 3.592.434-.68 1.391-1.058 2.31-.646 7.497 3.363 13.353 7.369 17.911 11.69 5.405 1.852 15.182 4.636 23.254 3.857 1.191-.115 2.345-.307 3.442-.591 1.384-.358 2.798.46 3.004 1.763.913 5.744 1.223 19.239-15.112 22.217 1.981 11.448-.392 20.377-.392 20.377h0l-.283.261c.875 1.736 5.437 11.719-2.07 17.452.06.251.096.51.104.776.077 2.716-2.815 4.987-6.46 5.073l-.23.001c-7.518 17.264-27.143 29.576-50.17 29.576h-.023 0l-.661-.005h-.2l-.308-.006c-.185-.003-.37-.007-.554-.012l-.212-.007c-.225-.006-.45-.014-.675-.023-.02-.002-.041-.002-.062-.003-5.872-.245-11.493-1.292-16.717-3.012l-.029-.015c-14.202-4.691-25.45-14.372-30.728-26.493h-.398c-3.645-.087-6.537-2.358-6.46-5.074.009-.303.054-.598.132-.884-7.262-5.705-2.932-15.464-2.025-17.302l.059-.118c.061-.121.096-.185.096-.185l.002.002.013.014.035.035-.001-.004-.049-.047s-2.365-8.898-.402-20.317C-.88 43.6-.571 29.96.347 24.178c.207-1.303 1.62-2.121 3.004-1.763 1.097.284 2.251.476 3.442.59h0l.367.034c8.284.685 18.244-2.264 23.44-4.08 4.526-4.25 10.32-8.187 17.706-11.5.868-.389 1.77-.073 2.234.537 3.704-1.536 7.613-2.733 11.677-3.548.95-1.104 2.935-1.797 5.1-1.279h.001c-.124-2.872 5.35-4.09 7.75-1.724 2.39-2.375 7.87-1.179 7.76 1.694z" transform="translate(-206 -71) translate(208 72)"/>
            </g>
        </g>
    </g>
</svg>
