<svg xmlns="http://www.w3.org/2000/svg" width="142" height="171" viewBox="0 0 142 171">
    <defs>
        <linearGradient id="redtrp17fa" x1="50%" x2="50%" y1="0%" y2="100%">
            <stop offset="0%" stop-color="#FFE54F"/>
            <stop offset="100%" stop-color="#FFC727"/>
        </linearGradient>
        <linearGradient id="iep1shgdmb" x1="50%" x2="50%" y1="0%" y2="100%">
            <stop offset="0%" stop-color="#FFF584"/>
            <stop offset="100%" stop-color="#E9AA14"/>
        </linearGradient>
        <linearGradient id="m0gc4hk5ic" x1="50%" x2="50%" y1="0%" y2="100%">
            <stop offset="0%" stop-color="#FFE54F"/>
            <stop offset="100%" stop-color="#FFC727"/>
        </linearGradient>
        <linearGradient id="za39pfgtud" x1="50%" x2="50%" y1="0%" y2="100%">
            <stop offset="0%" stop-color="#FFF584"/>
            <stop offset="100%" stop-color="#E9AA14"/>
        </linearGradient>
        <linearGradient id="fpauxawsue" x1="50%" x2="50%" y1="0%" y2="100%">
            <stop offset="0%" stop-color="#FFE54F"/>
            <stop offset="100%" stop-color="#FFC727"/>
        </linearGradient>
        <linearGradient id="uey1ruiqzf" x1="50%" x2="50%" y1="0%" y2="100%">
            <stop offset="0%" stop-color="#FFF584"/>
            <stop offset="100%" stop-color="#E9AA14"/>
        </linearGradient>
        <linearGradient id="bzxrybpxqg" x1="50%" x2="50%" y1="0%" y2="100%">
            <stop offset="0%" stop-color="#FFF4B5"/>
            <stop offset="100%" stop-color="#FFC727"/>
        </linearGradient>
    </defs>
    <g fill="none" fill-rule="evenodd">
        <g>
            <g>
                <g>
                    <path fill="#F1B162" d="M139.898 89.526c0-9.923-2.796-18.922-7.717-26.66-.111-.223-.186-.445-.149-.704.709-6.925.56-17.219-1.789-32.623-4.92-32.327-14.5-30.29-17.855-28.476-.709.408-1.267 1-1.603 1.74l-14.24 32.735c-.329.751-1.093 1.184-1.883 1.097-7.685-2.42-16.012-3.748-24.713-3.748-9.445 0-18.451 1.564-26.67 4.393-.237.074-.475.145-.71.22-.894.296-1.9-.148-2.273-1.037L25.57 2.841c-.335-.74-.894-1.37-1.602-1.74C20.614-.715 10.997-2.789 6.15 29.575 3.69 45.943 3.653 56.607 4.51 63.495c.111.926.372 1.74.782 2.48.187.334.187.704.037 1.038C1.901 73.752 0 81.343 0 89.563c0 .265.01.527.013.79-.005.281-.013.56-.013.842 0 17.401 9.148 33.019 23.649 43.703 3.15 2.32 6.55 4.41 10.167 6.232 10.546 5.314 22.91 8.373 36.133 8.373 13.071 0 25.303-2.992 35.77-8.194 3.402-1.691 6.617-3.615 9.614-5.748 15.031-10.694 24.565-26.6 24.565-44.366 0-.289-.008-.576-.014-.864.005-.268.014-.535.014-.805" transform="translate(-207 -619) translate(208 619) translate(0 20.036)"/>
                    <path fill="#FBF9F5" d="M35.247 34.982L23.989 9.247c-.447-1.037-1.304-1.815-2.386-2.11-2.832-.741-8.126.703-10.996 19.773C8.93 38.019 8.892 45.276 9.49 49.98c.447 3.776 5.07 5.368 7.865 2.776 3.541-3.37 8.909-7.776 16.029-11.923 1.975-1.185 2.758-3.703 1.864-5.85M101.3 34.982l11.257-25.735c.448-1.037 1.305-1.815 2.386-2.11 2.833-.741 8.127.703 10.997 19.773 1.677 11.109 1.714 18.366 1.118 23.07-.447 3.776-5.07 5.368-7.865 2.776-3.542-3.37-8.91-7.776-16.03-11.923-1.975-1.185-2.758-3.703-1.863-5.85M122.44 102.397c.154 2.855-.22 5.602-.938 8.191-3.143 15.35-14.008 28.588-28.51 35.671-7.216 2.1-14.968 3.244-23.043 3.244-8.948 0-17.5-1.405-25.365-3.958-13.418-7.235-23.148-20.105-26.189-34.958-.717-2.588-1.092-5.334-.938-8.187l.117-1.359c.6-5.332 3.096-10.998 8.658-16.663 22.85-23.272 43.725 6.93 43.725 6.93s20.912-30.202 43.725-6.93c5.553 5.665 8.043 11.331 8.642 16.663l.116 1.356z" transform="translate(-207 -619) translate(208 619) translate(0 20.036)"/>
                    <path fill="#5C2C0A" d="M50.395 77.4c0 4.127-3.369 7.474-7.524 7.474-4.156 0-7.525-3.347-7.525-7.475s3.369-7.474 7.525-7.474c4.155 0 7.524 3.346 7.524 7.474M104.551 77.4c0 4.127-3.368 7.474-7.524 7.474-4.155 0-7.524-3.347-7.524-7.475s3.369-7.474 7.524-7.474c4.156 0 7.524 3.346 7.524 7.474" transform="translate(-207 -619) translate(208 619) translate(0 20.036)"/>
                    <path fill="#FAFAFA" d="M42.953 71.069c.725 0 1.312.583 1.312 1.303s-.587 1.304-1.312 1.304c-.724 0-1.312-.584-1.312-1.304 0-.72.588-1.303 1.312-1.303M96.82 71.069c.724 0 1.311.583 1.311 1.303s-.587 1.304-1.312 1.304c-.724 0-1.312-.584-1.312-1.304 0-.72.588-1.303 1.312-1.303" transform="translate(-207 -619) translate(208 619) translate(0 20.036)"/>
                    <path fill="#FBF9F5" d="M44.122 59.32c1.529-1.518 4.55-.979 6.748 1.205 2.198 2.183 2.74 5.184 1.212 6.703-1.528 1.518-4.55.979-6.747-1.205-2.198-2.183-2.741-5.184-1.213-6.703M89.953 60.524c2.198-2.183 5.22-2.723 6.748-1.204 1.528 1.518.986 4.52-1.213 6.703-2.198 2.183-5.219 2.722-6.747 1.204-1.529-1.518-.986-4.52 1.212-6.703" transform="translate(-207 -619) translate(208 619) translate(0 20.036)"/>
                    <path fill="#5C2C0A" d="M94.905 111.448c-.745-.74-1.901-.74-2.646 0-6.524 6.48-16.551.63-19.98-1.704-.299-.222-.485-.555-.485-.925v-2.148c6.635-.778 11.704-5.74 11.704-11.738 0-6.555-6.076-11.85-13.568-11.85s-13.569 5.295-13.569 11.85c0 5.998 5.107 10.96 11.705 11.738v2.148c0 .37-.186.703-.485.925-3.429 2.333-13.419 8.184-19.98 1.704-.708-.704-1.826-.74-2.571-.074-.783.703-.783 2 0 2.74 2.72 2.666 6.038 4.036 9.915 4.036 2.274 0 4.697-.481 7.27-1.407 2.981-1.11 5.516-2.592 7.081-3.666.373-.26.858-.26 1.23 0 1.603 1.037 4.138 2.555 7.083 3.666 2.572.926 4.995 1.407 7.269 1.407 3.877 0 7.231-1.37 9.953-4.073.82-.74.82-1.926.074-2.63" transform="translate(-207 -619) translate(208 619) translate(0 20.036)"/>
                </g>
                <g>
                    <path fill="url(#redtrp17fa)" d="M34.836 45.527C16.924 45.527 2.17 36.543.22 32.679c1.248 4.185 7.979 24.173 23.572 27.678h23.617c15.676-3.563 21.25-24.15 22.135-27.87-1.537 3.748-16.488 13.04-34.707 13.04" transform="translate(-207 -619) translate(208 619) translate(32.542 .568)"/>
                    <path fill="url(#iep1shgdmb)" d="M34.836 33.747C15.597 33.747 0 28.657 0 31.911c0 3.252 15.597 13.616 34.836 13.616 19.24 0 34.837-10.364 34.837-13.616 0-.788-.914-1.087-2.575-1.087-5.194 0-17.683 2.923-32.262 2.923" transform="translate(-207 -619) translate(208 619) translate(32.542 .568)"/>
                    <path fill="url(#m0gc4hk5ic)" d="M34.883 29.233c-12.794 0-23.334-6.416-24.727-9.177.892 2.99 5.7 17.267 16.838 19.77h16.869c11.197-2.544 15.178-17.25 15.81-19.907-1.097 2.678-11.777 9.314-24.79 9.314" transform="translate(-207 -619) translate(208 619) translate(32.542 .568)"/>
                    <path fill="url(#za39pfgtud)" d="M34.883 20.82C21.141 20.82 10 17.183 10 19.507c0 2.323 11.14 9.725 24.883 9.725 13.743 0 24.883-7.402 24.883-9.725 0-.563-.652-.776-1.839-.776-3.71 0-12.63 2.087-23.044 2.087" transform="translate(-207 -619) translate(208 619) translate(32.542 .568)"/>
                    <path fill="url(#fpauxawsue)" d="M34.907 14.587c-10.236 0-18.668-5.134-19.782-7.342.713 2.391 4.56 13.813 13.47 15.816H42.09c8.958-2.036 12.143-13.8 12.649-15.926-.878 2.142-9.422 7.452-19.832 7.452" transform="translate(-207 -619) translate(208 619) translate(32.542 .568)"/>
                    <path fill="url(#uey1ruiqzf)" d="M34.907 7.855C23.913 7.855 15 4.947 15 6.806s8.913 7.78 19.907 7.78 19.906-5.921 19.906-7.78c0-.45-.522-.62-1.471-.62-2.968 0-10.105 1.67-18.435 1.67" transform="translate(-207 -619) translate(208 619) translate(32.542 .568)"/>
                    <path fill="url(#bzxrybpxqg)" d="M25.526 8.622c0 3.136 4.375 4.207 9.771 4.207 5.397 0 9.772-1.07 9.772-4.207C45.069 5.486 40.694 0 35.297 0c-5.396 0-9.771 5.486-9.771 8.622" transform="translate(-207 -619) translate(208 619) translate(32.542 .568)"/>
                </g>
                <path stroke="#000" stroke-linejoin="round" d="M67.84.568l.283.005c4.514.16 8.262 4.115 9.24 7.181 3.818-.464 6.839-1 8.521-1h0l.184.002c.832.021 1.287.198 1.287.618h0l-.004.073c-.012.108-.052.228-.117.359l.005-.01h0l.042-.093-.025.103c-.428 1.76-2.304 8.48-6.824 12.67 4.482-.562 8.026-1.176 10.037-1.176h0l.204.002c1.057.024 1.635.244 1.635.774h0l-.003.077c-.025.251-.168.555-.418.897.148-.202.258-.39.329-.563h0l-.026.105c-.416 1.717-1.98 7.401-5.45 12.3 5.73-.744 10.259-1.5 12.9-1.5h0l.222.002c1.52.026 2.353.333 2.353 1.085h0l-.005.1c-.012.135-.05.282-.11.439l-.015.037-.028.116c-.718 2.973-3.987 14.833-11.94 22.217 1.538.385 3.054.813 4.545 1.283.79.087 1.554-.346 1.883-1.098h0l14.24-32.734c.336-.74.894-1.333 1.603-1.74 3.355-1.814 12.935-3.851 17.855 28.475 2.348 15.405 2.498 25.699 1.79 32.623-.038.26.037.482.148.704 4.921 7.74 7.717 16.737 7.717 26.661 0 .27-.01.536-.014.805.006.288.014.575.014.864 0 17.765-9.534 33.672-24.565 44.366-2.997 2.132-6.212 4.056-9.614 5.747-9.159 4.553-19.669 7.413-30.91 8.056l-.155.009c-.271.015-.543.029-.816.041l-.094.004c-.276.013-.553.024-.83.034l-.12.003c-.247.009-.495.016-.743.022l-.26.006c-.204.005-.41.008-.615.011l-.34.004c-.296.004-.591.005-.887.005-.61 0-1.219-.006-1.825-.02l-.3-.007c-.218-.005-.436-.011-.653-.018l-.164-.006c-.28-.01-.56-.02-.838-.033l-.061-.003c-.258-.011-.515-.024-.771-.038l-.217-.012c-11.402-.648-22.053-3.575-31.304-8.236-3.617-1.823-7.017-3.912-10.167-6.233C9.148 144.25 0 128.632 0 111.231c0-.281.008-.561.013-.841-.004-.264-.013-.527-.013-.79 0-8.221 1.901-15.812 5.33-22.552.15-.333.15-.703-.037-1.036-.41-.741-.67-1.556-.782-2.482-.858-6.887-.82-17.551 1.64-33.918 4.846-32.364 14.463-30.29 17.818-28.476.708.37 1.267 1 1.602 1.74h0L40.296 56.5c.372.889 1.379 1.333 2.274 1.037.234-.076.472-.147.708-.22 1.167-.402 2.349-.778 3.546-1.127-8.926-7.235-13.106-19.734-14.063-22.942h0l-.053-.11c-.11-.242-.166-.463-.166-.658h0l.005-.095c.198-1.967 6.675-.603 16.343.62-3.767-4.894-5.664-10.612-6.192-12.38h0l.012.023c-.11-.213-.168-.405-.168-.571h0l.004-.075c.163-1.467 5.265-.317 12.753.582-4.823-4.174-7.1-10.986-7.632-12.77h0l.007.013c-.087-.169-.132-.32-.132-.452h0l.005-.069c.156-1.194 4.474-.185 10.742.54.95-3.143 4.866-7.277 9.55-7.277h0z" transform="translate(-207 -619) translate(208 619)"/>
            </g>
        </g>
    </g>
</svg>
