<svg xmlns="http://www.w3.org/2000/svg" width="162" height="130" viewBox="0 0 162 130">
    <g fill="none" fill-rule="evenodd">
        <g>
            <g>
                <path fill="#F1B162" d="M136.97 79.702c0 26.622-25.523 48.203-57.008 48.203-31.485 0-57.008-21.58-57.008-48.203 0-26.621 25.523-48.202 57.008-48.202 31.485 0 57.008 21.58 57.008 48.202" transform="translate(-202 -163) translate(203 164)"/>
                <path fill="#FBF9F5" d="M122.736 88.962c.126 2.36-.18 4.632-.765 6.772-2.563 12.69-11.422 23.634-23.246 29.49-5.883 1.735-12.204 2.681-18.788 2.681-7.296 0-14.27-1.162-20.682-3.272-10.94-5.982-18.873-16.621-21.353-28.9-.584-2.139-.89-4.409-.764-6.768l.095-1.123c.49-4.408 2.524-9.092 7.059-13.775 18.631-19.24 35.651 5.728 35.651 5.728s17.051-24.967 35.652-5.728c4.528 4.683 6.558 9.367 7.046 13.775l.095 1.12z" transform="translate(-202 -163) translate(203 164)"/>
                <path fill="#5C2C0A" d="M63.993 68.298c0 3.412-2.746 6.178-6.135 6.178-3.388 0-6.134-2.766-6.134-6.178 0-3.413 2.746-6.18 6.134-6.18 3.389 0 6.135 2.767 6.135 6.18M108.15 68.298c0 3.412-2.746 6.178-6.135 6.178-3.388 0-6.135-2.766-6.135-6.178 0-3.413 2.747-6.18 6.135-6.18 3.389 0 6.135 2.767 6.135 6.18" transform="translate(-202 -163) translate(203 164)"/>
                <path fill="#FAFAFA" d="M57.926 63.064c.59 0 1.07.483 1.07 1.078 0 .595-.48 1.077-1.07 1.077-.591 0-1.07-.482-1.07-1.077s.479-1.078 1.07-1.078M101.846 63.064c.59 0 1.07.483 1.07 1.078 0 .595-.48 1.077-1.07 1.077-.591 0-1.07-.482-1.07-1.077s.479-1.078 1.07-1.078" transform="translate(-202 -163) translate(203 164)"/>
                <path fill="#FBF9F5" d="M58.88 53.352c1.245-1.255 3.709-.81 5.5.996 1.793 1.805 2.236 4.286.99 5.54-1.247 1.256-3.71.81-5.502-.995-1.792-1.805-2.235-4.286-.989-5.541M96.248 54.347c1.792-1.805 4.255-2.251 5.501-.996 1.247 1.255.804 3.736-.988 5.542-1.792 1.805-4.256 2.25-5.502.995-1.246-1.255-.804-3.736.989-5.541" transform="translate(-202 -163) translate(203 164)"/>
                <path fill="#5C2C0A" d="M100.285 96.445c-.608-.612-1.55-.612-2.158 0-5.319 5.357-13.495.52-16.29-1.408-.244-.184-.396-.46-.396-.765v-1.776c5.41-.643 9.544-4.745 9.544-9.704 0-5.418-4.954-9.796-11.063-9.796-6.11 0-11.064 4.378-11.064 9.796 0 4.96 4.164 9.061 9.544 9.704v1.776c0 .306-.152.581-.395.765-2.796 1.928-10.942 6.765-16.291 1.408-.578-.582-1.49-.612-2.097-.061-.638.581-.638 1.653 0 2.265 2.219 2.204 4.923 3.337 8.084 3.337 1.854 0 3.83-.398 5.927-1.163 2.432-.919 4.498-2.143 5.775-3.031.304-.214.699-.214 1.003 0 1.307.857 3.373 2.112 5.775 3.03 2.097.766 4.072 1.164 5.926 1.164 3.161 0 5.897-1.133 8.115-3.368.669-.612.669-1.591.061-2.173" transform="translate(-202 -163) translate(203 164)"/>
                <path fill="#FFE715" d="M7.246 24.54c-1.27-.123-2.501-.328-3.672-.63C2.1 23.526.591 24.4.37 25.79-.698 32.517-.993 49.21 22.136 50.08l3.184-6.97C10.588 41.122 7.448 31.647 7.246 24.54" transform="translate(-202 -163) translate(203 164)"/>
                <path fill="#E3322A" d="M7.246 24.54c.202 7.107 3.342 16.582 18.074 18.57l11.107-24.314S19.88 25.759 7.246 24.539" transform="translate(-202 -163) translate(203 164)"/>
                <path fill="#FFE715" d="M152.673 24.54c1.27-.123 2.501-.328 3.672-.63 1.476-.383 2.984.49 3.204 1.88 1.068 6.727 1.363 23.42-21.766 24.29l-3.184-6.97c14.733-1.988 17.872-11.463 18.074-18.57" transform="translate(-202 -163) translate(203 164)"/>
                <path fill="#E3322A" d="M152.673 24.54c-.202 7.107-3.341 16.582-18.074 18.57l-11.106-24.314s16.546 6.963 29.18 5.743M42.429 87.137c-1.71-.04-3.291.377-4.532 1.105-1.034-.485-2.246-.78-3.55-.81-.982-.023-1.922.105-2.779.356-1.26-1.13-3.134-1.87-5.249-1.92-3.887-.093-7.104 2.18-7.186 5.077-.082 2.897 3.003 5.32 6.89 5.412.983.023 1.923-.106 2.78-.356 1.259 1.13 3.135 1.87 5.249 1.92 1.71.041 3.291-.377 4.532-1.104 1.034.484 2.246.778 3.549.81 3.887.091 7.105-2.182 7.186-5.079.082-2.896-3.003-5.32-6.89-5.411M117.316 87.137c1.71-.04 3.291.377 4.532 1.105 1.034-.485 2.246-.78 3.55-.81.982-.023 1.922.105 2.779.356 1.26-1.13 3.135-1.87 5.249-1.92 3.887-.093 7.104 2.18 7.186 5.077.082 2.897-3.003 5.32-6.89 5.412-.983.023-1.923-.106-2.78-.356-1.259 1.13-3.135 1.87-5.249 1.92-1.71.041-3.291-.377-4.532-1.104-1.034.484-2.246.778-3.549.81-3.887.091-7.105-2.182-7.186-5.079-.082-2.896 3.003-5.32 6.89-5.411" transform="translate(-202 -163) translate(203 164)"/>
                <path fill="#FF9C28" d="M140.816 78.666c1.77-5.342 2.462-11.379 2.462-17.25 0-32.04-28.347-58.012-63.316-58.012-34.968 0-63.316 25.973-63.316 58.011 0 6.007.614 11.802 2.464 17.251h121.706z" transform="translate(-202 -163) translate(203 164)"/>
                <path fill="#FC7801" d="M108.764 7.957c-1.563-.7-3.227.738-2.58 2.217 2.195 5.008 3.304 13.297-8.81 19.144-18.46 8.91-12.928 30.504-12.928 30.504L95.15 74.678l33.936 9.518 13.926-12.973s11.378-42.804-34.247-63.266M51.526 7.957c1.562-.7 3.227.738 2.58 2.217-2.195 5.008-3.304 13.297 8.81 19.144 18.46 8.91 12.928 30.504 12.928 30.504L65.14 74.678l-33.936 9.518-13.926-12.973S5.901 28.42 51.526 7.957" transform="translate(-202 -163) translate(203 164)"/>
                <path fill="#FFF9E8" d="M142.565 71.223s-5.842 6.23-24.215 6.23c-10.621 0-25.86-9.318-31.708-12.47-4.172-2.25-9.356-2.25-13.528 0-5.847 3.152-21.086 12.47-31.708 12.47-18.372 0-24.127-6.23-24.127-6.23s-7.628 13.953 4.237 20.223c21.467 11.345 58.446-9.269 58.446-9.269s36.979 20.614 58.446 9.27c11.865-6.271 4.157-20.224 4.157-20.224" transform="translate(-202 -163) translate(203 164)"/>
                <path fill="#C82E3C" d="M75.874 61.82c0 1.103-.976 1.998-2.181 1.998s-2.182-.895-2.182-1.998c0-1.104.977-2 2.182-2s2.181.896 2.181 2M88.38 61.82c0 1.103-.976 1.998-2.181 1.998s-2.181-.895-2.181-1.998c0-1.104.976-2 2.181-2s2.181.896 2.181 2" transform="translate(-202 -163) translate(203 164)"/>
                <path fill="#FD0000" d="M75.844 67.815c0 4.416-3.907 7.995-8.725 7.995-4.82 0-8.726-3.58-8.726-7.995s3.907-7.994 8.726-7.994c4.818 0 8.725 3.58 8.725 7.994" transform="translate(-202 -163) translate(203 164)"/>
                <path fill="#FF9C28" d="M73.405 65.84c0 3.323-2.94 6.017-6.568 6.017-3.628 0-6.569-2.694-6.569-6.018s2.941-6.018 6.569-6.018c3.627 0 6.568 2.694 6.568 6.018" transform="translate(-202 -163) translate(203 164)"/>
                <path fill="#FD0000" d="M101.499 67.815c0 4.416-3.907 7.995-8.726 7.995-4.819 0-8.725-3.58-8.725-7.995s3.906-7.994 8.725-7.994c4.82 0 8.726 3.58 8.726 7.994" transform="translate(-202 -163) translate(203 164)"/>
                <path fill="#FF9C28" d="M99.623 65.84c0 3.323-2.94 6.017-6.568 6.017-3.628 0-6.569-2.694-6.569-6.018s2.941-6.018 6.569-6.018 6.568 2.694 6.568 6.018" transform="translate(-202 -163) translate(203 164)"/>
                <path fill="#FF3F40" d="M70.117 62.455c0 1.454-1.287 2.633-2.874 2.633-1.588 0-2.874-1.179-2.874-2.633 0-1.455 1.286-2.634 2.874-2.634 1.587 0 2.874 1.179 2.874 2.634M95.523 62.455c0 1.454-1.287 2.633-2.874 2.633-1.588 0-2.875-1.179-2.875-2.633 0-1.455 1.287-2.634 2.875-2.634 1.587 0 2.874 1.179 2.874 2.634" transform="translate(-202 -163) translate(203 164)"/>
                <path fill="#3B9130" d="M80.117 20.626c-2.549 2.534-8.393 1.258-8.276-1.806-4.256 1.035-7.874-2.327-5.123-4.761-4.338-.858-4.348-5.023-.013-5.898-2.763-2.424.84-5.8 5.1-4.78-.131-3.065 5.707-4.363 8.268-1.84 2.55-2.533 8.394-1.257 8.276 1.807 4.257-1.036 7.875 2.327 5.123 4.761 4.339.858 4.348 5.023.014 5.898 2.763 2.423-.84 5.8-5.101 4.78.132 3.064-5.707 4.363-8.268 1.839" transform="translate(-202 -163) translate(203 164)"/>
                <path fill="#F6F7EE" d="M91.318 11.333c0 3.762-5.072 6.812-11.328 6.812-6.256 0-11.328-3.05-11.328-6.812 0-3.763 5.072-6.813 11.328-6.813 6.256 0 11.328 3.05 11.328 6.813" transform="translate(-202 -163) translate(203 164)"/>
                <path fill="#E73B2E" d="M88.35 11.026c.214 1.405-.747 2.744-2.226 3.077-1.287.29-3.24.53-6.178.53-2.94 0-4.893-.24-6.18-.53-1.478-.332-2.44-1.672-2.225-3.076.755-4.94 4.23-7.623 8.405-7.623 4.173 0 7.649 2.684 8.404 7.622" transform="translate(-202 -163) translate(203 164)"/>
                <path fill="#7D4F2A" d="M40.591 33.755l-6.904-4.038c-2.75-1.61-6.408-.878-8.164 1.643-4.84 6.945-14.338 23.058-1.395 33.728 13.005 10.722 26.555 5.262 33.035.647 1.727-1.23 1.9-3.56.367-4.988l-.235-.22L40.59 33.756zM119.813 33.755l6.904-4.038c2.75-1.61 6.408-.878 8.165 1.643 4.84 6.945 14.338 23.058 1.395 33.728-13.006 10.722-26.555 5.262-33.036.647-1.726-1.23-1.9-3.56-.366-4.988l.235-.22 16.703-26.772z" transform="translate(-202 -163) translate(203 164)"/>
                <path fill="#BE0301" d="M57.21 51.794s-11.016.345-8.87-13.866c0 0-5.815.303-7.749-4.173-6.738 2.113-11.585 7.962-11.585 14.852 0 8.669 7.67 15.697 17.132 15.697 4.26 0 8.153-1.428 11.15-3.785-1.275-1.74-2.747-4.978-.078-8.725" transform="translate(-202 -163) translate(203 164)"/>
                <path fill="#E3322A" d="M57.21 51.794s-10.98.343-8.88-13.799c-.054 0-.107-.004-.16-.004-7.707 0-13.954 5.724-13.954 12.785 0 7.06 6.247 12.783 13.953 12.783 3.472 0 6.644-1.164 9.086-3.086-1.267-1.75-2.69-4.965-.045-8.679" transform="translate(-202 -163) translate(203 164)"/>
                <path fill="#FC7801" d="M57.21 51.794s-7.499.234-8.917-7.667c-4.754.879-8.334 4.727-8.334 9.342 0 5.265 4.658 9.532 10.403 9.532 2.674 0 5.112-.925 6.955-2.443-1.282-1.732-2.795-4.99-.107-8.764" transform="translate(-202 -163) translate(203 164)"/>
                <path fill="#240009" d="M57.21 51.794s-4.397.136-7.094-3.347c-3.371.772-5.87 3.564-5.87 6.892 0 3.924 3.472 7.104 7.755 7.104 2.047 0 3.908-.728 5.294-1.915-1.277-1.74-2.758-4.981-.085-8.734" transform="translate(-202 -163) translate(203 164)"/>
                <path fill="#BE0301" d="M103.08 51.794s11.016.345 8.87-13.866c0 0 5.815.303 7.749-4.173 6.738 2.113 11.585 7.962 11.585 14.852 0 8.669-7.67 15.697-17.133 15.697-4.26 0-8.153-1.428-11.15-3.785 1.276-1.74 2.748-4.978.079-8.725" transform="translate(-202 -163) translate(203 164)"/>
                <path fill="#E3322A" d="M103.08 51.794s10.98.343 8.88-13.799c.054 0 .107-.004.16-.004 7.707 0 13.954 5.724 13.954 12.785 0 7.06-6.247 12.783-13.953 12.783-3.472 0-6.645-1.164-9.086-3.086 1.267-1.75 2.69-4.965.045-8.679" transform="translate(-202 -163) translate(203 164)"/>
                <path fill="#FC7801" d="M103.08 51.794s7.499.234 8.917-7.667c4.754.879 8.334 4.727 8.334 9.342 0 5.265-4.658 9.532-10.403 9.532-2.674 0-5.112-.925-6.954-2.443 1.281-1.732 2.794-4.99.106-8.764" transform="translate(-202 -163) translate(203 164)"/>
                <path fill="#240009" d="M103.08 51.794s4.397.136 7.094-3.347c3.371.772 5.87 3.564 5.87 6.892 0 3.924-3.472 7.104-7.755 7.104-2.047 0-3.908-.728-5.294-1.915 1.277-1.74 2.758-4.981.085-8.734" transform="translate(-202 -163) translate(203 164)"/>
                <path fill="#FBF9F5" d="M53.93 57.788c0 1.49-1.32 2.698-2.946 2.698-1.627 0-2.945-1.208-2.945-2.698s1.318-2.698 2.945-2.698c1.626 0 2.945 1.208 2.945 2.698M111.869 57.966c0 1.392-1.232 2.52-2.752 2.52-1.52 0-2.75-1.128-2.75-2.52 0-1.393 1.23-2.521 2.75-2.521s2.752 1.128 2.752 2.52" transform="translate(-202 -163) translate(203 164)"/>
                <path fill="#FFF9E8" d="M57.288 60.52c-1.275-1.741-2.747-4.98-.078-8.726 0 0-11.016.345-8.87-13.866 0 0-5.815.303-7.749-4.173 0 0-.657-1.162-.215-3.062.696-2.994 4.231-4.64 7.316-3.464 4.243 1.62 10.31 5.61 12.987 15.415 4.33 15.86-3.39 17.875-3.39 17.875M103.03 60.52c1.276-1.741 2.748-4.98.079-8.726 0 0 11.016.345 8.87-13.866 0 0 5.815.303 7.749-4.173 0 0 .657-1.162.215-3.062-.696-2.994-4.231-4.64-7.316-3.464-4.243 1.62-10.31 5.61-12.987 15.415-4.33 15.86 3.39 17.875 3.39 17.875" transform="translate(-202 -163) translate(203 164)"/>
                <path fill="#FDF8EF" d="M82.06 4.97c0 .42-.926.758-2.069.758-1.143 0-2.07-.339-2.07-.758s.927-.758 2.07-.758c1.143 0 2.07.34 2.07.758" transform="translate(-202 -163) translate(203 164)"/>
                <path stroke="#000" stroke-linejoin="round" d="M88.35 3.348c2.386-.58 4.571.221 5.546 1.467 4.319.887 8.47 2.18 12.404 3.83.464-.725 1.484-1.128 2.464-.688 7.997 3.586 14.243 7.86 19.106 12.468 5.764 1.976 16.193 4.946 24.803 4.114 1.27-.122 2.501-.327 3.672-.63 1.476-.382 2.984.491 3.204 1.881.973 6.127 1.304 20.522-16.121 23.698 2.115 12.21-.417 21.735-.417 21.735h0l-.301.28c.933 1.852 5.798 12.5-2.21 18.614.066.268.104.545.112.828.082 2.897-3.003 5.32-6.89 5.412h-.247c-7.724 17.74-27.433 30.577-50.824 31.496-.098.002-.195.006-.292.01-.196.007-.393.013-.59.018l-.26.006c-.514.012-1.03.018-1.547.018h-.025 0l-.317-.002-.6-.004-.277-.005c-.837-.014-1.67-.044-2.497-.089l-.114-.007c-.57-.03-1.139-.07-1.705-.116l-.155-.014c-.254-.02-.508-.042-.76-.066-.039-.006-.077-.01-.115-.013-4.932-.475-9.673-1.485-14.142-2.956l-.033-.017c-15.149-5.005-27.145-15.331-32.774-28.26l-.058.002h0l-.367-.001c-3.887-.092-6.972-2.515-6.89-5.412.009-.323.057-.638.14-.943-8.577-6.738-1.994-18.779-1.994-18.779s.018.02.054.055l-.002-.004-.052-.05s-2.523-9.492-.429-21.673C-.939 46.508-.61 31.959.37 25.791c.22-1.39 1.729-2.264 3.204-1.882 1.17.303 2.402.508 3.672.63h0l.38.035c8.838.735 19.468-2.413 25.014-4.352 4.827-4.531 11.007-8.731 18.886-12.265.926-.415 1.888-.08 2.383.572 3.951-1.639 8.12-2.915 12.456-3.784.983-1.143 3.007-1.874 5.238-1.41l.203.045c-.132-3.064 5.706-4.362 8.267-1.838 2.55-2.534 8.394-1.258 8.276 1.806z" transform="translate(-202 -163) translate(203 164)"/>
            </g>
        </g>
    </g>
</svg>
