<svg xmlns="http://www.w3.org/2000/svg" width="152" height="140" viewBox="0 0 152 140">
    <g fill="none" fill-rule="evenodd">
        <g>
            <g>
                <path fill="#F1B162" d="M135.66 86.584c0 28.048-27.096 50.786-60.52 50.786-33.426 0-60.522-22.738-60.522-50.786 0-28.048 27.096-50.785 60.521-50.785s60.521 22.737 60.521 50.785" transform="translate(-17 -215) translate(18 216)"/>
                <path fill="#FDDF5F" d="M95.026 23.546l11.72-5.853c1.922-.96 3.052-3.005 2.842-5.142l-.953-9.697c-.2-2.05 2.094-3.392 3.782-2.21l6.928 6.262c5.56 3.892 10.2 12.802 8.63 19.405l-.509 2.14c-2.146 4.551-4.204 6.932-8.472 9.435l-12.504 7.331-11.464-21.671zM54.392 23.546l-11.72-5.853c-1.922-.96-3.052-3.005-2.842-5.142l.953-9.697C40.984.804 38.689-.538 37 .644l-6.928 6.262c-5.56 3.892-10.199 12.802-8.63 19.405l.509 2.14c2.145 4.551 4.204 6.932 8.472 9.435l12.504 7.331 11.464-21.671z" transform="translate(-17 -215) translate(18 216)"/>
                <path fill="#FBF9F5" d="M120.556 96.34c.133 2.487-.191 4.88-.812 7.135-2.72 13.37-12.12 24.9-24.668 31.07-6.243 1.828-12.95 2.825-19.937 2.825-7.742 0-15.142-1.224-21.946-3.448-11.61-6.302-20.028-17.512-22.659-30.448-.62-2.254-.944-4.646-.811-7.13l.1-1.184c.52-4.644 2.68-9.58 7.492-14.513 19.77-20.27 37.831 6.035 37.831 6.035s18.094-26.305 37.832-6.035c4.805 4.934 6.96 9.869 7.477 14.513l.1 1.18z" transform="translate(-17 -215) translate(18 216)"/>
                <path fill="#5C2C0A" d="M58.22 74.568c0 3.596-2.914 6.51-6.51 6.51-3.595 0-6.51-2.914-6.51-6.51 0-3.595 2.915-6.51 6.51-6.51 3.596 0 6.51 2.915 6.51 6.51M105.078 74.568c0 3.596-2.915 6.51-6.51 6.51-3.595 0-6.51-2.914-6.51-6.51 0-3.595 2.915-6.51 6.51-6.51 3.595 0 6.51 2.915 6.51 6.51" transform="translate(-17 -215) translate(18 216)"/>
                <path fill="#FAFAFA" d="M51.782 69.054c.627 0 1.135.509 1.135 1.136 0 .627-.508 1.135-1.135 1.135s-1.135-.508-1.135-1.135.508-1.136 1.135-1.136M98.388 69.054c.627 0 1.135.509 1.135 1.136 0 .627-.508 1.135-1.135 1.135s-1.135-.508-1.135-1.135.508-1.136 1.135-1.136" transform="translate(-17 -215) translate(18 216)"/>
                <path fill="#FBF9F5" d="M52.794 58.822c1.322-1.323 3.936-.853 5.838 1.049 1.902 1.902 2.371 4.515 1.049 5.838-1.323 1.322-3.936.853-5.838-1.05-1.902-1.901-2.372-4.515-1.05-5.837M92.448 59.87c1.901-1.902 4.515-2.371 5.838-1.05 1.322 1.323.853 3.937-1.05 5.84-1.901 1.901-4.515 2.37-5.837 1.048-1.323-1.322-.853-3.936 1.049-5.838" transform="translate(-17 -215) translate(18 216)"/>
                <path fill="#5C2C0A" d="M96.732 104.224c-.645-.645-1.645-.645-2.29 0-5.644 5.644-14.32.548-17.287-1.484-.258-.193-.42-.483-.42-.806v-1.871c5.742-.677 10.128-4.999 10.128-10.224 0-5.708-5.257-10.32-11.74-10.32-6.483 0-11.74 4.612-11.74 10.32 0 5.225 4.419 9.547 10.128 10.224v1.87c0 .324-.162.614-.42.807-2.967 2.032-11.61 7.128-17.287 1.484-.613-.613-1.58-.645-2.225-.064-.678.612-.678 1.741 0 2.386 2.354 2.322 5.224 3.515 8.579 3.515 1.967 0 4.064-.419 6.289-1.225 2.58-.968 4.773-2.258 6.128-3.193.322-.226.742-.226 1.064 0 1.387.903 3.58 2.225 6.128 3.193 2.225.806 4.322 1.225 6.29 1.225 3.353 0 6.256-1.193 8.61-3.547.71-.645.71-1.677.065-2.29" transform="translate(-17 -215) translate(18 216)"/>
                <path fill="#FBF9F5" d="M127.649 115.48c.447-3.588 6.445-3.85 7.438-8.298.728-3.26-2.187-4.502-2.289-8.583-.12-4.864 3.833-10.694 8.87-11.73 1.528-.314 3.068-.168 4.547.32.082-1.158.125-2.332.125-3.523 0-7.834-1.797-15.656-5.063-23.032-.891-.056-1.858-.009-2.906.203-4.822.972-6.944 4.492-9.003 3.448-1.962-.995-.3-4.323-2.682-7.471-2.853-3.772-8.148-2.846-8.62-5.364-.278-1.48 1.535-1.882 2.298-4.406 1.284-4.246-2.549-7.41-1.372-9.387.598-1.004 2.28-1.348 4.339-1.254-7.112-6.29-15.557-11.357-24.883-14.593.22.677.276 1.357-.036 1.91-.63 1.117-2.463 1.18-3 1.2-3.508.122-4.548-2.655-7.799-3-2.326-.247-2.496 1.1-6 1.92-5.483 1.283-11.514-.51-11.639-2.04-.058-.719 1.186-1.366 1.56-1.56 2.042-1.062 3.474.148 6-.36 1.382-.278 2.779-1.008 3.527-1.765-1.94-.162-3.904-.247-5.885-.247-18.613 0-35.556 7.357-48.238 18.608 3.116.602 6.062 1.415 9.723-.474 3.028-1.562 4.39-3.859 7.23-3.614 2.581.222 5.487 2.468 5.326 4.375-.32 3.776-12.346 2.332-15.98 9.322-2.276 4.378 1.245 7.248-1.332 11.604-3.408 5.764-12.61 5.877-14.267 5.897-2.164.027-6.3.076-9.235-1.381-2.84 6.911-4.392 14.182-4.392 21.461 0 5.022.74 9.758 2.13 14.18 4.22-.183 8.71.977 10.546 3.597 2.39 3.413.096 9.049 3.043 10.653 1.66.904 3.216-.43 4.756.761 1.603 1.24 2.051 4.335.951 6.088-.636 1.013-1.81 1.605-3.249 1.895 13.03 10.578 31.941 16.512 52.988 16.512-29.262 0-52.984-19.914-52.984-44.479 0-24.565 23.722-44.48 52.984-44.48 29.261 0 52.983 19.915 52.983 44.48 0 24.565-23.722 44.48-52.983 44.48 21.702 0 41.134-6.31 54.187-17.515-1.183-1.38-1.888-2.964-1.714-4.359" transform="translate(-17 -215) translate(18 216)"/>
                <path fill="#3A3A3A" d="M17.638 63.586c1.657-.02 10.859-.133 14.267-5.897 2.577-4.356-.944-7.226 1.332-11.604 3.634-6.99 15.66-5.546 15.98-9.322.161-1.907-2.745-4.153-5.327-4.375-2.838-.245-4.2 2.052-7.229 3.614-3.661 1.889-6.607 1.076-9.723.474-8.188 7.264-14.6 16.15-18.535 25.729 2.936 1.457 7.071 1.408 9.235 1.381M25.437 118.945c1.1-1.753.652-4.848-.95-6.088-1.541-1.192-3.097.143-4.757-.76-2.947-1.605-.653-7.24-3.044-10.654-1.835-2.62-6.325-3.78-10.546-3.597 2.852 9.074 8.45 16.824 16.048 22.994 1.44-.29 2.614-.882 3.25-1.895M77.534 19.88c-2.526.508-3.958-.702-6 .36-.374.194-1.618.841-1.56 1.56.125 1.53 6.156 3.323 11.64 2.04 3.503-.82 3.673-2.167 6-1.92 3.25.345 4.29 3.122 7.799 3 .537-.02 2.369-.083 3-1.2.31-.553.256-1.233.035-1.91-5.519-1.915-11.346-3.188-17.387-3.695-.748.757-2.145 1.487-3.527 1.765M118.992 37.657c-1.177 1.976 2.656 5.14 1.372 9.387-.763 2.524-2.576 2.926-2.299 4.406.473 2.519 5.768 1.592 8.62 5.364 2.382 3.148.72 6.476 2.683 7.47 2.059 1.045 4.18-2.475 9.003-3.448 1.048-.21 2.015-.258 2.906-.202-3.988-9.01-10.169-17.352-17.946-24.231-2.058-.094-3.741.25-4.34 1.254M146.215 87.189c-1.48-.488-3.019-.634-4.547-.32-5.037 1.036-8.99 6.866-8.87 11.73.102 4.08 3.017 5.322 2.29 8.583-.994 4.449-6.993 4.71-7.44 8.297-.173 1.395.532 2.979 1.715 4.359 9.734-8.356 15.919-19.434 16.852-32.65" transform="translate(-17 -215) translate(18 216)"/>
                <path fill="#606060" d="M128.055 93.212c-.168-2.477-.57-4.918-1.186-7.29-.31-1.184-.679-2.35-1.103-3.493-.417-1.145-.89-2.268-1.413-3.362-2.081-4.39-4.956-8.347-8.339-11.767-1.692-1.71-3.507-3.296-5.43-4.736-1.914-1.451-3.934-2.759-6.027-3.932-2.09-1.179-4.262-2.21-6.485-3.11-2.22-.903-4.499-1.665-6.814-2.285l1.872-.478c-1.235 1.213-2.734 2.174-4.38 2.753-.822.291-1.677.492-2.54.598-.433.054-.867.08-1.3.089l-1.107.01-8.723.021-8.723-.02-1.1-.008c-.434-.008-.868-.032-1.3-.085-.864-.103-1.72-.3-2.543-.59-1.65-.572-3.15-1.53-4.39-2.738l1.872.473c-2.31.625-4.584 1.387-6.8 2.293-2.217.902-4.384 1.933-6.47 3.113-2.087 1.176-4.104 2.482-6.013 3.933-1.917 1.44-3.73 3.024-5.416 4.734-3.376 3.417-6.241 7.37-8.318 11.753-.523 1.093-.994 2.214-1.41 3.357-.423 1.141-.792 2.306-1.101 3.489-.615 2.368-1.016 4.805-1.186 7.278-.169-2.473-.066-4.98.316-7.457.188-1.238.439-2.47.75-3.69.32-1.217.701-2.421 1.139-3.606 1.76-4.74 4.475-9.135 7.824-12.964 1.675-1.916 3.51-3.693 5.463-5.331 1.96-1.628 4.035-3.122 6.208-4.457 2.176-1.329 4.44-2.518 6.775-3.546 2.338-1.023 4.74-1.9 7.188-2.622l1.043-.307.829.78c.856.805 1.874 1.434 2.98 1.796.552.183 1.123.307 1.703.367.29.031.583.042.876.044l1.08-.005 8.724-.02 8.723.021 1.075.006c.293-.002.585-.014.875-.047.58-.062 1.151-.187 1.703-.372 1.105-.368 2.121-.999 2.975-1.807l.827-.785 1.044.307c2.452.722 4.86 1.594 7.202 2.616 2.34 1.028 4.608 2.214 6.79 3.543 2.176 1.335 4.257 2.827 6.221 4.455 1.956 1.64 3.798 3.415 5.476 5.334 3.358 3.83 6.081 8.229 7.848 12.974.439 1.186.821 2.392 1.142 3.61.313 1.222.566 2.455.755 3.696.384 2.48.487 4.99.32 7.467" transform="translate(-17 -215) translate(18 216)"/>
                <path fill="#3A3A3A" d="M29.167 40.295L2.022 43.927C.054 44.19-.7 46.63.77 47.965c3.564 3.232 10.517 7.181 21.832 4.511l6.565-12.181z" transform="translate(-17 -215) translate(18 216)"/>
                <path fill="#FFE7C7" d="M.77 47.965c2.982 3.326 7.235 10.834 19.178 9.433l2.652-4.921C11.982 54.982 2.74 50.16.77 47.965" transform="translate(-17 -215) translate(18 216)"/>
                <path fill="#3A3A3A" d="M120.785 40.295l27.145 3.632c1.968.263 2.722 2.704 1.252 4.038-3.565 3.232-10.517 7.181-21.832 4.511l-6.565-12.181z" transform="translate(-17 -215) translate(18 216)"/>
                <path fill="#FFE7C7" d="M149.182 47.965c-2.982 3.326-7.235 10.834-19.178 9.433l-2.652-4.921c10.618 2.505 19.86-2.316 21.83-4.512M84.811 54.212H65.314c-6.372 0-11.116-5.887-9.76-12.114 1.996-9.176 10.118-15.72 19.509-15.72 9.39 0 17.513 6.544 19.51 15.72 1.354 6.227-3.39 12.114-9.762 12.114" transform="translate(-17 -215) translate(18 216)"/>
                <path fill="#3A3A3A" d="M89.926 46.743c-.864.864-2.572.557-3.815-.686-1.243-1.243-1.55-2.95-.686-3.815.864-.864 2.572-.557 3.815.686 1.243 1.242 1.55 2.95.686 3.815M64.015 46.057c-1.243 1.243-2.951 1.55-3.815.686-.864-.864-.557-2.572.685-3.815 1.243-1.243 2.95-1.55 3.815-.685.864.864.557 2.572-.685 3.814" transform="translate(-17 -215) translate(18 216)"/>
                <path stroke="#000" stroke-linejoin="round" stroke-width="2" d="M112.417.643l6.928 6.263c5.56 3.892 10.2 12.802 8.63 19.405l-.509 2.14c-1.489 3.159-2.936 5.272-5.11 7.106.328.279.653.561.975.846l-.002-.001c1.769 1.564 3.454 3.203 5.05 4.908l19.551 2.617c1.968.263 2.722 2.704 1.252 4.038-.429.388-.906.787-1.433 1.183.64-.433 1.125-.84 1.433-1.183-2.037 2.272-4.666 6.493-9.933 8.496.728 1.373 1.405 2.765 2.028 4.173 3.266 7.376 5.063 15.198 5.063 23.032 0 1.191-.043 2.365-.125 3.523-.933 13.215-7.118 24.293-16.852 32.649h0l-.463.393c-12.497 10.497-30.665 16.593-51.02 17.088l-.457.015-.35.01c-.207.006-.413.01-.62.014l-.37.006h-.034l-.91.006h0c-.307 0-.614-.002-.92-.006l.92.006c-.44 0-.878-.004-1.315-.012-.206-.004-.411-.008-.616-.014l-.295-.008c-.187-.006-.375-.012-.562-.02h-.032c-19.897-.513-37.694-6.379-50.13-16.476h0l-.504-.414c-7.343-6.101-12.756-13.708-15.545-22.58h0l-.214-.701c-1.251-4.22-1.915-8.721-1.915-13.479 0-7.28 1.552-14.55 4.392-21.461h0l.285-.683c.71-1.67 1.493-3.317 2.35-4.938-5.491-1.947-8.189-6.3-10.268-8.62.308.345.795.753 1.437 1.187-.53-.397-1.008-.797-1.437-1.186C-.7 46.63.054 44.19 2.022 43.927h0l20.007-2.678c1.554-1.656 3.193-3.25 4.91-4.773h0l.483-.426.118-.103c-2.445-1.926-3.992-4.11-5.588-7.496h0l-.51-2.14c-1.568-6.603 3.071-15.513 8.631-19.405h0L37.001.643c1.688-1.18 3.983.161 3.782 2.21h0l-.953 9.698c-.21 2.137.92 4.183 2.842 5.142h0l8.652 4.32c7.456-2.659 15.485-4.145 23.852-4.145 1.981 0 3.944.085 5.885.247-.1.101-.211.202-.332.3l.174-.149h0l.158-.15c6.041.506 11.868 1.779 17.387 3.694h0l.031.01h0l8.267-4.127c1.922-.96 3.052-3.005 2.842-5.142l-.953-9.697c-.2-2.05 2.094-3.392 3.782-2.21z" transform="translate(-17 -215) translate(18 216)"/>
            </g>
        </g>
    </g>
</svg>
