<svg xmlns="http://www.w3.org/2000/svg" width="152" height="139" viewBox="0 0 152 139">
    <g fill="none" fill-rule="evenodd">
        <g>
            <g>
                <path fill="#F1B162" d="M135.66 86.584c0 28.048-27.096 50.786-60.52 50.786-33.426 0-60.522-22.738-60.522-50.786 0-28.048 27.096-50.785 60.521-50.785s60.521 22.737 60.521 50.785" transform="translate(-207 -307) translate(208 308)"/>
                <path fill="#FBF9F5" d="M120.556 96.34c.133 2.487-.192 4.88-.812 7.135-2.72 13.37-12.12 24.9-24.668 31.07-6.243 1.828-12.95 2.825-19.937 2.825-7.742 0-15.142-1.224-21.946-3.448-11.609-6.302-20.028-17.512-22.659-30.448-.62-2.254-.944-4.646-.811-7.13l.1-1.184c.52-4.644 2.68-9.58 7.492-14.513 19.77-20.27 37.831 6.035 37.831 6.035s18.094-26.305 37.832-6.035c4.805 4.934 6.96 9.869 7.477 14.513l.1 1.18z" transform="translate(-207 -307) translate(208 308)"/>
                <path fill="#5C2C0A" d="M58.22 74.568c0 3.596-2.914 6.51-6.51 6.51-3.595 0-6.51-2.914-6.51-6.51 0-3.595 2.915-6.51 6.51-6.51 3.596 0 6.51 2.915 6.51 6.51M105.078 74.568c0 3.596-2.915 6.51-6.51 6.51-3.595 0-6.51-2.914-6.51-6.51 0-3.595 2.915-6.51 6.51-6.51 3.595 0 6.51 2.915 6.51 6.51" transform="translate(-207 -307) translate(208 308)"/>
                <path fill="#FAFAFA" d="M51.782 69.054c.627 0 1.135.509 1.135 1.136 0 .627-.508 1.135-1.135 1.135s-1.135-.508-1.135-1.135.508-1.136 1.135-1.136M98.388 69.054c.627 0 1.135.509 1.135 1.136 0 .627-.508 1.135-1.135 1.135s-1.135-.508-1.135-1.135.508-1.136 1.135-1.136" transform="translate(-207 -307) translate(208 308)"/>
                <path fill="#FBF9F5" d="M52.794 58.822c1.322-1.323 3.936-.853 5.838 1.049 1.902 1.902 2.372 4.515 1.049 5.838-1.323 1.322-3.936.853-5.838-1.05-1.902-1.901-2.372-4.515-1.05-5.837M92.448 59.87c1.901-1.902 4.515-2.371 5.838-1.05 1.322 1.323.853 3.937-1.05 5.84-1.901 1.901-4.515 2.37-5.837 1.048-1.323-1.322-.853-3.936 1.049-5.838" transform="translate(-207 -307) translate(208 308)"/>
                <path fill="#5C2C0A" d="M96.732 104.224c-.645-.645-1.645-.645-2.29 0-5.644 5.644-14.32.548-17.287-1.484-.258-.193-.42-.483-.42-.806v-1.871c5.741-.677 10.128-4.999 10.128-10.224 0-5.708-5.257-10.32-11.74-10.32-6.483 0-11.74 4.612-11.74 10.32 0 5.225 4.419 9.547 10.127 10.224v1.87c0 .324-.16.614-.419.807-2.967 2.032-11.61 7.128-17.287 1.484-.613-.613-1.58-.645-2.225-.064-.678.612-.678 1.741 0 2.386 2.354 2.322 5.225 3.515 8.579 3.515 1.967 0 4.064-.419 6.289-1.225 2.58-.968 4.773-2.258 6.128-3.193.322-.226.741-.226 1.064 0 1.387.903 3.58 2.225 6.128 3.193 2.225.806 4.322 1.225 6.29 1.225 3.353 0 6.256-1.193 8.61-3.547.71-.645.71-1.677.065-2.29" transform="translate(-207 -307) translate(208 308)"/>
                <path fill="#606060" d="M128.055 93.212c-.168-2.477-.57-4.918-1.186-7.29-.31-1.184-.679-2.35-1.103-3.493-.417-1.145-.89-2.268-1.413-3.362-2.081-4.39-4.955-8.347-8.339-11.767-1.692-1.71-3.507-3.296-5.43-4.736-1.914-1.451-3.935-2.759-6.027-3.932-2.09-1.179-4.262-2.21-6.485-3.11-2.22-.903-4.499-1.665-6.814-2.285l1.872-.478c-1.235 1.213-2.734 2.174-4.38 2.753-.822.291-1.677.492-2.54.598-.433.054-.867.08-1.3.089l-1.107.01-8.723.021-8.723-.02-1.1-.008c-.434-.008-.868-.032-1.3-.085-.864-.103-1.72-.3-2.543-.59-1.65-.572-3.151-1.53-4.39-2.738l1.872.473c-2.31.625-4.584 1.387-6.8 2.293-2.217.902-4.384 1.933-6.47 3.113-2.087 1.176-4.104 2.482-6.013 3.933-1.917 1.44-3.73 3.024-5.416 4.734-3.376 3.417-6.242 7.37-8.318 11.753-.523 1.093-.994 2.214-1.41 3.357-.423 1.141-.792 2.306-1.101 3.489-.614 2.368-1.016 4.805-1.186 7.278-.169-2.473-.067-4.98.315-7.457.189-1.238.44-2.47.752-3.69.32-1.217.7-2.421 1.138-3.606 1.76-4.74 4.476-9.135 7.824-12.964 1.675-1.916 3.51-3.693 5.463-5.331 1.96-1.628 4.035-3.122 6.208-4.457 2.176-1.329 4.44-2.518 6.775-3.546 2.338-1.023 4.74-1.9 7.188-2.622l1.042-.307.83.78c.856.805 1.874 1.434 2.98 1.796.552.183 1.123.307 1.703.367.29.031.583.042.876.044l1.08-.005 8.724-.02 8.723.021 1.075.006c.293-.002.585-.014.875-.047.58-.062 1.151-.187 1.703-.372 1.105-.368 2.122-.999 2.974-1.807l.829-.785 1.043.307c2.452.722 4.86 1.594 7.202 2.616 2.34 1.028 4.608 2.214 6.79 3.543 2.176 1.335 4.256 2.827 6.221 4.455 1.956 1.64 3.798 3.415 5.476 5.334 3.358 3.83 6.08 8.229 7.848 12.974.44 1.186.821 2.392 1.142 3.61.313 1.222.565 2.455.755 3.696.384 2.48.487 4.99.319 7.467" transform="translate(-207 -307) translate(208 308)"/>
                <path fill="#FDDF5F" d="M54.392 23.546l-11.72-5.853c-1.922-.96-3.052-3.005-2.842-5.142l.953-9.697c.2-2.05-2.095-3.392-3.782-2.21l-6.928 6.262c-5.56 3.892-10.199 12.802-8.63 19.405l.509 2.14c2.145 4.551 4.204 6.932 8.472 9.435l12.504 7.331 11.464-21.671zM95.026 23.546l11.72-5.853c1.922-.96 3.052-3.005 2.842-5.142l-.953-9.697c-.2-2.05 2.095-3.392 3.782-2.21l6.928 6.262c5.56 3.892 10.199 12.802 8.63 19.405l-.509 2.14c-2.146 4.551-4.204 6.932-8.472 9.435l-12.504 7.331-11.464-21.671z" transform="translate(-207 -307) translate(208 308)"/>
                <path fill="#C67212" d="M75.176 17.868c-39.303 0-71.165 32.804-71.165 65.798 0 32.995 31.862 53.686 71.165 53.686-29.262 0-52.984-19.914-52.984-44.479 0-24.565 23.722-44.48 52.984-44.48 29.261 0 52.983 19.915 52.983 44.48 0 24.565-23.722 44.48-52.983 44.48 39.303 0 71.164-20.692 71.164-53.687 0-32.994-31.861-65.798-71.164-65.798" transform="translate(-207 -307) translate(208 308)"/>
                <path fill="#FFE7C7" d="M84.811 54.212H65.314c-6.372 0-11.116-5.887-9.76-12.114 1.996-9.176 10.118-15.72 19.509-15.72 9.39 0 17.512 6.544 19.51 15.72 1.354 6.227-3.39 12.114-9.762 12.114" transform="translate(-207 -307) translate(208 308)"/>
                <path fill="#C67212" d="M89.926 46.743c-.864.864-2.573.557-3.815-.686-1.243-1.243-1.55-2.95-.686-3.815.864-.864 2.572-.557 3.815.686 1.243 1.242 1.55 2.95.686 3.815" transform="translate(-207 -307) translate(208 308)"/>
                <path fill="#D28327" d="M64.015 46.057c-1.243 1.243-2.951 1.55-3.815.686-.865-.864-.557-2.572.685-3.815 1.243-1.243 2.95-1.55 3.815-.685.864.864.557 2.572-.685 3.814" transform="translate(-207 -307) translate(208 308)"/>
                <path fill="#E2902D" d="M29.167 40.295L2.022 43.927C.054 44.19-.7 46.63.77 47.965c3.564 3.232 10.516 7.181 21.832 4.511l6.565-12.181z" transform="translate(-207 -307) translate(208 308)"/>
                <path fill="#FFE7C7" d="M.77 47.965c2.982 3.326 7.235 10.834 19.178 9.433l2.652-4.921C11.982 54.982 2.74 50.16.77 47.965" transform="translate(-207 -307) translate(208 308)"/>
                <path fill="#E2902D" d="M120.785 40.295l27.145 3.632c1.968.263 2.722 2.704 1.252 4.038-3.565 3.232-10.517 7.181-21.832 4.511l-6.565-12.181z" transform="translate(-207 -307) translate(208 308)"/>
                <path fill="#FFE7C7" d="M149.182 47.965c-2.982 3.326-7.235 10.834-19.178 9.433l-2.652-4.921c10.618 2.505 19.86-2.316 21.83-4.512" transform="translate(-207 -307) translate(208 308)"/>
                <path stroke="#000" stroke-linejoin="round" d="M112.417.643l6.928 6.263c5.56 3.892 10.199 12.802 8.63 19.405l-.509 2.14c-1.489 3.159-2.936 5.272-5.109 7.106 2.125 1.813 4.136 3.737 6.023 5.753l19.55 2.617c1.968.263 2.722 2.704 1.252 4.038-.428.388-.906.787-1.433 1.183.64-.433 1.125-.84 1.433-1.183-2.037 2.272-4.666 6.493-9.933 8.496 4.544 8.562 7.091 17.876 7.091 27.205 0 32.224-30.389 52.712-68.42 53.652l-.508.016-.337.01c-.208.006-.416.01-.625.014l-.367.006h-.034l-.91.006h0c-.307 0-.614-.002-.92-.006l.92.006c-.44 0-.878-.004-1.315-.012-.205-.004-.411-.008-.616-.014l-.295-.008c-.187-.006-.375-.012-.562-.02l-.202-.007-.49-.012C33.989 136.1 4.011 115.67 4.011 83.667c0-9.286 2.523-18.556 7.025-27.084C5.546 54.635 2.85 50.284.77 47.965c.308.344.795.752 1.437 1.186-.53-.397-1.008-.797-1.437-1.186C-.7 46.63.054 44.19 2.022 43.927h0l20.007-2.679c1.735-1.85 3.574-3.62 5.51-5.302-2.443-1.925-3.991-4.11-5.587-7.495h0l-.51-2.14c-1.568-6.603 3.071-15.513 8.631-19.405h0L37.001.643c1.687-1.18 3.983.161 3.782 2.21h0l-.953 9.698c-.21 2.137.92 4.183 2.842 5.142h0l8.651 4.32c7.457-2.659 15.486-4.145 23.853-4.145 8.162 0 16.003 1.414 23.305 3.952l8.265-4.127c1.922-.96 3.052-3.005 2.842-5.142l-.953-9.697c-.2-2.05 2.095-3.392 3.782-2.21z" transform="translate(-207 -307) translate(208 308)"/>
            </g>
        </g>
    </g>
</svg>
