<svg xmlns="http://www.w3.org/2000/svg" width="142" height="152" viewBox="0 0 142 152">
    <defs>
        <linearGradient id="0yjozz9wwa" x1="50%" x2="50%" y1="0%" y2="100%">
            <stop offset="0%" stop-color="#F5515F"/>
            <stop offset="100%" stop-color="#9F041B"/>
        </linearGradient>
        <linearGradient id="vv1ath6rwb" x1="50%" x2="50%" y1="0%" y2="100%">
            <stop offset="0%" stop-color="#F5515F"/>
            <stop offset="100%" stop-color="#9F041B"/>
        </linearGradient>
        <linearGradient id="xdywrdj4wc" x1="50%" x2="50%" y1="0%" y2="100%">
            <stop offset="0%" stop-color="#FFE54F"/>
            <stop offset="100%" stop-color="#FFC727"/>
        </linearGradient>
        <linearGradient id="mzpbm1l90d" x1="50%" x2="50%" y1="0%" y2="100%">
            <stop offset="0%" stop-color="#F5515F"/>
            <stop offset="100%" stop-color="#9F041B"/>
        </linearGradient>
        <linearGradient id="hkvkc0ptpe" x1="50%" x2="50%" y1="0%" y2="100%">
            <stop offset="0%" stop-color="#FFF584"/>
            <stop offset="100%" stop-color="#E9AA14"/>
        </linearGradient>
        <linearGradient id="jiljh2hxwf" x1="50%" x2="50%" y1="0%" y2="100%">
            <stop offset="0%" stop-color="#F5515F"/>
            <stop offset="100%" stop-color="#9F041B"/>
        </linearGradient>
    </defs>
    <g fill="none" fill-rule="evenodd">
        <g>
            <g>
                <g>
                    <path fill="#F1B162" d="M139.898 89.685c0-9.942-2.796-18.956-7.716-26.709-.112-.222-.187-.445-.15-.704.709-6.937.56-17.25-1.789-32.681-4.92-32.384-14.5-30.343-17.855-28.526-.708.408-1.268 1.002-1.603 1.744L96.545 35.6c-.328.753-1.093 1.186-1.883 1.1-7.685-2.425-16.012-3.755-24.713-3.755-9.445 0-18.45 1.566-26.67 4.4-.237.074-.475.145-.71.22-.894.297-1.9-.148-2.273-1.038L25.57 2.846c-.335-.742-.894-1.373-1.602-1.744C20.614-.716 10.996-2.793 6.15 29.628c-2.46 16.396-2.498 27.08-1.64 33.98.111.926.372 1.743.782 2.485.187.333.187.704.037 1.038C1.901 73.882 0 81.487 0 89.721c0 .266.009.529.013.793-.005.28-.013.56-.013.843 0 17.431 9.148 33.077 23.65 43.78 3.15 2.324 6.55 4.417 10.166 6.243 10.546 5.323 22.91 8.388 36.133 8.388 13.071 0 25.303-2.998 35.77-8.21 3.402-1.693 6.617-3.62 9.614-5.757 15.031-10.713 24.565-26.648 24.565-44.444 0-.29-.008-.578-.014-.866.005-.27.014-.537.014-.806" transform="translate(-207 -456) translate(208 457) translate(0 .036)"/>
                    <path fill="#FBF9F5" d="M35.247 35.044L23.989 9.264c-.447-1.04-1.304-1.819-2.385-2.115-2.833-.742-8.127.704-10.997 19.808-1.677 11.129-1.715 18.4-1.118 23.11.447 3.784 5.07 5.38 7.865 2.783 3.541-3.376 8.909-7.79 16.029-11.945 1.975-1.187 2.758-3.71 1.864-5.86M101.3 35.044l11.258-25.78c.447-1.04 1.304-1.819 2.385-2.115 2.833-.742 8.126.704 10.997 19.808 1.677 11.129 1.714 18.4 1.118 23.11-.447 3.784-5.07 5.38-7.865 2.783-3.541-3.376-8.91-7.79-16.03-11.945-1.975-1.187-2.757-3.71-1.863-5.86M122.44 102.578c.154 2.86-.22 5.612-.938 8.206-3.143 15.377-14.008 28.638-28.51 35.734-7.216 2.103-14.969 3.25-23.043 3.25-8.948 0-17.5-1.408-25.366-3.965-13.417-7.249-23.147-20.142-26.187-35.02-.718-2.593-1.093-5.344-.939-8.202l.117-1.36c.6-5.343 3.096-11.019 8.658-16.693 22.85-23.314 43.725 6.94 43.725 6.94s20.912-30.254 43.725-6.94c5.553 5.674 8.044 11.35 8.642 16.692l.116 1.358z" transform="translate(-207 -456) translate(208 457) translate(0 .036)"/>
                    <path fill="#5C2C0A" d="M50.395 77.536c0 4.135-3.37 7.488-7.525 7.488s-7.524-3.353-7.524-7.488 3.369-7.487 7.524-7.487c4.156 0 7.525 3.352 7.525 7.487M104.551 77.536c0 4.135-3.369 7.488-7.524 7.488-4.155 0-7.524-3.353-7.524-7.488s3.369-7.487 7.524-7.487c4.155 0 7.524 3.352 7.524 7.487" transform="translate(-207 -456) translate(208 457) translate(0 .036)"/>
                    <path fill="#FAFAFA" d="M42.953 71.195c.725 0 1.312.584 1.312 1.305s-.587 1.306-1.312 1.306c-.724 0-1.312-.585-1.312-1.306 0-.72.588-1.305 1.312-1.305M96.819 71.195c.725 0 1.312.584 1.312 1.305s-.587 1.306-1.312 1.306c-.725 0-1.312-.585-1.312-1.306 0-.72.587-1.305 1.312-1.305" transform="translate(-207 -456) translate(208 457) translate(0 .036)"/>
                    <path fill="#FBF9F5" d="M44.122 59.425c1.529-1.52 4.55-.98 6.748 1.207 2.198 2.187 2.74 5.194 1.212 6.715-1.528 1.52-4.549.98-6.747-1.207-2.199-2.187-2.741-5.194-1.213-6.715M89.953 60.631c2.198-2.187 5.22-2.728 6.748-1.206 1.529 1.52.986 4.527-1.212 6.714-2.199 2.188-5.22 2.728-6.748 1.207-1.529-1.521-.986-4.528 1.212-6.715" transform="translate(-207 -456) translate(208 457) translate(0 .036)"/>
                    <path fill="#5C2C0A" d="M94.905 111.645c-.745-.742-1.9-.742-2.647 0-6.523 6.492-16.55.63-19.98-1.706-.298-.223-.484-.557-.484-.928V106.86c6.635-.78 11.704-5.75 11.704-11.76 0-6.565-6.076-11.87-13.568-11.87S56.362 88.535 56.362 95.1c0 6.01 5.106 10.98 11.704 11.76V109.01c0 .371-.186.705-.484.928-3.43 2.337-13.42 8.198-19.98 1.706-.709-.705-1.827-.742-2.573-.074-.782.705-.782 2.003 0 2.745 2.722 2.67 6.04 4.043 9.916 4.043 2.274 0 4.697-.482 7.269-1.41 2.982-1.112 5.517-2.596 7.082-3.672.373-.26.858-.26 1.23 0 1.603 1.039 4.138 2.56 7.083 3.673 2.572.927 4.995 1.409 7.269 1.409 3.877 0 7.232-1.372 9.953-4.08.82-.742.82-1.93.074-2.634" transform="translate(-207 -456) translate(208 457) translate(0 .036)"/>
                </g>
                <g>
                    <path fill="url(#0yjozz9wwa)" d="M41.091 26.034s-25.403-.078-37.06 7.865c-.07.562-.128 1.127-.172 1.696 10.876-4.708 23.747-7.245 37.232-7.245 13.337 0 26.073 2.482 36.873 7.09-.05-.601-.112-1.2-.19-1.794-11.583-7.537-35.699-7.612-36.654-7.612h-.029" transform="translate(-207 -456) translate(208 457) translate(27.375 .684)"/>
                    <path fill="url(#vv1ath6rwb)" d="M41.091 26.034s-25.403-.078-37.06 7.865c-.26.177-.514.356-.759.54-.09.067-.18.133-.268.202-.696.544-1.236 1.251-1.572 2.054-.115.276-.207.563-.271.859l-.348 1.59-.325 1.485-.463 2.12c-.013.058-.02.115-.023.172-.046.749.68 1.347 1.433 1.116.657-.2 1.493-.443 2.49-.711 6.269-1.683 19.148-4.39 37.166-4.39 18.019 0 30.898 2.707 37.166 4.39.997.268 1.834.51 2.49.711.754.231 1.48-.367 1.433-1.116-.003-.057-.01-.114-.023-.173l-.463-2.119-.325-1.485-.348-1.59c-.064-.296-.156-.583-.271-.859-.336-.803-.876-1.51-1.572-2.054-.087-.069-.179-.135-.268-.202-.363-.273-.742-.537-1.135-.793-11.584-7.537-35.7-7.612-36.655-7.612h-.029z" transform="translate(-207 -456) translate(208 457) translate(27.375 .684)"/>
                    <path fill="url(#xdywrdj4wc)" d="M4.03 33.9c4.896-3.337 12.217-5.258 19.063-6.365 3.085-13.394 9.953-26.02 17.942-26.02 7.985 0 14.867 12.616 17.954 26.004 6.7 1.076 13.87 2.93 18.786 6.127C75.41 15.486 59.81 1.459 40.918 1.459 21.938 1.46 6.282 15.617 4.03 33.9" transform="translate(-207 -456) translate(208 457) translate(27.375 .684)"/>
                    <path fill="url(#mzpbm1l90d)" d="M23.093 27.535c9.452-1.527 17.998-1.5 17.998-1.5s8.485-.027 17.898 1.484C55.902 14.131 49.028 1.654 41.043 1.654c-7.989 0-14.865 12.487-17.95 25.881" transform="translate(-207 -456) translate(208 457) translate(27.375 .684)"/>
                    <path fill="url(#hkvkc0ptpe)" d="M23.093 27.535c9.452-1.527 17.998-1.5 17.998-1.5s8.485-.027 17.898 1.484C55.902 14.131 49.02 1.516 41.035 1.516c-7.989 0-14.857 12.625-17.942 26.02" transform="translate(-207 -456) translate(208 457) translate(27.375 .684)"/>
                    <path fill="url(#jiljh2hxwf)" d="M38.114 1.516c0 .836 1.307 1.515 2.92 1.515 1.614 0 2.922-.679 2.922-1.515C43.956.678 42.648 0 41.035 0c-1.614 0-2.921.678-2.921 1.516" transform="translate(-207 -456) translate(208 457) translate(27.375 .684)"/>
                </g>
                <path stroke="#000" stroke-linejoin="round" d="M112.388 1.101c3.355-1.818 12.935-3.858 17.855 28.526 2.349 15.431 2.498 25.744 1.79 32.68-.038.26.037.483.149.705 4.92 7.753 7.716 16.767 7.716 26.709 0 .27-.01.537-.014.806.006.288.014.576.014.865 0 17.797-9.534 33.732-24.565 44.445-2.997 2.136-6.212 4.063-9.614 5.757-8.91 4.437-19.1 7.27-29.998 8.013l-.066.004c-.28.02-.563.038-.846.054l-.155.008c-.271.016-.544.03-.816.042l-.11.004-.636.027-.424.014c-.188.006-.376.012-.564.016l-.312.008c-.613.013-1.227.02-1.843.02h.003c-.622 0-1.238-.007-1.853-.02l-.189-.005c-.237-.005-.473-.012-.71-.02l-.27-.009c-.255-.009-.51-.019-.763-.03l-.05-.003c-.262-.011-.522-.024-.782-.038l-.214-.013c-11.403-.649-22.053-3.58-31.305-8.25-3.616-1.826-7.017-3.92-10.167-6.244C9.148 124.469 0 108.824 0 91.392c0-.282.009-.562.014-.843-.004-.264-.013-.527-.013-.791 0-8.235 1.901-15.84 5.33-22.591.15-.334.15-.705-.037-1.039-.41-.742-.67-1.558-.783-2.485-.857-6.9-.82-17.583 1.64-33.98C10.997-2.756 20.615-.68 23.97 1.139c.708.37 1.267 1.002 1.602 1.743h0l9.02 20.636C40.133 11.69 51.775 3.263 65.493 2.247l-.004-.048c0-.837 1.308-1.515 2.921-1.515h0l.2.003c1.52.053 2.721.71 2.721 1.512h0l-.003.065c13.536 1.089 25.023 9.394 30.57 21.046l8.887-20.466c.335-.742.895-1.335 1.603-1.743z" transform="translate(-207 -456) translate(208 457)"/>
            </g>
        </g>
    </g>
</svg>
