<?xml version="1.0" encoding="utf-8"?>
<!-- Generator: Adobe Illustrator 24.2.1, SVG Export Plug-In . SVG Version: 6.00 Build 0)  -->
<svg version="1.1" id="圖層_1" xmlns="http://www.w3.org/2000/svg" xmlns:xlink="http://www.w3.org/1999/xlink" x="0px" y="0px"
	 viewBox="0 0 605.56 97.83" style="enable-background:new 0 0 605.56 97.83;" xml:space="preserve">
<style type="text/css">
	.st0{fill:#606060;}
	.st1{fill:#153A71;}
	.st2{fill:#FFFFFF;}
	.st3{opacity:0.82;fill:url(#路径_892_2_);enable-background:new    ;}
	.st4{opacity:0.21;fill:#FFFFFF;enable-background:new    ;}
	.st5{opacity:0.82;fill:url(#路径_895_2_);enable-background:new    ;}
	.st6{opacity:0.82;fill:url(#路径_898_2_);enable-background:new    ;}
	.st7{fill:#BA391D;}
	.st8{fill:#32638E;}
	.st9{fill:none;stroke:#2F8BC1;}
	.st10{opacity:0.7;fill:url(#SVGID_1_);}
	.st11{display:none;opacity:0.7;fill:url(#SVGID_2_);}
	.st12{fill:none;stroke:#BEBFC0;stroke-width:3;stroke-miterlimit:10;}
	.st13{fill:#124380;}
	.st14{opacity:0.82;fill:url(#SVGID_5_);}
	.st15{opacity:0.21;fill:url(#SVGID_6_);}
	.st16{opacity:0.82;fill:url(#SVGID_7_);}
	.st17{opacity:0.21;fill:url(#SVGID_8_);}
	.st18{opacity:0.82;fill:url(#SVGID_9_);}
	.st19{opacity:0.21;fill:url(#SVGID_10_);}
	.st20{fill:#C7391A;}
	.st21{fill:#083A6E;}
	.st22{fill:#3D3A39;}
	.st23{fill:#0A559A;}
	.st24{fill:#E4E4E5;}
	.st25{fill:none;stroke:url(#SVGID_11_);stroke-width:2;stroke-miterlimit:10;}
	.st26{fill:none;stroke:url(#SVGID_12_);stroke-width:2;stroke-miterlimit:10;}
	.st27{fill:none;stroke:url(#SVGID_13_);stroke-width:2;stroke-miterlimit:10;}
	.st28{fill:url(#SVGID_14_);}
	.st29{fill:none;stroke:url(#SVGID_15_);stroke-width:2;stroke-miterlimit:10;}
	.st30{fill:none;stroke:url(#SVGID_16_);stroke-width:2;stroke-miterlimit:10;}
	.st31{fill:url(#SVGID_17_);}
	.st32{opacity:0.82;fill:url(#路径_892_3_);enable-background:new    ;}
	.st33{opacity:0.82;fill:url(#路径_895_3_);enable-background:new    ;}
	.st34{opacity:0.82;fill:url(#路径_898_3_);enable-background:new    ;}
	.st35{fill:url(#SVGID_18_);}
	.st36{filter:url(#Adobe_OpacityMaskFilter);}
	.st37{fill:none;stroke:#3E3A39;stroke-miterlimit:10;}
	.st38{opacity:0.82;fill:url(#SVGID_22_);}
	.st39{opacity:0.21;fill:url(#SVGID_23_);}
	.st40{opacity:0.82;fill:url(#SVGID_24_);}
	.st41{opacity:0.21;fill:url(#SVGID_25_);}
	.st42{opacity:0.82;fill:url(#SVGID_26_);}
	.st43{opacity:0.21;fill:url(#SVGID_27_);}
	.st44{fill:none;stroke:url(#SVGID_28_);stroke-width:2;stroke-miterlimit:10;}
	.st45{fill:none;stroke:url(#SVGID_29_);stroke-width:2;stroke-miterlimit:10;}
	.st46{fill:none;stroke:url(#SVGID_30_);stroke-width:2;stroke-miterlimit:10;}
	.st47{fill:url(#SVGID_31_);}
	.st48{fill:none;stroke:url(#SVGID_32_);stroke-width:2;stroke-miterlimit:10;}
	.st49{fill:url(#SVGID_33_);}
	.st50{display:none;opacity:0.6;}
	.st51{display:inline;}
	.st52{opacity:0.6;}
	.st53{fill:url(#SVGID_34_);}
	.st54{fill:url(#SVGID_35_);}
	.st55{fill:url(#SVGID_36_);}
	.st56{fill:url(#SVGID_37_);}
	.st57{fill:url(#SVGID_38_);}
	.st58{fill:url(#SVGID_39_);}
	.st59{clip-path:url(#SVGID_41_);}
	.st60{fill:none;}
	.st61{opacity:0.15;fill:url(#SVGID_42_);}
	.st62{opacity:0.5;fill:url(#SVGID_43_);}
	.st63{fill:url(#SVGID_44_);}
	.st64{opacity:0.03;fill:none;stroke:#FFFFFF;stroke-width:2;stroke-miterlimit:10;}
	.st65{clip-path:url(#SVGID_46_);}
	.st66{opacity:0.15;fill:url(#SVGID_47_);}
	.st67{opacity:0.5;fill:url(#SVGID_48_);}
	.st68{fill:url(#SVGID_49_);}
	.st69{filter:url(#Adobe_OpacityMaskFilter_1_);}
	.st70{fill:url(#SVGID_51_);}
	.st71{fill:url(#SVGID_52_);}
	.st72{fill:url(#SVGID_53_);}
	.st73{clip-path:url(#SVGID_55_);}
	.st74{opacity:0.15;fill:url(#SVGID_56_);}
	.st75{opacity:0.5;fill:url(#SVGID_57_);}
	.st76{fill:url(#SVGID_58_);}
	.st77{filter:url(#Adobe_OpacityMaskFilter_2_);}
	.st78{filter:url(#Adobe_OpacityMaskFilter_3_);}
	.st79{fill:#DD3828;}
	.st80{opacity:0.82;fill:url(#SVGID_61_);}
	.st81{opacity:0.21;fill:url(#SVGID_62_);}
	.st82{opacity:0.82;fill:url(#SVGID_63_);}
	.st83{opacity:0.21;fill:url(#SVGID_64_);}
	.st84{opacity:0.82;fill:url(#SVGID_65_);}
	.st85{opacity:0.21;fill:url(#SVGID_66_);}
	.st86{opacity:0.82;fill:url(#SVGID_67_);}
	.st87{opacity:0.21;fill:url(#SVGID_68_);}
	.st88{opacity:0.82;fill:url(#SVGID_69_);}
	.st89{opacity:0.21;fill:url(#SVGID_70_);}
	.st90{opacity:0.82;fill:url(#SVGID_71_);}
	.st91{opacity:0.21;fill:url(#SVGID_72_);}
	.st92{fill:url(#SVGID_73_);}
	.st93{fill:url(#SVGID_74_);}
	.st94{fill:url(#SVGID_75_);}
	.st95{clip-path:url(#SVGID_77_);}
	.st96{opacity:0.15;fill:url(#SVGID_78_);}
	.st97{opacity:0.5;fill:url(#SVGID_79_);}
	.st98{fill:url(#SVGID_80_);}
	.st99{filter:url(#Adobe_OpacityMaskFilter_4_);}
	.st100{opacity:0.82;fill:url(#SVGID_82_);}
	.st101{opacity:0.21;fill:url(#SVGID_83_);}
	.st102{opacity:0.82;fill:url(#SVGID_84_);}
	.st103{opacity:0.21;fill:url(#SVGID_85_);}
	.st104{opacity:0.82;fill:url(#SVGID_86_);}
	.st105{opacity:0.21;fill:url(#SVGID_87_);}
	.st106{fill:url(#SVGID_88_);}
	.st107{fill:url(#SVGID_89_);}
	.st108{fill:url(#SVGID_90_);}
	.st109{clip-path:url(#SVGID_92_);}
	.st110{opacity:0.15;fill:url(#SVGID_93_);}
	.st111{opacity:0.5;fill:url(#SVGID_94_);}
	.st112{fill:url(#SVGID_95_);}
	.st113{filter:url(#Adobe_OpacityMaskFilter_5_);}
	.st114{opacity:0.82;fill:url(#SVGID_97_);}
	.st115{opacity:0.21;fill:url(#SVGID_98_);}
	.st116{opacity:0.82;fill:url(#SVGID_99_);}
	.st117{opacity:0.21;fill:url(#SVGID_100_);}
	.st118{opacity:0.82;fill:url(#SVGID_101_);}
	.st119{opacity:0.21;fill:url(#SVGID_102_);}
	.st120{display:none;}
	.st121{clip-path:url(#SVGID_104_);}
	.st122{clip-path:url(#SVGID_106_);}
	.st123{clip-path:url(#SVGID_108_);}
	.st124{clip-path:url(#SVGID_110_);}
	.st125{opacity:0.82;fill:url(#SVGID_113_);}
	.st126{opacity:0.21;fill:url(#SVGID_114_);}
	.st127{opacity:0.82;fill:url(#SVGID_115_);}
	.st128{opacity:0.21;fill:url(#SVGID_116_);}
	.st129{opacity:0.82;fill:url(#SVGID_117_);}
	.st130{opacity:0.21;fill:url(#SVGID_118_);}
	.st131{fill:none;stroke:url(#SVGID_119_);stroke-width:2;stroke-miterlimit:10;}
	.st132{fill:none;stroke:url(#SVGID_120_);stroke-width:2;stroke-miterlimit:10;}
	.st133{fill:none;stroke:url(#SVGID_121_);stroke-width:2;stroke-miterlimit:10;}
	.st134{fill:url(#SVGID_122_);}
	.st135{fill:none;stroke:url(#SVGID_123_);stroke-width:2;stroke-miterlimit:10;}
	.st136{fill:url(#SVGID_124_);}
	.st137{clip-path:url(#SVGID_126_);}
	.st138{opacity:0.15;fill:url(#SVGID_127_);}
	.st139{opacity:0.5;fill:url(#SVGID_128_);}
	.st140{fill:url(#SVGID_129_);}
	.st141{filter:url(#Adobe_OpacityMaskFilter_6_);}
	.st142{clip-path:url(#SVGID_132_);}
	.st143{clip-path:url(#SVGID_134_);}
	.st144{fill:#FFFFFF;stroke:#182980;stroke-width:10;stroke-linecap:round;stroke-linejoin:round;stroke-miterlimit:10;}
	.st145{fill:#FFFFFF;stroke:#B90D23;stroke-width:10;stroke-linecap:round;stroke-linejoin:round;stroke-miterlimit:10;}
	.st146{fill:#FFFFFF;stroke:#036EAD;stroke-width:10;stroke-linecap:round;stroke-linejoin:round;stroke-miterlimit:10;}
	.st147{fill:#FFFFFF;stroke:#DD3828;stroke-width:10;stroke-linecap:round;stroke-linejoin:round;stroke-miterlimit:10;}
	.st148{clip-path:url(#SVGID_136_);}
	.st149{clip-path:url(#SVGID_138_);}
	.st150{clip-path:url(#SVGID_140_);}
	.st151{clip-path:url(#SVGID_142_);}
	.st152{clip-path:url(#SVGID_144_);}
	.st153{clip-path:url(#SVGID_146_);}
	.st154{clip-path:url(#SVGID_148_);}
	.st155{clip-path:url(#SVGID_150_);}
	.st156{fill:#68A8CE;}
	.st157{fill:#9AC5DE;}
	.st158{opacity:0.35;fill:#FFFFFF;}
	.st159{fill:#D5EBF7;}
	.st160{fill:url(#SVGID_151_);}
	.st161{fill:url(#SVGID_152_);}
	.st162{fill:url(#SVGID_153_);}
</style>
<g>
	<g>
		<g>
			<path class="st24" d="M576.16,87.25H20.38c-11.05,0-20-8.95-20-20V20.41c0-11.05,8.95-20,20-20h555.78c11.05,0,20,8.95,20,20
				v46.84C596.16,78.3,587.21,87.25,576.16,87.25z"/>
			<linearGradient id="SVGID_1_" gradientUnits="userSpaceOnUse" x1="7.4573" y1="53.2566" x2="605.2384" y2="53.2566">
				<stop  offset="0" style="stop-color:#FFFFFF;stop-opacity:0.9"/>
				<stop  offset="0.034" style="stop-color:#FBFDFE;stop-opacity:0.8636"/>
				<stop  offset="0.0693" style="stop-color:#EEF5FA;stop-opacity:0.8259"/>
				<stop  offset="0.1052" style="stop-color:#DAE9F3;stop-opacity:0.7876"/>
				<stop  offset="0.1415" style="stop-color:#BCD9E9;stop-opacity:0.7488"/>
				<stop  offset="0.1782" style="stop-color:#97C3DD;stop-opacity:0.7097"/>
				<stop  offset="0.215" style="stop-color:#69A9CE;stop-opacity:0.6703"/>
				<stop  offset="0.2514" style="stop-color:#348ABD;stop-opacity:0.6315"/>
				<stop  offset="0.2809" style="stop-color:#036EAD;stop-opacity:0.6"/>
				<stop  offset="0.6685" style="stop-color:#033488"/>
				<stop  offset="0.8876" style="stop-color:#033488"/>
				<stop  offset="1" style="stop-color:#033488"/>
			</linearGradient>
			<path style="fill:none;stroke:url(#SVGID_1_);stroke-width:2;stroke-miterlimit:10;" d="M584.24,96.68H28.46
				c-11.05,0-20-8.95-20-20V29.84c0-11.05,8.95-20,20-20h555.78c11.05,0,20,8.95,20,20v46.84
				C604.24,87.72,595.28,96.68,584.24,96.68z"/>
		</g>
	</g>
</g>
<g>
	<defs>
		<circle id="SVGID_40_" cx="-980.8" cy="-958.68" r="459.32"/>
	</defs>
	<clipPath id="SVGID_2_">
		<use xlink:href="#SVGID_40_"  style="overflow:visible;"/>
	</clipPath>
	<g style="clip-path:url(#SVGID_2_);">
		<polyline class="st60" points="-980.8,-958.68 748.02,-73.12 -980.8,-958.68 -2709.61,-1844.25 -980.8,-958.68 -1866.36,770.13 
			-980.8,-958.68 -95.23,-2687.49 -980.8,-958.68 -851.58,-811.91 -980.8,-958.68 -1110.01,-1105.46 -980.8,-958.68 
			-1127.57,-829.47 -980.8,-958.68 -834.02,-1087.9 -980.8,-958.68 -586.4,-434.73 -980.8,-958.68 -1375.2,-1482.64 -980.8,-958.68 
			-1504.75,-564.28 -980.8,-958.68 -456.84,-1353.08 -980.8,-958.68 -452.35,-104.49 -980.8,-958.68 -1509.25,-1812.87 
			-980.8,-958.68 -1834.99,-430.23 -980.8,-958.68 -126.6,-1487.13 -980.8,-958.68 -554.75,-831 -980.8,-958.68 -1406.84,-1086.36 
			-980.8,-958.68 -1108.48,-532.64 -980.8,-958.68 -853.11,-1384.72 -980.8,-958.68 -193.4,-120.5 -980.8,-958.68 
			-1768.19,-1796.86 -980.8,-958.68 -1818.98,-171.29 -980.8,-958.68 -142.62,-1746.07 -980.8,-958.68 -648.28,-592.53 
			-980.8,-958.68 -1313.31,-1324.83 -980.8,-958.68 -1346.95,-626.16 -980.8,-958.68 -614.64,-1291.2 -980.8,-958.68 
			693.45,-541.17 -980.8,-958.68 -2655.04,-1376.19 -980.8,-958.68 -1398.31,715.56 -980.8,-958.68 -563.28,-2632.92 
			-980.8,-958.68 687.5,-34.69 -980.8,-958.68 -2649.09,-1882.68 -980.8,-958.68 -1904.79,709.62 -980.8,-958.68 -56.8,-2626.98 
			-980.8,-958.68 -634.96,-727.93 -980.8,-958.68 -1326.63,-1189.44 -980.8,-958.68 -1211.55,-612.84 -980.8,-958.68 
			-750.04,-1304.52 -980.8,-958.68 -919.76,282.47 -980.8,-958.68 -1041.83,-2199.83 -980.8,-958.68 -2221.94,-897.65 
			-980.8,-958.68 260.35,-1019.72 -980.8,-958.68 -973.71,-817.31 -980.8,-958.68 -987.88,-1100.06 -980.8,-958.68 -1122.17,-951.6 
			-980.8,-958.68 -839.42,-965.76 -980.8,-958.68 -784.59,-637.55 -980.8,-958.68 -1177,-1279.81 -980.8,-958.68 -1301.93,-762.47 
			-980.8,-958.68 -659.66,-1154.89 -980.8,-958.68 -944.33,512.16 -980.8,-958.68 -1017.26,-2429.52 -980.8,-958.68 
			-2451.63,-922.22 -980.8,-958.68 490.04,-995.14 -980.8,-958.68 -413.53,641.16 -980.8,-958.68 -1548.06,-2558.52 -980.8,-958.68 
			-2580.63,-391.42 -980.8,-958.68 619.04,-1525.95 		"/>
		<polyline class="st64" points="-980.8,-958.68 748.02,-73.12 -980.8,-958.68 -2709.61,-1844.25 -980.8,-958.68 -1866.36,770.13 
			-980.8,-958.68 -95.23,-2687.49 -980.8,-958.68 -851.58,-811.91 -980.8,-958.68 -1110.01,-1105.46 -980.8,-958.68 
			-1127.57,-829.47 -980.8,-958.68 -834.02,-1087.9 -980.8,-958.68 -586.4,-434.73 -980.8,-958.68 -1375.2,-1482.64 -980.8,-958.68 
			-1504.75,-564.28 -980.8,-958.68 -456.84,-1353.08 -980.8,-958.68 -452.35,-104.49 -980.8,-958.68 -1509.25,-1812.87 
			-980.8,-958.68 -1834.99,-430.23 -980.8,-958.68 -126.6,-1487.13 -980.8,-958.68 -554.75,-831 -980.8,-958.68 -1406.84,-1086.36 
			-980.8,-958.68 -1108.48,-532.64 -980.8,-958.68 -853.11,-1384.72 -980.8,-958.68 -193.4,-120.5 -980.8,-958.68 
			-1768.19,-1796.86 -980.8,-958.68 -1818.98,-171.29 -980.8,-958.68 -142.62,-1746.07 -980.8,-958.68 -648.28,-592.53 
			-980.8,-958.68 -1313.31,-1324.83 -980.8,-958.68 -1346.95,-626.16 -980.8,-958.68 -614.64,-1291.2 -980.8,-958.68 
			693.45,-541.17 -980.8,-958.68 -2655.04,-1376.19 -980.8,-958.68 -1398.31,715.56 -980.8,-958.68 -563.28,-2632.92 
			-980.8,-958.68 687.5,-34.69 -980.8,-958.68 -2649.09,-1882.68 -980.8,-958.68 -1904.79,709.62 -980.8,-958.68 -56.8,-2626.98 
			-980.8,-958.68 -634.96,-727.93 -980.8,-958.68 -1326.63,-1189.44 -980.8,-958.68 -1211.55,-612.84 -980.8,-958.68 
			-750.04,-1304.52 -980.8,-958.68 -919.76,282.47 -980.8,-958.68 -1041.83,-2199.83 -980.8,-958.68 -2221.94,-897.65 
			-980.8,-958.68 260.35,-1019.72 -980.8,-958.68 -973.71,-817.31 -980.8,-958.68 -987.88,-1100.06 -980.8,-958.68 -1122.17,-951.6 
			-980.8,-958.68 -839.42,-965.76 -980.8,-958.68 -784.59,-637.55 -980.8,-958.68 -1177,-1279.81 -980.8,-958.68 -1301.93,-762.47 
			-980.8,-958.68 -659.66,-1154.89 -980.8,-958.68 -944.33,512.16 -980.8,-958.68 -1017.26,-2429.52 -980.8,-958.68 
			-2451.63,-922.22 -980.8,-958.68 490.04,-995.14 -980.8,-958.68 -413.53,641.16 -980.8,-958.68 -1548.06,-2558.52 -980.8,-958.68 
			-2580.63,-391.42 -980.8,-958.68 619.04,-1525.95 		"/>
	</g>
</g>
</svg>
