<svg width="276" height="78" viewBox="0 0 276 78" fill="none" xmlns="http://www.w3.org/2000/svg">
<path d="M 261.5 1 H 12.5 C 5.1 1 -1 10 -1 21 V 59 C -1 70 5.1 79 12.5 79 H 261.5 C 268.9 79 275 70 275 59 V 21 C 275 10 268.9 1 261.5 1 Z" fill="#f29600"/>
<path d="M 71.6 21.7 C 71 19.7 70 16.6 69.1 14.2 L 64.7 15.3 C 65.6 17.7 66.6 20.9 67 23 L 71.6 21.7 Z M 87.5 23.2 H 49.6 V 27.6 H 87.5 V 23.2 Z M 64.6 48.6 C 63.8 43.4 62 35.7 60.2 29.6 L 55.8 30.6 C 57.5 36.7 59.3 44.6 60 49.8 L 64.6 48.6 Z M 75 51.4 C 77.3 45.7 80 37.5 81.8 30.6 L 76.9 29.7 C 75.5 36.4 72.8 45.6 70.3 51.4 H 47.6 V 55.8 H 89.5 V 51.4 H 75 Z M 111.2 20.9 V 26.1 H 101.4 V 20.9 H 111.2 Z M 101.4 35.5 V 30 H 111.2 V 35.5 H 101.4 Z M 106.6 43.1 C 107.5 44.5 108.3 46 109.1 47.5 L 101.4 49.9 V 39.4 H 115.6 V 17 H 96.9 V 48.9 C 96.9 50.7 95.8 51.6 94.9 52 C 95.6 53.1 96.4 55.2 96.7 56.5 C 97.8 55.6 99.5 54.9 110.9 51.1 C 111.7 52.7 112.4 54.3 112.8 55.5 L 116.8 53.3 C 115.6 50.1 112.7 45.1 110.3 41.3 L 106.6 43.1 Z M 135 17.3 H 119.1 V 57.7 H 123.5 V 21.3 H 130.7 V 44 C 130.7 44.6 130.5 44.8 129.9 44.9 C 129.3 44.9 127.3 44.9 125.2 44.8 C 125.8 46 126.4 47.8 126.5 49 C 129.7 49 131.8 48.9 133.3 48.2 C 134.6 47.5 135 46.2 135 44.1 V 17.3 Z M 152.4 23 C 152.4 20.2 152.5 17.4 152.5 14.7 H 148.1 C 148.1 17.4 148.1 20.2 148 23 H 141.9 V 27.3 H 147.9 C 147.5 37.9 146 48.1 140.7 54.5 C 141.9 55.2 143.4 56.5 144.2 57.6 C 150 50.3 151.6 39 152.2 27.3 H 157.9 C 157.3 43.9 156.5 50.1 155.3 51.5 C 154.8 52.2 154.4 52.4 153.7 52.4 C 152.8 52.4 151.2 52.3 149.3 52.2 C 150 53.4 150.6 55.4 150.6 56.6 C 152.6 56.7 154.6 56.7 155.8 56.5 C 157.2 56.3 158.2 55.8 159.2 54.5 C 160.9 52.3 161.6 45.2 162.4 25.1 C 162.4 24.5 162.5 23 162.5 23 H 152.4 Z M 169.7 49.3 V 24.4 H 177.5 V 49.3 H 169.7 Z M 165.4 20.2 V 56.9 H 169.7 V 53.5 H 177.5 V 56.5 H 182.1 V 20.2 H 165.4 Z M 196.9 17.3 V 21.7 H 208 C 208.1 23.4 208.3 25.3 208.7 27.3 L 206.3 26.9 C 203.5 39.6 197.8 48.9 187.7 54.1 C 188.9 54.9 190.9 56.7 191.8 57.6 C 200.5 52.4 206.4 44.2 209.8 32.8 C 212.1 41.5 217.2 51.1 227.8 57.5 C 228.6 56.4 230.4 54.6 231.4 53.8 C 213.4 43.2 212.4 25.8 212.4 17.3 H 196.9 Z" fill="white"/>
</svg>
