<svg width="353" height="30" viewBox="0 0 353 30" fill="none" xmlns="http://www.w3.org/2000/svg">
<path d="M22.232 18.584V21.208H7.8V18.584H22.232ZM7.8 26.136V23.48H22.232V26.136H7.8ZM4.888 29.496H7.8V28.472H22.232V29.368H25.272V16.28H4.888V29.496ZM13.176 6.328H16.632V12.12H13.176V6.328ZM19.448 12.12V6.328H27.768V3.896H21.72C22.36 3.032 23 2.008 23.576 0.983999L20.632 0.0559978C20.152 1.208 19.224 2.776 18.488 3.896H9.88L11.192 3.32C10.84 2.36 9.912 1.048 8.984 0.0559978L6.392 1.048C7.096 1.88 7.8 3 8.248 3.896H2.488V6.328H10.424V12.12H0.728V14.584H29.336V12.12H19.448ZM3.768 7.384C4.76 8.824 5.656 10.776 6.008 12.056L8.568 11.032C8.216 9.72 7.256 7.832 6.2 6.456L3.768 7.384ZM23.416 12.024C24.28 10.808 25.272 8.984 26.136 7.224L23.416 6.392C22.904 7.864 21.88 9.944 21.112 11.256L23.416 12.024ZM44.44 25.848V3.8H68.408V1.304H41.528V28.312H43.384V28.344H69.016V25.848H44.44ZM60.088 12.376H55.992V10.168H60.088V12.376ZM60.088 16.728H55.992V14.52H60.088V16.728ZM60.088 21.272H55.992V18.872H60.088V21.272ZM55.992 24.824V23.608H68.088V21.272H62.776V18.872H67V16.728H62.776V14.52H67V12.376H62.776V10.168H67.992V7.832H63.8C63.448 6.808 62.808 5.432 62.168 4.44L59.544 5.176C59.96 6.008 60.408 6.936 60.76 7.832H56.44C56.952 6.808 57.368 5.752 57.752 4.696L55.32 3.992C54.2 7.192 52.376 10.296 50.264 12.408C49.24 11.544 47.512 10.552 46.104 9.912L44.568 11.672C46.136 12.44 47.992 13.688 48.92 14.648L50.2 13.112C50.68 13.688 51.32 14.552 51.608 15C52.216 14.392 52.792 13.688 53.368 12.952V24.824H55.992ZM47.576 24.6C48.92 22.456 50.36 19.864 51.512 17.624L49.784 15.8C48.44 18.328 46.712 21.048 45.528 22.712L47.576 24.6ZM52.024 6.968C51.064 6.072 49.208 4.888 47.736 4.216L46.136 5.944C47.64 6.744 49.464 7.96 50.328 8.888L52.024 6.968ZM92.056 14.84C92.056 16.12 93.08 17.144 94.36 17.144C95.64 17.144 96.664 16.12 96.664 14.84C96.664 13.56 95.64 12.536 94.36 12.536C93.08 12.536 92.056 13.56 92.056 14.84ZM126.232 0.311998C124.504 4.984 121.656 9.656 118.648 12.632C119.128 13.304 119.992 14.904 120.28 15.64C121.208 14.648 122.136 13.528 123.032 12.28V29.496H125.848V7.864C127.064 5.688 128.152 3.416 129.016 1.144L126.232 0.311998ZM132.056 14.008C131.256 17.688 129.816 21.368 127.928 23.736C128.6 24.088 129.912 24.856 130.456 25.336C132.344 22.712 134.008 18.68 134.968 14.552L132.056 14.008ZM145.432 8.856C145.24 10.392 145.016 11.896 144.792 12.984L147.32 13.464C147.736 11.672 148.312 8.856 148.728 6.424L146.648 6.008L146.168 6.104H134.072C134.712 4.44 135.256 2.712 135.704 0.952L132.76 0.311998C131.672 4.824 129.848 9.336 127.448 12.152C128.152 12.6 129.336 13.56 129.88 14.104C130.968 12.664 131.992 10.872 132.952 8.856H137.272V26.072C137.272 26.488 137.112 26.584 136.696 26.584C136.28 26.616 134.904 26.616 133.464 26.584C133.912 27.384 134.392 28.728 134.52 29.56C136.536 29.56 137.976 29.464 138.936 28.984C139.896 28.472 140.216 27.608 140.216 26.072V8.856H145.432ZM142.008 14.584C143.672 17.912 145.144 22.36 145.592 25.24L148.44 24.216C147.928 21.336 146.424 17.048 144.664 13.72L142.008 14.584ZM163.192 23.608V16.536H169.144V23.608H163.192ZM169.144 7.864V13.944H163.192V7.864H169.144ZM178.2 5.112C178.712 3.704 179.128 2.232 179.512 0.759998L176.632 0.0879993C175.672 4.312 173.976 8.568 171.864 11.32V5.272H166.744C167.256 3.928 167.864 2.232 168.408 0.631998L165.176 0.0879993C164.984 1.624 164.504 3.736 164.056 5.272H160.472V28.664H163.192V26.232H171.864V11.544C172.6 11.96 173.72 12.76 174.2 13.208C175.224 11.736 176.216 9.88 177.112 7.832H184.664C184.248 19.896 183.832 24.728 182.808 25.784C182.456 26.232 182.104 26.328 181.464 26.328C180.664 26.328 178.808 26.296 176.76 26.136C177.304 26.968 177.656 28.216 177.72 29.016C179.544 29.112 181.432 29.144 182.552 29.016C183.768 28.856 184.536 28.568 185.336 27.512C186.616 25.912 187 20.952 187.448 6.52C187.48 6.136 187.48 5.112 187.48 5.112H178.2ZM182.296 19.544C181.336 17.656 179.16 14.616 177.464 12.408L175.128 13.72C176.824 16.024 178.904 19.16 179.8 21.112L182.296 19.544ZM227.832 16.504H215V11.96H226.008V9.112H215V4.408C218.648 3.96 222.04 3.416 224.824 2.616L222.616 0.183998C217.624 1.624 208.6 2.456 201.048 2.808C201.336 3.448 201.72 4.664 201.752 5.4C204.984 5.272 208.472 5.048 211.896 4.76V9.112H201.208V11.96H211.896V16.504H199.032V19.416H211.896V25.656C211.896 26.328 211.64 26.552 210.936 26.552C210.2 26.584 207.64 26.584 205.08 26.488C205.56 27.288 206.136 28.632 206.328 29.432C209.624 29.464 211.8 29.4 213.112 28.92C214.456 28.472 215 27.64 215 25.688V19.416H227.832V16.504ZM255.8 14.264C255.544 13.08 254.904 11.096 254.264 9.624L252.472 10.104C252.664 10.648 252.888 11.256 253.08 11.864L250.52 12.184C252.12 10.232 253.784 7.736 255.16 5.272L253.016 4.472C252.696 5.176 252.344 5.88 251.96 6.552L249.976 6.744C251.032 5.176 252.088 3.16 252.952 1.176L250.744 0.535999C250.04 2.904 248.728 5.304 248.312 5.88C247.928 6.552 247.512 6.936 247.128 7.032C247.352 7.576 247.704 8.664 247.832 9.144C248.184 8.952 248.728 8.792 250.84 8.504C250.072 9.752 249.368 10.744 249.048 11.128C248.472 11.928 247.928 12.472 247.416 12.568C247.704 13.144 248.024 14.264 248.152 14.712C248.6 14.456 249.336 14.264 253.592 13.688C253.688 14.136 253.752 14.552 253.816 14.904L255.8 14.264ZM247.288 15.512C246.904 14.744 245.112 11.768 244.376 10.712V8.952H246.776V6.2H244.376V0.183998H241.816V6.2H238.712V8.952H241.656C240.92 12.856 239.448 17.4 237.944 19.832C238.36 20.6 238.968 21.912 239.192 22.808C240.152 21.08 241.048 18.456 241.816 15.672V29.528H244.376V14.104C245.016 15.384 245.624 16.76 245.912 17.592L247.288 15.512ZM263.224 18.936C262.616 20.216 261.752 21.432 260.76 22.52C260.312 21.496 259.96 20.216 259.608 18.84H267.032V16.504H264.44L265.272 15.704C264.632 15.064 263.32 14.168 262.328 13.528C263.064 13.4 263.992 13.272 265.208 13.08C265.336 13.592 265.464 14.072 265.56 14.456L267.416 13.816C267.128 12.6 266.392 10.616 265.752 9.144L264.024 9.624C264.216 10.136 264.44 10.744 264.664 11.288L262.072 11.608C263.64 9.656 265.24 7.16 266.552 4.664L264.344 3.864C264.056 4.6 263.704 5.272 263.32 5.976L261.432 6.168C262.36 4.728 263.32 2.872 264.056 1.08L261.848 0.471998C261.272 2.584 260.088 4.824 259.736 5.368C259.352 5.944 259 6.36 258.616 6.456C258.872 7 259.224 8.088 259.352 8.568C259.672 8.376 260.216 8.216 262.264 7.96C261.528 9.176 260.856 10.168 260.536 10.552C259.96 11.352 259.48 11.864 258.968 11.992C259.224 12.568 259.576 13.72 259.704 14.168C260.024 14.008 260.44 13.88 261.976 13.592L260.664 14.776C261.4 15.256 262.264 15.896 262.968 16.504H259.128C258.328 12.152 257.912 6.616 257.752 0.375999H255.256C255.448 6.488 255.864 11.992 256.6 16.504H247.416V18.84H249.656C249.624 21.56 248.888 25.112 245.176 27.8C245.72 28.12 246.776 29.048 247.16 29.56C249.784 27.576 251.128 25.048 251.704 22.584C252.824 23.544 253.912 24.568 254.552 25.304L256.376 23.512C255.48 22.52 253.624 20.984 252.152 19.832C252.184 19.512 252.184 19.16 252.184 18.84H257.048C257.496 20.984 258.072 22.84 258.744 24.376C257.144 25.656 255.192 26.712 253.048 27.48C253.56 27.992 254.264 28.856 254.616 29.4C256.568 28.664 258.36 27.672 259.96 26.52C261.24 28.344 262.808 29.368 264.792 29.528C266.136 29.592 267.256 28.504 267.928 24.76C267.448 24.504 266.456 23.8 266.008 23.256C265.752 25.528 265.368 26.68 264.76 26.616C263.704 26.52 262.808 25.88 262.008 24.824C263.512 23.384 264.792 21.752 265.72 19.864L263.224 18.936ZM283.416 17.368L284.376 14.2C285.144 11.64 285.88 9.048 286.552 6.36H286.68C287.416 9.016 288.12 11.64 288.92 14.2L289.848 17.368H283.416ZM292.728 27H296.664L288.856 3.448H284.568L276.76 27H280.536L282.552 20.28H290.744L292.728 27ZM310.063 27H313.775V6.552H320.719V3.448H303.151V6.552H310.063V27ZM332.474 27H335.802V15.352C335.802 13.24 335.514 10.2 335.354 8.056H335.482L337.338 13.496L341.466 24.728H343.77L347.866 13.496L349.754 8.056H349.882C349.69 10.2 349.402 13.24 349.402 15.352V27H352.858V3.448H348.57L344.314 15.352C343.77 16.92 343.322 18.52 342.778 20.12H342.618C342.074 18.52 341.594 16.92 341.05 15.352L336.73 3.448H332.474V27Z" fill="#153A71"/>
</svg>
