<svg width="276" height="78" viewBox="0 0 276 78" fill="none" xmlns="http://www.w3.org/2000/svg">
<path d="M 262.1 1 H 13.1 C 5.7 1 -0.4 10 -0.4 21 V 59 C -0.4 70 5.7 79 13.1 79 H 262.1 C 269.5 79 275.6 70 275.6 59 V 21 C 275.6 10 269.5 1 262.1 1 Z" fill="#f29600"/>
<path d="M 60.8 19.7 C 60.1 17.2 58.9 13.4 57.8 10.5 L 52.7 11.8 C 53.7 14.8 54.9 18.7 55.4 21.3 L 60.8 19.7 Z M 79.4 21.5 H 34.9 V 26.9 H 79.4 V 21.5 Z M 52.5 52.8 C 51.6 46.4 49.5 36.9 47.4 29.4 L 42.2 30.6 C 44.2 38.1 46.3 47.8 47.2 54.2 L 52.5 52.8 Z M 64.8 56.2 C 67.5 49.2 70.6 39.1 72.7 30.6 L 67 29.5 C 65.3 37.8 62.2 49.1 59.2 56.2 H 32.6 V 61.6 H 81.8 V 56.2 H 64.8 Z M 107.2 18.7 V 25.1 H 95.7 V 18.7 H 107.2 Z M 95.7 36.6 V 29.9 H 107.2 V 36.6 H 95.7 Z M 101.8 46 C 102.9 47.7 103.8 49.6 104.8 51.4 L 95.7 54.4 V 41.4 H 112.4 V 13.9 H 90.4 V 53.1 C 90.4 55.3 89.2 56.4 88.1 56.9 C 88.9 58.3 89.9 60.9 90.2 62.5 C 91.5 61.4 93.5 60.5 106.9 55.8 C 107.8 57.8 108.6 59.8 109.1 61.2 L 113.8 58.5 C 112.4 54.6 109 48.5 106.2 43.8 L 101.8 46 Z M 135.2 14.3 H 116.5 V 64 H 121.7 V 19.2 H 130.1 V 47.1 C 130.1 47.8 129.9 48.1 129.2 48.2 C 128.5 48.2 126.1 48.2 123.7 48.1 C 124.4 49.6 125.1 51.8 125.2 53.2 C 128.9 53.2 131.4 53.1 133.2 52.3 C 134.7 51.4 135.2 49.8 135.2 47.2 V 14.3 Z M 155.6 21.3 C 155.6 17.8 155.7 14.4 155.7 11.1 H 150.5 C 150.5 14.4 150.5 17.8 150.4 21.3 H 143.3 V 26.6 H 150.3 C 149.8 39.6 148.1 52.1 141.8 60 C 143.3 60.9 145 62.5 146 63.8 C 152.8 54.8 154.6 41 155.3 26.6 H 162 C 161.3 47 160.4 54.6 159 56.3 C 158.4 57.2 157.9 57.4 157.1 57.4 C 156 57.4 154.2 57.3 151.9 57.2 C 152.8 58.7 153.5 61.1 153.5 62.6 C 155.8 62.7 158.2 62.7 159.6 62.5 C 161.2 62.2 162.4 61.6 163.6 60 C 165.5 57.3 166.4 48.6 167.3 23.9 C 167.3 23.1 167.4 21.3 167.4 21.3 H 155.6 Z M 175.9 53.6 V 23 H 185 V 53.6 H 175.9 Z M 170.8 17.8 V 63 H 175.9 V 58.8 H 185 V 62.5 H 190.4 V 17.8 H 170.8 Z M 207.8 14.3 V 19.7 H 220.8 C 220.9 21.8 221.2 24.1 221.6 26.6 L 218.8 26.1 C 215.5 41.7 208.8 53.1 197 59.5 C 198.4 60.5 200.8 62.7 201.8 63.8 C 212 57.4 218.9 47.3 222.9 33.3 C 225.6 44 231.6 55.8 244.1 63.7 C 245 62.4 247.1 60.1 248.3 59.2 C 227.2 46.1 226 24.7 226 14.3 H 207.8 Z" fill="white"/>
</svg>
