<svg width="507" height="172" viewBox="0 0 507 172" fill="none" xmlns="http://www.w3.org/2000/svg">
<path d="M29.116 6.368V3.328H1.724V6.368H15.228C12.156 11.584 6.908 16.704 0.827998 19.68C1.468 20.32 2.396 21.536 2.876 22.336C7.004 20.16 10.716 17.12 13.788 13.696V30.496H17.02V9.664C17.788 8.576 18.46 7.456 19.132 6.368H29.116ZM17.148 13.152C20.796 15.744 25.532 19.552 27.676 22.016L30.172 19.712C27.836 17.248 22.972 13.632 19.388 11.232L17.148 13.152ZM48.444 9.856C46.62 13.76 43.484 17.568 40.188 19.936C40.892 20.448 42.076 21.472 42.652 22.048C43.74 21.12 44.892 20.032 45.948 18.816V30.528H48.892V15.008C49.82 13.664 50.684 12.224 51.42 10.752L48.444 9.856ZM51.388 1.184H48.476V4.192H41.052V7.008H48.476V9.856H51.388V7.008H54.524V4.192H51.388V1.184ZM58.908 9.984H61.884V6.976H69.084V4.192H61.884V1.184H58.908V4.192H55.644V6.976H58.908V9.984ZM60.38 27.36C58.876 27.36 58.62 27.104 58.62 25.76V18.112H69.052V15.296H58.62V10.304H55.676V25.76C55.676 29.184 56.604 30.112 60.028 30.112H65.5C68.604 30.112 69.404 28.64 69.756 23.744C68.956 23.52 67.74 23.04 67.068 22.528C66.876 26.528 66.652 27.36 65.244 27.36H60.38ZM93.532 8.384L98.076 7.968C98.524 9.152 99.036 10.208 99.612 11.136C97.468 12.128 95.036 12.896 92.604 13.44C93.116 13.92 93.948 14.976 94.3 15.552C96.572 14.912 98.876 14.08 101.052 13.056C102.492 14.592 104.252 15.488 106.14 15.488C108.156 15.488 109.02 14.72 109.404 11.552C108.764 11.392 107.932 11.008 107.388 10.528C107.26 12.416 107.036 13.056 106.268 13.056C105.276 13.056 104.316 12.576 103.388 11.712C104.924 10.752 106.332 9.664 107.356 8.416L104.86 7.584C104.092 8.448 103.132 9.248 101.948 9.952C101.532 9.312 101.148 8.576 100.796 7.744L109.116 7.04L108.924 4.704L105.308 5.024L106.78 3.264C105.884 2.56 104.124 1.728 102.748 1.184L101.34 2.784C102.716 3.392 104.444 4.32 105.308 5.024L100.06 5.44C99.708 4.128 99.484 2.72 99.42 1.216H96.764C96.86 2.784 97.084 4.288 97.436 5.664L93.34 6.016L93.532 8.384ZM100.924 16.672C102.428 17.28 104.412 18.208 105.404 18.848L106.844 17.056C105.82 16.384 103.836 15.584 102.364 15.072L100.924 16.672ZM87.612 17.248H91.708V14.72H87.612V11.68H90.684V9.184H83.484C84.54 8.032 85.532 6.752 86.396 5.376C88.316 6.688 90.268 8.288 91.452 9.568L92.732 7.104C91.548 5.952 89.628 4.48 87.676 3.264C87.9 2.816 88.124 2.4 88.316 1.984L86.14 0.959999C84.7 3.968 82.204 6.816 79.836 8.64C80.188 9.376 80.764 11.008 80.956 11.648C81.468 11.232 81.948 10.784 82.46 10.272V11.68H85.212V14.72H80.732V17.248H85.212V25.92C83.356 26.272 81.66 26.592 80.348 26.848L80.956 29.504C83.964 28.8 87.996 27.904 91.836 27.008L91.708 24.608C90.332 24.896 88.956 25.184 87.612 25.44V17.248ZM81.18 19.2C81.66 21.056 82.14 23.392 82.268 24.96L84.22 24.352C84.06 22.88 83.548 20.512 83.004 18.688L81.18 19.2ZM89.884 24.544C90.428 23.136 91.036 20.928 91.612 18.976L89.5 18.4C89.244 20.064 88.668 22.464 88.22 24L89.884 24.544ZM104.828 21.504C104.028 22.592 102.908 23.552 101.628 24.416C101.18 23.616 100.7 22.72 100.316 21.696L109.436 20.896L109.212 18.528L99.612 19.392C99.26 18.016 99.036 16.544 98.94 14.976H96.284C96.38 16.608 96.636 18.176 96.956 19.616L93.084 19.968L93.308 22.336L97.628 21.952C98.14 23.36 98.716 24.608 99.42 25.76C97.212 26.88 94.716 27.744 92.188 28.384C92.668 28.864 93.5 29.984 93.82 30.56C96.22 29.856 98.62 28.896 100.828 27.712C102.396 29.472 104.284 30.528 106.268 30.528C108.412 30.528 109.276 29.632 109.692 26.144C109.052 25.952 108.188 25.568 107.612 25.056C107.516 27.264 107.228 28.064 106.428 28.064C105.308 28.064 104.188 27.424 103.1 26.336C104.764 25.184 106.236 23.84 107.356 22.336L104.828 21.504ZM132.252 11.424L129.628 13.696C131.868 15.584 134.62 18.336 136.636 20.8L139.356 18.464C137.532 16.288 134.556 13.28 132.252 11.424ZM187.836 6.368V3.328H160.444V6.368H173.948C170.876 11.584 165.628 16.704 159.548 19.68C160.188 20.32 161.116 21.536 161.596 22.336C165.724 20.16 169.436 17.12 172.508 13.696V30.496H175.74V9.664C176.508 8.576 177.18 7.456 177.852 6.368H187.836ZM175.868 13.152C179.516 15.744 184.252 19.552 186.396 22.016L188.892 19.712C186.556 17.248 181.692 13.632 178.108 11.232L175.868 13.152ZM218.108 11.392H212.892V8.832H218.108V11.392ZM218.108 16.544H212.892V13.856H218.108V16.544ZM218.108 21.728H212.892V18.976H218.108V21.728ZM210.012 25.888H212.892V24.256H228.06V21.728H220.956V18.976H226.396V16.544H220.956V13.856H226.46V11.392H220.956V8.832H227.612V6.304H222.268C221.82 4.992 220.924 3.2 220.124 1.824L217.34 2.592C217.948 3.744 218.588 5.12 219.004 6.304H213.436C214.14 4.896 214.812 3.456 215.324 1.984L212.636 1.184C211.292 5.088 208.956 8.8 206.268 11.168C206.78 11.84 207.644 13.248 207.932 13.824C208.668 13.184 209.34 12.416 210.012 11.584V25.888ZM205.404 6.432C204.988 5.056 204.252 2.912 203.644 1.248L201.052 2.048C201.532 3.744 202.332 5.984 202.716 7.392L205.404 6.432ZM206.108 15.712L205.692 15.84H203.9C204.668 13.6 205.596 11.008 206.268 8.736H199.388V11.424H202.62C201.788 13.92 200.86 16.512 200.06 18.4H204.188C203.676 20.576 202.94 22.88 202.076 24.608C201.084 25.248 199.932 26.496 198.844 27.936L200.86 30.688C201.724 28.736 202.844 26.656 203.548 26.656C204.252 26.656 205.404 27.776 206.684 28.512C209.02 29.856 211.772 30.208 215.964 30.208C219.708 30.208 225.564 30.016 228.028 29.856C228.092 29.056 228.572 27.584 228.924 26.784C225.372 27.232 219.964 27.52 216.092 27.52C212.316 27.52 209.404 27.328 207.196 25.984C206.14 25.344 205.468 24.8 204.86 24.48C206.012 22.08 206.876 19.072 207.484 16.224L206.108 15.712ZM263.964 11.392C265.276 11.392 266.748 11.328 267.452 11.168C267.324 10.496 267.228 9.568 267.132 8.736C266.428 8.864 264.796 8.96 263.772 8.96H257.372C256.22 8.96 255.996 8.544 255.996 7.52V6.048H265.948V3.648H255.996V1.248H253.02V7.488C253.02 10.272 253.852 11.392 257.148 11.392H263.964ZM244.668 11.648H247.516V5.216C248.732 4.224 249.852 3.136 250.748 1.984L248.092 0.959999C245.948 3.52 242.3 5.952 238.876 7.424C239.516 7.936 240.572 8.992 241.02 9.568C242.236 8.96 243.452 8.192 244.668 7.392V11.648ZM248.572 25.376C246.364 26.624 242.556 27.744 239.26 28.384C239.932 28.928 240.988 30.016 241.5 30.624C244.7 29.728 248.732 28.192 251.324 26.624L248.572 25.376ZM246.172 21.6H261.18V23.456H246.172V21.6ZM246.172 17.984H261.18V19.776H246.172V17.984ZM246.172 14.368H261.18V16.192H246.172V14.368ZM264.156 25.344V12.48H243.292V25.344H258.14L256.316 26.848C259.612 27.968 263.004 29.44 264.956 30.496L267.516 28.8C265.34 27.776 261.82 26.432 258.556 25.344H264.156ZM290.972 11.424L288.348 13.696C290.588 15.584 293.34 18.336 295.356 20.8L298.076 18.464C296.252 16.288 293.276 13.28 290.972 11.424ZM346.556 6.368V3.328H319.164V6.368H332.668C329.596 11.584 324.348 16.704 318.268 19.68C318.908 20.32 319.836 21.536 320.316 22.336C324.444 20.16 328.156 17.12 331.228 13.696V30.496H334.46V9.664C335.228 8.576 335.9 7.456 336.572 6.368H346.556ZM334.588 13.152C338.236 15.744 342.972 19.552 345.116 22.016L347.612 19.712C345.276 17.248 340.412 13.632 336.828 11.232L334.588 13.152ZM367.996 18.944V14.656H370.94V18.944H367.996ZM376.54 14.656V18.944H373.532V14.656H376.54ZM375.484 22.464C375.964 23.168 376.476 24 376.924 24.832L373.532 25.056V21.28H378.972V12.32H373.532V9.696H379.324V7.296H365.34V9.696H370.94V12.32H365.66V21.28H370.94V25.216C368.284 25.376 365.852 25.536 363.932 25.632L364.156 28.288C367.836 28.032 372.988 27.648 378.012 27.264C378.364 28.096 378.62 28.928 378.78 29.6L381.244 28.736C380.764 26.784 379.292 23.872 377.788 21.728L375.484 22.464ZM361.308 2.72V13.248C361.308 18.08 361.02 24.512 357.66 28.992C358.364 29.312 359.58 30.112 360.092 30.624C363.612 25.856 364.156 18.496 364.156 13.248V5.472H380.668C380.732 19.2 380.732 30.56 384.892 30.56C386.652 30.56 387.196 28.864 387.484 24.896C386.94 24.384 386.268 23.456 385.788 22.624C385.724 25.28 385.532 27.36 385.212 27.36C383.516 27.36 383.516 14.816 383.612 2.72H361.308ZM404.924 6.88V19.808H401.34V6.88H404.924ZM407.74 22.688V14.592C408.508 15.008 409.66 15.744 410.172 16.16C411.516 14.4 412.636 12.128 413.596 9.568H423.1C422.652 11.552 422.076 13.632 421.5 15.04L424.06 15.872C425.084 13.696 426.108 10.24 426.844 7.2L424.604 6.56L424.092 6.688H414.588C415.036 5.088 415.452 3.392 415.804 1.696L412.828 1.184C411.932 6.24 410.204 11.136 407.74 14.272V4H398.524V25.184H401.34V22.688H407.74ZM418.492 11.84H415.58V14.432C415.58 18.496 414.812 24.352 406.46 28.32C407.132 28.832 408.092 29.888 408.508 30.56C413.66 28.032 416.188 24.736 417.404 21.472C419.004 25.6 421.404 28.736 425.148 30.432C425.532 29.632 426.46 28.448 427.1 27.872C422.364 26.08 419.676 21.568 418.46 16C418.492 15.488 418.492 14.976 418.492 14.496V11.84ZM443.804 27.968C445.66 26.496 447.836 24.704 449.788 22.944L448.764 20.864C446.396 22.624 443.932 24.416 442.332 25.44L443.804 27.968ZM442.748 15.488C444.54 16.8 446.876 18.72 448.028 19.936L449.82 18.016C448.636 16.864 446.236 15.04 444.444 13.792L442.748 15.488ZM461.244 25.28C460.028 24.128 457.628 22.208 455.804 20.928L454.012 22.496C455.868 23.872 458.236 25.856 459.388 27.072L461.244 25.28ZM459.804 13.888C458.332 15.232 455.804 17.12 454.076 18.144L455.42 20C457.212 18.976 459.676 17.376 461.468 15.936L459.804 13.888ZM466.14 5.984V3.072H437.66V5.984H450.524V9.664H439.1V30.496H441.948V12.448H450.524V30.144H453.468V12.448H461.916V27.04C461.916 27.552 461.756 27.712 461.212 27.744C460.7 27.744 458.812 27.776 456.956 27.712C457.404 28.416 457.82 29.6 457.948 30.336C460.508 30.336 462.3 30.304 463.388 29.856C464.476 29.44 464.86 28.64 464.86 27.072V9.664H453.468V5.984H466.14ZM488.764 14.56L484.7 15.648V10.208H488.764V7.392H484.7V1.184H481.692V7.392H477.212V10.208H481.692V16.416C479.9 16.896 478.268 17.312 476.924 17.632L477.756 20.576L481.692 19.488V26.848C481.692 27.296 481.532 27.456 481.084 27.456C480.7 27.488 479.324 27.488 477.916 27.424C478.3 28.224 478.716 29.472 478.812 30.24C481.052 30.24 482.428 30.176 483.42 29.664C484.348 29.216 484.7 28.416 484.7 26.88V18.624L489.116 17.376L488.764 14.56ZM506.3 3.712H489.052V6.688H497.66V26.4C497.66 26.976 497.436 27.168 496.828 27.2C496.124 27.2 493.788 27.232 491.644 27.104C492.092 28 492.668 29.472 492.828 30.368C495.804 30.368 497.852 30.304 499.132 29.76C500.412 29.248 500.86 28.288 500.86 26.4V6.688H506.3V3.712ZM69.5 52.408C68.22 51.32 65.66 49.656 63.868 48.568L62.012 50.552C63.868 51.768 66.396 53.528 67.58 54.648L69.5 52.408ZM67.516 60.664C66.268 59.704 63.804 58.264 62.076 57.336L60.348 59.416C62.108 60.472 64.54 62.008 65.724 62.968L67.516 60.664ZM64.124 76.888C65.628 73.976 67.292 70.264 68.572 67.096L66.172 65.304C64.732 68.792 62.812 72.76 61.404 75.128L64.124 76.888ZM74.716 67.48C77.084 67.8 80.06 68.6 81.66 69.304L82.588 67.256C80.956 66.584 77.948 65.88 75.644 65.656L74.716 67.48ZM74.044 64.408H83.356V69.112C79.772 69.88 76.22 70.584 73.724 71.064C73.98 69.496 74.044 67.96 74.044 66.648V64.408ZM86.172 62.104H71.26V66.616C71.26 69.432 71.004 73.304 68.828 76.152C69.468 76.472 70.684 77.272 71.196 77.752C72.636 75.864 73.34 73.432 73.724 71.064L74.62 73.336C77.084 72.824 80.252 72.056 83.356 71.352V74.712C83.356 75.096 83.228 75.224 82.812 75.224C82.396 75.256 80.892 75.256 79.452 75.192C79.804 75.832 80.156 76.856 80.284 77.56C82.46 77.56 83.964 77.528 84.924 77.144C85.884 76.76 86.172 76.056 86.172 74.712V62.104ZM74.14 51.608H83.228V53.464H77.34V57.816H74.14V51.608ZM83.228 57.816H79.772V55.384H83.228V57.816ZM86.012 57.816V49.272H71.452V57.816H68.284V63.448H71.004V60.152H86.46V63.448H89.308V57.816H86.012ZM109.18 52.408C107.9 51.32 105.34 49.656 103.548 48.568L101.692 50.552C103.548 51.768 106.076 53.528 107.26 54.648L109.18 52.408ZM107.196 60.664C105.948 59.704 103.484 58.264 101.756 57.336L100.028 59.416C101.788 60.472 104.22 62.008 105.404 62.968L107.196 60.664ZM103.804 76.888C105.308 73.976 106.972 70.264 108.252 67.096L105.852 65.304C104.412 68.792 102.492 72.76 101.084 75.128L103.804 76.888ZM114.396 67.48C116.764 67.8 119.74 68.6 121.34 69.304L122.268 67.256C120.636 66.584 117.628 65.88 115.324 65.656L114.396 67.48ZM113.724 64.408H123.036V69.112C119.452 69.88 115.9 70.584 113.404 71.064C113.66 69.496 113.724 67.96 113.724 66.648V64.408ZM125.852 62.104H110.94V66.616C110.94 69.432 110.684 73.304 108.508 76.152C109.148 76.472 110.364 77.272 110.876 77.752C112.316 75.864 113.02 73.432 113.404 71.064L114.3 73.336C116.764 72.824 119.932 72.056 123.036 71.352V74.712C123.036 75.096 122.908 75.224 122.492 75.224C122.076 75.256 120.572 75.256 119.132 75.192C119.484 75.832 119.836 76.856 119.964 77.56C122.14 77.56 123.644 77.528 124.604 77.144C125.564 76.76 125.852 76.056 125.852 74.712V62.104ZM113.82 51.608H122.908V53.464H117.02V57.816H113.82V51.608ZM122.908 57.816H119.452V55.384H122.908V57.816ZM125.692 57.816V49.272H111.132V57.816H107.964V63.448H110.684V60.152H126.14V63.448H128.988V57.816H125.692ZM168.732 64.504H155.9V59.96H166.908V57.112H155.9V52.408C159.548 51.96 162.94 51.416 165.724 50.616L163.516 48.184C158.524 49.624 149.5 50.456 141.948 50.808C142.236 51.448 142.62 52.664 142.652 53.4C145.884 53.272 149.372 53.048 152.796 52.76V57.112H142.108V59.96H152.796V64.504H139.932V67.416H152.796V73.656C152.796 74.328 152.54 74.552 151.836 74.552C151.1 74.584 148.54 74.584 145.98 74.488C146.46 75.288 147.036 76.632 147.228 77.432C150.524 77.464 152.7 77.4 154.012 76.92C155.356 76.472 155.9 75.64 155.9 73.688V67.416H168.732V64.504ZM196.7 62.264C196.444 61.08 195.804 59.096 195.164 57.624L193.372 58.104C193.564 58.648 193.788 59.256 193.98 59.864L191.42 60.184C193.02 58.232 194.684 55.736 196.06 53.272L193.916 52.472C193.596 53.176 193.244 53.88 192.86 54.552L190.876 54.744C191.932 53.176 192.988 51.16 193.852 49.176L191.644 48.536C190.94 50.904 189.628 53.304 189.212 53.88C188.828 54.552 188.412 54.936 188.028 55.032C188.252 55.576 188.604 56.664 188.732 57.144C189.084 56.952 189.628 56.792 191.74 56.504C190.972 57.752 190.268 58.744 189.948 59.128C189.372 59.928 188.828 60.472 188.316 60.568C188.604 61.144 188.924 62.264 189.052 62.712C189.5 62.456 190.236 62.264 194.492 61.688C194.588 62.136 194.652 62.552 194.716 62.904L196.7 62.264ZM188.188 63.512C187.804 62.744 186.012 59.768 185.276 58.712V56.952H187.676V54.2H185.276V48.184H182.716V54.2H179.612V56.952H182.556C181.82 60.856 180.348 65.4 178.844 67.832C179.26 68.6 179.868 69.912 180.092 70.808C181.052 69.08 181.948 66.456 182.716 63.672V77.528H185.276V62.104C185.916 63.384 186.524 64.76 186.812 65.592L188.188 63.512ZM204.124 66.936C203.516 68.216 202.652 69.432 201.66 70.52C201.212 69.496 200.86 68.216 200.508 66.84H207.932V64.504H205.34L206.172 63.704C205.532 63.064 204.22 62.168 203.228 61.528C203.964 61.4 204.892 61.272 206.108 61.08C206.236 61.592 206.364 62.072 206.46 62.456L208.316 61.816C208.028 60.6 207.292 58.616 206.652 57.144L204.924 57.624C205.116 58.136 205.34 58.744 205.564 59.288L202.972 59.608C204.54 57.656 206.14 55.16 207.452 52.664L205.244 51.864C204.956 52.6 204.604 53.272 204.22 53.976L202.332 54.168C203.26 52.728 204.22 50.872 204.956 49.08L202.748 48.472C202.172 50.584 200.988 52.824 200.636 53.368C200.252 53.944 199.9 54.36 199.516 54.456C199.772 55 200.124 56.088 200.252 56.568C200.572 56.376 201.116 56.216 203.164 55.96C202.428 57.176 201.756 58.168 201.436 58.552C200.86 59.352 200.38 59.864 199.868 59.992C200.124 60.568 200.476 61.72 200.604 62.168C200.924 62.008 201.34 61.88 202.876 61.592L201.564 62.776C202.3 63.256 203.164 63.896 203.868 64.504H200.028C199.228 60.152 198.812 54.616 198.652 48.376H196.156C196.348 54.488 196.764 59.992 197.5 64.504H188.316V66.84H190.556C190.524 69.56 189.788 73.112 186.076 75.8C186.62 76.12 187.676 77.048 188.06 77.56C190.684 75.576 192.028 73.048 192.604 70.584C193.724 71.544 194.812 72.568 195.452 73.304L197.276 71.512C196.38 70.52 194.524 68.984 193.052 67.832C193.084 67.512 193.084 67.16 193.084 66.84H197.948C198.396 68.984 198.972 70.84 199.644 72.376C198.044 73.656 196.092 74.712 193.948 75.48C194.46 75.992 195.164 76.856 195.516 77.4C197.468 76.664 199.26 75.672 200.86 74.52C202.14 76.344 203.708 77.368 205.692 77.528C207.036 77.592 208.156 76.504 208.828 72.76C208.348 72.504 207.356 71.8 206.908 71.256C206.652 73.528 206.268 74.68 205.66 74.616C204.604 74.52 203.708 73.88 202.908 72.824C204.412 71.384 205.692 69.752 206.62 67.864L204.124 66.936ZM231.004 69.368C234.652 68.184 236.892 65.432 236.892 61.88C236.892 59.448 235.836 57.88 233.82 57.88C232.348 57.88 231.1 58.808 231.1 60.44C231.1 62.104 232.348 63 233.788 63C233.948 63 234.108 63 234.236 62.968C234.076 64.888 232.636 66.36 230.172 67.288L231.004 69.368ZM271.74 48.696V51.448H277.116C278.332 54.552 280.22 57.528 282.556 59.992H264.124C266.428 57.24 268.316 53.784 269.596 49.976L266.492 49.24C264.956 54.072 262.076 58.36 258.396 60.952C259.132 61.464 260.38 62.552 260.924 63.16C261.82 62.424 262.716 61.592 263.548 60.664V62.872H269.564C268.86 67.96 267.164 72.6 259.772 75.064C260.476 75.672 261.34 76.92 261.692 77.72C269.884 74.712 271.964 69.08 272.796 62.872H280.156C279.836 70.328 279.42 73.336 278.684 74.104C278.332 74.456 277.948 74.552 277.34 74.552C276.572 74.552 274.748 74.52 272.828 74.328C273.34 75.192 273.756 76.44 273.788 77.336C275.74 77.432 277.692 77.464 278.748 77.336C279.9 77.176 280.668 76.92 281.372 76.024C282.492 74.776 282.908 71.064 283.324 61.336C283.324 61.208 283.356 60.984 283.356 60.792C284.252 61.656 285.244 62.424 286.268 63.096C286.748 62.232 287.74 60.984 288.412 60.376C284.156 58.072 280.828 53.528 279.324 48.696H271.74ZM326.812 50.744H314.844C314.524 49.848 314.076 48.76 313.628 47.928L310.556 48.472C310.876 49.176 311.228 49.976 311.484 50.744H299.164V53.272H326.812V50.744ZM306.012 57.208H320.06V59.608H306.012V57.208ZM323.196 61.72V55.064H303.068V61.72H323.196ZM327.26 69.016H314.524V68.6C318.012 67.672 321.5 66.36 324.156 64.92L322.268 63.224L321.564 63.352H320.764V63.384H301.852V65.72H316.828C315.132 66.36 313.18 66.904 311.388 67.32L311.42 67.352H311.388V69.016H298.844V71.544H311.388V74.52C311.388 75 311.196 75.128 310.588 75.16C310.076 75.16 307.74 75.192 305.724 75.096C306.14 75.8 306.588 76.792 306.78 77.56C309.564 77.56 311.516 77.56 312.796 77.208C314.076 76.856 314.524 76.184 314.524 74.648V71.544H327.26V69.016ZM345.404 55.448H341.724V52.056H345.404V55.448ZM345.404 61.208H341.724V57.72H345.404V61.208ZM345.404 67.032H341.724V63.512H345.404V67.032ZM347.868 49.656H339.356V69.432H347.868V49.656ZM340.956 70.232C340.188 72.088 339.036 74.232 337.948 75.704C338.556 76.024 339.548 76.664 339.996 77.08C341.084 75.48 342.428 73.048 343.292 70.936L340.956 70.232ZM355.388 66.36V64.024H358.076V66.36H355.388ZM355.388 59.608H358.076V61.752H355.388V59.608ZM355.388 55.32H358.076V57.4H355.388V55.32ZM362.972 59.608V61.752H360.572V59.608H362.972ZM362.972 66.36H360.572V64.024H362.972V66.36ZM365.372 68.536V64.024H367.356V61.752H365.372V57.4H360.572V55.32H366.428V53.08H361.244C362.14 51.96 363.164 50.616 364.06 49.336L361.34 48.184C360.636 49.656 359.42 51.64 358.428 53.08H353.628L355.708 52.152C355.26 51.096 354.3 49.432 353.5 48.184L351.004 49.208C351.74 50.424 352.572 52.024 353.02 53.08H348.892V55.32H352.956V57.4H349.18V59.608H352.956V61.752H348.444V64.024H352.956V66.36H349.052V68.536H351.996C351.036 70.488 349.724 72.376 348.38 73.72C347.836 72.728 346.972 71.288 346.108 70.232L344.22 71.288C344.988 72.472 345.98 74.072 346.428 75.128L347.676 74.328L347.356 74.584C347.932 75.096 348.764 76.024 349.148 76.696C350.556 75.48 351.9 73.56 352.956 71.416V77.496H355.388V68.536H358.076V77.496H360.572V70.936C362.076 73.24 363.964 75.352 365.692 76.664C366.14 75.992 366.908 75.064 367.484 74.584C365.404 73.304 363.164 70.936 361.564 68.536H365.372ZM382.716 60.088H384.924V66.264H387.612V48.248H384.924V53.272H381.884V48.952H379.388V55.608H384.924V57.752H377.98V60.088H380.06V60.184C380.06 61.432 379.74 63.8 377.788 65.304C378.46 65.624 379.548 66.232 380.092 66.648C382.236 64.824 382.716 61.848 382.716 60.28V60.088ZM402.012 51.512C401.212 52.376 400.188 53.144 399.004 53.816C398.3 53.016 397.436 52.216 396.54 51.512H402.012ZM407.004 70.84V68.376H401.308L402.012 67.64C401.436 67.032 400.348 66.2 399.356 65.496C400.252 65.464 400.956 65.4 401.532 65.176C402.428 64.824 402.684 64.248 402.684 62.968V60.312H406.524V58.296H402.684V56.056H399.868V58.296H390.684C397.052 57.304 402.908 55.224 405.596 50.488L404.028 49.656L403.548 49.752H398.332C398.876 49.368 399.324 48.984 399.804 48.6L397.308 48.024C395.612 49.4 392.668 50.68 388.828 51.576C389.34 51.96 390.044 52.728 390.364 53.272C391.772 52.856 393.084 52.408 394.3 51.928C395.324 52.728 396.38 53.784 397.148 54.648C394.62 55.672 391.644 56.312 388.636 56.632C389.02 57.048 389.5 57.752 389.724 58.296H388.732V60.312H392.22L390.94 61.304C392.156 62.104 393.596 63.352 394.268 64.28L396.188 62.712C395.612 61.976 394.492 61.016 393.372 60.312H399.868V62.872C399.868 63.224 399.74 63.288 399.388 63.32C399.036 63.352 397.788 63.352 396.508 63.288C396.86 63.96 397.212 64.824 397.308 65.528H398.46L397.436 66.52C398.172 67.032 399.1 67.736 399.772 68.376H393.66C393.724 68.024 393.724 67.704 393.724 67.384V65.304H390.78V67.32C390.78 67.64 390.748 67.992 390.684 68.376H377.852V70.84H389.308C387.644 72.536 384.284 74.2 377.596 75.224C378.204 75.896 378.94 76.984 379.292 77.656C388.092 76.216 391.612 73.496 392.988 70.84H394.236L393.244 72.344C397.308 73.848 402.94 76.152 405.724 77.528L407.132 75.16C404.508 73.976 399.772 72.184 395.996 70.84H407.004ZM394.812 53.432C392.796 53.56 391.1 53.688 389.628 53.752L389.884 55.416C391.452 55.256 393.084 55.128 394.844 54.936L394.812 53.432ZM425.66 57.528C428.06 56.088 430.236 54.36 432.092 52.344C434.012 54.264 436.38 56.024 438.876 57.528H425.66ZM440.316 60.28V58.328C441.916 59.224 443.516 59.96 445.084 60.536C445.532 59.736 446.46 58.552 447.132 57.944C442.332 56.504 436.956 53.464 433.82 50.328C434.108 49.944 434.364 49.528 434.652 49.112L431.868 47.864C428.828 52.568 423.036 56.088 417.084 57.912C417.82 58.648 418.652 59.8 419.068 60.664C420.668 60.088 422.204 59.416 423.708 58.616V60.28H430.396V64.152H419.836V66.84H430.396V73.976H418.364V76.696H445.82V73.976H433.564V66.84H444.284V64.152H433.564V60.28H440.316ZM438.268 73.848C439.356 72.408 440.764 70.232 441.98 68.216L439.1 67.16C438.428 68.92 437.084 71.352 435.996 72.888L438.268 73.848ZM422.268 68.12C423.42 69.912 424.668 72.312 425.116 73.816L427.708 72.696C427.196 71.192 425.916 68.856 424.7 67.16L422.268 68.12ZM22.652 160.584V163.208H8.22V160.584H22.652ZM8.22 168.136V165.48H22.652V168.136H8.22ZM5.308 171.496H8.22V170.472H22.652V171.368H25.692V158.28H5.308V171.496ZM13.596 148.328H17.052V154.12H13.596V148.328ZM19.868 154.12V148.328H28.188V145.896H22.14C22.78 145.032 23.42 144.008 23.996 142.984L21.052 142.056C20.572 143.208 19.644 144.776 18.908 145.896H10.3L11.612 145.32C11.26 144.36 10.332 143.048 9.404 142.056L6.812 143.048C7.516 143.88 8.22 145 8.668 145.896H2.908V148.328H10.844V154.12H1.148V156.584H29.756V154.12H19.868ZM4.188 149.384C5.18 150.824 6.076 152.776 6.428 154.056L8.988 153.032C8.636 151.72 7.676 149.832 6.62 148.456L4.188 149.384ZM23.836 154.024C24.7 152.808 25.692 150.984 26.556 149.224L23.836 148.392C23.324 149.864 22.3 151.944 21.532 153.256L23.836 154.024ZM44.86 167.848V145.8H68.828V143.304H41.948V170.312H43.804V170.344H69.436V167.848H44.86ZM60.508 154.376H56.412V152.168H60.508V154.376ZM60.508 158.728H56.412V156.52H60.508V158.728ZM60.508 163.272H56.412V160.872H60.508V163.272ZM56.412 166.824V165.608H68.508V163.272H63.196V160.872H67.42V158.728H63.196V156.52H67.42V154.376H63.196V152.168H68.412V149.832H64.22C63.868 148.808 63.228 147.432 62.588 146.44L59.964 147.176C60.38 148.008 60.828 148.936 61.18 149.832H56.86C57.372 148.808 57.788 147.752 58.172 146.696L55.74 145.992C54.62 149.192 52.796 152.296 50.684 154.408C49.66 153.544 47.932 152.552 46.524 151.912L44.988 153.672C46.556 154.44 48.412 155.688 49.34 156.648L50.62 155.112C51.1 155.688 51.74 156.552 52.028 157C52.636 156.392 53.212 155.688 53.788 154.952V166.824H56.412ZM47.996 166.6C49.34 164.456 50.78 161.864 51.932 159.624L50.204 157.8C48.86 160.328 47.132 163.048 45.948 164.712L47.996 166.6ZM52.444 148.968C51.484 148.072 49.628 146.888 48.156 146.216L46.556 147.944C48.06 148.744 49.884 149.96 50.748 150.888L52.444 148.968ZM109.212 158.504H96.38V153.96H107.388V151.112H96.38V146.408C100.028 145.96 103.42 145.416 106.204 144.616L103.996 142.184C99.004 143.624 89.98 144.456 82.428 144.808C82.716 145.448 83.1 146.664 83.132 147.4C86.364 147.272 89.852 147.048 93.276 146.76V151.112H82.588V153.96H93.276V158.504H80.412V161.416H93.276V167.656C93.276 168.328 93.02 168.552 92.316 168.552C91.58 168.584 89.02 168.584 86.46 168.488C86.94 169.288 87.516 170.632 87.708 171.432C91.004 171.464 93.18 171.4 94.492 170.92C95.836 170.472 96.38 169.64 96.38 167.688V161.416H109.212V158.504ZM137.18 156.264C136.924 155.08 136.284 153.096 135.644 151.624L133.852 152.104C134.044 152.648 134.268 153.256 134.46 153.864L131.9 154.184C133.5 152.232 135.164 149.736 136.54 147.272L134.396 146.472C134.076 147.176 133.724 147.88 133.34 148.552L131.356 148.744C132.412 147.176 133.468 145.16 134.332 143.176L132.124 142.536C131.42 144.904 130.108 147.304 129.692 147.88C129.308 148.552 128.892 148.936 128.508 149.032C128.732 149.576 129.084 150.664 129.212 151.144C129.564 150.952 130.108 150.792 132.22 150.504C131.452 151.752 130.748 152.744 130.428 153.128C129.852 153.928 129.308 154.472 128.796 154.568C129.084 155.144 129.404 156.264 129.532 156.712C129.98 156.456 130.716 156.264 134.972 155.688C135.068 156.136 135.132 156.552 135.196 156.904L137.18 156.264ZM128.668 157.512C128.284 156.744 126.492 153.768 125.756 152.712V150.952H128.156V148.2H125.756V142.184H123.196V148.2H120.092V150.952H123.036C122.3 154.856 120.828 159.4 119.324 161.832C119.74 162.6 120.348 163.912 120.572 164.808C121.532 163.08 122.428 160.456 123.196 157.672V171.528H125.756V156.104C126.396 157.384 127.004 158.76 127.292 159.592L128.668 157.512ZM144.604 160.936C143.996 162.216 143.132 163.432 142.14 164.52C141.692 163.496 141.34 162.216 140.988 160.84H148.412V158.504H145.82L146.652 157.704C146.012 157.064 144.7 156.168 143.708 155.528C144.444 155.4 145.372 155.272 146.588 155.08C146.716 155.592 146.844 156.072 146.94 156.456L148.796 155.816C148.508 154.6 147.772 152.616 147.132 151.144L145.404 151.624C145.596 152.136 145.82 152.744 146.044 153.288L143.452 153.608C145.02 151.656 146.62 149.16 147.932 146.664L145.724 145.864C145.436 146.6 145.084 147.272 144.7 147.976L142.812 148.168C143.74 146.728 144.7 144.872 145.436 143.08L143.228 142.472C142.652 144.584 141.468 146.824 141.116 147.368C140.732 147.944 140.38 148.36 139.996 148.456C140.252 149 140.604 150.088 140.732 150.568C141.052 150.376 141.596 150.216 143.644 149.96C142.908 151.176 142.236 152.168 141.916 152.552C141.34 153.352 140.86 153.864 140.348 153.992C140.604 154.568 140.956 155.72 141.084 156.168C141.404 156.008 141.82 155.88 143.356 155.592L142.044 156.776C142.78 157.256 143.644 157.896 144.348 158.504H140.508C139.708 154.152 139.292 148.616 139.132 142.376H136.636C136.828 148.488 137.244 153.992 137.98 158.504H128.796V160.84H131.036C131.004 163.56 130.268 167.112 126.556 169.8C127.1 170.12 128.156 171.048 128.54 171.56C131.164 169.576 132.508 167.048 133.084 164.584C134.204 165.544 135.292 166.568 135.932 167.304L137.756 165.512C136.86 164.52 135.004 162.984 133.532 161.832C133.564 161.512 133.564 161.16 133.564 160.84H138.428C138.876 162.984 139.452 164.84 140.124 166.376C138.524 167.656 136.572 168.712 134.428 169.48C134.94 169.992 135.644 170.856 135.996 171.4C137.948 170.664 139.74 169.672 141.34 168.52C142.62 170.344 144.188 171.368 146.172 171.528C147.516 171.592 148.636 170.504 149.308 166.76C148.828 166.504 147.836 165.8 147.388 165.256C147.132 167.528 146.748 168.68 146.14 168.616C145.084 168.52 144.188 167.88 143.388 166.824C144.892 165.384 146.172 163.752 147.1 161.864L144.604 160.936ZM187.868 148.168C187.26 146.856 185.82 144.904 184.54 143.496L182.588 144.616C183.836 146.12 185.212 148.168 185.788 149.512L187.868 148.168ZM174.364 145.928H169.372C169.02 144.808 168.348 143.272 167.772 142.088L165.052 142.696C165.5 143.656 165.98 144.904 166.3 145.928H159.9V148.552H174.364V145.928ZM162.396 160.104C161.852 162.76 160.892 165.448 159.58 167.272C160.188 167.592 161.212 168.296 161.692 168.68C163.004 166.696 164.156 163.624 164.892 160.648L162.396 160.104ZM164.06 153.064H170.428V156.424H164.06V153.064ZM173.148 158.76V150.728H161.468V158.76H166.14V168.488C166.14 168.808 166.044 168.904 165.692 168.904C165.372 168.904 164.348 168.904 163.292 168.872C163.644 169.544 164.028 170.632 164.124 171.336C165.788 171.336 166.908 171.304 167.772 170.888C168.604 170.504 168.796 169.768 168.796 168.552V158.76H173.148ZM169.724 160.712C170.716 162.472 171.644 164.808 171.964 166.376L174.236 165.352C173.852 163.816 172.86 161.48 171.836 159.752L169.724 160.712ZM184.476 168.584C184.22 168.584 183.996 168.52 183.836 168.424C183.676 168.296 183.644 167.912 183.644 167.304V155.112H181.212C181.276 154.408 181.372 153.704 181.436 153H188.636V150.312H181.596C181.756 147.56 181.788 144.808 181.82 142.216H179.004C179.004 144.808 179.004 147.56 178.844 150.312H174.748V153H178.684C178.14 159.496 176.572 165.768 172.092 169.736C172.86 170.184 173.756 170.984 174.236 171.56C178.332 167.752 180.188 162.152 181.052 156.2V167.08C181.052 169.192 181.276 169.768 181.788 170.216C182.332 170.664 183.164 170.856 183.868 170.856H185.884C186.46 170.856 187.26 170.76 187.74 170.504C188.252 170.248 188.604 169.8 188.86 169.128C189.052 168.456 189.18 166.792 189.244 165.32C188.444 165.064 187.452 164.584 186.908 164.072C186.908 165.704 186.876 166.984 186.78 167.56C186.684 168.072 186.556 168.36 186.364 168.424C186.204 168.552 185.916 168.584 185.596 168.584H184.476ZM205.916 142.28C204.316 146.952 201.628 151.624 198.748 154.632C199.26 155.304 200.124 156.904 200.38 157.64C201.212 156.744 201.98 155.752 202.748 154.696V171.464H205.564V150.088C206.78 147.88 207.868 145.512 208.7 143.144L205.916 142.28ZM211.9 151.08H216.38V153.736H211.9V151.08ZM218.652 146.696C218.204 147.432 217.596 148.232 217.052 148.84H211.612C212.284 148.136 212.828 147.4 213.404 146.696H218.652ZM223.772 153.736H219.068V151.08H223.772V153.736ZM224.988 156.424C223.644 157.384 221.468 158.696 219.58 159.656C218.876 158.376 217.98 157.192 216.764 156.232L217.084 155.944H226.524V148.84H220.124C220.988 147.816 221.852 146.664 222.556 145.544L220.828 144.264L220.252 144.424H214.908C215.26 143.848 215.58 143.272 215.868 142.696L213.116 142.184C211.804 144.808 209.404 148.04 206.012 150.408C206.588 150.824 207.452 151.752 207.836 152.36C208.348 151.976 208.796 151.592 209.276 151.208V155.944H213.916C211.804 157.288 209.084 158.504 206.78 159.208C207.292 159.688 208.028 160.52 208.348 161.096C210.46 160.328 212.924 159.048 215.004 157.608C215.452 157.992 215.804 158.408 216.156 158.856C214.076 160.68 210.14 162.6 207.036 163.464C207.548 163.944 208.284 164.808 208.636 165.352C211.42 164.36 214.876 162.472 217.244 160.52C217.468 161 217.692 161.448 217.852 161.896C215.452 164.424 210.812 166.824 206.844 168.008C207.42 168.488 208.188 169.448 208.54 170.056C211.868 168.936 215.708 166.76 218.428 164.36C218.62 166.152 218.3 167.688 217.692 168.264C217.308 168.84 216.828 168.936 216.156 168.936C215.612 168.936 214.876 168.904 214.044 168.808C214.46 169.544 214.684 170.632 214.716 171.336C215.452 171.368 216.156 171.4 216.764 171.4C217.98 171.368 218.876 171.112 219.74 170.184C221.18 168.808 221.628 165.128 220.444 161.64C220.764 161.48 221.148 161.32 221.564 161.128C222.652 164.648 224.476 167.848 226.908 169.576C227.292 168.904 228.156 167.88 228.764 167.368C226.492 165.96 224.7 163.144 223.708 160.104C224.86 159.56 226.012 158.92 227.036 158.312L224.988 156.424ZM245.692 142.312C243.964 146.984 241.116 151.656 238.108 154.632C238.588 155.304 239.452 156.904 239.74 157.64C240.668 156.648 241.596 155.528 242.492 154.28V171.496H245.308V149.864C246.524 147.688 247.612 145.416 248.476 143.144L245.692 142.312ZM251.516 156.008C250.716 159.688 249.276 163.368 247.388 165.736C248.06 166.088 249.372 166.856 249.916 167.336C251.804 164.712 253.468 160.68 254.428 156.552L251.516 156.008ZM264.892 150.856C264.7 152.392 264.476 153.896 264.252 154.984L266.78 155.464C267.196 153.672 267.772 150.856 268.188 148.424L266.108 148.008L265.628 148.104H253.532C254.172 146.44 254.716 144.712 255.164 142.952L252.22 142.312C251.132 146.824 249.308 151.336 246.908 154.152C247.612 154.6 248.796 155.56 249.34 156.104C250.428 154.664 251.452 152.872 252.412 150.856H256.732V168.072C256.732 168.488 256.572 168.584 256.156 168.584C255.74 168.616 254.364 168.616 252.924 168.584C253.372 169.384 253.852 170.728 253.98 171.56C255.996 171.56 257.436 171.464 258.396 170.984C259.356 170.472 259.676 169.608 259.676 168.072V150.856H264.892ZM261.468 156.584C263.132 159.912 264.604 164.36 265.052 167.24L267.9 166.216C267.388 163.336 265.884 159.048 264.124 155.72L261.468 156.584ZM282.652 165.608V158.536H288.604V165.608H282.652ZM288.604 149.864V155.944H282.652V149.864H288.604ZM297.66 147.112C298.172 145.704 298.588 144.232 298.972 142.76L296.092 142.088C295.132 146.312 293.436 150.568 291.324 153.32V147.272H286.204C286.716 145.928 287.324 144.232 287.868 142.632L284.636 142.088C284.444 143.624 283.964 145.736 283.516 147.272H279.932V170.664H282.652V168.232H291.324V153.544C292.06 153.96 293.18 154.76 293.66 155.208C294.684 153.736 295.676 151.88 296.572 149.832H304.124C303.708 161.896 303.292 166.728 302.268 167.784C301.916 168.232 301.564 168.328 300.924 168.328C300.124 168.328 298.268 168.296 296.22 168.136C296.764 168.968 297.116 170.216 297.18 171.016C299.004 171.112 300.892 171.144 302.012 171.016C303.228 170.856 303.996 170.568 304.796 169.512C306.076 167.912 306.46 162.952 306.908 148.52C306.94 148.136 306.94 147.112 306.94 147.112H297.66ZM301.756 161.544C300.796 159.656 298.62 156.616 296.924 154.408L294.588 155.72C296.284 158.024 298.364 161.16 299.26 163.112L301.756 161.544ZM346.46 144.008H330.94V146.856H346.46V144.008ZM325.308 142.12C323.74 144.424 320.668 147.272 318.012 149C318.556 149.576 319.356 150.728 319.708 151.4C322.652 149.32 325.98 146.152 328.156 143.304L325.308 142.12ZM326.556 148.968C324.412 152.584 320.956 156.232 317.692 158.568C318.3 159.144 319.356 160.456 319.74 161.096C320.764 160.264 321.852 159.272 322.908 158.216V171.592H325.884V154.92C327.196 153.32 328.38 151.656 329.372 150.024L326.556 148.968ZM347.356 152.744H329.596V155.592H339.708V167.88C339.708 168.328 339.516 168.488 338.908 168.488C338.332 168.52 336.188 168.52 334.14 168.456C334.556 169.32 334.972 170.568 335.1 171.432C338.076 171.432 339.964 171.4 341.148 170.952C342.364 170.472 342.748 169.608 342.748 167.912V155.592H347.356V152.744ZM367.292 164.904H373.308V162.728H367.292V161.096H373.244V151.464H367.292V149.8H373.628V152.2H377.02C376.764 158.024 375.964 162.856 373.34 166.472C371.324 166.696 369.276 166.888 367.292 167.08V164.904ZM361.276 159.144V157.192H364.572V159.144H361.276ZM370.716 157.192V159.144H367.292V157.192H370.716ZM367.292 155.368V153.416H370.716V155.368H367.292ZM361.276 153.416H364.572V155.368H361.276V153.416ZM379.932 149.448C379.964 147.272 379.996 144.968 379.996 142.6H377.148C377.148 145 377.148 147.272 377.116 149.448H373.756V147.592H367.292V145.544C369.5 145.32 371.612 145 373.308 144.648L371.9 142.408C368.572 143.144 362.908 143.72 358.172 143.976C358.46 144.552 358.78 145.512 358.876 146.12C360.668 146.056 362.62 145.96 364.572 145.8V147.592H357.98V149.8H364.572V151.464H358.844V161.096H364.572V162.728H358.748V164.904H364.572V167.336C362.044 167.56 359.74 167.752 357.884 167.88L358.268 170.408C361.692 170.088 366.3 169.608 370.908 169.064C370.716 169.224 370.524 169.384 370.332 169.512C371.036 169.992 372.028 171.048 372.476 171.72C377.98 167.496 379.42 160.712 379.836 152.2H383.612C383.356 163.208 383.036 167.272 382.332 168.168C382.012 168.584 381.724 168.68 381.18 168.68C380.604 168.68 379.292 168.68 377.82 168.552C378.268 169.352 378.588 170.568 378.652 171.368C380.156 171.464 381.628 171.464 382.588 171.336C383.58 171.176 384.252 170.92 384.86 169.96C385.884 168.584 386.172 164.04 386.524 150.824C386.524 150.472 386.556 149.448 386.556 149.448H379.932ZM421.788 147.464H412.06V145.352H421.788V147.464ZM421.788 151.592H412.06V149.48H421.788V151.592ZM424.636 143.176H409.34V153.8H424.636V143.176ZM407.484 158.568L407.068 155.88L403.996 156.776V151.144H407.388V148.392H403.996V142.216H401.276V148.392H397.564V151.144H401.276V157.576C399.772 157.992 398.364 158.376 397.244 158.664L397.916 161.544L401.276 160.52V167.944C401.276 168.392 401.116 168.52 400.732 168.52C400.38 168.52 399.196 168.52 397.916 168.488C398.3 169.256 398.652 170.536 398.716 171.24C400.732 171.24 402.012 171.144 402.876 170.664C403.708 170.216 403.996 169.416 403.996 167.944V159.656L407.484 158.568ZM418.3 163.88H424.7V161.512H418.3V158.184H426.3V155.752H407.836V158.184H415.516V167.528C413.98 166.792 412.764 165.416 411.932 163.112C412.188 162.056 412.38 160.936 412.54 159.752L409.852 159.432C409.34 163.944 407.964 167.528 405.18 169.736C405.852 170.12 406.972 171.048 407.42 171.528C408.988 170.12 410.172 168.296 411.036 166.056C413.116 170.28 416.444 171.08 420.892 171.08H426.396C426.492 170.344 426.876 169.096 427.228 168.456C426.044 168.488 421.884 168.488 420.956 168.488C420.028 168.488 419.164 168.456 418.3 168.328V163.88ZM451.324 154.152H438.62V156.584H451.324V155.496C452.028 155.944 452.988 156.616 453.436 157.032C454.492 155.272 455.356 153.096 456.092 150.6H463.1C462.716 152.68 462.172 154.76 461.66 156.232L464.092 156.968C464.924 154.76 465.852 151.368 466.428 148.392L464.412 147.784L463.964 147.912H456.764C457.148 146.216 457.468 144.424 457.724 142.6L454.812 142.216C454.236 146.984 453.18 151.592 451.324 154.76V154.152ZM443.548 149.704H438.332V152.136H451.644V149.704H446.332V147.432H452.316V145H446.332V142.344H443.548V145H437.596V147.432H443.548V149.704ZM439.58 161.96C438.94 164.136 437.948 166.6 436.892 168.264C437.564 168.488 438.684 169 439.228 169.352C440.188 167.592 441.276 164.936 442.044 162.568L439.58 161.96ZM452.636 161.096V158.632H437.18V161.096H443.58V171.496H446.396V161.096H452.636ZM447.804 162.824C448.636 164.456 449.564 166.6 449.948 167.944L452.348 166.856C451.9 165.608 450.908 163.496 450.044 161.928L447.804 162.824ZM460.06 152.84H457.244V154.312C457.244 158.504 456.764 164.744 451.26 169.576C451.996 169.992 453.02 170.952 453.532 171.592C456.412 169 458.012 165.992 458.94 163.048C460.22 166.76 462.14 169.736 464.924 171.464C465.372 170.696 466.268 169.576 466.94 168.968C463.26 167.016 461.02 162.568 459.964 157.448C460.028 156.328 460.06 155.336 460.06 154.408V152.84ZM494.3 156.264C494.044 155.08 493.404 153.096 492.764 151.624L490.972 152.104C491.164 152.648 491.388 153.256 491.58 153.864L489.02 154.184C490.62 152.232 492.284 149.736 493.66 147.272L491.516 146.472C491.196 147.176 490.844 147.88 490.46 148.552L488.476 148.744C489.532 147.176 490.588 145.16 491.452 143.176L489.244 142.536C488.54 144.904 487.228 147.304 486.812 147.88C486.428 148.552 486.012 148.936 485.628 149.032C485.852 149.576 486.204 150.664 486.332 151.144C486.684 150.952 487.228 150.792 489.34 150.504C488.572 151.752 487.868 152.744 487.548 153.128C486.972 153.928 486.428 154.472 485.916 154.568C486.204 155.144 486.524 156.264 486.652 156.712C487.1 156.456 487.836 156.264 492.092 155.688C492.188 156.136 492.252 156.552 492.316 156.904L494.3 156.264ZM485.788 157.512C485.404 156.744 483.612 153.768 482.876 152.712V150.952H485.276V148.2H482.876V142.184H480.316V148.2H477.212V150.952H480.156C479.42 154.856 477.948 159.4 476.444 161.832C476.86 162.6 477.468 163.912 477.692 164.808C478.652 163.08 479.548 160.456 480.316 157.672V171.528H482.876V156.104C483.516 157.384 484.124 158.76 484.412 159.592L485.788 157.512ZM501.724 160.936C501.116 162.216 500.252 163.432 499.26 164.52C498.812 163.496 498.46 162.216 498.108 160.84H505.532V158.504H502.94L503.772 157.704C503.132 157.064 501.82 156.168 500.828 155.528C501.564 155.4 502.492 155.272 503.708 155.08C503.836 155.592 503.964 156.072 504.06 156.456L505.916 155.816C505.628 154.6 504.892 152.616 504.252 151.144L502.524 151.624C502.716 152.136 502.94 152.744 503.164 153.288L500.572 153.608C502.14 151.656 503.74 149.16 505.052 146.664L502.844 145.864C502.556 146.6 502.204 147.272 501.82 147.976L499.932 148.168C500.86 146.728 501.82 144.872 502.556 143.08L500.348 142.472C499.772 144.584 498.588 146.824 498.236 147.368C497.852 147.944 497.5 148.36 497.116 148.456C497.372 149 497.724 150.088 497.852 150.568C498.172 150.376 498.716 150.216 500.764 149.96C500.028 151.176 499.356 152.168 499.036 152.552C498.46 153.352 497.98 153.864 497.468 153.992C497.724 154.568 498.076 155.72 498.204 156.168C498.524 156.008 498.94 155.88 500.476 155.592L499.164 156.776C499.9 157.256 500.764 157.896 501.468 158.504H497.628C496.828 154.152 496.412 148.616 496.252 142.376H493.756C493.948 148.488 494.364 153.992 495.1 158.504H485.916V160.84H488.156C488.124 163.56 487.388 167.112 483.676 169.8C484.22 170.12 485.276 171.048 485.66 171.56C488.284 169.576 489.628 167.048 490.204 164.584C491.324 165.544 492.412 166.568 493.052 167.304L494.876 165.512C493.98 164.52 492.124 162.984 490.652 161.832C490.684 161.512 490.684 161.16 490.684 160.84H495.548C495.996 162.984 496.572 164.84 497.244 166.376C495.644 167.656 493.692 168.712 491.548 169.48C492.06 169.992 492.764 170.856 493.116 171.4C495.068 170.664 496.86 169.672 498.46 168.52C499.74 170.344 501.308 171.368 503.292 171.528C504.636 171.592 505.756 170.504 506.428 166.76C505.948 166.504 504.956 165.8 504.508 165.256C504.252 167.528 503.868 168.68 503.26 168.616C502.204 168.52 501.308 167.88 500.508 166.824C502.012 165.384 503.292 163.752 504.22 161.864L501.724 160.936Z" fill="#404040"/>
<path d="M51.6408 111.504H38.8088V106.96H49.8168V104.112H38.8088V99.408C42.4568 98.96 45.8488 98.416 48.6328 97.616L46.4248 95.184C41.4328 96.624 32.4088 97.456 24.8568 97.808C25.1448 98.448 25.5288 99.664 25.5608 100.4C28.7928 100.272 32.2808 100.048 35.7048 99.76V104.112H25.0168V106.96H35.7048V111.504H22.8408V114.416H35.7048V120.656C35.7048 121.328 35.4488 121.552 34.7448 121.552C34.0088 121.584 31.4488 121.584 28.8888 121.488C29.3688 122.288 29.9448 123.632 30.1368 124.432C33.4328 124.464 35.6088 124.4 36.9208 123.92C38.2648 123.472 38.8088 122.64 38.8088 120.688V114.416H51.6408V111.504ZM71.8008 108.816L69.0168 109.648V104.144H72.0248V101.36H69.0168V95.184H66.2968V101.36H62.3608V104.144H66.2968V110.416C64.6328 110.928 63.0968 111.344 61.8808 111.664L62.5528 114.544L66.2968 113.36V120.944C66.2968 121.392 66.1368 121.52 65.7528 121.52C65.4008 121.52 64.1848 121.52 62.9048 121.488C63.2888 122.256 63.6408 123.536 63.7368 124.24C65.7208 124.24 67.0328 124.144 67.8968 123.664C68.7288 123.216 69.0168 122.416 69.0168 120.944V112.528L72.1848 111.536L71.8008 108.816ZM74.9048 115.664C76.1528 117.424 77.6568 119.856 78.3288 121.296L80.8248 119.856C80.0568 118.384 78.4568 116.112 77.2408 114.416L74.9048 115.664ZM87.6088 108.528H84.7928V111.056H72.8568V113.776H84.7928V121.2C84.7928 121.616 84.6648 121.744 84.1848 121.776C83.7048 121.808 82.0728 121.808 80.4088 121.744C80.7928 122.512 81.1768 123.728 81.3048 124.56C83.6088 124.56 85.2088 124.528 86.2648 124.08C87.2888 123.632 87.6088 122.832 87.6088 121.232V113.776H91.3848V111.056H87.6088V108.528ZM83.5128 99.056V95.28H80.6648V99.056H72.4728V101.808H80.6648V105.072H74.1048V107.792H90.1048V105.072H83.5128V101.808H91.5448V99.056H83.5128ZM106.201 110.128C106.201 104.592 108.729 101.232 112.633 101.232C116.537 101.232 119.097 104.592 119.097 110.128C119.097 115.824 116.537 119.376 112.633 119.376C108.729 119.376 106.201 115.824 106.201 110.128ZM122.937 124.72C122.297 124.912 121.465 125.072 120.441 125.072C118.073 125.072 115.897 124.176 114.841 122.192C119.673 121.168 122.905 116.752 122.905 110.128C122.905 102.544 118.681 98 112.633 98C106.585 98 102.393 102.544 102.393 110.128C102.393 116.944 105.785 121.424 110.873 122.288C112.313 125.648 115.449 128.112 120.025 128.112C121.561 128.112 122.873 127.856 123.641 127.504L122.937 124.72ZM139.19 101.424H142.742C146.166 101.424 148.022 102.416 148.022 105.264C148.022 108.112 146.166 109.52 142.742 109.52H139.19V101.424ZM152.534 122L146.774 112.016C149.75 111.088 151.702 108.912 151.702 105.264C151.702 100.176 148.054 98.448 143.19 98.448H135.478V122H139.19V112.496H142.998L148.342 122H152.534ZM185.842 122.416C187.858 122.416 189.938 121.68 191.538 120.24L190.034 117.808C188.978 118.704 187.666 119.408 186.194 119.408C183.25 119.408 181.234 116.944 181.234 113.232C181.234 109.488 183.346 106.992 186.29 106.992C187.506 106.992 188.498 107.504 189.458 108.368L191.282 105.968C190.002 104.848 188.37 103.952 186.13 103.952C181.49 103.952 177.426 107.344 177.426 113.232C177.426 119.056 181.074 122.416 185.842 122.416ZM209.082 122.416C213.434 122.416 217.37 119.056 217.37 113.232C217.37 107.344 213.434 103.952 209.082 103.952C204.73 103.952 200.794 107.344 200.794 113.232C200.794 119.056 204.73 122.416 209.082 122.416ZM209.082 119.408C206.33 119.408 204.602 116.944 204.602 113.232C204.602 109.488 206.33 106.992 209.082 106.992C211.866 106.992 213.594 109.488 213.594 113.232C213.594 116.944 211.866 119.408 209.082 119.408ZM235.458 122.416C237.442 122.416 239.266 121.36 240.578 120.016H240.674L240.994 122H244.002V96.496H240.322V103.024L240.482 105.936C239.042 104.72 237.762 103.952 235.746 103.952C231.81 103.952 228.194 107.504 228.194 113.232C228.194 119.056 231.042 122.416 235.458 122.416ZM236.322 119.376C233.57 119.376 232.002 117.168 232.002 113.168C232.002 109.36 233.986 107.024 236.45 107.024C237.762 107.024 239.01 107.44 240.322 108.624V117.232C239.042 118.704 237.794 119.376 236.322 119.376ZM264.542 122.416C266.846 122.416 268.862 121.648 270.494 120.56L269.214 118.224C267.934 119.056 266.59 119.536 265.022 119.536C261.982 119.536 259.87 117.52 259.582 114.16H271.006C271.102 113.744 271.166 113.008 271.166 112.304C271.166 107.312 268.67 103.952 263.998 103.952C259.87 103.952 255.966 107.504 255.966 113.232C255.966 119.024 259.774 122.416 264.542 122.416ZM259.55 111.632C259.902 108.528 261.854 106.832 264.062 106.832C266.622 106.832 267.998 108.592 267.998 111.632H259.55ZM303.775 102.448H300.095V99.056H303.775V102.448ZM303.775 108.208H300.095V104.72H303.775V108.208ZM303.775 114.032H300.095V110.512H303.775V114.032ZM306.239 96.656H297.727V116.432H306.239V96.656ZM299.327 117.232C298.559 119.088 297.407 121.232 296.319 122.704C296.927 123.024 297.919 123.664 298.367 124.08C299.455 122.48 300.799 120.048 301.663 117.936L299.327 117.232ZM313.759 113.36V111.024H316.447V113.36H313.759ZM313.759 106.608H316.447V108.752H313.759V106.608ZM313.759 102.32H316.447V104.4H313.759V102.32ZM321.343 106.608V108.752H318.943V106.608H321.343ZM321.343 113.36H318.943V111.024H321.343V113.36ZM323.743 115.536V111.024H325.727V108.752H323.743V104.4H318.943V102.32H324.799V100.08H319.615C320.511 98.96 321.535 97.616 322.431 96.336L319.711 95.184C319.007 96.656 317.791 98.64 316.799 100.08H311.999L314.079 99.152C313.631 98.096 312.671 96.432 311.871 95.184L309.375 96.208C310.111 97.424 310.943 99.024 311.391 100.08H307.263V102.32H311.327V104.4H307.551V106.608H311.327V108.752H306.815V111.024H311.327V113.36H307.423V115.536H310.367C309.407 117.488 308.095 119.376 306.751 120.72C306.207 119.728 305.343 118.288 304.479 117.232L302.591 118.288C303.359 119.472 304.351 121.072 304.799 122.128L306.047 121.328L305.727 121.584C306.303 122.096 307.135 123.024 307.519 123.696C308.927 122.48 310.271 120.56 311.327 118.416V124.496H313.759V115.536H316.447V124.496H318.943V117.936C320.447 120.24 322.335 122.352 324.063 123.664C324.511 122.992 325.279 122.064 325.855 121.584C323.775 120.304 321.535 117.936 319.935 115.536H323.743ZM349.503 102.384L354.047 101.968C354.495 103.152 355.007 104.208 355.583 105.136C353.439 106.128 351.007 106.896 348.575 107.44C349.087 107.92 349.919 108.976 350.271 109.552C352.543 108.912 354.847 108.08 357.023 107.056C358.463 108.592 360.223 109.488 362.111 109.488C364.127 109.488 364.991 108.72 365.375 105.552C364.735 105.392 363.903 105.008 363.359 104.528C363.231 106.416 363.007 107.056 362.239 107.056C361.247 107.056 360.287 106.576 359.359 105.712C360.895 104.752 362.303 103.664 363.327 102.416L360.831 101.584C360.063 102.448 359.103 103.248 357.919 103.952C357.503 103.312 357.119 102.576 356.767 101.744L365.087 101.04L364.895 98.704L361.279 99.024L362.751 97.264C361.855 96.56 360.095 95.728 358.719 95.184L357.311 96.784C358.687 97.392 360.415 98.32 361.279 99.024L356.031 99.44C355.679 98.128 355.455 96.72 355.391 95.216H352.735C352.831 96.784 353.055 98.288 353.407 99.664L349.311 100.016L349.503 102.384ZM356.895 110.672C358.399 111.28 360.383 112.208 361.375 112.848L362.815 111.056C361.791 110.384 359.807 109.584 358.335 109.072L356.895 110.672ZM343.583 111.248H347.679V108.72H343.583V105.68H346.655V103.184H339.455C340.511 102.032 341.503 100.752 342.367 99.376C344.287 100.688 346.239 102.288 347.423 103.568L348.703 101.104C347.519 99.952 345.599 98.48 343.647 97.264C343.871 96.816 344.095 96.4 344.287 95.984L342.111 94.96C340.671 97.968 338.175 100.816 335.807 102.64C336.159 103.376 336.735 105.008 336.927 105.648C337.439 105.232 337.919 104.784 338.431 104.272V105.68H341.183V108.72H336.703V111.248H341.183V119.92C339.327 120.272 337.631 120.592 336.319 120.848L336.927 123.504C339.935 122.8 343.967 121.904 347.807 121.008L347.679 118.608C346.303 118.896 344.927 119.184 343.583 119.44V111.248ZM337.151 113.2C337.631 115.056 338.111 117.392 338.239 118.96L340.191 118.352C340.031 116.88 339.519 114.512 338.975 112.688L337.151 113.2ZM345.855 118.544C346.399 117.136 347.007 114.928 347.583 112.976L345.471 112.4C345.215 114.064 344.639 116.464 344.191 118L345.855 118.544ZM360.799 115.504C359.999 116.592 358.879 117.552 357.599 118.416C357.151 117.616 356.671 116.72 356.287 115.696L365.407 114.896L365.183 112.528L355.583 113.392C355.231 112.016 355.007 110.544 354.911 108.976H352.255C352.351 110.608 352.607 112.176 352.927 113.616L349.055 113.968L349.279 116.336L353.599 115.952C354.111 117.36 354.687 118.608 355.391 119.76C353.183 120.88 350.687 121.744 348.159 122.384C348.639 122.864 349.471 123.984 349.791 124.56C352.191 123.856 354.591 122.896 356.799 121.712C358.367 123.472 360.255 124.528 362.239 124.528C364.383 124.528 365.247 123.632 365.663 120.144C365.023 119.952 364.159 119.568 363.583 119.056C363.487 121.264 363.199 122.064 362.399 122.064C361.279 122.064 360.159 121.424 359.071 120.336C360.735 119.184 362.207 117.84 363.327 116.336L360.799 115.504ZM404.127 100.368V97.328H376.735V100.368H390.239C387.167 105.584 381.919 110.704 375.839 113.68C376.479 114.32 377.407 115.536 377.887 116.336C382.015 114.16 385.727 111.12 388.799 107.696V124.496H392.031V103.664C392.799 102.576 393.471 101.456 394.143 100.368H404.127ZM392.159 107.152C395.807 109.744 400.543 113.552 402.687 116.016L405.183 113.712C402.847 111.248 397.983 107.632 394.399 105.232L392.159 107.152ZM437.823 100.688H422.175V98.544H437.823V100.688ZM437.823 104.912H422.175V102.768H437.823V104.912ZM440.831 96.336H419.295V107.088H440.831V96.336ZM431.903 117.2H442.079V114.608H431.903V111.568H444.159V108.944H416.127V111.568H428.927V120.528C426.431 119.856 424.639 118.448 423.487 115.856C423.807 114.928 424.063 113.904 424.287 112.848L421.311 112.432C420.511 116.88 418.527 120.4 415.263 122.48C415.903 122.96 417.023 124.048 417.471 124.592C419.423 123.184 421.023 121.296 422.207 118.992C424.831 123.056 428.895 123.952 435.007 123.952H443.839C443.999 123.12 444.447 121.808 444.863 121.136C442.975 121.168 436.575 121.2 435.167 121.168C434.015 121.168 432.895 121.136 431.903 121.04V117.2ZM464.671 101.04H467.583V95.152H464.671V97.04H455.743V99.568H464.671V101.04ZM461.247 103.728H465.279V106.48H461.247V103.728ZM467.775 103.728H471.967V106.48H467.775V103.728ZM474.463 103.728H478.687V106.48H474.463V103.728ZM458.591 108.496H481.471V101.712H458.591V108.496ZM474.623 115.888C473.343 117.104 471.647 118.128 469.695 118.96C468.735 118.032 467.135 116.848 465.663 116.016L465.855 115.888H474.623ZM455.999 115.28H458.783V112.176H466.655C465.279 113.648 462.751 115.056 459.103 116.016C459.647 116.464 460.511 117.424 460.863 118.096C461.759 117.776 462.623 117.456 463.391 117.136C464.639 117.936 466.079 118.96 467.103 119.888C463.903 120.912 460.287 121.52 456.703 121.808C457.183 122.48 457.727 123.664 457.951 124.432C466.527 123.408 475.231 120.848 479.039 114.8L477.119 113.648L476.607 113.776H468.671C469.023 113.424 469.343 113.104 469.631 112.72L467.007 112.176H480.735V115.28H483.647V109.872H455.999V115.28ZM474.943 97.04V95.152H471.999V101.04H474.943V99.568H483.775V97.04H474.943Z" fill="#153A71"/>
</svg>
