<svg xmlns="http://www.w3.org/2000/svg" xmlns:xlink="http://www.w3.org/1999/xlink" width="100" height="100" viewBox="0 0 100 100">
    <defs>
        <linearGradient id="gi0v9m1rea" x1="40.62%" x2="60.046%" y1="0%" y2="100%">
            <stop offset="0%" stop-color="#F7ECA8"/>
            <stop offset="50.754%" stop-color="#BF9437" stop-opacity=".7"/>
            <stop offset="100%" stop-color="#E7CC7E"/>
        </linearGradient>
        <linearGradient id="pz56olhlvd" x1="40.62%" x2="60.046%" y1="0%" y2="100%">
            <stop offset="0%" stop-color="#F7ECA8"/>
            <stop offset="51.673%" stop-color="#BF9437"/>
            <stop offset="100%" stop-color="#E7CC7E"/>
        </linearGradient>
        <linearGradient id="inr35d4gle" x1="3.314%" x2="100%" y1="0%" y2="100%">
            <stop offset="0%" stop-color="#F7ECA8"/>
            <stop offset="50.754%" stop-color="#BF9437" stop-opacity=".7"/>
            <stop offset="100%" stop-color="#E7CC7E"/>
        </linearGradient>
        <linearGradient id="qvl3907wcf" x1="3.314%" x2="100%" y1=".314%" y2="99.686%">
            <stop offset="0%" stop-color="#F7ECA8"/>
            <stop offset="50.754%" stop-color="#BF9437" stop-opacity=".7"/>
            <stop offset="100%" stop-color="#E7CC7E"/>
        </linearGradient>
        <filter id="euk7mnh45b" width="108%" height="103.7%" x="-4%" y="-1.8%" filterUnits="objectBoundingBox">
            <feOffset in="SourceAlpha" result="shadowOffsetOuter1"/>
            <feGaussianBlur in="shadowOffsetOuter1" result="shadowBlurOuter1" stdDeviation="5"/>
            <feColorMatrix in="shadowBlurOuter1" values="0 0 0 0 0.321148859 0 0 0 0 0.20422573 0 0 0 0 0 0 0 0 1 0"/>
        </filter>
        <path id="3m159x161c" d="M375 0v812H0V0h375zm-70.374 9.998H70.374c-5.486 0-9.446 5.407-7.644 10.533l.087.236c1.612 4.161 2.392 8.738 2.135 13.525l-.039.626c-1.141 15.78-13.8 28.584-29.52 29.957l-.477.038c-4.805.347-9.407-.35-13.604-1.89l-.545-.205c-5.115-1.982-10.6 1.865-10.765 7.303l-.004.252v671.252c0 5.486 5.406 9.446 10.533 7.643l.236-.087c4.161-1.612 8.737-2.39 13.524-2.134l.625.039c15.78 1.142 28.585 13.8 29.958 29.518l.038.477c.347 4.805-.35 9.408-1.89 13.606l-.206.545c-1.98 5.115 1.867 10.6 7.305 10.764l.252.004h234.252c5.487 0 9.447-5.406 7.643-10.532l-.087-.236c-1.611-4.162-2.392-8.738-2.134-13.525l.04-.626c1.14-15.78 13.798-28.584 29.517-29.957l.477-.038c4.805-.347 9.408.35 13.606 1.89l.545.206c5.116 1.98 10.6-1.867 10.765-7.305l.004-.252V70.373c0-5.486-5.405-9.446-10.532-7.642l-.236.087c-4.162 1.611-8.738 2.39-13.525 2.133l-.625-.039c-15.782-1.141-28.584-13.798-29.957-29.517l-.038-.477c-.348-4.805.35-9.409 1.889-13.606l.205-.545c1.982-5.115-1.866-10.6-7.304-10.765l-.252-.004z"/>
    </defs>
    <g fill="none" fill-rule="evenodd">
        <g>
            <g>
                <path stroke="#1C509B" stroke-width="10" d="M5 5H370V807H5z"/>
                <path stroke="url(#gi0v9m1rea)" stroke-width="3" d="M11.5 11.5H363.5V800.5H11.5z"/>
            </g>
            <g>
                <g>
                    <use fill="#1C509B" xlink:href="#3m159x161c"/>
                </g>
                <path stroke="url(#pz56olhlvd)" stroke-width="3" d="M70.374 9.998c-5.57 0-9.568 5.575-7.557 10.769 1.682 4.342 2.458 9.137 2.096 14.151C63.76 50.857 50.857 63.76 34.916 64.913c-5.014.362-9.807-.413-14.149-2.095-5.194-2.012-10.769 1.985-10.769 7.555v671.252c0 5.57 5.574 9.567 10.769 7.556 4.342-1.682 9.136-2.457 14.149-2.095 15.94 1.154 28.843 14.056 29.996 29.995.362 5.014-.413 9.808-2.096 14.151C60.805 796.426 64.803 802 70.373 802h234.252c5.571 0 9.568-5.574 7.556-10.768-1.681-4.343-2.458-9.137-2.094-14.151 1.152-15.94 14.055-28.842 29.994-29.995 5.014-.362 9.808.413 14.151 2.096 5.195 2.01 10.769-1.987 10.769-7.557V70.373c0-5.57-5.573-9.568-10.768-7.555-4.343 1.681-9.137 2.457-14.15 2.094-15.941-1.153-28.842-14.055-29.995-29.994-.363-5.014.413-9.809 2.094-14.151 2.012-5.194-1.986-10.769-7.556-10.769H70.374z"/>
                <circle cx="32.5" cy="32.5" r="21" fill="#05296A" stroke="url(#inr35d4gle)" stroke-width="3"/>
                <path fill="url(#qvl3907wcf)" d="M37.805 33.82c0 .091.046.137.137.137h.429c.105 0 .157-.046.157-.137v-.391c0-.104-.052-.156-.157-.156h-.43c-.09 0-.136.052-.136.156v.391zm.723-2.91c0-.105-.052-.156-.157-.156h-.43c-.09 0-.136.051-.136.156v.332c0 .104.046.156.137.156h.429c.105 0 .157-.052.157-.156v-.332zm-3.926 2.91c0 .091.046.137.137.137h.488c.104 0 .156-.046.156-.137v-.391c0-.104-.052-.156-.156-.156h-.488c-.091 0-.137.052-.137.156v.391zm.137-3.066c-.091 0-.137.051-.137.156v.332c0 .104.046.156.137.156h.488c.104 0 .156-.052.156-.156v-.332c0-.105-.052-.156-.156-.156h-.488zm0-2.579c-.091 0-.137.052-.137.157v.254c0 .104.046.156.137.156h.488c.104 0 .156-.052.156-.156v-.254c0-.105-.052-.157-.156-.157h-.488zm-8.516 4.649c-.091 0-.137.046-.137.137v1.191c0 .091.046.137.137.137h1.113c.09 0 .137-.046.137-.137v-1.191c0-.091-.046-.137-.137-.137h-1.113zm0-3.574c-.091 0-.137.051-.137.156v1.172c0 .091.046.137.137.137h1.113c.09 0 .137-.046.137-.137v-1.172c0-.105-.046-.156-.137-.156h-1.113zm0-3.555c-.091 0-.137.052-.137.156v1.133c0 .105.046.156.137.156h1.113c.09 0 .137-.051.137-.156v-1.133c0-.104-.046-.156-.137-.156h-1.113zm.8 11.621c0 .013.008.02.02.02l1.602-.703c.013 0 .019-.01.019-.03 0-.019-.012-.029-.04-.029h-3.827c-.013.026-.013.039 0 .039l2.11.508c.117.026.156.091.117.195zm13.829-2.5c0 .325-.11.599-.332.82-.222.222-.495.332-.82.332h-.743c-.026 0-.046.017-.058.049-.013.032-.013.056 0 .069.65.846 1.354 1.582 2.109 2.207.247.208.37.468.37.781 0 .273-.09.508-.272.703-.078.078-.15.156-.215.234-.208.235-.47.365-.781.391-.027.013-.06.02-.098.02-.261 0-.488-.098-.684-.293-.495-.521-.976-1.114-1.445-1.778-.013-.012-.03-.016-.05-.01-.018.007-.028.023-.028.049v2.129c0 .325-.114.599-.342.821-.227.221-.498.332-.81.332h-.118c-.325 0-.598-.111-.82-.332-.222-.222-.332-.496-.332-.821v-4.394c0-.105-.052-.157-.156-.157h-.488c-.091 0-.137.052-.137.157v4.394c0 .325-.114.599-.342.821-.227.221-.498.332-.81.332h-.06c-.312 0-.582-.111-.81-.332-.227-.222-.341-.496-.341-.821v-1.211c0-.026-.01-.042-.03-.049-.02-.006-.036-.002-.05.01-.272.391-.552.736-.838 1.035-.196.196-.417.293-.664.293h-.137c-.3-.039-.554-.182-.762-.429l-.078-.118c-.065-.078-.144-.097-.234-.058l-.215.117c-.144.065-.286.098-.43.098-.13 0-.261-.033-.391-.098-.286-.117-.488-.319-.605-.605-.234-.574-.501-1.165-.801-1.778-.012-.026-.032-.039-.058-.039-.027 0-.046.013-.06.039-.416 1.133-.936 2.161-1.561 3.086-.183.274-.437.43-.762.469-.066.013-.124.019-.176.019-.261 0-.495-.078-.703-.234-.078-.039-.156-.085-.234-.137-.248-.156-.391-.383-.43-.683-.013-.052-.02-.111-.02-.176 0-.222.066-.423.196-.605.598-.833 1.047-1.765 1.347-2.793.027-.066 0-.098-.078-.098-.222 0-.413-.081-.576-.244-.163-.163-.244-.362-.244-.596V24.562c0-.312.11-.583.332-.81.222-.228.495-.342.82-.342h4.063c.325 0 .598.114.82.342.222.227.332.498.332.81v11.113c0 .248-.088.459-.264.635-.175.176-.387.264-.634.264-.027 0-.046.013-.06.039-.012.026-.012.046 0 .059.326.573.6 1.106.82 1.601.04.078.099.085.177.02.65-.625 1.224-1.361 1.719-2.207.013-.027.013-.052 0-.078-.013-.027-.032-.04-.06-.04-.26 0-.477-.087-.653-.263-.176-.176-.264-.388-.264-.635v-.098c0-.286.1-.527.303-.722.202-.196.439-.293.713-.293h.293c.09 0 .137-.046.137-.137v-.391c0-.104-.046-.156-.137-.156h-.9c-.26 0-.48-.091-.663-.273-.182-.183-.273-.404-.273-.664 0-.261.09-.482.273-.664.183-.183.404-.274.664-.274h.899c.09 0 .137-.052.137-.156v-.332c0-.105-.046-.156-.137-.156h-.215c-.273 0-.511-.098-.713-.293-.202-.196-.303-.433-.303-.713 0-.281.1-.518.303-.713.202-.195.44-.293.713-.293h.215c.09 0 .137-.052.137-.156v-.254c0-.105-.046-.157-.137-.157h-.606c-.3 0-.553-.104-.761-.312-.208-.208-.313-.459-.313-.752s.105-.544.313-.752c.208-.208.462-.312.76-.312h.607c.09 0 .137-.052.137-.157v-.293c0-.039-.013-.068-.04-.088-.026-.019-.058-.022-.097-.009l-.352.078c-.065.013-.136.019-.215.019-.156 0-.312-.039-.468-.117-.208-.13-.365-.312-.47-.547-.051-.104-.077-.205-.077-.302 0-.098.026-.199.078-.303.09-.208.24-.345.449-.41.742-.208 1.406-.443 1.992-.703.326-.144.638-.215.938-.215.364 0 .71.11 1.035.332l.156.097c.196.13.293.306.293.528 0 .3-.13.501-.39.605-.105.039-.215.078-.332.117-.091.039-.137.105-.137.196v1.015c0 .105.046.157.137.157h.488c.104 0 .156-.052.156-.157v-.859c0-.026-.007-.046-.02-.059-.038-.065-.045-.13-.02-.195.027-.065.072-.11.138-.137.886-.378 1.679-.8 2.383-1.269.299-.196.618-.3.957-.313.039-.012.078-.019.117-.019.286 0 .559.078.82.234l.293.176c.234.13.352.332.352.605 0 .261-.118.456-.352.586-.651.378-1.354.716-2.11 1.016-.09.039-.136.11-.136.215v.019c0 .105.046.157.137.157h2.304c.3 0 .554.104.762.312.208.208.313.459.313.752s-.105.544-.313.752c-.208.208-.462.312-.762.312h-2.304c-.091 0-.137.052-.137.157v.254c0 .104.046.156.137.156H39.7c.325 0 .598.11.82.332.222.222.332.495.332.82v1.211c0 .066.032.098.098.098.22 0 .407.075.556.224.15.15.225.335.225.557v.645c0 .221-.075.407-.225.556-.15.15-.335.225-.556.225-.066 0-.098.032-.098.098v1.308z"/>
            </g>
        </g>
    </g>
</svg>
