<svg xmlns="http://www.w3.org/2000/svg" xmlns:xlink="http://www.w3.org/1999/xlink" width="100" height="100" viewBox="0 0 100 100">
    <defs>
        <linearGradient id="11d1f05ida" x1="40.62%" x2="60.046%" y1="0%" y2="100%">
            <stop offset="0%" stop-color="#F7ECA8"/>
            <stop offset="50.754%" stop-color="#BF9437" stop-opacity=".7"/>
            <stop offset="100%" stop-color="#E7CC7E"/>
        </linearGradient>
        <linearGradient id="is0srqoiid" x1="40.62%" x2="60.046%" y1="0%" y2="100%">
            <stop offset="0%" stop-color="#F7ECA8"/>
            <stop offset="22.413%" stop-color="#D5B35E" stop-opacity=".867"/>
            <stop offset="44.079%" stop-color="#D9BC6B" stop-opacity=".837"/>
            <stop offset="67.752%" stop-color="#BF9437" stop-opacity=".7"/>
            <stop offset="100%" stop-color="#E7CC7E"/>
        </linearGradient>
        <linearGradient id="tf5db83dte" x1="3.314%" x2="100%" y1="0%" y2="100%">
            <stop offset="0%" stop-color="#F7ECA8"/>
            <stop offset="50.754%" stop-color="#BF9437" stop-opacity=".7"/>
            <stop offset="100%" stop-color="#E7CC7E"/>
        </linearGradient>
        <linearGradient id="qd2uvt5vff" x1="3.612%" x2="99.681%" y1="0%" y2="100%">
            <stop offset="0%" stop-color="#F7ECA8"/>
            <stop offset="50.754%" stop-color="#BF9437"/>
            <stop offset="100%" stop-color="#E7CC7E"/>
        </linearGradient>
        <filter id="93r1mkn3ub" width="108%" height="103.7%" x="-4%" y="-1.8%" filterUnits="objectBoundingBox">
            <feOffset in="SourceAlpha" result="shadowOffsetOuter1"/>
            <feGaussianBlur in="shadowOffsetOuter1" result="shadowBlurOuter1" stdDeviation="5"/>
            <feColorMatrix in="shadowBlurOuter1" values="0 0 0 0 0.321148859 0 0 0 0 0.20422573 0 0 0 0 0 0 0 0 1 0"/>
        </filter>
        <path id="sb2rxb7jgc" d="M375 0v812H0V0h375zm-70.374 9.998H70.374c-5.486 0-9.446 5.407-7.644 10.533l.087.236c1.612 4.161 2.392 8.738 2.135 13.525l-.039.626c-1.141 15.78-13.8 28.584-29.52 29.957l-.477.038c-4.805.347-9.407-.35-13.604-1.89l-.545-.205c-5.115-1.982-10.6 1.865-10.765 7.303l-.004.252v671.252c0 5.486 5.406 9.446 10.533 7.643l.236-.087c4.161-1.612 8.737-2.39 13.524-2.134l.625.039c15.78 1.142 28.585 13.8 29.958 29.518l.038.477c.347 4.805-.35 9.408-1.89 13.606l-.206.545c-1.98 5.115 1.867 10.6 7.305 10.764l.252.004h234.252c5.487 0 9.447-5.406 7.643-10.532l-.087-.236c-1.611-4.162-2.392-8.738-2.134-13.525l.04-.626c1.14-15.78 13.798-28.584 29.517-29.957l.477-.038c4.805-.347 9.408.35 13.606 1.89l.545.206c5.116 1.98 10.6-1.867 10.765-7.305l.004-.252V70.373c0-5.486-5.405-9.446-10.532-7.642l-.236.087c-4.162 1.611-8.738 2.39-13.525 2.133l-.625-.039c-15.782-1.141-28.584-13.798-29.957-29.517l-.038-.477c-.348-4.805.35-9.409 1.889-13.606l.205-.545c1.982-5.115-1.866-10.6-7.304-10.765l-.252-.004z"/>
    </defs>
    <g fill="none" fill-rule="evenodd">
        <g>
            <g>
                <path stroke="#A90015" stroke-width="10" d="M5 5H370V807H5z" transform="translate(-275)"/>
                <path stroke="url(#11d1f05ida)" stroke-width="3" d="M11.5 11.5H363.5V800.5H11.5z" transform="translate(-275)"/>
            </g>
            <g transform="translate(-275)">
                <g>
                    <use fill="#000" filter="url(#93r1mkn3ub)" xlink:href="#sb2rxb7jgc"/>
                    <use fill="#A90015" xlink:href="#sb2rxb7jgc"/>
                </g>
                <path stroke="url(#is0srqoiid)" stroke-width="3" d="M304.603 11.498c2.326.076 4.281 1.226 5.45 2.89 1.15 1.64 1.53 3.779.728 5.843h0l-.21.558c-1.611 4.392-2.343 9.21-1.98 14.237.738 8.465 4.437 15.988 10.005 21.556 5.606 5.605 13.105 9.23 21.386 9.827h0l.639.04c5.003.27 9.787-.545 14.14-2.226 2.157-.751 4.323-.347 5.96.802 1.664 1.168 2.78 3.1 2.78 5.348h0v671.229c-.076 2.326-1.225 4.281-2.89 5.45-1.64 1.15-3.778 1.53-5.843.729h0l-.558-.21c-4.392-1.613-9.209-2.344-14.237-1.981-8.465.737-15.988 4.436-21.556 10.005-5.605 5.605-9.23 13.104-9.827 21.385h0l-.04.639c-.27 5.005.545 9.79 2.227 14.143.75 2.157.345 4.322-.803 5.958-1.169 1.664-3.101 2.78-5.349 2.78h0H70.396c-2.326-.076-4.281-1.226-5.45-2.89-1.15-1.64-1.53-3.778-.729-5.842h0l.21-.558c1.613-4.392 2.344-9.209 1.981-14.237-.737-8.465-4.437-15.987-10.005-21.555-5.605-5.606-13.105-9.23-21.386-9.829h0l-.64-.04c-5.004-.269-9.789.545-14.14 2.228-2.157.749-4.322.344-5.958-.804-1.665-1.168-2.781-3.1-2.781-5.348h0V70.396c.076-2.326 1.226-4.28 2.89-5.45 1.64-1.149 3.778-1.53 5.843-.727h0l.558.21c4.391 1.612 9.207 2.343 14.235 1.98 8.466-.737 15.989-4.436 21.557-10.005C62.187 50.8 65.812 43.3 66.41 35.02h0l.04-.64c.269-5.004-.546-9.788-2.228-14.139-.75-2.158-.345-4.324.804-5.961 1.168-1.665 3.1-2.781 5.348-2.781h0z"/>
                <circle cx="342.5" cy="32.5" r="21" fill="#79000F" stroke="url(#tf5db83dte)" stroke-width="3"/>
                <path fill="url(#qd2uvt5vff)" d="M346.066 39.191c.104 0 .156-.052.156-.156v-1.309c0-.091-.052-.137-.156-.137h-.664c-.091 0-.137.046-.137.137v1.309c0 .104.046.156.137.156h.664zm-1.406-3.809c-.013.013-.02.023-.02.03 0 .007.007.009.02.009h3.594c.026 0 .045-.012.058-.039.013-.026.013-.051 0-.078-.169-.221-.345-.436-.527-.644-.117-.156-.176-.325-.176-.508 0-.065.007-.137.019-.215.066-.261.228-.442.489-.547l.156-.058c.013 0 .02-.007.02-.02 0-.013-.007-.019-.02-.019h-3.008c-.039 0-.065.012-.078.039-.013.026-.013.051 0 .078.105.182.195.371.274.566.065.13.097.261.097.391 0 .156-.046.312-.137.469-.156.273-.39.449-.703.527l-.058.019zm-1.133-7.011c-.105 0-.156.046-.156.136v.196c0 .091.051.136.156.136h2.871c.091 0 .137-.045.137-.136v-.196c0-.09-.046-.136-.137-.136h-2.871zm0-2.52c-.105 0-.156.046-.156.137v.215c0 .091.051.136.156.136h2.871c.091 0 .137-.045.137-.136v-.215c0-.091-.046-.137-.137-.137h-2.871zm-.899 11.875c0-.091-.051-.137-.156-.137h-.683c-.105 0-.157.046-.157.137v1.309c0 .104.052.156.157.156h.683c.105 0 .156-.052.156-.156v-1.309zm-2.812-2.324v.019h3.301c.039 0 .068-.012.088-.039.019-.026.029-.058.029-.097-.052-.169-.11-.345-.176-.528-.039-.129-.058-.253-.058-.371 0-.156.039-.312.117-.468.13-.261.339-.43.625-.508l.39-.078c.013-.013.02-.023.02-.03 0-.007-.007-.009-.02-.009h-3.144c-.039 0-.068.012-.088.039-.02.026-.022.058-.01.097.066.183.124.378.176.586.013.091.02.176.02.254 0 .222-.066.423-.196.606-.182.26-.436.417-.761.468l-.313.059zm-1.602 2.187c-.104 0-.156.046-.156.137v1.309c0 .104.052.156.156.156h.645c.091 0 .137-.052.137-.156v-1.309c0-.091-.046-.137-.137-.137h-.645zm-3.007-4.296c-.013 0-.023.006-.03.019-.007.013-.003.026.01.039l.684.274c.299.117.514.319.644.605.066.144.098.286.098.43 0 .156-.039.305-.117.449-.027.065-.059.13-.098.195-.013.027-.01.052.01.078.019.027.042.039.068.039h2.051c.104 0 .149-.045.137-.136-.013-.169-.033-.352-.059-.547-.013-.066-.019-.13-.019-.195 0-.235.065-.456.195-.664.182-.248.423-.398.723-.45l.781-.117c.012 0 .019-.003.019-.01s-.007-.009-.019-.009h-5.078zm13.925 3.144h-.039c-.012 0-.019.007-.019.02v2.578c0 .104.052.156.156.156h1.035c.3 0 .56.107.781.322.222.215.332.479.332.791 0 .313-.11.579-.332.801-.221.222-.481.332-.781.332h-16.152c-.3 0-.56-.11-.781-.332-.222-.222-.332-.488-.332-.801 0-.312.11-.576.332-.791.221-.215.481-.322.781-.322h1.094c.104 0 .156-.052.156-.156v-2.11c0-.026-.01-.042-.029-.048-.02-.007-.037-.003-.049.009-.169.157-.371.235-.606.235h-.019c-.247 0-.462-.085-.645-.254l-.449-.41c-.208-.196-.313-.423-.313-.684 0-.312.111-.579.333-.801.429-.456.768-.969 1.015-1.543.013-.039.01-.071-.01-.097-.019-.027-.048-.039-.088-.039h-.292c-.287 0-.528-.098-.723-.293-.195-.196-.293-.433-.293-.713 0-.281.098-.521.293-.723.195-.202.436-.303.723-.303h6.132c.105 0 .157-.046.157-.136v-.235c0-.091-.052-.137-.157-.137h-4.277c-.261 0-.481-.094-.664-.283-.183-.188-.274-.413-.274-.674 0-.26.091-.485.274-.673.183-.189.403-.284.664-.284h4.277c.105 0 .157-.045.157-.136v-.196c0-.09-.052-.136-.157-.136h-6.191c-.286 0-.527-.098-.723-.293-.195-.196-.293-.433-.293-.713 0-.28.098-.521.293-.723.196-.202.437-.303.723-.303h6.191c.105 0 .157-.045.157-.136v-.215c0-.091-.052-.137-.157-.137h-4.16c-.261 0-.481-.095-.664-.283-.182-.189-.273-.413-.273-.674 0-.261.091-.481.273-.664.183-.183.403-.273.664-.273h4.219c.065 0 .098-.039.098-.118 0-.234.081-.432.244-.595.163-.163.361-.244.595-.244h1.211c.222 0 .413.081.577.244.163.163.244.361.244.595 0 .079.039.118.117.118h4.785c.313 0 .583.11.811.332.227.221.341.495.341.82v1.094c0 .091.046.136.137.136h.664c.286 0 .527.101.723.303.195.202.293.443.293.723 0 .28-.098.517-.293.713-.196.195-.437.293-.723.293h-.664c-.091 0-.137.046-.137.136v1.094c0 .313-.114.583-.341.811-.228.227-.498.341-.811.341h-4.746c-.105 0-.156.046-.156.137v.235c0 .09.051.136.156.136h6.68c.286 0 .527.101.722.303.196.202.293.442.293.723 0 .28-.097.517-.293.713-.195.195-.436.293-.722.293h-.508c-.027 0-.042.012-.049.039-.007.026-.003.046.01.058.508.534.989 1.101 1.445 1.699.13.169.195.345.195.528 0 .091-.012.182-.039.273-.078.286-.254.488-.527.606l-.586.254c-.183.09-.371.104-.566.039-.196-.066-.345-.183-.45-.352z"/>
            </g>
        </g>
    </g>
</svg>
