<svg xmlns="http://www.w3.org/2000/svg" xmlns:xlink="http://www.w3.org/1999/xlink" width="100" height="100" viewBox="0 0 100 100">
    <defs>
        <linearGradient id="zfh3c5zw9a" x1="40.62%" x2="60.046%" y1="0%" y2="100%">
            <stop offset="0%" stop-color="#F7ECA8"/>
            <stop offset="50.754%" stop-color="#BF9437" stop-opacity=".7"/>
            <stop offset="100%" stop-color="#E7CC7E"/>
        </linearGradient>
        <linearGradient id="uo9ld7982d" x1="40.62%" x2="60.046%" y1="0%" y2="100%">
            <stop offset="0%" stop-color="#F7ECA8"/>
            <stop offset="51.673%" stop-color="#BF9437"/>
            <stop offset="100%" stop-color="#E7CC7E"/>
        </linearGradient>
        <linearGradient id="x2p4w9oo9e" x1="3.314%" x2="100%" y1="0%" y2="100%">
            <stop offset="0%" stop-color="#F7ECA8"/>
            <stop offset="50.754%" stop-color="#BF9437" stop-opacity=".7"/>
            <stop offset="100%" stop-color="#E7CC7E"/>
        </linearGradient>
        <linearGradient id="87yktmbxlf" x1="5.963%" x2="97.163%" y1="0%" y2="100%">
            <stop offset="0%" stop-color="#F7ECA8"/>
            <stop offset="50.754%" stop-color="#BF9437" stop-opacity=".7"/>
            <stop offset="100%" stop-color="#E7CC7E"/>
        </linearGradient>
        <filter id="u598g86nib" width="108%" height="103.7%" x="-4%" y="-1.8%" filterUnits="objectBoundingBox">
            <feOffset in="SourceAlpha" result="shadowOffsetOuter1"/>
            <feGaussianBlur in="shadowOffsetOuter1" result="shadowBlurOuter1" stdDeviation="5"/>
            <feColorMatrix in="shadowBlurOuter1" values="0 0 0 0 0.321148859 0 0 0 0 0.20422573 0 0 0 0 0 0 0 0 1 0"/>
        </filter>
        <path id="5tatjlneec" d="M375 0v812H0V0h375zm-70.374 9.998H70.374c-5.486 0-9.446 5.407-7.644 10.533l.087.236c1.612 4.161 2.392 8.738 2.135 13.525l-.039.626c-1.141 15.78-13.8 28.584-29.52 29.957l-.477.038c-4.805.347-9.407-.35-13.604-1.89l-.545-.205c-5.115-1.982-10.6 1.865-10.765 7.303l-.004.252v671.252c0 5.486 5.406 9.446 10.533 7.643l.236-.087c4.161-1.612 8.737-2.39 13.524-2.134l.625.039c15.78 1.142 28.585 13.8 29.958 29.518l.038.477c.347 4.805-.35 9.408-1.89 13.606l-.206.545c-1.98 5.115 1.867 10.6 7.305 10.764l.252.004h234.252c5.487 0 9.447-5.406 7.643-10.532l-.087-.236c-1.611-4.162-2.392-8.738-2.134-13.525l.04-.626c1.14-15.78 13.798-28.584 29.517-29.957l.477-.038c4.805-.347 9.408.35 13.606 1.89l.545.206c5.116 1.98 10.6-1.867 10.765-7.305l.004-.252V70.373c0-5.486-5.405-9.446-10.532-7.642l-.236.087c-4.162 1.611-8.738 2.39-13.525 2.133l-.625-.039c-15.782-1.141-28.584-13.798-29.957-29.517l-.038-.477c-.348-4.805.35-9.409 1.889-13.606l.205-.545c1.982-5.115-1.866-10.6-7.304-10.765l-.252-.004z"/>
    </defs>
    <g fill="none" fill-rule="evenodd">
        <g>
            <g>
                <path stroke="#1C509B" stroke-width="10" d="M5 5H370V807H5z" transform="translate(-275 -712)"/>
                <path stroke="url(#zfh3c5zw9a)" stroke-width="3" d="M11.5 11.5H363.5V800.5H11.5z" transform="translate(-275 -712)"/>
            </g>
            <g transform="translate(-275 -712)">
                <g>
                    <use fill="#000" filter="url(#u598g86nib)" xlink:href="#5tatjlneec"/>
                    <use fill="#1C509B" xlink:href="#5tatjlneec"/>
                </g>
                <path stroke="url(#uo9ld7982d)" stroke-width="3" d="M70.374 9.998c-5.57 0-9.568 5.575-7.557 10.769 1.682 4.342 2.458 9.137 2.096 14.151C63.76 50.857 50.857 63.76 34.916 64.913c-5.014.362-9.807-.413-14.149-2.095-5.194-2.012-10.769 1.985-10.769 7.555v671.252c0 5.57 5.574 9.567 10.769 7.556 4.342-1.682 9.136-2.457 14.149-2.095 15.94 1.154 28.843 14.056 29.996 29.995.362 5.014-.413 9.808-2.096 14.151C60.805 796.426 64.803 802 70.373 802h234.252c5.571 0 9.568-5.574 7.556-10.768-1.681-4.343-2.458-9.137-2.094-14.151 1.152-15.94 14.055-28.842 29.994-29.995 5.014-.362 9.808.413 14.151 2.096 5.195 2.01 10.769-1.987 10.769-7.557V70.373c0-5.57-5.573-9.568-10.768-7.555-4.343 1.681-9.137 2.457-14.15 2.094-15.941-1.153-28.842-14.055-29.995-29.994-.363-5.014.413-9.809 2.094-14.151 2.012-5.194-1.986-10.769-7.556-10.769H70.374z"/>
                <circle cx="342.5" cy="779.5" r="21" fill="#05296A" stroke="url(#x2p4w9oo9e)" stroke-width="3"/>
                <path fill="url(#87yktmbxlf)" d="M350.305 779.746c.312 0 .583.114.81.342.228.227.342.498.342.81v.586c0 .313-.114.583-.341.811-.228.227-.5.342-.811.342h-6.113c-.105 0-.157.051-.157.156v5.137c0 .312-.114.583-.341.81-.228.228-.498.342-.811.342h-.801c-.312 0-.583-.114-.81-.342-.228-.227-.342-.498-.342-.81v-5.137c0-.105-.046-.156-.137-.156h-6.64c-.313 0-.583-.115-.811-.342-.227-.228-.342-.498-.342-.811v-.586c0-.312.115-.583.342-.81.228-.228.498-.342.81-.342h6.64c.092 0 .138-.052.138-.156v-3.282c0-.09-.046-.136-.137-.136H337.2c-.091 0-.157.046-.196.136-.34.677-.683 1.283-1.035 1.817-.17.261-.417.423-.742.488-.091.013-.176.02-.254.02-.234 0-.45-.059-.645-.176-.247-.117-.514-.247-.8-.391-.247-.104-.404-.299-.47-.586-.012-.065-.02-.13-.02-.195 0-.195.06-.378.177-.547.469-.612.892-1.341 1.27-2.187.417-.951.768-1.947 1.054-2.989.09-.312.267-.553.528-.722.208-.13.423-.196.644-.196.078 0 .156.007.235.02l.78.156c.313.052.555.215.724.488.104.169.156.352.156.547 0 .091-.013.189-.04.293-.09.3-.195.638-.312 1.016-.012.039-.007.071.02.098.026.026.052.039.078.039h2.422c.104 0 .156-.046.156-.137v-1.934c0-.312.114-.583.342-.81.227-.228.498-.342.81-.342h.8c.314 0 .584.114.812.342.227.227.34.498.34.81v1.914c0 .105.047.157.138.157h4.96c.314 0 .584.114.812.341.227.228.34.499.34.811v.566c0 .313-.113.583-.34.811-.228.228-.498.342-.811.342h-4.941c-.105 0-.157.046-.157.136v3.282c0 .104.052.156.157.156h6.113z"/>
            </g>
        </g>
    </g>
</svg>
