<svg xmlns="http://www.w3.org/2000/svg" xmlns:xlink="http://www.w3.org/1999/xlink" width="100" height="100" viewBox="0 0 100 100">
    <defs>
        <linearGradient id="7fy1g6pjxa" x1="40.62%" x2="60.046%" y1="0%" y2="100%">
            <stop offset="0%" stop-color="#F7ECA8"/>
            <stop offset="50.754%" stop-color="#BF9437" stop-opacity=".7"/>
            <stop offset="100%" stop-color="#E7CC7E"/>
        </linearGradient>
        <linearGradient id="tbeib8kdbd" x1="40.62%" x2="60.046%" y1="0%" y2="100%">
            <stop offset="0%" stop-color="#F7ECA8"/>
            <stop offset="51.673%" stop-color="#BF9437"/>
            <stop offset="100%" stop-color="#E7CC7E"/>
        </linearGradient>
        <linearGradient id="igldf2vqee" x1="3.314%" x2="100%" y1="0%" y2="100%">
            <stop offset="0%" stop-color="#F7ECA8"/>
            <stop offset="50.754%" stop-color="#BF9437" stop-opacity=".7"/>
            <stop offset="100%" stop-color="#E7CC7E"/>
        </linearGradient>
        <linearGradient id="ncmudcqztf" x1="3.612%" x2="99.681%" y1="0%" y2="100%">
            <stop offset="0%" stop-color="#F7ECA8"/>
            <stop offset="50.754%" stop-color="#BF9437" stop-opacity=".7"/>
            <stop offset="100%" stop-color="#E7CC7E"/>
        </linearGradient>
        <filter id="oc8yibxyob" width="108%" height="103.7%" x="-4%" y="-1.8%" filterUnits="objectBoundingBox">
            <feOffset in="SourceAlpha" result="shadowOffsetOuter1"/>
            <feGaussianBlur in="shadowOffsetOuter1" result="shadowBlurOuter1" stdDeviation="5"/>
            <feColorMatrix in="shadowBlurOuter1" values="0 0 0 0 0.321148859 0 0 0 0 0.20422573 0 0 0 0 0 0 0 0 1 0"/>
        </filter>
        <path id="iah7jd29ic" d="M375 0v812H0V0h375zm-70.374 9.998H70.374c-5.486 0-9.446 5.407-7.644 10.533l.087.236c1.612 4.161 2.392 8.738 2.135 13.525l-.039.626c-1.141 15.78-13.8 28.584-29.52 29.957l-.477.038c-4.805.347-9.407-.35-13.604-1.89l-.545-.205c-5.115-1.982-10.6 1.865-10.765 7.303l-.004.252v671.252c0 5.486 5.406 9.446 10.533 7.643l.236-.087c4.161-1.612 8.737-2.39 13.524-2.134l.625.039c15.78 1.142 28.585 13.8 29.958 29.518l.038.477c.347 4.805-.35 9.408-1.89 13.606l-.206.545c-1.98 5.115 1.867 10.6 7.305 10.764l.252.004h234.252c5.487 0 9.447-5.406 7.643-10.532l-.087-.236c-1.611-4.162-2.392-8.738-2.134-13.525l.04-.626c1.14-15.78 13.798-28.584 29.517-29.957l.477-.038c4.805-.347 9.408.35 13.606 1.89l.545.206c5.116 1.98 10.6-1.867 10.765-7.305l.004-.252V70.373c0-5.486-5.405-9.446-10.532-7.642l-.236.087c-4.162 1.611-8.738 2.39-13.525 2.133l-.625-.039c-15.782-1.141-28.584-13.798-29.957-29.517l-.038-.477c-.348-4.805.35-9.409 1.889-13.606l.205-.545c1.982-5.115-1.866-10.6-7.304-10.765l-.252-.004z"/>
    </defs>
    <g fill="none" fill-rule="evenodd">
        <g>
            <g>
                <path stroke="#1C509B" stroke-width="10" d="M5 5H370V807H5z" transform="translate(-275)"/>
                <path stroke="url(#7fy1g6pjxa)" stroke-width="3" d="M11.5 11.5H363.5V800.5H11.5z" transform="translate(-275)"/>
            </g>
            <g transform="translate(-275)">
                <g>
                    <use fill="#1C509B" xlink:href="#iah7jd29ic"/>
                </g>
                <path stroke="url(#tbeib8kdbd)" stroke-width="3" d="M70.374 9.998c-5.57 0-9.568 5.575-7.557 10.769 1.682 4.342 2.458 9.137 2.096 14.151C63.76 50.857 50.857 63.76 34.916 64.913c-5.014.362-9.807-.413-14.149-2.095-5.194-2.012-10.769 1.985-10.769 7.555v671.252c0 5.57 5.574 9.567 10.769 7.556 4.342-1.682 9.136-2.457 14.149-2.095 15.94 1.154 28.843 14.056 29.996 29.995.362 5.014-.413 9.808-2.096 14.151C60.805 796.426 64.803 802 70.373 802h234.252c5.571 0 9.568-5.574 7.556-10.768-1.681-4.343-2.458-9.137-2.094-14.151 1.152-15.94 14.055-28.842 29.994-29.995 5.014-.362 9.808.413 14.151 2.096 5.195 2.01 10.769-1.987 10.769-7.557V70.373c0-5.57-5.573-9.568-10.768-7.555-4.343 1.681-9.137 2.457-14.15 2.094-15.941-1.153-28.842-14.055-29.995-29.994-.363-5.014.413-9.809 2.094-14.151 2.012-5.194-1.986-10.769-7.556-10.769H70.374z"/>
                <circle cx="342.5" cy="32.5" r="21" fill="#05296A" stroke="url(#igldf2vqee)" stroke-width="3"/>
                <path fill="url(#ncmudcqztf)" d="M346.066 39.191c.104 0 .156-.052.156-.156v-1.309c0-.091-.052-.137-.156-.137h-.664c-.09 0-.137.046-.137.137v1.309c0 .104.046.156.137.156h.664zm-1.406-3.809c-.013.013-.02.023-.02.03 0 .007.007.009.02.009h3.594c.026 0 .045-.012.058-.039.013-.026.013-.051 0-.078-.169-.221-.345-.436-.527-.644-.117-.156-.176-.325-.176-.508 0-.065.007-.137.02-.215.065-.261.227-.442.488-.547l.156-.058c.013 0 .02-.007.02-.02 0-.013-.007-.019-.02-.019h-3.008c-.039 0-.065.012-.078.039-.013.026-.013.051 0 .078.105.182.195.371.274.566.065.13.097.261.097.391 0 .156-.046.312-.137.469-.156.273-.39.449-.703.527l-.058.019zm-1.133-7.011c-.105 0-.156.046-.156.136v.196c0 .091.051.136.156.136h2.871c.091 0 .137-.045.137-.136v-.196c0-.09-.046-.136-.137-.136h-2.87zm0-2.52c-.105 0-.156.046-.156.137v.215c0 .091.051.136.156.136h2.871c.091 0 .137-.045.137-.136v-.215c0-.091-.046-.137-.137-.137h-2.87zm-.899 11.875c0-.091-.05-.137-.156-.137h-.683c-.105 0-.157.046-.157.137v1.309c0 .104.052.156.157.156h.683c.105 0 .156-.052.156-.156v-1.309zm-2.812-2.324v.019h3.301c.04 0 .068-.012.088-.039.02-.026.03-.058.03-.097-.053-.169-.11-.345-.177-.528-.039-.129-.058-.253-.058-.371 0-.156.04-.312.117-.468.13-.261.34-.43.625-.508l.39-.078c.013-.013.02-.023.02-.03 0-.007-.007-.009-.02-.009h-3.144c-.039 0-.068.012-.088.039-.02.026-.022.058-.01.097.066.183.124.378.176.586.013.091.02.176.02.254 0 .222-.066.423-.196.606-.182.26-.436.417-.76.468l-.314.059zm-1.602 2.187c-.104 0-.156.046-.156.137v1.309c0 .104.052.156.156.156h.645c.091 0 .137-.052.137-.156v-1.309c0-.091-.046-.137-.137-.137h-.645zm-3.007-4.296c-.013 0-.023.006-.03.019-.007.013-.003.026.01.039l.684.274c.3.117.514.319.644.605.066.144.098.286.098.43 0 .156-.039.305-.117.449-.027.065-.059.13-.098.195-.013.027-.01.052.01.078.02.027.042.039.068.039h2.051c.104 0 .15-.045.137-.136-.013-.169-.033-.352-.059-.547-.013-.066-.019-.13-.019-.195 0-.235.065-.456.195-.664.182-.248.423-.398.723-.45l.781-.117c.012 0 .02-.003.02-.01s-.008-.009-.02-.009h-5.078zm13.925 3.144h-.039c-.012 0-.019.007-.019.02v2.578c0 .104.052.156.156.156h1.035c.3 0 .56.107.781.322.222.215.332.479.332.791 0 .313-.11.579-.332.801-.22.222-.48.332-.78.332h-16.153c-.3 0-.56-.11-.78-.332-.223-.222-.333-.488-.333-.801 0-.312.11-.576.332-.791.221-.215.481-.322.781-.322h1.094c.104 0 .156-.052.156-.156v-2.11c0-.026-.01-.042-.029-.048-.02-.007-.037-.003-.049.009-.169.157-.37.235-.606.235h-.019c-.247 0-.462-.085-.645-.254l-.449-.41c-.208-.196-.313-.423-.313-.684 0-.312.111-.579.333-.801.43-.456.768-.969 1.015-1.543.013-.039.01-.071-.01-.097-.019-.027-.048-.039-.088-.039h-.292c-.287 0-.528-.098-.723-.293-.195-.196-.293-.433-.293-.713 0-.281.098-.521.293-.723.195-.202.436-.303.723-.303h6.132c.105 0 .157-.046.157-.136v-.235c0-.091-.052-.137-.157-.137h-4.277c-.26 0-.48-.094-.664-.283-.183-.188-.274-.413-.274-.674 0-.26.091-.485.274-.673.183-.189.403-.284.664-.284h4.277c.105 0 .157-.045.157-.136v-.196c0-.09-.052-.136-.157-.136h-6.19c-.287 0-.528-.098-.724-.293-.195-.196-.293-.433-.293-.713 0-.28.098-.521.293-.723.196-.202.437-.303.723-.303h6.191c.105 0 .157-.045.157-.136v-.215c0-.091-.052-.137-.157-.137h-4.16c-.26 0-.48-.095-.664-.283-.182-.189-.273-.413-.273-.674 0-.261.091-.481.273-.664.183-.183.403-.273.664-.273h4.22c.064 0 .097-.039.097-.118 0-.234.081-.432.244-.595.163-.163.361-.244.595-.244h1.211c.222 0 .413.081.577.244.163.163.244.361.244.595 0 .079.04.118.117.118h4.785c.313 0 .583.11.811.332.227.221.341.495.341.82v1.094c0 .091.046.136.137.136h.664c.286 0 .527.101.723.303.195.202.293.443.293.723 0 .28-.098.517-.293.713-.196.195-.437.293-.723.293h-.664c-.09 0-.137.046-.137.136v1.094c0 .313-.114.583-.34.811-.229.227-.499.341-.812.341h-4.746c-.105 0-.156.046-.156.137v.235c0 .09.051.136.156.136h6.68c.286 0 .527.101.722.303.196.202.293.442.293.723 0 .28-.097.517-.293.713-.195.195-.436.293-.722.293h-.508c-.027 0-.042.012-.049.039-.007.026-.003.046.01.058.508.534.99 1.101 1.445 1.699.13.169.195.345.195.528 0 .091-.012.182-.039.273-.078.286-.254.488-.527.606l-.586.254c-.183.09-.37.104-.566.039-.196-.066-.345-.183-.45-.352z"/>
            </g>
        </g>
    </g>
</svg>
