<svg xmlns="http://www.w3.org/2000/svg" width="26.866" height="25.667" viewBox="0 0 26.866 25.667">
    <defs>
        <style>
            .cls-1{fill:#112e53}
        </style>
    </defs>
    <g id="组_4221" data-name="组 4221" transform="translate(-312.043 -39.569)">
        <path id="路径_4578" data-name="路径 4578" class="cls-1" d="M312.043 61.842c.043-.168.082-.338.131-.5a3.254 3.254 0 0 1 2.868-2.33c.042 0 .084-.009.159-.018V45.538a1.714 1.714 0 0 1 1.354-1.864c.5-.168 1.007-.341 1.519-.515v-2.346a1.212 1.212 0 0 1 .934-1.207 1.246 1.246 0 0 1 1.444.679 1.793 1.793 0 0 1 .123.635c.018.452.005.9.005 1.394.548-.182 1.06-.349 1.57-.521 1.638-.551 3.276-1.1 4.911-1.661a.54.54 0 0 1 .616.136q1.768 1.719 3.544 3.429a1.735 1.735 0 0 1 .558 1.303q-.008 2.321 0 4.643c0 .221-.048.4-.274.483a.393.393 0 0 1-.512-.4c-.012-.341 0-.682 0-1.023 0-1.215-.006-2.431 0-3.646a1.078 1.078 0 0 0-.353-.837c-.96-.918-1.912-1.844-2.9-2.8v9.8h6.656a1.3 1.3 0 0 1 1.464 1.468v6.286a9.148 9.148 0 0 1 .983.083 2.548 2.548 0 0 1 2.059 2.45c.016.909.009 1.819 0 2.728a.967.967 0 0 1-.9.982 3.261 3.261 0 0 1-.34.011q-12.184 0-24.369.007a1.162 1.162 0 0 1-1.25-.771zm14.879-15.015c-.121.036-.2.056-.268.081l-6.1 2.052c-.629.211-1.253.436-1.889.624a.613.613 0 0 1-.471-.088.423.423 0 0 1-.071-.393.574.574 0 0 1 .328-.261c.89-.311 1.786-.6 2.679-.9q2.779-.935 5.556-1.874c.088-.03.226-.1.228-.161.016-.625.01-1.251.01-1.9-.108.029-.183.045-.255.07l-4.842 1.623q-1.563.526-3.128 1.049c-.311.1-.532.023-.608-.215s.055-.426.367-.532c.215-.073.431-.143.646-.216l7.595-2.551c.168-.056.238-.125.229-.31-.016-.349 0-.7 0-1.049v-.852c-.134.04-.225.065-.314.094l-9.876 3.317a.936.936 0 0 0-.745 1.054v18.649c0 .093.008.185.012.285h2.073v-2.8a.99.99 0 0 1 .83-1.1q1.7-.477 3.4-.95a.869.869 0 0 1 1.217.935v3.92h3.38v-9.095c-.087.024-.153.039-.217.06l-3.325 1.117c-.513.172-1.024.348-1.54.512a.376.376 0 0 1-.5-.243.384.384 0 0 1 .262-.5c.057-.023.116-.038.174-.058 1.646-.555 3.29-1.113 4.938-1.659a.284.284 0 0 0 .235-.332c-.015-.323 0-.647 0-.97v-.769c-.119.036-.194.055-.267.08l-5.956 2c-.678.228-1.353.469-2.038.675a.612.612 0 0 1-.471-.086.413.413 0 0 1-.073-.392.631.631 0 0 1 .352-.269c1.5-.515 3.009-1.018 4.514-1.524 1.241-.417 2.482-.833 3.72-1.257.083-.028.207-.114.208-.176.016-.617.009-1.234.009-1.881-.117.034-.2.055-.279.082l-7.047 2.37a9.746 9.746 0 0 1-1 .321.524.524 0 0 1-.432-.134.477.477 0 0 1-.02-.423c.047-.1.21-.173.336-.216 1.189-.407 2.381-.8 3.572-1.206q2.32-.781 4.638-1.567c.088-.03.217-.126.219-.194.012-.609.005-1.219.005-1.867zm.812 5.181v9.97h5.749a.306.306 0 0 0 .021-.066c0-.122 0-.245.007-.367a2.539 2.539 0 0 1 1.347-2.222.372.372 0 0 0 .217-.386c-.006-2.08 0-4.161 0-6.241 0-.546-.139-.688-.677-.688h-6.659zm-.01 12.418h5.767V62.8h-5.767zm6.587-2.455h3.789a1.917 1.917 0 1 0-3.794 0zm0 2.471h3.465c.164 0 .336 0 .339-.226.007-.469 0-.938 0-1.413h-3.806zm-11.589-4.166c-.472.13-.9.254-1.327.361-.167.042-.214.122-.213.29.008 1.093 0 2.186 0 3.278 0 .068.01.135.017.216h1.519zm-2.339.653c-.431.118-.839.238-1.251.34a.317.317 0 0 0-.276.367c.011.863 0 1.727.005 2.59 0 .066.013.131.019.2h1.5zm-5.2 3.513V62.8h-2.353v1.036c0 .613-.062.613.618.608.574-.005 1.152-.002 1.735-.002zm-2.317-2.464h2.334V59.8a2.4 2.4 0 0 0-2.334 2.178zm6-19.092c.239-.077.45-.156.667-.213a.3.3 0 0 0 .27-.361c-.022-.453 0-.907-.008-1.361a.906.906 0 0 0-.034-.283.433.433 0 0 0-.49-.3.382.382 0 0 0-.4.374c-.016.701-.007 1.407-.007 2.144z"/>
        <path id="路径_4579" data-name="路径 4579" class="cls-1" d="M400.3 286.83c-.06.061-.149.22-.281.271-.469.184-.951.338-1.432.489a.392.392 0 1 1-.232-.747c.468-.164.937-.323 1.41-.473.274-.088.53.094.535.46z" transform="translate(-79.976 -229.483)"/>
        <path id="路径_4580" data-name="路径 4580" class="cls-1" d="M553.2 275.787c-.411 0-.822-.01-1.232 0-1.259.037-1.4-.075-1.354-1.368v-.236a.646.646 0 0 1 .664-.665q1.926-.012 3.853 0a.624.624 0 0 1 .649.594 7.182 7.182 0 0 1 0 1.073.628.628 0 0 1-.7.6c-.627.006-1.256.001-1.88.002zm1.791-.8v-.67h-3.569v.67z" transform="translate(-221.838 -217.548)"/>
        <path id="路径_4581" data-name="路径 4581" class="cls-1" d="M553.269 233.1h-1.809a.673.673 0 0 1-.771-.77v-.813a.648.648 0 0 1 .669-.686q1.914-.011 3.827 0a.647.647 0 0 1 .68.652 8.242 8.242 0 0 1 0 .969.637.637 0 0 1-.683.644c-.638.01-1.276 0-1.914 0zm-1.782-.806h3.584v-.661h-3.584z" transform="translate(-221.918 -177.848)"/>
        <path id="路径_4582" data-name="路径 4582" class="cls-1" d="M551.986 316.741c.21 0 .42-.008.629 0a.627.627 0 0 1 .642.624c.015.34.015.682 0 1.021a.626.626 0 0 1-.627.614c-.445.012-.891.013-1.336 0a.632.632 0 0 1-.617-.626c-.012-.34-.012-.682 0-1.022a.622.622 0 0 1 .6-.608c.235-.014.471 0 .707 0zm-.516.8v.664h.988v-.664z" transform="translate(-221.898 -257.743)"/>
    </g>
</svg>
