<svg xmlns="http://www.w3.org/2000/svg" width="26.866" height="18.465" viewBox="0 0 26.866 18.465">
    <path d="M.04 9.711c.087-.3.15-.609.261-.9A4.094 4.094 0 0 1 1.67 6.894c.466-.364.93-.736 1.43-1.147-.491-.1-.926-.19-1.369-.285C1.4 5.4 1.3 5.28 1.3 4.948v-1.1a.425.425 0 0 1 .483-.483q.985-.012 1.97 0c.324 0 .475.158.483.483v.57c.024.008.047.024.071.032.2-.332.419-.649.593-.989.261-.522.483-1.068.736-1.59A3.074 3.074 0 0 1 8.506.018q4.938-.036 9.883 0a3.074 3.074 0 0 1 2.88 1.844c.356.712.688 1.432 1.045 2.136a1.29 1.29 0 0 0 .364.419c0-.2-.008-.4 0-.593a.415.415 0 0 1 .451-.459q1.009-.012 2.018 0a.411.411 0 0 1 .459.451c.008.4 0 .783 0 1.179a.424.424 0 0 1-.38.459c-.451.095-.91.182-1.4.285.071.071.127.119.182.166.419.34.847.673 1.266 1.021a4.135 4.135 0 0 1 1.583 3.284c.016 2.279.008 4.566.008 6.845a1.275 1.275 0 0 1-1.416 1.408h-3.095a1.274 1.274 0 0 1-1.369-1.377v-.7H5.879v.744a1.261 1.261 0 0 1-1.337 1.329c-.981 0-1.962-.024-2.936.008a1.445 1.445 0 0 1-1.606-1c.04-2.581.04-5.167.04-7.756zm20.581-.261-.071-.05c-.095.119-.19.229-.277.348a.9.9 0 0 1-.8.34c-1.448-.016-2.9-.008-4.352 0a.556.556 0 0 0-.356.15c-.3.277-.586.578-.878.863-.324.324-.5.324-.839-.008-.285-.285-.562-.578-.855-.847a.627.627 0 0 0-.38-.158q-2.243-.012-4.487 0a.686.686 0 0 1-.554-.229c-.127-.15-.269-.293-.451-.483-.135.166-.237.277-.332.4a.833.833 0 0 1-.76.317q-1.377-.024-2.754 0a1.984 1.984 0 0 1-1.557-.485v1.749c.665 0 1.337-.008 2 0a2.685 2.685 0 0 1 1.685.625.64.64 0 0 1 .206.293.375.375 0 0 1-.19.451.423.423 0 0 1-.53-.079 2.452 2.452 0 0 0-1.954-.435v.288a.86.86 0 0 0 .957.957H4.17c.3 0 .491.174.483.427a.424.424 0 0 1-.483.4q-.617.012-1.234 0A1.68 1.68 0 0 1 1.3 12.639V12.2H.878c0 .7-.008 1.385 0 2.073a1.248 1.248 0 0 0 1.258 1.266c.934.008 1.867.008 2.809 0a.413.413 0 0 0 .269-.111c.261-.245.506-.506.768-.76a2.67 2.67 0 0 1 1.954-.807h10.857a2.678 2.678 0 0 1 1.954.815c.245.245.491.5.744.736a.44.44 0 0 0 .269.119c1.021.008 2.042.016 3.07 0a1.238 1.238 0 0 0 1.226-1.25c.008-.657 0-1.314 0-1.97 0-.04-.016-.079-.016-.119h-.4v.388a1.682 1.682 0 0 1-1.7 1.693c-.4.008-.783.008-1.179 0a.432.432 0 0 1-.475-.419.426.426 0 0 1 .467-.419c.34-.008.681-.024 1.021 0a.927.927 0 0 0 .989-1.258 8.728 8.728 0 0 0-.91.008 1.866 1.866 0 0 0-1.013.443.418.418 0 0 1-.625-.016.424.424 0 0 1 .095-.625 2.359 2.359 0 0 1 .317-.237 2.826 2.826 0 0 1 1.488-.427c.641.008 1.29 0 1.907 0V9.592a1.889 1.889 0 0 1-1.432.483c-.783-.008-1.575-.04-2.358.008a1.6 1.6 0 0 1-1.575-.625c-.02 0-.028-.008-.036-.008zM3.157 6.839c.522.206 1.045.459 1.583.633a4.983 4.983 0 0 1 2.453 1.606.553.553 0 0 0 .38.158c1.5.008 2.991.008 4.479 0a.686.686 0 0 1 .554.229c.269.293.554.57.855.87.309-.317.578-.617.878-.878a.869.869 0 0 1 .506-.206c1.155-.024 2.311-.016 3.466-.016a3.406 3.406 0 0 0 1.242-.04c.364-.15.617-.578.934-.855a2.5 2.5 0 0 1 .665-.443c.76-.324 1.535-.617 2.3-.926.111-.047.222-.095.356-.15-.087-.079-.158-.127-.222-.182-.459-.451-.926-.894-1.369-1.369a.6.6 0 0 0-.483-.229q-8.107.012-16.221-.008a.98.98 0 0 0-1.013.484.483.483 0 0 1-.1.119c-.4.388-.815.791-1.243 1.203zm18.279-2.651c-.317-.688-.6-1.369-.942-2.026A2.241 2.241 0 0 0 18.413.849c-3.3-.016-6.607-.008-9.907 0A2.173 2.173 0 0 0 6.56 1.933c-.419.712-.72 1.488-1.076 2.255zM6.338 15.5h14.038a2.083 2.083 0 0 0-1.749-.823q-5.27.024-10.54 0a2.125 2.125 0 0 0-1.749.823zm-5.452.435c0 .475-.016.9.008 1.321a.38.38 0 0 0 .411.364c1.116.008 2.231.008 3.355 0a.369.369 0 0 0 .4-.34 8.841 8.841 0 0 0 .008-.918c-.783 0-1.543-.008-2.3 0a2.686 2.686 0 0 1-1.882-.423zm25.163-.008a2.493 2.493 0 0 1-1.725.435c-.712-.016-1.432 0-2.144 0h-.324c0 .309-.016.586.008.863a.38.38 0 0 0 .411.388q1.674.012 3.347 0a.385.385 0 0 0 .419-.38c.024-.408.008-.82.008-1.302zM5.721 8.809a.589.589 0 0 0-.095-.071c-1.052-.419-2.1-.847-3.157-1.258a.262.262 0 0 0-.229.04c-.285.3-.57.609-.831.926a.4.4 0 0 0-.024.317.713.713 0 0 0 .768.475c.934.008 1.867-.024 2.8.016a.9.9 0 0 0 .768-.445zm15.493-.032a.446.446 0 0 1-.032.095c.2.119.388.34.586.348 1.013.032 2.026.016 3.039.016a1.052 1.052 0 0 0 .38-.079.529.529 0 0 0 .253-.839 10.184 10.184 0 0 0-.688-.752.29.29 0 0 0-.372-.066c-.823.34-1.654.665-2.477 1-.23.087-.459.182-.689.277zm2.334-4.566v.712c.032 0 .047.008.071.008.253-.047.506-.1.768-.15.435-.079.435-.079.4-.522 0-.016-.016-.024-.032-.047zm-21.4.483c.411.079.823.158 1.226.237v-.72H2.152z" style="fill:#112e53"/>
</svg>
