<svg width="85" height="85" viewBox="0 0 85 85" fill="none" xmlns="http://www.w3.org/2000/svg">
<circle cx="42.0334" cy="42.0334" r="41.0334" stroke="#153A71" stroke-width="2"/>
<g clip-path="url(#clip0_72_4)">
<path d="M62.2123 64.9928C48.7513 64.9928 35.289 64.9928 21.828 64.9928C21.311 64.8596 21.1695 64.4471 21.1599 63.9973C21.1311 62.7872 21.0975 61.5758 21.1815 60.3657C21.2199 59.814 21.1995 59.772 20.6526 59.7588C20.3383 59.7516 20.0229 59.778 19.7122 59.7324C19.242 59.6628 19.031 59.4278 19.0058 58.9564C18.9998 58.8365 19.0046 58.7178 19.0046 58.5978C19.0046 49.5655 19.0046 40.5332 19.0046 31.502C19.0046 30.6229 19.2325 30.3854 20.1212 30.383C23.4556 30.377 26.79 30.3806 30.1255 30.3806C30.2755 30.3806 30.4242 30.383 30.5741 30.3794C31.0467 30.3662 31.0887 30.3291 31.1007 29.8673C31.1103 29.4643 31.1031 29.0601 31.1031 28.656C31.1031 25.9346 31.1031 23.2133 31.1031 20.4908C31.1031 20.1765 31.1079 19.8635 31.2206 19.5625C31.3561 19.2027 31.596 18.9952 31.993 19C32.083 19.0012 32.173 19 32.2617 19C38.7661 19 45.2706 19 51.7762 19C52.581 19 52.8809 19.2698 52.9264 20.0842C52.9648 20.7714 52.9384 21.4598 52.9396 22.1471C52.942 24.6597 52.9396 27.1712 52.9408 29.6838C52.9408 30.3674 52.954 30.3794 53.6473 30.3794C56.9517 30.3806 60.2573 30.3794 63.5617 30.3806C63.7416 30.3806 63.9203 30.3818 64.1002 30.3842C64.5284 30.389 64.8582 30.5377 64.9962 30.9791C64.9962 40.3724 64.9962 49.7658 64.9962 59.1591C64.8978 59.5789 64.598 59.7252 64.2034 59.7408C63.8747 59.754 63.5461 59.7516 63.2174 59.7468C62.9032 59.742 62.7964 59.8823 62.8288 60.1894C62.9584 61.4103 62.8792 62.636 62.8816 63.8606C62.8816 64.3487 62.794 64.8285 62.2123 64.9928Z" fill="#12386C"/>
<path d="M62.2113 64.9928C62.6215 64.735 62.7319 64.3464 62.7199 63.8882C62.6839 62.5749 62.7846 61.2593 62.6563 59.9472C62.6335 59.7169 62.6947 59.6209 62.9442 59.6365C63.2572 59.6569 63.5726 59.6293 63.8857 59.6449C64.3403 59.6677 64.7301 59.5646 64.994 59.1592C64.994 61.0134 64.9892 62.8688 65 64.723C65.0012 64.9473 64.9496 65.0024 64.7253 64.9988C63.8869 64.9832 63.0497 64.9928 62.2113 64.9928Z" fill="white"/>
<path d="M48.1866 54.0871C47.6696 54.4085 47.1935 54.7659 46.8384 55.26C46.7341 55.4063 46.6597 55.4291 46.5518 55.254C46.0876 54.5032 45.4711 53.906 44.7035 53.4694C44.388 53.2895 44.6639 53.1827 44.7586 53.0856C45.5287 52.294 45.8789 51.3393 45.8513 50.2467C45.8033 48.3949 44.2033 46.7254 42.373 46.5983C40.3352 46.4568 38.5577 47.8396 38.2506 49.7766C38.0467 51.0647 38.4125 52.1621 39.2989 53.0916C39.4932 53.2955 39.516 53.377 39.2497 53.5294C38.5373 53.9335 37.9628 54.4972 37.5322 55.1953C37.3966 55.4135 37.3199 55.4339 37.1639 55.2133C36.8845 54.8187 36.5235 54.496 36.1061 54.2598C35.8458 54.1122 35.8746 54.0127 36.0317 53.8064C37.387 52.023 36.5187 49.5499 34.3477 48.991C33.8644 48.8663 33.3786 48.9178 32.8544 48.9766C32.8544 48.8027 32.8544 48.6408 32.8544 48.4789C32.8544 39.3422 32.8568 30.2067 32.8448 21.0701C32.8448 20.6599 32.948 20.5639 33.3534 20.5651C39.1394 20.5795 44.9266 20.5795 50.7125 20.5651C51.1048 20.5639 51.1983 20.6539 51.1983 21.0497C51.1851 30.2007 51.1863 39.3518 51.1959 48.5029C51.1959 48.8603 51.1743 48.9898 50.7377 48.9466C49.4268 48.8171 48.3977 49.346 47.768 50.5106C47.1323 51.686 47.2642 52.8301 48.0714 53.8952C48.1122 53.9527 48.1458 54.0199 48.1866 54.0871Z" fill="white"/>
<path d="M29.1003 56.9967C29.0655 56.9919 29.0487 56.9955 29.0391 56.9883C28.774 56.7964 28.3878 56.6537 28.2799 56.3946C28.1635 56.1152 28.5797 55.8825 28.7069 55.5886C29.2022 54.4457 29.1135 53.3602 28.3518 52.3864C27.5542 51.3669 26.4676 50.9723 25.2058 51.2866C23.9716 51.5948 23.1872 52.4283 22.9293 53.6709C22.7506 54.532 22.9209 55.3692 23.481 56.078C23.6597 56.3047 23.6885 56.403 23.4102 56.5697C22.9065 56.8707 22.4795 57.2761 22.1772 57.7847C22.0237 58.0437 21.833 58.0953 21.5572 58.0917C20.5748 58.0785 20.5748 58.0881 20.5748 57.089C20.5748 48.9106 20.5784 40.7311 20.564 32.5527C20.5628 32.1305 20.6852 32.0501 21.0798 32.0525C24.3386 32.0681 27.5986 32.0657 30.8574 32.0537C31.1813 32.0525 31.282 32.1149 31.2808 32.4627C31.2688 38.1896 31.2712 43.9153 31.2736 49.6423C31.2736 49.8569 31.234 50.0344 31.1009 50.2203C30.2997 51.3345 30.3321 52.727 31.1741 53.8316C31.2952 53.9911 31.3732 54.0751 31.1321 54.2262C30.1462 54.845 29.4925 55.7254 29.1746 56.8516C29.1614 56.9067 29.1243 56.9535 29.1003 56.9967Z" fill="white"/>
<path d="M54.9381 57.0399C54.7402 56.3946 54.4919 55.8106 54.0949 55.302C53.7615 54.8751 53.3765 54.4997 52.9087 54.2238C52.7288 54.1171 52.6928 54.0559 52.8331 53.8652C53.7315 52.6479 53.7531 51.3957 52.9075 50.1868C52.7959 50.0273 52.7636 49.8714 52.7636 49.6879C52.766 43.931 52.7684 38.1753 52.7576 32.4184C52.7576 32.1137 52.8535 32.055 53.1354 32.0562C56.4542 32.0658 59.7741 32.0658 63.0929 32.0562C63.3748 32.055 63.4696 32.1149 63.4696 32.4196C63.4612 40.8522 63.4612 49.2861 63.4684 57.7187C63.4684 58.0006 63.4072 58.0797 63.1085 58.1001C62.468 58.1433 61.9403 58.0821 61.5829 57.4333C61.3706 57.0471 60.9856 56.7664 60.5898 56.547C60.3487 56.4138 60.3775 56.3143 60.5274 56.1152C61.9271 54.261 60.904 51.6668 58.6143 51.2422C57.4401 51.0239 56.1867 51.5744 55.5198 52.5999C54.8661 53.6061 54.8409 54.9794 55.5462 55.9293C55.8425 56.3275 55.7945 56.499 55.3879 56.6933C55.2344 56.7652 55.1108 56.9032 54.9381 57.0399Z" fill="white"/>
<path d="M42.036 63.4625C40.8701 63.4625 39.7031 63.4565 38.5373 63.4673C38.2974 63.4697 38.1966 63.4229 38.2014 63.1531C38.2326 61.36 38.1511 59.5646 38.2458 57.7728C38.367 55.4568 40.7886 53.7777 43.0231 54.4254C44.5272 54.8607 45.8513 56.2148 45.8345 58.2765C45.8213 59.8908 45.8261 61.5063 45.8381 63.1207C45.8405 63.3941 45.7685 63.4745 45.4903 63.4709C44.3388 63.4529 43.1874 63.4625 42.036 63.4625Z" fill="white"/>
<path d="M33.5885 63.4625C32.6769 63.4625 31.7641 63.4541 30.8526 63.4685C30.6043 63.4721 30.5239 63.4097 30.5263 63.1506C30.5383 61.4919 30.5072 59.832 30.5395 58.1721C30.5731 56.4079 31.7965 55.1054 33.5261 55.0598C35.2149 55.0154 36.5702 56.2759 36.6242 57.943C36.6818 59.6905 36.635 61.4404 36.6482 63.1902C36.6506 63.4577 36.5282 63.4673 36.3243 63.4661C35.4128 63.4577 34.5012 63.4625 33.5885 63.4625Z" fill="white"/>
<path d="M50.4487 63.4625C49.5371 63.4625 48.6244 63.4529 47.7128 63.4685C47.4561 63.4733 47.3902 63.3953 47.3914 63.1434C47.4022 61.4392 47.3794 59.7349 47.4046 58.0306C47.4286 56.3947 48.7011 55.097 50.3803 55.0574C52.0343 55.0178 53.2733 56.2424 53.4424 57.684C53.572 58.7874 53.4784 59.8932 53.5024 60.9978C53.5168 61.7006 53.4892 62.4034 53.5132 63.1051C53.524 63.4097 53.422 63.4733 53.1378 63.4673C52.243 63.4505 51.3459 63.4625 50.4487 63.4625Z" fill="white"/>
<path d="M25.9458 63.4624C25.0355 63.4624 24.1239 63.454 23.2136 63.4684C22.9617 63.472 22.8849 63.4025 22.8897 63.147C22.9053 62.2067 22.8825 61.2652 22.9029 60.3249C22.9365 58.7406 24.1971 57.4357 25.7383 57.3625C27.3935 57.2846 28.7309 58.3904 28.9408 60.0191C29.0787 61.0901 28.9648 62.1659 29.0056 63.2394C29.0164 63.5152 28.834 63.4612 28.6793 63.4612C27.7666 63.4624 26.8562 63.4624 25.9458 63.4624Z" fill="white"/>
<path d="M58.0434 63.4624C57.1474 63.4624 56.2514 63.4624 55.3555 63.4624C55.196 63.4624 55.0232 63.5056 55.034 63.2345C55.076 62.1467 54.9669 61.0565 55.1024 59.9699C55.2943 58.4395 56.6281 57.3193 58.2161 57.3601C59.7333 57.3997 61.0599 58.6458 61.1259 60.151C61.1702 61.1644 61.1307 62.1815 61.1486 63.1962C61.1534 63.472 61.0143 63.4648 60.8188 63.4648C59.8953 63.4588 58.9693 63.4624 58.0434 63.4624Z" fill="white"/>
<path d="M42.0204 52.7114C40.7526 52.7114 39.7607 51.7244 39.7523 50.4531C39.7439 49.1721 40.7706 48.1455 42.0432 48.1659C43.3134 48.1851 44.2957 49.1853 44.2897 50.4531C44.2825 51.7232 43.2894 52.7114 42.0204 52.7114Z" fill="white"/>
<path d="M48.9278 51.9438C48.9422 51.1235 49.6403 50.4434 50.4607 50.453C51.2751 50.4626 51.9767 51.1715 51.9707 51.981C51.9647 52.793 51.2583 53.4982 50.4487 53.5006C49.6175 53.5042 48.9134 52.7834 48.9278 51.9438Z" fill="white"/>
<path d="M58.1189 55.7757C57.2769 55.7829 56.6004 55.1365 56.5764 54.2993C56.5524 53.4849 57.2337 52.7833 58.0637 52.7701C58.9369 52.7557 59.6121 53.4082 59.6145 54.2657C59.6169 55.1053 58.9609 55.7673 58.1189 55.7757Z" fill="white"/>
<path d="M25.9506 52.7689C26.7854 52.7737 27.4667 53.4502 27.4655 54.2729C27.4631 55.0993 26.7842 55.7709 25.9458 55.7745C25.0822 55.7781 24.4154 55.1077 24.425 54.2466C24.4346 53.4094 25.1002 52.7642 25.9506 52.7689Z" fill="white"/>
<path d="M35.1118 51.9715C35.113 52.7906 34.4257 53.4911 33.6089 53.5007C32.7897 53.5114 32.0509 52.769 32.0689 51.9523C32.0869 51.1343 32.7921 50.4459 33.6065 50.4519C34.4281 50.4603 35.1106 51.1487 35.1118 51.9715Z" fill="white"/>
<path d="M42.0336 22.0967C43.4837 22.0967 44.9338 22.0955 46.3839 22.0967C47.1107 22.0979 47.3962 22.3738 47.3974 23.091C47.401 24.9896 47.401 26.8881 47.3974 28.7855C47.3962 29.4715 47.1059 29.7834 46.4246 29.7846C43.4945 29.7918 40.5655 29.7918 37.6353 29.7846C36.9277 29.7834 36.6446 29.4775 36.6434 28.7591C36.641 26.8761 36.641 24.992 36.6434 23.109C36.6446 22.369 36.9265 22.0967 37.6845 22.0955C39.1334 22.0967 40.5835 22.0967 42.0336 22.0967Z" fill="#12386C"/>
<path d="M42.0443 34.3422C42.8096 34.3422 42.8096 34.3422 42.8096 35.1193C42.8096 35.9097 42.8096 35.9097 42.0156 35.9097C41.2275 35.9097 41.2275 35.9097 41.2275 35.1134C41.2287 34.3422 41.2287 34.3422 42.0443 34.3422Z" fill="#12386C"/>
<path d="M45.8693 32.0801C45.8693 32.8525 45.8693 32.8525 45.1005 32.8525C44.2933 32.8525 44.2933 32.8525 44.2933 32.025C44.2933 31.273 44.2933 31.273 45.0441 31.273C45.8693 31.2718 45.8693 31.2718 45.8693 32.0801Z" fill="#12386C"/>
<path d="M38.9559 35.9097C38.1691 35.9097 38.1691 35.9097 38.1691 35.1181C38.1691 34.3422 38.1691 34.3422 38.9307 34.3422C39.7451 34.3422 39.7451 34.3422 39.7451 35.1601C39.7451 35.9097 39.7451 35.9097 38.9559 35.9097Z" fill="#12386C"/>
<path d="M45.0969 35.9097C44.2933 35.9097 44.2933 35.9097 44.2933 35.0857C44.2933 34.3433 44.2933 34.3433 45.0489 34.3433C45.8693 34.3433 45.8693 34.3433 45.8693 35.1493C45.8693 35.9097 45.8693 35.9097 45.0969 35.9097Z" fill="#12386C"/>
<path d="M38.1691 32.0502C38.1691 31.273 38.1691 31.273 38.9343 31.273C39.7439 31.273 39.7439 31.273 39.7439 32.1006C39.7439 32.8538 39.7439 32.8538 38.9955 32.8538C38.9811 32.8538 38.9655 32.8538 38.9511 32.8538C38.1691 32.8526 38.1691 32.8526 38.1691 32.0502Z" fill="#12386C"/>
<path d="M42.8096 32.031C42.8096 32.8525 42.8096 32.8525 41.9952 32.8525C41.2275 32.8525 41.2275 32.8525 41.2275 32.0741C41.2275 31.273 41.2275 31.273 42.0192 31.273C42.0335 31.273 42.0491 31.273 42.0635 31.273C42.8096 31.2718 42.8096 31.2718 42.8096 32.031Z" fill="#12386C"/>
<path d="M38.9463 43.5447C39.7451 43.5447 39.7451 43.5447 39.7451 44.3255C39.7451 45.0823 39.7451 45.0823 39.0087 45.0823C38.1703 45.0823 38.1703 45.0823 38.1703 44.2548C38.1703 43.5447 38.1703 43.5447 38.9463 43.5447Z" fill="#12386C"/>
<path d="M42.0156 43.5447C42.8096 43.5447 42.8096 43.5447 42.8096 44.3303C42.8096 45.0811 42.8096 45.0811 42.0684 45.0811C41.23 45.0811 41.23 45.0811 41.23 44.2476C41.2288 43.5447 41.2288 43.5447 42.0156 43.5447Z" fill="#12386C"/>
<path d="M45.1161 45.0823C44.2945 45.0823 44.2945 45.0823 44.2945 44.2776C44.2945 43.546 44.2945 43.546 45.0081 43.546C45.8693 43.546 45.8693 43.546 45.8693 44.3939C45.8693 45.0823 45.8693 45.0823 45.1161 45.0823Z" fill="#12386C"/>
<path d="M45.8693 38.2041C45.8693 38.9657 45.8693 38.9657 45.0981 38.9657C44.2957 38.9657 44.2957 38.9657 44.2957 38.1417C44.2957 37.4221 44.2957 37.4221 45.0273 37.4221C45.0417 37.4221 45.0573 37.4221 45.0717 37.4221C45.8693 37.4221 45.8693 37.4221 45.8693 38.2041Z" fill="#12386C"/>
<path d="M42.054 37.4221C42.8096 37.4221 42.8096 37.4221 42.8096 38.1633C42.8096 38.9657 42.8096 38.9657 41.9844 38.9657C41.2288 38.9657 41.2288 38.9657 41.2288 38.2281C41.2288 37.4221 41.2288 37.4221 42.054 37.4221Z" fill="#12386C"/>
<path d="M38.9883 38.9657C38.1703 38.9657 38.1703 38.9657 38.1703 38.1609C38.1703 37.4221 38.1703 37.4221 38.9211 37.4221C39.7439 37.4221 39.7439 37.4221 39.7439 38.2293C39.7451 38.9657 39.7451 38.9657 38.9883 38.9657Z" fill="#12386C"/>
<path d="M38.9391 42.0192C38.1703 42.0192 38.1703 42.0192 38.1703 41.26C38.1703 40.4864 38.1703 40.4864 38.9271 40.4864C39.7451 40.4864 39.7451 40.4864 39.7451 41.2912C39.7451 42.0192 39.7451 42.0192 38.9391 42.0192Z" fill="#12386C"/>
<path d="M42.0012 42.0192C41.2288 42.0192 41.2288 42.0192 41.2288 41.2588C41.2288 40.4876 41.2288 40.4876 41.9916 40.4876C42.8084 40.4876 42.8084 40.4876 42.8084 41.2948C42.8096 42.0192 42.8096 42.0192 42.0012 42.0192Z" fill="#12386C"/>
<path d="M45.0801 42.0192C44.2945 42.0192 44.2945 42.0192 44.2945 41.2288C44.2945 40.4876 44.2945 40.4876 45.0429 40.4876C45.8693 40.4876 45.8693 40.4876 45.8693 41.3248C45.8693 42.0192 45.8693 42.0192 45.0801 42.0192Z" fill="#12386C"/>
<path d="M48.9266 35.1721C48.9266 35.9085 48.9266 35.9085 48.1746 35.9085C47.3698 35.9085 47.3698 35.9085 47.3698 35.0846C47.3698 34.3422 47.3698 34.3422 48.1278 34.3422C48.9266 34.3434 48.9266 34.3434 48.9266 35.1721Z" fill="#12386C"/>
<path d="M36.6698 35.1397C36.6698 35.9097 36.6698 35.9097 35.901 35.9097C35.113 35.9097 35.113 35.9097 35.113 35.1181C35.113 34.3422 35.113 34.3422 35.877 34.3434C36.6698 34.3434 36.6698 34.3434 36.6698 35.1397Z" fill="#12386C"/>
<path d="M47.3698 41.2564C47.3698 40.4876 47.3698 40.4876 48.1231 40.4876C48.9255 40.4876 48.9255 40.4876 48.9255 41.296C48.9255 42.0192 48.9255 42.0192 48.2166 42.0192C48.1866 42.0192 48.1566 42.0192 48.1278 42.0192C47.3698 42.018 47.3698 42.018 47.3698 41.2564Z" fill="#12386C"/>
<path d="M36.6686 44.3087C36.6686 45.0811 36.6686 45.0811 35.9166 45.0811C35.113 45.0811 35.113 45.0811 35.113 44.2716C35.113 43.5447 35.113 43.5447 35.8194 43.5447C35.8494 43.5447 35.8794 43.5447 35.9082 43.5447C36.6686 43.5447 36.6686 43.5447 36.6686 44.3087Z" fill="#12386C"/>
<path d="M48.1494 45.0811C47.3698 45.0811 47.3698 45.0811 47.3698 44.2919C47.3698 43.5447 47.3698 43.5447 48.1027 43.5447C48.9266 43.5447 48.9266 43.5447 48.9266 44.3783C48.9266 45.0811 48.9266 45.0811 48.1494 45.0811Z" fill="#12386C"/>
<path d="M35.9166 38.9657C35.113 38.9657 35.113 38.9657 35.113 38.1537C35.113 37.4221 35.113 37.4221 35.865 37.4221C36.6698 37.4221 36.6698 37.4221 36.6698 38.2341C36.6686 38.9657 36.6686 38.9657 35.9166 38.9657Z" fill="#12386C"/>
<path d="M48.9266 38.2329C48.9266 38.9645 48.9266 38.9645 48.177 38.9645C47.3698 38.9645 47.3698 38.9645 47.3698 38.1537C47.3698 37.4209 47.3698 37.4209 48.1206 37.4209C48.9266 37.4221 48.9266 37.4221 48.9266 38.2329Z" fill="#12386C"/>
<path d="M36.6686 41.2552C36.6686 42.018 36.6686 42.018 35.9118 42.018C35.113 42.018 35.113 42.018 35.113 41.2072C35.113 40.4876 35.113 40.4876 35.8254 40.4876C35.8554 40.4876 35.8854 40.4876 35.9142 40.4876C36.6686 40.4876 36.6686 40.4876 36.6686 41.2552Z" fill="#12386C"/>
<path d="M22.8573 42.7364C22.8573 40.8366 22.8633 38.9368 22.8513 37.0383C22.8489 36.736 22.9149 36.5969 23.2423 36.6365C23.6225 36.6821 24.1323 36.4722 24.3542 36.7252C24.5425 36.9399 24.4213 37.4353 24.4213 37.8059C24.4237 41.3655 24.4177 44.9252 24.4297 48.4849C24.4309 48.8219 24.3685 48.9826 23.9967 48.9299C23.7772 48.8987 23.5446 48.8951 23.3251 48.9299C22.8993 48.9994 22.8441 48.8039 22.8477 48.4333C22.8669 46.536 22.8573 44.6362 22.8573 42.7364Z" fill="#12386C"/>
<path d="M29.0055 42.806C29.0055 44.7189 28.9971 46.6307 29.0139 48.5437C29.0163 48.8615 28.9323 48.9659 28.6193 48.9299C28.2522 48.8879 27.7701 49.0822 27.541 48.8579C27.3095 48.6324 27.4738 48.1503 27.4726 47.7821C27.4666 44.2116 27.475 40.6399 27.4606 37.0695C27.4594 36.7145 27.5518 36.5945 27.902 36.6365C28.2534 36.6785 28.7164 36.4914 28.9359 36.7085C29.1566 36.9267 29.0007 37.3873 29.0019 37.7423C29.0103 39.4286 29.0055 41.1173 29.0055 42.806Z" fill="#12386C"/>
<path d="M61.181 42.7844C61.181 44.6986 61.175 46.6139 61.187 48.5281C61.1894 48.8291 61.1271 48.9659 60.7984 48.9311C60.5322 48.9023 60.2575 48.9023 59.9924 48.9311C59.659 48.9683 59.6086 48.8243 59.6086 48.5269C59.6182 44.6986 59.6182 40.869 59.6086 37.0407C59.6074 36.7432 59.659 36.5981 59.9924 36.6353C60.2587 36.6641 60.5322 36.6641 60.7984 36.6353C61.1319 36.5993 61.1882 36.7444 61.1858 37.0419C61.175 38.956 61.181 40.8702 61.181 42.7844Z" fill="#12386C"/>
<path d="M56.5693 42.8156C56.5693 44.7286 56.5645 46.6403 56.5753 48.5533C56.5765 48.8291 56.5309 48.9671 56.2167 48.9299C55.8365 48.8843 55.3267 49.0894 55.1036 48.8483C54.9141 48.6444 55.0353 48.1419 55.0353 47.7725C55.0329 44.2164 55.0389 40.6603 55.0257 37.1043C55.0245 36.7517 55.0784 36.5777 55.4755 36.6353C55.8257 36.6869 56.309 36.4842 56.4998 36.7145C56.6785 36.9316 56.5681 37.3957 56.5681 37.7507C56.5717 39.4394 56.5693 41.1281 56.5693 42.8156Z" fill="#12386C"/>
<path d="M41.994 28.211C40.8438 28.211 39.6935 28.2014 38.5445 28.2182C38.2626 28.2218 38.1979 28.1379 38.2003 27.868C38.2147 26.5835 38.2147 25.299 38.2003 24.0145C38.1967 23.7278 38.2662 23.6307 38.5721 23.6331C40.8714 23.6463 43.1718 23.6463 45.4711 23.6331C45.7854 23.6307 45.8393 23.7434 45.8357 24.0205C45.8237 25.305 45.8213 26.5895 45.8369 27.874C45.8405 28.1535 45.7602 28.2218 45.4867 28.2182C44.3245 28.2026 43.1598 28.211 41.994 28.211Z" fill="white"/>
</g>
<defs>
<clipPath id="clip0_72_4">
<rect width="46" height="46" fill="white" transform="translate(19 19)"/>
</clipPath>
</defs>
</svg>
