<?xml version="1.0" encoding="utf-8"?>
<!-- Generator: Adobe Illustrator 24.2.1, SVG Export Plug-In . SVG Version: 6.00 Build 0)  -->
<svg version="1.1" id="圖層_1"
	xmlns="http://www.w3.org/2000/svg"
	xmlns:xlink="http://www.w3.org/1999/xlink" x="0px" y="0px" viewBox="0 0 280.19 199.7" style="enable-background:new 0 0 280.19 199.7;" xml:space="preserve">
	<style type="text/css">
  .st0 {
    opacity: 0.3;
    filter: opacity(1);
  }

  .st00 {
    opacity: 0.3;
    filter: opacity(1);
    animation: flashing 1.5s infinite alternate;
  }
  .st1 {
    opacity: 0.1;
    filter: opacity(1);
  }
  .st2 {
    fill: #ada8a800;
    filter: opacity(1);
    stroke-width: 1px;
    stroke: white;
    stroke-dasharray: 600;
    stroke-dashoffset: 600;
    animation: drawing-svg 5s infinite;
  }

  .st2-2 {
    fill: #ada8a8;
    filter: opacity(1);
    stroke-width: 1px;
    stroke: white;
  }

  .st3 {
    opacity: 0.2;
    filter: opacity(1);
  }
  .st4 {
    opacity: 0.75;
    filter: opacity(1);
  }
  .st5 {
    opacity: 0.05;
    filter: opacity(1);
  }
  .st6 {
    opacity: 0.6;
    filter: opacity(1);
  }
  .st7 {
    opacity: 0.8;
    filter: opacity(1);
  }
  .st8 {
    opacity: 0.5;
    filter: opacity(1);
  }
  .st9 {
    opacity: 0.5;
    fill: #ffffff;
    filter: opacity(1);
    stroke-dasharray: 600;
    stroke-dashoffset: 600;
    animation: drawing-svg 5s infinite;
  }

  @keyframes flashing {
    to {
      opacity: 0;
    }
  }

  @keyframes drawing-svg {
    100% {
      stroke-dashoffset: 0;
    }
}
	</style>
	<g>
		<g class="st0">
			<g class="st1">
				<polygon class="st2" points="173.88,97.19 151.14,92.76 156.19,67.64 			"/>
			</g>
			<g class="st0">

				<rect x="99.83" y="1.9" transform="matrix(0.1739 -0.9848 0.9848 0.1739 69.3889 109.5154)" class="st2" width="0.27" height="23"/>
			</g>
			<g class="st1">
				<path class="st2" d="M182.83,162.31c-0.01,1.24,0.77,23.95,0.77,23.95l-18.04-22.98L182.83,162.31z"/>
			</g>
			<g class="st3">
				<polygon class="st2" points="153.02,136.94 126.34,147.05 129.65,127.32 			"/>
			</g>
			<g class="st3">
				<polygon class="st2" points="98.86,144.89 86.56,110.54 81.37,128.48 			"/>
			</g>
			<g class="st4">
				<polygon class="st2" points="52.79,96.3 43.44,73.25 41.35,98.23 			"/>
			</g>
			<g class="st1">
				<polygon class="st2" points="100.34,62.13 95.1,36.46 59.77,44.4 			"/>
			</g>
			<g class="st4">
				<polygon class="st2" points="236.69,185.95 218.58,198.34 216.23,170.87 			"/>
			</g>
			<g class="st4">
				<polygon class="st2" points="201.2,127.15 182.14,136.93 181.38,118.68 			"/>
			</g>
			<g class="st1">
				<polygon class="st2" points="130.73,106.21 116.68,99.01 129.65,127.32 			"/>
			</g>
			<g class="st1">
				<polygon class="st2" points="67.93,119.38 63.69,134.78 39,126.46 			"/>
			</g>
			<g>
				<path class="st2" d="M180.16,118.06c-0.34,0.67-0.08,1.49,0.59,1.84c0.67,0.34,1.49,0.08,1.84-0.59
				c0.34-0.67,0.08-1.49-0.59-1.84C181.33,117.12,180.51,117.39,180.16,118.06z"/>
			</g>
			<g>
				<path class="st2" d="M180.41,159.83c-0.69,1.34-0.16,2.98,1.18,3.67c1.34,0.69,2.98,0.16,3.67-1.18
				c0.69-1.34,0.16-2.98-1.18-3.67C182.74,157.96,181.1,158.49,180.41,159.83z"/>
			</g>
			<g>

				<ellipse transform="matrix(0.9969 -0.0788 0.0788 0.9969 -10.4181 5.4349)" class="st2" cx="63.69" cy="134.78" rx="2.73" ry="2.73"/>
			</g>
			<g>
				<path class="st2" d="M151.8,136.32c-0.34,0.67-0.08,1.49,0.59,1.84c0.67,0.34,1.49,0.08,1.84-0.59c0.34-0.67,0.08-1.49-0.59-1.84
				S152.15,135.65,151.8,136.32z"/>
			</g>
			<g>
				<path class="st2" d="M99.12,61.51c-0.34,0.67-0.08,1.49,0.59,1.84c0.67,0.34,1.49,0.08,1.84-0.59c0.34-0.67,0.08-1.49-0.59-1.84
				C100.29,60.57,99.47,60.84,99.12,61.51z"/>
			</g>
			<g>
				<path class="st2" d="M85.34,109.92c-0.34,0.67-0.08,1.49,0.59,1.84c0.67,0.34,1.49,0.08,1.84-0.59c0.34-0.67,0.08-1.49-0.59-1.84
				C86.51,108.98,85.69,109.25,85.34,109.92z"/>
			</g>
			<g>
				<path class="st2" d="M57.83,43.41c-0.55,1.07-0.13,2.39,0.95,2.94c1.07,0.55,2.39,0.13,2.94-0.95c0.55-1.07,0.13-2.39-0.95-2.94
				C59.7,41.91,58.38,42.34,57.83,43.41z"/>
			</g>
			<g>
				<path class="st2" d="M125.61,146.68c-0.21,0.4-0.05,0.9,0.35,1.1c0.4,0.21,0.9,0.05,1.1-0.35s0.05-0.9-0.35-1.1
				C126.31,146.12,125.81,146.28,125.61,146.68z"/>
			</g>
			<g>
				<path class="st2" d="M66.72,118.76c-0.34,0.67-0.08,1.49,0.59,1.84c0.67,0.34,1.49,0.08,1.84-0.59c0.34-0.67,0.08-1.49-0.59-1.84
				C67.88,117.82,67.06,118.09,66.72,118.76z"/>
			</g>
			<g>
				<path class="st2" d="M128.86,128.43c0.61,0.44,1.46,0.3,1.9-0.32c0.44-0.61,0.3-1.46-0.32-1.9c-0.61-0.44-1.46-0.3-1.9,0.32
				C128.1,127.14,128.24,127.99,128.86,128.43z"/>
			</g>
			<g>
				<circle class="st2" cx="153.47" cy="117.86" r="1.91"/>
			</g>
			<g>
				<path class="st2" d="M206.93,153.6c0.37,0.26,0.88,0.18,1.14-0.19c0.26-0.37,0.18-0.88-0.19-1.14c-0.37-0.26-0.88-0.18-1.14,0.19
				C206.48,152.83,206.56,153.34,206.93,153.6z"/>
			</g>
			<g>
				<path class="st2" d="M182.81,187.38c0.61,0.44,1.46,0.3,1.9-0.32c0.44-0.61,0.3-1.46-0.32-1.9c-0.61-0.44-1.46-0.3-1.9,0.32
				C182.05,186.09,182.2,186.94,182.81,187.38z"/>
			</g>
			<g>
				<path class="st2" d="M278.03,169.79c0.61,0.44,1.46,0.3,1.9-0.32c0.44-0.61,0.3-1.46-0.32-1.9c-0.61-0.44-1.46-0.3-1.9,0.32
				C277.28,168.5,277.42,169.35,278.03,169.79z"/>
			</g>
			<g>
				<path class="st2" d="M130.89,79.08c-0.34,0.67-0.08,1.49,0.59,1.84c0.67,0.34,1.49,0.08,1.84-0.59c0.34-0.67,0.08-1.49-0.59-1.84
				C132.05,78.14,131.23,78.41,130.89,79.08z"/>
			</g>
			<g>
				<path class="st2" d="M87.43,10.77c-0.34,0.67-0.08,1.49,0.59,1.84c0.67,0.34,1.49,0.08,1.84-0.59c0.34-0.67,0.08-1.49-0.59-1.84
				C88.6,9.83,87.77,10.1,87.43,10.77z"/>
			</g>
			<g>
				<path class="st2" d="M98.61,88.22c-0.21,0.4-0.05,0.9,0.35,1.1s0.9,0.05,1.1-0.35c0.21-0.4,0.05-0.9-0.35-1.1
				C99.31,87.65,98.82,87.81,98.61,88.22z"/>
			</g>
			<g>
				<path class="st2" d="M51.58,95.67c-0.34,0.67-0.08,1.49,0.59,1.84c0.67,0.34,1.49,0.08,1.84-0.59s0.08-1.49-0.59-1.84
				C52.74,94.74,51.92,95,51.58,95.67z"/>
			</g>
			<g>
				<path class="st2" d="M217.36,197.71c-0.34,0.67-0.08,1.49,0.59,1.84c0.67,0.34,1.49,0.08,1.84-0.59
				c0.34-0.67,0.08-1.49-0.59-1.84C218.53,196.78,217.71,197.04,217.36,197.71z"/>
			</g>
			<g>
				<path class="st2" d="M260.56,187.3c-0.34,0.67-0.08,1.49,0.59,1.84c0.67,0.34,1.49,0.08,1.84-0.59c0.34-0.67,0.08-1.49-0.59-1.84
				C261.73,186.37,260.9,186.63,260.56,187.3z"/>
			</g>
			<g>
				<path class="st2" d="M249.35,173.37c-0.21,0.4-0.05,0.9,0.35,1.1c0.4,0.21,0.9,0.05,1.1-0.35c0.21-0.4,0.05-0.9-0.35-1.1
				C250.05,172.8,249.56,172.96,249.35,173.37z"/>
			</g>
			<g>
				<path class="st2" d="M235.48,185.33c-0.34,0.67-0.08,1.49,0.59,1.84c0.67,0.34,1.49,0.08,1.84-0.59
				c0.34-0.67,0.08-1.49-0.59-1.84C236.64,184.4,235.82,184.66,235.48,185.33z"/>
			</g>
			<g>
				<path class="st2" d="M235.37,159.84c-0.48,0.94-0.11,2.09,0.83,2.57c0.94,0.48,2.09,0.11,2.57-0.83
				c0.48-0.94,0.11-2.09-0.83-2.57S235.85,158.9,235.37,159.84z"/>
			</g>
			<g>
				<path class="st2" d="M215.02,170.25c-0.34,0.67-0.08,1.49,0.59,1.84c0.67,0.34,1.49,0.08,1.84-0.59
				c0.34-0.67,0.08-1.49-0.59-1.84C216.18,169.31,215.36,169.58,215.02,170.25z"/>
			</g>
			<g>
				<path class="st2" d="M164.35,162.67c-0.34,0.67-0.08,1.49,0.59,1.84c0.67,0.34,1.49,0.08,1.84-0.59
				c0.34-0.67,0.08-1.49-0.59-1.84C165.51,161.73,164.69,162,164.35,162.67z"/>
			</g>
			<g>
				<path class="st2" d="M180.92,136.31c-0.34,0.67-0.08,1.49,0.59,1.84c0.67,0.34,1.49,0.08,1.84-0.59
				c0.34-0.67,0.08-1.49-0.59-1.84C182.09,135.37,181.27,135.64,180.92,136.31z"/>
			</g>
			<g>
				<path class="st2" d="M149.93,92.14c-0.34,0.67-0.08,1.49,0.59,1.84c0.67,0.34,1.49,0.08,1.84-0.59c0.34-0.67,0.08-1.49-0.59-1.84
				C151.09,91.21,150.27,91.47,149.93,92.14z"/>
			</g>
			<g>
				<path class="st2" d="M124.79,45.16c-0.21,0.4-0.05,0.9,0.35,1.1c0.4,0.21,0.9,0.05,1.1-0.35c0.21-0.4,0.05-0.9-0.35-1.1
				C125.48,44.59,124.99,44.75,124.79,45.16z"/>
			</g>
			<g>
				<path class="st2" d="M173.16,96.81c-0.21,0.4-0.05,0.9,0.35,1.1c0.4,0.21,0.9,0.05,1.1-0.35c0.21-0.4,0.05-0.9-0.35-1.1
				C173.85,96.25,173.36,96.41,173.16,96.81z"/>
			</g>
			<g>
				<path class="st2" d="M224.72,135.02c-0.21,0.4-0.05,0.9,0.35,1.1c0.4,0.21,0.9,0.05,1.1-0.35c0.21-0.4,0.05-0.9-0.35-1.1
				C225.42,134.46,224.93,134.62,224.72,135.02z"/>
			</g>
			<g>
				<path class="st2" d="M74.2,163.72c-0.21,0.4-0.05,0.9,0.35,1.1c0.4,0.21,0.9,0.05,1.1-0.35c0.21-0.4,0.05-0.9-0.35-1.1
				C74.9,163.16,74.41,163.32,74.2,163.72z"/>
			</g>
			<g>
				<path class="st2" d="M5.49,142.51c-0.21,0.4-0.05,0.9,0.35,1.1c0.4,0.21,0.9,0.05,1.1-0.35s0.05-0.9-0.35-1.1
				C6.19,141.95,5.7,142.11,5.49,142.51z"/>
			</g>
			<g>
				<path class="st2" d="M144.29,183.36c-0.21,0.4-0.05,0.9,0.35,1.1c0.4,0.21,0.9,0.05,1.1-0.35c0.21-0.4,0.05-0.9-0.35-1.1
				C144.99,182.79,144.5,182.95,144.29,183.36z"/>
			</g>
			<g>
				<path class="st2" d="M110.57,15.03c-0.21,0.4-0.05,0.9,0.35,1.1c0.4,0.21,0.9,0.05,1.1-0.35c0.21-0.4,0.05-0.9-0.35-1.1
				C111.27,14.47,110.77,14.63,110.57,15.03z"/>
			</g>
			<g>
				<path class="st2" d="M245.09,148.92c-0.14,0.27-0.03,0.6,0.24,0.73c0.27,0.14,0.6,0.03,0.73-0.24c0.14-0.27,0.03-0.6-0.24-0.73
				C245.56,148.54,245.23,148.65,245.09,148.92z"/>
			</g>
			<g>
				<path class="st2" d="M155.46,67.27c-0.21,0.4-0.05,0.9,0.35,1.1s0.9,0.05,1.1-0.35c0.21-0.4,0.05-0.9-0.35-1.1
				C156.16,66.71,155.67,66.86,155.46,67.27z"/>
			</g>
			<g>
				<path class="st2" d="M200.47,126.78c-0.21,0.4-0.05,0.9,0.35,1.1c0.4,0.21,0.9,0.05,1.1-0.35c0.21-0.4,0.05-0.9-0.35-1.1
				S200.68,126.38,200.47,126.78z"/>
			</g>
			<g>
				<path class="st2" d="M269.82,152.17c-0.21,0.4-0.05,0.9,0.35,1.1c0.4,0.21,0.9,0.05,1.1-0.35s0.05-0.9-0.35-1.1
				C270.52,151.61,270.03,151.77,269.82,152.17z"/>
			</g>
			<g>
				<path class="st2" d="M142.22,165.49c0.37,0.26,0.88,0.18,1.14-0.19c0.26-0.37,0.18-0.88-0.19-1.14
				c-0.37-0.26-0.88-0.18-1.14,0.19C141.77,164.72,141.85,165.23,142.22,165.49z"/>
			</g>
			<g>
				<path class="st2" d="M80.9,129.15c0.37,0.26,0.88,0.18,1.14-0.19c0.26-0.37,0.18-0.88-0.19-1.14c-0.37-0.26-0.88-0.18-1.14,0.19
				C80.44,128.38,80.53,128.89,80.9,129.15z"/>
			</g>
			<g>
				<path class="st2" d="M68.02,2.28c0.37,0.26,0.88,0.18,1.14-0.19c0.26-0.37,0.18-0.88-0.19-1.14c-0.37-0.26-0.88-0.18-1.14,0.19
				C67.57,1.5,67.65,2.01,68.02,2.28z"/>
			</g>
			<g>
				<path class="st2" d="M57.08,22.84c-0.34,0.67-0.08,1.49,0.59,1.84c0.67,0.34,1.49,0.08,1.84-0.59c0.34-0.67,0.08-1.49-0.59-1.84
				C58.25,21.91,57.43,22.17,57.08,22.84z"/>
			</g>
			<g>
				<path class="st2" d="M42.23,72.63c-0.34,0.67-0.08,1.49,0.59,1.84c0.67,0.34,1.49,0.08,1.84-0.59c0.34-0.67,0.08-1.49-0.59-1.84
				C43.39,71.69,42.57,71.96,42.23,72.63z"/>
			</g>
			<g>
				<path class="st2" d="M97.65,144.27c-0.34,0.67-0.08,1.49,0.59,1.84c0.67,0.34,1.49,0.08,1.84-0.59c0.34-0.67,0.08-1.49-0.59-1.84
				C98.82,143.33,97.99,143.6,97.65,144.27z"/>
			</g>
			<g>
				<path class="st2" d="M115.47,98.39c-0.34,0.67-0.08,1.49,0.59,1.84c0.67,0.34,1.49,0.08,1.84-0.59c0.34-0.67,0.08-1.49-0.59-1.84
				C116.63,97.45,115.81,97.71,115.47,98.39z"/>
			</g>
			<g>
				<path class="st2" d="M109.59,162c-0.34,0.67-0.08,1.49,0.59,1.84c0.67,0.34,1.49,0.08,1.84-0.59c0.34-0.67,0.08-1.49-0.59-1.84
				C110.76,161.07,109.94,161.33,109.59,162z"/>
			</g>
			<g>
				<path class="st2" d="M37.78,125.84c-0.34,0.67-0.08,1.49,0.59,1.84c0.67,0.34,1.49,0.08,1.84-0.59c0.34-0.67,0.08-1.49-0.59-1.84
				C38.95,124.9,38.13,125.17,37.78,125.84z"/>
			</g>
			<g>
				<path class="st2" d="M43.18,144.64c-0.34,0.67-0.08,1.49,0.59,1.84c0.67,0.34,1.49,0.08,1.84-0.59c0.34-0.67,0.08-1.49-0.59-1.84
				C44.34,143.7,43.52,143.97,43.18,144.64z"/>
			</g>
			<g>
				<path class="st2" d="M93.89,35.84c-0.34,0.67-0.08,1.49,0.59,1.84c0.67,0.34,1.49,0.08,1.84-0.59c0.34-0.67,0.08-1.49-0.59-1.84
				C95.06,34.9,94.23,35.17,93.89,35.84z"/>
			</g>
			<g>
				<path class="st2" d="M62.58,77.19c-0.34,0.67-0.08,1.49,0.59,1.84c0.67,0.34,1.49,0.08,1.84-0.59c0.34-0.67,0.08-1.49-0.59-1.84
				C63.75,76.25,62.93,76.52,62.58,77.19z"/>
			</g>
			<g class="st0">
				<path class="st2" d="M236.49,185.93l-21.54-24.29l-13.95,0.5l-17.52,24.53l-0.71-23.87l-17.2,0.62l-0.2,0.01l9.35-26.36
				l-21.67,0.01l-26.97,10.22l16.04-35.1l-6.78-3.48l-17.05,17l11.79,1.52l-32.03,18.28l19.65-19.59l-49.78-6.4l-0.06-0.01
				L52.68,96.37l-0.11-0.17l36.21-6.05l1.32-11.47L63.6,77.94l13.99-37.4l-17.73,3.99L43.57,73.29l-4.5,53.84L8.42,35.84L8.37,35.7
				l49.87-12.36l30.35-12.07l0.29-0.11L78.03,40.16l17.23-3.87L90.4,78.41l17.21,0.48l-7.45-16.81l25.44-16.78l6.66,34.54
				l-24.23-0.67l8.75,19.74l18.49,9.48l16.3-16.25l-9.11,19.94l11.03,5.66l27.88,0.82l0.19,0.01l-6.47,18.25l7.17,0l0.76,25.73
				l17.82-0.64l6.54-9.16l7.67,8.65l22.06-0.8l13.01,13.02l28.68-5.05l0.38-0.07l-17.31,19.54l-0.03,0.03l-43.96,10.59
				L236.49,185.93z M278.46,168.88l-28.36,4.99l-0.07,0.01l-13.02-13.04l-21.71,0.78l21.49,24.23l0.1,0.12l-17.63,12.05l42.43-10.22
				L278.46,168.88z M183.04,162.79l0.68,23.07l16.92-23.7L183.04,162.79z M182,137.07l-7,0l-9.24,26.08l17-0.61L182,137.07z
				 M207.41,153.15l-6.22,8.71l13.52-0.49L207.41,153.15z M181.18,118.81L153.46,118l-0.03,0l-11.08-5.68l-15.76,34.49l26.37-10
				l0.02-0.01l21.82-0.01L181.18,118.81z M118.04,125.96l-18.35,18.3l29.54-16.86L118.04,125.96z M88.41,11.63L58.33,23.6
				l-49.6,12.3l30.19,89.89l4.39-52.55l0-0.03l16.35-28.87l0.03-0.05l18.03-4.05L88.41,11.63z M116.62,99.13l-0.04-0.02l-8.84-19.94
				l-17.37-0.48L89.05,90.1l10.59-1.77l-13.3,22.84l2.39-20.74L53.02,96.4l14.99,22.86l49.93,6.42l17.14-17.09L116.62,99.13z
				 M89.02,90.38l-2.25,19.53l12.35-21.21L89.02,90.38z M135.53,108.52l6.69,3.43l8.48-18.55L135.53,108.52z M94.95,36.64
				l-17.03,3.83L63.99,77.68l26.14,0.72L94.95,36.64z M125.42,45.75l-24.91,16.42l7.41,16.71l24.02,0.66L125.42,45.75z"/>
			</g>
			<g>
				<path class="st2" d="M249.99,173.64l0.11-0.1l11.99,14.55l-25.72-2.02L249.99,173.64z M250.07,173.94l-13.05,11.91l24.45,1.92
				L250.07,173.94z"/>
			</g>
			<g>
				<polygon class="st2" points="236.61,186.06 236.77,185.84 216.31,170.76 216.15,170.98 			"/>
			</g>
			<g class="st0">
				<polygon class="st2" points="250.18,173.83 270.83,152.44 245.63,149.04 225.43,135.22 225.35,135.3 207.5,152.53 207.69,152.73 
				225.46,135.57 245.53,149.3 245.56,149.3 270.26,152.64 249.98,173.64 			"/>
			</g>
			<g class="st5">
				<path class="st2" d="M183.56,186.4l-0.04-0.01l-18.07-23.01l-6.58-13.82l-32.54-2.36l-0.05,0l-39.81-36.55l-0.16-0.15l30.29-11.6
				l15.66-19.61l-2.47,47.95l23.09,9.51l0.45-18.86l-2.36-25.43l30.41,26.07l0.11-0.07l0.01,0.15l19.74,8.44l0.06,0.03l6.21,25.79
				l0.41,0.26l-48.75-3.54l6.5,13.64l18.01,22.94l34.74,11.99l-2.33-27.26l-0.01-0.09l21.12-10.3l-0.38,25.47l-0.27,0l0.37-25.02
				l-20.55,10.02l2.36,27.58L183.56,186.4z M152.92,137.04l-23.32-9.6l-0.09-0.04l2.43-47.29l-15.16,18.98l-0.02,0.03l-29.95,11.47
				l39.58,36.33l32.34,2.35L152.92,137.04z M182.06,137.04l-0.06-0.04l-0.75-18.08l-28.06,18.06l5.86,12.3l47.82,3.47L182.06,137.04
				z M181.52,118.89l0.75,17.96l24.92,15.79l-6.11-25.39L181.52,118.89z M151.31,93.09l2.3,24.78l-0.45,18.82l27.99-18.02
				L151.31,93.09z"/>
			</g>
			<g>
				<path class="st2" d="M125.82,146.69l39.8,16.47l0.54,0.22l-23.45,1.58l-0.07,0L125.82,146.69z M126.86,147.42l15.9,17.27
				l22.22-1.5L126.86,147.42z"/>
			</g>
			<g>
				<path class="st2" d="M58.42,23.52c3.36-7.32,9.82-21.31,10.19-21.83l-0.22-0.16c-0.48,0.67-9.81,21.01-10.21,21.88L58.42,23.52z" />
			</g>
			<g>
				<polygon class="st2" points="63.82,134.82 68.01,119.6 81.45,128.7 81.5,128.52 86.69,110.58 86.43,110.5 81.29,128.27 
				67.85,119.16 63.55,134.74 			"/>
			</g>
			<g>
				<path class="st2" d="M39.12,126.51c0.13-0.29,13.18-28.96,13.79-30.16l-0.24-0.12c-0.62,1.2-13.66,29.88-13.8,30.17L39.12,126.51
				z"/>
			</g>
			<g class="st6">
				<polygon class="st2" points="110.79,162.84 126.46,147.12 126.47,147.08 129.79,127.3 129.77,127.26 116.79,98.91 116.75,98.89 
				99.52,88.44 100.47,62.13 100.2,62.12 99.24,88.59 116.57,99.1 129.51,127.34 126.21,146.99 110.83,162.41 98.96,144.79 
				81.41,128.33 81.33,128.35 63.68,134.64 39.49,126.48 67.98,119.51 86.89,110.53 86.61,110.41 52.99,96.23 63.94,77.84 
				63.93,77.79 59.91,44.39 59.64,44.42 63.66,77.78 52.59,96.36 86.22,110.55 67.88,119.25 38.51,126.44 63.69,134.92 
				81.34,128.64 98.76,144.98 			"/>
			</g>
			<g>
				<polygon class="st2" points="98.77,145.02 98.85,145.02 126.33,147.19 126.35,146.92 98.96,144.76 86.79,110.77 129.6,127.45 
				129.7,127.19 86.33,110.3 			"/>
			</g>
			<g>
				<polygon class="st2" points="0.05,105.35 52.98,96.4 43.66,73.44 63.81,77.95 63.85,77.94 100.68,62.13 100.39,62 59.9,44.31 
				58.45,23.66 95.3,36.68 88.76,11.3 68.5,1.46 68.44,1.49 37.51,15.67 37.63,15.92 68.49,1.76 88.53,11.49 94.91,36.25 
				58.15,23.27 59.64,44.5 59.72,44.53 99.99,62.13 63.78,77.67 43.22,73.06 43.31,73.3 52.6,96.19 0,105.08 			"/>
			</g>
			<g>
				<path class="st2" d="M63.46,77.57l36.13,10.86l-12.77,21.94l-0.11,0.18L63.46,77.57z M64.14,78.05l22.55,31.99l12.49-21.45
				L64.14,78.05z"/>
			</g>
			<g>
				<polygon class="st2" points="9.08,96.24 43.62,73.29 25.36,42.29 59.76,44.54 59.78,44.27 24.86,41.98 43.26,73.21 8.93,96.01 
							"/>
			</g>
			<g>
				<polygon class="st2" points="237.04,160.98 245.69,149.25 245.47,149.09 237.09,160.44 225.55,135.29 225.49,135.27 
				201.19,127.01 201.14,127.03 182.07,136.81 182.2,137.05 201.21,127.3 225.35,135.51 			"/>
			</g>
			<g class="st0">
				<path class="st2" d="M144.94,183.84l-34.2-21.1L62.7,134.35l36.21,10.4l0.03,0.01l21.88,18.41l21.89,1.51l0.03,0l41.5,21.75
				l-39.06-2.57l0.02,0.18L144.94,183.84z M142.86,165.07l2.28,18.53l37.83,2.49L142.86,165.07z M121.17,163.48l23.68,19.92
				l-2.27-18.44L121.17,163.48z M111.35,162.8l32.16,19.84l-22.81-19.19L111.35,162.8z M98.8,145.01l-34.12-9.81l46.17,27.28
				l9.5,0.66L98.8,145.01z"/>
			</g>
			<g class="st0">
				<polygon class="st2" points="173.77,97.26 174,97.12 156.13,67.27 151.01,92.74 151.27,92.79 156.25,68.01 			"/>
			</g>
			<g class="st5">
				<path class="st2" d="M173.78,97.31l-22.67-4.41l-0.03-0.01l-19.05-13.07l-31.76-17.57l-0.05-0.03l-5.25-25.73l-0.05-0.22
				l30.63,9.13l30.9,22.26l-24.08,12.06l18.82,12.92l22.72,4.42l0.08,0.02l7.52,21.57l-0.26,0.09L173.78,97.31z M125.45,45.65
				l-30.17-8.99l5.18,25.38l31.65,17.51l23.82-11.93L125.45,45.65z"/>
			</g>
			<g>
				<polygon class="st2" points="125.39,45.59 125.64,45.47 111.32,15.15 95,36.38 95.21,36.54 111.27,15.67 			"/>
			</g>
			<g class="st0">
				<polygon class="st2" points="74.89,164.23 110.81,162.76 110.8,162.49 74.97,163.96 44.66,145.27 63.75,134.9 63.62,134.66 
				44.12,145.25 44.32,145.37 			"/>
			</g>
			<g>
				<polygon class="st2" points="74.98,164.6 81.51,128.51 81.24,128.46 74.88,163.59 63.81,134.73 63.56,134.83 			"/>
			</g>
			<g class="st7">
				<polygon class="st2" points="6.21,143.02 44.58,145.41 39.12,126.38 39.08,126.35 6.39,99.15 6.21,99.36 38.88,126.54 
				44.21,145.11 6.23,142.75 			"/>
			</g>
			<g>

				<rect x="200.57" y="153.89" transform="matrix(0.7221 -0.6918 0.6918 0.7221 -68.5403 188.7799)" class="st2" width="0.27" height="51.63"/>
			</g>
			<g class="st0">

				<rect x="187.4" y="91.9" transform="matrix(0.7391 -0.6736 0.6736 0.7391 -26.6288 155.5863)" class="st2" width="0.27" height="40.55"/>
			</g>
			<g class="st0">

				<rect x="128.13" y="36.82" transform="matrix(0.0982 -0.9952 0.9952 0.0982 51.0925 186.153)" class="st2" width="0.27" height="56.12"/>
			</g>
		</g>
		<g>
			<g class="st5">
				<g>
					<path class="st2" d="M38.2,18.38c-1.58,0.02-2.88-1.25-2.9-2.84c-0.02-1.58,1.25-2.88,2.84-2.9c1.58-0.02,2.88,1.25,2.9,2.84
					S39.78,18.37,38.2,18.38z M38.14,12.78c-1.51,0.02-2.73,1.26-2.71,2.77c0.02,1.51,1.26,2.73,2.77,2.71
					c1.51-0.02,2.73-1.26,2.71-2.77C40.89,13.98,39.65,12.76,38.14,12.78z"/>
				</g>
			</g>
			<g class="st5">
				<g>
					<path class="st2" d="M24.25,146.38c-1.15,0.01-2.1-0.92-2.12-2.07c-0.01-1.15,0.92-2.1,2.07-2.12c1.15-0.01,2.1,0.92,2.12,2.07
					S25.4,146.37,24.25,146.38z M24.2,142.29c-1.1,0.01-1.99,0.92-1.98,2.02c0.01,1.1,0.92,1.99,2.02,1.98
					c1.1-0.01,1.99-0.92,1.98-2.02C26.21,143.16,25.3,142.27,24.2,142.29z"/>
				</g>
			</g>
			<g>
				<g class="st5">
					<g>
						<path class="st2" d="M133.08,114.81c-4.08,0.04-7.44-3.24-7.48-7.32c-0.04-4.08,3.24-7.44,7.32-7.48
						c4.08-0.04,7.44,3.24,7.48,7.32C140.45,111.41,137.17,114.76,133.08,114.81z M132.93,100.34c-3.9,0.04-7.04,3.25-6.99,7.15
						c0.04,3.9,3.25,7.04,7.15,6.99c3.9-0.04,7.04-3.25,6.99-7.15C140.03,103.43,136.83,100.29,132.93,100.34z"/>
					</g>
				</g>
				<path class="st9" d="M136.77,106.18l-0.55-0.12l0.16-0.71c0.32-1.44-0.62-2.87-2.09-3.2c-1.47-0.33-2.93,0.57-3.25,2.01
				l-0.16,0.71l-0.5-0.11c-0.29-0.06-0.58,0.12-0.64,0.41l-1.15,5.14c-0.06,0.29,0.12,0.58,0.41,0.64l6.39,1.43
				c0.29,0.06,0.58-0.12,0.64-0.41l1.15-5.14C137.24,106.53,137.06,106.24,136.77,106.18z M133.23,109.46
				c-0.06,0.29-0.35,0.47-0.64,0.41c-0.29-0.06-0.47-0.35-0.41-0.64l0.35-1.56c0.06-0.29,0.35-0.47,0.64-0.41
				c0.29,0.06,0.47,0.35,0.41,0.64L133.23,109.46z M135.16,105.82l-3.23-0.72l0.16-0.71c0.19-0.85,1.07-1.39,1.96-1.19
				c0.89,0.2,1.46,1.06,1.27,1.91L135.16,105.82z"/>
			</g>
			<g>
				<g class="st0">
					<g>
						<path class="st2" d="M99.49,155.77c-6.01,0.07-10.96-4.77-11.03-10.79c-0.07-6.01,4.77-10.96,10.79-11.03
						s10.96,4.77,11.03,10.79C110.35,150.76,105.51,155.7,99.49,155.77z M99.26,134.44c-5.75,0.06-10.37,4.79-10.31,10.54
						c0.06,5.75,4.79,10.37,10.54,10.31c5.75-0.06,10.37-4.79,10.31-10.54C109.73,139,105.01,134.38,99.26,134.44z"/>
					</g>
				</g>
				<g id="XMLID_91_" class="st0">
					<path id="XMLID_98_" class="st2" d="M95.7,151.23c0.96,0.52,2,0.8,3.1,0.84l0.14,0.88c0.09,0.55,0.61,0.93,1.16,0.84l1.24-0.2
					c0.55-0.09,0.93-0.61,0.84-1.16l-0.14-0.87c0.9-0.32,1.66-0.76,2.29-1.33c1.11-1.02,1.57-2.27,1.37-3.72
					c-0.13-0.92-0.51-1.66-1.15-2.22c-0.94-0.81-2.24-1.23-3.87-1.25l-0.24-1.49c0.12,0.06,0.23,0.12,0.35,0.19
					c0.26,0.15,0.53,0.2,0.83,0.16c0.24-0.03,0.5-0.21,0.53-0.24c0.01-0.01,0.03-0.02,0.04-0.03l1.25-1.09
					c0.32-0.28,0.35-0.59,0.32-0.8c-0.03-0.24-0.16-0.44-0.37-0.58c-1-0.83-2.2-1.28-3.55-1.35l-0.17-1.04
					c-0.09-0.55-0.61-0.93-1.16-0.84l-1.24,0.2c-0.55,0.09-0.93,0.61-0.84,1.16l0.16,1c-0.54,0.19-1.04,0.43-1.47,0.72
					c-1.65,1.1-2.34,2.48-2.05,4.12c0.14,0.8,0.51,1.49,1.07,2.04c0.89,0.86,2.15,1.32,3.76,1.36l0.34,2.14
					c-0.53-0.17-1.06-0.46-1.59-0.88c-0.24-0.22-0.53-0.31-0.85-0.25c-0.17,0.03-0.39,0.16-0.48,0.21c-0.01,0-0.01,0.01-0.02,0.01
					c0,0-0.01,0.01-0.02,0.01l-1.14,0.94c-0.36,0.3-0.39,0.63-0.35,0.86c0.04,0.2,0.14,0.38,0.31,0.52
					C94.52,150.51,95.06,150.89,95.7,151.23z M94.56,149.21l1.13-0.93c0.07-0.05,0.18-0.1,0.21-0.11c0.13-0.02,0.22,0.01,0.31,0.09
					c0.01,0.01,0.01,0.01,0.02,0.02c0.77,0.61,1.56,0.99,2.35,1.13c0.11,0.02,0.21-0.01,0.29-0.09c0.08-0.07,0.11-0.18,0.09-0.29
					l-0.46-2.91c-0.03-0.16-0.16-0.28-0.33-0.28c-1.57,0.01-2.77-0.39-3.58-1.17c-0.47-0.46-0.76-1.01-0.88-1.68
					c-0.25-1.37,0.33-2.5,1.77-3.46c0.45-0.3,0.98-0.54,1.57-0.72c0.16-0.05,0.25-0.2,0.23-0.37l-0.2-1.28
					c-0.03-0.19,0.1-0.38,0.29-0.41l1.24-0.2c0.19-0.03,0.38,0.1,0.41,0.3l0.21,1.31c0.03,0.16,0.16,0.27,0.32,0.28
					c1.32,0.02,2.47,0.43,3.43,1.22c0.01,0.01,0.02,0.01,0.03,0.02c0.08,0.05,0.09,0.1,0.1,0.13c0.01,0.03,0.02,0.1-0.11,0.21
					l-1.23,1.08c-0.07,0.05-0.19,0.12-0.25,0.13l0,0c-0.14,0.02-0.27,0-0.39-0.07c-0.33-0.2-0.67-0.36-1.01-0.46
					c-0.11-0.03-0.22-0.01-0.31,0.07c-0.08,0.07-0.12,0.19-0.11,0.3l0.37,2.33c0.03,0.16,0.17,0.28,0.33,0.28
					c1.6-0.03,2.85,0.33,3.71,1.08c0.52,0.46,0.82,1.05,0.93,1.82c0.17,1.24-0.21,2.27-1.16,3.15c-0.61,0.56-1.39,0.99-2.31,1.28
					c-0.15,0.05-0.25,0.2-0.23,0.37l0.18,1.15c0.03,0.19-0.1,0.37-0.29,0.41l-1.24,0.2c-0.19,0.03-0.38-0.1-0.41-0.29l-0.18-1.15
					c-0.03-0.16-0.16-0.28-0.32-0.28c-1.09,0-2.12-0.26-3.07-0.77c-0.59-0.31-1.07-0.67-1.45-1.05c-0.01-0.01-0.02-0.02-0.03-0.02
					c-0.07-0.05-0.08-0.1-0.09-0.14C94.43,149.41,94.42,149.33,94.56,149.21z"/>
					<path id="XMLID_95_" class="st2" d="M97.75,141.34c-0.02-0.11-0.09-0.2-0.18-0.24c-0.1-0.05-0.21-0.04-0.31,0.01l-0.09,0.05
					c-0.01,0-0.01,0.01-0.02,0.01c-0.69,0.48-0.77,1.03-0.7,1.41l0,0c0.07,0.44,0.35,1,1.24,1.19c0.04,0.01,0.08,0.01,0.12,0
					c0.06-0.01,0.13-0.04,0.17-0.09c0.08-0.07,0.11-0.18,0.1-0.29L97.75,141.34z M97.33,142.93c-0.16-0.13-0.22-0.3-0.24-0.45
					c-0.02-0.12-0.02-0.27,0.1-0.45L97.33,142.93z"/>
					<path id="XMLID_92_" class="st2" d="M101.1,148.94c0.06,0.03,0.12,0.03,0.18,0.02c0.05-0.01,0.09-0.02,0.13-0.05
					c0.09-0.06,0.19-0.13,0.28-0.21c0.52-0.44,0.74-1.01,0.64-1.65c-0.08-0.5-0.39-1.13-1.46-1.29c-0.1-0.01-0.21,0.02-0.28,0.09
					c-0.07,0.07-0.11,0.18-0.09,0.28l0.41,2.55C100.92,148.8,101,148.89,101.1,148.94z M101.23,146.54c0.34,0.16,0.43,0.4,0.46,0.61
					c0.05,0.33-0.02,0.61-0.22,0.86L101.23,146.54z"/>
				</g>
			</g>
			<g>
				<g class="st5">
					<g>
						<path class="st2" d="M111.88,81.94c-3.14,0.03-5.72-2.49-5.75-5.63c-0.03-3.14,2.49-5.72,5.63-5.75
						c3.14-0.03,5.72,2.49,5.75,5.63S115.01,81.91,111.88,81.94z M111.75,70.82c-3,0.03-5.41,2.5-5.38,5.49
						c0.03,3,2.5,5.41,5.49,5.38c3-0.03,5.41-2.5,5.38-5.49C117.22,73.2,114.75,70.79,111.75,70.82z"/>
					</g>
				</g>
				<g id="XMLID_80_" class="st7">
					<path id="XMLID_88_" class="st2" d="M109.79,75.42l-2.09,1.26c-0.04,0.03-0.07,0.07-0.08,0.12l-0.24,1.76
					c-0.01,0.09,0.05,0.17,0.14,0.18l1.88,0.25c0.09,0.01,0.17-0.05,0.18-0.14l0.44-3.28c0.01-0.06-0.02-0.12-0.07-0.16
					C109.91,75.39,109.85,75.39,109.79,75.42z M109.3,78.65l-1.56-0.21l0.2-1.52l1.73-1.05L109.3,78.65z"/>
					<path id="XMLID_85_" class="st2" d="M111.28,74.62l-0.53,0.24c-0.05,0.02-0.09,0.07-0.09,0.13l-0.53,3.95
					c-0.01,0.09,0.05,0.17,0.14,0.18l1.88,0.25c0.09,0.01,0.17-0.05,0.18-0.14l0.38-2.79c0.01-0.04-0.01-0.08-0.03-0.12l-1.2-1.65
					C111.43,74.61,111.35,74.59,111.28,74.62z M112.03,79.02l-1.56-0.21l0.5-3.7l0.32-0.15l1.08,1.49L112.03,79.02z"/>
					<path id="XMLID_82_" class="st2" d="M114.68,75.44l-1.4,1.07c-0.02,0.02-0.04,0.05-0.04,0.08l-0.37,2.77
					c-0.01,0.06,0.04,0.12,0.1,0.13l1.23,0.17c0.06,0.01,0.12-0.04,0.13-0.1l0.54-4c0.01-0.05-0.02-0.09-0.06-0.11
					C114.77,75.41,114.72,75.41,114.68,75.44z M114.11,79.4l-1.01-0.14l0.35-2.61l1.14-0.87L114.11,79.4z"/>
					<path id="XMLID_81_" class="st2" d="M115.98,73.8c-0.98,0.53-1.96,1.07-2.93,1.6c-0.45-0.61-0.89-1.22-1.33-1.84
					c-0.05-0.06-0.15-0.1-0.23-0.06c-1.26,0.65-2.52,1.29-3.77,1.94c-0.22,0.11-0.07,0.47,0.15,0.35c1.21-0.62,2.43-1.24,3.64-1.87
					c0.45,0.61,0.89,1.23,1.34,1.84c0.05,0.06,0.15,0.1,0.23,0.06c1.02-0.56,2.04-1.12,3.07-1.68
					C116.35,74.04,116.2,73.68,115.98,73.8z"/>
				</g>
			</g>
			<g>
				<g class="st5">
					<g>
						<path class="st2" d="M144.35,168.3c-3.15,0.03-5.73-2.5-5.77-5.64s2.5-5.73,5.64-5.77c3.15-0.03,5.73,2.5,5.77,5.64
						C150.02,165.68,147.49,168.27,144.35,168.3z M144.22,157.14c-3.01,0.03-5.42,2.5-5.39,5.51c0.03,3.01,2.5,5.42,5.51,5.39
						c3.01-0.03,5.42-2.5,5.39-5.51C149.7,159.53,147.23,157.11,144.22,157.14z"/>
					</g>
				</g>
				<g id="XMLID_63_" class="st7">
					<path id="XMLID_77_" class="st2" d="M144.7,158.21c-0.04,0-0.09,0.02-0.12,0.05c-0.03,0.03-0.05,0.07-0.05,0.12l0.01,3.3
					c0,0.07,0.04,0.13,0.11,0.15c0.02,0.01,0.04,0.01,0.06,0.01c0.04,0,0.09-0.02,0.12-0.05l2.31-2.43
					c0.03-0.03,0.05-0.08,0.05-0.12c0-0.04-0.02-0.09-0.05-0.12C146.51,158.56,145.6,158.22,144.7,158.21z M144.88,161.26
					l-0.01-2.71c0.7,0.04,1.4,0.3,1.91,0.71L144.88,161.26z"/>
					<path id="XMLID_74_" class="st2" d="M148.12,164.42l-3.74-1.93l-0.05-4.13c0-0.09-0.07-0.16-0.17-0.17l-0.03,0
					c-0.02,0-0.04,0-0.06,0c-2.37,0.03-4.21,1.98-4.19,4.45c0.03,2.43,2.02,4.38,4.45,4.35c1.64-0.02,3.27-1.01,3.85-2.36
					C148.23,164.56,148.2,164.46,148.12,164.42z M144.34,166.66c-2.24,0.02-4.09-1.78-4.11-4.02c-0.02-2.25,1.63-4.04,3.77-4.11
					l0.04,4.07c0,0.06,0.04,0.12,0.09,0.15l3.69,1.9C147.24,165.81,145.8,166.65,144.34,166.66z"/>
					<path id="XMLID_64_" class="st2" d="M148.02,160.2c-0.1-0.14-0.2-0.28-0.3-0.4c-0.02-0.02-0.04-0.03-0.07-0.04
					c0-0.03-0.01-0.05-0.03-0.07c-0.05-0.06-0.1-0.11-0.15-0.16c-0.02-0.02-0.05-0.03-0.08-0.03c-0.03,0-0.06,0.01-0.08,0.03
					l-0.32,0.34c-0.01,0.01-0.02,0.03-0.03,0.04l-0.03,0.12c-0.04-0.01-0.09-0.01-0.12,0.03l-0.6,0.63
					c-0.01,0.01-0.02,0.03-0.03,0.04l-0.04,0.12c-0.04-0.01-0.09-0.01-0.12,0.03l-0.6,0.63c-0.01,0.01-0.02,0.03-0.03,0.04
					l-0.04,0.12c-0.04-0.01-0.09-0.01-0.12,0.03l-0.48,0.51c-0.02,0.03-0.03,0.06-0.03,0.09c0.01,0.03,0.03,0.06,0.06,0.08
					l0.29,0.15c0.02,0.01,0.03,0.01,0.05,0.01c0,0,0.01,0,0.01,0c0.01,0.02,0.02,0.03,0.04,0.04l0.36,0.19
					c0.02,0.01,0.03,0.01,0.05,0.01c0,0,0.01,0,0.01,0c0.01,0.02,0.02,0.03,0.04,0.04l0.36,0.19c0.02,0.01,0.03,0.01,0.05,0.01
					c0,0,0.01,0,0.01,0c0.01,0.02,0.02,0.03,0.04,0.04l0.36,0.19c0.02,0.01,0.03,0.01,0.05,0.01c0,0,0.01,0,0.01,0
					c0.01,0.02,0.02,0.03,0.04,0.04l0.36,0.19c0.02,0.01,0.03,0.01,0.05,0.01c0,0,0.01,0,0.01,0c0.01,0.02,0.02,0.03,0.04,0.04
					l0.36,0.19c0.02,0.01,0.03,0.01,0.05,0.01c0,0,0.01,0,0.01,0c0.01,0.02,0.02,0.03,0.04,0.04l0.36,0.19
					c0.02,0.01,0.03,0.01,0.05,0.01c0,0,0.01,0,0.01,0c0.01,0.02,0.02,0.03,0.04,0.04l0.21,0.11c0.02,0.01,0.03,0.01,0.05,0.01
					c0.01,0,0.02,0,0.03-0.01c0.03-0.01,0.05-0.03,0.07-0.06c0.25-0.5,0.37-1.1,0.36-1.79c0-0.07,0-0.13-0.01-0.2
					c0-0.05-0.04-0.09-0.08-0.1l0.05-0.16c0-0.02,0.01-0.03,0-0.05c-0.04-0.26-0.1-0.51-0.19-0.76c-0.01-0.04-0.04-0.06-0.08-0.07
					l0.01-0.03c0.01-0.02,0.01-0.05,0-0.08c-0.08-0.18-0.17-0.36-0.27-0.52c-0.02-0.03-0.04-0.04-0.07-0.05
					C148.04,160.26,148.03,160.23,148.02,160.2z M145.06,162.28l-0.03-0.02l0.06-0.06L145.06,162.28z M145.52,162.52l-0.15-0.08
					l0.24-0.79l0.26-0.28L145.52,162.52z M145.98,162.76l-0.15-0.08l0.56-1.85l0.26-0.28L145.98,162.76z M146.45,163l-0.16-0.08
					l0.88-2.91l0.23-0.24c0.01,0.01,0.01,0.01,0.02,0.02L146.45,163z M146.91,163.24l-0.16-0.08l0.92-3.06
					c0.04,0.06,0.09,0.12,0.13,0.18L146.91,163.24z M148.16,163.9l-0.02-0.01l0.28-0.93C148.37,163.3,148.29,163.62,148.16,163.9z
					 M148.41,161.81l-0.58,1.92l-0.15-0.08l0.66-2.19C148.37,161.57,148.39,161.69,148.41,161.81z M148.04,160.68
					c0.04,0.08,0.08,0.15,0.11,0.23l-0.78,2.58l-0.15-0.08L148.04,160.68z"/>
				</g>
			</g>
			<g>
				<g class="st5">
					<g>
						<path class="st2" d="M206.27,159.09c-3.38,0.44-6.48-1.95-6.92-5.32c-0.44-3.38,1.95-6.48,5.32-6.92
						c3.38-0.44,6.48,1.95,6.92,5.32C212.04,155.54,209.65,158.64,206.27,159.09z M204.71,147.11c-3.23,0.42-5.51,3.39-5.09,6.61
						c0.42,3.23,3.39,5.51,6.61,5.09c3.23-0.42,5.51-3.39,5.09-6.61C210.9,148.97,207.93,146.69,204.71,147.11z"/>
					</g>
				</g>
				<g class="st5">
					<g>
						<path class="st2" d="M204.94,148.3c0.52-0.07,0.94,0,1.24,0.21c0.35,0.23,0.56,0.65,0.64,1.25c0.17,1.3-0.44,2.46-1.36,2.58
						c-0.92,0.12-1.81-0.84-1.98-2.14c-0.08-0.6,0.02-1.06,0.3-1.37C204.04,148.54,204.42,148.37,204.94,148.3L204.94,148.3z
						 M204.89,147.93c-1.12,0.15-1.96,0.8-1.77,2.31c0.2,1.5,1.27,2.61,2.39,2.46c1.12-0.15,1.88-1.49,1.68-2.99
						C207,148.21,206.01,147.79,204.89,147.93L204.89,147.93z"/>
					</g>
					<g>
						<path class="st2" d="M207.42,153.14c0.38-0.05,0.96,0.11,1.24,0.47c0.23,0.29,0.48,1.44,0.62,2.34l-3.3,0.43l-3.3,0.43
						c-0.1-0.91-0.15-2.08,0-2.42c0.18-0.41,0.7-0.72,1.08-0.77c0.09-0.01,0.16-0.01,0.22,0.01c0.04,0.01,1.04,0.26,1.65,0.18
						c0.61-0.08,1.51-0.58,1.55-0.6C207.26,153.17,207.34,153.15,207.42,153.14L207.42,153.14z M207.38,152.77
						c-0.13,0.02-0.25,0.05-0.35,0.11c-0.18,0.1-0.94,0.5-1.42,0.56c-0.48,0.06-1.32-0.13-1.52-0.18c-0.11-0.03-0.23-0.03-0.36-0.01
						c-0.52,0.07-1.14,0.46-1.37,0.99c-0.29,0.66,0.02,2.98,0.02,2.98l3.67-0.48l3.67-0.48c0,0-0.3-2.33-0.75-2.89
						C208.6,152.92,207.9,152.7,207.38,152.77L207.38,152.77z"/>
					</g>
				</g>
			</g>
			<g>
				<g class="st0">
					<g>
						<path class="st2" d="M65.23,85.46c-8.31-1.12-14.15-8.78-13.03-17.09c1.12-8.31,8.78-14.15,17.09-13.03
						c8.31,1.12,14.15,8.78,13.03,17.09C81.2,80.73,73.54,86.58,65.23,85.46z M69.2,56c-7.94-1.07-15.26,4.52-16.33,12.45
						c-1.07,7.94,4.52,15.26,12.45,16.33c7.94,1.07,15.26-4.52,16.33-12.45C82.72,64.4,77.13,57.07,69.2,56z"/>
					</g>
				</g>
				<g class="st0">
					<path class="st2" d="M70.15,57.9c0.38,0.13,0.76,0.25,1.13,0.39c1.68,0.67,3.12,1.66,4.13,3.2c0.79,1.21,1.22,2.54,1.38,3.97
					c0.2,1.89-0.07,3.71-0.8,5.46c-0.7,1.69-1.61,3.24-2.76,4.66c-0.13,0.16-0.25,0.35-0.4,0.5c-0.3,0.29-0.35,0.65-0.32,1.04
					c0.1,1.34,0.34,2.65,0.77,3.92c0.04,0.13,0.1,0.25,0.18,0.37c0.11,0.16,0.13,0.32,0.03,0.49c-0.11,0.17-0.27,0.19-0.46,0.16
					c-2.21-0.4-4.41-0.79-6.62-1.18c-0.92-0.16-1.83-0.33-2.75-0.49c-0.32-0.06-0.43-0.19-0.41-0.51c0.03-0.56-0.02-1.12-0.18-1.66
					c-0.04-0.14-0.1-0.18-0.25-0.17c-0.82,0.05-1.64,0.11-2.46,0.1c-0.65-0.01-1.31-0.06-1.88-0.48c-0.49-0.36-0.71-0.92-0.54-1.52
					c0.08-0.3,0.15-0.61,0.21-0.87c-0.21-0.17-0.4-0.29-0.54-0.44c-0.2-0.21-0.25-0.48-0.13-0.76c0.02-0.05,0.03-0.14,0-0.18
					c-0.17-0.22-0.15-0.47-0.13-0.72c0.02-0.23,0.07-0.45,0.09-0.68c0.02-0.26-0.08-0.34-0.32-0.45c-0.25-0.11-0.5-0.25-0.7-0.44
					c-0.3-0.29-0.33-0.63-0.12-1c0.13-0.23,0.31-0.45,0.48-0.65c0.26-0.3,0.53-0.6,0.81-0.89c0.59-0.61,0.76-1.36,0.75-2.17
					c-0.01-0.55-0.06-1.1-0.05-1.65c0.02-0.85,0.3-1.63,0.67-2.38c1.39-2.83,3.7-4.46,6.75-5.07c0.94-0.19,1.89-0.25,2.84-0.15
					c0.04,0,0.09-0.01,0.13-0.02C69.16,57.73,69.66,57.82,70.15,57.9z M72.48,81.16c-0.03-0.12-0.06-0.19-0.08-0.27
					c-0.36-1.21-0.57-2.44-0.67-3.69c-0.05-0.64,0.07-1.19,0.53-1.66c0.2-0.21,0.37-0.46,0.55-0.69c0.71-0.9,1.33-1.87,1.85-2.9
					c0.72-1.43,1.26-2.91,1.38-4.52c0.1-1.45-0.06-2.87-0.61-4.22c-0.44-1.08-1.07-2.03-1.98-2.75c-1.79-1.43-3.85-2.13-6.15-2.03
					c-2.31,0.09-4.37,0.85-6.03,2.51c-1.13,1.13-1.9,2.47-2.17,4.07c-0.04,0.25-0.04,0.5-0.06,0.77c0.27-0.11,0.49-0.21,0.72-0.28
					c0.59-0.18,1.18-0.28,1.76,0.02c0.07,0.03,0.14,0.07,0.18,0.13c0.11,0.14,0.14,0.3,0.02,0.46c-0.14,0.19-0.33,0.21-0.53,0.12
					c-0.28-0.12-0.57-0.16-0.86-0.06c-0.34,0.11-0.68,0.24-1.02,0.36c-0.17,0.06-0.21,0.17-0.21,0.35c0.05,1-0.19,1.9-0.88,2.66
					c-0.32,0.35-0.64,0.71-0.95,1.06c-0.09,0.1-0.17,0.21-0.25,0.32c-0.09,0.12-0.09,0.22,0.07,0.28c0.15,0.06,0.29,0.12,0.44,0.18
					c0.48,0.21,0.76,0.71,0.68,1.24c-0.04,0.26-0.09,0.51-0.13,0.77c0.29,0.09,0.62,0.06,0.69,0.39c0.09,0.41-0.29,0.45-0.55,0.6
					c0.12,0.07,0.2,0.12,0.29,0.16c0.28,0.14,0.43,0.36,0.41,0.67c-0.01,0.21-0.05,0.42-0.09,0.62c-0.04,0.19-0.09,0.38-0.14,0.57
					c-0.07,0.28,0.02,0.52,0.27,0.63c0.27,0.13,0.57,0.27,0.87,0.29c0.7,0.05,1.4,0.06,2.1,0.02c1.15-0.07,2.29-0.23,3.35-0.7
					c0.29-0.12,0.55-0.32,0.82-0.48c0.22-0.14,0.43-0.12,0.57,0.06c0.14,0.18,0.11,0.38-0.09,0.56c-0.09,0.08-0.19,0.15-0.29,0.22
					c-0.57,0.37-1.2,0.56-1.84,0.74c-0.21,0.06-0.42,0.1-0.6,0.15c0.07,0.52,0.16,1.01,0.19,1.51c0.01,0.24,0.1,0.29,0.31,0.33
					c2.5,0.44,5,0.88,7.49,1.33C72.04,81.09,72.24,81.12,72.48,81.16z"/>
					<path class="st2" d="M65.68,67.36c-0.28-0.05-0.57-0.1-0.85-0.15c-0.12-0.02-0.19,0-0.27,0.1c-0.44,0.55-1.2,0.62-1.7,0.16
					c-0.5-0.46-0.51-1.23-0.01-1.71c0.1-0.09,0.12-0.17,0.09-0.29c-0.1-0.42-0.18-0.84-0.28-1.26c-0.02-0.09-0.09-0.19-0.17-0.24
					c-0.42-0.28-0.64-0.77-0.54-1.24c0.11-0.49,0.5-0.84,1.01-0.92c0.06-0.01,0.14-0.02,0.18-0.06c0.26-0.24,0.53-0.48,0.78-0.73
					c0.04-0.04,0.05-0.13,0.04-0.2c-0.09-0.56,0.14-1.07,0.61-1.3c0.49-0.24,1.02-0.13,1.42,0.3c0.05,0.06,0.15,0.1,0.23,0.1
					c0.42,0,0.83-0.01,1.24-0.03c0.08,0,0.18-0.05,0.23-0.12c0.3-0.4,0.7-0.59,1.19-0.5c0.49,0.09,0.79,0.41,0.92,0.89
					c0.02,0.07,0.09,0.15,0.16,0.19c0.14,0.08,0.29,0.13,0.43,0.2c0.28,0.13,0.51,0.24,0.86,0.08c0.43-0.2,0.87-0.05,1.19,0.31
					c0.32,0.35,0.41,0.77,0.21,1.22c-0.06,0.13-0.04,0.21,0.06,0.3c0.04,0.04,0.07,0.08,0.1,0.12c0.16,0.26,0.35,0.38,0.7,0.31
					c0.44-0.08,0.89,0.24,1.09,0.67c0.2,0.45,0.12,0.96-0.24,1.3c-0.11,0.11-0.13,0.19-0.08,0.33c0.06,0.15,0.1,0.3,0.14,0.46
					c0.08,0.32,0.2,0.59,0.49,0.81c0.53,0.4,0.52,1.2,0.05,1.67c-0.48,0.48-1.25,0.46-1.69-0.06c-0.11-0.13-0.2-0.15-0.34-0.11
					c-0.13,0.04-0.27,0.05-0.4,0.08c-0.22,0.05-0.3,0.21-0.21,0.41c0.08,0.16,0.16,0.33,0.23,0.49c0.13,0.27,0.26,0.51,0.54,0.69
					c0.51,0.33,0.6,1.07,0.24,1.57c-0.36,0.51-1.04,0.64-1.57,0.29c-0.12-0.08-0.21-0.08-0.33-0.01c-0.15,0.09-0.32,0.18-0.48,0.26
					c-0.23,0.12-0.43,0.26-0.58,0.5c-0.35,0.56-1.14,0.65-1.66,0.24c-0.52-0.42-0.6-1.17-0.15-1.67c0.13-0.14,0.12-0.24,0.05-0.39
					c-0.26-0.57-0.5-1.15-0.74-1.73c-0.05-0.13-0.12-0.18-0.26-0.2c-0.46-0.07-0.76-0.35-0.9-0.79c-0.04-0.12-0.09-0.17-0.21-0.19
					C66.24,67.46,65.96,67.41,65.68,67.36z M71.95,69.44c-0.1-0.21-0.19-0.4-0.28-0.59c-0.05-0.11-0.1-0.13-0.23-0.12
					c-0.55,0.04-0.98-0.24-1.18-0.76c-0.04-0.1-0.08-0.14-0.19-0.13c-0.24,0.02-0.48,0.03-0.72,0.01c-0.29-0.02-0.54,0.02-0.68,0.31
					c-0.03,0.06-0.07,0.16-0.04,0.21c0.26,0.64,0.54,1.27,0.81,1.9c0.02,0.05,0.08,0.12,0.13,0.13c0.44,0.06,0.75,0.29,0.96,0.69
					c0.22-0.12,0.42-0.22,0.62-0.34c0.04-0.02,0.09-0.09,0.09-0.13C71.22,70.08,71.45,69.7,71.95,69.44z M69.23,61.46
					c0.37,0.53,0.73,1.05,1.09,1.57c0.03,0.05,0.09,0.08,0.14,0.11c0.29,0.14,0.48,0.35,0.61,0.64c0.03,0.06,0.13,0.13,0.19,0.14
					c0.33,0.01,0.66-0.01,1-0.02c0.05,0,0.13-0.05,0.15-0.09c0.09-0.21,0.17-0.43-0.08-0.61c-0.09-0.07-0.16-0.16-0.22-0.26
					c-0.07-0.11-0.15-0.11-0.27-0.09c-0.68,0.16-1.37-0.31-1.38-1c-0.01-0.38-0.15-0.53-0.47-0.62c-0.08-0.02-0.15-0.08-0.23-0.1
					c-0.06-0.01-0.15,0-0.2,0.04C69.46,61.24,69.36,61.34,69.23,61.46z M66.01,64.4c-0.07-0.18-0.13-0.34-0.21-0.49
					c-0.02-0.05-0.1-0.09-0.16-0.1c-0.46-0.09-0.92-0.17-1.38-0.25c-0.06-0.01-0.14,0.01-0.18,0.05c-0.2,0.17-0.39,0.34-0.61,0.54
					c0.07,0.33,0.15,0.71,0.23,1.1c0.05,0.22,0.25,0.32,0.45,0.21c0.14-0.07,0.26-0.15,0.39-0.22
					C65.03,64.96,65.52,64.67,66.01,64.4z M66.82,64.84c-0.72,0.41-1.43,0.81-2.12,1.21c0.02,0.3,0.17,0.4,0.43,0.43
					c0.41,0.05,0.82,0.14,1.23,0.21c0.45,0.08,0.46,0.08,0.76-0.25c0.04-0.04,0.06-0.12,0.05-0.18
					C67.06,65.8,66.94,65.33,66.82,64.84z M63.95,62.08c0.1,0.22,0.19,0.41,0.29,0.59c0.03,0.05,0.1,0.11,0.16,0.12
					c0.46,0.09,0.92,0.17,1.38,0.25c0.06,0.01,0.15-0.02,0.19-0.06c0.1-0.09,0.18-0.2,0.28-0.31c-0.32-0.29-0.64-0.59-0.96-0.89
					c-0.04-0.03-0.09-0.05-0.14-0.06c-0.19-0.04-0.38-0.09-0.57-0.12c-0.04-0.01-0.11-0.01-0.14,0.02
					C64.27,61.78,64.09,61.94,63.95,62.08z M69.19,65.1c-0.11-0.21-0.21-0.4-0.32-0.57c-0.05-0.08-0.13-0.14-0.21-0.18
					c-0.07-0.04-0.17-0.02-0.24-0.05c-0.32-0.13-0.58-0.04-0.76,0.25c-0.03,0.05-0.06,0.12-0.05,0.17c0.11,0.46,0.22,0.91,0.33,1.36
					c0.04,0.15,0.22,0.2,0.33,0.09C68.58,65.8,68.89,65.44,69.19,65.1z M66.01,61.36c0.34,0.31,0.68,0.62,1.03,0.95
					c0.3-0.35,0.59-0.68,0.86-0.99c-0.12-0.21-0.21-0.39-0.32-0.57c-0.03-0.04-0.1-0.07-0.16-0.07c-0.33,0-0.66,0-0.99,0.02
					c-0.05,0-0.13,0.06-0.16,0.11C66.17,60.98,66.1,61.16,66.01,61.36z M72.65,64.73c-0.07-0.03-0.09-0.05-0.12-0.05
					c-0.47,0.01-0.93,0.01-1.4,0.03c-0.05,0-0.12,0.03-0.15,0.07c-0.13,0.14-0.24,0.28-0.38,0.44c0.33,0.38,0.67,0.77,1.03,1.17
					C71.97,65.82,72.31,65.29,72.65,64.73z M67.72,62.72c0.09,0.14,0.2,0.25,0.22,0.38c0.07,0.36,0.33,0.42,0.62,0.44
					c0.1,0.01,0.19,0.04,0.29,0.05c0.06,0,0.13-0.02,0.17-0.06c0.14-0.12,0.26-0.26,0.37-0.36c-0.3-0.43-0.61-0.87-0.91-1.31
					C68.23,62.13,67.97,62.43,67.72,62.72z M69.85,65.54c-0.33,0.38-0.65,0.73-0.95,1.11c-0.05,0.06,0.02,0.23,0.06,0.34
					c0.02,0.04,0.1,0.08,0.16,0.08c0.36,0,0.72-0.01,1.08-0.03c0.05,0,0.11-0.04,0.15-0.07c0.13-0.13,0.25-0.28,0.38-0.43
					C70.45,66.23,70.15,65.89,69.85,65.54z M72.49,67.22c0.29-0.01,0.58-0.05,0.62-0.44c0-0.03,0.03-0.07,0.06-0.09
					c0.19-0.18,0.37-0.36,0.59-0.56c-0.07-0.22-0.14-0.5-0.23-0.77c-0.02-0.06-0.08-0.16-0.12-0.16c-0.06,0-0.15,0.06-0.18,0.12
					c-0.25,0.39-0.47,0.79-0.74,1.17C72.31,66.73,72.22,66.95,72.49,67.22z M63.17,62.59c-0.2-0.03-0.39,0.11-0.42,0.31
					c-0.03,0.21,0.1,0.4,0.3,0.43c0.21,0.04,0.4-0.11,0.44-0.32C63.51,62.81,63.37,62.62,63.17,62.59z M64.02,66.67
					c0.03-0.19-0.12-0.4-0.31-0.44c-0.19-0.04-0.4,0.11-0.44,0.3c-0.04,0.2,0.12,0.42,0.32,0.45
					C63.78,67.01,63.99,66.86,64.02,66.67z M68.22,67.42c0.04-0.19-0.1-0.4-0.29-0.45c-0.19-0.04-0.4,0.1-0.45,0.29
					c-0.05,0.2,0.1,0.42,0.3,0.46C67.96,67.76,68.18,67.61,68.22,67.42z M69.91,64.56c0.19,0.03,0.4-0.11,0.44-0.3
					c0.04-0.2-0.12-0.42-0.32-0.45c-0.19-0.03-0.4,0.12-0.43,0.31C69.57,64.31,69.72,64.52,69.91,64.56z M69.52,71.2
					c-0.19-0.04-0.4,0.11-0.44,0.3c-0.04,0.19,0.1,0.4,0.3,0.44c0.2,0.04,0.42-0.1,0.46-0.31C69.86,71.44,69.72,71.23,69.52,71.2z
					 M73.62,63.65c-0.19-0.04-0.4,0.11-0.44,0.3c-0.04,0.2,0.1,0.4,0.29,0.45c0.2,0.05,0.42-0.1,0.45-0.31
					C73.96,63.9,73.81,63.69,73.62,63.65z M72.47,70.14c-0.19-0.04-0.4,0.1-0.44,0.3c-0.04,0.2,0.11,0.42,0.31,0.45
					c0.2,0.03,0.4-0.11,0.43-0.31C72.81,70.39,72.66,70.18,72.47,70.14z M65.48,60.63c0.04-0.21-0.09-0.39-0.29-0.43
					c-0.21-0.04-0.39,0.08-0.43,0.29c-0.04,0.22,0.09,0.41,0.3,0.44C65.26,60.96,65.44,60.84,65.48,60.63z M67.3,63.7
					c0.03-0.2-0.11-0.4-0.31-0.43c-0.2-0.03-0.4,0.11-0.44,0.3c-0.04,0.2,0.11,0.42,0.32,0.45C67.07,64.04,67.27,63.9,67.3,63.7z
					 M71.53,62.08c0.21,0.04,0.39-0.08,0.43-0.29c0.04-0.21-0.08-0.39-0.28-0.44c-0.22-0.05-0.41,0.08-0.45,0.3
					C71.2,61.86,71.32,62.04,71.53,62.08z M68.76,60.04c-0.21-0.04-0.39,0.08-0.44,0.28c-0.04,0.21,0.08,0.4,0.28,0.44
					c0.21,0.05,0.41-0.08,0.45-0.3C69.09,60.27,68.96,60.09,68.76,60.04z M74.52,67.35c0.04-0.21-0.09-0.39-0.3-0.43
					c-0.21-0.04-0.4,0.08-0.44,0.29c-0.04,0.22,0.09,0.41,0.3,0.45C74.3,67.69,74.48,67.56,74.52,67.35z M71.71,67.63
					c0.03-0.21-0.1-0.39-0.32-0.42c-0.21-0.03-0.39,0.1-0.42,0.31c-0.03,0.21,0.1,0.39,0.32,0.42
					C71.5,67.98,71.68,67.84,71.71,67.63z"/>
				</g>
			</g>
		</g>
	</g>
</svg>
