<?xml version="1.0" encoding="utf-8"?>
<!-- Generator: Adobe Illustrator 24.2.1, SVG Export Plug-In . SVG Version: 6.00 Build 0)  -->
<svg version="1.1" id="diagram"
	xmlns="http://www.w3.org/2000/svg"
	xmlns:xlink="http://www.w3.org/1999/xlink" viewBox="0 0 834.65 386.82" xml:space="preserve">
	<style>
  .st0 {
    opacity: 0.3;
    filter: opacity(1);
  }

  .st00 {
    opacity: 0.3;
    filter: opacity(1);
    animation: flashing 1.5s infinite alternate;
  }
  .st1 {
    opacity: 0.1;
    filter: opacity(1);
  }
  .st2 {
    fill: #ada8a800;
    filter: opacity(1);
    stroke-width: 1px;
    stroke: white;
    stroke-dasharray: 600;
    stroke-dashoffset: 600;
    animation: drawing-svg 5s infinite;
  }

  .st2-2 {
    fill: #ada8a8;
    filter: opacity(1);
    stroke-width: 1px;
    stroke: white;
  }

  .st3 {
    opacity: 0.2;
    filter: opacity(1);
  }
  .st4 {
    opacity: 0.75;
    filter: opacity(1);
  }
  .st5 {
    opacity: 0.05;
    filter: opacity(1);
  }
  .st6 {
    opacity: 0.6;
    filter: opacity(1);
  }
  .st7 {
    opacity: 0.8;
    filter: opacity(1);
  }
  .st8 {
    opacity: 0.5;
    filter: opacity(1);
  }
  .st9 {
    opacity: 0.5;
    fill: #ffffff;
    filter: opacity(1);
    stroke-dasharray: 600;
    stroke-dashoffset: 600;
    animation: drawing-svg 5s infinite;
  }

  @keyframes flashing {
    to {
      opacity: 0;
    }
  }

  @keyframes drawing-svg {
    100% {
      stroke-dashoffset: 0;
    }
}
	</style>
	<g>
		<g class="st0">
			<g class="st1">
				<polygon class="st2" points="358.52,166.08 310.47,163.89 313.24,110.76" />
			</g>
			<g class="st3">
				<polygon class="st2" points="767.25,301.59 772.08,288.58 747.28,291.8" />
			</g>
			<g class="st3">
				<polygon class="st2" points="615.68,257.42 595.68,281.14 573.8,250.5" />
			</g>
			<g class="st0">
				<rect x="181.08" y="-7.49" transform="matrix(0.0285 -0.9996 0.9996 0.0285 159.8243 197.2071)" class="st2" width="0.57" height="47.75" />
			</g>
			<g class="st4">
				<rect x="771.68" y="291.03" transform="matrix(0.6595 -0.7517 0.7517 0.6595 56.6796 707.7371)" class="st2" width="75.64" height="0.57" />
			</g>
			<g class="st0">
				<rect x="723.71" y="327.96" transform="matrix(0.9617 -0.2742 0.2742 0.9617 -61.0729 219.4883)" class="st2" width="62.04" height="0.57" />
			</g>
			<g class="st1">
				<path class="st2" d="M396.62,297.13c0.37,2.55,8.83,48.96,8.83,48.96l-44-41.73L396.62,297.13z" />
			</g>
			<g class="st5">
				<polygon class="st2" points="327.7,254.04 275.97,282.89 276.8,241.36 			" />
			</g>
			<g class="st5">
				<polygon class="st2" points="218.89,286.76 183.22,219.94 178.01,258.36 			" />
			</g>
			<g class="st3">
				<polygon class="st2" points="109.56,200.91 83.39,156.41 86.66,208.34 			" />
			</g>
			<g class="st1">
				<polygon class="st2" points="196.87,116.35 178.35,65.22 108.2,92.23 			" />
			</g>
			<g class="st3">
				<polygon class="st2" points="514.38,329.37 480.93,360.28 467.79,304.59 			" />
			</g>
			<g class="st3">
				<polygon class="st2" points="423.69,219.36 387.5,245.2 380.41,207.96 			" />
			</g>
			<g class="st1">
				<polygon class="st2" points="272.63,197.68 241.59,187.14 276.8,241.36 			" />
			</g>
			<g class="st1">
				<polygon class="st2" points="147.64,243.73 143.59,276.65 90.37,267.03 			" />
			</g>
			<g>
				<path class="st2" d="M377.73,207.05c-0.5,1.48,0.29,3.09,1.77,3.59c1.48,0.5,3.09-0.29,3.59-1.77c0.5-1.48-0.29-3.09-1.77-3.59
				C379.84,204.78,378.24,205.57,377.73,207.05z" />
			</g>
			<g>
				<path class="st2" d="M390.89,292.75c-1.01,2.96,0.58,6.18,3.54,7.18s6.18-0.58,7.18-3.54c1.01-2.96-0.58-6.18-3.54-7.18
				C395.11,288.21,391.89,289.79,390.89,292.75z" />
			</g>
			<g>
				<path class="st2" d="M661.38,267.08c-0.71,2.09,0.41,4.37,2.5,5.08c2.09,0.71,4.37-0.41,5.08-2.5c0.71-2.09-0.41-4.37-2.5-5.08
				C664.36,263.86,662.09,264.98,661.38,267.08z" />
			</g>
			<g>
				<ellipse transform="matrix(0.9748 -0.2233 0.2233 0.9748 -58.1467 39.0462)" class="st2-2" cx="143.59" cy="276.65" rx="5.66" ry="5.66" />
			</g>
			<g>
				<path class="st2" d="M325.02,253.13c-0.5,1.48,0.29,3.09,1.77,3.59c1.48,0.5,3.09-0.29,3.59-1.77c0.5-1.48-0.29-3.09-1.77-3.59
				C327.13,250.86,325.52,251.65,325.02,253.13z" />
			</g>
			<g>
				<path class="st2" d="M194.19,115.44c-0.5,1.48,0.29,3.09,1.77,3.59c1.48,0.5,3.09-0.29,3.59-1.77c0.5-1.48-0.29-3.09-1.77-3.59
				C196.3,113.17,194.69,113.96,194.19,115.44z" />
			</g>
			<g>
				<path class="st2" d="M180.54,219.03c-0.5,1.48,0.29,3.09,1.77,3.59c1.48,0.5,3.09-0.29,3.59-1.77c0.5-1.48-0.29-3.09-1.77-3.59
				C182.65,216.76,181.05,217.55,180.54,219.03z" />
			</g>
			<g>
				<path class="st2" d="M103.91,90.77c-0.8,2.37,0.46,4.94,2.83,5.74c2.37,0.8,4.94-0.46,5.74-2.83c0.8-2.37-0.46-4.94-2.83-5.74
				C107.28,87.13,104.71,88.4,103.91,90.77z" />
			</g>
			<g>
				<path class="st2" d="M274.36,282.34c-0.3,0.89,0.17,1.85,1.06,2.15c0.89,0.3,1.85-0.17,2.15-1.06c0.3-0.89-0.17-1.85-1.06-2.15
				C275.63,280.98,274.66,281.45,274.36,282.34z" />
			</g>
			<g>
				<path class="st2" d="M144.96,242.82c-0.5,1.48,0.29,3.09,1.77,3.59c1.48,0.5,3.09-0.29,3.59-1.77c0.5-1.48-0.29-3.09-1.77-3.59
				C147.07,240.55,145.46,241.34,144.96,242.82z" />
			</g>
			<g>
				<path class="st2" d="M275.51,243.88c1.39,0.71,3.1,0.16,3.81-1.23c0.71-1.39,0.16-3.1-1.23-3.81c-1.39-0.71-3.1-0.16-3.81,1.23
				C273.57,241.46,274.12,243.16,275.51,243.88z" />
			</g>
			<g>
				<ellipse transform="matrix(0.9518 -0.3066 0.3066 0.9518 -50.2899 109.3435)" class="st2-2" cx="322.85" cy="214.72" rx="3.96" ry="3.96" />
			</g>
			<g>
				<path class="st2" d="M443.46,271.94c0.83,0.43,1.86,0.1,2.29-0.74c0.43-0.83,0.1-1.86-0.74-2.29c-0.83-0.43-1.86-0.1-2.29,0.74
				C442.3,270.48,442.63,271.51,443.46,271.94z" />
			</g>
			<g>
				<path class="st2" d="M404.15,348.61c1.39,0.71,3.1,0.16,3.81-1.23c0.71-1.39,0.16-3.1-1.23-3.81c-1.39-0.71-3.1-0.16-3.81,1.23
				C402.21,346.19,402.76,347.89,404.15,348.61z" />
			</g>
			<g>
				<path class="st2" d="M594.39,283.66c1.39,0.71,3.1,0.16,3.81-1.23c0.71-1.39,0.16-3.1-1.23-3.81c-1.39-0.71-3.1-0.16-3.81,1.23
				C592.45,281.24,593,282.95,594.39,283.66z" />
			</g>
			<g>
				<path class="st2" d="M745.99,294.32c1.39,0.71,3.1,0.16,3.81-1.23c0.71-1.39,0.16-3.1-1.23-3.81c-1.39-0.71-3.1-0.16-3.81,1.23
				C744.05,291.9,744.6,293.61,745.99,294.32z" />
			</g>
			<g>
				<path class="st2" d="M264.74,141.91c-0.5,1.48,0.29,3.09,1.77,3.59c1.48,0.5,3.09-0.29,3.59-1.77c0.5-1.48-0.29-3.09-1.77-3.59
				C266.85,139.64,265.24,140.43,264.74,141.91z" />
			</g>
			<g>
				<path class="st2" d="M154.82,14.78c-0.5,1.48,0.29,3.09,1.77,3.59c1.48,0.5,3.09-0.29,3.59-1.77c0.5-1.48-0.29-3.09-1.77-3.59
				C156.93,12.51,155.32,13.3,154.82,14.78z" />
			</g>
			<g>
				<path class="st2" d="M201.22,170.44c-0.3,0.89,0.17,1.85,1.06,2.15c0.89,0.3,1.85-0.17,2.15-1.06c0.3-0.89-0.17-1.85-1.06-2.15
				C202.49,169.08,201.52,169.56,201.22,170.44z" />
			</g>
			<g>
				<path class="st2" d="M106.88,200c-0.5,1.48,0.29,3.09,1.77,3.59c1.48,0.5,3.09-0.29,3.59-1.77c0.5-1.48-0.29-3.09-1.77-3.59
				C108.99,197.73,107.39,198.52,106.88,200z" />
			</g>
			<g>
				<path class="st2" d="M478.25,359.37c-0.5,1.48,0.29,3.09,1.77,3.59c1.48,0.5,3.09-0.29,3.59-1.77c0.5-1.48-0.29-3.09-1.77-3.59
				C480.36,357.1,478.75,357.89,478.25,359.37z" />
			</g>
			<g>
				<path class="st2" d="M563.81,324.92c-0.5,1.48,0.29,3.09,1.77,3.59c1.48,0.5,3.09-0.29,3.59-1.77c0.5-1.48-0.29-3.09-1.77-3.59
				C565.92,322.65,564.31,323.44,563.81,324.92z" />
			</g>
			<g>
				<path class="st2" d="M696.77,307.83c-0.5,1.48,0.29,3.09,1.77,3.59c1.48,0.5,3.09-0.29,3.59-1.77c0.5-1.48-0.29-3.09-1.77-3.59
				C698.88,305.56,697.28,306.35,696.77,307.83z" />
			</g>
			<g>
				<path class="st2" d="M536.57,299.69c-0.3,0.89,0.17,1.85,1.06,2.15c0.89,0.3,1.85-0.17,2.15-1.06c0.3-0.89-0.17-1.85-1.06-2.15
				S536.87,298.8,536.57,299.69z" />
			</g>
			<g>
				<path class="st2" d="M697.4,246.32c-0.3,0.89,0.17,1.85,1.06,2.15c0.89,0.3,1.85-0.17,2.15-1.06c0.3-0.89-0.17-1.85-1.06-2.15
				C698.66,244.96,697.7,245.43,697.4,246.32z" />
			</g>
			<g>
				<path class="st2" d="M765.64,301.04c-0.3,0.89,0.17,1.85,1.06,2.15c0.89,0.3,1.85-0.17,2.15-1.06c0.3-0.89-0.17-1.85-1.06-2.15
				C766.9,299.68,765.94,300.15,765.64,301.04z" />
			</g>
			<g>
				<path class="st2" d="M511.7,328.46c-0.5,1.48,0.29,3.09,1.77,3.59c1.48,0.5,3.09-0.29,3.59-1.77c0.5-1.48-0.29-3.09-1.77-3.59
				C513.81,326.19,512.2,326.98,511.7,328.46z" />
			</g>
			<g>
				<path class="st2" d="M503.75,276.14c-0.7,2.07,0.41,4.32,2.48,5.03c2.07,0.7,4.32-0.41,5.03-2.48c0.7-2.07-0.41-4.32-2.48-5.03
				C506.71,272.96,504.46,274.07,503.75,276.14z" />
			</g>
			<g>
				<path class="st2" d="M465.11,303.68c-0.5,1.48,0.29,3.09,1.77,3.59c1.48,0.5,3.09-0.29,3.59-1.77s-0.29-3.09-1.77-3.59
				C467.22,301.4,465.61,302.2,465.11,303.68z" />
			</g>
			<g>
				<path class="st2" d="M358.76,303.45c-0.5,1.48,0.29,3.09,1.77,3.59c1.48,0.5,3.09-0.29,3.59-1.77c0.5-1.48-0.29-3.09-1.77-3.59
				C360.87,301.17,359.26,301.97,358.76,303.45z" />
			</g>
			<g>
				<path class="st2" d="M384.82,244.29c-0.5,1.48,0.29,3.09,1.77,3.59c1.48,0.5,3.09-0.29,3.59-1.77c0.5-1.48-0.29-3.09-1.77-3.59
				C386.93,242.02,385.32,242.81,384.82,244.29z" />
			</g>
			<g>
				<path class="st2" d="M307.79,162.98c-0.5,1.48,0.29,3.09,1.77,3.59c1.48,0.5,3.09-0.29,3.59-1.77c0.5-1.48-0.29-3.09-1.77-3.59
				C309.9,160.7,308.3,161.5,307.79,162.98z" />
			</g>
			<g>
				<path class="st2" d="M241.94,74.09c-0.3,0.89,0.17,1.85,1.06,2.15s1.85-0.17,2.15-1.06c0.3-0.89-0.17-1.85-1.06-2.15
				C243.2,72.73,242.24,73.2,241.94,74.09z" />
			</g>
			<g>
				<path class="st2" d="M356.91,165.54c-0.3,0.89,0.17,1.85,1.06,2.15c0.89,0.3,1.85-0.17,2.15-1.06c0.3-0.89-0.17-1.85-1.06-2.15
				C358.18,164.17,357.21,164.65,356.91,165.54z" />
			</g>
			<g>
				<path class="st2" d="M474.38,228.4c-0.3,0.89,0.17,1.85,1.06,2.15c0.89,0.3,1.85-0.17,2.15-1.06c0.3-0.89-0.17-1.85-1.06-2.15
				C475.64,227.04,474.68,227.51,474.38,228.4z" />
			</g>
			<g>
				<path class="st2" d="M173.94,332.9c-0.3,0.89,0.17,1.85,1.06,2.15c0.89,0.3,1.85-0.17,2.15-1.06c0.3-0.89-0.17-1.85-1.06-2.15
				C175.21,331.54,174.25,332.01,173.94,332.9z" />
			</g>
			<g>
				<path class="st2" d="M26.42,310.13c-0.3,0.89,0.17,1.85,1.06,2.15c0.89,0.3,1.85-0.17,2.15-1.06c0.3-0.89-0.17-1.85-1.06-2.15
				C27.68,308.77,26.72,309.24,26.42,310.13z" />
			</g>
			<g>
				<path class="st2" d="M323.83,352.01c-0.3,0.89,0.17,1.85,1.06,2.15c0.89,0.3,1.85-0.17,2.15-1.06c0.3-0.89-0.17-1.85-1.06-2.15
				C325.1,350.64,324.13,351.12,323.83,352.01z" />
			</g>
			<g>
				<path class="st2" d="M606.63,305.45c-0.3,0.89,0.17,1.85,1.06,2.15c0.89,0.3,1.85-0.17,2.15-1.06c0.3-0.89-0.17-1.85-1.06-2.15
				C607.89,304.08,606.93,304.56,606.63,305.45z" />
			</g>
			<g>
				<path class="st2" d="M203.62,16.53c-0.3,0.89,0.17,1.85,1.06,2.15c0.89,0.3,1.85-0.17,2.15-1.06c0.3-0.89-0.17-1.85-1.06-2.15
				C204.89,15.17,203.92,15.64,203.62,16.53z" />
			</g>
			<g>
				<path class="st2" d="M771.04,288.44c-0.2,0.59,0.12,1.24,0.71,1.44c0.59,0.2,1.24-0.12,1.44-0.71c0.2-0.59-0.12-1.24-0.71-1.44
				C771.89,287.53,771.25,287.85,771.04,288.44z" />
			</g>
			<g>
				<path class="st2" d="M613.48,256.76c-0.41,1.19,0.23,2.49,1.43,2.9s2.49-0.23,2.9-1.43c0.41-1.19-0.23-2.49-1.43-2.9
				C615.18,254.93,613.88,255.57,613.48,256.76z" />
			</g>
			<g>
				<ellipse transform="matrix(0.9997 -0.0227 0.0227 0.9997 -6.3541 15.0643)" class="st2-2" cx="660.49" cy="287.47" rx="1.13" ry="1.13" />
			</g>
			<g>
				<path class="st2" d="M728.17,309.06c-0.3,0.87,0.17,1.82,1.04,2.11c0.87,0.3,1.82-0.17,2.11-1.04c0.3-0.87-0.17-1.82-1.04-2.11
				C729.41,307.73,728.47,308.19,728.17,309.06z" />
			</g>
			<g>
				<path class="st2" d="M520.42,250.77c-0.2,0.59,0.12,1.24,0.71,1.44c0.59,0.2,1.24-0.12,1.44-0.71c0.2-0.59-0.12-1.24-0.71-1.44
				C521.27,249.86,520.62,250.18,520.42,250.77z" />
			</g>
			<g>
				<path class="st2" d="M311.63,110.21c-0.3,0.89,0.17,1.85,1.06,2.15c0.89,0.3,1.85-0.17,2.15-1.06s-0.17-1.85-1.06-2.15
				C312.9,108.85,311.93,109.32,311.63,110.21z" />
			</g>
			<g>
				<path class="st2" d="M723.41,335.92c-0.3,0.89,0.17,1.85,1.06,2.15c0.89,0.3,1.85-0.17,2.15-1.06c0.3-0.89-0.17-1.85-1.06-2.15
				S723.71,335.03,723.41,335.92z" />
			</g>
			<g>
				<path class="st2" d="M649.67,231.12c-0.3,0.89,0.17,1.85,1.06,2.15c0.89,0.3,1.85-0.17,2.15-1.06c0.3-0.89-0.17-1.85-1.06-2.15
				C650.94,229.75,649.97,230.23,649.67,231.12z" />
			</g>
			<g>
				<path class="st2" d="M782.79,319.56c-0.3,0.89,0.17,1.85,1.06,2.15c0.89,0.3,1.85-0.17,2.15-1.06s-0.17-1.85-1.06-2.15
				C784.06,318.19,783.09,318.67,782.79,319.56z" />
			</g>
			<g>
				<path class="st2" d="M792.36,289.03c-0.3,0.89,0.17,1.85,1.06,2.15c0.89,0.3,1.85-0.17,2.15-1.06c0.3-0.89-0.17-1.85-1.06-2.15
				C793.63,287.67,792.67,288.15,792.36,289.03z" />
			</g>
			<g>
				<path class="st2" d="M422.08,218.81c-0.3,0.89,0.17,1.85,1.06,2.15c0.89,0.3,1.85-0.17,2.15-1.06c0.3-0.89-0.17-1.85-1.06-2.15
				S422.38,217.92,422.08,218.81z" />
			</g>
			<g>
				<path class="st2" d="M572.19,249.96c-0.3,0.89,0.17,1.85,1.06,2.15c0.89,0.3,1.85-0.17,2.15-1.06c0.3-0.89-0.17-1.85-1.06-2.15
				C573.46,248.59,572.49,249.07,572.19,249.96z" />
			</g>
			<g>
				<path class="st2" d="M314.17,315.95c0.83,0.43,1.86,0.1,2.29-0.74c0.43-0.83,0.1-1.86-0.74-2.29c-0.83-0.43-1.86-0.1-2.29,0.74
				C313.01,314.5,313.34,315.52,314.17,315.95z" />
			</g>
			<g>
				<path class="st2" d="M177.23,259.87c0.83,0.43,1.86,0.1,2.29-0.74c0.43-0.83,0.1-1.86-0.74-2.29c-0.83-0.43-1.86-0.1-2.29,0.74
				C176.07,258.42,176.4,259.44,177.23,259.87z" />
			</g>
			<g>
				<path class="st2" d="M112.38,3.21c0.83,0.43,1.86,0.1,2.29-0.74c0.43-0.83,0.1-1.86-0.74-2.29c-0.83-0.43-1.86-0.1-2.29,0.74
				C111.21,1.76,111.54,2.78,112.38,3.21z" />
			</g>
			<g>
				<path class="st2" d="M96.14,48.76c-0.5,1.48,0.29,3.09,1.77,3.59c1.48,0.5,3.09-0.29,3.59-1.77c0.5-1.48-0.29-3.09-1.77-3.59
				C98.25,46.48,96.65,47.28,96.14,48.76z" />
			</g>
			<g>
				<path class="st2" d="M80.7,155.5c-0.5,1.48,0.29,3.09,1.77,3.59c1.48,0.5,3.09-0.29,3.59-1.77c0.5-1.48-0.29-3.09-1.77-3.59
				C82.82,153.22,81.21,154.02,80.7,155.5z" />
			</g>
			<g>
				<path class="st2" d="M216.21,285.85c-0.5,1.48,0.29,3.09,1.77,3.59c1.48,0.5,3.09-0.29,3.59-1.77c0.5-1.48-0.29-3.09-1.77-3.59
				C218.32,283.57,216.72,284.37,216.21,285.85z" />
			</g>
			<g>
				<path class="st2" d="M238.91,186.23c-0.5,1.48,0.29,3.09,1.77,3.59c1.48,0.5,3.09-0.29,3.59-1.77c0.5-1.48-0.29-3.09-1.77-3.59
				C241.02,183.96,239.42,184.75,238.91,186.23z" />
			</g>
			<g>
				<path class="st2" d="M246.11,318.66c-0.5,1.48,0.29,3.09,1.77,3.59c1.48,0.5,3.09-0.29,3.59-1.77c0.5-1.48-0.29-3.09-1.77-3.59
				C248.22,316.38,246.61,317.18,246.11,318.66z" />
			</g>
			<g>
				<path class="st2" d="M87.69,266.12c-0.5,1.48,0.29,3.09,1.77,3.59c1.48,0.5,3.09-0.29,3.59-1.77c0.5-1.48-0.29-3.09-1.77-3.59
				C89.8,263.85,88.19,264.64,87.69,266.12z" />
			</g>
			<g>
				<path class="st2" d="M104.46,303.1c-0.5,1.48,0.29,3.09,1.77,3.59c1.48,0.5,3.09-0.29,3.59-1.77c0.5-1.48-0.29-3.09-1.77-3.59
				C106.57,300.82,104.96,301.61,104.46,303.1z" />
			</g>
			<g>
				<path class="st2" d="M175.67,64.31c-0.5,1.48,0.29,3.09,1.77,3.59c1.48,0.5,3.09-0.29,3.59-1.77c0.5-1.48-0.29-3.09-1.77-3.59
				C177.78,62.04,176.17,62.83,175.67,64.31z" />
			</g>
			<g>
				<path class="st2" d="M123.89,158.7c-0.5,1.48,0.29,3.09,1.77,3.59c1.48,0.5,3.09-0.29,3.59-1.77c0.5-1.48-0.29-3.09-1.77-3.59
				C126,156.43,124.4,157.22,123.89,158.7z" />
			</g>
			<g class="st0">
				<path class="st2" d="M513.95,329.38l-51.59-43.35l-28.5,5.26l-28.55,55.68l-8.68-48.81l-35.14,6.48l-0.41,0.08l11.21-56.97
				l-44.5,6.57l-52.29,29.16l22.31-76.94l-14.98-5.09l-29.87,40.07l24.67-0.45l-60.24,47.23l34.42-46.19l-104.18,1.92l-0.13,0
				l-38.16-42.92l-0.29-0.32l72.54-23.39l-0.75-23.96l-54.63,6.51l17.41-81.05l-35.21,13.56l-24.74,64.01l7.06,111.93L0.14,90.19
				L0,89.91l98.68-40.49l58.67-33.98l0.55-0.32L144.4,77.99l34.22-13.17l2.77,87.98l35.49-4.23L196.5,116.3l47.18-42.16l24.13,68.92
				l-49.96,5.96l23.94,37.89l40.85,13.87l28.55-38.31l-12.67,43.7l24.37,8.27l57.5-6.76l0.39-0.05l-7.76,39.43l14.72-2.18
				l9.36,52.61l36.39-6.71l10.66-20.8l18.38,15.44l45.05-8.31l30.65,22.81l57.36-19.04l0.77-0.26l-29.63,45.37l-0.05,0.07
				l-87.08,35.06L513.95,329.38z M595,281.67l-56.73,18.84l-0.14,0.05l-30.69-22.84l-44.35,8.18l51.48,43.26l0.25,0.21l-32.56,30.08
				l84.05-33.84L595,281.67z M397.19,298.05l8.39,47.16l27.58-53.8L397.19,298.05z M387.27,245.52l-14.38,2.12L361.8,304l34.73-6.41
				L387.27,245.52z M444.32,270.87l-10.14,19.78l27.62-5.09L444.32,270.87z M380.06,208.29l-57.18,6.72l-0.06,0.01l-24.47-8.31
				l-21.92,75.6l51.13-28.51l0.05-0.03l44.8-6.62L380.06,208.29z M252.54,242.09l-32.15,43.14l55.57-43.57L252.54,242.09z
				 M157.09,16.26L98.93,49.93L0.78,90.2L90,265.68L83.1,156.43l0-0.06l24.83-64.24l0.04-0.12l35.79-13.78L157.09,16.26z
				 M241.5,187.41l-0.09-0.03l-24.19-38.28l-35.81,4.27l0.75,23.85l21.21-6.84l-20.39,50.94l-1.37-43.33l-71.55,23.07l37.7,42.4
				l104.49-1.92l30.02-40.28L241.5,187.41z M182.18,177.79l1.28,40.78l18.94-47.3L182.18,177.79z M283.19,200.96l14.78,5.02
				l11.79-40.67L283.19,200.96z M178.08,65.63l-33.82,13.02l-17.33,80.64l53.89-6.43L178.08,65.63z M243.42,75.13l-46.19,41.27
				l20.27,32.08l49.53-5.91L243.42,75.13z" />
			</g>
			<g>
				<path class="st2" d="M537.96,300.05l0.19-0.23l29.03,26.24l-53.43,3.63L537.96,300.05z M538.21,300.64l-23.19,28.4l50.79-3.45
				L538.21,300.64z" />
			</g>
			<g>
				<polygon class="st2" points="514.25,329.62 514.51,329.12 467.92,304.34 467.65,304.84 			" />
			</g>
			<g class="st0">
				<polygon class="st2" points="538.41,300.4 574.35,250.21 521.56,250.85 475.9,228.59 475.76,228.77 444.3,269.57 444.75,269.92 
				476.07,229.3 521.43,251.42 521.5,251.41 573.24,250.79 537.95,300.07 			" />
			</g>
			<g class="st6">
				<path class="st2" d="M405.39,346.37l-0.08-0.02l-44.07-41.79l-17.71-26.4l-67.55,5l-0.1,0.01l-92.83-63l-0.38-0.26l58.7-32.99
				l26.23-45.01l9.44,99.22l50.31,12.53l-4.79-38.87l-12.54-51.52l70.35,44.33l0.21-0.19l0.06,0.31l43.1,11.35l0.14,0.04
				l20.56,51.09l0.92,0.41l-101.19,7.49l17.47,26.05l43.92,41.65l74.97,14.1l-13.04-55.27l-0.04-0.19l40.26-27.54l6.93,52.42
				l-0.56,0.07l-6.81-51.5l-39.18,26.8l13.19,55.93L405.39,346.37z M327.53,254.29l-50.79-12.65l-0.19-0.05l-9.32-97.86
				l-25.38,43.56l-0.04,0.07l-58.04,32.61l92.28,62.64l67.13-4.97L327.53,254.29z M387.39,245.46l-0.14-0.06l-7.02-36.91
				l-52.15,45.59l15.75,23.49l99.27-7.35L387.39,245.46z M380.78,208.35l6.97,36.66l55.96,24.88l-20.23-50.29L380.78,208.35z
				 M310.91,164.5l12.22,50.19l4.78,38.78L379.94,208L310.91,164.5z" />
			</g>
			<g>
				<path class="st2" d="M274.79,282.3l86.71,21.78l1.17,0.29l-47.67,10.34l-0.13,0.03L274.79,282.3z M277.14,283.47l37.88,30.66
				l45.18-9.8L277.14,283.47z" />
			</g>
			<g>
				<path class="st2" d="M99.09,49.75C103.78,33.69,112.8,3,113.4,1.83l-0.5-0.26c-0.78,1.52-13.8,46.12-14.35,48.02L99.09,49.75z" />
			</g>
			<g>
				<polygon class="st2" points="143.87,276.68 147.88,244.16 178.23,258.78 178.29,258.4 183.5,219.98 182.94,219.9 177.78,257.94 
				147.41,243.31 143.31,276.61 			" />
			</g>
			<g>
				<path class="st2" d="M90.64,267.11c0.18-0.63,18.3-63.46,19.19-66.11l-0.54-0.18c-0.9,2.66-19.02,65.5-19.2,66.13L90.64,267.11z" />
			</g>
			<g class="st7">
				<polygon class="st2" points="248.81,320.01 276.25,282.98 276.25,282.89 277.08,241.28 277.04,241.2 241.78,186.91 241.7,186.88 
				203.15,170.62 197.15,116.32 196.58,116.38 202.63,171.02 241.4,187.37 276.51,241.44 275.69,282.79 248.77,319.12 
				219.06,286.52 178.03,258.03 177.87,258.11 143.54,276.35 91.38,266.92 147.78,243.98 183.91,219.82 183.29,219.66 
				109.95,200.72 126.87,159.63 126.85,159.54 108.47,92.15 107.92,92.3 126.28,159.59 109.18,201.1 182.54,220.05 147.51,243.48 
				89.36,267.13 143.63,276.94 177.99,258.69 218.71,286.97 			" />
			</g>
			<g>
				<polygon class="st2" points="218.73,287.05 218.91,287.04 275.99,283.17 275.95,282.6 219.06,286.46 183.77,220.35 
				276.74,241.63 276.86,241.08 182.68,219.52 			" />
			</g>
			<g>
				<polygon class="st2" points="3.98,235.46 109.99,201.07 83.9,156.73 126.64,159.9 126.72,159.85 197.57,116.25 196.94,116.08 
				108.44,92 99.19,50.03 178.82,65.6 157.71,15.46 113.11,1.39 113,1.46 53.78,39.95 54.09,40.43 113.19,2.01 157.29,15.92 
				177.88,64.84 98.45,49.31 107.96,92.45 108.12,92.5 196.16,116.45 126.5,159.32 82.87,156.09 83.14,156.55 109.14,200.75 
				3.81,234.93 			" />
			</g>
			<g>
				<path class="st2" d="M125.8,159.21l77.48,11.38l-19.58,48.91l-0.16,0.41L125.8,159.21z M127.34,160.01l56,58.87l19.15-47.84
				L127.34,160.01z" />
			</g>
			<g>
				<polygon class="st2" points="19.79,214.02 83.77,156.44 36.87,98.3 108.22,92.51 108.17,91.94 35.76,97.83 83,156.38 
				19.41,213.6 			" />
			</g>
			<g>
				<polygon class="st2" points="507.53,277.97 521.74,251.26 521.24,251 507.48,276.86 476.16,228.69 476.04,228.67 423.62,219.06 
				423.52,219.13 387.34,244.97 387.66,245.43 423.75,219.66 475.81,229.2 			" />
			</g>
			<g class="st0">
				<path class="st2" d="M325.31,352.8l-76.63-32.98l-107.25-43.76l77.5,10.41l0.06,0.01l50.51,31.19l45.42-3.52l0.06,0l91.81,32.11
				l-81,6.54l0.1,0.36L325.31,352.8z M315.37,314.89l10.29,37.36l78.44-6.34L315.37,314.89z M270.32,318.18l54.65,33.75
				l-10.24-37.19L270.32,318.18z M249.95,319.76l72.06,31.01l-52.65-32.51L249.95,319.76z M218.8,287.03l-73.05-9.81l103.08,42.06
				l19.71-1.53L218.8,287.03z" />
			</g>
			<g class="st0">
				<polygon class="st2" points="358.3,166.26 358.74,165.9 313,110.01 310.19,163.87 310.76,163.9 313.48,111.5 			" />
			</g>
			<g class="st6">
				<path class="st2" d="M358.35,166.36l-47.89-2.19l-0.06,0l-43.08-21.08l-70.55-26.47l-0.12-0.05l-18.56-51.25l-0.16-0.44
				l65.66,9.48l70.2,36.37l-45.81,32.05l42.57,20.83l47.99,2.2l0.16,0.01l21.97,42.02l-0.5,0.26L358.35,166.36z M243.46,74.91
				l-64.68-9.34l18.31,50.56l70.29,26.37l45.32-31.71L243.46,74.91z" />
			</g>
			<g>
				<polygon class="st2" points="243.31,74.79 243.78,74.48 205.21,16.53 178.1,65.08 178.6,65.36 205.25,17.62 			" />
			</g>
			<g class="st0">
				<polygon class="st2" points="175.52,333.74 248.84,319.84 248.74,319.29 175.58,333.15 107.7,303.94 143.76,276.87 
				143.42,276.42 106.58,304.07 107.03,304.27 			" />
			</g>
			<g>
				<polygon class="st2" points="175.8,334.47 178.29,258.37 177.72,258.35 175.3,332.42 143.83,276.51 143.34,276.78 			" />
			</g>
			<g class="st8">
				<polygon class="st2" points="28.05,310.96 107.56,304.25 90.59,266.83 90.51,266.79 15.13,220.81 14.83,221.29 90.14,267.23 
				106.71,303.76 28,310.4 			" />
			</g>
			<g>
				<rect x="438.3" y="273.84" transform="matrix(0.6135 -0.7897 0.7897 0.6135 -89.0592 472.8831)" class="st2" width="0.57" height="107.18" />
			</g>
			<g class="st0">
				<rect x="390.82" y="150.64" transform="matrix(0.633 -0.7742 0.7742 0.633 -5.6591 373.5037)" class="st2" width="0.57" height="84.17" />
			</g>
			<g class="st7">
				<polygon class="st2" points="405.6,346.32 468.18,304.66 444.82,270.77 507.55,277.7 507.61,277.67 573.7,250.85 595.66,281.6 
				615.79,257.74 665.57,268.96 746.74,291.95 729.17,309.78 784.5,320.02 784.61,319.46 730.33,309.42 747.82,291.66 
				747.36,291.53 665.71,268.42 615.58,257.11 615.47,257.24 595.7,280.68 573.9,250.16 507.47,277.12 443.65,270.08 467.39,304.51 
				405.29,345.85 			" />
			</g>
			<g class="st0">
				<rect x="762.72" y="294.8" transform="matrix(0.3482 -0.9374 0.9374 0.3482 225.0421 913.8254)" class="st2" width="13.88" height="0.57" />
			</g>
			<g class="st4">
				<polygon class="st2" points="724.87,337.14 725.08,336.97 767.4,301.83 794.32,289.94 834.6,263.11 834.28,262.64 794.05,289.44 
				767.1,301.35 767.07,301.37 724.93,336.36 699.74,308.63 699.29,246.86 698.72,246.87 699.17,308.85 699.25,308.93 			" />
			</g>
			<g class="st0">
				<polygon class="st2" points="608.39,306.23 665.98,268.8 665.9,268.59 651.54,231.56 651.01,231.76 665.29,268.58 608.08,305.76 
							" />
			</g>
			<g>
				<polygon class="st2" points="725.18,336.8 730.09,309.33 699.59,308.46 665.75,268.38 665.58,268.41 595.25,280.93 
				607.85,305.86 566.37,325.58 566.61,326.09 608.62,306.13 596.1,281.35 665.52,269 699.32,309.02 699.45,309.02 729.41,309.87 
				724.62,336.7 			" />
			</g>
			<g class="st0">
				<polygon class="st2" points="699.32,308.99 699.59,308.49 660.51,287.16 660.39,287.2 608.14,305.73 608.33,306.26 
				660.46,287.78 			" />
			</g>
			<g class="st0">
				<polygon class="st2" points="784.68,320.28 794.59,289.42 772.09,288.29 772.07,288.86 793.82,289.94 784.43,319.2 
				767.42,301.36 767.37,301.33 747.4,291.55 747.15,292.06 767.08,301.82 			" />
			</g>
			<g class="st0">
				<polygon class="st2" points="660.76,287.53 665.35,268.68 699.16,247.1 698.85,246.63 664.86,268.33 664.83,268.44 660.21,287.4 
							" />
			</g>
			<g>
				<rect x="722.86" y="236.36" transform="matrix(0.6813 -0.732 0.732 0.6813 33.2992 615.1559)" class="st2" width="0.57" height="65.95" />
			</g>
			<g class="st0">
				<path class="st2" d="M572.38,250.56l78.78-19.16l0.07-0.05l47.87,15.25l-0.17,0.54l-47.59-15.16l-35.57,25.75L572.38,250.56z
				 M575.21,250.45l40.4,6.67l34.33-24.85L575.21,250.45z" />
			</g>
			<g class="st4">
				<polygon class="st2" points="747.32,292.08 772.19,288.84 834.55,263.14 834.33,262.62 772.01,288.3 747.24,291.52 			" />
			</g>
			<g class="st1">
				<polygon class="st2" points="699.01,246.87 665.11,268.51 699.23,278.2 			" />
			</g>
			<g class="st0">
				<rect x="196.8" y="113.27" transform="matrix(0.9989 -0.0479 0.0479 0.9989 -5.149 12.3538)" class="st2" width="116.51" height="0.57" />
			</g>
		</g>
		<g>
			<g class="st6">
				<g>
					<path class="st2" d="M51.97,54.28c-6.59,0.31-12.21-4.8-12.53-11.39s4.8-12.21,11.39-12.53s12.21,4.8,12.53,11.39
					S58.56,53.96,51.97,54.28z M50.86,30.89c-6.3,0.3-11.18,5.67-10.88,11.97c0.3,6.3,5.67,11.18,11.97,10.88
					c6.3-0.3,11.18-5.67,10.88-11.97C62.53,35.47,57.16,30.59,50.86,30.89z" />
				</g>
			</g>
			<g class="st6">
				<g>
					<path class="st2" d="M28,319.83c-4.81,0.23-8.92-3.5-9.14-8.31s3.5-8.92,8.31-9.14c4.81-0.23,8.92,3.5,9.14,8.31
					C36.55,315.5,32.82,319.6,28,319.83z M27.19,302.76c-4.6,0.22-8.16,4.14-7.94,8.74c0.22,4.6,4.14,8.16,8.74,7.94
					c4.6-0.22,8.16-4.14,7.94-8.74C35.71,306.11,31.79,302.54,27.19,302.76z" />
				</g>
			</g>
			<g>
				<g class="st6">
					<g>
						<path class="st2" d="M508.52,305.72c-14.2,0.67-26.3-10.33-26.98-24.53c-0.67-14.2,10.33-26.3,24.53-26.98
						c14.2-0.67,26.3,10.33,26.98,24.53C533.73,292.95,522.72,305.05,508.52,305.72z M506.13,255.36
						c-13.57,0.64-24.08,12.21-23.44,25.78c0.64,13.57,12.21,24.08,25.78,23.44c13.57-0.64,24.08-12.21,23.44-25.78
						C531.26,265.23,519.7,254.72,506.13,255.36z" />
					</g>
				</g>
				<path class="st9" d="M520.24,275.21l-1.94-0.36l0.46-2.49c0.93-5.04-2.51-9.91-7.68-10.87c-5.16-0.96-10.13,2.37-11.06,7.4
				l-0.46,2.49l-1.76-0.33c-1.02-0.19-2,0.49-2.19,1.5l-3.34,18.03c-0.19,1.02,0.49,2,1.51,2.19l22.44,4.15
				c1.02,0.19,2-0.49,2.19-1.51l3.34-18.03C521.94,276.38,521.26,275.4,520.24,275.21z M508.36,287.08
				c-0.19,1.02-1.17,1.69-2.19,1.51c-1.02-0.19-1.69-1.17-1.5-2.19l1.02-5.49c0.19-1.02,1.17-1.69,2.19-1.5
				c1.02,0.19,1.69,1.17,1.51,2.19L508.36,287.08z M514.61,274.17l-11.35-2.1l0.46-2.49c0.56-3,3.55-4.97,6.68-4.39
				c3.13,0.58,5.22,3.49,4.67,6.49L514.61,274.17z" />
			</g>
			<g>
				<g class="st00">
					<g>
						<path class="st2" d="M323.27,386.77c-20.2,0.96-37.42-14.69-38.38-34.89c-0.96-20.2,14.69-37.42,34.89-38.38
						c20.2-0.96,37.42,14.69,38.38,34.89C359.12,368.6,343.47,385.81,323.27,386.77z M319.86,315.13
						c-19.3,0.92-34.26,17.37-33.34,36.67c0.92,19.3,17.37,34.26,36.67,33.34c19.3-0.92,34.26-17.37,33.34-36.67
						C355.62,329.17,339.17,314.22,319.86,315.13z" />
					</g>
				</g>
				<g id="XMLID_115_" class="st00">
					<path id="XMLID_122_" class="st2" d="M309.96,372c3.29,1.63,6.82,2.45,10.52,2.45l0.58,2.93c0.36,1.84,2.15,3.03,4,2.67
					l4.13-0.82c1.84-0.36,3.04-2.15,2.68-3.99l-0.58-2.92c2.97-1.18,5.5-2.77,7.52-4.75c3.61-3.57,5.01-7.83,4.15-12.67
					c-0.54-3.07-1.93-5.53-4.13-7.32c-3.25-2.62-7.67-3.86-13.16-3.71l-0.98-4.97c0.4,0.18,0.8,0.38,1.2,0.61
					c0.88,0.47,1.82,0.62,2.8,0.43c0.82-0.13,1.64-0.78,1.76-0.88c0.05-0.03,0.08-0.06,0.12-0.1l4.06-3.82
					c1.05-0.99,1.12-2.03,0.99-2.72c-0.14-0.79-0.6-1.44-1.32-1.9c-3.48-2.66-7.54-4.03-12.08-4.11l-0.69-3.49
					c-0.36-1.84-2.16-3.04-4-2.68l-4.13,0.82c-1.84,0.36-3.04,2.16-2.68,4l0.66,3.34c-1.81,0.7-3.44,1.57-4.85,2.58
					c-5.42,3.89-7.57,8.63-6.38,14.09c0.58,2.69,1.88,4.94,3.86,6.71c3.08,2.79,7.38,4.16,12.8,4.09l1.41,7.15
					c-1.8-0.5-3.63-1.43-5.46-2.75c-0.82-0.7-1.82-0.96-2.9-0.75c-0.58,0.11-1.3,0.58-1.58,0.78c-0.02,0.01-0.05,0.03-0.06,0.05
					c-0.01,0.01-0.04,0.03-0.05,0.04l-3.72,3.3c-1.19,1.04-1.25,2.17-1.08,2.93c0.15,0.68,0.52,1.26,1.09,1.71
					C305.92,369.7,307.78,370.93,309.96,372z M305.91,365.35l3.68-3.26c0.24-0.16,0.59-0.36,0.7-0.4c0.43-0.08,0.74,0,1.06,0.28
					c0.02,0.02,0.05,0.04,0.08,0.06c2.66,1.94,5.36,3.13,8.04,3.52c0.36,0.05,0.71-0.07,0.96-0.33c0.25-0.26,0.35-0.62,0.28-0.97
					l-1.92-9.71c-0.11-0.53-0.58-0.91-1.13-0.89c-5.26,0.22-9.36-0.96-12.18-3.5c-1.65-1.48-2.69-3.29-3.18-5.53
					c-1-4.58,0.81-8.46,5.51-11.83c1.47-1.06,3.21-1.94,5.18-2.62c0.52-0.18,0.83-0.72,0.72-1.26l-0.84-4.26
					c-0.13-0.65,0.29-1.28,0.94-1.41l4.13-0.82c0.64-0.13,1.27,0.29,1.4,0.94l0.86,4.38c0.1,0.53,0.57,0.9,1.11,0.89
					c4.43-0.1,8.36,1.14,11.67,3.68c0.03,0.02,0.07,0.05,0.1,0.07c0.27,0.17,0.33,0.31,0.35,0.44c0.02,0.11,0.06,0.35-0.33,0.72
					l-4.01,3.78c-0.22,0.17-0.63,0.42-0.83,0.46l0,0c-0.48,0.09-0.92,0.03-1.31-0.19c-1.12-0.64-2.28-1.12-3.46-1.41
					c-0.37-0.1-0.75,0.01-1.03,0.27c-0.27,0.26-0.4,0.64-0.32,1.01l1.54,7.78c0.11,0.54,0.6,0.92,1.14,0.89
					c5.38-0.3,9.62,0.77,12.61,3.18c1.8,1.47,2.89,3.43,3.34,5.99c0.74,4.14-0.42,7.65-3.52,10.71c-1.99,1.95-4.55,3.49-7.61,4.58
					c-0.51,0.18-0.82,0.72-0.71,1.26l0.76,3.84c0.13,0.64-0.29,1.27-0.94,1.4l-4.13,0.82c-0.65,0.13-1.28-0.29-1.4-0.94l-0.76-3.83
					c-0.11-0.53-0.58-0.91-1.12-0.89c-3.67,0.14-7.17-0.6-10.41-2.21c-2.01-0.98-3.69-2.11-5.01-3.34
					c-0.03-0.03-0.06-0.06-0.09-0.08c-0.23-0.17-0.29-0.33-0.32-0.45C305.49,366.02,305.43,365.76,305.91,365.35z" />
					<path id="XMLID_119_" class="st2" d="M315.63,338.52c-0.07-0.36-0.31-0.66-0.65-0.8c-0.33-0.14-0.72-0.11-1.03,0.08l-0.29,0.19
					c-0.02,0.02-0.04,0.03-0.07,0.05c-2.28,1.69-2.45,3.56-2.19,4.82l0,0c0.3,1.47,1.3,3.33,4.31,3.85c0.14,0.02,0.27,0.02,0.4,0
					c0.22-0.04,0.42-0.15,0.58-0.31c0.25-0.26,0.36-0.63,0.29-0.99L315.63,338.52z M314.44,343.89c-0.57-0.43-0.77-0.98-0.87-1.47
					c-0.08-0.39-0.1-0.91,0.28-1.53L314.44,343.89z" />
					<path id="XMLID_116_" class="st2" d="M327.83,363.62c0.2,0.08,0.41,0.1,0.62,0.06c0.15-0.03,0.3-0.09,0.43-0.19
					c0.28-0.21,0.62-0.45,0.91-0.73c1.69-1.55,2.36-3.5,1.96-5.63c-0.32-1.67-1.45-3.74-5.08-4.14c-0.35-0.04-0.7,0.09-0.93,0.35
					c-0.24,0.26-0.34,0.62-0.27,0.96l1.68,8.52C327.22,363.18,327.48,363.49,327.83,363.62z M327.96,355.54
					c1.16,0.48,1.48,1.29,1.62,2c0.21,1.1,0,2.04-0.65,2.91L327.96,355.54z" />
				</g>
			</g>
			<g>
				<g class="st6">
					<g>
						<path class="st2" d="M314.77,126.07c-8.47,0.4-15.68-6.16-16.09-14.63s6.16-15.68,14.63-16.09c8.47-0.4,15.68,6.16,16.09,14.63
						C329.8,118.45,323.24,125.66,314.77,126.07z M313.35,96.04c-8.09,0.38-14.36,7.28-13.98,15.37
						c0.38,8.09,7.28,14.36,15.37,13.98c8.09-0.38,14.36-7.28,13.98-15.37C328.33,101.92,321.44,95.65,313.35,96.04z" />
					</g>
				</g>
				<g id="XMLID_104_" class="st8">
					<path id="XMLID_112_" class="st2" d="M308.51,108.65l-5.51,3.62c-0.11,0.07-0.18,0.19-0.2,0.33l-0.47,4.78
					c-0.02,0.24,0.15,0.46,0.4,0.48l5.11,0.5c0.24,0.02,0.46-0.15,0.48-0.4l0.87-8.9c0.02-0.17-0.07-0.33-0.21-0.42
					C308.83,108.55,308.65,108.55,308.51,108.65z M307.48,117.44l-4.23-0.41l0.4-4.13l4.57-3L307.48,117.44z" />
					<path id="XMLID_109_" class="st2" d="M312.44,106.34l-1.4,0.7c-0.14,0.07-0.23,0.2-0.24,0.35l-1.05,10.71
					c-0.02,0.24,0.15,0.46,0.4,0.48l5.11,0.5c0.24,0.02,0.46-0.15,0.48-0.4l0.74-7.58c0.01-0.11-0.02-0.23-0.09-0.32l-3.4-4.33
					C312.85,106.3,312.62,106.24,312.44,106.34z M314.9,118.16l-4.23-0.41l0.98-10.03l0.86-0.43l3.07,3.9L314.9,118.16z" />
					<path id="XMLID_106_" class="st2" d="M321.71,108.22l-3.68,3.02c-0.06,0.05-0.1,0.13-0.11,0.21l-0.73,7.51
					c-0.02,0.17,0.11,0.32,0.28,0.34l3.35,0.33c0.17,0.02,0.32-0.11,0.34-0.28l1.06-10.86c0.01-0.12-0.05-0.24-0.16-0.3
					S321.81,108.14,321.71,108.22z M320.57,118.98l-2.73-0.27l0.69-7.07l3-2.47L320.57,118.98z" />
					<path id="XMLID_105_" class="st2" d="M325.07,103.66c-2.59,1.54-5.18,3.08-7.77,4.62c-1.26-1.61-2.53-3.22-3.79-4.83
					c-0.13-0.17-0.42-0.25-0.62-0.14c-3.33,1.87-6.67,3.73-10,5.6c-0.58,0.32-0.15,1.27,0.43,0.94c3.22-1.8,6.43-3.6,9.65-5.4
					c1.26,1.61,2.53,3.22,3.79,4.84c0.13,0.17,0.43,0.26,0.62,0.14c2.7-1.61,5.41-3.22,8.11-4.83
					C326.07,104.27,325.64,103.32,325.07,103.66z" />
				</g>
			</g>
			<g>
				<g class="st6">
					<g>
						<path class="st2" d="M567.48,342.38c-8.47,0.4-15.68-6.16-16.09-14.63c-0.4-8.47,6.16-15.68,14.63-16.09
						c8.47-0.4,15.68,6.16,16.09,14.63C582.51,334.76,575.94,341.98,567.48,342.38z M566.05,312.35
						c-8.09,0.38-14.36,7.28-13.98,15.37c0.38,8.09,7.28,14.36,15.37,13.98c8.09-0.38,14.36-7.28,13.98-15.37
						C581.04,318.23,574.14,311.96,566.05,312.35z" />
					</g>
				</g>
				<g id="XMLID_87_" class="st8">
					<path id="XMLID_101_" class="st2" d="M567.44,315.17c-0.12,0-0.23,0.06-0.32,0.14c-0.08,0.09-0.13,0.21-0.12,0.33l0.37,8.89
					c0.01,0.18,0.13,0.35,0.3,0.41c0.06,0.02,0.12,0.03,0.17,0.03c0.12-0.01,0.23-0.06,0.32-0.15l5.97-6.77
					c0.08-0.09,0.12-0.21,0.11-0.33c-0.01-0.12-0.07-0.23-0.16-0.31C572.34,315.94,569.86,315.11,567.44,315.17z M568.22,323.38
					l-0.3-7.31c1.89,0.04,3.79,0.67,5.22,1.73L568.22,323.38z" />
					<path id="XMLID_98_" class="st2" d="M577.25,331.56l-10.27-4.83l-0.53-11.12c-0.01-0.24-0.22-0.44-0.46-0.43l-0.09,0
					c-0.05,0-0.1,0-0.15,0c-6.39,0.3-11.15,5.75-10.83,12.39c0.31,6.53,5.88,11.6,12.41,11.29c4.43-0.21,8.69-3.04,10.15-6.73
					C577.57,331.92,577.47,331.67,577.25,331.56z M567.29,337.97c-6.04,0.29-11.18-4.39-11.47-10.43
					c-0.29-6.06,3.98-11.04,9.76-11.44l0.52,10.95c0.01,0.17,0.11,0.31,0.26,0.39l10.12,4.76
					C575.01,335.38,571.22,337.78,567.29,337.97z" />
					<path id="XMLID_88_" class="st2" d="M576.56,320.21c-0.27-0.38-0.56-0.74-0.85-1.06c-0.05-0.05-0.11-0.08-0.18-0.09
					c-0.01-0.07-0.03-0.13-0.08-0.18c-0.15-0.15-0.29-0.29-0.42-0.4c-0.06-0.05-0.13-0.08-0.22-0.08c-0.08,0-0.16,0.04-0.21,0.1
					l-0.84,0.95c-0.03,0.03-0.05,0.08-0.07,0.12l-0.08,0.32c-0.11-0.03-0.23-0.01-0.31,0.08l-1.56,1.77
					c-0.03,0.04-0.05,0.08-0.07,0.12l-0.08,0.32c-0.11-0.04-0.24-0.01-0.31,0.08l-1.56,1.76c-0.03,0.04-0.05,0.08-0.06,0.12
					l-0.08,0.32c-0.11-0.03-0.23-0.01-0.31,0.08l-1.25,1.41c-0.06,0.07-0.09,0.17-0.07,0.26c0.02,0.09,0.08,0.17,0.17,0.21
					l0.78,0.37c0.04,0.02,0.09,0.03,0.14,0.03c0.01,0,0.02-0.01,0.02-0.01c0.03,0.05,0.07,0.09,0.12,0.11l0.98,0.46
					c0.05,0.02,0.09,0.03,0.14,0.03c0.01,0,0.02-0.01,0.02-0.01c0.03,0.05,0.07,0.09,0.12,0.11l0.98,0.46
					c0.04,0.02,0.09,0.03,0.14,0.03c0.01,0,0.02-0.01,0.02-0.01c0.03,0.05,0.07,0.09,0.12,0.11l0.98,0.47
					c0.04,0.02,0.09,0.03,0.14,0.03c0.01,0,0.01,0,0.02-0.01c0.03,0.05,0.07,0.09,0.12,0.12l0.98,0.46
					c0.04,0.02,0.09,0.03,0.14,0.03c0.01,0,0.02,0,0.02,0c0.03,0.05,0.07,0.09,0.12,0.11l0.98,0.46c0.05,0.02,0.1,0.03,0.14,0.03
					c0.01,0,0.02,0,0.02-0.01c0.03,0.05,0.07,0.09,0.12,0.12l0.98,0.46c0.05,0.02,0.09,0.03,0.14,0.03c0.01,0,0.02,0,0.02-0.01
					c0.03,0.05,0.07,0.09,0.12,0.11l0.57,0.27c0.04,0.02,0.09,0.03,0.14,0.03c0.03,0,0.06-0.01,0.09-0.02
					c0.08-0.03,0.14-0.08,0.17-0.16c0.62-1.36,0.89-3,0.8-4.86c-0.01-0.18-0.02-0.36-0.04-0.55c-0.01-0.13-0.11-0.23-0.24-0.26
					l0.11-0.42c0.01-0.04,0.01-0.09,0.01-0.13c-0.13-0.69-0.33-1.37-0.6-2.02c-0.04-0.09-0.12-0.16-0.22-0.18l0.02-0.09
					c0.02-0.07,0.01-0.14-0.02-0.2c-0.22-0.48-0.48-0.94-0.77-1.38c-0.04-0.07-0.11-0.11-0.19-0.13
					C576.62,320.36,576.61,320.28,576.56,320.21z M568.81,326.1l-0.1-0.04l0.15-0.17L568.81,326.1z M570.07,326.7l-0.42-0.2
					l0.56-2.14l0.68-0.77L570.07,326.7z M571.34,327.31l-0.42-0.2l1.32-5.03l0.68-0.77L571.34,327.31z M572.61,327.91l-0.43-0.2
					l2.08-7.92l0.59-0.66c0.02,0.02,0.04,0.03,0.05,0.05L572.61,327.91z M573.87,328.51l-0.43-0.2l2.19-8.33
					c0.12,0.15,0.24,0.3,0.36,0.46L573.87,328.51z M577.31,330.15l-0.07-0.03l0.66-2.53C577.83,328.52,577.63,329.38,577.31,330.15z
					 M577.78,324.49l-1.37,5.22l-0.42-0.2l1.56-5.95C577.64,323.87,577.71,324.18,577.78,324.49z M576.66,321.49
					c0.11,0.2,0.22,0.41,0.32,0.61l-1.84,7.01l-0.43-0.2L576.66,321.49z" />
				</g>
			</g>
			<g>
				<g class="st6">
					<g>
						<path class="st2" d="M670.29,295.89c-14.02,2.36-27.34-7.13-29.7-21.15c-2.36-14.02,7.13-27.34,21.15-29.7
						c14.02-2.36,27.34,7.13,29.7,21.15C693.8,280.22,684.31,293.54,670.29,295.89z M661.94,246.17
						c-13.4,2.25-22.46,14.98-20.21,28.38c2.25,13.4,14.98,22.46,28.38,20.21c13.4-2.25,22.46-14.98,20.21-28.38
						C688.07,252.99,675.34,243.92,661.94,246.17z" />
					</g>
				</g>
				<g class="st6">
					<g>
						<path class="st2" d="M663.08,251.09c2.15-0.36,3.9-0.13,5.23,0.69c1.49,0.92,2.45,2.64,2.87,5.11
						c0.91,5.4-1.46,10.32-5.28,10.96c-3.82,0.64-7.66-3.23-8.57-8.63c-0.42-2.47-0.06-4.41,1.04-5.77
						C659.35,252.24,660.94,251.45,663.08,251.09L663.08,251.09z M662.83,249.57c-4.67,0.78-8.07,3.66-7.02,9.91
						c1.05,6.25,5.68,10.68,10.35,9.9c4.67-0.78,7.6-6.49,6.55-12.74C671.65,250.38,667.49,248.78,662.83,249.57L662.83,249.57z" />
					</g>
					<g>
						<path class="st2" d="M674.2,270.89c1.58-0.27,4.04,0.33,5.26,1.75c1.01,1.17,2.22,5.92,2.94,9.66l-13.69,2.3l-13.69,2.3
						c-0.54-3.77-0.94-8.66-0.37-10.09c0.69-1.75,2.82-3.11,4.4-3.38c0.36-0.06,0.68-0.06,0.94-0.01c0.18,0.04,4.38,0.94,6.93,0.51
						c2.55-0.43,6.23-2.66,6.39-2.75C673.53,271.05,673.84,270.95,674.2,270.89L674.2,270.89z M673.94,269.37
						c-0.54,0.09-1.03,0.26-1.44,0.5c-0.72,0.44-3.84,2.21-5.84,2.55c-2,0.34-5.52-0.32-6.35-0.5c-0.46-0.1-0.98-0.1-1.52-0.01
						c-2.16,0.36-4.7,2.11-5.58,4.33c-1.1,2.78,0.52,12.44,0.52,12.44l15.23-2.56l15.23-2.56c0,0-1.62-9.66-3.57-11.93
						C679.08,269.83,676.1,269,673.94,269.37L673.94,269.37z" />
					</g>
				</g>
			</g>
			<g>
				<g class="st00">
					<g>
						<path class="st2" d="M102.94,143.75c-20.75-2.03-35.99-20.56-33.97-41.31C71,81.68,89.53,66.45,110.29,68.47
						s35.99,20.56,33.97,41.31S123.7,145.78,102.94,143.75z M110.13,70.15C90.3,68.21,72.59,82.77,70.65,102.6
						c-1.94,19.83,12.62,37.54,32.45,39.47c19.83,1.94,37.54-12.62,39.47-32.45C144.52,89.79,129.96,72.08,110.13,70.15z" />
					</g>
				</g>
				<g class="st00">
					<path class="st2" d="M112.66,74.79c0.95,0.29,1.91,0.54,2.85,0.87c4.24,1.51,7.91,3.83,10.55,7.57
					c2.07,2.93,3.28,6.21,3.79,9.74c0.68,4.68,0.16,9.22-1.48,13.65c-1.58,4.26-3.72,8.21-6.45,11.84
					c-0.32,0.42-0.58,0.89-0.94,1.27c-0.71,0.76-0.81,1.66-0.7,2.61c0.37,3.32,1.08,6.56,2.27,9.69c0.12,0.31,0.27,0.62,0.47,0.89
					c0.29,0.39,0.36,0.79,0.13,1.21c-0.25,0.43-0.65,0.5-1.12,0.44c-5.52-0.78-11.05-1.55-16.57-2.33c-2.3-0.32-4.59-0.64-6.89-0.97
					c-0.8-0.11-1.08-0.43-1.06-1.23c0.03-1.4-0.14-2.77-0.6-4.1c-0.12-0.35-0.25-0.43-0.64-0.39c-2.04,0.19-4.07,0.42-6.11,0.47
					c-1.63,0.04-3.27-0.04-4.72-1.02c-1.26-0.85-1.85-2.24-1.49-3.72c0.18-0.76,0.32-1.54,0.45-2.18c-0.54-0.4-1.01-0.68-1.39-1.06
					c-0.53-0.51-0.65-1.16-0.4-1.87c0.05-0.13,0.05-0.35-0.02-0.44c-0.43-0.53-0.43-1.15-0.38-1.77c0.04-0.56,0.14-1.12,0.16-1.69
					c0.03-0.64-0.23-0.84-0.83-1.09c-0.63-0.25-1.27-0.57-1.77-1.02c-0.77-0.69-0.88-1.55-0.39-2.46c0.31-0.59,0.73-1.14,1.15-1.67
					c0.62-0.78,1.26-1.54,1.93-2.28c1.41-1.56,1.77-3.44,1.66-5.46c-0.08-1.37-0.25-2.73-0.27-4.1c-0.03-2.11,0.59-4.09,1.44-5.99
					c3.2-7.17,8.79-11.42,16.33-13.23c2.31-0.56,4.67-0.79,7.05-0.63c0.11,0.01,0.22-0.04,0.33-0.05
					C110.2,74.44,111.43,74.61,112.66,74.79z M120.57,132.42c-0.09-0.28-0.16-0.48-0.22-0.67c-1.01-2.96-1.63-6.01-2-9.12
					c-0.19-1.58,0.08-2.97,1.16-4.19c0.48-0.55,0.87-1.18,1.31-1.77c1.69-2.31,3.14-4.77,4.34-7.37c1.66-3.61,2.88-7.35,3.02-11.37
					c0.13-3.63-0.42-7.12-1.9-10.44c-1.18-2.64-2.86-4.94-5.18-6.67c-4.58-3.4-9.76-4.94-15.47-4.5c-5.74,0.44-10.8,2.5-14.77,6.78
					c-2.71,2.92-4.51,6.33-5.03,10.33c-0.08,0.62-0.05,1.25-0.07,1.93c0.67-0.29,1.21-0.57,1.77-0.76c1.45-0.49,2.91-0.81,4.39-0.11
					c0.17,0.08,0.35,0.17,0.46,0.31c0.29,0.35,0.37,0.74,0.1,1.14c-0.33,0.49-0.8,0.55-1.3,0.36c-0.72-0.28-1.43-0.33-2.15-0.08
					c-0.85,0.3-1.67,0.66-2.51,0.99c-0.41,0.16-0.52,0.45-0.48,0.89c0.21,2.48-0.29,4.75-1.95,6.69c-0.77,0.9-1.52,1.82-2.28,2.73
					c-0.21,0.26-0.41,0.54-0.6,0.82c-0.22,0.31-0.2,0.56,0.2,0.7c0.37,0.13,0.74,0.26,1.11,0.4c1.22,0.47,1.94,1.69,1.8,3.02
					c-0.07,0.64-0.18,1.29-0.27,1.92c0.74,0.2,1.54,0.09,1.75,0.92c0.26,1-0.68,1.14-1.31,1.54c0.3,0.15,0.51,0.27,0.73,0.37
					c0.71,0.31,1.1,0.85,1.08,1.63c-0.01,0.52-0.09,1.05-0.17,1.56c-0.08,0.48-0.19,0.96-0.29,1.44c-0.15,0.7,0.09,1.28,0.72,1.55
					c0.7,0.3,1.45,0.61,2.19,0.63c1.74,0.05,3.5,0.03,5.23-0.14c2.85-0.27,5.66-0.79,8.28-2.04c0.71-0.34,1.34-0.83,1.99-1.27
					c0.54-0.36,1.05-0.34,1.41,0.09c0.37,0.44,0.32,0.94-0.17,1.4c-0.22,0.21-0.46,0.4-0.7,0.57c-1.37,0.97-2.94,1.51-4.52,2.01
					c-0.51,0.16-1.03,0.29-1.47,0.42c0.22,1.29,0.5,2.5,0.62,3.73c0.06,0.59,0.27,0.72,0.79,0.79c6.25,0.86,12.51,1.74,18.76,2.62
					C119.46,132.26,119.97,132.33,120.57,132.42z" />
					<path class="st2" d="M102.4,98.7c-0.71-0.1-1.42-0.19-2.13-0.3c-0.3-0.05-0.47,0.02-0.65,0.27c-1.03,1.42-2.92,1.65-4.22,0.55
					c-1.3-1.09-1.38-3.01-0.17-4.26c0.23-0.24,0.28-0.44,0.2-0.74c-0.28-1.03-0.52-2.08-0.81-3.11c-0.06-0.22-0.24-0.46-0.43-0.58
					c-1.07-0.67-1.66-1.87-1.45-3.02c0.23-1.22,1.17-2.14,2.43-2.38c0.16-0.03,0.35-0.07,0.45-0.18c0.64-0.61,1.26-1.24,1.87-1.89
					c0.1-0.1,0.11-0.34,0.08-0.5c-0.29-1.38,0.26-2.66,1.4-3.28c1.2-0.65,2.52-0.42,3.56,0.61c0.14,0.14,0.38,0.24,0.57,0.23
					c1.03-0.04,2.06-0.1,3.09-0.19c0.2-0.02,0.45-0.15,0.57-0.31c0.71-1.03,1.68-1.53,2.9-1.35c1.22,0.18,2.01,0.94,2.38,2.14
					c0.05,0.18,0.24,0.37,0.41,0.46c0.35,0.18,0.73,0.29,1.09,0.45c0.7,0.3,1.3,0.55,2.14,0.11c1.05-0.55,2.16-0.2,2.99,0.66
					c0.83,0.85,1.09,1.88,0.64,3.01c-0.13,0.32-0.08,0.52,0.16,0.73c0.1,0.08,0.19,0.18,0.27,0.29c0.43,0.63,0.91,0.92,1.77,0.72
					c1.08-0.25,2.25,0.52,2.76,1.56c0.54,1.09,0.38,2.38-0.47,3.24c-0.28,0.28-0.31,0.49-0.17,0.83c0.15,0.36,0.27,0.74,0.38,1.12
					c0.23,0.8,0.55,1.44,1.3,1.97c1.35,0.94,1.41,2.94,0.29,4.15c-1.14,1.22-3.08,1.25-4.22,0.01c-0.28-0.3-0.5-0.36-0.86-0.24
					c-0.32,0.11-0.66,0.16-0.98,0.25c-0.55,0.15-0.73,0.56-0.48,1.05c0.21,0.4,0.42,0.8,0.63,1.2c0.35,0.66,0.69,1.25,1.41,1.67
					c1.31,0.78,1.58,2.61,0.73,3.89c-0.85,1.3-2.54,1.69-3.87,0.87c-0.31-0.19-0.53-0.18-0.82,0.01c-0.38,0.25-0.77,0.47-1.16,0.7
					c-0.57,0.33-1.05,0.69-1.4,1.31c-0.82,1.42-2.78,1.72-4.1,0.74c-1.34-0.99-1.59-2.86-0.51-4.14c0.3-0.36,0.28-0.6,0.09-0.98
					c-0.69-1.4-1.35-2.82-2.01-4.24c-0.14-0.31-0.32-0.44-0.66-0.49c-1.16-0.14-1.93-0.79-2.31-1.88c-0.1-0.29-0.23-0.42-0.54-0.45
					C103.82,98.91,103.11,98.8,102.4,98.7z M118.18,103.32c-0.27-0.51-0.52-0.97-0.75-1.44c-0.13-0.26-0.27-0.32-0.57-0.29
					c-1.37,0.14-2.46-0.51-3.02-1.78c-0.11-0.24-0.21-0.33-0.49-0.3c-0.6,0.07-1.2,0.12-1.8,0.1c-0.73-0.03-1.33,0.11-1.66,0.83
					c-0.07,0.16-0.15,0.39-0.09,0.53c0.71,1.56,1.45,3.1,2.19,4.65c0.06,0.13,0.22,0.29,0.34,0.3c1.1,0.1,1.9,0.64,2.46,1.62
					c0.53-0.31,1.03-0.6,1.52-0.91c0.1-0.07,0.21-0.23,0.2-0.34C116.43,104.97,116.98,104,118.18,103.32z M110.7,83.7
					c0.96,1.27,1.91,2.54,2.86,3.79c0.09,0.11,0.23,0.2,0.36,0.26c0.72,0.31,1.23,0.83,1.57,1.54c0.07,0.16,0.33,0.32,0.49,0.32
					c0.83-0.01,1.65-0.07,2.47-0.14c0.13-0.01,0.32-0.13,0.36-0.25c0.2-0.54,0.39-1.08-0.25-1.52c-0.23-0.16-0.41-0.39-0.57-0.62
					c-0.19-0.26-0.38-0.27-0.68-0.19c-1.67,0.45-3.43-0.64-3.52-2.36c-0.05-0.95-0.43-1.31-1.22-1.51c-0.2-0.05-0.38-0.19-0.58-0.22
					c-0.16-0.02-0.37,0.01-0.49,0.11C111.24,83.14,111,83.41,110.7,83.7z M102.95,91.31c-0.2-0.44-0.36-0.83-0.56-1.21
					c-0.07-0.12-0.26-0.2-0.4-0.23c-1.15-0.18-2.31-0.34-3.46-0.48c-0.14-0.02-0.34,0.04-0.44,0.13c-0.48,0.43-0.94,0.89-1.47,1.4
					c0.2,0.82,0.44,1.76,0.68,2.71c0.13,0.53,0.65,0.76,1.14,0.49c0.33-0.18,0.64-0.39,0.96-0.59
					C100.58,92.78,101.77,92.04,102.95,91.31z M105,92.34c-1.76,1.09-3.47,2.15-5.15,3.19c0.07,0.74,0.45,0.97,1.11,1.03
					c1.03,0.08,2.05,0.27,3.07,0.41c1.14,0.16,1.14,0.16,1.86-0.69c0.09-0.11,0.15-0.31,0.11-0.44
					C105.7,94.69,105.36,93.55,105,92.34z M97.62,85.73c0.28,0.53,0.51,1,0.77,1.44c0.08,0.13,0.26,0.25,0.42,0.28
					c1.15,0.18,2.3,0.34,3.46,0.48c0.15,0.02,0.36-0.06,0.47-0.16c0.24-0.23,0.43-0.51,0.67-0.8c-0.82-0.7-1.64-1.41-2.47-2.11
					c-0.09-0.08-0.23-0.1-0.36-0.13c-0.47-0.09-0.95-0.18-1.42-0.25c-0.11-0.02-0.27-0.01-0.34,0.06
					C98.39,84.95,97.97,85.38,97.62,85.73z M110.93,92.76c-0.3-0.51-0.55-0.97-0.84-1.39c-0.13-0.18-0.34-0.34-0.55-0.43
					c-0.18-0.08-0.42-0.04-0.61-0.1c-0.82-0.29-1.43-0.04-1.87,0.68c-0.08,0.12-0.15,0.31-0.11,0.43c0.3,1.12,0.63,2.24,0.96,3.36
					c0.11,0.37,0.57,0.48,0.82,0.19C109.48,94.57,110.23,93.63,110.93,92.76z M102.67,83.77c0.86,0.74,1.74,1.49,2.64,2.26
					c0.72-0.9,1.4-1.74,2.04-2.53c-0.31-0.51-0.56-0.96-0.85-1.39c-0.07-0.1-0.26-0.17-0.4-0.16c-0.82,0.03-1.65,0.07-2.47,0.14
					c-0.14,0.01-0.31,0.15-0.38,0.28C103.05,82.8,102.88,83.26,102.67,83.77z M119.51,91.52c-0.17-0.06-0.24-0.11-0.31-0.11
					c-1.16,0.06-2.32,0.12-3.48,0.2c-0.13,0.01-0.29,0.09-0.37,0.19c-0.3,0.35-0.58,0.72-0.9,1.12c0.86,0.91,1.75,1.84,2.66,2.81
					C117.92,94.31,118.7,92.94,119.51,91.52z M107.06,86.98c0.23,0.35,0.51,0.61,0.58,0.92c0.2,0.9,0.85,1.01,1.58,1.04
					c0.24,0.01,0.48,0.09,0.73,0.09c0.14,0,0.31-0.07,0.41-0.17c0.33-0.32,0.63-0.67,0.89-0.94c-0.8-1.05-1.59-2.11-2.39-3.17
					C108.28,85.47,107.65,86.24,107.06,86.98z M112.6,93.81c-0.78,0.97-1.56,1.88-2.26,2.84c-0.12,0.16,0.07,0.58,0.19,0.85
					c0.04,0.1,0.26,0.2,0.4,0.19c0.9-0.04,1.8-0.09,2.69-0.16c0.13-0.01,0.27-0.1,0.36-0.2c0.31-0.35,0.59-0.71,0.91-1.1
					C114.16,95.45,113.4,94.65,112.6,93.81z M119.32,97.73c0.73-0.06,1.44-0.18,1.51-1.16c0.01-0.08,0.08-0.18,0.14-0.24
					c0.45-0.47,0.9-0.93,1.42-1.45c-0.18-0.55-0.4-1.23-0.64-1.9c-0.06-0.15-0.22-0.38-0.32-0.38c-0.16,0.01-0.36,0.16-0.45,0.31
					c-0.58,0.99-1.1,2.01-1.72,2.97C118.83,96.53,118.65,97.1,119.32,97.73z M95.72,87.06c-0.51-0.06-0.96,0.3-1.02,0.82
					c-0.07,0.52,0.27,0.98,0.78,1.05c0.53,0.08,1-0.3,1.06-0.84C96.59,87.59,96.22,87.12,95.72,87.06z M98.22,97.13
					c0.06-0.48-0.33-1-0.8-1.07c-0.48-0.07-1,0.31-1.08,0.79c-0.08,0.49,0.33,1.04,0.83,1.1C97.65,98,98.16,97.61,98.22,97.13z
					 M108.72,98.63c0.08-0.48-0.29-1-0.77-1.09c-0.47-0.09-1,0.28-1.09,0.76c-0.1,0.49,0.29,1.05,0.79,1.12
					C108.12,99.49,108.64,99.11,108.72,98.63z M112.68,91.35c0.48,0.07,1-0.31,1.07-0.79c0.08-0.5-0.33-1.03-0.84-1.09
					c-0.49-0.05-0.99,0.34-1.05,0.82C111.81,90.77,112.21,91.28,112.68,91.35z M112.32,107.9c-0.48-0.07-1,0.3-1.08,0.78
					c-0.08,0.48,0.29,0.99,0.78,1.08c0.51,0.09,1.04-0.3,1.11-0.8C113.19,108.47,112.81,107.97,112.32,107.9z M121.82,88.77
					c-0.48-0.08-0.99,0.3-1.06,0.79c-0.08,0.49,0.27,0.99,0.76,1.09c0.5,0.09,1.04-0.3,1.1-0.81
					C122.68,89.34,122.3,88.84,121.82,88.77z M119.55,105.01c-0.48-0.08-0.99,0.29-1.07,0.78c-0.09,0.51,0.3,1.03,0.81,1.1
					c0.49,0.06,0.98-0.32,1.05-0.81C120.4,105.59,120.03,105.09,119.55,105.01z M101.29,81.98c0.07-0.53-0.25-0.96-0.77-1.04
					c-0.53-0.08-0.97,0.24-1.06,0.76c-0.09,0.54,0.25,1,0.8,1.07C100.78,82.84,101.21,82.5,101.29,81.98z M106.1,89.45
					c0.06-0.5-0.31-0.98-0.81-1.05c-0.49-0.06-0.98,0.3-1.05,0.8c-0.08,0.51,0.32,1.03,0.83,1.08
					C105.57,90.33,106.04,89.95,106.1,89.45z M116.48,85.04c0.52,0.08,0.97-0.24,1.05-0.76c0.09-0.53-0.22-0.97-0.74-1.06
					c-0.55-0.1-1.01,0.24-1.09,0.78C115.63,84.52,115.96,84.96,116.48,85.04z M109.39,80.23c-0.52-0.08-0.97,0.23-1.06,0.75
					c-0.09,0.52,0.23,0.98,0.73,1.08c0.54,0.1,1.02-0.24,1.1-0.77C110.24,80.76,109.91,80.32,109.39,80.23z M124.39,97.88
					c0.08-0.52-0.25-0.97-0.77-1.05c-0.52-0.08-0.97,0.24-1.06,0.76c-0.09,0.54,0.26,1.01,0.8,1.08
					C123.88,98.74,124.32,98.41,124.39,97.88z M117.44,98.83c0.06-0.52-0.29-0.96-0.82-1.02c-0.53-0.06-0.96,0.29-1.03,0.82
					c-0.06,0.52,0.29,0.96,0.82,1.02C116.94,99.71,117.38,99.36,117.44,98.83z" />
				</g>
			</g>
		</g>
	</g>
</svg>
