<svg xmlns="http://www.w3.org/2000/svg" width="240" height="148" viewBox="0 0 240 148">
    <g fill="none" fill-rule="evenodd">
        <g fill-rule="nonzero">
            <g>
                <g>
                    <path fill="#1C4CA4" d="M239.941 97.19c.183-2.921-1.308-5.694-3.848-7.16L83.809 2.17c-4.77-2.755-10.652-2.755-15.422 0L4.113 39.213c-2.54 1.467-4.03 4.24-3.849 7.162V51.2c-.055 2.797 1.42 5.402 3.849 6.8l152.313 87.862c4.77 2.755 10.652 2.755 15.422 0l64.245-37.074c2.476-1.408 3.96-4.075 3.848-6.916v-4.68zM79.644 64.333c.546-4.455 3.23-8.455 7.734-11.659l-6.612 19.185c-1.028-2.368-1.415-4.963-1.122-7.526zm7.896-11.776c2.007-1.384 4.159-2.545 6.418-3.464l.091-.035-1.377 3.953c-5.244 3.075-8.364 7.175-8.951 11.82-.35 2.854.294 5.744 1.85 8.534l-1.383 3.971c-1.376-1.597-2.508-3.387-3.36-5.313l6.712-19.466zm63.636 2.312c.727.47 1.43.958 2.107 1.466 2.574 1.844 4.852 4.067 6.756 6.594L132.984 47.3c4.795 1.135 9.439 2.83 13.836 5.05l4.356 2.517zM79.42 91.382l4.994-.586-.92 2.67-2.82.328-1.744-1.005.49-1.407zm-.587 1.348l-1.845-1.064 2.312-.27-.467 1.334zm5.02-27.888c.573-4.675 3.787-8.675 8.763-11.638l-6.986 20.01c-1.51-2.74-2.13-5.57-1.786-8.372h.01zm8.919-11.723c1.76-1.02 3.61-1.878 5.525-2.565l-1.762 5.08c-4.145 2.534-6.816 5.925-7.3 9.876-.166 1.442-.043 2.902.361 4.296-.905.939-1.488 2.14-1.666 3.43-.073.61-.046 1.23.08 1.834-.167.341-.297.699-.39 1.066-.711-.873-1.348-1.803-1.904-2.78l7.056-20.237zm36.481 40.537c-3.533.075-7.067-.103-10.575-.533-.587-.073-1.175-.152-1.762-.238l14.394-1.679c1.854-.127 3.66-.338 5.42-.633l14.494-1.694c-.656.317-1.331.624-2.033.915-2.567 1.05-5.22 1.872-7.932 2.458l-12.006 1.404zm10.737-1.137c-3.075.596-6.19.96-9.32 1.087l9.32-1.087zM87.678 76.4c.385.466.799.93 1.237 1.386l-.747 2.166c-.484-.966-.679-2.05-.56-3.124.002-.15.026-.293.055-.434l.015.006zm1.692-10.878c.473-3.88 3.078-7.216 7.124-9.722L92.38 67.734c-.998.512-1.907 1.18-2.69 1.981-.386-1.364-.5-2.791-.336-4.2l.015.007zm67.975-.147c.792 1.345 1.377 2.802 1.737 4.32l-7.007-4.047c-1.345-2.237-3.384-4.397-6.063-6.369-3.613-2.67-8.12-4.806-13.14-6.28-1.794-1.644-4.312-3.051-7.29-4.021-.438-.293-.902-.569-1.39-.83 1.551.196 3.072.434 4.562.715l28.591 16.512zm-28.168-16.412c13.143 2.614 23.65 8.868 28.027 16.186l-28.027-16.186zm2.2 42.138c-4.134.277-8.284.16-12.396-.346-1.593-.194-3.158-.449-4.7-.748l36.161-4.223c-1.288.75-2.625 1.411-4.004 1.979-3.133 1.269-6.4 2.18-9.738 2.713l-5.323.625zm-24.813-3.086c2.364-.045 4.705-.478 6.93-1.281.567.13 1.14.253 1.718.366l-8.428.985c-.088-.041-.15-.062-.235-.088l.015.018zm-.062.105l-5.34.621c-2.098-.832-4.142-1.791-6.123-2.872 2.33.998 4.791 1.654 7.31 1.95 1.124.137 2.256.206 3.39.207h.457l.306.094zM90.974 72.124c.643-.405 1.32-.754 2.024-1.043.25-.103.505-.196.76-.293-.05.226-.093.454-.123.686-.426 3.487 1.907 6.948 5.934 9.61-3.995-2.456-7.032-5.396-8.74-8.546l.145-.414zm-.22.279l-.05-.1.111-.079-.062.179zm2.681-6.39c.294-2.388 1.505-4.583 3.526-6.464-.074.28-.13.565-.168.853-.203 1.664.218 3.352 1.199 4.982-.365.234-.702.48-1.026.735-1.131.23-2.24.562-3.31.994l-.294.126c-.002-.41.023-.819.073-1.225zm5.582-9.85c.225.397.482.774.767 1.13-.925.551-1.797 1.186-2.606 1.895.375-1.134 1.005-2.169 1.842-3.024h-.003zm11.73-10.79c.387 0 .778-.026 1.175-.026 1.132 0 2.263.07 3.387.208.81.1 1.602.23 2.373.392l3.038 1.759c-7.723-.542-15.12.27-21.371 2.344 1.639-2.315 5.079-3.947 9.347-4.498.676-.069 1.36-.128 2.05-.179zm2.309-.117c.802-.03 1.61-.047 2.426-.047h.931l.952.548c-.667-.132-1.348-.243-2.056-.328-.744-.085-1.513-.144-2.256-.173h.003zm12.117 3.593c-1.21-.375-2.445-.669-3.695-.88l-.209-.12c.881.068 1.742.15 2.62.252.443.245.87.494 1.281.748h.003zm38.333 25.705c-.158 1.271-.491 2.515-.99 3.696.144-.378.242-.772.293-1.173.28-2.295-.949-4.636-3.469-6.64-.025-.159-.055-.317-.088-.475l4.348 2.508c.02.696-.013 1.393-.097 2.084h.003zm-69.753-3.045c.033-.253.08-.505.14-.753l.048-.015c2.2 5.756 9.468 10.92 19.053 13.449-1.393.34-2.814.551-4.245.633-9.203-2.224-15.68-7.746-14.996-13.314zm8.624-15.416c.218-.096.438-.19.661-.293 5.688-2.344 12.961-3.15 20.481-2.236 2.187.266 4.354.677 6.486 1.231.108.536.13 1.086.065 1.63-.16 1.173-.683 2.268-1.495 3.133-3.16.081-6.28.716-9.218 1.875-.77.319-1.515.69-2.233 1.11-.488-.078-.975-.151-1.469-.213-2.601-.324-5.232-.353-7.84-.085-1.057-.351-2.086-.781-3.079-1.287-1.495-1.535-2.309-3.209-2.359-4.88v.015zm2.04 4.722c-.77-.404-1.509-.864-2.21-1.378-.832-.604-1.586-1.309-2.244-2.098.744-.438 1.51-.836 2.297-1.193.062 1.589.802 3.177 2.156 4.654v.015zm-2.004-5.545c.084-.652.283-1.284.587-1.867.294-.138.588-.272.9-.401 3.013-1.252 6.641-1.897 10.507-1.897 1.473.002 2.944.092 4.406.27 3.817.432 7.528 1.53 10.963 3.244-2.047-.52-4.125-.912-6.222-1.172-7.54-.92-14.834-.123-20.54 2.242-.208.085-.413.176-.616.267-.011-.234-.006-.468.015-.7v.014zm14.209-7.576c1.193.001 2.385.075 3.569.22.408.05.808.108 1.204.173l6.375 3.68c-1.293-.248-2.609-.46-3.942-.62-7.485-.915-14.559-.308-20.34 1.444.96-1.345 2.523-2.497 4.6-3.358 2.438-1.014 5.382-1.539 8.534-1.539zm3.32.073c.34.02.684.047 1.024.074l.141.079c-.293-.044-.587-.085-.901-.123l-.265-.03zm9.156 4.769c.406.63.704 1.323.88 2.051-3.49-1.77-7.27-2.9-11.162-3.335-2.124-.263-4.267-.334-6.404-.211 3.797-.319 7.617-.243 11.398.226 1.445.175 2.87.41 4.268.685l1.02.584zm-.611-.51l.311.067.138.193-.45-.26zm12.875 7.587c.517.337 1.025.677 1.507 1.035 1.124.827 2.17 1.753 3.129 2.766-2.947-1.588-6.13-2.693-9.427-3.273-.242-.37-.505-.725-.787-1.064.064-.855-.06-1.713-.362-2.515 1.093.444 2.143.925 3.15 1.442l2.79 1.61zm-13.968 26.048c-1.783.064-3.568.031-5.347-.1 3.08-.471 5.8-1.389 7.932-2.655.493.082.99.156 1.492.217l.309.032c1.261.563 2.567 1.022 3.904 1.372-.5.123-1.014.237-1.534.343l-6.756.791zm4.753-.436c-.852.127-1.723.224-2.612.293l2.612-.293zm-14.982-22.567c1.099.179 2.165.408 3.196.674-1.517.233-3.053.326-4.588.279.437-.346.897-.663 1.375-.95l.017-.003zm-1.595.938c-.81-.027-1.63-.09-2.456-.19-1.705-.206-3.386-.57-5.023-1.09 2.512-.235 5.043-.197 7.547.114.45.055.881.12 1.336.19-.488.295-.958.62-1.404.976zm14.562-8.792l.058.015c.93.497 1.823 1.06 2.674 1.682 1.034.751 1.975 1.623 2.802 2.596 0 .065 0 .13-.015.19-.027.222-.069.442-.126.657-.4-.061-.802-.12-1.207-.167-1.851-.227-3.718-.31-5.582-.249.787-.868 1.293-1.953 1.452-3.112.061-.531.043-1.069-.053-1.594l-.003-.018zm5.549 4.13c-.817-.945-1.74-1.792-2.75-2.527-.72-.534-1.473-1.023-2.253-1.465 1.559.426 3.093.939 4.594 1.535.314.786.453 1.63.409 2.474v-.018zm6.269 7.484c2.468.291 4.886.912 7.188 1.847.558 1.462.754 3.038.573 4.592-.52 4.255-3.978 7.76-9.174 10.026-2.712-.88-5.02-2.163-6.692-3.646.51-.841.838-1.78.963-2.755.206-1.688-.238-3.367-1.201-4.956 1.962-1.263 3.313-2.807 3.963-4.54.96-.308 1.942-.544 2.937-.705.497.052.964.096 1.443.155v-.018zm-.929-.217c2.29-.309 4.609-.32 6.9-.032l.221.03c.369.611.684 1.254.943 1.92-2.283-.92-4.679-1.53-7.124-1.818-.314-.02-.628-.053-.94-.067V66.2zm12.926 4.848c2.435 1.98 3.774 4.367 3.48 6.76-.22 1.803-1.333 3.418-3.192 4.69l-7.9.923c4.442-2.637 7.098-6.113 7.582-10.064.086-.761.09-1.53.012-2.292l.018-.017zm-.147 2.303c-.488 3.98-3.208 7.491-7.755 10.111l-2.236.261c-.992-.19-1.973-.435-2.938-.736 1.905-.286 3.77-.795 5.555-1.515 4.166-1.729 6.672-4.396 7.05-7.523.136-1.23-.044-2.473-.522-3.613.293.205.587.419.858.636.084.797.078 1.601-.018 2.397l.006-.018zm-8.017 10.258c-.206.114-.411.228-.626.337-.323-.044-.646-.097-.963-.153l1.59-.184zm-26.359-4.329c.294.17.588.337.905.498-.27.4-.58.772-.922 1.111 0-.067.023-.138.032-.205.053-.46.046-.925-.02-1.383l.005-.02zm-.026-.152c-.265-1.56-1.199-3.098-2.738-4.499 1.23.129 2.465.194 3.701.196.22 0 .438 0 .658-.014.27.794.36 1.638.262 2.47-.11.856-.41 1.675-.881 2.398-.353-.159-.685-.343-1.008-.53l.006-.021zm-3.443-4.575l.508.056c1.557 1.38 2.512 2.901 2.8 4.437-.638-.374-1.256-.78-1.851-1.22-1.381-.984-2.583-2.199-3.552-3.59.685.147 1.381.252 2.09.337l.005-.02zm-2.189-.454c-.387-.595-.705-1.232-.945-1.9.925.457 1.81.991 2.643 1.598.294.223.588.448.846.677l-.337-.035c-.743-.077-1.48-.183-2.212-.32l.005-.02zm7.638 3.197c.1-.838.01-1.688-.258-2.488.979-.02 1.944-.084 2.896-.194.08 2.257 1.513 4.514 4.113 6.448.72.526 1.477 1 2.265 1.418-.153.1-.312.194-.47.293-3.293-.513-6.484-1.536-9.46-3.033.479-.73.787-1.558.902-2.423l.012-.021zm2.788-3.54c.294-2.497 2.318-4.637 5.667-6.023l.035-.014c.899.67 1.725 1.434 2.464 2.277-.724.784-1.222 1.75-1.439 2.796l-.044.02c-2.152.864-4.412 1.428-6.718 1.676-.008-.237 0-.475.023-.712l.012-.02zm9.256-2.248c-.769.482-1.575.902-2.412 1.254.222-.99.7-1.906 1.387-2.655.375.442.718.91 1.025 1.4zm-.949-1.486c1.14-1.251 2.844-2.265 4.927-2.963-.652 1.67-1.977 3.165-3.88 4.396-.313-.505-.662-.986-1.047-1.439v.006zm-1.536 3.165c0-.097.032-.19.05-.293.867-.361 1.702-.793 2.497-1.292.949 1.565 1.384 3.223 1.175 4.882-.121.952-.44 1.868-.934 2.69-1.977-1.805-3.029-3.888-2.788-5.993v.006zm-.08-.231c0 .073-.026.143-.035.217-.264 2.148.826 4.284 2.853 6.107-.814 1.268-1.896 2.342-3.17 3.148-.803-.423-1.574-.905-2.306-1.442-2.585-1.908-4.004-4.135-4.077-6.357 2.312-.248 4.578-.813 6.736-1.68v.007zm-.352 9.606c.294.153.588.294.902.443-.44-.053-.881-.117-1.31-.188.138-.087.276-.172.408-.26v.005zm.112-.076c1.26-.806 2.331-1.872 3.143-3.127 1.657 1.466 3.928 2.726 6.586 3.614-2.842.384-5.72.41-8.569.073-.396-.182-.787-.37-1.16-.566v.006zm5.226.915c1.375.001 2.748-.085 4.112-.258-1.32.535-2.675.979-4.056 1.327-1.283-.323-2.539-.748-3.755-1.269 1.229.13 2.463.194 3.699.194v.006zm17.49-9.443c-.376 3.08-2.855 5.718-6.983 7.43-1.788.723-3.657 1.233-5.566 1.517 5.105-2.283 8.501-5.779 9.018-10.014.18-1.534-.006-3.09-.54-4.54 1.218.505 2.385 1.126 3.484 1.856.528 1.173.73 2.467.587 3.745v.006zm-15.745-7.08c.075-.212.14-.427.194-.645h.57c.549 0 1.104.017 1.662.05-.82.144-1.63.341-2.426.589v.005zm-.138.043c-2.136.707-3.884 1.738-5.053 3.016-.728-.826-1.538-1.577-2.418-2.239 2.454-.938 5.055-1.434 7.682-1.465-.058.23-.127.459-.208.683l-.003.005zm-7.58.692c-.683-.513-1.398-.984-2.138-1.413.774-.203 1.533-.456 2.274-.759 3.037-1.26 4.994-3.135 5.581-5.34.294.048.588.097.881.15 1.087 1.676 1.552 3.429 1.34 5.158-.03.237-.073.472-.13.704-2.67.027-5.315.533-7.807 1.494v.006zm5.747-7.62c.055-.218.097-.439.126-.662v-.07c.232.293.443.586.637.858l-.763-.126zm-5.732-.343c1.473 0 2.945.09 4.407.27.391.05.783.106 1.175.167-.588 2.163-2.512 4.01-5.508 5.252-.77.315-1.562.579-2.368.788-2.117-1.191-4.375-2.115-6.721-2.752 1.308-.23 2.588-.597 3.819-1.096 1.482-.572 2.82-1.46 3.921-2.602.418-.027.844-.038 1.275-.038v.011zm-5.246 2.52c-1.297.526-2.65.905-4.03 1.132-1.073-.293-2.186-.53-3.332-.724.677-.39 1.378-.734 2.1-1.032 2.89-1.143 5.958-1.774 9.066-1.866-1.079 1.084-2.375 1.93-3.804 2.479v.012zm-8.14 1.583c1.373.003 2.743-.109 4.098-.334 2.385.629 4.683 1.552 6.838 2.75-3.135.743-6.38.91-9.576.489-1.433-.175-2.85-.454-4.242-.836.549-.787 1.211-1.49 1.965-2.083.306-.003.611.003.917.003v.011zm1.345 3.022c1.19.145 2.386.218 3.584.22 2.074.005 4.14-.25 6.148-.762.752.429 1.477.904 2.171 1.421-3.37 1.404-5.399 3.573-5.71 6.105-.028.253-.04.507-.036.762-.953.11-1.933.175-2.937.196-.984-2.857-4.075-5.483-8.334-7.183.203-.573.476-1.118.814-1.624 1.41.391 2.847.676 4.3.853v.012zm3.105 7.957c-1.49.024-2.982-.045-4.465-.205-.294-.27-.634-.537-.984-.795-.87-.635-1.797-1.19-2.767-1.661-.344-.996-.46-2.055-.338-3.101.054-.447.152-.888.294-1.316 4.218 1.67 7.276 4.258 8.26 7.078zm-8.671-5.786c-.123 1.023-.023 2.06.293 3.04-2.532-1.186-5.24-1.955-8.02-2.278-.792-.096-1.583-.16-2.35-.19-.102-.073-.208-.144-.308-.22-1.31-.93-2.46-2.063-3.407-3.358 1.232-.177 2.476-.265 3.722-.264 1.193.001 2.384.075 3.569.22 2.333.277 4.622.847 6.812 1.697-.15.44-.254.893-.311 1.353zm-7.756.88c2.815.32 5.556 1.103 8.114 2.318.237.683.554 1.336.943 1.946-4.307-.809-8.208-2.345-11.225-4.443.729.032 1.44.102 2.168.179zm9.142 4.396c.985 1.449 2.22 2.713 3.646 3.733.61.449 1.263.88 1.947 1.278.081.485.092.978.033 1.466-.015.12-.036.243-.06.36-1.064.974-2.3 1.744-3.645 2.271-.777.32-1.575.585-2.388.795-9.647-2.503-16.973-7.667-19.17-13.426 2.288-.737 4.68-1.1 7.085-1.076.34 0 .681 0 1.025.021 3.076 2.157 7.091 3.763 11.521 4.58l.006-.002zm1.965 9.205c1.303-.515 2.506-1.25 3.558-2.175-.332 1.384-1.225 2.609-2.544 3.62-1.099-.196-2.176-.429-3.232-.7.755-.2 1.496-.448 2.218-.742v-.003zm.882 1.539c-.392.288-.802.55-1.228.785-.826-.044-1.66-.114-2.506-.217-1.231-.15-2.454-.364-3.663-.639 1.374-.101 2.736-.324 4.071-.665 1.083.283 2.193.53 3.329.739l-.003-.003zm.15.029c.957.173 1.932.322 2.937.442.455.056.908.103 1.36.147-1.81.206-3.633.265-5.452.176.401-.233.788-.49 1.157-.77l-.003.005zm2.937.328c-.952-.117-1.889-.259-2.811-.425 1.354-1.058 2.259-2.344 2.552-3.792.398-.38.754-.801 1.06-1.257 2.949 1.484 6.109 2.505 9.369 3.027-2.22 1.29-5.07 2.204-8.287 2.638-.62-.05-1.248-.112-1.88-.188l-.003-.003zm16.28-.741l.214.052-.848.1.634-.152zm.232-.062c1.46-.376 2.891-.858 4.28-1.445l.203-.029c.921.298 1.859.545 2.808.739l-6.968.814-.323-.079zm7.661-.662c.385.073.776.14 1.175.2-.691.355-1.417.69-2.176 1.007-.247.103-.503.197-.755.293-.788-.032-1.587-.093-2.389-.193-.972-.117-1.924-.293-2.852-.49l6.997-.817zm-.96 1.316c.818-.34 1.602-.703 2.35-1.088l.543.074c1.125.137 2.257.207 3.39.208.444 0 .881 0 1.313-.032-2.614.797-5.344 1.147-8.075 1.034.153-.061.32-.126.482-.193l-.003-.003zm6.277-.923c-1.13-.001-2.261-.07-3.384-.209l-.382-.05c.247-.131.488-.266.723-.4l7.95-.93c-.718.462-1.477.854-2.269 1.172-.293.123-.605.238-.92.35-.557.049-1.13.07-1.715.07l-.003-.003zm2.682-.294c.868-.352 1.696-.795 2.47-1.321l.444-.05c-.487.463-1.01.914-1.568 1.348-.614.1-1.243.179-1.892.232.188-.056.373-.135.55-.209h-.004zm3.108-1.395l3.757-.44c-1.654.87-3.44 1.465-5.287 1.76.55-.423 1.061-.862 1.533-1.32h-.003zm.138-.134c2.497-2.46 3.998-5.296 4.377-8.37.14-1.152.12-2.318-.058-3.464 2.42 1.96 3.595 4.234 3.325 6.447-.244 1.984-1.625 3.678-3.76 4.924l-3.884.463zm4.26-8.385c-.38 3.092-1.91 5.943-4.454 8.408l-.376.044c1.78-1.28 2.844-2.875 3.064-4.654.294-2.465-1.092-4.915-3.616-6.934-.143-1.259-.482-2.488-1.004-3.643 2.116.65 4.112 1.64 5.91 2.931.135.1.264.202.394.293.198 1.175.226 2.372.085 3.555h-.003zm-5.511-3.224c-.294-.228-.588-.454-.925-.674-.607-1.33-1.464-2.533-2.524-3.543.833.176 1.64.386 2.424.63.523 1.131.87 2.336 1.028 3.573l-.003.014zm-1.102-.791c-1.094-.716-2.252-1.33-3.46-1.832-.256-.68-.57-1.337-.94-1.963.625.086 1.24.188 1.845.307 1.06.99 1.928 2.168 2.558 3.473l-.003.015zm-4.477-3.907c-.477-.79-1.021-1.537-1.627-2.233.626.375 1.225.768 1.79 1.172.555.412 1.087.855 1.591 1.328-.574-.104-1.157-.197-1.75-.281l-.004.014zm-.15-.02l-.132-.018c-2.461-.31-4.954-.273-7.405.112-.908-.068-1.807-.094-2.688-.077.05-.225.094-.454.123-.685.212-1.724-.243-3.47-1.301-5.14 3.365.596 6.606 1.748 9.591 3.408.673.738 1.277 1.537 1.804 2.385l.009.015zm-12.701-9.672c-.047-.114-.1-.231-.156-.345l1.939 1.12c-.58-.28-1.173-.543-1.78-.79l-.003.015zm-.153-.055c-1.626-.643-3.289-1.19-4.98-1.636l-.132-.073c-.16-.705-.43-1.38-.804-1.999l5.748 3.31c.062.122.118.251.17.383l-.002.015zm-27.478-4.69c-1.33.29-2.63.692-3.89 1.205-.258.109-.508.22-.755.334.09-.161.188-.318.294-.469 1.43-.44 2.883-.802 4.354-1.081l-.003.012zm-.2 10.592c-.382.044-.755.097-1.128.156-.498-.369-.97-.77-1.416-1.2.827.396 1.678.74 2.547 1.033l-.003.011zm.261.091c1.725.566 3.503.959 5.306 1.172.781.097 1.56.156 2.33.188-.731.589-1.372 1.28-1.904 2.051-2.505-.667-4.87-1.771-6.989-3.261.414-.065.834-.115 1.275-.162l-.018.012zm-1.407.2c2.14 1.518 4.535 2.643 7.071 3.323-.332.505-.602 1.048-.805 1.618-4.523-1.74-9.414-2.31-14.218-1.656-.103-.144-.197-.293-.293-.434 2.162-1.375 4.993-2.365 8.225-2.863l.02.011zm-8.08 3.305c-.371.059-.732.12-1.09.194.264-.203.54-.399.83-.587.086.12.17.253.262.381l-.003.012zm.075.112c.955 1.318 2.117 2.473 3.44 3.423l.168.117c-2.703-.119-5.406.238-7.985 1.055 0-.038-.029-.076-.04-.114.463-1.595 1.51-3.037 3.034-4.232.452-.106.913-.19 1.386-.261l-.003.012zm10.35 18.952c1.343.316 2.703.556 4.074.718.783.094 1.557.164 2.32.208-.53.278-1.076.522-1.636.733-1.922-.436-3.818-.981-5.678-1.632.317-.01.62-.02.922-.038l-.002.011zm-1.21-.067c-1.468-.528-2.865-1.107-4.193-1.738 1.627.71 3.312 1.283 5.035 1.712-.276 0-.552.008-.846.014l.003.012zm7.81 1c.617.033 1.227.05 1.83.05 1.461-.001 2.92-.1 4.369-.294 1.383.114 2.746.176 4.083.176h.543l-10.575 1.234c-.646-.123-1.284-.252-1.912-.396.57-.222 1.125-.48 1.662-.77zm12.112-.1c2.24-.084 4.47-.345 6.668-.78l2.35-.272c1.05.244 2.112.433 3.182.565.716.088 1.43.147 2.135.182-6.348 2.383-14.259 3.153-22.428 2.157-1.146-.14-2.27-.312-3.375-.513l11.468-1.34zm15.783-.267c2.595.028 5.177-.376 7.638-1.196.711-.047 1.404-.123 2.074-.228-.73.554-1.49 1.067-2.277 1.538l-16.277 1.902c2.624-.42 5.198-1.108 7.682-2.051.408.03.779.038 1.16.038v-.003zm9.97-1.465c2.023-.304 3.975-.966 5.764-1.955l1.38-.161c-.828 1.053-1.76 2.02-2.781 2.89l-6.604.764c.774-.47 1.522-.982 2.242-1.533v-.005zm6.005-2.099c1.278-.727 2.33-1.79 3.043-3.074-.493 1.039-1.096 2.021-1.8 2.93l-1.243.144zm0-11.632c-.097-.076-.194-.152-.294-.228-1.84-1.314-3.884-2.316-6.051-2.966-.196-.416-.41-.83-.64-1.24l6.891 3.98c.033.156.063.31.088.46l.006-.006zm-6.49-3.238c-.814-.25-1.653-.463-2.517-.639-.548-.525-1.13-1.015-1.742-1.465-.678-.499-1.384-.959-2.115-1.378-1.03-1.123-2.17-2.142-3.401-3.042l-.22-.155 9.3 5.369c.254.44.484.878.69 1.316l.006-.006zm-11.579-7.746c-.7-.44-1.425-.862-2.183-1.26l-3.836-2.216c-.522-1.001-1.213-1.907-2.042-2.675 4.918 1.465 9.33 3.578 12.879 6.198 2.593 1.914 4.58 3.992 5.919 6.154l-10.737-6.2zm-6.204-3.581l-5.775-3.335-.191-.293c1.316.293 2.608.612 3.868.981.843.76 1.55 1.657 2.092 2.653l.006-.006zm-6.07-3.76c-.812-1.078-1.799-2.014-2.92-2.77 2.706.926 5.012 2.219 6.701 3.716-1.236-.348-2.502-.668-3.786-.94l.006-.006zm-.164-.038l-.523-.103-6.406-3.69c1.28.224 2.544.538 3.78.938 1.202.77 2.265 1.737 3.143 2.86l.006-.005zm-7.664-4.218l-2.908-1.682c1.894.421 3.732 1.067 5.473 1.923-.86-.096-1.715-.176-2.565-.24zm-6.85-.038c-2.108.168-4.18.652-6.143 1.436-2.162.897-3.772 2.105-4.735 3.517-1.65.504-3.258 1.14-4.806 1.902-.405-1.482-.136-3.066.737-4.331 4.38-1.469 9.46-2.354 14.944-2.524h.003zM103.203 52.8c-.106.164-.206.332-.294.502-1.431.658-2.736 1.56-3.857 2.666-.224-.414-.401-.853-.529-1.307 1.507-.743 3.071-1.365 4.677-1.86h.003zm-.382.677c-.268.554-.445 1.148-.523 1.759-.03.254-.04.51-.035.765-.814.363-1.605.773-2.37 1.228-.293-.364-.555-.752-.785-1.158 1.078-1.07 2.332-1.947 3.707-2.594h.006zm-2.958 3.91c.667.802 1.431 1.518 2.277 2.13.798.583 1.644 1.1 2.529 1.542.49.502 1.019.965 1.58 1.386-3.199.51-6.004 1.5-8.157 2.866-.967-1.597-1.381-3.256-1.175-4.897.042-.34.112-.678.208-1.008.844-.76 1.76-1.436 2.735-2.02h.003zm-6.169 9.841c.988-.404 2.01-.722 3.052-.952-1.32 1.027-2.31 2.415-2.852 3.994-.318-.935-.496-1.911-.526-2.898l.326-.144zm.144 3.242c-.018.061-.032.123-.047.187-.294.1-.57.205-.843.317-.665.273-1.306.6-1.918.976l1.424-4.142c.256-.134.523-.26.796-.383.04 1.039.24 2.066.594 3.045h-.006zm13.342 14.39c-1.229.005-2.457-.068-3.677-.218-4.445-.542-8.505-2.028-11.428-4.185-1.149-.82-2.143-1.837-2.937-3.004l1.633-4.77c2.72 4.932 8.66 9.336 16.415 12.176h-.006zm-17.41-6.363c-.256-.246-.503-.496-.74-.745l.055-.16c.212.314.443.616.69.905h-.006zm13.718 6.263c1.189.145 2.386.218 3.584.22h.417c1.894.678 3.826 1.246 5.787 1.7-2.267.79-4.65 1.201-7.05 1.218-4.92-1.65-9.348-3.86-13.008-6.53 2.797 1.724 6.39 2.917 10.276 3.392h-.006zm12.088 2.397c1.226.232 2.476.428 3.751.586 2.3.283 4.614.426 6.93.428 1.275 0 2.535-.047 3.772-.135l-16.157 1.885c-2.313-.458-4.598-1.045-6.844-1.759l8.548-1.005zm30.886.697c1.462-.601 2.878-1.31 4.236-2.119l6.689-.782c-1.795 1.488-3.763 2.754-5.86 3.772l-13.044 1.524c2.732-.542 5.406-1.343 7.985-2.395h-.006zm11.139-2.93l22.945-2.682 4.448 2.57-33.121 3.875c2.054-1.02 3.98-2.282 5.734-3.757l-.006-.006zm.159-.138c1.005-.868 1.922-1.833 2.737-2.88l16.186-1.891 3.693 2.13-22.616 2.641zm2.84-3.01c1.633-2.09 2.676-4.579 3.023-7.206.081-.681.114-1.367.097-2.052l12.805 7.391-15.925 1.867zm3.105-9.41c-.047-1.243-.25-2.475-.605-3.667l18.41 10.633-4.77.557-13.035-7.523zm-.117-.07l-4.371-2.521c-.336-1.497-.892-2.936-1.651-4.27l5.396 3.115c.364 1.196.576 2.433.632 3.681l-.006-.006zm-39.39-24.264l-.294-.03c-1.94-.988-4.004-1.712-6.137-2.153l-1.086-.627c2.115.035 4.262.167 6.427.39l5.335 3.082c-1.39-.26-2.809-.486-4.245-.662zm-7.714-2.93l-13.513-7.8.955-2.772 18.947 10.94c-2.139-.213-4.283-.336-6.39-.366V45.1zm-.294 0c-1.824-.021-3.625.038-5.393.158-.711.029-1.405.088-2.08.176-3.075.3-6.12.848-9.107 1.64l3.323-9.638L116.19 45.1zm-9.491.682c-3.452.765-6.17 2.295-7.547 4.329l-.681.234 1.083-3.141c2.352-.633 4.742-1.108 7.156-1.425l-.011.003zM99.04 50.28c-.832 1.281-1.075 2.856-.67 4.329-.587.293-1.148.603-1.688.929l1.736-5.038c.217-.091.426-.15.634-.223l-.012.003zm-.631 4.437c.134.464.319.912.55 1.336-.909.923-1.578 2.051-1.951 3.289-2.118 1.928-3.39 4.19-3.693 6.658-.052.43-.074.863-.065 1.296-.252.114-.499.231-.737.351l4.113-11.948c.575-.343 1.169-.671 1.783-.982zm-6.104 13.188l-1.431 4.153-.23.152c-.385-.755-.698-1.545-.933-2.359.756-.786 1.632-1.447 2.596-1.958l-.002.012zm-1.763 4.37c-1.02.67-1.866 1.575-2.465 2.637-.1-.545-.119-1.102-.053-1.652.17-1.242.725-2.399 1.587-3.31.24.8.556 1.574.943 2.313l-.012.012zm.053.105l.097.182-1.645 4.774c-.442-.684-.76-1.441-.937-2.236.589-1.105 1.448-2.044 2.497-2.731l-.012.011zm-1.586 5.088l-.065.19c-.443-.463-.858-.931-1.246-1.406.084-.34.199-.672.344-.99.195.784.522 1.53.967 2.206zm-.018.41c1.228 1.259 2.558 2.414 3.977 3.453 3.628 2.678 8.023 4.897 12.908 6.564h-.123c-1.132 0-2.264-.07-3.387-.208-3.061-.344-6.033-1.245-8.769-2.658-.768-.457-1.513-.929-2.235-1.415-1.297-.921-2.367-2.124-3.129-3.517l.758-2.219zm1.245 4.953l-.373-.27c-.684-.504-1.336-1.02-1.956-1.541l.27-.78c.532.976 1.23 1.852 2.06 2.591zm-.443-.176c.502.373 1.016.733 1.542 1.088.67.493 1.373.939 2.106 1.333 2.39 1.414 4.884 2.644 7.462 3.678l-16.318 1.908 3.28-9.522c.612.513 1.255 1.02 1.928 1.507v.008zm11.339 6.19c1.778.71 3.62 1.348 5.526 1.917L83.62 93.454l.922-2.67 16.589-1.94zm.247-.03l5.381-.627c2.213.719 4.464 1.314 6.742 1.785l-6.545.762c-1.921-.568-3.78-1.208-5.578-1.92zm12.502 1.223c1.66.33 3.352.606 5.07.814 2.692.333 5.402.5 8.114.502.802 0 1.595-.018 2.385-.047l-12.975 1.515c-3.116-.47-6.198-1.141-9.227-2.01l6.633-.774zm35.348-.135c.81-.336 1.594-.69 2.35-1.064l33.597-3.924 3.176 1.835-46.023 5.377c2.354-.563 4.66-1.306 6.9-2.224zm36.161-5.014l4.771-.557 3.181 1.831-4.767.557-3.185-1.831zm-.167-.097l-4.45-2.57 4.77-.557 4.448 2.57-4.768.557zm-4.618-2.667l-3.69-2.116 4.771-.557 3.69 2.13-4.77.543zm1.301-2.714l5.338-.624 3.698 2.13-5.334.625-3.702-2.13zm-.167-.1l-18.692-10.793c-.59-1.852-1.46-3.602-2.582-5.19l26.609 15.362-5.335.621zM162.894 68.43l-5.47-3.16c-1.57-2.713-4.006-5.325-7.243-7.713-.435-.319-.88-.632-1.337-.94l11.377 6.567c1.159 1.6 2.061 3.37 2.676 5.246h-.003zm-34.037-19.66l-5.411-3.123 1.028.117c2.706.327 5.392.802 8.046 1.421l11.245 6.495c-4.726-2.296-9.74-3.947-14.908-4.91zm-4.368-3.12c-.426-.053-.852-.094-1.278-.141L103.99 34.4l1.06-3.077 27.134 15.668c-2.54-.581-5.11-1.03-7.696-1.343zm-20.616-11.307l-3.799-2.195 1.07-3.072 3.79 2.19-1.061 3.077zm-.044.129l-.955 2.775-3.819-2.2.964-2.77 3.81 2.195zm-1.014 2.904l-3.355 9.733c-1.775.481-3.52 1.068-5.225 1.758l4.782-13.698 3.798 2.207zm-3.399 9.865l-1.075 3.168c-.564.195-1.118.408-1.662.639-1.323.546-2.608 1.176-3.849 1.887l1.366-3.921c1.707-.696 3.454-1.288 5.232-1.773h-.012zM87.56 76.28c-.041.174-.073.35-.097.528-.122 1.134.096 2.28.626 3.29l-.294.839c-1.268-1.07-2.447-2.24-3.525-3.5l1.372-3.938c.564.98 1.21 1.91 1.93 2.781h-.012zm.2 4.777l-3.305 9.619-4.994.586 4.774-13.692c1.085 1.254 2.267 2.42 3.537 3.487h-.012zM83.44 93.592l-.52 1.506-2.089-1.204 2.609-.302zm.13-.018l23.38-2.723c2.981.868 6.016 1.542 9.085 2.02l-30.739 3.593-2.261-1.304.534-1.586zm32.9-.636c.723.112 1.454.211 2.189.293 2.989.366 5.997.55 9.01.551h.43l-39.45 4.61-3.182-1.837 31.003-3.617zm12.75.838c4.062-.076 8.108-.55 12.078-1.412l47.213-5.516 35.545 20.515-53.47 30.878c-3.983 2.286-8.884 2.286-12.867 0l-68.9-39.746 40.4-4.719zm59.523-6.954l4.768-.557 33.565 19.38-2.864 1.65-35.469-20.473zm4.994-.586l5.34-.625 31.345 18.097-3.214 1.856-33.47-19.328zm-.167-.097l-3.182-1.838 5.338-.624 3.181 1.838-5.337.624zm-3.352-1.934l-4.448-2.57 5.338-.622 4.447 2.567-5.337.625zm1.113-3.224l4.24-.495 4.447 2.567-4.236.495-4.45-2.567zm-.167-.1l-3.693-2.13 4.236-.496 3.693 2.131-4.236.495zm-3.863-2.227L160.274 63.05c-1.935-2.623-4.27-4.927-6.92-6.829-.25-.184-.5-.363-.756-.542l38.932 22.487-4.23.487zm-54.677-31.56l-27.54-15.9.846-2.453 39.364 22.722c-4.06-1.892-8.306-3.357-12.67-4.37zM104.98 31.135l-3.792-2.19.855-2.447 3.78 2.184-.843 2.453zm-3.895-2.251l-4.489-2.59.843-2.454 4.495 2.597-.85 2.447zm-.032.129l-1.073 3.071-4.48-2.588 1.061-3.077 4.492 2.594zm-1.117 3.2l-.966 2.77-4.468-2.582.955-2.776 4.48 2.588zm-1.01 2.899l-4.812 13.794-.185.074c-2.217.901-4.332 2.035-6.31 3.382l6.824-19.832 4.483 2.582zM84.159 77.46l-4.815 13.81-2.523.293-2.277-1.299 6.24-18.082c.86 1.913 1.993 3.692 3.363 5.281l.012-.003zm146.408 26.171L199.3 85.576l4.236-.492 29.567 17.08-2.536 1.468zm-31.432-18.144l-3.178-1.837 4.236-.493 3.172 1.832-4.23.498zm1.281-2.344l15.47-1.808 3.184 1.837-15.472 1.805-3.182-1.834zm-.17-.1l-4.448-2.567 15.467-1.808 4.45 2.57-15.47 1.805zm-4.618-2.667l-3.696-2.127 15.46-1.818 3.693 2.131-15.457 1.814zm-3.86-2.227l-40.856-23.595c-1.175-.752-2.414-1.467-3.716-2.145l-41.223-23.798 3.073-8.912 98.18 56.633-15.458 1.817zm-85.898-49.6l-3.783-2.174 3.102-8.891 3.754 2.15-3.073 8.916zm-3.886-2.241l-4.498-2.597 3.07-8.91 4.53 2.612-3.102 8.895zM97.38 23.65l-3.487-2.014 3.075-8.903 3.496 2.007-3.084 8.91zm-.044.132l-.846 2.453-3.487-2.017.846-2.45 3.487 2.014zm-4.436.378L64.157 7.567l2.547-1.465 27.043 15.612-.846 2.447zm-.044.129l-1.064 3.077L60.831 9.49l3.19-1.84 28.836 16.64zm.103.061l3.487 2.025-1.061 3.077-3.487-2.016 1.06-3.086zm2.382 5.22l-.958 2.775-3.49-2.016.958-2.773 3.49 2.014zm-1.002 2.904l-6.897 20.008c-4.606 3.224-7.362 7.303-7.917 11.834-.302 2.628.103 5.288 1.175 7.708l-6.266 18.17-3.507-2.022 19.917-57.72 3.495 2.022zm142.37 61.659c.688 1.18.877 2.586.524 3.906-.353 1.32-1.218 2.445-2.404 3.128l-1.586.917-29.482-17.016 15.47-1.808 15.598 8.997c.778.454 1.425 1.1 1.88 1.876zM69.65 4.396c3.983-2.286 8.884-2.286 12.867 0l14.347 8.276-3.073 8.907L66.839 6.017l2.81-1.621zm-8.954 5.167L91.75 27.496l-.957 2.775-31.288-18.065c-.345-.363-.741-.674-1.175-.923l-.324-.176 2.691-1.544zM5.406 41.469l15.392-8.88 2.879 1.67c3.177 1.847 7.104 1.847 10.281 0L58.34 20.193c.79-.437 1.442-1.086 1.88-1.875 1.075-1.838.897-4.147-.446-5.8l30.974 17.877L70.83 88.13 5.405 50.379c-.778-.454-1.425-1.1-1.88-1.876-1.418-2.462-.578-5.603 1.88-7.034zm230.558 67.096l-64.245 37.073c-4.69 2.708-10.474 2.708-15.164 0L4.242 57.776C1.894 56.423.469 53.904.522 51.199v-3.273c.535 1.962 1.825 3.634 3.59 4.65l152.314 87.863c4.77 2.755 10.652 2.755 15.422 0l64.245-37.073c1.165-.67 2.137-1.63 2.82-2.785.335-.575.594-1.192.77-1.834v3.136c.115 2.747-1.321 5.327-3.72 6.682z" transform="translate(-84 -152) translate(74 132) translate(10 20)"/>
                    <path fill="#CF3819" d="M98.961 56.178c.047.01.095-.001.132-.032 2.756-2.365 6.257-3.903 10.414-4.569 4.835-.747 10.602-.24 16.68 1.466 5.173 1.457 10.124 3.611 14.714 6.403l.408.232c1.545.961 3.052 1.993 4.483 3.071 1.251.961 2.373 1.893 3.337 2.775.027.025.063.039.1.039.04 0 .078-.016.106-.044.03-.031.044-.075.038-.118.004-.042-.01-.085-.038-.117-5.143-5.225-10.94-9.765-17.25-13.507l-.534-.279c-3.909-2.29-8.094-4.072-12.456-5.301-2.716-.71-5.514-1.057-8.322-1.032-2.03.026-4.045.354-5.978.976-2.84.95-4.926 2.588-5.875 4.619-.764 1.635-.784 3.478-.059 5.33.018.044.055.076.1.088zm32.977-4.12c5.037 2.987 9.748 6.489 14.06 10.448l-.033-.024c-1.436-1.081-2.937-2.119-4.509-3.086l-.408-.234c-4.611-2.809-9.584-4.978-14.782-6.448-3.957-1.15-8.052-1.758-12.173-1.808-1.552-.006-3.102.108-4.636.34-3.69.586-6.877 1.861-9.491 3.787 2.05-2.277 4.55-4.106 7.344-5.372 8.774-3.977 17.857-1.146 24.088 2.075.185.117.364.216.54.322zm-32.754-1.172c.917-1.955 2.938-3.54 5.702-4.464 1.905-.612 3.892-.936 5.893-.961 2.78-.023 5.552.32 8.243 1.02 2.833.788 5.59 1.824 8.24 3.098-5.834-2.225-13.052-3.353-20.09-.159-3.17 1.432-5.957 3.588-8.137 6.292-.599-1.566-.545-3.306.15-4.832v.006zM115.385 85.776v-.018c0-.018 0 0 0 0-.006-.027-.02-.05-.038-.07-.021-.02-.048-.032-.076-.036-6.79-.627-11.066-2.265-13.46-3.516-4.134-2.149-6.963-5.232-8.182-8.913-1.016-3.097-.854-6.468.465-9.747l.117-.293c.496-1.193 1.113-2.333 1.839-3.403.634-.945 1.327-1.85 2.074-2.71.057-.059.055-.152-.003-.209-.058-.056-.152-.055-.209.003l-.026.027c-.479.445-7.162 6.758-9.676 13.806-1.175 3.241-1.27 6.184-.32 8.751.963 2.403 3.043 4.103 3.66 4.575 1.59 1.145 3.346 2.04 5.208 2.655 2.693.88 5.511 1.322 8.346 1.307 3.613 0 7.205-.688 10.205-2.051.015-.008.028-.018.04-.03.011-.01.02-.022.027-.035v-.017c.002-.011.002-.022 0-.033l.01-.043zm-19.594-26.19c-.554.816-1.045 1.672-1.468 2.562-.141.293-.276.586-.4.894l-.117.293c-1.349 3.344-1.51 6.785-.473 9.95 1.242 3.757 4.112 6.896 8.325 9.085.135.073.279.147.429.22l.155.076.315.152.2.091.308.141.226.097.33.14.237.097.37.147.235.09.464.17.182.065c.22.079.447.155.679.231l.212.065.517.161.293.085c.159.047.318.094.482.138l.33.088.493.129.35.085.53.126.347.076c.206.047.415.088.626.132l.294.061c.317.062.637.12.97.18l.093.014.832.135c-5.72-.293-17.826-1.56-22.302-7.23-1.669-2.108-2.133-4.657-1.393-7.559 1.745-4.891 5.523-9.434 7.794-11.866-.156.223-.315.451-.465.68zm1.05 26.79c-1.834-.608-3.563-1.49-5.13-2.617-.602-.457-2.629-2.119-3.563-4.446-.708-1.916-.805-4.053-.294-6.377-.116 2.012.519 3.996 1.783 5.568 5.35 6.78 21.315 7.365 24.89 7.421-5.25 2.14-12.09 2.33-17.687.451zM163.062 75.439c-.714-3.734-5.696-7.327-12.702-9.123-.036-.016-.076-.016-.112 0-.047 0-.09.023-.117.061-.033.056-.026.126.017.173 3.27 3.643 3.464 6.369 3.05 8.016-.685 2.875-3.578 5.454-8.373 7.461-4.062 1.68-9.309 2.884-15.178 3.476l-.526.059c-2.015.205-4.145.322-6.333.351l-1.44.018c-1.41 0-2.726 0-3.986-.047h-.03c-.078 0-.144.06-.152.138-.004.08.056.147.135.155.085 0 5.344.42 12.282.42h1.733c4.328-.023 8.652-.268 12.955-.734l.1-.017c5.473-.621 9.92-1.656 13.219-3.072 2.987-1.324 4.286-2.96 4.7-3.598.737-1.098 1.009-2.44.758-3.737zm-18.845 10.108c-5.032.537-10.09.784-15.152.741-2.094 0-4.021-.05-5.684-.105 2-.041 3.948-.155 5.802-.343l.526-.059c5.895-.586 11.162-1.808 15.257-3.499 4.886-2.051 7.84-4.689 8.546-7.66.382-1.513.276-3.893-2.056-6.996 2.326 2.101 6.968 6.922 5.875 11.101-.882 3.362-5.25 5.654-12.987 6.805l-.127.015zm17.843-6.559c-.405.618-1.66 2.198-4.577 3.49-2.593 1.057-5.294 1.829-8.054 2.301 4.744-1.325 7.49-3.326 8.187-5.981.617-2.36-.444-5.276-3.07-8.414-1.103-1.306-2.314-2.516-3.622-3.617 6.56 1.832 11.18 5.214 11.85 8.722.234 1.214-.023 2.472-.714 3.499z" transform="translate(-84 -152) translate(74 132) translate(10 20)"/>
                </g>
            </g>
        </g>
    </g>
</svg>
