<?xml version="1.0" encoding="utf-8"?>
<!-- Generator: Adobe Illustrator 24.2.1, SVG Export Plug-In . SVG Version: 6.00 Build 0)  -->
<svg version="1.1"
	xmlns="http://www.w3.org/2000/svg"
	xmlns:xlink="http://www.w3.org/1999/xlink" x="0px" y="0px" viewBox="0 0 952.9 260.4" style="enable-background:new 0 0 952.9 260.4;" xml:space="preserve">
	<style type="text/css">
	.st0{opacity:0.2;}
	.st1{fill:#F2F2F2;
        animation: flash 3s infinite;}
	.st2{opacity:0.55;fill:#F2F2F2; 
        animation: flash 4s infinite;}
	.st3{opacity:0.2;clip-path:url(#SVGID_2_);}
	.st4{fill:#F2F2F2;animation: flash 3s infinite;}
	.st5{opacity:0.55;fill:#F2F2F2;animation: flash 4s infinite;}
	.st6{clip-path:url(#SVGID_2_);}
	.st7{fill:none;stroke:url(#SVGID_3_);stroke-width:0.8537;stroke-miterlimit:10;}
	.st8{fill:none;stroke:url(#SVGID_4_);stroke-width:0.8537;stroke-miterlimit:10;}
	.st9{fill:none;stroke:url(#SVGID_5_);stroke-width:0.8537;stroke-miterlimit:10;}
	.st10{fill:none;stroke:url(#SVGID_6_);stroke-width:0.8537;stroke-miterlimit:10;}
	.st11{fill:none;stroke:url(#SVGID_7_);stroke-width:0.8537;stroke-miterlimit:10;}
	.st12{fill:none;stroke:url(#SVGID_8_);stroke-width:0.8537;stroke-miterlimit:10;}
	.st13{fill:none;stroke:url(#SVGID_9_);stroke-width:0.8537;stroke-miterlimit:10;}
	.st14{fill:none;stroke:url(#SVGID_10_);stroke-width:0.8537;stroke-miterlimit:10;}
	.st15{fill:none;stroke:url(#SVGID_11_);stroke-width:0.5271;stroke-miterlimit:10;}
	.st16{fill:none;stroke:url(#SVGID_12_);stroke-width:1.1145;stroke-miterlimit:10;}
	.st17{fill:none;stroke:url(#SVGID_13_);stroke-width:1.1145;stroke-miterlimit:10;}
	.st18{fill:none;stroke:url(#SVGID_14_);stroke-width:1.1145;stroke-miterlimit:10;}
	.st19{fill:none;stroke:url(#SVGID_15_);stroke-width:1.1145;stroke-miterlimit:10;}
	.st20{fill:none;stroke:url(#SVGID_16_);stroke-width:1.1145;stroke-miterlimit:10;}
	.st21{fill:none;stroke:url(#SVGID_17_);stroke-width:1.1145;stroke-miterlimit:10;}
	.st22{fill:none;stroke:url(#SVGID_18_);stroke-width:1.1145;stroke-miterlimit:10;}
	.st23{fill:none;stroke:url(#SVGID_19_);stroke-width:0.6882;stroke-miterlimit:10;}

	@keyframes flash{
		0%{
			fill:#F2F2F2;
		}

		50%{
			fill:#F2F2F200;
		}
		
		100% {
			fill:#F2F2F2;
		}
	}
	</style>
	<g id="BACKGROUND">
	</g>
	<g id="OBJECTS">
		<g>
			<g class="st0">
				<polyline class="st1" points="752.9,112.7 722.1,159.6 665.4,124.7 694.4,91.2 752.9,112.7 			"/>
				<polyline class="st2" points="608.4,144.7 641.3,106.2 687.1,201.2 608.4,144.7 			"/>
				<polyline class="st1" points="794.1,81.2 688.7,5.9 827.4,13.8 794.1,81.2 			"/>
				<polyline class="st2" points="832.8,207.7 823.1,177.5 774,203.9 804.6,249.3 832.8,207.7 			"/>
			</g>
			<g>
				<defs>
					<rect id="SVGID_1_" x="101.4" y="-137.8" width="750" height="500"/>
				</defs>
				<clipPath id="SVGID_2_">
					<use xlink:href="#SVGID_1_" style="overflow:visible;"/>
				</clipPath>
				<g class="st3">
					<polygon class="st4" points="281.4,177.5 235.1,124.2 172.4,179.9 193.4,211 191.8,214.9 236.5,251.2 				"/>
					<polyline class="st4" points="273.4,55.5 220.1,73.2 189.5,47.3 238.4,5.2 273.1,54.2 				"/>
					<polygon class="st5" points="177.4,85.2 81.4,224.5 88.8,43.2 				"/>
					<polygon class="st5" points="398.1,67.2 341.7,31.9 301.9,45.2 338.1,108.8 				"/>
				</g>
				<g class="st6">
					<g>
						<radialGradient id="SVGID_3_" cx="718.295" cy="114.2192" r="48.1089" gradientUnits="userSpaceOnUse">
							<stop offset="0" style="stop-color:#F2F2F2"/>
							<stop offset="0.978" style="stop-color:#F2F2F2;stop-opacity:2.202421e-02"/>
							<stop offset="1" style="stop-color:#F2F2F2;stop-opacity:0"/>
						</radialGradient>
						<polyline class="st7" points="669.3,85.9 698.6,98.8 746.9,67.8 767,96.9 730.4,161 					"/>
						<radialGradient id="SVGID_4_" cx="703.3136" cy="146.4573" r="52.2703" gradientUnits="userSpaceOnUse">
							<stop offset="0" style="stop-color:#F2F2F2"/>
							<stop offset="0.978" style="stop-color:#F2F2F2;stop-opacity:2.202421e-02"/>
							<stop offset="1" style="stop-color:#F2F2F2;stop-opacity:0"/>
						</radialGradient>
						<polyline class="st8" points="714.4,209.9 740.2,177.2 666.4,131.7 708.7,83.1 					"/>
						<radialGradient id="SVGID_5_" cx="808.1597" cy="187.8799" r="54.4275" gradientUnits="userSpaceOnUse">
							<stop offset="0" style="stop-color:#F2F2F2"/>
							<stop offset="0.978" style="stop-color:#F2F2F2;stop-opacity:2.202421e-02"/>
							<stop offset="1" style="stop-color:#F2F2F2;stop-opacity:0"/>
						</radialGradient>
						<polyline class="st9" points="841.8,174.5 775,210.9 805.6,256.3 833.8,214.7 802.9,118.9 					"/>
						<radialGradient id="SVGID_6_" cx="827.2407" cy="133.545" r="47.7702" gradientUnits="userSpaceOnUse">
							<stop offset="0" style="stop-color:#F2F2F2"/>
							<stop offset="0.978" style="stop-color:#F2F2F2;stop-opacity:2.202421e-02"/>
							<stop offset="1" style="stop-color:#F2F2F2;stop-opacity:0"/>
						</radialGradient>
						<polyline class="st10" points="883.9,169.6 824,97.9 798.2,128.3 770.5,112.7 					"/>
						<radialGradient id="SVGID_7_" cx="758.5623" cy="55.9158" r="58.5121" gradientUnits="userSpaceOnUse">
							<stop offset="0" style="stop-color:#F2F2F2"/>
							<stop offset="0.978" style="stop-color:#F2F2F2;stop-opacity:2.202421e-02"/>
							<stop offset="1" style="stop-color:#F2F2F2;stop-opacity:0"/>
						</radialGradient>
						<path class="st11" d="M770.3,99.1l24.8-10.9c0,0,34.8-67.3,33.3-67.4c-1.5,0-138.8-8-138.8-8l105.5,75.3"/>
						<radialGradient id="SVGID_8_" cx="645.437" cy="105.7043" r="37.7643" gradientUnits="userSpaceOnUse">
							<stop offset="0" style="stop-color:#F2F2F2"/>
							<stop offset="0.978" style="stop-color:#F2F2F2;stop-opacity:2.202421e-02"/>
							<stop offset="1" style="stop-color:#F2F2F2;stop-opacity:0"/>
						</radialGradient>
						<polyline class="st12" points="613.3,147.9 645.4,64.2 677.6,106.1 					"/>
						<radialGradient id="SVGID_9_" cx="673.5054" cy="39.3587" r="45.6698" gradientUnits="userSpaceOnUse">
							<stop offset="0" style="stop-color:#F2F2F2"/>
							<stop offset="0.978" style="stop-color:#F2F2F2;stop-opacity:2.202421e-02"/>
							<stop offset="1" style="stop-color:#F2F2F2;stop-opacity:0"/>
						</radialGradient>
						<polyline class="st13" points="622.5,0.5 669.7,77.6 697,32.4 724.6,59.9 					"/>
						<radialGradient id="SVGID_10_" cx="649.0274" cy="160.9488" r="44.5826" gradientUnits="userSpaceOnUse">
							<stop offset="0" style="stop-color:#F2F2F2"/>
							<stop offset="0.978" style="stop-color:#F2F2F2;stop-opacity:2.202421e-02"/>
							<stop offset="1" style="stop-color:#F2F2F2;stop-opacity:0"/>
						</radialGradient>
						<polygon class="st14" points="688.1,208.2 642.3,113.2 609.4,151.7 					"/>
						<radialGradient id="SVGID_11_" cx="826.0326" cy="232.8091" r="32.4701" gradientUnits="userSpaceOnUse">
							<stop offset="0" style="stop-color:#F2F2F2"/>
							<stop offset="0.978" style="stop-color:#F2F2F2;stop-opacity:2.202421e-02"/>
							<stop offset="1" style="stop-color:#F2F2F2;stop-opacity:0"/>
						</radialGradient>
						<polygon class="st15" points="853.6,252.7 798.8,268.8 845.2,197 					"/>
					</g>
					<g>
						<radialGradient id="SVGID_12_" cx="239.2333" cy="100.822" r="100.0998" gradientUnits="userSpaceOnUse">
							<stop offset="0" style="stop-color:#F2F2F2"/>
							<stop offset="0.978" style="stop-color:#F2F2F2;stop-opacity:2.202421e-02"/>
							<stop offset="1" style="stop-color:#F2F2F2;stop-opacity:0"/>
						</radialGradient>
						<polyline class="st16" points="238.8,232.7 189.5,172.1 289,86.8 207.3,-30.8 278,-26.4 					"/>
						<radialGradient id="SVGID_13_" cx="212.6519" cy="194.4258" r="62.9496" gradientUnits="userSpaceOnUse">
							<stop offset="0" style="stop-color:#F2F2F2"/>
							<stop offset="0.978" style="stop-color:#F2F2F2;stop-opacity:2.202421e-02"/>
							<stop offset="1" style="stop-color:#F2F2F2;stop-opacity:0"/>
						</radialGradient>
						<polyline class="st17" points="177.3,258.6 193.4,220 151.9,157.6 189.5,130.7 273.9,177.1 					"/>
						<radialGradient id="SVGID_14_" cx="255.3404" cy="212.5925" r="68.3721" gradientUnits="userSpaceOnUse">
							<stop offset="0" style="stop-color:#F2F2F2"/>
							<stop offset="0.978" style="stop-color:#F2F2F2;stop-opacity:2.202421e-02"/>
							<stop offset="1" style="stop-color:#F2F2F2;stop-opacity:0"/>
						</radialGradient>
						<polyline class="st18" points="338.1,196.8 294.9,163.9 237.1,261.3 172.6,207.1 					"/>
						<radialGradient id="SVGID_15_" cx="263.9485" cy="185.8966" r="58.6439" gradientUnits="userSpaceOnUse">
							<stop offset="0" style="stop-color:#F2F2F2"/>
							<stop offset="0.978" style="stop-color:#F2F2F2;stop-opacity:2.202421e-02"/>
							<stop offset="1" style="stop-color:#F2F2F2;stop-opacity:0"/>
						</radialGradient>
						<polyline class="st19" points="221,115.6 306.6,216.6 259.7,256.1 					"/>
						<radialGradient id="SVGID_16_" cx="307.359" cy="74.8769" r="70.9109" gradientUnits="userSpaceOnUse">
							<stop offset="0" style="stop-color:#F2F2F2"/>
							<stop offset="0.978" style="stop-color:#F2F2F2;stop-opacity:2.202421e-02"/>
							<stop offset="1" style="stop-color:#F2F2F2;stop-opacity:0"/>
						</radialGradient>
						<polyline class="st20" points="289,31.4 338.1,117.8 396.6,76.8 341.7,40.9 217.3,83.4 					"/>
						<radialGradient id="SVGID_17_" cx="235.3381" cy="51.1105" r="62.4834" gradientUnits="userSpaceOnUse">
							<stop offset="0" style="stop-color:#F2F2F2"/>
							<stop offset="0.978" style="stop-color:#F2F2F2;stop-opacity:2.202421e-02"/>
							<stop offset="1" style="stop-color:#F2F2F2;stop-opacity:0"/>
						</radialGradient>
						<polyline class="st21" points="281.7,-23.5 189.5,56.3 229.7,89.2 210,125.8 					"/>
						<radialGradient id="SVGID_18_" cx="136.754" cy="143.5201" r="76.1027" gradientUnits="userSpaceOnUse">
							<stop offset="0" style="stop-color:#F2F2F2"/>
							<stop offset="0.978" style="stop-color:#F2F2F2;stop-opacity:2.202421e-02"/>
							<stop offset="1" style="stop-color:#F2F2F2;stop-opacity:0"/>
						</radialGradient>
						<path class="st22" d="M192.2,126.4l-14.8-32.2c0,0-88.7-44-88.7-42s-7.3,181.3-7.3,181.3l96-139.3"/>
						<radialGradient id="SVGID_19_" cx="365.6272" cy="50.0344" r="42.6032" gradientUnits="userSpaceOnUse">
							<stop offset="0" style="stop-color:#F2F2F2"/>
							<stop offset="0.978" style="stop-color:#F2F2F2;stop-opacity:2.202421e-02"/>
							<stop offset="1" style="stop-color:#F2F2F2;stop-opacity:0"/>
						</radialGradient>
						<polygon class="st23" points="390.8,14.2 413.2,85.5 318.4,26.5 					"/>
					</g>
				</g>
			</g>
		</g>
	</g>
</svg>
