<svg xmlns="http://www.w3.org/2000/svg" width="139.745" height="127.801" viewBox="0 0 139.745 127.801">
    <defs>
        <style>
            .cls-1{fill:#fff}
        </style>
    </defs>
    <g id="expert" transform="translate(-1.6 -3.2)">
        <path id="Path_3162" d="M20.938 33.571A13.392 13.392 0 0 1 7.8 19.836C7.8 12.371 13.772 6.1 20.938 6.1a13.392 13.392 0 0 1 13.139 13.736C33.778 27.3 28.1 33.571 20.938 33.571zm0-21.8c-4.18 0-7.465 3.583-7.465 8.062s3.285 8.067 7.465 8.067 7.462-3.585 7.462-8.064-3.281-8.063-7.462-8.063z" class="cls-1" data-name="Path 3162" transform="translate(12.313 5.759)"/>
        <path id="Path_3163" d="M13.987 75a2.676 2.676 0 0 1-2.687-2.692V34.087a2.687 2.687 0 0 1 5.375 0V72.01A2.757 2.757 0 0 1 13.987 75z" class="cls-1" data-name="Path 3163" transform="translate(19.264 56.005)"/>
        <path id="Path_3164" d="M132.387 49.575H4.287a2.687 2.687 0 0 1 0-5.375h128.1a2.687 2.687 0 1 1 0 5.375z" class="cls-1" data-name="Path 3164" transform="translate(0 81.426)"/>
        <path id="Path_3165" d="M28.725 88.737h-.6a2.751 2.751 0 0 1-2.09-3.285l10.75-58.824a2.753 2.753 0 0 1 5.375 1.194L31.413 86.647a2.868 2.868 0 0 1-2.688 2.09z" class="cls-1" data-name="Path 3165" transform="translate(48.42 42.264)"/>
        <path id="Path_3166" d="M48.575 88.737a2.868 2.868 0 0 1-2.687-2.09l-10.75-58.824a2.753 2.753 0 0 1 5.375-1.194l10.75 58.824a2.751 2.751 0 0 1-2.09 3.285z" class="cls-1" data-name="Path 3166" transform="translate(66.493 42.264)"/>
        <path id="Path_3167" d="M26.476 41.62a3.686 3.686 0 0 1-2.389-1.194c-.9-1.194-.3-2.986.9-3.882l16.419-10.153a2.712 2.712 0 0 1 2.986 0l6.868 4.18 8.36-6.871a4.244 4.244 0 0 1 1.792-.6h8.958l4.778-9.257a2.872 2.872 0 0 1 3.583-1.194 2.872 2.872 0 0 1 1.194 3.583l-5.673 10.75a3.045 3.045 0 0 1-2.389 1.493h-9.555l-8.958 7.472a3.2 3.2 0 0 1-3.285.3L43.2 32.065l-14.93 9.257a10.558 10.558 0 0 0-1.794.298z" class="cls-1" data-name="Path 3167" transform="translate(43.802 18.314)"/>
        <path id="Path_3168" d="M40.626 116.735H17.634a2.676 2.676 0 0 1-2.687-2.687V75.827a8.834 8.834 0 0 1-2.986.6A8.346 8.346 0 0 1 3.6 68.063V42.384A14.018 14.018 0 0 1 17.634 28.35h22.694a71.111 71.111 0 0 0 23.291-15.528 8.62 8.62 0 0 1 11.347-.6 8.062 8.062 0 0 1 2.09 11.048c-5.375 8.958-17.02 19.409-33.443 22.992v68.379a3.363 3.363 0 0 1-2.987 2.094zm-20.3-5.375h17.613V43.28a2.831 2.831 0 0 1 2.389-2.687C56.452 38.2 67.5 28.35 72.278 19.989c.9-1.194.6-2.687-.9-3.882a3.2 3.2 0 0 0-4.18.3c-12.541 12.541-25.381 17.02-25.978 17.02H17.634a8.666 8.666 0 0 0-8.659 8.659v25.68a2.821 2.821 0 0 0 2.986 2.986 2.821 2.821 0 0 0 2.986-2.986 2.687 2.687 0 0 1 5.375 0z" class="cls-1" data-name="Path 3168" transform="translate(3.972 14.266)"/>
        <path id="Path_3169" d="M10.087 46.984A2.676 2.676 0 0 1 7.4 44.3V24.887a2.687 2.687 0 1 1 5.375 0V44.3a2.676 2.676 0 0 1-2.688 2.684z" class="cls-1" data-name="Path 3169" transform="translate(11.519 37.734)"/>
        <path id="Path_3170" d="M99.816 72.177H27.257a2.676 2.676 0 0 1-2.687-2.687V52.768a2.687 2.687 0 0 1 5.375 0V66.8H96.83V16.04a2.676 2.676 0 0 1 2.687-2.687h3.883V8.575H23.673v5.076h3.882c1.194-.3 2.389.9 2.389 2.389v20.6a2.687 2.687 0 0 1-5.375 0V18.727h-3.882A2.676 2.676 0 0 1 18 16.04V5.887A2.676 2.676 0 0 1 20.687 3.2h85.4a2.676 2.676 0 0 1 2.687 2.687v10.451a2.676 2.676 0 0 1-2.687 2.687h-3.882v50.464a2.286 2.286 0 0 1-2.389 2.688z" class="cls-1" data-name="Path 3170" transform="translate(32.57)"/>
        <path id="Path_3171" d="M79.92 11.975H22.887a2.687 2.687 0 1 1 0-5.375H79.92a2.687 2.687 0 1 1 0 5.375z" class="cls-1" data-name="Path 3171" transform="translate(36.94 6.752)"/>
        <path id="Path_3172" d="M13.987 27.761a2.676 2.676 0 0 1-2.687-2.688v-2.986a2.687 2.687 0 0 1 5.375 0v2.986a2.676 2.676 0 0 1-2.688 2.688z" class="cls-1" data-name="Path 3172" transform="translate(19.264 32.173)"/>
        <path id="Path_3173" d="M13.987 33.361a2.676 2.676 0 0 1-2.687-2.688v-2.986a2.687 2.687 0 0 1 5.375 0v2.986a2.676 2.676 0 0 1-2.688 2.688z" class="cls-1" data-name="Path 3173" transform="translate(19.264 43.295)"/>
    </g>
</svg>
