<?xml version="1.0" encoding="utf-8"?>
<!-- Generator: Adobe Illustrator 24.2.1, SVG Export Plug-In . SVG Version: 6.00 Build 0)  -->
<svg version="1.1" xmlns="http://www.w3.org/2000/svg" xmlns:xlink="http://www.w3.org/1999/xlink" x="0px" y="0px"
	 viewBox="0 0 393.68 411.71" style="enable-background:new 0 0 393.68 411.71;" xml:space="preserve">
<style type="text/css">
	.st0{fill:#FFFFFF;}
	.st1{display:none;}
	.st2{display:inline;fill:#FFFFFF;}
</style>
<g id="圖層_2">
	<g>
		<path class="st0" d="M383.28,395.62h-17.6V139.54c0-11.92-9.67-21.62-21.56-21.62h-39.33c-11.89,0-21.57,9.7-21.57,21.62v256.08
			h-44.68V255.57c0-11.92-9.67-21.62-21.56-21.62h-39.33c-11.89,0-21.57,9.7-21.57,21.62v140.06h-44.68v-72.53
			c0-11.92-9.67-21.62-21.56-21.62H50.51c-11.89,0-21.56,9.7-21.56,21.62v72.53H10.4c-4.43,0-8.02,3.6-8.02,8.04
			c0,4.44,3.59,8.04,8.02,8.04h372.88c4.43,0,8.02-3.6,8.02-8.04C391.3,399.22,387.71,395.62,383.28,395.62L383.28,395.62z
			 M95.36,395.62H44.99v-72.53c0-3.05,2.48-5.54,5.52-5.54h39.33c3.05,0,5.52,2.48,5.52,5.54V395.62z M222.5,395.62h-50.37V255.57
			c0-3.05,2.48-5.53,5.52-5.53h39.33c3.04,0,5.52,2.48,5.52,5.53V395.62z M349.64,395.62h-50.37V139.54c0-3.05,2.48-5.53,5.52-5.53
			h39.33c3.05,0,5.52,2.48,5.52,5.53V395.62z M349.64,395.62"/>
		<path class="st0" d="M365.66,8.46c0.11-2.19-0.66-4.43-2.33-6.1c-1.67-1.68-3.9-2.45-6.09-2.33C357.11,0.01,356.99,0,356.86,0
			h-48.53c-4.43,0-8.02,3.6-8.02,8.04s3.59,8.04,8.02,8.04h29.97l-79.31,79.49l-29.9-29.98c-1.5-1.51-3.55-2.35-5.67-2.35
			c-2.13,0-4.17,0.85-5.68,2.35L73.52,210.15c-3.13,3.14-3.13,8.23,0,11.37c1.57,1.57,3.62,2.35,5.67,2.35
			c2.06,0,4.11-0.78,5.67-2.35L223.41,82.66l29.91,29.97c3.13,3.14,8.21,3.14,11.34,0l84.98-85.18v27.19c0,4.44,3.59,8.04,8.02,8.04
			c4.43,0,8.02-3.6,8.02-8.04V8.85C365.68,8.72,365.67,8.59,365.66,8.46L365.66,8.46z M365.66,8.46"/>
	</g>
</g>
</svg>
