<svg xmlns="http://www.w3.org/2000/svg" width="200" height="124" viewBox="0 0 200 124">
    <defs>
        <linearGradient id="4iv22f4uva" x1="0%" x2="100.005%" y1="50.005%" y2="50.005%">
            <stop offset="0%" stop-color="#1C4CA4"/>
            <stop offset="100%" stop-color="#1C4CA4" stop-opacity="0"/>
        </linearGradient>
        <linearGradient id="otl0qg099b" x1="0%" x2="100.003%" y1="49.984%" y2="49.984%">
            <stop offset="0%" stop-color="#1C4CA4"/>
            <stop offset="100%" stop-color="#1C4CA4" stop-opacity="0"/>
        </linearGradient>
        <linearGradient id="nvmdkt8suc" x1="0%" x2="100.006%" y1="50.003%" y2="50.003%">
            <stop offset="0%" stop-color="#1C4CA4"/>
            <stop offset="100%" stop-color="#1C4CA4" stop-opacity="0"/>
        </linearGradient>
        <linearGradient id="kwt2ie9v7d" x1=".186%" x2="100.027%" y1="50.083%" y2="50.083%">
            <stop offset="0%" stop-color="#1C4CA4"/>
            <stop offset="100%" stop-color="#1C4CA4" stop-opacity="0"/>
        </linearGradient>
        <linearGradient id="1ylifkdjte" x1=".034%" x2="99.966%" y1="49.979%" y2="49.979%">
            <stop offset="0%" stop-color="#1C4CA4"/>
            <stop offset="100%" stop-color="#1C4CA4" stop-opacity="0"/>
        </linearGradient>
        <linearGradient id="3b00noplmf" x1="-.029%" x2="99.993%" y1="50.003%" y2="50.003%">
            <stop offset="0%" stop-color="#1C4CA4"/>
            <stop offset="100%" stop-color="#1C4CA4" stop-opacity="0"/>
        </linearGradient>
        <linearGradient id="1bscv89smg" x1="0%" x2="100.019%" y1="50.046%" y2="50.046%">
            <stop offset="0%" stop-color="#1C4CA4"/>
            <stop offset="100%" stop-color="#1C4CA4" stop-opacity="0"/>
        </linearGradient>
        <linearGradient id="5jlheg169h" x1=".006%" x2="99.983%" y1="50%" y2="50%">
            <stop offset="0%" stop-color="#1C4CA4"/>
            <stop offset="100%" stop-color="#1C4CA4" stop-opacity="0"/>
        </linearGradient>
        <linearGradient id="xbejr6zmxi" x1="-.013%" x2="100.007%" y1="49.978%" y2="49.978%">
            <stop offset="0%" stop-color="#1C4CA4"/>
            <stop offset="100%" stop-color="#1C4CA4" stop-opacity="0"/>
        </linearGradient>
        <linearGradient id="zchcnsyhhj" x1="0%" x2="99.998%" y1="49.929%" y2="49.929%">
            <stop offset="0%" stop-color="#1C4CA4"/>
            <stop offset="100%" stop-color="#1C4CA4" stop-opacity="0"/>
        </linearGradient>
        <linearGradient id="vtq4j5cs5k" x1="0%" x2="100.004%" y1="49.929%" y2="49.929%">
            <stop offset="0%" stop-color="#1C4CA4"/>
            <stop offset="100%" stop-color="#1C4CA4" stop-opacity="0"/>
        </linearGradient>
        <linearGradient id="nhdsgxo5xl" x1="-.015%" x2="99.937%" y1="49.982%" y2="50.059%">
            <stop offset="0%" stop-color="#1C4CA4"/>
            <stop offset="100%" stop-color="#1C4CA4" stop-opacity="0"/>
        </linearGradient>
        <linearGradient id="h8l5kumanm" x1="-.009%" x2="99.943%" y1="49.987%" y2="50.064%">
            <stop offset="0%" stop-color="#1C4CA4"/>
            <stop offset="100%" stop-color="#1C4CA4" stop-opacity="0"/>
        </linearGradient>
        <linearGradient id="28gqkzt0gn" x1="-.028%" x2="99.931%" y1="49.974%" y2="50.056%">
            <stop offset="0%" stop-color="#1C4CA4"/>
            <stop offset="100%" stop-color="#1C4CA4" stop-opacity="0"/>
        </linearGradient>
        <linearGradient id="ta37bjwnyo" x1="-.008%" x2="99.931%" y1="49.946%" y2="50.026%">
            <stop offset="0%" stop-color="#1C4CA4"/>
            <stop offset="100%" stop-color="#1C4CA4" stop-opacity="0"/>
        </linearGradient>
        <linearGradient id="1jjnyka1wp" x1=".001%" x2="99.94%" y1="49.947%" y2="50.027%">
            <stop offset="0%" stop-color="#1C4CA4"/>
            <stop offset="100%" stop-color="#1C4CA4" stop-opacity="0"/>
        </linearGradient>
        <linearGradient id="ap5faxfbeq" x1="0%" x2="100.004%" y1="49.941%" y2="49.941%">
            <stop offset="0%" stop-color="#1C4CA4"/>
            <stop offset="100%" stop-color="#1C4CA4" stop-opacity="0"/>
        </linearGradient>
        <linearGradient id="slkq2jmjir" x1="0%" x2="100.004%" y1="49.978%" y2="49.978%">
            <stop offset="0%" stop-color="#1C4CA4"/>
            <stop offset="100%" stop-color="#1C4CA4" stop-opacity="0"/>
        </linearGradient>
        <linearGradient id="z38s7vesvs" x1="0%" x2="99.999%" y1="49.967%" y2="49.967%">
            <stop offset="0%" stop-color="#1C4CA4"/>
            <stop offset="100%" stop-color="#1C4CA4" stop-opacity="0"/>
        </linearGradient>
        <linearGradient id="nvpez782dt" x1="0%" x2="100.003%" y1="49.984%" y2="49.984%">
            <stop offset="0%" stop-color="#1C4CA4"/>
            <stop offset="100%" stop-color="#1C4CA4" stop-opacity="0"/>
        </linearGradient>
        <linearGradient id="yk0ur5r8yu" x1=".029%" x2="99.966%" y1="49.979%" y2="49.979%">
            <stop offset="0%" stop-color="#1C4CA4"/>
            <stop offset="100%" stop-color="#1C4CA4" stop-opacity="0"/>
        </linearGradient>
        <linearGradient id="wi39wgdh2v" x1="-.013%" x2="100.007%" y1="49.987%" y2="49.987%">
            <stop offset="0%" stop-color="#1C4CA4"/>
            <stop offset="100%" stop-color="#1C4CA4" stop-opacity="0"/>
        </linearGradient>
        <linearGradient id="z6d29dg9pw" x1="-.021%" x2="99.998%" y1="50.018%" y2="50.018%">
            <stop offset="0%" stop-color="#1C4CA4"/>
            <stop offset="100%" stop-color="#1C4CA4" stop-opacity="0"/>
        </linearGradient>
        <linearGradient id="a8kv132abx" x1="-.011%" x2="99.912%" y1="49.968%" y2="50.045%">
            <stop offset="0%" stop-color="#1C4CA4"/>
            <stop offset="100%" stop-color="#1C4CA4" stop-opacity="0"/>
        </linearGradient>
        <linearGradient id="o7bm278v9y" x1="-.014%" x2="99.92%" y1="49.959%" y2="50.036%">
            <stop offset="0%" stop-color="#1C4CA4"/>
            <stop offset="100%" stop-color="#1C4CA4" stop-opacity="0"/>
        </linearGradient>
        <linearGradient id="0wdswv3njz" x1="-.021%" x2="99.912%" y1="49.961%" y2="50.038%">
            <stop offset="0%" stop-color="#1C4CA4"/>
            <stop offset="100%" stop-color="#1C4CA4" stop-opacity="0"/>
        </linearGradient>
        <linearGradient id="47bkxncraA" x1="-.016%" x2="99.907%" y1="49.964%" y2="50.041%">
            <stop offset="0%" stop-color="#1C4CA4"/>
            <stop offset="100%" stop-color="#1C4CA4" stop-opacity="0"/>
        </linearGradient>
        <linearGradient id="3w1dwcaslB" x1="-.013%" x2="99.92%" y1="49.962%" y2="50.039%">
            <stop offset="0%" stop-color="#1C4CA4"/>
            <stop offset="100%" stop-color="#1C4CA4" stop-opacity="0"/>
        </linearGradient>
        <linearGradient id="w8qr2gsvzC" x1="-.017%" x2="99.953%" y1="49.968%" y2="50.045%">
            <stop offset="0%" stop-color="#1C4CA4"/>
            <stop offset="100%" stop-color="#1C4CA4" stop-opacity="0"/>
        </linearGradient>
        <linearGradient id="9jubr2g4bD" x1="-.02%" x2="99.913%" y1="49.969%" y2="50.046%">
            <stop offset="0%" stop-color="#1C4CA4"/>
            <stop offset="100%" stop-color="#1C4CA4" stop-opacity="0"/>
        </linearGradient>
        <linearGradient id="zaww04pvmE" x1="-.02%" x2="99.922%" y1="49.97%" y2="50.047%">
            <stop offset="0%" stop-color="#1C4CA4"/>
            <stop offset="100%" stop-color="#1C4CA4" stop-opacity="0"/>
        </linearGradient>
        <linearGradient id="7ygwfvfzcF" x1="-.006%" x2="99.941%" y1="49.983%" y2="50.06%">
            <stop offset="0%" stop-color="#1C4CA4"/>
            <stop offset="100%" stop-color="#1C4CA4" stop-opacity="0"/>
        </linearGradient>
        <linearGradient id="x6pysfaw9G" x1="-.001%" x2="99.943%" y1="49.971%" y2="50.054%">
            <stop offset="0%" stop-color="#1C4CA4"/>
            <stop offset="100%" stop-color="#1C4CA4" stop-opacity="0"/>
        </linearGradient>
        <linearGradient id="zlwqn105xH" x1="-.012%" x2="99.945%" y1="49.968%" y2="50.051%">
            <stop offset="0%" stop-color="#1C4CA4"/>
            <stop offset="100%" stop-color="#1C4CA4" stop-opacity="0"/>
        </linearGradient>
        <linearGradient id="kzuurdls8I" x1="-.013%" x2="99.944%" y1="49.969%" y2="50.052%">
            <stop offset="0%" stop-color="#1C4CA4"/>
            <stop offset="100%" stop-color="#1C4CA4" stop-opacity="0"/>
        </linearGradient>
        <linearGradient id="ckbuf51t0J" x1="-.01%" x2="99.947%" y1="49.967%" y2="50.05%">
            <stop offset="0%" stop-color="#1C4CA4"/>
            <stop offset="100%" stop-color="#1C4CA4" stop-opacity="0"/>
        </linearGradient>
        <linearGradient id="mgkq6lshcK" x1="-.015%" x2="99.941%" y1="49.967%" y2="50.049%">
            <stop offset="0%" stop-color="#1C4CA4"/>
            <stop offset="100%" stop-color="#1C4CA4" stop-opacity="0"/>
        </linearGradient>
        <linearGradient id="er861msobL" x1="-.038%" x2="99.914%" y1="49.952%" y2="50.035%">
            <stop offset="0%" stop-color="#1C4CA4"/>
            <stop offset="100%" stop-color="#1C4CA4" stop-opacity="0"/>
        </linearGradient>
    </defs>
    <g fill="none" fill-rule="evenodd">
        <g fill-rule="nonzero">
            <g>
                <g>
                    <path fill="url(#4iv22f4uva)" d="M115.105 1.21c-.038-.147-.142-.27-.284-.332-.36-.195-.793-.213-1.168-.047l-11.028 6.274c-.12.054-.199.17-.202.298v1.882c.013.171.123.32.286.387.36.194.793.211 1.169.047l11.028-6.274c.103-.048.176-.14.199-.248v-1.92c.002-.022.002-.045 0-.067z" transform="translate(-384 -238) translate(354 218) translate(30 20)"/>
                    <path fill="url(#otl0qg099b)" d="M187.298 27.002c-.037-.147-.141-.27-.283-.332-.36-.195-.793-.213-1.168-.047l-17.66 9.746c-.121.054-.2.17-.202.298v1.882c.01.173.121.325.285.392.36.194.793.211 1.169.047l17.66-9.746c.103-.048.177-.14.2-.248v-1.922c.002-.023.002-.047 0-.07z" transform="translate(-384 -238) translate(354 218) translate(30 20)"/>
                    <path fill="url(#nvmdkt8suc)" d="M119.467 7.827c-.041-.159-.154-.291-.306-.36-.388-.21-.854-.228-1.258-.05l-9.625 5.375c-.13.058-.214.183-.217.322v2.026c.014.185.134.347.309.42.387.21.854.23 1.258.052l9.625-5.375c.11-.052.188-.151.214-.267V7.9c.002-.024.002-.05 0-.074zM113.344 6.587c-.04-.159-.153-.291-.306-.36-.387-.21-.854-.228-1.257-.05l-9.625 5.375c-.13.058-.214.183-.217.322V13.9c.014.185.133.347.308.42.387.21.854.23 1.258.052l9.625-5.375c.11-.052.189-.151.214-.267V6.66c.003-.024.003-.05 0-.074z" transform="translate(-384 -238) translate(354 218) translate(30 20)"/>
                    <path fill="url(#kwt2ie9v7d)" d="M173.788 27.402c-.042-.165-.16-.301-.319-.37-.392-.214-.866-.233-1.275-.05l-7.809 4.383c-.131.058-.216.184-.22.324v2.039c.014.187.134.351.312.424.393.214.867.233 1.276.05l7.808-4.382c.112-.052.192-.15.217-.268v-2.086c.006-.021.009-.043.01-.064z" transform="translate(-384 -238) translate(354 218) translate(30 20)"/>
                    <path fill="url(#1ylifkdjte)" d="M179.314 22.02c-.047-.181-.176-.333-.35-.412-.445-.241-.982-.262-1.446-.057l-15.635 8.66c-.153.063-.253.208-.255.37v2.329c-.013.166.107.344.354.483.445.24.98.263 1.444.06l15.64-8.653c.13-.058.224-.17.255-.305v-2.378c.003-.033 0-.065-.007-.097z" transform="translate(-384 -238) translate(354 218) translate(30 20)"/>
                    <path fill="url(#3b00noplmf)" d="M133.798 7.909c-.05-.19-.183-.346-.364-.43-.464-.249-1.022-.27-1.505-.059l-15.19 8.516c-.154.07-.253.22-.254.385v2.425c.017.22.158.411.367.496.464.252 1.024.274 1.508.06l15.186-8.514c.131-.062.226-.18.255-.32v-2.48c.002-.026.002-.053-.003-.08z" transform="translate(-384 -238) translate(354 218) translate(30 20)"/>
                    <path fill="url(#1bscv89smg)" d="M179.926 29.591c-.034-.134-.127-.246-.255-.307-.333-.18-.733-.195-1.08-.042l-12.18 6.718c-.112.05-.184.156-.187.275v1.736c0 .124.08.248.256.36.332.18.732.197 1.079.045l12.173-6.731c.095-.044.162-.129.184-.228V29.64c.005-.016.008-.033.01-.05z" transform="translate(-384 -238) translate(354 218) translate(30 20)"/>
                    <path fill="url(#5jlheg169h)" d="M134.222 15.103c-.03-.116-.113-.214-.225-.265-.285-.157-.63-.17-.928-.037l-9.796 5.456c-.104.04-.169.14-.16.248v1.488c.008.137.096.257.226.31.286.156.631.17.929.037l9.796-5.456c.08-.038.14-.11.158-.196v-1.53c.002-.018.002-.037 0-.055z" transform="translate(-384 -238) translate(354 218) translate(30 20)"/>
                    <path fill="url(#xbejr6zmxi)" d="M150.832 13.434c-.053-.21-.201-.385-.403-.476-.514-.276-1.131-.301-1.666-.067l-17.2 9.615c-.172.074-.284.24-.285.424v2.683c.016.247.174.463.408.558.513.278 1.131.303 1.666.067l17.196-9.622c.147-.067.252-.198.284-.352v-2.736c.005-.03.005-.063 0-.094zM194.454 38.73c-.053-.21-.201-.385-.403-.476-.513-.276-1.13-.301-1.666-.067l-17.199 9.615c-.173.074-.285.24-.285.424v2.683c.015.247.173.463.408.558.513.278 1.13.303 1.665.067l17.197-9.622c.146-.067.252-.198.283-.352v-2.736c.005-.03.005-.063 0-.094zM157.21 19.882c-.053-.21-.202-.385-.404-.476-.513-.276-1.13-.301-1.666-.067l-17.199 9.615c-.173.074-.284.24-.285.424v2.683c.015.247.173.463.408.558.513.278 1.13.303 1.666.067l17.196-9.622c.147-.067.252-.198.283-.352v-2.736c.005-.03.005-.063 0-.094z" transform="translate(-384 -238) translate(354 218) translate(30 20)"/>
                    <path fill="url(#xbejr6zmxi)" d="M154.148 24.842c-.053-.21-.201-.385-.403-.476-.514-.276-1.13-.301-1.666-.067l-17.199 9.615c-.173.074-.285.24-.286.424v2.683c.016.247.174.463.409.558.513.278 1.13.303 1.665.067l17.197-9.622c.146-.067.251-.198.283-.352v-2.736c.005-.03.005-.063 0-.094zM182.72 42.202c-.053-.21-.202-.385-.404-.476-.513-.276-1.13-.301-1.665-.067l-17.2 9.615c-.172.074-.284.24-.285.424v2.683c.015.247.174.463.408.558.513.278 1.131.303 1.666.067l17.196-9.622c.147-.067.252-.198.283-.352v-2.736c.005-.03.005-.063 0-.094zM148.536 20.626c-.053-.21-.201-.385-.403-.476-.514-.276-1.131-.301-1.666-.067l-17.2 9.615c-.172.074-.284.24-.285.424v2.683c.016.247.174.463.408.558.513.278 1.131.303 1.666.067l17.197-9.622c.146-.067.251-.198.283-.352V20.72c.005-.03.005-.063 0-.094zM141.393 16.162c-.053-.21-.201-.385-.403-.476-.514-.276-1.13-.301-1.666-.067l-17.199 9.615c-.173.074-.285.24-.286.424v2.683c.016.247.174.463.408.558.513.278 1.131.303 1.666.067l17.197-9.622c.146-.067.251-.198.283-.352v-2.736c.005-.03.005-.063 0-.094zM140.883 7.482c-.053-.21-.201-.385-.403-.476-.514-.276-1.131-.301-1.666-.067l-17.2 9.615c-.172.074-.284.24-.285.424v2.683c.016.247.174.463.408.558.513.278 1.131.303 1.666.067l17.196-9.622c.147-.067.252-.198.284-.352V7.576c.005-.03.005-.063 0-.094zM199.811 45.178c-.052-.21-.2-.385-.403-.476-.513-.276-1.13-.301-1.666-.067l-17.199 9.615c-.173.074-.284.24-.285.424v2.683c.015.247.173.463.408.558.513.278 1.13.303 1.666.067l17.196-9.622c.147-.067.252-.198.283-.352v-2.736c.005-.03.005-.063 0-.094zM124.046 9.466c-.053-.21-.201-.385-.403-.476-.514-.276-1.13-.301-1.666-.067l-17.199 9.615c-.173.074-.285.24-.286.424v2.683c.016.247.174.463.409.558.512.278 1.13.303 1.665.067l17.197-9.622c.146-.067.251-.198.283-.352V9.56c.005-.03.005-.063 0-.094zM162.821 26.082c-.052-.21-.2-.385-.403-.476-.513-.276-1.13-.301-1.665-.067l-17.2 9.615c-.172.074-.284.24-.285.424v2.683c.015.247.174.463.408.558.513.278 1.131.303 1.666.067l17.196-9.622c.147-.067.252-.198.283-.352v-2.736c.006-.03.006-.063 0-.094z" transform="translate(-384 -238) translate(354 218) translate(30 20)"/>
                    <path fill="url(#zchcnsyhhj)" d="M152.885 20.138c-.03-.117-.112-.215-.224-.266-.288-.155-.634-.168-.934-.037l-14.168 8.072c-.1.044-.164.142-.161.248v1.503c.009.137.097.258.227.31.287.157.634.172.934.04l14.168-8.075c.082-.037.14-.11.158-.196v-1.535c.004-.021.004-.043 0-.064zM147.018 18.898c-.03-.117-.112-.215-.225-.266-.287-.155-.633-.168-.933-.037l-14.169 8.072c-.1.044-.163.142-.16.248v1.503c.008.137.096.258.227.31.287.157.633.172.933.04l14.169-8.075c.081-.037.14-.11.158-.196v-1.535c.004-.021.004-.043 0-.064z" transform="translate(-384 -238) translate(354 218) translate(30 20)"/>
                    <path fill="url(#xbejr6zmxi)" d="M91.903 54.85c-.053-.21-.201-.385-.403-.476-.513-.276-1.13-.301-1.666-.067l-17.199 9.615c-.173.074-.285.24-.286.424v2.683c.016.247.174.463.409.558.513.278 1.13.303 1.665.067l17.197-9.622c.146-.067.252-.198.283-.352v-2.736c.005-.03.005-.063 0-.094zM89.607 62.042c-.052-.21-.2-.385-.403-.476-.513-.276-1.13-.301-1.666-.067L70.34 71.114c-.173.074-.284.24-.285.424v2.683c.015.247.173.463.408.558.513.278 1.13.303 1.666.067l17.196-9.622c.147-.067.252-.198.283-.352v-2.736c.005-.03.005-.063 0-.094z" transform="translate(-384 -238) translate(354 218) translate(30 20)"/>
                    <path fill="url(#zchcnsyhhj)" d="M94.977 54.61c-.03-.117-.112-.215-.224-.266-.288-.155-.634-.168-.934-.037L79.65 62.379c-.1.044-.164.142-.161.248v1.503c.008.137.097.258.227.31.287.157.633.172.934.04l14.168-8.075c.081-.037.14-.11.158-.196v-1.535c.004-.021.004-.043 0-.064z" transform="translate(-384 -238) translate(354 218) translate(30 20)"/>
                    <path fill="url(#zchcnsyhhj)" d="M88.09 60.314c-.03-.117-.113-.215-.225-.266-.288-.155-.634-.168-.934-.037l-14.168 8.072c-.1.044-.163.142-.161.248v1.503c.009.137.097.258.227.31.287.157.634.172.934.04l14.168-8.075c.082-.037.14-.11.158-.196v-1.535c.004-.021.004-.043 0-.064z" transform="translate(-384 -238) translate(354 218) translate(30 20)"/>
                    <path fill="url(#vtq4j5cs5k)" d="M138.6 10.466c-.03-.117-.113-.215-.225-.266-.288-.155-.634-.168-.934-.037l-14.168 8.072c-.1.044-.163.142-.16.248v1.503c.008.137.096.258.226.31.287.157.634.172.934.04l14.168-8.075c.082-.037.14-.11.158-.196v-1.547c.003-.018.003-.035 0-.052z" transform="translate(-384 -238) translate(354 218) translate(30 20)"/>
                    <path fill="url(#3b00noplmf)" d="M47.319 33.7c-.05-.188-.184-.345-.365-.428-.464-.25-1.022-.272-1.505-.06L30.26 41.728c-.154.07-.254.22-.255.385v2.425c.017.22.159.411.367.496.465.252 1.024.274 1.508.06l15.186-8.514c.132-.062.226-.18.255-.32v-2.48c.003-.026.002-.053-.002-.08z" transform="translate(-384 -238) translate(354 218) translate(30 20)"/>
                    <path fill="url(#xbejr6zmxi)" d="M67.923 36.002c-.052-.21-.2-.385-.403-.476-.513-.276-1.13-.301-1.665-.067l-17.2 9.615c-.172.074-.284.24-.285.424v2.683c.015.247.174.463.408.558.513.278 1.131.303 1.666.067l17.196-9.622c.147-.067.252-.198.283-.352v-2.736c.006-.03.006-.063 0-.094zM57.974 30.05c-.052-.21-.2-.385-.403-.476-.513-.276-1.13-.301-1.665-.067l-17.2 9.615c-.172.074-.284.24-.285.424v2.683c.015.247.174.463.408.558.513.278 1.131.303 1.666.067l17.196-9.622c.147-.067.252-.198.283-.352v-2.736c.006-.03.006-.063 0-.094z" transform="translate(-384 -238) translate(354 218) translate(30 20)"/>
                    <path fill="url(#zchcnsyhhj)" d="M55.691 33.034c-.03-.117-.112-.215-.224-.266-.288-.155-.634-.168-.934-.037l-14.168 8.072c-.1.044-.163.142-.161.248v1.503c.009.137.097.258.227.31.287.157.634.172.934.04l14.168-8.075c.082-.037.14-.11.158-.196v-1.535c.004-.021.004-.043 0-.064zM183.753 30.802c-.03-.117-.113-.215-.225-.266-.288-.155-.634-.168-.934-.037l-14.168 8.072c-.1.044-.163.142-.16.248v1.503c.008.137.096.258.226.31.287.157.634.172.934.04l14.168-8.075c.082-.037.14-.11.159-.196v-1.535c.003-.021.003-.043 0-.064z" transform="translate(-384 -238) translate(354 218) translate(30 20)"/>
                    <path fill="url(#nhdsgxo5xl)" d="M140.375 69.914c-.037-.148-.141-.272-.283-.335-.36-.195-.793-.213-1.169-.047l-17.67 9.724c-.123.051-.202.168-.202.297v1.88c0 .137.084.28.283.392.36.196.793.214 1.169.05l17.673-9.727c.102-.049.175-.14.199-.248v-1.922c.002-.021.002-.043 0-.064z" transform="translate(-384 -238) translate(354 218) translate(30 20)"/>
                    <path fill="url(#h8l5kumanm)" d="M137.569 66.938c-.037-.148-.141-.272-.283-.335-.36-.195-.794-.213-1.169-.047l-17.67 9.724c-.123.051-.202.168-.202.297v1.88c0 .137.084.28.283.392.36.196.793.214 1.168.05l17.674-9.727c.101-.049.175-.14.199-.248v-1.922c.002-.021.002-.043 0-.064z" transform="translate(-384 -238) translate(354 218) translate(30 20)"/>
                    <path fill="url(#28gqkzt0gn)" d="M147.773 73.713c-.052-.21-.201-.384-.403-.474-.513-.278-1.13-.304-1.666-.07l-17.21 9.594c-.172.076-.284.242-.287.426v2.683c.015.246.172.463.405.558.513.279 1.13.304 1.666.07l17.212-9.595c.146-.067.251-.198.283-.352V73.81c.004-.032.004-.065 0-.097z" transform="translate(-384 -238) translate(354 218) translate(30 20)"/>
                    <path fill="url(#ta37bjwnyo)" d="M136.824 73.71c-.03-.117-.112-.214-.225-.265-.287-.157-.633-.171-.933-.04l-14.179 8.058c-.099.045-.162.142-.16.248v1.5c0 .11.066.224.227.313.285.158.632.173.93.04l14.18-8.058c.08-.038.138-.11.157-.196v-1.535c.005-.021.006-.043.003-.064z" transform="translate(-384 -238) translate(354 218) translate(30 20)"/>
                    <path fill="url(#1jjnyka1wp)" d="M139.12 68.503c-.03-.118-.112-.215-.225-.266-.287-.157-.633-.171-.933-.04l-14.179 8.058c-.099.045-.162.142-.16.248v1.5c0 .11.066.224.226.313.286.158.633.173.932.04l14.178-8.058c.081-.038.14-.11.158-.196v-1.535c.005-.021.006-.043.003-.064z" transform="translate(-384 -238) translate(354 218) translate(30 20)"/>
                    <path fill="url(#ap5faxfbeq)" d="M127.63 5.01c-.03-.117-.112-.215-.224-.266-.288-.155-.634-.168-.934-.037l-14.168 8.07c-.1.044-.164.141-.161.248v1.503c.008.137.097.257.227.31.287.157.634.171.934.04l14.168-8.075c.082-.038.14-.11.158-.196V5.062c.003-.018.003-.035 0-.052z" transform="translate(-384 -238) translate(354 218) translate(30 20)"/>
                    <path fill="url(#zchcnsyhhj)" d="M82.732 45.93c-.03-.117-.112-.215-.224-.266-.288-.155-.634-.168-.934-.037l-14.168 8.072c-.1.044-.164.142-.161.248v1.503c.009.137.097.258.227.31.287.157.634.172.934.04l14.168-8.075c.082-.037.14-.11.158-.196v-1.535c.004-.021.004-.043 0-.064z" transform="translate(-384 -238) translate(354 218) translate(30 20)"/>
                    <path fill="url(#zchcnsyhhj)" d="M89.875 42.954c-.03-.117-.112-.215-.224-.266-.288-.155-.634-.168-.934-.037l-14.169 8.072c-.1.044-.163.142-.16.248v1.503c.008.137.096.258.227.31.287.157.633.172.933.04l14.169-8.075c.081-.037.14-.11.158-.196v-1.535c.004-.021.004-.043 0-.064zM67.17 39.234c-.029-.117-.111-.215-.224-.266-.287-.155-.633-.168-.933-.037l-14.169 8.072c-.1.044-.163.142-.16.248v1.503c.008.137.096.258.227.31.287.157.633.172.933.04l14.169-8.075c.081-.037.14-.11.158-.196v-1.535c.004-.021.004-.043 0-.064zM196.763 43.946c-.03-.117-.113-.215-.225-.266-.288-.155-.634-.168-.933-.037l-14.169 8.072c-.1.044-.163.142-.16.248v1.503c.008.137.096.258.227.31.287.157.633.172.933.04l14.169-8.075c.081-.037.14-.11.158-.196V44.01c.004-.021.004-.043 0-.064z" transform="translate(-384 -238) translate(354 218) translate(30 20)"/>
                    <path fill="url(#ap5faxfbeq)" d="M120.487.546c-.03-.117-.112-.215-.224-.266-.288-.155-.634-.168-.934-.037l-14.168 8.07c-.1.044-.164.141-.161.248v1.503c.009.137.097.257.227.31.287.157.634.171.934.04l14.168-8.075c.082-.038.14-.11.158-.196V.598c.003-.018.003-.035 0-.052zM108.242 1.042c-.03-.117-.112-.215-.224-.266-.288-.155-.634-.168-.934-.037l-14.168 8.07c-.1.044-.163.141-.161.248v1.503c.009.137.097.257.227.31.287.157.634.171.934.04l14.168-8.075c.082-.038.14-.11.158-.196V1.094c.003-.018.003-.035 0-.052z" transform="translate(-384 -238) translate(354 218) translate(30 20)"/>
                    <path fill="url(#slkq2jmjir)" d="M55.666 37.17c-.037-.147-.142-.27-.283-.332-.36-.195-.794-.213-1.169-.047l-11.028 6.274c-.12.054-.199.17-.201.298v1.882c.01.173.121.325.285.392.36.194.793.211 1.169.047l11.028-6.274c.103-.048.177-.14.199-.248V37.24c.003-.023.003-.047 0-.07z" transform="translate(-384 -238) translate(354 218) translate(30 20)"/>
                    <path fill="url(#zchcnsyhhj)" d="M63.344 34.274c-.03-.117-.112-.215-.224-.266-.288-.155-.634-.168-.934-.037l-14.168 8.072c-.1.044-.163.142-.16.248v1.503c.008.137.096.258.226.31.287.157.634.172.934.04l14.168-8.075c.082-.037.14-.11.158-.196v-1.535c.004-.021.004-.043 0-.064zM53.906 34.026c-.03-.117-.113-.215-.225-.266-.288-.155-.634-.168-.934-.037L38.58 41.795c-.1.044-.163.142-.16.248v1.503c.008.137.096.258.226.31.287.157.634.172.934.04l14.168-8.075c.082-.037.14-.11.159-.196V34.09c.004-.021.004-.043 0-.064z" transform="translate(-384 -238) translate(354 218) translate(30 20)"/>
                    <path fill="url(#vtq4j5cs5k)" d="M129.926 7.986c-.03-.117-.112-.215-.224-.266-.288-.155-.634-.168-.934-.037l-14.169 8.072c-.1.044-.163.142-.16.248v1.503c.008.137.096.258.227.31.287.157.633.172.933.04l14.169-8.075c.081-.037.14-.11.158-.196V8.038c.003-.018.003-.035 0-.052z" transform="translate(-384 -238) translate(354 218) translate(30 20)"/>
                    <path fill="url(#zchcnsyhhj)" d="M199.059 40.474c-.03-.117-.113-.215-.225-.266-.288-.155-.634-.168-.933-.037l-14.169 8.072c-.1.044-.163.142-.16.248v1.503c.008.137.096.258.226.31.288.157.634.172.934.04l14.169-8.075c.081-.037.14-.11.158-.196v-1.535c.004-.021.004-.043 0-.064z" transform="translate(-384 -238) translate(354 218) translate(30 20)"/>
                    <path fill="url(#vtq4j5cs5k)" d="M139.365 13.442c-.03-.117-.113-.215-.225-.266-.287-.155-.634-.168-.933-.037l-14.169 8.072c-.1.044-.163.142-.16.248v1.503c.008.137.096.258.227.31.287.157.633.172.933.04l14.169-8.075c.081-.037.14-.11.158-.196v-1.547c.002-.018.002-.035 0-.052z" transform="translate(-384 -238) translate(354 218) translate(30 20)"/>
                    <path fill="url(#3b00noplmf)" d="M89.41 49.077c-.049-.19-.183-.346-.364-.43-.464-.249-1.022-.27-1.505-.059l-15.189 8.516c-.154.07-.254.22-.255.385v2.425c.017.22.159.411.367.496.464.252 1.024.274 1.508.06l15.186-8.514c.132-.062.226-.18.255-.32v-2.48c.003-.026.002-.053-.002-.08z" transform="translate(-384 -238) translate(354 218) translate(30 20)"/>
                    <path fill="url(#xbejr6zmxi)" d="M96.495 48.65c-.053-.21-.201-.385-.403-.476-.514-.276-1.13-.301-1.666-.067l-17.199 9.615c-.173.074-.285.24-.286.424v2.683c.016.247.174.463.408.558.513.278 1.132.303 1.666.067l17.197-9.622c.146-.067.251-.198.283-.352v-2.736c.005-.03.005-.063 0-.094z" transform="translate(-384 -238) translate(354 218) translate(30 20)"/>
                    <path fill="url(#zchcnsyhhj)" d="M94.212 51.634c-.03-.117-.113-.215-.225-.266-.288-.155-.634-.168-.933-.037l-14.169 8.072c-.1.044-.163.142-.16.248v1.503c.008.137.096.258.227.31.287.157.633.172.933.04l14.169-8.075c.081-.037.14-.11.158-.196v-1.535c.004-.021.004-.043 0-.064zM94.977 54.61c-.03-.117-.112-.215-.224-.266-.288-.155-.634-.168-.934-.037L79.65 62.379c-.1.044-.164.142-.161.248v1.503c.008.137.097.258.227.31.287.157.633.172.934.04l14.168-8.075c.081-.037.14-.11.158-.196v-1.535c.004-.021.004-.043 0-.064z" transform="translate(-384 -238) translate(354 218) translate(30 20)"/>
                    <path fill="url(#3b00noplmf)" d="M78.186 37.42c-.05-.188-.183-.345-.365-.428-.464-.25-1.021-.272-1.505-.06l-15.188 8.516c-.155.07-.254.22-.256.385v2.425c.017.22.16.411.368.496.464.252 1.024.274 1.507.06L77.934 40.3c.131-.062.225-.18.255-.32V37.5c.002-.026.001-.053-.003-.08z" transform="translate(-384 -238) translate(354 218) translate(30 20)"/>
                    <path fill="url(#xbejr6zmxi)" d="M95.22 42.946c-.053-.21-.202-.385-.404-.476-.513-.276-1.13-.301-1.665-.067l-17.2 9.615c-.172.074-.284.24-.285.424v2.683c.015.247.174.463.408.558.513.278 1.131.303 1.666.067l17.196-9.622c.147-.067.252-.198.283-.352V43.04c.005-.03.005-.063 0-.094zM62.311 37.738c-.052-.21-.2-.385-.403-.476-.513-.276-1.13-.301-1.666-.067L43.043 46.81c-.173.074-.284.24-.285.424v2.683c.015.247.173.463.408.558.513.278 1.13.303 1.666.067l17.196-9.622c.147-.067.252-.198.283-.352v-2.736c.005-.03.005-.063 0-.094zM85.27 36.994c-.052-.21-.2-.385-.403-.476-.513-.276-1.13-.301-1.665-.067l-17.2 9.615c-.172.074-.284.24-.285.424v2.683c.015.247.174.463.408.558.513.278 1.131.303 1.666.067l17.196-9.622c.147-.067.252-.198.283-.352v-2.736c.006-.03.006-.063 0-.094z" transform="translate(-384 -238) translate(354 218) translate(30 20)"/>
                    <path fill="url(#zchcnsyhhj)" d="M82.987 39.978c-.03-.117-.112-.215-.224-.266-.288-.155-.634-.168-.934-.037l-14.168 8.072c-.1.044-.164.142-.161.248v1.503c.009.137.097.258.227.31.287.157.634.172.934.04l14.168-8.075c.082-.037.14-.11.158-.196v-1.535c.004-.021.004-.043 0-.064zM72.018 34.522c-.03-.117-.112-.215-.225-.266-.287-.155-.633-.168-.933-.037L56.69 42.291c-.1.044-.163.142-.16.248v1.503c.008.137.096.258.227.31.287.157.633.172.933.04l14.169-8.075c.081-.037.14-.11.158-.196v-1.535c.004-.021.004-.043 0-.064zM74.314 37.498c-.03-.117-.113-.215-.225-.266-.288-.155-.634-.168-.933-.037l-14.169 8.072c-.1.044-.163.142-.16.248v1.503c.008.137.096.258.227.31.287.157.633.172.933.04l14.169-8.075c.081-.037.14-.11.158-.196v-1.535c.004-.021.004-.043 0-.064zM83.753 42.954c-.03-.117-.113-.215-.225-.266-.288-.155-.634-.168-.934-.037l-14.168 8.072c-.1.044-.163.142-.16.248v1.503c.008.137.096.258.226.31.287.157.634.172.934.04l14.168-8.075c.082-.037.14-.11.159-.196v-1.535c.003-.021.003-.043 0-.064zM190.64 43.202c-.03-.117-.112-.215-.224-.266-.288-.155-.634-.168-.934-.037l-14.168 8.072c-.1.044-.163.142-.161.248v1.503c.009.137.097.258.227.31.287.157.634.172.934.04l14.168-8.075c.082-.037.14-.11.158-.196v-1.535c.004-.021.004-.043 0-.064zM154.16 28.57c-.03-.117-.112-.215-.224-.266-.288-.155-.634-.168-.933-.037l-14.169 8.072c-.1.044-.163.142-.16.248v1.503c.008.137.096.258.227.31.287.157.633.172.933.04l14.169-8.075c.081-.037.14-.11.158-.196v-1.535c.004-.021.004-.043 0-.064zM147.018 28.57c-.03-.117-.112-.215-.225-.266-.287-.155-.633-.168-.933-.037l-14.169 8.072c-.1.044-.163.142-.16.248v1.503c.008.137.096.258.227.31.287.157.633.172.933.04l14.169-8.075c.081-.037.14-.11.158-.196v-1.535c.004-.021.004-.043 0-.064zM133.497 18.65c-.03-.117-.112-.215-.224-.266-.288-.155-.634-.168-.934-.037l-14.168 8.072c-.1.044-.163.142-.16.248v1.503c.008.137.096.258.226.31.287.157.634.172.934.04l14.168-8.075c.082-.037.14-.11.158-.196v-1.535c.004-.021.004-.043 0-.064z" transform="translate(-384 -238) translate(354 218) translate(30 20)"/>
                    <path fill="url(#z38s7vesvs)" d="M180.436 18.65c-.03-.117-.112-.215-.224-.266-.288-.155-.634-.168-.934-.037l-28.454 16.254c-.1.044-.163.141-.16.248v1.503c.008.137.096.257.226.31.287.157.634.171.934.04l28.454-16.26c.082-.037.14-.11.158-.195v-1.535c.004-.02.004-.042 0-.062z" transform="translate(-384 -238) translate(354 218) translate(30 20)"/>
                    <path fill="url(#nvpez782dt)" d="M50.564 40.146c-.038-.147-.142-.27-.283-.332-.36-.195-.794-.213-1.169-.047l-17.66 9.746c-.12.054-.2.17-.202.298v1.882c.01.173.121.325.286.392.36.194.793.211 1.168.047l17.66-9.746c.104-.048.178-.14.2-.248v-1.922c.003-.023.003-.047 0-.07z" transform="translate(-384 -238) translate(354 218) translate(30 20)"/>
                    <path fill="url(#yk0ur5r8yu)" d="M42.58 35.164c-.048-.181-.176-.333-.35-.412-.446-.241-.983-.262-1.447-.057l-15.635 8.66c-.153.063-.253.208-.255.37v2.329c0 .166.107.344.354.483.445.24.98.263 1.444.06l15.64-8.653c.13-.058.224-.17.256-.305v-2.378c.002-.033 0-.065-.008-.097z" transform="translate(-384 -238) translate(354 218) translate(30 20)"/>
                    <path fill="url(#z38s7vesvs)" d="M43.702 31.794c-.03-.117-.113-.215-.225-.266-.288-.155-.634-.168-.934-.037L14.09 47.745c-.1.044-.163.141-.16.248v1.503c.008.137.096.257.227.31.287.157.633.171.933.04l28.454-16.26c.082-.037.14-.11.159-.195v-1.535c.003-.02.003-.042 0-.062z" transform="translate(-384 -238) translate(354 218) translate(30 20)"/>
                    <path fill="url(#xbejr6zmxi)" d="M177.107 28.066c-.052-.21-.2-.385-.403-.476-.513-.276-1.13-.301-1.666-.067l-17.199 9.615c-.173.074-.284.24-.285.424v2.683c.015.247.173.463.408.558.513.278 1.13.303 1.666.067l17.196-9.622c.147-.067.252-.198.283-.352V28.16c.005-.03.005-.063 0-.094zM40.372 41.21c-.052-.21-.2-.385-.403-.476-.513-.276-1.13-.301-1.665-.067l-17.2 9.615c-.172.074-.284.24-.285.424v2.683c.015.247.174.463.408.558.513.278 1.131.303 1.666.067l17.196-9.622c.147-.067.252-.198.283-.352v-2.736c.006-.03.006-.063 0-.094zM117.413 6.738c-.052-.21-.2-.385-.403-.476-.513-.276-1.13-.301-1.666-.067L98.145 15.81c-.172.074-.284.24-.285.424v2.683c.015.247.173.463.408.558.513.278 1.13.303 1.666.067L117.13 9.92c.147-.067.252-.198.283-.352V6.832c.005-.03.005-.063 0-.094z" transform="translate(-384 -238) translate(354 218) translate(30 20)"/>
                    <path fill="url(#wi39wgdh2v)" d="M112.311 1.034c-.052-.21-.2-.385-.403-.476-.513-.276-1.13-.301-1.666-.067l-17.199 9.613c-.173.074-.284.24-.285.424v2.683c.015.246.173.463.408.558.513.278 1.13.303 1.666.067l17.196-9.62c.147-.067.252-.198.283-.352V1.128c.005-.03.005-.063 0-.094z" transform="translate(-384 -238) translate(354 218) translate(30 20)"/>
                    <path fill="url(#xbejr6zmxi)" d="M57.974 34.018c-.052-.21-.2-.385-.403-.476-.513-.276-1.13-.301-1.665-.067l-17.2 9.615c-.172.074-.284.24-.285.424v2.683c.015.247.174.463.408.558.513.278 1.131.303 1.666.067L57.69 37.2c.147-.067.252-.198.283-.352v-2.736c.006-.03.006-.063 0-.094z" transform="translate(-384 -238) translate(354 218) translate(30 20)"/>
                    <path fill="#1C4CA4" d="M191.395 50.758v-.196c-.094-1.505-.977-2.858-2.339-3.58-.904-.493-1.923-.75-2.96-.745-.54-.001-1.077.072-1.596.218l-7.288 2.061-4.592-2.586c.143-.418.216-.855.217-1.295V35.96c-.123-1.475-1.001-2.792-2.337-3.502l-3.35-1.882c-.904-.493-1.924-.75-2.961-.744-.959-.016-1.904.216-2.74.672l-8.163 4.583-54.74-30.764c-.905-.493-1.925-.75-2.962-.745-.948-.01-1.882.223-2.709.675L84.324 9.05c-1.324.717-2.163 2.058-2.21 3.531h-.025l.026 8.348c-.017.526.07 1.05.255 1.545l17.477 47.281c-.572.84-.836 1.843-.75 2.847.04.446.107.889.201 1.327l-.214 6.502c-.008.19-.004.381.013.57.133 1.418.525 2.802 1.158 4.085.002.01.002.019 0 .028l-26.829 15.078c-.274-.435-.511-.891-.71-1.364.031-.097.057-.193.09-.29.801-2.423 2.153-5.53 4.023-9.248 2.436-4.883 4.061-8.881 4.964-12.219.441-1.617.642-3.288.597-4.96V64.5v-1.155h-.015c-.12-2.201-.625-4.366-1.492-6.402-1.676-4.017-5.255-7.522-10.937-10.713-7.936-4.518-16.969-6.894-26.165-6.885h-.653c-9.44.112-19.24 2.976-29.12 8.531C8.65 50.882 4.992 53.928 2.8 57.191.778 60.202-.071 63.143.25 65.963l-.069 7.001c-.022 1.091.13 2.179.452 3.224.98 3.224 3.206 5.823 6.632 7.74 3.164 1.803 6.734 2.825 10.398 2.976.317.013.628.018.936.018 3.232.041 6.417-.755 9.228-2.307 1.01-.578 1.98-1.22 2.903-1.922.18-.13.35-.273.51-.426.857-.82 1.356-1.93 1.393-3.098v-8.504c0-.197-.013-.394-.039-.59-.201-1.503-1.186-2.852-2.699-3.703L24.96 63.6c.77-.077 1.543-.115 2.317-.114.742 0 1.53.032 2.313.096 4.592.372 9.357 1.92 14.133 4.603 3.061 1.736 5.324 3.626 6.689 5.645 1.4 2.075 2.283 4.134 2.625 6.118.398 2.311.632 5.414.696 9.255.115 4.514.452 8.375 1.005 11.47.618 3.472 2.235 7.019 4.804 10.548 2.569 3.529 6.48 6.772 11.653 9.672l3.52 1.984c1.178.642 2.507.978 3.857.975 1.19.013 2.363-.278 3.4-.844l48.215-27.089c1.514-.807 2.464-2.344 2.485-4.023v-8.464c-.03-1.689-1.046-3.256-2.735-4.216l-7.232-4.05 18.824-10.574 9.617 5.327.128 6.515c.249 1.315 1.091 2.453 2.296 3.1.904.492 1.923.748 2.96.744.948.012 1.883-.219 2.71-.67l29.947-16.822c1.357-.733 2.201-2.121 2.21-3.63v-8.398zm-83.98-5.334l13.733 7.715-9.01 5.062-4.722-12.777zm14.108 7.504l-14.304-8.04-3.724-10.071 25.127 14.116-7.099 3.995zm50.926-8.288c0 .376-.06.75-.176 1.109l-6.069-3.415 4.403-2.48c.806-.446 1.447-1.126 1.834-1.945l.008 6.731zm-89.73-22.288c-.166-.452-.244-.93-.23-1.41l-.017-6.575 19.76 53.459-.668.374c-.558.312-1.05.722-1.452 1.21L82.72 22.352zm16.748 58.62c-.012-.176-.012-.352 0-.528l.173-5.278c.175.518.382 1.025.62 1.518.824 2.088 2.22 4.09 4.23 6.059l-3.89 2.185c-.618-1.243-1.001-2.582-1.133-3.956zm-26.66 9.164c.8-2.423 2.152-5.53 4.022-9.25 2.436-4.881 4.061-8.88 4.964-12.217.085-.31.156-.62.222-.933v4.375c.042 1.64-.154 3.279-.584 4.866-.898 3.315-2.513 7.288-4.939 12.152-1.834 3.645-3.173 6.713-3.987 9.129-.17-.51-.287-1.034-.35-1.565-.27-2.206-.049-4.443.651-6.557zm-44.988-13.92c1.01-.578 1.98-1.22 2.903-1.923.665-.49 1.191-1.136 1.53-1.877v6.746c-.032 1.072-.489 2.091-1.275 2.844-.146.142-.301.274-.464.397-.911.692-1.867 1.326-2.862 1.897-2.754 1.52-5.875 2.299-9.041 2.257-.304 0-.613 0-.921-.017-3.603-.146-7.115-1.148-10.227-2.92-3.317-1.867-5.495-4.399-6.447-7.526-.31-1.014-.457-2.07-.433-3.127l.03-5.263c0 .03.016.057.026.087.98 3.224 3.206 5.823 6.632 7.74 3.164 1.803 6.734 2.824 10.398 2.976.317.012.628.017.937.017 3.227.039 6.408-.758 9.214-2.309zm25.571 3.672c-.35-2.036-1.252-4.141-2.68-6.26-1.399-2.065-3.69-4.004-6.815-5.76-4.824-2.708-9.632-4.273-14.285-4.65-.804-.065-1.592-.097-2.345-.097-.956-.002-1.91.056-2.86.174l-8.186-4.598c.34-.266.692-.519 1.057-.767l5.683-2.425c1.419-.287 2.865-.428 4.314-.42.742 0 1.53.033 2.314.097 4.592.372 9.357 1.92 14.132 4.603 3.062 1.736 5.324 3.626 6.69 5.645 1.4 2.076 2.282 4.134 2.624 6.118.398 2.311.633 5.414.697 9.255.02.799.048 1.575.081 2.334-.12-1.213-.257-2.289-.42-3.249zm76.804 7.641c.935-.513 1.674-1.305 2.11-2.26v6.637c-.018 1.553-.896 2.975-2.296 3.72l-48.215 27.09c-.986.525-2.097.79-3.222.768-1.288.007-2.557-.312-3.68-.925l-3.519-1.984c-5.127-2.882-9.007-6.103-11.535-9.575-2.528-3.472-4.135-6.974-4.735-10.391-.548-3.078-.885-6.92-1-11.408-.015-.888-.04-1.737-.071-2.547.17 2.083.405 3.968.701 5.624.617 3.472 2.235 7.019 4.804 10.548 2.569 3.529 6.48 6.773 11.653 9.672l3.52 1.984c1.18.64 2.51.974 3.862.967 1.19.017 2.365-.27 3.406-.83l48.217-27.09zm60.826-28.371c-.009 1.378-.782 2.645-2.023 3.313l-29.943 16.825c-.77.418-1.64.634-2.523.624-.972.004-1.927-.238-2.773-.701-1.097-.59-1.867-1.624-2.102-2.82l-.125-6.488v-.206l-.184-.104-9.617-5.327-.19-.104-.185.107-19.01 10.679-7.1-3.99 26.298-14.774 12.19 6.847-1.447 1.612c-.841.924-1.212 2.165-1.01 3.383.248 1.315 1.091 2.453 2.295 3.1.904.492 1.924.749 2.96.744.948.01 1.882-.223 2.709-.675l29.946-16.822c.806-.445 1.448-1.125 1.834-1.944v6.72z" transform="translate(-384 -238) translate(354 218) translate(30 20)"/>
                    <path fill="#FFF" d="M73.056 109.338c-4.724-2.645-8.21-5.521-10.46-8.628-2.247-3.106-3.64-6.127-4.178-9.062-.525-2.944-.842-6.589-.951-10.934-.066-4.013-.316-7.27-.748-9.771-.432-2.502-1.495-5.007-3.19-7.517-1.702-2.511-4.35-4.78-7.947-6.805-5.286-2.976-10.52-4.67-15.702-5.08-5.182-.41-9.54.375-13.076 2.354-1.907 1.055-3.638 2.385-5.136 3.944-.027.03-.052.06-.076.089l-.623.786c-.41.518-.137 1.176.674 1.632L28 69.536c.878.497 1.115 1.216.571 1.737-.043.041-.09.08-.137.116-.794.604-1.626 1.158-2.493 1.657-2.359 1.323-5.07 1.923-8.132 1.8-3.057-.122-6.036-.974-8.674-2.48-2.561-1.438-4.194-3.31-4.898-5.614-.704-2.305-.134-4.829 1.71-7.572 1.841-2.743 5.158-5.458 9.948-8.147 9.363-5.259 18.461-7.94 27.296-8.045 8.835-.104 17.135 2.026 24.898 6.391 4.883 2.746 7.994 5.722 9.334 8.928 1.34 3.206 1.596 6.347.766 9.424-.832 3.079-2.402 6.93-4.712 11.552-1.954 3.889-3.36 7.13-4.22 9.727-.857 2.606-1.132 5.36-.805 8.077.256 2.09 1.057 4.081 2.326 5.786.717.992 2.972 1.356 4.174.684l34.655-19.47c.796-.447.801-1.198.038-1.786-3.06-2.366-5.032-4.718-5.913-7.058-.477-.923-.773-1.925-.872-2.953-.016-.407.224-.781.607-.945l.854-.481c.9-.496 2.477-.444 3.518.14l20.222 11.384c1.041.585 1.156 1.47.255 1.984l-48.214 27.084c-.903.496-2.477.444-3.518-.141l-3.528-1.977zM155.446 67.972c-.456-.248-.597-.633-.341-.918l4.015-4.476c.255-.285.115-.66-.342-.918l-16.217-9.109c-.59-.319-1.3-.347-1.916-.077l-28.278 15.887c-.371.177-.792.232-1.199.159l-4.002-.603c-.574-.087-1.038-.362-1.158-.687L85.898 12.84c-.08-.254.051-.525.304-.627l8.55-4.804c.49-.276 1.347-.248 1.916.077l55.597 31.248c.57.317 1.426.352 1.919.077l9.143-5.137c.49-.275 1.349-.248 1.915.077l3.35 1.883c.569.32.63.8.138 1.076l-9.143 5.136c-.49.275-.429.759.137 1.076l16.215 9.11c.5.262 1.083.331 1.632.193l7.97-2.254c.55-.14 1.133-.072 1.632.19.567.32.628.802.138 1.077l-29.946 16.812c-.493.275-1.35.24-1.919-.077zm-43.53-5.431l23.324-13.102c.492-.278.43-.76-.138-1.077L99.551 28.39c-.985-.553-2.49-.181-2.22.55l12.228 33.076c.232.63 1.622.94 2.357.526z" transform="translate(-384 -238) translate(354 218) translate(30 20)"/>
                    <path fill="#1C4CA4" d="M61.811 55.69c-.032 0-.063-.007-.092-.021L38.051 42.455c-.085-.053-.112-.161-.062-.246.05-.085.161-.117.25-.071L61.907 55.35c.075.04.112.125.09.206-.022.08-.099.136-.185.134zM63.22 52.958c-.034 0-.066-.008-.095-.025l-23.666-13.21c-.065-.03-.108-.092-.11-.161-.003-.07.035-.135.098-.168.063-.034.14-.03.198.01l23.666 13.214c.075.04.113.125.09.205-.02.08-.096.136-.182.135z" opacity=".5" transform="translate(-384 -238) translate(354 218) translate(30 20)"/>
                    <path fill="#CF3819" d="M77.679 59.084c-.034 0-.066-.01-.095-.025L55.158 46.555c-.058-.033-.094-.093-.094-.158 0-.064.036-.124.094-.157.057-.033.129-.033.186 0L77.773 58.74c.089.05.12.161.069.248-.034.057-.096.093-.163.095z" transform="translate(-384 -238) translate(354 218) translate(30 20)"/>
                    <path fill="#1C4CA4" d="M79.847 70.727c-.032 0-.064-.008-.092-.025L56.087 57.49c-.09-.05-.12-.162-.068-.25.052-.086.167-.116.257-.065l23.665 13.21c.089.052.12.162.07.249-.033.058-.096.095-.164.094zM109.38 22.432c-.032 0-.063-.008-.092-.023L85.62 9.196c-.062-.031-.1-.093-.102-.16 0-.068.036-.13.097-.163.06-.033.135-.031.194.005l23.665 13.214c.044.024.075.063.088.11.013.046.006.096-.019.138-.033.057-.095.093-.163.092z" opacity=".5" transform="translate(-384 -238) translate(354 218) translate(30 20)"/>
                    <path fill="#CF3819" d="M124.612 28.582c-.033 0-.065-.008-.094-.022l-23.666-13.214c-.08-.054-.104-.159-.056-.24.049-.083.153-.116.242-.077l23.669 13.213c.043.024.074.064.087.11.013.047.007.097-.018.138-.034.057-.096.092-.164.092zM144.296 49.312c-.033 0-.065-.007-.094-.022l-23.666-13.213c-.08-.055-.104-.16-.056-.242.048-.082.153-.115.242-.076l23.666 13.214c.043.023.075.062.089.11.013.046.007.096-.018.138-.033.056-.096.091-.163.091zM156.013 48.63c-.033 0-.066-.008-.095-.024l-23.665-13.214c-.044-.023-.076-.063-.09-.11-.013-.046-.006-.096.018-.138.052-.086.166-.116.255-.067l23.666 13.211c.073.041.11.125.088.205-.021.08-.095.136-.18.137h.003z" transform="translate(-384 -238) translate(354 218) translate(30 20)"/>
                    <path fill="#1C4CA4" d="M168.666 63.892c-.033 0-.066-.008-.095-.025l-23.673-13.21c-.08-.055-.104-.16-.056-.242.049-.082.153-.115.242-.076l23.669 13.213c.043.024.074.064.087.11.013.047.007.097-.019.138-.032.055-.09.09-.155.092z" opacity=".5" transform="translate(-384 -238) translate(354 218) translate(30 20)"/>
                    <path fill="#CF3819" d="M178.444 56.604c-.033-.001-.066-.01-.095-.025l-21.025-11.847c-.09-.05-.12-.163-.068-.25.053-.086.167-.116.257-.065l21.025 11.844c.088.052.118.161.07.248-.035.057-.097.093-.164.095z" transform="translate(-384 -238) translate(354 218) translate(30 20)"/>
                    <path fill="#1C4CA4" d="M110.084 35.417c-.033 0-.066-.008-.094-.025l-23.666-13.21c-.08-.055-.104-.16-.056-.242.049-.082.153-.115.242-.076l23.666 13.213c.044.024.076.063.089.11.013.046.007.096-.018.138-.033.057-.095.092-.163.092z" opacity=".5" transform="translate(-384 -238) translate(354 218) translate(30 20)"/>
                    <path fill="#CF3819" d="M118.495 64.788c-.032 0-.063-.009-.09-.025l-5.101-2.728c-.062-.03-.101-.09-.104-.156-.002-.066.033-.128.092-.162s.132-.034.19 0l5.102 2.728c.073.041.11.125.089.204-.021.08-.094.136-.178.139z" transform="translate(-384 -238) translate(354 218) translate(30 20)"/>
                    <path fill="#1C4CA4" d="M118.753 32.912c-.033 0-.065-.008-.092-.025L94.992 19.674c-.09-.05-.12-.162-.067-.25.052-.086.167-.116.256-.065l23.666 13.21c.089.052.12.162.069.249-.032.058-.095.095-.163.094zM154.372 43.846c-.033 0-.065-.008-.094-.024l-23.666-13.214c-.043-.023-.075-.063-.089-.11-.013-.046-.007-.096.018-.138.052-.086.165-.116.255-.067l23.666 13.211c.073.042.11.125.088.205-.022.08-.095.136-.18.137h.002zM150.857 58.426c-.033 0-.065-.01-.094-.024l-23.666-13.214c-.08-.054-.104-.159-.056-.241.049-.082.153-.115.242-.076l23.666 13.213c.09.05.121.16.071.248-.033.057-.095.093-.163.094zM72.592 86.584c-.025 0-.05-.007-.072-.02L54.242 76.362c-.07-.039-.095-.125-.056-.194.04-.068.129-.093.2-.054l18.277 10.205c.034.018.058.049.068.084.01.036.005.075-.014.107-.024.046-.072.075-.125.074zM21.508 72.46c-.025 0-.05-.007-.072-.02L3.158 62.249c-.045-.025-.074-.072-.074-.123 0-.051.027-.098.073-.124.045-.026.101-.026.147-.001l18.278 10.205c.056.033.083.098.066.159-.018.061-.075.104-.14.104v-.007z" opacity=".5" transform="translate(-384 -238) translate(354 218) translate(30 20)"/>
                    <path fill="#CF3819" d="M73.018 79.501c-.025 0-.05-.005-.072-.017l-16.515-9.3c-.07-.04-.094-.127-.053-.196.04-.068.13-.092.201-.052l16.513 9.3c.056.032.083.097.066.159-.017.061-.075.104-.14.104v.002z" transform="translate(-384 -238) translate(354 218) translate(30 20)"/>
                    <path fill="#1C4CA4" d="M29.24 72.232c-.026 0-.05-.006-.072-.02L10.89 62c-.045-.025-.074-.072-.074-.123 0-.051.028-.098.073-.124.045-.026.101-.026.147-.001l18.278 10.205c.056.033.083.098.066.159-.018.061-.075.104-.14.104v.012zM37.676 56.97c-.025 0-.05-.007-.071-.02L19.327 46.749c-.07-.039-.095-.126-.055-.195.04-.068.13-.092.2-.053l18.283 10.205c.069.04.093.126.054.194-.028.045-.079.073-.133.072z" opacity=".5" transform="translate(-384 -238) translate(354 218) translate(30 20)"/>
                    <path fill="#CF3819" d="M26.559 73.351c-.025 0-.05-.006-.072-.017L8.21 63.128c-.045-.025-.074-.072-.074-.123 0-.05.027-.098.073-.124.045-.026.101-.026.147 0l18.278 10.202c.056.033.083.098.066.159-.018.061-.075.104-.14.104v.005z" transform="translate(-384 -238) translate(354 218) translate(30 20)"/>
                    <path fill="#1C4CA4" d="M25.023 66.31c-.025 0-.05-.007-.071-.02L6.673 56.088c-.033-.019-.058-.05-.068-.086-.01-.037-.005-.075.015-.108.04-.067.129-.09.199-.052l18.275 10.205c.034.018.06.049.07.085.01.036.004.074-.016.106-.025.045-.073.072-.125.072z" opacity=".5" transform="translate(-384 -238) translate(354 218) translate(30 20)"/>
                    <path fill="#CF3819" d="M71.653 70.043c-.032 0-.064-.009-.092-.025L47.893 56.807c-.062-.031-.1-.093-.102-.16 0-.068.036-.13.097-.163.06-.033.135-.03.194.005l23.665 13.214c.076.04.113.125.09.206-.022.08-.098.136-.184.134z" transform="translate(-384 -238) translate(354 218) translate(30 20)"/>
                    <path fill="#1C4CA4" d="M37.666 51.748c-.02 0-.041-.005-.059-.015L23.321 43.76c-.026-.015-.045-.04-.053-.068-.008-.028-.003-.058.013-.084.014-.025.039-.044.067-.051.03-.008.06-.003.086.012l14.285 7.973c.054.03.072.097.041.149-.018.034-.054.056-.094.057zM47.74 52.886c-.02 0-.04-.005-.056-.015l-14.286-7.973c-.054-.03-.073-.097-.042-.15.03-.053.1-.071.154-.041l14.286 7.973c.054.031.072.099.04.151-.02.034-.056.055-.096.055zM73.75 75.211c-.02 0-.039-.005-.056-.015l-14.286-7.973c-.054-.03-.073-.097-.042-.15.031-.053.1-.071.154-.041l14.286 7.973c.054.03.072.097.04.149-.018.035-.055.057-.096.057zM67.423 69.97c-.02 0-.039-.005-.056-.014l-14.285-7.973c-.027-.014-.047-.038-.055-.066-.008-.028-.004-.058.011-.083.031-.053.1-.072.156-.042l14.286 7.973c.046.023.07.075.056.125-.013.049-.06.083-.113.08zM104.916 41.04c-.02-.001-.04-.006-.056-.016l-14.286-7.973c-.027-.014-.046-.037-.055-.065-.008-.029-.004-.059.012-.084.03-.053.1-.072.155-.042l14.286 7.973c.047.024.07.076.057.125-.014.05-.06.083-.113.081zM127.413 33.522c-.02 0-.04-.005-.058-.015l-14.286-7.973c-.026-.014-.045-.038-.054-.066-.008-.027-.004-.057.01-.083.032-.053.101-.072.156-.042l14.286 7.973c.054.031.072.099.04.152-.019.033-.055.053-.094.054zM144.518 46.28c-.02 0-.04-.006-.056-.016l-14.286-7.973c-.053-.03-.072-.097-.04-.149.03-.053.1-.072.155-.042l14.286 7.973c.042.026.062.076.05.123-.014.048-.056.081-.107.083h-.002z" opacity=".5" transform="translate(-384 -238) translate(354 218) translate(30 20)"/>
                    <path fill="#CF3819" d="M128.444 59.478c-.014.003-.03.003-.043 0l-5.358-2.976c-.031-.012-.053-.042-.054-.075-.002-.033.017-.064.047-.079s.068-.01.094.01l5.357 2.976c.035.018.052.057.041.094-.01.036-.045.061-.084.06v-.01z" transform="translate(-384 -238) translate(354 218) translate(30 20)"/>
                    <path fill="#1C4CA4" d="M174.056 60.47c-.014.004-.029.004-.043 0l-10.778-6.017c-.042-.022-.056-.073-.033-.114.023-.04.075-.054.117-.032l10.778 6.019c.041.023.056.074.033.114-.019.02-.046.031-.074.03zM182.023 57.055c-.015 0-.03-.005-.043-.013l-10.778-6.016c-.042-.023-.057-.074-.034-.114.012-.02.03-.034.053-.04.022-.005.045-.001.065.01l10.778 6.017c.041.022.056.073.033.114-.016.025-.044.041-.074.042zM160.23 49.307c-.015.004-.03.004-.044 0l-10.778-6.016c-.036-.025-.047-.072-.025-.11.021-.038.069-.053.11-.036l10.78 6.019c.034.018.051.056.041.093-.01.037-.045.062-.084.06v-.01zM137.97 49.082c-.015.003-.03.003-.044 0l-10.778-6.03c-.041-.022-.056-.073-.033-.113.011-.02.03-.034.052-.04.022-.005.046-.002.065.01l10.778 6.016c.033.02.049.057.04.093-.01.036-.043.062-.08.064zM152.732 56.37c-.014.004-.029.004-.043 0l-10.778-6.026c-.041-.023-.055-.073-.032-.113.023-.04.075-.053.116-.03l10.778 6.016c.041.022.056.073.033.114-.016.025-.044.04-.074.04zM144.765 57.509c-.014.003-.029.003-.043 0l-10.78-6.02c-.04-.022-.054-.072-.031-.11.023-.041.075-.055.117-.033l10.778 6.019c.02.01.034.028.04.049.007.02.004.043-.007.062-.018.022-.045.034-.074.033z" opacity=".5" transform="translate(-384 -238) translate(354 218) translate(30 20)"/>
                    <path fill="#CF3819" d="M102.934 43.881c-.02.001-.04-.003-.056-.012L95.735 39.9c-.04-.017-.067-.055-.069-.098-.002-.042.021-.082.06-.102.038-.02.085-.018.12.006l7.144 3.968c.053.031.072.098.043.152-.021.033-.059.053-.1.054zM100.934 26.005c-.02 0-.04-.004-.056-.015l-12.796-7.172c-.038-.018-.062-.055-.063-.095 0-.041.022-.079.059-.098.036-.02.081-.018.116.005l12.796 7.162c.054.031.072.098.04.151-.017.037-.055.06-.096.062z" transform="translate(-384 -238) translate(354 218) translate(30 20)"/>
                    <path fill="#1C4CA4" d="M117.804 29.877c-.02 0-.04-.004-.057-.013l-14.285-7.976c-.038-.018-.062-.054-.063-.095 0-.04.022-.078.059-.098.036-.02.081-.018.116.005l14.286 7.973c.026.014.046.037.054.066.008.028.004.058-.01.083-.021.034-.06.055-.1.055zM110.071 16.894c-.02 0-.039-.006-.056-.015L95.73 8.906c-.055-.03-.074-.098-.044-.152.015-.025.04-.044.07-.051.029-.008.06-.003.086.012l14.286 7.973c.026.014.046.037.054.065.008.028.004.059-.011.084-.02.034-.058.056-.1.057zM135.847 39.9c-.02 0-.04-.005-.056-.014l-14.286-7.973c-.027-.014-.046-.038-.054-.066-.009-.028-.005-.058.01-.083.032-.053.101-.072.156-.042l14.286 7.973c.047.023.07.075.057.125-.014.049-.06.083-.113.08zM149.908 50.153c-.02 0-.039-.005-.056-.015l-14.286-7.973c-.053-.031-.072-.099-.04-.151.03-.052.099-.07.153-.04l14.285 7.973c.054.03.072.097.041.149-.019.035-.056.057-.097.057zM163.732 56.075c-.02 0-.039-.005-.056-.015l-14.286-7.973c-.026-.014-.046-.038-.054-.066-.009-.029-.005-.06.01-.085.033-.052.102-.07.157-.04l14.285 7.973c.027.014.047.038.055.066.008.028.004.058-.011.083-.02.035-.059.057-.1.057z" opacity=".5" transform="translate(-384 -238) translate(354 218) translate(30 20)"/>
                    <path fill="#CF3819" d="M161.352 40.905c-.02.001-.039-.003-.056-.012l-5.357-2.976c-.04-.017-.067-.055-.069-.098-.002-.042.022-.082.06-.102.038-.02.085-.018.121.006l5.357 2.976c.054.031.073.098.044.152-.022.033-.06.053-.1.054z" transform="translate(-384 -238) translate(354 218) translate(30 20)"/>
                    <path fill="#1C4CA4" d="M133.27 30.333c-.02 0-.039-.005-.056-.015l-14.285-7.973c-.054-.03-.072-.097-.041-.149.014-.026.038-.045.067-.053.029-.008.06-.004.086.01l14.286 7.974c.042.026.062.076.05.123-.014.047-.056.08-.107.083zM37.666 54.252c-.02 0-.041-.005-.059-.014l-14.286-7.974c-.054-.03-.073-.097-.042-.15.031-.052.1-.07.155-.04l14.285 7.973c.054.03.072.098.041.15-.02.034-.055.055-.094.055zM21.73 76.806c-.02 0-.04-.006-.057-.015L7.388 68.818c-.054-.03-.073-.098-.042-.15.03-.053.1-.072.154-.041L21.786 76.6c.053.03.071.096.04.149-.018.035-.056.057-.096.057z" opacity=".5" transform="translate(-384 -238) translate(354 218) translate(30 20)"/>
                    <path fill="#CF3819" d="M16.582 71.794c-.02 0-.041-.005-.059-.015l-12.625-7.08c-.038-.019-.062-.056-.062-.096-.001-.041.021-.079.058-.098.037-.02.081-.018.116.005l12.623 7.078c.053.03.072.098.04.151-.019.032-.053.053-.091.055z" transform="translate(-384 -238) translate(354 218) translate(30 20)"/>
                    <path fill="#1C4CA4" d="M77.735 56.296c-.02 0-.04-.005-.056-.015l-14.286-7.973c-.041-.017-.069-.055-.07-.099-.003-.043.022-.084.062-.103.04-.02.087-.016.123.011l14.285 7.973c.043.026.063.076.05.123-.013.047-.056.08-.106.083h-.002zM80.559 66.216c-.016 0-.03-.005-.044-.012l-11.25-6.28c-.02-.011-.034-.03-.04-.052-.006-.022-.002-.045.01-.064.011-.02.03-.035.053-.041.022-.006.046-.003.067.008l11.257 6.267c.02.011.036.03.042.052.006.022.003.045-.009.065-.011.036-.047.06-.086.057zM63.707 72.664h-.031l-7.753-4.328c-.027-.017-.037-.052-.022-.081.008-.014.021-.025.037-.029.016-.004.033-.002.047.006l7.752 4.328c.015.008.025.02.03.036.004.015.002.032-.007.046-.012.016-.033.025-.053.022zM19.643 55.57h-.03l-7.753-4.33c-.029-.018-.039-.054-.023-.083.008-.013.022-.023.038-.026.015-.004.032-.002.046.007l7.752 4.327c.015.007.026.02.03.036.005.016.002.032-.007.046-.012.016-.033.024-.053.022zM28.793 53.975h-.03l-7.753-4.33c-.015-.008-.026-.02-.03-.036-.004-.016-.002-.033.007-.046.009-.014.022-.023.038-.027s.033-.001.046.007l7.756 4.32c.028.017.038.053.022.082-.012.018-.033.03-.056.03z" opacity=".5" transform="translate(-384 -238) translate(354 218) translate(30 20)"/>
                    <path fill="#CF3819" d="M20.153 52.14h-.03l-3.062-1.736c-.014-.008-.025-.021-.029-.037-.004-.015-.002-.032.006-.045.018-.028.055-.038.084-.023l3.062 1.736c.014.008.024.021.029.037.004.015.002.031-.006.045-.013.016-.033.024-.054.023z" transform="translate(-384 -238) translate(354 218) translate(30 20)"/>
                    <path fill="#1C4CA4" d="M18.482 61.256h-.03l-7.753-4.328c-.02-.01-.031-.03-.031-.051 0-.022.011-.042.03-.052.02-.011.043-.011.062 0l7.753 4.327c.014.008.025.02.029.036.004.015.002.032-.006.046-.013.015-.033.024-.054.022zM10.753 63.079c-.011.003-.023.003-.034 0l-7.86-4.397c-.03-.017-.04-.055-.022-.085.008-.013.021-.024.037-.028.016-.004.033-.002.047.006l7.862 4.39c.023.014.034.042.027.068-.007.026-.03.044-.057.046zM12.393 57.407c-.007.003-.014.003-.02 0l-5.705-3.182c-.02-.013-.027-.039-.015-.06.005-.01.015-.018.027-.021.011-.003.024-.002.034.004l5.702 3.185c.016.01.024.03.019.049-.005.018-.022.031-.042.032v-.007zM77.278 75.094c-.007.003-.015.003-.023 0l-5.612-3.137c-.022-.012-.03-.038-.018-.06.005-.01.015-.018.027-.021.011-.003.024-.002.034.004l5.612 3.14c.021.013.028.039.016.06-.009.01-.022.016-.036.014zM68.367 66.665h-.02l-5.625-3.14c-.02-.013-.027-.039-.015-.06.013-.02.04-.026.06-.014l5.613 3.14c.021.01.03.036.018.057-.007.01-.018.015-.03.017zM109.145 90.356h-.02l-5.612-3.14c-.02-.012-.028-.038-.016-.059.006-.01.016-.017.028-.02.011-.003.024-.001.034.005l5.612 3.14c.01.005.018.014.021.025.003.01.002.022-.003.032-.01.013-.027.02-.044.017zM58.765 60.743h-.02l-5.612-3.14c-.02-.013-.028-.039-.016-.06.013-.02.04-.028.062-.017l5.612 3.14c.016.01.024.03.019.049-.005.018-.022.032-.042.033l-.003-.005zM133.985 54.136h-.023l-5.613-3.14c-.02-.013-.027-.039-.015-.06.006-.01.015-.017.026-.02.01-.003.023-.002.033.003l5.612 3.14c.02.013.027.039.015.06-.008.011-.021.018-.035.017zM104.929 54.364h-.023l-5.613-3.14c-.017-.013-.021-.037-.01-.055.01-.02.033-.028.054-.021l5.625 3.14c.02.012.027.038.015.059-.01.016-.03.023-.048.017zM105.398 51.403c-.008.002-.016.002-.023 0l-5.612-3.14c-.01-.004-.019-.013-.022-.024-.004-.011-.002-.023.004-.033.012-.02.04-.028.061-.017l5.612 3.14c.011.005.02.014.023.026.003.01.001.023-.005.033-.009.011-.023.017-.038.015zM100.255 35.685h-.023l-5.612-3.14c-.01-.005-.019-.014-.022-.025-.004-.01-.002-.022.004-.032.005-.01.015-.018.027-.022.011-.003.024-.001.034.005l5.592 3.132c.02.013.027.039.015.06-.002.008-.007.016-.015.022zM96.258 31.129c-.007.002-.014.002-.02 0l-5.626-3.147c-.01-.006-.018-.015-.02-.027-.004-.011-.002-.023.005-.033.013-.02.04-.026.061-.015l5.612 3.14c.02.013.028.038.018.06-.007.01-.018.018-.03.022zM107.038 31.129h-.023l-5.612-3.14c-.01-.005-.019-.014-.022-.026-.004-.011-.002-.023.004-.033.013-.02.04-.027.061-.015l5.613 3.14c.01.005.019.014.022.026.003.01.002.023-.004.033-.01.01-.024.016-.039.015zM126.957 62.11h-.023l-5.625-3.14c-.02-.014-.025-.04-.013-.06.011-.02.037-.027.059-.017l5.612 3.14c.01.004.019.014.022.025.004.012.002.024-.004.034-.007.009-.017.015-.028.017zM132.58 55.73h-.024l-5.612-3.14c-.011-.004-.02-.014-.022-.025-.004-.011-.002-.024.004-.034.012-.02.04-.028.061-.017l5.612 3.14c.021.012.028.039.016.06-.008.01-.022.017-.036.017zM178.038 59.148h-.023l-5.612-3.14c-.02-.012-.028-.038-.018-.06.006-.01.015-.018.027-.02.012-.004.024-.003.034.003l5.613 3.14c.02.013.027.039.015.06-.008.011-.022.018-.036.017zM185.538 55.73h-.023l-5.625-3.154c-.019-.013-.025-.039-.013-.059.012-.02.038-.028.06-.018l5.611 3.14c.011.005.02.014.023.026.003.011.002.023-.005.033-.003.015-.013.027-.028.033zM171.712 60.97h-.023l-5.612-3.139c-.011-.005-.02-.014-.023-.024-.003-.011-.002-.023.005-.033.005-.01.015-.018.026-.022.012-.003.025-.001.035.005l5.625 3.14c.02.012.027.038.015.059-.01.015-.03.021-.048.015zM136.798 57.325h-.022l-5.613-3.14c-.019-.013-.025-.038-.013-.058.012-.02.038-.028.06-.018l5.611 3.14c.011.005.02.014.023.025.003.012.002.024-.005.034-.01.012-.025.019-.04.017zM132.11 59.148h-.02l-5.613-3.14c-.02-.012-.027-.039-.015-.06.005-.01.015-.018.026-.02.012-.004.025-.003.035.003l5.612 3.14c.02.013.027.039.016.06-.01.013-.025.02-.041.017zM119.222 62.565c-.007.003-.014.003-.02 0l-5.613-3.14c-.01-.004-.018-.014-.02-.024-.003-.011-.001-.023.005-.032.005-.01.014-.019.025-.022.012-.003.024-.002.034.004l5.612 3.145c.02.013.027.039.015.06-.01.009-.024.013-.038.01zM109.615 62.11h-.023l-5.612-3.14c-.02-.013-.028-.04-.016-.06.006-.01.015-.017.026-.02.01-.004.023-.003.033.003l5.612 3.14c.02.012.027.038.016.059-.008.011-.022.018-.036.017zM112.66 67.578c-.006.002-.013.002-.02 0l-5.612-3.14c-.02-.013-.027-.039-.015-.06.005-.01.015-.017.026-.02.01-.003.023 0 .032.005l5.625 3.14c.021.013.028.039.016.06-.013.014-.033.02-.051.015zM103.061 46.163h-.023l-5.612-3.14c-.02-.013-.028-.038-.018-.06.013-.02.04-.026.061-.014l5.625 3.137c.02.013.028.039.016.06-.01.016-.03.023-.049.017zM102.584 41.835h-.02l-5.625-3.147c-.01-.005-.018-.014-.02-.025-.004-.011-.002-.023.004-.032.006-.01.016-.018.027-.022.012-.003.024-.001.035.005l5.612 3.14c.017.01.024.03.019.048-.005.019-.022.032-.042.033h.01zM97.431 26.117c-.007.002-.015.002-.023 0l-5.612-3.14c-.01-.005-.018-.014-.02-.025-.004-.01-.002-.022.005-.032.005-.01.015-.018.026-.022.012-.003.024-.001.035.005l5.607 3.137c.01.005.019.015.022.026.004.011.002.023-.004.034-.008.011-.022.018-.036.017zM117.816 21.79h-.023l-5.612-3.14c-.014-.008-.022-.022-.022-.037 0-.016.008-.03.022-.037.013-.008.03-.008.043 0l5.613 3.139c.02.013.027.039.015.06-.01.009-.022.014-.036.014zM96.492 11.537h-.02l-5.625-3.145c-.02-.012-.028-.038-.018-.06.012-.02.04-.028.061-.017l5.613 3.14c.02.013.027.039.015.06-.005.01-.014.019-.026.022zM90.87 17.005c-.008.002-.016.002-.023 0l-5.625-3.147c-.02-.013-.027-.039-.015-.06.013-.02.04-.026.06-.014l5.613 3.14c.011.005.02.014.022.025.004.012.002.024-.004.034-.006.01-.016.019-.028.022zM148.278 38.418h-.02l-5.613-3.14c-.02-.013-.027-.039-.015-.06.005-.01.015-.018.027-.021.011-.004.024-.002.034.004l5.613 3.14c.016.01.024.03.019.049-.006.018-.023.032-.042.033l-.003-.005zM146.872 45.253c-.006.002-.013.002-.02 0l-5.612-3.14c-.01-.006-.018-.015-.021-.027-.003-.01-.001-.023.005-.033.006-.01.015-.017.026-.02.012-.003.024 0 .033.005l5.625 3.14c.02.013.027.039.015.06-.01.016-.032.023-.05.015zM163.04 53.226c-.006.002-.013.002-.02 0l-5.612-3.14c-.01-.005-.018-.014-.02-.025-.003-.011-.001-.023.005-.032.005-.01.015-.018.027-.022.011-.003.024-.001.034.005l5.612 3.14c.02.012.028.038.016.059-.01.01-.026.016-.041.015zM161.87 45.024h-.023l-5.612-3.137c-.022-.012-.03-.038-.018-.06.005-.01.015-.018.027-.021.011-.003.024-.002.034.004l5.612 3.14c.02.013.028.039.016.06-.009.01-.022.016-.036.014zM73.763 58.238h-.023l-5.612-3.14c-.02-.013-.029-.038-.018-.06.013-.02.04-.026.06-.014l5.626 3.14c.02.012.027.038.015.059-.012.013-.03.02-.048.015zM118.52 84.206h-.023l-5.612-3.14c-.02-.013-.025-.039-.013-.059.012-.02.038-.027.06-.018l5.611 3.14c.011.005.02.015.023.026.003.011.001.023-.005.034-.009.013-.025.02-.04.017zM79.622 67.35H79.6l-5.612-3.14c-.01-.005-.018-.015-.02-.026-.003-.01-.001-.022.005-.031.005-.01.015-.019.027-.022.011-.003.024-.002.034.004l5.612 3.14c.011.005.02.015.023.026.003.011.001.023-.005.033-.01.012-.025.017-.04.015zM109.615 65.07h-.023l-5.612-3.14c-.02-.012-.028-.038-.016-.059.006-.01.015-.017.026-.02.011-.003.023-.001.033.005l5.612 3.14c.018.01.027.03.022.049-.006.019-.024.031-.045.03l.003-.005zM106.569 50.262c-.008.002-.016.002-.023 0l-5.612-3.14c-.011-.005-.02-.014-.023-.025-.003-.012-.001-.024.005-.034.013-.02.04-.027.061-.015l5.612 3.14c.018.009.027.03.022.048-.006.02-.024.032-.045.031l.003-.005zM131.888 57.325h-.023l-5.612-3.14c-.02-.013-.025-.038-.014-.058.012-.02.038-.028.06-.018l5.612 3.14c.01.005.019.014.022.025.003.012.002.024-.004.034-.01.012-.025.019-.041.017zM165.15 58.692h-.022l-5.613-3.14c-.01-.005-.019-.015-.022-.026-.003-.011-.002-.023.004-.034.014-.02.04-.026.062-.014l5.625 3.14c.018.009.027.029.021.048-.005.02-.024.032-.044.03l-.01-.004zM162.574 66.216c-.007.002-.016.002-.023 0l-5.625-3.14c-.014-.008-.022-.022-.022-.038 0-.015.01-.03.023-.037.014-.007.031-.007.045 0l5.612 3.14c.011.006.02.015.023.027.003.01.001.023-.005.033-.007.008-.017.013-.028.015zM167.26 52.998c-.007.002-.015.002-.023 0l-5.612-3.14c-.01-.005-.019-.014-.022-.025-.004-.01-.002-.022.004-.032.006-.01.015-.019.027-.022.011-.003.024-.002.034.005l5.613 3.14c.01.004.019.014.022.025.003.011.002.024-.005.034-.009.011-.023.017-.038.015zM152.964 39.784h-.02l-5.612-3.14c-.02-.012-.028-.038-.016-.059.013-.02.04-.027.062-.015l5.612 3.137c.01.006.019.015.022.026.004.012.002.024-.004.034-.01.013-.027.02-.044.017zM165.385 39.784h-.023l-5.612-3.14c-.01-.005-.019-.014-.022-.025-.004-.012-.002-.024.004-.034.013-.02.04-.027.061-.015l5.613 3.137c.02.013.027.04.015.06-.008.011-.022.018-.036.017zM133.283 34.09h-.023l-5.612-3.14c-.01-.005-.018-.014-.02-.025-.004-.01-.002-.022.005-.032.005-.01.015-.018.026-.021.012-.004.025-.002.035.004l5.612 3.14c.011.005.02.014.022.026.004.01.002.023-.004.033-.01.012-.026.017-.04.015zM114.77 34.318h-.023l-5.612-3.14c-.01-.005-.019-.014-.022-.025-.004-.012-.002-.024.004-.034.013-.02.04-.026.062-.015l5.617 3.132c.02.013.027.04.015.06-.009.014-.024.022-.04.022zM126.487 41.379h-.023l-5.612-3.14c-.01-.005-.019-.015-.022-.026-.004-.011-.002-.023.004-.033.006-.01.016-.018.027-.02.012-.003.024-.002.034.005l5.613 3.14c.018.009.027.029.021.048-.005.02-.024.032-.044.03l.002-.004zM95.321 17.231c-.007.002-.015.002-.023 0l-5.612-3.14c-.01-.005-.019-.014-.022-.026-.004-.01-.002-.023.004-.033.013-.02.04-.027.062-.015l5.625 3.14c.018.009.027.03.021.048-.005.02-.024.032-.044.031l-.01-.005zM122.503 62.11h-.02l-5.613-3.14c-.02-.013-.027-.04-.015-.06.005-.01.014-.017.025-.02.011-.004.023-.003.033.003l5.613 3.14c.02.012.027.038.015.059-.009.012-.023.019-.038.017zM116.645 67.803c-.007.002-.015.002-.023 0l-5.612-3.14c-.01-.005-.019-.014-.022-.025-.004-.012-.002-.024.004-.034.013-.02.04-.026.062-.015l5.612 3.14c.01.005.019.014.022.026.004.011.002.023-.004.033-.01.01-.024.016-.039.015zM111.255 68.716h-.023l-5.62-3.145c-.02-.013-.028-.038-.018-.06.006-.01.015-.018.027-.021.012-.003.024-.002.035.004l5.612 3.14c.02.013.027.039.015.06-.005.01-.015.02-.028.022zM112.426 76.005h-.02l-5.625-3.14c-.02-.013-.028-.039-.016-.06.006-.01.016-.017.028-.02.011-.003.023 0 .034.005l5.612 3.14c.02.012.028.037.018.057-.008.01-.019.016-.031.018zM72.592 84.206h-.023l-5.612-3.14c-.011-.005-.02-.014-.023-.026-.003-.011-.001-.023.005-.033.013-.02.039-.028.061-.018l5.612 3.14c.02.013.028.039.016.06-.008.011-.022.018-.036.017zM71.888 76.005h-.02l-5.626-3.14c-.02-.013-.027-.039-.015-.06.005-.01.015-.017.026-.02.011-.003.023 0 .033.005l5.625 3.14c.02.012.027.037.018.057-.01.012-.026.019-.041.018zM93.681 101.062c-.007.003-.015.003-.023 0l-5.612-3.14c-.01-.004-.019-.014-.022-.025-.004-.011-.002-.024.004-.034.013-.02.04-.026.061-.015l5.625 3.14c.018.01.027.03.022.049-.006.019-.024.032-.045.03l-.01-.005zM73.518 81.592c-.02 0-.04-.005-.059-.015l-14.286-7.973c-.054-.03-.073-.097-.042-.15.031-.053.1-.071.155-.041l14.285 7.973c.054.03.072.097.041.149-.018.034-.054.056-.094.057zM69.298 81.361c-.02 0-.039-.005-.056-.015l-14.285-7.973c-.027-.014-.047-.038-.055-.066-.008-.029-.004-.06.011-.085.032-.052.102-.07.156-.04l14.286 7.974c.046.023.07.075.056.124-.013.05-.06.083-.113.081zM70.704 88.196c-.02 0-.039-.005-.056-.015l-14.286-7.973c-.054-.03-.074-.098-.043-.151.015-.026.04-.044.07-.052.028-.007.06-.003.085.012L70.76 87.99c.047.024.07.076.057.125-.014.05-.06.083-.113.081zM70.704 94.8c-.02 0-.039-.005-.056-.014l-14.286-7.974c-.026-.013-.046-.037-.054-.065-.009-.028-.004-.058.01-.083.016-.026.04-.045.07-.052.03-.008.06-.003.086.012l14.286 7.97c.047.024.07.076.057.125-.014.05-.06.083-.113.082zM66.556 88.179c-.017 0-.034-.004-.048-.013l-12.245-6.832c-.046-.027-.061-.084-.036-.129.012-.022.033-.038.058-.045.025-.007.052-.004.075.008l12.245 6.835c.038.021.057.065.045.106-.011.041-.05.07-.094.07z" opacity=".5" transform="translate(-384 -238) translate(354 218) translate(30 20)"/>
                    <path fill="#CF3819" d="M68.495 91.73c-.017 0-.034-.004-.049-.012l-10.204-5.83c-.032-.017-.053-.049-.053-.084s.02-.068.052-.084c.032-.017.071-.014.1.006l10.205 5.828c.038.021.057.065.045.106-.01.042-.05.07-.094.07h-.002z" transform="translate(-384 -238) translate(354 218) translate(30 20)"/>
                    <path fill="#1C4CA4" d="M72.179 97.519c-.017 0-.034-.004-.049-.013l-12.245-6.832c-.023-.012-.04-.033-.046-.057-.007-.025-.003-.05.01-.072.013-.022.034-.039.06-.045.024-.007.051-.003.073.01l12.245 6.832c.023.012.04.033.047.057.006.025.002.05-.011.072-.017.03-.05.049-.084.048zM68.196 97.747c-.017 0-.033-.005-.048-.013L55.903 90.9c-.023-.012-.04-.033-.047-.058-.006-.025-.002-.051.011-.073.028-.044.086-.06.133-.035l12.245 6.835c.038.021.057.065.045.106-.01.042-.05.07-.094.07v.003z" opacity=".5" transform="translate(-384 -238) translate(354 218) translate(30 20)"/>
                    <path fill="#CF3819" d="M69.26 100.41c-.017 0-.033-.005-.048-.012L61.53 96.14c-.023-.013-.04-.033-.046-.058-.007-.024-.003-.05.01-.071.013-.022.034-.038.059-.044.025-.007.051-.004.074.009l7.68 4.258c.023.013.04.033.046.057.007.025.003.05-.01.072-.017.029-.05.047-.084.047z" transform="translate(-384 -238) translate(354 218) translate(30 20)"/>
                    <path fill="#1C4CA4" d="M114.827 84.761c-.016.005-.033.005-.049 0l-12.245-6.832c-.023-.012-.04-.032-.047-.057-.007-.024-.004-.05.009-.072.012-.022.033-.039.059-.045.025-.007.051-.003.074.01l12.244 6.833c.023.012.04.033.046.057.007.024.003.05-.01.072-.02.024-.05.037-.081.034zM115.765 76.334c-.017 0-.033-.004-.048-.012l-12.245-6.835c-.047-.026-.063-.084-.036-.129.027-.045.086-.06.133-.035l12.245 6.835c.038.022.057.065.045.107-.011.04-.05.07-.094.07zM87.41 111.188c-.015.004-.032.004-.048 0l-12.245-6.835c-.045-.026-.06-.083-.035-.129.012-.021.034-.037.059-.044.024-.006.051-.003.073.01l12.245 6.835c.038.02.057.064.046.106-.012.041-.05.07-.094.07v-.013zM84.309 105.693c-.013.002-.026.002-.039 0l-9.372-5.253c-.036-.02-.049-.064-.028-.1.02-.034.066-.046.102-.026l9.372 5.232c.032.015.048.05.04.083-.01.033-.04.055-.075.054v.01zM91.327 106.603c-.012.003-.025.003-.036 0l-9.373-5.233c-.017-.01-.03-.025-.035-.044-.005-.019-.003-.038.007-.055s.026-.03.046-.034c.02-.005.04-.002.056.009l9.373 5.23c.017.01.03.026.035.044.006.019.003.039-.007.056-.016.019-.041.029-.066.027zM87.59 109.336c-.013.003-.026.003-.039 0l-9.372-5.233c-.018-.01-.03-.025-.036-.044-.005-.019-.003-.039.008-.055.021-.034.066-.044.102-.025l9.372 5.233c.017.01.03.025.036.044.005.018.002.038-.008.055-.016.018-.04.027-.064.025zM95.321 99.314c-.012.002-.025.002-.038 0l-9.372-5.233c-.036-.02-.049-.064-.028-.099.02-.035.066-.047.102-.027l9.372 5.233c.032.015.048.049.04.082-.01.033-.04.055-.076.054v-.01zM90.87 104.098c-.013.002-.026.002-.038 0l-9.373-5.233c-.036-.02-.048-.064-.028-.099s.066-.047.102-.027l9.373 5.233c.031.015.047.049.039.082-.009.033-.04.055-.075.054v-.01z" opacity=".5" transform="translate(-384 -238) translate(354 218) translate(30 20)"/>
                    <path fill="#CF3819" d="M108.546 95.428c-.012.004-.024.004-.036 0l-7.367-4.082c-.017-.009-.03-.024-.035-.043-.006-.018-.003-.038.007-.054.01-.017.026-.03.045-.034.02-.006.04-.003.057.007l7.365 4.082c.017.009.03.024.035.042.005.019.003.038-.007.055-.015.02-.04.03-.064.027z" transform="translate(-384 -238) translate(354 218) translate(30 20)"/>
                    <path fill="#1C4CA4" d="M103.061 97.035c-.011.004-.024.004-.035 0l-9.375-5.233c-.017-.01-.03-.026-.035-.044-.004-.019-.001-.039.009-.055.01-.017.025-.03.044-.034.019-.006.039-.003.055.007l9.375 5.232c.017.01.03.026.035.045.004.019.001.038-.009.055-.015.02-.039.03-.064.027zM112.895 90.885c-.011.003-.024.003-.035 0l-9.375-5.233c-.017-.01-.03-.026-.034-.045-.005-.018-.002-.038.008-.054.02-.034.064-.046.1-.028l9.375 5.233c.017.01.029.026.034.045.005.018.001.038-.009.054-.014.02-.039.03-.064.028zM128.827 86.783c-.012.002-.024.002-.036 0l-9.373-5.233c-.023-.013-.037-.037-.037-.063 0-.026.013-.05.037-.063.023-.013.051-.013.074 0l9.373 5.232c.017.01.03.025.035.044.006.019.003.039-.007.055-.016.02-.041.03-.066.028zM85.245 111.848c-.012.002-.024.002-.036 0l-9.375-5.233c-.017-.01-.03-.026-.034-.044-.005-.019-.002-.039.009-.055.02-.034.064-.046.1-.027l9.374 5.233c.017.01.03.025.034.044.005.019.002.038-.008.055-.016.019-.04.029-.064.027zM73.528 105.896c-.022-.001-.044-.007-.064-.017L57.296 96.85c-.061-.034-.082-.11-.047-.17.035-.059.113-.08.174-.045l16.169 9.027c.061.034.083.109.048.169-.022.04-.065.065-.112.064z" opacity=".5" transform="translate(-384 -238) translate(354 218) translate(30 20)"/>
                    <path fill="#CF3819" d="M115.707 81.29c-.023 0-.045-.006-.064-.018l-12.263-6.887c-.046-.019-.078-.062-.08-.11-.003-.05.024-.095.069-.118.044-.023.098-.02.139.01l12.265 6.89c.06.035.081.11.046.17-.023.04-.066.063-.112.062zM119.005 89.528c-.022 0-.044-.005-.064-.015l-9.438-5.208c-.047-.019-.078-.062-.08-.11-.003-.05.024-.095.068-.118.045-.023.099-.02.14.01l9.438 5.208c.06.035.082.11.048.171-.024.038-.066.062-.112.062zM127.934 84.32c-.022 0-.044-.005-.064-.015l-14.334-7.958c-.04-.022-.065-.063-.065-.108 0-.044.025-.085.064-.108.04-.022.089-.022.128 0l14.334 7.956c.06.035.082.11.049.171-.024.038-.066.062-.112.062zM77.934 110.375c-.024 0-.048-.006-.07-.017l-13.775-7.572c-.069-.037-.094-.121-.056-.188.04-.068.127-.092.197-.055l13.775 7.571c.057.031.086.095.07.157-.017.06-.074.104-.139.104h-.002zM100.638 99.944c-.022-.001-.043-.007-.061-.017l-9.694-5.208c-.03-.016-.052-.042-.061-.073-.01-.032-.005-.065.012-.094.016-.028.043-.049.076-.058.032-.009.066-.005.095.011l9.694 5.208c.03.016.052.042.06.073.01.032.006.065-.012.094-.022.038-.064.063-.11.064z" transform="translate(-384 -238) translate(354 218) translate(30 20)"/>
                    <path fill="#1C4CA4" d="M114.6 95.232c-.015 0-.029-.005-.041-.012l-10.61-5.923c-.037-.024-.048-.071-.026-.109.022-.037.07-.051.11-.032l10.61 5.922c.034.018.051.057.041.094-.01.037-.045.061-.085.06zM104.76 95.683c-.014.004-.029.004-.043 0l-10.61-5.932c-.037-.024-.048-.072-.026-.109.022-.037.07-.051.11-.032l10.61 5.922c.04.023.054.073.03.112-.014.024-.042.04-.07.04zM105.462 99.785c-.015 0-.029-.005-.041-.012L94.81 93.85c-.037-.024-.048-.072-.026-.11.022-.037.07-.05.11-.032l10.61 5.923c.039.023.052.072.03.111-.014.027-.042.043-.073.042zM119.99 92.95c-.014.004-.028.004-.041 0l-10.61-5.922c-.04-.023-.054-.074-.03-.114.024-.038.074-.05.114-.03l10.61 5.925c.032.02.047.056.037.091-.01.035-.043.06-.08.06v-.01zM97.026 105.936c-.014.002-.028.002-.041 0l-10.61-5.925c-.028-.014-.046-.041-.047-.072 0-.03.016-.058.044-.073.027-.015.061-.013.087.004l10.61 5.922c.034.018.051.057.041.093-.01.037-.045.062-.084.06v-.01zM124.676 88.851c-.013.003-.027.003-.04 0l-10.605-5.935c-.028-.013-.047-.04-.047-.071 0-.03.016-.06.044-.074.027-.014.06-.013.087.004l10.61 5.922c.038.024.052.073.03.112-.015.028-.046.045-.079.042zM112.023 77.46c-.013.004-.027.004-.04 0l-10.61-5.922c-.029-.013-.047-.041-.047-.072 0-.03.016-.058.043-.073.028-.015.062-.013.088.004l10.607 5.922c.02.01.034.028.04.049.006.021.004.044-.007.063-.018.021-.046.033-.074.03z" opacity=".5" transform="translate(-384 -238) translate(354 218) translate(30 20)"/>
                    <path fill="#CF3819" d="M50.564 56.604c-.033 0-.064-.009-.092-.025L29.882 45.17c-.09-.05-.121-.16-.07-.248.05-.088.164-.119.254-.07l20.592 11.408c.074.042.11.126.088.207-.022.08-.097.135-.182.136z" transform="translate(-384 -238) translate(354 218) translate(30 20)"/>
                    <path fill="#1C4CA4" d="M64.883 60.894c-.026 0-.052-.007-.074-.02l-18.77-10.478c-.071-.04-.095-.13-.054-.198.04-.07.13-.094.201-.055l18.77 10.48c.072.04.097.13.057.199-.028.044-.077.071-.13.072z" opacity=".5" transform="translate(-384 -238) translate(354 218) translate(30 20)"/>
                    <path fill="#CF3819" d="M65.092 59.108c-.033 0-.064-.008-.092-.024L41.327 45.88c-.086-.053-.113-.161-.062-.246.05-.085.16-.117.25-.071l23.671 13.213c.076.04.113.125.09.206-.022.08-.098.136-.184.134v-.008z" transform="translate(-384 -238) translate(354 218) translate(30 20)"/>
                    <path fill="#1C4CA4" d="M81.73 64.577c-.033 0-.065-.009-.092-.025L57.969 51.336c-.09-.05-.12-.162-.067-.25.052-.086.167-.116.256-.065l23.666 13.211c.074.042.11.126.088.206-.023.08-.097.136-.182.136v.003z" opacity=".5" transform="translate(-384 -238) translate(354 218) translate(30 20)"/>
                    <path fill="url(#z6d29dg9pw)" d="M192.584 31.717c-.049-.19-.183-.347-.365-.43-.464-.249-1.021-.27-1.505-.059L167.99 43.77c-.154.068-.254.217-.255.381v2.42c.017.22.158.412.367.497.463.252 1.022.274 1.505.06l22.725-12.54c.13-.062.224-.179.255-.317v-2.48c0-.025 0-.05-.003-.074z" transform="translate(-384 -238) translate(354 218) translate(30 20)"/>
                    <path fill="url(#otl0qg099b)" d="M188.574 35.93c-.037-.147-.142-.27-.283-.332-.36-.195-.793-.213-1.169-.047l-17.66 9.746c-.12.054-.199.17-.202.298v1.882c.01.173.122.325.286.392.36.194.793.211 1.168.047l17.661-9.746c.103-.048.177-.14.199-.248V36c.003-.023.003-.047 0-.07z" transform="translate(-384 -238) translate(354 218) translate(30 20)"/>
                    <path fill="url(#nvpez782dt)" d="M185.003 34.194c-.038-.147-.142-.27-.284-.332-.36-.195-.793-.213-1.168-.047l-17.66 9.746c-.121.054-.2.17-.202.298v1.882c.01.173.121.325.285.392.36.194.794.211 1.169.047l17.66-9.746c.104-.048.177-.14.2-.248v-1.922c.002-.023.002-.047 0-.07z" transform="translate(-384 -238) translate(354 218) translate(30 20)"/>
                    <path fill="url(#xbejr6zmxi)" d="M184.76 32.034c-.052-.21-.2-.385-.403-.476-.513-.276-1.13-.301-1.666-.067l-17.199 9.615c-.173.074-.284.24-.285.424v2.683c.015.247.173.463.408.558.513.278 1.13.303 1.666.067l17.196-9.622c.147-.067.252-.198.283-.352v-2.736c.005-.03.005-.063 0-.094z" transform="translate(-384 -238) translate(354 218) translate(30 20)"/>
                    <path fill="url(#a8kv132abx)" d="M142.857 61.008c-.049-.19-.183-.347-.365-.429-.462-.251-1.02-.274-1.502-.062l-22.75 12.5c-.155.068-.255.218-.255.384v2.423c-.016.17.11.36.367.496.462.25 1.02.274 1.503.062l22.74-12.515c.131-.061.226-.18.254-.32v-2.48c.006-.019.008-.039.008-.059z" transform="translate(-384 -238) translate(354 218) translate(30 20)"/>
                    <path fill="url(#o7bm278v9y)" d="M98.214 69.688c-.049-.19-.183-.347-.365-.429-.462-.251-1.02-.274-1.502-.062l-22.75 12.5c-.155.068-.255.218-.255.384v2.423c-.015.17.11.36.367.496.463.25 1.02.274 1.503.062l22.74-12.515c.131-.061.226-.18.255-.32v-2.48c.005-.019.007-.039.007-.059z" transform="translate(-384 -238) translate(354 218) translate(30 20)"/>
                    <path fill="url(#0wdswv3njz)" d="M96.684 83.328c-.05-.19-.183-.347-.365-.429-.462-.251-1.02-.274-1.503-.062l-22.75 12.5c-.155.068-.254.218-.255.384v2.423c-.015.17.11.36.368.496.462.25 1.02.274 1.502.062l22.74-12.515c.132-.061.226-.18.255-.32v-2.48c.005-.019.008-.039.008-.059z" transform="translate(-384 -238) translate(354 218) translate(30 20)"/>
                    <path fill="url(#47bkxncraA)" d="M95.408 86.304c-.049-.19-.183-.347-.365-.429-.462-.251-1.02-.274-1.502-.062l-22.75 12.5c-.155.068-.255.218-.255.384v2.423c-.016.17.11.36.367.496.462.25 1.02.274 1.503.062l22.74-12.515c.131-.061.226-.18.255-.32v-2.48c.005-.019.007-.039.007-.059z" transform="translate(-384 -238) translate(354 218) translate(30 20)"/>
                    <path fill="url(#3w1dwcaslB)" d="M101.276 65.472c-.05-.19-.183-.347-.365-.429-.463-.251-1.02-.274-1.503-.062l-22.75 12.5c-.155.068-.254.218-.255.384v2.423c-.015.17.11.36.367.496.463.25 1.02.274 1.503.062l22.74-12.515c.132-.061.226-.18.255-.32v-2.48c.005-.019.008-.039.008-.059z" transform="translate(-384 -238) translate(354 218) translate(30 20)"/>
                    <path fill="url(#w8qr2gsvzC)" d="M90.34 80.416c-.035-.142-.136-.261-.274-.322-.35-.191-.772-.209-1.137-.047l-17.184 9.456c-.117.051-.192.163-.194.288v1.828c.009.168.116.316.276.382.35.188.771.206 1.137.047l17.179-9.464c.102-.047.175-.14.194-.248v-1.87c.003-.016.004-.033.002-.05z" transform="translate(-384 -238) translate(354 218) translate(30 20)"/>
                    <path fill="url(#9jubr2g4bD)" d="M153.571 66.96c-.048-.19-.182-.347-.364-.429-.463-.251-1.02-.274-1.503-.062l-22.75 12.5c-.155.068-.254.218-.255.384v2.423c-.015.17.11.36.367.496.463.25 1.02.274 1.503.062l22.74-12.515c.132-.061.226-.18.255-.32v-2.48c.005-.019.007-.039.007-.059z" transform="translate(-384 -238) translate(354 218) translate(30 20)"/>
                    <path fill="url(#zaww04pvmE)" d="M141.64 78.844c-.036-.146-.14-.269-.28-.332-.36-.196-.795-.214-1.171-.05l-17.671 9.727c-.12.053-.199.169-.202.297v1.883c.01.173.122.325.286.392.36.195.793.212 1.168.047l17.671-9.724c.103-.048.178-.14.202-.248v-1.922c.002-.024 0-.047-.003-.07z" transform="translate(-384 -238) translate(354 218) translate(30 20)"/>
                    <path fill="url(#7ygwfvfzcF)" d="M135.518 62.471c-.037-.148-.141-.271-.283-.335-.36-.195-.794-.212-1.169-.047l-17.67 9.724c-.121.054-.2.17-.202.298v1.882c.01.173.12.326.286.392.359.196.792.214 1.168.05l17.67-9.727c.104-.047.178-.14.2-.248v-1.924c.003-.022.003-.043 0-.065z" transform="translate(-384 -238) translate(354 218) translate(30 20)"/>
                    <path fill="url(#x6pysfaw9G)" d="M134.515 61.303c-.055-.209-.202-.383-.403-.476-.514-.277-1.132-.302-1.668-.067l-17.21 9.593c-.172.075-.284.24-.288.424v2.68c.014.247.172.464.406.559.512.279 1.13.305 1.666.069l17.212-9.593c.146-.067.251-.197.283-.352V61.4c.003-.032.004-.065.002-.097z" transform="translate(-384 -238) translate(354 218) translate(30 20)"/>
                    <path fill="url(#zlwqn105xH)" d="M96.25 65.023c-.055-.209-.203-.383-.403-.476-.514-.277-1.133-.302-1.668-.067l-17.21 9.593c-.172.075-.285.24-.288.424v2.68c.014.247.172.464.406.559.512.279 1.13.305 1.666.069l17.211-9.593c.147-.067.252-.197.283-.352v-2.74c.004-.032.005-.065.003-.097z" transform="translate(-384 -238) translate(354 218) translate(30 20)"/>
                    <path fill="url(#kzuurdls8I)" d="M94.464 67.255c-.055-.209-.202-.383-.403-.476-.514-.277-1.132-.302-1.668-.067l-17.21 9.593c-.172.075-.284.24-.288.424v2.68c.014.247.172.464.406.559.512.279 1.13.305 1.666.069l17.212-9.593c.146-.067.251-.197.283-.352v-2.74c.003-.032.004-.065.002-.097z" transform="translate(-384 -238) translate(354 218) translate(30 20)"/>
                    <path fill="url(#ckbuf51t0J)" d="M91.913 76.927c-.055-.209-.202-.383-.403-.476-.514-.277-1.132-.302-1.668-.067l-17.21 9.593c-.172.075-.284.24-.288.424v2.68c.014.247.172.464.406.559.512.279 1.13.305 1.666.069l17.212-9.593c.146-.067.251-.197.283-.352v-2.74c.003-.032.004-.065.002-.097z" transform="translate(-384 -238) translate(354 218) translate(30 20)"/>
                    <path fill="url(#mgkq6lshcK)" d="M89.617 83.871c-.055-.209-.202-.383-.403-.476-.514-.277-1.132-.302-1.668-.067l-17.21 9.593c-.172.075-.284.24-.288.424v2.68c.014.247.172.464.406.559.512.279 1.13.305 1.666.069l17.212-9.593c.146-.067.251-.197.283-.352v-2.74c.003-.032.004-.065.002-.097z" transform="translate(-384 -238) translate(354 218) translate(30 20)"/>
                    <path fill="url(#er861msobL)" d="M95.153 61.9c-.042-.167-.16-.307-.321-.379-.41-.223-.906-.245-1.335-.057l-13.775 7.688c-.138.06-.227.193-.23.34v2.148c-.012.154.097.317.324.446.411.222.906.242 1.335.055l13.775-7.688c.116-.055.2-.158.227-.28v-2.195c.005-.026.005-.052 0-.077z" transform="translate(-384 -238) translate(354 218) translate(30 20)"/>
                </g>
            </g>
        </g>
    </g>
</svg>
