<?xml version="1.0" encoding="utf-8"?>
<!-- Generator: Adobe Illustrator 24.2.1, SVG Export Plug-In . SVG Version: 6.00 Build 0)  -->
<svg version="1.1" id="圖層_1" xmlns="http://www.w3.org/2000/svg" xmlns:xlink="http://www.w3.org/1999/xlink" x="0px" y="0px"
	 viewBox="0 0 664.4 226" style="enable-background:new 0 0 664.4 226;" xml:space="preserve">
<style type="text/css">
	.st0{fill:#FFFFFF;}
	.st1{opacity:0.82;fill:url(#SVGID_1_);}
	.st2{opacity:0.21;fill:#FFFFFF;}
	.st3{opacity:0.82;fill:url(#SVGID_2_);}
	.st4{opacity:0.82;fill:url(#SVGID_3_);}
	.st5{fill:#C4391D;}
</style>
<g>
	<g>
		<g>
			<path class="st0" d="M195,12.1c-4.3-3.3-9.9-6.5-16.9-8.1c-18.2-4.1-38.2,4.1-50.7,20.9l0,0l0,0v0c21-3.5,34.4,1.5,41.1,4.8
				c13.9,6.9,24.7,19.7,31.6,36.5c5.7,14,8.6,30.7,8.1,48.9c0,0.5,0,1-0.1,1.6c-0.2,6.1-0.8,12.3-1.9,18.6
				c-0.8,5.1-1.9,10.2-3.2,15.4c0,0,0,0,0,0s13.5-38.3,13.7-76.8c0.1-15-1.8-30-7.3-42.8C204.8,20.7,198,14.4,195,12.1z"/>
			<linearGradient id="SVGID_1_" gradientUnits="userSpaceOnUse" x1="242.7996" y1="26.5748" x2="185.8832" y2="71.4327">
				<stop  offset="0" style="stop-color:#FFFFFF;stop-opacity:0"/>
				<stop  offset="0.4844" style="stop-color:#6B6B6B;stop-opacity:0.8"/>
				<stop  offset="1" style="stop-color:#FFFFFF;stop-opacity:0"/>
			</linearGradient>
			<path class="st1" d="M127.4,24.9L127.4,24.9L127.4,24.9L127.4,24.9L127.4,24.9L127.4,24.9c21-3.5,34.4,1.5,41.1,4.8
				c13.9,6.9,24.7,19.7,31.6,36.5c5.7,14,8.6,30.7,8.1,48.9c0,0.5,0,1-0.1,1.6c-0.2,6.1-0.8,12.3-1.9,18.6
				c-0.8,5.1-1.9,10.2-3.2,15.4c0,0,0,0,0,0s13.5-38.3,13.7-76.8C213-6.3,127.4,24.9,127.4,24.9z"/>
			<path class="st2" d="M216.7,73.8c0.1-15-1.8-30-7.3-42.8c-4.5-10.3-11.4-16.6-14.4-19c-4.3-3.3-9.9-6.5-16.9-8.1
				c-18.2-4.1-38.2,4.1-50.7,20.9C127.4,24.9,213-6.3,216.7,73.8z"/>
		</g>
		<g>
			<path class="st0" d="M179.2,219.9c5.1-2,10.7-5.2,15.6-10.4c12.7-13.4,15.3-34.5,6.7-53.5l0,0l0,0c0,0,0,0,0,0
				c-7.3,19.6-18.4,28.6-24.6,32.6c-13,8.4-29.8,11.2-48,8.8c-15.2-2.1-31.4-7.9-47.3-17.4c-0.5-0.3-0.9-0.6-1.4-0.8
				c-5.2-3.2-10.5-6.8-15.6-10.8c-4.1-3.2-8.1-6.7-12.1-10.4l0,0c0,0,27.2,30.5,61.2,49.8c13.2,7.5,27.5,13.4,41.6,15
				C166.6,224,175.6,221.3,179.2,219.9z"/>
			<linearGradient id="SVGID_2_" gradientUnits="userSpaceOnUse" x1="133.2864" y1="191.0447" x2="142.9772" y2="242.8904">
				<stop  offset="0" style="stop-color:#FFFFFF;stop-opacity:0"/>
				<stop  offset="0.5067" style="stop-color:#6B6B6B;stop-opacity:0.7"/>
				<stop  offset="1" style="stop-color:#FFFFFF;stop-opacity:0"/>
			</linearGradient>
			<path class="st3" d="M201.4,156.1L201.4,156.1L201.4,156.1L201.4,156.1L201.4,156.1C201.4,156.1,201.4,156.1,201.4,156.1
				c-7.3,19.6-18.4,28.6-24.6,32.6c-13,8.4-29.8,11.2-48,8.8c-15.2-2.1-31.4-7.9-47.3-17.4c-0.5-0.3-0.9-0.6-1.4-0.8
				c-5.2-3.2-10.5-6.8-15.6-10.8c-4.1-3.2-8.1-6.7-12.1-10.4l0,0c0,0,27.2,30.5,61.2,49.8C186.5,244.4,201.4,156.1,201.4,156.1z"/>
			<path class="st2" d="M113.7,207.7c13.2,7.5,27.5,13.4,41.6,15c11.4,1.2,20.3-1.5,23.9-2.8c5.1-2,10.7-5.2,15.6-10.4
				c12.7-13.4,15.3-34.5,6.7-53.5C201.4,156.1,186.5,244.4,113.7,207.7z"/>
		</g>
		<g>
			<path class="st0" d="M3.5,102.3c-0.8,5.3-0.8,11.7,1.3,18.4c5.5,17.5,22.8,30.3,43.9,32.5h0v0h0c-13.6-16-16-29.9-16.4-37.2
				c-0.9-15.2,5-30.9,16.4-45.1C58.1,59,71.4,48.2,87.7,39.5c0.5-0.2,0.9-0.5,1.4-0.7c5.5-2.8,11.3-5.4,17.4-7.8
				c4.9-1.9,10-3.5,15.2-5c0,0,0,0,0,0s-40.6,7.8-74.7,26.9C33.8,60.3,21.5,69.5,13,80.6C6.2,89.6,4.1,98.6,3.5,102.3z"/>
			<linearGradient id="SVGID_3_" gradientUnits="userSpaceOnUse" x1="44.3301" y1="103.751" x2="4.2152" y2="120.384">
				<stop  offset="0" style="stop-color:#FFFFFF;stop-opacity:0"/>
				<stop  offset="0.5022" style="stop-color:#6B6B6B;stop-opacity:0.7"/>
				<stop  offset="1" style="stop-color:#FFFFFF;stop-opacity:0"/>
			</linearGradient>
			<path class="st4" d="M48.7,153.2L48.7,153.2L48.7,153.2L48.7,153.2L48.7,153.2L48.7,153.2c-13.6-16-16-29.9-16.4-37.2
				c-0.9-15.2,5-30.9,16.4-45.1C58.1,59,71.4,48.2,87.7,39.5c0.5-0.2,0.9-0.5,1.4-0.7c5.5-2.8,11.3-5.4,17.4-7.8
				c4.9-1.9,10-3.5,15.2-5c0,0,0,0,0,0s-40.6,7.8-74.7,26.9C-21.8,96.2,48.7,153.2,48.7,153.2z"/>
			<path class="st2" d="M47.1,52.9C33.8,60.3,21.5,69.5,13,80.6c-6.8,9-8.9,18-9.5,21.7c-0.8,5.3-0.8,11.7,1.3,18.4
				c5.5,17.5,22.8,30.3,43.9,32.5C48.7,153.2-21.8,96.2,47.1,52.9z"/>
		</g>
		<g>
			<g>
				<rect x="66.2" y="86.4" class="st5" width="10.7" height="9.9"/>
				<path class="st0" d="M69.4,103.6c-1.6,0-3,1.3-3,2.8v37.2h6.1h1.2c1.6,0,3-1.3,3-2.8v-5.1v-32.1H69.4z"/>
			</g>
			<g>
				<path class="st0" d="M131.9,94.5v-6.4c0-1.6-1.3-2.8-3-2.8H91.5v58.4h7.8c0,0,0,0,0.1,0c0,0,0,0,0.1,0c1.6,0,2.9-1.2,2.9-2.7
					c0,0,0,0,0-0.1c0,0,0,0,0-0.1V121h25.8v-6.4c0,0,0,0,0-0.1c0,0,0,0,0-0.1c0-1.5-1.3-2.7-2.9-2.7c0,0,0,0-0.1,0c0,0,0,0-0.1,0
					h-22.7V94.5H131.9z"/>
				<path class="st0" d="M188,94.6v-6.5c0-1.6-1.3-2.8-3-2.8h-16.4h-10.9h-19.4v6.4c0,0,0,0.1,0,0.1c0,0,0,0.1,0,0.1
					c0,1.5,1.3,2.7,2.9,2.7c0,0,0,0,0,0c0,0,0,0,0,0h16.4V95h0v48.6h7.7c0.1,0,0.1,0,0.2,0c0.1,0,0.1,0,0.2,0
					c1.6-0.1,2.8-1.3,2.8-2.8c0,0,0,0,0,0c0,0,0,0,0,0V94.6H188z"/>
			</g>
		</g>
	</g>
	<g>
		<g>
			<path class="st0" d="M304.1,172.3l-5.9-2.9l-0.1,0.3c-0.9,3.6-2.3,6.7-4.4,9.6l-0.2,0.2l2.9,1.6l0.1,0.1l0.1-0.1
				c2.8-2.2,5.2-4.8,7-6.8c0.6-0.2,1.3-0.5,1.3-1C304.9,172.8,304.5,172.6,304.1,172.3l-0.1,0.2l0,0L304.1,172.3z"/>
			<path class="st0" d="M264.8,209.2h6.6v-2.3h24.5v2.3h6.7V187h-37.9V209.2z M271.4,195.4V190h24.5v5.4H271.4z M295.9,198.4v5.6
				h-24.5v-5.6H295.9z"/>
			<path class="st0" d="M292.5,168.8h15.6v-3h-16c1.1-0.7,2.7-1.7,6.5-4.8c0.9-0.3,1.5-0.5,1.5-1.2c0-0.4-0.5-0.6-1-0.8l-6-2.3
				l-0.1,0.2c-0.8,2.1-2.9,5.3-4.5,6.9l-0.2,0.2l3,1.7h-16l5-2.8l-0.2-0.2c-2.5-2.4-8.4-5.7-9.1-6.1l-0.1-0.1l-2.9,2.2l0.3,0.3
				c2.7,2.9,4.4,5.2,5.4,6.7h-14.3v3h15.4v12.4h-6.4l5.1-3.6l0.2-0.1l-0.1-0.2c-2-3.1-5.9-6.6-7.7-7.9l-0.1-0.1l-2.8,1.8l0.1,0.2
				c2.2,3.1,2.8,4.6,5,9.8l0.1,0.2h-11.8v2.9h54.4v-2.9h-18.2V168.8z M286.3,168.8v12.4H281v-12.4H286.3z"/>
			<path class="st0" d="M378.7,199.8v-3h-10.2v-5.9h7.6v-3h-7.6v-5.6h7.6v-2.9h-7.6v-5.6h9.5v-3h-10.4c1.1-1.2,4.2-4.6,4.2-5.1
				c0-0.4-0.3-0.6-0.8-0.8l-5.3-1.6l-0.2-0.1l-0.1,0.2c-0.8,3.4-1.2,4.7-2.2,7.3h-7c1.5-2.2,2-3.1,2.7-4.2c0.3-0.2,0.7-0.5,0.7-0.9
				c0-0.5-0.5-0.8-0.8-0.9l-5.7-1.8l0,0.3c-1.1,6.2-4.7,11.7-8.1,16.3l-0.1,0.2l2,1.9l0.2-0.2c0.9-0.8,1.7-1.7,3.3-3.4v21.7H378.7z
				 M356.5,179.3v-5.6h6v5.6H356.5z M356.5,187.9v-5.6h6v5.6H356.5z M356.5,196.8v-5.9h6v5.9H356.5z"/>
			<path class="st0" d="M334.6,178.5l0.1,0.1c4.2,4,5.7,5.8,6.8,7.5l0.2,0.3l3.8-4.1l0.2-0.2l-0.2-0.2c-2.4-1.9-4.6-3.4-8.7-5.6
				l-0.2-0.1L334.6,178.5v-16.1h44.6v-3h-51v49.2h6.4v-2.4h45.7v-3h-45.7V178.5z"/>
			<path class="st0" d="M348.1,169.5c-3.8-2.9-8.2-5.1-9.1-5.5l-0.2-0.1l-2,2.1l0.2,0.2c1.5,1.4,4.4,3.9,7,7.4l0.2,0.2l4.1-4.2
				L348.1,169.5z"/>
			<path class="st0" d="M346.3,183.8c-1.4,2.4-6.5,10.3-10.4,14.1l-0.2,0.2l3.9,3c0.3,0.3,0.6,0.4,0.8,0.4c0.5,0,0.6-0.5,0.6-1.2
				l0-0.1c2.3-3.2,6.5-10.8,7.7-13.9l0.1-0.1l-2.4-2.7L346.3,183.8z"/>
			<path class="st0" d="M434.4,189.9l-0.1,0.3c-0.3,1.2-1.7,5.5-5.9,11.3l-0.1,0.2l2.8,1.8l0.1,0.1l0.1-0.1c2.6-2,7-6.2,9-8.5
				l0.1-0.1c1-0.6,1.1-0.7,1.1-1c0-0.4-0.4-0.7-0.5-0.8L434.4,189.9z"/>
			<path class="st0" d="M427.6,157.3l-0.1-0.1h-8.4l-0.1,0.1c-4.1,8.3-9.8,15.2-24.4,21.9l-0.3,0.1l2.4,2.2l0.1,0.1l0.1,0
				c5-1.8,9.2-3.8,12.7-5.9v2.8h10.2v7.4h-17.5v2.9h17.5v15.1h-22.9v2.9h52.3v-2.9h-22.7v-15.1h17.4v-2.9h-17.4v-7.4h10.3v-2.7
				c3.7,2.3,7.7,4.2,12.3,6l0.2,0.1l2.2-2.7l-0.3-0.1C442.2,175.1,433.2,169.7,427.6,157.3z M409.9,175.5c6.5-4,10.6-8.3,13.2-11.7
				c4.3,5.2,8.5,8.8,13.2,11.7H409.9z"/>
			<path class="st0" d="M411.6,203.7l6.3-3.2l-0.2-0.2c-3.9-5.3-9.1-9.3-9.7-9.7l-0.1-0.1l-2.7,2l0.1,0.2c4.1,5.7,5.4,8.9,6.1,10.6
				L411.6,203.7z"/>
			<path class="st0" d="M515.9,192.2l-0.1-0.2l-3.1,0.9l0.1,0.2c0.7,2.5,0.9,3.5,1.5,6.3c-0.8,0.2-2.7,0.7-3.6,1v-9.9h7.6v-22.9
				h-7.6v-7.8c0.3-0.6,0.5-1.1,0.5-1.5c0-0.5-0.5-0.9-1.2-0.9l-5.9-0.2l0.1,0.3c0.3,1.3,0.4,1.9,0.4,3.7v6.3H497v22.9h7.7V202
				c-4,0.9-6.1,1.3-8.4,1.7l-0.4,0.1l1.8,4.4c0.1,0.3,0.5,0.7,0.9,0.7c0.5,0,0.9-0.5,1.4-0.9c5.3-1.7,10.3-3.6,15.1-5.5
				c0.3,2.1,0.5,3.9,0.6,5.1c0,0.3,0.1,0.6,0.1,0.8l0,0.3l5.7-2.7l-0.1-0.2C520.3,202.3,519,198.3,515.9,192.2z M510.8,187.5v-17
				h2.3v17H510.8z M504.6,170.6v17h-2.2v-17H504.6z"/>
			<path class="st0" d="M467.4,209.3h5.6v-16.4l1.4,1.2l0.2-0.1c4.2-3.4,5.4-8.1,5.7-10.2h1.4v4.8c0,3.8,0.7,3.9,4.5,3.9h3.3v11.8
				c0,1.5,0,1.7-0.8,1.7c-0.6,0-2.2-0.1-4-0.4l-0.4-0.1l1.3,3.3h4.7c4.6,0,4.8-0.9,4.8-4.6v-23.4h-27.6V209.3z M489.5,183.8v5.8
				h-1.6c-1.8,0-1.8-0.1-1.8-1.4v-4.3H489.5z M475.9,183.8c-0.3,3.1-1.7,6-2.8,7.4v-7.4H475.9z"/>
			<polygon class="st0" points="488.9,194.6 473.6,194.6 473.6,197.5 478.1,197.5 478.1,207 483.8,207 483.8,197.5 488.9,197.5 			
				"/>
			<rect x="465.5" y="159.6" class="st0" width="31.1" height="2.9"/>
			<path class="st0" d="M493,177.5v-11.6h-23.5v11.6H493z M487,168.8v5.7h-11.4v-5.7H487z"/>
			<path class="st0" d="M569.2,186.4l0.2,0.3l4.1-5.3l-0.1-0.1c-2.3-2.4-4.1-3.7-10.1-7.7l-0.2-0.1l-1.8,2.4l-0.1,0.2l0.1,0.1
				C563.8,178.5,567.6,183.3,569.2,186.4z"/>
			<path class="st0" d="M570,173l0.2,0.3l4.1-4.7l0.1-0.2l-0.2-0.2c-3.8-3.8-8.4-6.2-10-7l-0.3-0.2l-1.7,2.3l0.2,0.1
				C565.5,166.5,567.1,168.7,570,173z"/>
			<path class="st0" d="M560.4,189l-0.1-0.2c-5.3-5.4-7.5-11.5-8-13.3v-1.1h7.4v-2.9h-7.4v-8.3l0.2,0c1.1-0.1,3-0.4,5.7-0.8
				c0.6,0.2,0.9,0.3,1.3,0.3c0.7,0,0.8-0.5,0.8-0.7c0-0.3-0.1-0.6-0.5-0.9l-3.4-3.9l-0.2,0.1c-4.7,3-16.8,3.8-20.7,3.9l-0.4,0l1.4,3
				l0.1,0.1h0.2c2.7,0,5.7-0.1,9-0.4v7.6h-10.2v2.9h9.8c-1.9,8.1-5.8,15.5-11,20.7l-0.2,0.2l2,2.2l0.2-0.2c3.2-2.9,6.6-6.1,9.3-10.5
				v22.3h6.5V185c1.2,1.6,3.1,3.8,6.1,6.3l0.2,0.2L560.4,189z"/>
			<path class="st0" d="M582.9,186.3v-26.7c0.3-0.4,0.6-0.9,0.6-1.3c0-0.7-0.8-0.7-1.1-0.7c0,0,0,0,0,0l-5.9-0.2l-0.3,0l0.1,0.4
				c0.2,0.7,0.3,1.2,0.3,3.2v27.3l-17.9,5.3l-0.2,0.1l1.1,2.9l17-5.1v17.8h6.3v-19.7l8-2.4l-1-2.8L582.9,186.3z"/>
			<path class="st0" d="M626.5,183.6l-0.4-3.2l-0.3,0.2c-2.6,1.4-3.4,1.7-5.7,2.8l-0.2,0.1v-11.1h6.1v-2.9h-6.1v-9.7
				c0.2-0.4,0.5-1,0.5-1.3c0-0.5-0.4-0.7-1-0.7l-6-0.3l0,0.3c0.2,1.3,0.2,2.7,0.2,4v7.8h-7.9v2.9h7.9v13.9c-0.2,0.1-0.4,0.2-0.8,0.3
				c-1.7,0.6-5.2,1.9-8,2.6l-0.2,0.1l1.5,4.9c0.1,0.4,0.4,0.7,0.7,0.7c0.4,0,0.8-0.4,1.2-1.2c2.2-1,2.9-1.4,4.3-2.1l1.2-0.6v12.9
				c0,1.8-0.1,2.2-1.5,2.2c-1,0-2.3-0.2-3.9-0.5l-0.3-0.1l0.7,3.6h6.4c5.1,0,5.1-1.6,5.1-5.4v-16.2c1.8-1,4.2-2.3,6.5-3.7
				L626.5,183.6z"/>
			<path class="st0" d="M660.8,206.2c-4-1.2-9.2-3-13.8-6.9c4-4.4,8.8-10.7,10-20.6l0-0.3H646v-9.2H660v-3H646v-6.5l0.1-0.1
				c0.3-0.4,0.6-0.7,0.6-1.2c0-0.5-0.4-0.8-0.9-0.8l-6.8-0.3l0.1,0.6c0.2,0.8,0.4,1.9,0.4,3.2v5.1h-13.1v3h13.1v9.2H628v3h21.5
				c-0.9,5.1-2.9,9.7-6.2,14c-2.7-3.5-4.6-8.1-5.2-12.7l0-0.3l-6.3,1.7l0,0.2c1.5,7.7,6.1,13.1,7.7,14.8c-2.5,2-7.9,5.5-16.3,7.4
				l-0.3,0.1l1.8,2.8l0.2,0c9.8-2,15.5-5.4,18.2-7.3c2,1.6,7.2,5.1,15.7,7l0.1,0l2.1-2.8L660.8,206.2z"/>
		</g>
		<g>
			<g>
				<rect x="256" y="22.7" class="st5" width="19.7" height="18.6"/>
				<rect x="256.3" y="55.1" class="st0" width="18.9" height="75"/>
			</g>
			<polygon class="st0" points="376.8,130.1 396.8,130.1 396.8,87.6 444.2,87.6 444.2,70.2 396.8,70.2 396.8,38 451.1,38 
				451.1,20.7 376.8,20.7 			"/>
			<rect x="462.7" y="19.5" class="st0" width="18.9" height="110.6"/>
			<path class="st0" d="M551.2,93.5c0,12-6.7,20.2-16.7,20.2c-10,0-16.9-8.1-16.9-20.2V52.7h-18.9v41.9c0,21.3,14.4,35.5,35.8,35.5
				c21.4,0,35.6-14.2,35.6-35.5V52.7h-18.9V93.5z"/>
			<path class="st0" d="M326.6,52.7c-21.4,0-35.8,14.2-35.8,35.5v41.9h18.9V89.3c0-12,6.9-20.2,16.9-20.2c10,0,16.7,8.1,16.7,20.2
				v40.8h18.9V88.2C362.2,66.9,348,52.7,326.6,52.7z"/>
			<polygon class="st0" points="661.2,55.1 638.4,55.1 622,79.3 605.7,55.1 582.9,55.1 609.3,92.1 582.6,130.1 604.8,130.1 
				622.3,104.9 639.3,130.1 661.4,130.1 634.7,92.4 			"/>
		</g>
	</g>
</g>
</svg>
