<svg xmlns="http://www.w3.org/2000/svg" width="95" height="95" viewBox="0 0 95 95">
    <defs>
        <linearGradient id="ctpc6fwuaa" x1="3.314%" x2="100%" y1="0%" y2="100%">
            <stop offset="0%" stop-color="#F7ECA8"/>
            <stop offset="50.754%" stop-color="#D9B058"/>
            <stop offset="100%" stop-color="#E7CC7E"/>
        </linearGradient>
        <linearGradient id="5ev9oi0qgb" x1="32.757%" x2="68.467%" y1="0%" y2="100%">
            <stop offset="0%" stop-color="#F7ECA8"/>
            <stop offset="50.754%" stop-color="#D9B058"/>
            <stop offset="100%" stop-color="#E7CC7E"/>
        </linearGradient>
        <linearGradient id="pd78epy5yc" x1="86.767%" x2="57.183%" y1="5.804%" y2="39.865%">
            <stop offset="0%" stop-color="#FFF" stop-opacity="0"/>
            <stop offset="48%" stop-color="#6B6B6B" stop-opacity=".8"/>
            <stop offset="100%" stop-color="#FFF" stop-opacity="0"/>
        </linearGradient>
        <linearGradient id="a9hg99k0rd" x1="3.314%" x2="100%" y1="40.6%" y2="59.4%">
            <stop offset="0%" stop-color="#F7ECA8"/>
            <stop offset="50.754%" stop-color="#D9B058"/>
            <stop offset="100%" stop-color="#E7CC7E"/>
        </linearGradient>
        <linearGradient id="wvcn5kb1me" x1="54.263%" x2="60.774%" y1="51.27%" y2="65.328%">
            <stop offset="0%" stop-color="#FFF" stop-opacity="0"/>
            <stop offset="51%" stop-color="#6B6B6B" stop-opacity=".7"/>
            <stop offset="100%" stop-color="#FFF" stop-opacity="0"/>
        </linearGradient>
        <linearGradient id="9xottqx6kf" x1="8.905%" x2="94.012%" y1="0%" y2="100%">
            <stop offset="0%" stop-color="#F7ECA8"/>
            <stop offset="50.754%" stop-color="#D9B058"/>
            <stop offset="100%" stop-color="#E7CC7E"/>
        </linearGradient>
        <linearGradient id="0k3l45d99g" x1="33.648%" x2="7.392%" y1="61.143%" y2="74.221%">
            <stop offset="0%" stop-color="#FFF" stop-opacity="0"/>
            <stop offset="50%" stop-color="#6B6B6B" stop-opacity=".7"/>
            <stop offset="100%" stop-color="#FFF" stop-opacity="0"/>
        </linearGradient>
        <linearGradient id="uon3t6wd2h" x1="3.314%" x2="100%" y1="7.562%" y2="92.438%">
            <stop offset="0%" stop-color="#F7ECA8"/>
            <stop offset="50.754%" stop-color="#D9B058"/>
            <stop offset="100%" stop-color="#E7CC7E"/>
        </linearGradient>
        <linearGradient id="nkmhk2jqyi" x1="46.876%" x2="53.346%" y1="0%" y2="100%">
            <stop offset="0%" stop-color="#F7ECA8"/>
            <stop offset="50.754%" stop-color="#D9B058"/>
            <stop offset="100%" stop-color="#E7CC7E"/>
        </linearGradient>
        <linearGradient id="qznhfz4hvj" x1="27.434%" x2="74.168%" y1="0%" y2="100%">
            <stop offset="0%" stop-color="#F7ECA8"/>
            <stop offset="50.754%" stop-color="#D9B058"/>
            <stop offset="100%" stop-color="#E7CC7E"/>
        </linearGradient>
        <linearGradient id="dp074upwxk" x1="15.832%" x2="86.593%" y1="0%" y2="100%">
            <stop offset="0%" stop-color="#F7ECA8"/>
            <stop offset="50.754%" stop-color="#D9B058"/>
            <stop offset="100%" stop-color="#E7CC7E"/>
        </linearGradient>
    </defs>
    <g fill="none" fill-rule="evenodd">
        <g>
            <g transform="translate(-140 -19) translate(141 20)">
                <rect width="65" height="65" x="14" y="14" fill="#79000F" stroke="url(#ctpc6fwuaa)" stroke-width="2" rx="2" transform="rotate(45 46.5 46.5)"/>
                <path fill="#A90015" stroke="url(#ctpc6fwuaa)" stroke-linejoin="round" d="M19 19H74V74H19z" transform="rotate(45 46.5 46.5)"/>
                <path stroke="url(#ctpc6fwuaa)" stroke-linejoin="round" d="M78.148 44.5H82.148V48.5H78.148z" transform="rotate(45 80.148 46.5)"/>
                <path stroke="url(#ctpc6fwuaa)" stroke-linejoin="round" d="M10.852 44.5H14.852V48.5H10.852z" transform="rotate(45 12.852 46.5)"/>
                <path stroke="url(#ctpc6fwuaa)" stroke-linejoin="round" d="M44.5 10.852H48.5V14.852H44.5z" transform="rotate(45 46.5 12.852)"/>
                <path stroke="url(#ctpc6fwuaa)" stroke-linejoin="round" d="M44.5 78.148H48.5V82.148H44.5z" transform="rotate(45 46.5 80.148)"/>
                <g fill-rule="nonzero">
                    <path fill="url(#5ev9oi0qgb)" d="M38.596 1.818C37.6 1.042 36.448.493 35.216.209c-3.635-.82-7.637.82-10.14 4.171 4.199-.699 6.887.293 8.21.948 2.77 1.366 4.948 3.928 6.318 7.267 1.144 2.787 1.726 6.102 1.62 9.728 0 .103 0 .199-.014.312-.05 1.242-.175 2.48-.374 3.707-.16 1.005-.374 2.026-.64 3.064 0 0 2.697-7.625 2.75-15.288.02-2.987-.364-5.973-1.464-8.527-.652-1.466-1.64-2.758-2.886-3.773z" transform="translate(21 24)"/>
                    <path fill="url(#pd78epy5yc)" d="M25.075 4.38c4.2-.699 6.888.293 8.211.948 2.77 1.366 4.948 3.928 6.318 7.267 1.144 2.787 1.726 6.102 1.62 9.728 0 .103 0 .199-.014.312-.05 1.242-.175 2.48-.374 3.707-.16 1.005-.374 2.026-.64 3.064 0 0 2.697-7.625 2.75-15.288-.75-15.964-17.87-9.738-17.87-9.738z" opacity=".82" style="mix-blend-mode:multiply" transform="translate(21 24)"/>
                    <path fill="#FFF" d="M42.937 14.118c.02-2.987-.363-5.973-1.463-8.527-.65-1.465-1.636-2.757-2.878-3.773-.995-.776-2.148-1.325-3.38-1.609-3.635-.82-7.637.82-10.14 4.171 0 0 17.12-6.226 17.861 9.738z" opacity=".21" transform="translate(21 24)"/>
                    <path fill="url(#a9hg99k0rd)" d="M35.428 43.204c1.177-.453 2.238-1.158 3.11-2.065 2.534-2.67 3.062-6.875 1.332-10.654-1.46 3.897-3.682 5.689-4.922 6.485-2.6 1.666-5.95 2.238-9.599 1.742-3.041-.414-6.285-1.569-9.459-3.46-.09-.054-.18-.112-.272-.165-1.078-.659-2.117-1.379-3.111-2.157-.816-.64-1.622-1.332-2.4-2.072 0 0 5.443 6.07 12.235 9.919 2.645 1.5 5.497 2.66 8.309 2.986 1.614.178 3.248-.013 4.777-.56z" transform="translate(21 24)"/>
                    <path fill="url(#wvcn5kb1me)" d="M39.87 30.487c-1.46 3.897-3.682 5.689-4.922 6.485-2.6 1.666-5.95 2.238-9.599 1.742-3.041-.414-6.285-1.569-9.459-3.46-.09-.054-.18-.112-.272-.165-1.078-.66-2.117-1.38-3.111-2.159-.816-.64-1.622-1.332-2.4-2.072 0 0 5.443 6.07 12.235 9.919 14.554 7.3 17.528-10.29 17.528-10.29z" opacity=".82" style="mix-blend-mode:multiply" transform="translate(21 24)"/>
                    <path fill="#FFF" d="M22.332 40.777c2.645 1.5 5.497 2.66 8.31 2.986 1.618.18 3.255-.012 4.786-.56 1.177-.452 2.238-1.157 3.11-2.064 2.534-2.67 3.062-6.875 1.332-10.654 0 .002-2.974 17.592-17.538 10.292z" opacity=".21" transform="translate(21 24)"/>
                    <path fill="url(#9xottqx6kf)" d="M.294 19.778c-.188 1.225-.096 2.477.27 3.661 1.096 3.479 4.555 6.027 8.775 6.471-2.722-3.185-3.2-5.963-3.28-7.408-.176-3.025 1-6.146 3.274-8.977 1.894-2.36 4.546-4.518 7.813-6.248l.284-.145c1.127-.581 2.287-1.096 3.474-1.543.978-.369 2-.703 3.047-.996 0 0-8.113 1.55-14.932 5.35-2.658 1.481-5.117 3.305-6.82 5.513-.97 1.27-1.622 2.751-1.905 4.322z" transform="translate(21 24)"/>
                    <path fill="url(#0k3l45d99g)" d="M9.339 29.91c-2.722-3.185-3.2-5.963-3.28-7.408-.176-3.025 1-6.146 3.274-8.977 1.894-2.36 4.546-4.518 7.813-6.248l.284-.145c1.127-.581 2.287-1.096 3.474-1.543.978-.369 2-.703 3.047-.996 0 0-8.113 1.55-14.932 5.35-13.78 8.63.32 19.967.32 19.967z" opacity=".82" style="mix-blend-mode:multiply" transform="translate(21 24)"/>
                    <path fill="#FFF" d="M9.02 9.943c-2.659 1.481-5.116 3.305-6.82 5.513-.97 1.27-1.623 2.751-1.906 4.322-.188 1.225-.096 2.477.27 3.661 1.096 3.479 4.555 6.027 8.775 6.471 0 0-14.1-11.336-.32-19.967z" opacity=".21" transform="translate(21 24)"/>
                    <path fill="url(#uon3t6wd2h)" d="M12.839 16.614H14.983V18.589000000000002H12.839z" transform="translate(21 24)"/>
                    <path fill="url(#nkmhk2jqyi)" d="M13.479 20.047c-.155-.005-.305.052-.417.157-.113.105-.179.25-.183.404v7.409h1.461c.321.01.59-.24.6-.56v-7.41H13.48z" transform="translate(21 24)"/>
                    <path fill="url(#qznhfz4hvj)" d="M25.98 18.237v-1.284c-.005-.154-.071-.299-.184-.404-.113-.105-.263-.16-.417-.156H17.9v11.624h1.599c.306-.002.558-.238.578-.542v-.012V23.493h5.155v-1.27-.012-.014c-.015-.309-.273-.55-.584-.545h-4.571v-3.415h5.903z" transform="translate(21 24)"/>
                    <path fill="url(#dp074upwxk)" d="M37.196 18.247V16.96c-.01-.32-.28-.57-.6-.56H27.26v1.303c.017.309.277.55.588.545h3.294v9.768h1.61c.306-.006.554-.25.565-.554v-9.214h3.88z" transform="translate(21 24)"/>
                </g>
            </g>
        </g>
    </g>
</svg>
