<svg xmlns="http://www.w3.org/2000/svg" width="176" height="392" viewBox="0 0 176 392">
    <defs>
        <linearGradient id="ed9ru6dg4a" x1="60.281%" x2="40.443%" y1="1.987%" y2="98.349%">
            <stop offset="0%" stop-color="#0589C3"/>
            <stop offset="50.754%" stop-color="#B7D3FF"/>
            <stop offset="100%" stop-color="#054BA5"/>
        </linearGradient>
        <linearGradient id="svlrrk2m7b" x1="59.289%" x2="41.365%" y1="1.987%" y2="98.349%">
            <stop offset="0%" stop-color="#A8DFF7"/>
            <stop offset="50.754%" stop-color="#376BBF"/>
            <stop offset="100%" stop-color="#7EACE7"/>
        </linearGradient>
    </defs>
    <g fill="none" fill-rule="evenodd">
        <g>
            <g>
                <path fill="#EFFAFF" stroke="url(#ed9ru6dg4a)" stroke-linejoin="round" d="M147.168 0c13.657 0 24.856 8.524 25.079 23.752l.003.463v63.562c.916 0 1.675.804 1.745 1.816l.005.153v44.072c0 1.032-.714 1.884-1.614 1.963l-.136.006v228.997c0 15.363-11.062 25.021-24.669 25.213l-.413.003H26.964c-13.657 0-24.856-9.505-25.079-24.752l-.003-.464V144.67c-.045.004-.087.016-.132.016-.916 0-1.675-.805-1.745-1.816L0 142.718v-24.932c0-1.083.788-1.969 1.75-1.969l.066.006h0l.066.01v-7.258c-.045.004-.087.015-.132.015-.916 0-1.675-.803-1.745-1.814L0 106.622V81.691c0-1.083.788-1.97 1.75-1.97l.066.007h0l.066.009V67.11c-.045.004-.087.015-.132.015-.916 0-1.675-.804-1.745-1.816L0 65.156V53.575c0-1.083.788-1.968 1.75-1.968l.066.006h0l.066.008V24.215C1.882 8.852 12.944.175 26.552.003L26.963 0h120.204zM107.5 5c-1.933 0-3.5 1.567-3.5 3.5s1.567 3.5 3.5 3.5 3.5-1.567 3.5-3.5-1.567-3.5-3.5-3.5zm-11 1h-18C77.12 6 76 7.12 76 8.5c0 1.325 1.032 2.41 2.336 2.495L78.5 11h18c1.38 0 2.5-1.12 2.5-2.5S97.88 6 96.5 6z" transform="translate(-99 -280) translate(100 281)"/>
                <path fill="#FEF2D8" stroke="url(#svlrrk2m7b)" d="M148.432 4h-15.023c-2.005 0-3.63 1.8-3.63 4.019V6.041c0 5.432-4.014 9.877-8.92 9.877H51.783c-4.907 0-8.921-2.445-8.921-7.877V6.02c0-2.22-1.625-2.019-3.631-2.019H25.568C15.293 4 6 12.222 6 23.598v342.804C6 377.778 16.305 386 26.58 386h120.84c10.275 0 20.58-8.222 20.58-19.599V23.598C168 12.222 158.707 4 148.432 4z" transform="translate(-99 -280) translate(100 281)"/>
            </g>
        </g>
    </g>
</svg>
