<svg xmlns="http://www.w3.org/2000/svg" xmlns:xlink="http://www.w3.org/1999/xlink" width="100" height="65" viewBox="0 0 100 65">
    <defs>
        <linearGradient id="a0rqt2qvjd" x1="50%" x2="50%" y1="0%" y2="100%">
            <stop offset="0%" stop-color="#A90015"/>
            <stop offset="24.38%" stop-color="#B60223"/>
            <stop offset="100%" stop-color="#56000B"/>
        </linearGradient>
        <linearGradient id="l1s0zgw70c" x1="3.314%" x2="100%" y1="0%" y2="100%">
            <stop offset="0%" stop-color="#F7ECA8"/>
            <stop offset="50.603%" stop-color="#BF9437"/>
            <stop offset="100%" stop-color="#E7CC7E"/>
        </linearGradient>
        <linearGradient id="18akg41gbg" x1="50%" x2="50%" y1="1.062%" y2="100%">
            <stop offset="0%" stop-color="#024282"/>
            <stop offset="100%" stop-color="#5FC6EC"/>
        </linearGradient>
        <linearGradient id="urnq21hc1f" x1="3.314%" x2="100%" y1="41.522%" y2="58.478%">
            <stop offset="0%" stop-color="#F7ECA8"/>
            <stop offset="50.754%" stop-color="#BF9437"/>
            <stop offset="100%" stop-color="#E7CC7E"/>
        </linearGradient>
        <linearGradient id="rjz2yze63i" x1="50%" x2="50%" y1="1.062%" y2="100%">
            <stop offset="0%" stop-color="#024282"/>
            <stop offset="100%" stop-color="#5FC6EC"/>
        </linearGradient>
        <linearGradient id="2tg7uj7a5h" x1="3.314%" x2="100%" y1="40.816%" y2="59.184%">
            <stop offset="0%" stop-color="#F7ECA8"/>
            <stop offset="50.754%" stop-color="#BF9437"/>
            <stop offset="100%" stop-color="#E7CC7E"/>
        </linearGradient>
        <linearGradient id="ooclzew1dl" x1="50%" x2="50%" y1="1.062%" y2="100%">
            <stop offset="0%" stop-color="#024282"/>
            <stop offset="100%" stop-color="#5FC6EC"/>
        </linearGradient>
        <linearGradient id="mlwojgjprk" x1="3.314%" x2="100%" y1="40.43%" y2="59.57%">
            <stop offset="0%" stop-color="#F7ECA8"/>
            <stop offset="50.754%" stop-color="#BF9437"/>
            <stop offset="100%" stop-color="#E7CC7E"/>
        </linearGradient>
        <linearGradient id="ht0cvysfcn" x1="50%" x2="50%" y1="1.062%" y2="100%">
            <stop offset="0%" stop-color="#024282"/>
            <stop offset="100%" stop-color="#5FC6EC"/>
        </linearGradient>
        <linearGradient id="c87vjsvtlm" x1="3.314%" x2="100%" y1="5.828%" y2="94.172%">
            <stop offset="0%" stop-color="#F7ECA8"/>
            <stop offset="50.754%" stop-color="#BF9437"/>
            <stop offset="100%" stop-color="#E7CC7E"/>
        </linearGradient>
        <filter id="ktfiiomyma" width="129.6%" height="129.6%" x="-14.8%" y="-11.1%" filterUnits="objectBoundingBox">
            <feMorphology in="SourceAlpha" operator="dilate" radius="1" result="shadowSpreadOuter1"/>
            <feOffset dy="2" in="shadowSpreadOuter1" result="shadowOffsetOuter1"/>
            <feGaussianBlur in="shadowOffsetOuter1" result="shadowBlurOuter1" stdDeviation="2"/>
            <feComposite in="shadowBlurOuter1" in2="SourceAlpha" operator="out" result="shadowBlurOuter1"/>
            <feColorMatrix in="shadowBlurOuter1" values="0 0 0 0 0 0 0 0 0 0 0 0 0 0 0 0 0 0 0.5 0"/>
        </filter>
        <filter id="bg0yz2q5ae" width="171.4%" height="225%" x="-35.7%" y="-62.5%" filterUnits="objectBoundingBox">
            <feOffset dy="2" in="SourceAlpha" result="shadowOffsetOuter1"/>
            <feGaussianBlur in="shadowOffsetOuter1" result="shadowBlurOuter1" stdDeviation="2"/>
            <feColorMatrix in="shadowBlurOuter1" result="shadowMatrixOuter1" values="0 0 0 0 0 0 0 0 0 0 0 0 0 0 0 0 0 0 0.5 0"/>
            <feMerge>
                <feMergeNode in="shadowMatrixOuter1"/>
                <feMergeNode in="SourceGraphic"/>
            </feMerge>
        </filter>
        <filter id="a1thle2i1j" width="171.4%" height="223.7%" x="-35.7%" y="-62.5%" filterUnits="objectBoundingBox">
            <feOffset dy="2" in="SourceAlpha" result="shadowOffsetOuter1"/>
            <feGaussianBlur in="shadowOffsetOuter1" result="shadowBlurOuter1" stdDeviation="2"/>
            <feColorMatrix in="shadowBlurOuter1" result="shadowMatrixOuter1" values="0 0 0 0 0 0 0 0 0 0 0 0 0 0 0 0 0 0 0.5 0"/>
            <feMerge>
                <feMergeNode in="shadowMatrixOuter1"/>
                <feMergeNode in="SourceGraphic"/>
            </feMerge>
        </filter>
        <radialGradient id="ekqm36v15o" cx="100%" cy="100%" r="147.245%" fx="100%" fy="100%" gradientTransform="scale(1 .90047) rotate(48.956 .879 1.055)">
            <stop offset="0%" stop-color="#FEF2D8"/>
            <stop offset="100%" stop-color="#D9B058"/>
        </radialGradient>
        <rect id="ll8izvotub" width="54" height="54" x="13" y="0" rx="27"/>
    </defs>
    <g fill="none" fill-rule="evenodd">
        <g>
            <g>
                <g>
                    <g transform="translate(-159 -3) translate(169 6)">
                        <use fill="#000" filter="url(#ktfiiomyma)" xlink:href="#ll8izvotub"/>
                        <use fill="url(#a0rqt2qvjd)" stroke="url(#l1s0zgw70c)" stroke-width="2" xlink:href="#ll8izvotub"/>
                    </g>
                    <g stroke-linecap="round" stroke-linejoin="round" filter="url(#bg0yz2q5ae)" transform="translate(-159 -3) translate(169 6) translate(0 32)">
                        <path fill="url(#18akg41gbg)" stroke="url(#urnq21hc1f)" d="M3.149 5.373c.929-.128 1.895.136 2.608.724.288-.54.773-.953 1.357-1.123.927-.271 1.943.084 2.58.816.765-1.202 2.278-2.092 4-1.77 1.555.312 2.951 1.212 3.735 2.408.123.187.229.378.318.572.619-.618 1.39-1.077 2.224-1.323 0-.012 0-.023.002-.035.175-1.16-.503-2.29-1.647-2.747-1.162-.464-2.554-.107-3.312.848-.116.146-.32.205-.505.145-.184-.06-.305-.225-.298-.407.017-.467-.054-1.175-.493-1.896-.145-.237-.584-.958-1.45-1.336-1.174-.511-2.62-.22-3.686.74-.585.528-1.017 1.218-1.215 1.943-.04.146-.161.26-.317.3-.156.038-.322-.005-.434-.113-.675-.65-1.592-.939-2.284-.719-.46.146-.86.523-1.101 1.035-.279.592-.304 1.283-.082 1.938"/>
                        <path fill="url(#rjz2yze63i)" stroke="url(#2tg7uj7a5h)" d="M29.01 16.466c.612-.46 1.038-.866 1.414-1.224.656-.626 1.175-1.12 2.174-1.41.754-.219 1.557-.255 2.402-.111-1.075-.795-2.201-1.037-2.362-1.068-1.014-.198-1.612.194-2.516.786-.813.532-1.824 1.194-3.445 1.573-1.845.431-5.656.698-6.875-1.384-.422-.722-.534-1.735-.292-2.645.206-.775.657-1.393 1.27-1.74.995-.562 2.3-.39 3.324.363-.049-1.018-.467-1.928-1.16-2.45-.593-.447-1.417-.63-2.263-.5-1.054.159-2.042.78-2.712 1.703l-.01.011c.098.604.068 1.225-.095 1.845-.003.014-.008.028-.013.042-.682 1.84-1.786 2.945-3.282 3.282-.308.07-.616.103-.917.103-1.569 0-2.961-.908-3.432-2.34-.005-.014-.01-.029-.012-.044-.195-.889.066-1.837.699-2.535.663-.733 1.603-1.078 2.578-.946.239.032.406.255.375.497-.032.241-.251.412-.49.38-.688-.094-1.352.15-1.82.667-.435.48-.62 1.122-.495 1.723.487 1.437 2.073 1.913 3.325 1.632 1.2-.27 2.067-1.157 2.646-2.71.245-.949.1-1.903-.418-2.76-.646-1.068-1.804-1.873-3.092-2.153-1.554-.316-2.89.827-3.28 2.113l-.011.028c-.006.014-.011.029-.018.043l-.022.037-.023.035-.03.032-.029.03c-.011.01-.023.017-.035.026-.01.008-.022.016-.034.023-.014.008-.028.014-.042.02-.01.004-.017.01-.027.013l-.01.002c-.014.005-.029.008-.043.011l-.042.009-.036.001c-.017 0-.033.002-.05 0-.01 0-.022-.003-.032-.005-.018-.003-.035-.005-.052-.01l-.01-.002-.025-.011c-.015-.006-.03-.012-.044-.02-.013-.006-.024-.013-.036-.02l-.035-.025c-.012-.009-.021-.019-.032-.029l-.03-.03-.025-.035-.023-.035c-.008-.014-.014-.029-.02-.044-.004-.009-.01-.016-.012-.026-.33-.938-1.25-1.347-1.903-1.14-.503.159-.887.666-.979 1.293-.026.182-.161.328-.338.367-.177.04-.36-.036-.459-.19-.632-.979-1.915-1.327-2.924-.793-.857.453-1.314 1.436-1.16 2.392 1.026-.14 2.19.187 2.634 1.156.34.74.187 1.681-.398 2.458-.146.194-.42.232-.612.084-.191-.148-.228-.426-.082-.62.382-.507.5-1.115.3-1.55-.322-.702-1.411-.765-2.048-.585-1.147.323-1.556 1.857-1.41 2.84.202 1.365 1.48 2.254 2.637 2.427 1.347.2 2.383-.592 2.749-.922-.022-1.176.452-2.257 1.31-2.84.695-.472 1.456-.509 1.974-.455.24.024.415.241.39.484-.024.243-.24.421-.478.395-.374-.039-.92-.015-1.4.31-.642.437-.976 1.29-.919 2.222 0 .004.003.007.003.011.119.998.497 2.439 1.628 3.638 2.38 2.524 6.042 1.74 6.452 1.643 1.427-.34 2.501-1.075 3.216-1.72-.468-.585-.8-1.293-.982-2.114-.053-.238.095-.475.33-.529.236-.053.47.097.522.335.183.822.535 1.503 1.047 2.025 1.472 1.498 3.849 1.197 4.99 1.052 1.865-.237 3.719-1.041 5.512-2.392"/>
                    </g>
                    <g stroke-linecap="round" stroke-linejoin="round" filter="url(#a1thle2i1j)" transform="translate(-159 -3) translate(169 6) translate(45 32)">
                        <path fill="url(#ooclzew1dl)" stroke="url(#mlwojgjprk)" d="M9.457 12.33c.893.791 1.862 1.494 3.098 1.52 1.103.026 1.982-.297 2.607-.954 1.037-1.09.853-2.566.771-2.992-.174-.914-.662-1.556-1.041-1.933-.03-.03-.052-.064-.07-.1-.267-.271-.58-.494-.931-.637-.649-.264-1.955-.48-2.74.38-.345.38-.53.909-.536 1.424.005.032.005.065.001.098.012.347.105.683.286.957.22.334.668.757.976.65.226-.079.403-.414.43-.814.014-.212.193-.37.405-.357.21.014.368.197.354.408-.048.722-.417 1.306-.94 1.488-.74.257-1.464-.351-1.859-.95-.231-.35-.364-.764-.402-1.192-.748-.382-1.57-.592-2.39-.607-1.44-.027-2.545.328-3.29 1.057-.434.424-.548.786-.68 1.206-.146.466-.312.994-.912 1.597-.296.297-1.243 1.137-2.594 1.308.45.11.927.15 1.417.073.84-.132 1.625-.582 1.712-.632.632-.372 1.173-.867 1.607-1.471.01-.014.021-.025.032-.037.195-.284.445-.533.787-.706.4-.202.777-.288 1.132-.288 1.077 0 1.964.788 2.77 1.503"/>
                        <path fill="url(#ht0cvysfcn)" stroke="url(#c87vjsvtlm)" d="M34.985 14.316c-.113-1.424-.855-2.7-2.147-3.687-.725-.554-1.6-.932-2.533-1.092-.014-.002-.027-.007-.04-.01-.58-.087-1.133-.04-1.566.039h-.006l-.007.002c-.348.051-.685.174-.974.356-.063.04-.134.06-.204.06-.125 0-.249-.063-.321-.177-.113-.176-.06-.41.117-.522.29-.182.616-.32.956-.403-.03-.484-.309-.835-.611-.916-.205-.054-.41.018-.541.084-.044.08-.086.154-.126.222-.15.298-.345.582-.603.836-.34.334-1.134 1-2.067 1-.207 0-.42-.032-.637-.108-.927-.327-1.576-1.348-1.448-2.277.092-.665.594-1.584 1.423-1.546.563.026 1.074.502 1.272 1.185.058.2-.058.41-.26.468-.202.058-.413-.058-.471-.259-.117-.402-.384-.629-.575-.638h-.011c-.278 0-.567.483-.624.893-.08.582.354 1.251.948 1.46 1.142.401 2.04-.784 2.498-1.643.595-1.118.817-2.425.506-3.661-.37-1.47-1.433-2.687-2.992-3.426-1.128-.535-2.448-.712-3.667-.407-.812.203-1.665.752-2.026 1.528-.332.712-.071 1.949.834 2.118.304.057.703-.044.95-.239.07-.056.19-.17.197-.301.01-.232-.327-.498-.491-.59-.183-.104-.248-.335-.144-.517.103-.182.335-.246.518-.143.094.053.911.534.877 1.284-.014.32-.186.626-.484.86-.425.335-1.039.488-1.564.39-.924-.173-1.324-1.06-1.461-1.47-.525-.235-1.034-.051-1.322.256-.28.298-.444.811-.07 1.357.084.123.089.283.01.41-.077.127-.222.198-.37.179-.708-.086-1.396.257-1.728.832.21.048.398.109.556.172.454.182.86.462 1.2.81.027.016.052.034.075.056.46.451 1.052 1.22 1.264 2.321.1.515.323 2.299-.978 3.648-.494.512-1.103.858-1.819 1.04.07.52.38.985.854 1.23.656.339 1.476.173 1.98-.377-.079-.274-.133-.556-.158-.841-.018-.209.137-.392.346-.41.21-.02.394.135.413.343.025.289.085.574.176.847.564 1.122 1.588 1.89 2.816 2.11 1.255.224 2.514-.142 3.476-1.003-.115-.685-.031-1.365.33-1.934.755-1.186 2.585-1.709 3.916-1.12.929.411 1.479 1.088 1.51 1.859.03.786-.471 1.556-1.28 1.96-.187.095-.416.02-.51-.167-.095-.187-.02-.414.168-.508.542-.272.88-.765.86-1.255-.026-.67-.748-1.06-1.057-1.197-.994-.44-2.406-.043-2.962.832-.44.692-.28 1.585.048 2.286.185.396.435.763.736 1.082.642.682 1.639 1.326 2.528 1.619.154.032.307.07.459.12l.07.022.022.006c2.388.468 4.176-1.148 4.372-1.334.294-.279 1.75-1.782 1.574-4.004"/>
                    </g>
                </g>
                <path fill="url(#ekqm36v15o)" fill-rule="nonzero" d="M39.34 15.315v-1.44h-2.52c.33-.555.72-1.32 1.095-2.085l-1.26-.345h1.95v-1.44h-2.7c.27-.375.54-.795.795-1.245l-1.755-.51c-.24.525-.645 1.23-1.005 1.755h-3.675l.645-.27c-.18-.435-.6-1.035-1.02-1.485l-1.575.57c.27.345.555.795.765 1.185h-2.595v1.44h1.695l-1.17.435c.375.6.75 1.395.915 1.995H25.69v1.44h13.65zm-9.165-1.44h-1.89l1.2-.495c-.15-.54-.525-1.335-.96-1.935h1.65v2.43zm2.88 0H31.84v-2.43h1.215v2.43zm3.48 0H34.75v-2.43h1.5c-.21.63-.57 1.515-.87 2.085l1.155.345zm-7.245 8.43v-.45h6.375v.39h1.83v-6.27H27.55v6.33h1.74zm6.375-4.065H29.29v-.915h6.375v.915zm0 2.235H29.29v-.93h6.375v.93zM54.31 21.81v-1.485H42.925v-6.39c.675.405 1.53 1.02 1.92 1.455l.75-.885c.27.315.54.705.66.915.21-.21.405-.435.6-.675v5.22H48.4v-.51h5.505v-1.35h-2.34v-.825h1.8v-1.23h-1.8v-.795h1.8V14.04h-1.8v-.795H53.8v-1.35h-1.755c-.15-.495-.42-1.065-.675-1.545l-1.575.465c.165.315.315.705.45 1.08h-1.62c.21-.435.39-.885.555-1.335l-1.095-.315h5.925V8.76H41.185v13.05H54.31zm-8.85-7.875c-.48-.39-1.14-.795-1.695-1.08l-.84.975v-3.585h1.56l-.9 1.005c.675.375 1.545.975 1.935 1.41l1.005-1.14c-.42-.42-1.275-.93-1.95-1.275h3.12c-.495 1.395-1.32 2.745-2.235 3.69zm4.515.105H48.4v-.795h1.575v.795zm0 2.01H48.4v-.795h1.575v.795zm-5.49 3.855c.615-1.02 1.29-2.19 1.815-3.225l-1.005-1.05c-.66 1.155-1.455 2.385-2.01 3.15l1.2 1.125zm5.49-1.8H48.4v-.825h1.575v.825zm-23.61 13.95c1.92-.75 2.76-1.905 3.165-3.45h1.56c-.06.705-.12 1.02-.225 1.14-.12.12-.24.135-.45.135h-.182c-.257-.003-.661-.013-1.093-.06.225.375.39.945.42 1.365.675.045 1.305.03 1.65-.015.42-.045.72-.165.99-.435.315-.36.435-1.2.51-2.97.015-.195.03-.57.03-.57h-2.97c.03-.285.06-.585.075-.9H28.18c-.015.315-.045.615-.075.9H25.87v1.41h1.935c-.345.945-1.005 1.65-2.385 2.13.345.3.78.9.945 1.32zm12.375-.915v-4.155h-5.355v4.155h5.355zm-1.71-1.32h-2.04v-1.485h2.04v1.485zM26.995 40.35c1.515-.42 3.435-1.155 4.68-1.965l-1.365-.6h4.275l-1.245.78c1.545.555 3.135 1.26 4.02 1.755l1.92-.87c-1.005-.48-2.7-1.155-4.215-1.665h2.565v-6.09H27.595v6.09H29.8c-1.035.51-2.67.99-4.125 1.26.375.315 1.005.96 1.32 1.305zm8.82-6.945H29.32v-.645h6.495v.645zm0 1.65H29.32v-.645h6.495v.645zm0 1.665H29.32v-.66h6.495v.66zm12.315 3.57v-4.245c1.53.645 3.6 1.56 4.62 2.115l.99-1.605c-1.17-.57-3.495-1.47-4.98-2.04l-.63.945v-2.115h6.195v-1.77H48.04v-1.8h4.86v-1.71h-4.86V26.28h-1.89v5.295h-5.415v1.77h5.49v6.945h1.905z" transform="translate(-159 -3) translate(169 6)"/>
            </g>
        </g>
    </g>
</svg>
