<svg xmlns="http://www.w3.org/2000/svg" width="60" height="60" viewBox="0 0 60 60">
    <g fill="none">
        <path fill="#64D4F2" d="M1.71 19.324L43.95.294c1.47-.647 3.21-.059 3.93 1.412l11.85 25.118c.66 1.44.06 3.147-1.44 3.852l-42.24 19.03c-1.47.647-3.21.059-3.93-1.412L.27 23.176c-.66-1.47-.06-3.147 1.44-3.852 0 .058 0 0 0 0z" opacity=".4" transform="translate(0 5)"/>
        <path fill="#FEFBF7" d="M4.08 20.265l39-17.589c1.35-.617 2.91-.058 3.54 1.265l10.53 22.294c.63 1.324.06 2.853-1.29 3.47l-39 17.59c-1.35.617-2.91.058-3.54-1.266L2.79 23.735c-.6-1.264-.03-2.853 1.29-3.47z" transform="translate(0 5)"/>
        <g>
            <path fill="#F4B362" d="M13.71 11.206c.84-1.5.99-3.206.27-4.735-.39-.824-.96-1.442-1.68-1.883-.03 0-.03-.03-.03-.059-.21-.588-.63-1.44-1.41-2.617C9.18-.558 8.46-.03 8.28.265c-.03.059-.06.117-.06.206l.09 3.235c0 .088-.06.147-.15.176C7.44 4 6.72 4.206 6 4.56c-.81.382-1.53.853-2.1 1.382-.06.059-.15.059-.24 0L1.14 3.735c-.06-.059-.12-.088-.21-.088-.36-.03-1.23.177-.36 3 .42 1.441.84 2.324 1.2 2.853.06.059.09.118.15.176.03.03.03.06.03.089-.03.676.12 1.382.45 2.059.72 1.5 2.16 2.5 3.84 2.852.21.03.33.236.27.442-.21.617-.54 1.94 0 3.088l1.41-.647 7.02-3.206 1.38-.618c-.54-1.147-1.74-1.735-2.4-2-.21-.147-.3-.353-.21-.53z" transform="translate(0 5) translate(33 8.53)"/>
            <path fill="#FEFBF7" d="M6.6 13.912c.72.147.78.53.78.53l.18.41c.18.972-.15 1.707.24 2.56.03.059.06.117.09.147l7.08-3.235c-.03-.06-.06-.118-.06-.148-.39-.823-1.2-1-1.8-1.794l-.21-.411s-.27-.295.09-.912c0 0 1.5-3-1.29-4-2.82-1-3.39 2.235-3.39 2.235S5.4 7.647 4.38 10.382c-1.05 2.736 2.22 3.53 2.22 3.53z" transform="translate(0 5) translate(33 8.53)"/>
            <g transform="translate(0 5) translate(33 8.53) translate(4.5 5.294)">
                <path fill="#5C2C0A" d="M4.71 1.941c.06-.088.12-.235.12-.294.06-.176.15-.323.33-.382.21-.089.45-.06.63.059l.03.029h.03c.09.088.21.147.3.176.06.03.09.089.03.147-.06.118-.15.265-.15.265-.03.177-.18.324-.33.412-.24.118-.51.059-.69-.118l-.03-.03c-.06-.058-.15-.087-.24-.117-.06-.03-.09-.117-.03-.147zM1.53 3.382c-.12 0-.27-.058-.3-.088-.15-.059-.36-.088-.51 0-.21.088-.36.294-.36.53v.088c0 .117-.03.235-.06.353 0 .059.03.117.09.117.12 0 .3.06.3.06.18.087.36.087.54 0 .24-.118.39-.354.36-.59v-.058c0-.088.03-.176.06-.265 0-.088-.06-.147-.12-.147z"/>
                <path fill="#FCFCFC" d="M.84 3.559c.06 0 .12.059.12.117 0 .06-.06.118-.12.118s-.12-.059-.12-.118c0-.058.06-.117.12-.117z"/>
                <circle cx="5.1" cy="1.735" r="1" fill="#FCFCFC"/>
                <circle cx=".807" cy="2.482" r="1" fill="#FEFBF7" transform="rotate(-70.001 .807 2.482)"/>
                <circle cx="4.513" cy=".77" r="1" fill="#FEFBF7" transform="rotate(-70.001 4.513 .77)"/>
            </g>
            <path fill="#FEFBF7" d="M3.15 5.97L1.2 4.295c-.09-.059-.18-.088-.27-.088-.27.059-.66.353-.15 2.03.3.97.57 1.558.81 1.94.18.295.63.236.75-.058.15-.412.45-.97.87-1.589.15-.176.12-.411-.06-.558zM8.64 3.441L8.58.911c0-.087.03-.205.12-.264.21-.176.69-.265 1.68 1.206.57.853.87 1.441.99 1.853.12.323-.21.647-.54.53-.42-.148-1.05-.295-1.8-.383-.21 0-.39-.177-.39-.412z" transform="translate(0 5) translate(33 8.53)"/>
            <path fill="#5C2C0A" d="M11.1 9.97c-.09-.029-.18 0-.21.089-.3.765-1.35.676-1.74.617-.03 0-.06-.029-.09-.058l-.09-.177c.51-.323.75-.912.51-1.412-.27-.529-.96-.735-1.59-.47-.63.294-.93.941-.66 1.5.24.5.84.706 1.44.53l.09.176v.088c-.18.323-.81 1.176-1.59.912-.09-.03-.18 0-.21.088s0 .206.12.235c.33.118.66.088.99-.059.18-.088.36-.205.54-.382.21-.206.36-.412.45-.559.03-.03.06-.059.09-.059.18.03.45.06.72.03.24-.03.48-.088.66-.147.33-.147.54-.383.66-.706.03-.118 0-.206-.09-.235z" transform="translate(0 5) translate(33 8.53)"/>
            <path fill="#F2F0ED" d="M9 13.47s1.02.089 2.13-.97c1.11-1.059-.15.941-.15.941s-.24.353-.48.47c-.24.118-.75.03-.75.03s-1.77-.353-.75-.47z" transform="translate(0 5) translate(33 8.53)"/>
        </g>
        <path fill="#64D4F2" d="M6.024 20.43L14.006 20.49 14.044 25.478 6.062 25.418z" transform="translate(0 5) rotate(-24.999 10.034 22.954)"/>
        <g fill="#CDEDF9">
            <path d="M1.05 1.618c-.21.088-.48-.06-.63-.383C.27.912.33.618.54.53c.21-.088.48.06.63.383.12.294.06.617-.12.706zM1.92 1.206c-.21.088-.48-.059-.63-.382-.15-.295-.09-.618.12-.706.21-.089.48.058.63.382.15.324.09.618-.12.706zM.84 2.412c-.06.03-.15.03-.24.03-.12-.03-.21-.09-.33-.177-.12-.089-.18-.177-.21-.294-.03-.118-.03-.236.06-.324.06-.088.18-.118.3-.088s.21.088.33.176c.09.089.18.177.21.294.03.118.03.236-.06.324 0 .03-.03.059-.06.059zM2.67 1.588c-.03 0-.06.03-.09.03-.09 0-.21-.06-.27-.177-.06-.088-.09-.206-.09-.353s.03-.264.06-.353c.06-.117.15-.176.27-.176.09 0 .21.059.27.176.06.089.09.206.09.353 0 .118-.03.265-.06.353-.09.088-.12.118-.18.147zM1.8 3.47c-.09.06-.21.06-.3.06-.09-.03-.21-.089-.27-.177-.06-.059-.09-.147-.12-.235-.03-.118-.06-.265-.06-.383 0-.206.06-.382.15-.559l.18-.264c.06-.06.12-.147.18-.177.12-.059.3-.03.42-.03.15.03.27.06.39.119.24.088.45.264.6.47.06.088.09.177.12.265.03.117 0 .235-.06.323-.06.089-.15.147-.3.177-.09.03-.21.03-.27 0h-.27v.03c-.03.058-.09.146-.15.205s-.12.147-.24.177c.03 0 0 0 0 0z" transform="translate(0 5) translate(8.4 21.176)"/>
        </g>
        <path fill="#EFEFEF" d="M32.542 11.01L33.08 11.014 33.277 36.693 32.738 36.689z" transform="translate(0 5) rotate(-24.999 32.91 23.852)"/>
        <path fill="#AFAFAF" d="M25.14 14.824l-9 4.117c-.33.147-.72 0-.87-.323-.15-.324 0-.706.33-.853l9-4.118c.33-.147.72 0 .87.324.15.323 0 .705-.33.853zM26.58 17.882l-9 4.118c-.33.147-.72 0-.87-.324-.15-.323 0-.705.33-.852l9-4.118c.33-.147.72 0 .87.323.15.324 0 .706-.33.853zM30.27 25.588l-18.57 8.47c-.33.148-.72 0-.87-.323-.15-.323 0-.706.33-.853l18.54-8.47c.33-.147.72 0 .87.323.15.324.03.706-.3.853z" transform="translate(0 5)"/>
        <path fill="#0C4759" d="M31.71 28.647l-18.54 8.47c-.33.148-.72 0-.87-.323-.15-.323 0-.706.33-.853l18.54-8.47c.33-.147.72 0 .87.323.15.324 0 .706-.33.853z" transform="translate(0 5)"/>
        <path fill="#AFAFAF" d="M31.71 28.647l-18.54 8.47c-.33.148-.72 0-.87-.323-.15-.323 0-.706.33-.853l18.54-8.47c.33-.147.72 0 .87.323.15.324 0 .706-.33.853zM34.8 35.118l-18.54 8.47c-.33.147-.72 0-.87-.323-.15-.324 0-.706.33-.853l18.54-8.47c.33-.148.72 0 .87.323.12.323 0 .706-.33.853zM33.18 31.706l-18.54 8.47c-.33.148-.72 0-.87-.323-.15-.324 0-.706.33-.853l18.54-8.47c.33-.148.72 0 .87.323.12.323-.03.706-.33.853zM49.77 24.794l-8.55 3.912c-.33.147-.72 0-.87-.324-.15-.323 0-.706.33-.853l8.55-3.911c.33-.147.72 0 .87.323.15.324 0 .706-.33.853zM52.11 27.206l-10.92 5c-.33.147-.72 0-.87-.324-.15-.323 0-.706.33-.853l10.92-5c.33-.147.72 0 .87.324.15.294 0 .706-.33.853z" transform="translate(0 5)"/>
    </g>
</svg>
