<?xml version="1.0" encoding="utf-8"?>
<!-- Generator: Adobe Illustrator 24.2.1, SVG Export Plug-In . SVG Version: 6.00 Build 0)  -->
<svg version="1.1" id="圖層_1"
	xmlns="http://www.w3.org/2000/svg"
	xmlns:xlink="http://www.w3.org/1999/xlink" x="0px" y="0px" viewBox="0 0 300 300" style="enable-background:new 0 0 300 300;" xml:space="preserve">
	<style type="text/css">
	.st33{fill:none;}
	    .st0{fill:url(#SVGID_1_);}
    .st1{fill:url(#SVGID_2_);}
    .st2{fill:url(#SVGID_3_);}
    .st3{fill:url(#SVGID_4_);}
    .st4{fill:url(#SVGID_5_);}
    .st5{fill:url(#SVGID_6_);}
    .st6{fill:url(#SVGID_7_);}
    .st7{fill:url(#SVGID_8_);}
    .st8{fill:url(#SVGID_9_);}
    .st9{fill:url(#SVGID_10_);}
    .st10{fill:url(#SVGID_11_);}
    .st11{fill:url(#SVGID_12_);}
    .st12{fill:url(#SVGID_13_);}
    .st13{fill:url(#SVGID_14_);}
    .st14{fill:url(#SVGID_15_);}
    .st15{fill:url(#SVGID_16_);}
    .st16{fill:url(#SVGID_17_);}
    .st17{fill:url(#SVGID_18_);}
    .st18{fill:url(#SVGID_19_);}
    .st19{fill:url(#SVGID_20_);}
    .st20{fill:url(#SVGID_21_);}
    .st21{fill:url(#SVGID_22_);}
    .st22{fill:url(#SVGID_23_);}
    .st23{fill:url(#SVGID_24_);}
    .st24{fill:url(#SVGID_25_);}
    .st25{fill:url(#SVGID_26_);}
    .st26{fill:url(#SVGID_27_);}
    .st27{fill:url(#SVGID_28_);}
    .st28{fill:url(#SVGID_29_);}
    .st29{fill:url(#SVGID_30_);}
    .st30{fill:url(#SVGID_31_);}
    .st31{fill:url(#SVGID_32_);}
    .st32{fill:url(#SVGID_33_);}
    .st34{fill:url(#SVGID_34_);}
    .st35{fill:url(#SVGID_35_);}
    .st36{fill:url(#SVGID_36_);}
    .st37{fill:url(#SVGID_37_);}
    .st38{fill:url(#SVGID_38_);}
    .st39{fill:url(#SVGID_39_);}
    .st40{fill:url(#SVGID_40_);}
    .st41{fill:url(#SVGID_41_);}
    .st42{fill:url(#SVGID_42_);}
    .st43{fill:url(#SVGID_43_);}
    .st44{fill:url(#SVGID_44_);}
    .st45{fill:url(#SVGID_45_);}
    .st46{fill:url(#SVGID_46_);}
    .st47{fill:url(#SVGID_47_);}
	</style>
	<g>

		<linearGradient id="SVGID_1_" gradientUnits="userSpaceOnUse" x1="0.8999" y1="150.8475" x2="296.4039" y2="150.8475" gradientTransform="matrix(0.9999 -0.0144 0.0144 0.9999 -2.1428 2.1719)">
			<stop offset="0" style="stop-color:#171C61"/>
			<stop offset="0.1256" style="stop-color:#192568"/>
			<stop offset="0.4986" style="stop-color:#1F3E79"/>
			<stop offset="0.8033" style="stop-color:#234E85"/>
			<stop offset="1" style="stop-color:#245489"/>
		</linearGradient>
		<path class="st0" d="M244.69,299.5c-5.46-0.12-10.91-0.35-16.37-0.34c-62.72,0.1-125.43,0.25-188.15,0.33
		c-4.18,0.01-8.49,0.18-12.5-0.74C16.13,296.1,9.61,285,11.83,272.84c1.82-9.96,3.54-19.94,5.16-29.94c0.16-0.96-0.38-2.4-1.1-3.07
		C3.27,228.09-1.16,213.72,3.64,197.31c4.72-16.17,15.95-26.26,32.7-28.97c17.33-2.8,31.16,3.49,41.16,18.03
		c0.44,0.64,1.52,1.4,2.14,1.27c8.97-1.77,17.91-3.69,27.32-5.66c-1.33-1.77-2.42-3.18-3.47-4.63c-6.46-8.88-11.6-18.47-15.86-28.57
		c-0.6-1.41-2-2.85-3.39-3.5c-14.95-7.01-20.21-21.39-16.35-35.47c0.95-3.47,3.81-6.4,5.72-9.63c0.41-0.7,0.96-1.76,0.71-2.34
		c-3.7-8.56-3.64-17.55-2.77-26.5c1.48-15.37,6.05-29.76,15-42.53c10.49-14.95,24.81-23.62,42.94-26.06
		c10.5-1.42,20.8-1.13,30.81,2.83c0.75,0.3,2.2-0.23,2.89-0.85c3.34-3.04,6.51-4.37,10.77-4.22c-0.84,2.71-1.69,5.45-2.67,8.59
		c28.84-5.93,56.14,12.8,61.06,41.11c2.09,11.99,0.42,23.66-2.49,35.32c-0.81,3.24-0.55,6.75-0.66,10.14
		c-0.02,0.56,0.47,1.29,0.94,1.68c8.16,6.75,9.18,15.68,7.56,25.27c-1.62,9.59-7.48,16.13-15.91,20.42
		c-1.93,0.98-2.93,2.2-3.67,4.11c-4.38,11.44-9.95,22.24-17.37,32.04c-0.4,0.53-0.74,1.12-1.29,1.97c6.21,1.31,12.19,2.6,18.17,3.84
		c14.3,2.97,28.62,5.85,42.9,8.92c14.62,3.15,26.06,15.64,28.72,30.92c2.81,16.12,5.71,32.23,8.6,48.34
		c2.07,11.51-4.57,22.06-15.85,25.16c-0.54,0.15-1.05,0.43-1.57,0.64C268.53,299.16,256.61,299.33,244.69,299.5z M228.96,289.77
		c16.14-0.23,32.15-0.27,48.14-0.77c7.72-0.24,12.35-6.89,10.96-14.51c-2.93-16.1-5.83-32.21-8.67-48.33
		c-1.97-11.19-10.36-20.16-21.43-22.55c-10.57-2.28-21.15-4.48-31.75-6.57c-0.95-0.19-2.47,0.34-3.1,1.08
		c-15.08,17.56-30.08,35.2-45.09,52.81c-6.4,7.51-12.77,15.04-19.23,22.49c-2.66,3.07-5.49,3.04-8.28,0.15
		c-0.61-0.63-1.17-1.31-1.75-1.97c-21.16-23.92-42.31-47.85-63.47-71.77c-0.71-0.8-1.46-1.56-2.67-2.85
		c3.88,17.16,0.43,31.59-12.35,42.8c-12.82,11.24-27.62,13.05-43.34,7.03c-0.21,0.27-0.31,0.34-0.32,0.42
		c-1.59,8.91-3.13,17.83-4.78,26.74c-1.75,9.48,3.36,15.7,12.95,15.67c11.62-0.03,23.25-0.03,34.87-0.06
		c3.69-0.01,7.37-0.1,11.38-0.16c-0.02-1.18-0.05-2.23-0.04-3.28c0.02-7.33,0.02-14.65,0.09-21.98c0.04-3.29,2.02-5.43,4.84-5.47
		c2.82-0.04,5,2.1,5.08,5.32c0.11,4.69-0.01,9.38,0.01,14.06c0.02,3.68,0.1,7.37,0.16,11.38c42.53-0.08,84.95-0.16,127.74-0.24
		c-0.12-8.03-0.25-15.73-0.33-23.43c-0.04-4.75,1.88-7.44,5.18-7.41c3.18,0.03,4.83,2.6,4.87,7.32
		C228.69,273.41,228.84,281.11,228.96,289.77z M86.63,107.94c-4.83-0.58-6.84,0.67-8.05,4.74c-3.2,10.78,3.48,21.67,14.54,23.46
		c1.69,0.27,2.18,1.04,2.71,2.39c1.72,4.34,3.4,8.72,5.41,12.93c6.15,12.88,13.71,24.76,24.97,33.87
		c10.5,8.49,22.31,12.4,35.75,9.17c10.55-2.53,18.72-8.97,25.69-17.01c10.18-11.74,16.99-25.36,22.07-39.94
		c0.4-1.16,1.46-2.68,2.49-2.94c10.37-2.64,15.57-9.72,14.71-20.39c-0.52-6.45-2.36-8.24-8.94-8.49c-0.04-2.51,0-5.04-0.14-7.55
		c-0.07-1.24-0.19-2.62-0.79-3.65c-3.44-5.98-6.62-12.17-10.67-17.72c-4.85-6.66-11.31-11.53-19.52-13.68
		c-2.2-0.58-3.57-0.36-4.8,2.06c-5.42,10.65-13.95,16.55-26.23,15.04c-5.46-0.67-10.76-2.6-16.13-3.96
		c-11.51-2.92-23.09-4.95-34.99-2.81C92.63,75.61,86.22,83.47,86.45,95.7C86.52,99.69,86.57,103.68,86.63,107.94z M43.67,239.7
		c17.5-0.22,30.77-13.62,30.65-30.95c-0.12-17.38-14.42-31.48-31.67-31.22c-17.08,0.27-30.93,14.49-30.74,31.54
		C12.11,226.47,26.07,239.93,43.67,239.7z M213.2,194.28c-6.15-1.31-11.61-2.3-16.97-3.68c-3.23-0.83-5.74-0.53-8.04,2.11
		c-1.32,1.52-3.14,2.62-4.79,3.83c-6.08,4.46-12.85,7.49-20.51,9.32c2.07,1.92,3.85,3.56,5.82,5.39c-2.59,2.37-4.94,4.69-7.49,6.78
		c-1.49,1.23-1.91,2.46-1.41,4.29c0.92,3.38,1.66,6.8,2.49,10.2c1.31,5.33,2.63,10.66,4.11,16.62
		C182.18,230.66,197.51,212.68,213.2,194.28z M94.22,194.93c16.07,18.17,31.8,35.96,47.93,54.2c2.3-9.8,4.48-18.94,6.53-28.11
		c0.15-0.68-0.49-1.78-1.08-2.35c-2.55-2.5-5.23-4.87-7.92-7.36c1.91-1.8,3.54-3.35,5.45-5.15c-9.66-1.88-18.03-5.46-24.88-11.6
		c-3.92-3.52-7.53-4.18-12.29-2.76C103.62,193.11,99.11,193.84,94.22,194.93z"/>

		<linearGradient id="SVGID_2_" gradientUnits="userSpaceOnUse" x1="23.3278" y1="207.5358" x2="66.0618" y2="207.5358" gradientTransform="matrix(0.9999 -0.0144 0.0144 0.9999 -2.1428 2.1719)">
			<stop offset="0" style="stop-color:#171C61"/>
			<stop offset="0.1256" style="stop-color:#192568"/>
			<stop offset="0.4986" style="stop-color:#1F3E79"/>
			<stop offset="0.8033" style="stop-color:#234E85"/>
			<stop offset="1" style="stop-color:#245489"/>
		</linearGradient>
		<path class="st1" d="M41.01,225.32c-5.67-4.47-11.11-8.75-16.8-13.23c2.02-2.58,3.98-5.07,6.11-7.78c3.39,2.61,6.61,5.1,9.93,7.66
		c6.53-6.46,12.97-12.83,19.56-19.35c2.36,2.41,4.54,4.63,6.96,7.09C58.22,208.22,49.74,216.64,41.01,225.32z"/>
	</g>
</svg>
