<svg xmlns="http://www.w3.org/2000/svg" width="57.082" height="39.5" viewBox="0 0 57.082 39.5">
    <defs>
        <style>
            .cls-1{fill:#083a6e}
        </style>
    </defs>
    <g id="myinvest_2" transform="translate(-1 -4.8)">
        <path id="Path_3436" d="M57.47 4.8H12.411a.934.934 0 0 0-.878.878v6.437c0 .293 0 .585.293.585H7.144a.934.934 0 0 0-.878.878v6.437c0 .293 0 .585.293.585H1.878a.934.934 0 0 0-.878.878v21.944a.934.934 0 0 0 .878.878h45.059a.934.934 0 0 0 .878-.878v-7.315c.293.293.293.293.585.293h3.511a.934.934 0 0 0 .878-.878v-7.315c.293.293.293.293.585.293h3.511a.934.934 0 0 0 .878-.878V5.678c.585-.585.293-.878-.293-.878zM13.581 9.481V6.848h2.633a4.656 4.656 0 0 1-2.633 2.633zm42.719 0a3.957 3.957 0 0 1-2.633-2.633H56.3zM30.552 12.7a5.122 5.122 0 0 1 4.389-2.926c1.756 0 3.219 1.17 4.389 2.926a.287.287 0 0 1 .293.293l-9.07-.293zm-19.6 2.048a4.656 4.656 0 0 1-2.633 2.633v-2.633zm40.085 2.633a3.957 3.957 0 0 1-2.637-2.633h2.633zM25.285 20.6a5.122 5.122 0 0 1 4.389-2.926c1.756 0 3.219 1.17 4.389 2.926a.287.287 0 0 1 .293.293l-9.07-.293zM2.756 39.911a3.957 3.957 0 0 1 2.633 2.633H2.756zm0-2.048V27.622a5.587 5.587 0 0 0 4.681-4.681h33.356a5.587 5.587 0 0 0 4.681 4.681v10.241a5.587 5.587 0 0 0-4.681 4.681H7.437a5.034 5.034 0 0 0-4.681-4.681zm43.011-12.289a3.957 3.957 0 0 1-2.633-2.633h2.633zM5.389 22.941a3.957 3.957 0 0 1-2.633 2.633v-2.633zm37.744 19.6a3.957 3.957 0 0 1 2.633-2.633v2.633zm4.682-20.771a.934.934 0 0 0-.878-.878H35.526l.293-.293v-.878c-1.463-2.341-3.511-3.8-6.144-3.8a6.624 6.624 0 0 0-6.144 3.8c0 .293-.293.585 0 .878 0 .293 0 .293.293.293H8.022c.293-.293.293-.293.293-.585v-.877A5.934 5.934 0 0 0 13 14.748h33.352a5.587 5.587 0 0 0 4.681 4.681V29.67a6.975 6.975 0 0 0-3.219 1.756zm5.267-7.9a.934.934 0 0 0-.878-.878H40.793l.293-.293v-.878c-1.463-2.341-3.511-3.8-6.144-3.8a7.542 7.542 0 0 0-6.144 3.8c-.293.293 0 .878.293 1.17h-15.8c.293-.293.293-.293.293-.585v-.876a5.587 5.587 0 0 0 4.681-4.681h33.354A5.587 5.587 0 0 0 56.3 11.53v10.24a6.975 6.975 0 0 0-3.219 1.756zm-5.267 19.019a.906.906 0 0 0 .585.293 1.075 1.075 0 0 0 .878-.293 6.121 6.121 0 0 1 1.756-1.17v2.633H48.4c-.293 0-.585 0-.585.293zm5.267-7.9a.906.906 0 0 0 .585.293 1.075 1.075 0 0 0 .878-.293 6.121 6.121 0 0 1 1.756-1.17v2.633h-2.634c-.293 0-.585 0-.585.293z" class="cls-1"/>
        <path id="Path_3437" d="M13.815 11.3c-4.1 0-7.315 3.8-7.315 8.778s3.219 8.778 7.315 8.778 7.315-3.8 7.315-8.778-3.511-8.778-7.315-8.778zm0 2.048c2.926 0 5.267 2.926 5.267 6.73s-2.341 6.73-5.267 6.73-5.267-2.926-5.267-6.73 2.341-6.73 5.267-6.73z" class="cls-1" transform="translate(10.593 12.519)"/>
        <path id="Path_3438" d="M6.026 13.3A2.764 2.764 0 0 0 3.1 16.226a2.764 2.764 0 0 0 2.926 2.926 2.764 2.764 0 0 0 2.926-2.926c.292-1.463-1.171-2.926-2.926-2.926zm0 2.048a.776.776 0 0 1 .878.878.776.776 0 0 1-.878.878.776.776 0 0 1-.878-.878.934.934 0 0 1 .878-.878z" class="cls-1" transform="translate(4.044 16.37)"/>
        <path id="Path_3439" d="M18.652 16.226a2.764 2.764 0 0 0-2.926-2.926 2.764 2.764 0 0 0-2.926 2.926 2.764 2.764 0 0 0 2.926 2.926 2.932 2.932 0 0 0 2.926-2.926zm-2.926-.878a.776.776 0 0 1 .878.878.776.776 0 0 1-.878.878.776.776 0 0 1-.878-.878.776.776 0 0 1 .878-.878z" class="cls-1" transform="translate(22.726 16.37)"/>
    </g>
</svg>
