<?xml version="1.0" encoding="utf-8"?>
<!-- Generator: Adobe Illustrator 24.2.1, SVG Export Plug-In . SVG Version: 6.00 Build 0)  -->
<svg version="1.1" id="圖層_1" xmlns="http://www.w3.org/2000/svg" xmlns:xlink="http://www.w3.org/1999/xlink" x="0px" y="0px"
	 viewBox="0 0 300 300" style="enable-background:new 0 0 300 300;" xml:space="preserve">
<style type="text/css">
	.st0{fill:#ffffff;}
	.st1{fill:#ffffff;}
	.st2{fill:#ffffff;}
	.st3{fill:#ffffff;}
	.st4{fill:#ffffff;}
	.st5{fill:#ffffff;}
	.st6{fill:#ffffff;}
	.st7{fill:#ffffff;}
	.st8{fill:#ffffff;}
	.st9{fill:#ffffff;}
	.st10{fill:#ffffff;}
	.st11{fill:#ffffff;}
	.st12{fill:#ffffff;}
	.st13{fill:#ffffff;}
	.st14{fill:#ffffff;}
	.st15{fill:#ffffff;}
	.st16{fill:#ffffff;}
	.st17{fill:#ffffff;}
	.st18{fill:#ffffff;}
	.st19{fill:#ffffff;}
	.st20{fill:#ffffff;}
	.st21{fill:#ffffff;}
	.st22{fill:#ffffff;}
	.st23{fill:#ffffff;}
	.st24{fill:#ffffff;}
	.st25{fill:#ffffff;}
	.st26{fill:#ffffff;}
	.st27{fill:#ffffff;}
	.st28{fill:#ffffff;}
	.st29{fill:#ffffff;}
	.st30{fill:#ffffff;}
	.st31{fill:#ffffff;}
	.st32{fill:#ffffff;}
	.st33{fill:none;}
	.st34{fill:#ffffff;}
	.st35{fill:#ffffff;}
	.st36{fill:#ffffff;}
	.st37{fill:#ffffff;}
	.st38{fill:#ffffff;}
	.st39{fill:#ffffff;}
	.st40{fill:#ffffff;}
	.st41{fill:#ffffff;}
	.st42{fill:#ffffff;}
	.st43{fill:#ffffff;}
	.st44{fill:#ffffff;}
	.st45{fill:#ffffff;}
	.st46{fill:#ffffff;}
	.st47{fill:#ffffff;}
</style>
<g>
	<g>
		<g>
			<linearGradient id="SVGID_1_" gradientUnits="userSpaceOnUse" x1="57.7524" y1="42.8326" x2="242.2476" y2="42.8326">
				<stop  offset="0" style="stop-color:#171C61"/>
				<stop  offset="0.1256" style="stop-color:#192568"/>
				<stop  offset="0.4986" style="stop-color:#1F3E79"/>
				<stop  offset="0.8033" style="stop-color:#234E85"/>
				<stop  offset="1" style="stop-color:#245489"/>
			</linearGradient>
			<path class="st0" d="M235.86,49.22H64.14c-3.53,0-6.38-2.86-6.38-6.38c0-3.52,2.86-6.38,6.38-6.38h171.73
				c3.53,0,6.38,2.86,6.38,6.38C242.25,46.36,239.39,49.22,235.86,49.22z"/>
		</g>
		<g>
			<linearGradient id="SVGID_2_" gradientUnits="userSpaceOnUse" x1="57.7524" y1="257.164" x2="242.2476" y2="257.164">
				<stop  offset="0" style="stop-color:#171C61"/>
				<stop  offset="0.1256" style="stop-color:#192568"/>
				<stop  offset="0.4986" style="stop-color:#1F3E79"/>
				<stop  offset="0.8033" style="stop-color:#234E85"/>
				<stop  offset="1" style="stop-color:#245489"/>
			</linearGradient>
			<path class="st1" d="M235.86,263.55H64.14c-3.53,0-6.38-2.86-6.38-6.38c0-3.52,2.86-6.38,6.38-6.38h171.73
				c3.53,0,6.38,2.86,6.38,6.38C242.25,260.69,239.39,263.55,235.86,263.55z"/>
		</g>
		<g>
			<linearGradient id="SVGID_3_" gradientUnits="userSpaceOnUse" x1="134.0888" y1="275.3907" x2="165.9112" y2="275.3907">
				<stop  offset="0" style="stop-color:#171C61"/>
				<stop  offset="0.1256" style="stop-color:#192568"/>
				<stop  offset="0.4986" style="stop-color:#1F3E79"/>
				<stop  offset="0.8033" style="stop-color:#234E85"/>
				<stop  offset="1" style="stop-color:#245489"/>
			</linearGradient>
			<path class="st2" d="M159.53,281.77h-19.06c-3.52,0-6.38-2.86-6.38-6.38c0-3.52,2.86-6.38,6.38-6.38h19.06
				c3.52,0,6.38,2.86,6.38,6.38C165.91,278.92,163.05,281.77,159.53,281.77z"/>
		</g>
		<g>
			<linearGradient id="SVGID_4_" gradientUnits="userSpaceOnUse" x1="85.0824" y1="25.1079" x2="97.8485" y2="25.1079">
				<stop  offset="0" style="stop-color:#171C61"/>
				<stop  offset="0.1256" style="stop-color:#192568"/>
				<stop  offset="0.4986" style="stop-color:#1F3E79"/>
				<stop  offset="0.8033" style="stop-color:#234E85"/>
				<stop  offset="1" style="stop-color:#245489"/>
			</linearGradient>
			<path class="st3" d="M91.47,31.43c-1.66,0-3.32-0.64-4.47-1.85c-1.21-1.15-1.92-2.81-1.92-4.53c0-1.66,0.7-3.32,1.92-4.47
				c2.36-2.43,6.64-2.36,9-0.06c1.21,1.21,1.85,2.87,1.85,4.53c0,1.72-0.64,3.38-1.85,4.53C94.79,30.8,93.19,31.43,91.47,31.43z"/>
		</g>
		<g>
			<linearGradient id="SVGID_5_" gradientUnits="userSpaceOnUse" x1="55.0964" y1="150" x2="244.9036" y2="150">
				<stop  offset="0" style="stop-color:#171C61"/>
				<stop  offset="0.1256" style="stop-color:#192568"/>
				<stop  offset="0.4986" style="stop-color:#1F3E79"/>
				<stop  offset="0.8033" style="stop-color:#234E85"/>
				<stop  offset="1" style="stop-color:#245489"/>
			</linearGradient>
			<path class="st4" d="M225.75,300H74.25c-10.56,0-19.15-8.59-19.15-19.15V19.15C55.1,8.59,63.69,0,74.25,0h151.51
				c10.56,0,19.15,8.59,19.15,19.15v261.7C244.9,291.41,236.31,300,225.75,300z M74.25,12.77c-3.52,0-6.38,2.86-6.38,6.38v261.7
				c0,3.52,2.86,6.38,6.38,6.38h151.51c3.52,0,6.38-2.86,6.38-6.38V19.15c0-3.52-2.86-6.38-6.38-6.38H74.25z"/>
		</g>
		<g>
			<g>
				<g>
					<g>
						<g>
							<linearGradient id="SVGID_6_" gradientUnits="userSpaceOnUse" x1="120.2009" y1="108.8814" x2="179.7991" y2="108.8814">
								<stop  offset="0" style="stop-color:#171C61"/>
								<stop  offset="0.1256" style="stop-color:#192568"/>
								<stop  offset="0.4986" style="stop-color:#1F3E79"/>
								<stop  offset="0.8033" style="stop-color:#234E85"/>
								<stop  offset="1" style="stop-color:#245489"/>
							</linearGradient>
							<path class="st5" d="M150,138.68c-16.43,0-29.8-13.37-29.8-29.8s13.37-29.8,29.8-29.8c16.43,0,29.8,13.37,29.8,29.8
								S166.43,138.68,150,138.68z M150,91.85c-9.39,0-17.03,7.64-17.03,17.03s7.64,17.03,17.03,17.03
								c9.39,0,17.03-7.64,17.03-17.03S159.39,91.85,150,91.85z"/>
						</g>
						<g>
							<linearGradient id="SVGID_7_" gradientUnits="userSpaceOnUse" x1="109.171" y1="160.4142" x2="190.9565" y2="160.4142">
								<stop  offset="0" style="stop-color:#171C61"/>
								<stop  offset="0.1256" style="stop-color:#192568"/>
								<stop  offset="0.4986" style="stop-color:#1F3E79"/>
								<stop  offset="0.8033" style="stop-color:#234E85"/>
								<stop  offset="1" style="stop-color:#245489"/>
							</linearGradient>
							<path class="st6" d="M184.57,191.58c-0.04,0-0.09-0.01-0.13,0h-68.89c-3.52,0-6.38-2.86-6.38-6.38
								c0-25.87,17.83-55.95,40.83-55.95c22.59,0,40.21,29.04,40.81,54.6c0.09,0.44,0.14,0.89,0.14,1.35
								C190.96,188.72,188.1,191.58,184.57,191.58z M122.37,178.82h55.25c-2.37-17.89-14.14-36.81-27.63-36.81
								C136.51,142.01,124.75,160.93,122.37,178.82z"/>
						</g>
					</g>
					<g>
						<linearGradient id="SVGID_8_" gradientUnits="userSpaceOnUse" x1="95.5826" y1="206.7423" x2="204.4174" y2="206.7423">
							<stop  offset="0" style="stop-color:#171C61"/>
							<stop  offset="0.1256" style="stop-color:#192568"/>
							<stop  offset="0.4986" style="stop-color:#1F3E79"/>
							<stop  offset="0.8033" style="stop-color:#234E85"/>
							<stop  offset="1" style="stop-color:#245489"/>
						</linearGradient>
						<path class="st7" d="M198.03,213.12h-96.07c-3.52,0-6.38-2.86-6.38-6.38c0-3.52,2.86-6.38,6.38-6.38h96.07
							c3.52,0,6.38,2.86,6.38,6.38C204.42,210.27,201.56,213.12,198.03,213.12z"/>
					</g>
					<g>
						<linearGradient id="SVGID_9_" gradientUnits="userSpaceOnUse" x1="95.5826" y1="229.0827" x2="204.4174" y2="229.0827">
							<stop  offset="0" style="stop-color:#171C61"/>
							<stop  offset="0.1256" style="stop-color:#192568"/>
							<stop  offset="0.4986" style="stop-color:#1F3E79"/>
							<stop  offset="0.8033" style="stop-color:#234E85"/>
							<stop  offset="1" style="stop-color:#245489"/>
						</linearGradient>
						<path class="st8" d="M198.03,235.47h-96.07c-3.52,0-6.38-2.86-6.38-6.38c0-3.52,2.86-6.38,6.38-6.38h96.07
							c3.52,0,6.38,2.86,6.38,6.38C204.42,232.61,201.56,235.47,198.03,235.47z"/>
					</g>
				</g>
			</g>
		</g>
	</g>
</g>
</svg>
