<svg xmlns="http://www.w3.org/2000/svg" width="50" height="50" viewBox="0 0 50 50">
    <defs>
        <linearGradient id="a" x1="-165.011%" x2="112.797%" y1="-120.147%" y2="100%">
            <stop offset="0%" stop-color="#FFE894"/>
            <stop offset="100%" stop-color="#FF9202"/>
        </linearGradient>
    </defs>
    <g fill="url(#a)" fill-rule="nonzero">
        <path d="M24.28 25.17v-1.085a1.085 1.085 0 0 1 2.17 0v1.085h2.196a1.085 1.085 0 0 1 0 2.17h-4.374c-.61 0-1.102.488-1.102 1.085 0 .598.492 1.085 1.102 1.085h2.187a3.264 3.264 0 0 1 3.272 3.255c0 1.8-1.467 3.256-3.272 3.256h-.008v1.085a1.085 1.085 0 0 1-2.17 0V36.02h-2.196a1.085 1.085 0 0 1 0-2.17h4.374c.61 0 1.102-.488 1.102-1.086 0-.597-.492-1.085-1.102-1.085h-2.187A3.264 3.264 0 0 1 21 28.425c0-1.8 1.467-3.255 3.272-3.255h.008z"/>
        <path d="M8 20.15A1.85 1.85 0 0 0 6.15 22v17A1.85 1.85 0 0 0 8 40.85h34A1.85 1.85 0 0 0 43.85 39V22A1.85 1.85 0 0 0 42 20.15H8zm0-2.3h34A4.15 4.15 0 0 1 46.15 22v17A4.15 4.15 0 0 1 42 43.15H8A4.15 4.15 0 0 1 3.85 39V22A4.15 4.15 0 0 1 8 17.85zM9.15 16a1.15 1.15 0 1 1-2.3 0c0-2.308 1.957-4.15 4.338-4.15h27.624c2.381 0 4.338 1.842 4.338 4.15a1.15 1.15 0 1 1-2.3 0c0-1.006-.897-1.85-2.038-1.85H11.189c-1.14 0-2.038.844-2.038 1.85zM13.15 10a1.15 1.15 0 1 1-2.3 0A4.15 4.15 0 0 1 15 5.85h20A4.15 4.15 0 0 1 39.15 10a1.15 1.15 0 1 1-2.3 0A1.85 1.85 0 0 0 35 8.15H15A1.85 1.85 0 0 0 13.15 10z"/>
    </g>
</svg>
