<svg xmlns="http://www.w3.org/2000/svg" width="46" height="46" viewBox="0 0 46 46">
    <defs>
        <linearGradient id="8il3hfp8pa" x1="49.93%" x2="49.93%" y1="5.357%" y2="94.781%">
            <stop offset="0%" stop-color="#333bb3"/>
            <stop offset="100%" stop-color="#07115d"/>
        </linearGradient>
        <linearGradient id="lqj2gfrn5b" x1="49.702%" x2="49.702%" y1="-9.551%" y2="109.154%">
            <stop offset="0%" stop-color="#333bb3"/>
            <stop offset="100%" stop-color="#07115d"/>
        </linearGradient>
        <linearGradient id="t0ur6akjjc" x1="49.827%" x2="49.827%" y1="-14.934%" y2="114.532%">
            <stop offset="0%" stop-color="#333bb3"/>
            <stop offset="100%" stop-color="#07115d"/>
        </linearGradient>
        <linearGradient id="8bp8629kcd" x1="49.972%" x2="49.972%" y1="-3.084%" y2="105.582%">
            <stop offset="0%" stop-color="#333bb3"/>
            <stop offset="100%" stop-color="#07115d"/>
        </linearGradient>
        <linearGradient id="90jcxea7je" x1="49.972%" x2="49.972%" y1="-4.23%" y2="104.424%">
            <stop offset="0%" stop-color="#333bb3"/>
            <stop offset="100%" stop-color="#07115d"/>
        </linearGradient>
        <linearGradient id="lsdlx9lr9f" x1="49.972%" x2="49.972%" y1="-6.033%" y2="102.621%">
            <stop offset="0%" stop-color="#333bb3"/>
            <stop offset="100%" stop-color="#07115d"/>
        </linearGradient>
        <linearGradient id="vihlk6kz0g" x1="49.851%" x2="49.851%" y1="76.866%" y2="22.065%">
            <stop offset="0%" stop-color="#333bb3"/>
            <stop offset="100%" stop-color="#07115d"/>
        </linearGradient>
        <linearGradient id="z5bdnfj7nh" x1="49.834%" x2="49.834%" y1="83.419%" y2="14.415%">
            <stop offset="0%" stop-color="#333bb3"/>
            <stop offset="100%" stop-color="#07115d"/>
        </linearGradient>
    </defs>
    <g fill="none" fill-rule="evenodd" stroke-linecap="round" stroke-linejoin="round">
        <g>
            <g>
                <path stroke="url(#8il3hfp8pa)" d="M23.8 33.1c-.5-.6-.7-1.4-.7-2.2h-18c-1.9 0-3.7-1.3-4.2-3.1-.6-2.4-.9-4.9-.7-7.5C1 9.4 10 .6 21 .1c13.3-.6 24.2 10.7 22.8 24.1-1 10.4-9.6 18.8-20 19.6-3 .2-5.8-.1-8.5-1" transform="translate(-1406 -19) translate(1407 20)"/>
                <path stroke="url(#lqj2gfrn5b)" d="M6.6 32.4c.2.5.5.9.9 1.2.7.6 1.5 1 2.5 1h16.8c2 0 3.7-1.6 3.7-3.7V13.2c0-2 1.6-3.7 3.7-3.7 2 0 3.7 1.6 3.7 3.7h-5.1" transform="translate(-1406 -19) translate(1407 20)"/>
                <path stroke="url(#t0ur6akjjc)" d="M11.6 28.5V13.2c0-2 1.6-3.7 3.7-3.7h14.6" transform="translate(-1406 -19) translate(1407 20)"/>
                <path stroke="url(#8bp8629kcd)" d="M26.3 15.4H15.9c-.7 0-1.2-.5-1.2-1.2s.5-1.2 1.2-1.2h10.4c.7 0 1.2.5 1.2 1.2s-.5 1.2-1.2 1.2z" transform="translate(-1406 -19) translate(1407 20)"/>
                <path stroke="url(#90jcxea7je)" d="M26.3 21.6H15.9c-.7 0-1.2-.5-1.2-1.2s.5-1.2 1.2-1.2h10.4c.7 0 1.2.5 1.2 1.2s-.5 1.2-1.2 1.2z" transform="translate(-1406 -19) translate(1407 20)"/>
                <path stroke="url(#lsdlx9lr9f)" d="M26.3 27.9H15.9c-.7 0-1.2-.5-1.2-1.2s.5-1.2 1.2-1.2h10.4c.7 0 1.2.5 1.2 1.2 0 .6-.5 1.2-1.2 1.2z" transform="translate(-1406 -19) translate(1407 20)"/>
                <path stroke="url(#vihlk6kz0g)" d="M38.6 31c-3.2 5.9-9.4 9.9-16.6 9.9" transform="translate(-1406 -19) translate(1407 20)"/>
                <path stroke="url(#z5bdnfj7nh)" d="M12.5 5.8c2.8-1.6 6.1-2.6 9.5-2.6" transform="translate(-1406 -19) translate(1407 20)"/>
            </g>
        </g>
    </g>
</svg>
