<svg xmlns="http://www.w3.org/2000/svg" width="60" height="60" viewBox="0 0 60 60">
    <g fill="none">
        <path fill="#EDFCEB" d="M48.955 2.365C48.15.57 46-.21 44.21.63l-41.85 19.58C.566 21.019-.21 23.175.626 24.97l9.612 20.659 48.328-22.605-9.612-20.659z" transform="translate(0 5)"/>
        <path fill="#84E06E" d="M16.06 49.64l41.88-19.55c1.791-.839 2.567-2.994 1.702-4.76l-1.075-2.276L10.27 45.629l1.044 2.275c.806 1.797 2.956 2.575 4.747 1.737z" transform="translate(0 5)"/>
        <path fill="#EDFCEB" d="M54.955 28.503l-10.686 5c-1.284.599-2.776.03-3.373-1.228l-6.329-13.622c-.597-1.288-.03-2.785 1.224-3.384l10.687-5c1.283-.598 2.776-.03 3.373 1.228l6.328 13.623c.597 1.257.06 2.784-1.224 3.383z" transform="translate(0 5)"/>
        <g>
            <path fill="#F4B362" d="M13.493 11.228c.806-1.497.955-3.234.268-4.731-.388-.808-.955-1.437-1.642-1.886-.03 0-.03-.03-.03-.06-.208-.599-.596-1.437-1.402-2.605C9.045-.509 8.358 0 8.149.3c-.03.06-.06.12-.06.21l.09 3.234c0 .09-.06.15-.15.18-.686.119-1.402.328-2.089.658-.776.36-1.492.838-2.06 1.377-.06.06-.149.06-.238 0L1.164 3.772c-.06-.06-.12-.09-.209-.09-.328-.03-1.194.18-.358 3.025.418 1.437.836 2.305 1.164 2.844.03.06.09.12.15.18.03.03.03.06.03.09-.03.688.119 1.377.417 2.065.717 1.527 2.12 2.515 3.761 2.845.21.03.299.24.24.449-.21.628-.538 1.946 0 3.113l1.402-.658 6.866-3.204 1.343-.629c-.537-1.137-1.701-1.736-2.328-1.976-.18-.21-.239-.419-.15-.598z" transform="translate(0 5) translate(38.209 14.67)"/>
            <path fill="#FEFBF7" d="M6.537 13.892c.717.15.747.54.747.54l.179.418c.179.988-.15 1.707.238 2.515.03.06.06.12.09.15l6.866-3.204c-.03-.06-.06-.12-.06-.15-.388-.808-1.194-.987-1.761-1.796l-.21-.389s-.268-.3.09-.928c0 0 1.463-2.964-1.253-3.982C8.746 6.048 8.179 9.28 8.179 9.28S5.343 7.635 4.36 10.39c-1.046 2.725 2.178 3.503 2.178 3.503z" transform="translate(0 5) translate(38.209 14.67)"/>
            <g transform="translate(0 5) translate(38.209 14.67) translate(4.478 5.39)">
                <path fill="#5C2C0A" d="M4.597 1.856c.06-.09.12-.24.12-.27.06-.179.149-.299.328-.388.209-.09.448-.06.627.06l.03.03h.03c.089.09.208.15.298.18.06.029.06.089.03.149-.06.09-.15.27-.15.27-.03.179-.149.329-.328.418-.239.12-.507.06-.686-.12l-.03-.03c-.06-.06-.15-.09-.21-.12-.089-.059-.089-.119-.059-.179zM1.493 3.293c-.12 0-.27-.06-.299-.09-.15-.06-.328-.09-.507 0-.21.09-.329.3-.359.54v.09c0 .12-.03.239-.06.329 0 .06.03.12.09.12.12 0 .299.06.299.06.149.09.358.09.537 0 .239-.12.358-.36.358-.6v-.06c0-.09.03-.179.06-.239 0-.09-.06-.15-.12-.15z"/>
                <circle cx=".806" cy="3.593" r="1" fill="#FCFCFC"/>
                <circle cx="4.985" cy="1.647" r="1" fill="#FCFCFC"/>
                <circle cx=".81" cy="2.432" r="1" fill="#FEFBF7" transform="rotate(-70.001 .81 2.432)"/>
                <circle cx="4.445" cy=".701" r="1" fill="#FEFBF7" transform="rotate(-70.001 4.445 .7)"/>
            </g>
            <path fill="#FEFBF7" d="M3.164 5.988l-1.91-1.677c-.09-.06-.18-.09-.269-.09-.269.06-.627.36-.15 2.036.3.989.568 1.587.777 1.947.179.299.627.24.746-.06.15-.42.418-.988.836-1.587.15-.21.12-.45-.03-.569zM8.537 3.473L8.477.928c0-.09.03-.21.12-.27.209-.179.687-.239 1.642 1.198.567.839.836 1.437.985 1.857.12.329-.21.628-.537.538-.418-.15-1.015-.299-1.762-.359-.238-.03-.388-.21-.388-.419z" transform="translate(0 5) translate(38.209 14.67)"/>
            <path fill="#5C2C0A" d="M10.925 9.97c-.09-.03-.179 0-.209.09-.268.778-1.313.689-1.701.629-.03 0-.06-.03-.09-.06l-.09-.15c.508-.33.747-.928.508-1.407-.239-.54-.955-.749-1.552-.45-.597.3-.895.959-.657 1.498.24.479.836.718 1.403.509l.09.15v.09c-.18.329-.776 1.167-1.552.897-.09-.03-.18 0-.21.09s0 .18.12.24c.328.12.657.09.955-.06.18-.09.359-.21.538-.39.209-.209.358-.418.447-.568.03-.03.06-.06.09-.06.179.03.448.06.716.03.24-.03.448-.06.657-.15.328-.15.537-.389.657-.718.03-.06-.03-.18-.12-.21z" transform="translate(0 5) translate(38.209 14.67)"/>
            <path fill="#F2F0ED" d="M8.866 13.503s1.015.09 2.09-.988c1.074-1.078-.15.958-.15.958s-.209.36-.478.48c-.268.119-.746.029-.746.029s-1.701-.39-.716-.479z" transform="translate(0 5) translate(38.209 14.67)"/>
        </g>
        <path fill="#84E06E" d="M55.493 28.982l-11.165 5.21c-1.462.688-3.224.06-3.91-1.438L33.85 18.653c-.687-1.467-.06-3.234 1.433-3.922l11.164-5.21c1.462-.689 3.224-.06 3.91 1.437l6.567 14.102c.687 1.467.03 3.233-1.432 3.922zM35.85 15.988c-.806.39-1.164 1.347-.776 2.156l6.567 14.102c.388.808 1.343 1.167 2.149.778l11.164-5.21c.806-.389 1.164-1.347.776-2.155l-6.567-14.102c-.388-.808-1.343-1.168-2.15-.779l-11.163 5.21z" transform="translate(0 5)"/>
        <g fill="#84E06E">
            <path d="M1.403 13.054l-.358.15.358.778c.06.12.03.21-.09.27-.119.06-.179.03-.238-.09l-.926-2.006c-.06-.15-.03-.27.12-.33l.477-.21c.24-.119.448-.119.627-.06.18.06.328.24.448.45.12.24.12.45.06.629-.12.18-.24.33-.478.419zm-.597-1.108l-.299.12.389.838.358-.15c.12-.06.179-.12.209-.239.03-.09 0-.21-.06-.33-.06-.15-.15-.239-.239-.269-.12-.06-.209-.03-.358.03zM3.433 13.263c-.21.09-.418.12-.597.03-.15-.06-.299-.21-.388-.449L1.7 11.228c-.06-.12-.03-.21.09-.24.12-.06.209-.03.239.09l.746 1.617c.12.27.269.329.478.24.209-.09.268-.27.149-.54l-.746-1.617c-.06-.12-.03-.18.09-.24.119-.059.208-.029.238.09l.746 1.618c.12.239.12.419.09.598-.06.18-.18.33-.388.42zM5.493 12.305c-.12.06-.21.03-.27-.09l-.447-.958-.627.3.448.958c.06.12.03.21-.09.24-.119.06-.208.03-.268-.09l-.985-2.126c-.06-.12-.03-.18.09-.24.119-.06.208-.03.238.09l.388.868.627-.299-.388-.868c-.06-.12-.03-.21.09-.24.119-.06.208-.03.238.09l.985 2.126c.12.09.09.18-.03.24zM7.075 11.497l-.896.42c-.06.03-.15.03-.209.03-.06-.03-.12-.06-.15-.12L4.956 9.94c-.03-.06-.03-.15 0-.21s.09-.12.15-.15L6 9.163c.09-.03.18 0 .209.09.06.12.03.18-.06.239l-.597.27c-.149.06-.179.18-.12.299l.18.419.687-.33c.09-.03.149 0 .208.09.06.12.03.18-.06.21l-.716.33.269.568c.06.15.18.18.328.12l.597-.27c.09-.03.15 0 .21.09.059.09.03.15-.06.21zM7.791 8.473L7.881 10l.358.778c.06.12.03.21-.09.27-.12.06-.209.03-.268-.09l-.359-.778-1.104-1.048c-.03-.03-.03-.03-.03-.06-.03-.06-.03-.09 0-.15s.06-.09.12-.12c.089-.03.149-.03.208.03l.806.809-.119-1.138c0-.09.03-.15.12-.18.06-.03.089-.03.149-.03.06.03.09.06.119.09v.09zM11.313 9.58c-.209.09-.417.12-.597.03-.149-.06-.298-.209-.388-.448l-.746-1.617c-.06-.12-.03-.21.09-.24.119-.06.209-.03.238.09l.747 1.617c.12.27.268.33.477.24.21-.09.269-.27.15-.54l-.747-1.616c-.06-.12-.03-.18.09-.24s.209-.03.239.09l.746 1.617c.12.24.12.419.09.599s-.18.3-.389.419zM13.403 8.593c-.09.03-.15 0-.269-.06l-1.283-1.078.627 1.377c.06.12.03.21-.09.24-.12.06-.209.03-.269-.09l-.985-2.126c-.03-.03-.03-.09 0-.15s.06-.09.09-.12c.09-.03.179-.03.269.06l1.283 1.079-.627-1.378c-.06-.12-.03-.21.09-.24.12-.06.209-.03.268.09l.986 2.126c.03.03.03.09 0 .15s-.06.12-.09.12zM14.478 8.084c-.12.06-.21.03-.24-.09l-1.014-2.156c-.06-.09 0-.18.09-.24.119-.06.179-.03.238.06l1.015 2.186c.06.12.03.21-.09.24zM15.701 4.79l.508 2.336c.03.12-.03.18-.15.24-.119.06-.208.03-.268-.06l-1.463-1.887c0-.03-.03-.03-.03-.06-.03-.06-.03-.09 0-.15s.06-.09.12-.12c.09-.03.15-.03.209.06l1.045 1.318-.329-1.647c-.03-.09 0-.18.12-.21.06-.03.09-.03.149 0 .06.03.09.06.12.09-.06.03-.03.06-.03.09zM18.12 6.317l-.896.42c-.06.03-.15.03-.21.03-.059-.03-.118-.06-.148-.12L16 4.76c-.03-.06-.03-.15 0-.21.03-.059.09-.119.15-.149l.895-.419c.09-.03.179 0 .209.09.06.12.03.18-.06.24l-.597.269c-.15.06-.18.18-.12.3l.18.418.686-.329c.09-.03.15 0 .21.09.059.12.03.18-.06.21l-.687.329.269.569c.06.15.179.18.328.12l.597-.27c.09-.03.15 0 .209.09.03.09 0 .18-.09.21zM19.672 5.659c-.09.03-.15.03-.21-.03l-.716-.659-.298.15.358.778c.06.12 0 .18-.12.24-.119.06-.208.03-.238-.09l-.926-2.036c-.03-.06-.03-.15 0-.21s.06-.12.15-.15l.358-.179c.239-.12.448-.12.627-.06s.328.21.447.45c.15.299.15.568-.03.778l.717.628.06.06c.03.06.03.09 0 .15-.06.12-.12.15-.18.18zm-1.553-1.827l-.209.09.389.838.298-.15c.209-.089.239-.269.12-.568-.15-.24-.329-.33-.598-.21zM20.806 5.12c-.239.12-.448.12-.687.03-.209-.09-.328-.18-.388-.3-.03-.06-.03-.09 0-.15.03-.03.06-.09.12-.12s.149-.03.239.03c.119.09.209.15.268.18.09.03.21.03.269-.03.09-.06.179-.12.209-.21.03-.089.03-.179 0-.269-.06-.12-.18-.21-.358-.24h-.448c-.388 0-.657-.149-.806-.448-.09-.21-.09-.39 0-.569.09-.18.239-.3.418-.39.149-.06.298-.09.507-.06.24 0 .358.09.418.21.03.06.03.09 0 .15s-.06.09-.09.12c-.06.03-.119.03-.178 0-.24-.09-.389-.12-.508-.06-.09.03-.15.12-.209.18-.03.09-.03.15 0 .27.06.149.18.209.358.239h.448c.209 0 .358.03.478.09.149.06.268.209.328.389.09.21.09.389.03.569-.06.15-.18.299-.418.389zM22.358 4.401c-.12.06-.209.03-.239-.09l-1.015-2.155c-.06-.09 0-.18.09-.24.12-.06.18-.03.239.06l1.015 2.186c.06.12.03.18-.09.24zM23.493 1.317l-.359.18.896 1.916c.06.12.03.21-.09.27-.12.06-.209.03-.268-.12l-.896-1.916-.328.15c-.12.06-.18.03-.239-.09-.06-.12-.03-.18.09-.24l1.074-.509c.09-.06.18 0 .239.09.03.15 0 .24-.12.27zM25.164.36l.09 1.526.358.779c.06.12.03.21-.09.27-.119.059-.209.03-.268-.09l-.358-.78-1.105-1.047c-.03-.03-.03-.03-.03-.06-.03-.06-.03-.09 0-.15s.06-.09.12-.12c.09-.03.149-.03.209.03l.806.809-.12-1.138c0-.09.03-.15.12-.18.06-.03.09-.03.149-.03.06.03.09.06.12.09v.09z" transform="translate(0 5) translate(20.299 3.293)"/>
        </g>
        <g fill="#EDFCEB">
            <path d="M1.612 12.036l-.388.18.388.838c.06.12.03.21-.12.27-.119.06-.208.03-.268-.09L.209 11.078c-.09-.18-.03-.3.15-.36l.507-.239c.238-.12.477-.15.656-.06.21.09.359.24.478.51.12.239.15.478.06.658-.03.18-.21.33-.448.449zm-.657-1.198l-.298.15.418.898.388-.18c.12-.06.179-.15.209-.269.03-.12 0-.21-.06-.36-.06-.149-.15-.239-.269-.299-.09-.03-.209 0-.388.06zM4.328 12.006c-.119.06-.209.03-.268-.09l-.478-1.048-.657.3.478 1.048c.06.12.03.21-.09.269-.119.06-.209.03-.268-.09L1.97 10.09c-.06-.12-.03-.21.12-.27.119-.06.209-.03.268.09l.418.928.657-.3-.418-.927c-.06-.12-.03-.21.12-.27.119-.06.208-.03.268.09l1.075 2.306c0 .12-.03.21-.15.269zM5.493 11.467c-.24.12-.448.12-.627.03-.18-.09-.329-.24-.418-.479l-.806-1.737c-.06-.12-.03-.21.12-.269.119-.06.208-.03.268.09l.806 1.736c.12.27.298.36.537.27.239-.12.269-.3.15-.57l-.807-1.736c-.06-.12-.03-.21.09-.27.12-.059.209-.029.269.09l.806 1.737c.119.24.149.45.09.629-.09.21-.24.36-.478.48zM8.925 9.85c-.238.12-.507.12-.746.03-.209-.09-.358-.18-.388-.3-.03-.059-.03-.119 0-.149.03-.06.06-.09.12-.12.089-.03.149-.03.238.06.15.12.24.18.269.18.12.03.209.03.298-.03.12-.06.18-.12.24-.24.03-.09.03-.18 0-.299-.06-.15-.18-.21-.389-.24-.06 0-.209-.03-.477 0-.418 0-.717-.18-.866-.508-.09-.21-.09-.42 0-.6.09-.179.239-.329.448-.418.149-.06.328-.09.537-.09.239.03.388.09.448.21.03.06.03.09 0 .149-.03.06-.06.09-.12.12s-.149.03-.209 0c-.238-.09-.418-.12-.537-.06-.09.06-.18.12-.209.21-.03.09-.03.18 0 .269.06.15.209.24.388.24h.478c.239 0 .388.03.507.09.15.09.269.209.358.418.09.21.12.42.03.63-.03.209-.179.358-.418.448zM10.12 6.557l-.389.18.956 2.065c.06.12.03.24-.12.3-.12.06-.209.03-.298-.12l-.956-2.036-.358.18c-.12.06-.209.03-.268-.09-.06-.12-.03-.21.09-.27l1.133-.538c.12-.06.18 0 .24.12.119.06.089.149-.03.209zM12.299 8.293c-.24.12-.448.12-.627.03-.18-.09-.329-.24-.418-.479l-.806-1.736c-.06-.12-.03-.21.12-.27.119-.06.208-.03.268.09l.806 1.737c.12.27.298.359.537.27.239-.12.269-.3.15-.57l-.807-1.736c-.06-.12-.03-.21.09-.27.12-.06.209-.03.269.09l.806 1.737c.119.24.149.449.09.628-.09.21-.24.36-.478.48zM13.82 7.485l-.238.12c-.239.12-.388.09-.478-.09l-.925-2.006c-.06-.12-.03-.21.03-.27.03-.06.12-.12.239-.18l.209-.089c.597-.27 1.104 0 1.492.808.358.869.269 1.438-.328 1.707zm-1.014-2.186c-.15.09-.209.21-.12.39l.657 1.407c.06.15.18.15.358.09.18-.09.27-.27.24-.57-.03-.179-.09-.388-.18-.628-.12-.24-.239-.42-.358-.539-.209-.21-.418-.24-.597-.15zM16.209 6.377l-.985.45c-.09.03-.15.03-.239.03-.09-.03-.15-.06-.179-.15l-.925-2.036c-.03-.09-.03-.15 0-.24.03-.06.09-.12.179-.18l.955-.449c.09-.06.179-.03.239.09s.03.21-.06.24l-.627.3c-.15.059-.179.179-.12.328l.21.45.746-.36c.09-.06.18 0 .239.09.06.12.03.18-.06.24l-.746.359.298.629c.06.15.18.18.359.12l.656-.3c.09-.06.18 0 .24.09-.06.15-.06.24-.18.3zM17.94 5.659c-.09.03-.179 0-.268-.09L16.299 4.4l.686 1.467c.06.12.03.21-.09.27-.119.06-.208.03-.268-.09l-1.075-2.305c-.03-.06-.03-.09 0-.15s.06-.09.09-.12c.09-.03.179-.03.298.06L17.313 4.7l-.686-1.467c-.06-.12-.03-.21.09-.27.119-.06.208-.03.268.09l1.075 2.275c.03.03.03.09 0 .15-.06.12-.09.15-.12.18zM18.627 2.575l-.388.18.955 2.065c.06.12.03.24-.12.3-.119.06-.208.03-.298-.12l-.955-2.036-.358.18c-.12.06-.21.03-.269-.09-.06-.12-.03-.21.09-.27l1.134-.538c.12-.06.179 0 .239.12.12.09.09.149-.03.209zM22.507 3.503c-.119.06-.208.03-.268-.09l-1.075-2.335c-.06-.12 0-.18.12-.24.119-.06.209-.03.268.09l1.075 2.335c.03.12 0 .18-.12.24zM24 2.725l-.239.12c-.239.12-.388.09-.477-.09L22.358.748c-.06-.12-.03-.21.03-.27.03-.06.12-.12.239-.18l.209-.09c.597-.269 1.104 0 1.492.809.388.838.299 1.407-.328 1.707zM23.015.539c-.15.09-.209.21-.12.39l.657 1.406c.06.15.18.15.358.09.18-.09.27-.27.24-.569-.03-.18-.09-.389-.18-.628-.12-.24-.239-.42-.358-.54-.209-.209-.418-.269-.597-.15z" transform="translate(0 5) translate(14.03 35.03)"/>
        </g>
        <g fill="#84E06E">
            <path d="M2.209 5.27c-.09.03-.15.03-.209-.06l-.358-.45-.597.27.12.569c.029.09 0 .18-.09.21-.12.06-.21.03-.269-.09 0-.03 0-.03-.03-.06L.27 3.144c-.03-.12.03-.21.149-.27.12-.06.209-.03.298.06L2.3 4.94c.03.03.03.03.03.06.03.12 0 .21-.12.27zM.716 3.622l.21 1.048.447-.21-.657-.838zM3.91 4.491c-.119.06-.209.03-.268-.09l-.358-.778c-.18-.36-.359-.48-.568-.39-.09.06-.179.15-.209.33-.03.15-.03.27 0 .419l.359.778c.06.12.03.21-.09.27-.12.06-.209.03-.269-.09L1.433 2.635c-.06-.12-.03-.21.09-.27.119-.06.208-.03.268.09l.478 1.018c.03-.3.179-.479.418-.599.179-.09.388-.09.567.03.149.09.268.24.358.45L4 4.191c.06.15.03.24-.09.299zM6.239 2.156l-.388.18.388.838c.06.12.03.21-.12.27-.119.059-.209.03-.268-.09L4.836 1.197c-.09-.18-.03-.3.15-.36l.507-.24C5.73.48 5.97.45 6.149.539c.21.09.358.24.478.51.12.24.15.479.06.659-.03.18-.18.329-.448.449zM5.612.958l-.299.15.418.898.388-.18c.12-.06.18-.15.21-.27.03-.119 0-.209-.06-.358-.06-.15-.15-.24-.269-.3-.12-.03-.239-.03-.388.06zM8.985 2.096c-.12.06-.209.03-.269-.09l-.06-.09c-.059.27-.178.45-.357.51-.418.209-.747.059-.956-.39l-.447-.928c-.06-.12-.03-.21.09-.27.118-.06.208-.03.268.09l.418.868c.119.27.328.36.567.24.09-.06.15-.12.179-.24.03-.12.03-.21-.03-.329L7.97.57c-.06-.12-.03-.21.09-.27.12-.06.209-.03.268.09l.657 1.407c.15.15.12.24 0 .3z" transform="translate(0 5) translate(11.642 36.527)"/>
        </g>
        <g fill="#84E06E">
            <path d="M15.701 4.311c.06-.18.12-.449.15-.688.03-.3.03-.869-.18-1.138-.089-.09-.208-.15-.328-.18-.179-.03-.447.06-.597.51-.03.09-.06.179-.09.299-.059-.09-.149-.21-.208-.3-.03-.09-.12-.18-.21-.24-.119-.149-.238-.269-.387-.418.06-.09.06-.24.06-.42 0-.21-.06-.449-.12-.688-.09-.24-.18-.48-.269-.659-.238-.419-.507-.419-.686-.36-.18.06-.388.21-.358.69 0 .12.03.269.06.389-.329-.21-.687-.39-1.075-.54-.21-.089-.448 0-.538.21-.09.21 0 .45.21.54.626.269 1.223.628 1.73 1.077-.447.03-.925.18-.925.599 0 .509.687.629 1.254.599.269 0 .507-.03.716-.09h.03c.24.36.478.719.657 1.108.15.3.269.599.358.928-.179-.09-.388-.18-.537-.21-.448-.12-.657.06-.746.21-.24.449.298.868.806 1.138.238.12.447.21.656.27.03 0 .06 0 .09.029.03.599 0 1.228-.12 1.796-.238-.449-.597-.898-1.014-.688-.478.21-.27.898-.03 1.407.149.3.328.599.537.778-.18.36-.358.69-.597 1.018-.12.18-.09.42.09.57.119.09.268.09.417.03.06-.03.12-.06.15-.12.12-.15.209-.3.298-.48.299.06.687-.09 1.015-.24.508-.239 1.105-.628.866-1.107-.18-.419-.746-.3-1.224-.12.12-.359.209-.718.298-1.107.03 0 .09-.03.12-.06.03 0 .03-.03.06-.03.179-.09.358-.21.537-.36.209-.15.388-.329.507-.479.299-.359.21-.628.12-.778-.12-.15-.329-.27-.776-.09-.15.06-.299.15-.478.27-.03-.869-.209-1.767-.537-2.575.09-.03.179-.15.238-.3zM8.18 13.982c-.389-.03-.777-.09-1.165-.18 0-.27-.12-.598-.239-.898-.239-.509-.627-1.108-1.104-.868-.418.18-.299.748-.12 1.227-.537-.269-1.015-.628-1.462-1.047 0-.03.03-.06.03-.06.089-.18.149-.42.208-.689.12-.569.15-1.257-.358-1.347-.179-.03-.448 0-.657.449-.06.15-.149.36-.179.569-.179-.27-.358-.57-.477-.869-.18-.389-.329-.808-.418-1.227 0 0 .03 0 .03-.03.149-.12.358-.3.507-.48.358-.448.746-1.017.358-1.346-.149-.12-.388-.21-.776.06-.09.06-.209.15-.298.269 0-.689.09-1.377.298-2.036.06-.21-.06-.45-.268-.509-.21-.06-.448.06-.508.27-.12.389-.209.778-.269 1.167C1.015 6.018.627 5.72.3 5.928c-.15.09-.299.33-.15.749.06.18.18.419.329.628.149.21.298.42.447.54.15.12.269.179.359.209.03.18.03.36.06.539 0 .12 0 .21.059.33l.09.358c-.09-.06-.18-.09-.27-.12-.447-.179-.656-.03-.775.12-.12.15-.18.42.149.779.12.15.328.33.537.479.21.15.448.27.627.33.15.06.299.09.388.06.418.778.985 1.496 1.642 2.065-.507.15-1.015.39-.925.838.12.51.806.45 1.373.33.209-.06.418-.12.627-.21l.179-.09c.328.18.656.36 1.015.48-.448.239-.896.598-.687 1.017.21.48.896.27 1.403.03.328-.15.687-.36.836-.629.179.03.358.06.567.06.06 0 .15 0 .21-.03.118-.06.208-.18.238-.329-.06-.27-.239-.449-.448-.479z" transform="translate(0 5) translate(4.478 16.766)"/>
        </g>
        <g fill="#84E06E">
            <path d="M2.478 3.952c-.508.24-1.165-.18-1.493-.928-.358-.749-.239-1.527.269-1.767.507-.239 1.164.18 1.492.929.358.778.24 1.557-.268 1.766zM4.716 2.904c-.507.24-1.164-.18-1.492-.928-.328-.748-.239-1.527.269-1.766.507-.24 1.164.18 1.492.928.328.748.209 1.557-.269 1.766zM1.97 6.138c-.15.06-.358.09-.537.06-.269-.06-.537-.21-.776-.42-.24-.21-.418-.479-.478-.718-.09-.3-.06-.569.12-.779.179-.18.447-.269.746-.21.268.06.537.21.776.42s.418.48.478.719c.09.299.06.568-.12.778-.06.06-.15.12-.209.15zM6.746 3.892c-.09.03-.149.06-.239.06-.238 0-.507-.15-.656-.42-.15-.239-.24-.538-.24-.837 0-.33.06-.63.18-.869.15-.27.388-.449.627-.449s.507.15.657.42c.149.239.238.538.238.838 0 .33-.06.628-.179.868-.09.18-.238.33-.388.39zM4.388 8.593c-.239.12-.478.15-.716.09-.24-.06-.478-.21-.657-.42-.12-.15-.239-.359-.299-.628-.09-.3-.119-.629-.119-.988.03-.48.15-.958.388-1.437.12-.24.269-.48.418-.66.12-.179.269-.328.478-.448h.06c.328-.15.775-.09 1.044-.06.358.03.687.12.985.27.597.239 1.105.658 1.433 1.167.15.24.269.45.298.689.06.3 0 .598-.179.808-.149.21-.388.36-.716.42-.239.06-.478.03-.687.03l-.567-.03h-.09c0 .03-.03.03-.03.06-.089.179-.208.328-.328.508-.119.18-.298.39-.567.539-.06.03-.09.06-.149.09z" transform="translate(0 5) translate(9.254 20.06)"/>
        </g>
    </g>
</svg>
