<?xml version="1.0" encoding="utf-8"?>
<!-- Generator: Adobe Illustrator 24.2.1, SVG Export Plug-In . SVG Version: 6.00 Build 0)  -->
<svg version="1.1" id="圖層_1" xmlns="http://www.w3.org/2000/svg" xmlns:xlink="http://www.w3.org/1999/xlink" x="0px" y="0px"
	 viewBox="0 0 95.1 99.8" style="enable-background:new 0 0 95.1 99.8;" xml:space="preserve">
<style type="text/css">
	.st0{display:none;fill:#ECEDF1;}
	.st1{fill:#124385;}
	.st2{fill:#C29B61;}
	.st3{opacity:0.82;fill:none;stroke:url(#SVGID_1_);stroke-miterlimit:10;enable-background:new    ;}
	.st4{opacity:0.4;fill:none;stroke:#2CA6E0;stroke-width:0.75;stroke-miterlimit:10;enable-background:new    ;}
	.st5{opacity:0.82;fill:none;stroke:url(#SVGID_2_);stroke-miterlimit:10;enable-background:new    ;}
	.st6{opacity:0.82;fill:none;stroke:url(#SVGID_3_);stroke-miterlimit:10;enable-background:new    ;}
	.st7{fill:none;stroke:url(#SVGID_4_);stroke-width:0.75;}
</style>
<rect class="st0" width="95.1" height="99.8"/>
<g>
	<path class="st1" d="M49.8,66.9L49.8,66.9L49.8,66.9z"/>
	<path class="st2" d="M49.8,66.9L49.8,66.9L49.8,66.9z"/>
	
		<linearGradient id="SVGID_1_" gradientUnits="userSpaceOnUse" x1="63.9468" y1="46.8431" x2="85.2674" y2="91.0635" gradientTransform="matrix(1 0 0 -1 0 102)">
		<stop  offset="0" style="stop-color:#319ACF"/>
		<stop  offset="1" style="stop-color:#16559B"/>
	</linearGradient>
	<path class="st3" d="M55.2,10.4L55.2,10.4L55.2,10.4L55.2,10.4L55.2,10.4L55.2,10.4c9.2-1.6,15.2,0.7,18.1,2.1
		c6.1,3.1,10.9,8.9,13.9,16.4c2.5,6.3,3.8,13.8,3.6,21.9c0,0.2,0,0.5,0,0.7c-0.1,2.7-0.4,5.5-0.8,8.4c-0.4,2.3-0.8,4.6-1.4,6.9l0,0
		c0,0,5.9-17.2,6.1-34.5C92.9-3.6,55.2,10.4,55.2,10.4z"/>
	<path class="st4" d="M94.5,32.4c0-6.7-0.8-13.5-3.2-19.2c-2-4.6-5-7.4-6.3-8.5c-1.9-1.5-4.4-2.9-7.4-3.6c-8-1.9-16.8,1.8-22.3,9.4
		C55.2,10.4,92.9-3.6,94.5,32.4z"/>
	
		<linearGradient id="SVGID_2_" gradientUnits="userSpaceOnUse" x1="44.5931" y1="47.3163" x2="72.3865" y2="6.8578" gradientTransform="matrix(1 0 0 -1 0 102)">
		<stop  offset="0" style="stop-color:#319ACF"/>
		<stop  offset="1" style="stop-color:#16559B"/>
	</linearGradient>
	<path class="st5" d="M87.7,69.3L87.7,69.3L87.7,69.3L87.7,69.3L87.7,69.3L87.7,69.3c-3.2,8.8-8.1,12.8-10.8,14.6
		c-5.7,3.8-13.1,5-21.1,3.9C49.1,86.9,42,84.3,35,80c-0.2-0.1-0.4-0.3-0.6-0.4c-2.3-1.4-4.6-3.1-6.8-4.9c-1.8-1.4-3.6-3-5.3-4.7l0,0
		c0,0,12,13.7,26.9,22.4C81.2,108.9,87.7,69.3,87.7,69.3z"/>
	<path class="st4" d="M49.2,92.5c5.8,3.4,12.1,6,18.3,6.8c5,0.6,8.9-0.7,10.5-1.3c2.2-0.9,4.7-2.3,6.8-4.7c5.6-6,6.7-15.5,2.9-24
		C87.7,69.3,81.2,108.9,49.2,92.5z"/>
	
		<linearGradient id="SVGID_3_" gradientUnits="userSpaceOnUse" x1="54.8974" y1="63.9859" x2="5.9505" y2="60.247" gradientTransform="matrix(1 0 0 -1 0 102)">
		<stop  offset="0" style="stop-color:#319ACF"/>
		<stop  offset="1" style="stop-color:#16559B"/>
	</linearGradient>
	<path class="st6" d="M20.6,68L20.6,68L20.6,68L20.6,68L20.6,68L20.6,68c-6-7.2-7-13.4-7.2-16.7c-0.4-6.8,2.2-13.8,7.2-20.2
		c4.2-5.3,10-10.2,17.2-14.1c0.2-0.1,0.4-0.2,0.6-0.3c2.4-1.3,5-2.4,7.6-3.5c2.2-0.8,4.4-1.6,6.7-2.2l0,0c0,0-17.8,3.5-32.8,12.1
		C-10.4,42.5,20.6,68,20.6,68z"/>
	<path class="st4" d="M19.9,23c-5.8,3.3-11.3,7.5-15,12.4c-3,4-3.9,8.1-4.2,9.7c-0.3,2.4-0.3,5.2,0.6,8.3C3.7,61.3,11.3,67,20.6,68
		C20.6,68-10.4,42.5,19.9,23z"/>
</g>
<g>
	
		<linearGradient id="SVGID_4_" gradientUnits="userSpaceOnUse" x1="43.3722" y1="54.3797" x2="64.0644" y2="54.3797" gradientTransform="matrix(1 0 0 -1 0 102)">
		<stop  offset="0" style="stop-color:#319ACF"/>
		<stop  offset="1" style="stop-color:#16559B"/>
	</linearGradient>
	<path class="st7" d="M63.7,33.1c-4.6,9.8-9.1,19.4-13.7,29.4l-3.5,0.3l-0.3-0.5c5-8.1,10.3-18,14.1-26.3H49.9
		c-3.1,0-3.3,0.4-4.6,3.6h-1.5c0.5-2.7,0.7-5.1,0.9-7.2h18.6L63.7,33.1z"/>
</g>
</svg>
