<svg xmlns="http://www.w3.org/2000/svg" width="60" height="60" viewBox="0 0 60 60">
    <g fill="none">
        <path fill="#FFFFF3" d="M5.449 8.731L54.3 8.835 54.378 45.358 5.527 45.254z" transform="translate(0 3) rotate(-24.999 29.914 27.045)"/>
        <g fill="#FEF2E9">
            <path d="M.42 21.66c.03-.09.03-.18 0-.299-.03-.149-.09-.268-.18-.388-.06-.089-.12-.149-.18-.238l-.06.03.42.895zM4.26 19.034c.06.15.12.269.18.358.09.12.24.21.36.239.12.03.27 0 .39-.06.03 0 .06-.03.12 0 .15-.09.27-.209.33-.298.06-.12.12-.209.18-.298 0 0 .03 0 .03-.03h.06l.33.03c.12 0 .27 0 .39-.03.18-.03.3-.12.39-.239.09-.12.12-.268.09-.447-.03-.15-.09-.269-.18-.388-.06-.09-.12-.15-.18-.239l-2.52 1.164c0 .09 0 .179.03.238zM10.95 15.931c.06.15.12.269.18.359.09.119.24.208.36.238s.27 0 .39-.06c.03 0 .06-.03.12 0 .15-.089.27-.208.33-.298.06-.12.12-.209.18-.298 0 0 .03 0 .03-.03h.06l.33.03c.12 0 .27 0 .39-.03.18-.03.3-.12.39-.239.09-.119.12-.268.09-.447-.03-.15-.09-.269-.18-.388-.06-.09-.12-.15-.18-.239l-2.52 1.164c0 .09 0 .179.03.238zM17.64 12.829c.06.149.12.268.18.358.09.12.24.209.36.238.12.03.27 0 .39-.06.03 0 .06-.03.12 0 .15-.089.27-.208.33-.298.06-.119.12-.208.18-.298 0 0 .03 0 .03-.03h.06l.33.03c.12 0 .27 0 .39-.03.18-.03.3-.12.39-.238.09-.12.12-.269.09-.448-.03-.15-.09-.268-.18-.388-.06-.09-.12-.149-.18-.238l-2.52 1.163c0 .09 0 .18.03.239zM24.33 9.726c.06.15.12.268.18.358.09.12.24.209.36.239s.27 0 .39-.06c.03 0 .06-.03.12 0 .15-.09.27-.209.33-.298.06-.12.12-.21.18-.299 0 0 .03 0 .03-.03h.06l.33.03c.12 0 .27 0 .39-.03.18-.03.3-.119.39-.238.09-.12.12-.269.09-.448-.03-.149-.09-.268-.18-.388-.06-.09-.12-.149-.18-.238L24.3 9.487c-.03.09 0 .18.03.239zM30.99 6.623c.06.15.12.269.18.358.09.12.24.21.36.239.12.03.27 0 .39-.06.03 0 .06-.03.12 0 .15-.09.27-.209.33-.298.06-.12.12-.209.18-.298 0 0 .03 0 .03-.03h.06l.33.03c.12 0 .27 0 .39-.03.18-.03.3-.12.39-.239.09-.12.12-.268.09-.447-.03-.15-.09-.269-.18-.388-.06-.09-.12-.15-.18-.239l-2.52 1.164c0 .119.03.179.03.238zM37.68 3.55c.06.15.12.269.18.358.09.12.24.21.36.239.12.03.27 0 .39-.06.03 0 .06-.03.12 0 .15-.09.27-.209.33-.298.06-.12.12-.209.18-.298 0 0 .03 0 .03-.03h.06l.33.03c.12 0 .27 0 .39-.03.18-.03.3-.12.39-.239.09-.12.12-.268.09-.447-.03-.15-.09-.269-.18-.388-.06-.09-.12-.15-.18-.239l-2.52 1.164c0 .09 0 .149.03.238zM2.97 25.687c-.15 0-.27.09-.36.239-.03.06-.06.179-.06.268l.42.925H3c.03 0 .06 0 .12-.03.09-.03.18-.119.24-.208.06-.12.09-.299.09-.478s-.03-.358-.12-.477c-.06-.15-.24-.239-.36-.239zM3.21 27.627l.51 1.044c.03-.09.03-.18 0-.299-.03-.149-.09-.268-.18-.387-.06-.12-.18-.24-.33-.358zM7.41 24.017c-.3.119-.66-.09-.84-.508-.21-.417-.12-.865.15-.984.27-.12.66.09.84.507.21.448.15.895-.15.985zM8.67 23.45c-.3.12-.66-.09-.84-.507-.18-.418-.12-.866.15-.985.3-.12.66.09.84.507.18.418.12.865-.15.985zM7.11 25.24c-.09.03-.21.06-.3.03-.15-.03-.3-.12-.45-.24-.15-.118-.24-.268-.27-.387-.06-.179-.03-.328.06-.447.09-.09.24-.15.42-.12.15.03.3.12.45.239.12.12.24.268.27.388.06.179.03.328-.06.447-.03.06-.06.09-.12.09zM9.81 23.987c-.06.03-.09.03-.12.03-.12 0-.3-.09-.36-.24-.09-.118-.12-.297-.12-.476 0-.18.03-.358.09-.478.09-.149.21-.238.36-.238.12 0 .3.089.36.238.09.12.12.299.12.478s-.03.358-.09.477c-.06.09-.15.179-.24.209zM8.49 26.612c-.12.06-.27.09-.39.06s-.27-.12-.36-.239c-.06-.09-.12-.209-.18-.358-.06-.179-.06-.358-.06-.537.03-.268.09-.537.21-.805.06-.12.15-.269.24-.358.06-.09.15-.18.27-.24h.06c.18-.089.45-.059.6-.029.21.03.39.06.54.15.33.119.63.357.81.656.09.119.15.238.18.387.03.18 0 .329-.09.448-.09.12-.21.209-.39.239-.12.03-.27.03-.39.03l-.33-.03h-.06c0 .03-.03.03-.03.03-.06.089-.12.178-.18.298-.06.09-.18.209-.33.298-.06-.03-.09 0-.12 0zM14.1 20.914c-.3.12-.66-.09-.84-.507-.21-.418-.12-.866.15-.985.27-.12.66.09.84.507.21.478.15.895-.15.985zM15.36 20.377c-.3.12-.66-.09-.84-.507-.18-.418-.12-.866.15-.985.3-.12.66.09.84.507.18.418.12.865-.15.985zM13.8 22.137c-.09.03-.21.06-.3.03-.15-.03-.3-.12-.45-.239-.15-.12-.24-.268-.27-.388-.06-.179-.03-.328.06-.447.09-.09.24-.15.42-.12.15.03.3.12.45.24.12.118.24.268.27.387.06.179.03.328-.06.448-.03.06-.06.089-.12.089zM16.5 20.884c-.06.03-.09.03-.12.03-.12 0-.3-.09-.36-.239-.09-.12-.12-.298-.12-.477 0-.18.03-.358.09-.478.09-.149.21-.238.36-.238.12 0 .3.09.36.238.09.12.12.299.12.478s-.03.358-.09.477c-.06.09-.15.18-.24.209zM15.18 23.51c-.12.06-.27.089-.39.06-.12-.03-.27-.12-.36-.24-.06-.09-.12-.208-.18-.358-.06-.179-.06-.358-.06-.537.03-.268.09-.537.21-.805.06-.12.15-.269.24-.358.06-.09.15-.18.27-.239h.06c.18-.09.45-.06.6-.03.21.03.39.06.54.15.33.119.63.357.81.656.09.12.15.239.18.388.03.179 0 .328-.09.447-.09.12-.21.209-.39.239-.12.03-.27.03-.39.03l-.33-.03h-.06c0 .03-.03.03-.03.03-.06.09-.12.179-.18.298-.06.09-.18.209-.33.298-.06-.03-.09 0-.12 0zM20.79 17.84c-.3.12-.66-.089-.84-.506-.21-.418-.12-.865.15-.985s.66.09.84.507c.21.448.15.895-.15.985zM22.05 17.274c-.3.12-.66-.09-.84-.507-.18-.418-.12-.865.15-.985.3-.119.66.09.84.508.18.417.12.865-.15.984zM20.49 19.034c-.09.03-.21.06-.3.03-.15-.03-.3-.12-.45-.239-.15-.119-.24-.268-.27-.387-.06-.18-.03-.329.06-.448.09-.09.24-.15.42-.12.15.03.3.12.45.24.12.119.24.268.27.387.06.18.03.328-.06.448-.03.06-.06.09-.12.09zM23.19 17.811c-.06.03-.09.03-.12.03-.12 0-.3-.09-.36-.239-.09-.12-.12-.298-.12-.477 0-.18.03-.358.09-.477.09-.15.21-.24.36-.24.12 0 .3.09.36.24.09.119.12.298.12.477s-.03.358-.09.477c-.06.09-.15.18-.24.209zM21.87 20.407c-.12.06-.27.09-.39.06s-.27-.12-.36-.24c-.06-.089-.12-.208-.18-.357-.06-.18-.06-.358-.06-.537.03-.269.09-.537.21-.806.06-.12.15-.268.24-.358.06-.09.15-.179.27-.239h.06c.18-.09.45-.06.6-.03.21.03.39.06.54.15.33.12.63.358.81.656.09.12.15.239.18.388.03.179 0 .328-.09.447-.09.12-.21.21-.39.24-.12.029-.27.029-.39.029l-.33-.03h-.06c0 .03-.03.03-.03.03-.06.09-.12.179-.18.298-.06.09-.18.21-.33.299-.06-.03-.09 0-.12 0zM27.48 14.738c-.3.12-.66-.09-.84-.507-.21-.418-.12-.865.15-.985.27-.119.66.09.84.508.21.447.15.895-.15.984zM28.74 14.171c-.3.12-.66-.09-.84-.507-.18-.418-.12-.865.15-.984.3-.12.66.09.84.507.18.417.12.865-.15.984zM27.18 15.961c-.09.03-.21.06-.3.03-.15-.03-.3-.12-.45-.239-.15-.119-.24-.268-.27-.387-.06-.18-.03-.329.06-.448.09-.09.24-.149.42-.12.15.03.3.12.45.24.12.119.24.268.27.387.06.18.03.328-.06.448-.03.06-.06.09-.12.09zM29.85 14.708c-.06.03-.09.03-.12.03-.12 0-.3-.09-.36-.239-.09-.119-.12-.298-.12-.477s.03-.358.09-.477c.09-.15.21-.239.36-.239.12 0 .3.09.36.239.09.12.12.298.12.477 0 .18-.03.358-.09.477-.06.09-.15.18-.24.21zM28.56 17.304c-.12.06-.27.09-.39.06s-.27-.12-.36-.24c-.06-.089-.12-.208-.18-.357-.06-.18-.06-.358-.06-.537.03-.269.09-.537.21-.806.06-.119.15-.268.24-.358.06-.09.15-.179.27-.238h.06c.18-.09.45-.06.6-.03.21.03.39.06.54.149.33.12.63.358.81.656.09.12.15.239.18.388.03.18 0 .328-.09.448-.09.119-.21.209-.39.238-.12.03-.27.03-.39.03h-.39c0 .03-.03.03-.03.03-.06.09-.12.179-.18.298-.06.09-.18.21-.33.299-.06-.06-.09-.03-.12-.03zM34.17 11.635c-.3.12-.66-.09-.84-.507-.21-.418-.12-.865.15-.984.27-.12.66.09.84.507.18.447.12.895-.15.984zM35.4 11.069c-.3.119-.66-.09-.84-.508-.18-.417-.12-.865.15-.984.3-.12.66.09.84.507.18.418.12.865-.15.985zM33.87 12.859c-.09.03-.21.06-.3.03-.15-.03-.3-.12-.45-.24-.15-.119-.24-.268-.27-.387-.06-.18-.03-.328.06-.448.09-.09.24-.149.42-.119.15.03.3.12.45.239.12.119.24.268.27.388.06.179.03.328-.06.447-.03.06-.06.09-.12.09zM36.54 11.606c-.06.03-.09.03-.12.03-.12 0-.3-.09-.36-.24-.09-.119-.12-.298-.12-.477s.03-.358.09-.477c.09-.15.21-.239.36-.239.12 0 .3.09.36.239.09.12.12.298.12.477 0 .18-.03.358-.09.478-.06.09-.15.179-.24.209zM35.22 14.23c-.12.06-.27.09-.39.06s-.27-.119-.36-.238c-.06-.09-.12-.209-.18-.358-.06-.18-.06-.358-.06-.537.03-.269.09-.537.21-.806.06-.119.15-.268.24-.358.06-.09.15-.179.27-.238h.06c.18-.09.45-.06.6-.03.21.03.39.06.54.149.33.12.63.358.81.656.09.12.15.24.18.388.03.18 0 .328-.09.448s-.21.209-.39.238c-.12.03-.27.03-.39.03l-.33-.03h-.06c0 .03-.03.03-.03.03-.06.09-.12.18-.18.299-.06.09-.18.208-.33.298-.06-.03-.09 0-.12 0zM40.83 8.533c-.3.119-.66-.09-.84-.508-.21-.417-.12-.865.15-.984.27-.12.66.09.84.507.21.448.15.895-.15.985zM42.09 7.966c-.3.12-.66-.09-.84-.507-.18-.418-.12-.866.15-.985.3-.12.66.09.84.507.18.418.12.865-.15.985zM40.53 9.756c-.09.03-.21.06-.3.03-.15-.03-.3-.12-.45-.239-.15-.12-.24-.269-.27-.388-.06-.179-.03-.328.06-.447.09-.09.24-.15.42-.12.15.03.3.12.45.239.12.12.24.268.27.388.06.179.03.328-.06.447-.03.06-.06.09-.12.09zM43.23 8.503c-.06.03-.09.03-.12.03-.12 0-.3-.09-.36-.24-.09-.118-.12-.297-.12-.476 0-.18.03-.358.09-.478.09-.149.21-.238.36-.238.12 0 .3.09.36.238.09.12.12.299.12.478s-.03.358-.09.477c-.06.09-.15.179-.24.209zM41.91 11.128c-.12.06-.27.09-.39.06s-.27-.12-.36-.239c-.06-.09-.12-.209-.18-.358-.06-.179-.06-.358-.06-.537.03-.268.09-.537.21-.805.06-.12.15-.269.24-.358.06-.09.15-.18.27-.24h.06c.18-.089.45-.059.6-.029.21.03.39.06.54.15.33.119.63.357.81.656.09.119.15.238.18.387.03.18 0 .329-.09.448-.09.12-.21.209-.39.239-.12.03-.27.03-.39.03l-.33-.03h-.06c0 .03-.03.03-.03.03-.06.089-.12.178-.18.298-.06.09-.18.209-.33.298-.06-.03-.09 0-.12 0zM6.3 32.758c-.15 0-.27.09-.36.239-.03.06-.06.179-.06.268l.42.925h.03c.03 0 .06 0 .12-.03.09-.03.18-.12.24-.209.06-.119.09-.298.09-.477s-.03-.358-.12-.477c-.06-.15-.24-.239-.36-.239zM6.51 34.697l.51 1.044c.03-.09.03-.179 0-.298-.03-.15-.09-.268-.18-.388-.06-.12-.18-.268-.33-.358zM10.74 31.087c-.3.12-.66-.09-.84-.507-.21-.418-.12-.865.15-.984.27-.12.66.09.84.507.21.447.15.895-.15.984zM11.97 30.52c-.3.12-.66-.09-.84-.507-.18-.417-.12-.865.15-.984.3-.12.66.09.84.507.18.418.12.865-.15.984zM10.44 32.28c-.09.03-.21.06-.3.03-.15-.03-.3-.119-.45-.238-.15-.12-.24-.269-.27-.388-.06-.179-.03-.328.06-.448.09-.089.24-.149.42-.119.15.03.3.12.45.239.12.12.24.268.27.388.06.179.03.328-.06.447-.03.06-.06.09-.12.09zM13.11 31.057c-.06.03-.09.03-.12.03-.12 0-.3-.09-.36-.238-.09-.12-.12-.299-.12-.478s.03-.358.09-.477c.09-.15.21-.239.36-.239.12 0 .3.09.36.239.09.12.12.298.12.477 0 .18-.03.358-.09.478-.06.09-.15.179-.24.208zM11.79 33.653c-.12.06-.27.09-.39.06s-.27-.12-.36-.239c-.06-.09-.12-.209-.18-.358-.06-.179-.06-.358-.06-.537.03-.269.09-.537.21-.806.06-.119.15-.268.24-.358.06-.089.15-.179.27-.238h.06c.18-.09.45-.06.6-.03.21.03.39.06.54.15.33.118.63.357.81.655.09.12.15.24.18.388.03.18 0 .329-.09.448-.09.12-.21.209-.39.239-.12.03-.27.03-.39.03l-.33-.03h-.06c0 .03-.03.03-.03.03-.06.089-.12.178-.18.298-.06.09-.18.209-.33.298-.06-.03-.09 0-.12 0zM17.4 27.985c-.3.119-.66-.09-.84-.508-.21-.417-.12-.865.15-.984.27-.12.66.09.84.507.21.448.15.895-.15.985zM18.66 27.418c-.3.119-.66-.09-.84-.508-.18-.417-.12-.865.15-.984.3-.12.66.09.84.507.18.418.12.865-.15.985zM17.1 29.178c-.09.03-.21.06-.3.03-.15-.03-.3-.12-.45-.239-.15-.12-.24-.268-.27-.388-.06-.179-.03-.328.06-.447.09-.09.24-.15.42-.12.15.03.3.12.45.239.12.12.24.269.27.388.06.179.03.328-.06.447-.03.06-.06.09-.12.09zM19.8 27.955c-.06.03-.09.03-.12.03-.12 0-.3-.09-.36-.24-.09-.118-.12-.297-.12-.476 0-.18.03-.359.09-.478.09-.149.21-.239.36-.239.12 0 .3.09.36.24.09.118.12.298.12.477s-.03.358-.09.477c-.06.09-.15.179-.24.209zM18.48 30.55c-.12.06-.27.09-.39.06s-.27-.12-.36-.239c-.06-.09-.12-.209-.18-.358-.06-.179-.06-.358-.06-.537.03-.268.09-.537.21-.805.06-.12.15-.269.24-.358.06-.09.15-.18.27-.239h.06c.18-.09.45-.06.6-.03.21.03.39.06.54.15.33.119.63.357.81.656.09.12.15.238.18.388.03.179 0 .328-.09.447-.09.12-.21.209-.39.239-.12.03-.27.03-.39.03l-.33-.03h-.06c0 .03-.03.03-.03.03-.06.09-.12.179-.18.298-.06.09-.18.209-.33.298-.06-.03-.09 0-.12 0zM24.09 24.882c-.3.12-.66-.09-.84-.507-.21-.418-.12-.866.15-.985.27-.12.66.09.84.507.21.448.15.895-.15.985zM25.35 24.315c-.3.12-.66-.09-.84-.507-.18-.418-.12-.865.15-.985.3-.12.66.09.84.507.18.418.12.866-.15.985zM23.79 26.105c-.09.03-.21.06-.3.03-.15-.03-.3-.12-.45-.239-.15-.12-.24-.268-.27-.388-.06-.179-.03-.328.06-.447.09-.09.24-.15.42-.12.15.03.3.12.45.24.12.118.24.268.27.387.06.179.03.328-.06.447-.03.06-.06.09-.12.09zM26.49 24.852c-.06.03-.09.03-.12.03-.12 0-.3-.09-.36-.239-.09-.12-.12-.298-.12-.477 0-.18.03-.358.09-.478.09-.149.21-.238.36-.238.12 0 .3.09.36.238.09.12.12.299.12.478s-.03.358-.09.477c-.06.09-.15.18-.24.209zM25.17 27.448c-.12.06-.27.089-.39.06-.12-.03-.27-.12-.36-.24-.06-.089-.12-.208-.18-.358-.06-.179-.06-.358-.06-.537.03-.268.09-.537.21-.805.06-.12.15-.269.24-.358.06-.09.15-.18.27-.239h.06c.18-.09.45-.06.6-.03.21.03.39.06.54.15.33.119.63.358.81.656.09.12.15.239.18.388.03.179 0 .328-.09.447-.09.12-.21.21-.39.239-.12.03-.27.03-.39.03h-.39c0 .03-.03.03-.03.03-.06.09-.12.179-.18.298-.06.09-.18.209-.33.298-.06-.06-.09-.03-.12-.03zM30.78 21.779c-.3.12-.66-.09-.84-.507-.21-.418-.12-.865.15-.985.27-.119.66.09.84.507.21.448.15.896-.15.985zM32.04 21.212c-.3.12-.66-.09-.84-.507-.18-.418-.12-.865.15-.985.3-.119.66.09.84.508.18.417.12.865-.15.984zM30.48 23.002c-.09.03-.21.06-.3.03-.15-.03-.3-.12-.45-.239-.15-.119-.24-.268-.27-.387-.06-.18-.03-.329.06-.448.09-.09.24-.15.42-.12.15.03.3.12.45.24.12.119.24.268.27.387.06.18.03.328-.06.448-.03.06-.06.09-.12.09zM33.18 21.75c-.06.029-.09.029-.12.029-.12 0-.3-.09-.36-.239-.09-.119-.12-.298-.12-.477s.03-.358.09-.477c.09-.15.21-.239.36-.239.12 0 .3.09.36.239.09.119.12.298.12.477s-.03.358-.09.477c-.06.09-.15.18-.24.21zM31.86 24.375c-.12.06-.27.09-.39.06s-.27-.12-.36-.24c-.06-.089-.12-.208-.18-.357-.06-.18-.06-.358-.06-.537.03-.269.09-.537.21-.806.06-.12.15-.268.24-.358.06-.09.15-.179.27-.239h.06c.18-.09.45-.06.6-.03.21.03.39.06.54.15.33.119.63.358.81.656.09.12.15.239.18.388.03.179 0 .328-.09.447-.09.12-.21.21-.39.24-.12.029-.27.029-.39.029l-.33-.03h-.06c0 .03-.03.03-.03.03-.06.09-.12.179-.18.298-.06.09-.18.21-.33.299-.06-.03-.09 0-.12 0zM37.47 18.676c-.3.12-.66-.09-.84-.507-.21-.418-.12-.865.15-.984.27-.12.66.089.84.507.21.447.15.895-.15.984zM38.73 18.11c-.3.119-.66-.09-.84-.508-.18-.417-.12-.865.15-.984.3-.12.66.09.84.507.15.418.09.865-.15.984zM37.17 19.9c-.09.03-.21.06-.3.03-.15-.03-.3-.12-.45-.24-.15-.119-.24-.268-.27-.387-.06-.18-.03-.328.06-.448.09-.09.24-.149.42-.12.15.03.3.12.45.24.12.119.24.268.27.387.06.18.03.329-.06.448-.03.06-.06.09-.12.09zM39.84 18.646c-.06.03-.09.03-.12.03-.12 0-.3-.09-.36-.238-.09-.12-.12-.299-.12-.478s.03-.358.09-.477c.09-.15.21-.239.36-.239.12 0 .3.09.36.239.09.12.12.298.12.477 0 .18-.03.358-.09.478-.06.09-.15.179-.24.208zM38.55 21.272c-.12.06-.27.09-.39.06s-.27-.12-.36-.24c-.06-.089-.12-.208-.18-.357-.06-.18-.06-.358-.06-.537.03-.269.09-.537.21-.806.06-.12.15-.268.24-.358.06-.09.15-.179.27-.238h.06c.18-.09.45-.06.6-.03.21.03.39.06.54.149.33.12.63.358.81.656.09.12.15.239.18.388.03.18 0 .328-.09.448-.09.119-.21.208-.39.238-.12.03-.27.03-.39.03l-.33-.03h-.06c0 .03-.03.03-.03.03-.06.09-.12.18-.18.298-.06.09-.18.21-.33.299-.06-.03-.09 0-.12 0zM44.13 15.573c-.3.12-.66-.089-.84-.507-.21-.417-.12-.865.15-.984.27-.12.66.09.84.507.21.447.15.895-.15.984zM45.39 15.007c-.3.119-.66-.09-.84-.508-.18-.417-.12-.865.15-.984.3-.12.66.09.84.507.18.418.12.865-.15.985zM43.83 16.797c-.09.03-.21.06-.3.03-.15-.03-.3-.12-.45-.24-.15-.118-.24-.268-.27-.387-.06-.179-.03-.328.06-.448.09-.089.24-.149.42-.119.15.03.3.12.45.239.12.12.24.268.27.388.06.179.03.328-.06.447-.03.06-.06.09-.12.09zM46.53 15.544c-.06.03-.09.03-.12.03-.12 0-.3-.09-.36-.24-.09-.119-.12-.298-.12-.477s.03-.358.09-.477c.09-.15.21-.239.36-.239.12 0 .3.09.36.24.09.118.12.297.12.476 0 .18-.03.358-.09.478-.06.09-.15.179-.24.209zM45.21 18.17c-.12.059-.27.089-.39.059s-.27-.12-.36-.239c-.06-.09-.12-.209-.18-.358-.06-.179-.06-.358-.06-.537.03-.268.09-.537.21-.805.06-.12.15-.269.24-.359.06-.089.15-.179.27-.238H45c.18-.09.45-.06.6-.03.21.03.39.06.54.15.33.118.63.357.81.656.09.119.15.238.18.387.03.18 0 .329-.09.448-.09.12-.21.209-.39.239-.12.03-.27.03-.39.03l-.33-.03h-.06c0 .03-.03.03-.03.03-.06.089-.12.178-.18.298-.06.09-.18.209-.33.298-.06-.03-.09 0-.12 0zM9.6 39.799c-.15 0-.27.09-.36.239-.03.06-.06.179-.06.268l.42.925h.03c.03 0 .06 0 .12-.03.09-.03.18-.12.24-.209.06-.12.09-.298.09-.477 0-.18-.03-.358-.12-.477-.06-.15-.24-.24-.36-.24zM9.84 41.738l.51 1.044c.03-.09.03-.179.03-.298-.03-.15-.09-.269-.18-.388-.12-.12-.24-.268-.36-.358zM14.04 38.128c-.3.12-.66-.09-.84-.507-.21-.418-.12-.865.15-.985.27-.119.66.09.84.508.21.447.15.895-.15.984zM15.3 37.561c-.3.12-.66-.09-.84-.507-.18-.418-.12-.865.15-.984.3-.12.66.09.84.507.18.417.12.865-.15.984zM13.74 39.351c-.09.03-.21.06-.3.03-.15-.03-.3-.12-.45-.238-.15-.12-.24-.269-.27-.388-.06-.18-.03-.328.06-.448.09-.09.24-.149.42-.12.15.03.3.12.45.24.12.119.24.268.27.387.06.18.03.329-.06.448-.03.06-.06.09-.12.09zM16.41 38.098c-.06.03-.09.03-.12.03-.12 0-.3-.09-.36-.238-.09-.12-.12-.299-.12-.478s.03-.358.09-.477c.09-.15.21-.239.36-.239.12 0 .3.09.36.239.09.12.12.298.12.477 0 .18-.03.358-.09.478-.06.089-.15.179-.24.208zM15.12 40.694c-.12.06-.27.09-.39.06s-.27-.12-.36-.24c-.06-.089-.12-.208-.18-.357-.06-.18-.06-.358-.06-.537.03-.269.09-.537.21-.806.06-.119.15-.268.24-.358.06-.09.15-.179.27-.238h.06c.18-.09.45-.06.6-.03.21.03.39.06.54.149.33.12.63.358.81.656.09.12.15.239.18.388.03.18 0 .328-.09.448s-.21.209-.39.238c-.12.03-.27.03-.39.03l-.33-.03h-.06c0 .03-.03.03-.03.03-.06.09-.12.18-.18.299-.06.09-.18.208-.33.298-.06-.03-.09 0-.12 0zM20.7 35.025c-.3.12-.66-.09-.84-.507-.21-.417-.12-.865.15-.984.27-.12.66.09.84.507.21.447.15.895-.15.984zM21.96 34.459c-.3.119-.66-.09-.84-.508-.18-.417-.12-.865.15-.984.3-.12.66.09.84.507.18.418.12.865-.15.985zM20.4 36.249c-.09.03-.21.06-.3.03-.15-.03-.3-.12-.45-.24-.15-.119-.24-.268-.27-.387-.06-.18-.03-.328.06-.448.09-.09.24-.149.42-.119.15.03.3.12.45.239.12.12.24.268.27.388.06.179.03.328-.06.447-.03.06-.06.09-.12.09zM23.1 34.996c-.06.03-.09.03-.12.03-.12 0-.3-.09-.36-.24-.09-.119-.12-.298-.12-.477s.03-.358.09-.477c.09-.15.21-.239.36-.239.12 0 .3.09.36.239.09.12.12.298.12.477 0 .18-.03.358-.09.478-.06.09-.15.179-.24.209zM21.78 37.621c-.12.06-.27.09-.39.06s-.27-.12-.36-.239c-.06-.09-.12-.209-.18-.358-.06-.179-.06-.358-.06-.537.03-.269.09-.537.21-.806.06-.119.15-.268.24-.358.06-.09.15-.179.27-.238h.06c.18-.09.45-.06.6-.03.21.03.39.06.54.15.33.118.63.357.81.655.09.12.15.24.18.388.03.18 0 .328-.09.448s-.21.209-.39.238c-.12.03-.27.03-.39.03l-.33-.03h-.06c0 .03-.03.03-.03.03-.06.09-.12.18-.18.299-.06.09-.18.208-.33.298-.06-.03-.09 0-.12 0zM27.39 31.923c-.3.119-.66-.09-.84-.508-.21-.417-.12-.865.15-.984.27-.12.66.09.84.507.21.448.15.895-.15.985zM28.65 31.356c-.3.12-.66-.09-.84-.507-.18-.418-.12-.866.15-.985.3-.12.66.09.84.507.18.418.12.865-.15.985zM27.09 33.146c-.09.03-.21.06-.3.03-.15-.03-.3-.12-.45-.239-.15-.12-.24-.268-.27-.388-.06-.179-.03-.328.06-.447.09-.09.24-.15.42-.12.15.03.3.12.45.239.12.12.24.269.27.388.06.179.03.328-.06.447-.03.06-.06.09-.12.09zM29.79 31.893c-.06.03-.09.03-.12.03-.12 0-.3-.09-.36-.239-.09-.12-.12-.298-.12-.477 0-.18.03-.358.09-.478.09-.149.21-.238.36-.238.12 0 .3.09.36.238.09.12.12.299.12.478s-.03.358-.09.477c-.06.09-.15.179-.24.209zM28.47 34.518c-.12.06-.27.09-.39.06s-.27-.12-.36-.239c-.06-.09-.12-.209-.18-.358-.06-.179-.06-.358-.06-.537.03-.268.09-.537.21-.805.06-.12.15-.269.24-.358.06-.09.15-.18.27-.239h.06c.18-.09.45-.06.6-.03.21.03.39.06.54.15.33.119.63.357.81.656.09.119.15.238.18.388.03.179 0 .328-.09.447-.09.12-.21.209-.39.239-.12.03-.27.03-.39.03l-.33-.03h-.06c0 .03-.03.03-.03.03-.06.089-.12.179-.18.298-.06.09-.18.209-.33.298-.06-.03-.09 0-.12 0zM34.08 28.82c-.3.12-.66-.09-.84-.507-.21-.418-.12-.865.15-.985s.66.09.84.507c.21.448.15.895-.15.985zM35.34 28.253c-.3.12-.66-.09-.84-.507-.18-.418-.12-.865.15-.985.3-.119.66.09.84.508.18.417.12.865-.15.984zM33.78 30.043c-.09.03-.21.06-.3.03-.15-.03-.3-.12-.45-.239-.15-.12-.24-.268-.27-.388-.06-.179-.03-.328.06-.447.09-.09.24-.15.42-.12.15.03.3.12.45.24.12.119.24.268.27.387.06.18.03.328-.06.448-.03.06-.06.09-.12.09zM36.48 28.79c-.06.03-.09.03-.12.03-.12 0-.3-.09-.36-.239-.09-.12-.12-.298-.12-.477 0-.18.03-.358.09-.477.09-.15.21-.24.36-.24.12 0 .3.09.36.24.09.119.12.298.12.477s-.03.358-.09.477c-.06.09-.15.18-.24.21zM35.16 31.415c-.12.06-.27.09-.39.06s-.27-.12-.36-.239c-.06-.089-.12-.208-.18-.358-.06-.179-.06-.358-.06-.537.03-.268.09-.537.21-.805.06-.12.15-.269.24-.358.06-.09.15-.18.27-.239h.06c.18-.09.45-.06.6-.03.21.03.39.06.54.15.33.119.63.358.81.656.09.12.15.239.18.388.03.179 0 .328-.09.447-.09.12-.21.21-.39.239-.12.03-.27.03-.39.03l-.33-.03h-.06c0 .03-.03.03-.03.03-.06.09-.12.179-.18.298-.06.09-.18.209-.33.298-.06-.03-.09 0-.12 0zM40.77 25.717c-.3.12-.66-.09-.84-.507-.21-.418-.12-.865.15-.985.27-.119.66.09.84.508.21.447.15.895-.15.984zM42.03 25.15c-.3.12-.66-.09-.84-.507-.18-.418-.12-.865.15-.984.3-.12.66.09.84.507.18.417.12.865-.15.984zM40.47 26.94c-.09.03-.21.06-.3.03-.15-.03-.3-.12-.45-.239-.15-.119-.24-.268-.27-.387-.06-.18-.03-.329.06-.448.09-.09.24-.149.42-.12.15.03.3.12.45.24.12.119.24.268.27.387.06.18.03.328-.06.448-.03.06-.06.09-.12.09zM43.17 25.687c-.06.03-.09.03-.12.03-.12 0-.3-.09-.36-.239-.09-.119-.12-.298-.12-.477s.03-.358.09-.477c.09-.15.21-.239.36-.239.12 0 .3.09.36.239.09.12.12.298.12.477 0 .18-.03.358-.09.477-.09.09-.18.18-.24.21zM41.85 28.313c-.12.06-.27.09-.39.06s-.27-.12-.36-.24c-.06-.089-.12-.208-.18-.357-.06-.18-.06-.358-.06-.537.03-.269.09-.537.21-.806.06-.12.15-.268.24-.358.06-.09.15-.179.27-.239h.06c.18-.089.45-.06.6-.03.21.03.39.06.54.15.33.12.63.358.81.656.09.12.15.239.18.388.03.179 0 .328-.09.448-.09.119-.21.208-.39.238-.12.03-.27.03-.39.03l-.33-.03h-.06c0 .03-.03.03-.03.03-.06.09-.12.179-.18.298-.06.09-.18.21-.33.299-.06-.03-.09 0-.12 0zM47.46 22.614c-.3.12-.66-.09-.84-.507-.21-.417-.12-.865.15-.984.27-.12.66.09.84.507.18.447.12.895-.15.984zM48.69 22.048c-.3.119-.66-.09-.84-.508-.18-.417-.12-.865.15-.984.3-.12.66.09.84.507.18.418.12.865-.15.985zM47.16 23.838c-.09.03-.21.06-.3.03-.15-.03-.3-.12-.45-.24-.15-.119-.24-.268-.27-.387-.06-.18-.03-.328.06-.448.09-.09.24-.149.42-.119.15.03.3.12.45.239.12.119.24.268.27.388.06.179.03.328-.06.447-.03.06-.06.09-.12.09zM49.83 22.585c-.06.03-.09.03-.12.03-.12 0-.3-.09-.36-.24-.09-.119-.12-.298-.12-.477s.03-.358.09-.477c.09-.15.21-.239.36-.239.12 0 .3.09.36.239.09.12.12.298.12.477 0 .18-.03.358-.09.478-.06.09-.15.179-.24.209zM48.51 25.21c-.12.06-.27.09-.39.06s-.27-.12-.36-.24c-.06-.089-.12-.208-.18-.357-.06-.18-.06-.358-.06-.537.03-.269.09-.537.21-.806.06-.119.15-.268.24-.358.06-.09.15-.179.27-.238h.06c.18-.09.45-.06.6-.03.21.03.39.06.54.149.33.12.63.358.81.656.09.12.15.24.18.388.03.18 0 .328-.09.448s-.21.209-.39.238c-.12.03-.27.03-.39.03l-.33-.03h-.06c0 .03-.03.03-.03.03-.06.09-.12.18-.18.299-.06.09-.18.208-.33.298-.06-.03-.09 0-.12 0zM12.9 46.84c-.15 0-.27.09-.36.238-.03.06-.06.18-.06.269l.42.895h.03c.03 0 .06 0 .12-.03.09-.03.18-.12.24-.209.06-.119.09-.298.09-.477s-.03-.358-.12-.477c-.06-.12-.24-.21-.36-.21zM13.14 48.779l.51 1.044c.03-.09.03-.179.03-.298-.03-.15-.09-.269-.18-.388l-.36-.358zM17.34 45.17c-.3.118-.66-.09-.84-.508-.21-.418-.12-.865.15-.985.27-.119.66.09.84.508.21.447.15.895-.15.984zM18.6 44.602c-.3.12-.66-.09-.84-.507-.18-.418-.12-.865.15-.985.3-.119.66.09.84.508.18.417.12.865-.15.984zM17.04 46.392c-.09.03-.21.06-.3.03-.15-.03-.3-.12-.45-.239-.15-.119-.24-.268-.27-.387-.06-.18-.03-.329.06-.448.09-.09.24-.15.42-.12.15.03.3.12.45.24.12.119.24.268.27.387.06.18.03.328-.06.448-.03.06-.06.09-.12.09zM19.74 45.14c-.06.03-.09.03-.12.03-.12 0-.3-.09-.36-.24-.09-.119-.12-.298-.12-.477s.03-.358.09-.477c.09-.15.21-.239.36-.239.12 0 .3.09.36.239.09.119.12.298.12.477s-.03.358-.09.477c-.06.09-.15.18-.24.21zM18.42 47.765c-.12.06-.27.09-.39.06s-.27-.12-.36-.24c-.06-.089-.12-.208-.18-.357-.06-.18-.06-.358-.06-.537.03-.269.09-.537.21-.806.06-.12.15-.268.24-.358.06-.09.15-.179.27-.239h.06c.18-.09.45-.06.6-.03.21.03.39.06.54.15.33.12.63.358.81.656.09.12.15.239.18.388.03.179 0 .328-.09.447-.09.12-.21.21-.39.24-.12.029-.27.029-.39.029l-.33-.03h-.06c0 .03-.03.03-.03.03-.06.09-.12.179-.18.298-.06.09-.18.21-.33.299-.06-.03-.09 0-.12 0zM24.03 42.066c-.3.12-.66-.09-.84-.507-.21-.418-.12-.865.15-.984.27-.12.66.09.84.507.21.447.15.895-.15.984zM25.26 41.5c-.3.119-.66-.09-.84-.508-.18-.417-.12-.865.15-.984.3-.12.66.09.84.507.18.418.12.865-.15.984zM23.73 43.29c-.09.03-.21.06-.3.03-.15-.03-.3-.12-.45-.24-.15-.119-.24-.268-.27-.387-.06-.18-.03-.328.06-.448.09-.09.24-.149.42-.119.15.03.3.12.45.239.12.119.24.268.27.387.06.18.03.329-.06.448-.03.06-.06.09-.12.09zM26.4 42.036c-.06.03-.09.03-.12.03-.12 0-.3-.09-.36-.238-.09-.12-.12-.299-.12-.478s.03-.358.09-.477c.09-.15.21-.239.36-.239.12 0 .3.09.36.239.09.12.12.298.12.477 0 .18-.03.358-.09.478-.06.09-.15.179-.24.208zM25.08 44.662c-.12.06-.27.09-.39.06s-.27-.12-.36-.24c-.06-.089-.12-.208-.18-.357-.06-.18-.06-.358-.06-.537.03-.269.09-.537.21-.806.06-.119.15-.268.24-.358.06-.09.15-.179.27-.238h.06c.18-.09.45-.06.6-.03.21.03.39.06.54.149.33.12.63.358.81.656.09.12.15.239.18.388.03.18 0 .328-.09.448-.09.119-.21.209-.39.238-.12.03-.27.03-.39.03l-.33-.03h-.06c0 .03-.03.03-.03.03-.06.09-.12.18-.18.299-.06.089-.18.208-.33.298-.06-.03-.09 0-.12 0zM30.69 38.964c-.3.119-.66-.09-.84-.508-.21-.417-.12-.865.15-.984.27-.12.66.09.84.507.21.448.15.895-.15.985zM31.95 38.397c-.3.119-.66-.09-.84-.507-.18-.418-.12-.866.15-.985.3-.12.66.09.84.507.18.418.12.865-.15.985zM30.39 40.187c-.09.03-.21.06-.3.03-.15-.03-.3-.12-.45-.24-.15-.118-.24-.268-.27-.387-.06-.179-.03-.328.06-.447.09-.09.24-.15.42-.12.15.03.3.12.45.239.12.12.24.268.27.388.06.179.03.328-.06.447-.03.06-.06.09-.12.09zM33.09 38.934c-.06.03-.09.03-.12.03-.12 0-.3-.09-.36-.24-.09-.118-.12-.297-.12-.476 0-.18.03-.358.09-.478.09-.149.21-.239.36-.239.12 0 .3.09.36.24.09.119.12.298.12.477s-.03.358-.09.477c-.06.09-.15.179-.24.209zM31.77 41.56c-.12.059-.27.089-.39.059s-.27-.12-.36-.239c-.06-.09-.12-.209-.18-.358-.06-.179-.06-.358-.06-.537.03-.268.09-.537.21-.805.06-.12.15-.269.24-.358.06-.09.15-.18.27-.24h.06c.18-.089.45-.059.6-.029.21.03.39.06.54.15.33.119.63.357.81.656.09.119.15.238.18.387.03.18 0 .329-.09.448-.09.12-.21.209-.39.239-.12.03-.27.03-.39.03l-.33-.03h-.06c0 .03-.03.03-.03.03-.06.089-.12.178-.18.298-.06.09-.18.209-.33.298-.06-.03-.09 0-.12 0zM37.38 35.86c-.3.12-.66-.089-.84-.506-.21-.418-.12-.866.15-.985.27-.12.66.09.84.507.21.448.15.895-.15.985zM38.64 35.294c-.3.12-.66-.09-.84-.507-.18-.418-.12-.865.15-.985.3-.12.66.09.84.507.18.418.12.866-.15.985zM37.08 37.084c-.09.03-.21.06-.3.03-.15-.03-.3-.12-.45-.239-.15-.12-.24-.268-.27-.388-.06-.179-.03-.328.06-.447.09-.09.24-.15.42-.12.15.03.3.12.45.24.12.118.24.268.27.387.06.179.03.328-.06.447-.03.06-.06.09-.12.09zM39.78 35.83c-.06.03-.09.03-.12.03-.12 0-.3-.089-.36-.238-.09-.12-.12-.298-.12-.477 0-.18.03-.358.09-.478.09-.149.21-.238.36-.238.12 0 .3.09.36.238.09.12.12.299.12.478s-.03.358-.09.477c-.06.09-.15.18-.24.209zM38.46 38.456c-.12.06-.27.09-.39.06s-.27-.12-.36-.239c-.06-.09-.12-.208-.18-.358-.06-.179-.06-.358-.06-.537.03-.268.09-.537.21-.805.06-.12.15-.269.24-.358.06-.09.15-.18.27-.239h.06c.18-.09.45-.06.6-.03.21.03.39.06.54.15.33.119.63.357.81.656.09.12.15.238.18.388.03.179 0 .328-.09.447-.09.12-.21.209-.39.239-.12.03-.27.03-.39.03l-.33-.03h-.06c0 .03-.03.03-.03.03-.06.09-.12.179-.18.298-.06.09-.18.209-.33.298-.06-.03-.09 0-.12 0zM44.07 32.758c-.3.12-.66-.09-.84-.507-.21-.418-.12-.865.15-.985.27-.119.66.09.84.507.21.448.15.896-.15.985zM45.33 32.191c-.3.12-.66-.09-.84-.507-.18-.418-.12-.865.15-.985.3-.119.66.09.84.508.18.417.12.865-.15.984zM43.77 33.981c-.09.03-.21.06-.3.03-.15-.03-.3-.12-.45-.239-.15-.119-.24-.268-.27-.387-.06-.18-.03-.329.06-.448.09-.09.24-.15.42-.12.15.03.3.12.45.24.12.119.24.268.27.387.06.18.03.328-.06.448-.03.06-.06.09-.12.09zM46.47 32.728c-.06.03-.09.03-.12.03-.12 0-.3-.09-.36-.239-.09-.119-.12-.298-.12-.477s.03-.358.09-.477c.09-.15.21-.239.36-.239.12 0 .3.09.36.239.09.119.12.298.12.477s-.03.358-.09.477c-.06.09-.15.18-.24.21zM45.15 35.354c-.12.06-.27.09-.39.06s-.27-.12-.36-.24c-.06-.089-.12-.208-.18-.357-.06-.18-.06-.358-.06-.537.03-.269.09-.537.21-.806.06-.12.15-.268.24-.358.06-.09.15-.179.27-.239h.06c.18-.09.45-.06.6-.03.21.03.39.06.54.15.33.119.63.358.81.656.09.12.15.239.18.388.03.179 0 .328-.09.447-.09.12-.21.21-.39.24-.12.029-.27.029-.39.029l-.33-.03h-.06c0 .03-.03.03-.03.03-.06.09-.12.179-.18.298-.06.09-.18.21-.33.299-.06-.03-.09 0-.12 0zM50.76 29.655c-.3.12-.66-.09-.84-.507-.21-.418-.12-.865.15-.984.27-.12.66.089.84.507.21.447.15.895-.15.984zM52.02 29.088c-.3.12-.66-.09-.84-.507-.18-.417-.12-.865.15-.984.3-.12.66.09.84.507.15.447.09.865-.15.984zM50.46 30.878c-.09.03-.21.06-.3.03-.15-.03-.3-.119-.45-.238-.15-.12-.24-.269-.27-.388-.06-.18-.03-.328.06-.448.09-.09.24-.149.42-.12.15.03.3.12.45.24.12.119.24.268.27.387.06.18.03.329-.06.448-.03.06-.06.09-.12.09zM53.13 29.625c-.06.03-.09.03-.12.03-.12 0-.3-.09-.36-.238-.09-.12-.12-.299-.12-.478s.03-.358.09-.477c.09-.15.21-.239.36-.239.12 0 .3.09.36.239.09.12.12.298.12.477 0 .18-.03.358-.09.478-.06.09-.15.179-.24.208zM51.84 32.25c-.12.06-.27.09-.39.06s-.27-.119-.36-.238c-.06-.09-.12-.209-.18-.358-.06-.18-.06-.358-.06-.537.03-.269.09-.537.21-.806.06-.12.15-.268.24-.358.06-.09.15-.179.27-.238h.06c.18-.09.45-.06.6-.03.21.03.39.06.54.149.33.12.63.358.81.656.09.12.15.239.18.388.03.18 0 .328-.09.448-.09.119-.21.208-.39.238-.12.03-.27.03-.39.03l-.33-.03h-.06c0 .03-.03.03-.03.03-.06.09-.12.18-.18.298-.06.09-.18.21-.33.299-.06-.03-.09 0-.12 0zM19.95 50.718c-.27.12-.36.567-.15.985.03.03.03.09.06.12l.99-.448c-.03-.06-.03-.09-.06-.15-.18-.417-.57-.626-.84-.507zM21.21 50.151c-.27.12-.33.567-.15.985.03.03.03.09.06.12l.99-.448c0-.03-.03-.09-.06-.12-.18-.447-.54-.656-.84-.537zM26.64 47.615c-.27.12-.36.567-.15.985.03.03.03.09.06.12l.99-.448c-.03-.06-.03-.09-.06-.15-.18-.417-.57-.626-.84-.507zM27.9 47.049c-.27.119-.33.566-.15.984.03.03.03.09.06.12l.99-.448c0-.03-.03-.09-.06-.12-.18-.447-.54-.656-.84-.536zM33.33 44.513c-.27.119-.36.567-.15.984.03.03.03.09.06.12l.99-.448c-.03-.06-.03-.09-.06-.15-.21-.417-.6-.626-.84-.506zM34.56 43.946c-.27.12-.33.567-.15.984.03.03.03.09.06.12l.99-.448c0-.03-.03-.09-.06-.12-.18-.447-.54-.655-.84-.536zM39.99 41.41c-.27.12-.36.567-.15.984.03.03.03.09.06.12l.99-.448c-.03-.06-.03-.09-.06-.149-.18-.418-.57-.626-.84-.507zM41.25 40.873c-.27.12-.33.567-.15.984.03.03.03.09.06.12l.99-.448c0-.03-.03-.09-.06-.12-.18-.447-.54-.655-.84-.536zM46.68 38.337c-.27.12-.36.567-.15.985.03.03.03.089.06.119l.99-.448c-.03-.06-.03-.09-.06-.149-.18-.417-.57-.626-.84-.507zM47.94 37.77c-.27.12-.33.567-.15.985.03.03.03.09.06.119l.99-.447c0-.03-.03-.09-.06-.12-.18-.447-.54-.656-.84-.537zM53.37 35.234c-.27.12-.36.567-.15.985.03.03.03.09.06.12l.99-.448c-.03-.06-.03-.09-.06-.15-.18-.417-.57-.626-.84-.507zM54.63 34.667c-.27.12-.33.567-.15.985.03.03.03.09.06.12l.99-.448c0-.06-.03-.09-.06-.12-.18-.447-.54-.656-.84-.537zM44.31.239c0 .06.03.119.03.209.06.149.12.268.18.358l.09.089-.3-.656zM46.8 5.52c-.03-.03-.09-.03-.12-.03-.18-.03-.33.03-.42.119-.09.12-.12.268-.06.447.03.12.12.269.27.388.15.12.3.209.45.239.09.03.21 0 .3-.03.03 0 .06 0 .09-.03L46.8 5.52zM47.64 7.28c0 .06.03.119.03.208.06.15.12.269.18.358l.09.09-.3-.656zM50.1 12.56c-.03-.03-.09-.03-.12-.03-.18-.03-.33.03-.42.12-.09.12-.12.268-.06.447.03.12.12.269.27.388.15.12.3.209.45.239.09.03.21 0 .3-.03.03 0 .06 0 .09-.03l-.51-1.104zM50.94 14.32c0 .06.03.12.03.21.06.148.12.268.18.357l.09.09-.3-.657zM53.4 19.63c-.03-.029-.09-.029-.12-.029-.18-.03-.33.03-.42.12-.09.119-.12.268-.06.447.03.12.12.268.27.388.15.12.3.209.45.238.09.03.21 0 .3-.03.03 0 .06 0 .09-.03l-.51-1.103zM54.24 21.391c0 .06.03.12.03.209.06.15.12.269.18.358l.09.09-.3-.657zM56.7 26.672c-.03-.03-.09-.03-.12-.03-.18-.03-.33.03-.42.12-.09.119-.12.268-.06.447.03.12.12.268.27.388.15.119.3.209.45.238.09.03.21 0 .3-.03.03 0 .06 0 .09-.03l-.51-1.103zM57.54 28.432c0 .06.03.12.03.209.06.15.12.268.18.358l.09.09-.3-.657z" transform="translate(0 3)"/>
        </g>
        <path fill="#63123B" d="M1.316 12.063L44.653 12.155 44.653 12.275 1.316 12.183z" transform="translate(0 3) rotate(-24.999 22.985 12.17)"/>
        <path fill="#63123B" d="M2.747 15.144L46.084 15.236 46.084 15.355 2.747 15.263z" transform="translate(0 3) rotate(-24.999 24.415 15.25)"/>
        <path fill="#63123B" d="M6.142 22.394L49.479 22.486 49.479 22.605 6.142 22.514z" transform="translate(0 3) rotate(-24.999 27.81 22.5)"/>
        <g fill="#63123B">
            <path d="M0.206 18.229L1.434 18.231 1.435 18.351 0.206 18.348z" transform="translate(0 3) translate(13.8 25.657) rotate(-24.999 .82 18.29)"/>
            <path d="M36.33 1.91l-2.19 1.014-.06-.12 2.19-1.014.06.12zm-4.38 2.028l-2.19 1.014-.06-.119 2.19-1.014.06.12zM27.6 5.967L25.41 6.98l-.06-.12 2.19-1.013.06.119zm-4.38 1.999L21.03 8.98l-.06-.12 2.19-1.014.06.12zm-4.35 2.028l-2.19 1.015-.06-.12 2.19-1.014.06.12zm-4.38 2.03l-2.19 1.014-.06-.12 2.19-1.014.06.12zm-4.35 2.028l-2.19 1.014-.06-.119 2.19-1.014.06.119zM5.76 16.08l-2.19 1.014-.06-.12 2.19-1.014.06.12z" transform="translate(0 3) translate(13.8 25.657)"/>
            <path d="M38.423 0.503L39.652 0.505 39.652 0.625 38.423 0.622z" transform="translate(0 3) translate(13.8 25.657) rotate(-24.999 39.037 .564)"/>
        </g>
        <g fill="#AFAFAF">
            <path d="M26.82 1.223L7.89 9.994c-.3.15-.66 0-.81-.298-.15-.298 0-.656.3-.805L26.31.119c.3-.149.66 0 .81.299.15.298 0 .656-.3.805zM20.01 9.278L1.08 18.05c-.3.149-.66 0-.81-.299-.15-.298 0-.656.3-.805L19.5 8.175c.3-.15.66 0 .81.298.15.298 0 .656-.3.805zM23.25 16.021L4.32 24.792c-.3.15-.66 0-.81-.298-.15-.298 0-.656.3-.806l18.93-8.77c.3-.15.66 0 .81.297.12.299 0 .657-.3.806zM19.68 21.123L5.64 27.627c-.3.149-.66 0-.81-.299-.15-.298 0-.656.3-.805l14.04-6.504c.3-.15.66 0 .81.298.15.298 0 .656-.3.806zM17.94 25.36L6.9 30.49c-.3.15-.66 0-.81-.298-.15-.298 0-.656.3-.805l11.04-5.132c.3-.149.66 0 .81.299.15.298 0 .656-.3.805zM30.57 28.074l-20.28 9.398c-.3.149-.66 0-.81-.299-.15-.298 0-.656.3-.805l20.28-9.398c.3-.149.66 0 .81.299.15.328 0 .686-.3.805zM27.48 32.967l-15.96 7.399c-.3.149-.66 0-.81-.299-.15-.298 0-.656.3-.805l15.96-7.399c.3-.15.66 0 .81.298.15.299 0 .657-.3.806zM41.91 10.8l-5.22 2.417c-.3.149-.66 0-.81-.299-.15-.298 0-.656.3-.805l5.22-2.417c.3-.149.66 0 .81.298.15.299 0 .657-.3.806zM44.61 16.588l-8.67 4.027c-.3.15-.66 0-.81-.298-.15-.298 0-.656.3-.805l8.67-4.028c.3-.15.66 0 .81.298.15.299.03.687-.3.806zM43.23 13.545l-11.04 5.131c-.3.15-.66 0-.81-.298-.15-.298 0-.656.3-.806l11.04-5.131c.3-.15.66 0 .81.298.15.299.03.657-.3.806zM47.94 23.599l-5.37 2.506c-.3.15-.66 0-.81-.298-.15-.299 0-.657.3-.806l5.37-2.506c.3-.15.66 0 .81.298.15.299 0 .657-.3.806zM46.53 20.556l-6.84 3.162c-.3.15-.66 0-.81-.298-.15-.298 0-.656.3-.806l6.84-3.162c.3-.15.66 0 .81.298.15.299 0 .657-.3.806zM28.98 23.867L8.31 33.444c-.3.15-.66 0-.81-.298-.15-.298 0-.656.3-.806l20.67-9.576c.3-.15.66 0 .81.298.15.298 0 .656-.3.805zM37.29 1.253L27.06 5.997c-.3.149-.66 0-.81-.299-.15-.298 0-.656.3-.805L36.78.149c.3-.149.66 0 .81.299.15.298 0 .656-.3.805zM38.55 3.908l-6.21 2.894c-.3.15-.66 0-.81-.298-.15-.298 0-.656.3-.806l6.21-2.894c.3-.149.66 0 .81.299.12.298 0 .656-.3.805zM8.55 17.811l-6.21 2.894c-.3.15-.66 0-.81-.298-.15-.299 0-.657.3-.806l6.21-2.894c.3-.149.66 0 .81.299.15.298 0 .656-.3.805z" transform="translate(0 3) translate(6.6 8.652)"/>
        </g>
    </g>
</svg>
