<?xml version="1.0" encoding="utf-8"?>
<!-- Generator: Adobe Illustrator 24.2.1, SVG Export Plug-In . SVG Version: 6.00 Build 0)  -->
<svg version="1.1" id="圖層_1" xmlns="http://www.w3.org/2000/svg" xmlns:xlink="http://www.w3.org/1999/xlink" x="0px" y="0px"
	 viewBox="0 0 300 300" style="enable-background:new 0 0 300 300;" xml:space="preserve">
<style type="text/css">
	.st0{fill:#ffffff;}
	.st1{fill:#ffffff;}
	.st2{fill:#ffffff;}
	.st3{fill:#ffffff;}
	.st4{fill:#ffffff;}
	.st5{fill:#ffffff;}
	.st6{fill:#ffffff;}
	.st7{fill:#ffffff;}
	.st8{fill:#ffffff;}
	.st9{fill:#ffffff;}
	.st10{fill:#ffffff;}
	.st11{fill:#ffffff;}
	.st12{fill:#ffffff;}
	.st13{fill:#ffffff;}
	.st14{fill:#ffffff;}
	.st15{fill:#ffffff;}
	.st16{fill:#ffffff;}
	.st17{fill:#ffffff;}
	.st18{fill:#ffffff;}
	.st19{fill:#ffffff;}
	.st20{fill:#ffffff;}
	.st21{fill:#ffffff;}
	.st22{fill:#ffffff;}
	.st23{fill:#ffffff;}
	.st24{fill:#ffffff;}
	.st25{fill:#ffffff;}
	.st26{fill:#ffffff;}
	.st27{fill:#ffffff;}
	.st28{fill:#ffffff;}
	.st29{fill:#ffffff;}
	.st30{fill:#ffffff;}
	.st31{fill:#ffffff;}
	.st32{fill:#ffffff;}
	.st33{fill:none;}
	.st34{fill:#ffffff;}
	.st35{fill:#ffffff;}
	.st36{fill:#ffffff;}
	.st37{fill:#ffffff;}
	.st38{fill:#ffffff;}
	.st39{fill:#ffffff;}
	.st40{fill:#ffffff;}
	.st41{fill:#ffffff;}
	.st42{fill:#ffffff;}
	.st43{fill:#ffffff;}
	.st44{fill:#ffffff;}
	.st45{fill:#ffffff;}
	.st46{fill:#ffffff;}
	.st47{fill:#ffffff;}
</style>
<g>
	<path class="st33" d="M52.26,159.87c2.22,9.57,8.35,16.39,16.23,17.42c10.73,1.4,19.15-5.77,21.54-18.28
		c0.32-1.66,0.75-3.35,1.44-4.89c1.46-3.28,3.67-6.33,4.56-9.74c1.11-4.26-0.1-5.08-3.54-4.5c-2.76-4.45-4.23-9.55-7.56-11.54
		c-4.73-2.83-10.81-3.44-16.35-4.86c-1-0.26-2.18,0.03-3.25,0.24c-8.4,1.66-11.8,5.78-13.43,15.35c-2.34,1.02-5.64,1.94-5.58,2.53
		c0.35,3.62,1.23,7.24,2.38,10.71C49.57,154.94,51.64,157.22,52.26,159.87z"/>
	<path class="st33" d="M21.35,89.01c-7.69-0.01-12.25,4.57-12.24,12.31c0.06,42.09,0.12,84.19,0.16,126.28
		c0.01,7.54,4.54,11.93,12.02,11.91c34.87-0.07,69.73-0.06,104.6-0.08c0-0.1,0.01-0.2,0.01-0.31c2.82,0.14,5.65,0.4,8.47,0.39
		c47.74-0.05,95.49-0.16,143.23-0.19c9.12-0.01,12.99-3.46,13.04-12.64c0.14-21.2,0.11-42.41,0.13-63.61
		c0.02-19.79,0.07-39.58-0.01-59.37c-0.05-11.43-3.15-14.64-14.51-14.66c-30.78-0.06-61.57,0.09-92.35,0.08
		C129.72,89.13,75.54,89.07,21.35,89.01z M45.8,134.29c-1.04-7.79,0.88-14.51,7.03-19.79c-1.07-1.05-2.13-2.11-3.09-3.06
		c7.23-1.04,14.28-2.92,21.3-2.78c5.53,0.11,12.2,1.25,16.22,4.54c5.75,4.71,11.02,11.08,9.17,20.11c-0.37,1.82,1.42,4.01,1.23,5.94
		c-0.46,4.83-1.22,9.68-2.36,14.4c-0.63,2.62-2.09,5.09-3.48,7.46c-2.9,4.95-5.27,10.48-9.18,14.51c-6.54,6.75-17.07,6.32-23.7-0.39
		c-2.92-2.95-5.31-6.63-7.19-10.36c-2.59-5.12-4.7-10.52-6.57-15.96c-1.29-3.76-2.75-7.77,0.58-11.52
		C46.27,136.8,45.93,135.33,45.8,134.29z M20.99,220.78c0.42-8.64,0.19-17.1,1.58-25.3c0.47-2.81,4.6-5.89,7.74-7.17
		c7.8-3.17,15.99-5.38,24.13-8.01c3.27,10.74,6.51,21.4,10.05,33.07c3.18-7.11,3.26-12.99,1.19-19.17
		c-0.62-1.87,0.17-6.08,0.68-6.14c3.3-0.4,6.76-0.22,10,0.51c0.53,0.12,0.84,4.13,0.19,5.98c-2.13,6.08-1.93,11.89,1.16,18.79
		c3.48-11.44,6.71-22.04,10.11-33.22c8.94,3.09,18.15,5.9,27,9.58c2.39,0.99,4.88,4.44,5.26,7.06c1.12,7.69,1.2,15.53,1.74,24.03
		C87.52,220.77,54.59,220.78,20.99,220.78z M157.98,220.49c0.09-1.95,0.15-3.16,0.24-4.93c37.75-0.02,75.49-0.05,113.77-0.07
		c0.05,1.53,0.11,2.97,0.18,4.97C234.01,220.46,196.28,220.48,157.98,220.49z M158.09,197.33c0.09-1.88,0.16-3.22,0.24-4.98
		c37.96,0,75.69,0,113.77,0c0.02,1.87,0.03,3.17,0.04,4.91C234.08,197.29,196.35,197.31,158.09,197.33z M267.99,174.37
		c-16.6-0.17-33.21-0.39-49.81-0.41c-18.19-0.03-36.37,0.15-54.56,0.21c-1.71,0.01-3.42-0.15-5.55-0.26
		c0.09-1.79,0.15-3.02,0.23-4.77c37.7,0.01,75.51,0.02,113.39,0.02C272.91,173.07,271.49,174.41,267.99,174.37z M158.05,139.69
		c0.09-1.81,0.15-3.16,0.24-4.95c24.07-0.01,47.99-0.01,72.23-0.02c0.07,1.78,0.13,3.1,0.2,4.93
		C206.49,139.67,182.56,139.68,158.05,139.69z M230.68,120.19c-24.33,0.02-48.23,0.03-72.7,0.05c0.09-1.9,0.15-3.1,0.24-4.91
		c24-0.03,47.9-0.07,72.31-0.1C230.58,116.86,230.63,118.3,230.68,120.19z"/>
	
		<linearGradient id="SVGID_1_" gradientUnits="userSpaceOnUse" x1="5.6474" y1="155.6009" x2="311.8817" y2="155.6009" gradientTransform="matrix(0.9988 0.0485 -0.0485 0.9988 -1.0969 -13.3338)">
		<stop  offset="0" style="stop-color:#171C61"/>
		<stop  offset="0.1256" style="stop-color:#192568"/>
		<stop  offset="0.4986" style="stop-color:#1F3E79"/>
		<stop  offset="0.8033" style="stop-color:#234E85"/>
		<stop  offset="1" style="stop-color:#245489"/>
	</linearGradient>
	<path class="st0" d="M0.65,68.27c0.07,7.07,0.08,14.14,0.07,21.2c-0.03,47.59-0.07,95.18-0.1,142.77
		c-0.01,7.69,4.25,13.37,11.82,14.79c4.27,0.8,8.73,0.8,13.1,0.81c35.65,0.1,71.31,0.15,106.96,0.15
		c50.42,0.01,100.83-0.06,151.25-0.04c9.33,0,15.02-5.09,15.42-14.41c0.24-5.49,0.22-11,0.21-16.49
		c-0.04-48.69-0.16-97.38-0.13-146.07c0.01-11.6-4.75-17.76-14.87-18.97h-269C5.66,52.51,0.54,57.9,0.65,68.27z M290.76,103.71
		c0.08,19.79,0.03,39.58,0.01,59.37c-0.02,21.2,0.01,42.41-0.13,63.61c-0.06,9.17-3.92,12.63-13.04,12.64
		c-47.74,0.04-95.49,0.14-143.23,0.19c-2.82,0-5.65-0.26-8.47-0.39c0,0.1-0.01,0.2-0.01,0.31c-34.87,0.02-69.73,0.01-104.6,0.08
		c-7.48,0.01-12.01-4.38-12.02-11.91c-0.04-42.09-0.1-84.19-0.16-126.28c-0.01-7.74,4.55-12.32,12.24-12.31
		c54.18,0.05,108.37,0.11,162.55,0.12c30.78,0.01,61.57-0.14,92.35-0.08C287.61,89.08,290.72,92.28,290.76,103.71z M99.93,58.66
		h100.13v10.08H99.93V58.66z"/>
	
		<linearGradient id="SVGID_2_" gradientUnits="userSpaceOnUse" x1="33.2109" y1="210.8311" x2="134.1334" y2="210.8311" gradientTransform="matrix(0.9988 0.0485 -0.0485 0.9988 -1.0969 -13.3338)">
		<stop  offset="0" style="stop-color:#171C61"/>
		<stop  offset="0.1256" style="stop-color:#192568"/>
		<stop  offset="0.4986" style="stop-color:#1F3E79"/>
		<stop  offset="0.8033" style="stop-color:#234E85"/>
		<stop  offset="1" style="stop-color:#245489"/>
	</linearGradient>
	<path class="st1" d="M114.83,189.69c-8.85-3.68-18.06-6.49-27-9.58c-3.4,11.18-6.63,21.78-10.11,33.22
		c-3.09-6.9-3.3-12.71-1.16-18.79c0.65-1.84,0.34-5.86-0.19-5.98c-3.24-0.73-6.7-0.91-10-0.51c-0.51,0.06-1.3,4.28-0.68,6.14
		c2.06,6.18,1.99,12.06-1.19,19.17c-3.55-11.67-6.79-22.33-10.05-33.07c-8.15,2.63-16.34,4.84-24.13,8.01
		c-3.14,1.28-7.26,4.37-7.74,7.17c-1.39,8.19-1.16,16.66-1.58,25.3c33.6,0,66.53,0,100.84,0c-0.53-8.5-0.62-16.34-1.74-24.03
		C119.71,194.12,117.22,190.68,114.83,189.69z"/>
	
		<linearGradient id="SVGID_3_" gradientUnits="userSpaceOnUse" x1="52.3123" y1="154.2113" x2="106.0351" y2="154.2113" gradientTransform="matrix(0.9988 0.0485 -0.0485 0.9988 -1.0969 -13.3338)">
		<stop  offset="0" style="stop-color:#171C61"/>
		<stop  offset="0.1256" style="stop-color:#192568"/>
		<stop  offset="0.4986" style="stop-color:#1F3E79"/>
		<stop  offset="0.8033" style="stop-color:#234E85"/>
		<stop  offset="1" style="stop-color:#245489"/>
	</linearGradient>
	<path class="st2" d="M45.17,148.9c1.87,5.44,3.98,10.84,6.57,15.96c1.88,3.73,4.27,7.4,7.19,10.36c6.63,6.71,17.16,7.14,23.7,0.39
		c3.9-4.02,6.28-9.56,9.18-14.51c1.39-2.36,2.85-4.84,3.48-7.46c1.14-4.72,1.91-9.56,2.36-14.4c0.18-1.93-1.61-4.12-1.23-5.94
		c1.85-9.03-3.43-15.4-9.17-20.11c-4.02-3.3-10.69-4.44-16.22-4.54c-7.02-0.14-14.07,1.75-21.3,2.78c0.96,0.95,2.03,2,3.09,3.06
		c-6.15,5.28-8.07,12-7.03,19.79c0.14,1.03,0.48,2.5-0.04,3.09C42.42,141.13,43.88,145.15,45.17,148.9z M51.9,139.08
		c1.63-9.58,5.02-13.7,13.43-15.35c1.06-0.21,2.25-0.5,3.25-0.24c5.54,1.42,11.62,2.03,16.35,4.86c3.33,1.99,4.8,7.09,7.56,11.54
		c3.45-0.57,4.66,0.24,3.54,4.5c-0.89,3.41-3.1,6.46-4.56,9.74c-0.69,1.54-1.12,3.22-1.44,4.89c-2.39,12.51-10.81,19.68-21.54,18.28
		c-7.88-1.03-14.01-7.85-16.23-17.42c-0.61-2.65-2.68-4.93-3.56-7.55c-1.15-3.47-2.04-7.09-2.38-10.71
		C46.26,141.02,49.56,140.1,51.9,139.08z"/>
	
		<linearGradient id="SVGID_4_" gradientUnits="userSpaceOnUse" x1="170.2308" y1="220.5656" x2="284.2762" y2="220.5656" gradientTransform="matrix(0.9988 0.0485 -0.0485 0.9988 -1.0969 -13.3338)">
		<stop  offset="0" style="stop-color:#171C61"/>
		<stop  offset="0.1256" style="stop-color:#192568"/>
		<stop  offset="0.4986" style="stop-color:#1F3E79"/>
		<stop  offset="0.8033" style="stop-color:#234E85"/>
		<stop  offset="1" style="stop-color:#245489"/>
	</linearGradient>
	<path class="st3" d="M158.22,215.56c-0.09,1.77-0.14,2.98-0.24,4.93c38.29-0.01,76.03-0.02,114.18-0.04
		c-0.07-2-0.12-3.44-0.18-4.97C233.71,215.51,195.97,215.53,158.22,215.56z"/>
	
		<linearGradient id="SVGID_5_" gradientUnits="userSpaceOnUse" x1="169.2206" y1="197.4438" x2="283.1365" y2="197.4438" gradientTransform="matrix(0.9988 0.0485 -0.0485 0.9988 -1.0969 -13.3338)">
		<stop  offset="0" style="stop-color:#171C61"/>
		<stop  offset="0.1256" style="stop-color:#192568"/>
		<stop  offset="0.4986" style="stop-color:#1F3E79"/>
		<stop  offset="0.8033" style="stop-color:#234E85"/>
		<stop  offset="1" style="stop-color:#245489"/>
	</linearGradient>
	<path class="st4" d="M158.34,192.35c-0.09,1.76-0.15,3.1-0.24,4.98c38.25-0.02,75.98-0.04,114.05-0.06
		c-0.01-1.74-0.03-3.05-0.04-4.91C234.02,192.35,196.3,192.35,158.34,192.35z"/>
	
		<linearGradient id="SVGID_6_" gradientUnits="userSpaceOnUse" x1="168.0555" y1="174.2005" x2="281.8622" y2="174.2005" gradientTransform="matrix(0.9988 0.0485 -0.0485 0.9988 -1.0969 -13.3338)">
		<stop  offset="0" style="stop-color:#171C61"/>
		<stop  offset="0.1256" style="stop-color:#192568"/>
		<stop  offset="0.4986" style="stop-color:#1F3E79"/>
		<stop  offset="0.8033" style="stop-color:#234E85"/>
		<stop  offset="1" style="stop-color:#245489"/>
	</linearGradient>
	<path class="st5" d="M158.07,173.92c2.13,0.1,3.84,0.26,5.55,0.26c18.19-0.06,36.37-0.24,54.56-0.21
		c16.6,0.02,33.21,0.24,49.81,0.41c3.5,0.04,4.92-1.31,3.7-5.2c-37.89-0.01-75.69-0.02-113.39-0.02
		C158.21,170.9,158.15,172.12,158.07,173.92z"/>
	
		<linearGradient id="SVGID_7_" gradientUnits="userSpaceOnUse" x1="166.3827" y1="140.8895" x2="238.9616" y2="140.8895" gradientTransform="matrix(0.9988 0.0485 -0.0485 0.9988 -1.0969 -13.3338)">
		<stop  offset="0" style="stop-color:#171C61"/>
		<stop  offset="0.1256" style="stop-color:#192568"/>
		<stop  offset="0.4986" style="stop-color:#1F3E79"/>
		<stop  offset="0.8033" style="stop-color:#234E85"/>
		<stop  offset="1" style="stop-color:#245489"/>
	</linearGradient>
	<path class="st6" d="M158.29,134.75c-0.09,1.79-0.15,3.14-0.24,4.95c24.51-0.01,48.43-0.03,72.67-0.04
		c-0.07-1.83-0.13-3.15-0.2-4.93C206.28,134.73,182.37,134.74,158.29,134.75z"/>
	
		<linearGradient id="SVGID_8_" gradientUnits="userSpaceOnUse" x1="165.3735" y1="121.4365" x2="237.9837" y2="121.4365" gradientTransform="matrix(0.9988 0.0485 -0.0485 0.9988 -1.0969 -13.3338)">
		<stop  offset="0" style="stop-color:#171C61"/>
		<stop  offset="0.1256" style="stop-color:#192568"/>
		<stop  offset="0.4986" style="stop-color:#1F3E79"/>
		<stop  offset="0.8033" style="stop-color:#234E85"/>
		<stop  offset="1" style="stop-color:#245489"/>
	</linearGradient>
	<path class="st7" d="M157.99,120.24c24.47-0.02,48.37-0.03,72.7-0.05c-0.06-1.89-0.1-3.33-0.15-4.97
		c-24.41,0.04-48.31,0.07-72.31,0.1C158.14,117.14,158.08,118.34,157.99,120.24z"/>
</g>
</svg>
