<?xml version="1.0" encoding="utf-8"?>
<!-- Generator: Adobe Illustrator 24.2.1, SVG Export Plug-In . SVG Version: 6.00 Build 0)  -->
<svg version="1.1" id="圖層_1" xmlns="http://www.w3.org/2000/svg" xmlns:xlink="http://www.w3.org/1999/xlink" x="0px" y="0px"
	 viewBox="0 0 300 300" style="enable-background:new 0 0 300 300;" xml:space="preserve">
<style type="text/css">
	.st0{fill:url(#SVGID_1_);}
	.st1{fill:url(#SVGID_2_);}
	.st2{fill:url(#SVGID_3_);}
	.st3{fill:url(#SVGID_4_);}
	.st4{fill:url(#SVGID_5_);}
	.st5{fill:url(#SVGID_6_);}
	.st6{fill:url(#SVGID_7_);}
	.st7{fill:url(#SVGID_8_);}
	.st8{fill:url(#SVGID_9_);}
	.st9{fill:url(#SVGID_10_);}
	.st10{fill:url(#SVGID_11_);}
	.st11{fill:url(#SVGID_12_);}
	.st12{fill:url(#SVGID_13_);}
	.st13{fill:url(#SVGID_14_);}
	.st14{fill:url(#SVGID_15_);}
	.st15{fill:url(#SVGID_16_);}
	.st16{fill:url(#SVGID_17_);}
	.st17{fill:url(#SVGID_18_);}
	.st18{fill:url(#SVGID_19_);}
	.st19{fill:url(#SVGID_20_);}
	.st20{fill:url(#SVGID_21_);}
	.st21{fill:url(#SVGID_22_);}
	.st22{fill:url(#SVGID_23_);}
	.st23{fill:url(#SVGID_24_);}
	.st24{fill:url(#SVGID_25_);}
	.st25{fill:url(#SVGID_26_);}
	.st26{fill:url(#SVGID_27_);}
	.st27{fill:url(#SVGID_28_);}
	.st28{fill:url(#SVGID_29_);}
	.st29{fill:url(#SVGID_30_);}
	.st30{fill:url(#SVGID_31_);}
	.st31{fill:url(#SVGID_32_);}
	.st32{fill:url(#SVGID_33_);}
	.st33{fill:none;}
	.st34{fill:url(#SVGID_34_);}
	.st35{fill:url(#SVGID_35_);}
	.st36{fill:url(#SVGID_36_);}
	.st37{fill:url(#SVGID_37_);}
	.st38{fill:url(#SVGID_38_);}
	.st39{fill:url(#SVGID_39_);}
	.st40{fill:url(#SVGID_40_);}
	.st41{fill:url(#SVGID_41_);}
	.st42{fill:url(#SVGID_42_);}
	.st43{fill:url(#SVGID_43_);}
	.st44{fill:url(#SVGID_44_);}
	.st45{fill:url(#SVGID_45_);}
	.st46{fill:url(#SVGID_46_);}
	.st47{fill:url(#SVGID_47_);}
</style>
<g>
	<linearGradient id="SVGID_1_" gradientUnits="userSpaceOnUse" x1="0" y1="150" x2="300" y2="150">
		<stop  offset="0" style="stop-color:#171C61"/>
		<stop  offset="0.1377" style="stop-color:#192669"/>
		<stop  offset="0.5055" style="stop-color:#1F3F7B"/>
		<stop  offset="0.806" style="stop-color:#234F87"/>
		<stop  offset="1" style="stop-color:#24558B"/>
	</linearGradient>
	<path class="st0" d="M223.25,300.01c-2.26-0.53-4.52-1.07-6.78-1.6c-6.79-1.6-12.44-5.49-18.19-9.15
		C151.69,259.66,110.23,224,73.1,183.23c-23.77-26.1-44.98-54.14-64.19-83.78C0.18,85.98-2.05,71.91,1.85,56.75
		c5.55-21.6,17.01-39.21,36.24-51.17c4.74-2.94,9.86-5.23,15.54-5.54c10.72-0.58,18.86,4.24,23.98,13.3
		C87,29.97,96.06,46.79,104.87,63.73c7.1,13.65,6.33,27.07-2.11,40.17c-6.95,10.79-7,21.88,0.37,32.59c2.2,3.2,4.97,6.01,7.6,8.9
		c15.78,17.35,32.38,33.86,50.07,49.27c4.14,3.6,8.84,5.96,14.25,6.96c7.51,1.39,14.19-0.7,20.7-4.31
		c4.23-2.35,8.59-4.72,13.19-6.09c8.99-2.68,17.92-1.22,26.09,3.06c17.35,9.07,34.57,18.41,51.71,27.88
		c6.67,3.69,11.03,9.47,12.72,17.07c0.08,0.36,0.35,0.67,0.53,1c0,2.73,0,5.47,0,8.2c-2.58,5.62-4.5,11.68-7.87,16.77
		c-10.16,15.34-24.71,25.2-41.93,31.15c-4.74,1.64-9.76,2.45-14.65,3.65C231.45,300.01,227.35,300.01,223.25,300.01z M14.06,70.49
		c0.21,6.93,1.42,12.85,4.98,18.16c5.76,8.59,11.21,17.39,17.14,25.85c26.84,38.3,57.88,72.89,92.65,104.15
		c25.61,23.02,52.97,43.69,82.21,61.89c7.1,4.42,14.67,6.02,22.91,5.02c13.29-1.62,24.74-7.34,34.97-15.7
		c7.04-5.76,12.91-12.47,16.01-21.22c1.93-5.45,0.54-9.93-4.12-13.36c-1.02-0.75-2.12-1.4-3.23-2c-15-8.12-30.11-16.05-44.98-24.4
		c-10.25-5.76-19.7-5.8-29.91,0.58c-17.54,10.95-37.19,8.58-52.59-5.17c-19.25-17.19-37.6-35.27-54.59-54.7
		c-2.86-3.27-5.56-6.88-7.47-10.77c-7.25-14.72-5.94-29.15,2.89-42.76c5.78-8.91,5.78-17.75,0.93-26.79
		c-8.61-16.06-17.32-32.08-26.1-48.04c-3.83-6.96-9.13-8.62-16.47-5.48c-7.44,3.19-13.37,8.35-18.46,14.52
		C21.01,42.15,14.89,55.59,14.06,70.49z"/>
	<linearGradient id="SVGID_2_" gradientUnits="userSpaceOnUse" x1="147.2519" y1="115.695" x2="264.8941" y2="115.695">
		<stop  offset="0" style="stop-color:#171C61"/>
		<stop  offset="0.1377" style="stop-color:#192669"/>
		<stop  offset="0.5055" style="stop-color:#1F3F7B"/>
		<stop  offset="0.806" style="stop-color:#234F87"/>
		<stop  offset="1" style="stop-color:#24558B"/>
	</linearGradient>
	<path class="st1" d="M205.87,159.14c-13.96,0-27.92,0.01-41.88,0c-11.03-0.01-16.78-5.74-16.73-16.81
		c0.05-10.15-0.21-20.33,0.47-30.44c1.25-18.55,16.05-34.95,34.3-38.56c3.7-0.73,7.54-1.09,11.32-1.09
		c10.93-0.02,21.89-0.27,32.77,0.5c18.55,1.3,36.15,18.06,37.92,36.63c1.15,12.1,0.9,24.37,0.63,36.55
		c-0.17,7.8-6.98,13.21-15.46,13.24c-14.45,0.06-28.9,0.02-43.34,0.02C205.87,159.17,205.87,159.16,205.87,159.14z M250.4,144.65
		c0.1-0.51,0.24-0.88,0.24-1.25c0.01-8.98,0.28-17.97-0.05-26.93c-0.65-17.28-13.04-29.66-29.68-29.89
		c-10.24-0.14-20.49-0.2-30.73,0.06c-15.44,0.39-28.15,13.15-28.48,28.54c-0.2,9.36-0.05,18.74-0.04,28.1c0,0.45,0.15,0.9,0.23,1.37
		C191.47,144.65,220.89,144.65,250.4,144.65z"/>
	<linearGradient id="SVGID_3_" gradientUnits="userSpaceOnUse" x1="173.4656" y1="33.3817" x2="238.608" y2="33.3817">
		<stop  offset="0" style="stop-color:#171C61"/>
		<stop  offset="0.1377" style="stop-color:#192669"/>
		<stop  offset="0.5055" style="stop-color:#1F3F7B"/>
		<stop  offset="0.806" style="stop-color:#234F87"/>
		<stop  offset="1" style="stop-color:#24558B"/>
	</linearGradient>
	<path class="st2" d="M238.61,33.29c0.08,17.95-14.43,32.64-32.4,32.79c-17.79,0.15-32.69-14.63-32.74-32.47
		c-0.05-18.13,14.55-32.89,32.56-32.92C223.92,0.66,238.52,15.27,238.61,33.29z M206.08,51.73c10.26-0.02,18.38-8.14,18.38-18.36
		c-0.01-10.21-8.18-18.34-18.42-18.33c-10.16,0.01-18.48,8.28-18.47,18.37C187.58,43.5,195.91,51.75,206.08,51.73z"/>
</g>
</svg>
