<svg xmlns="http://www.w3.org/2000/svg" width="60" height="60" viewBox="0 0 60 60">
    <g fill="none">
        <path fill="#EDFCEB" d="M5.461 8.646L54.262 8.656 54.269 45.266 5.469 45.256z" transform="translate(0 3) rotate(-24.999 29.865 26.956)"/>
        <g fill="#84E06E">
            <path d="M2.746 13.455c-.149-.328-.328-.686-.447-1.014-.06-.18-.15-.328-.21-.507l-.149-.507c.06.03.12.089.18.119.417.209.805.179.895.03.12-.15-.15-.358-.508-.567-.268-.15-.537-.239-.716-.209-.03-.269-.06-.507-.06-.776 0-.268 0-.507.03-.775.03.06.09.119.12.179.328.328.716.417.835.328.09-.06.06-.15.03-.269-.06-.119-.149-.268-.298-.447-.21-.21-.418-.388-.597-.448l.09-.388.119-.387c.06-.24.179-.478.268-.716.03.06.06.149.09.208.179.418.507.627.686.597.09-.03.12-.12.12-.239 0-.149-.06-.328-.15-.507-.119-.268-.268-.507-.417-.626.12-.21.268-.448.418-.657l.238-.298.12-.15.15-.148v.209c.059.447.298.775.447.775.09 0 .15-.09.179-.209.03-.119.06-.298.03-.537-.03-.298-.09-.567-.18-.716l.3-.238c.089-.09.208-.15.328-.21.119-.059.209-.148.328-.208l.358-.179c-.03.06-.06.12-.06.209-.119.417 0 .805.18.865.179.06.328-.179.447-.627.09-.298.12-.596.06-.745l1.463-.687c-.03.06-.06.12-.09.21-.15.417-.12.835.06.924.179.06.448-.209.597-.656.09-.299.12-.597.06-.746l1.462-.686c-.03.06-.06.12-.09.209-.149.417-.119.835.06.924.18.06.448-.208.597-.656.09-.298.12-.597.06-.746l1.463-.686c-.03.06-.06.12-.09.209-.149.418-.12.835.06.925.179.06.448-.21.597-.657.09-.298.12-.596.06-.745l.507-.24c.12-.059.15-.208.12-.327-.03-.12-.21-.18-.299-.12l-1.552.597c-.09-.15-.329-.328-.627-.447-.418-.18-.806-.15-.866.03-.06.178.239.477.657.626.06.03.15.06.209.06L8.955 1.7c-.09-.15-.328-.329-.627-.448-.418-.179-.806-.15-.865.03-.06.179.238.477.656.626.06.03.15.06.21.06l-1.463.686c-.09-.149-.329-.328-.627-.447-.418-.18-.806-.15-.866.03-.06.179.239.477.657.626.06.03.15.06.209.06l-.746.328c-.24.12-.508.268-.747.388-.12-.15-.358-.299-.686-.328-.478-.09-.926.09-.956.298-.03.209.359.388.836.418h.24c-.21.179-.449.358-.628.537-.209.208-.418.387-.567.626-.15-.09-.448-.149-.776-.09-.478.09-.866.389-.806.597.03.12.15.18.298.18.15.03.389 0 .627-.06.09-.03.15-.03.21-.06-.09.12-.15.239-.24.358l-.208.418c-.15.238-.24.507-.359.775-.179-.06-.477 0-.746.15-.209.119-.388.268-.478.417-.09.15-.119.299-.09.388.12.18.508.06.896-.179.06-.03.12-.09.18-.12-.06.27-.12.538-.18.836-.03.269-.09.567-.06.835-.178 0-.447.15-.656.388-.328.358-.418.836-.269.955.18.15.508-.09.806-.477.06-.06.09-.12.15-.18l.03.418c.03.15.06.269.089.418.03.269.12.537.209.806-.18.06-.388.298-.508.596-.09.21-.119.448-.119.627s.06.268.15.298c.178.06.477-.239.626-.656.03-.09.06-.15.06-.21.15.359.298.657.448.985.06.12.209.15.328.12.12-.03.209-.15.15-.269zM12.269 30.76c-.627-.359-1.194-.777-1.702-1.314h.21c.447-.03.775-.238.805-.417.03-.18-.298-.269-.716-.269-.299 0-.567.06-.747.15-.149-.21-.298-.418-.418-.657-.119-.239-.238-.447-.358-.686.06.03.12.06.21.09.447.119.835.03.895-.12.03-.09 0-.15-.12-.239-.119-.119-.298-.208-.507-.268-.299-.09-.597-.12-.746-.06l-.687-1.462c.06.03.12.06.209.09.418.149.836.12.925-.06.06-.179-.209-.447-.656-.597-.299-.09-.597-.119-.747-.06l-.686-1.461c.06.03.12.06.209.09.418.149.836.119.925-.06.06-.18-.209-.448-.657-.597-.298-.09-.597-.12-.746-.06l-.686-1.462c.06.03.119.06.209.09.417.15.835.12.925-.06.06-.179-.209-.447-.657-.596-.298-.09-.597-.12-.746-.06l-.687-1.462c.06.03.12.06.21.09.417.149.835.119.925-.06.06-.18-.21-.448-.657-.597-.299-.09-.597-.12-.746-.06l-.687-1.461c.06.03.12.06.21.09.417.148.835.119.924-.06.06-.18-.208-.448-.656-.597-.299-.09-.597-.12-.746-.06l-.687-1.462c.06.03.12.06.209.09.418.149.836.12.925-.06.06-.179-.209-.447-.656-.597-.299-.09-.597-.119-.747-.06l-.239-.506c-.06-.12-.208-.15-.328-.12-.12.03-.179.21-.12.299l.717 1.551c-.15.09-.328.328-.448.627-.179.417-.149.805.03.865.18.06.478-.239.627-.657.03-.06.06-.149.06-.208l.686 1.461c-.149.09-.328.329-.447.627-.18.418-.15.805.03.865.179.06.477-.239.626-.656.03-.06.06-.15.06-.21l.687 1.463c-.15.09-.329.328-.448.626-.18.418-.15.806.03.865.179.06.477-.238.627-.656.03-.06.06-.149.06-.209l.686 1.462c-.15.09-.329.328-.448.627-.18.417-.15.805.03.865.179.06.478-.239.627-.656.03-.06.06-.15.06-.21l.686 1.463c-.15.09-.328.328-.448.626-.179.418-.149.806.03.865.18.06.478-.238.627-.656.03-.06.06-.15.06-.209l.686 1.462c-.149.09-.328.328-.448.626-.179.418-.149.806.03.866.18.06.478-.239.627-.657.03-.06.06-.149.06-.209l.328.746c.12.239.21.478.358.746-.149.09-.298.328-.388.686-.09.478.03.925.24.955.208.03.387-.328.477-.805.03-.09.03-.15.03-.24l.238.359c.09.12.18.209.27.328.178.209.387.418.566.627-.12.149-.179.447-.149.745.03.24.12.448.209.627.12.15.239.239.328.209.21-.03.269-.448.18-.895 0-.09-.03-.15-.03-.239.149.12.298.209.447.328l.24.15.238.119c.12.06.269.03.328-.12.09-.089.03-.238-.06-.298zM30.657 25.18l-2.03.955c.03-.06.06-.12.09-.209.149-.418.119-.835-.06-.925-.18-.06-.448.209-.597.656-.09.299-.12.597-.06.746l-1.463.687c.03-.06.06-.12.09-.21.15-.417.12-.835-.06-.924-.179-.06-.448.209-.597.656-.09.298-.12.597-.06.746l-1.462.686c.03-.06.06-.12.09-.209.149-.417.119-.835-.06-.925-.18-.06-.448.21-.597.657-.09.298-.12.597-.06.746l-1.463.686c.03-.06.06-.12.09-.209.149-.418.12-.835-.06-.925-.179-.06-.448.209-.597.657-.09.298-.12.596-.06.745l-1.462.687c.03-.06.06-.12.09-.21.148-.417.119-.835-.06-.924-.18-.06-.448.209-.598.656-.09.299-.119.597-.06.746-.477.239-.984.477-1.462.686.03-.06.06-.119.09-.209.149-.417.12-.835-.06-.924-.09-.03-.209.03-.299.149-.09.09-.179.268-.238.477-.09.298-.15.567-.09.746-.239.06-.507.15-.746.209l-.388.06c-.12 0-.269.03-.388.03l.149-.15c.269-.358.298-.776.18-.895-.12-.12-.389.06-.658.418-.179.238-.328.477-.328.656-.507 0-1.045-.09-1.552-.209.06-.03.12-.06.179-.119.358-.269.537-.627.448-.776-.09-.179-.388-.06-.747.18-.238.148-.447.357-.537.536l-.478-.209c-.119-.06-.238 0-.298.12s-.03.268.09.328c.268.12.537.239.835.328l.418.12.418.089c0 .179.06.477.299.716.149.179.328.328.507.418.18.06.328.06.388 0 .15-.15-.03-.507-.328-.866-.06-.06-.12-.119-.15-.179l.21.03h.626c.269-.03.568-.03.836-.06.06.18.21.388.508.568.09.06.209.119.328.149.09.03.209.06.298.06.18 0 .329-.03.389-.12.119-.179-.18-.477-.597-.716-.06-.03-.15-.06-.21-.09.538-.149 1.075-.358 1.553-.566.09.149.328.328.627.447.418.18.806.15.865-.03.06-.179-.238-.477-.656-.626-.06-.03-.15-.06-.21-.06l1.463-.686c.09.15.329.328.627.447.418.18.806.15.866-.03.06-.178-.239-.477-.657-.626-.06-.03-.15-.06-.209-.06l1.463-.686c.09.15.328.328.627.448.418.179.806.149.865-.03.06-.18-.238-.477-.656-.627-.06-.03-.15-.06-.21-.06l1.463-.685c.09.149.329.328.627.447.418.18.806.15.866-.03.06-.179-.239-.477-.657-.626-.06-.03-.149-.06-.209-.06l1.463-.686c.09.149.328.328.627.447.418.18.806.15.866-.03.06-.178-.24-.477-.657-.626-.06-.03-.15-.06-.21-.06l1.464-.686c.09.15.328.328.626.448.418.179.806.149.866-.03.06-.18-.239-.478-.657-.627-.06-.03-.149-.06-.209-.06l.986-.447c.119-.06.149-.209.119-.328-.09-.209-.239-.239-.358-.209z" transform="translate(0 3) translate(4.776 15.812)"/>
        </g>
        <g fill="#84E06E">
            <path d="M17.313 6.116c-.149-.328-.298-.686-.477-1.014-.09-.18-.18-.358-.269-.508l-.328-.477c.06.03.15.03.209.06.448.09.895.03.925-.18.03-.208-.328-.506-.836-.566-.328-.06-.627 0-.746.12-.209-.21-.388-.418-.597-.597-.209-.18-.418-.358-.657-.508.06 0 .15 0 .24-.03.447-.06.835-.238.805-.447-.03-.09-.12-.209-.298-.239-.18-.06-.418-.06-.657 0-.328.06-.567.24-.687.388l-.358-.209-.388-.149c-.269-.12-.537-.179-.806-.268.06-.03.15-.06.209-.09.418-.209.716-.507.627-.716-.06-.09-.21-.12-.388-.12-.18 0-.418.06-.627.21-.299.179-.478.388-.508.567-.268-.03-.567-.06-.835-.09h-.628l-.208.03c.06-.06.12-.09.15-.18.327-.327.507-.715.357-.864-.09-.06-.238-.09-.388 0-.179.09-.358.209-.507.388-.21.238-.329.537-.299.716l-.418.089c-.149.03-.268.09-.418.12-.119.03-.268.059-.388.119l-.388.149c.03-.06.06-.12.09-.209.179-.447.239-.835.03-.925-.18-.09-.567.239-.717.657-.09.298-.12.596-.06.745l-1.462.687c.03-.06.06-.12.09-.21.149-.417.119-.835-.06-.924-.18-.06-.448.209-.597.656-.09.299-.12.597-.06.746l-1.463.686c.03-.06.06-.12.09-.209.15-.417.12-.835-.06-.924-.179-.06-.448.208-.597.656-.09.298-.12.597-.06.746l-1.462.686c.03-.06.06-.12.09-.209.149-.418.119-.835-.06-.925-.18-.06-.448.21-.597.657-.09.298-.12.596-.06.745l-.507.24c-.12.059-.15.208-.12.327.03.12.21.18.299.12l1.552-.716c.09.149.328.328.627.447.418.18.806.15.865-.03.06-.179-.238-.477-.656-.626-.06-.03-.15-.06-.21-.06l1.463-.686c.09.15.329.328.627.447.418.18.806.15.866-.03.06-.178-.239-.477-.657-.626-.06-.03-.149-.06-.209-.06l1.463-.686c.09.15.328.328.627.448.418.179.806.149.865-.03.06-.18-.238-.477-.656-.627-.06-.03-.15-.06-.21-.06l.747-.327c.239-.12.478-.21.717-.299.09.18.268.358.537.537.358.239.657.358.746.18.09-.15-.09-.508-.448-.776-.06-.06-.12-.09-.179-.12.269-.03.508-.12.776-.12.269-.029.508-.059.776-.029.03.18.15.448.329.656.12.18.239.329.358.388.12.06.209.09.269.03.06-.06.09-.179.06-.358s-.09-.358-.21-.537c-.03-.06-.09-.12-.149-.179.12.03.269.03.388.06l.388.09c.269.03.508.148.747.208-.03.18 0 .448.09.746.059.209.148.358.208.477.09.12.15.15.239.12.179-.06.269-.448.15-.895-.03-.06-.03-.15-.06-.21.238.12.477.24.686.359.209.149.448.268.627.447-.09.15-.15.418-.15.716-.03.448.06.746.24.716.179 0 .417-.358.417-.775v-.21l.269.27c.09.089.18.208.239.298.179.208.298.417.448.626-.15.12-.27.358-.389.627-.09.209-.119.388-.119.507 0 .149.06.268.15.298.178.06.477-.238.626-.656.03-.06.06-.15.06-.209.179.298.298.656.478.985.06.119.208.149.328.119.09-.12.15-.269.09-.388zM24.507 24.822c.15-.746.18-1.551.09-2.297.06.06.09.09.18.149.357.298.745.448.895.298.119-.179-.03-.596-.448-.895-.269-.208-.537-.268-.717-.268-.06-.269-.149-.537-.238-.806-.12-.268-.21-.537-.329-.775.06.03.12.06.21.09.417.148.835.178.925 0 .03-.09-.03-.24-.15-.359-.119-.12-.298-.209-.507-.268-.299-.09-.597-.12-.746-.06l-.687-1.462c.06.03.12.06.209.09.418.149.836.119.925-.06.06-.18-.209-.448-.656-.597-.299-.09-.597-.12-.747-.06l-.686-1.461c.06.03.12.06.209.09.418.148.836.119.925-.06.06-.18-.209-.448-.657-.597-.298-.09-.597-.12-.746-.06l-.686-1.462c.06.03.119.06.209.09.417.149.835.12.925-.06.06-.179-.209-.447-.657-.597-.298-.09-.597-.119-.746-.06l-.687-1.461c.06.03.12.06.21.09.417.149.835.119.925-.06.06-.18-.21-.448-.657-.597-.298-.09-.597-.12-.746-.06l-.687-1.462c.06.03.12.06.21.09.417.15.835.12.925-.06.06-.179-.21-.447-.657-.596-.299-.09-.597-.12-.746-.06l-.687-1.462c.06.03.12.06.209.09.418.149.836.119.925-.06.06-.18-.209-.448-.656-.597-.299-.09-.597-.12-.747-.06l-.239-.507c-.06-.119-.208-.149-.328-.119-.12.06-.179.209-.12.298l.717 1.552c-.15.09-.328.328-.448.626-.179.418-.149.806.03.865.18.06.478-.238.627-.656.03-.06.06-.15.06-.209l.686 1.462c-.149.09-.328.328-.447.627-.18.417-.15.805.03.865.179.06.477-.239.626-.656.03-.06.06-.15.06-.21l.687 1.463c-.15.09-.329.328-.448.626-.18.418-.15.806.03.865.179.06.477-.238.627-.656.03-.06.06-.15.06-.209l.686 1.462c-.15.09-.329.328-.448.626-.179.418-.15.806.03.866.179.06.478-.239.627-.657.03-.06.06-.149.06-.209l.686 1.462c-.15.09-.328.329-.448.627-.179.418-.149.805.03.865.18.06.478-.239.627-.656.03-.06.06-.15.06-.21l.686 1.463c-.149.09-.328.328-.447.626-.18.418-.15.806.03.865.178.06.477-.238.626-.656.03-.06.06-.15.06-.209l.328.746c.12.239.24.477.329.746-.15.09-.359.298-.478.567-.239.358-.298.686-.15.746.15.09.538-.12.747-.478l.09-.179.119.388c.03.12.06.269.06.388.06.269.06.507.09.776-.18.03-.419.179-.657.358-.18.149-.299.268-.359.388-.09.119-.09.208-.03.268.12.12.508.06.896-.209.06-.06.12-.09.15-.149 0 .18-.03.358-.03.507l-.03.269-.06.268c-.03.12.06.239.179.269.15-.03.269-.09.298-.239zM8.15 35.682l2.03-.955c-.03.06-.06.12-.09.209-.15.418-.12.835.06.925.178.06.447-.21.596-.657.09-.298.12-.596.06-.745l1.463-.687c-.03.06-.06.12-.09.21-.15.417-.12.835.06.924.179.06.448-.209.597-.656.09-.299.12-.597.06-.746l1.462-.686c-.03.06-.06.119-.09.209-.149.417-.119.835.06.924.18.06.448-.208.597-.656.09-.298.12-.597.06-.746l1.463-.686c-.03.06-.06.12-.09.209-.149.418-.12.835.06.925.179.06.448-.21.597-.657.09-.298.12-.596.06-.746l1.462-.686c-.03.06-.06.12-.09.21-.148.417-.119.834.06.924.18.06.448-.209.597-.656.09-.299.12-.597.06-.746.478-.239.985-.448 1.463-.686-.03.06-.06.149-.09.208-.149.418-.12.836.06.925.09.03.209-.03.299-.149.119-.149.238-.328.328-.567.12-.298.09-.596 0-.775.239-.15.477-.299.686-.478l.329-.268.298-.299v.24c0 .476.09.864.329.864.209 0 .418-.417.418-.895 0-.328-.12-.596-.24-.746.359-.417.628-.924.896-1.402.03.06.03.15.06.209.15.448.388.806.597.716.209-.06.269-.537.09-.985-.12-.328-.299-.537-.478-.596l.18-.537c.029-.12-.06-.269-.18-.299-.12-.03-.239.03-.299.15-.09.268-.149.537-.268.775l-.15.388-.208.358c-.18-.09-.448-.09-.747-.06-.209.03-.388.06-.507.15-.12.06-.18.119-.18.209.03.179.419.328.866.298.06 0 .15-.03.21-.03l-.12.15-.12.148-.238.299c-.18.179-.358.388-.567.537-.15-.12-.388-.239-.687-.299-.09-.03-.209-.03-.298-.03h-.24c-.149.03-.208.06-.238.15-.03.179.269.447.716.567.06.03.15.03.21.03-.419.298-.866.536-1.374.775-.09-.15-.328-.328-.627-.447-.418-.18-.806-.15-.865.03-.06.178.238.477.656.626.06.03.15.06.21.06l-1.463.686c-.09-.15-.329-.328-.627-.448-.418-.179-.806-.149-.866.03-.06.18.239.477.657.627.06.03.149.06.209.06l-1.463.685c-.09-.149-.328-.328-.627-.447-.418-.179-.806-.15-.865.03-.06.179.238.477.656.626.06.03.15.06.21.06l-1.464.686c-.09-.149-.328-.328-.626-.447-.418-.18-.806-.15-.866.03-.06.178.239.477.657.626.06.03.149.06.209.06l-1.463.686c-.09-.15-.328-.328-.627-.448-.418-.179-.806-.149-.866.03-.06.18.24.478.657.627.06.03.15.06.21.06l-1.464.686c-.09-.15-.328-.329-.626-.448-.418-.179-.806-.15-.866.03-.06.179.239.477.657.626.06.03.149.06.209.06l-.986.448c-.119.06-.149.208-.119.328.12.179.239.238.358.179z" transform="translate(0 3) translate(28.955 5.072)"/>
        </g>
        <g fill="#84E06E">
            <path d="M8.955 2.506c.03-.09.06-.239.09-.388.03-.179.03-.477-.09-.626-.06-.06-.12-.09-.179-.09-.09-.03-.239.03-.328.299-.03.06-.03.09-.06.179-.03-.06-.09-.12-.12-.18s-.059-.089-.119-.119c-.06-.09-.12-.149-.209-.238.03-.06.03-.12.03-.24 0-.118-.03-.238-.06-.387-.06-.12-.09-.268-.149-.358-.12-.239-.298-.239-.388-.209-.09.03-.209.12-.209.388 0 .06.03.15.03.209-.18-.12-.388-.209-.597-.298-.12-.06-.239 0-.298.119-.06.12 0 .239.119.298.358.15.686.358.955.597-.239.03-.507.09-.507.328 0 .298.388.358.716.328.15 0 .299-.03.388-.06H8c.12.21.269.388.358.627.09.18.15.328.21.507-.09-.06-.21-.09-.3-.12-.238-.059-.358.03-.417.12-.12.239.179.478.448.627.119.06.238.12.358.149.03 0 .03 0 .06.03.03.328 0 .686-.06 1.014-.12-.239-.329-.507-.567-.388-.27.12-.15.507-.03.776.09.179.179.328.298.448-.09.208-.209.387-.328.566-.06.09-.06.239.06.329.06.06.149.06.238.03.03-.03.06-.03.09-.06l.179-.269c.18.03.388-.06.567-.12.299-.118.627-.357.478-.626-.09-.238-.418-.179-.687-.06.06-.208.12-.387.18-.626.03 0 .059-.03.059-.03.03 0 .03-.03.03-.03.09-.06.209-.119.298-.208.12-.09.21-.18.299-.269.179-.209.12-.358.06-.447-.06-.09-.18-.15-.448-.06-.09.03-.18.09-.269.15-.03-.478-.12-.985-.298-1.433 0-.03.06-.09.09-.179zM4.746 7.906c-.209-.03-.447-.06-.656-.09 0-.149-.06-.328-.12-.507-.12-.298-.358-.626-.627-.477-.239.09-.179.418-.06.686-.298-.149-.567-.358-.805-.596 0-.03.03-.03.03-.03.06-.09.089-.239.119-.388.06-.328.09-.716-.21-.746-.089-.03-.238 0-.357.239-.03.09-.09.209-.09.328-.09-.15-.209-.328-.269-.477-.09-.21-.179-.448-.238-.687 0 0 .03 0 .03-.03.09-.06.208-.179.298-.268.209-.239.418-.567.209-.746-.09-.06-.209-.12-.448.03-.06.03-.12.09-.179.15 0-.389.06-.777.18-1.135.03-.119-.03-.238-.15-.298-.12-.03-.239.03-.299.15-.06.208-.119.447-.149.656C.776 3.46.567 3.282.388 3.4c-.09.06-.179.18-.09.418.03.09.09.238.18.358s.179.238.238.298c.09.06.15.09.21.12.03.089.03.208.03.298 0 .06 0 .12.03.179.029.06.029.12.059.209-.06-.03-.09-.06-.15-.06-.238-.09-.358-.03-.447.06-.09.09-.09.238.09.447.059.09.178.18.298.269.12.09.239.149.358.179.09.03.18.06.209.03.239.447.537.835.925 1.163-.298.09-.567.209-.507.477.06.299.448.24.776.18.12-.03.239-.06.358-.12.03-.03.06-.03.09-.06.179.09.358.21.567.269-.239.12-.508.328-.388.567.12.268.507.149.776.03.18-.09.388-.21.478-.358.09.03.209.03.328.03.03 0 .09 0 .12-.03.06-.03.119-.09.119-.18-.09-.149-.18-.268-.299-.268z" transform="translate(0 3) translate(19.104 10.442)"/>
        </g>
        <g fill="#84E06E">
            <path d="M1.493 2.357c-.299.12-.657-.09-.836-.507-.21-.418-.12-.865.149-.985s.657.09.836.507c.209.448.149.895-.15.985zM2.746 1.79c-.298.12-.656-.09-.836-.507-.179-.418-.119-.865.15-.985.298-.119.656.09.836.508.179.417.119.865-.15.984zM1.194 3.58c-.09.03-.209.06-.298.03-.15-.03-.299-.12-.448-.239-.15-.12-.239-.268-.269-.388-.06-.179-.03-.328.06-.447.09-.09.239-.15.418-.12.149.03.298.12.447.24.12.119.24.268.27.387.059.18.029.328-.06.448-.03.06-.06.09-.12.09zM3.88 2.327c-.06.03-.089.03-.119.03-.12 0-.298-.09-.358-.239-.09-.12-.12-.298-.12-.477 0-.18.03-.358.09-.477.09-.15.21-.24.358-.24.12 0 .299.09.359.24.09.119.119.298.119.477s-.03.358-.09.477c-.06.09-.149.18-.238.21zM2.567 4.952c-.12.06-.268.09-.388.06s-.269-.12-.358-.239c-.06-.089-.12-.208-.18-.358-.059-.179-.059-.358-.059-.537.03-.268.09-.537.209-.805.06-.12.15-.269.239-.358.06-.09.15-.18.269-.239h.06c.178-.09.447-.06.596-.03.21.03.388.06.538.15.328.119.626.358.806.656.09.12.149.239.179.388.03.179 0 .328-.09.447-.09.12-.209.21-.388.239-.12.03-.269.03-.388.03l-.328-.03h-.06c0 .03-.03.03-.03.03-.06.09-.12.179-.18.298-.059.09-.178.209-.327.298-.06-.03-.09 0-.12 0z" transform="translate(0 3) translate(21.791 12.232)"/>
        </g>
        <g fill="#84E06E">
            <path d="M6.09.179L1.164 2.476C.27 2.894-.09 3.938.3 4.833l2.298 4.923c.418.895 1.463 1.253 2.358.865l4.926-2.297c.895-.418 1.253-1.462.865-2.357L8.448 1.044C8.03.15 6.985-.239 6.09.18zm2.955 5.609c-.15.03-.269.06-.388.09-.03-.06-.06-.09-.09-.15.03-.03.06-.03.09-.03.09-.03.149-.03.239-.06.03 0 .03-.03.06-.059l.089.209zm-.299.239c.12-.06.269-.03.329-.21l.119.27h-.06c-.09.029-.149.029-.238.059-.09.03-.12.03-.15-.06.03.03 0-.03 0-.06zM7.552 2.625c-.06.03-.09.03-.149.03-.03 0-.09 0-.09-.03-.149-.119-.209-.298-.238-.477.09-.03.149-.06.238-.12l.24.597zm-.448-.954l.12.238c-.06 0-.12.03-.18.03-.268.06-.417.09-.507-.268 0-.03-.03-.06-.06-.09l.18-.09c.209-.059.388.03.447.18zm-1.194.835c-.358.03-.358.06-.537-.268-.03-.03-.03-.06-.06-.06l.956-.448v.06l.09.269c0 .06 0 .149-.03.179-.09.119-.21.238-.419.268zm.657.477c0 .03-.03.06-.03.09-.06.06-.12.12-.179.15-.09.029-.209.029-.268 0-.12-.09-.24-.33-.24-.478.15-.06.3-.15.449-.21.06-.029.09-.029.119.03.12.09.15.27.15.418zm-.716.388c-.06.03-.12.06-.21.09-.089-.21-.178-.388-.268-.597-.03-.03.06-.15.12-.179.06-.03.09.03.119.09.03.208.15.417.239.596zm.746-1.044c-.03-.03.03-.12.03-.179.15 0 .179.03.239.15.06.178.149.327.238.506-.06.03-.149.09-.268.12-.03-.239-.09-.418-.239-.597zM1.791 3.82l.627-.299c0 .03 0 .03.03.06.06.15.149.298.239.418-.03.03-.09.06-.12.09-.239.148-.418.387-.537.626-.03.06-.06.149-.06.209l-.328-.716c-.06-.15 0-.329.149-.388zm.478 1.76c.06-.03.06-.06.06-.12-.03-.119-.06-.208-.06-.328-.06-.328.06-.775.477-.954.03.06.06.149.09.209.09.208.209.417.179.656 0 .268-.03.537-.15.806-.059.179-.149.358-.238.537l-.358-.806zm7.164 1.104c-.03 0-.06-.03-.09 0-.06.03-.149.06-.209.09-.298.149-.597.298-.895.417-.18.09-.388.18-.597.239-.239.09-.418 0-.538-.21-.238-.447-.447-.894-.656-1.342-.09-.149-.03-.268.12-.358.328-.179.686-.358 1.014-.567v.03c.239-.119.448-.209.687-.328.03-.03.06-.03.09-.06s.03-.06.03-.089c0-.03-.06-.06-.09-.06s-.09 0-.12.03c-.15.06-.269.12-.418.18-.477.208-.955.417-1.403.715-.209.15-.268.299-.179.537.15.478.388.925.657 1.373.209.358.448.447.806.298.537-.209 1.074-.448 1.582-.686.06-.03.12-.06.15-.12 0 0 .029-.03.029-.06 0 .09-.06.21-.18.24L4.897 8.98c.09-.209.149-.388.119-.626 0-.06 0-.12.06-.15.09-.06.179-.119.268-.208.09-.09.15-.21.15-.358 0-.06-.03-.15-.12-.12-.09 0-.15.06-.12.15.03.208-.089.357-.298.417-.03-.06-.09-.12-.12-.179.09-.06.18-.15.27-.209.089-.06.119-.149.06-.268-.06-.12-.18-.15-.3-.12-.149.06-.328.12-.477.21-.12.059-.209.148-.269.238-.03.06-.03.15 0 .209.03.06.12.06.18.09h.238c.12 0 .18.03.21.178-.18.06-.359.18-.538-.03-.03-.03-.06-.03-.09-.03-.03.03-.09.06-.09.09 0 .06.03.12.06.15.12.089.3.089.448.059.09-.03.18-.06.299-.09-.03.15-.03.269-.06.418-.03.09-.06.209-.09.298l-.328.15c-.149.06-.328 0-.418-.15l-.179-.387c.03 0 .03 0 .06-.03.06-.03.09-.09.06-.15-.06-.119-.09-.268-.12-.387-.06-.21 0-.418.18-.537.358-.239.775-.418 1.193-.537.18-.03.299 0 .388.179.09.12.15.268.24.388.059.09.119.09.178.06.09-.03.09-.09.06-.18-.09-.179-.209-.328-.328-.477-.12-.15-.269-.209-.448-.15-.15.03-.299.09-.418.12-.03-.06-.03-.09-.03-.09.12-.06.269-.119.388-.178.21-.15.239-.21.15-.448-.03-.06-.06-.15-.09-.209-.03-.09-.09-.179-.15-.268-.03-.06-.089-.09-.178-.06-.09.03-.09.09-.06.179 0 .03.03.06.03.09-.03 0-.06.03-.09.03-.09.03-.179.059-.239.089-.03.03-.06.09-.06.12.03 0 .09.029.12.029s.06-.03.09-.03c.09-.03.209-.06.298-.12 0 .03.03.03.03.06v.06c-.239.12-.478.209-.746.06.03-.06.06-.09.09-.15.03-.03 0-.089.03-.148-.06 0-.12 0-.15.03-.06.03-.09.119-.12.178-.03.09-.09.12-.209.12h-.268c-.03 0-.06.06-.09.09.03.029.06.059.12.059.09 0 .179 0 .238.03-.06.119-.09.268-.149.328-.09.12-.239.179-.388.239-.03-.06-.03-.09-.06-.12.09-.06.18-.12.27-.209.029-.03.089-.119.059-.149-.06-.06-.12 0-.15.03-.06.06-.149.09-.208.15-.03-.03-.03-.06-.03-.09l-.12-.12c-.03.06-.09.09-.12.15v.089c.09.179.15.328.24.477.09.15.179.18.328.12.15-.06.269-.12.388-.21h.15l-.09.09c-.12.09-.239.15-.358.269-.09.09-.18.209-.18.328v.12l-.716-1.552h.03c.09-.06.18-.15.209-.239.209-.358.298-.716.328-1.133v-.18c.03 0 .03.03.06.03.358.299.776.478 1.224.597.09.03.239-.03.239-.09 0-.119-.09-.119-.18-.149-.268-.089-.507-.179-.776-.298-.477-.209-.656-.656-.895-1.074.328-.12.657-.179.925.09.12.119.21.268.329.387.06.06.09.12.179.09.12-.03.149-.12.09-.239-.12-.238-.359-.388-.568-.507-.179-.12-.388-.15-.597-.09-.15.03-.269.06-.418.12-.06-.15-.149-.298-.209-.448 0 0 0-.03-.03-.03l2.448-1.133v.09c0 .06.03.089.06.119.06.12.03.209-.03.298l-.12.12c-.06.06-.149.119-.208.178-.03.03-.03.09-.03.12.03 0 .09.03.12 0 .089-.03.148-.09.238-.12.09.18.15.358.239.537-.09.06-.18.09-.239.15-.03.03-.03.09-.06.149.06 0 .09.03.15 0 .268-.12.507-.239.746-.358.12-.06.298-.09.358-.239h.03c.06 0 .12-.03.179-.03.328-.149.687-.328 1.015-.477 0 0 .03 0 .03-.03L8.925 5.43h-.06c-.089 0-.178.03-.238.06-.12.03-.18 0-.21-.12.12-.03.21-.06.3-.09.03 0 .06-.059.089-.089-.03-.03-.06-.06-.12-.06-.089 0-.149.03-.238.03 0-.268-.09-.358-.329-.238-.06.03-.119.03-.149-.03 0-.03-.06-.03-.12-.03-.119 0-.149.09-.089.239l-.12.119c-.03.03-.059.09-.089.12-.09.119 0 .268.15.298h.119c-.06.358.15.656.298.954.06.12.18.239.27.329.059.089.148.06.208 0 .09-.06.03-.12 0-.18-.06-.06-.09-.119-.15-.178.03-.03.06-.03.09-.03.21-.06.418-.15.597-.21.06-.029.09-.029.15-.059l.149.328v.09zM4.657 7.846c-.09.03-.21.03-.329.03 0-.03-.03-.12 0-.12.18-.089.359-.178.568-.268 0 0 .03.03.09.03-.03.06-.03.09-.06.12-.09.09-.15.179-.27.208zm-.418-.745c.03-.06.09-.09.15-.06.089.03.148.03.238.06l-.537.268c.06-.09.119-.179.149-.268zM4 6.802c.09-.209.09-.209.328-.179-.119.209-.119.209-.328.18zm.418.03c.03-.06.06-.15.09-.209 0-.03.06-.06.06-.06.148.06.298-.06.417-.089h.06c.06.09 0 .15-.06.179-.06.03-.12.03-.209.06-.09.03-.15.06-.09.179-.089 0-.179-.03-.268-.06zm-.478.418c-.06-.09-.12-.06-.209 0-.06.03-.12.09-.179.09-.03 0-.09 0-.12-.03v-.03c.06-.03.12-.06.15-.12.06-.06.12-.12.15-.179.03-.06.059-.09.149-.06.06.03.119.03.179.06-.03.12-.06.18-.12.269zm4.448-1.313c-.209.12-.269.12-.298-.06.209-.119.238-.119.298.06zm-.358-.209C8 5.638 8 5.55 8.09 5.52c.03 0 .09.06.149.12-.09.03-.15.06-.21.09zm.537.597c-.06.03-.09.03-.12.06s-.089.03-.148.06c-.03-.06-.09-.15-.12-.21.328-.149.299-.179.388.09zM8 5.37c-.09.03-.18.12-.239 0-.06-.09.06-.12.12-.179l.179-.09c.03 0 .06.03.09.03 0 .03 0 .09-.03.09 0 .09-.06.12-.12.15z" transform="translate(0 3) translate(39.104 22.376)"/>
            <path d="M6.925 3.312c-.149.06-.328.119-.507.208-.12.06-.269.15-.388.24-.15.118-.21.238-.15.417.06.149.12.268.21.388.119.208.238.238.477.179.239-.09.508-.18.717-.329.358-.208.417-.417.238-.775-.03-.03-.03-.06-.06-.12-.149-.238-.298-.298-.537-.208zm.269.924c-.18.12-.388.21-.597.269-.15.06-.269-.03-.328-.179.328-.15.686-.328 1.015-.477.06.179.03.298-.09.387zm.03-.566c-.358.179-.717.328-1.075.507-.09-.15-.09-.269.06-.358.239-.12.478-.239.716-.328.15-.06.24.03.299.179zM7.493 6.355c-.09-.21-.15-.418-.27-.627-.089-.149-.238-.209-.417-.238-.06 0-.09.06-.15.089.03.03.06.09.09.09.18.06.299.208.358.387.06.21.15.418.24.657.089.149.178.298.298.447.03.06.149.06.209.09.03 0 .09-.03.09-.09 0-.03-.03-.06-.06-.09-.15-.208-.299-.447-.388-.715zM7.761 6.176c0-.03-.09-.09-.12-.09-.03.03-.089.09-.089.12 0 .089.03.179.06.268.12.15.239.328.358.477.03.03.09.06.12.06.06 0 .119-.03.149-.06 0 0 0-.09-.03-.119-.209-.179-.358-.418-.448-.656zM7.403 7.011c-.09-.15-.15-.328-.209-.477-.03-.03-.06-.09-.09-.09-.06.03-.09.06-.119.12v.06c.03.148.06.268.09.387.06.09.119.18.149.239.06.09.15.09.269.06.06-.03.09-.06.03-.12-.03-.06-.09-.12-.12-.179zM7.403 5.967c.15.03.269-.09.209-.239-.03-.06-.06-.12-.09-.209-.09-.149-.149-.179-.298-.149-.03 0-.06.03-.09.06.03.03.03.06.06.09.12.089.18.238.209.447z" transform="translate(0 3) translate(39.104 22.376)"/>
            <path d="M6.776 6.385c.06-.03.12-.03.15-.06.149-.18.089-.388-.09-.537-.09-.09-.21-.06-.269.09.239.119.239.149.21.387-.03.03-.03.09 0 .12z" transform="translate(0 3) translate(39.104 22.376)"/>
        </g>
        <path fill="#AFAFAF" d="M31.343 18.945l-8.597 3.998c-.239.119-.537 0-.656-.24-.12-.238 0-.536.238-.655l8.597-3.998c.24-.12.538 0 .657.238.12.24 0 .537-.239.657zM34.18 28.104l-7.404 3.46c-.239.12-.537 0-.657-.238-.119-.239 0-.537.24-.656l7.402-3.461c.239-.12.538 0 .657.239.12.238 0 .566-.239.656zM35.91 27.298l-.06.03c-.238.12-.537 0-.656-.238-.12-.24 0-.538.239-.657l.06-.03c.238-.119.537 0 .656.239.12.239 0 .537-.239.656zM38.776 18.975L18.03 28.64c-.239.12-.537 0-.657-.239-.12-.238 0-.537.239-.656l20.746-9.666c.239-.12.538 0 .657.238.12.239 0 .567-.239.657zM37.343 23.151l-15.224 7.1c-.238.12-.537 0-.656-.238-.12-.238 0-.537.238-.656l15.224-7.1c.24-.12.538 0 .657.238.12.239 0 .537-.239.656z" transform="translate(0 3)"/>
        <g fill="#AFAFAF">
            <path d="M2.12 8.115c0 .03-.03.03 0 0zM2.09 8.264c.03 0 0-.03 0-.03v.03zM2.09 8.234l.03-.03c-.03-.03-.03 0-.03.03zM1.97 8.652v-.03.03zM1.97 8.592s0 .03 0 0c.03 0 .03 0 0 0 .03-.03.03-.06.03-.09l-.03.09zM2.12 8.085s0-.03 0 0z" transform="translate(0 3) translate(18.507 32.52)"/>
            <path d="M2.09 8.145v-.09-.06.03c-.03.03-.03.06 0 .12 0 .03-.03.09-.03.12 0 .029-.03.089-.03.118 0 0-.03 0 0 0l.03-.03v-.03c0-.03 0-.03.03-.059 0-.03.03-.06 0-.12.03 0 .03-.03.06-.059v-.03c0-.06.03-.12 0-.179 0 .03.03.03 0 .06v.03l.03-.03c0-.03-.03-.03 0-.06-.03-.03 0-.09-.03-.12v-.029s0 .03.03.03c0 .03 0 .03.029.03v-.06-.03-.03h-.03l.03.03h-.03v-.06-.03c0-.03-.03-.059-.03-.059v-.03l-.06-.06v-.03c-.03 0-.03-.03-.06-.03 0 0 0-.029-.029 0-.03-.029-.06-.029-.06-.059 0-.03-.03-.03-.06-.03 0-.03-.03-.03-.06-.03 0 .03 0 .03-.029 0-.03-.03-.06-.03-.09-.03h-.298c-.03 0-.06.03-.06.03l-.179.09v.03h-.03c-.03.03-.06.03-.06.03v.03h-.03c-.03.03-.059.03-.089.06-.06.059-.12.089-.179.148-.03.03-.03.06-.06.06 0 .03-.03.03-.06.06 0 .03-.03.03-.03.06-.029.03-.059.089-.089.149h-.03c0 .03-.03.06-.06.09-.03.059-.03.089-.03.148V8.593c0 .03.03.03 0 .059l.03.03c-.03 0-.03-.03-.03-.03 0 .03 0 .03.03.06.03 0 .03 0 .03.03v.03c-.03 0-.03 0-.03-.03l.03.03c0 .03.03.059.03.089v.03c0 .03.03.03.03.06s.03.03.03.059v.03s0-.03.03-.03v-.03.03s.03 0 .03-.03v-.06c-.03 0-.03-.03-.03-.06v-.059h-.03v-.03-.06c-.03 0 0-.03 0-.03s0-.03-.03-.03v-.208-.03-.06-.089-.06-.03l.03-.03c0-.03.03-.059.03-.089v-.03-.03c.03-.03.03-.089.09-.149 0-.03.03-.03.03-.06s.03-.03.03-.059c.03-.03.059-.06.089-.12l.03-.03.06-.059c.03 0 .06-.03.06-.06l.059-.06V7.37l.03-.03s0-.03-.03 0v.03h-.03s.03 0 .03-.03c0 0 .03-.03.06-.03l-.03.03h.03l.03-.03c0-.03.03-.03.03-.03.029 0 .029-.03.059-.03-.03 0-.06.03-.06.03l.06-.03s.03 0 0 0l.06-.03.03-.029v-.03h.03l-.03.03h.03l.059-.03c.03 0 .06-.03.09-.03h.03s.03.03.03 0h.03c.089 0 .178 0 .238.03.03.03.09.03.12.06l.03.03.089.09c.03.03.06.089.06.119s.03.03.03.06v.03c.03.059.03.148.03.208v.269c0 .03-.03.06 0 .06-.03.029 0 .059-.03.059 0 .03-.03.09-.03.12v.029h-.03v.03c0 .03-.03.06-.03.09v.03c-.03.029-.03.059-.06.089v.06l.03-.03.03-.03v-.03l.03-.03v.09h-.03c-.03 0-.03.03-.03.03h.03v.089c0-.03.03-.03.03-.06l.06-.15c.03-.118.059-.208.119-.327-.21.09-.21.06-.18 0zm-.03-.478s0 .03 0 0c0 .03-.03.03 0 0l-.03-.03s.03 0 .03.03zm-.15-.208c.03.03.06.06.06.09H2c0 .029.03.059.03.059L2 7.548c-.06-.03-.09-.06-.09-.09-.03 0 0 0 0 0zm-1.313.358c0 .03 0 .03 0 0l-.03.03.03-.03c-.03.03 0 .03 0 0zm.06-.06c-.03.03-.03.06-.03.06 0-.03 0-.03.03-.06 0-.03 0-.03 0 0 .03-.03 0 0 0 0zm.09-.09c-.03 0-.03 0 0 0l-.06.06c0-.03 0-.03.06-.06-.03 0 0 0 0 0 0-.03.03-.03.03-.03 0 .03-.03.03-.03.03zm.119-.119l-.03.03h-.03v.03h-.03v.03h-.03.03v-.03h.03v-.03l.06-.03c-.03 0-.03 0 0 0zm.149-.09l-.03.03c0-.03 0-.06.03-.03 0-.03 0-.03 0 0 0-.03 0 0 0 0zM2.12 7.757c0 .03 0 .03 0 0z" transform="translate(0 3) translate(18.507 32.52)"/>
            <path d="M1.851 8.712L1.851 8.712 1.851 8.741 1.881 8.712zM2.12 7.876v-.03c-.03 0-.03.03 0 .03zM2.12 8.055c0-.03 0-.03 0 0 0-.03 0-.03 0 0zM1.88 8.83c.03 0 .03 0 0 0 .03-.029.03-.059.06-.059v-.03l-.03.03c0 .03-.03.03-.03.06z" transform="translate(0 3) translate(18.507 32.52)"/>
            <path d="M2.12 8.025c.03-.03 0-.06.03-.09v-.059h-.06s.03.03 0 .03v.03c0 .06.03.06.03.09zM1.731 8.89s0 .03 0 0c0 .03 0 .03 0 0 0 0 0 .03 0 0zM1.892 8.89s0 .03 0 0 0-.03.033-.06v-.059s-.033 0-.033.03c0 0 0 .03-.033.03 0 .03 0 .03.033.06-.033 0-.033 0-.067.03 0 .03 0 .03-.033.03v.03h.033v.029c-.033 0-.033.03-.033.03l-.033.03h-.034v.03c-.033.03-.033.06-.066.06h-.034c0 .029-.033.029-.033.059 0 0 0 .03-.033.03 0 .03 0 .03-.034.03-.033.03-.066.06-.066.089h-.034v.03H1.36v-.03h.033c.033-.03.067-.06.067-.09 0 0 .033 0 .033-.03 0 0 0-.03.033-.03 0 0 0-.029.034-.029 0-.03.033-.03.033-.06s0-.03.033-.06c0-.03.034-.03.067-.06 0-.029.033-.059.033-.089 0 0 0-.03.034-.03h-.034c0 .03-.033.03-.033.06s-.033.06-.067.06c-.033.06-.1.12-.133.15 0 .029-.033.029-.067.059-.033.03-.066.09-.1.12-.033.029-.066.059-.1.059-.033.03-.033.03-.066.03.033-.03.033-.03.066-.03v-.03c-.033 0-.033 0-.066.03h-.034v-.03-.09-.149-.09-.089-.12c0-.029 0-.059-.033-.089v-.03-.089-.09-.03-.059-.03c0-.03-.033-.06-.1-.03s-.067.03-.033.06c0 .06.033.09.033.15 0 .059.033.089.033.148v.09c0 .03 0 .09.034.15v.179c.033.059 0 .118.033.178v.18h-.067-.033.033-.1l.1.029c.034 0 .034 0 .067.06v.746l-.033-.09c0 .06 0 .09-.034.15 0 .029.034.029.067.059l.033.03c.034 0 .067.03.1.03 0 0 .034 0 .034-.03v-.06-.06-.09-.029-.15-.059-.09-.119-.09-.089-.119-.06h.033l.1-.06c.033-.03.1-.03.133-.059l.1-.09.034-.03c.033 0 .033-.03.033-.03V9.19c.033-.03.033-.03.033-.06.034-.03.034-.03.034-.06 0 0-.034 0-.034.03 0 0 0 .03-.033.03.033-.03.033-.03.033-.06v.03c.034 0 .034 0 .034-.03v-.03s0-.03.033-.03V8.98h.033s0-.03.034-.03l.033-.06h-.1v-.03-.03.03h.033l.067.03c.033.03.033 0 0 0zm-.767.717v.745s-.033-.03 0-.03v-.03-.298-.119-.06-.06-.059c-.033-.03-.033-.06 0-.09-.033 0 0 0 0 0 0-.03 0 0 0 0zm0-.12c0 .03 0 .03 0 0-.033.03-.033.03 0 0l-.033-.09v-.059c0-.03 0-.06-.033-.09V9.19v-.12.15c0 .03 0 .06.033.09.033.059.033.119.033.178zm.1.09c.034-.03.034-.03.067-.03h.033c-.033 0-.066.03-.1.03zm.1-.12c.034 0 .034-.03.034-.03 0-.03 0-.03.033-.03 0 0-.033 0-.033.03.033.03 0 .03-.034.03zm.167-.03l-.067.03c0 .03-.033.03-.033.03s.033 0 .033-.03c.034-.03.034-.03.067-.03 0-.03 0 0 0 0z" transform="translate(0 3) translate(18.507 32.52)"/>
            <path d="M1.82 8.89c.03 0 .03-.03.03-.03-.03 0-.03 0-.03.03zM1.85 8.86s.03 0 0 0c.03 0 .03 0 0 0 .03 0 0 0 0 0zM1.761 8.83s.03 0 0 0zM1.85 8.95c0-.03 0-.03 0 0 0-.03 0-.03 0 0 0-.03 0-.03 0 0-.03-.03-.03-.03 0 0zM1.791 9.01v-.03.03zM.269 8.503c0 .03 0 .03 0 0 0 .03 0 0 0 0zM.299 8.682c-.03 0-.03 0 0 0-.03 0-.03 0 0 0zM.269 8.652c.03 0 0 0 0 0zM1.701 9.04L1.731 9.07 1.731 9.04zM1.731 9.1c.03 0 .06-.03.09-.09l-.06.03c0 .03-.03.03-.03.06zM1.761 8.92L1.791 8.92 1.791 8.92zM1.731 8.98c-.03 0-.03 0 0 0zM1.82 8.83c0 .03 0 .03 0 0zM.269 8.354s.03 0 0 0c.03 0 .03 0 0 0zM2.09 8.294s0 .03 0 0zM2.09 8.324c-.03 0-.03 0 0 0-.03 0-.03.03 0 .03h.03c-.03 0-.03 0-.03-.03 0 .03 0 .03 0 0zM1.85 7.399c.03 0 .03-.03 0 0zM.358 8.085c0 .03 0 .03 0 0zM.388 8.055s-.03 0 0 0zM.358 8.085s.03 0 0 0zM3.403 8.204c.03-.03.03-.09.06-.119 0 0 0-.03.03-.03v-.03c.03-.03.03-.06.06-.09.03-.029.03-.059.059-.118 0-.03.03-.06 0-.06.03 0 .03-.03.03-.06.03-.03.03-.06.06-.06l.03-.03c.059-.089.119-.178.149-.268l.09-.179c.029-.06.059-.12.089-.209.03-.06.06-.119.09-.208l.03-.12c0-.03.029-.06.029-.12.03-.059.03-.118.06-.148 0-.03.03-.03.03-.06s.03.03.03-.388v-.03-.03c-.06-.03-.12-.06-.18-.03s-.12.06-.12.12c0 .03-.029.03-.029.06s0 .03-.03.03-.03.03-.03.06c-.03.059-.03.089-.06.148-.06.15-.089.18-.06.21v.029h-.029c-.03.03-.03.06-.03.12v0c-.03.03-.03.059-.03.089v.03c-.03 0-.03.03-.03.06v-.03l.03-.03v.03c0-.03.03-.03.03-.06v-.03.12c0 .03-.03.03-.03.03v-.06s0 .03-.03.03v-.03c-.03.03-.03.06-.03.089h-.03c0 .03-.03.06-.03.09v.03l.03-.03v.03l.03-.03v.03s.03-.03 0-.06c.03-.03.03-.06.06-.09s0-.06 0-.09v-.089c-.03 0-.03 0-.03.03v-.03s0-.03.03-.03v-.03h.06c.09-.178.03-.119.18-.447.029-.03.029-.09.059-.12v-.03c0-.029.03-.059.03-.059h.03c.03.03.06.03.06.06 0 .209-.06.388-.12.567-.03.06-.06.149-.09.209s-.06.149-.09.208c-.03.06-.059.12-.089.15 0 .03-.03.03-.03.06-.03.03-.03.059-.06.089 0 .03-.03.06-.03.06 0 .03-.03.03-.059.03v.059c-.03 0 0 .03-.03.03v-.03c-.03.03-.03.03-.03.06-.03.03 0 .03-.03.06h-.03c0 .03 0 .059-.059.089 0 0 0 .03 0 0 0 0 0 .03.03.03-.03 0-.06 0-.09.06l-.03.03c-.06.118-.119.178-.179.268l-.179.268c-.03.03-.06.06-.12.09l-.029-.03v-.269c0-.03 0-.06.03-.09v-.03c0-.029-.03-.029-.06-.029h-.03s-.03 0 0 0c-.03 0-.03.03-.06.06l-.208.388c-.06.09-.12.179-.15.298 0 .03-.03.03-.03.06h-.03v-.06-.15-.119-.149-.09h-.03c-.029 0-.059 0-.059.03-.03.12-.06.24-.06.359v.179c0 .06.06.09.12.119.03 0 .06 0 .09-.03.06-.06.089-.09.119-.15 0-.029 0-.059.03-.059.03-.06.06-.12.09-.149l.089-.179v.06c0 .03 0 .06.03.09v.03c.03.029.03.059.09.059h.029c.06.03.09.03.12 0 .03 0 .03-.03.03-.03.089-.06.119-.12.178-.209.03-.03.03-.06.06-.09.18.06.209.06.209.03zm.388-1.282c-.03-.03-.03-.03 0-.06v.06zm.09-.418c0 .06 0 .06-.03.09v-.06l.03-.03c.03 0 0 0 0 0zm.03-.09l-.03.06v.03-.03c.03-.03.03-.06.03-.06s0-.03 0 0c.03-.03.03-.03 0 0zm-.418 1.552c0 .03 0 .03-.03.06 0-.06 0-.06.03-.06zm-.18.179c0 .03 0 .03-.03.06 0-.03.03-.06.03-.06zM3.493 8.294c-.03 0-.03 0 0 .03v-.03z" transform="translate(0 3) translate(18.507 32.52)"/>
            <path d="M3.701 7.04c0 .03-.03.03-.03.06.03-.03.03-.03.03-.06zM3.493 8.234L3.493 8.264zM3.493 8.383c-.03-.03 0 0 0 0zM3.552 8.145c.03 0 .03-.03.03-.03.03-.03.03-.06 0-.09v-.06l-.03.03v.06s.03.03 0 .03v.06zM3.731 7.25s0 .03 0 0c0 .03 0 .03-.03.03v.03s.03 0 .03-.03c.03.03.03 0 0-.03.03 0 .03 0 0 0 0-.03 0 0 0 0zM3.522 8.085v-.03.03zM3.761 7.19c-.03 0-.03 0 0 0-.03.03 0 .03 0 0 0 .03 0 0 0 0zM3.493 8.085c-.03 0-.03.03 0 .06.03-.03.03-.03 0-.06zM3.522 8.204c-.03 0-.03.03 0 .03v-.03z" transform="translate(0 3) translate(18.507 32.52)"/>
            <path d="M3.493 8.204c.03-.03 0-.06 0-.06v.06zM4.209 7.548c-.03 0-.03.03-.03.06l.03-.06v.06h.03c0-.03.03-.03.03-.06h-.06zM4.18 7.638s0-.03 0 0c-.03 0-.03.03-.06.03l.06-.03c-.03 0 0 0 0 0zM3.612 7.876c.03 0 0-.03 0 0 0-.03 0 0 0 0zM3.701 7.13s-.03.03 0 .06v-.06zM3.701 7.19s-.03.03-.03.06v.06c.03-.06.03-.09.03-.12zM3.642 7.28s0-.03 0 0c0-.03 0-.03 0 0zM3.612 7.488c0-.03 0-.03 0 0v-.06c-.03.03-.03.03 0 .06zM3.85 6.653c.03.03.03.03 0 0zM3.791 6.981c0 .03 0 .03 0 0 0 .03 0 .03 0 0zM3.701 7.04v.09h.03v.06l.03-.03v-.03l.03-.03h-.03v-.03s.03 0 0-.03h-.06c.03 0 .03 0 0 0 .03-.029.03-.029.03-.059l-.03.06s.03 0 0 0zM3.672 7.399c.03 0 .03 0 0 0z" transform="translate(0 3) translate(18.507 32.52)"/>
            <path d="M3.672 7.399v-.06-.09s0 .03-.03.03v-.03c-.03 0 0 .03 0 .06v.06l.03.03c-.03 0-.03 0-.03-.03l-.03-.03s-.03.03 0 .06v.09s0-.03.03-.03c0-.03.03-.03.03-.06zM6.866 6.683c-.03 0-.03 0 0 0zM6.597 6.981c-.03 0-.03.03-.03.03.03 0 .03-.03.03-.03zM6.896 6.564c-.03 0-.06.06-.06.089.03-.03.06-.06.06-.09zM6.537 7.07c.03 0 .03-.03.03-.03-.03-.029-.03 0-.03.03zM6.925 6.593c.03 0 .03 0 0 0z" transform="translate(0 3) translate(18.507 32.52)"/>
            <path d="M6.836 6.653c.03.03.03.03 0 0 .03.03.06 0 .06 0v-.03c0 .03-.03.03-.06.03zM6.537 7.07c-.03 0-.03.03-.03.03l.03-.03c0 .03 0 .03 0 0zM6.358 7.429s-.03.03 0 .03v-.03z" transform="translate(0 3) translate(18.507 32.52)"/>
            <path d="M6.776 6.683c-.03.03-.03 0 0 0-.03-.06-.03-.12-.03-.15v-.298c0-.03 0-.09.03-.119.03 0 0-.03-.03-.03h-.09c-.03.03-.059.03-.059.06 0 0 0 .03-.03.03l-.09.149-.178.268c-.03.06-.06.09-.09.15 0 .03-.03.03-.06.06v-.09c0-.06 0-.12.03-.18v-.03c0-.029 0-.029-.03-.059-.03-.03-.06 0-.06 0 0 .03-.03.06-.03.06-.03.09-.03.149-.03.239-.029 0-.059 0-.059.03s-.03.059-.06.059l-.06.06c-.059.06-.149.149-.208.238l-.03.03c-.03.03-.03.06-.06.06 0 .03 0 .03-.03 0-.03.06-.06.09-.09.12-.029.03-.059.089-.119.119s-.09.09-.149.119c-.03.03-.06.03-.09.03s-.03 0-.03-.03c0-.09.03-.15.03-.239 0-.03 0-.03.03-.03.03-.03.09-.03.12-.06.03 0 .06-.03.06-.03.09-.059.149-.118.209-.208l.03-.03c.03-.06.03-.09.06-.149 0-.03 0-.09-.03-.12 0 0-.03-.03-.06-.03h-.06c-.03 0-.06 0-.09.06-.03.03-.06.03-.06.06l-.089.09c-.06.09-.12.179-.15.298-.03 0-.03.03-.059.03-.03.03-.03.06-.06.06-.06.09-.119.149-.149.238-.03.06-.06.12-.09.15-.03.06-.03.089-.06.119-.059.09-.089.149-.178.209 0 0-.03.03-.06.03h-.03v-.03c0-.06.03-.09.03-.15v-.119s0-.03.03-.03h.03l.03-.03c0-.06.03-.09.03-.149.03-.06 0-.12-.03-.149 0-.03-.03 0-.03-.03-.03 0-.06.03-.09 0h-.03c-.06.03-.09.06-.119.09-.03.03-.03.06-.06.09s-.06.059-.06.089-.03.06-.03.06c-.03.03-.059.03-.059.089v.03c-.03.03-.06.06-.06.09l-.149.298v.06c0 .03-.03.03-.03.059l-.06.179c0 .03-.03.06-.06.09v-.12-.06c0-.03.03-.03 0-.06v-.149h-.03v.09l-.029.03v.09l-.03-.03h-.03v.09s.03.029 0 .029v.03s.03 0 .03.03v-.06.09s0-.03-.03-.03c-.03.03 0 .03 0 .06 0 .059.03.119.03.178 0 .03 0 .06.03.06.03.03.06.03.09.03 0 0 .03 0 .03-.03.03-.03.03-.06.03-.09s.03-.06.03-.09c.029-.089.089-.178.119-.297 0-.06.03-.12.06-.15.059-.09.089-.179.149-.298v-.03h-.03c0-.03 0-.03.03-.03v-.03c.03-.03.06-.06.09-.119v-.03h-.03c-.03 0-.06.03-.06.06v-.03s0 .03-.03.03v.03s-.03 0-.03.03c-.03.03-.06.06-.06.12v.029c-.03 0-.03.06-.06.06-.03.03-.03.06-.06.119-.03.09-.059.179-.119.268 0 0 0 .03-.03.03 0-.03.03-.09.03-.12.03-.089.09-.178.12-.268.03-.06.06-.09.06-.149.03-.06.06-.09.089-.12.06-.059.09-.148.15-.208.03-.03.059-.06.059-.09h.03c-.03.03-.03.03-.03.06 0 0-.03.03 0 .03h.03v.03h.03c0 .03-.03.06 0 .06v.09c0 .089-.03.208-.06.297v.03c0 .06.09.12.12.09.089-.03.178-.09.238-.18.03-.03.03-.059.06-.059.03-.03.06-.09.09-.15l.089-.178c.03-.06.03-.09.09-.12 0 0 0-.03.03-.03 0-.03.03-.03.03-.059v.09c0 .06.03.06.059.119.03.03.06.06.09.06h.089c.06 0 .12 0 .15-.06 0-.03.03-.03.03-.03.089-.06.148-.12.208-.209.03-.06.09-.12.15-.149.03-.06.089-.09.149-.15l.03-.029c.06-.06.119-.12.149-.179l.06-.06c0 .03.03.06.06.09.029.03.089.03.148 0 .06-.06.09-.12.15-.18.06-.118.149-.208.209-.327h.03v.03c0 .149 0 .268.03.417 0 .03 0 .06-.03.06l-.03.03h.03v.06s-.03 0-.03.03c0 .029-.03.029-.03.059l-.03.03c0 .03-.03.06-.03.06 0 .03 0 .06-.03.06v.029c0 .03 0 .06-.03.06v.03-.03s-.03 0 0 0c-.03.03-.03.06-.03.09h.03c0 .029 0 .029-.03.029v.03l-.03-.03v.03c-.03.09-.06.149-.06.238 0 .06-.029.09 0 .15-.029.06 0 .09.03.119l.06.06c.06.03.09.06.15.03.06 0 .09-.06.09-.09.03-.03.03-.09.03-.12 0 0 0-.03.029-.03v-.059c0-.03 0-.03.03-.06-.03-.03.03-.03 0-.06v-.03-.119-.089-.06c.03-.03 0-.06 0-.09V7.16c0-.03.03-.06 0-.09.03-.059 0-.089 0-.148 0-.03.03-.03 0-.06 0-.06 0-.09.03-.15v-.03s.03 0 .03-.029c0 0 .03 0 .03-.03h-.06c0-.03 0-.03.03-.03 0-.03 0-.03.03-.03 0-.03 0-.03.03-.03-.15.12-.15.15-.18.15 0 0 0 .03 0 0zm-1.552.268c.03-.06.09-.09.15-.119.029 0 .029-.03.029-.03s0-.03.03-.03.03 0 .03.03v.03c0 .03 0 .09-.03.12-.03.059-.09.119-.15.178-.03.03-.06.06-.06.09-.029.03-.059.03-.059.06 0 0-.03 0-.03.03 0 0-.03.03-.03 0v-.03h.03v-.03l.03-.06c0-.12.03-.179.06-.239zm1.433.508c.03.03 0 .06 0 .06v.149c-.03 0-.03 0-.03.03 0 0 0 .03.03.03h.03v.029h-.03s0 .03-.03.03v.06h.03v.03c-.03 0-.03.03-.03.059 0 .03-.03.06-.06.09h-.03c0-.03 0-.03.03-.06s.03-.09.06-.15c.03-.089.06-.208.06-.298v-.03c-.06 0-.03-.03-.03-.03 0-.03.03-.03 0 0zm0-.09c.03.03.03.03 0 .03v-.06.03zm-.03-.239V7.46c-.03.03-.03.03 0 .06 0 0 0 .03-.03.059 0 .12-.06.268-.12.388l-.089.09h-.03s-.03 0-.03-.03c0-.06-.03-.09 0-.15v-.03c0-.06 0-.09.03-.149v-.06c0-.06.03-.089.03-.149.03-.06.06-.119.09-.208 0-.03.03-.06.03-.09l.03-.06c0-.03.03-.03.03-.06h.029c.03.03.03.03.03.06z" transform="translate(0 3) translate(18.507 32.52)"/>
            <path d="M6.478 7.16c.03 0 .03-.03 0 0 0-.03 0-.03 0 0zM7.254 6.235l-.03.03c-.06.06-.15.12-.21.18v.029s.03 0 .03-.03c.03-.06.09-.09.15-.12 0-.029.03-.029.06-.029 0 0 .03 0 .03.03.03 0 .06-.03.06-.06 0 0 .03 0 .03-.03.029-.03.059-.06.089-.06s.06-.03.09-.059c-.03 0-.06.03-.09.03-.09 0-.15.03-.21.09zM6.478 7.19v-.03s-.03 0 0 .03zM6.448 7.19c0 .03-.03.06-.03.06h.03v-.06zM6.836 6.713c-.03 0-.03 0 0 0zM6.955 6.593c.03 0 .03 0 0-.03-.03 0-.03 0 0 .03z" transform="translate(0 3) translate(18.507 32.52)"/>
            <path d="M6.925 6.564l.03-.03c.03-.03.03-.06.06-.06-.06 0-.09.03-.09.09zM7.224 6.325c.03 0 .03 0 .03-.03l-.03.03zM8.507 4.386c0 .03 0 0 0 0zM8.418 4.684c0 .03 0 .03 0 0 0 .03 0 0 0 0zM9.85 4.714c-.03 0-.03.03 0 0 0 .03 0 .03 0 0zM8.388 4.773c0 .03 0 .03 0 0 .03 0 0 0 0 0zM9.88 4.684c-.03 0-.03.03-.03.06 0-.03 0-.03.03-.06zM8.627 4.147c0 .03 0 0 0 0zM8.776 3.938c-.03 0-.03 0 0 0-.03 0-.03 0 0 0-.03.03-.03.03 0 0-.03 0-.03 0 0 0zM8.388 4.803s.03 0 0 0zM8.358 5.161c-.03 0-.03 0 0 0 0 .03 0 .03 0 0 0 .03 0 0 0 0zM8.358 5.131c-.03 0 0 .03 0 0 0 .03 0 0 0 0zM8.328 5.31c0-.03 0 0 0 0 .03 0 .03 0 0 0zM8.328 5.25s.03 0 0 0zM8.388 4.952c-.03 0-.03 0 0 0-.03 0-.03 0 0 0-.03 0-.03 0 0 0-.03 0 0 0 0 0zM9.701 5.042s0-.03 0 0zM9.522 5.46c0 .03 0 .03 0 0zM9.403 5.788c0-.03 0-.03 0 0zM9.761 4.863s0 .03 0 0c0 .03.03.03 0 0 .03 0 .03 0 0 0zM9.164 4.505c0-.03 0-.03 0 0-.03-.03 0-.03 0 0zM9.194 5.042v-.09s-.03 0-.03.03l.03.06c-.03-.06-.03-.03 0 0-.03.03-.03.06-.03.06v.03c-.03 0-.03.03 0 .03 0 0 0-.03.03-.06 0 0-.03-.03 0-.06zM9.104 5.28c0-.03-.03-.03 0 0l-.03.06v.03c.03-.03.03-.06.03-.09zM9.104 5.191s0 .03 0 0c0 .03-.03.03 0 .06v-.06zM9.164 5.191c-.03 0-.03 0 0 0 0 0 0 .03 0 0z" transform="translate(0 3) translate(18.507 32.52)"/>
            <path d="M9.134 4.535v.03c0 .03 0 .06-.03.09V4.653c.06-.03.06-.09.03-.12.03-.029.03-.029 0-.029v.03zM9.134 4.982s0-.03 0 0c0-.03.03-.06.03-.06-.03 0-.03.03-.03.06z" transform="translate(0 3) translate(18.507 32.52)"/>
            <path d="M9.217 4.803c-.1.1-.1.2 0 .3h.1v-.2l-.1-.1v.1-.1zM8.866 3.789c.03 0 .03 0 0 0 .03 0 0 0 0 0zM9.254 4.505c.03 0 .03-.03 0 0v-.06.06c0-.03 0 0 0 0zM9.194 4.624c.03 0 .03 0 0 0 .03 0 .03 0 .03-.03l-.03.03v-.03h.03v-.03h-.03v-.03.09zM9.254 4.594v-.03.03zM9.194 4.415s0 .03 0 0z" transform="translate(0 3) translate(18.507 32.52)"/>
            <path d="M9.234 4.784l-.1.3s0-.1.1-.1v.1h.2s0-.1.1-.1v-.1s.1-.1 0-.2c-.2.1-.2.1-.3.1.1.1.1.1 0 0 .1.1.1.1 0 0l.1.1v.1c-.1-.1 0-.1-.1-.2.1 0 .1 0 0 0zM9.672 5.25s0-.029 0 0zM9.552 5.43s-.03 0 0 0zM9.701 5.31c-.03 0 0 0 0 0l-.03.03c0 .03 0 .03-.03.06v.03c0-.03.03-.03.03-.06s.03-.03.03-.06zM9.045 5.102v.06s.03-.03 0-.03c.03-.03.03-.03 0-.03.03-.06.03-.06.03-.09v.06l-.03.03zM9.104 4.863v-.06-.06s-.03.03-.03.06v.03l.03.03c0-.03 0 0 0 0-.03.06-.03.06-.03.09v.06c.03-.06.03-.09.03-.15.03 0 0 0 0 0zM9.701 5.28s-.03 0 0 0zM9.672 5.28s.03 0 0 0zM9.194 4.654c-.03-.03-.03 0 0 0zM9.224 4.714s.03-.03 0 0c0-.03 0-.06-.03-.06l.03.06c-.03-.06-.03-.06 0 0 0-.03 0-.03 0 0z" transform="translate(0 3) translate(18.507 32.52)"/>
            <path d="M9.194 4.863s0 .03 0 0c.03 0 .03-.03.03-.03l-.03.03c0-.03 0 0 0 0zM9.493 5.55c0-.03 0-.03 0 0 0-.03 0-.03 0 0zM9.642 5.4c.03.03.03.03 0 0zM9.761 5.131s-.03 0 0 0zM9.701 5.25s.03.03 0 0c.03-.029.03-.059.03-.089 0 0 0 .03-.03.03v.06zM9.134 4.982c-.03 0-.03.03-.03.03l.03-.03c.03 0 0 0 0 0z" transform="translate(0 3) translate(18.507 32.52)"/>
            <path d="M9.134 5.102v-.06-.06c-.03.09-.03.12 0 .12-.03.03-.03.06-.03.06.03 0 .03-.03.03-.06zM9.791 5.072c-.03 0-.03 0 0 0zM9.761 5.131c0 .03 0 .03 0 0zM9.164 4.684s.03-.03 0-.03v.03zM9.791 5.012s.03 0 0 0zM9.82 4.952c0 .03.03 0 0 0 .03-.03.03-.03 0 0zM8.657 4.087l.03-.03-.03.03zM9.493 5.55c0 .029 0 .029 0 0 0 .029 0 .029 0 0zM9.493 5.609c0-.03 0-.03 0 0-.03-.03-.03-.03 0 0zM8.687 4.057c0-.03 0-.03 0 0zM9.075 5.55c0 .029 0 .029 0 0zM9.194 4.923c.03-.03 0-.03 0 0zM8.483 5.012v-.06-.06c0-.059.03-.119.062-.178v-.03c.03-.06.03-.15.061-.209 0-.03.031-.06.031-.06.03-.06.03-.119.092-.179 0 0 0-.03.031-.03l.031-.03c0-.029.03-.059.062-.089.03-.03.03-.06.061-.09v-.029l.031-.03.031-.03c.03-.06.062-.09.093-.119.03-.03.061-.06.092-.06.03-.03.03-.03.062-.03h.03c.031.03.031.06.031.09v.12c0 .089-.03.178-.03.238v.09l-.031.208v.03-.179c0-.06.03-.09.03-.149v-.03.06c0 .06 0 .09-.03.149v.15h.03v-.06h-.03v-.03h.03l.031-.03v.03-.09-.06h.031v-.119-.03-.03-.06-.268c0-.03-.03-.09-.03-.12 0-.029-.032-.029-.062-.059-.031-.03-.031-.03-.062-.03h-.03c-.032 0-.062.03-.093.03s-.031.03-.062.03h-.03c-.032.03-.062.06-.093.06 0 0-.031 0-.031.03s-.03.06-.062.09c0 .029 0 .029-.03.029 0 .03 0 .03-.031.03 0 .03-.031.03-.031.06v.06l-.031.029c0 .03 0 .03-.03.06 0 0 0 .03-.032.03l-.03.06c0 .029-.031.029 0 .059h-.031v.06h-.031v.03h-.03v.059s-.032.03 0 .03v.03l-.063.208v.03c0 .06-.03.12-.03.15s0 .06-.031.06v.238c0 .03-.031.09 0 .12v.149c0 .03 0 0 0 0 0 .059 0 .119.03.178 0 .03.031.06.062.06s.031.03.062.03h.062v-.03s-.031 0-.031-.03-.031-.03-.031-.06v-.03c0-.03 0-.059-.03-.089 0-.03 0-.06-.032-.06v-.119-.209c0-.03 0-.06.031-.09.03.15 0 .12.03.12zm.77-.626v.03-.03c0-.03 0-.03 0 0zm-.462-.358c0-.03 0-.03.03-.03 0-.03 0-.03.032-.03v.03h-.031c-.03 0-.03.03-.03.03s-.032.03 0 0c-.032 0-.032 0 0 0zm-.092.149c.03 0 .03 0 0 0 .03 0 .03 0 0 0 0 .03 0 .03 0 0-.031.03-.031 0 0 0zM9.373 5.848c.03 0 .03-.03.03-.03-.03 0-.03.03-.03.03zM9.313 6.056c0-.03 0 0 0 0zM9.463 5.669s.03-.03.03-.06c-.06.03-.06.03-.03.06zM9.791 4.803c.03 0 .03 0 0 0l.03-.03s-.03 0-.03.03zM9.642 5.161c0 .03 0 0 0 0zM9.701 5.072L9.701 5.072 9.672 5.072zM9.582 5.31s0-.03.03-.03c0-.03 0-.03-.03.03 0-.03 0-.03 0 0zM9.701 5.072c-.03 0 0 0 0 0zM8.836 3.849s-.03 0 0 0c-.03 0-.03 0 0 0zM9.731 5.012c0-.03 0-.03 0 0-.03-.03-.03 0 0 0zM12.448 3.222c.03 0 .03 0 0 0h.06l.06-.06c0-.03 0-.03-.03-.06 0-.03-.03-.03-.06-.03h-.03c-.03 0-.06.03-.09.06.03.06.06.12.09.09z" transform="translate(0 3) translate(18.507 32.52)"/>
            <path d="M13.224 3.58s.03-.03 0 0c.03-.06.03-.06.06-.09l.03-.03c0-.03.03-.03.03-.03v.03s.03-.059.03-.148c-.03-.03 0-.06-.03-.06s-.06.06-.09.09-.03.06-.06.089c-.03.03-.06.06-.06.12 0 .03-.03.03-.03.059-.03.06-.06.12-.119.15-.06.059-.09.118-.15.178-.029.03-.059.06-.059.09l-.09.09-.089.089c-.03.03-.06.03-.09.03-.03-.03-.03-.06-.03-.09v-.09c0-.06 0-.149.03-.238 0-.06.03-.09.03-.15 0-.03.03-.06.06-.089v-.03c-.03 0-.06-.03-.09-.03s-.06.03-.09.06c0 .03-.029.09-.029.12v.03c-.03.059-.09.089-.12.119l-.149.149c-.06.03-.09.12-.149.149-.03.03-.06.09-.12.12-.03.059-.089.089-.119.148-.06.06-.12.09-.179.15-.03.03-.06.03-.06 0v-.06c0-.06-.03-.12-.03-.15-.03-.059-.03-.148-.059-.208 0 0 0-.03-.03-.03-.03-.03-.06-.03-.09-.03h-.03c-.03 0-.059.03-.059.06l-.06.06c-.03.03-.03.06-.06.09-.03.059-.06.089-.089.118-.03.03-.06.06-.09.12-.06.06-.089.12-.119.209l-.09.179v-.03-.239-.149c-.03-.03-.06-.03-.089-.03-.03 0-.03.03-.03.06s0 .03-.03.06v.06l-.06.148v.03l-.06.09c-.029.06-.059.09-.118.119-.03.03-.06.03-.09.03s-.03 0-.03-.03-.03-.03-.03-.06h-.03v-.06-.03-.059-.06-.149-.09s0-.029-.03-.029h-.06-.059-.03v.03c0 .03 0 .06-.03.09v.03h.03v.029l-.06.15c-.03.029-.03.059-.06.059 0 .06-.029.09-.059.149v.06l-.03.03c0 .03 0 .03-.03.06-.03.029-.03.059-.03.089l-.03.06h-.03v-.03c0 .03-.029.03-.029.06 0 0 0-.03.03-.03v.03l-.03.089-.09.238v.03c0 .03-.03.09-.06.12h-.029v.03c0 .03-.03.089-.03.119h.03v-.03-.03.03c0 .03 0 .03-.03.06v.06l-.03.029c-.03.06-.06.09-.09.12l-.03.03v-.03c-.029 0 0-.03 0-.03v-.06-.09-.119-.06-.06-.089c0-.03 0-.06.03-.09V5.52c0-.06 0-.149.03-.209v-.089-.06s-.03 0-.03.03v.03c-.03 0-.03.03-.03.03v.06c0 .03 0 .03-.029.03v-.03.566-.179-.119-.09V5.4c0-.06 0-.12.03-.179v-.12s-.03 0-.03.03V6.116c.03.03.03.09.06.12s.06.03.06.03h.089c.03 0 .06-.03.06-.06l.06-.06v-.03c.03-.03.03-.03.03-.06s.03-.06.03-.09v-.029c0-.03 0-.03.029-.06.03-.03.03-.06.06-.119 0-.03 0-.03.03-.06v-.03-.03l.06-.178s.029 0 .029-.03.03-.03.03-.06.03-.03.03-.06h-.03v.06c-.03.03-.03.06-.03.09 0 0 0 .03-.03.03 0 .03 0 .03-.03.06l-.03.029s0 .03-.03.03v.09l-.03.03v.029c-.03 0-.03.03-.059.06 0 .03 0 .03-.03.06 0-.03 0-.03.03-.06 0 0 0-.03.03-.03 0 0 0-.03.03-.03 0-.03 0-.06.03-.06v-.03l.03-.03.03-.089v-.06c0-.03 0-.03.03-.06 0-.029 0-.029.029-.059 0 0 0-.03.03-.03l.03-.09v-.029c0-.03.03-.03.03-.06l.03-.03c0-.03 0-.06.03-.06v-.029h.03c0-.03 0-.06.029-.09l.03-.03v-.03c0-.029.03-.059.03-.089v-.03s0 .03 0 0v-.03.12c.03 0 .03.03.03.06l.06.06c.03.03.059.03.089.03.06.029.09 0 .15 0h.029c.03 0 .03-.03.06-.03 0 0 0-.03.03-.06s.03-.06.06-.09l.089-.179v-.06s0-.03.03-.06c.03-.029.03-.059 0-.089l-.03-.03c.03-.03.03-.03.03-.06.03.12.03.24 0 .329v.239c0 .06.03.09.09.119h.029v-.03c.03-.03.06-.09.06-.149 0-.03 0-.03.03-.06.03-.09.09-.209.149-.298 0-.03.03-.06.06-.06.03-.06.06-.09.089-.149.03-.03.03-.06.06-.09l.149-.149c0-.03 0-.03.03 0 0 .03.03.06.03.06v.09c0 .09.06.179.09.268 0 .03.03.03.03.03.029 0 .059.03.059.03h.06c.06 0 .089-.03.119-.06l.09-.09.179-.178.238-.239v-.03-.03c.03 0 .03-.03.06-.03l.06-.06v.15c0 .03.03.09.03.15.03.059.06.089.09.118.029.03.059.03.089.06h.03c.09 0 .149-.06.209-.09l.09-.089c.059-.06.118-.149.148-.209.03-.03.06-.09.09-.119.03-.03.03-.09.09-.12 0-.03.06-.089.06-.119h-.03c-.15.06-.15.03-.12.03zM9.044 5.67c0-.03 0-.06.03-.09v-.09-.06c.03 0 .03 0 0 .03v.12c0 .03 0 .03-.03.09.03-.03.03-.03 0 0 .03 0 .03 0 0 0zm0 .03v.059h-.03c.03-.03.03-.03.03-.06zm0 .178v-.09c.03 0 .03.03.03.03-.03 0-.03.03-.03.06 0 0-.03 0 0 0zm-.03.269c-.029 0-.029-.03 0 0l-.029-.18c0 .03 0 .03.03.06v.12zm.36-.12c0 .03-.03.06-.03.06 0 .03-.03.06-.03.06l-.03.03s-.03 0-.03.03c0 0 0-.03.03-.03 0-.03.03-.03.03-.06h.03c0-.03 0-.03.03-.06v-.03zm1.074-1.193l-.03.06s-.03.03-.06.03c0 0 .03-.03 0-.03.03 0 .06-.03.09-.06zm.06-.209c0 .03-.03.03-.03.06 0 0 0 .03-.03.03 0 .03 0 .03-.03.06 0-.03 0-.03.03-.06v-.03l.03-.09.03-.03v.06zM12 4.177c0 .03-.03.03-.06.06.03-.03.03-.06.06-.06 0 0 0-.03 0 0l.03-.03s0 .03-.03.03zm.299-.299c0 .03-.03.03-.03.06v.03c-.06.03-.12.12-.18.15-.03 0-.03.029-.06.029v-.03l.09-.09.03-.03.03-.029c.03 0 0-.03.03-.03.03-.03.06-.06.09-.06v-.06c.03.03.03.03 0 .06.03 0 .03 0 0 0zm.776-.149s0-.03.03-.03c.03-.06.089-.119.119-.179l.09-.09v.03c-.06.06-.12.15-.15.24-.06 0-.06.03-.09.03zM14 2.566c.03-.03.03-.03.03-.06-.03.03-.03.03-.03.06zM13.791 3.103c0-.03 0-.03 0 0zM13.94 2.685c0-.03 0-.03 0 0z" transform="translate(0 3) translate(18.507 32.52)"/>
            <path d="M14.183 2.745l.12-.18c0-.03.04-.059.04-.059l.12-.179v-.03c-.08-.03-.16 0-.2.03-.04 0 0 .03 0 .06 0 0 .04 0 .04.03 0 0-.04.03-.04.06h.04c0 .03 0 .059-.04.089 0 .03-.04.09-.04.12h-.04v.059c-.04.03-.08.09-.08.149v.03c-.04.03-.04.09-.04.12 0 .029-.04.059-.04.059v.03c0 .06-.04.119-.08.179 0 .03 0 .03-.04.06 0-.03 0-.03.04-.06v-.06s.04-.03 0-.03c0 0-.04 0-.04.03l-.04.09c-.04.119-.12.238-.16.387-.04.03-.04.09-.08.15v-.03c0-.03-.04-.06 0-.12v-.238-.12-.03c-.04-.06 0-.09 0-.149v-.12-.118-.12h-.04c-.08-.03-.12 0-.12.06v1.045c0 .029 0 .059.04.089 0 .03.08.03.08.06.04 0 .04 0 .08-.03.08-.06.12-.12.16-.21 0-.059.04-.089.08-.119 0-.03.04-.06.04-.09s.04-.059.04-.119c0-.03.04-.09.04-.119 0-.03.04-.06.04-.09 0-.089.04-.178.08-.268.04-.03.04-.06.04-.12-.04-.059 0-.119 0-.178zm-.44.775c0 .03 0 0 0 0 0-.03 0-.06.04-.06 0 .03 0 .06-.04.06zm.08-.119c0 .03-.04.06-.04.09 0-.06 0-.09.04-.09 0-.03 0-.03 0 0z" transform="translate(0 3) translate(18.507 32.52)"/>
            <path d="M13.761 3.162c0-.03.03-.03.03-.06 0 .03-.03.03-.03.06zM16.18 1.97v-.06c-.06.06-.18.298-.24.357v-.09-.059c0-.03 0-.06-.03-.06l-.06-.03c-.059-.03-.119 0-.149.03-.06.06-.09.12-.149.18-.09.119-.179.238-.239.387v-.149-.149s0-.03-.03-.03h-.06c-.029 0-.089.03-.059.06v.15h-.03c0 .029-.03.059-.06.059l-.06.06c-.059.06-.148.149-.208.238l-.03.03c-.03.03-.03.06-.06.06 0 .03 0 .03-.03 0-.03.06-.06.09-.089.119-.03.03-.06.09-.12.12s-.089.089-.149.119c-.03.03-.06.03-.09.03-.029 0-.029 0-.029-.03 0-.09.03-.15.03-.24 0-.029 0-.029.03-.029.03-.03.09-.03.12-.06.029 0 .059-.03.059-.03.09-.06.149-.119.209-.208l.03-.03c.03-.06.03-.09.06-.15 0-.03 0-.089-.03-.119 0 0-.03-.03-.06-.03h-.06c-.03 0-.06 0-.09.06-.03.03-.06.03-.06.06l-.089.09c-.06.089-.12.178-.149.298-.06.09-.09.209-.09.328v.03c0 .06.03.06.06.12.03.029.06.059.09.059h.09c.059 0 .119 0 .148-.06 0-.03.03-.03.03-.03.09-.06.15-.12.21-.209.03-.06.089-.119.149-.149.03-.06.09-.09.149-.149l.03-.03c.03-.06.09-.09.149-.149v.18c0 .118 0 .208-.03.297v.06c0 .03 0 .03.03.06.03 0 .03.03.06.03h.03c.03 0 .03 0 .03-.03s.03-.06.03-.09c0-.06.029-.149.059-.209 0-.06.03-.09.03-.149 0-.03.03-.03.03-.06s.03-.03.03-.06c.06-.118.149-.238.208-.387.03-.03.03-.06.06-.06h.03c0 .06.03.09.09.12l.03.03H16c.06-.03.09-.06.12-.12-.09-.06.03-.268.06-.328zm-1.911.984l.03-.09c.03-.06.06-.12.119-.209.03-.06.09-.09.15-.12.029 0 .029-.029.029-.029s0-.03.03-.03.03 0 .03.03v.03c0 .03 0 .09-.03.12-.03.059-.09.119-.15.178-.03.03-.06.06-.06.09-.029.03-.059.03-.059.06-.03-.03-.06 0-.09-.03.03.03 0 .03 0 .03v-.03zM17.224 1.014c.03 0 .03 0 0 0h.06l.06-.06c0-.03 0-.03-.03-.059 0-.03-.03-.03-.06-.03h-.03c-.03 0-.06.03-.09.06 0 .03.06.09.09.09zM18.806 1.283c-.03 0-.03 0 0 0-.03.03-.03.03 0 0 0 .03 0 .03 0 0zM18.776 1.283c0 .03 0 0 0 0zM18.836 1.014c-.03 0-.03 0 0 0zM18.836 1.134c0-.03-.03-.03 0 0-.03-.03-.03 0 0 0zM18.836.985s0-.03 0 0z" transform="translate(0 3) translate(18.507 32.52)"/>
            <path d="M18.776 1.134c0 .03-.03.03-.03.06v.03s0 .029-.03.029c0 .03 0 .03-.03.06v.06c-.03.03-.03.03-.03.059l-.03.03c0 .03 0 .03-.029.06 0 .03-.03.03-.03.06l-.03.029h-.03s0 .03-.03.03l-.03.03s0 .03-.03.03h-.059-.06v-.03h-.03s-.03-.03 0-.03v-.09-.09-.089c0-.03.03-.03 0-.06v-.059-.03-.06-.119c0-.06 0-.12.03-.149v-.06-.06s0-.03.03-.03l.03-.029c.03 0 .03-.03.06-.03l.03-.03c.03 0 .06-.03.06-.03h.03c0-.03.03-.03.059-.03.03 0 .06-.03.09-.03l.03-.029c.06-.03.089-.03.149-.06 0 0 .03 0 .03-.03h.03c.03-.03.06-.03.119-.06.03 0 .06-.029.09-.029l.03-.03c.119-.06.238-.12.328-.149l.179-.09V.06s0-.03-.03-.03L19.612 0h-.03-.03s-.03 0-.03.03l-.03.03-.03.03c-.03 0-.03.03-.03.03h-.029c-.03 0-.03.03-.06 0-.03.03-.03.03-.06.03s-.06.029-.06.029h-.029l-.03.03c0 .03-.03.03-.06.03-.06.03-.119.06-.149.06l-.03.03h-.03c-.06.029-.089.059-.149.089h-.03l-.03.03c-.03.03-.089.03-.119.06h-.03-.03s0 .029-.03.029c-.03.03-.089.03-.119.06v-.03-.06c0-.03.03-.03.03-.06v-.03c.03-.03.03-.089.03-.119.03-.06.03-.03 0-.09 0 0 0-.029-.03-.029s0-.03 0-.03h-.06-.03s-.03 0-.03.03v.03s0 .03-.03.06c-.029.06-.059.119-.059.179 0 .03 0 .03-.03.06v.059c0 .03-.03.06-.03.09v.059s0 .03-.03.03-.03.03-.06.03H18s0 .03-.03.03c-.03.03-.06.03-.12.06 0 0-.03 0-.03.029-.029.03-.029.03-.059.03l-.03.03c-.03 0-.06.03-.06.03-.03 0-.03 0-.03.03h-.03s0 .03-.029.03c-.03 0-.03.029-.06.029-.03.03-.03.03-.06.03h-.059c0 .03-.03.03-.03.06v.06c0 .029.03.029.03.029h.09l.03-.03c.03 0 .03-.03.06-.03 0 0 .029 0 .029-.03.03-.03.06-.03.06-.03.03 0 .03-.03.06-.03l.03-.029c.029 0 .029-.03.059-.03h.03c0-.03.03-.03.03-.03.03-.03.06-.03.09-.06.029 0 .059-.03.089-.03v.21l-.03.03-.06.06c-.03.029-.03.059-.06.089s-.06.06-.06.119c0 .03-.03.03-.03.06-.029.06-.059.119-.119.149-.06.06-.09.12-.149.179-.03.03-.06.06-.06.09l-.089.089-.09.09c-.03.03-.06.03-.09.03-.029-.03-.029-.06-.029-.09v-.09c0-.06 0-.149.03-.238v-.03-.09c0-.03.03-.06.06-.09v-.03c-.03 0-.06-.029-.09-.029s-.06.03-.09.06c0 .03-.03.09-.03.119 0 .03-.03.09-.03.12-.03.03-.03.03-.059.03v.03c0 .029-.03.029-.03.029l.03-.03c0 .03-.03.03-.03.03s0-.03.03-.03v-.03h-.03c-.06.06-.12.15-.179.21v.029c.03 0 .03-.03.03-.03h.03c0 .03-.03.03-.06.06v-.03l-.03.03c-.06.06-.12.149-.179.238-.03.03-.03.03-.06 0s-.09-.06-.149-.119c-.03-.03-.09-.06-.09-.09-.03-.03-.03-.03 0-.06 0-.029.03-.059.03-.059.03-.03.03-.03.06-.03s.03 0 .03-.06c.06 0 .09 0 .12-.03 0-.029 0-.029-.03-.029-.06-.03-.12-.03-.18 0-.06 0-.089.06-.149.09-.03.03-.06.06-.06.09v.089c.03.03.03.06.09.09.06.029.12.089.18.118.03.03.089.06.119.06s.03.03 0 .03c-.06.09-.09.15-.15.239-.03.03-.06.06-.06.09-.059.059-.089.148-.119.208v.03c0 .06 0 .09.06.12.03.029.06.029.09.029h.119c.06 0 .09 0 .12-.06 0-.03.03-.03.059-.06.03 0 .03-.03.06-.06.03-.059.03-.089.06-.148.03-.06.06-.12.03-.18 0-.059 0-.089-.06-.148-.03-.03-.03-.03-.03-.06v-.06c.03-.03.03-.06.06-.06.03-.03.06-.06.06-.119.029 0 .029-.03.029-.03.03 0 0-.03 0-.03.03-.03.06-.089.09-.119h.03c.03-.03.03-.06.06-.09l.029-.03v.09c0 .03.03.09.03.15.03.06.06.09.09.119.03.03.059.03.089.06h.03c.09 0 .149-.06.209-.09l.09-.09c.059-.06.089-.149.148-.208.03-.03.06-.09.09-.12s.03-.09.09-.119c0-.03.06-.09.06-.12h-.03c0-.03 0-.03.03-.059 0 0 0-.03.03-.03 0-.03 0-.03.029-.06l.03-.03c0-.03.03-.03.03-.03v.27c.03.03.03.089.06.119l.03.03h.059s.03 0 .03.03c0 0 .03 0 .03.03h.12s.029 0 .029-.03c0 0 .03 0 .03-.03l.03-.03.03-.03.06-.06s0-.03.029-.03l.06-.06c0-.03.03-.059.03-.059s0-.03.03-.03c0 0 0-.03.03-.03v-.06-.03-.059c.03-.03.03-.06.03-.06s0 .03-.03.03v-.03s0-.03.03-.03v-.059.06c0-.03 0-.03 0 0zm.15-.836c-.03.03-.06.03-.09.06l-.03.03c.03 0 .03-.03.06-.03.03-.06.06-.06.06-.06zm.119-.06c-.03 0-.03 0 0 0-.03.03-.03.03-.06.03 0 0 0-.03.06-.03-.03 0-.03 0 0 0zm-.687.299c.03 0 .06-.03.09-.03 0 0 .03 0 .03-.03h.03c.03-.03.06-.03.089-.06.03 0 .03 0 .03-.03.03 0 .06-.029.09-.029 0 0 .03 0 .03-.03.059-.03.089-.03.149-.06h.03s.03-.03.03 0h.03c.029-.03.059-.03.118-.06.09-.029.15-.059.24-.118h-.03l-.18.089c-.03 0-.03.03-.06.03h-.03-.03v.03h-.029s0 .03-.03 0c-.03.03-.03.03-.06.03s-.03.03-.06.03c-.029 0-.029 0-.029.03 0 0-.03.029-.03 0h-.03c-.03.029-.06.029-.06.029-.03 0-.03 0-.03.03h-.03c-.029 0-.029 0-.059.03-.03 0-.06.03-.06.03 0 .03-.03.03-.03.03s-.03 0-.03.03c-.03 0-.03 0-.059.029h-.03s-.03 0 0 0zM18 .746s-.03 0 0 0c-.03 0-.03 0 0 0 0 0 0-.03 0 0 .03-.03.03-.03.06-.03l.03-.03h.06c-.09.03-.12.03-.15.06zm-1.284 1.88c0 .03-.03.03-.03.06 0 .059-.06.089-.089.118l-.03.03c-.03.03-.06.03-.09.03h-.06v-.03c0-.06.03-.12.09-.149.06-.06.09-.12.12-.209.03-.06.06-.09.09-.12.03.09.03.18 0 .27zm-.06-.448c0-.03 0-.03.03-.06 0 .06 0 .06-.03.06zm.03-.03c0-.03.03-.06.06-.06 0 .03-.03.03-.06.06zm.18-.179c0 .03 0 .06-.03.06h-.03.03c0 .03 0 .03-.03.03v-.03.03l-.03.03c0-.03.03-.03.03-.06-.03-.03 0-.06.06-.06-.03.03-.06.03-.06.03.03 0 .03 0 .06-.03 0-.03 0-.03 0 0 .03 0 0 0 0 0zm.12-.15h-.06c0-.029 0-.029.03-.059.03.03.03.03.03.06.029-.03 0-.03 0 0zm1.074-.596c-.06.06-.12.15-.15.239-.03.03-.03.06-.06.06 0 0 0-.03.03-.03.03-.06.09-.12.12-.18 0-.059.03-.089.06-.089zm.507.418c-.03 0-.03 0 0 0-.03.03-.03.03 0 0l-.06.03h-.03.03c.03 0 .03 0 .06-.03-.06 0-.06 0 0 0-.03 0-.03-.03 0 0 0-.03 0-.03 0 0 0-.03 0-.03 0 0zm.21-.448c0 .03 0 .03-.03.06-.03 0-.03.03-.03.06s-.03.03-.03.06c0 0 0 .03-.03.03v.029s0 .03-.03.03v.03h-.03v.03s0-.03.03-.03l.03-.03v-.03c0-.03.03-.03.03-.03l.03-.03.03-.03c-.03-.089 0-.119.03-.149zM19.433 1.343s-.03.03 0 0z" transform="translate(0 3) translate(18.507 32.52)"/>
            <path d="M19.967.597c0 .03 0 0 0 0-.035-.06-.035-.12-.035-.15V.15c0-.03 0-.09.035-.12.036 0 0-.029-.035-.029h-.107c-.036.03-.072.03-.072.06 0 0 0 .03-.036.03l-.107.149-.214.268c-.036.06-.071.09-.107.15 0 .03-.036.03-.072.059v-.09c0-.06 0-.119.036-.178v-.03c0-.03 0-.03-.036-.06-.035-.03-.07 0-.07 0 0 .03-.037.06-.037.06-.035.119-.035.209-.035.328 0 .03.035.09.071.12.036.029.107.029.179 0 .071-.06.107-.12.178-.18.072-.12.179-.209.25-.328h.036v.03c0 .149 0 .268.036.418 0 .03 0 .06-.036.06l-.036.029h.036v.06s-.036 0-.036.03-.036.03-.036.06l-.035.029c0 .03-.036.06-.036.06 0 .03 0 .06-.036.06v.03c0 .029 0 .059-.035.059v.03-.03s-.036 0 0 0c-.036.03-.036.06-.036.09h.036c0 .03 0 .03-.036.03v.029l-.036-.03v.03c-.036.09-.071.15-.071.239 0 .06-.036.09 0 .149-.036.06 0 .09.035.12l.072.059c.071.03.107.06.178.03.072 0 .108-.06.108-.09.035-.03.035-.09.035-.12 0 0 0-.029.036-.029v-.06c0-.03 0-.03.036-.06-.036-.03.035-.03 0-.059v-.03-.12-.089-.06c.035-.03 0-.059 0-.089v-.06c0-.03.035-.06 0-.089.035-.06 0-.09 0-.15 0-.029.035-.029 0-.059 0-.06 0-.09.035-.149v-.03s.036 0 .036-.03c0 0 .036 0 .036-.03h-.036l-.036-.03h.036c0-.03 0-.03.036-.03 0-.029 0-.029.036-.029-.036.03-.072.06-.108.06 0 0 0 .03 0 0zm-.107.775c.036.03 0 .06 0 .06v.15c-.035 0-.035 0-.035.029 0 0 0 .03.035.03h.036v.03h-.036s0 .03-.035.03v.06h.035v.03c-.035 0-.035.029-.035.059 0 .03-.036.06-.072.09h-.036c0-.03 0-.03.036-.06s.036-.09.072-.15c.035-.09.071-.208.071-.298l-.036-.06c-.035.03-.035 0 0 0 0-.03 0-.03 0 0zm0-.09c.036.03.036.03 0 0-.035.03-.035.03 0 0zm0-.118c0 .03-.035.03 0 0 .036 0 .036 0 0 0 .036.03 0 0 0 0zm-.035-.12V1.373c-.036.03-.036.03 0 .059 0 0 0 .03-.036.06 0 .119-.072.268-.143.388l-.107.09h-.036s-.036 0-.036-.03c0-.06-.035-.09 0-.15v-.03c0-.06 0-.09.036-.149v-.06c0-.06.036-.09.036-.149.036-.06.071-.12.107-.209 0-.03.036-.06.036-.09l.035-.059c0-.03.036-.03.036-.06h.036c.036.03.036.03.036.06zM19.552 1.074c0-.03 0-.03 0 0 0-.03 0-.03 0 0z" transform="translate(0 3) translate(18.507 32.52)"/>
            <path d="M19.582.985c-.03 0-.03.03 0 0 0 .03 0 .03 0 0zM19.642.895c-.03 0-.03.03 0 0 0 .03 0 0 0 0zM19.612.955c.03 0 .03-.03 0 0 0-.03 0 0 0 0zM19.91.597h-.03.03zM20.507.03c-.09.03-.149.06-.208.12l-.03.029c-.06.06-.15.12-.21.179v.03s.03 0 .03-.03c.03-.06.09-.09.15-.12 0-.03.03-.03.06-.03 0 0 .03 0 .03.03.03 0 .06-.03.06-.059 0 0 .029 0 .029-.03.06-.06.09-.09.09-.12.06 0 .089 0 .089-.029-.03.03-.03.03-.09.03zM19.522 1.104c0 .03-.03.06-.03.06h.03v-.06zM19.522 1.104c0-.03 0-.03 0 0zM20.06.448L20.03.448zM20 .507c.03 0 .03 0 0 0 0-.03 0-.03 0 0z" transform="translate(0 3) translate(18.507 32.52)"/>
            <path d="M19.97.477l.03-.03c.03-.03.03-.06.06-.06-.03 0-.06.03-.09.09zM20.299.239c.03 0 .03 0 .03-.03l-.03.03zM20.06.388h0zM19.91.567c0 .03 0 .03 0 0 .03.03.06 0 .06 0v-.03c-.03.03-.06.03-.06.03zM19.97.507s.03 0 0 0c.03 0 .03 0 0 0 .03 0 .03 0 0 0 .03 0 0 0 0 0zM19.97.477c-.03 0-.06.06-.06.09.03-.03.06-.06.06-.09zM19.91.597s.03 0 0 0c.03 0 .03 0 0 0z" transform="translate(0 3) translate(18.507 32.52)"/>
        </g>
    </g>
</svg>
