<?xml version="1.0"?>
<svg xmlns="http://www.w3.org/2000/svg"
	xmlns:xlink="http://www.w3.org/1999/xlink" version="1.1" id="Capa_1" x="0px" y="0px" viewBox="0 0 512 512" style="enable-background:new 0 0 512 512;" xml:space="preserve" width="512" height="512">
	<g>
		<g>
			<g>
				<g>
					<circle cx="256" cy="256" r="256" stroke="black" stroke-width="1" fill="#ffffff"/>
					<path d="M256,0C114.615,0,0,114.615,0,256s114.615,256,256,256s256-114.615,256-256S397.385,0,256,0z M256,480     C132.288,480,32,379.712,32,256S132.288,32,256,32s224,100.288,224,224S379.712,480,256,480z" data-original="#000000" class="active-path" data-old_color="#000000" style="fill:#083A6E"/>
					<path d="M219.2,116.8l-22.56,22.56L313.44,256L196.8,372.8l22.56,22.56l127.84-128c6.204-6.241,6.204-16.319,0-22.56L219.2,116.8     z" data-original="#000000" class="active-path" data-old_color="#000000" style="fill:#083A6E"/>
				</g>
			</g>
		</g>
	</g>
</svg>
