<svg xmlns="http://www.w3.org/2000/svg" id="XMLID_10012_" width="36.65" height="30.616" viewBox="0 0 36.65 30.616">
    <defs>
        <style>
            .cls-1{fill:#fff}
        </style>
    </defs>
    <path id="XMLID_10023_" d="M11.4 12.3v2.458a.219.219 0 0 0 .223-.223 1.229 1.229 0 0 0 .67-1.117c.001-.671-.223-.895-.893-1.118z" class="cls-1" transform="translate(8.266 6.919)"/>
    <path id="XMLID_10020_" d="M35.674 9.287h-5.363V8.17a4.483 4.483 0 0 0-4.47-4.47h-9.832a4.483 4.483 0 0 0-4.47 4.47v1.117H6.176A3.53 3.53 0 0 0 2.6 12.862v17.879a3.53 3.53 0 0 0 3.576 3.576h29.5a3.53 3.53 0 0 0 3.576-3.576V12.862a3.84 3.84 0 0 0-3.578-3.575zm2.235 21.454a2.239 2.239 0 0 1-2.235 2.235H6.176a2.239 2.239 0 0 1-2.235-2.235V12.862a2.239 2.239 0 0 1 2.235-2.235h6.034a.593.593 0 0 0 .67-.67V8.17a3.055 3.055 0 0 1 3.129-3.129h9.833A3.055 3.055 0 0 1 28.97 8.17v1.787a.593.593 0 0 0 .67.67h6.034a2.239 2.239 0 0 1 2.235 2.235z" class="cls-1" transform="translate(-2.6 -3.7)"/>
    <path id="XMLID_10017_" d="M19.3 5H9.464A1.528 1.528 0 0 0 7.9 6.564v1.788a.593.593 0 0 0 .67.67h11.174a.593.593 0 0 0 .67-.67V6.564C20.862 5.67 20.191 5 19.3 5zm.223 2.682H9.241V6.564a.219.219 0 0 1 .223-.223H19.3a.219.219 0 0 1 .223.223z" class="cls-1" transform="translate(3.944 -2.095)"/>
    <path id="XMLID_10014_" d="M16.269 14.751v-.67a.821.821 0 0 0 .67.223 2.251 2.251 0 0 0 .67-.223l1.341-.894a1.2 1.2 0 0 0 .67-.894 1.694 1.694 0 0 0-.447-.894 5.534 5.534 0 0 0-3.129-1.788v-.67A1.442 1.442 0 0 0 14.7 7.6h-1.113a1.442 1.442 0 0 0-1.341 1.341v.67a3.176 3.176 0 0 0-1.341.447C8.67 11.176 8 12.74 8.223 14.081a3.775 3.775 0 0 0 .67 2.235 6.139 6.139 0 0 0 3.352 2.011v1.341c-.223-.223-.67-.447-.894-.67a1.707 1.707 0 0 0-1.117-.447.821.821 0 0 0-.67.223l-1.341.67a2.311 2.311 0 0 0-.223.894.821.821 0 0 0 .223.67l1.341 1.341a7.552 7.552 0 0 0 2.682 1.341v.67a1.442 1.442 0 0 0 1.341 1.34H14.7a1.442 1.442 0 0 0 1.341-1.341v-.67a6.692 6.692 0 0 0 2.239-.889 4.027 4.027 0 0 0 2.011-3.576 3.361 3.361 0 0 0-.894-2.458c-.447-1.121-1.788-1.566-3.128-2.015zm1.564 6.928a6.692 6.692 0 0 1-2.235.894c-.223 0-.447.223-.447.67v1.117h-1.117v-1.117c0-.223-.223-.67-.447-.67a6.883 6.883 0 0 1-2.682-1.117c-.447-.447-.894-.67-1.117-1.117l.67-.67a5.109 5.109 0 0 0 2.235 1.564h.67c.223-.223.223-.223.223-.447V17.88c0-.223-.223-.67-.447-.67a4.686 4.686 0 0 1-3.129-1.564 1.886 1.886 0 0 1-.447-1.564 3.022 3.022 0 0 1 2.013-2.682c.447-.447.894-.447 1.564-.67.223 0 .447-.223.447-.67V8.941H14.7v1.341c0 .223.223.67.447.67a5.339 5.339 0 0 1 2.905 1.564l-1.341.67h-.223c-.223-.223-.67-.447-.894-.67h-.67c-.223.223-.223.223-.223.447V15.2c0 .223.223.67.447.67a4.226 4.226 0 0 1 3.129 1.564c.447.447.447.894.447 1.788.45 1.116.003 1.787-.891 2.457z" class="cls-1" transform="translate(4.068 1.116)"/>
    <path id="XMLID_10013_" d="M9.9 11.117a1.14 1.14 0 0 0 .894 1.117V10a1.14 1.14 0 0 0-.894 1.117z" class="cls-1" transform="translate(6.414 4.079)"/>
</svg>
