<svg xmlns="http://www.w3.org/2000/svg" width="42" height="30" viewBox="0 0 42 30">
    <defs>
        <linearGradient id="1153f9f4da" x1="50%" x2="50%" y1="0%" y2="100%">
            <stop offset="0%" stop-color="#81C3F3"/>
            <stop offset="100%" stop-color="#157EFB"/>
        </linearGradient>
        <linearGradient id="gmr4wcmmab" x1="50%" x2="50%" y1="0%" y2="100%">
            <stop offset="0%" stop-color="#81C3F3"/>
            <stop offset="100%" stop-color="#157EFB"/>
        </linearGradient>
        <linearGradient id="98fo61zqvc" x1="50%" x2="50%" y1="0%" y2="100%">
            <stop offset="0%" stop-color="#81C3F3"/>
            <stop offset="100%" stop-color="#157EFB"/>
        </linearGradient>
        <linearGradient id="m48jm6fqjd" x1="50%" x2="50%" y1="0%" y2="100%">
            <stop offset="0%" stop-color="#81C3F3"/>
            <stop offset="100%" stop-color="#157EFB"/>
        </linearGradient>
        <linearGradient id="9cupb79hae" x1="50%" x2="50%" y1="0%" y2="100%">
            <stop offset="0%" stop-color="#81C3F3"/>
            <stop offset="100%" stop-color="#157EFB"/>
        </linearGradient>
        <linearGradient id="2lp7bohpkf" x1="50%" x2="50%" y1="0%" y2="100%">
            <stop offset="0%" stop-color="#81C3F3"/>
            <stop offset="100%" stop-color="#157EFB"/>
        </linearGradient>
        <linearGradient id="pc1mxvjpkg" x1="50%" x2="50%" y1="0%" y2="100%">
            <stop offset="0%" stop-color="#81C3F3"/>
            <stop offset="100%" stop-color="#157EFB"/>
        </linearGradient>
    </defs>
    <g fill="none" fill-rule="evenodd">
        <g>
            <g>
                <path stroke="url(#1153f9f4da)" d="M29.725 27.902H2.335C1.052 27.902 0 26.83 0 25.52V13.933c0-1.31 1.051-2.382 2.336-2.382h27.39c1.285 0 2.336 1.072 2.336 2.382V25.52c0 1.31-1.051 2.382-2.337 2.382z" transform="translate(-1226 -25) translate(1227 26)"/>
                <path stroke="url(#gmr4wcmmab)" d="M27.588 13.951H4.473c0 1.195-.95 2.164-2.12 2.164v7.223c1.17 0 2.12.969 2.12 2.164h23.115c0-1.195.95-2.164 2.12-2.164v-7.223c-1.17 0-2.12-.969-2.12-2.164z" transform="translate(-1226 -25) translate(1227 26)"/>
                <path stroke="url(#98fo61zqvc)" d="M8.139 19.42c0 1.04-.828 1.884-1.847 1.884-1.02 0-1.847-.843-1.847-1.883s.827-1.884 1.847-1.884 1.847.843 1.847 1.884zM27.563 19.42c0 1.04-.827 1.884-1.847 1.884s-1.847-.843-1.847-1.883.828-1.884 1.847-1.884c1.02 0 1.847.843 1.847 1.884z" transform="translate(-1226 -25) translate(1227 26)"/>
                <path stroke="url(#m48jm6fqjd)" d="M18.836 19.754c0 2.032-1.164 3.68-2.599 3.68-1.436 0-2.6-1.648-2.6-3.68s1.164-3.679 2.6-3.679c1.435 0 2.599 1.647 2.599 3.68z" transform="translate(-1226 -25) translate(1227 26)"/>
                <path stroke="url(#9cupb79hae)" d="M4.21 9.852V8.158c0-1.31 1.05-2.383 2.335-2.383h27.39c1.284 0 2.335 1.072 2.335 2.383v11.586c0 1.31-1.05 2.383-2.335 2.383" transform="translate(-1226 -25) translate(1227 26)"/>
                <path stroke="url(#2lp7bohpkf)" d="M33.917 17.563V10.34c-1.17 0-2.12-.969-2.12-2.164H8.683c0 1.195-.95 2.164-2.122 2.164" transform="translate(-1226 -25) translate(1227 26)"/>
                <path stroke="url(#1153f9f4da)" d="M7.634 3.507V2.382C7.634 1.072 8.684 0 9.97 0h27.39c1.284 0 2.336 1.072 2.336 2.382v11.587c0 1.31-1.052 2.382-2.337 2.382" transform="translate(-1226 -25) translate(1227 26)"/>
                <path stroke="url(#pc1mxvjpkg)" d="M37.343 11.787V4.563c-1.172 0-2.122-.969-2.122-2.163H12.107c0 1.194-.95 2.163-2.12 2.163" transform="translate(-1226 -25) translate(1227 26)"/>
            </g>
        </g>
    </g>
</svg>
