<svg xmlns="http://www.w3.org/2000/svg" width="60" height="60" viewBox="0 0 60 60">
    <g fill="none">
        <path fill="#D2F9CF" d="M23.81.275l-11.289 3.6c-.276.1-.553.225-.804.375L1.71 10.5c-1.433.675-2.062 2.4-1.408 3.825l15.94 34c.68 1.425 2.414 2.05 3.847 1.4l22.1-10.25c1.434-.675 2.062-2.4 1.409-3.825l-15.94-34C26.977.225 25.242-.4 23.81.275zM9.554 9.5c-.427.2-.955.025-1.156-.425-.201-.425-.025-.95.427-1.15.428-.2.956-.025 1.157.425.2.425 0 .95-.428 1.15zm5.783-2.575L12.32 8.35c-.503.225-1.081.025-1.307-.475-.227-.5-.026-1.075.477-1.3l3.043-1.4c.502-.225 1.08-.025 1.307.475.226.475 0 1.05-.503 1.275zm2.69-1.35c-.427.2-.955.025-1.156-.425-.201-.425-.025-.95.427-1.15.428-.2.956-.025 1.157.425.201.425 0 .95-.428 1.15z" transform="translate(8 5)"/>
        <path fill="#EDFCEB" d="M17.55 44.425c.679 1.425 2.413 2.05 3.847 1.4l16.946-7.875c1.433-.675 2.062-2.4 1.408-3.825l-3.671-7.85-22.201 10.3 3.67 7.85z" transform="translate(8 5)"/>
        <path fill="#84E06E" d="M23.131 5.475L6.16 13.35c-1.433.675-2.062 2.4-1.408 3.825l9.102 19.4 22.2-10.3-9.1-19.4c-.655-1.45-2.39-2.075-3.823-1.4z" transform="translate(8 5)"/>
        <g fill="#84E06E">
            <path d="M1.358 4.825l-.352.15.352.75c.05.125.025.2-.076.25-.1.05-.176.025-.226-.075L.151 3.95C.1 3.8.126 3.7.277 3.625l.477-.2c.227-.125.428-.125.604-.05.176.05.327.225.427.425.126.225.126.425.05.6-.125.175-.226.325-.477.425zM.779 3.75l-.301.125.377.825.352-.15c.126-.05.176-.125.201-.225.025-.075 0-.2-.05-.325-.05-.15-.151-.225-.227-.25-.125-.1-.2-.075-.352 0zM3.344 5.025c-.201.075-.402.125-.578.025-.151-.05-.302-.2-.377-.425l-.73-1.575c-.05-.125-.025-.2.076-.225.126-.05.201-.025.226.075l.73 1.575c.125.25.25.325.477.225.201-.075.251-.25.15-.525L2.59 2.6c-.05-.125-.025-.175.075-.225.126-.05.201-.025.226.075l.73 1.575c.125.225.125.4.075.575-.025.175-.15.325-.352.425zM5.355 4.075c-.125.05-.2.025-.251-.075l-.427-.925-.604.3.428.925c.05.125.025.2-.076.225-.126.05-.201.025-.251-.075l-.956-2.075c-.05-.125-.025-.175.076-.225.125-.05.2-.025.226.075l.377.85.604-.3-.378-.85c-.05-.125-.025-.2.076-.225.126-.05.201-.025.226.075l.956 2.075c.125.1.1.175-.026.225zM6.914 3.3l-.88.4c-.05.025-.15.025-.2.025-.051-.025-.127-.05-.152-.125l-.855-1.825c-.025-.05-.025-.15 0-.2.026-.05.076-.125.151-.15l.88-.4c.076-.025.176 0 .201.075.05.125.026.175-.05.225l-.578.25c-.151.05-.176.175-.126.3l.176.4.679-.325c.075-.025.15 0 .201.075.05.125.025.175-.05.2l-.704.325.251.55c.05.15.176.175.327.125l.578-.25c.076-.025.151 0 .202.075.075.125.05.2-.05.25zM7.618.375l.076 1.475.352.75c.05.125.025.2-.076.25-.125.05-.2.025-.251-.075l-.352-.75L6.286 1C6.26.975 6.26.975 6.26.95 6.235.9 6.235.875 6.26.8c.025-.05.05-.075.125-.125.076-.025.151-.025.201.025l.78.775-.126-1.1c0-.075.025-.15.126-.175.05-.025.075-.025.15-.025.051.025.076.05.126.075-.025.1-.025.125-.025.125z" transform="translate(8 5) translate(22.377 32)"/>
        </g>
        <g fill="#84E06E">
            <path d="M1.81 4.35c-.075.025-.125.025-.176-.05l-.301-.375-.528.225.1.5c.025.075 0 .15-.075.175-.1.05-.176.025-.227-.075 0-.025 0-.025-.025-.05L.151 2.55c-.025-.1.025-.175.126-.225.1-.05.176-.025.251.05L1.886 4.1c.025.025.025.025.025.05.025.075 0 .15-.1.2zM.503 2.925l.176.9.377-.175-.553-.725zM3.269 3.675c-.101.05-.176.025-.227-.075l-.301-.675c-.151-.3-.302-.4-.503-.325-.076.05-.151.125-.176.275-.025.125-.025.225 0 .35l.301.675c.05.1.026.175-.075.225-.1.05-.176.025-.226-.075l-.93-1.975c-.05-.1-.026-.175.075-.225.1-.05.176-.025.226.075l.402.875c.026-.25.151-.4.352-.525.151-.075.327-.075.503.025.126.075.227.2.302.375l.327.725c.075.15.05.225-.05.275zM5.305 1.675l-.327.15.327.725c.05.1.025.175-.1.225-.101.05-.176.025-.227-.075L4.098.85C4.023.7 4.073.6 4.224.55l.427-.2c.202-.1.403-.125.579-.05.176.075.301.2.402.425.1.2.126.4.05.575-.025.15-.15.275-.377.375zM4.752.65l-.251.125.352.775.326-.15c.101-.05.151-.125.176-.225.026-.1 0-.175-.05-.3s-.126-.2-.226-.25c-.1-.05-.201-.05-.327.025zM7.669 1.625c-.101.05-.176.025-.227-.075l-.05-.075c-.05.225-.15.375-.302.425-.352.175-.653.05-.83-.325l-.377-.8C5.833.675 5.858.6 5.96.55c.1-.05.176-.025.226.075l.352.75c.1.225.277.3.503.2.075-.05.126-.1.15-.2.026-.1.026-.175-.024-.275L6.814.325c-.05-.1-.025-.175.075-.225.1-.05.176-.025.226.075l.579 1.2c.1.125.075.2-.025.25z" transform="translate(8 5) translate(24.891 37)"/>
        </g>
        <g fill="#84E06E">
            <path d="M11.918 1.275c-.076 0-.151-.05-.176-.1-.05-.1 0-.2.1-.25l1.66-.775c.1-.05.2 0 .251.1.05.1 0 .2-.1.25l-1.66.775c-.025-.025-.05 0-.075 0zM.377 6.625c-.075 0-.15-.05-.176-.1-.05-.1 0-.2.1-.25l1.66-.775c.1-.05.201 0 .252.1.05.1 0 .2-.101.25l-1.66.775c-.025-.025-.05 0-.075 0z" transform="translate(8 5) translate(21.623 35.75)"/>
        </g>
        <path fill="#EDFCEB" d="M27.557 25.775l-8.624 4c-1.031.475-2.238.025-2.716-.975l-5.129-10.925c-.478-1.025-.025-2.225.98-2.7l8.625-4c1.03-.475 2.237-.025 2.715.975l5.104 10.9c.528 1 .1 2.225-.955 2.725z" transform="translate(8 5)"/>
        <g>
            <path fill="#F4B362" d="M10.862 9.175c.653-1.2.78-2.6.226-3.8-.302-.65-.78-1.15-1.333-1.5-.025 0-.025-.025-.025-.05-.176-.475-.477-1.15-1.131-2.075C7.266-.225 6.713.2 6.537.425c-.025.05-.05.1-.05.175l.075 2.6c0 .075-.05.125-.125.15-.554.1-1.132.275-1.685.525-.629.3-1.207.675-1.66 1.1-.05.05-.125.05-.2 0L.88 3.225c-.05-.05-.1-.075-.176-.075-.277-.025-.955.15-.302 2.425.327 1.15.68 1.85.93 2.275.026.05.076.1.126.15.025.025.025.05.025.075-.025.55.101 1.1.327 1.65C2.39 10.95 3.52 11.75 4.853 12c.176.025.251.2.2.35-.175.5-.427 1.55 0 2.5l1.132-.525 5.557-2.575 1.08-.5c-.427-.9-1.382-1.4-1.885-1.575-.1-.175-.15-.35-.075-.5z" transform="translate(8 5) translate(14.08 14.5)"/>
            <path fill="#FEFBF7" d="M5.23 11.3c.578.125.603.425.603.425l.151.325c.15.8-.126 1.375.201 2.025.025.05.05.1.076.125l5.556-2.575c-.025-.05-.05-.1-.05-.125-.302-.65-.956-.8-1.433-1.45l-.176-.3s-.227-.25.075-.75c0 0 1.182-2.375-1.006-3.2-2.187-.825-2.665 1.775-2.665 1.775S4.274 6.3 3.47 8.5c-.83 2.2 1.76 2.8 1.76 2.8z" transform="translate(8 5) translate(14.08 14.5)"/>
            <g transform="translate(8 5) translate(14.08 14.5) translate(3.52 4.5)">
                <path fill="#5C2C0A" d="M3.771 1.5c.05-.075.101-.2.101-.225.05-.15.126-.25.277-.3.176-.075.352-.05.502.05l.026.025h.025c.075.075.176.125.251.15.05.025.05.075.025.125-.05.075-.125.225-.125.225-.026.15-.126.275-.277.325-.201.1-.402.05-.553-.1l-.025-.025c-.05-.05-.126-.075-.176-.1-.076-.075-.076-.125-.05-.15zM1.257 2.65c-.1 0-.226-.05-.251-.075-.126-.05-.277-.075-.403 0-.176.075-.276.25-.301.425V3.075c0 .1-.025.2-.05.275 0 .05.025.1.075.1.1 0 .251.05.251.05.126.075.302.075.428 0 .2-.1.301-.3.301-.475v-.05c0-.075.026-.15.05-.2 0-.075-.05-.125-.1-.125z"/>
                <circle cx=".704" cy="2.875" r="1" fill="#FCFCFC"/>
                <circle cx="4.073" cy="1.325" r="1" fill="#FCFCFC"/>
                <circle cx=".707" cy="1.962" r="1" fill="#FEFBF7" transform="rotate(-70.001 .707 1.962)"/>
                <circle cx="3.654" cy=".566" r="1" fill="#FEFBF7" transform="rotate(-70.001 3.654 .566)"/>
            </g>
            <path fill="#FEFBF7" d="M2.514 4.975L.981 3.625C.905 3.575.83 3.55.754 3.55c-.226.05-.503.3-.125 1.625.251.8.452 1.275.628 1.55.151.25.503.2.604-.05.125-.325.326-.8.678-1.275.126-.125.101-.325-.025-.425zM6.864 2.975l-.05-2.05c0-.075.025-.175.1-.225.176-.15.553-.2 1.333.95.452.675.679 1.15.804 1.475.101.275-.176.5-.427.425-.327-.125-.83-.25-1.433-.3-.226.025-.327-.125-.327-.275z" transform="translate(8 5) translate(14.08 14.5)"/>
            <path fill="#5C2C0A" d="M8.775 8.175c-.076-.025-.151 0-.176.075-.226.625-1.056.55-1.383.5-.025 0-.05-.025-.075-.05l-.076-.125c.402-.275.604-.75.402-1.125-.2-.425-.779-.6-1.257-.35-.477.25-.729.775-.528 1.2.201.375.68.575 1.132.4l.075.125V8.9c-.15.275-.628.925-1.257.725-.075-.025-.15 0-.176.075-.025.075 0 .15.1.2.277.1.529.075.78-.05.15-.075.302-.175.427-.3.176-.175.302-.325.352-.45.026-.025.05-.05.076-.05.15.025.352.05.578.025.201-.025.352-.05.528-.125.277-.125.428-.3.528-.575.076-.075.025-.175-.05-.2z" transform="translate(8 5) translate(14.08 14.5)"/>
            <path fill="#F2F0ED" d="M7.115 11s.83.075 1.685-.8c.88-.875-.126.775-.126.775s-.176.3-.377.375c-.226.1-.603.025-.603.025s-1.358-.3-.579-.375z" transform="translate(8 5) translate(14.08 14.5)"/>
        </g>
        <path fill="#D2F9CF" d="M28.01 26.15l-9.027 4.175c-1.182.55-2.615.05-3.168-1.15l-5.305-11.3c-.553-1.175-.05-2.6 1.156-3.15l9.027-4.175c1.181-.55 2.614-.05 3.168 1.15L29.166 23c.553 1.175.025 2.6-1.157 3.15zm-15.866-10.4c-.654.3-.93 1.075-.629 1.725l5.306 11.275c.301.65 1.08.925 1.734.625l9.027-4.175c.653-.3.93-1.075.628-1.725L22.88 12.2c-.302-.65-1.081-.925-1.735-.625l-9.001 4.175z" transform="translate(8 5)"/>
        <path fill="#CACCCE" d="M10.782 2.093L14.097 2.1 14.108 6.955 10.792 6.948z" transform="translate(8 5) rotate(-24.999 12.445 4.524)"/>
    </g>
</svg>
