<svg xmlns="http://www.w3.org/2000/svg" width="60" height="60" viewBox="0 0 60 60">
    <g fill="none">
        <path fill="#D2F9CF" d="M39.756 40.66L21.03 49.398c-1.726.804-3.797.057-4.574-1.667L.575 13.736C-.23 12.01.518 9.943 2.244 9.166L20.97.432c1.726-.805 3.797-.057 4.574 1.667l15.88 33.965c.805 1.724.057 3.793-1.669 4.598z" transform="translate(9 5)"/>
        <g>
            <path fill="#E9B46F" d="M14.959 12.672c.92-1.666 1.093-3.62.288-5.316-.432-.92-1.065-1.609-1.842-2.126l-.057-.058c-.23-.66-.69-1.609-1.553-2.93C9.953-.519 9.177.085 8.947.373c-.058.057-.087.143-.058.23l.115 3.62c0 .086-.057.173-.144.201-.776.144-1.582.374-2.359.747-.891.403-1.668.949-2.33 1.552-.057.058-.172.058-.259 0l-2.79-2.471c-.058-.058-.144-.086-.23-.086-.374-.03-1.352.2-.403 3.39.49 1.61.92 2.587 1.295 3.19.057.086.115.144.172.201.029.029.058.058.058.086-.03.776.115 1.552.489 2.3.805 1.695 2.359 2.815 4.229 3.189.23.057.345.259.287.488-.23.69-.604 2.156 0 3.478l1.554-.719 7.71-3.592 1.524-.718c-.604-1.293-1.928-1.954-2.618-2.242-.259-.115-.345-.344-.23-.546z" transform="translate(9 5) translate(11.507 13.218)"/>
            <path fill="#FCFAF6" d="M7.134 15.66c.806.145.834.604.834.604l.202.46c.201 1.092-.144 1.897.288 2.816l.086.173 7.71-3.592-.087-.173c-.431-.92-1.323-1.12-1.985-2.04l-.23-.46s-.316-.316.086-1.034c0 0 1.64-3.334-1.41-4.454-3.049-1.12-3.71 2.5-3.71 2.5s-3.165-1.84-4.286 1.235c-1.122 3.075 2.502 3.966 2.502 3.966z" transform="translate(9 5) translate(11.507 13.218)"/>
            <g transform="translate(9 5) translate(11.507 13.218) translate(4.89 6.034)">
                <path fill="#562E13" d="M5.092 2.155c.086-.115.144-.258.144-.316.057-.172.172-.345.374-.431.23-.115.517-.086.719.086l.029.029.028.029c.115.086.23.143.317.2.057.03.086.116.029.173-.087.115-.173.288-.173.288-.058.2-.173.373-.374.46-.259.114-.575.057-.777-.116-.029 0-.029-.028-.029-.028-.057-.058-.172-.115-.258-.144-.03-.086-.058-.172-.03-.23zM1.611 3.793c-.144 0-.288-.057-.345-.086-.173-.086-.374-.086-.576 0-.23.115-.374.345-.402.575v.086c0 .143-.03.287-.058.373-.029.058.029.144.086.144.144 0 .346.058.346.058.172.086.402.114.604 0 .259-.115.402-.403.402-.661v-.058c0-.086.03-.201.058-.287 0-.058-.029-.144-.115-.144z"/>
                <circle cx=".863" cy="4.138" r="1" fill="#FBFBFB"/>
                <circle cx="5.552" cy="1.954" r="1" fill="#FBFBFB"/>
                <circle cx=".853" cy="2.804" r="1" fill="#FCFAF6" transform="rotate(-70.001 .853 2.804)"/>
                <circle cx="4.935" cy=".929" r="1" fill="#FCFAF6" transform="rotate(-70.001 4.935 .929)"/>
            </g>
            <path fill="#FCFAF6" d="M3.337 6.782L1.208 4.885C1.122 4.8 1.007 4.77.892 4.8c-.288.057-.72.402-.144 2.299.316 1.092.633 1.753.892 2.155.201.316.69.287.834-.086.173-.46.489-1.092.95-1.782.143-.172.086-.431-.087-.603zM9.378 3.966L9.292 1.12c0-.115.029-.23.115-.288.23-.2.777-.287 1.84 1.35.634.95.95 1.61 1.094 2.07.115.373-.23.718-.604.603-.46-.172-1.15-.345-1.985-.402-.173-.057-.345-.23-.374-.488z" transform="translate(9 5) translate(11.507 13.218)"/>
            <path fill="#562E13" d="M12.082 11.264c-.086-.028-.201 0-.23.115-.316.862-1.496.776-1.899.69-.028 0-.057-.029-.086-.058l-.086-.172c.575-.345.834-1.034.575-1.58-.288-.604-1.064-.834-1.755-.518-.69.316-1.006 1.064-.719 1.667.26.546.95.776 1.582.575l.087.172c.028.029 0 .086 0 .115-.202.374-.863 1.322-1.755 1.006-.086-.029-.201 0-.23.115-.029.086 0 .23.115.258.374.115.719.115 1.093-.057.201-.086.403-.259.604-.431.23-.23.403-.46.49-.632.028-.029.057-.058.114-.058.202.029.49.058.806.029.287-.029.517-.086.719-.172.345-.173.604-.431.748-.805-.029-.115-.087-.201-.173-.259z" transform="translate(9 5) translate(11.507 13.218)"/>
            <path fill="#F1EFEC" d="M9.78 15.23s1.123.115 2.36-1.092c1.208-1.207-.144 1.063-.144 1.063s-.259.402-.518.546c-.259.115-.834.029-.834.029s-1.985-.431-.863-.546z" transform="translate(9 5) translate(11.507 13.218)"/>
        </g>
        <path fill="#EDFCEB" d="M21.92 1.466l-19.475 9.08c-.69.316-1.007 1.15-.69 1.868L18.21 47.672c.316.69 1.15 1.006 1.87.69l19.475-9.08c.69-.316 1.007-1.15.69-1.868L23.79 2.155c-.316-.718-1.15-1.006-1.87-.69zm1.755 29.195c-4.976 2.299-10.874.172-13.175-4.799S10.327 15 15.304 12.702c4.977-2.3 10.874-.173 13.175 4.798 2.33 4.943.173 10.833-4.804 13.16z" transform="translate(9 5)"/>
        <g transform="translate(9 5) translate(17.548 31.034)">
            <ellipse cx="3.222" cy="8.621" fill="#5FC349" rx="3.164" ry="3.161"/>
            <ellipse cx="14.901" cy="3.161" fill="#F4586D" rx="3.164" ry="3.161"/>
            <path fill="#FFF" d="M2.416 10.92c.26.086.547.086.806-.03.374-.143.662-.401.805-.804.058-.143.087-.258.144-.402.087-.201.144-.431.23-.632.087-.23.144-.431.23-.632l.173-.431c.086-.26.115-.489.058-.748-.087-.344-.26-.603-.547-.775-.173-.115-.403-.202-.604-.26-.201-.057-.403.03-.49.23-.057.116-.085.23-.143.346l-.086.258c-.087.259.029.46.287.546.087.029.144.058.23.086.116.03.144.115.116.23-.087.259-.202.518-.288.805-.086.259-.201.546-.288.804-.028.115-.115.144-.23.115-.086-.028-.201-.057-.287-.086-.173-.057-.403.029-.49.23-.057.115-.115.259-.143.374-.03.086-.058.143-.087.23-.086.23.03.46.26.546.114-.087.23-.03.344 0zM17.232 2.299c-.144-.259-.346-.431-.576-.546-.374-.173-.748-.173-1.122 0-.144.057-.259.115-.402.172-.202.086-.403.201-.633.288-.202.086-.403.2-.633.287-.144.057-.288.144-.432.201-.23.115-.431.259-.575.489-.173.287-.23.603-.173.948.03.23.144.431.26.603.086.173.316.259.517.173.115-.058.23-.086.345-.144.087-.029.173-.086.23-.115.23-.115.288-.345.173-.603-.029-.058-.058-.144-.086-.201-.058-.115-.03-.173.086-.23l.777-.345.776-.345c.115-.057.173-.029.23.086.058.086.087.173.144.259.087.172.317.258.49.201.114-.057.258-.115.373-.172.087-.03.144-.058.23-.115.23-.115.288-.345.202-.575-.086-.086-.144-.201-.201-.316z"/>
        </g>
    </g>
</svg>
