<svg xmlns="http://www.w3.org/2000/svg" width="41" height="37" viewBox="0 0 41 37">
    <defs>
        <linearGradient id="odu4m1wzxa" x1="50%" x2="50%" y1="0%" y2="100%">
            <stop offset="0%" stop-color="#333bb3"/>
            <stop offset="100%" stop-color="#07115d"/>
        </linearGradient>
        <linearGradient id="qlwj99234b" x1="50%" x2="50%" y1="0%" y2="100%">
            <stop offset="0%" stop-color="#333bb3"/>
            <stop offset="100%" stop-color="#07115d"/>
        </linearGradient>
        <linearGradient id="cvcnr4ktzc" x1="50%" x2="50%" y1="0%" y2="100%">
            <stop offset="0%" stop-color="#333bb3"/>
            <stop offset="100%" stop-color="#07115d"/>
        </linearGradient>
    </defs>
    <g fill="none" fill-rule="evenodd" stroke-linecap="round" stroke-linejoin="round">
        <g>
            <g>
                <path stroke="url(#odu4m1wzxa)" d="M39.354 4.306h0C39.354 1.938 37.416 0 35.047 0c-2.369 0-4.306 1.938-4.306 4.306v25.876c0 2.37-1.938 4.307-4.306 4.307-2.368 0-4.306-1.938-4.306-4.307H0c0 2.37 1.938 4.307 4.306 4.307H21.47" transform="translate(-1410 -22) translate(1411 23)"/>
                <path stroke="url(#qlwj99234b)" d="M8.612 30.183V4.307C8.612 1.937 10.55 0 12.92 0h17.16" transform="translate(-1410 -22) translate(1411 23)"/>
                <path stroke="url(#cvcnr4ktzc)" d="M25.917 10.028H13.662c-.775 0-1.408-.633-1.408-1.409 0-.775.633-1.408 1.408-1.408h12.255c.775 0 1.41.633 1.41 1.408 0 .776-.635 1.41-1.41 1.41zM25.917 15.092H13.662c-.775 0-1.408-.634-1.408-1.41 0-.774.633-1.408 1.408-1.408h12.255c.775 0 1.41.634 1.41 1.409s-.635 1.409-1.41 1.409zM25.917 20.155H13.662c-.775 0-1.408-.634-1.408-1.409s.633-1.409 1.408-1.409h12.255c.775 0 1.41.634 1.41 1.409s-.635 1.409-1.41 1.409zM25.917 25.218H13.662c-.775 0-1.408-.634-1.408-1.409s.633-1.409 1.408-1.409h12.255c.775 0 1.41.634 1.41 1.41 0 .774-.635 1.408-1.41 1.408z" transform="translate(-1410 -22) translate(1411 23)"/>
            </g>
        </g>
    </g>
</svg>
