<svg id="圖層_1" data-name="圖層 1" xmlns="http://www.w3.org/2000/svg" xmlns:xlink="http://www.w3.org/1999/xlink" viewBox="0 0 512 512"><defs><linearGradient id="未命名漸層_128" x1="-53.3" y1="628.76" x2="629.71" y2="-54.26" gradientUnits="userSpaceOnUse"><stop offset="0" stop-color="#003a77"/><stop offset="0.09" stop-color="#004f8f"/><stop offset="0.6" stop-color="#00b0cf"/><stop offset="0.8" stop-color="#00f0ff"/><stop offset="1" stop-color="#bcffff"/></linearGradient><linearGradient id="未命名漸層_129" x1="408.5" y1="134.02" x2="470.76" y2="4.88" gradientUnits="userSpaceOnUse"><stop offset="0" stop-color="#57c0da"/><stop offset="1" stop-color="#1d5398"/></linearGradient><linearGradient id="未命名漸層_142" x1="325.9" y1="68.91" x2="495.41" y2="99.53" gradientUnits="userSpaceOnUse"><stop offset="0" stop-color="#fff" stop-opacity="0"/><stop offset="0.11" stop-color="#fff" stop-opacity="0.27"/><stop offset="0.24" stop-color="#fff" stop-opacity="0.58"/><stop offset="0.36" stop-color="#fff" stop-opacity="0.81"/><stop offset="0.44" stop-color="#fff" stop-opacity="0.95"/><stop offset="0.48" stop-color="#fff"/><stop offset="0.58" stop-color="#fff" stop-opacity="0.74"/><stop offset="0.7" stop-color="#fff" stop-opacity="0.48"/><stop offset="0.8" stop-color="#fff" stop-opacity="0.27"/><stop offset="0.89" stop-color="#fff" stop-opacity="0.12"/><stop offset="0.96" stop-color="#fff" stop-opacity="0.03"/><stop offset="1" stop-color="#fff" stop-opacity="0"/></linearGradient><linearGradient id="未命名漸層_128-2" x1="8.8" y1="690.87" x2="691.82" y2="7.85" xlink:href="#未命名漸層_128"/><linearGradient id="未命名漸層_112" x1="-4375.3" y1="2490.81" x2="-4313.04" y2="2361.68" gradientTransform="translate(324.11 5448.72) rotate(119.77)" gradientUnits="userSpaceOnUse"><stop offset="0" stop-color="#00aece"/><stop offset="1" stop-color="#000c29"/></linearGradient><linearGradient id="未命名漸層_142-2" x1="-4457.9" y1="2425.71" x2="-4288.4" y2="2456.33" gradientTransform="translate(324.11 5448.72) rotate(119.77)" xlink:href="#未命名漸層_142"/><linearGradient id="未命名漸層_128-3" x1="-167.61" y1="514.45" x2="515.4" y2="-168.57" xlink:href="#未命名漸層_128"/><linearGradient id="未命名漸層_112-2" x1="37.08" y1="5593.84" x2="99.34" y2="5464.71" gradientTransform="matrix(-0.5, -0.87, 0.87, -0.5, -4691, 3047.54)" xlink:href="#未命名漸層_112"/><linearGradient id="未命名漸層_142-3" x1="-45.52" y1="5528.74" x2="123.99" y2="5559.36" gradientTransform="matrix(-0.5, -0.87, 0.87, -0.5, -4691, 3047.54)" xlink:href="#未命名漸層_142"/><linearGradient id="未命名漸層_128-4" x1="241.33" y1="337.14" x2="358.25" y2="157.99" xlink:href="#未命名漸層_128"/></defs><title>1-13v2.0</title><path d="M441.94,31.05a93.61,93.61,0,0,0-36.92-18c-39.67-9.18-83.38,9.17-110.72,46.59h0c45.77-7.82,75.22,3.29,89.68,10.6,30.25,15.3,54,44,69,81.33,12.48,31.14,18.84,68.3,17.68,108.89,0,1.16-.1,2.33-.14,3.49a355.85,355.85,0,0,1-4.09,41.5q-2.69,16.95-7.07,34.36h0s29.46-85.34,30-171.1c.22-33.43-4-66.9-16-95.42A114.42,114.42,0,0,0,441.94,31.05Z" fill="url(#未命名漸層_128)"/><path d="M294.3,59.64h0c45.77-7.82,75.22,3.29,89.68,10.6,30.25,15.3,54,44,69,81.33,12.48,31.14,18.84,68.3,17.68,108.89,0,1.16-.1,2.33-.14,3.49a355.85,355.85,0,0,1-4.09,41.5q-2.69,16.95-7.07,34.36h0s29.46-85.34,30-171.1C481.31-9.94,294.3,59.64,294.3,59.64Z" fill="url(#未命名漸層_129)"/><path d="M489.38,168.71c.22-33.42-4-66.9-16-95.42a114.42,114.42,0,0,0-31.45-42.24,93.61,93.61,0,0,0-36.92-18c-39.67-9.18-83.38,9.17-110.72,46.59C294.3,59.64,481.31-9.94,489.38,168.71Z" opacity="0.9" fill="url(#未命名漸層_142)"/><path d="M407.36,494.26a93.57,93.57,0,0,0,34-23.11c27.67-29.87,33.44-76.93,14.54-119.24h0c-15.94,43.61-40.2,63.66-53.73,72.58-28.31,18.66-65,25.05-104.86,19.5-33.22-4.63-68.64-17.56-103.29-38.72-1-.61-2-1.24-3-1.86a353.36,353.36,0,0,1-34-24.15q-13.38-10.74-26.32-23.2h0s59.45,67.95,133.61,111c28.9,16.79,60,29.77,90.76,33.51A114.32,114.32,0,0,0,407.36,494.26Z" fill="url(#未命名漸層_128-2)"/><path d="M455.86,351.91h0c-15.94,43.61-40.2,63.66-53.73,72.58-28.31,18.66-65,25.05-104.86,19.5-33.22-4.63-68.64-17.56-103.29-38.72-1-.61-2-1.24-3-1.86a353.36,353.36,0,0,1-34-24.15q-13.38-10.74-26.32-23.2h0s59.45,67.95,133.61,111C423.39,548.79,455.86,351.91,455.86,351.91Z" fill="url(#未命名漸層_112)"/><path d="M264.32,467.08c28.9,16.79,60,29.77,90.76,33.51a114.32,114.32,0,0,0,52.28-6.33,93.57,93.57,0,0,0,34-23.11c27.67-29.87,33.44-76.93,14.54-119.24C455.86,351.91,423.39,548.79,264.32,467.08Z" opacity="0.75" fill="url(#未命名漸層_142-2)"/><path d="M23.64,232.07a93.67,93.67,0,0,0,2.95,41c12,38.92,49.76,67.52,95.84,72.41h0c-29.72-35.68-34.89-66.73-35.81-82.9-1.94-33.85,10.94-68.79,35.75-100.48C143,135.66,172,111.51,207.7,92.16c1-.55,2.06-1.09,3.09-1.63a354.37,354.37,0,0,1,37.94-17.28q16-6.18,33.28-11.12h0S193.4,79.45,118.93,122c-29,16.58-55.88,37-74.53,61.7A114.38,114.38,0,0,0,23.64,232.07Z" fill="url(#未命名漸層_128-3)"/><path d="M122.43,345.46h0c-29.72-35.68-34.89-66.73-35.81-82.9-1.94-33.85,10.94-68.79,35.75-100.48C143,135.66,172,111.51,207.7,92.16c1-.55,2.06-1.09,3.09-1.63a354.37,354.37,0,0,1,37.94-17.28q16-6.18,33.28-11.12h0S193.4,79.45,118.93,122C-31.57,218.58,122.43,345.46,122.43,345.46Z" fill="url(#未命名漸層_112-2)"/><path d="M118.93,122c-29,16.58-55.88,37-74.53,61.7a114.52,114.52,0,0,0-20.76,48.39,93.67,93.67,0,0,0,2.95,41c12,38.92,49.76,67.52,95.84,72.41C122.43,345.46-31.57,218.58,118.93,122Z" opacity="0.4" fill="url(#未命名漸層_142-3)"/><path d="M321.42,307.54A21.16,21.16,0,0,0,337,297.62q3.25-5,3.75-14.15h3.38v49.6H233.84v-3.39l1.45-1.21q21-20.07,35.2-34.48a178,178,0,0,0,22.62-27.46,91.4,91.4,0,0,0,12.1-27.34q3.63-14.26,3.63-34.35,0-9.93-.73-18a55,55,0,0,0-2.9-14,20,20,0,0,0-6.41-9.2q-4.24-3.26-11.25-3.26a34.28,34.28,0,0,0-6.9.72,17,17,0,0,0-6.41,2.79,15,15,0,0,0-4.72,5.68,21.81,21.81,0,0,0-1.81,9.68,26,26,0,0,0,.24,2.66q.24,1.93.48,4.11c.16,1.46.32,2.83.49,4.12a26,26,0,0,1,.24,2.66q0,6-4.11,8.35a19.57,19.57,0,0,1-9.68,2.29c-1.13,0-2.54-.07-4.24-.24a14.24,14.24,0,0,1-4.83-1.33,9.88,9.88,0,0,1-4-3.63,12.76,12.76,0,0,1-1.69-7.13c0-2.75.93-6.09,2.78-10.05a35.68,35.68,0,0,1,8.71-11.25,50.72,50.72,0,0,1,15.49-9.07q9.56-3.75,23.1-3.75t23.23,4a45.06,45.06,0,0,1,15.85,10.53,39.63,39.63,0,0,1,9,15,55.61,55.61,0,0,1,2.78,17.42,46.44,46.44,0,0,1-1.09,9.19,62.19,62.19,0,0,1-3.87,11.86,89.42,89.42,0,0,1-7.74,14,110.7,110.7,0,0,1-12.94,15.73l-17.42,17.9-35.81,35.33h53.23C317,307.91,318.84,307.79,321.42,307.54Z" fill="url(#未命名漸層_128-4)"/></svg>