<svg xmlns="http://www.w3.org/2000/svg" xmlns:xlink="http://www.w3.org/1999/xlink" version="1.1" style="" xml:space="preserve" width="512" height="512"><rect id="backgroundrect" width="100%" height="100%" x="0" y="0" fill="none" stroke="none"/> <g class="currentLayer" style=""><title>Layer 1</title><g id="svg_1" class="selected" fill="#00af17" fill-opacity="1"><g id="svg_2" fill="#00af17" fill-opacity="1">
	<g id="svg_3" fill="#00af17" fill-opacity="1">
		<path d="M173.52480893711086,115.01214750977857 h-13.874177861436488 V101.13796964834208 c0,-7.6627568107300394 -6.212346057564335,-13.875102868294373 -13.874177861436488,-13.875102868294373 c-7.6627568107300394,0 -13.875102868294373,6.212346057564335 -13.875102868294373,13.875102868294373 v27.74928072973086 c0,7.6627568107300394 6.212346057564335,13.874177861436488 13.875102868294373,13.874177861436488 h27.74928072973086 c7.6627568107300394,0 13.875102868294373,-6.212346057564335 13.875102868294373,-13.874177861436488 C187.39991180540522,121.22449356734289 181.18756574784086,115.01214750977857 173.52480893711086,115.01214750977857 z" data-original="#000000" class="active-path" data-old_color="#000000" fill="#00af17" id="svg_4" fill-opacity="1"/>
	</g>
</g><g id="svg_5" fill="#00af17" fill-opacity="1">
	<g id="svg_6" fill="#00af17" fill-opacity="1">
		<path d="M452.4291766995539,282.4938891986705 c-16.232020342188644,0 -30.980329684327675,9.584921061417752 -37.57192855362539,24.41648102076655 l-8.010559389295285,18.022833619056506 c-9.72552210381647,21.881962230158113 -30.072897956741226,36.921648732531324 -53.369195672607475,40.15084767341237 c1.395835348550414,-4.156055812483108 2.1635910405960357,-8.597013737195194 2.1635910405960357,-13.21742299233722 c0,-22.951270157874667 -18.672188433292682,-41.62345859116734 -41.62345859116734,-41.62345859116734 c-0.0018500137157725853,0 -31.524233716764815,0 -61.86630866915096,-0.024975185162929927 c-12.496842650043797,-0.010175075436749228 -30.29952463692337,-2.1145656771280628 -44.14410227890749,-12.080589563994968 c-14.220130426285959,-10.235200882511815 -31.021954992932564,-15.643715980572962 -48.587835224193235,-15.643715980572962 c-24.772608661052775,0 -47.47875200158758,11.02515673914671 -62.90324135684148,28.771413307695212 c-2.0932905193966778,-1.2663343884463336 -4.538083644790147,-2.008189888471139 -7.1632531074714425,-2.008189888471139 H33.85339843057025 C26.19156662669809,309.25711261789456 19.97922056913376,315.46945867545895 19.97922056913376,323.1312904793311 v138.7464036486543 c0,7.6627568107300394 6.212346057564335,13.874177861436488 13.874177861436488,13.874177861436488 h55.49856145946172 c7.6627568107300394,0 13.874177861436488,-6.212346057564335 13.874177861436488,-13.874177861436488 v-2.2098413834903505 c21.561909857329454,11.105632335782817 45.72123897160362,16.977575869644994 70.04151927915,16.977575869644994 h141.45389872168747 c77.75885149449533,0 146.52386130976225,-49.47029176661676 171.11424361981142,-123.23958868304851 l5.5981415039278355,-16.793499504925627 C500.3223317734745,309.9517927681672 480.5216349735606,282.4938891986705 452.4291766995539,282.4938891986705 zM75.47778202859548,448.00351626654884 H47.72850129886462 V337.0063933476255 h27.74928072973086 V448.00351626654884 zM465.1091707074592,327.83680036539863 l-5.5981415039278355,16.79442451178351 c-20.806179254436355,62.420387777024835 -78.99281064291566,104.35834869987353 -144.78947345122543,104.35834869987353 H173.26858203747634 c-24.848459223399452,0 -49.486941890058716,-7.618356481551498 -70.04151927915,-21.530459624161324 v-68.12953010389903 c0.8158560486557096,-1.3431099576508956 1.4291355954343203,-2.8379210399951424 1.7556630162681826,-4.467783123590788 c0.0018500137157725853,-0.010175075436749228 0.003700027431545172,-0.019425144015612156 0.006475048005204055,-0.02960021945236135 c5.142113122989895,-25.83821656133778 28.03140782138618,-44.5890305775508 54.42925353174516,-44.5890305775508 c11.71336184141411,0 22.909644849269785,3.6019767046092195 32.37709003973598,10.417427233515415 c15.702916419477685,11.303583803370485 36.565521092245106,17.194952481248272 60.332647298775484,17.214377625263886 c30.35502504839655,0.024975185162929927 61.88943384059811,0.024975185162929927 61.88943384059811,0.024975185162929927 c7.650731721577518,0 13.874177861436488,6.316871832505485 13.874177861436488,13.966678547225117 s-6.224371146716856,13.875102868294373 -13.874177861436488,13.875102868294373 H201.04283795237012 c-7.6627568107300394,0 -13.874177861436488,6.212346057564335 -13.874177861436488,13.874177861436488 s6.212346057564335,13.781677175647859 13.874177861436488,13.781677175647859 h143.01068526351008 c38.08345734603651,0 72.68333886527324,-22.39349102256923 88.15130354284781,-57.1940990299673 l8.010559389295285,-18.022833619056506 c2.143240889722538,-4.8220607501612385 6.937551434147187,-7.938408854380155 12.21471555838848,-7.938408854380155 C461.56454442803897,310.2431699284014 467.99889213149595,319.17133612071984 465.1091707074592,327.83680036539863 z" data-original="#000000" class="active-path" data-old_color="#000000" fill="#00af17" id="svg_7" fill-opacity="1"/>
	</g>
</g><g id="svg_8" fill="#00af17" fill-opacity="1">
	<g id="svg_9" fill="#00af17" fill-opacity="1">
		<path d="M424.19334236257487,87.2628667800477 H233.5142786916105 c-15.61504076797849,-32.78409305720594 -49.07253881772566,-55.49856145946172 -87.73875048423054,-55.49856145946172 c-53.55327203732685,0 -97.12202005062906,43.56874801330222 -97.12202005062906,97.12202005062906 S92.22225617005313,226.009270428702 145.77552820737998,226.009270428702 c38.66621166650488,0 72.12278470939415,-22.71446840225578 87.73875048423054,-55.49856145946172 h65.80776289060445 v41.62345859116734 c0,22.951270157874667 18.672188433292682,41.62345859116734 41.62345859116734,41.62345859116734 c10.651453968560649,0 20.379751092950773,-4.02100481123171 27.74928072973086,-10.624628769681944 c7.3695296367800855,6.603623958450236 17.097826761170214,10.624628769681944 27.74928072973086,10.624628769681944 c22.951270157874667,0 41.62345859116734,-18.672188433292682 41.62345859116734,-41.62345859116734 V168.12419127589365 c16.148769724978877,-5.727642464031918 27.74928072973086,-21.149356798712173 27.74928072973086,-39.23694089782071 C465.81680095374224,105.93598022019826 447.1446125204496,87.2628667800477 424.19334236257487,87.2628667800477 zM145.77552820737998,198.25998969897117 c-38.2527336010297,0 -69.37273932089822,-31.12093072672639 -69.37273932089822,-69.37273932089822 c0,-38.2527336010297 31.12093072672639,-69.37273932089822 69.37273932089822,-69.37273932089822 c38.2527336010297,0 69.37273932089822,31.12093072672639 69.37273932089822,69.37273932089822 C215.14919253513605,167.13905897224475 184.02826180840967,198.25998969897117 145.77552820737998,198.25998969897117 zM410.3182394942805,212.13509256726553 c0,7.650731721577518 -6.224371146716856,13.874177861436488 -13.875102868294373,13.874177861436488 c-7.650731721577518,0 -13.874177861436488,-6.224371146716856 -13.874177861436488,-13.874177861436488 c0,-7.6627568107300394 -6.212346057564335,-13.875102868294373 -13.874177861436488,-13.875102868294373 s-13.875102868294373,6.212346057564335 -13.875102868294373,13.875102868294373 c0,7.650731721577518 -6.224371146716856,13.874177861436488 -13.874177861436488,13.874177861436488 s-13.874177861436488,-6.224371146716856 -13.874177861436488,-13.874177861436488 V170.5107089692403 h83.24784218919258 V212.13509256726553 zM424.19334236257487,142.76142823950943 c-4.426157814985906,0 -180.3874373701215,0 -182.2901764767936,0 c0.6512048279519493,-4.533458610500715 0.9953073790856493,-9.16404294107949 0.9953073790856493,-13.874177861436488 c0,-4.711059927214882 -0.3441025511337009,-9.341644257793659 -0.9953073790856493,-13.875102868294373 h182.2901764767936 c7.650731721577518,0 13.875102868294373,6.224371146716856 13.875102868294373,13.875102868294373 C438.06752022401133,136.53705709279257 431.8431490772945,142.76142823950943 424.19334236257487,142.76142823950943 z" data-original="#000000" class="active-path" data-old_color="#000000" fill="#00af17" id="svg_10" fill-opacity="1"/>
	</g>
</g></g></g></svg>