<svg xmlns="http://www.w3.org/2000/svg" width="60" height="60" viewBox="0 0 60 60">
    <g fill="none" transform="translate(0 5)">
        <path fill="#CDEDF9" d="M57.93 29.85l-42 19.56c-1.8.84-3.96.06-4.77-1.74L.45 24.75c-.84-1.8-.06-3.96 1.74-4.77L44.16.39c1.8-.84 3.96-.06 4.77 1.74l10.71 22.95c.87 1.77.09 3.93-1.71 4.77z"/>
        <g fill="#64D4F2">
            <path d="M4.14 4.83c-.06-.39-.15-.78-.33-1.11-.18-.36-.39-.69-.66-.96-.21-.24-.45-.42-.72-.6-.36-.24-.87-.12-1.11.24-.24.39-.12.87.24 1.11.15.09.27.21.39.33.15.15.27.33.36.54.09.21.15.42.18.63.03.18.03.36 0 .51-.06.45.24.84.69.9.15.03.3 0 .45-.06.24-.12.42-.33.45-.63.09-.3.09-.6.06-.9z" transform="translate(41.7 6.3)"/>
            <path d="M2.1 4.5c-.12-.24-.27-.48-.45-.66-.3-.33-.81-.33-1.14-.03-.33.3-.33.81-.03 1.14.06.06.12.15.18.24.03.09.06.18.09.3.06.45.45.75.9.69.09 0 .18-.03.24-.06.3-.15.51-.48.45-.81-.06-.3-.15-.57-.24-.81zM3.18.36C2.79.15 2.31.33 2.1.72c-.21.39-.03.87.36 1.08.78.39 1.38.99 1.74 1.77.36.78.45 1.65.24 2.46-.12.42.15.87.6.96.18.06.36.03.54-.06.21-.09.39-.3.45-.54.3-1.17.15-2.43-.36-3.54C5.13 1.8 4.26.9 3.18.36z" transform="translate(41.7 6.3)"/>
        </g>
        <path fill="#F4B362" d="M45.24 34.77c1.92-3.51 2.28-7.62.6-11.22-.9-1.92-2.25-3.42-3.9-4.47-.03-.03-.09-.06-.09-.12-.48-1.41-1.44-3.39-3.3-6.15-3.87-5.82-5.52-4.56-6-3.93-.09.15-.15.3-.15.48l.21 7.62c0 .21-.12.36-.33.39-1.65.27-3.33.78-4.98 1.56-1.86.87-3.54 1.98-4.89 3.27-.15.15-.39.15-.54 0l-5.88-5.19c-.12-.12-.3-.18-.48-.18-.81-.06-2.85.42-.87 7.11 1.02 3.39 1.95 5.46 2.76 6.72.12.18.24.3.39.42.06.06.09.12.09.21-.06 1.62.27 3.27 1.02 4.86 1.68 3.57 5.01 5.91 8.88 6.72.36.06.63.39.63.72l2.22-1.02-.09-.24s-.09-.93-1.77-1.26c0 0-7.65-1.89-5.34-8.37 2.31-6.48 9.03-2.61 9.03-2.61s1.32-7.65 7.8-5.25c6.48 2.4 3 9.42 3 9.42-.84 1.47-.18 2.16-.18 2.16l.15.27 2.13-.99c-.24-.24-.3-.6-.12-.93z"/>
        <path fill="#FEFBF7" d="M43.26 34.26s3.48-7.02-3-9.42c-6.48-2.4-7.8 5.25-7.8 5.25s-6.72-3.87-9.03 2.61c-2.31 6.48 5.34 8.37 5.34 8.37 1.68.33 1.77 1.26 1.77 1.26l.09.24 12.6-5.85-.15-.27c0-.03-.66-.72.18-2.19z"/>
        <g transform="translate(24.3 21)">
            <path fill="#5C2C0A" d="M10.47 4.35c.18-.24.27-.57.3-.66v-.03c.12-.39.39-.75.78-.93.51-.24 1.08-.15 1.5.15l.03.03.03.03.03.03c.21.18.48.33.69.42.12.06.18.21.09.33-.18.24-.36.63-.36.63-.09.42-.39.78-.81.99-.57.27-1.2.12-1.62-.27l-.09-.09c-.12-.12-.33-.24-.51-.3-.12-.03-.15-.21-.06-.33zM3.12 7.8c-.27-.03-.6-.15-.69-.21H2.4c-.36-.18-.81-.18-1.2 0-.51.24-.81.72-.84 1.23v.15c0 .3-.06.6-.12.81-.03.15.06.27.21.3.3.03.72.12.72.12.39.18.84.21 1.26.03.57-.27.87-.84.84-1.41V8.7c0-.18.06-.42.12-.6-.03-.15-.12-.3-.27-.3z"/>
            <circle cx="1.5" cy="8.49" r="1" fill="#FCFCFC"/>
            <circle cx="11.4" cy="3.9" r="1" fill="#FCFCFC"/>
            <ellipse cx="1.517" cy="5.708" fill="#FEFBF7" rx="1" ry="1.2" transform="rotate(-70.001 1.517 5.708)"/>
            <ellipse cx="10.095" cy="1.67" fill="#FEFBF7" rx="1.2" ry="1" transform="rotate(-70.001 10.095 1.67)"/>
        </g>
        <path fill="#FEFBF7" d="M20.76 22.38l-4.5-3.99c-.18-.15-.42-.24-.66-.18-.6.12-1.5.87-.33 4.83.69 2.31 1.32 3.72 1.86 4.56.42.69 1.47.6 1.77-.18.39-.96 1.02-2.31 2.01-3.75.3-.39.21-.96-.15-1.29zM33.48 16.44l-.15-6c0-.24.09-.48.27-.63.48-.39 1.62-.6 3.9 2.85 1.32 2.01 1.98 3.42 2.31 4.38.27.78-.48 1.5-1.26 1.23-.99-.33-2.43-.72-4.17-.87-.51-.06-.87-.45-.9-.96z"/>
        <path fill="#5C2C0A" d="M39.15 31.83c-.21-.09-.42.03-.51.24-.66 1.83-3.12 1.62-3.99 1.47-.09-.03-.15-.06-.18-.15l-.18-.39v-.03c1.2-.75 1.74-2.16 1.2-3.33-.6-1.26-2.25-1.74-3.69-1.08-1.44.66-2.13 2.25-1.53 3.51.54 1.17 1.98 1.68 3.33 1.23v.03l.18.39c.03.06.03.15 0 .21-.45.75-1.83 2.79-3.69 2.13-.21-.06-.42.03-.51.21-.09.21.03.45.24.54.78.27 1.53.24 2.28-.12.45-.21.87-.51 1.26-.93.48-.48.84-.99 1.02-1.35.06-.09.15-.12.24-.12.39.06 1.02.12 1.71.06.57-.06 1.08-.18 1.53-.39.75-.36 1.26-.93 1.56-1.68.06-.15-.06-.36-.27-.45z"/>
        <path fill="#E41A23" d="M48.3 27.3c-.42-.93-.42-1.95-.03-2.82-.75-.21-1.59-.18-2.34.18-1.68.78-2.43 2.79-1.65 4.5.78 1.68 2.79 2.43 4.5 1.65.78-.36 1.32-.96 1.65-1.68-.9-.24-1.71-.9-2.13-1.83z"/>
        <path fill="#F89F20" d="M49.95 22.83c-.78.36-1.32.96-1.65 1.68.9.27 1.71.9 2.16 1.83.42.93.42 1.95.03 2.82.75.21 1.59.18 2.34-.18 1.68-.78 2.43-2.79 1.65-4.5-.84-1.71-2.85-2.46-4.53-1.65z"/>
        <ellipse cx="49.379" cy="26.82" fill="#F66625" rx="1.17" ry="2.55" transform="rotate(-24.999 49.379 26.82)"/>
        <path fill="#64D4F2" d="M14.67 27.93l-3.96 1.83c-1.35.63-1.92 2.22-1.29 3.57l.93 1.98c.63 1.35 2.22 1.92 3.57 1.29l3.96-1.83c1.35-.63 1.92-2.22 1.29-3.57l-.93-1.98c-.63-1.35-2.22-1.92-3.57-1.29zm-.84 4.74l-.18-.36 3.48-1.62.18.36-3.48 1.62zm2.37-3.33l-3.21 1.5-.15-.3 2.52-1.17c.27-.12.57-.12.84-.03zm-4.41 5.28l-.93-1.98c-.24-.54-.03-1.17.51-1.41l1.83 3.93c-.51.21-1.14 0-1.41-.54zm5.4-1.32l-2.52 1.17-.18-.36 3.27-1.53c-.06.3-.27.57-.57.72z"/>
    </g>
</svg>
