<svg xmlns="http://www.w3.org/2000/svg" width="28" height="42" viewBox="0 0 28 42">
    <defs>
        <linearGradient id="ldjngt4o9a" x1="50%" x2="50%" y1="0%" y2="100%">
            <stop offset="0%" stop-color="#333bb3"/>
            <stop offset="100%" stop-color="#07115d"/>
        </linearGradient>
        <linearGradient id="vhrbfpa2gb" x1="50%" x2="50%" y1="0%" y2="100%">
            <stop offset="0%" stop-color="#333bb3"/>
            <stop offset="100%" stop-color="#07115d"/>
        </linearGradient>
        <linearGradient id="v7id6qig8c" x1="50%" x2="50%" y1="0%" y2="100%">
            <stop offset="0%" stop-color="#333bb3"/>
            <stop offset="100%" stop-color="#07115d"/>
        </linearGradient>
        <linearGradient id="ww5a32dl3d" x1="50%" x2="50%" y1="0%" y2="100%">
            <stop offset="0%" stop-color="#333bb3"/>
            <stop offset="100%" stop-color="#07115d"/>
        </linearGradient>
    </defs>
    <g fill="none" fill-rule="evenodd">
        <g>
            <g>
                <path stroke="url(#ldjngt4o9a)" d="M0 3.444C0 1.549 1.55 0 3.443 0h18.688c1.894 0 3.443 1.55 3.443 3.444v32.94c0 1.893-1.55 3.442-3.443 3.442H3.443C1.55 39.826 0 38.277 0 36.383V7.057" transform="translate(-1329 -19) translate(1330 20)"/>
                <path stroke="url(#vhrbfpa2gb)" d="M2.264 11.763v-5.02c0-.65.53-1.18 1.179-1.18h18.688c.649 0 1.18.53 1.18 1.179v5.02c0 .649-.531 1.18-1.18 1.18H3.443c-.648 0-1.179-.531-1.179-1.18z" transform="translate(-1329 -19) translate(1330 20)"/>
                <path stroke="url(#v7id6qig8c)" d="M2.264 18.734v-1.331c0-.648.53-1.18 1.179-1.18h2.87c.649 0 1.18.53 1.18 1.18v1.331c0 .648-.531 1.18-1.18 1.18h-2.87c-.648 0-1.179-.532-1.179-1.18z" transform="translate(-1329 -19) translate(1330 20)"/>
                <path stroke="url(#ww5a32dl3d)" d="M2.264 24.055v-1.33c0-.65.53-1.18 1.179-1.18h2.87c.649 0 1.18.53 1.18 1.179v1.331c0 .648-.531 1.179-1.18 1.179h-2.87c-.648 0-1.179-.53-1.179-1.179z" transform="translate(-1329 -19) translate(1330 20)"/>
                <path stroke="url(#v7id6qig8c)" d="M2.264 29.377v-1.332c0-.648.53-1.18 1.179-1.18h2.87c.649 0 1.18.531 1.18 1.18v1.332c0 .648-.531 1.178-1.18 1.178h-2.87c-.648 0-1.179-.53-1.179-1.178z" transform="translate(-1329 -19) translate(1330 20)"/>
                <path stroke="url(#ww5a32dl3d)" d="M2.264 35.452v-1.33c0-.65.53-1.18 1.179-1.18h2.87c.649 0 1.18.53 1.18 1.179v1.331c0 .649-.531 1.18-1.18 1.18h-2.87c-.648 0-1.179-.531-1.179-1.18z" transform="translate(-1329 -19) translate(1330 20)"/>
                <path stroke="url(#v7id6qig8c)" d="M10.173 18.734v-1.331c0-.648.53-1.18 1.18-1.18h2.869c.649 0 1.18.53 1.18 1.18v1.331c0 .648-.531 1.18-1.18 1.18h-2.87c-.648 0-1.179-.532-1.179-1.18z" transform="translate(-1329 -19) translate(1330 20)"/>
                <path stroke="url(#ww5a32dl3d)" d="M10.173 24.055v-1.33c0-.65.53-1.18 1.18-1.18h2.869c.649 0 1.18.53 1.18 1.179v1.331c0 .648-.531 1.179-1.18 1.179h-2.87c-.648 0-1.179-.53-1.179-1.179z" transform="translate(-1329 -19) translate(1330 20)"/>
                <path stroke="url(#v7id6qig8c)" d="M10.173 29.377v-1.332c0-.648.53-1.18 1.18-1.18h2.869c.649 0 1.18.531 1.18 1.18v1.332c0 .648-.531 1.178-1.18 1.178h-2.87c-.648 0-1.179-.53-1.179-1.178z" transform="translate(-1329 -19) translate(1330 20)"/>
                <path stroke="url(#ww5a32dl3d)" d="M10.173 35.452v-1.33c0-.65.53-1.18 1.18-1.18h2.869c.649 0 1.18.53 1.18 1.179v1.331c0 .649-.531 1.18-1.18 1.18h-2.87c-.648 0-1.179-.531-1.179-1.18z" transform="translate(-1329 -19) translate(1330 20)"/>
                <path stroke="url(#v7id6qig8c)" d="M18.082 18.734v-1.331c0-.648.53-1.18 1.18-1.18h2.869c.649 0 1.18.53 1.18 1.18v1.331c0 .648-.531 1.18-1.18 1.18h-2.87c-.648 0-1.179-.532-1.179-1.18z" transform="translate(-1329 -19) translate(1330 20)"/>
                <path stroke="url(#ww5a32dl3d)" d="M18.082 24.055v-1.33c0-.65.53-1.18 1.18-1.18h2.869c.649 0 1.18.53 1.18 1.179v1.331c0 .648-.531 1.179-1.18 1.179h-2.87c-.648 0-1.179-.53-1.179-1.179z" transform="translate(-1329 -19) translate(1330 20)"/>
                <path stroke="url(#v7id6qig8c)" d="M18.082 29.377v-1.332c0-.648.53-1.18 1.18-1.18h2.869c.649 0 1.18.531 1.18 1.18v1.332c0 .648-.531 1.178-1.18 1.178h-2.87c-.648 0-1.179-.53-1.179-1.178z" transform="translate(-1329 -19) translate(1330 20)"/>
                <path stroke="url(#ww5a32dl3d)" d="M18.082 35.452v-1.33c0-.65.53-1.18 1.18-1.18h2.869c.649 0 1.18.53 1.18 1.179v1.331c0 .649-.531 1.18-1.18 1.18h-2.87c-.648 0-1.179-.531-1.179-1.18z" transform="translate(-1329 -19) translate(1330 20)"/>
            </g>
        </g>
    </g>
</svg>
