<?xml version="1.0" encoding="utf-8"?>
<!-- Generator: Adobe Illustrator 24.2.1, SVG Export Plug-In . SVG Version: 6.00 Build 0)  -->
<svg version="1.1" id="圖層_1" xmlns="http://www.w3.org/2000/svg" xmlns:xlink="http://www.w3.org/1999/xlink" x="0px" y="0px"
	 viewBox="0 0 300 300" style="enable-background:new 0 0 300 300;" xml:space="preserve">
<style type="text/css">
	.st0{fill:url(#SVGID_1_);}
	.st1{fill:url(#SVGID_2_);}
	.st2{fill:url(#SVGID_3_);}
	.st3{fill:url(#SVGID_4_);}
	.st4{fill:url(#SVGID_5_);}
	.st5{fill:url(#SVGID_6_);}
	.st6{fill:url(#SVGID_7_);}
	.st7{fill:url(#SVGID_8_);}
	.st8{fill:url(#SVGID_9_);}
	.st9{fill:url(#SVGID_10_);}
	.st10{fill:url(#SVGID_11_);}
	.st11{fill:url(#SVGID_12_);}
	.st12{fill:url(#SVGID_13_);}
	.st13{fill:url(#SVGID_14_);}
	.st14{fill:url(#SVGID_15_);}
	.st15{fill:url(#SVGID_16_);}
	.st16{fill:url(#SVGID_17_);}
	.st17{fill:url(#SVGID_18_);}
	.st18{fill:url(#SVGID_19_);}
	.st19{fill:url(#SVGID_20_);}
	.st20{fill:url(#SVGID_21_);}
	.st21{fill:url(#SVGID_22_);}
	.st22{fill:url(#SVGID_23_);}
	.st23{fill:url(#SVGID_24_);}
	.st24{fill:url(#SVGID_25_);}
	.st25{fill:url(#SVGID_26_);}
	.st26{fill:url(#SVGID_27_);}
	.st27{fill:url(#SVGID_28_);}
	.st28{fill:url(#SVGID_29_);}
	.st29{fill:url(#SVGID_30_);}
	.st30{fill:url(#SVGID_31_);}
	.st31{fill:url(#SVGID_32_);}
	.st32{fill:url(#SVGID_33_);}
	.st33{fill:none;}
	.st34{fill:url(#SVGID_34_);}
	.st35{fill:url(#SVGID_35_);}
	.st36{fill:url(#SVGID_36_);}
	.st37{fill:url(#SVGID_37_);}
	.st38{fill:url(#SVGID_38_);}
	.st39{fill:url(#SVGID_39_);}
	.st40{fill:url(#SVGID_40_);}
	.st41{fill:url(#SVGID_41_);}
	.st42{fill:url(#SVGID_42_);}
	.st43{fill:url(#SVGID_43_);}
	.st44{fill:url(#SVGID_44_);}
	.st45{fill:url(#SVGID_45_);}
	.st46{fill:url(#SVGID_46_);}
	.st47{fill:url(#SVGID_47_);}
</style>
<g>
	<linearGradient id="SVGID_1_" gradientUnits="userSpaceOnUse" x1="-9.094947e-13" y1="150" x2="225.0831" y2="150">
		<stop  offset="0" style="stop-color:#171C61"/>
		<stop  offset="0.1256" style="stop-color:#192568"/>
		<stop  offset="0.4986" style="stop-color:#1F3E79"/>
		<stop  offset="0.8033" style="stop-color:#234E85"/>
		<stop  offset="1" style="stop-color:#245489"/>
	</linearGradient>
	<path class="st0" d="M0,38.69c0.96-3.03,1.61-6.21,2.95-9.07C9.44,15.67,20.65,8.6,35.9,8.54c37.39-0.17,74.79-0.05,112.18-0.06
		c5.45,0,9.94,1.96,13.88,5.78c19.07,18.48,38.23,36.87,57.39,55.26c3.79,3.64,5.8,7.91,5.69,13.25
		c-0.13,6.54-0.02,13.08-0.05,19.62c0,0.85,0.03,1.86-0.38,2.54c-5.09,8.52-10.25,16.99-15.93,25.35c0-14.36,0-28.71,0-43.51
		c-1.34,0-2.37,0-3.4,0c-8.69,0-17.38,0.07-26.07-0.03c-19.59-0.23-34.71-15.33-35-34.97c-0.12-7.71-0.02-15.43-0.02-23.14
		c0-1.05,0-2.1,0-3.33c-1.02-0.06-1.77-0.14-2.52-0.14c-35.34-0.01-70.69-0.02-106.03,0.01c-9.18,0.01-16.19,5.26-18.36,13.76
		c-0.55,2.14-0.71,4.44-0.71,6.66c-0.04,69.51-0.03,139.03-0.02,208.54c0,10.34,4.78,17.38,13.55,19.77
		c2.23,0.61,4.61,0.85,6.93,0.85c50.38,0.05,100.76,0.05,151.13,0.03c12.65,0,20.36-7.77,20.42-20.47
		c0.02-5.17-0.03-10.35,0.04-15.52c0.01-1.01,0.3-2.08,0.73-3c0.41-0.86,1.18-1.54,1.78-2.31c4.46-5.67,8.91-11.35,13.59-17.31
		c0.15,0.78,0.34,1.28,0.34,1.79c-0.01,13.47,0.12,26.95-0.12,40.42c-0.3,16.82-14.75,31.76-31.48,32.86
		c-2.92,0.19-5.85,0.3-8.77,0.3c-49.11,0.02-98.22,0-147.33,0.03c-8.63,0.01-16.6-1.88-23.55-7.26
		c-7.17-5.55-11.62-12.73-13.25-21.67c-0.08-0.45-0.36-0.86-0.55-1.29C0,187.12,0,112.9,0,38.69z"/>
	<linearGradient id="SVGID_2_" gradientUnits="userSpaceOnUse" x1="168.2391" y1="160.0568" x2="300" y2="160.0568">
		<stop  offset="0" style="stop-color:#171C61"/>
		<stop  offset="0.1256" style="stop-color:#192568"/>
		<stop  offset="0.4986" style="stop-color:#1F3E79"/>
		<stop  offset="0.8033" style="stop-color:#234E85"/>
		<stop  offset="1" style="stop-color:#245489"/>
	</linearGradient>
	<path class="st1" d="M285,95.82c3.61,2.09,7.15,4.13,10.67,6.2c4.68,2.75,5.5,5.77,2.79,10.46
		c-12.71,21.92-25.44,43.83-38.16,65.75c-1.56,2.69-2.43,2.87-5.06,1.17c-2.94-1.9-4.32-5.27-3.31-8.61
		c0.44-1.47,1.18-2.88,1.95-4.22c10.41-17.96,20.86-35.9,31.29-53.85c0.53-0.91,1-1.85,1.63-3.02c-2.29-1.32-4.44-2.57-6.77-3.92
		c-2.45,4.15-4.77,8.07-7.08,11.99c-16.26,27.67-33.13,54.94-51.76,81.09c-10.81,15.18-21.97,30.13-34.84,43.67
		c-3.6,3.79-7.77,7.08-11.91,10.31c-1.06,0.83-3.37,1.17-4.44,0.56c-1.05-0.6-1.76-2.69-1.74-4.12c0.06-7.36,2.87-14.09,5.5-20.76
		c12.97-32.92,29.89-63.86,48.12-94.08c10.67-17.69,21.9-35.05,33.09-52.42c3.42-5.32,7.4-10.31,12.95-13.74
		c2.82-1.74,5.81-2.51,8.91-1.36c9.21,3.39,14.41,9.28,11.38,19.4C287.25,89.48,286.1,92.57,285,95.82z"/>
	<linearGradient id="SVGID_3_" gradientUnits="userSpaceOnUse" x1="34.7706" y1="160.2557" x2="190.3182" y2="160.2557">
		<stop  offset="0" style="stop-color:#171C61"/>
		<stop  offset="0.1256" style="stop-color:#192568"/>
		<stop  offset="0.4986" style="stop-color:#1F3E79"/>
		<stop  offset="0.8033" style="stop-color:#234E85"/>
		<stop  offset="1" style="stop-color:#245489"/>
	</linearGradient>
	<path class="st2" d="M112.52,168.66c-22.44,0-44.88,0.01-67.32-0.02c-1.54,0-3.14-0.12-4.61-0.55c-3.46-0.99-5.86-4.42-5.81-7.93
		c0.05-3.39,2.42-6.76,5.72-7.72c1.56-0.45,3.26-0.57,4.9-0.57c44.69-0.03,89.37-0.02,134.06-0.02c6.78,0,10.83,3.13,10.86,8.36
		c0.03,5.26-4.02,8.44-10.77,8.45C157.2,168.66,134.86,168.66,112.52,168.66z"/>
	<linearGradient id="SVGID_4_" gradientUnits="userSpaceOnUse" x1="34.8413" y1="193.2734" x2="179.1209" y2="193.2734">
		<stop  offset="0" style="stop-color:#171C61"/>
		<stop  offset="0.1256" style="stop-color:#192568"/>
		<stop  offset="0.4986" style="stop-color:#1F3E79"/>
		<stop  offset="0.8033" style="stop-color:#234E85"/>
		<stop  offset="1" style="stop-color:#245489"/>
	</linearGradient>
	<path class="st3" d="M179.12,185.1c-2.61,5.44-4.95,10.45-7.44,15.39c-0.28,0.56-1.34,0.95-2.08,1.02
		c-1.65,0.15-3.31,0.05-4.97,0.05c-40.11,0-80.22,0-120.34,0c-5.25,0-8.49-2.45-9.32-6.99c-0.8-4.36,2.3-8.74,6.71-9.4
		c1.15-0.17,2.33-0.2,3.5-0.2c43.63-0.01,87.25-0.01,130.88,0C176.92,184.96,177.78,185.04,179.12,185.1z"/>
	<linearGradient id="SVGID_5_" gradientUnits="userSpaceOnUse" x1="34.8565" y1="226.183" x2="163.9167" y2="226.183">
		<stop  offset="0" style="stop-color:#171C61"/>
		<stop  offset="0.1256" style="stop-color:#192568"/>
		<stop  offset="0.4986" style="stop-color:#1F3E79"/>
		<stop  offset="0.8033" style="stop-color:#234E85"/>
		<stop  offset="1" style="stop-color:#245489"/>
	</linearGradient>
	<path class="st4" d="M163.92,217.95c-1.86,5.24-3.54,10.2-5.43,15.07c-0.26,0.67-1.57,1.3-2.41,1.32
		c-4.58,0.13-9.17,0.06-13.76,0.06c-32.69,0-65.37,0-98.06-0.01c-5.2,0-8.33-2.3-9.24-6.69c-0.98-4.74,2.44-9.33,7.27-9.72
		c0.87-0.07,1.76-0.05,2.63-0.05c38.64,0,77.27,0,115.91,0C161.79,217.95,162.74,217.95,163.92,217.95z"/>
	<linearGradient id="SVGID_6_" gradientUnits="userSpaceOnUse" x1="45.5045" y1="93.3477" x2="88.1782" y2="93.3477">
		<stop  offset="0" style="stop-color:#171C61"/>
		<stop  offset="0.1256" style="stop-color:#192568"/>
		<stop  offset="0.4986" style="stop-color:#1F3E79"/>
		<stop  offset="0.8033" style="stop-color:#234E85"/>
		<stop  offset="1" style="stop-color:#245489"/>
	</linearGradient>
	<path class="st5" d="M66.14,52.17c5.11-0.01,5.32,0.08,5.28,5.21c-0.02,2.6,1.08,3.62,3.47,4.07c2.66,0.51,5.28,1.27,7.87,2.07
		c1.87,0.58,2.56,1.93,1.95,3.9c-0.63,2.04-1.13,4.12-1.75,6.17c-0.51,1.7-1.41,2.11-3.31,1.58c-3.81-1.07-7.72-1.78-11.62-2.45
		c-1.09-0.19-2.53-0.07-3.4,0.51c-1.59,1.06-3.75,2.41-4.03,3.94c-0.27,1.51,1.06,4.01,2.46,4.98c2.75,1.91,5.99,3.17,9.1,4.52
		c5.04,2.19,10.01,4.42,13.09,9.32c6.23,9.91,2.11,22.44-8.82,26.86c-4.4,1.78-4.28,1.78-4.45,6.5c-0.06,1.69-0.53,4.59-1.34,4.79
		c-2.53,0.63-5.33,0.33-8.01,0.13c-0.44-0.03-0.82-1.37-1.14-2.13c-0.14-0.34-0.07-0.77-0.09-1.16c-0.32-5.54-0.34-5.46-5.64-6.66
		c-2.64-0.6-5.21-1.5-7.8-2.33c-2.04-0.65-2.67-2.14-2.16-4.13c0.53-2.07,1.12-4.13,1.69-6.19c0.52-1.87,1.45-2.27,3.47-1.71
		c4.54,1.28,9.18,2.33,13.84,3.07c1.59,0.25,3.48-0.42,5.04-1.11c4.1-1.81,4.83-6.66,1.34-9.53c-1.76-1.45-4.01-2.33-6.09-3.38
		c-4.16-2.1-8.64-3.69-12.46-6.27c-9.82-6.65-9.4-21.03,0.54-27.62c0.32-0.21,0.64-0.48,1.01-0.59c5-1.5,7.95-4.21,6.93-10.06
		C60.78,52.51,61.87,52.17,66.14,52.17z"/>
	<linearGradient id="SVGID_7_" gradientUnits="userSpaceOnUse" x1="96.8699" y1="127.3121" x2="191.0263" y2="127.3121">
		<stop  offset="0" style="stop-color:#171C61"/>
		<stop  offset="0.1256" style="stop-color:#192568"/>
		<stop  offset="0.4986" style="stop-color:#1F3E79"/>
		<stop  offset="0.8033" style="stop-color:#234E85"/>
		<stop  offset="1" style="stop-color:#245489"/>
	</linearGradient>
	<path class="st6" d="M144.07,118.98c12.77,0,25.55-0.03,38.32,0.02c4.28,0.02,7.58,2.72,8.45,6.69c0.8,3.63-1.17,7.63-4.76,9.09
		c-1.48,0.6-3.22,0.83-4.83,0.84c-24.87,0.05-49.73,0.06-74.6,0.02c-6.98-0.01-11.16-4.91-9.37-10.75c1.11-3.63,4.24-5.87,8.46-5.88
		C118.52,118.96,131.3,118.98,144.07,118.98z"/>
</g>
</svg>
