<svg id="圖層_1" data-name="圖層 1" xmlns="http://www.w3.org/2000/svg" xmlns:xlink="http://www.w3.org/1999/xlink" viewBox="0 0 512 512"><defs><linearGradient id="未命名漸層_128" x1="-53.3" y1="628.76" x2="629.71" y2="-54.26" gradientUnits="userSpaceOnUse"><stop offset="0" stop-color="#003a77"/><stop offset="0.09" stop-color="#004f8f"/><stop offset="0.6" stop-color="#00b0cf"/><stop offset="0.8" stop-color="#00f0ff"/><stop offset="1" stop-color="#bcffff"/></linearGradient><linearGradient id="未命名漸層_129" x1="408.5" y1="134.02" x2="470.76" y2="4.88" gradientUnits="userSpaceOnUse"><stop offset="0" stop-color="#57c0da"/><stop offset="1" stop-color="#1d5398"/></linearGradient><linearGradient id="未命名漸層_142" x1="325.9" y1="68.91" x2="495.41" y2="99.53" gradientUnits="userSpaceOnUse"><stop offset="0" stop-color="#fff" stop-opacity="0"/><stop offset="0.11" stop-color="#fff" stop-opacity="0.27"/><stop offset="0.24" stop-color="#fff" stop-opacity="0.58"/><stop offset="0.36" stop-color="#fff" stop-opacity="0.81"/><stop offset="0.44" stop-color="#fff" stop-opacity="0.95"/><stop offset="0.48" stop-color="#fff"/><stop offset="0.58" stop-color="#fff" stop-opacity="0.74"/><stop offset="0.7" stop-color="#fff" stop-opacity="0.48"/><stop offset="0.8" stop-color="#fff" stop-opacity="0.27"/><stop offset="0.89" stop-color="#fff" stop-opacity="0.12"/><stop offset="0.96" stop-color="#fff" stop-opacity="0.03"/><stop offset="1" stop-color="#fff" stop-opacity="0"/></linearGradient><linearGradient id="未命名漸層_128-2" x1="8.8" y1="690.87" x2="691.82" y2="7.85" xlink:href="#未命名漸層_128"/><linearGradient id="未命名漸層_112" x1="-5265.74" y1="1974.35" x2="-5203.48" y2="1845.21" gradientTransform="translate(-566.34 5965.18) rotate(119.77)" gradientUnits="userSpaceOnUse"><stop offset="0" stop-color="#00aece"/><stop offset="1" stop-color="#000c29"/></linearGradient><linearGradient id="未命名漸層_142-2" x1="-5348.34" y1="1909.24" x2="-5178.84" y2="1939.86" gradientTransform="translate(-566.34 5965.18) rotate(119.77)" xlink:href="#未命名漸層_142"/><linearGradient id="未命名漸層_128-3" x1="-167.61" y1="514.45" x2="515.4" y2="-168.57" xlink:href="#未命名漸層_128"/><linearGradient id="未命名漸層_112-2" x1="-856.39" y1="6108.56" x2="-794.13" y2="5979.42" gradientTransform="matrix(-0.5, -0.87, 0.87, -0.5, -5584.48, 2532.82)" xlink:href="#未命名漸層_112"/><linearGradient id="未命名漸層_142-3" x1="-938.99" y1="6043.46" x2="-769.49" y2="6074.07" gradientTransform="matrix(-0.5, -0.87, 0.87, -0.5, -5584.48, 2532.82)" xlink:href="#未命名漸層_142"/><linearGradient id="未命名漸層_128-4" x1="234.66" y1="329.69" x2="350.65" y2="151.55" xlink:href="#未命名漸層_128"/></defs><title>1-13v2.0</title><path d="M441.94,31.05a93.61,93.61,0,0,0-36.92-18c-39.67-9.18-83.38,9.17-110.72,46.59h0c45.77-7.82,75.22,3.29,89.68,10.6,30.25,15.3,54,44,69,81.33,12.48,31.14,18.84,68.3,17.68,108.89,0,1.16-.1,2.33-.14,3.49a355.85,355.85,0,0,1-4.09,41.5q-2.69,16.95-7.07,34.36h0s29.46-85.34,30-171.1c.22-33.43-4-66.9-16-95.42A114.42,114.42,0,0,0,441.94,31.05Z" fill="url(#未命名漸層_128)"/><path d="M294.3,59.64h0c45.77-7.82,75.22,3.29,89.68,10.6,30.25,15.3,54,44,69,81.33,12.48,31.14,18.84,68.3,17.68,108.89,0,1.16-.1,2.33-.14,3.49a355.85,355.85,0,0,1-4.09,41.5q-2.69,16.95-7.07,34.36h0s29.46-85.34,30-171.1C481.31-9.94,294.3,59.64,294.3,59.64Z" fill="url(#未命名漸層_129)"/><path d="M489.38,168.71c.22-33.42-4-66.9-16-95.42a114.42,114.42,0,0,0-31.45-42.24,93.61,93.61,0,0,0-36.92-18c-39.67-9.18-83.38,9.17-110.72,46.59C294.3,59.64,481.31-9.94,489.38,168.71Z" opacity="0.9" fill="url(#未命名漸層_142)"/><path d="M407.36,494.26a93.57,93.57,0,0,0,34-23.11c27.67-29.87,33.44-76.93,14.54-119.24h0c-15.94,43.61-40.2,63.66-53.73,72.58-28.31,18.66-65,25.05-104.86,19.5-33.22-4.63-68.64-17.56-103.29-38.72-1-.61-2-1.24-3-1.86a353.36,353.36,0,0,1-34-24.15q-13.38-10.74-26.32-23.2h0s59.45,67.95,133.61,111c28.9,16.79,60,29.77,90.76,33.51A114.32,114.32,0,0,0,407.36,494.26Z" fill="url(#未命名漸層_128-2)"/><path d="M455.86,351.91h0c-15.94,43.61-40.2,63.66-53.73,72.58-28.31,18.66-65,25.05-104.86,19.5-33.22-4.63-68.64-17.56-103.29-38.72-1-.61-2-1.24-3-1.86a353.36,353.36,0,0,1-34-24.15q-13.38-10.74-26.32-23.2h0s59.45,67.95,133.61,111C423.39,548.79,455.86,351.91,455.86,351.91Z" fill="url(#未命名漸層_112)"/><path d="M264.32,467.08c28.9,16.79,60,29.77,90.76,33.51a114.32,114.32,0,0,0,52.28-6.33,93.57,93.57,0,0,0,34-23.11c27.67-29.87,33.44-76.93,14.54-119.24C455.86,351.91,423.39,548.79,264.32,467.08Z" opacity="0.75" fill="url(#未命名漸層_142-2)"/><path d="M23.64,232.07a93.67,93.67,0,0,0,2.95,41c12,38.92,49.76,67.52,95.84,72.41h0c-29.72-35.68-34.89-66.73-35.81-82.9-1.94-33.85,10.94-68.79,35.75-100.48C143,135.66,172,111.51,207.7,92.16c1-.55,2.06-1.09,3.09-1.63a354.37,354.37,0,0,1,37.94-17.28q16-6.18,33.28-11.12h0S193.4,79.45,118.93,122c-29,16.58-55.88,37-74.53,61.7A114.38,114.38,0,0,0,23.64,232.07Z" fill="url(#未命名漸層_128-3)"/><path d="M122.43,345.46h0c-29.72-35.68-34.89-66.73-35.81-82.9-1.94-33.85,10.94-68.79,35.75-100.48C143,135.66,172,111.51,207.7,92.16c1-.55,2.06-1.09,3.09-1.63a354.37,354.37,0,0,1,37.94-17.28q16-6.18,33.28-11.12h0S193.4,79.45,118.93,122C-31.57,218.58,122.43,345.46,122.43,345.46Z" fill="url(#未命名漸層_112-2)"/><path d="M118.93,122c-29,16.58-55.88,37-74.53,61.7a114.52,114.52,0,0,0-20.76,48.39,93.67,93.67,0,0,0,2.95,41c12,38.92,49.76,67.52,95.84,72.41C122.43,345.46-31.57,218.58,118.93,122Z" opacity="0.4" fill="url(#未命名漸層_142-3)"/><path d="M238.43,306.7a40.73,40.73,0,0,0,7.75,11.61A44.32,44.32,0,0,0,259,327.63q7.74,3.87,18.87,3.87,11.85,0,19-4.36a29.8,29.8,0,0,0,11-11.61A48.42,48.42,0,0,0,313,298.71a158.21,158.21,0,0,0,1.21-20q0-6.76-.48-14.39a41.08,41.08,0,0,0-3.39-14.16A25,25,0,0,0,301,239.43q-6.42-4.22-18.27-4.23a42.05,42.05,0,0,0-15,2.66,81.69,81.69,0,0,0-14,7l-1.94-3.39a58,58,0,0,1,15.36-7.14q7.38-2,16.09-3.75c1.94-.48,4.44-1.21,7.5-2.17a23,23,0,0,0,9-5.69q4.35-4.23,7.5-12.1t3.14-21.41q0-3.39-.36-8.47a30.25,30.25,0,0,0-2.54-10,21,21,0,0,0-6.9-8.47q-4.71-3.5-13.43-3.5a22.7,22.7,0,0,0-11.85,3q-5.08,3-5.08,10.28a19.59,19.59,0,0,0,.36,3c.24,1.37.49,2.86.73,4.47s.44,3.11.6,4.48.24,2.3.24,2.78a11.79,11.79,0,0,1-1.57,6.66,9.67,9.67,0,0,1-3.87,3.38,12.75,12.75,0,0,1-5,1.21c-1.78.09-3.39.12-4.84.12a18.14,18.14,0,0,1-8.95-2.42q-4.35-2.41-4.36-9.19,0-14.52,12.83-22.86t34.6-8.35q15.72,0,25.64,3.87t15.49,9.44a30.47,30.47,0,0,1,7.62,11.61,33.72,33.72,0,0,1,2.06,10.64A29.34,29.34,0,0,1,337.51,207a38.18,38.18,0,0,1-11.37,11.38,69.54,69.54,0,0,1-16.69,7.86q-9.57,3.15-20.21,5.81v.48a156.9,156.9,0,0,1,21.54,5.32,67.53,67.53,0,0,1,18.38,9.08A44.31,44.31,0,0,1,342,261q4.83,8.34,4.84,20.2A48.66,48.66,0,0,1,343,299.44a50.31,50.31,0,0,1-11.85,17.3,63.64,63.64,0,0,1-20.32,12.82q-12.34,5.08-29.52,5.08a73.23,73.23,0,0,1-17.06-1.93,45.13,45.13,0,0,1-14.64-6.29,40.48,40.48,0,0,1-11.25-11.5,53.53,53.53,0,0,1-7.14-17.78l3.88-1.21A46.13,46.13,0,0,0,238.43,306.7Z" fill="url(#未命名漸層_128-4)"/></svg>