<?xml version="1.0" encoding="utf-8"?>
<!-- Generator: Adobe Illustrator 24.2.1, SVG Export Plug-In . SVG Version: 6.00 Build 0)  -->
<svg version="1.1" id="圖層_1" xmlns="http://www.w3.org/2000/svg" xmlns:xlink="http://www.w3.org/1999/xlink" x="0px" y="0px"
	 viewBox="0 0 300 300" style="enable-background:new 0 0 300 300;" xml:space="preserve">
<style type="text/css">
	.st0{fill:url(#SVGID_1_);}
	.st1{fill:url(#SVGID_2_);}
	.st2{fill:url(#SVGID_3_);}
	.st3{fill:url(#SVGID_4_);}
	.st4{fill:url(#SVGID_5_);}
	.st5{fill:url(#SVGID_6_);}
	.st6{fill:url(#SVGID_7_);}
	.st7{fill:url(#SVGID_8_);}
	.st8{fill:url(#SVGID_9_);}
	.st9{fill:url(#SVGID_10_);}
	.st10{fill:url(#SVGID_11_);}
	.st11{fill:url(#SVGID_12_);}
	.st12{fill:url(#SVGID_13_);}
	.st13{fill:url(#SVGID_14_);}
	.st14{fill:url(#SVGID_15_);}
	.st15{fill:url(#SVGID_16_);}
	.st16{fill:url(#SVGID_17_);}
	.st17{fill:url(#SVGID_18_);}
	.st18{fill:url(#SVGID_19_);}
	.st19{fill:url(#SVGID_20_);}
	.st20{fill:url(#SVGID_21_);}
	.st21{fill:url(#SVGID_22_);}
	.st22{fill:url(#SVGID_23_);}
	.st23{fill:url(#SVGID_24_);}
	.st24{fill:url(#SVGID_25_);}
	.st25{fill:url(#SVGID_26_);}
	.st26{fill:url(#SVGID_27_);}
	.st27{fill:url(#SVGID_28_);}
	.st28{fill:url(#SVGID_29_);}
	.st29{fill:url(#SVGID_30_);}
	.st30{fill:url(#SVGID_31_);}
	.st31{fill:url(#SVGID_32_);}
	.st32{fill:url(#SVGID_33_);}
	.st33{fill:none;}
	.st34{fill:url(#SVGID_34_);}
	.st35{fill:url(#SVGID_35_);}
	.st36{fill:url(#SVGID_36_);}
	.st37{fill:url(#SVGID_37_);}
	.st38{fill:url(#SVGID_38_);}
	.st39{fill:url(#SVGID_39_);}
	.st40{fill:url(#SVGID_40_);}
	.st41{fill:url(#SVGID_41_);}
	.st42{fill:url(#SVGID_42_);}
	.st43{fill:url(#SVGID_43_);}
	.st44{fill:url(#SVGID_44_);}
	.st45{fill:url(#SVGID_45_);}
	.st46{fill:url(#SVGID_46_);}
	.st47{fill:url(#SVGID_47_);}
</style>
<g>
	<linearGradient id="SVGID_1_" gradientUnits="userSpaceOnUse" x1="34.2097" y1="99.4445" x2="300.0509" y2="99.4445">
		<stop  offset="0" style="stop-color:#171C61"/>
		<stop  offset="0.1256" style="stop-color:#192568"/>
		<stop  offset="0.4986" style="stop-color:#1F3E79"/>
		<stop  offset="0.8033" style="stop-color:#234E85"/>
		<stop  offset="1" style="stop-color:#245489"/>
	</linearGradient>
	<path class="st0" d="M300.05,168.21c-0.19,0.74-0.46,1.46-0.56,2.21c-0.85,6.59-4.24,10.13-10.8,11.19
		c-1.35,0.22-2.71,0.39-4.06,0.53c-5.97,0.63-10.44-2.45-10.94-8.43c-0.61-7.35-0.85-14.77-0.57-22.13
		c0.18-4.78,3.55-8.02,7.56-10.51c0.86-0.53,1.73-1.88,1.71-2.84c-0.26-16.59-0.34-33.2-1.14-49.77
		c-0.51-10.54-3.08-20.78-7.71-30.42c-25.12,8.06-49.51,17.74-73.52,28.43c-7.59,3.38-15.35,6.36-23.79,6.61
		c-6.38,0.19-12.57-0.5-18.76-2.76C122.61,77.62,86.85,67.75,51.24,57.38c-4.67-1.36-9.38-2.62-13.99-4.16
		c-1.22-0.41-2.76-1.56-3.01-2.64c-0.23-0.99,0.81-2.7,1.78-3.45c1.7-1.31,3.67-2.56,5.71-3.09c20.73-5.37,41.5-10.56,62.24-15.86
		c11.5-2.94,22.97-6.02,34.47-8.96c15.75-4.03,31.38-3.36,46.59,2.26c19.16,7.08,38.95,11.66,58.81,16.1
		c6.92,1.55,13.68,3.82,20.45,5.97c11.8,3.74,18.54,12.29,22.2,23.73c3.22,10.04,4.3,20.42,4.66,30.85
		c0.48,13.65,0.45,27.32,0.7,40.98c0.02,0.88,0.24,2.06,0.83,2.59c4.01,3.56,5.89,8.14,6.81,13.26c0.06,0.34,0.36,0.63,0.55,0.95
		C300.05,160,300.05,164.11,300.05,168.21z"/>
	<linearGradient id="SVGID_2_" gradientUnits="userSpaceOnUse" x1="76.8901" y1="136.2641" x2="253.074" y2="136.2641">
		<stop  offset="0" style="stop-color:#171C61"/>
		<stop  offset="0.1256" style="stop-color:#192568"/>
		<stop  offset="0.4986" style="stop-color:#1F3E79"/>
		<stop  offset="0.8033" style="stop-color:#234E85"/>
		<stop  offset="1" style="stop-color:#245489"/>
	</linearGradient>
	<path class="st1" d="M169.72,192.35c-23.06-0.78-42.79-3.5-61.67-10.69c-9.69-3.69-18.15-9.17-23.13-18.72
		c-3.62-6.94-5.19-14.51-5.62-22.23c-0.96-17.25-1.69-34.51-2.4-51.76c-0.18-4.25,1.13-4.83,5.29-4.41
		c14.21,1.4,26.56,7.98,39.27,13.62c6.94,3.08,13.81,6.34,20.88,9.11c14.76,5.77,29.55,4.64,43.86-1.36
		c11.13-4.66,21.78-10.45,32.81-15.33c8.17-3.62,16.56-6.75,24.96-9.79c4.12-1.49,5-0.14,6.83,3.79c4.11,8.82,1.42,17.64,0.95,26.49
		c-0.22,4.09-0.41,8.18-0.44,12.28c-0.08,9.85-0.89,19.62-1.79,29.44c-0.84,9.11-5.61,14.67-12.18,19.42
		c-13.28,9.61-28.36,15.02-44.42,17.58C184.29,191.15,175.52,191.72,169.72,192.35z"/>
	<linearGradient id="SVGID_3_" gradientUnits="userSpaceOnUse" x1="-0.0509" y1="215.0332" x2="211.4312" y2="215.0332">
		<stop  offset="0" style="stop-color:#171C61"/>
		<stop  offset="0.1256" style="stop-color:#192568"/>
		<stop  offset="0.4986" style="stop-color:#1F3E79"/>
		<stop  offset="0.8033" style="stop-color:#234E85"/>
		<stop  offset="1" style="stop-color:#245489"/>
	</linearGradient>
	<path class="st2" d="M171.17,283.3c-10.44-0.47-19.26-4.33-26.09-12.43c-0.71-0.84-1.86-1.29-2.77-1.96
		c-4.71-3.44-9.72-6.55-14.05-10.41c-11.88-10.58-23.31-21.72-36.79-30.32c-20.35-12.98-42.3-21.94-66.3-25.48
		c-4.34-0.64-8.69-1.38-13.06-1.56c-8.42-0.36-11.9-6.7-12.12-13.05c-0.33-9.19,3.14-17.15,8.07-24.59
		c4.32-6.53,9.56-12.17,17.15-14.91c2.71-0.98,5.63-1.7,8.5-1.85c2.89-0.15,5.51,1.06,7.04,3.9c0.32,0.59,1.07,1.01,1.7,1.37
		c4.2,2.44,8.53,4.68,12.63,7.28c13.65,8.68,26.82,18.2,40.93,26.06c16.18,9.01,34.08,13.84,52.36,16.66
		c7.87,1.21,15.97,0.88,23.95,1.4c4.94,0.32,9.97,0.48,14.78,1.52c9.67,2.08,15.86,8.71,20.35,17.12c1.14,2.14,2.26,4.38,2.83,6.71
		c2.14,8.73,1.1,17.49-0.94,26.03C205.02,272.77,189.52,284.15,171.17,283.3z M159.39,221.88c-0.14,0.13-0.52,0.42-0.83,0.76
		c-8.74,9.56-12.64,20.78-10.77,33.62c1.23,8.43,5.91,14.59,14.27,17.32c13.27,4.33,29.58-1.86,36.75-13.82
		c8.32-13.88,2.07-37.12-12.14-45.05c-3.91-2.18-7.84-2.21-11.59,0.35c-9.92,6.78-11.29,19.85-3.02,28.48
		c3.6,3.76,7.13,4.16,11.5,1.32c0.74-0.48,1.47-1.32,2.22-1.34c1.15-0.03,2.47,0.28,3.41,0.92c0.43,0.29,0.43,1.86,0.07,2.56
		c-3.37,6.55-11.8,9.32-18.41,6c-6.27-3.14-10.18-8.48-11.29-15.17C158.71,232.67,159.39,227.26,159.39,221.88z M65.27,204.44
		c2.55-7.82,7.46-14.07,15-18.22c-6.22-4.19-12.17-8.09-17.99-12.16c-8.45-5.9-16.81-11.93-25.22-17.9
		c-0.38-0.27-0.87-0.54-1.3-0.53c-4.7,0.18-9.23,0.61-13.13,3.88c-6.81,5.71-11.13,12.98-13.75,21.29
		c-0.74,2.35-0.86,5.01-0.69,7.49c0.3,4.23,3.8,7.01,7.43,7.2c7.67,0.39,15.44,0.54,22.95,1.94C47.48,199.11,56.17,202,65.27,204.44
		z M157.88,211.49c-4.45-0.49-8.52-0.49-12.35-1.45c-12.45-3.1-24.83-6.48-37.19-9.94c-1.83-0.51-2.76-0.26-3.93,1.12
		c-4.51,5.36-7.02,11.65-8.66,18.33c-0.18,0.72,0.5,1.98,1.17,2.52c12.93,10.39,25.92,20.7,38.9,31.03c0.7,0.56,1.4,1.1,2.25,1.76
		C137.79,237.15,145.2,223.43,157.88,211.49z M99.92,196.93c-4.24-2.25-8.07-4.33-11.96-6.3c-0.58-0.29-1.57-0.34-2.13-0.03
		c-7.04,3.85-11.61,9.57-13.17,17.64c5.13,2.69,10.18,5.33,15.44,8.09C90.12,208.66,93.78,202.25,99.92,196.93z"/>
</g>
</svg>
