<?xml version="1.0" encoding="utf-8"?>
<!-- Generator: Adobe Illustrator 22.0.1, SVG Export Plug-In . SVG Version: 6.00 Build 0)  -->
<svg version="1.1" id="圖層_1" xmlns="http://www.w3.org/2000/svg" xmlns:xlink="http://www.w3.org/1999/xlink" x="0px" y="0px"
	 viewBox="0 0 512 512" style="enable-background:new 0 0 512 512;" xml:space="preserve">
<style type="text/css">
	.st0{fill:url(#SVGID_1_);}
	.st1{fill:url(#SVGID_2_);}
	.st2{fill:url(#SVGID_3_);}
	.st3{opacity:0.7;fill:url(#SVGID_4_);}
	.st4{opacity:0.9;fill:url(#SVGID_5_);}
	.st5{fill:url(#SVGID_6_);}
	.st6{opacity:0.75;fill:url(#SVGID_7_);}
	.st7{fill:url(#SVGID_8_);}
	.st8{opacity:0.4;fill:url(#SVGID_9_);}
	.st9{fill:url(#SVGID_10_);}
	.st10{fill:url(#SVGID_11_);}
	.st11{fill:url(#SVGID_12_);}
	.st12{opacity:0.9;fill:url(#SVGID_13_);}
	.st13{fill:url(#SVGID_14_);}
	.st14{opacity:0.75;fill:url(#SVGID_15_);}
	.st15{fill:url(#SVGID_16_);}
	.st16{opacity:0.4;fill:url(#SVGID_17_);}
	.st17{fill:url(#SVGID_18_);}
	.st18{fill:url(#SVGID_19_);}
	.st19{fill:url(#SVGID_20_);}
	.st20{opacity:0.9;fill:url(#SVGID_21_);}
	.st21{fill:url(#SVGID_22_);}
	.st22{opacity:0.75;fill:url(#SVGID_23_);}
	.st23{fill:url(#SVGID_24_);}
	.st24{opacity:0.4;fill:url(#SVGID_25_);}
	.st25{fill:url(#SVGID_26_);}
	.st26{fill:url(#SVGID_27_);}
	.st27{opacity:0.9;fill:url(#SVGID_28_);}
	.st28{fill:url(#SVGID_29_);}
	.st29{fill:url(#SVGID_30_);}
	.st30{opacity:0.75;fill:url(#SVGID_31_);}
	.st31{fill:url(#SVGID_32_);}
	.st32{fill:url(#SVGID_33_);}
	.st33{opacity:0.4;fill:url(#SVGID_34_);}
	.st34{fill:url(#SVGID_35_);}
	.st35{fill:url(#SVGID_36_);}
	.st36{opacity:0.9;fill:url(#SVGID_37_);}
	.st37{fill:url(#SVGID_38_);}
	.st38{fill:url(#SVGID_39_);}
	.st39{opacity:0.75;fill:url(#SVGID_40_);}
	.st40{fill:url(#SVGID_41_);}
	.st41{fill:url(#SVGID_42_);}
	.st42{opacity:0.4;fill:url(#SVGID_43_);}
	.st43{fill:url(#SVGID_44_);}
	.st44{fill:url(#SVGID_45_);}
	.st45{opacity:0.9;fill:url(#SVGID_46_);}
	.st46{fill:url(#SVGID_47_);}
	.st47{fill:url(#SVGID_48_);}
	.st48{opacity:0.75;fill:url(#SVGID_49_);}
	.st49{fill:url(#SVGID_50_);}
	.st50{fill:url(#SVGID_51_);}
	.st51{opacity:0.4;fill:url(#SVGID_52_);}
	.st52{fill:url(#SVGID_53_);}
	.st53{fill:url(#SVGID_54_);}
	.st54{opacity:0.9;fill:url(#SVGID_55_);}
	.st55{fill:url(#SVGID_56_);}
	.st56{fill:url(#SVGID_57_);}
	.st57{opacity:0.75;fill:url(#SVGID_58_);}
	.st58{fill:url(#SVGID_59_);}
	.st59{fill:url(#SVGID_60_);}
	.st60{opacity:0.4;fill:url(#SVGID_61_);}
	.st61{fill:url(#SVGID_62_);}
	.st62{fill:url(#SVGID_63_);}
	.st63{opacity:0.9;fill:url(#SVGID_64_);}
	.st64{fill:url(#SVGID_65_);}
	.st65{fill:url(#SVGID_66_);}
	.st66{opacity:0.75;fill:url(#SVGID_67_);}
	.st67{fill:url(#SVGID_68_);}
	.st68{fill:url(#SVGID_69_);}
	.st69{opacity:0.4;fill:url(#SVGID_70_);}
	.st70{fill:url(#SVGID_71_);}
	.st71{fill:url(#SVGID_72_);}
	.st72{opacity:0.9;fill:url(#SVGID_73_);}
	.st73{fill:url(#SVGID_74_);}
	.st74{fill:url(#SVGID_75_);}
	.st75{opacity:0.75;fill:url(#SVGID_76_);}
	.st76{fill:url(#SVGID_77_);}
	.st77{fill:url(#SVGID_78_);}
	.st78{opacity:0.4;fill:url(#SVGID_79_);}
	.st79{fill:url(#SVGID_80_);}
	.st80{fill:url(#SVGID_81_);}
	.st81{opacity:0.9;fill:url(#SVGID_82_);}
	.st82{fill:url(#SVGID_83_);}
	.st83{fill:url(#SVGID_84_);}
	.st84{opacity:0.75;fill:url(#SVGID_85_);}
	.st85{fill:url(#SVGID_86_);}
	.st86{fill:url(#SVGID_87_);}
	.st87{opacity:0.4;fill:url(#SVGID_88_);}
	.st88{fill:url(#SVGID_89_);}
	.st89{opacity:0.9;fill:url(#SVGID_90_);}
	.st90{fill:url(#SVGID_91_);}
	.st91{fill:url(#SVGID_92_);}
	.st92{opacity:0.75;fill:url(#SVGID_93_);}
	.st93{fill:url(#SVGID_94_);}
	.st94{fill:url(#SVGID_95_);}
	.st95{opacity:0.4;fill:url(#SVGID_96_);}
	.st96{fill:url(#SVGID_97_);}
	.st97{opacity:0.9;fill:url(#SVGID_98_);}
	.st98{fill:url(#SVGID_99_);}
	.st99{fill:url(#SVGID_100_);}
	.st100{opacity:0.75;fill:url(#SVGID_101_);}
	.st101{fill:url(#SVGID_102_);}
	.st102{fill:url(#SVGID_103_);}
	.st103{opacity:0.4;fill:url(#SVGID_104_);}
	.st104{fill:url(#SVGID_105_);}
	.st105{fill:url(#SVGID_106_);}
	.st106{fill:url(#SVGID_107_);}
	.st107{fill:url(#SVGID_108_);}
	.st108{fill:url(#SVGID_109_);}
	.st109{fill:url(#SVGID_110_);}
	.st110{fill:url(#SVGID_111_);}
	.st111{fill:url(#SVGID_112_);}
	.st112{fill:url(#SVGID_113_);}
	.st113{fill:url(#SVGID_114_);}
	.st114{fill:url(#SVGID_115_);}
	.st115{fill:url(#SVGID_116_);}
	.st116{fill:url(#SVGID_117_);}
	.st117{fill:url(#SVGID_118_);}
	.st118{fill:url(#SVGID_119_);}
	.st119{fill:url(#SVGID_120_);}
	.st120{fill:url(#SVGID_121_);}
	.st121{fill:url(#SVGID_122_);}
	.st122{fill:url(#SVGID_123_);}
	.st123{fill:url(#SVGID_124_);}
	.st124{fill:url(#SVGID_125_);}
	.st125{fill:url(#SVGID_126_);}
	.st126{fill:url(#SVGID_127_);}
	.st127{opacity:0.7;fill:url(#SVGID_128_);}
	.st128{opacity:0.7;fill:url(#SVGID_129_);}
	.st129{fill:url(#SVGID_130_);}
	.st130{fill:url(#SVGID_131_);}
</style>
<linearGradient id="SVGID_1_" gradientUnits="userSpaceOnUse" x1="-55.1544" y1="630.6105" x2="627.0824" y2="-51.6263">
	<stop  offset="0" style="stop-color:#823600"/>
	<stop  offset="0.2" style="stop-color:#9C6434"/>
	<stop  offset="0.3" style="stop-color:#AF7B23"/>
	<stop  offset="0.5" style="stop-color:#D6A800"/>
	<stop  offset="0.8" style="stop-color:#FFD500"/>
	<stop  offset="1" style="stop-color:#FFFFD0"/>
</linearGradient>
<path class="st0" d="M441.9,31.1c-9.4-7.4-21.6-14.5-36.9-18c-39.7-9.2-83.4,9.2-110.7,46.6l0,0h0l0,0c45.8-7.8,75.2,3.3,89.7,10.6
	c30.3,15.3,54,44,69,81.3c12.5,31.1,18.8,68.3,17.7,108.9c0,1.2-0.1,2.3-0.1,3.5c-0.5,13.5-1.9,27.4-4.1,41.5
	c-1.8,11.3-4.1,22.8-7.1,34.4l0,0c0,0,29.5-85.3,30-171.1c0.2-33.4-4-66.9-16-95.4C463.5,50.4,448.4,36.4,441.9,31.1z"/>
<linearGradient id="SVGID_2_" gradientUnits="userSpaceOnUse" x1="6.9519" y1="692.7168" x2="689.1887" y2="10.48">
	<stop  offset="0" style="stop-color:#823600"/>
	<stop  offset="0.2" style="stop-color:#9C6434"/>
	<stop  offset="0.3" style="stop-color:#AF7B23"/>
	<stop  offset="0.5" style="stop-color:#D6A800"/>
	<stop  offset="0.8" style="stop-color:#FFD500"/>
	<stop  offset="1" style="stop-color:#FFFFD0"/>
</linearGradient>
<path class="st1" d="M407.4,494.3c11.1-4.5,23.3-11.6,34-23.1c27.7-29.9,33.4-76.9,14.5-119.2l0,0l0,0c0,0,0,0,0,0
	c-15.9,43.6-40.2,63.7-53.7,72.6c-28.3,18.7-65,25.1-104.9,19.5c-33.2-4.6-68.6-17.6-103.3-38.7c-1-0.6-2-1.2-3-1.9
	c-11.5-7.2-22.8-15.2-34-24.2c-8.9-7.2-17.7-14.9-26.3-23.2c0,0,0,0,0,0s59.4,68,133.6,111c28.9,16.8,60,29.8,90.8,33.5
	C379.9,503.3,399.5,497.3,407.4,494.3z"/>
<linearGradient id="SVGID_3_" gradientUnits="userSpaceOnUse" x1="-169.4647" y1="516.3003" x2="512.7722" y2="-165.9365">
	<stop  offset="0" style="stop-color:#823600"/>
	<stop  offset="0.2" style="stop-color:#9C6434"/>
	<stop  offset="0.3" style="stop-color:#AF7B23"/>
	<stop  offset="0.5" style="stop-color:#D6A800"/>
	<stop  offset="0.8" style="stop-color:#FFD500"/>
	<stop  offset="1" style="stop-color:#FFFFD0"/>
</linearGradient>
<path class="st2" d="M23.6,232.1c-1.7,11.8-1.7,26,2.9,41c12,38.9,49.8,67.5,95.8,72.4l0,0l0,0l0,0c-29.7-35.7-34.9-66.7-35.8-82.9
	c-1.9-33.8,10.9-68.8,35.7-100.5c20.7-26.4,49.6-50.6,85.3-69.9c1-0.6,2.1-1.1,3.1-1.6c11.9-6.3,24.6-12.1,37.9-17.3
	c10.7-4.1,21.8-7.8,33.3-11.1l0,0c0,0-88.6,17.3-163.1,59.9c-29,16.6-55.9,37-74.5,61.7C29.6,203.8,25,223.8,23.6,232.1z"/>
<linearGradient id="SVGID_4_" gradientUnits="userSpaceOnUse" x1="325.9042" y1="68.913" x2="495.4056" y2="99.5326">
	<stop  offset="0" style="stop-color:#FFFFFF;stop-opacity:0"/>
	<stop  offset="0.5" style="stop-color:#FFFFFF"/>
	<stop  offset="1" style="stop-color:#FFFFFF;stop-opacity:0"/>
</linearGradient>
<path style="opacity:0.9;fill:url(#SVGID_4_);" d="M489.4,168.7c0.2-33.4-4-66.9-16-95.4c-9.9-22.9-24.9-36.9-31.4-42.2
	c-9.4-7.4-21.6-14.5-36.9-18c-39.7-9.2-83.4,9.2-110.7,46.6C294.3,59.6,481.3-9.9,489.4,168.7z"/>
<linearGradient id="SVGID_5_" gradientUnits="userSpaceOnUse" x1="-3867.5112" y1="1615.3348" x2="-3805.25" y2="1486.2007" gradientTransform="matrix(-0.4965 0.868 -0.868 -0.4965 -183.6796 4573.2393)">
	<stop  offset="0" style="stop-color:#DFA900"/>
	<stop  offset="0.8487" style="stop-color:#170000"/>
</linearGradient>
<path style="fill:url(#SVGID_5_);" d="M455.9,351.9L455.9,351.9L455.9,351.9L455.9,351.9L455.9,351.9
	C455.9,351.9,455.9,351.9,455.9,351.9c-15.9,43.6-40.2,63.7-53.7,72.6c-28.3,18.7-65,25.1-104.9,19.5
	c-33.2-4.6-68.6-17.6-103.3-38.7c-1-0.6-2-1.2-3-1.9c-11.5-7.2-22.8-15.2-34-24.2c-8.9-7.2-17.7-14.9-26.3-23.2c0,0,0,0,0,0
	s59.4,68,133.6,111C423.4,548.8,455.9,351.9,455.9,351.9z"/>
<linearGradient id="SVGID_6_" gradientUnits="userSpaceOnUse" x1="-3950.1106" y1="1550.2311" x2="-3780.6091" y2="1580.8507" gradientTransform="matrix(-0.4965 0.868 -0.868 -0.4965 -183.6796 4573.2393)">
	<stop  offset="0" style="stop-color:#FFFFFF;stop-opacity:0"/>
	<stop  offset="0.5" style="stop-color:#FFFFFF"/>
	<stop  offset="1" style="stop-color:#FFFFFF;stop-opacity:0"/>
</linearGradient>
<path style="opacity:0.75;fill:url(#SVGID_6_);" d="M264.3,467.1c28.9,16.8,60,29.8,90.8,33.5c24.8,2.8,44.4-3.3,52.3-6.3
	c11.1-4.5,23.3-11.6,34-23.1c27.7-29.9,33.4-76.9,14.5-119.2C455.9,351.9,423.4,548.8,264.3,467.1z"/>
<linearGradient id="SVGID_7_" gradientUnits="userSpaceOnUse" x1="-468.9848" y1="4715.3784" x2="-406.7236" y2="4586.2441" gradientTransform="matrix(-0.5016 -0.8651 0.8651 -0.5016 -4184.9287 2169.0791)">
	<stop  offset="0" style="stop-color:#DFA900"/>
	<stop  offset="0.8487" style="stop-color:#170000"/>
</linearGradient>
<path style="fill:url(#SVGID_7_);" d="M122.4,345.5L122.4,345.5L122.4,345.5L122.4,345.5L122.4,345.5L122.4,345.5
	c-29.7-35.7-34.9-66.7-35.8-82.9c-1.9-33.8,10.9-68.8,35.7-100.5c20.7-26.4,49.6-50.6,85.3-69.9c1-0.6,2.1-1.1,3.1-1.6
	c11.9-6.3,24.6-12.1,37.9-17.3c10.7-4.1,21.8-7.8,33.3-11.1l0,0c0,0-88.6,17.3-163.1,59.9C-31.6,218.6,122.4,345.5,122.4,345.5z"/>
<linearGradient id="SVGID_8_" gradientUnits="userSpaceOnUse" x1="-551.5841" y1="4650.2744" x2="-382.0827" y2="4680.894" gradientTransform="matrix(-0.5016 -0.8651 0.8651 -0.5016 -4184.9287 2169.0791)">
	<stop  offset="0" style="stop-color:#FFFFFF;stop-opacity:0"/>
	<stop  offset="0.5" style="stop-color:#FFFFFF"/>
	<stop  offset="1" style="stop-color:#FFFFFF;stop-opacity:0"/>
</linearGradient>
<path style="opacity:0.4;fill:url(#SVGID_8_);" d="M118.9,122c-29,16.6-55.9,37-74.5,61.7c-14.8,20.1-19.4,40.1-20.8,48.4
	c-1.7,11.8-1.7,26,2.9,41c12,38.9,49.8,67.5,95.8,72.4C122.4,345.5-31.6,218.6,118.9,122z"/>
<linearGradient id="SVGID_9_" gradientUnits="userSpaceOnUse" x1="232.4768" y1="328.8199" x2="346.6508" y2="152.8016">
	<stop  offset="0" style="stop-color:#823600"/>
	<stop  offset="0.2" style="stop-color:#9C6434"/>
	<stop  offset="0.3" style="stop-color:#AF7B23"/>
	<stop  offset="0.5" style="stop-color:#D6A800"/>
	<stop  offset="0.8" style="stop-color:#FFD500"/>
	<stop  offset="1" style="stop-color:#FFFFD0"/>
</linearGradient>
<path style="fill:url(#SVGID_9_);" d="M267,156.2c1.1,1.1,3,2.7,5.6,4.7c2.6,2,5.7,4,9.3,5.9c3.6,1.9,7.7,3.6,12.1,5
	c4.4,1.4,9.2,2.1,14.2,2.1c1.1,0,2.9-0.1,5.2-0.2c2.3-0.2,4.9-0.8,7.7-1.9c2.8-1.1,5.8-2.8,9-5.1c3.1-2.3,6.2-5.5,9.1-9.7l3.1,1.5
	c-5.3,7.6-9.9,13.9-13.7,18.9c-3.8,5-7.4,9-10.8,12.1c-3.4,3.1-6.8,5.2-10.3,6.4c-3.5,1.2-7.5,1.8-12.2,1.8c-2.7,0-5.8-0.4-9.1-1.1
	c-3.3-0.7-6.6-1.7-9.9-2.8c-3.3-1.1-6.5-2.3-9.6-3.5c-3.1-1.2-5.8-2.3-8.2-3.3l-8.7,53l0.5,0.5c1.9-2.4,3.9-4.6,5.8-6.7
	c1.9-2,4.3-3.8,7-5.3c2.7-1.5,6-2.7,9.7-3.6c3.7-0.9,8.2-1.3,13.5-1.3c7.6,0,14.7,1.2,21.4,3.6c6.7,2.4,12.6,5.8,17.7,10.3
	c5.1,4.4,9.1,9.8,12.1,16c3,6.2,4.5,13.1,4.5,20.7c0,6.6-1.4,13.5-4.1,20.6c-2.7,7.1-6.8,13.5-12.1,19.4
	c-5.3,5.8-11.8,10.6-19.5,14.3c-7.7,3.7-16.5,5.6-26.5,5.6c-6.3,0-12.1-0.7-17.5-2.2c-5.4-1.5-10.1-3.4-14-5.8c-4-2.4-7-5.2-9.2-8.5
	c-2.2-3.2-3.3-6.6-3.3-10.2c0-3.4,0.6-6,1.8-7.7c1.2-1.8,2.7-3.1,4.4-4c1.7-0.9,3.3-1.4,5-1.6c1.6-0.2,2.8-0.2,3.6-0.2
	c6.1,0,10.1,1.1,12,3.3c1.9,2.2,2.8,4.6,2.8,7.4c0,0.5-0.1,1.3-0.2,2.3c-0.2,1.1-0.3,2.2-0.4,3.4c-0.1,1.2-0.2,2.3-0.4,3.4
	c-0.2,1.1-0.2,1.8-0.2,2.3c0,3.1,0.5,5.6,1.6,7.5c1,1.9,2.3,3.5,3.8,4.6c1.5,1.1,3,1.9,4.7,2.3c1.7,0.4,3.2,0.6,4.5,0.6
	c3.2,0,6.7-0.3,10.3-1c3.6-0.6,6.9-2.7,9.9-6c3-3.4,5.5-8.8,7.5-16.2c2-7.4,3-17.9,3-31.5c0-10.6-0.8-19.2-2.3-25.5
	c-1.5-6.4-3.6-11.3-6.3-14.6c-2.7-3.4-5.7-5.6-9.2-6.7c-3.5-1-7.2-1.6-11.2-1.6c-5.3,0-9.8,1.1-13.5,3.1c-3.7,2.1-6.9,4.6-9.4,7.5
	c-2.6,2.9-4.7,6-6.4,9.3c-1.7,3.3-3.1,6.2-4.2,8.6h-3.1l16.2-99.9H267z"/>
<linearGradient id="SVGID_10_" gradientUnits="userSpaceOnUse" x1="477.196" y1="101.4324" x2="421.5183" y2="155.9561">
	<stop  offset="0" style="stop-color:#775800"/>
	<stop  offset="0.9986" style="stop-color:#DFA900"/>
</linearGradient>
<path style="opacity:0.7;fill:url(#SVGID_10_);" d="M294.3,59.6L294.3,59.6L294.3,59.6L294.3,59.6L294.3,59.6L294.3,59.6
	c45.8-7.8,75.2,3.3,89.7,10.6c30.3,15.3,54,44,69,81.3c12.5,31.1,18.8,68.3,17.7,108.9c0,1.2-0.1,2.3-0.1,3.5
	c-0.5,13.5-1.9,27.4-4.1,41.5c-1.8,11.3-4.1,22.8-7.1,34.4l0,0c0,0,29.5-85.3,30-171.1C481.3-9.9,294.3,59.6,294.3,59.6z"/>
</svg>
