<svg xmlns="http://www.w3.org/2000/svg" width="60" height="60" viewBox="0 0 60 60">
    <g fill="none" fill-rule="evenodd" transform="translate(8 5)">
        <path fill="#20D4F3" fill-rule="nonzero" d="M43.486 35.028L28.714 3.523c-.657-1.42-2.371-2.074-3.8-1.392L3.4 12.102c-1.114.512-1.743 1.648-1.657 2.784-.486.228-.943.2-1.229-.397l16.343 34.886c.543.994 3.486-.426 3.486-.426v-.029c.086-.028.171-.056.257-.113l21.514-9.972c1.429-.653 2.057-2.386 1.372-3.807z"/>
        <path fill="#FFF" fill-rule="nonzero" d="M18.286 46.023L41.743 33.21l1.343 2.813c.285.653.028 1.392-.6 1.704L19.229 48.494c-.658.284-1.4.029-1.715-.596l-.143-.284.915-1.591z"/>
        <path fill="#C4EDFA" fill-rule="nonzero" d="M42.714 33.41L27.943 1.902C27.286.483 25.57-.17 24.143.511L2.629 10.483c-.086.028-.143.085-.229.114v-.029s-3 1.449-2.171 3.21l16.628 35.569c-.314-.682 2.714-2.074 2.714-2.074.086-.029.172-.057.258-.114l21.514-9.971c1.428-.682 2.057-2.358 1.371-3.779z"/>
        <path fill="#20D4F3" fill-rule="nonzero" d="M19.4 47.16c-.057 0-.086-.03-.114-.058L2.429 11.165c-.029-.057-.029-.142.085-.2.057-.027.143-.027.2.086l16.857 35.91c.029.056.029.141-.085.198-.029-.028-.057 0-.086 0z"/>
        <path fill="#6798C9" fill-rule="nonzero" d="M29.312 3.232L33.28 3.241 33.285 5.573 29.317 5.564z" transform="rotate(-24.999 31.299 4.403)"/>
        <path fill="#67C6BA" fill-rule="nonzero" d="M31.142 7.068L35.109 7.077 35.114 9.409 31.147 9.4z" transform="rotate(-24.999 33.128 8.238)"/>
        <path fill="#6780C6" fill-rule="nonzero" d="M33.856 12.92L37.823 12.928 37.828 15.26 33.861 15.252z" transform="rotate(-24.999 35.842 14.09)"/>
        <ellipse cx="21.857" cy="20.71" fill="#20D4F3" fill-rule="nonzero" rx="8.486" ry="8.438"/>
        <ellipse cx="21.857" cy="20.71" rx="8.486" ry="8.438"/>
        <path fill="#F4B362" fill-rule="nonzero" d="M21.114 29.12c.229.028.486.028.743.028 2.914 0 5.486-1.45 7-3.693-.371-.256-.743-.427-1-.54-.286-.057-.343-.227-.286-.398.715-1.307.858-2.84.229-4.176-.343-.71-.829-1.279-1.457-1.676-.029 0-.029-.029-.029-.057-.171-.54-.543-1.278-1.228-2.301-1.457-2.188-2.057-1.705-2.257-1.449-.029.057-.058.114-.058.17l.086 2.841c0 .086-.028.142-.143.17-.6.086-1.257.285-1.857.569-.686.34-1.314.739-1.828 1.222-.058.056-.143.056-.2 0l-2.172-1.932-.171-.085c-.315-.029-1.086.17-.315 2.642.372 1.25.743 2.045 1.029 2.528.057.057.086.114.143.142l.057.057c-.029.596.086 1.193.4 1.79.629 1.335 1.857 2.215 3.343 2.528.171.057.257.227.228.398-.114.284-.228.71-.257 1.221z"/>
        <path fill="#FEFBF7" fill-rule="nonzero" d="M26.971 25.455l-.2-.37s-.228-.255.086-.824c0 0 1.286-2.613-1.114-3.522-2.4-.91-2.914 1.931-2.914 1.931s-2.515-1.448-3.372.966c-.886 2.557 1.943 3.239 1.943 3.239.629.114.686.455.686.455l.143.34c.085.569 0 1.023.028 1.478 2.286-.114 4.343-1.108 5.829-2.7-.343-.312-.772-.539-1.115-.993z"/>
        <g fill-rule="nonzero" transform="translate(19.714 19.318)">
            <path fill="#5C2C0A" d="M4.971 1.165c.086.057.2.142.286.17.057.029.086.085.057.114-.057.085-.143.256-.143.256-.057.17-.142.312-.285.369-.2.085-.457.057-.6-.114l-.029-.028c-.057-.029-.143-.085-.2-.114-.114 0-.143-.057-.114-.113.057-.086.114-.228.114-.256.029-.142.143-.284.286-.341.171-.085.4-.085.571.028l.057.029zM1.2 2.983c-.114 0-.229-.057-.257-.085-.143-.057-.314-.057-.457 0-.2.085-.315.255-.315.454v.057c0 .114-.028.227-.057.313 0 .056.029.113.086.113.114 0 .257.057.257.057.143.057.314.085.486 0 .2-.085.314-.312.314-.511v-.057c0-.057 0-.142.057-.227-.028-.057-.057-.114-.114-.114z"/>
            <circle cx=".6" cy="3.239" r="1" fill="#FCFCFC"/>
            <circle cx="4.286" cy="1.534" r="1" fill="#FCFCFC"/>
            <circle cx=".559" cy="2.219" r="1" fill="#FEFBF7" transform="rotate(-70.001 .559 2.219)"/>
            <circle cx="3.82" cy=".718" r="1" fill="#FEFBF7" transform="rotate(-70.001 3.82 .718)"/>
        </g>
        <path fill="#FEFBF7" fill-rule="nonzero" d="M18.4 19.915l-1.686-1.477c-.085-.057-.171-.114-.257-.086-.228.029-.571.313-.114 1.79.257.852.514 1.392.714 1.705.143.255.543.227.657-.057.143-.37.4-.852.743-1.392.114-.17.114-.37-.057-.483zM23.2 17.699l-.057-2.216c0-.085.057-.17.114-.227.2-.142.629-.228 1.457 1.08.515.766.743 1.25.857 1.619.086.284-.2.54-.485.483-.372-.114-.886-.256-1.543-.341-.2-.086-.343-.228-.343-.398z"/>
        <path fill="#5C2C0A" fill-rule="nonzero" d="M25.314 23.438c-.085-.029-.171 0-.171.085-.257.682-1.172.625-1.514.54-.029 0-.058-.029-.058-.057l-.085-.142c.457-.284.657-.796.457-1.25-.229-.483-.829-.654-1.372-.398-.542.227-.8.852-.571 1.307.2.454.743.625 1.257.454l.086.142c.028.029.028.057 0 .086-.172.284-.686 1.05-1.4.795-.086-.028-.143.028-.172.057-.028.085 0 .17.086.199.286.113.572.085.857-.029.143-.085.343-.199.486-.369.2-.17.314-.37.4-.511.029-.029.057-.057.086-.057.143 0 .4.028.628.028.229 0 .4-.085.6-.142.257-.113.486-.34.572-.625-.057 0-.115-.113-.172-.113z"/>
    </g>
</svg>
