<svg xmlns="http://www.w3.org/2000/svg" width="60" height="60" viewBox="0 0 60 60">
    <g fill="none">
        <path fill="#20D4F3" d="M38.114 6.445l-.057-.116-24-6.156c-1.286-.49-2.743.203-3.228 1.532L.086 24.25l.057.115L38.114 6.445z" transform="translate(5 5)"/>
        <path fill="#20D4F3" d="M22.714 27.254c.486-1.3 1.915-1.994 3.229-1.531l2.686.693 9.514-19.942-.057-.116L.17 24.248l.086.145 21.229 5.462 1.228-2.6z" transform="translate(5 5)"/>
        <path fill="#D4F9F0" d="M0.114 24.277L0.171 24.393 0.229 24.422 0.171 24.249z" transform="translate(5 5)"/>
        <path fill="#FFF" d="M8.751 18.821L41.59 18.676 41.506 37.712 8.668 37.857z" transform="translate(5 5) rotate(-24.999 25.129 28.267)"/>
        <path fill="#C4EDFA" d="M38.086 6.358L38.143 6.474 28.629 26.445 49.914 31.908 38.143 6.358zM.229 24.422L11.943 49.827 21.457 29.855z" transform="translate(5 5)"/>
        <path fill="#D7F2F9" d="M28.629 26.445l-2.686-.694c-1.286-.49-2.743.203-3.229 1.532l-1.228 2.601-9.515 19.943.058.115L50 32.023l-.057-.115-21.314-5.463z" transform="translate(5 5)"/>
        <g>
            <path fill="#000" d="M5.714.462C6.371.434 6.83 1.647 7.4 1.88c.6.23 1.714-.405 2.2.029.457.433-.057 1.618.2 2.196.257.55 1.514.925 1.543 1.59.028.664-1.172 1.127-1.4 1.705-.229.607.4 1.734-.029 2.225-.428.463-1.6-.058-2.171.203-.543.26-.914 1.531-1.572 1.56-.657.03-1.114-1.185-1.685-1.416-.6-.231-1.715.405-2.2-.029-.457-.433.057-1.618-.2-2.196C1.829 7.196.57 6.82.543 6.156c-.029-.665 1.171-1.127 1.4-1.705.228-.607-.4-1.734.028-2.226.429-.462 1.6.058 2.172-.202.571-.26.914-1.532 1.571-1.56z" opacity=".3" transform="translate(5 5) translate(19.429 22.543)"/>
            <path fill="#F77063" d="M5.429.173C6.086.145 6.543 1.358 7.114 1.59c.6.23 1.715-.405 2.2.028.457.434-.057 1.619.2 2.197.257.55 1.515.925 1.543 1.59.029.664-1.171 1.127-1.4 1.705-.228.607.4 1.734-.028 2.225-.429.463-1.6-.058-2.172.203-.543.26-.914 1.531-1.571 1.56-.657.03-1.115-1.185-1.686-1.416-.6-.231-1.714.405-2.2-.029-.457-.433.057-1.618-.2-2.196-.257-.55-1.514-.925-1.543-1.59-.028-.665 1.172-1.127 1.4-1.705.229-.607-.4-1.734.029-2.226.428-.462 1.6.058 2.171-.202.572-.26.914-1.532 1.572-1.56z" transform="translate(5 5) translate(19.429 22.543)"/>
        </g>
        <path fill="#974440" d="M23.943 25.347c1.314-.607 2.8-.347 3.828.578-1-1.127-2.657-1.532-4.085-.838-1.743.838-2.515 2.948-1.686 4.71.2.463.486.839.857 1.157-.228-.26-.428-.55-.571-.867-.857-1.792-.115-3.902 1.657-4.74z" transform="translate(5 5)"/>
        <path fill="#D8615B" d="M26.629 31.503c1.742-.838 2.514-2.948 1.685-4.711-.143-.318-.343-.607-.571-.867-1.029-.925-2.514-1.185-3.829-.578-1.743.838-2.514 2.948-1.685 4.71.142.319.342.608.571.868 1.029.925 2.514 1.214 3.829.578z" transform="translate(5 5)"/>
        <g>
            <g fill="#000" opacity=".3">
                <path d="M1.629 2.92c-.258.26-.743.144-1.115-.232C.143 2.312.03 1.82.286 1.56s.743-.145 1.114.23c.371.377.457.868.229 1.128zM2.8 1.734c-.257.26-.743.145-1.114-.231C1.314 1.127 1.2.636 1.457.376S2.2.23 2.571.606c.372.377.458.868.229 1.128zM1.657 4.393c-.086.087-.2.145-.314.145-.172.028-.372 0-.543-.087-.171-.087-.343-.202-.457-.347-.114-.173-.172-.347-.086-.491.057-.145.2-.26.4-.29.172-.028.372 0 .543.087.2.087.343.203.457.347.114.174.172.347.086.492-.029.057-.057.115-.086.144zM4.257 1.763c-.028.029-.086.058-.143.087-.143.058-.314.029-.485-.087-.143-.116-.258-.26-.343-.462C3.2 1.098 3.17.896 3.2.75c.029-.202.143-.346.286-.404.143-.058.314-.03.485.087.143.115.258.26.343.462.086.202.115.405.086.55-.029.144-.086.26-.143.317zM3.4 4.711c-.114.116-.229.173-.343.173-.143.03-.286-.029-.428-.086-.115-.058-.2-.145-.286-.26-.114-.145-.2-.318-.257-.492-.086-.26-.115-.549-.057-.809l.085-.434c.029-.115.086-.23.172-.317.143-.145.371-.203.543-.232.2-.029.371-.057.542-.057.343.028.686.144.972.346.114.087.228.203.286.29.085.144.114.317.057.462-.029.144-.143.26-.286.347-.114.057-.229.115-.343.144l-.286.087s-.028 0-.028.029v.029c-.029.115-.057.23-.086.318-.028.115-.086.26-.2.404-.028 0-.028.03-.057.058z" transform="translate(5 5) translate(22.571 25.723) translate(.286 .289)"/>
            </g>
            <g fill="#F77063">
                <path d="M1.629 2.92c-.258.26-.743.144-1.115-.232C.143 2.312.03 1.82.286 1.56s.743-.145 1.114.23c.371.377.457.868.229 1.128zM2.8 1.734c-.257.26-.743.145-1.114-.231C1.314 1.127 1.2.636 1.457.376S2.2.23 2.571.606c.372.377.458.868.229 1.128zM1.657 4.393c-.086.087-.2.145-.314.145-.172.028-.372 0-.543-.087-.171-.087-.343-.202-.457-.347-.114-.173-.172-.347-.086-.491.057-.145.2-.26.4-.29.172-.028.372 0 .543.087.2.087.343.203.457.347.114.174.172.347.086.492-.029.057-.057.115-.086.144zM4.257 1.763c-.028.029-.086.058-.143.087-.143.058-.314.029-.485-.087-.143-.116-.258-.26-.343-.462C3.2 1.098 3.17.896 3.2.75c.029-.202.143-.346.286-.404.143-.058.314-.03.485.087.143.115.258.26.343.462.086.202.115.405.086.55-.029.144-.086.26-.143.317zM3.4 4.711c-.114.116-.229.173-.343.173-.143.03-.286-.029-.428-.086-.115-.058-.2-.145-.286-.26-.114-.145-.2-.318-.257-.492-.086-.26-.115-.549-.057-.809l.085-.434c.029-.115.086-.23.172-.317.143-.145.371-.203.543-.232.2-.029.371-.057.542-.057.343.028.686.144.972.346.114.087.228.203.286.29.085.144.114.317.057.462-.029.144-.143.26-.286.347-.114.057-.229.115-.343.144l-.286.087s-.028 0-.028.029v.029c-.029.115-.057.23-.086.318-.028.115-.086.26-.2.404-.028 0-.028.03-.057.058z" transform="translate(5 5) translate(22.571 25.723)"/>
            </g>
        </g>
    </g>
</svg>
