<svg xmlns="http://www.w3.org/2000/svg" width="46" height="44" viewBox="0 0 46 44">
    <defs>
        <linearGradient id="b94j81ti0a" x1="49.792%" x2="49.792%" y1="15.748%" y2="84.272%">
            <stop offset="0%" stop-color="#333bb3"/>
            <stop offset="100%" stop-color="#07115d"/>
        </linearGradient>
        <linearGradient id="16cnpshwqb" x1="49.839%" x2="49.839%" y1="-5.047%" y2="104.749%">
            <stop offset="0%" stop-color="#333bb3"/>
            <stop offset="100%" stop-color="#07115d"/>
        </linearGradient>
        <linearGradient id="2q5pjfsync" x1="50.535%" x2="50.535%" y1="-4.97%" y2="103.572%">
            <stop offset="0%" stop-color="#333bb3"/>
            <stop offset="100%" stop-color="#07115d"/>
        </linearGradient>
        <linearGradient id="39ol8a4b9d" x1="50.341%" x2="50.341%" y1="-4.97%" y2="103.572%">
            <stop offset="0%" stop-color="#333bb3"/>
            <stop offset="100%" stop-color="#07115d"/>
        </linearGradient>
        <linearGradient id="tepuq3tlie" x1="50.406%" x2="50.406%" y1="-5.341%" y2="104.085%">
            <stop offset="0%" stop-color="#333bb3"/>
            <stop offset="100%" stop-color="#07115d"/>
        </linearGradient>
        <linearGradient id="tttsghvlkf" x1="50.053%" x2="50.053%" y1="-4.893%" y2="104.352%">
            <stop offset="0%" stop-color="#333bb3"/>
            <stop offset="100%" stop-color="#07115d"/>
        </linearGradient>
        <linearGradient id="q87yjlsltg" x1="50.143%" x2="50.143%" y1="13.479%" y2="159.563%">
            <stop offset="0%" stop-color="#333bb3"/>
            <stop offset="100%" stop-color="#07115d"/>
        </linearGradient>
        <linearGradient id="2craww6d7h" x1="-3.442%" x2="103.162%" y1="51.563%" y2="51.563%">
            <stop offset="0%" stop-color="#333bb3"/>
            <stop offset="100%" stop-color="#07115d"/>
        </linearGradient>
        <linearGradient id="f9v0pwu7fi" x1="-3.902%" x2="103.759%" y1="51.382%" y2="51.382%">
            <stop offset="0%" stop-color="#333bb3"/>
            <stop offset="100%" stop-color="#07115d"/>
        </linearGradient>
    </defs>
    <g fill="none" fill-rule="evenodd" stroke-linecap="round">
        <g>
            <g>
                <g>
                    <path stroke="url(#b94j81ti0a)" d="M6.7 28.983v-9.374c0-1.052.9-1.913 2-1.913h23.1c1.1 0 2 .86 2 1.913v9.374c0 1.052-.9 1.913-2 1.913H5.2c-1.9 0-3.7-1.148-4.2-2.966-.7-2.295-1-4.782-.8-7.365C.8 10.043 9.9 1.435 21 .957 34.4.383 45.2 11.19 43.9 24.104c-1 9.853-9.4 17.887-19.7 18.844-2.9.287-5.7 0-8.3-.765" transform="translate(-1217 -20) translate(1218 20)"/>
                    <path stroke="url(#16cnpshwqb)" d="M30 19.704H10.5c0 .957-.8 1.722-1.8 1.722v5.835c1 0 1.8.765 1.8 1.722H30c0-.957.8-1.722 1.8-1.722v-5.835c-1 0-1.8-.765-1.8-1.722z" transform="translate(-1217 -20) translate(1218 20)"/>
                    <path stroke="url(#2q5pjfsync)" d="M13.6 24.104c0 .861-.7 1.53-1.6 1.53-.9 0-1.6-.669-1.6-1.53 0-.86.7-1.53 1.6-1.53.9 0 1.6.67 1.6 1.53z" transform="translate(-1217 -20) translate(1218 20)"/>
                    <path stroke="url(#39ol8a4b9d)" d="M30 24.104c0 .861-.7 1.53-1.6 1.53-.9 0-1.6-.669-1.6-1.53 0-.86.7-1.53 1.6-1.53.9 0 1.6.67 1.6 1.53z" transform="translate(-1217 -20) translate(1218 20)"/>
                    <path stroke="url(#tepuq3tlie)" d="M22.6 24.391c0 1.626-1 2.966-2.2 2.966-1.2 0-2.2-1.34-2.2-2.966 0-1.626 1-2.965 2.2-2.965 1.2 0 2.2 1.244 2.2 2.965z" transform="translate(-1217 -20) translate(1218 20)"/>
                    <path stroke="url(#tttsghvlkf)" d="M10.2 16.357v-1.34c0-1.052.9-1.913 2-1.913h23.1c1.1 0 2 .861 2 1.913v9.374c0 1.052-.9 1.913-2 1.913" transform="translate(-1217 -20) translate(1218 20)"/>
                    <path stroke="url(#q87yjlsltg)" d="M35.3 22.574v-5.835c-1 0-1.8-.765-1.8-1.722H14c0 .574-.3 1.053-.7 1.34" transform="translate(-1217 -20) translate(1218 20)"/>
                </g>
                <path stroke="url(#2craww6d7h)" d="M18.9 4.209c1-.192 2.1-.287 3.1-.287 4.9 0 9.4 1.817 12.7 4.687" transform="translate(-1217 -20) translate(1218 20)"/>
                <path stroke="url(#f9v0pwu7fi)" d="M22 39.983c-1 0-2.1-.096-3.1-.287-4-.67-7.5-2.392-10.2-5.07" transform="translate(-1217 -20) translate(1218 20)"/>
            </g>
        </g>
    </g>
</svg>
