<?xml version="1.0"?>
<svg xmlns="http://www.w3.org/2000/svg" xmlns:xlink="http://www.w3.org/1999/xlink" version="1.1" id="Capa_1" x="0px" y="0px" viewBox="0 0 490.667 490.667" style="enable-background:new 0 0 490.667 490.667;" xml:space="preserve" width="512px" height="512px" class=""><g><path style="fill:#42A3FF" d="M245.333,0C109.839,0,0,109.839,0,245.333s109.839,245.333,245.333,245.333  s245.333-109.839,245.333-245.333C490.514,109.903,380.764,0.153,245.333,0z" data-original="#455A64" class="active-path" data-old_color="#455A64"/><path style="fill:#FFFFFF" d="M165.483,108.181c-5.053-3.028-11.604-1.386-14.632,3.667c-0.993,1.657-1.517,3.553-1.517,5.485v256  c0,5.891,4.776,10.667,10.667,10.667c1.931,0.001,3.826-0.523,5.483-1.515l213.333-128c5.049-3.036,6.68-9.589,3.645-14.638  c-0.899-1.495-2.15-2.746-3.645-3.645L165.483,108.181z" data-original="#FAFAFA" class="" data-old_color="#FAFAFA"/></g> </svg>
