<?xml version="1.0" encoding="utf-8"?>
<!-- Generator: Adobe Illustrator 24.2.1, SVG Export Plug-In . SVG Version: 6.00 Build 0)  -->
<svg version="1.1" id="圖層_1"
	xmlns="http://www.w3.org/2000/svg"
	xmlns:xlink="http://www.w3.org/1999/xlink" x="0px" y="0px" viewBox="0 0 300 300" style="enable-background:new 0 0 300 300;" xml:space="preserve">
	<style type="text/css">
	.st33{fill:none;}
	    .st0{fill:url(#SVGID_1_);}
    .st1{fill:url(#SVGID_2_);}
    .st2{fill:url(#SVGID_3_);}
    .st3{fill:url(#SVGID_4_);}
    .st4{fill:url(#SVGID_5_);}
    .st5{fill:url(#SVGID_6_);}
    .st6{fill:url(#SVGID_7_);}
    .st7{fill:url(#SVGID_8_);}
    .st8{fill:url(#SVGID_9_);}
    .st9{fill:url(#SVGID_10_);}
    .st10{fill:url(#SVGID_11_);}
    .st11{fill:url(#SVGID_12_);}
    .st12{fill:url(#SVGID_13_);}
    .st13{fill:url(#SVGID_14_);}
    .st14{fill:url(#SVGID_15_);}
    .st15{fill:url(#SVGID_16_);}
    .st16{fill:url(#SVGID_17_);}
    .st17{fill:url(#SVGID_18_);}
    .st18{fill:url(#SVGID_19_);}
    .st19{fill:url(#SVGID_20_);}
    .st20{fill:url(#SVGID_21_);}
    .st21{fill:url(#SVGID_22_);}
    .st22{fill:url(#SVGID_23_);}
    .st23{fill:url(#SVGID_24_);}
    .st24{fill:url(#SVGID_25_);}
    .st25{fill:url(#SVGID_26_);}
    .st26{fill:url(#SVGID_27_);}
    .st27{fill:url(#SVGID_28_);}
    .st28{fill:url(#SVGID_29_);}
    .st29{fill:url(#SVGID_30_);}
    .st30{fill:url(#SVGID_31_);}
    .st31{fill:url(#SVGID_32_);}
    .st32{fill:url(#SVGID_33_);}
    .st34{fill:url(#SVGID_34_);}
    .st35{fill:url(#SVGID_35_);}
    .st36{fill:url(#SVGID_36_);}
    .st37{fill:url(#SVGID_37_);}
    .st38{fill:url(#SVGID_38_);}
    .st39{fill:url(#SVGID_39_);}
    .st40{fill:url(#SVGID_40_);}
    .st41{fill:url(#SVGID_41_);}
    .st42{fill:url(#SVGID_42_);}
    .st43{fill:url(#SVGID_43_);}
    .st44{fill:url(#SVGID_44_);}
    .st45{fill:url(#SVGID_45_);}
    .st46{fill:url(#SVGID_46_);}
    .st47{fill:url(#SVGID_47_);}
	</style>
	<g>
		<linearGradient id="SVGID_1_" gradientUnits="userSpaceOnUse" x1="0" y1="150" x2="300" y2="150">
			<stop offset="0" style="stop-color:#171C61"/>
			<stop offset="0.1256" style="stop-color:#192568"/>
			<stop offset="0.4986" style="stop-color:#1F3E79"/>
			<stop offset="0.8033" style="stop-color:#234E85"/>
			<stop offset="1" style="stop-color:#245489"/>
		</linearGradient>
		<path class="st0" d="M150.46,52.88c38.46,0,76.91,0.02,115.37-0.02c6.34-0.01,12.44,1.13,17.97,4.17
		c5.9,3.25,10.39,8.02,13.24,14.25c2.15,4.71,2.97,9.59,2.96,14.76c-0.06,43.47,0.08,86.93-0.12,130.4
		c-0.05,10.65-5.06,19.08-13.94,25.12c-5.93,4.03-12.59,5.54-19.61,5.55c-77.76,0.03-155.52,0.06-233.28,0
		c-9.78-0.01-18.46-3.28-25.07-10.71c-4.87-5.47-7.88-12.01-7.89-19.44c-0.08-44.7-0.17-89.4,0.07-134.1
		c0.05-9.71,4.75-17.61,12.59-23.5c6.42-4.83,13.79-6.49,21.66-6.49c38.69,0,77.38,0,116.06,0
		C150.46,52.87,150.46,52.88,150.46,52.88z M149.88,229.94c0,0,0,0.01,0,0.01c38.99,0,77.98-0.03,116.97,0.02
		c8.93,0.01,16.25-6.48,16.22-16.01c-0.13-42.61-0.05-85.22-0.09-127.84c0-1.82-0.12-3.75-0.72-5.44
		c-2.44-6.89-7.99-10.66-15.33-10.66c-54.71,0-109.42,0-164.13,0c-23.12,0-46.23-0.05-69.35,0.08c-2.68,0.02-5.55,0.65-7.99,1.74
		c-6.38,2.86-8.51,8.29-8.5,15.03c0.07,41.69,0.04,83.37,0.05,125.06c0,1.85-0.25,3.81,0.29,5.51c0.82,2.57,1.78,5.35,3.49,7.34
		c3.26,3.78,7.74,5.2,12.8,5.19C72.36,229.92,111.12,229.94,149.88,229.94z"/>
		<linearGradient id="SVGID_2_" gradientUnits="userSpaceOnUse" x1="35.5988" y1="183.3639" x2="133.4276" y2="183.3639">
			<stop offset="0" style="stop-color:#171C61"/>
			<stop offset="0.1256" style="stop-color:#192568"/>
			<stop offset="0.4986" style="stop-color:#1F3E79"/>
			<stop offset="0.8033" style="stop-color:#234E85"/>
			<stop offset="1" style="stop-color:#245489"/>
		</linearGradient>
		<path class="st1" d="M84.79,202.81c-10.61,0.32-21.64-0.76-32.52-2.91c-4.29-0.85-8.42-2.77-12.44-4.6
		c-3.54-1.6-4.62-5.06-4.1-8.56c1.19-8.02,4.41-15.28,11.58-19.54c3.26-1.94,7.6-2.06,11.46-2.99c0.52-0.12,1.08-0.06,1.61-0.15
		c2.61-0.48,4.73-0.26,6.76,2.03c2.52,2.84,6.31,3.87,9.97,4.31c6.5,0.78,13.11,1.17,19.38-1.24c2.35-0.91,4.36-2.71,6.53-4.09
		c0.69-0.44,1.46-1.26,2.11-1.17c4.78,0.6,9.7,0.87,14.27,2.24c5.73,1.73,8.93,6.61,11.17,11.87c1.3,3.05,2.28,6.34,2.78,9.62
		c0.6,3.95-2.03,6.46-5.18,8.22c-4.39,2.46-9.21,3.64-14.16,4.48C104.5,201.97,94.97,203.03,84.79,202.81z"/>
		<linearGradient id="SVGID_3_" gradientUnits="userSpaceOnUse" x1="148.517" y1="116.3653" x2="264.3363" y2="116.3653">
			<stop offset="0" style="stop-color:#171C61"/>
			<stop offset="0.1256" style="stop-color:#192568"/>
			<stop offset="0.4986" style="stop-color:#1F3E79"/>
			<stop offset="0.8033" style="stop-color:#234E85"/>
			<stop offset="1" style="stop-color:#245489"/>
		</linearGradient>
		<path class="st2" d="M206.58,123.98c-16.41,0-32.83,0-49.24,0c-5.64,0-9.22-3.34-8.79-8.25c0.38-4.35,3.64-6.95,8.74-6.96
		c14.26-0.01,28.51-0.02,42.77-0.02c18.49,0,36.99-0.05,55.48,0.07c1.97,0.01,4.15,0.63,5.84,1.63c3.31,1.98,3.35,5.9,2.47,9.34
		c-0.59,2.3-3.91,4.17-7.32,4.18c-16.34,0.02-32.67,0-49.01-0.01c-0.31,0-0.62,0-0.92,0C206.58,123.97,206.58,123.98,206.58,123.98z
		"/>
		<linearGradient id="SVGID_4_" gradientUnits="userSpaceOnUse" x1="148.5047" y1="149.9661" x2="264.4644" y2="149.9661">
			<stop offset="0" style="stop-color:#171C61"/>
			<stop offset="0.1256" style="stop-color:#192568"/>
			<stop offset="0.4986" style="stop-color:#1F3E79"/>
			<stop offset="0.8033" style="stop-color:#234E85"/>
			<stop offset="1" style="stop-color:#245489"/>
		</linearGradient>
		<path class="st3" d="M206.45,157.5c-16.65,0-33.29-0.06-49.94,0.03c-4.93,0.03-8.29-3.91-7.99-8.16c0.23-3.16,2.65-6.08,5.79-6.62
		c1.58-0.27,3.22-0.26,4.83-0.26c32.29-0.02,64.58,0.06,96.87-0.09c6.78-0.03,9.69,5.54,7.96,10.37c-0.81,2.26-2.31,3.81-4.62,4.38
		c-1.25,0.31-2.59,0.34-3.89,0.35C239.12,157.52,222.79,157.51,206.45,157.5z"/>
		<linearGradient id="SVGID_5_" gradientUnits="userSpaceOnUse" x1="57.17" y1="129.9329" x2="111.6431" y2="129.9329">
			<stop offset="0" style="stop-color:#171C61"/>
			<stop offset="0.1256" style="stop-color:#192568"/>
			<stop offset="0.4986" style="stop-color:#1F3E79"/>
			<stop offset="0.8033" style="stop-color:#234E85"/>
			<stop offset="1" style="stop-color:#245489"/>
		</linearGradient>
		<path class="st4" d="M85.08,97.14c8.84,0.27,16.64,2.89,21.07,11.12c1.91,3.55,2.72,7.75,3.65,11.74c0.57,2.46,0.27,4.97,1.15,7.57
		c1.32,3.88,0.71,8.06-1.51,11.77c-1.72,2.88-3.42,5.77-5.12,8.66c-2.76,4.69-6.12,8.96-10.74,11.82c-7.54,4.67-13.89,3.6-21-2.12
		c-4.72-3.8-7.82-8.94-10.17-14.52c-0.29-0.68-0.68-1.4-1.22-1.88c-3.07-2.76-3.61-6.49-3.98-10.26c-0.09-0.96-0.06-2.18,0.44-2.92
		c2.88-4.27,2.2-9.33,3.24-13.99c1.51-6.82,5.29-11.58,11.66-14.34C76.54,98.05,80.68,97.02,85.08,97.14z M101.45,120.26
		c-1.7,0.22-3.04,0.84-3.72,0.41c-2.9-1.86-6.04-1.44-8.98-0.88c-4.61,0.88-9.04,0.31-13.5-0.62c-4.05-0.84-8.16,1.29-9.79,5.08
		c-0.66,1.53-1.19,3.25-2.26,4.46c-2.45,2.77-2.3,7.84,0.43,10.48c1.18,1.14,2.32,2.49,2.99,3.97c2.08,4.65,5.03,8.62,8.94,11.83
		c4.39,3.61,9.29,4.47,14.6,2.08c5.19-2.33,8.28-6.68,11.03-11.36c1.1-1.88,1.73-4.26,3.28-5.59c2.57-2.22,3.22-4.95,3.37-7.96
		c0.04-0.87-0.63-1.83-1.12-2.67c-0.83-1.42-1.83-2.73-2.64-4.16C103.05,123.51,102.15,121.62,101.45,120.26z"/>
		<linearGradient id="SVGID_6_" gradientUnits="userSpaceOnUse" x1="148.4052" y1="183.6251" x2="216.938" y2="183.6251">
			<stop offset="0" style="stop-color:#171C61"/>
			<stop offset="0.1256" style="stop-color:#192568"/>
			<stop offset="0.4986" style="stop-color:#1F3E79"/>
			<stop offset="0.8033" style="stop-color:#234E85"/>
			<stop offset="1" style="stop-color:#245489"/>
		</linearGradient>
		<path class="st5" d="M182.65,176.02c8.86,0,17.72,0,26.58,0c4.22,0,6.26,2.51,7.29,5.04c1.1,2.71-0.08,6.81-2.65,8.48
		c-1.57,1.01-3.72,1.56-5.61,1.57c-17.1,0.14-34.21,0.18-51.31,0.03c-2.06-0.02-4.43-0.94-6.08-2.2c-2.34-1.78-3.03-4.66-1.99-7.5
		c1.01-2.77,2.74-5.23,6.05-5.27c9.24-0.12,18.49-0.04,27.73-0.04C182.65,176.09,182.65,176.05,182.65,176.02z"/>
	</g>
</svg>
