<svg xmlns="http://www.w3.org/2000/svg" width="62.501" height="55.168" viewBox="0 0 62.501 55.168">
    <defs>
        <style>
            .cls-1{fill:#083a6e}
        </style>
    </defs>
    <g id="myinvest_1" transform="translate(-1.3 -3.3)">
        <path id="Path_3429" d="M56.468 3.3H22.57a7.521 7.521 0 0 0-7.644 7.644V49.5H2.629A1.43 1.43 0 0 0 1.3 50.824a7.521 7.521 0 0 0 7.644 7.644h33.9a7.521 7.521 0 0 0 7.644-7.644V11.941H62.45a1.43 1.43 0 0 0 1.329-1.329c.333-3.989-3.323-7.312-7.311-7.312zM35.531 51.821a10.3 10.3 0 0 0 1.994 4.32H9.276a5.334 5.334 0 0 1-5.317-4.32zm7.644 4.32a5.249 5.249 0 0 1-5.317-5.317 1.43 1.43 0 0 0-1.33-1.324H16.92V10.944a5.538 5.538 0 0 1 5.65-5.317h28.249a7.843 7.843 0 0 0-2.326 5.317v39.88a5.249 5.249 0 0 1-5.318 5.318zM56.468 5.626a5.334 5.334 0 0 1 5.317 4.32H51.151a5.093 5.093 0 0 1 5.317-4.32z" class="cls-1"/>
        <path id="Path_3430" d="M8.629 9.959H27.24a1.43 1.43 0 0 0 1.33-1.33A1.43 1.43 0 0 0 27.24 7.3H8.629A1.43 1.43 0 0 0 7.3 8.629a1.43 1.43 0 0 0 1.329 1.33z" class="cls-1" transform="translate(13.94 9.294)"/>
        <path id="Path_3431" d="M8.529 11.159H30.8a1.43 1.43 0 0 0 1.329-1.329A1.43 1.43 0 0 0 30.8 8.5H8.529A2.208 2.208 0 0 0 7.2 10.162c0 .664.665.997 1.329.997z" class="cls-1" transform="translate(13.708 12.082)"/>
        <path id="Path_3432" d="M8.229 12.359h17.947a1.43 1.43 0 0 0 1.329-1.329 1.43 1.43 0 0 0-1.329-1.33H8.229A1.43 1.43 0 0 0 6.9 11.029a1.43 1.43 0 0 0 1.329 1.33z" class="cls-1" transform="translate(13.011 14.87)"/>
        <path id="Path_3433" d="M33.884 11H7.629A1.43 1.43 0 0 0 6.3 12.329a1.43 1.43 0 0 0 1.329 1.329h25.923a1.43 1.43 0 0 0 1.329-1.329c0-.664-.332-1.329-.997-1.329z" class="cls-1" transform="translate(11.617 17.89)"/>
        <path id="Path_3434" d="M32.887 12.2H7.629A1.43 1.43 0 0 0 6.3 13.529a1.43 1.43 0 0 0 1.329 1.329h24.926a1.43 1.43 0 0 0 1.329-1.329c0-.664-.332-1.329-.997-1.329z" class="cls-1" transform="translate(11.617 20.678)"/>
        <path id="Path_3435" d="M28.234 13.4H7.629A1.43 1.43 0 0 0 6.3 14.729a1.43 1.43 0 0 0 1.329 1.329H27.9a1.43 1.43 0 0 0 1.329-1.329c.002-.664-.329-1.329-.995-1.329z" class="cls-1" transform="translate(11.617 23.466)"/>
    </g>
</svg>
