<svg xmlns="http://www.w3.org/2000/svg" width="40" height="41" viewBox="0 0 40 41">
    <defs>
        <linearGradient id="72f9mlgcxa" x1="50%" x2="50%" y1="0%" y2="100%">
            <stop offset="0%" stop-color="#81C3F3"/>
            <stop offset="100%" stop-color="#157EFB"/>
        </linearGradient>
        <linearGradient id="x8bif2qgqb" x1="50%" x2="50%" y1="0%" y2="100%">
            <stop offset="0%" stop-color="#81C3F3"/>
            <stop offset="100%" stop-color="#157EFB"/>
        </linearGradient>
    </defs>
    <g fill="none" fill-rule="evenodd" stroke-linecap="round">
        <g>
            <g>
                <path stroke="url(#72f9mlgcxa)" d="M19.995 39.933c-5.952 0-7.16-4.448-7.402-6.475-.068-.566-.547-.986-1.116-.986H1.794c-.623 0-1.127-.504-1.127-1.126 0-.622.504-1.126 1.127-1.126h.61c.425 0 .813-.236 1.005-.615C4.627 27.193 8.95 18.168 8.95 11.513 8.95 3.765 19.675.786 19.675.786c.331-.27.64 0 .64 0S31.04 3.765 31.04 11.513c0 6.655 4.321 15.68 5.54 18.092.192.379.58.615 1.004.615h.612c.622 0 1.126.504 1.126 1.126 0 .622-.504 1.126-1.126 1.126H18.47" transform="translate(-1335 -20) translate(1335 20)"/>
                <path stroke="url(#x8bif2qgqb)" d="M19.995 39.933c4.631 0 6.39-2.693 7.056-4.844" transform="translate(-1335 -20) translate(1335 20)"/>
            </g>
        </g>
    </g>
</svg>
