<svg id="圖層_1" data-name="圖層 1" xmlns="http://www.w3.org/2000/svg" xmlns:xlink="http://www.w3.org/1999/xlink" viewBox="0 0 512 512"><defs><linearGradient id="未命名漸層_128" x1="-53.3" y1="628.76" x2="629.71" y2="-54.26" gradientUnits="userSpaceOnUse"><stop offset="0" stop-color="#003a77"/><stop offset="0.09" stop-color="#004f8f"/><stop offset="0.6" stop-color="#00b0cf"/><stop offset="0.8" stop-color="#00f0ff"/><stop offset="1" stop-color="#bcffff"/></linearGradient><linearGradient id="未命名漸層_129" x1="408.5" y1="134.02" x2="470.76" y2="4.88" gradientUnits="userSpaceOnUse"><stop offset="0" stop-color="#57c0da"/><stop offset="1" stop-color="#1d5398"/></linearGradient><linearGradient id="未命名漸層_142" x1="325.9" y1="68.91" x2="495.41" y2="99.53" gradientUnits="userSpaceOnUse"><stop offset="0" stop-color="#fff" stop-opacity="0"/><stop offset="0.11" stop-color="#fff" stop-opacity="0.27"/><stop offset="0.24" stop-color="#fff" stop-opacity="0.58"/><stop offset="0.36" stop-color="#fff" stop-opacity="0.81"/><stop offset="0.44" stop-color="#fff" stop-opacity="0.95"/><stop offset="0.48" stop-color="#fff"/><stop offset="0.58" stop-color="#fff" stop-opacity="0.74"/><stop offset="0.7" stop-color="#fff" stop-opacity="0.48"/><stop offset="0.8" stop-color="#fff" stop-opacity="0.27"/><stop offset="0.89" stop-color="#fff" stop-opacity="0.12"/><stop offset="0.96" stop-color="#fff" stop-opacity="0.03"/><stop offset="1" stop-color="#fff" stop-opacity="0"/></linearGradient><linearGradient id="未命名漸層_128-2" x1="8.8" y1="690.87" x2="691.82" y2="7.85" xlink:href="#未命名漸層_128"/><linearGradient id="未命名漸層_112" x1="-3480.36" y1="3009.88" x2="-3418.1" y2="2880.75" gradientTransform="translate(1219.04 4929.65) rotate(119.77)" gradientUnits="userSpaceOnUse"><stop offset="0" stop-color="#00aece"/><stop offset="1" stop-color="#000c29"/></linearGradient><linearGradient id="未命名漸層_142-2" x1="-3562.96" y1="2944.78" x2="-3393.46" y2="2975.4" gradientTransform="translate(1219.04 4929.65) rotate(119.77)" xlink:href="#未命名漸層_142"/><linearGradient id="未命名漸層_128-3" x1="-167.61" y1="514.45" x2="515.4" y2="-168.57" xlink:href="#未命名漸層_128"/><linearGradient id="未命名漸層_112-2" x1="935.07" y1="5076.53" x2="997.33" y2="4947.39" gradientTransform="matrix(-0.5, -0.87, 0.87, -0.5, -3793.01, 3564.86)" xlink:href="#未命名漸層_112"/><linearGradient id="未命名漸層_142-3" x1="852.47" y1="5011.42" x2="1021.97" y2="5042.04" gradientTransform="matrix(-0.5, -0.87, 0.87, -0.5, -3793.01, 3564.86)" xlink:href="#未命名漸層_142"/><linearGradient id="未命名漸層_128-4" x1="254.9" y1="330.84" x2="341.65" y2="159.24" xlink:href="#未命名漸層_128"/></defs><title>1-13v2.0</title><path d="M441.94,31.05a93.61,93.61,0,0,0-36.92-18c-39.67-9.18-83.38,9.17-110.72,46.59h0c45.77-7.82,75.22,3.29,89.68,10.6,30.25,15.3,54,44,69,81.33,12.48,31.14,18.84,68.3,17.68,108.89,0,1.16-.1,2.33-.14,3.49a355.85,355.85,0,0,1-4.09,41.5q-2.69,16.95-7.07,34.36h0s29.46-85.34,30-171.1c.22-33.43-4-66.9-16-95.42A114.42,114.42,0,0,0,441.94,31.05Z" fill="url(#未命名漸層_128)"/><path d="M294.3,59.64h0c45.77-7.82,75.22,3.29,89.68,10.6,30.25,15.3,54,44,69,81.33,12.48,31.14,18.84,68.3,17.68,108.89,0,1.16-.1,2.33-.14,3.49a355.85,355.85,0,0,1-4.09,41.5q-2.69,16.95-7.07,34.36h0s29.46-85.34,30-171.1C481.31-9.94,294.3,59.64,294.3,59.64Z" fill="url(#未命名漸層_129)"/><path d="M489.38,168.71c.22-33.42-4-66.9-16-95.42a114.42,114.42,0,0,0-31.45-42.24,93.61,93.61,0,0,0-36.92-18c-39.67-9.18-83.38,9.17-110.72,46.59C294.3,59.64,481.31-9.94,489.38,168.71Z" opacity="0.9" fill="url(#未命名漸層_142)"/><path d="M407.36,494.26a93.57,93.57,0,0,0,34-23.11c27.67-29.87,33.44-76.93,14.54-119.24h0c-15.94,43.61-40.2,63.66-53.73,72.58-28.31,18.66-65,25.05-104.86,19.5-33.22-4.63-68.64-17.56-103.29-38.72-1-.61-2-1.24-3-1.86a353.36,353.36,0,0,1-34-24.15q-13.38-10.74-26.32-23.2h0s59.45,67.95,133.61,111c28.9,16.79,60,29.77,90.76,33.51A114.32,114.32,0,0,0,407.36,494.26Z" fill="url(#未命名漸層_128-2)"/><path d="M455.86,351.91h0c-15.94,43.61-40.2,63.66-53.73,72.58-28.31,18.66-65,25.05-104.86,19.5-33.22-4.63-68.64-17.56-103.29-38.72-1-.61-2-1.24-3-1.86a353.36,353.36,0,0,1-34-24.15q-13.38-10.74-26.32-23.2h0s59.45,67.95,133.61,111C423.39,548.79,455.86,351.91,455.86,351.91Z" fill="url(#未命名漸層_112)"/><path d="M264.32,467.08c28.9,16.79,60,29.77,90.76,33.51a114.32,114.32,0,0,0,52.28-6.33,93.57,93.57,0,0,0,34-23.11c27.67-29.87,33.44-76.93,14.54-119.24C455.86,351.91,423.39,548.79,264.32,467.08Z" opacity="0.75" fill="url(#未命名漸層_142-2)"/><path d="M23.64,232.07a93.67,93.67,0,0,0,2.95,41c12,38.92,49.76,67.52,95.84,72.41h0c-29.72-35.68-34.89-66.73-35.81-82.9-1.94-33.85,10.94-68.79,35.75-100.48C143,135.66,172,111.51,207.7,92.16c1-.55,2.06-1.09,3.09-1.63a354.37,354.37,0,0,1,37.94-17.28q16-6.18,33.28-11.12h0S193.4,79.45,118.93,122c-29,16.58-55.88,37-74.53,61.7A114.38,114.38,0,0,0,23.64,232.07Z" fill="url(#未命名漸層_128-3)"/><path d="M122.43,345.46h0c-29.72-35.68-34.89-66.73-35.81-82.9-1.94-33.85,10.94-68.79,35.75-100.48C143,135.66,172,111.51,207.7,92.16c1-.55,2.06-1.09,3.09-1.63a354.37,354.37,0,0,1,37.94-17.28q16-6.18,33.28-11.12h0S193.4,79.45,118.93,122C-31.57,218.58,122.43,345.46,122.43,345.46Z" fill="url(#未命名漸層_112-2)"/><path d="M118.93,122c-29,16.58-55.88,37-74.53,61.7a114.52,114.52,0,0,0-20.76,48.39,93.67,93.67,0,0,0,2.95,41c12,38.92,49.76,67.52,95.84,72.41C122.43,345.46-31.57,218.58,118.93,122Z" opacity="0.4" fill="url(#未命名漸層_142-3)"/><path d="M257.18,333.07v-3.39h22.75V179q-8,4.35-16,9t-15.73,8.95l-1.93-3.14q8.7-5.09,15.48-9t12.7-7.74q5.92-3.87,12-8.59t13.31-11.49h9.68V329.68H331.7v3.39Z" fill="url(#未命名漸層_128-4)"/></svg>