<svg id="圖層_1" data-name="圖層 1" xmlns="http://www.w3.org/2000/svg" xmlns:xlink="http://www.w3.org/1999/xlink" viewBox="0 0 512 512"><defs><linearGradient id="未命名漸層_166" x1="-53.82" y1="629.28" x2="630.24" y2="-54.79" gradientUnits="userSpaceOnUse"><stop offset="0" stop-color="#323232"/><stop offset="0.05" stop-color="#5a5a5a"/><stop offset="0.4" stop-color="#959595"/><stop offset="0.6" stop-color="#818181"/><stop offset="0.8" stop-color="#c7c7c7"/><stop offset="1" stop-color="#f9f9f9"/></linearGradient><linearGradient id="未命名漸層_220" x1="408.5" y1="134.02" x2="470.76" y2="4.88" gradientUnits="userSpaceOnUse"><stop offset="0" stop-color="#aaa"/><stop offset="1" stop-color="#464646"/></linearGradient><linearGradient id="未命名漸層_142" x1="325.9" y1="68.91" x2="495.41" y2="99.53" gradientUnits="userSpaceOnUse"><stop offset="0" stop-color="#fff" stop-opacity="0"/><stop offset="0.11" stop-color="#fff" stop-opacity="0.27"/><stop offset="0.24" stop-color="#fff" stop-opacity="0.58"/><stop offset="0.36" stop-color="#fff" stop-opacity="0.81"/><stop offset="0.44" stop-color="#fff" stop-opacity="0.95"/><stop offset="0.48" stop-color="#fff"/><stop offset="0.58" stop-color="#fff" stop-opacity="0.74"/><stop offset="0.7" stop-color="#fff" stop-opacity="0.48"/><stop offset="0.8" stop-color="#fff" stop-opacity="0.27"/><stop offset="0.89" stop-color="#fff" stop-opacity="0.12"/><stop offset="0.96" stop-color="#fff" stop-opacity="0.03"/><stop offset="1" stop-color="#fff" stop-opacity="0"/></linearGradient><linearGradient id="未命名漸層_166-2" x1="8.28" y1="691.39" x2="692.35" y2="7.32" xlink:href="#未命名漸層_166"/><linearGradient id="未命名漸層_190" x1="-3353.65" y1="729.38" x2="-3291.39" y2="600.25" gradientTransform="translate(-697.54 3687.28) rotate(119.77)" gradientUnits="userSpaceOnUse"><stop offset="0" stop-color="#aaa"/><stop offset="1"/></linearGradient><linearGradient id="未命名漸層_142-2" x1="-3436.25" y1="664.28" x2="-3266.75" y2="694.9" gradientTransform="translate(-697.54 3687.28) rotate(119.77)" xlink:href="#未命名漸層_142"/><linearGradient id="未命名漸層_166-3" x1="-168.13" y1="514.97" x2="515.93" y2="-169.1" xlink:href="#未命名漸層_166"/><linearGradient id="未命名漸層_190-2" x1="-981.11" y1="3826.41" x2="-918.85" y2="3697.27" gradientTransform="matrix(-0.5, -0.87, 0.87, -0.5, -3672.8, 1280.11)" xlink:href="#未命名漸層_190"/><linearGradient id="未命名漸層_142-3" x1="-1063.71" y1="3761.3" x2="-894.21" y2="3791.92" gradientTransform="matrix(-0.5, -0.87, 0.87, -0.5, -3672.8, 1280.11)" xlink:href="#未命名漸層_142"/><linearGradient id="未命名漸層_166-4" x1="227.86" y1="306.39" x2="347.12" y2="187.13" xlink:href="#未命名漸層_166"/></defs><title>1-13v2.0</title><path d="M441.94,31.05a93.61,93.61,0,0,0-36.92-18c-39.67-9.18-83.38,9.17-110.72,46.59h0c45.77-7.82,75.22,3.29,89.68,10.6,30.25,15.3,54,44,69,81.33,12.48,31.14,18.84,68.3,17.68,108.89,0,1.16-.1,2.33-.14,3.49a355.85,355.85,0,0,1-4.09,41.5q-2.69,16.95-7.07,34.36h0s29.46-85.34,30-171.1c.22-33.43-4-66.9-16-95.42A114.42,114.42,0,0,0,441.94,31.05Z" fill="url(#未命名漸層_166)"/><path d="M294.3,59.64h0c45.77-7.82,75.22,3.29,89.68,10.6,30.25,15.3,54,44,69,81.33,12.48,31.14,18.84,68.3,17.68,108.89,0,1.16-.1,2.33-.14,3.49a355.85,355.85,0,0,1-4.09,41.5q-2.69,16.95-7.07,34.36h0s29.46-85.34,30-171.1C481.31-9.94,294.3,59.64,294.3,59.64Z" fill="url(#未命名漸層_220)"/><path d="M489.38,168.71c.22-33.42-4-66.9-16-95.42a114.42,114.42,0,0,0-31.45-42.24,93.61,93.61,0,0,0-36.92-18c-39.67-9.18-83.38,9.17-110.72,46.59C294.3,59.64,481.31-9.94,489.38,168.71Z" opacity="0.9" fill="url(#未命名漸層_142)"/><path d="M407.36,494.26a93.57,93.57,0,0,0,34-23.11c27.67-29.87,33.44-76.93,14.54-119.24h0c-15.94,43.61-40.2,63.66-53.73,72.58-28.31,18.66-65,25.05-104.86,19.5-33.22-4.63-68.64-17.56-103.29-38.72-1-.61-2-1.24-3-1.86a353.36,353.36,0,0,1-34-24.15q-13.38-10.74-26.32-23.2h0s59.45,67.95,133.61,111c28.9,16.79,60,29.77,90.76,33.51A114.32,114.32,0,0,0,407.36,494.26Z" fill="url(#未命名漸層_166-2)"/><path d="M455.86,351.91h0c-15.94,43.61-40.2,63.66-53.73,72.58-28.31,18.66-65,25.05-104.86,19.5-33.22-4.63-68.64-17.56-103.29-38.72-1-.61-2-1.24-3-1.86a353.36,353.36,0,0,1-34-24.15q-13.38-10.74-26.32-23.2h0s59.45,67.95,133.61,111C423.39,548.79,455.86,351.91,455.86,351.91Z" fill="url(#未命名漸層_190)"/><path d="M264.32,467.08c28.9,16.79,60,29.77,90.76,33.51a114.32,114.32,0,0,0,52.28-6.33,93.57,93.57,0,0,0,34-23.11c27.67-29.87,33.44-76.93,14.54-119.24C455.86,351.91,423.39,548.79,264.32,467.08Z" opacity="0.75" fill="url(#未命名漸層_142-2)"/><path d="M23.64,232.07a93.67,93.67,0,0,0,2.95,41c12,38.92,49.76,67.52,95.84,72.41h0c-29.72-35.68-34.89-66.73-35.81-82.9-1.94-33.85,10.94-68.79,35.75-100.48C143,135.66,172,111.51,207.7,92.16c1-.55,2.06-1.09,3.09-1.63a354.37,354.37,0,0,1,37.94-17.28q16-6.18,33.28-11.12h0S193.4,79.45,118.93,122c-29,16.58-55.88,37-74.53,61.7A114.38,114.38,0,0,0,23.64,232.07Z" fill="url(#未命名漸層_166-3)"/><path d="M122.43,345.46h0c-29.72-35.68-34.89-66.73-35.81-82.9-1.94-33.85,10.94-68.79,35.75-100.48C143,135.66,172,111.51,207.7,92.16c1-.55,2.06-1.09,3.09-1.63a354.37,354.37,0,0,1,37.94-17.28q16-6.18,33.28-11.12h0S193.4,79.45,118.93,122C-31.57,218.58,122.43,345.46,122.43,345.46Z" fill="url(#未命名漸層_190-2)"/><path d="M118.93,122c-29,16.58-55.88,37-74.53,61.7a114.52,114.52,0,0,0-20.76,48.39,93.67,93.67,0,0,0,2.95,41c12,38.92,49.76,67.52,95.84,72.41C122.43,345.46-31.57,218.58,118.93,122Z" opacity="0.4" fill="url(#未命名漸層_142-3)"/><path d="M235.17,273.91a38.53,38.53,0,0,1,8.34-12,61.5,61.5,0,0,1,12.22-9.2q6.9-4,14.88-7.86-6.53-3.63-12.22-7.26a44.13,44.13,0,0,1-9.92-8.59,39.62,39.62,0,0,1-6.77-11.49,44.32,44.32,0,0,1-2.54-16,42.79,42.79,0,0,1,15.48-33.39,53.93,53.93,0,0,1,17.06-9.43,64.32,64.32,0,0,1,21.17-3.39,54.88,54.88,0,0,1,17.66,2.78,46.69,46.69,0,0,1,14.4,7.74,38.5,38.5,0,0,1,9.8,11.62,29.55,29.55,0,0,1,3.63,14.39,31.51,31.51,0,0,1-7.86,21.05q-7.87,9.19-24.56,16.94,19.59,9,29.76,20.44t10.16,28.43a49.19,49.19,0,0,1-4.24,19.36,61,61,0,0,1-30.36,31.33,55.41,55.41,0,0,1-24.2,5.2A67.13,67.13,0,0,1,266,331.38a56,56,0,0,1-17.42-9.2,45.72,45.72,0,0,1-12-14.15,36.79,36.79,0,0,1-4.48-17.91A39.51,39.51,0,0,1,235.17,273.91Zm30.36-18.75a42.82,42.82,0,0,0-4.72,11A58.48,58.48,0,0,0,258.88,278c-.24,4-.37,7.74-.37,11.13a79.33,79.33,0,0,0,2.18,20.2,37.71,37.71,0,0,0,5.93,13.06,20.54,20.54,0,0,0,9.07,7,31.31,31.31,0,0,0,11.37,2.06q9.93,0,16.46-3.63a29.79,29.79,0,0,0,10.28-9.08,35.6,35.6,0,0,0,5.32-11.85,49.55,49.55,0,0,0,1.58-11.74,45.94,45.94,0,0,0-1.7-13.3,31.74,31.74,0,0,0-5-9.92,35.41,35.41,0,0,0-8.1-7.74,113.2,113.2,0,0,0-11.13-6.78l-20.57-10.89A25.5,25.5,0,0,0,265.53,255.16Zm-.48-53.35a32,32,0,0,0,8.22,10.28,64.87,64.87,0,0,0,12.83,8.23q7.48,3.75,16.69,7.86a43.39,43.39,0,0,0,3.51-3.38,19.24,19.24,0,0,0,3.39-5.69A44.67,44.67,0,0,0,312.23,209a117.89,117.89,0,0,0,1-16.82c0-2.25-.17-5.24-.49-8.95a38.48,38.48,0,0,0-2.66-11,23.76,23.76,0,0,0-6.9-9.43q-4.71-4-13.18-4A27.5,27.5,0,0,0,278.72,161a26,26,0,0,0-8.83,6.29,29.59,29.59,0,0,0-5.69,9.32A31.31,31.31,0,0,0,262.14,188,30.45,30.45,0,0,0,265.05,201.81Z" fill="url(#未命名漸層_166-4)"/></svg>