<?xml version="1.0" encoding="utf-8"?>
<!-- Generator: Adobe Illustrator 24.2.1, SVG Export Plug-In . SVG Version: 6.00 Build 0)  -->
<svg version="1.1" id="圖層_1" xmlns="http://www.w3.org/2000/svg" xmlns:xlink="http://www.w3.org/1999/xlink" x="0px" y="0px"
	 viewBox="0 0 300 300" style="enable-background:new 0 0 300 300;" xml:space="preserve">
<style type="text/css">
	.st0{fill:url(#SVGID_1_);}
	.st1{fill:url(#SVGID_2_);}
	.st2{fill:url(#SVGID_3_);}
	.st3{fill:url(#SVGID_4_);}
	.st4{fill:url(#SVGID_5_);}
	.st5{fill:url(#SVGID_6_);}
	.st6{fill:url(#SVGID_7_);}
	.st7{fill:url(#SVGID_8_);}
	.st8{fill:url(#SVGID_9_);}
	.st9{fill:url(#SVGID_10_);}
	.st10{fill:url(#SVGID_11_);}
	.st11{fill:url(#SVGID_12_);}
	.st12{fill:url(#SVGID_13_);}
	.st13{fill:url(#SVGID_14_);}
	.st14{fill:url(#SVGID_15_);}
	.st15{fill:url(#SVGID_16_);}
	.st16{fill:url(#SVGID_17_);}
	.st17{fill:url(#SVGID_18_);}
	.st18{fill:url(#SVGID_19_);}
	.st19{fill:url(#SVGID_20_);}
	.st20{fill:url(#SVGID_21_);}
	.st21{fill:url(#SVGID_22_);}
	.st22{fill:url(#SVGID_23_);}
	.st23{fill:url(#SVGID_24_);}
	.st24{fill:url(#SVGID_25_);}
	.st25{fill:url(#SVGID_26_);}
	.st26{fill:url(#SVGID_27_);}
	.st27{fill:url(#SVGID_28_);}
	.st28{fill:url(#SVGID_29_);}
	.st29{fill:url(#SVGID_30_);}
	.st30{fill:url(#SVGID_31_);}
	.st31{fill:url(#SVGID_32_);}
	.st32{fill:url(#SVGID_33_);}
	.st33{fill:none;}
	.st34{fill:url(#SVGID_34_);}
	.st35{fill:url(#SVGID_35_);}
	.st36{fill:url(#SVGID_36_);}
	.st37{fill:url(#SVGID_37_);}
	.st38{fill:url(#SVGID_38_);}
	.st39{fill:url(#SVGID_39_);}
	.st40{fill:url(#SVGID_40_);}
	.st41{fill:url(#SVGID_41_);}
	.st42{fill:url(#SVGID_42_);}
	.st43{fill:url(#SVGID_43_);}
	.st44{fill:url(#SVGID_44_);}
	.st45{fill:url(#SVGID_45_);}
	.st46{fill:url(#SVGID_46_);}
	.st47{fill:url(#SVGID_47_);}
</style>
<g>
	<linearGradient id="SVGID_1_" gradientUnits="userSpaceOnUse" x1="9.094947e-13" y1="150" x2="300" y2="150">
		<stop  offset="0" style="stop-color:#171C61"/>
		<stop  offset="0.1256" style="stop-color:#192568"/>
		<stop  offset="0.4986" style="stop-color:#1F3E79"/>
		<stop  offset="0.8033" style="stop-color:#234E85"/>
		<stop  offset="1" style="stop-color:#245489"/>
	</linearGradient>
	<path class="st0" d="M0,247.26c0-64.85,0-129.69,0-194.54c0.17-0.24,0.4-0.45,0.49-0.71C4.03,41.67,9.84,37.5,20.76,37.5
		c86.42,0,172.84,0,259.25,0c12.1,0,19.98,7.85,19.98,19.92c0.01,61.71,0.01,123.43-0.01,185.14c0,1.74-0.06,3.54-0.46,5.22
		c-2.22,9.23-9.39,14.7-19.21,14.7c-67.57,0.01-135.14,0.01-202.72,0.01c-19.43,0-38.86-0.03-58.3,0.02
		c-5.13,0.01-9.89-1.36-13.23-5.14C3.51,254.47,1.98,250.66,0,247.26z M18.74,56.34c0,9.49,0.07,18.66-0.05,27.83
		c-0.03,2.01,0.67,3.15,2.28,4.24c42.15,28.58,84.27,57.2,126.35,85.88c1.98,1.35,3.29,1.42,5.31,0.02
		c42.38-29.28,84.83-58.46,127.21-87.73c0.75-0.52,1.35-1.81,1.36-2.75c0.1-8.59,0.06-17.19,0.05-25.78c0-0.55-0.12-1.1-0.19-1.71
		C193.62,56.34,106.35,56.34,18.74,56.34z M32.78,243.5c78.22,0,156.33,0,234.42,0c-24.76-24.72-49.41-49.34-74.2-74.09
		c-0.57,0.37-1.39,0.88-2.17,1.42c-12.53,8.63-25.11,17.21-37.56,25.96c-2.32,1.63-3.87,1.85-6.33,0.13
		c-11.18-7.84-22.54-15.43-33.83-23.11c-2.17-1.47-4.35-2.94-6.34-4.28C82.02,194.27,57.45,218.83,32.78,243.5z M209.87,157.71
		c23.94,23.94,47.75,47.75,71.22,71.22c0-39.47,0-79.61,0-120.22C256.93,125.33,233.12,141.72,209.87,157.71z M18.88,228.99
		c23.55-23.53,47.27-47.21,71.04-70.96c-23.35-15.88-47.02-31.96-71.04-48.29C18.88,150.1,18.88,189.87,18.88,228.99z"/>
</g>
</svg>
