<svg id="圖層_1" data-name="圖層 1" xmlns="http://www.w3.org/2000/svg" xmlns:xlink="http://www.w3.org/1999/xlink" viewBox="0 0 512 512"><defs><linearGradient id="未命名漸層_166" x1="-53.82" y1="629.28" x2="630.24" y2="-54.79" gradientUnits="userSpaceOnUse"><stop offset="0" stop-color="#323232"/><stop offset="0.05" stop-color="#5a5a5a"/><stop offset="0.4" stop-color="#959595"/><stop offset="0.6" stop-color="#818181"/><stop offset="0.8" stop-color="#c7c7c7"/><stop offset="1" stop-color="#f9f9f9"/></linearGradient><linearGradient id="未命名漸層_220" x1="408.5" y1="134.02" x2="470.76" y2="4.88" gradientUnits="userSpaceOnUse"><stop offset="0" stop-color="#aaa"/><stop offset="1" stop-color="#464646"/></linearGradient><linearGradient id="未命名漸層_142" x1="325.9" y1="68.91" x2="495.41" y2="99.53" gradientUnits="userSpaceOnUse"><stop offset="0" stop-color="#fff" stop-opacity="0"/><stop offset="0.11" stop-color="#fff" stop-opacity="0.27"/><stop offset="0.24" stop-color="#fff" stop-opacity="0.58"/><stop offset="0.36" stop-color="#fff" stop-opacity="0.81"/><stop offset="0.44" stop-color="#fff" stop-opacity="0.95"/><stop offset="0.48" stop-color="#fff"/><stop offset="0.58" stop-color="#fff" stop-opacity="0.74"/><stop offset="0.7" stop-color="#fff" stop-opacity="0.48"/><stop offset="0.8" stop-color="#fff" stop-opacity="0.27"/><stop offset="0.89" stop-color="#fff" stop-opacity="0.12"/><stop offset="0.96" stop-color="#fff" stop-opacity="0.03"/><stop offset="1" stop-color="#fff" stop-opacity="0"/></linearGradient><linearGradient id="未命名漸層_166-2" x1="8.28" y1="691.39" x2="692.35" y2="7.32" xlink:href="#未命名漸層_166"/><linearGradient id="未命名漸層_190" x1="-4244.09" y1="212.91" x2="-4181.83" y2="83.78" gradientTransform="translate(-1587.99 4203.75) rotate(119.77)" gradientUnits="userSpaceOnUse"><stop offset="0" stop-color="#aaa"/><stop offset="1"/></linearGradient><linearGradient id="未命名漸層_142-2" x1="-4326.69" y1="147.81" x2="-4157.19" y2="178.43" gradientTransform="translate(-1587.99 4203.75) rotate(119.77)" xlink:href="#未命名漸層_142"/><linearGradient id="未命名漸層_166-3" x1="-168.13" y1="514.97" x2="515.93" y2="-169.1" xlink:href="#未命名漸層_166"/><linearGradient id="未命名漸層_190-2" x1="-1874.59" y1="4341.12" x2="-1812.33" y2="4211.99" gradientTransform="matrix(-0.5, -0.87, 0.87, -0.5, -4566.28, 765.39)" xlink:href="#未命名漸層_190"/><linearGradient id="未命名漸層_142-3" x1="-1957.19" y1="4276.02" x2="-1787.68" y2="4306.64" gradientTransform="matrix(-0.5, -0.87, 0.87, -0.5, -4566.28, 765.39)" xlink:href="#未命名漸層_142"/><linearGradient id="未命名漸層_166-4" x1="209.64" y1="319.34" x2="352.67" y2="176.31" xlink:href="#未命名漸層_166"/></defs><title>1-13v2.0</title><path d="M441.94,31.05a93.61,93.61,0,0,0-36.92-18c-39.67-9.18-83.38,9.17-110.72,46.59h0c45.77-7.82,75.22,3.29,89.68,10.6,30.25,15.3,54,44,69,81.33,12.48,31.14,18.84,68.3,17.68,108.89,0,1.16-.1,2.33-.14,3.49a355.85,355.85,0,0,1-4.09,41.5q-2.69,16.95-7.07,34.36h0s29.46-85.34,30-171.1c.22-33.43-4-66.9-16-95.42A114.42,114.42,0,0,0,441.94,31.05Z" fill="url(#未命名漸層_166)"/><path d="M294.3,59.64h0c45.77-7.82,75.22,3.29,89.68,10.6,30.25,15.3,54,44,69,81.33,12.48,31.14,18.84,68.3,17.68,108.89,0,1.16-.1,2.33-.14,3.49a355.85,355.85,0,0,1-4.09,41.5q-2.69,16.95-7.07,34.36h0s29.46-85.34,30-171.1C481.31-9.94,294.3,59.64,294.3,59.64Z" fill="url(#未命名漸層_220)"/><path d="M489.38,168.71c.22-33.42-4-66.9-16-95.42a114.42,114.42,0,0,0-31.45-42.24,93.61,93.61,0,0,0-36.92-18c-39.67-9.18-83.38,9.17-110.72,46.59C294.3,59.64,481.31-9.94,489.38,168.71Z" opacity="0.9" fill="url(#未命名漸層_142)"/><path d="M407.36,494.26a93.57,93.57,0,0,0,34-23.11c27.67-29.87,33.44-76.93,14.54-119.24h0c-15.94,43.61-40.2,63.66-53.73,72.58-28.31,18.66-65,25.05-104.86,19.5-33.22-4.63-68.64-17.56-103.29-38.72-1-.61-2-1.24-3-1.86a353.36,353.36,0,0,1-34-24.15q-13.38-10.74-26.32-23.2h0s59.45,67.95,133.61,111c28.9,16.79,60,29.77,90.76,33.51A114.32,114.32,0,0,0,407.36,494.26Z" fill="url(#未命名漸層_166-2)"/><path d="M455.86,351.91h0c-15.94,43.61-40.2,63.66-53.73,72.58-28.31,18.66-65,25.05-104.86,19.5-33.22-4.63-68.64-17.56-103.29-38.72-1-.61-2-1.24-3-1.86a353.36,353.36,0,0,1-34-24.15q-13.38-10.74-26.32-23.2h0s59.45,67.95,133.61,111C423.39,548.79,455.86,351.91,455.86,351.91Z" fill="url(#未命名漸層_190)"/><path d="M264.32,467.08c28.9,16.79,60,29.77,90.76,33.51a114.32,114.32,0,0,0,52.28-6.33,93.57,93.57,0,0,0,34-23.11c27.67-29.87,33.44-76.93,14.54-119.24C455.86,351.91,423.39,548.79,264.32,467.08Z" opacity="0.75" fill="url(#未命名漸層_142-2)"/><path d="M23.64,232.07a93.67,93.67,0,0,0,2.95,41c12,38.92,49.76,67.52,95.84,72.41h0c-29.72-35.68-34.89-66.73-35.81-82.9-1.94-33.85,10.94-68.79,35.75-100.48C143,135.66,172,111.51,207.7,92.16c1-.55,2.06-1.09,3.09-1.63a354.37,354.37,0,0,1,37.94-17.28q16-6.18,33.28-11.12h0S193.4,79.45,118.93,122c-29,16.58-55.88,37-74.53,61.7A114.38,114.38,0,0,0,23.64,232.07Z" fill="url(#未命名漸層_166-3)"/><path d="M122.43,345.46h0c-29.72-35.68-34.89-66.73-35.81-82.9-1.94-33.85,10.94-68.79,35.75-100.48C143,135.66,172,111.51,207.7,92.16c1-.55,2.06-1.09,3.09-1.63a354.37,354.37,0,0,1,37.94-17.28q16-6.18,33.28-11.12h0S193.4,79.45,118.93,122C-31.57,218.58,122.43,345.46,122.43,345.46Z" fill="url(#未命名漸層_190-2)"/><path d="M118.93,122c-29,16.58-55.88,37-74.53,61.7a114.52,114.52,0,0,0-20.76,48.39,93.67,93.67,0,0,0,2.95,41c12,38.92,49.76,67.52,95.84,72.41C122.43,345.46-31.57,218.58,118.93,122Z" opacity="0.4" fill="url(#未命名漸層_142-3)"/><path d="M234.44,189a60.07,60.07,0,0,1,13.07-17.42A62.75,62.75,0,0,1,266,159.71a54.76,54.76,0,0,1,21.3-4.35,57.78,57.78,0,0,1,24.07,5.08,55.19,55.19,0,0,1,19.48,14.76A70.9,70.9,0,0,1,343.8,199q4.72,14.16,4.72,32.3a192.09,192.09,0,0,1-4,40A103.85,103.85,0,0,1,332,304.16a67.06,67.06,0,0,1-21.78,22.26q-13.19,8.22-31.82,8.22-12.33,0-20.2-2.66a34.14,34.14,0,0,1-12.22-6.65,21,21,0,0,1-5.92-8.47,23.87,23.87,0,0,1-1.58-7.86q0-7.74,4.24-11.38T254.4,294a37.67,37.67,0,0,1,4.11.25,10.62,10.62,0,0,1,4.12,1.33,8.65,8.65,0,0,1,3.14,3,10,10,0,0,1,1.21,5.32,19.12,19.12,0,0,1-.48,3.75c-.33,1.54-.65,3.11-1,4.72s-.65,3.15-1,4.6a17.42,17.42,0,0,0-.48,3.63,11.32,11.32,0,0,0,1.45,6.29,9.23,9.23,0,0,0,3.75,3.27,12.88,12.88,0,0,0,5,1.21c1.77.08,3.39.12,4.84.12q11.37,0,18.39-6.29t11.13-17.3a103.37,103.37,0,0,0,5.56-26.13q1.45-15.12,1.45-32.79h-.48c-1,1.45-2.18,3.11-3.63,5a25.48,25.48,0,0,1-5.68,5.2,31.15,31.15,0,0,1-8.71,4,43.43,43.43,0,0,1-12.46,1.57,52.89,52.89,0,0,1-21-4.24,57.23,57.23,0,0,1-17.55-11.61A55.6,55.6,0,0,1,234,231.57a51.06,51.06,0,0,1-4.48-21.29A46.9,46.9,0,0,1,234.44,189Zm33.63,61.58q5.93,10.76,18.27,10.76,10.89,0,18.51-5.81t9.8-16.21a58.85,58.85,0,0,0,.84-7.62q.38-5.44.37-11.49,0-22.26-2.67-34.6t-6.77-18.27q-4.11-5.93-8.95-7.25a34.6,34.6,0,0,0-9.2-1.33,27.11,27.11,0,0,0-9.8,1.81q-4.71,1.81-8.34,7.74t-5.81,16.94q-2.18,11-2.18,29.4Q262.14,239.8,268.07,250.57Z" fill="url(#未命名漸層_166-4)"/></svg>