<svg xmlns="http://www.w3.org/2000/svg" width="46.001" height="48.301" viewBox="0 0 46.001 48.301">
    <defs>
        <style>
            .cls-1{fill:#083a6e}
        </style>
    </defs>
    <g id="myinvest_3" transform="translate(-2.3 -2.8)">
        <path id="Path_3440" d="M43.988 2.8H20.413a3.93 3.93 0 0 0-4.025 4.025v17.25a8.375 8.375 0 0 0-5.75 8.05 3.647 3.647 0 0 0 .288 1.725h-.288a8.338 8.338 0 1 0 6.038 14.088A4.055 4.055 0 0 0 20.7 51.1h23.576a3.93 3.93 0 0 0 4.024-4.024V6.825A4.37 4.37 0 0 0 43.988 2.8zm0 47.438H20.413a2.577 2.577 0 0 1-2.588-2.588V46.5a9.359 9.359 0 0 0 1.15-4.025 6.6 6.6 0 0 0-1.15-4.025V6.825a2.577 2.577 0 0 1 2.588-2.588h23.575a2.577 2.577 0 0 1 2.588 2.588v40.826a2.577 2.577 0 0 1-2.588 2.587zm-33.351-.863a6.9 6.9 0 1 1 0-13.8 6.9 6.9 0 1 1 0 13.8zm1.438-17.25a6.583 6.583 0 0 1 4.313-6.325v10.638a11.281 11.281 0 0 0-4.025-2.3c0-.575-.288-1.15-.288-2.013z" class="cls-1"/>
        <path id="Path_3441" d="M33.213 4.5H9.063a.918.918 0 0 0-.863.863v9.2a.918.918 0 0 0 .863.863h24.15a.918.918 0 0 0 .863-.863V5.075c-.001-.287-.288-.575-.863-.575zM9.925 13.988v-8.05h22.713v8.05z" class="cls-1" transform="translate(11.063 3.188)"/>
        <path id="Path_3442" d="M9.063 5.225h4.6a.918.918 0 0 0 .863-.863.918.918 0 0 0-.863-.863h-4.6a.918.918 0 0 0-.863.863q.431.863.863.863z" class="cls-1" transform="translate(11.063 1.313)"/>
        <path id="Path_3443" d="M14.813 8.8h-5.75a.918.918 0 0 0-.863.863v2.587a.918.918 0 0 0 .863.863h5.75a.918.918 0 0 0 .863-.863V9.663a.762.762 0 0 0-.863-.863zm-4.888 2.588v-1.15h4.313v.862H9.925z" class="cls-1" transform="translate(11.063 11.25)"/>
        <path id="Path_3444" d="M18.013 8.8h-5.75a.918.918 0 0 0-.863.863v2.587a.918.918 0 0 0 .863.863h5.75a.918.918 0 0 0 .863-.863V9.663a.762.762 0 0 0-.863-.863zm-4.888 2.588v-1.15h4.313v.862h-4.313z" class="cls-1" transform="translate(17.063 11.25)"/>
        <path id="Path_3445" d="M21.213 8.8h-5.75a.918.918 0 0 0-.863.863v2.587a.918.918 0 0 0 .863.863h5.75a.918.918 0 0 0 .863-.863V9.663a.762.762 0 0 0-.863-.863zm-4.888 2.588v-1.15h4.313v.862h-4.313z" class="cls-1" transform="translate(23.063 11.25)"/>
        <path id="Path_3446" d="M14.813 10.6h-5.75a.918.918 0 0 0-.863.863v5.175a.918.918 0 0 0 .863.863h5.75a.918.918 0 0 0 .863-.863v-5.175a.918.918 0 0 0-.863-.863zm-4.888 5.463v-3.738h4.313v3.738z" class="cls-1" transform="translate(11.063 14.625)"/>
        <path id="Path_3447" d="M18.013 10.6h-5.75a.918.918 0 0 0-.863.863v5.175a.918.918 0 0 0 .863.863h5.75a.918.918 0 0 0 .863-.863v-5.175a.918.918 0 0 0-.863-.863zm-4.888 5.463v-3.738h4.313v3.738z" class="cls-1" transform="translate(17.063 14.625)"/>
        <path id="Path_3448" d="M21.213 10.6h-5.75a.918.918 0 0 0-.863.863v5.175a.918.918 0 0 0 .863.863h5.75a.918.918 0 0 0 .863-.863v-5.175a.918.918 0 0 0-.863-.863zm-4.888 5.463v-3.738h4.313v3.738z" class="cls-1" transform="translate(23.063 14.625)"/>
        <path id="Path_3449" d="M14.813 13.4h-5.75a.918.918 0 0 0-.863.863v5.175a.918.918 0 0 0 .863.863h5.75a.918.918 0 0 0 .863-.863v-5.175a.762.762 0 0 0-.863-.863zm-4.888 5.175v-3.737h4.313v3.738z" class="cls-1" transform="translate(11.063 19.876)"/>
        <path id="Path_3450" d="M18.013 13.4h-5.75a.918.918 0 0 0-.863.863v5.175a.918.918 0 0 0 .863.863h5.75a.918.918 0 0 0 .863-.863v-5.175a.762.762 0 0 0-.863-.863zm-4.888 5.175v-3.737h4.313v3.738z" class="cls-1" transform="translate(17.063 19.876)"/>
        <path id="Path_3451" d="M21.213 13.4h-5.75a.918.918 0 0 0-.863.863v5.175a.918.918 0 0 0 .863.863h5.75a.918.918 0 0 0 .863-.863v-5.175a.762.762 0 0 0-.863-.863zm-4.888 5.175v-3.737h4.313v3.738z" class="cls-1" transform="translate(23.063 19.876)"/>
        <path id="Path_3452" d="M14.813 16.1h-5.75a.918.918 0 0 0-.863.863v5.175a.918.918 0 0 0 .863.862h5.75a.918.918 0 0 0 .863-.863v-5.174a.762.762 0 0 0-.863-.863zm-4.888 5.175v-3.737h4.313v3.738z" class="cls-1" transform="translate(11.063 24.938)"/>
        <path id="Path_3453" d="M18.013 16.1h-5.75a.918.918 0 0 0-.863.863v5.175a.918.918 0 0 0 .863.863h5.75a.918.918 0 0 0 .863-.863v-5.175a.762.762 0 0 0-.863-.863zm-4.888 5.175v-3.737h4.313v3.738z" class="cls-1" transform="translate(17.063 24.938)"/>
        <path id="Path_3454" d="M21.213 16.1h-5.75a.918.918 0 0 0-.863.863v5.175a.918.918 0 0 0 .863.863h5.75a.918.918 0 0 0 .863-.863v-5.175a.762.762 0 0 0-.863-.863zm-4.888 5.175v-3.737h4.313v3.738z" class="cls-1" transform="translate(23.063 24.938)"/>
        <path id="Path_3455" d="M7.75 15.85v-.288a.918.918 0 0 0-.863-.863.762.762 0 0 0-.863.863v.575A1.855 1.855 0 0 0 4.3 17.863V19.3a1.855 1.855 0 0 0 1.725 1.725H7.75a.282.282 0 0 1 .288.288v1.437a.282.282 0 0 1-.288.288H6.313a.282.282 0 0 1-.288-.288v-.575a.918.918 0 0 0-.863-.863.918.918 0 0 0-.863.863v.575a1.855 1.855 0 0 0 1.725 1.725v.575a.918.918 0 0 0 .863.863.762.762 0 0 0 .863-.863v-.575a1.855 1.855 0 0 0 1.725-1.725v-1.437a1.855 1.855 0 0 0-1.725-1.725H6.025a.282.282 0 0 1-.288-.288v-1.437a.282.282 0 0 1 .288-.288h1.438a.282.282 0 0 1 .288.288v.575a.918.918 0 0 0 .863.863.918.918 0 0 0 .863-.863v-.575A1.923 1.923 0 0 0 7.75 15.85z" class="cls-1" transform="translate(3.75 22.313)"/>
    </g>
</svg>
