<svg xmlns="http://www.w3.org/2000/svg" width="50" height="50" viewBox="0 0 50 50">
    <defs>
        <linearGradient id="a" x1="100%" x2="0%" y1="100%" y2="0%">
            <stop offset="0%" stop-color="#5189EC"/>
            <stop offset="100%" stop-color="#58ADFF"/>
        </linearGradient>
    </defs>
    <path fill="url(#a)" fill-rule="nonzero" d="M16.84 22.072c-2.63-1.67-4.373-4.577-4.373-7.89C12.467 8.995 16.74 4.8 22 4.8s9.533 4.195 9.533 9.382c0 5.186-4.273 9.382-9.533 9.382-7.597 0-13.8 6.766-13.8 15.163v3.11a1.2 1.2 0 1 1-2.4 0v-3.11c0-7.73 4.612-14.317 11.04-16.655zm5.16-.908c3.945 0 7.133-3.131 7.133-6.982C29.133 10.33 25.945 7.2 22 7.2s-7.133 3.13-7.133 6.982c0 3.85 3.188 6.982 7.133 6.982zm13.827 8.406a1.2 1.2 0 0 1-2.09 1.18 14.968 14.968 0 0 0-2.727-3.507 1.2 1.2 0 1 1 1.651-1.741 17.367 17.367 0 0 1 3.166 4.068zM20 34h7a1 1 0 0 1 1 1v8a1 1 0 0 1-1 1h-7a1 1 0 0 1-1-1v-8a1 1 0 0 1 1-1zm11 0h11a1 1 0 0 1 0 2H31a1 1 0 0 1 0-2zm0 4h11a1 1 0 0 1 0 2H31a1 1 0 0 1 0-2zm0 4h11a1 1 0 0 1 0 2H31a1 1 0 0 1 0-2z"/>
</svg>
