<svg xmlns="http://www.w3.org/2000/svg" width="60" height="60" viewBox="0 0 60 60">
    <g fill="none" transform="translate(0 6)">
        <ellipse cx="30.03" cy="24" fill="#84E06E" rx="9.617" ry="10.857" transform="rotate(-22.21 30.03 24)"/>
        <path fill="#84E06E" d="M11.16 47.97L60 24.516 48.96.091 0 23.544 11.16 47.97zM3.63 27.919c1.32-1.215 1.83-3.038 1.53-5.013l40.08-19.29c1.26 1.488 2.97 2.247 4.65 2.004l6.48 14.461c-1.32 1.215-1.83 3.038-1.53 5.013l-40.05 19.29c-1.26-1.488-2.97-2.247-4.65-2.004L3.63 27.919z"/>
        <g>
            <path fill="#F4B362" d="M13.5 11.605c.81-1.519.96-3.28.27-4.8-.39-.82-.96-1.458-1.65-1.914-.03 0-.03-.03-.03-.06-.21-.608-.6-1.459-1.41-2.644C9.03-.303 8.34.213 8.13.517c-.03.06-.06.121-.06.212l.09 3.281c0 .091-.06.152-.15.182-.69.122-1.41.335-2.1.669-.78.364-1.5.85-2.07 1.397-.06.061-.15.061-.24 0L1.11 4.041C1.05 3.98.99 3.949.9 3.949c-.33-.03-1.2.183-.36 3.069.42 1.458.84 2.339 1.17 2.886.03.06.09.121.15.182.03.03.03.06.03.091-.03.699.12 1.398.42 2.096.72 1.55 2.13 2.552 3.78 2.886.21.03.3.244.24.456-.21.638-.54 1.975 0 3.16l1.41-.669 6.9-3.25 1.35-.638c-.54-1.155-1.71-1.762-2.34-2.005-.18-.213-.24-.426-.15-.608z" transform="translate(23.7 18.228)"/>
            <path fill="#FEFBF7" d="M6.51 14.309c.72.152.75.547.75.547l.18.425c.18 1.003-.15 1.732.24 2.552.03.06.06.121.09.152l6.9-3.25c-.03-.062-.06-.122-.06-.153-.39-.82-1.2-1.002-1.77-1.823l-.21-.394s-.27-.304.09-.942c0 0 1.47-3.008-1.26-4.04-2.73-1.034-3.3 2.247-3.3 2.247s-2.85-1.67-3.84 1.124C3.27 13.52 6.51 14.31 6.51 14.31z" transform="translate(23.7 18.228)"/>
            <g transform="translate(23.7 18.228) translate(4.5 5.772)">
                <path fill="#5C2C0A" d="M4.56 1.792c.06-.09.12-.243.12-.273.06-.182.15-.304.33-.395.21-.091.45-.06.63.06l.03.031h.03c.09.091.21.152.3.182.06.03.06.092.03.152-.06.092-.15.274-.15.274-.03.182-.15.334-.33.425-.24.122-.51.06-.69-.121l-.03-.03c-.06-.062-.15-.092-.21-.122-.09-.061-.09-.122-.06-.183zM1.44 3.25c-.12 0-.27-.06-.3-.09-.15-.061-.33-.092-.51 0-.21.09-.33.303-.36.546v.091c0 .122-.03.244-.06.335 0 .06.03.121.09.121.12 0 .3.06.3.06.15.092.36.092.54 0 .24-.12.36-.364.36-.607v-.06c0-.092.03-.183.06-.243 0-.092-.06-.152-.12-.152z"/>
                <circle cx=".75" cy="3.554" r="1" fill="#FCFCFC"/>
                <circle cx="4.95" cy="1.58" r="1" fill="#FCFCFC"/>
                <circle cx=".762" cy="2.399" r="1" fill="#FEFBF7" transform="rotate(-70.001 .762 2.4)"/>
                <circle cx="4.413" cy=".635" r="1" fill="#FEFBF7" transform="rotate(-70.001 4.413 .635)"/>
            </g>
            <path fill="#FEFBF7" d="M3.12 6.289L1.2 4.587c-.09-.06-.18-.09-.27-.09-.27.06-.63.364-.15 2.065.3 1.003.57 1.61.78 1.975.18.304.63.243.75-.061.15-.425.42-1.003.84-1.61.15-.213.12-.456-.03-.577zM8.52 3.737l-.06-2.583c0-.09.03-.212.12-.273.21-.182.69-.243 1.65 1.215.57.85.84 1.458.99 1.884.12.334-.21.638-.54.547-.42-.152-1.02-.304-1.77-.365-.24-.03-.39-.213-.39-.425z" transform="translate(23.7 18.228)"/>
            <path fill="#5C2C0A" d="M10.92 10.33c-.09-.031-.18 0-.21.09-.27.79-1.32.699-1.71.638-.03 0-.06-.03-.09-.06l-.09-.152c.51-.335.75-.942.51-1.428-.24-.547-.96-.76-1.56-.456-.6.304-.9.972-.66 1.519.24.486.84.73 1.41.516l.09.152v.092c-.18.334-.78 1.184-1.56.91-.09-.03-.18 0-.21.092-.03.091 0 .182.12.243.33.122.66.091.96-.06.18-.092.36-.213.54-.396.21-.212.36-.425.45-.577.03-.03.06-.06.09-.06.18.03.45.06.72.03.24-.03.45-.061.66-.152.33-.152.54-.395.66-.73.03-.06-.03-.182-.12-.212z" transform="translate(23.7 18.228)"/>
            <path fill="#F2F0ED" d="M8.85 13.914s1.02.091 2.1-1.003c1.08-1.093-.15.973-.15.973s-.21.364-.48.486c-.27.121-.75.03-.75.03s-1.71-.395-.72-.486z" transform="translate(23.7 18.228)"/>
        </g>
        <path fill="#EDFCEB" d="M45.27 3.615L5.19 22.906c.33 1.914-.24 3.798-1.53 5.013l6.48 14.46c1.71-.242 3.48.578 4.65 2.006l40.08-19.291c-.33-1.914.24-3.798 1.53-5.013l-6.6-14.46c-1.56.242-3.33-.578-4.53-2.006zM34.53 33.904c-4.77 2.309-10.68-.274-13.08-5.712-2.46-5.468-.57-11.696 4.2-14.065 4.77-2.31 10.68.273 13.08 5.711 2.49 5.438.57 11.696-4.2 14.066z"/>
        <g fill="#84E06E">
            <path d="M1.26 3.889l.09.03.3.73.63 1.397c.15.334.33.698.48 1.032l-.81.395c-.15-.334-.3-.698-.45-1.032L.75 4.8l-.45.273L.18 4.8l1.08-.911zm1.98 2.643l.12.243-1.95.911-.12-.243.57-.425.75-.365.63-.121zM5.43 3.858c.54 1.155.21 1.884-.39 2.188-.6.273-1.38.06-1.89-1.094-.54-1.155-.21-1.884.39-2.187.6-.274 1.38-.03 1.89 1.093zm-.51 1.945c.24-.122.3-.456-.21-1.58s-.84-1.307-1.05-1.185c-.24.121-.3.456.24 1.58.48 1.093.78 1.276 1.02 1.185zM8.1 2.613c.54 1.154.21 1.883-.42 2.187-.6.273-1.38.06-1.89-1.094-.54-1.154-.21-1.883.39-2.187.6-.273 1.38-.06 1.92 1.094zm-.54 1.944c.24-.122.3-.456-.21-1.58S6.54 1.671 6.3 1.792c-.24.122-.3.456.24 1.58.48 1.094.78 1.276 1.02 1.185zM10.74 1.367c.54 1.155.21 1.884-.39 2.187-.6.274-1.38.061-1.89-1.093-.54-1.155-.21-1.884.39-2.188.6-.273 1.38-.06 1.89 1.094zm-.51 1.914c.24-.122.3-.456-.21-1.58S9.21.395 8.97.516c-.24.122-.3.456.24 1.58.48 1.124.78 1.307 1.02 1.185z" transform="translate(6.3 19.747)"/>
        </g>
        <g fill="#84E06E">
            <path d="M1.26 3.919l.09.03.3.73.63 1.397c.15.334.33.699.48 1.033l-.81.395c-.15-.334-.3-.699-.45-1.033L.75 4.83l-.45.273-.12-.274 1.08-.911zm1.98 2.643l.12.243-1.95.911-.12-.243.57-.425.75-.364.63-.122zM5.46 3.919c.54 1.154.21 1.884-.39 2.187-.6.274-1.38.061-1.89-1.093-.54-1.155-.21-1.884.39-2.188.57-.303 1.35-.06 1.89 1.094zm-.54 1.914c.24-.122.3-.456-.21-1.58s-.84-1.306-1.05-1.185c-.24.122-.3.456.24 1.58.51 1.124.81 1.306 1.02 1.185zM8.1 2.673c.54 1.155.21 1.884-.42 2.188-.6.273-1.38.06-1.89-1.094-.54-1.154-.21-1.883.39-2.187.63-.304 1.41-.061 1.92 1.093zm-.51 1.914c.24-.121.3-.455-.21-1.58-.51-1.123-.81-1.306-1.05-1.184-.24.121-.3.455.24 1.58.48 1.124.78 1.306 1.02 1.184zM10.77 1.397c.54 1.155.21 1.884-.39 2.188-.6.273-1.38.06-1.89-1.094-.54-1.154-.21-1.883.39-2.187.57-.274 1.35-.03 1.89 1.093zm-.54 1.945c.24-.122.3-.456-.21-1.58S9.21.456 8.97.577c-.24.122-.3.456.24 1.58.51 1.094.81 1.276 1.02 1.185z" transform="translate(42 20.962)"/>
        </g>
    </g>
</svg>
