<?xml version="1.0" encoding="utf-8"?>
<!-- Generator: Adobe Illustrator 24.2.1, SVG Export Plug-In . SVG Version: 6.00 Build 0)  -->
<svg version="1.1" id="圖層_1" xmlns="http://www.w3.org/2000/svg" xmlns:xlink="http://www.w3.org/1999/xlink" x="0px" y="0px"
	 viewBox="0 0 300 300" style="enable-background:new 0 0 300 300;" xml:space="preserve">
<style type="text/css">
	.st0{fill:url(#SVGID_1_);}
	.st1{fill:url(#SVGID_2_);}
	.st2{fill:url(#SVGID_3_);}
	.st3{fill:url(#SVGID_4_);}
	.st4{fill:url(#SVGID_5_);}
	.st5{fill:url(#SVGID_6_);}
	.st6{fill:url(#SVGID_7_);}
	.st7{fill:url(#SVGID_8_);}
	.st8{fill:url(#SVGID_9_);}
	.st9{fill:url(#SVGID_10_);}
	.st10{fill:url(#SVGID_11_);}
	.st11{fill:url(#SVGID_12_);}
	.st12{fill:url(#SVGID_13_);}
	.st13{fill:url(#SVGID_14_);}
	.st14{fill:url(#SVGID_15_);}
	.st15{fill:url(#SVGID_16_);}
	.st16{fill:url(#SVGID_17_);}
	.st17{fill:url(#SVGID_18_);}
	.st18{fill:url(#SVGID_19_);}
	.st19{fill:url(#SVGID_20_);}
	.st20{fill:url(#SVGID_21_);}
	.st21{fill:url(#SVGID_22_);}
	.st22{fill:url(#SVGID_23_);}
	.st23{fill:url(#SVGID_24_);}
	.st24{fill:url(#SVGID_25_);}
	.st25{fill:url(#SVGID_26_);}
	.st26{fill:url(#SVGID_27_);}
	.st27{fill:url(#SVGID_28_);}
	.st28{fill:url(#SVGID_29_);}
	.st29{fill:url(#SVGID_30_);}
	.st30{fill:url(#SVGID_31_);}
	.st31{fill:url(#SVGID_32_);}
	.st32{fill:url(#SVGID_33_);}
	.st33{fill:none;}
	.st34{fill:url(#SVGID_34_);}
	.st35{fill:url(#SVGID_35_);}
	.st36{fill:url(#SVGID_36_);}
	.st37{fill:url(#SVGID_37_);}
	.st38{fill:url(#SVGID_38_);}
	.st39{fill:url(#SVGID_39_);}
	.st40{fill:url(#SVGID_40_);}
	.st41{fill:url(#SVGID_41_);}
	.st42{fill:url(#SVGID_42_);}
	.st43{fill:url(#SVGID_43_);}
	.st44{fill:url(#SVGID_44_);}
	.st45{fill:url(#SVGID_45_);}
	.st46{fill:url(#SVGID_46_);}
	.st47{fill:url(#SVGID_47_);}
</style>
<g>
	<linearGradient id="SVGID_1_" gradientUnits="userSpaceOnUse" x1="5.3291" y1="150" x2="294.671" y2="150">
		<stop  offset="0" style="stop-color:#171C61"/>
		<stop  offset="0.1256" style="stop-color:#192568"/>
		<stop  offset="0.4986" style="stop-color:#1F3E79"/>
		<stop  offset="0.8033" style="stop-color:#234E85"/>
		<stop  offset="1" style="stop-color:#245489"/>
	</linearGradient>
	<path class="st0" d="M172.75,0.68c11.08,7.28,22.23,14.46,33.22,21.88c19.08,12.88,38.06,25.88,57.06,38.87
		c6.01,4.11,8.37,9.97,6.37,16.04c-0.63,1.9-1.72,3.69-2.83,5.38c-3.68,5.56-7.47,11.05-11.37,16.79c2.17,0.24,4,0.31,5.76,0.67
		c6.73,1.37,11.2,6.62,11.57,13.46c0.07,1.36-0.12,2.75,0.14,4.07c0.22,1.13,0.65,2.46,1.44,3.21c4.42,4.17,6.6,9.19,6.56,15.28
		c-0.07,11.96-0.02,23.91-0.02,35.87c0,1.04,0,2.08,0,3.46c1.83,0,3.36-0.05,4.89,0.01c5.07,0.21,9.06,4.1,9.08,9.15
		c0.07,15.36,0.07,30.72,0,46.08c-0.02,5.2-4.03,8.98-9.62,9.37c-1.34,0.09-2.68,0.01-4.35,0.01c0,1.3,0,2.34,0,3.38
		c0,11.86,0.02,23.72-0.01,35.58c-0.03,12.1-7.99,20.07-20.08,20.07c-78.35,0.01-156.7,0.01-235.05,0
		c-12.29,0-20.16-7.91-20.16-20.25C5.35,231.53,5.38,184,5.33,136.46c-0.01-7.64,3-13.44,9.46-17.57c0.83-0.53,1.52-1.95,1.55-2.98
		c0.36-10.52,5.95-16.01,16.5-16.03c2.81,0,5.62,0,8.74,0c0.57-5.45,1.15-10.72,1.68-16c1.33-13.23,2.62-26.47,3.95-39.7
		c0.37-3.66,0.58-7.37,1.34-10.96c1.3-6.17,6.76-10.61,13.05-10.3c7.65,0.37,15.28,1.23,22.91,1.97c12.85,1.24,25.7,2.54,38.54,3.81
		c1.84,0.18,3.67,0.36,5.5,0.58c2.77,0.33,4.55,2.15,4.44,4.47c-0.13,2.6-2.31,4.38-5.33,4.14c-4.26-0.34-8.5-0.82-12.75-1.24
		c-15.26-1.51-30.52-3.03-45.79-4.54c-2.32-0.23-4.64-0.54-6.96-0.58c-3.19-0.06-5.17,1.64-5.51,4.8
		c-1.03,9.65-1.97,19.31-2.93,28.97c-1.3,13.04-2.6,26.08-3.88,39.12c-0.38,3.84-0.68,7.68-1.02,11.5c5.26,0.88,5.12,0.87,5.59-4.07
		c1.49-15.66,3.04-31.3,4.68-46.94c0.38-3.68,2.22-6.67,5.75-8.17c5.34-2.27,9.57-5.78,12.92-10.51c2.15-3.03,5.37-4.23,8.94-3.9
		c10.63,0.97,21.25,2.11,31.87,3.24c3.02,0.32,4.76,2.22,4.52,4.63c-0.26,2.69-2.6,4.21-5.8,3.88c-10.14-1.05-20.27-2.11-30.43-3.01
		c-1-0.09-2.48,0.64-3.09,1.47c-3.72,5.06-8.36,8.84-14.08,11.43c-0.91,0.41-1.86,1.75-1.97,2.74c-1.45,13.51-2.76,27.04-4.11,40.56
		c-0.29,2.88-0.56,5.76-0.87,9.01c6.72,0,13.21,0.09,19.69-0.11c0.91-0.03,1.97-1.37,2.62-2.33c23.5-34.4,46.99-68.81,70.38-103.28
		c2.88-4.25,5.95-8.03,10.89-9.89C168.47,0.68,170.61,0.68,172.75,0.68z M271.88,240.3c-12.05,0-23.8,0.03-35.55-0.02
		c-2.91-0.01-5.84-0.08-8.72-0.43c-16.32-1.94-28.91-16.69-28.31-32.44c0.73-19.21,16.22-31.64,31.29-31.73
		c12.73-0.08,25.47-0.05,38.2-0.06c1.02,0,2.03,0,3.01,0c0-6.86,0-13.23,0-19.67c-85.97,0-171.75,0-257.62,0
		c0,34.72,0,69.26,0,104.12c1.32,0,2.47,0,3.61,0c6.32,0.02,12.64,0,18.95,0.07c2.18,0.02,4.03,1.1,4.05,3.32
		c0.01,1.49-0.85,3.31-1.92,4.39c-0.78,0.78-2.53,0.78-3.85,0.8c-5.93,0.08-11.86,0.03-17.79,0.04c-1.02,0-2.04,0.1-3.16,0.16
		c0,4.5-0.39,8.72,0.15,12.82c0.3,2.28,1.85,4.64,3.42,6.45c2.18,2.52,5.45,2.56,8.63,2.56c77.77-0.03,155.53-0.02,233.3-0.02
		c1.07,0,2.14,0.02,3.21-0.07c4.58-0.36,8.78-4.2,9.08-8.77c0.28-4.25,0.06-8.52,0.06-13.14c-1.51,0-2.85,0-4.19,0
		c-66.68,0-133.37,0-200.05-0.01c-1.36,0-2.72-0.03-4.07-0.18c-2.55-0.29-3.88-1.99-3.77-4.36c0.1-2.21,1.44-3.8,3.89-3.96
		c1.26-0.08,2.52-0.11,3.79-0.11c66.78,0,133.56,0,200.35,0c1.31,0,2.63,0,4.02,0C271.88,253.31,271.88,247.01,271.88,240.3z
		 M14.07,146.93c86.14,0,171.91,0,257.85,0c0-4.44,0.25-8.72-0.06-12.95c-0.41-5.62-5.25-9.04-12.24-9.04
		c-77.76,0-155.51-0.01-233.27,0.02c-1.64,0-3.31,0.16-4.9,0.55c-3.92,0.96-7.14,4.53-7.34,8.47
		C13.9,138.21,14.07,142.48,14.07,146.93z M202.35,116.28c4,0,8.05,0.13,12.1-0.08c1.12-0.06,2.59-0.82,3.23-1.73
		c4.87-6.9,9.53-13.94,14.37-20.86c1.14-1.63,1.28-2.96,0.37-4.76c-2.59-5.12-3.78-10.58-3.13-16.32c0.24-2.12-0.5-3.36-2.25-4.54
		c-13.84-9.33-27.64-18.73-41.37-28.21c-1.95-1.35-3.54-1.42-5.6-0.42c-4.98,2.41-10.27,3.52-15.79,2.8
		c-2.31-0.3-3.52,0.63-4.73,2.42c-15.64,23.05-31.34,46.05-47.02,69.07c-0.5,0.73-0.97,1.49-1.61,2.49c7.32,0,14.1,0,21.1,0
		c1.02-9.18,4.64-17.06,11.46-23.26c6.91-6.27,15.15-9.39,24.45-9.19C182.7,84.01,199.48,94.38,202.35,116.28z M286.01,184.51
		c-1.04-0.11-1.7-0.23-2.36-0.23c-17.39-0.01-34.78-0.04-52.17,0.06c-2.38,0.01-4.86,0.4-7.12,1.13
		c-11.35,3.67-17.72,14.29-16.04,26.42c1.53,11.08,11.72,19.63,23.93,19.73c17,0.14,34,0,51,0.08c2.22,0.01,2.83-0.79,2.79-2.89
		c-0.1-6.7-0.04-13.41-0.04-20.11C286.01,200.74,286.01,192.78,286.01,184.51z M227.23,115.96c3.8,0.8,6.36,0.4,8.6-3.06
		c7.61-11.72,15.64-23.17,23.5-34.73c3.23-4.75,2.84-6.91-1.85-10.11c-27.75-18.92-55.5-37.84-83.25-56.75
		c-4.58-3.12-7-2.65-10.13,1.93c-22.8,33.45-45.59,66.9-68.38,100.35c-0.51,0.75-0.98,1.53-1.52,2.37c4.19,1.03,6.67-0.11,8.94-3.65
		c7.03-10.94,14.54-21.57,21.87-32.31c9.24-13.56,18.51-27.09,27.7-40.68c2.53-3.74,5.75-6.2,10.37-5.73
		c5.4,0.55,10.38-0.43,15.22-2.75c3.72-1.78,7.35-1.42,10.75,0.89c14.68,10,29.36,20.01,44.03,30.02c3.51,2.4,5.19,5.78,4.77,9.98
		c-0.52,5.09,0.45,9.84,2.73,14.35c2.1,4.15,1.6,8.03-1.01,11.76c-1,1.43-1.98,2.88-2.96,4.33
		C233.52,106.7,230.44,111.24,227.23,115.96z M193.12,116.18c-0.26-12.55-12.38-23.83-25.85-23.82
		c-15.19,0.01-25.88,12.22-26.15,23.82C158.38,116.18,175.64,116.18,193.12,116.18z M243.95,116.14c6.92,0,13.33,0,19.81,0
		c0.44-2.93-0.06-5.9-2.89-6.6c-3.67-0.91-7.62-0.67-11.45-0.87c-0.28-0.01-0.65,0.41-0.86,0.71
		C247.1,111.5,245.66,113.64,243.95,116.14z M40.46,108.62c-3.26,0-6.65-0.22-9.99,0.06c-3.94,0.32-5.78,3.22-5.02,7.61
		c2.45,0,4.95,0,7.45,0c7.3,0,7.3,0,7.76-7.18C40.65,109.02,40.59,108.94,40.46,108.62z"/>
	<linearGradient id="SVGID_2_" gradientUnits="userSpaceOnUse" x1="215.3608" y1="207.9047" x2="249.8682" y2="207.9047">
		<stop  offset="0" style="stop-color:#171C61"/>
		<stop  offset="0.1256" style="stop-color:#192568"/>
		<stop  offset="0.4986" style="stop-color:#1F3E79"/>
		<stop  offset="0.8033" style="stop-color:#234E85"/>
		<stop  offset="1" style="stop-color:#245489"/>
	</linearGradient>
	<path class="st1" d="M249.86,208.24c-0.24,9.53-8.09,17.14-17.51,16.96c-9.56-0.19-17.22-8.21-16.99-17.82
		c0.22-9.27,8.15-16.9,17.42-16.76C242.47,190.75,250.1,198.63,249.86,208.24z M224.03,207.89c0,4.85,3.83,8.67,8.66,8.64
		c4.81-0.03,8.62-3.95,8.55-8.78c-0.07-4.75-3.8-8.48-8.53-8.54C227.94,199.16,224.03,203.06,224.03,207.89z"/>
</g>
</svg>
