<svg xmlns="http://www.w3.org/2000/svg" width="41" height="34" viewBox="0 0 41 34">
    <defs>
        <linearGradient id="edk164ib6a" x1="50%" x2="50%" y1="-58.07%" y2="818.1%">
            <stop offset="0%" stop-color="#81C3F3"/>
            <stop offset="100%" stop-color="#157EFB"/>
        </linearGradient>
        <linearGradient id="ytsa9n529b" x1="50%" x2="50%" y1="0%" y2="100%">
            <stop offset="0%" stop-color="#81C3F3"/>
            <stop offset="100%" stop-color="#157EFB"/>
        </linearGradient>
        <linearGradient id="6vcuhsyrzc" x1="50%" x2="50%" y1="0%" y2="100%">
            <stop offset="0%" stop-color="#81C3F3"/>
            <stop offset="100%" stop-color="#157EFB"/>
        </linearGradient>
    </defs>
    <g fill="none" fill-rule="evenodd">
        <g>
            <g>
                <g>
                    <g>
                        <path stroke="url(#edk164ib6a)" d="M25.31 6.646v-.99c0-1.474-1.205-2.678-2.678-2.678h-5.596c-1.473 0-2.677 1.204-2.677 2.677v.991h10.95z" transform="translate(-1403 -23) translate(1395 23) translate(8)"/>
                        <path stroke="url(#ytsa9n529b)" d="M8.16 6.646h2.75V5.031c0-2.4 1.963-4.365 4.363-4.365h9.122c2.4 0 4.364 1.964 4.364 4.365v1.615h6.488c2.4 0 4.364 1.964 4.364 4.364v17.635c0 2.4-1.964 4.364-4.364 4.364H5.03c-2.399 0-4.363-1.964-4.363-4.364V11.01c0-2.4 1.964-4.364 4.363-4.364" transform="translate(-1403 -23) translate(1395 23) translate(8)"/>
                    </g>
                    <path stroke="url(#6vcuhsyrzc)" d="M20.948 27.07c1.066-.077 1.952-.356 2.612-.863.735-.583 1.115-1.395 1.115-2.46 0-1.242-.912-2.206-2.688-2.89-.356-.127-.71-.254-1.039-.356v6.568zM19.68 11.83c-.912.05-1.65.303-2.18.71-.761.531-1.142 1.368-1.142 2.484 0 1.14.888 2.054 2.69 2.764l.632.228v-6.187zm0-3.83h1.268v2.08c1.47.1 2.689.532 3.601 1.292 1.014.862 1.648 2.18 1.901 3.955h-2.028c-.178-1.215-.635-2.103-1.345-2.686-.557-.457-1.267-.71-2.129-.812v6.644c1.523.558 2.56.938 3.118 1.166 1.776.939 2.688 2.283 2.688 4.057 0 1.776-.633 3.12-1.877 4.007-1.013.685-2.305 1.066-3.929 1.14v2.233H19.68v-2.232c-.518-.03-.998-.101-1.44-.212-.27-.067-.527-.15-.77-.244-.666-.265-1.23-.638-1.696-1.117-1.014-1.013-1.596-2.509-1.774-4.537h2.055c.15 1.52.558 2.61 1.215 3.295.558.584 1.37.94 2.41 1.04v-7.024c-.912-.356-1.8-.685-2.687-.99-1.826-.912-2.714-2.256-2.714-4.03 0-1.65.582-2.917 1.8-3.78.938-.71 2.13-1.115 3.601-1.166V8z" transform="translate(-1403 -23) translate(1395 23) translate(8)"/>
                </g>
            </g>
        </g>
    </g>
</svg>
