<?xml version="1.0" encoding="utf-8"?>
<!-- Generator: Adobe Illustrator 24.2.1, SVG Export Plug-In . SVG Version: 6.00 Build 0)  -->
<svg version="1.1" id="圖層_1" xmlns="http://www.w3.org/2000/svg" xmlns:xlink="http://www.w3.org/1999/xlink" x="0px" y="0px"
	 viewBox="0 0 300 300" style="enable-background:new 0 0 300 300;" xml:space="preserve">
<style type="text/css">
	.st0{fill:url(#SVGID_1_);}
	.st1{fill:url(#SVGID_2_);}
	.st2{fill:url(#SVGID_3_);}
	.st3{fill:url(#SVGID_4_);}
	.st4{fill:url(#SVGID_5_);}
	.st5{fill:url(#SVGID_6_);}
	.st6{fill:url(#SVGID_7_);}
	.st7{fill:url(#SVGID_8_);}
	.st8{fill:url(#SVGID_9_);}
	.st9{fill:url(#SVGID_10_);}
	.st10{fill:url(#SVGID_11_);}
	.st11{fill:url(#SVGID_12_);}
	.st12{fill:url(#SVGID_13_);}
	.st13{fill:url(#SVGID_14_);}
	.st14{fill:url(#SVGID_15_);}
	.st15{fill:url(#SVGID_16_);}
	.st16{fill:url(#SVGID_17_);}
	.st17{fill:url(#SVGID_18_);}
	.st18{fill:url(#SVGID_19_);}
	.st19{fill:url(#SVGID_20_);}
	.st20{fill:url(#SVGID_21_);}
	.st21{fill:url(#SVGID_22_);}
	.st22{fill:url(#SVGID_23_);}
	.st23{fill:url(#SVGID_24_);}
	.st24{fill:url(#SVGID_25_);}
	.st25{fill:url(#SVGID_26_);}
	.st26{fill:url(#SVGID_27_);}
	.st27{fill:url(#SVGID_28_);}
	.st28{fill:url(#SVGID_29_);}
	.st29{fill:url(#SVGID_30_);}
	.st30{fill:url(#SVGID_31_);}
	.st31{fill:url(#SVGID_32_);}
	.st32{fill:url(#SVGID_33_);}
	.st33{fill:none;}
	.st34{fill:url(#SVGID_34_);}
	.st35{fill:url(#SVGID_35_);}
	.st36{fill:url(#SVGID_36_);}
	.st37{fill:url(#SVGID_37_);}
	.st38{fill:url(#SVGID_38_);}
	.st39{fill:url(#SVGID_39_);}
	.st40{fill:url(#SVGID_40_);}
	.st41{fill:url(#SVGID_41_);}
	.st42{fill:url(#SVGID_42_);}
	.st43{fill:url(#SVGID_43_);}
	.st44{fill:url(#SVGID_44_);}
	.st45{fill:url(#SVGID_45_);}
	.st46{fill:url(#SVGID_46_);}
	.st47{fill:url(#SVGID_47_);}
</style>
<g>
	<linearGradient id="SVGID_1_" gradientUnits="userSpaceOnUse" x1="-9.094947e-13" y1="150" x2="300" y2="150">
		<stop  offset="0" style="stop-color:#171C61"/>
		<stop  offset="0.1256" style="stop-color:#192568"/>
		<stop  offset="0.4986" style="stop-color:#1F3E79"/>
		<stop  offset="0.8033" style="stop-color:#234E85"/>
		<stop  offset="1" style="stop-color:#245489"/>
	</linearGradient>
	<path class="st0" d="M149.87,242.3c-42.86,0-85.71,0-128.57,0C8.39,242.3,0,233.93,0,221.06c0.01-47.42,0-94.84,0-142.26
		c0-12.69,8.44-21.1,21.19-21.1c85.88,0,171.75,0,257.63,0c12.75,0,21.18,8.42,21.18,21.11c0,47.42-0.01,94.84,0,142.26
		c0,12.86-8.39,21.23-21.31,21.23C235.75,242.3,192.81,242.3,149.87,242.3z M290.17,137.56c-93.63,0-186.88,0-280.21,0
		c-0.05,0.85-0.13,1.49-0.13,2.13c-0.01,27.3-0.02,54.6,0,81.9c0.01,6.86,4.23,10.87,11.34,10.87c85.89,0,171.78,0,257.67,0
		c7.31,0,11.33-4.06,11.33-11.37c0-26.81,0-53.62,0-80.43C290.17,139.69,290.17,138.73,290.17,137.56z M290.17,105.07
		c0-1.05,0-1.85,0-2.65c0-7.66-0.01-15.32,0-22.98c0.01-8-3.84-11.9-11.78-11.9c-85.57,0-171.13,0-256.7,0.01
		c-1.22,0-2.46,0.02-3.65,0.25c-4.18,0.8-7.53,3.36-7.74,7.43c-0.5,9.88-0.16,19.81-0.16,29.84
		C103.36,105.07,196.56,105.07,290.17,105.07z"/>
	<linearGradient id="SVGID_2_" gradientUnits="userSpaceOnUse" x1="26.963" y1="193.918" x2="63.7128" y2="193.918">
		<stop  offset="0" style="stop-color:#171C61"/>
		<stop  offset="0.1256" style="stop-color:#192568"/>
		<stop  offset="0.4986" style="stop-color:#1F3E79"/>
		<stop  offset="0.8033" style="stop-color:#234E85"/>
		<stop  offset="1" style="stop-color:#245489"/>
	</linearGradient>
	<path class="st1" d="M63.71,181.51c-6.27,8.21-6.35,16.5-0.03,24.74c-3.83,6.36-13.34,9.69-21.37,7.54
		c-9.04-2.43-15.14-10.26-15.35-19.71c-0.19-8.72,5.73-16.99,14.08-19.67C49.58,171.67,59.1,174.63,63.71,181.51z"/>
	<linearGradient id="SVGID_3_" gradientUnits="userSpaceOnUse" x1="163.2758" y1="203.7" x2="282.5334" y2="203.7">
		<stop  offset="0" style="stop-color:#171C61"/>
		<stop  offset="0.1256" style="stop-color:#192568"/>
		<stop  offset="0.4986" style="stop-color:#1F3E79"/>
		<stop  offset="0.8033" style="stop-color:#234E85"/>
		<stop  offset="1" style="stop-color:#245489"/>
	</linearGradient>
	<path class="st2" d="M223.11,207.28c-18.24,0-36.49,0-54.73,0c-0.73,0-1.49,0.07-2.19-0.07c-1.82-0.37-2.87-1.57-2.9-3.41
		c-0.03-1.83,0.94-3.14,2.77-3.52c1.1-0.23,2.27-0.15,3.41-0.15c35.84-0.01,71.68,0,107.51,0c0.89,0,1.81-0.03,2.68,0.14
		c1.95,0.39,2.98,1.68,2.88,3.65c-0.1,1.97-1.23,3.13-3.22,3.34c-0.73,0.08-1.46,0.04-2.2,0.04
		C259.11,207.28,241.11,207.28,223.11,207.28z"/>
	<linearGradient id="SVGID_4_" gradientUnits="userSpaceOnUse" x1="179.0476" y1="190.3254" x2="282.5576" y2="190.3254">
		<stop  offset="0" style="stop-color:#171C61"/>
		<stop  offset="0.1256" style="stop-color:#192568"/>
		<stop  offset="0.4986" style="stop-color:#1F3E79"/>
		<stop  offset="0.8033" style="stop-color:#234E85"/>
		<stop  offset="1" style="stop-color:#245489"/>
	</linearGradient>
	<path class="st3" d="M230.69,193.94c-15.39,0-30.79,0-46.18,0c-0.73,0-1.47,0.04-2.2-0.04c-2.1-0.25-3.26-1.56-3.26-3.59
		c0-1.93,1.16-3.17,3.1-3.51c0.71-0.12,1.46-0.08,2.19-0.08c30.87,0,61.74,0,92.61,0c3.87,0,5.56,1.08,5.6,3.54
		c0.04,2.59-1.65,3.68-5.68,3.68C261.48,193.94,246.08,193.94,230.69,193.94z"/>
	<linearGradient id="SVGID_5_" gradientUnits="userSpaceOnUse" x1="187.3498" y1="176.9829" x2="282.5608" y2="176.9829">
		<stop  offset="0" style="stop-color:#171C61"/>
		<stop  offset="0.1256" style="stop-color:#192568"/>
		<stop  offset="0.4986" style="stop-color:#1F3E79"/>
		<stop  offset="0.8033" style="stop-color:#234E85"/>
		<stop  offset="1" style="stop-color:#245489"/>
	</linearGradient>
	<path class="st4" d="M235.09,180.56c-13.84,0-27.68,0-41.52,0c-0.65,0-1.3,0.01-1.95-0.01c-2.71-0.1-4.31-1.47-4.27-3.64
		c0.05-2.2,1.62-3.5,4.37-3.5c28.82-0.01,57.64-0.01,86.46,0c2.79,0,4.33,1.26,4.37,3.47c0.04,2.2-1.54,3.58-4.23,3.67
		c-0.65,0.02-1.3,0.01-1.95,0.01C262.61,180.56,248.85,180.56,235.09,180.56z"/>
	<linearGradient id="SVGID_6_" gradientUnits="userSpaceOnUse" x1="61.0885" y1="193.8845" x2="87.8978" y2="193.8845">
		<stop  offset="0" style="stop-color:#171C61"/>
		<stop  offset="0.1256" style="stop-color:#192568"/>
		<stop  offset="0.4986" style="stop-color:#1F3E79"/>
		<stop  offset="0.8033" style="stop-color:#234E85"/>
		<stop  offset="1" style="stop-color:#245489"/>
	</linearGradient>
	<path class="st5" d="M74.52,207.27c-7.4,0.02-13.44-5.96-13.43-13.3c0.01-7.43,5.89-13.39,13.29-13.48
		c7.49-0.09,13.52,5.91,13.52,13.46C87.9,201.38,82,207.26,74.52,207.27z"/>
</g>
</svg>
