<svg id="圖層_1" data-name="圖層 1" xmlns="http://www.w3.org/2000/svg" xmlns:xlink="http://www.w3.org/1999/xlink" viewBox="0 0 512 512"><defs><linearGradient id="未命名漸層_166" x1="-53.82" y1="629.28" x2="630.24" y2="-54.79" gradientUnits="userSpaceOnUse"><stop offset="0" stop-color="#323232"/><stop offset="0.05" stop-color="#5a5a5a"/><stop offset="0.4" stop-color="#959595"/><stop offset="0.6" stop-color="#818181"/><stop offset="0.8" stop-color="#c7c7c7"/><stop offset="1" stop-color="#f9f9f9"/></linearGradient><linearGradient id="未命名漸層_220" x1="408.5" y1="134.02" x2="470.76" y2="4.88" gradientUnits="userSpaceOnUse"><stop offset="0" stop-color="#aaa"/><stop offset="1" stop-color="#464646"/></linearGradient><linearGradient id="未命名漸層_142" x1="325.9" y1="68.91" x2="495.41" y2="99.53" gradientUnits="userSpaceOnUse"><stop offset="0" stop-color="#fff" stop-opacity="0"/><stop offset="0.11" stop-color="#fff" stop-opacity="0.27"/><stop offset="0.24" stop-color="#fff" stop-opacity="0.58"/><stop offset="0.36" stop-color="#fff" stop-opacity="0.81"/><stop offset="0.44" stop-color="#fff" stop-opacity="0.95"/><stop offset="0.48" stop-color="#fff"/><stop offset="0.58" stop-color="#fff" stop-opacity="0.74"/><stop offset="0.7" stop-color="#fff" stop-opacity="0.48"/><stop offset="0.8" stop-color="#fff" stop-opacity="0.27"/><stop offset="0.89" stop-color="#fff" stop-opacity="0.12"/><stop offset="0.96" stop-color="#fff" stop-opacity="0.03"/><stop offset="1" stop-color="#fff" stop-opacity="0"/></linearGradient><linearGradient id="未命名漸層_166-2" x1="8.28" y1="691.39" x2="692.35" y2="7.32" xlink:href="#未命名漸層_166"/><linearGradient id="未命名漸層_190" x1="-2458.71" y1="1248.45" x2="-2396.45" y2="1119.32" gradientTransform="translate(197.39 3168.21) rotate(119.77)" gradientUnits="userSpaceOnUse"><stop offset="0" stop-color="#aaa"/><stop offset="1"/></linearGradient><linearGradient id="未命名漸層_142-2" x1="-2541.31" y1="1183.35" x2="-2371.81" y2="1213.97" gradientTransform="translate(197.39 3168.21) rotate(119.77)" xlink:href="#未命名漸層_142"/><linearGradient id="未命名漸層_166-3" x1="-168.13" y1="514.97" x2="515.93" y2="-169.1" xlink:href="#未命名漸層_166"/><linearGradient id="未命名漸層_190-2" x1="-83.13" y1="3309.09" x2="-20.86" y2="3179.96" gradientTransform="matrix(-0.5, -0.87, 0.87, -0.5, -2774.82, 1797.42)" xlink:href="#未命名漸層_190"/><linearGradient id="未命名漸層_142-3" x1="-165.73" y1="3243.99" x2="3.78" y2="3274.61" gradientTransform="matrix(-0.5, -0.87, 0.87, -0.5, -2774.82, 1797.42)" xlink:href="#未命名漸層_142"/><linearGradient id="未命名漸層_166-4" x1="204.55" y1="296.29" x2="343.01" y2="157.83" xlink:href="#未命名漸層_166"/></defs><title>1-13v2.0</title><path d="M441.94,31.05a93.61,93.61,0,0,0-36.92-18c-39.67-9.18-83.38,9.17-110.72,46.59h0c45.77-7.82,75.22,3.29,89.68,10.6,30.25,15.3,54,44,69,81.33,12.48,31.14,18.84,68.3,17.68,108.89,0,1.16-.1,2.33-.14,3.49a355.85,355.85,0,0,1-4.09,41.5q-2.69,16.95-7.07,34.36h0s29.46-85.34,30-171.1c.22-33.43-4-66.9-16-95.42A114.42,114.42,0,0,0,441.94,31.05Z" fill="url(#未命名漸層_166)"/><path d="M294.3,59.64h0c45.77-7.82,75.22,3.29,89.68,10.6,30.25,15.3,54,44,69,81.33,12.48,31.14,18.84,68.3,17.68,108.89,0,1.16-.1,2.33-.14,3.49a355.85,355.85,0,0,1-4.09,41.5q-2.69,16.95-7.07,34.36h0s29.46-85.34,30-171.1C481.31-9.94,294.3,59.64,294.3,59.64Z" fill="url(#未命名漸層_220)"/><path d="M489.38,168.71c.22-33.42-4-66.9-16-95.42a114.42,114.42,0,0,0-31.45-42.24,93.61,93.61,0,0,0-36.92-18c-39.67-9.18-83.38,9.17-110.72,46.59C294.3,59.64,481.31-9.94,489.38,168.71Z" opacity="0.9" fill="url(#未命名漸層_142)"/><path d="M407.36,494.26a93.57,93.57,0,0,0,34-23.11c27.67-29.87,33.44-76.93,14.54-119.24h0c-15.94,43.61-40.2,63.66-53.73,72.58-28.31,18.66-65,25.05-104.86,19.5-33.22-4.63-68.64-17.56-103.29-38.72-1-.61-2-1.24-3-1.86a353.36,353.36,0,0,1-34-24.15q-13.38-10.74-26.32-23.2h0s59.45,67.95,133.61,111c28.9,16.79,60,29.77,90.76,33.51A114.32,114.32,0,0,0,407.36,494.26Z" fill="url(#未命名漸層_166-2)"/><path d="M455.86,351.91h0c-15.94,43.61-40.2,63.66-53.73,72.58-28.31,18.66-65,25.05-104.86,19.5-33.22-4.63-68.64-17.56-103.29-38.72-1-.61-2-1.24-3-1.86a353.36,353.36,0,0,1-34-24.15q-13.38-10.74-26.32-23.2h0s59.45,67.95,133.61,111C423.39,548.79,455.86,351.91,455.86,351.91Z" fill="url(#未命名漸層_190)"/><path d="M264.32,467.08c28.9,16.79,60,29.77,90.76,33.51a114.32,114.32,0,0,0,52.28-6.33,93.57,93.57,0,0,0,34-23.11c27.67-29.87,33.44-76.93,14.54-119.24C455.86,351.91,423.39,548.79,264.32,467.08Z" opacity="0.75" fill="url(#未命名漸層_142-2)"/><path d="M23.64,232.07a93.67,93.67,0,0,0,2.95,41c12,38.92,49.76,67.52,95.84,72.41h0c-29.72-35.68-34.89-66.73-35.81-82.9-1.94-33.85,10.94-68.79,35.75-100.48C143,135.66,172,111.51,207.7,92.16c1-.55,2.06-1.09,3.09-1.63a354.37,354.37,0,0,1,37.94-17.28q16-6.18,33.28-11.12h0S193.4,79.45,118.93,122c-29,16.58-55.88,37-74.53,61.7A114.38,114.38,0,0,0,23.64,232.07Z" fill="url(#未命名漸層_166-3)"/><path d="M122.43,345.46h0c-29.72-35.68-34.89-66.73-35.81-82.9-1.94-33.85,10.94-68.79,35.75-100.48C143,135.66,172,111.51,207.7,92.16c1-.55,2.06-1.09,3.09-1.63a354.37,354.37,0,0,1,37.94-17.28q16-6.18,33.28-11.12h0S193.4,79.45,118.93,122C-31.57,218.58,122.43,345.46,122.43,345.46Z" fill="url(#未命名漸層_190-2)"/><path d="M118.93,122c-29,16.58-55.88,37-74.53,61.7a114.52,114.52,0,0,0-20.76,48.39,93.67,93.67,0,0,0,2.95,41c12,38.92,49.76,67.52,95.84,72.41C122.43,345.46-31.57,218.58,118.93,122Z" opacity="0.4" fill="url(#未命名漸層_142-3)"/><path d="M340.05,157.29a132.35,132.35,0,0,1-1.57,18q-1.58,11-4.72,24.44t-7.86,28.3q-4.72,14.88-10.77,29.88-8,19.85-14.27,34.12a178.92,178.92,0,0,1-12,23.23q-5.69,9-11.37,13.18a20.44,20.44,0,0,1-12.46,4.24,30.36,30.36,0,0,1-10.89-1.94,7.35,7.35,0,0,1-5.08-7.5,11.19,11.19,0,0,1,1.33-5.69,21.7,21.7,0,0,1,3.51-4.47L275,293.51a158.78,158.78,0,0,0,23.35-27.1A226.1,226.1,0,0,0,315.37,237a235.07,235.07,0,0,0,11.37-27.83,173.44,173.44,0,0,0,6.05-22.38H257.55a14.07,14.07,0,0,0-7.38,1.82,14.7,14.7,0,0,0-4.84,4.59,22.8,22.8,0,0,0-2.78,6.05,30.62,30.62,0,0,0-1.21,5.93H238V157.29Z" fill="url(#未命名漸層_166-4)"/></svg>