<svg xmlns="http://www.w3.org/2000/svg" width="41.332" height="95.082" viewBox="0 0 41.332 95.082">
    <defs>
        <style>
            .cls-1{fill:#083a6e}.cls-2{fill:none;stroke:#083a6e;stroke-miterlimit:10;stroke-width:1.2px}
        </style>
    </defs>
    <g id="invest_choose" transform="translate(-18.4 -4.5)">
        <g id="Group_2939" transform="translate(18.4 4.5)">
            <path id="Path_3467" d="M22.657 69.6v2.129a4.317 4.317 0 0 1-4.257-4.255V8.757A4.317 4.317 0 0 1 22.657 4.5h32.818a4.317 4.317 0 0 1 4.257 4.257v58.717a4.317 4.317 0 0 1-4.257 4.257V69.6m0 0a2.05 2.05 0 0 0 2.125-2.126V8.757a2.05 2.05 0 0 0-2.129-2.129H22.657a2.05 2.05 0 0 0-2.129 2.129v58.717a2.05 2.05 0 0 0 2.129 2.126m32.818 0H22.657" class="cls-1" transform="translate(-18.4 -4.5)"/>
            <path id="Path_3468" d="M43.713 8.929H25.264A1.145 1.145 0 0 1 24.2 7.864 1.145 1.145 0 0 1 25.264 6.8h18.449a1.145 1.145 0 0 1 1.064 1.064 1.145 1.145 0 0 1-1.064 1.065z" class="cls-1" transform="translate(-13.911 -2.72)"/>
            <path id="Path_3469" d="M47.9 17.354H24.661A2.728 2.728 0 0 1 22 14.693v-.532a2.728 2.728 0 0 1 2.661-2.661H47.9a2.728 2.728 0 0 1 2.661 2.661v.355a2.768 2.768 0 0 1-2.661 2.838z" class="cls-2" transform="translate(-15.614 .917)"/>
            <path id="Path_3470" d="M47.9 22.777H24.661A2.728 2.728 0 0 1 22 20.116v-.355a2.728 2.728 0 0 1 2.661-2.661H47.9a2.728 2.728 0 0 1 2.661 2.661v.355a2.728 2.728 0 0 1-2.661 2.661z" class="cls-2" transform="translate(-15.614 5.251)"/>
            <path id="Path_3471" d="M48 28.354H24.761a2.728 2.728 0 0 1-2.661-2.661v-.532a2.728 2.728 0 0 1 2.661-2.661H48a2.728 2.728 0 0 1 2.661 2.661v.355A2.768 2.768 0 0 1 48 28.354z" class="cls-2" transform="translate(-15.536 9.431)"/>
            <path id="Path_3472" d="M28.031 33.931h-3.015A2.99 2.99 0 0 1 22 30.916a2.99 2.99 0 0 1 3.016-3.016H47.9a2.99 2.99 0 0 1 3.016 3.016 2.99 2.99 0 0 1-3.016 3.015H34.772" class="cls-2" transform="translate(-15.614 13.61)"/>
        </g>
        <g id="Group_2940" transform="translate(20.174 45.432)">
            <path id="Path_3473" d="M29.264 50.842a1.145 1.145 0 0 1-1.064-1.064V30.264a1.064 1.064 0 0 1 2.129 0v19.514a1.145 1.145 0 0 1-1.065 1.064z" class="cls-1" transform="translate(-12.589 -26.317)"/>
            <path id="Path_3474" d="M25.764 54.614A1.145 1.145 0 0 1 24.7 53.55V41.664a1.064 1.064 0 0 1 2.129 0V53.55a.941.941 0 0 1-1.065 1.064z" class="cls-1" transform="translate(-15.298 -17.494)"/>
            <path id="Path_3475" d="M20.377 54.051V52.1a5.055 5.055 0 0 1 4.612-5.144 4.653 4.653 0 0 1 3.37.887V31.877a4.227 4.227 0 0 1 3.37-4.257 4.446 4.446 0 0 1 3.37.887A4.154 4.154 0 0 1 36.52 31.7a1.064 1.064 0 1 1-2.129 0 2.167 2.167 0 0 0-.71-1.6 1.809 1.809 0 0 0-1.6-.355 2.13 2.13 0 0 0-1.6 2.129v20.048a1.064 1.064 0 0 1-2.129 0 2.938 2.938 0 0 0-.887-2.129 2.437 2.437 0 0 0-2.129-.71 3.066 3.066 0 0 0-2.653 3.017v11.708a7.765 7.765 0 0 0 2.306 5.677l5.322 5.854a1.345 1.345 0 0 1 .355.71V79.6h19.691a32.829 32.829 0 0 1 1.419-8.337 24.983 24.983 0 0 0 1.242-7.983v-9.051a1.064 1.064 0 0 1 2.129 0v9.047A27.493 27.493 0 0 1 53.9 71.79a29.43 29.43 0 0 0-1.242 8.692 1.145 1.145 0 0 1-1.058 1.065H29.247a1.145 1.145 0 0 1-1.064-1.064v-4.258L23.038 70.9a10.548 10.548 0 0 1-2.838-7.1v-9.749" class="cls-1" transform="translate(-18.781 -27.575)"/>
            <path id="Path_3476" d="M29.264 44.76A1.145 1.145 0 0 1 28.2 43.7v-3.02a4.08 4.08 0 1 1 8.16 0v2.129a1.064 1.064 0 0 1-2.129 0V40.68a1.951 1.951 0 1 0-3.9 0v3.02a1.145 1.145 0 0 1-1.067 1.06z" class="cls-1" transform="translate(-12.589 -20.589)"/>
            <path id="Path_3477" d="M38.8 44.837a1.145 1.145 0 0 1-1.064-1.064v-3.016a1.951 1.951 0 1 0-3.9 0v1.951a1.064 1.064 0 1 1-2.129 0V40.58a4.08 4.08 0 1 1 8.16 0v3.02a1.186 1.186 0 0 1-1.067 1.237z" class="cls-1" transform="translate(-9.881 -20.667)"/>
            <path id="Path_3478" d="M42.2 47.711a1.145 1.145 0 0 1-1.064-1.064V41.68a1.951 1.951 0 0 0-3.9 0 1.064 1.064 0 1 1-2.129 0 4.08 4.08 0 0 1 8.16 0v4.967c.17.532-.362 1.064-1.067 1.064z" class="cls-1" transform="translate(-7.249 -19.816)"/>
            <path id="Path_3479" d="M54.7 59.029H20.464a1.064 1.064 0 1 1 0-2.129H54.7a1.145 1.145 0 0 1 1.064 1.064 1.022 1.022 0 0 1-1.064 1.065z" class="cls-1" transform="translate(-19.4 -4.879)"/>
        </g>
    </g>
</svg>
