<svg xmlns="http://www.w3.org/2000/svg" width="524" height="367" viewBox="0 0 524 367">
    <defs>
        <linearGradient id="i2hynqw8za" x1="100%" x2="0%" y1="50%" y2="50%">
            <stop offset="0%" stop-color="#16559B"/>
            <stop offset="50.206%" stop-color="#319ACF"/>
            <stop offset="100%" stop-color="#16559B"/>
        </linearGradient>
        <linearGradient id="toblebj5tb" x1="100%" x2="0%" y1="50%" y2="50%">
            <stop offset="0%" stop-color="#16559B"/>
            <stop offset="50.206%" stop-color="#319ACF"/>
            <stop offset="100%" stop-color="#16559B"/>
        </linearGradient>
        <linearGradient id="o528xe83oc" x1="100%" x2="0%" y1="50%" y2="50%">
            <stop offset="0%" stop-color="#16559B"/>
            <stop offset="50.206%" stop-color="#319ACF"/>
            <stop offset="100%" stop-color="#16559B"/>
        </linearGradient>
        <linearGradient id="ye3uvw78yd" x1="100%" x2="0%" y1="50%" y2="50%">
            <stop offset="0%" stop-color="#16559B"/>
            <stop offset="50.206%" stop-color="#319ACF"/>
            <stop offset="100%" stop-color="#16559B"/>
        </linearGradient>
        <linearGradient id="0kgiryj44e" x1="100%" x2="0%" y1="50%" y2="50%">
            <stop offset="0%" stop-color="#16559B"/>
            <stop offset="50.206%" stop-color="#319ACF"/>
            <stop offset="100%" stop-color="#16559B"/>
        </linearGradient>
        <linearGradient id="yev2hfy10f" x1="100%" x2="0%" y1="50%" y2="50%">
            <stop offset="0%" stop-color="#16559B"/>
            <stop offset="50.206%" stop-color="#319ACF"/>
            <stop offset="100%" stop-color="#16559B"/>
        </linearGradient>
        <linearGradient id="g7ay4uvmig" x1="50%" x2="50%" y1="100%" y2="1.062%">
            <stop offset="0%" stop-color="#0080FF"/>
            <stop offset="100%" stop-color="#5FC6EC" stop-opacity=".8"/>
        </linearGradient>
        <linearGradient id="495kl9qjqh" x1="50%" x2="50%" y1="100%" y2="1.062%">
            <stop offset="0%" stop-color="#0080FF"/>
            <stop offset="100%" stop-color="#5FC6EC" stop-opacity=".8"/>
        </linearGradient>
        <linearGradient id="npwpqjfofi" x1="50%" x2="50%" y1="100%" y2="1.062%">
            <stop offset="0%" stop-color="#0080FF"/>
            <stop offset="100%" stop-color="#5FC6EC" stop-opacity=".8"/>
        </linearGradient>
        <linearGradient id="9qoa6ix3aj" x1="50%" x2="50%" y1="100%" y2="1.062%">
            <stop offset="0%" stop-color="#0080FF"/>
            <stop offset="100%" stop-color="#5FC6EC" stop-opacity=".8"/>
        </linearGradient>
        <linearGradient id="xlj6lzqizk" x1="99.469%" x2=".531%" y1="50.531%" y2="50.531%">
            <stop offset="0%" stop-color="#178EFC"/>
            <stop offset="100%" stop-color="#5FC6EC" stop-opacity=".8"/>
        </linearGradient>
    </defs>
    <g fill="none" fill-rule="evenodd">
        <g>
            <g>
                <g>
                    <g opacity=".2">
                        <path stroke="url(#i2hynqw8za)" d="M202.12 36.397h0c34.051-5.817 55.962 2.448 66.719 7.89 22.505 11.384 40.187 32.713 51.326 60.506 9.282 23.163 14.02 50.814 13.151 81.01-.025.862-.07 1.732-.103 2.598-.394 10.046-1.379 20.353-3.042 30.868-1.33 8.408-3.077 16.943-5.26 25.57h-.001s21.92-63.492 22.34-127.296c-5.999-132.905-145.13-81.146-145.13-81.146" transform="translate(-493 -3030) translate(0 2868) translate(493 163) translate(66)"/>
                        <path stroke="url(#toblebj5tb)" d="M347.25 117.543c.164-24.866-2.956-49.767-11.893-70.989-7.381-17.038-18.559-27.47-23.394-31.42-6.976-5.498-16.091-10.764-27.471-13.397-29.512-6.827-62.032 6.825-82.372 34.66 0 0 139.13-51.759 145.13 81.146" transform="translate(-493 -3030) translate(0 2868) translate(493 163) translate(66)"/>
                        <path stroke="url(#o528xe83oc)" d="M286.233 359.742c8.236-3.325 17.334-8.622 25.269-17.193 20.58-22.227 24.877-57.233 10.816-88.71h0c-11.86 32.445-29.912 47.36-39.977 53.995-21.057 13.881-48.35 18.64-78.005 14.507-24.716-3.444-51.07-13.062-76.85-28.81-.734-.449-1.467-.92-2.202-1.379-8.525-5.33-16.982-11.303-25.284-17.968-6.638-5.329-13.18-11.084-19.582-17.262h0s44.227 50.552 99.4 82.6c21.503 12.49 44.668 22.144 67.525 24.924 18.455 2.054 33.06-2.468 38.89-4.704" transform="translate(-493 -3030) translate(0 2868) translate(493 163) translate(66)"/>
                        <path stroke="url(#ye3uvw78yd)" d="M179.819 339.521c21.502 12.489 44.666 22.145 67.524 24.925 18.455 2.054 33.059-2.468 38.89-4.704 8.235-3.326 17.333-8.622 25.269-17.193 20.58-22.227 24.877-57.234 10.816-88.71 0 0-24.158 146.467-142.499 85.682" transform="translate(-493 -3030) translate(0 2868) translate(493 163) translate(66)"/>
                        <path stroke="url(#0kgiryj44e)" d="M74.26 249.036h0c-22.113-26.539-25.956-49.64-26.644-61.675-1.441-25.179 8.14-51.175 26.596-74.753 15.381-19.651 36.924-37.619 63.482-52.015.758-.411 1.533-.809 2.299-1.214 8.889-4.699 18.299-9.017 28.229-12.854 7.941-3.068 16.201-5.838 24.757-8.276h.002S127.06 51.138 71.653 82.781c-111.962 71.861 2.607 166.255 2.607 166.255" transform="translate(-493 -3030) translate(0 2868) translate(493 163) translate(66)"/>
                        <path stroke="url(#yev2hfy10f)" d="M71.653 82.781c-21.592 12.332-41.568 27.523-55.443 45.9C5.173 143.613 1.756 158.515.764 164.68c-1.257 8.793-1.24 19.32 2.191 30.485 8.899 28.955 37.023 50.238 71.305 53.871 0 0-114.569-94.394-2.607-166.255" transform="translate(-493 -3030) translate(0 2868) translate(493 163) translate(66)"/>
                    </g>
                    <text fill="#178EFC" font-family="NotoSansTC-Regular, Noto Sans TC" font-size="20" transform="translate(-493 -3030) translate(0 2868) translate(493 163)">
                        <tspan x="27" y="62">靈活運用資金</tspan>
                    </text>
                    <text font-family="NotoSansTC-Regular, Noto Sans TC" font-size="20" transform="translate(-493 -3030) translate(0 2868) translate(493 163)">
                        <tspan x="229" y="212" fill="#1C2A54">風險</tspan> <tspan x="269" y="212" fill="#178EFC">低</tspan>
                    </text>
                    <text fill="#178EFC" font-family="NotoSansTC-Regular, Noto Sans TC" font-size="20" transform="translate(-493 -3030) translate(0 2868) translate(493 163)">
                        <tspan x="404" y="319">年化報酬率</tspan>
                    </text>
                    <text fill="#1C2A54" font-family="NotoSansTC-Regular, Noto Sans TC" font-size="20" opacity=".8" transform="translate(-493 -3030) translate(0 2868) translate(493 163)">
                        <tspan x="404" y="353">5~20%</tspan>
                    </text>
                    <text fill="#1C2A54" font-family="NotoSansTC-Regular, Noto Sans TC" font-size="20" opacity=".8" transform="translate(-493 -3030) translate(0 2868) translate(493 163)">
                        <tspan x="0" y="323">0.5%轉讓手續費</tspan>
                    </text>
                    <text fill="#1C2A54" font-family="NotoSansTC-Regular, Noto Sans TC" font-size="20" opacity=".8" transform="translate(-493 -3030) translate(0 2868) translate(493 163)">
                        <tspan x="66" y="96">小額分散</tspan>
                    </text>
                    <text fill="#178EFC" font-family="NotoSansTC-Regular, Noto Sans TC" font-size="20" transform="translate(-493 -3030) translate(0 2868) translate(493 163)">
                        <tspan x="67" y="289">申購成本</tspan>
                    </text>
                    <text fill="#178EFC" font-family="NotoSansTC-Regular, Noto Sans TC" font-size="20" transform="translate(-493 -3030) translate(0 2868) translate(493 163)">
                        <tspan x="404" y="33">配息方式</tspan>
                    </text>
                    <text fill="#1C2A54" font-family="NotoSansTC-Regular, Noto Sans TC" font-size="20" opacity=".8" transform="translate(-493 -3030) translate(0 2868) translate(493 163)">
                        <tspan x="404" y="67">每月本息回款</tspan>
                    </text>
                    <g stroke-width="3">
                        <path d="M29.132 194.263c5.577 5.382 11.275 10.395 17.057 15.036 7.232 5.806 14.599 11.008 22.025 15.65.64.4 1.278.812 1.918 1.203 22.457 13.718 45.413 22.097 66.942 25.096 25.832 3.6 49.606-.545 67.949-12.637 8.767-5.78 24.494-18.772 34.823-47.034 1.166-3.067 2.259-7.841 2.259-7.841 1.902-7.513 3.424-14.948 4.582-22.271 1.449-9.16 2.306-18.139 2.65-26.89.029-.754.068-1.512.089-2.263.757-26.303-3.37-50.39-11.456-70.566-9.702-24.21-25.105-42.79-44.709-52.706-9.369-4.74-28.456-11.94-58.116-6.871-3.847.597-7.963 1.613-7.963 1.613-7.454 2.123-14.649 4.536-21.565 7.208-8.65 3.341-16.848 7.104-24.59 11.197-.667.353-1.342.7-2.003 1.057-23.134 12.54-41.9 28.192-55.298 45.31C7.649 89.092-.696 111.736.559 133.669c.6 10.485 3.913 30.933 23.177 54.05 0 0 2.848 3.69 5.396 6.544z" transform="translate(-493 -3030) translate(0 2868) translate(493 163) translate(131 53)"/>
                        <path d="M154.623 244.117c-5.302 0-10.814-.393-16.38-1.17-20.742-2.889-42.735-11.154-63.602-23.9-.376-.23-.748-.465-1.12-.701l-.723-.454c-7.297-4.563-14.426-9.628-21.188-15.058-5.533-4.441-10.99-9.245-16.222-14.282-2.253-2.549-4.764-5.795-4.79-5.828l-.099-.13-.104-.124C17.49 166.985 10.17 150.051 9.223 133.5c-1.117-19.509 6.26-39.997 21.33-59.25 12.908-16.49 31.093-31.368 52.59-43.021.388-.21.78-.415 1.172-.62l.752-.396c7.606-4.02 15.566-7.645 23.656-10.77 6.666-2.575 13.613-4.9 20.65-6.91.709-.17 4.04-.957 7.077-1.43l.128-.02c6.247-1.068 12.367-1.61 18.192-1.61 12.856 0 24.472 2.58 34.526 7.667 17.437 8.82 31.46 25.48 40.556 48.174 7.79 19.44 11.537 42.635 10.834 67.075-.012.438-.032.88-.05 1.322l-.037.853c-.337 8.598-1.194 17.302-2.548 25.868-1.125 7.112-2.614 14.344-4.424 21.493l-.046.194c-.268 1.168-1.135 4.652-1.91 6.69l-.04.106c-6.938 18.986-17.809 33.769-31.435 42.75-12.356 8.147-28.115 12.452-45.573 12.452z" transform="translate(-493 -3030) translate(0 2868) translate(493 163) translate(131 53)"/>
                        <path d="M154.623 235.406c-4.903 0-10.01-.365-15.178-1.086-19.569-2.726-40.407-10.579-60.263-22.707-.335-.205-.655-.408-.975-.61l-.771-.485c-7.03-4.396-13.878-9.262-20.373-14.476-5.237-4.205-10.409-8.75-15.375-13.516-1.894-2.168-3.962-4.826-4.2-5.132l-.195-.255-.224-.265c-11.682-14.02-18.31-29.197-19.15-43.872-.993-17.363 5.747-35.823 19.492-53.383C49.59 64.061 66.84 49.976 87.294 38.887c.346-.187.7-.371 1.054-.556l.775-.408c7.324-3.872 14.97-7.353 22.74-10.355 6.371-2.46 13.006-4.684 19.723-6.607.777-.185 3.659-.855 6.204-1.251l.256-.041c5.762-.985 11.389-1.484 16.724-1.484 11.477 0 21.77 2.264 30.593 6.728 15.52 7.85 28.107 22.94 36.404 43.64 7.35 18.342 10.881 40.33 10.212 63.586-.01.374-.027.746-.043 1.117l-.04.94c-.324 8.286-1.148 16.646-2.45 24.875-1.083 6.853-2.517 13.823-4.263 20.715l-.092.386c-.348 1.516-1.085 4.286-1.562 5.541l-.065.172c-6.307 17.259-16.007 30.56-28.062 38.507-10.929 7.205-25.03 11.014-40.78 11.014z" transform="translate(-493 -3030) translate(0 2868) translate(493 163) translate(131 53)"/>
                        <path d="M154.623 226.695c-4.504 0-9.206-.337-13.975-1.002-18.396-2.563-38.08-10.002-56.926-21.515-.256-.155-.493-.305-.73-.455l-.92-.58c-6.757-4.225-13.33-8.896-19.554-13.893-4.938-3.964-9.82-8.247-14.515-12.737-1.587-1.839-3.298-4.028-3.64-4.467l-.275-.359-.345-.411c-10.466-12.56-16.394-25.975-17.126-38.772-.872-15.218 5.233-31.648 17.654-47.515 11.448-14.626 27.76-27.919 47.174-38.444.298-.16.617-.326.934-.493l.796-.417c7.036-3.72 14.373-7.062 21.827-9.942 6.069-2.344 12.39-4.464 18.788-6.302 1.514-.355 3.654-.812 5.34-1.074l.385-.062c5.277-.902 10.41-1.36 15.255-1.36 10.099 0 19.068 1.948 26.66 5.79 13.602 6.881 24.754 20.405 32.251 39.11 6.909 17.24 10.226 38.02 9.59 60.094-.008.315-.022.617-.034.918l-.044 1.018c-.311 7.965-1.101 15.992-2.35 23.886-1.042 6.589-2.423 13.297-4.104 19.938l-.139.574c-.367 1.604-.984 3.793-1.213 4.393l-.081.218c-5.68 15.539-14.212 27.373-24.698 34.285-9.503 6.265-21.946 9.576-35.985 9.576z" transform="translate(-493 -3030) translate(0 2868) translate(493 163) translate(131 53)"/>
                    </g>
                    <path stroke="#017FFF" stroke-linecap="round" stroke-linejoin="round" d="M354 88L404 39 524 39" transform="translate(-493 -3030) translate(0 2868) translate(493 163)"/>
                    <path stroke="#017FFF" stroke-linecap="round" stroke-linejoin="round" d="M27 118L78 68 198 68" transform="translate(-493 -3030) translate(0 2868) translate(493 163) matrix(-1 0 0 1 225 0)"/>
                    <path stroke="#017FFF" stroke-linecap="round" stroke-linejoin="round" d="M347 324L404 268 524 268" transform="translate(-493 -3030) translate(0 2868) translate(493 163) matrix(1 0 0 -1 0 592)"/>
                    <path stroke="#017FFF" stroke-linecap="round" stroke-linejoin="round" d="M27 295L71 249 191 249" transform="translate(-493 -3030) translate(0 2868) translate(493 163) rotate(180 109 272)"/>
                    <g>
                        <path fill="url(#g7ay4uvmig)" d="M15.676 8.37c.59-.98 1.379-2.535 1.771-3.635l2.093.622c-.665 1.314-1.429 2.678-2.093 3.586l-1.771-.573zm-6.103.646h2.658V4.687H9.573v4.329zM5.438 19.49h11.099v-1.985H5.438v1.985zm0-3.683h11.099v-1.96H5.438v1.96zM3.2 12.125h15.675v9.78h-2.338v-.67H5.438V22H3.2v-9.875zm1.008-7.342C5.02 5.81 5.758 7.22 6.03 8.202l-1.97.766c-.27-.958-.959-2.416-1.721-3.492l1.87-.693zM22 9.016v1.84H0v-1.84h7.457V4.687H1.354V2.87h4.429C5.438 2.2 4.897 1.364 4.356.74L6.349 0c.715.741 1.428 1.721 1.699 2.44l-1.01.429h6.62c.566-.837 1.28-2.007 1.649-2.869l2.264.693c-.442.767-.936 1.53-1.428 2.176h4.651v1.818h-6.398v4.329H22z" transform="translate(-493 -3030) translate(0 2868) translate(493 163) translate(185 146)"/>
                        <path fill="url(#495kl9qjqh)" d="M37.05 15.77h3.13v-1.775h-3.13v1.774zm0-3.36h3.13v-1.635h-3.13v1.634zm0-3.22h3.13V7.556h-3.13V9.19zm-4.326-2.58c-.661-.687-2.054-1.586-3.203-2.178l1.222-1.277c1.125.495 2.543 1.372 3.276 2.035l-1.295 1.42zm-3.668 10.224c.905-1.23 2.225-3.242 3.252-5.112l1.32 1.349c-.88 1.657-1.98 3.574-3.007 5.16l-1.565-1.397zm5.99 1.562V9.615c-.44.544-.88 1.066-1.345 1.515-.22-.331-.708-.971-1.075-1.396l-.979 1.136c-.709-.711-2.126-1.633-3.324-2.2l1.173-1.303c1.076.473 2.397 1.208 3.179 1.846 1.613-1.563 3.006-3.858 3.862-6.224l1.857.52c-.292.781-.61 1.562-1 2.32h3.299c-.269-.663-.611-1.35-.929-1.965l2.004-.544c.49.734.98 1.751 1.247 2.508h3.203v1.728h-3.985V9.19h3.227v1.585h-3.227v1.634h3.227v1.586h-3.227v1.774h4.058v1.729H37.05v.898h-2.004zM47 19.154V21H27.419v-.024H26V1h20.536v1.847h-18.31v16.307H47z" transform="translate(-493 -3030) translate(0 2868) translate(493 163) translate(185 146)"/>
                        <path fill="url(#npwpqjfofi)" d="M67.35 17.814c1.664.904 3.597 2.117 4.65 2.997L69.945 22c-.98-.904-2.986-2.307-4.625-3.259l2.03-.927zm-7.192-1.594h7.951v-1.236h-7.951v1.236zm0-2.473h7.951V12.51h-7.951v1.238zm0-2.427h7.951v-1.214h-7.951v1.214zm-2.203 6.35h12.43V8.68h-12.43v8.99zm4.918-14.984h-5.701v-1.45h5.7V0h2.302v1.237h5.945v1.449h-5.945v1h5.358v1.403h-5.358v1.07h6.728v1.5H56.12v-1.5h6.753v-1.07h-5.114V3.686h5.114v-1zm.293 16.055c-1.418 1.214-3.742 2.403-5.652 3.093-.391-.405-1.247-1.166-1.785-1.522 1.932-.547 4.062-1.428 5.26-2.356l2.177.785zM56.878.642c-.611 1.57-1.394 3.163-2.25 4.685v16.459h-2.203V8.68c-.71.928-1.444 1.808-2.202 2.545-.196-.522-.856-1.688-1.223-2.235 2.3-2.164 4.478-5.542 5.799-8.967l2.08.62z" transform="translate(-493 -3030) translate(0 2868) translate(493 163) translate(185 146)"/>
                        <path fill="url(#g7ay4uvmig)" d="M91.959 8.187h2.33v-1.82h-2.33v1.82zM97 1.77v1.675h-4.256v1.03h-1.928V0h1.928v1.77H97zm-6.707 7.853h5.708V4.931h-5.708v4.692zm-4.09 9.912h3.092v-1.222h-3.093v1.222zm0-2.729h3.092v-1.222h-3.093v1.222zm0-2.706h3.092v-1.222h-3.093V14.1zm-.952-5.914h2.236v-1.82h-2.236v1.82zm1.5-4.74h-3.973V1.77h3.972V0h1.926v4.5H86.75V3.445zm4.47 16.089h5.613v1.651H86.202V22h-1.974v-7.206c-.404.407-.808.838-1.213 1.197-.19-.407-.738-1.388-1.118-1.82 1.404-1.124 2.736-2.777 3.592-4.548h-1.903V4.931H89.2v4.692h-2.688l.905.311c-.239.479-.5 1.006-.786 1.485h2.617c-.119-.408-.262-.815-.404-1.174l1.902-.502c.19.502.428 1.126.618 1.676h5.019v1.46H91.22V14.1h4.21v1.484h-4.21v1.22h4.21v1.509h-4.21v1.222zm-9.251-6.609c-.287-.62-.81-1.7-1.357-2.657v11.707h-1.926V10.772c-.713 2.49-1.666 4.908-2.64 6.464-.215-.67-.69-1.652-1.047-2.25 1.38-1.891 2.735-5.46 3.378-8.404h-2.784V4.524h3.093V0h1.926v4.524h2.402v2.058h-2.402v1.15c.547.718 2.189 3.064 2.57 3.638l-1.213 1.556zM105.342 16.709h11.389v-1.383h-11.389v1.383zm0-2.741h11.389v-1.336h-11.389v1.336zm0-2.67h11.389V9.94h-11.389v1.358zm-4.832-8.223h5.949V1.407h-5.95v1.668zm14.229 15.04c2.501.81 5.197 1.812 6.848 2.598l-2.04 1.216c-1.481-.787-4.031-1.86-6.532-2.693l1.41-1.12h-7.262l2.016.904c-1.967 1.169-5.002 2.313-7.431 2.98-.388-.453-1.19-1.263-1.675-1.668 2.476-.477 5.318-1.287 6.993-2.216h-3.91V8.534h15.832v9.582h-4.25zm.194-14.444c0 .167 0 .357-.049.572 1.313 1.312 3.91 2.12 7.116 2.311-.437.453-.997 1.24-1.214 1.813-2.769-.382-4.978-1.24-6.509-2.623-.874 1.098-2.791 2.122-6.968 2.693-.219-.5-.729-1.24-1.141-1.643H100v-1.74h7.042v1.572c5.269-.667 5.827-2.002 5.827-3.026v-.31h-2.015c-.534.858-1.14 1.62-1.772 2.217-.365-.31-1.19-.883-1.7-1.121 1.262-1.072 2.258-2.717 2.793-4.386l2.015.429c-.146.406-.292.786-.462 1.193h7.577l.315-.096 1.555.5c-.607 1.264-1.434 2.646-2.114 3.529l-1.772-.621c.316-.429.68-1.048 1.02-1.644h-3.376v.381z" transform="translate(-493 -3030) translate(0 2868) translate(493 163) translate(185 146)"/>
                        <path fill="url(#9qoa6ix3aj)" d="M132.293 4.149c1.734.417 3.612.908 5.417 1.423 1.402-.442 2.662-.908 3.66-1.423h-9.077zm9.884 4.492c-1.259-.466-2.875-.983-4.586-1.522-1.947.614-3.943 1.105-5.796 1.522h10.382zM147 20.178v1.865h-17.414v-1.865h7.46v-2.013h-5.275v-1.792h5.274V14.58h-4.467c-.688 1.203-1.496 2.307-2.351 3.117-.166-.417-.713-1.546-1.069-2.013-.214 2.53-.831 5.327-2.472 7.315-.332-.417-1.258-1.227-1.686-1.447 1.9-2.357 2.114-5.67 2.114-8.15V8.641h3.042c-.31-.344-.69-.76-.974-.983 1.805-.318 3.871-.784 5.82-1.276-1.711-.49-3.421-.931-4.989-1.276l1.211-.957h-3.92V2.357h8.458c-.332-.564-.712-1.13-1.093-1.596L136.214 0c.594.688 1.282 1.62 1.662 2.357h8.054V4.15h-3.54l1.046.688c-.974.49-2.114.98-3.35 1.447 1.592.466 3.065.958 4.23 1.374l-1.094.983h3.445v1.866h-17.415v2.92c0 .712-.024 1.473-.094 2.258 1.259-1.227 2.375-2.994 3.017-4.86l1.9.565c-.166.466-.355.909-.57 1.374h3.54v-1.816h2.185v1.816h6.154v1.817h-6.154v1.792h5.536v1.792h-5.536v2.013H147z" transform="translate(-493 -3030) translate(0 2868) translate(493 163) translate(185 146)"/>
                    </g>
                    <g fill="#032E4F" fill-rule="nonzero" opacity=".8">
                        <path d="M12.595 14.973H2.325c-1.266 0-2.298-1.038-2.298-2.31V2.337c0-1.272 1.032-2.31 2.297-2.31h10.27c.374 0 .676.305.676.68 0 .375-.302.679-.675.679H2.325c-.52 0-.947.43-.947.951v10.326c0 .522.427.951.946.951h10.27c.52 0 .947-.43.947-.951V5.277c0-.375.302-.68.675-.68.373 0 .676.305.676.68v7.386c0 1.272-1.033 2.31-2.297 2.31z" transform="translate(-493 -3030) translate(0 2868) translate(493 163) translate(47 82)"/>
                        <path d="M7.432 11.141h-.01c-.206-.005-.4-.103-.525-.266l-2.4-3.152H3.13c-.373 0-.676-.305-.676-.68 0-.375.303-.679.676-.679h1.702c.211 0 .411.098.536.266l2.08 2.734L14.79.277c.238-.293.66-.337.952-.098.291.24.335.663.097.957L7.957 10.89c-.13.158-.325.25-.525.25z" transform="translate(-493 -3030) translate(0 2868) translate(493 163) translate(47 82)"/>
                    </g>
                    <path stroke="url(#xlj6lzqizk)" d="M178 179L334 179" transform="translate(-493 -3030) translate(0 2868) translate(493 163)"/>
                </g>
            </g>
        </g>
    </g>
</svg>
