<svg xmlns="http://www.w3.org/2000/svg" width="78" height="81.082" viewBox="0 0 78 81.082">
    <defs>
        <style>
            .cls-1{fill:#083a6e}
        </style>
    </defs>
    <g id="invest_choose_2" transform="translate(-5.975 -8.8)">
        <path id="Path_3368" d="M23.218 76.986a1.384 1.384 0 0 1-1.4-1.4c.176-11.232 5.792-22.815 9.3-28.782a15.245 15.245 0 0 0 1.931-7.2V24.159a4.895 4.895 0 0 0-2.808-2.808 1.938 1.938 0 0 0-1.4 0 1.856 1.856 0 0 0-1.053 1.229C24.447 35.041 9 50.836 8.3 51.538a1.365 1.365 0 1 1-1.93-1.931c.176-.176 15.62-15.971 18.954-27.729a4.344 4.344 0 0 1 2.457-2.808 4.093 4.093 0 0 1 3.51 0 7.953 7.953 0 0 1 4.388 4.563V39.6a18.505 18.505 0 0 1-2.279 8.6c-3.335 5.616-8.775 16.673-8.951 27.378a1.244 1.244 0 0 1-1.231 1.408z" class="cls-1" transform="translate(0 7.456)"/>
        <path id="Path_3369" d="M49.208 47.853h-.351a6.424 6.424 0 0 1-4.739-2.984 10.3 10.3 0 0 1-1.4-6.143c.351-4.914 3.51-8.6 7.371-8.424a6.424 6.424 0 0 1 4.739 2.984 10.3 10.3 0 0 1 1.4 6.143c-.351 4.738-3.335 8.424-7.02 8.424zm.527-14.918c-2.106 0-4.212 2.633-4.388 5.967a7.674 7.674 0 0 0 1.053 4.563 3.3 3.3 0 0 0 2.633 1.755c2.282.176 4.388-2.633 4.563-5.792a7.674 7.674 0 0 0-1.053-4.563 3.4 3.4 0 0 0-2.808-1.931z" class="cls-1" transform="translate(27.714 16.23)"/>
        <path id="Path_3370" d="M48.708 56.353h-.351a6.424 6.424 0 0 1-4.739-2.984 10.3 10.3 0 0 1-1.4-6.143c.351-4.914 3.51-8.6 7.371-8.424a6.424 6.424 0 0 1 4.739 2.984 10.3 10.3 0 0 1 1.4 6.143c-.351 4.738-3.51 8.424-7.02 8.424zm-4.037-9.126a7.674 7.674 0 0 0 1.053 4.563 3.3 3.3 0 0 0 2.633 1.755c2.282.176 4.388-2.633 4.563-5.792a7.674 7.674 0 0 0-1.053-4.563 3.3 3.3 0 0 0-2.633-1.755c-2.282-.176-4.212 2.457-4.563 5.792z" class="cls-1" transform="translate(27.336 22.648)"/>
        <path id="Path_3371" d="M17.58 48.537h-.351A1.356 1.356 0 0 1 16 47.133a1.244 1.244 0 0 1 1.4-1.233h.176A12.432 12.432 0 0 0 26 42.57a1.365 1.365 0 0 1 1.934 1.93 16.356 16.356 0 0 1-10.354 4.037z" class="cls-1" transform="translate(7.569 25.199)"/>
        <path id="Path_3372" d="M44.382 61.946a6.328 6.328 0 0 1-3.51-1.053c-2.984-2.282-2.984-7.2-.176-11.057a9.964 9.964 0 0 1 6.319-4.036 1.6 1.6 0 0 1 1.4.7 3.4 3.4 0 0 0 2.808 1.931h.7a1.153 1.153 0 0 1 1.4.878c1.053 2.633.351 5.967-1.58 8.775a10.328 10.328 0 0 1-5.09 3.686c-.867.001-1.569.176-2.271.176zm-1.4-10.706c-1.931 2.633-2.106 6.143-.351 7.371a3.3 3.3 0 0 0 3.159.351 7.36 7.36 0 0 0 3.861-2.808 7.72 7.72 0 0 0 1.58-5.265h-.175a7 7 0 0 1-4.388-2.457 9.42 9.42 0 0 0-3.686 2.808z" class="cls-1" transform="translate(24.642 27.936)"/>
        <path id="Path_3373" d="M53.441 82.16H26.765a5.28 5.28 0 0 1-5.265-5.265v-62.83A5.28 5.28 0 0 1 26.765 8.8h30.888a5.28 5.28 0 0 1 5.265 5.265v36.154c0 .351-.175.527-.175.7a7.966 7.966 0 0 0-1.4 4.037 7.26 7.26 0 0 0 1.4 5.09 1.341 1.341 0 0 1 .351.878v3.159a1.517 1.517 0 0 1-.526 1.053 6.724 6.724 0 0 0-2.106 4.914 7.35 7.35 0 0 0 .877 4.388 1.5 1.5 0 0 1 0 1.229 1.185 1.185 0 0 1-1.053.7 7.474 7.474 0 0 0-4.563 2.984 4.783 4.783 0 0 0-1.053 2.106 1.477 1.477 0 0 1-1.229.703zM26.765 11.433a2.7 2.7 0 0 0-2.633 2.633v62.83a2.7 2.7 0 0 0 2.633 2.633h25.8a15.435 15.435 0 0 1 1.053-1.755 11.055 11.055 0 0 1 4.563-3.51 9.2 9.2 0 0 1-.527-4.388 9.858 9.858 0 0 1 2.633-6.318v-2.107a10 10 0 0 1-1.58-6.494 11.589 11.589 0 0 1 1.58-5.09v-35.8a2.7 2.7 0 0 0-2.633-2.633z" class="cls-1" transform="translate(11.722)"/>
        <path id="Path_3374" d="M35.339 52.177a4.739 4.739 0 1 1 4.739-4.739 4.719 4.719 0 0 1-4.739 4.739zm0-6.669a1.931 1.931 0 1 0 1.931 1.931 1.948 1.948 0 0 0-1.931-1.931z" class="cls-1" transform="translate(18.592 25.595)"/>
        <path id="Path_3375" d="M44.12 14.508H29.9a1.4 1.4 0 1 1 0-2.808h14.22a1.384 1.384 0 0 1 1.4 1.4c-.172.882-.698 1.408-1.4 1.408z" class="cls-1" transform="translate(17.007 2.19)"/>
        <path id="Path_3376" d="M52.88 48.707a1.384 1.384 0 0 1-1.4-1.4v-12.64a11.934 11.934 0 0 0-23.868 0V47.3a1.4 1.4 0 0 1-2.808 0V34.667a14.567 14.567 0 0 1 29.133 0V47.3c.347.88-.179 1.407-1.057 1.407z" class="cls-1" transform="translate(14.213 8.532)"/>
        <path id="Path_3377" d="M39.743 26.658a1.055 1.055 0 0 1-.7-.176 8.256 8.256 0 0 0-6.143-.878 1.278 1.278 0 0 1-.7-2.457 10.476 10.476 0 0 1 8.249 1.229 1.094 1.094 0 0 1 .351 1.755 1.251 1.251 0 0 1-1.057.527z" class="cls-1" transform="translate(19.102 10.573)"/>
        <path id="Path_3378" d="M28.6 33.369a1.384 1.384 0 0 1-1.4-1.4 10.876 10.876 0 0 1 2.808-7.2 1.365 1.365 0 0 1 1.931 1.931 7.431 7.431 0 0 0-2.106 5.265c.175.878-.351 1.404-1.233 1.404z" class="cls-1" transform="translate(16.025 11.759)"/>
        <path id="Path_3379" d="M28.6 35.865a1.384 1.384 0 0 1-1.4-1.4V32a1.4 1.4 0 0 1 2.808 0v2.457a1.292 1.292 0 0 1-1.408 1.408z" class="cls-1" transform="translate(16.025 16.459)"/>
        <path id="Path_3380" d="M39.2 36.073a1.384 1.384 0 0 1-1.4-1.4V29.4a1.4 1.4 0 0 1 2.808 0v5.265c-.175.706-.702 1.408-1.408 1.408z" class="cls-1" transform="translate(24.029 14.496)"/>
        <path id="Path_3381" d="M37.2 38.573a1.384 1.384 0 0 1-1.4-1.4V31.9a1.4 1.4 0 1 1 2.808 0v5.265c-.175.882-.702 1.408-1.408 1.408z" class="cls-1" transform="translate(22.519 16.384)"/>
        <path id="Path_3382" d="M38.931 32.71a1.174 1.174 0 0 1-1.231-1.053 4.308 4.308 0 0 0-3.335-3.51 1.342 1.342 0 1 1 .527-2.633 7.147 7.147 0 0 1 5.441 5.616 1.367 1.367 0 0 1-1.053 1.58z" class="cls-1" transform="translate(20.616 12.594)"/>
        <path id="Path_3383" d="M30.7 37.132a1.384 1.384 0 0 1-1.4-1.4v-3.51a7.3 7.3 0 0 1 3.51-6.143 1.3 1.3 0 0 1 1.229 2.282 4.361 4.361 0 0 0-2.282 3.861v3.51a1.125 1.125 0 0 1-1.057 1.4z" class="cls-1" transform="translate(17.611 12.911)"/>
        <path id="Path_3384" d="M30.7 37.363a1.384 1.384 0 0 1-1.4-1.4V34.2a1.4 1.4 0 1 1 2.808 0v1.755c-.175.882-.702 1.408-1.408 1.408z" class="cls-1" transform="translate(17.611 18.121)"/>
        <path id="Path_3385" d="M35 38.62a1.384 1.384 0 0 1-1.4-1.4V33a1.4 1.4 0 0 1 2.808 0v4.212c-.175.882-.702 1.408-1.408 1.408z" class="cls-1" transform="translate(20.857 17.214)"/>
        <path id="Path_3386" d="M32.8 32.939a1.384 1.384 0 0 1-1.4-1.4v-.176a3.146 3.146 0 0 1 5.967-1.4 1.3 1.3 0 0 1-2.282 1.229c0-.176-.175-.351-.527-.351a.465.465 0 0 0-.527.527v.351c.177.693-.349 1.22-1.231 1.22z" class="cls-1" transform="translate(19.196 14.647)"/>
        <path id="Path_3387" d="M32.8 34.986a1.384 1.384 0 0 1-1.4-1.4V32.7a1.4 1.4 0 0 1 2.808 0v.878a1.384 1.384 0 0 1-1.408 1.408z" class="cls-1" transform="translate(19.196 16.988)"/>
    </g>
</svg>
