<svg xmlns="http://www.w3.org/2000/svg" width="431" height="272" viewBox="0 0 431 272">
    <defs>
        <linearGradient id="96o01j38ha" x1="0%" x2="100%" y1="50%" y2="50%">
            <stop offset="0%" stop-color="#636C75"/>
            <stop offset="100%" stop-color="#3B4249"/>
        </linearGradient>
    </defs>
    <g fill="none" fill-rule="evenodd">
        <g>
            <g>
                <g>
                    <text fill="#4A4A4A" font-family="NotoSansTC-Regular, Noto Sans TC" font-size="16" transform="translate(-37 -3078) translate(0 2868) translate(37 205)">
                        <tspan x="30.986" y="42">靈活運用資金</tspan>
                    </text>
                    <text font-family="NotoSansTC-Regular, Noto Sans TC" font-size="20" transform="translate(-37 -3078) translate(0 2868) translate(37 205)">
                        <tspan x="185.986" y="169" fill="#4A4A4A">風險</tspan> <tspan x="225.986" y="169" fill="#FF575F">中</tspan>
                    </text>
                    <text fill="#4A4A4A" font-family="NotoSansTC-Regular, Noto Sans TC" font-size="16" transform="translate(-37 -3078) translate(0 2868) translate(37 205)">
                        <tspan x="333.986" y="247">年化報酬率</tspan>
                    </text>
                    <text fill="#9B9B9B" font-family="NotoSansTC-Regular, Noto Sans TC" font-size="16" transform="translate(-37 -3078) translate(0 2868) translate(37 205)">
                        <tspan x="333.986" y="276">-5％~7%</tspan>
                    </text>
                    <text fill="#9B9B9B" font-family="NotoSansTC-Regular, Noto Sans TC" font-size="16" transform="translate(-37 -3078) translate(0 2868) translate(37 205)">
                        <tspan x="56.986" y="253">1.5%~2%</tspan>
                    </text>
                    <text fill="#9B9B9B" font-family="NotoSansTC-Regular, Noto Sans TC" font-size="16" transform="translate(-37 -3078) translate(0 2868) translate(37 205)">
                        <tspan x="14.986" y="72">依據經理人偏好</tspan>
                    </text>
                    <text fill="#9B9B9B" font-family="NotoSansTC-Regular, Noto Sans TC" font-size="16" transform="translate(-37 -3078) translate(0 2868) translate(37 205)">
                        <tspan x="333.986" y="48">不確定</tspan>
                    </text>
                    <text fill="#4A4A4A" font-family="NotoSansTC-Medium, Noto Sans TC" font-size="24" font-weight="400" opacity=".8" transform="translate(-37 -3078) translate(0 2868) translate(37 205)">
                        <tspan x="191.986" y="124">基金</tspan>
                    </text>
                    <text fill="#4A4A4A" font-family="NotoSansTC-Regular, Noto Sans TC" font-size="16" transform="translate(-37 -3078) translate(0 2868) translate(37 205)">
                        <tspan x="62.986" y="224">申購成本</tspan>
                    </text>
                    <text fill="#4A4A4A" font-family="NotoSansTC-Regular, Noto Sans TC" font-size="16" transform="translate(-37 -3078) translate(0 2868) translate(37 205)">
                        <tspan x="333.986" y="19">配息方式</tspan>
                    </text>
                    <g stroke-width="3">
                        <path d="M23.306 155.103c4.461 4.297 9.02 8.3 13.645 12.005 5.786 4.636 11.679 8.79 17.62 12.496.512.32 1.023.648 1.535.96 17.965 10.953 36.33 17.642 53.553 20.037 20.666 2.874 39.685-.435 54.36-10.09 7.013-4.614 19.594-14.987 27.858-37.552.933-2.449 1.807-6.261 1.807-6.261 1.522-5.999 2.74-11.935 3.666-17.782 1.159-7.313 1.844-14.482 2.12-21.468.023-.603.054-1.208.07-1.807.606-21.001-2.695-40.232-9.164-56.342-7.762-19.33-20.084-34.163-35.767-42.082-7.495-3.784-22.765-9.532-46.493-5.486-3.078.478-6.37 1.288-6.37 1.288-5.963 1.696-11.72 3.622-17.253 5.756-6.92 2.667-13.478 5.671-19.671 8.94-.534.281-1.074.558-1.603.844C44.712 28.57 29.699 41.067 18.98 54.734 6.119 71.133-.557 89.213.447 106.724c.48 8.371 3.13 24.698 18.542 43.154 0 0 2.278 2.947 4.317 5.225z" transform="translate(-37 -3078) translate(0 2868) translate(37 205) translate(115.986 35)"/>
                        <path d="M123.698 194.907c-4.241 0-8.65-.313-13.104-.933-16.593-2.307-34.188-8.906-50.881-19.083-.301-.183-.599-.371-.897-.56l-.578-.362c-5.837-3.643-11.54-7.687-16.95-12.023-4.427-3.545-8.792-7.381-12.978-11.402-1.802-2.035-3.811-4.627-3.832-4.654l-.079-.103-.083-.1c-10.324-12.363-16.18-25.883-16.938-39.098-.893-15.576 5.008-31.934 17.064-47.306 10.327-13.167 24.875-25.045 42.072-34.35.31-.167.624-.33.938-.494l.602-.316c6.085-3.21 12.453-6.104 18.924-8.6 5.334-2.056 10.891-3.912 16.521-5.516.567-.137 3.23-.765 5.66-1.142l.104-.016c4.997-.853 9.893-1.285 14.553-1.285 10.285 0 19.578 2.06 27.621 6.121 13.95 7.043 25.168 20.343 32.445 38.463 6.232 15.521 9.23 34.04 8.667 53.554-.01.35-.026.703-.04 1.055l-.03.681c-.27 6.865-.955 13.815-2.039 20.654-.9 5.679-2.09 11.453-3.538 17.16l-.037.155c-.215.933-.908 3.714-1.528 5.342l-.032.084c-5.55 15.159-14.247 26.962-25.148 34.133-9.885 6.504-22.492 9.941-36.459 9.941z" transform="translate(-37 -3078) translate(0 2868) translate(37 205) translate(115.986 35)"/>
                        <path d="M123.698 187.952c-3.922 0-8.007-.29-12.142-.866-15.655-2.177-32.326-8.447-48.21-18.13-.269-.163-.524-.326-.78-.488l-.617-.386c-5.625-3.51-11.103-7.395-16.299-11.559-4.19-3.357-8.327-6.986-12.3-10.79-1.515-1.732-3.17-3.854-3.36-4.099l-.156-.203-.179-.212c-9.346-11.193-14.648-23.311-15.319-35.028-.795-13.862 4.597-28.601 15.593-42.621 9.743-12.423 23.542-23.668 39.906-32.522.277-.149.56-.296.843-.444l.62-.325c5.86-3.092 11.976-5.871 18.192-8.268 5.098-1.965 10.406-3.74 15.78-5.276.62-.147 2.926-.682 4.962-.998l.205-.033c4.61-.787 9.11-1.185 13.38-1.185 9.181 0 17.415 1.807 24.474 5.372 12.415 6.268 22.485 18.316 29.122 34.844 5.88 14.644 8.706 32.199 8.17 50.768-.008.298-.021.595-.034.891l-.033.75c-.259 6.616-.917 13.291-1.96 19.862-.865 5.471-2.013 11.036-3.41 16.539l-.073.307c-.279 1.211-.868 3.423-1.25 4.425l-.052.137c-5.045 13.78-12.805 24.4-22.45 30.745-8.743 5.753-20.023 8.793-32.623 8.793z" transform="translate(-37 -3078) translate(0 2868) translate(37 205) translate(115.986 35)"/>
                        <path d="M123.698 180.998c-3.603 0-7.364-.27-11.18-.8-14.717-2.047-30.464-7.986-45.54-17.178-.205-.124-.395-.244-.584-.364l-.736-.462c-5.406-3.374-10.665-7.103-15.644-11.093-3.95-3.165-7.855-6.584-11.612-10.17-1.269-1.468-2.638-3.216-2.911-3.566l-.22-.287-.277-.328c-8.372-10.029-13.115-20.739-13.7-30.956-.698-12.15 4.186-25.269 14.123-37.937 9.158-11.678 22.208-22.29 37.74-30.694.237-.13.493-.261.746-.394l.637-.333c5.629-2.97 11.498-5.639 17.461-7.938 4.856-1.871 9.912-3.564 15.031-5.032 1.211-.283 2.923-.648 4.273-.857l.307-.05c4.222-.72 8.327-1.085 12.204-1.085 8.079 0 15.254 1.555 21.328 4.622 10.882 5.494 19.803 16.292 25.801 31.227 5.527 13.765 8.18 30.356 7.672 47.98-.006.251-.018.492-.027.733l-.036.812c-.249 6.36-.88 12.769-1.88 19.071-.834 5.26-1.938 10.617-3.283 15.92l-.11.458c-.295 1.28-.788 3.028-.972 3.507l-.064.174c-4.544 12.407-11.37 21.855-19.759 27.374-7.602 5.002-17.556 7.646-28.788 7.646z" transform="translate(-37 -3078) translate(0 2868) translate(37 205) translate(115.986 35)"/>
                    </g>
                    <g stroke="#9B9B9B" stroke-linecap="round" stroke-linejoin="round">
                        <path d="M263.179 39.2L303.421 0 400 0" transform="translate(-37 -3078) translate(0 2868) translate(37 205) translate(30.986 24)"/>
                        <path d="M0 63.2L41.046 23.2 137.626 23.2" transform="translate(-37 -3078) translate(0 2868) translate(37 205) translate(30.986 24) matrix(-1 0 0 1 137.626 0)"/>
                        <path d="M257.545 228L303.421 183.2 400 183.2" transform="translate(-37 -3078) translate(0 2868) translate(37 205) translate(30.986 24) matrix(1 0 0 -1 0 411.2)"/>
                        <path d="M0 204.8L35.412 168 131.992 168" transform="translate(-37 -3078) translate(0 2868) translate(37 205) translate(30.986 24) rotate(180 65.996 186.4)"/>
                    </g>
                    <path stroke="url(#96o01j38ha)" d="M157.986 136L273.986 136" transform="translate(-37 -3078) translate(0 2868) translate(37 205)"/>
                    <path fill="#9B9B9B" fill-rule="nonzero" d="M7.646 66l3.98-3.98c.459-.458.459-1.203 0-1.66-.457-.459-1.202-.459-1.66 0l-3.98 3.98-3.98-3.98c-.458-.459-1.203-.459-1.66 0-.461.457-.461 1.2 0 1.66L4.325 66l-3.98 3.98c-.459.458-.459 1.203 0 1.66.23.23.53.344.83.344.301 0 .602-.116.832-.343l3.98-3.98 3.978 3.98c.23.23.531.343.832.343.3 0 .6-.116.831-.343.458-.458.458-1.203 0-1.66L7.646 66z" transform="translate(-37 -3078) translate(0 2868) translate(37 205)"/>
                </g>
            </g>
        </g>
    </g>
</svg>
