<?xml version="1.0" encoding="utf-8"?>
<!-- Generator: Adobe Illustrator 22.0.1, SVG Export Plug-In . SVG Version: 6.00 Build 0)  -->
<svg version="1.1" id="圖層_1" xmlns="http://www.w3.org/2000/svg" xmlns:xlink="http://www.w3.org/1999/xlink" x="0px" y="0px"
	 viewBox="0 0 650 650" style="enable-background:new 0 0 650 650;" xml:space="preserve">
<style type="text/css">
	.st0{fill:none;stroke:#9B9B9B;stroke-width:2;stroke-miterlimit:10;stroke-dasharray:5;}
	.st1{fill:#9B9B9B;}
	.st2{clip-path:url(#SVGID_2_);}
	.st3{fill:url(#SVGID_3_);}
	.st4{clip-path:url(#SVGID_2_);fill:none;stroke:#FFFFFF;stroke-width:2;stroke-miterlimit:10;}
	.st5{fill:#FFFFFF;}
	.st6{fill:#6C6772;}
	.st7{fill:#2097AC;}
	.st8{fill:#5BBFB5;}
	.st9{fill:none;}
</style>
<polyline class="st0" points="395.1,558 228.5,558 228.5,598.6 "/>
<g>
	<g>
		<path class="st1" d="M175.5,637.1v-14.6c-0.8,0.5-1.9,1.1-3.2,1.6v-4c1.8-0.8,3.3-1.9,4.4-3.1h2.6v20.1H175.5z"/>
		<path class="st1" d="M186.3,637.3v-4.7h4.7v4.7H186.3z"/>
		<path class="st1" d="M206.7,635.4c-1.3,1.4-3,2.1-5.2,2.1c-4.6,0-7-2.2-7.2-6.7h3.8c0.1,1.1,0.4,1.9,0.9,2.4
			c0.5,0.5,1.2,0.8,2.3,0.8c1,0,1.9-0.4,2.5-1.2c0.5-0.7,0.9-1.5,0.9-2.6c0-1-0.3-1.9-0.9-2.5c-0.6-0.6-1.4-0.9-2.4-0.9
			c-1.6,0-2.7,0.9-3.2,2.7h-3.5l0.6-12.5h12.3v3.4h-8.8l-0.1,3.5c1-0.5,2-0.7,3.1-0.7c2,0,3.6,0.7,4.9,2c1.2,1.3,1.9,3,1.9,5
			C208.5,632.4,207.9,634.1,206.7,635.4z"/>
		<path class="st1" d="M220.5,625.7c-0.9,1-2.1,1.5-3.6,1.5c-1.6,0-2.8-0.5-3.6-1.5c-0.9-1-1.3-2.2-1.3-3.8c0-1.6,0.4-2.8,1.3-3.8
			c0.9-1,2.1-1.5,3.7-1.5c1.5,0,2.8,0.5,3.7,1.5c0.9,1,1.3,2.3,1.3,3.8C221.8,623.4,221.4,624.7,220.5,625.7z M215,637.6l-2.1-2.2
			l19.5-18.8l2.1,2.1L215,637.6z M216.9,619.3c-1.3,0-2,0.9-2,2.6s0.7,2.6,2,2.6c1.3,0,2-0.9,2-2.6S218.2,619.3,216.9,619.3z
			 M234.1,636c-0.9,1-2.1,1.5-3.6,1.5c-1.6,0-2.8-0.5-3.6-1.5c-0.9-1-1.3-2.2-1.3-3.8c0-1.6,0.4-2.8,1.3-3.8c0.9-1,2.1-1.5,3.7-1.5
			c1.5,0,2.8,0.5,3.7,1.5c0.9,1,1.3,2.2,1.3,3.8C235.4,633.8,235,635.1,234.1,636z M230.5,629.7c-1.3,0-2,0.9-2,2.6
			c0,1.7,0.7,2.6,2,2.6s2-0.9,2-2.6C232.5,630.5,231.8,629.7,230.5,629.7z"/>
		<path class="st1" d="M243.6,628.8c-0.5,0-1.2-0.3-2.2-1c-0.9-0.6-1.5-1-1.7-1c-0.5,0-1.4,0.6-2.6,1.7v-3.4
			c0.7-0.8,1.6-1.2,2.6-1.2c0.5,0,1.2,0.3,2.2,1c0.9,0.7,1.5,1,1.6,1c0.7,0,1.5-0.6,2.6-1.7v3.4
			C245.5,628.4,244.6,628.8,243.6,628.8z"/>
		<path class="st1" d="M249.2,637.1v-3.2c6.4-5.6,9.6-9.5,9.6-11.5c0-1.6-1-2.4-2.9-2.4c-1.1,0-1.8,0.3-2.2,0.9
			c-0.3,0.5-0.5,1.4-0.4,2.6h-4c0.1-4.7,2.3-7,6.6-7c1.9,0,3.4,0.5,4.7,1.4c1.3,1.1,2,2.5,2,4.3c0,2.7-2.6,6.4-7.8,11.2h8v3.6H249.2
			z"/>
		<path class="st1" d="M275.1,625.7c-0.9,1-2.1,1.5-3.6,1.5c-1.6,0-2.8-0.5-3.6-1.5c-0.9-1-1.3-2.2-1.3-3.8c0-1.6,0.4-2.8,1.3-3.8
			c0.9-1,2.1-1.5,3.7-1.5c1.5,0,2.8,0.5,3.7,1.5c0.9,1,1.3,2.3,1.3,3.8C276.4,623.4,276,624.7,275.1,625.7z M269.6,637.6l-2.1-2.2
			l19.5-18.8l2.1,2.1L269.6,637.6z M271.5,619.3c-1.3,0-2,0.9-2,2.6s0.7,2.6,2,2.6c1.3,0,2-0.9,2-2.6S272.8,619.3,271.5,619.3z
			 M288.7,636c-0.9,1-2.1,1.5-3.6,1.5c-1.6,0-2.8-0.5-3.6-1.5c-0.9-1-1.3-2.2-1.3-3.8c0-1.6,0.4-2.8,1.3-3.8c0.9-1,2.1-1.5,3.7-1.5
			c1.5,0,2.8,0.5,3.7,1.5c0.9,1,1.3,2.2,1.3,3.8C290,633.8,289.6,635.1,288.7,636z M285.1,629.7c-1.3,0-2,0.9-2,2.6
			c0,1.7,0.7,2.6,2,2.6s2-0.9,2-2.6C287.1,630.5,286.4,629.7,285.1,629.7z"/>
	</g>
</g>
<polyline class="st0" points="237,430.4 70.5,430.4 70.5,470.9 "/>
<polyline class="st0" points="237,251.1 70.5,251.1 70.5,210.6 "/>
<polyline class="st0" points="438.4,131.2 271.9,131.2 271.9,90.7 "/>
<g>
	<defs>
		<path id="SVGID_1_" d="M376.7,134.9c-503.4,164.8,6.4,521.6,119.7,444.9C591,515.9,694.4,30.9,376.7,134.9z"/>
	</defs>
	<clipPath id="SVGID_2_">
		<use xlink:href="#SVGID_1_"  style="overflow:visible;"/>
	</clipPath>
	<g class="st2">
		
			<linearGradient id="SVGID_3_" gradientUnits="userSpaceOnUse" x1="615.1442" y1="926.3905" x2="229.0473" y2="561.1631" gradientTransform="matrix(0.9112 -0.4121 0.4121 0.9112 -325.6645 -179.0126)">
			<stop  offset="0" style="stop-color:#555557"/>
			<stop  offset="9.633780e-03" style="stop-color:#555557"/>
			<stop  offset="0.4478" style="stop-color:#7C7A7B"/>
			<stop  offset="0.7928" style="stop-color:#969596"/>
			<stop  offset="1" style="stop-color:#A0A0A0"/>
		</linearGradient>
		<path class="st3" d="M376.7,134.9c-503.4,164.8,6.4,521.6,119.7,444.9C591,515.9,694.4,30.9,376.7,134.9z"/>
	</g>
	<line class="st4" x1="480" y1="339.9" x2="278.7" y2="91.3"/>
	<line class="st4" x1="480" y1="339.9" x2="131.5" y2="333.6"/>
	<path class="st4" d="M158.5,423.3"/>
	<path class="st4" d="M480,339.9"/>
	<line class="st4" x1="480" y1="339.9" x2="236.4" y2="546.6"/>
</g>
<g>
	<path class="st5" d="M390.1,515.3v-3.4l1.9,0.2c0.3,0,0.5,0.1,0.5,0.3c0,0.1-0.1,0.3-0.4,0.5v2.5h8.6v13.8h-2.1v-1.9h-6.5v6.7h-2.1
		v-6.7H384v1.9h-2.1v-13.8H390.1z M390.1,520.4v-3.1H384v3.1H390.1z M390.1,525.4v-3.2H384v3.2H390.1z M392.2,520.4h6.5v-3.1h-6.5
		V520.4z M392.2,525.4h6.5v-3.2h-6.5V525.4z"/>
	<path class="st5" d="M408.3,529.5c0.1,0.1,0.2,0.1,0.2,0.2c0,0.1-0.1,0.3-0.2,0.4c-0.7,1.5-1.4,2.8-2.2,3.8l-1.9-0.9
		c1-1.2,1.8-2.6,2.4-4.3L408.3,529.5z M412.7,512.9v15.7h-7.5v-15.7H412.7z M410.7,517.5v-2.7h-3.5v2.7H410.7z M410.7,522.2v-2.7
		h-3.5v2.7H410.7z M410.7,524h-3.5v2.7h3.5V524z M413.8,532.3l-1.8,1.2c-0.7-1.4-1.5-2.6-2.4-3.6l1.4-1.1
		C411.9,529.7,412.8,530.9,413.8,532.3z M416.4,513.6v-1.7l1.8,0.1c0.3,0,0.5,0.1,0.5,0.2c0,0.1-0.1,0.3-0.4,0.6v0.8h2.9v-1.7
		l1.8,0.1c0.3,0,0.5,0.1,0.5,0.2c0,0.1-0.1,0.3-0.4,0.6v0.8h2.8v1.7h-2.8v1.2h2.5v1.6h-2.5v1.3h3.2v1.8H421v1.1h4.8v6.4h1v1.7h-1
		v1.5c0,0.9-0.6,1.5-1.7,1.8c-0.9,0.2-1.8,0.3-2.7,0.3l-0.8-2l2.3,0c0.6,0,0.9-0.3,0.9-0.7v-0.9H416v3.3h-2v-3.3h-1.2v-1.7h1.2v-6.4
		h4.9v-1.1h-5.9v-1.8h3.3v-1.3h-2.7v-1.6h2.7v-1.2h-3v-1.7H416.4z M419,525.6V524H416v1.5H419z M419,528.8v-1.6H416v1.6H419z
		 M421.4,515.3h-2.9v1.2h2.9V515.3z M421.4,518.2h-2.9v1.3h2.9V518.2z M421,525.6h2.8V524H421V525.6z M421,528.8h2.8v-1.6H421V528.8
		z"/>
	<path class="st5" d="M433.3,521h6.4c-0.1,2.8-0.2,4.8-0.5,6.2c-0.2,1.3-0.7,2.3-1.2,2.8c-0.6,0.5-1.6,0.8-3.2,1l-1.2-2.2l2-0.3
		c0.9-0.1,1.4-0.7,1.6-1.6c0.2-0.8,0.3-2.1,0.3-3.9h-4.1v1.4c0,1.9-0.2,3.6-0.7,5.1c-0.3,1.1-0.9,2.6-1.8,4.3l-2.1-1
		c0.9-1.4,1.5-2.7,1.8-3.8c0.4-1.6,0.7-3.1,0.7-4.6v-9.1h10c0-1.1,0-2.2,0-3.4l2.2,0.2c0.3,0.1,0.5,0.2,0.5,0.3
		c0,0.2-0.2,0.5-0.6,0.9v2h4.6c-0.9-0.9-1.9-1.6-2.7-2.2l1.3-1.2c1,0.6,2.1,1.4,3,2.3l-1.2,1.1h2.1v2h-7.1c0.1,2.9,0.3,5.2,0.6,6.8
		c0.1,0.7,0.3,1.3,0.5,1.9c0,0,0-0.1,0.1-0.2c0.9-1.5,1.7-3.3,2.4-5.5l2.2,1c0.2,0.1,0.3,0.3,0.3,0.5c0,0.1-0.2,0.3-0.7,0.5
		c-1.1,2.7-2.2,4.7-3.1,6.1c-0.1,0.1-0.1,0.2-0.2,0.2c0.2,0.4,0.4,0.8,0.6,1.1c0.7,1.1,1.3,1.7,1.8,1.7c0.1,0,0.3-0.1,0.5-0.4
		c0.2-0.3,0.6-1.4,1.2-3.4l1.8,1.5c-0.5,1.6-0.9,2.7-1.4,3.5c-0.6,0.9-1.3,1.4-1.9,1.4s-1.4-0.4-2.1-1c-0.7-0.7-1.4-1.5-2-2.6
		c-0.3,0.3-0.7,0.7-1,0.9c-0.9,0.8-1.9,1.5-3.2,2.2l-1.7-1.7c1.4-0.7,2.5-1.4,3.4-2.2c0.6-0.4,1.1-0.9,1.6-1.4
		c-0.6-1.6-1-3.3-1.3-5.3c-0.2-1.4-0.3-3.3-0.4-5.5h-7.9V521z"/>
	<path class="st5" d="M463.2,516.2v-4.3l2,0.2c0.4,0,0.6,0.1,0.6,0.3c0,0.1-0.1,0.3-0.4,0.6v3.2h9.4v2h-8.8c1.5,2.6,2.9,4.6,4.4,6.1
		c1.3,1.3,3.1,2.6,5.5,3.9l-2.3,2.1c-1.9-1.4-3.5-2.9-4.6-4.3c-1.3-1.5-2.5-3.5-3.6-5.8v8.1h4.4v2h-4.4v2.9h-2.2v-2.9h-4.3v-2h4.3
		v-7.8c-1.3,2.5-2.5,4.5-3.8,6.1c-1.3,1.6-2.9,2.9-4.7,4.1l-2-2c2.3-1.3,4.2-2.8,5.9-4.5c1.2-1.2,2.5-3.1,3.9-5.7h-8.5v-2H463.2z"/>
</g>
<g>
	<path class="st5" d="M223.5,253.7c0.2,0.1,0.4,0.2,0.4,0.3c0,0.1-0.1,0.2-0.2,0.3c-0.2,0.1-0.7,0.6-1.3,1.4h14.2v2.1h-7.4v3.1h6.4
		v2h-6.4v4.5h8.3v2.2h-8.3v5.2H227v-5.2h-11.3v-2.2h4v-6.5h7.3v-3.1h-6c-1,1.2-2.1,2.3-3.3,3.4l-2.2-1.2c2.5-1.9,4.5-4.3,6.1-7
		L223.5,253.7z M227,262.9h-5.1v4.5h5.1V262.9z"/>
	<path class="st5" d="M248,254c0.2,0.1,0.4,0.2,0.4,0.3c0,0.2-0.2,0.4-0.7,0.6c-0.6,1.4-1.2,2.6-1.7,3.7v16.2h-2.3v-12.3
		c-0.7,1-1.5,2.1-2.3,3.3l-1.7-1.7c1.4-1.7,2.5-3.4,3.5-5.1c0.9-1.6,1.8-3.5,2.7-5.9L248,254z M253.3,253.7c0.3,0,0.5,0.2,0.5,0.4
		s-0.2,0.4-0.5,0.7c-0.3,0.2-0.4,0.5-0.4,0.9v6.3c0.9-0.3,1.7-0.7,2.4-1c1.3-0.6,2.8-1.6,4.6-3l1.7,1.8c0.1,0.1,0.2,0.2,0.2,0.4
		c-0.1,0.1-0.1,0.2-0.2,0.2l-0.6-0.1c-0.1,0-0.3,0.1-0.6,0.2c-2.5,1.8-5,3.2-7.5,4v5.9c0,0.7,0.1,1.2,0.4,1.6
		c0.2,0.3,0.7,0.4,1.5,0.4h2.6c0.7,0,1.2-0.1,1.5-0.5c0.3-0.3,0.6-1.2,0.9-2.7l2.2,0.9c-0.4,1.9-0.8,3.2-1.4,3.7
		c-0.5,0.5-1,0.8-1.7,0.8h-5c-1,0-1.8-0.3-2.4-1c-0.5-0.6-0.7-1.5-0.7-2.6v-17.6L253.3,253.7z"/>
	<path class="st5" d="M268.7,255v-2.3l2,0.2c0.4,0,0.6,0.1,0.6,0.3c0,0.1-0.1,0.3-0.4,0.6v1.2h3.9v1.9h-3.9v2.2h4.6v1.9h-11.4v-1.9
		h4.6v-2.2H265V255H268.7z M274.8,264.7v1.9h-4v2.3h4.6v1.9h-4.6v4.1h-2.2v-4.1h-4.5v-1.9h4.5v-2.3h-3.8v-1.9H274.8z M269,263.9
		l-1.9,0.6c-0.3-1-0.8-1.9-1.4-2.8l2.1-0.4C268.2,262.1,268.6,263,269,263.9z M273.6,261.6c0.3,0,0.5,0.2,0.5,0.3
		c0,0.2-0.2,0.4-0.5,0.6l-1,2l-1.9-0.4l1.3-2.8L273.6,261.6z M278.2,255.7v6.6h5.7c0.4-0.3,0.7-0.5,0.9-0.5c0.1,0,0.6,0.5,1.5,1.3
		c0.1,0.1,0.2,0.2,0.2,0.3c0,0.2-0.1,0.3-0.2,0.4c-0.1,0.2-0.4,0.8-0.7,2c-0.6,2.2-1.3,3.8-1.9,4.9c0.8,0.8,1.7,1.5,2.8,2.1
		l-1.4,1.9c-1-0.8-1.9-1.5-2.6-2.2c-0.7,0.9-1.6,1.6-2.5,2.2l-1.4-1.6c0.9-0.5,1.7-1.1,2.3-1.8c0.1-0.1,0.2-0.2,0.3-0.3
		c0,0-0.1-0.1-0.1-0.1c-0.9-1.3-1.7-3.2-2.3-5.6l1.9-0.5c0.4,1.8,1,3.2,1.7,4.3c0-0.1,0.1-0.2,0.2-0.4c0.4-1,0.9-2.5,1.4-4.6h-5.7
		v10.7h-2.2v-21.1h9.3c0,2.9-0.1,4.8-0.4,5.5c-0.2,0.8-0.5,1.3-1.1,1.5c-0.6,0.3-1.6,0.5-3,0.5l-1-2.2c1.4,0,2.3-0.1,2.6-0.2
		c0.2-0.1,0.4-0.3,0.6-0.8c0.1-0.3,0.3-1.1,0.3-2.4H278.2z"/>
	<path class="st5" d="M298.7,253.6v1.8h-3.4v2.6h2.8v2.7l1.1-0.3c0.4,1.3,0.8,2.6,1,3.7c0-0.5,0-1,0-1.5v-9.3l1.9,0.2
		c0.3,0.1,0.4,0.2,0.4,0.3c0,0.2-0.1,0.3-0.4,0.5c0,2.3-0.1,4.5-0.1,6.5l1-0.3c0.5,1.5,0.9,2.9,1.2,4.2v-11l1.8,0.1
		c0.3,0,0.5,0.1,0.5,0.2c0,0.1-0.1,0.3-0.4,0.5v6.2l0.9-0.3c0.5,1.2,0.9,2.4,1.2,3.5v-10.5l1.8,0.1c0.3,0,0.5,0.1,0.5,0.3
		c0,0.1-0.1,0.3-0.4,0.5v20.6h-1.9v-9.3l-1.1,0.3c-0.2-1.2-0.5-2.5-1-4v13h-1.9v-9.4l-1.4,0.3c-0.1-1.1-0.4-2.4-0.9-3.8v0.6
		c0,2.1-0.1,4-0.2,5.6c-0.1,1.3-0.3,2.5-0.6,3.6c-0.2,1-0.6,2-1.1,3.1l-2.1-0.9c0.5-0.9,0.9-1.8,1.2-2.9c0.3-1,0.5-2.1,0.6-3.4
		c0.1-0.6,0.1-1.3,0.2-2.1l-1.3,0.3c-0.1-1.2-0.4-2.6-0.9-4.2v12h-7.7v1h-1.9V258h2.8v-2.6h-3.1v-1.8H298.7z M296.3,268.4v-2.3h-1.4
		c-0.7,0-1-0.3-1-1v-5.4h-0.9v0.7c0,1.3-0.1,2.5-0.3,3.6c-0.2,1.2-0.6,2.2-1,3l-1.1-0.6v2H296.3z M291,263.7
		c0.2-1.1,0.3-2.2,0.3-3.3v-0.7h-0.9v5.8C290.7,264.9,290.9,264.3,291,263.7z M296.3,272v-1.9h-5.9v1.9H296.3z M293.8,255.4h-0.9
		v2.6h0.9V255.4z M295.3,264.2c0,0.2,0.1,0.3,0.3,0.3h0.8v-4.8h-1V264.2z"/>
	<path class="st5" d="M324.9,253.1c0.4,0,0.6,0.1,0.6,0.3c0,0.1-0.1,0.3-0.4,0.5v1.5h9v1.9h-10.3l0.9,0.5c0.2,0.1,0.3,0.2,0.3,0.3
		c0,0.2-0.1,0.3-0.4,0.5l-2.2,2.7c0.4,0.4,0.7,0.7,1,1.1l3.3-3.5l1.5,0.8c0.2,0.1,0.3,0.2,0.3,0.3c0,0.2-0.1,0.4-0.4,0.5l-5,4.8
		c1.3-0.1,2.5-0.3,3.7-0.6c-0.3-0.4-0.6-0.8-0.9-1.2l1.2-1c1,1,2,2.4,2.9,4l-1.6,1c-0.2-0.5-0.5-0.9-0.7-1.3
		c-0.8,0.2-1.8,0.4-2.9,0.6v2h9.8v2h-9.8v4.2h-2.2v-4.2h-9.9v-2h9.9V267c-1,0.2-2.1,0.4-3.2,0.6c-0.2,0.2-0.3,0.3-0.5,0.3
		c-0.1,0-0.2-0.1-0.2-0.3l-0.4-1.9c0.7,0,1.4-0.1,2.1-0.2l1.7-1.8c-1.1-1.2-2.4-2.3-3.6-3.3l1.3-1.3c0.4,0.3,0.9,0.7,1.3,1l1.8-2.7
		h-9.4v-1.9h9.4v-2.5L324.9,253.1z M318.7,264.7l-4.1,2.2c-0.2,0.4-0.4,0.6-0.6,0.6s-0.2-0.1-0.3-0.3l-0.7-1.8
		c1.9-0.6,3.8-1.4,5.7-2.4V264.7z M318.3,261.1l-1.4,1.3c-1-1.2-2-2.2-2.9-2.9l1.3-1.2C316.3,259,317.4,260,318.3,261.1z
		 M333.8,258.7c0.2,0.1,0.3,0.2,0.3,0.3c0,0.2-0.1,0.4-0.4,0.5l-3,2.6l-1.5-0.7l3.1-3.4L333.8,258.7z M334.4,266.2l-1.4,1.3
		c-1.1-1.4-2.2-2.6-3.3-3.4l1.3-1.2C332.1,263.8,333.3,264.9,334.4,266.2z"/>
</g>
<g>
	<g>
		<path class="st1" d="M41.9,483.3v3.4H31.7c-0.4,0.8-0.9,1.6-1.4,2.4v20h-3.7v-14.7c-0.1,0.1-0.2,0.2-0.3,0.4
			c-2.7,3.3-5.5,6.1-8.5,8.4l-2.6-2.7c3-2.2,5.7-4.7,8.1-7.7c1.8-2.2,3.3-4.2,4.4-6H16v-3.4H41.9z M42.6,500.4l-3.1,3.1
			c-2.3-3.6-5.1-7.2-8.2-10.7l3.2-2.3C37.3,493.3,40,496.6,42.6,500.4z"/>
		<path class="st1" d="M55.6,483.2v3.2h-3.7c-0.5,2.5-1.1,4.6-1.7,6.4h5.7v0.9c1.8-1.6,3.2-3.3,4.1-5.1c0.3-0.6,0.6-1.3,0.9-2h-1.6
			v2.7h-3.5v-5.8h6c0.1-0.6,0.2-1.2,0.3-1.9l3.3,0.5c-0.1,0.5-0.2,1-0.2,1.4h7.8v5.8h-3.5v-2.7h-5.2c-0.4,1.3-0.9,2.5-1.5,3.6
			c-0.1,0.2-0.2,0.4-0.3,0.6H65c0.3-0.9,0.6-1.7,0.8-2.6l3.5,0.7c-0.2,0.7-0.4,1.3-0.6,1.9h3.9v3.1h-4.9v1.5H72v3.1h-4.3v1.7H72v3.1
			h-4.3v1.6h5.2v3.2H60.8v1.1h-3.3v-12.5c-0.2,0.2-0.4,0.3-0.6,0.5l-0.9-1.3V508h-3.2v-1.7h-1.8v2.6h-3.2v-10.6
			c-0.3,0.5-0.5,0.8-0.7,1.1l-1.8-3.1c0.6-1.1,1.3-2.8,2.1-5c0.5-1.6,0.9-3.3,1.3-4.9h-2.3v-3.2H55.6z M52.7,503.1v-7.2h-1.8v7.2
			H52.7z M64.4,493.9h-3.6v1.5h3.6V493.9z M64.4,498.5h-3.6v1.7h3.6V498.5z M64.4,504.8v-1.6h-3.6v1.6H64.4z"/>
		<path class="st1" d="M99.4,490.2v3.3h-7.6v3.7h8v3.2h-8v4.7c1.6,0.1,3.4,0.2,5.5,0.2c2.2,0,4.3-0.1,6-0.4l-1.1,3.9h-4.9
			c-4,0-7-0.2-9-0.5c-1.7-0.3-3.2-0.9-4.4-1.7c-0.9-0.6-1.6-1.3-2.2-2.2c-0.9,1.8-2,3.3-3.3,4.8l-2.6-2.5c1.5-1.8,2.6-3.5,3.5-5.3
			c0.9-2,1.5-4.1,1.8-6.4l3.3,0.7c-0.2,1.9-0.7,3.7-1.2,5.3c0.6,0.9,1.2,1.6,1.9,2.2c0.9,0.8,2,1.3,3.2,1.6v-11.2h-8.2v-3.3H99.4z
			 M91.7,481.6v2.4h11.2v5.7h-3.4v-2.4H80.1v2.4h-3.4V484H88v-2.4H91.7z"/>
	</g>
</g>
<g>
	<path class="st5" d="M227.4,385.1v1.9h-3.8v2.6h3.3V406h-2.1v-1.7h-6.9v1.7h-2.1v-16.4h3.2V387h-3.7v-1.9H227.4z M224.8,398.6v-1.7
		h-1.7c-0.8,0-1.2-0.4-1.2-1.2v-4.2h-1.1c0,1.3-0.2,2.4-0.4,3.4c-0.2,0.8-0.6,1.7-1.2,2.9l-1.2-0.6v1.5H224.8z M218.6,394.4
		c0.3-1,0.4-2,0.4-2.9h-1.1v4.6C218.2,395.5,218.4,394.9,218.6,394.4z M224.8,402.3v-1.9h-6.9v1.9H224.8z M221.8,387h-1.1v2.6h1.1
		V387z M223.5,394.6c0,0.3,0.1,0.4,0.4,0.4h0.9v-3.5h-1.2V394.6z M236.7,385v9.3h-6.2v8.8c0,0.6,0.2,0.9,0.8,0.9h2.9
		c0.5,0,0.8-0.1,1.1-0.4c0.2-0.2,0.4-1.1,0.6-2.6l2.2,0.7c-0.2,1.8-0.6,3-1.1,3.6c-0.5,0.6-1.2,0.9-2.1,0.9h-4.1
		c-1.7,0-2.5-0.6-2.5-1.8v-12h6.3v-5.1h-6.2V385H236.7z"/>
	<path class="st5" d="M244.1,399.7c0.2,0.1,0.4,0.2,0.4,0.3c0,0.1-0.1,0.3-0.4,0.4c-0.7,2.2-1.5,4.1-2.4,5.5l-1.9-1.1
		c1-1.7,1.8-3.6,2.6-5.9L244.1,399.7z M252.3,384.6c0.3,0,0.5,0.2,0.5,0.4c0,0.2-0.2,0.4-0.6,0.6l-0.9,0.6h7.2v12.1h-15.9v-12.1h5.8
		l2.1-1.9L252.3,384.6z M256.4,389.6V388h-11.8v1.6H256.4z M256.4,392.9v-1.6h-11.8v1.6H256.4z M256.4,394.6h-11.8v1.6h11.8V394.6z
		 M247.2,398.8c0.3,0,0.5,0.2,0.5,0.4s-0.2,0.4-0.5,0.7c-0.3,0.2-0.4,0.4-0.4,0.8v1.3c0,0.7,0.1,1.1,0.3,1.5
		c0.2,0.3,0.7,0.4,1.4,0.4h5.7c0.7,0,1.2-0.1,1.6-0.4c0.4-0.2,0.7-0.9,0.9-1.9l1.9,0.9c-0.6-0.9-1.3-1.7-1.9-2.4l1.5-1.2
		c1.4,1.3,2.7,2.9,4.1,4.9l-2,1.3c-0.5-0.9-1-1.7-1.5-2.5c-0.4,1.4-0.8,2.3-1.3,2.7c-0.5,0.4-1,0.6-1.7,0.6h-8.2
		c-1,0-1.8-0.3-2.3-0.9c-0.5-0.6-0.7-1.4-0.7-2.5v-4.1L247.2,398.8z M255,401.7l-2,1.3c-1.4-1.2-2.9-2.3-4.5-3.1l1.5-1.2
		C251.6,399.5,253.3,400.5,255,401.7z"/>
	<path class="st5" d="M275.9,384.5c0.4,0,0.6,0.1,0.6,0.3c0,0.1-0.2,0.3-0.5,0.6v3h10v2.1h-12.4c-0.1,1.3-0.2,2.4-0.3,3.4h10.1
		c0,4.8-0.2,7.8-0.7,9c-0.3,1.2-0.9,2.1-1.8,2.5c-0.9,0.5-2.6,0.7-4.9,0.7l-1.1-2.3c2.5,0,4.1-0.1,4.5-0.4c0.4-0.2,0.8-0.7,1.1-1.5
		c0.3-0.8,0.6-2.8,0.6-6.1H273c-0.1,0.7-0.3,1.3-0.5,1.9c-0.6,2.1-1.4,3.7-2.3,5s-2.1,2.4-3.6,3.5l-2.1-1.6c1.7-0.9,2.9-1.9,3.7-3.1
		c0.9-1.2,1.7-2.6,2.2-4.4c0.5-1.7,0.9-4,1-6.7h-7.3v-2.1h9.6v-4.1L275.9,384.5z"/>
	<path class="st5" d="M300.8,388.5c0-1.3,0-2.7,0-4.2l2.4,0.2c0.4,0,0.6,0.2,0.6,0.3c0,0.2-0.2,0.5-0.7,0.9c0,0.9,0,1.8,0,2.6h4.3
		c-0.9-1.1-1.7-2-2.6-2.7l1.5-1.4c1,0.9,2,1.9,2.9,3.1l-1.2,1h2v2.1h-7c0.1,2.5,0.3,4.4,0.5,5.8c0.4,2.3,1.1,4.1,1.9,5.4
		c0.6,1.1,1.2,1.7,1.6,1.7c0.1,0,0.3-0.1,0.5-0.3c0.2-0.2,0.6-1.1,1.1-2.8l1.9,1.6c-0.5,1.4-0.9,2.3-1.4,3c-0.6,0.8-1.3,1.2-1.9,1.2
		c-0.7,0-1.3-0.4-2-1c-0.9-0.8-1.7-2-2.5-3.6c-0.9-1.8-1.4-3.9-1.8-6.4c-0.1-1.2-0.3-2.7-0.3-4.6h-12.2v-2.1H300.8z M299.7,393.9
		v2.1h-4.4v5.8c1.6-0.2,3.2-0.4,4.7-0.7v2c-2.1,0.4-5.4,1-10,1.7c-0.2,0.3-0.4,0.5-0.6,0.5c-0.2,0-0.3-0.1-0.3-0.4l-0.6-2.5
		c1.5-0.1,2.9-0.2,4.4-0.4V396h-4v-2.1H299.7z"/>
</g>
<g>
	<path class="st6" d="M271.4,65.1c-2.4,4.7-6.1,10.5-11,14.6l-0.7,0.6l0.6,0.7c0.4,0.5,9.7,11.2,21.6,8l0.8-0.2l-0.1-0.8
		c0-0.2-1.6-18.9,2.9-27.2c0.7,0,0.7,0,1.4,0.1c0.6,1.6,1.3,3.2,2.2,4.7c1.9,4,4.9,9.2,9,13.7c-1.9,1.5-0.9,3.9-0.2,5.2
		c-2.5,2-6.3,4.2-10.6,4.6c-0.4-1.1-1.4-2.9-3.2-3.5c0.1,1.4,0.1,2.2,0.1,2.3l0.1,1.5l-1.6,0.4c-0.6,0.2-1.3,0.3-1.9,0.4l0.7,0.2
		c11.9,3.3,21.2-7.5,21.6-8l0.6-0.7l-0.7-0.6c-5.2-4.5-9-10.8-11.4-15.6 M280.8,70.7c-0.3-1.2-1.4-2.3-3-3c-2.4-1-5-0.5-5.9,1.1
		c-0.8,1.6,0.4,3.7,2.9,4.7c2.4,1,5,0.5,5.8-1c-0.4,4.3-0.4,8.6-0.3,11.5c-2.4,0-3.7,2.4-4.2,3.6c-4.3-0.4-8.1-2.6-10.6-4.6
		c0.7-1.3,1.7-3.7-0.2-5.2c3.8-4.2,6.7-9.1,8.6-13c3-0.5,6-1.5,8.8-2.7C281.8,64.6,281.2,67.6,280.8,70.7z M291.5,65.3
		C291.5,65.3,291.5,65.3,291.5,65.3l0.1,0.2C291.5,65.5,291.5,65.4,291.5,65.3z"/>
</g>
<path class="st7" d="M285.6,26.6c0.3,1,1.4,1.9,3,2.5c2.4,0.8,5,0.4,5.9-0.9c0.8-1.3-0.4-3.1-2.9-3.9c-2.4-0.8-5-0.4-5.8,0.9"/>
<g>
	<g id="XMLID_2_">
		<g>
			<path class="st6" d="M304.5,62.9c1.7,2.4,2.9,6,1.3,8.6c-1.8,3.1-5.3,3.9-8.6,4.7c-10.8,2.6-21.9,3.8-32.5,6.9l0.7,2.1l-11.8,3.8
				l-11.3-34.7l11.8-3.8l0.8,2.5l0.1,0.3c2.6-1.3,4-4.6,5.7-8.5c2.3-5.5,5.9-12.9,13.7-14.7l3.3,6.5c0,0,8.9-5,15.5-5.4
				c2.2-0.1,4.7,0.5,5.9,2.5c1.3,2.3,1.1,5.1,0.4,7.7c4.2,1.5,5.3,6.7,3.9,10.8C306.4,54.8,306.3,59.2,304.5,62.9z M301.2,70.6
				c2.8-1.7,1.2-5-0.4-7c-0.3-0.4-0.3-1.1-0.1-1.5c1.7-2.9,2.2-6.3-0.8-8.4c-0.5-0.4-0.6-1.2-0.3-1.7c1.4-3,0.9-7.3-2.9-7.8
				c-1-0.1-1.3-1.3-1-2.1c0.1-0.2,0.4-1.3,0.6-2c0.3-1.3,0.5-2.7-0.1-3.9c-0.7-1.6-3.1-1.5-4.5-1.3c-0.1,0-0.2,0-0.2,0
				c0,0,0,0,0,0.1c0,0-0.1,0-0.1,0c-4.8,0.8-9.3,3.3-13.5,5.6c-0.8,0.4-1.9,0.2-2.2-0.8c-0.5-1.8-1-3.3-1.6-4.9
				c-5.2,2-7.3,6.9-9.3,11.6c-1.8,4.2-4.3,9-8.3,10.7l7.3,21.9c8.8-2.6,18.6-3.8,27.6-5.6C294.3,72.8,298.4,72.3,301.2,70.6z
				 M252.1,58.7l-1.1-3.4l-3.4,1.1l1.1,3.4L252.1,58.7z"/>
			<path class="st5" d="M300.8,63.6c1.7,1.9,3.2,5.3,0.4,7c-2.8,1.7-6.9,2.2-10,2.9c-9,1.8-18.8,3-27.6,5.6l-7.3-21.9
				c4.1-1.7,6.5-6.5,8.3-10.7c2-4.8,4.1-9.6,9.3-11.6c0.6,1.6,1.1,3.1,1.6,4.9c0.3,1,1.4,1.2,2.2,0.8c4.2-2.3,8.7-4.8,13.5-5.6
				c0,0,0.1,0,0.1,0c0,0,0,0,0-0.1c0.1,0,0.2,0,0.2,0c1.4-0.2,3.8-0.4,4.5,1.3c0.6,1.2,0.4,2.7,0.1,3.9c-0.1,0.7-0.5,1.9-0.6,2
				c-0.3,0.8,0,2,1,2.1c3.8,0.5,4.4,4.8,2.9,7.8c-0.3,0.5-0.2,1.4,0.3,1.7c3,2.1,2.5,5.5,0.8,8.4C300.4,62.5,300.4,63.2,300.8,63.6z
				"/>
		</g>
		<g>
		</g>
	</g>
</g>
<path class="st6" d="M274.8,31.1c0,0-2.5-5.4-12.2-13.3c7.9-7.6,17.9-8.5,22.9-6.9c-1.5,0.2-3.6,0.7-3.6,0.7l0.3,3.1
	c0,0-2.5-0.5-3.2-2.8c-3.8,0.2-10.6,3.7-10.6,3.7s2.2,2.7-0.2,4.3c3.3,1.6,10.3,13.1,11.2,15.1c0.9,1.9-2.3,2-2.3,2L274.8,31.1z"/>
<path class="st6" d="M294.8,31.4c0,0,5.6-8.8,11.6-12.4c-1.9-2-4.8-4.3-10.9-6.5c-6.1-2.1-12.1-0.4-12.1-0.4s0.7,6.9,0,13.2
	c-0.6,6.3-2.9,9.6-2.9,9.6S294.7,31.7,294.8,31.4z"/>
<path class="st5" d="M290.1,13c0,0,4.7,0.1,10.6,3.7c-2.2,3.2,0.2,4.3,0.2,4.3s-5.9,5.3-8.6,10.6c-3.2,0.1-8.8,2.2-8.8,2.2
	s3.1-6.5,2.4-17.9C288.9,15.9,290.1,13,290.1,13z"/>
<path class="st8" d="M278.3,22.2c-2.4,1.1-3.7,3.5-2.9,5.3c0.8,1.8,3.5,2.3,5.9,1.2c0.4-0.2,0.7-0.4,1-0.6c0.2-2,0.4-4,0.5-6
	C281.6,21.5,279.9,21.5,278.3,22.2z"/>
<path class="st8" d="M290.1,28.2c2.4-1.1,3.7-3.5,2.9-5.3c-0.8-1.8-3.5-2.3-5.9-1.2c-0.4,0.2-0.7,0.4-1,0.6c-0.2,2-0.5,3.9-0.8,5.8
	C286.5,28.7,288.5,29,290.1,28.2z"/>
<path class="st9" d="M293.1,31"/>
<g>
	
		<rect x="274.2" y="13.7" transform="matrix(0.7071 0.7071 -0.7071 0.7071 120.7646 -181.0896)" class="st1" width="9.6" height="83"/>
	
		<rect x="274.2" y="13.7" transform="matrix(-0.7071 0.7071 -0.7071 -0.7071 515.2975 -102.9812)" class="st1" width="9.6" height="83"/>
</g>
<g>
	<path class="st5" d="M376.6,166.9v-1.8l1.9,0.1c0.3,0,0.5,0.1,0.5,0.3c0,0.1-0.1,0.3-0.4,0.5v0.9h6.3v-1.8l1.9,0.1
		c0.4,0,0.6,0.1,0.6,0.3c0,0.1-0.1,0.3-0.4,0.5v0.9h3.9v1.9h-3.9v7.3h5.3v1.9H387c0.5,0.7,1.1,1.2,1.8,1.7c1.2,0.9,2.7,1.7,4.6,2.4
		l-2.1,1.6c-1.4-0.6-2.6-1.4-3.6-2.2c-0.3-0.2-0.5-0.4-0.8-0.6v1.5h-4.1v2.3h8v1.9h-18v-1.9h7.9v-2.3h-4.1v-1.4
		c-0.1,0-0.1,0.1-0.1,0.1c-1.1,0.9-2.5,1.8-4.3,2.7l-1.9-1.7c1.8-0.7,3.4-1.5,4.7-2.4c0.6-0.4,1.3-0.9,2-1.7h-5.9v-1.9h5.4v-7.3
		h-3.7v-1.9H376.6z M380.8,180.5v-2.1l1.9,0.2c0.3,0,0.5,0.1,0.5,0.3c0,0.1-0.1,0.3-0.4,0.5v1.1h3.8c-0.8-0.7-1.4-1.6-2-2.6h-5.2
		c-0.8,1.1-1.6,1.9-2.3,2.6H380.8z M385.1,170.1v-1.3h-6.3v1.3H385.1z M385.1,173v-1.3h-6.3v1.3H385.1z M385.1,176.1v-1.4h-6.3v1.4
		H385.1z"/>
	<path class="st5" d="M408,165.7c0.3,0.1,0.4,0.3,0.4,0.4s-0.2,0.3-0.7,0.4c-0.1,0.1-0.2,0.2-0.3,0.3c1.4,1.6,2.7,2.7,4,3.4
		c1.5,1,3.4,1.8,5.8,2.4l-1.8,2.3c-2.6-1.1-4.5-2.2-5.7-3.2c-1.2-0.9-2.4-2.1-3.6-3.6c-1.1,1.1-2.2,2.2-3.2,3.1
		c-1.3,1.2-3.4,2.5-6,4.1l-1.9-1.7c2.3-1,4.3-2.2,6-3.6c1.6-1.3,3.3-2.9,4.9-4.9L408,165.7z M411.4,173.1v2h-4.1v2.6h6.9v1.9h-6.9
		v5.2h3.3l-1.6-0.8c1-1,1.8-2.3,2.4-3.7l1.8,0.8c0.1,0.1,0.2,0.1,0.2,0.2c0,0.1-0.1,0.3-0.2,0.4c-0.7,1.2-1.3,2.2-2,3h4.9v2h-19.8
		v-2h5.2c-0.7-1.2-1.4-2.3-2.2-3.5l1.9-1c0.8,1.3,1.6,2.5,2.2,3.7l-1.2,0.8h2.9v-5.2h-7v-1.9h7v-2.6h-4.2v-2H411.4z"/>
	<path class="st5" d="M425.4,166.2c0.2,0.1,0.3,0.2,0.3,0.3c0,0.2-0.1,0.3-0.4,0.5l-2.5,2.9c0.6,0.4,1.1,0.8,1.7,1.2l1.8-2.6l1.5,1
		c0.2,0.1,0.3,0.3,0.3,0.4s-0.2,0.2-0.5,0.3l-4.3,5.5c1-0.1,1.9-0.2,2.8-0.4c-0.2-0.4-0.4-0.9-0.6-1.2l1.8-0.4
		c0.7,1.5,1.2,2.8,1.5,4.2l-1.8,0.4c-0.1-0.4-0.2-0.9-0.4-1.3c-0.4,0.1-0.8,0.1-1.2,0.2v10h-2v-9.7c-1,0.1-2.1,0.3-3.2,0.5
		c-0.1,0.2-0.3,0.4-0.5,0.4c-0.1,0-0.2-0.1-0.2-0.3l-0.4-1.9c0.6,0,1.2-0.1,1.8-0.1l2.3-3.3c-1.4-1-2.7-1.9-3.9-2.7l1.1-1.5
		c0.2,0.1,0.4,0.3,0.6,0.4l2.5-3.5L425.4,166.2z M422.9,179.9c0.2,0,0.3,0.1,0.3,0.3c0,0.2-0.1,0.4-0.4,0.6c-0.4,2-0.9,3.8-1.4,5.2
		l-2-0.7c0.3-0.7,0.7-1.5,0.9-2.4c0.3-1.1,0.5-2.3,0.7-3.6L422.9,179.9z M429.3,184.1l-1.9,0.4c-0.4-1.7-0.9-3.3-1.4-4.7l1.9-0.4
		C428.5,181,429,182.5,429.3,184.1z M432.3,169.8c0.1,0,0.2,0.2,0.2,0.3c0,0.2-0.2,0.3-0.6,0.4c-0.4,0.6-0.9,1.5-1.6,2.5
		c0.8,1.2,1.5,2.4,1.9,3.6l-1.7,0.4c-0.5-1.5-1.3-2.8-2.3-3.9c0.9-1.4,1.6-2.7,2.1-4L432.3,169.8z M441.4,166.4v1.8h-12.7v-1.8
		H441.4z M440.9,178.2v1.9h-4.6v4.4h5.1v1.9h-12.7v-1.9h5.5v-4.4h-4.8v-1.9H440.9z M436.4,169.8c0.1,0,0.2,0.2,0.2,0.3
		c0,0.2-0.2,0.3-0.6,0.4c-0.4,0.6-0.9,1.5-1.6,2.5c0.9,1.2,1.7,2.4,2.2,3.6l-1.7,0.4c-0.6-1.5-1.5-2.8-2.6-3.9
		c0.9-1.4,1.6-2.7,2.2-4L436.4,169.8z M440.8,169.8c0.1,0,0.2,0.2,0.2,0.3c0,0.2-0.2,0.3-0.6,0.4c-0.5,0.7-1.1,1.5-1.9,2.5
		c1,1.2,1.7,2.4,2.3,3.6l-1.7,0.4c-0.6-1.5-1.5-2.8-2.6-3.9c1-1.4,1.8-2.7,2.5-4L440.8,169.8z"/>
	<path class="st5" d="M452,166.7v1.9h-3.1v5.5h2.9v1.9h-2.9v5.9c1.1-0.3,2.1-0.6,3.1-0.9v1.8c-1.5,0.6-3.9,1.3-7.2,2.3
		c-0.1,0.2-0.3,0.4-0.5,0.4c-0.1,0-0.2-0.1-0.3-0.3l-0.5-2.1c1.1-0.1,2.1-0.4,3.2-0.6V176H444v-1.9h2.7v-5.5h-2.9v-1.9H452z
		 M464.9,166.4v10.5h-5v2.6h4.9v1.9h-4.9v3.4h5.9v1.9h-13.9v-1.9h5.9v-3.4h-4.7v-1.9h4.7v-2.6H453v-10.5H464.9z M457.8,170.8v-2.5
		H455v2.5H457.8z M457.8,172.6H455v2.4h2.8V172.6z M459.9,170.8h3v-2.5h-3V170.8z M462.8,172.6h-3v2.4h3V172.6z"/>
	<path class="st5" d="M480.4,165.6c0.4,0,0.6,0.1,0.6,0.3c0,0.3-0.2,0.5-0.6,0.8v1.3c0,1.8-0.1,3.5-0.4,5c0.8,2.2,1.9,4.2,3.1,5.8
		c1.6,2.1,3.9,4.3,7,6.4l-2.7,1.7c-3-2.7-5.1-5.1-6.4-7.1c-0.6-1-1.2-2.2-1.8-3.5c-0.1,0.3-0.2,0.5-0.2,0.7c-0.7,2-2.1,4-4.1,5.9
		c-1.4,1.4-3.1,2.7-5,3.9l-2-1.8c2-1.1,3.6-2.2,4.7-3.3c1.8-1.6,3.1-3.2,3.8-4.8c1.1-2.5,1.7-5.4,1.7-8.9v-0.8
		c0-0.5-0.1-1.1-0.2-1.8L480.4,165.6z"/>
	<path class="st5" d="M498.9,166.3c0.2,0.1,0.3,0.2,0.3,0.3c0,0.2-0.2,0.4-0.6,0.6c-0.5,1.5-1,2.8-1.5,4V185
		c0.3-0.7,0.6-1.3,0.8-1.8c0.5-1.3,0.8-2.6,1-4c0.3-2,0.4-5,0.4-8.9V166l1.4,0.5h1.7c3.3,0,6.2-0.4,8.9-1.2l1.5,1.6
		c0.1,0.1,0.2,0.2,0.2,0.4c0,0.1,0,0.2-0.1,0.2c-0.2,0-0.3,0-0.5-0.2c-0.3,0-0.5-0.1-0.6-0.1c-0.2,0-0.6,0.1-1.1,0.2
		c-2.5,0.6-5.7,0.9-9.5,0.9v1.3h11.4v5.1h-11.4c0,0.5,0,1,0,1.4h12.3v8.8c0,0.9-0.4,1.6-1.1,1.8c-0.6,0.2-1.1,0.3-1.7,0.3l-0.8-2
		l1.1,0c0.3,0,0.4-0.3,0.4-0.7v-1.9h-1.8v4H508v-4h-1.7v4h-1.8v-4h-1.7v4.7h-2v-6.9c-0.2,1-0.4,2-0.7,2.9c-0.3,1.2-0.9,2.4-1.5,3.7
		l-1.5-1v1.4H495v-11.8c-0.4,0.8-0.9,1.6-1.4,2.5l-1.6-1.6c1.1-1.7,2-3.4,2.8-5.1c0.7-1.6,1.4-3.5,2.2-5.9L498.9,166.3z
		 M510.7,172.9v-1.5h-9.3c0,0.5,0,1,0,1.5H510.7z M504.5,180.8V178h-1.7v2.8H504.5z M506.3,180.8h1.7V178h-1.7V180.8z M509.8,180.8
		h1.8V178h-1.8V180.8z"/>
	<path class="st5" d="M522.3,165.5c0.3,0,0.4,0.1,0.4,0.3c0,0.2-0.2,0.4-0.5,0.7c-0.1,1.2-0.3,2.4-0.5,3.5h4.7
		c-0.2,4.1-0.7,7.2-1.3,9.2c-0.1,0.4-0.2,0.7-0.4,1c1,0.8,1.9,1.6,2.8,2.5l-1.6,1.6c-0.8-0.8-1.5-1.5-2.1-2.1
		c-0.4,0.7-0.9,1.3-1.4,1.8c-0.9,1-2.3,2-4.1,3.1l-1.7-1.6c1.7-0.8,2.9-1.6,3.8-2.4c0.7-0.6,1.3-1.3,1.8-2.1c-0.8-0.6-1.8-1-2.8-1.5
		c-0.2,0.5-0.5,1.1-0.7,1.6l-2-0.8c0.9-1.9,1.6-3.7,2-5.3c0.2-0.9,0.5-1.8,0.7-3h-2.5v-2h2.8c0.2-1.4,0.4-3,0.5-4.8L522.3,165.5z
		 M524.3,172h-2.8c-0.2,1.1-0.4,2.1-0.7,3.1c-0.2,0.9-0.5,1.7-0.8,2.5c1.1,0.4,2.1,0.9,3,1.4C523.6,177.4,524,175,524.3,172z
		 M537.4,167.1l1.2,0.7c0.1,0.1,0.2,0.2,0.2,0.3c0,0.2-0.2,0.4-0.6,0.7l-4.5,4.6v2.8h5v2h-5v6.4c0,1-0.3,1.7-1,2.1
		c-0.6,0.5-1.9,0.7-4.1,0.7l-0.9-2.2h2.4c0.8,0,1.3-0.3,1.4-1v-6.1h-5.1v-2h5.1V172l0.8,0.1l2.7-3.1h-7.7v-1.9h8.9l0.6-0.2
		C537,166.9,537.2,166.9,537.4,167.1z"/>
</g>
<g>
	<g>
		<path class="st1" d="M22.9,195.8V192h7.6v3.8H22.9z"/>
		<path class="st1" d="M46.2,199.2c-1.3,1.4-3,2.1-5.2,2.1c-4.6,0-7-2.2-7.2-6.7h3.8c0.1,1.1,0.4,1.9,0.9,2.4
			c0.5,0.5,1.2,0.8,2.3,0.8c1,0,1.9-0.4,2.5-1.2c0.5-0.7,0.9-1.5,0.9-2.6c0-1-0.3-1.9-0.9-2.5c-0.6-0.6-1.4-0.9-2.4-0.9
			c-1.6,0-2.7,0.9-3.2,2.7h-3.5l0.6-12.5h12.3v3.4h-8.8l-0.1,3.5c1-0.5,2-0.7,3.1-0.7c2,0,3.6,0.7,4.9,2c1.2,1.3,1.9,3,1.9,5
			C48.1,196.2,47.5,197.9,46.2,199.2z"/>
		<path class="st1" d="M60.1,189.5c-0.9,1-2.1,1.5-3.6,1.5c-1.6,0-2.8-0.5-3.6-1.5c-0.9-1-1.3-2.3-1.3-3.8c0-1.6,0.4-2.8,1.3-3.8
			c0.9-1,2.1-1.5,3.7-1.5c1.5,0,2.8,0.5,3.7,1.5c0.9,1,1.3,2.2,1.3,3.8C61.4,187.2,60.9,188.5,60.1,189.5z M54.5,201.3l-2.1-2.2
			l19.5-18.8l2.1,2.1L54.5,201.3z M56.5,183.1c-1.3,0-2,0.9-2,2.6s0.7,2.6,2,2.6c1.3,0,2-0.9,2-2.6S57.8,183.1,56.5,183.1z
			 M73.7,199.8c-0.9,1-2.1,1.5-3.6,1.5c-1.6,0-2.8-0.5-3.6-1.5c-0.9-1-1.3-2.2-1.3-3.8c0-1.5,0.4-2.8,1.3-3.8c0.9-1,2.1-1.5,3.7-1.5
			c1.5,0,2.8,0.5,3.7,1.5c0.9,1,1.3,2.2,1.3,3.8C75,197.6,74.5,198.9,73.7,199.8z M70.1,193.5c-1.3,0-2,0.9-2,2.6
			c0,1.7,0.7,2.6,2,2.6s2-0.9,2-2.6C72.1,194.3,71.4,193.5,70.1,193.5z"/>
		<path class="st1" d="M83.2,192.6c-0.5,0-1.2-0.3-2.2-1c-0.9-0.6-1.5-1-1.7-1c-0.5,0-1.4,0.6-2.6,1.7v-3.4c0.7-0.8,1.6-1.2,2.6-1.2
			c0.5,0,1.2,0.3,2.2,1c0.9,0.7,1.5,1,1.6,1c0.7,0,1.5-0.6,2.6-1.7v3.4C85.1,192.2,84.2,192.6,83.2,192.6z"/>
		<path class="st1" d="M94.9,200.9h-4.2l7.5-16.6h-9.5v-3.5h13.9v2.5L94.9,200.9z"/>
		<path class="st1" d="M114.7,189.5c-0.9,1-2.1,1.5-3.6,1.5c-1.6,0-2.8-0.5-3.6-1.5c-0.9-1-1.3-2.3-1.3-3.8c0-1.6,0.4-2.8,1.3-3.8
			c0.9-1,2.1-1.5,3.7-1.5c1.5,0,2.8,0.5,3.7,1.5c0.9,1,1.3,2.2,1.3,3.8C116,187.2,115.5,188.5,114.7,189.5z M109.2,201.3l-2.1-2.2
			l19.5-18.8l2.1,2.1L109.2,201.3z M111.1,183.1c-1.3,0-2,0.9-2,2.6s0.7,2.6,2,2.6c1.3,0,2-0.9,2-2.6S112.4,183.1,111.1,183.1z
			 M128.3,199.8c-0.9,1-2.1,1.5-3.6,1.5c-1.6,0-2.8-0.5-3.6-1.5c-0.9-1-1.3-2.2-1.3-3.8c0-1.5,0.4-2.8,1.3-3.8
			c0.9-1,2.1-1.5,3.7-1.5c1.5,0,2.8,0.5,3.7,1.5c0.9,1,1.3,2.2,1.3,3.8C129.6,197.6,129.2,198.9,128.3,199.8z M124.7,193.5
			c-1.3,0-2,0.9-2,2.6c0,1.7,0.7,2.6,2,2.6s2-0.9,2-2.6C126.7,194.3,126,193.5,124.7,193.5z"/>
	</g>
</g>
</svg>
