<svg xmlns="http://www.w3.org/2000/svg" width="66.966" height="108.527" viewBox="0 0 66.966 108.527">
  <g id="组_3863" data-name="组 3863" transform="translate(-1000 -606)">
    <path id="路径_4565" data-name="路径 4565" d="M552.163,291.758c-.093-10.4,8.514-15.453,8.908-15.689a19.157,19.157,0,0,0-15.086-8.154c-6.346-.668-12.5,3.8-15.735,3.8-3.3,0-8.276-3.732-13.641-3.622A20.086,20.086,0,0,0,499.7,278.4c-7.311,12.654-1.859,31.249,5.146,41.476,3.5,5.013,7.6,10.6,12.957,10.405,5.243-.213,7.2-3.338,13.528-3.338,6.269,0,8.108,3.338,13.573,3.212,5.627-.087,9.169-5.032,12.55-10.086a41.322,41.322,0,0,0,5.74-11.686,18.09,18.09,0,0,1-11.034-16.624Zm-10.324-30.571A18.4,18.4,0,0,0,546.052,248c-4.081.181-9.185,2.822-12.124,6.27-2.6,3.038-4.923,8.018-4.323,12.7,4.584.342,9.292-2.312,12.234-5.783Z" transform="translate(503.769 358.002)" fill="#fff"/>
    <text id="iOS下載" transform="translate(1004 710.527)" fill="#fff" font-size="16" font-family="ArialMT, Arial"><tspan x="0" y="0">iOS</tspan><tspan y="0" font-family="YuGothicUI-Regular, Yu Gothic UI">下載</tspan></text>
  </g>
</svg>
