<?xml version="1.0" encoding="utf-8"?>
<!-- Generator: Adobe Illustrator 24.2.1, SVG Export Plug-In . SVG Version: 6.00 Build 0)  -->
<svg version="1.1" id="圖層_1"
	xmlns="http://www.w3.org/2000/svg"
	xmlns:xlink="http://www.w3.org/1999/xlink" x="0px" y="0px" viewBox="0 0 297 102.7" style="enable-background:new 0 0 297 102.7;" xml:space="preserve">
	<style type="text/css">
	.st0{display:none;stroke:#000000;stroke-miterlimit:10;}
	.st1{fill:#FFFFFF;}
	.st2{fill:none;stroke:#FFFFFF;stroke-width:4;stroke-miterlimit:10;}
	.poly{
		    stroke: #9e9e9e;
    stroke-width: 2px;
    stroke-opacity: 0.5;
	fill:url(#grad); 
    transform: translate(-13%, -28%);
	}
.polyz{
		    stroke: #9e9e9e;
    stroke-width: 2px;
    stroke-opacity: 0.5;
	fill:url(#gradz); 
    transform: translate(-13%, -28%);
}
	</style>
	<filter filterUnits="userSpaceOnUse" height="200" id="blur" width="200" x="0" y="0">
		<feGaussianBlur stdDeviation="2"></feGaussianBlur>
	</filter>
	<rect x="-135.2" y="-252.7" class="st0" width="609.3" height="609.3"/>
	<g>
		<g>
			<g class="st3">
				<defs>
					<radialGradient id="grad">
						<stop offset="0" stop-color="yellow"/>
						<stop offset="1" stop-color="#ffffff"/>
					</radialGradient>
					<filter width="200" height="200" x="0" y="0" id="blur" filterUnits="userSpaceOnUse">
						<feGaussianBlur stdDeviation="3" />
					</filter>
				</defs>
				<polygon filter="url(#blur)" class="poly" points="40.9,31 50.1,28.2 40.9,25.5 43.8,20 38.3,23 35.6,13.7 35.6,13.7 32.9,23 27.4,20 30.4,25.5 21.1,28.2 30.4,31 27.4,36.5 32.9,33.5 35.6,42.7 38.3,33.5 43.8,36.5">
					<animateMotion dur="3.6s" path="M235.2,82.3H53.1c-16.8,0-30.4-13.6-30.4-30.4l0,0c0-16.8,13.6-30.4,30.4-30.4h182.1
			c16.8,0,30.4,13.6,30.4,30.4l0,0C265.6,68.7,252,82.3,235.2,82.3z" repeatCount="indefinite"/>
				</polygon>
			</g>
		</g>

		<g>
			<path class="st1" d="M227.1,58.5c0.6-0.9,1.3-1.6,1.9-2.4s1.4-1.4,2.1-2c1.5-1.3,3-2.4,4.7-3.5V54c-0.8-0.5-1.6-1.1-2.4-1.6    c-0.8-0.6-1.5-1.2-2.3-1.8c-0.7-0.6-1.4-1.3-2.1-2c-0.7-0.7-1.3-1.5-1.9-2.4c1.1,0.2,2,0.4,3,0.7c0.9,0.3,1.9,0.7,2.8,1    c0.9,0.4,1.8,0.8,2.6,1.3c0.9,0.5,1.7,1,2.5,1.5l2.7,1.7l-2.8,1.6c-1.6,1-3.3,1.9-5.1,2.7c-0.9,0.4-1.8,0.7-2.8,1    C229.1,58.1,228.1,58.3,227.1,58.5z"/>
			<path class="st2" d="M235.2,82.3H53.1c-16.8,0-30.4-13.6-30.4-30.4l0,0c0-16.8,13.6-30.4,30.4-30.4h182.1
			c16.8,0,30.4,13.6,30.4,30.4l0,0C265.6,68.7,252,82.3,235.2,82.3z"/>
		</g>

		<g>
			<g class="st3">
				<defs>
					<radialGradient id="gradz">
						<stop offset="0" stop-color="#ffffff4c"/>
						<stop offset="1" stop-color="#ffffff4c"/>
					</radialGradient>
					<filter width="200" height="200" x="0" y="0" id="blur" filterUnits="userSpaceOnUse">
						<feGaussianBlur stdDeviation="2" />
					</filter>
				</defs>
				<polygon filter="url(#blur)" class="polyz" points="40.9,31 50.1,28.2 40.9,25.5 43.8,20 38.3,23 35.6,13.7 35.6,13.7 32.9,23 27.4,20 30.4,25.5 21.1,28.2 30.4,31 27.4,36.5 32.9,33.5 35.6,42.7 38.3,33.5 43.8,36.5">
					<animateMotion dur="3.6s" path="M235.2,82.3H53.1c-16.8,0-30.4-13.6-30.4-30.4l0,0c0-16.8,13.6-30.4,30.4-30.4h182.1
			c16.8,0,30.4,13.6,30.4,30.4l0,0C265.6,68.7,252,82.3,235.2,82.3z" repeatCount="indefinite"/>
				</polygon>
			</g>
		</g>
	</g>
</svg>
