<?xml version="1.0" encoding="utf-8"?>
<!-- Generator: Adobe Illustrator 24.2.1, SVG Export Plug-In . SVG Version: 6.00 Build 0)  -->
<svg version="1.1" id="Block" xmlns="http://www.w3.org/2000/svg" xmlns:xlink="http://www.w3.org/1999/xlink" x="0px" y="0px"
	 viewBox="0 0 247.6 489.1" style="enable-background:new 0 0 247.6 489.1;" xml:space="preserve">
<style type="text/css">
	.st0{fill:#ecedf1;stroke:#12386C;stroke-miterlimit:10;}
	.st1{fill:none;stroke:#12386C;stroke-miterlimit:10;}
	.st2{fill:#ffffff00;stroke:#12386C;stroke-miterlimit:10;}
</style>
<g>
	<path class="st0" d="M242.9,111.1v-74c0-19.3-15.8-35-35-35H40c-19.3,0-35,15.8-35,35v29c-0.1,0-0.1,0-0.2,0
		c-1.3,0-2.4,1.1-2.4,2.4V83c0,1.3,1.1,2.4,2.4,2.4c0.1,0,0.1,0,0.2,0v15.7c-0.1,0-0.1,0-0.2,0c-1.3,0-2.4,1.1-2.4,2.4v31
		c0,1.3,1.1,2.4,2.4,2.4c0.1,0,0.1,0,0.2,0v9c-0.1,0-0.1,0-0.2,0c-1.3,0-2.4,1.1-2.4,2.4v30.9c0,1.3,1.1,2.4,2.4,2.4
		c0.1,0,0.1,0,0.2,0v269.5c0,19.3,15.8,35,35,35h167.9c19.3,0,35-15.8,35-35V170.7c1.3,0,2.4-1.1,2.4-2.4v-54.7
		C245.4,112.2,244.3,111.1,242.9,111.1z M239.9,451.2c0,17.7-14.4,32-32,32H40c-17.7,0-32-14.4-32-32V37.1c0-17.7,14.4-32,32-32
		h167.9c17.7,0,32,14.4,32,32V451.2z"/>
	<path class="st0" d="M207.9,5.1H40c-17.6,0-32,14.3-32,32v414.1c0,17.6,14.3,32,32,32h167.9c17.6,0,32-14.3,32-32V37.1
		C239.9,19.5,225.6,5.1,207.9,5.1z M232.9,451.2c0,13.8-11.2,25-25,25H40c-13.8,0-25-11.2-25-25V37.1c0-13.8,11.2-25,25-25h19.7
		c2.7,0,4.9,2.2,4.9,4.9c0,6.6,5.4,12,12,12h92.9c6.6,0,12-5.4,12-12c0-2.7,2.2-4.9,4.9-4.9h21.5c13.8,0,25,11.2,25,25V451.2z"/>
	<path class="st2" d="M207.9,12.1h-21.5c-2.7,0-4.9,2.2-4.9,4.9c0,6.6-5.4,12-12,12H76.6c-6.6,0-12-5.4-12-12c0-2.7-2.2-4.9-4.9-4.9
		H40c-13.8,0-25,11.2-25,25v414.1c0,13.8,11.2,25,25,25h167.9c13.8,0,25-11.2,25-25V37.1C232.9,23.3,221.7,12.1,207.9,12.1z"/>
</g>
<path class="st1" d="M112.8,23.2h21.8c1.3,0,2.4-1.1,2.4-2.4s-1.1-2.4-2.4-2.4h-21.8c-1.3,0-2.4,1.1-2.4,2.4S111.5,23.2,112.8,23.2z
	"/>
<path class="st1" d="M148.6,23.7c1.4,0,2.6-1.2,2.7-2.7c0-1.5-1.2-2.7-2.7-2.7s-2.7,1.2-2.7,2.7S147.1,23.7,148.6,23.7z"/>
</svg>
