<svg xmlns="http://www.w3.org/2000/svg" xmlns:xlink="http://www.w3.org/1999/xlink" width="371" height="157" viewBox="0 0 371 157">
    <defs>
        <radialGradient id="63o0bk90fj" cx="100%" cy="100%" r="145.409%" fx="100%" fy="100%" gradientTransform="scale(1 .92075) rotate(48.323 .904 1.043)">
            <stop offset="0%" stop-color="#FEF2D8"/>
            <stop offset="100%" stop-color="#D9B058"/>
        </radialGradient>
        <radialGradient id="r1sgkdy00k" cx="100%" cy="21.178%" r="162.307%" fx="100%" fy="21.178%" gradientTransform="scale(.7563 1) rotate(38.033 1.161 .68)">
            <stop offset="0%" stop-color="#FEF2D8"/>
            <stop offset="100%" stop-color="#D9B058"/>
        </radialGradient>
        <radialGradient id="18cl06lt5l" cx="50%" cy="6.493%" r="173.909%" fx="50%" fy="6.493%" gradientTransform="scale(1 .69178) rotate(56.223 .473 .08)">
            <stop offset="0%" stop-color="#FEF2D8"/>
            <stop offset="100%" stop-color="#D9B058"/>
        </radialGradient>
        <radialGradient id="3z9xe9ws4m" cx="0%" cy="30.453%" r="168.813%" fx="0%" fy="30.453%" gradientTransform="scale(.71089 1) rotate(36.325 0 .305)">
            <stop offset="0%" stop-color="#FEF2D8"/>
            <stop offset="100%" stop-color="#D9B058"/>
        </radialGradient>
        <radialGradient id="okok3zd7qn" cx="0%" cy="95.095%" r="157.962%" fx="0%" fy="95.095%" gradientTransform="scale(1 .80054) rotate(52.26 -.241 1.07)">
            <stop offset="0%" stop-color="#FEF2D8"/>
            <stop offset="100%" stop-color="#D9B058"/>
        </radialGradient>
        <radialGradient id="6xi5erq46o" cx="10.492%" cy="100%" r="162.869%" fx="10.492%" fy="100%" gradientTransform="matrix(.59364 .61399 -.80473 .45293 .847 .483)">
            <stop offset="0%" stop-color="#FEF2D8"/>
            <stop offset="100%" stop-color="#D9B058"/>
        </radialGradient>
        <radialGradient id="okfnfwndrp" cx="100%" cy="90.308%" r="142.264%" fx="100%" fy="90.308%" gradientTransform="matrix(.67963 .70292 -.67165 .71127 .927 -.442)">
            <stop offset="0%" stop-color="#FEF2D8"/>
            <stop offset="100%" stop-color="#D9B058"/>
        </radialGradient>
        <radialGradient id="cd9ltctlsq" cx="93.673%" cy="11.328%" r="158.405%" fx="93.673%" fy="11.328%" gradientTransform="matrix(.61037 .6313 -.49684 .77554 .421 -.566)">
            <stop offset="0%" stop-color="#FEF2D8"/>
            <stop offset="100%" stop-color="#D9B058"/>
        </radialGradient>
        <radialGradient id="japb5kxykr" cx="29.78%" cy="5.447%" r="171.722%" fx="29.78%" fy="5.447%" gradientTransform="scale(1 .70464) rotate(55.734 .276 .066)">
            <stop offset="0%" stop-color="#FEF2D8"/>
            <stop offset="100%" stop-color="#D9B058"/>
        </radialGradient>
        <radialGradient id="ris42q0n1s" cx="0%" cy="39.715%" r="171.403%" fx="0%" fy="39.715%" gradientTransform="scale(.69454 1) rotate(35.691 0 .397)">
            <stop offset="0%" stop-color="#FEF2D8"/>
            <stop offset="100%" stop-color="#D9B058"/>
        </radialGradient>
        <radialGradient id="pjbasbb55t" cx="90.675%" cy="88.098%" r="162.259%" fx="90.675%" fy="88.098%" gradientTransform="scale(.75665 1) rotate(38.046 1.053 1.304)">
            <stop offset="0%" stop-color="#F9F9F8"/>
            <stop offset="100%" stop-color="#FFBFBF"/>
        </radialGradient>
        <radialGradient id="f3v101mowu" cx="90.084%" cy="7.58%" r="146.384%" fx="90.084%" fy="7.58%" gradientTransform="matrix(.6605 .68313 -.61784 .7303 .353 -.595)">
            <stop offset="0%" stop-color="#F9F9F8"/>
            <stop offset="100%" stop-color="#FFBFBF"/>
        </radialGradient>
        <radialGradient id="xm227phoqv" cx="17.454%" cy="7.293%" r="177.631%" fx="17.454%" fy="7.293%" gradientTransform="matrix(.5443 .56296 -.83889 .36528 .14 -.052)">
            <stop offset="0%" stop-color="#F9F9F8"/>
            <stop offset="100%" stop-color="#FFBFBF"/>
        </radialGradient>
        <radialGradient id="nmdjuhx08w" cx="0%" cy="63.073%" r="186.562%" fx="0%" fy="63.073%" gradientTransform="matrix(.51825 .53601 -.32905 .8442 .208 .098)">
            <stop offset="0%" stop-color="#F9F9F8"/>
            <stop offset="100%" stop-color="#FFBFBF"/>
        </radialGradient>
        <radialGradient id="a1tgoxd8px" cx="27.121%" cy="100%" r="185.595%" fx="27.121%" fy="100%" gradientTransform="matrix(.52095 .5388 -.85359 .32884 .984 .525)">
            <stop offset="0%" stop-color="#F9F9F8"/>
            <stop offset="100%" stop-color="#FFBFBF"/>
        </radialGradient>
        <radialGradient id="li032pl1ty" cx="22.184%" cy="94.01%" r="179.333%" fx="22.184%" fy="94.01%" gradientTransform="scale(1 .66209) rotate(57.375 -.217 1.18)">
            <stop offset="0%" stop-color="#F9F9F8"/>
            <stop offset="100%" stop-color="#FFBFBF"/>
        </radialGradient>
        <radialGradient id="d1d16k8dez" cx="90.675%" cy="88.098%" r="149.099%" fx="90.675%" fy="88.098%" gradientTransform="matrix(.64847 .6707 -.58636 .74173 .835 -.38)">
            <stop offset="0%" stop-color="#F9F9F8"/>
            <stop offset="100%" stop-color="#FFBFBF"/>
        </radialGradient>
        <radialGradient id="aroozxxroA" cx="96.289%" cy="7.921%" r="159.768%" fx="96.289%" fy="7.921%" gradientTransform="scale(.77595 1) rotate(38.749 1.102 .475)">
            <stop offset="0%" stop-color="#F9F9F8"/>
            <stop offset="100%" stop-color="#FFBFBF"/>
        </radialGradient>
        <radialGradient id="pjn902a1fB" cx="26.149%" cy="5.574%" r="184.561%" fx="26.149%" fy="5.574%" gradientTransform="scale(1 .6361) rotate(58.408 .233 .072)">
            <stop offset="0%" stop-color="#F9F9F8"/>
            <stop offset="100%" stop-color="#FFBFBF"/>
        </radialGradient>
        <radialGradient id="jrhcooazlC" cx="0%" cy="45.816%" r="186.807%" fx="0%" fy="45.816%" gradientTransform="scale(.61276 1) rotate(32.365 0 .458)">
            <stop offset="0%" stop-color="#F9F9F8"/>
            <stop offset="100%" stop-color="#FFBFBF"/>
        </radialGradient>
        <radialGradient id="6tl2zj6haD" cx="100%" cy="24.711%" r="162.314%" fx="100%" fy="24.711%" gradientTransform="scale(.75624 1) rotate(38.031 1.161 .715)">
            <stop offset="0%" stop-color="#FEF2D8"/>
            <stop offset="100%" stop-color="#D9B058"/>
        </radialGradient>
        <radialGradient id="b3ngklcfsE" cx="43.736%" cy="4.283%" r="173.901%" fx="43.736%" fy="4.283%" gradientTransform="matrix(.55598 .57504 -.8312 .38464 .23 -.225)">
            <stop offset="0%" stop-color="#FEF2D8"/>
            <stop offset="100%" stop-color="#D9B058"/>
        </radialGradient>
        <radialGradient id="74458b6raF" cx="0%" cy="29.197%" r="168.818%" fx="0%" fy="29.197%" gradientTransform="matrix(.57272 .59235 -.42108 .80568 .123 .057)">
            <stop offset="0%" stop-color="#FEF2D8"/>
            <stop offset="100%" stop-color="#D9B058"/>
        </radialGradient>
        <radialGradient id="a26pv5f23G" cx="6.505%" cy="95.421%" r="157.969%" fx="6.505%" fy="95.421%" gradientTransform="matrix(.61206 .63304 -.79081 .48994 .78 .446)">
            <stop offset="0%" stop-color="#FEF2D8"/>
            <stop offset="100%" stop-color="#D9B058"/>
        </radialGradient>
        <radialGradient id="exxd88vhrI" cx="81.871%" cy="100%" r="165.586%" fx="81.871%" fy="100%" gradientTransform="scale(1 .7439) rotate(54.274 .483 1.172)">
            <stop offset="0%" stop-color="#FEF2D8"/>
            <stop offset="100%" stop-color="#D9B058"/>
        </radialGradient>
        <radialGradient id="r4veya522J" cx="100%" cy="42.474%" r="172.172%" fx="100%" fy="42.474%" gradientTransform="matrix(.56157 .58081 -.40068 .81404 .609 -.502)">
            <stop offset="0%" stop-color="#FEF2D8"/>
            <stop offset="100%" stop-color="#D9B058"/>
        </radialGradient>
        <radialGradient id="5whpphwkkK" cx="72.18%" cy="0%" r="169.311%" fx="72.18%" fy="0%" gradientTransform="scale(1 .71948) rotate(55.176 .722 0)">
            <stop offset="0%" stop-color="#FEF2D8"/>
            <stop offset="100%" stop-color="#D9B058"/>
        </radialGradient>
        <radialGradient id="x7p2sctksL" cx="0%" cy="0%" r="154.661%" fx="0%" fy="0%" gradientTransform="scale(.81949 1) rotate(40.284)">
            <stop offset="0%" stop-color="#FEF2D8"/>
            <stop offset="100%" stop-color="#D9B058"/>
        </radialGradient>
        <radialGradient id="1a7nb5ya1M" cx="0%" cy="100%" r="148.55%" fx="0%" fy="100%" gradientTransform="matrix(.65087 .67318 -.5925 .73948 .593 .26)">
            <stop offset="0%" stop-color="#FEF2D8"/>
            <stop offset="100%" stop-color="#D9B058"/>
        </radialGradient>
        <radialGradient id="pwnnkb4q9N" cx="100%" cy="76.522%" r="162.149%" fx="100%" fy="76.522%" gradientTransform="matrix(.59628 .61672 -.46715 .78719 .761 -.454)">
            <stop offset="0%" stop-color="#FEF2D8"/>
            <stop offset="100%" stop-color="#D9B058"/>
        </radialGradient>
        <radialGradient id="qvfabmlw9O" cx="100%" cy="0%" r="144.769%" fx="100%" fy="0%" gradientTransform="scale(1 .92808) rotate(48.098 1 0)">
            <stop offset="0%" stop-color="#FEF2D8"/>
            <stop offset="100%" stop-color="#D9B058"/>
        </radialGradient>
        <radialGradient id="nb66kgndrP" cx="10.209%" cy="0%" r="158.369%" fx="10.209%" fy="0%" gradientTransform="matrix(.61051 .63144 -.792 .48673 .04 -.064)">
            <stop offset="0%" stop-color="#FEF2D8"/>
            <stop offset="100%" stop-color="#D9B058"/>
        </radialGradient>
        <radialGradient id="6kg125e65Q" cx="0%" cy="69.464%" r="169.079%" fx="0%" fy="69.464%" gradientTransform="scale(.70917 1) rotate(36.259 0 .695)">
            <stop offset="0%" stop-color="#FEF2D8"/>
            <stop offset="100%" stop-color="#D9B058"/>
        </radialGradient>
        <radialGradient id="vg3joq7mlR" cx="42.839%" cy="100%" r="173.801%" fx="42.839%" fy="100%" gradientTransform="scale(1 .6924) rotate(56.2 .012 1.222)">
            <stop offset="0%" stop-color="#FEF2D8"/>
            <stop offset="100%" stop-color="#D9B058"/>
        </radialGradient>
        <radialGradient id="0pblekjxlS" cx="4.569%" cy="92.226%" r="155.121%" fx="4.569%" fy="92.226%" gradientTransform="scale(.81533 1) rotate(40.14 .05 .936)">
            <stop offset="0%" stop-color="#F9F9F8"/>
            <stop offset="100%" stop-color="#FFBFBF"/>
        </radialGradient>
        <radialGradient id="cfori0ienT" cx="75.94%" cy="94.806%" r="182.331%" fx="75.94%" fy="94.806%" gradientTransform="scale(1 .6469) rotate(57.976 .292 1.207)">
            <stop offset="0%" stop-color="#F9F9F8"/>
            <stop offset="100%" stop-color="#FFBFBF"/>
        </radialGradient>
        <radialGradient id="kf0zrqeqfU" cx="95.823%" cy="50%" r="186.986%" fx="95.823%" fy="50%" gradientTransform="matrix(.51708 .5348 -.32726 .84498 .626 -.435)">
            <stop offset="0%" stop-color="#F9F9F8"/>
            <stop offset="100%" stop-color="#FFBFBF"/>
        </radialGradient>
        <radialGradient id="pnrtlr7sgV" cx="77.862%" cy="5.049%" r="182.064%" fx="77.862%" fy="5.049%" gradientTransform="scale(1 .64821) rotate(57.923 .754 .064)">
            <stop offset="0%" stop-color="#F9F9F8"/>
            <stop offset="100%" stop-color="#FFBFBF"/>
        </radialGradient>
        <radialGradient id="7gvvuoesfW" cx="3.314%" cy="0%" r="154.503%" fx="3.314%" fy="0%" gradientTransform="matrix(.62579 .64724 -.53133 .76229 .012 -.021)">
            <stop offset="0%" stop-color="#F9F9F8"/>
            <stop offset="100%" stop-color="#FFBFBF"/>
        </radialGradient>
        <radialGradient id="acg8s4aojX" cx="5.22%" cy="91.077%" r="155.121%" fx="5.22%" fy="91.077%" gradientTransform="scale(.81533 1) rotate(40.14 .058 .927)">
            <stop offset="0%" stop-color="#F9F9F8"/>
            <stop offset="100%" stop-color="#FFBFBF"/>
        </radialGradient>
        <radialGradient id="4xa8m6r1fY" cx="81.914%" cy="94.225%" r="182.338%" fx="81.914%" fy="94.225%" gradientTransform="scale(1 .64686) rotate(57.977 .355 1.2)">
            <stop offset="0%" stop-color="#F9F9F8"/>
            <stop offset="100%" stop-color="#FFBFBF"/>
        </radialGradient>
        <radialGradient id="slsnlwqpxZ" cx="93.25%" cy="50%" r="186.979%" fx="93.25%" fy="50%" gradientTransform="scale(.61197 1) rotate(32.332 1.228 1.52)">
            <stop offset="0%" stop-color="#F9F9F8"/>
            <stop offset="100%" stop-color="#FFBFBF"/>
        </radialGradient>
        <radialGradient id="zqnacfzwqaa" cx="3.314%" cy="0%" r="154.487%" fx="3.314%" fy="0%" gradientTransform="matrix(.62585 .6473 -.53149 .76223 .012 -.021)">
            <stop offset="0%" stop-color="#F9F9F8"/>
            <stop offset="100%" stop-color="#FFBFBF"/>
        </radialGradient>
        <radialGradient id="s9jtrv4y5ab" cx="84.098%" cy="0%" r="182.061%" fx="84.098%" fy="0%" gradientTransform="scale(1 .64823) rotate(57.923 .841 0)">
            <stop offset="0%" stop-color="#F9F9F8"/>
            <stop offset="100%" stop-color="#FFBFBF"/>
        </radialGradient>
        <radialGradient id="alpt9a3iaac" cx="50%" cy="93.835%" r="189.863%" fx="50%" fy="93.835%" gradientTransform="matrix(.50924 .5267 -.86062 .31165 1.053 .383)">
            <stop offset="0%" stop-color="#F9F9F8"/>
            <stop offset="100%" stop-color="#FFBFBF"/>
        </radialGradient>
        <radialGradient id="7aqf6lv3nad" cx="100%" cy="72.893%" r="179.622%" fx="100%" fy="72.893%" gradientTransform="matrix(.53827 .55672 -.36074 .8307 .725 -.433)">
            <stop offset="0%" stop-color="#F9F9F8"/>
            <stop offset="100%" stop-color="#FFBFBF"/>
        </radialGradient>
        <radialGradient id="gjdbh9c0eae" cx="90.808%" cy="0%" r="155.63%" fx="90.808%" fy="0%" gradientTransform="scale(1 .81999) rotate(51.592 .908 0)">
            <stop offset="0%" stop-color="#F9F9F8"/>
            <stop offset="100%" stop-color="#FFBFBF"/>
        </radialGradient>
        <radialGradient id="lx8x8lxntaf" cx="3.314%" cy="0%" r="156.064%" fx="3.314%" fy="0%" gradientTransform="matrix(.61953 .64076 -.78498 .50571 .013 -.021)">
            <stop offset="0%" stop-color="#F9F9F8"/>
            <stop offset="100%" stop-color="#FFBFBF"/>
        </radialGradient>
        <radialGradient id="6qowi0t1wag" cx="0%" cy="72.092%" r="179.778%" fx="0%" fy="72.092%" gradientTransform="scale(.64716 1) rotate(33.796 0 .72)">
            <stop offset="0%" stop-color="#F9F9F8"/>
            <stop offset="100%" stop-color="#FFBFBF"/>
        </radialGradient>
        <filter id="oc9564wlca" width="109.3%" height="120.8%" x="-4.6%" y="-7.6%" filterUnits="objectBoundingBox">
            <feMorphology in="SourceAlpha" operator="dilate" radius=".5" result="shadowSpreadOuter1"/>
            <feOffset dy="2" in="shadowSpreadOuter1" result="shadowOffsetOuter1"/>
            <feGaussianBlur in="shadowOffsetOuter1" result="shadowBlurOuter1" stdDeviation="2"/>
            <feComposite in="shadowBlurOuter1" in2="SourceAlpha" operator="out" result="shadowBlurOuter1"/>
            <feColorMatrix in="shadowBlurOuter1" values="0 0 0 0 0 0 0 0 0 0 0 0 0 0 0 0 0 0 0.5 0"/>
        </filter>
        <filter id="5ysgf7svac" width="110.1%" height="119%" x="-5.1%" y="-7%" filterUnits="objectBoundingBox">
            <feMorphology in="SourceAlpha" operator="dilate" radius=".5" result="shadowSpreadOuter1"/>
            <feOffset dy="2" in="shadowSpreadOuter1" result="shadowOffsetOuter1"/>
            <feGaussianBlur in="shadowOffsetOuter1" result="shadowBlurOuter1" stdDeviation="2"/>
            <feComposite in="shadowBlurOuter1" in2="SourceAlpha" operator="out" result="shadowBlurOuter1"/>
            <feColorMatrix in="shadowBlurOuter1" values="0 0 0 0 0 0 0 0 0 0 0 0 0 0 0 0 0 0 0.5 0"/>
        </filter>
        <filter id="n7039md9pe" width="105.4%" height="111.1%" x="-2.7%" y="-4%" filterUnits="objectBoundingBox">
            <feMorphology in="SourceAlpha" operator="dilate" radius=".5" result="shadowSpreadOuter1"/>
            <feOffset dy="2" in="shadowSpreadOuter1" result="shadowOffsetOuter1"/>
            <feGaussianBlur in="shadowOffsetOuter1" result="shadowBlurOuter1" stdDeviation="2"/>
            <feComposite in="shadowBlurOuter1" in2="SourceAlpha" operator="out" result="shadowBlurOuter1"/>
            <feColorMatrix in="shadowBlurOuter1" values="0 0 0 0 0 0 0 0 0 0 0 0 0 0 0 0 0 0 0.5 0"/>
        </filter>
        <filter id="c0ztyax6ei" width="121%" height="123.4%" x="-10.9%" y="-12.1%" filterUnits="objectBoundingBox">
            <feOffset dy="2" in="SourceAlpha" result="shadowOffsetOuter1"/>
            <feGaussianBlur in="shadowOffsetOuter1" result="shadowBlurOuter1" stdDeviation="2"/>
            <feColorMatrix in="shadowBlurOuter1" result="shadowMatrixOuter1" values="0 0 0 0 0 0 0 0 0 0 0 0 0 0 0 0 0 0 0.5 0"/>
            <feMerge>
                <feMergeNode in="shadowMatrixOuter1"/>
                <feMergeNode in="SourceGraphic"/>
            </feMerge>
        </filter>
        <filter id="js3tatizgH" width="120.8%" height="122.2%" x="-10.8%" y="-11.1%" filterUnits="objectBoundingBox">
            <feOffset dy="2" in="SourceAlpha" result="shadowOffsetOuter1"/>
            <feGaussianBlur in="shadowOffsetOuter1" result="shadowBlurOuter1" stdDeviation="2"/>
            <feColorMatrix in="shadowBlurOuter1" result="shadowMatrixOuter1" values="0 0 0 0 0 0 0 0 0 0 0 0 0 0 0 0 0 0 0.5 0"/>
            <feMerge>
                <feMergeNode in="shadowMatrixOuter1"/>
                <feMergeNode in="SourceGraphic"/>
            </feMerge>
        </filter>
        <path id="sz6fxrviib" d="M161.19 105.251c-24.672-.114-47.84-2.747-66.146-5.735-.248-.083-.486-.19-.727-.289-.156-.344-.479-.582-.83-.666-.709-.987-1.365-3.14-1.824-3.85-1.13-1.75-2.129-3.227-2.896-5.182-1.04-2.656-.661-5.209-1.227-7.913-.366-1.753-1.212-3.613-1.786-5.275-.744-2.15-1.867-4.34-1.978-6.652-.096-2.005.235-4.041.159-6.064-.142-3.757-1.189-7.307-1.574-11.008-.106-1.016-1.646-.684-1.556.318.433 4.85 1.653 9.403 1.385 14.36-.22 4.065.979 7.15 2.298 10.993 1.729 5.037 1.344 9.957 3.793 14.828.711 1.414 1.677 2.672 2.382 4.076-1.532-1.028-3.03-2.145-4.635-3.023-3.552-1.944-7.285-4.16-10.449-6.71-3.464-2.792-5.3-7.07-8.172-10.392-2.816-3.257-6.874-4.888-9.304-8.662-.516-.802-1.861-.173-1.355.672 2.492 4.161 6.61 6.126 9.544 9.788 1.08 1.349 2.033 2.82 3.006 4.277-6.151-2.058-13.575-2.448-18.386-6.73-.915-.812-2.377.438-1.453 1.268 5.91 5.305 14.76 5.09 21.709 8.447.118.056.23.083.337.095.861 1.085 1.792 2.107 2.891 2.979 3.95 3.131 8.5 5.316 12.674 8.076.598.396 1.162.788 1.715 1.173-19.024-3.381-31.548-6.885-32.947-7.545-2.642-1.243-5.12-2.783-7.913-3.692-1.28-.418-2.569-.8-3.85-1.2-3.613-3.017-4.445-8.206-4.977-12.587-.264-2.18-.751-4.303-.933-6.498-.269-3.257.248-6.22.469-9.442.071-1.032-1.54-1.141-1.605-.109-.173 2.718-.334 5.565-.345 8.433-.096-.195-.191-.38-.279-.484-.529-.631-1.229-1.059-1.73-1.722-.963-1.272-1.791-2.539-3.048-3.548-.606-.487-1.5.505-.91 1.027 1.33 1.176 1.99 2.74 3.091 4.085.493.601 1.09 1.021 1.516 1.68.307.473.514.978 1.037 1.254.123.065.239.093.352.11.178 5.965 1.191 11.887 4.341 16.777-.562-.209-1.123-.418-1.676-.658-2.973-1.284-5.832-2.797-8.765-4.163-1.397-.65-2.947-1.241-4.147-2.22-.37-.3-.681-.646-.973-1.009-.098-.446-.256-.834-.506-1.272-.684-1.198-1.1-2.23-1.458-3.554-.673-2.478-1.17-4.874-1.075-7.447.028-.753-1.1-.946-1.19-.164-.26 2.254-.366 4.498.24 6.745.178.66.322 1.367.508 2.055-1.547-1.157-3.242-2.153-4.675-3.451-2.131-1.93-3.78-4.186-5.522-6.443-1.45-1.878-3.16-3.503-4.988-5.024l-.007-.006-.046-.039-.003.005c-.025-.018-.049-.038-.079-.055l-.083-.049c-.76-.434-1.263.7-.736 1.221 1.633 1.617 3.074 3.396 4.505 5.183-.481-.182-.968-.346-1.462-.479-2.373-.639-5.375-.086-7.48-1.406-.932-.584-2.012.767-1.076 1.338 2.07 1.263 4.175 1.012 6.52 1.34 1.5.207 2.944.667 4.319 1.299.622.285 1.084.695 1.683.988 1.043 1.233 2.132 2.427 3.331 3.525 2.187 2.003 5.098 3.38 6.897 5.76 1.715 2.27 3.396 3.468 5.966 4.745 1.85.92 3.693 1.862 5.551 2.773-1.182-.348-2.397-.76-3.599-.868-1.166-.102-2.294.191-3.424.427-1.084.227-2.174.329-3.265.4-.016-.007-.03-.016-.046-.022-.61-.208-1.225-.407-1.833-.622-1.22-.43-1.965-1.173-2.986-1.912-.72-.52-1.548-.754-2.308-1.183-1.076-.608-2.004-1.559-2.93-2.374-1.217-1.072-2.483-2.215-4.022-2.82-1.05-.412-2.06-.481-3.037-1.127-.672-.444-1.326-.896-2.025-1.3-.86-.5-1.45.914-.61 1.413 1.64.974 2.832 1.788 4.657 2.393 1.904.632 3.529 2.16 4.973 3.515.682.641 1.17 1.247 2.001 1.71 1.017.567 2.021.966 2.954 1.687.472.366.937.656 1.41.904-.23.026-.46.05-.69.082-2.35.329-4.898.434-6.824 1.969-.725.576.124 1.73.854 1.157 1.875-1.47 4.912-1.516 7.252-1.632 2.326-.116 4.698.035 7.01-.256 2.747-.345 4.988.398 7.639 1.039 1.739.422 3.4.201 5.116.165 1.913.687 3.857 1.27 5.804 1.904 2.514.818 4.766 2.115 7.101 3.3-.39-.03-.778-.055-1.166-.073-1.22-.054-2.378-.113-3.551.293-1.363.47-2.615 1.336-3.919 1.946-1.372.642-2.796 1.188-4.156 1.846-1.299.626-2.322 1.68-3.677 2.231-1.303.53-2.676.96-4.003 1.417-1.259.435-2.29 1.148-3.43 1.823-.604.358-.04 1.332.593 1.062 1.334-.568 2.51-1.125 3.913-1.504 1.165-.315 2.449-.732 3.572-1.179 1.014-.404 1.94-.997 2.833-1.605 1.24-.843 2.69-1.35 4.05-1.978 1.298-.597 2.536-1.273 3.816-1.9 1.452-.712 2.713-.67 4.276-.62 2.213.07 4.77.533 6.986 1.1.593.267 15.176 3.443 35.192 6.484.528.145 1.078.27 1.672.354.178.025.335.012.472-.031 1.96.291 3.977.578 6.024.862-1.891.647-3.738 1.523-5.484 2.3-5.893 2.62-12.081 2.396-18.4 3.314-3.208.465-6.227 1.347-9.346 2.193-.278.074-.56.14-.842.207-.213-.424-.644-.724-1.242-.592-2.288.506-6.754-.777-8.951-1.433-1.344-.403-3.145-.903-4.332-1.605-1.223-.722-2.217-1.86-3.465-2.603-1.045-.623-2.112.938-1.064 1.566 1.55.932 2.782 2.317 4.382 3.134 1.434.73 3.338 1.333 4.891 1.76 1.166.323 2.449.735 3.758 1.068-.423.123-.841.257-1.248.415-5.052 1.953-9.097 5.795-12.695 9.708-.747.813.382 2.125 1.144 1.304 4.156-4.467 8.706-8.5 14.781-9.972 5.348-1.295 10.742-2.878 16.218-3.534 4.722-.566 9.833-.324 14.397-1.814 4.047-1.325 8.95-4.934 13.327-4.308.326.047.576-.055.75-.233 16.056 2.046 33.924 3.648 50.34 3.633 1.585-.002 2.566-2.253.974-2.26"/>
        <path id="2w1bv13q5d" d="M205.24 110.787c18.792-14.189 37.907-25.598 53.538-33.923.236-.08.48-.137.719-.201.32.17.703.164 1.019.025 1.11.338 2.86 1.59 3.622 1.865 1.876.676 3.492 1.217 5.211 2.258 2.334 1.413 3.531 3.569 5.532 5.294 1.298 1.117 3.022 2.04 4.425 2.968 1.813 1.202 3.94 2.214 5.369 3.905 1.237 1.464 2.17 3.2 3.404 4.692 2.292 2.77 5.151 4.857 7.595 7.443.672.71 1.647-.433.996-1.142-3.149-3.43-6.722-6.18-9.4-10.095-2.199-3.213-4.902-4.86-8.136-7.013-4.242-2.821-6.81-6.777-11.502-9.056-1.362-.661-2.827-1.057-4.177-1.715 1.76-.107 3.546-.126 5.276-.388 3.826-.58 7.948-1.058 11.832-.956 4.251.115 8.132 2.298 12.244 3.157 4.03.843 8.06-.267 12.099 1.19.858.309 1.512-.945.637-1.294-4.312-1.716-8.578-.824-12.935-1.905-1.604-.399-3.182-.963-4.769-1.507 5.865-1.997 11.726-5.997 17.869-5.533 1.166.088 1.548-1.707.364-1.8-7.57-.608-14.162 4.677-21.387 6.152-.123.025-.223.07-.311.123-1.285-.328-2.586-.563-3.927-.588-4.82-.09-9.543.883-14.314 1.205-.686.047-1.341.075-1.985.102 16.405-8.443 27.948-13.03 29.392-13.34 2.728-.585 5.506-.85 8.153-1.776 1.216-.425 2.415-.88 3.62-1.318 4.495.197 8.146 3.654 11.096 6.67 1.469 1.501 3.073 2.831 4.487 4.392 2.098 2.316 3.428 4.863 5.135 7.438.546.822 1.831-.026 1.28-.848-1.447-2.162-2.98-4.415-4.64-6.598.186.092.365.176.492.206.768.172 1.55.092 2.316.305 1.469.408 2.834.89 4.375.928.743.019.845-1.252.094-1.305-1.693-.124-3.103-.927-4.722-1.312-.723-.171-1.421-.144-2.127-.396-.508-.183-.959-.446-1.516-.352-.131.021-.236.066-.331.12-3.605-4.424-7.817-8.33-13.05-10.22.547-.167 1.095-.332 1.654-.47 3.002-.747 6.054-1.251 9.074-1.912 1.437-.317 2.956-.764 4.436-.717.456.014.894.096 1.327.204.333.281.68.484 1.123.671 1.216.513 2.132 1.057 3.173 1.853 1.952 1.492 3.723 3.022 5.146 5.03.417.588 1.385.082.998-.564-1.113-1.86-2.337-3.625-4.103-4.98-.52-.398-1.04-.85-1.581-1.264 1.847-.019 3.713-.242 5.554-.087 2.74.23 5.304.99 7.938 1.693 2.194.587 4.436.83 6.707.926h.009l.057.004-.001-.005c.032-.001.06 0 .093-.004l.092-.012c.83-.11.55-1.262-.151-1.352-2.18-.282-4.308-.798-6.433-1.327.47-.14.935-.297 1.389-.482 2.171-.888 4.128-3.044 6.494-3.262 1.047-.096 1.08-1.746.038-1.637-2.307.24-3.758 1.647-5.728 2.758-1.258.71-2.623 1.195-4.033 1.512-.639.142-1.228.1-1.852.223-1.509-.332-3.03-.606-4.578-.747-2.824-.255-5.834.386-8.583-.38-2.623-.73-4.595-.667-7.287-.148-1.94.374-3.886.725-5.826 1.108 1.1-.42 2.262-.81 3.235-1.423.946-.598 1.632-1.472 2.352-2.307.691-.799 1.459-1.506 2.245-2.191.017-.005.032-.005.047-.011.585-.195 1.167-.4 1.753-.59 1.176-.38 2.173-.246 3.379-.276.85-.02 1.612-.323 2.439-.438 1.17-.161 2.427.023 3.603.107 1.549.109 3.174.244 4.694-.188 1.035-.296 1.844-.828 2.96-.902.768-.052 1.528-.088 2.293-.184.943-.121.568-1.534-.358-1.426-1.813.21-3.19.281-4.926.878-1.813.623-3.935.402-5.82.21-.89-.091-1.613-.268-2.512-.139-1.102.158-2.096.436-3.223.429-.572-.004-1.093.045-1.595.13.16-.153.32-.304.474-.46 1.593-1.612 3.466-3.165 4.036-5.445.214-.856-1.1-1.24-1.323-.382-.566 2.2-2.845 3.992-4.553 5.433-1.698 1.435-3.585 2.691-5.173 4.252-1.883 1.85-4.016 2.585-6.401 3.63-1.565.687-2.698 1.817-3.979 2.837-1.851.585-3.666 1.268-5.512 1.913-2.383.834-4.846 1.153-7.308 1.606.313-.203.623-.409.928-.62.957-.665 1.87-1.29 2.525-2.277.76-1.146 1.207-2.528 1.842-3.745.668-1.28 1.431-2.518 2.082-3.805.62-1.227.785-2.618 1.493-3.821.68-1.156 1.472-2.276 2.214-3.392.702-1.058 1.07-2.197 1.542-3.368.251-.62-.745-1.034-1.067-.463-.682 1.204-1.251 2.306-2.095 3.406-.701.913-1.433 1.971-2.026 2.961-.535.894-.893 1.879-1.217 2.858-.451 1.356-1.255 2.58-1.924 3.843-.637 1.206-1.184 2.435-1.79 3.652-.689 1.38-1.67 2.078-2.885 2.944-1.721 1.228-3.93 2.356-5.943 3.208-.604.141-13.52 6.17-30.48 15.443-.485.197-.974.419-1.474.7-.15.084-.26.186-.34.296-1.656.914-3.355 1.864-5.074 2.832 1.06-1.585 1.953-3.32 2.825-4.918 2.95-5.398 7.776-8.81 12.039-13.163 2.164-2.21 3.942-4.624 5.818-7.071.167-.218.342-.432.518-.645.408.198.91.176 1.287-.27 1.442-1.707 5.577-3.317 7.627-4.092 1.254-.471 2.912-1.134 4.22-1.289 1.35-.16 2.764.128 4.144-.03 1.155-.132 1.057-1.933-.103-1.805-1.716.19-3.459-.147-5.148.16-1.514.275-3.309.92-4.736 1.493-1.073.43-2.285.859-3.473 1.365.249-.338.489-.681.707-1.036 2.697-4.407 3.533-9.664 3.988-14.714.095-1.049-1.523-1.392-1.626-.328-.556 5.795-1.665 11.488-5.42 16.12-3.304 4.079-6.478 8.401-10.252 12.067-3.255 3.161-7.276 5.935-9.872 9.709-2.302 3.345-3.925 8.923-7.61 10.979-.275.153-.405.376-.434.612-13.375 7.738-27.869 16.862-40.317 26.372-1.204.92-.639 3.195.573 2.28"/>
        <path id="xxmaxd9tff" d="M64.072 136L30 23.18c91.725-30.907 188.275-30.907 280 0L275.928 136c-69.684-23.255-142.172-23.255-211.856 0z"/>
        <linearGradient id="4mrx2liqcg" x1="3.314%" x2="100%" y1="40.669%" y2="59.331%">
            <stop offset="0%" stop-color="#F7ECA8"/>
            <stop offset="50.754%" stop-color="#BF9437" stop-opacity=".7"/>
            <stop offset="100%" stop-color="#E7CC7E"/>
        </linearGradient>
        <linearGradient id="d57s0u928h" x1="3.314%" x2="100%" y1="39.572%" y2="60.428%">
            <stop offset="0%" stop-color="#F7ECA8"/>
            <stop offset="50.754%" stop-color="#BF9437" stop-opacity=".7"/>
            <stop offset="100%" stop-color="#E7CC7E"/>
        </linearGradient>
    </defs>
    <g fill="none" fill-rule="evenodd">
        <g>
            <g>
                <g transform="translate(-10 -309) translate(18 312)">
                    <use fill="#000" filter="url(#oc9564wlca)" xlink:href="#sz6fxrviib"/>
                    <use fill="#8B572A" stroke="#000" xlink:href="#sz6fxrviib"/>
                </g>
                <g stroke-linecap="round" stroke-linejoin="round" transform="translate(-10 -309) translate(18 312) rotate(10 278 71.5)">
                    <use fill="#000" filter="url(#5ysgf7svac)" xlink:href="#2w1bv13q5d"/>
                    <use fill="#8B572A" stroke="#000" xlink:href="#2w1bv13q5d"/>
                </g>
                <g stroke-linejoin="round" transform="translate(-10 -309) translate(18 312)">
                    <use fill="#000" filter="url(#n7039md9pe)" xlink:href="#xxmaxd9tff"/>
                    <use fill="#1C509B" stroke="#000" xlink:href="#xxmaxd9tff"/>
                </g>
                <path stroke="url(#4mrx2liqcg)" stroke-linejoin="round" stroke-width="2" d="M45 30.977C85.898 18.382 127.919 12 170 12s84.102 6.382 125 18.977L268.204 120c-32.255-9.636-65.264-14.519-98.204-14.519S104.052 110.364 71.796 120L45 30.977z" transform="translate(-10 -309) translate(18 312)"/>
                <path stroke="url(#d57s0u928h)" stroke-linejoin="round" stroke-width="2" d="M284.912 26.83c0-1.735.224-3.413.635-5.008C247.619 11.316 208.844 6 169.972 6c-38.684 0-77.27 5.267-115.024 15.671.437 1.64.675 3.37.675 5.159 0 8.54-5.321 15.753-12.623 18.089l19.484 64.078c1.746-.613 3.61-.95 5.55-.95 8.187 0 15.075 5.916 17.112 13.953 27.967-7.226 56.402-10.89 84.826-10.89 28.424 0 56.86 3.664 84.826 10.89 2.037-8.037 8.926-13.952 17.113-13.952 1.94 0 3.804.336 5.55.949L297 44.735c-7.025-2.51-12.088-9.576-12.088-17.905z" transform="translate(-10 -309) translate(18 312)"/>
                <g stroke="#000" stroke-linecap="round" stroke-linejoin="round" filter="url(#c0ztyax6ei)" transform="translate(-10 -309) translate(18 312) translate(2 37)">
                    <g>
                        <path fill="url(#63o0bk90fj)" d="M13.936 13.492s-.043-.164-.116-.43c0-1.341-.07-6.402-1.095-8.634C11.537 1.84 8.012.76 8.012.76s-.347.799-.569 1.915c-1.706-.594-3.335-.598-3.335-.598s-.238 1.617.1 3.395c-1.146.053-1.995.28-1.995.28s.546 3.646 2.927 5.206c2.081 1.362 7.183 2.188 8.432 2.375l.364.159" transform="translate(0 11)"/>
                        <path fill="url(#r1sgkdy00k)" d="M13.94 13.318s-.17-.01-.444-.021c-1.276-.416-6.111-1.914-8.552-1.628C2.118 11.999 0 15.017 0 15.017s.653.578 1.646 1.134c-1.092 1.438-1.6 2.986-1.6 2.986s1.465.727 3.261.956c-.304 1.105-.351 1.983-.351 1.983s3.637.607 5.855-1.175c1.94-1.56 4.302-6.155 4.865-7.286.165-.184.264-.297.264-.297" transform="translate(0 11)"/>
                        <path fill="url(#18cl06lt5l)" d="M19.403 20.482c-.883-2.326-4.524-5.993-5.426-6.878l-.201-.344s-.062.16-.158.416c-.79 1.086-3.707 5.22-4.19 7.63-.56 2.79 1.657 5.738 1.657 5.738s.75-.443 1.587-1.215c1.03 1.482 2.345 2.444 2.345 2.444s1.144-1.17 1.917-2.806c.956.63 1.777.947 1.777.947s1.702-3.272.692-5.932" transform="translate(0 11)"/>
                        <path fill="url(#3z9xe9ws4m)" d="M28.332 16.858s-.758-1.45-2.076-2.69c.895-.715 1.449-1.398 1.449-1.398s-2.585-2.63-5.427-2.491c-2.486.12-7.1 2.45-8.22 3.035l-.387.085s.132.108.346.278c.789 1.086 3.82 5.14 5.962 6.344 2.48 1.394 5.969.197 5.969.197s-.19-.851-.665-1.884c1.729-.523 3.049-1.476 3.049-1.476" transform="translate(0 11)"/>
                        <path fill="url(#okok3zd7qn)" d="M24.049 3.973s-.868-.083-1.998.051c.038-1.806-.461-3.357-.461-3.357s-1.612.274-3.2 1.143C17.987.739 17.509 0 17.509 0s-3.3 1.647-4.046 4.392c-.654 2.401.137 7.509.346 8.755l-.04.394s.144-.091.373-.242c1.276-.415 6.068-2.045 7.875-3.711 2.092-1.928 2.032-5.615 2.032-5.615" transform="translate(0 11)"/>
                    </g>
                    <g>
                        <path fill="url(#6xi5erq46o)" d="M30.53 4.317s-1.177.022-2.67.375C27.631 2.266 26.723.265 26.723.265s-2.118.614-4.112 2.025C21.906.916 21.152 0 21.152 0s-4.169 2.714-4.747 6.509c-.505 3.319 1.341 10.041 1.813 11.679.004.333.01.536.01.536s.176-.145.46-.383c1.646-.752 7.817-3.675 9.982-6.185 2.507-2.907 1.86-7.839 1.86-7.839" transform="translate(29)"/>
                        <path fill="url(#okfnfwndrp)" d="M18.442 18.631s-.082-.214-.221-.557c-.206-1.797-1.08-8.57-2.799-11.405-1.99-3.283-6.88-4.19-6.88-4.19S8.2 3.604 8.072 5.134c-2.377-.533-4.56-.288-4.56-.288s-.07 2.204.655 4.536c-1.526.247-2.63.681-2.63.681s1.294 4.803 4.724 6.526c3 1.506 9.965 1.827 11.668 1.885l.512.157" transform="translate(29)"/>
                        <path fill="url(#cd9ltctlsq)" d="M18.421 18.398s-.229.013-.598.039c-1.774-.359-8.485-1.622-11.712-.863C2.374 18.452 0 22.823 0 22.823s.964.673 2.38 1.265C1.139 26.184.697 28.336.697 28.336s2.075.749 4.516.78c-.237 1.527-.165 2.711-.165 2.711s4.968.254 7.667-2.477c2.359-2.387 4.817-8.911 5.397-10.514.193-.271.309-.438.309-.438" transform="translate(29)"/>
                        <path fill="url(#japb5kxykr)" d="M26.845 27.158c-1.542-2.981-6.987-7.336-8.332-8.383l-.32-.43s-.06.224-.149.583c-.89 1.576-4.164 7.568-4.44 10.872-.32 3.825 3.103 7.433 3.103 7.433s.94-.71 1.94-1.873c1.61 1.829 3.52 2.914 3.52 2.914s1.353-1.742 2.137-4.054c1.38.697 2.527.994 2.527.994s1.777-4.646.014-8.056" transform="translate(29)"/>
                        <path fill="url(#ris42q0n1s)" d="M38.254 20.925s-1.24-1.825-3.197-3.285c1.09-1.096 1.726-2.097 1.726-2.097s-3.869-3.125-7.657-2.502c-3.312.544-9.135 4.377-10.547 5.333l-.506.174s.192.124.506.32c1.224 1.333 5.91 6.3 8.968 7.582 3.54 1.487 8.03-.655 8.03-.655s-.386-1.11-1.182-2.423c2.235-.966 3.858-2.447 3.858-2.447" transform="translate(29)"/>
                    </g>
                    <g>
                        <path fill="url(#pjbasbb55t)" d="M22.585 25.529l.075-.01-.196-.193c-.648-1.767-3.924-10.423-7.055-13.475-3.493-3.406-9.908-2.854-9.908-2.854s-.043.772.04 1.913C2.524 10.902 0 11.698 0 11.698s.432 2.612 1.805 5.298c-1.054.442-1.724.83-1.724.83s2.412 5.97 7.03 7.543c4.138 1.41 13.338.414 15.208.192l.262.087-.026-.071.065.007-.035-.055" transform="translate(5 40)"/>
                        <path fill="url(#f3v101mowu)" d="M22.697 24.844l-.075.002.026-.06-.063.016c.01-.044.014-.074.014-.074l-.245.126c-1.882.07-11.125.512-14.994 2.546-4.319 2.27-5.777 8.54-5.777 8.54s.722.28 1.832.554c-.94 2.866-.963 5.514-.963 5.514s2.618.396 5.597-.08c.095 1.139.257 1.896.257 1.896s6.422-.45 9.346-4.354c2.62-3.5 4.516-12.561 4.881-14.406l.164-.22" transform="translate(5 40)"/>
                        <path fill="url(#xm227phoqv)" d="M34.319 33.802c-2.528-3.586-10.589-8.2-12.19-9.095l-.161-.224-.021.072-.049-.043-.004.065-.066-.036.045.272c-.515 1.81-2.951 10.739-2.212 15.047.824 4.809 6.337 8.133 6.337 8.133s.489-.6 1.092-1.57c2.436 1.779 4.947 2.618 4.947 2.618s1.185-2.366 1.654-5.347c1.112.262 1.882.342 1.882.342s1.557-6.247-1.254-10.234" transform="translate(5 40)"/>
                        <path fill="url(#nmdjuhx08w)" d="M43.293 19.853c.593-.977.906-1.684.906-1.684s-5.459-3.412-10.12-1.971c-4.19 1.297-11.068 7.536-12.416 8.784l-.263.083.062.043-.056.033.06.024-.054.052.273.04c1.524 1.025 9.285 6.124 13.627 6.755 4.828.702 9.693-3.514 9.693-3.514s-.42-.65-1.157-1.524c2.445-1.767 4.02-3.895 4.02-3.895s-1.885-1.86-4.575-3.226z" transform="translate(5 40)"/>
                        <path fill="url(#a1tgoxd8px)" d="M32.337 4.396s-.749.198-1.807.629C29.606 2.154 28.067 0 28.067 0s-2.35 1.217-4.48 3.353c-.747-.866-1.322-1.383-1.322-1.383s-4.932 4.138-5.002 9.017c-.062 4.37 3.728 12.812 4.517 14.522l-.002.276.06-.046.014.064s.028-.035.042-.05l.031.068.125-.247c1.446-1.135 8.692-6.94 10.634-10.873 2.16-4.374-.347-10.305-.347-10.305h0z" transform="translate(5 40)"/>
                    </g>
                    <g>
                        <path fill="url(#li032pl1ty)" d="M50.814 7.22s-1.13.146-2.755.575C47.255 3.433 45.419 0 45.419 0s-3.66 1.326-7.17 4.038c-.924-1.4-1.665-2.261-1.665-2.261s-7.974 5.101-8.998 12.202c-.918 6.362 3.012 19.39 3.84 22.032-.037.261-.055.402-.055.402l.095-.055.009.095.07-.065.034.104.227-.336c2.38-1.415 14-8.493 17.564-13.843 3.977-5.972 1.444-15.093 1.444-15.093" transform="translate(37 34)"/>
                        <path fill="url(#d1d16k8dez)" d="M32.595 36.192h.11s-.086-.113-.249-.32c-.61-2.7-3.752-15.941-7.739-20.983C20.267 9.26 10.81 8.852 10.81 8.852s-.209 1.117-.304 2.792c-4.398-.583-8.229.107-8.229.107s.13 3.89 1.625 8.068c-1.618.446-2.666.884-2.666.884s2.388 9.16 8.824 12.329c5.768 2.839 19.373 3.127 22.142 3.156l.365.177-.024-.108.094.022-.04-.087" transform="translate(37 34)"/>
                        <path fill="url(#aroozxxroA)" d="M32.779 35.202l.049-.083-.095.012.034-.105s-.134.048-.381.14c-2.757-.255-16.32-1.36-22.347.874C3.312 38.534 0 47.402 0 47.402s.997.544 2.561 1.153C.647 52.557.12 56.415.12 56.415s3.74 1.077 8.175.946c-.076 1.677.017 2.81.017 2.81s9.45.56 14.452-4.584c4.482-4.608 8.961-17.457 9.844-20.08.183-.19.281-.294.281-.294l-.11-.01z" transform="translate(37 34)"/>
                        <path fill="url(#pjn902a1fB)" d="M48.142 50.475c-2.998-5.686-13.835-13.917-16.058-15.567l-.19-.358s-.02.04-.045.102l-.064-.072s-.006.038-.018.093c-.052-.04-.088-.065-.088-.065l.013.405c-1.093 2.544-6.334 15.102-6.073 21.525.293 7.169 7.705 13.058 7.705 13.058s.826-.782 1.89-2.084c3.215 3.056 6.717 4.755 6.717 4.755s2.175-3.227 3.422-7.484c1.573.592 2.681.853 2.681.853s3.453-8.814.108-15.161" transform="translate(37 34)"/>
                        <path fill="url(#jrhcooazlC)" d="M69.927 37.401s-2.397-3.068-6.06-5.568c1.05-1.313 1.64-2.286 1.64-2.286s-7.316-6.008-14.386-4.788c-6.334 1.094-17.51 8.857-19.767 10.461-.26.046-.398.072-.398.072l.082.073-.088.037.084.047-.09.065.39.112c2.082 1.826 12.405 10.692 18.594 12.427 6.908 1.937 14.8-3.291 14.8-3.291s-.488-1.028-1.398-2.442c3.9-2.113 6.597-4.919 6.597-4.919" transform="translate(37 34)"/>
                    </g>
                    <g>
                        <path fill="url(#63o0bk90fj)" d="M13.936 13.492s-.043-.164-.116-.43c0-1.341-.07-6.401-1.095-8.634C11.537 1.842 8.012.76 8.012.76s-.347.799-.569 1.916c-1.706-.594-3.335-.6-3.335-.6s-.238 1.618.1 3.396c-1.146.053-1.995.28-1.995.28s.546 3.647 2.927 5.206c2.081 1.363 7.184 2.189 8.433 2.375.225.1.363.159.363.159" transform="translate(90 73)"/>
                        <path fill="url(#6tl2zj6haD)" d="M13.94 13.318s-.17-.01-.444-.021c-1.277-.416-6.111-1.913-8.552-1.627C2.118 12 0 15.018 0 15.018s.653.577 1.646 1.134c-1.092 1.437-1.6 2.985-1.6 2.985s1.465.727 3.26.956c-.303 1.105-.35 1.983-.35 1.983s3.637.608 5.855-1.175c1.94-1.56 4.302-6.155 4.865-7.286.165-.183.264-.297.264-.297" transform="translate(90 73)"/>
                        <path fill="url(#b3ngklcfsE)" d="M19.403 20.482c-.883-2.326-4.525-5.993-5.426-6.878-.124-.214-.201-.343-.201-.343s-.062.159-.158.415c-.79 1.086-3.707 5.22-4.19 7.63-.56 2.79 1.657 5.738 1.657 5.738s.75-.443 1.587-1.214c1.03 1.482 2.345 2.443 2.345 2.443s1.143-1.168 1.917-2.805c.956.63 1.777.946 1.777.946s1.702-3.271.692-5.932" transform="translate(90 73)"/>
                        <path fill="url(#74458b6raF)" d="M28.331 16.858s-.758-1.448-2.075-2.69c.894-.714 1.45-1.397 1.45-1.397s-2.586-2.63-5.429-2.491c-2.485.12-7.098 2.45-8.218 3.035-.24.05-.389.084-.389.084s.132.108.347.279c.788 1.085 3.82 5.139 5.962 6.343 2.481 1.395 5.97.197 5.97.197s-.19-.85-.667-1.884c1.73-.522 3.05-1.476 3.05-1.476" transform="translate(90 73)"/>
                        <path fill="url(#a26pv5f23G)" d="M24.049 3.973s-.868-.083-1.998.051c.038-1.806-.461-3.357-.461-3.357s-1.612.274-3.2 1.144C17.987.739 17.508 0 17.508 0s-3.3 1.647-4.045 4.393c-.654 2.4.137 7.508.346 8.754-.026.245-.04.395-.04.395s.144-.091.373-.243c1.276-.414 6.068-2.045 7.875-3.71 2.092-1.928 2.032-5.616 2.032-5.616" transform="translate(90 73)"/>
                    </g>
                </g>
                <g stroke="#000" stroke-linecap="round" stroke-linejoin="round" filter="url(#js3tatizgH)" transform="translate(-10 -309) translate(18 312) translate(221 27)">
                    <g>
                        <path fill="url(#exxd88vhrI)" d="M31.708 28.849c.987-2.673 4.544-12.73 4.147-17.894C35.396 4.968 29.211.247 29.211.247s-1.273 1.33-2.528 3.376C23.741 1.201 20.52 0 20.52 0s-1.655 3.028-2.29 6.793c-2.302-.732-4.15-.905-4.15-.905s-1.587 7.617 1.985 12.444c3.122 4.22 12.613 9.585 14.954 10.87.38.371.604.583.604.583s.034-.342.085-.936" transform="translate(0 57)"/>
                        <path fill="url(#r4veya522J)" d="M31.758 29.444s-.314-.14-.863-.37c-2.238-1.765-10.704-8.256-15.737-9.475-5.836-1.413-12.236 3.01-12.236 3.01s.87 1.622 2.428 3.449C2.137 28.106 0 30.798 0 30.798s2.368 2.51 5.754 4.278C4.345 37.04 3.61 38.743 3.61 38.743s6.754 3.863 12.449 1.958c4.977-1.666 13.013-9.033 14.958-10.862.47-.248.741-.395.741-.395" transform="translate(0 57)"/>
                        <path fill="url(#5whpphwkkK)" d="M31.622 30.035c-.09-.523-.147-.826-.147-.826s-.229.256-.619.707c-2.37 1.582-11.159 7.63-13.874 12.039-3.147 5.114-.917 12.569-.917 12.569s1.811-.328 4.03-1.245c.955 3.688 2.855 6.552 2.855 6.552s3.118-1.476 5.846-4.15c1.432 1.948 2.825 3.172 2.825 3.172s5.762-5.23 5.71-11.233c-.047-5.25-4.57-15.17-5.709-17.584" transform="translate(0 57)"/>
                        <path fill="url(#x7p2sctksL)" d="M59.404 38.428s-3.193-7.096-8.921-8.9c-5.006-1.579-15.838-.342-18.485-.006-.527-.076-.832-.115-.832-.115s.173.296.48.806c.774 2.742 3.808 12.97 7.163 16.914 3.89 4.574 11.67 4.757 11.67 4.757s.248-1.823.06-4.217c3.804.232 7.116-.69 7.116-.69s-.44-3.422-2.141-6.843c2.294-.76 3.89-1.706 3.89-1.706" transform="translate(0 57)"/>
                        <path fill="url(#1a7nb5ya1M)" d="M54.61 16.979c1.397-3.546 1.543-6.98 1.543-6.98s-3.391-.638-7.17-.08c-.014-2.416-.42-4.226-.42-4.226s-7.735.845-11.222 5.734c-3.047 4.274-5.218 14.957-5.716 17.58-.236.477-.368.755-.368.755s.335-.073.916-.21c2.847.115 13.512.389 18.3-1.583 5.553-2.287 8.13-9.63 8.13-9.63s-1.657-.798-3.992-1.36" transform="translate(0 57)"/>
                    </g>
                    <g>
                        <path fill="url(#pwnnkb4q9N)" d="M17.766 18.977s-.142-.164-.374-.426c-.751-1.538-3.664-7.297-6.09-9.28-2.808-2.299-7.453-1.565-7.453-1.565s.051 1.112.421 2.514c-2.286.275-4.155 1.182-4.155 1.182s.632 1.986 2.013 3.836C.847 15.938 0 16.673 0 16.673s2.668 3.872 6.269 4.325c3.147.397 9.455-1.513 10.991-2 .314-.01.506-.02.506-.02" transform="translate(47 26)"/>
                        <path fill="url(#qvfabmlw9O)" d="M17.673 18.776s-.2.084-.52.224c-1.695.24-8.073 1.23-10.709 2.923-3.054 1.962-3.79 6.606-3.79 6.606s1.071.296 2.52.377c-.446 2.26-.16 4.316-.16 4.316s2.084.013 4.27-.729c.27 1.434.707 2.467.707 2.467s4.508-1.34 6.051-4.624c1.35-2.872 1.483-9.46 1.494-11.073.086-.3.137-.487.137-.487" transform="translate(47 26)"/>
                        <path fill="url(#nb66kgndrP)" d="M27.943 23.926c-2.314-2.171-8.54-4.333-10.068-4.843-.261-.175-.422-.28-.422-.28s.018.217.052.564c-.296 1.685-1.325 8.057-.53 11.088.923 3.51 5.112 5.647 5.112 5.647s.612-.93 1.137-2.281c2.01 1.122 4.056 1.486 4.056 1.486s.656-1.98.626-4.287c1.448.186 2.565.09 2.565.09s.118-4.702-2.528-7.184" transform="translate(47 26)"/>
                        <path fill="url(#6kg125e65Q)" d="M33.476 18.172c1.688-1.565 2.667-3.397 2.667-3.397s-1.68-1.236-3.884-1.92c.624-1.321.877-2.412.877-2.412s-4.433-1.566-7.613.184c-2.779 1.53-6.759 6.782-7.716 8.079-.247.194-.397.315-.397.315l.552.125c1.512.802 7.254 3.749 10.382 3.928 3.623.208 6.949-3.115 6.949-3.115s-.693-.87-1.817-1.787" transform="translate(47 26)"/>
                        <path fill="url(#vg3joq7mlR)" d="M24.022 2.41s-1.041.391-2.261 1.177C20.793 1.497 19.354 0 19.354 0s-1.694 1.216-3.026 3.1c-1.063-1.002-2.023-1.58-2.023-1.58s-2.86 3.734-2.177 7.298c.596 3.116 4.362 8.526 5.299 9.836.108.295.176.475.176.475s.113-.186.29-.488c1.23-1.189 5.808-5.74 6.945-8.66 1.318-3.381-.816-7.571-.816-7.571" transform="translate(47 26)"/>
                    </g>
                    <g>
                        <path fill="url(#0pblekjxlS)" d="M49.373 9.905s-2.72-.64-5.893-.391c-.004-1.206-.11-2.015-.11-2.015s-6.793-.072-10.199 3.788c-3.053 3.459-5.815 12.827-6.357 14.737l-.19.219.08.004-.033.06s.027-.003.067-.011c-.013.046-.02.077-.02.077l.268-.112c1.985.085 11.744.404 15.987-1.407 4.735-2.021 6.8-8.494 6.8-8.494s-.735-.355-1.88-.737c1.232-2.936 1.48-5.718 1.48-5.718z" transform="translate(41 49)"/>
                        <path fill="url(#cfori0ienT)" d="M27.489 26.344c.695-1.861 4.014-11.045 3.603-15.639-.46-5.128-5.977-9.091-5.977-9.091s-.565.589-1.282 1.56C21.422 1.094 18.853 0 18.853 0s-1.448 2.388-2.194 5.483c-1.147-.369-1.951-.518-1.951-.518s-2.168 6.438.451 10.871c2.347 3.97 10.401 9.492 12.052 10.598l.15.25.028-.074.048.049.01-.069.066.044-.024-.29" transform="translate(41 49)"/>
                        <path fill="url(#kf0zrqeqfU)" d="M27.946 26.009l.062-.05-.284-.067c-1.518-1.207-9.247-7.227-13.76-8.258C8.946 16.486 3.47 20.509 3.47 20.509s.387.719 1.088 1.7C1.836 23.86 0 25.967 0 25.967s1.824 2.115 4.537 3.779c-.706.978-1.095 1.696-1.095 1.696s5.453 4.05 10.477 2.93c4.519-1.008 12.28-6.987 13.804-8.187.184-.041.284-.065.284-.065l-.061-.05.062-.03-.062-.03z" transform="translate(41 49)"/>
                        <path fill="url(#pnrtlr7sgV)" d="M27.645 25.62c.018-.188.026-.29.026-.29l-.067.043-.01-.067-.047.048-.028-.074s-.054.087-.151.249c-1.656 1.097-9.74 6.575-12.108 10.535-2.642 4.418-.508 10.869-.508 10.869s.804-.145 1.954-.51c.729 3.099 2.164 5.496 2.164 5.496s2.575-1.082 4.997-3.148c.712.974 1.273 1.567 1.273 1.567s5.539-3.935 6.026-9.06c.435-4.591-2.835-13.793-3.521-15.658" transform="translate(41 49)"/>
                        <path fill="url(#7gvvuoesfW)" d="M49.818 35.54s-2.03-6.482-6.755-8.528c-4.232-1.835-13.993-1.567-15.98-1.492l-.267-.113.02.076-.067-.012.032.06-.08.005.19.22c.532 1.913 3.245 11.294 6.278 14.77 3.386 3.88 10.18 3.842 10.18 3.842s.11-.809.12-2.015c3.172.264 5.895-.36 5.895-.36s-.233-2.784-1.45-5.724c1.147-.377 1.884-.728 1.884-.728h0z" transform="translate(41 49)"/>
                    </g>
                    <g>
                        <path fill="url(#acg8s4aojX)" d="M29.89 9.75c.77-1.831.923-3.567.923-3.567s-1.697-.4-3.678-.244c-.002-.753-.068-1.258-.068-1.258s-4.239-.045-6.365 2.364c-1.913 2.167-3.638 8.034-3.967 9.197l-.119.137.048.003-.019.038.042-.008-.014.048.168-.07c1.208.052 7.321.257 9.978-.878 2.955-1.261 4.244-5.301 4.244-5.301s-.459-.222-1.173-.46" transform="translate(88 28)"/>
                        <path fill="url(#4xa8m6r1fY)" d="M17.155 16.442c.423-1.132 2.507-6.883 2.249-9.761-.287-3.2-3.73-5.674-3.73-5.674s-.353.369-.8.974C13.369.684 11.764 0 11.764 0s-.902 1.491-1.367 3.422c-.717-.23-1.218-.324-1.218-.324s-1.353 4.019.282 6.785c1.469 2.488 6.516 5.942 7.52 6.615l.094.156.018-.047c.009.011.03.031.03.031l.006-.042.042.028-.016-.182" transform="translate(88 28)"/>
                        <path fill="url(#slsnlwqpxZ)" d="M17.44 16.233l.039-.031-.177-.041c-.946-.753-5.771-4.512-8.588-5.155C5.582 10.29 2.165 12.8 2.165 12.8s.241.449.678 1.062C1.145 14.892 0 16.206 0 16.206s1.138 1.32 2.831 2.359c-.441.61-.684 1.058-.684 1.058s3.403 2.528 6.539 1.829c2.82-.63 7.666-4.362 8.615-5.11l.178-.04-.039-.032.039-.018-.039-.02" transform="translate(88 28)"/>
                        <path fill="url(#zqnacfzwqaa)" d="M31.09 22.18s-1.266-4.044-4.215-5.322c-2.65-1.148-8.765-.976-9.973-.93l-.167-.072.012.049-.042-.008.02.038-.049.002.118.138c.324 1.165 2.018 7.04 3.918 9.219 2.114 2.42 6.354 2.397 6.354 2.397s.068-.505.075-1.258c1.98.165 3.68-.224 3.68-.224s-.147-1.737-.906-3.573c.715-.235 1.175-.455 1.175-.455" transform="translate(88 28)"/>
                        <path fill="url(#s9jtrv4y5ab)" d="M17.253 15.99c.01-.106.015-.181.015-.181l-.04.027-.007-.042-.03.03c-.006-.02-.017-.046-.017-.046l-.095.155c-1.008.667-6.072 4.095-7.556 6.576-1.65 2.756-.317 6.782-.317 6.782s.502-.09 1.22-.318c.454 1.935 1.35 3.43 1.35 3.43s1.607-.675 3.119-1.964c.444.608.795.978.795.978s3.457-2.456 3.76-5.655c.273-2.876-1.78-8.637-2.197-9.772" transform="translate(88 28)"/>
                    </g>
                    <g>
                        <path fill="url(#alpt9a3iaac)" d="M16.084 1.774s-.368.198-.871.559C14.366.939 13.286 0 13.286 0s-1.082.935-1.934 2.326c-.502-.362-.869-.561-.869-.561S8.41 4.561 8.987 7.134c.519 2.315 3.587 6.289 4.201 7.069l.033.145.026-.032.015.032.016-.032.025.032.035-.145c.617-.778 3.698-4.742 4.224-7.054.585-2.572-1.478-5.375-1.478-5.375" transform="translate(70)"/>
                        <path fill="url(#7aqf6lv3nad)" d="M13.613 14.112l.038-.015-.127-.077c-.549-.827-3.367-4.982-5.403-6.198-2.266-1.351-5.569-.255-5.569-.255s.075.412.261 1C1.226 8.944 0 9.68 0 9.68s.555 1.32 1.614 2.559c-.498.365-.802.653-.802.653s2.019 2.835 4.645 3.082c2.362.222 7.09-1.467 8.02-1.811l.149.012-.022-.033.034-.005-.025-.024" transform="translate(70)"/>
                        <path fill="url(#gjdbh9c0eae)" d="M13.587 13.737s-.023.007-.04.01l.007-.034s-.022.01-.031.016l-.002-.04-.114.098c-.956.265-5.778 1.662-7.563 3.222-1.986 1.738-1.964 5.218-1.964 5.218s.415.056 1.033.06c-.134 1.626.188 3.02.188 3.02s1.425-.121 2.93-.745c.195.587.375.965.375.965s3.32-1.044 4.367-3.465c.94-2.178.794-7.196.755-8.187l.059-.138" transform="translate(70)"/>
                        <path fill="url(#lx8x8lxntaf)" d="M22.769 22.21s.034-3.48-1.946-5.224c-1.78-1.568-6.6-2.98-7.553-3.249l-.113-.098-.002.041-.03-.017.006.035-.04-.01.058.137c-.043.99-.205 6.008.729 8.19 1.038 2.424 4.354 3.48 4.354 3.48s.182-.378.377-.964c1.505.63 2.93.755 2.93.755s.326-1.394.197-3.019c.618-.003 1.033-.058 1.033-.058" transform="translate(70)"/>
                        <path fill="url(#6qowi0t1wag)" d="M26.599 9.644s-1.225-.74-2.811-1.12c.19-.59.265-1 .265-1s-3.3-1.107-5.57.237c-2.04 1.209-4.872 5.354-5.422 6.179l-.128.077.038.015c-.01.007-.026.025-.026.025l.035.004-.022.034.148-.012c.93.346 5.652 2.052 8.014 1.838 2.627-.24 4.655-3.067 4.655-3.067s-.302-.29-.8-.656C26.04 10.962 26.6 9.644 26.6 9.644" transform="translate(70)"/>
                    </g>
                </g>
            </g>
        </g>
    </g>
</svg>
