<svg xmlns="http://www.w3.org/2000/svg" width="20" height="20" viewBox="0 0 20 20">
    <g fill="none" fill-rule="evenodd">
        <g fill="#614AA8" fill-rule="nonzero">
            <g>
                <path d="M1.889 8.908c.521-.008.966.259 1.367.625 2.137 1.984 4.282 3.95 6.42 5.942.239.225.367.225.606 0 2.154-2.008 4.316-3.992 6.479-5.983.889-.817 2.12-.759 2.803.125.504.658.504 1.566-.068 2.175-.505.533-1.06 1.016-1.599 1.516-2.162 1.992-4.324 3.984-6.478 5.984-.966.891-1.915.891-2.89-.009C5.933 16.892 3.334 14.492.736 12.1c-.812-.75-.949-1.683-.376-2.458.359-.475.88-.734 1.53-.734z" transform="translate(-375 -205) rotate(90 95 300)"/>
                <path d="M19.915 2.058c.017.292-.223.734-.616 1.092-1.829 1.7-3.675 3.392-5.513 5.092-.846.775-1.683 1.558-2.538 2.325-.752.683-1.795.675-2.547-.009-2.017-1.85-4.026-3.716-6.051-5.575C2.034 4.417 1.41 3.85.786 3.292c-.829-.75-1-1.667-.453-2.45C.983-.092 2.256-.2 3.153.617l2.54 2.325c1.333 1.233 2.666 2.466 3.99 3.716.197.184.308.225.53.017 1.377-1.283 2.761-2.558 4.146-3.833.838-.767 1.658-1.542 2.513-2.3.572-.509 1.248-.634 1.957-.325.71.291 1.06.841 1.086 1.841z" opacity=".5" transform="translate(-375 -205) rotate(90 95 300)"/>
            </g>
        </g>
    </g>
</svg>
