<svg id="圖層_1" data-name="圖層 1" xmlns="http://www.w3.org/2000/svg" xmlns:xlink="http://www.w3.org/1999/xlink" viewBox="0 0 1920 600"><defs><style>.cls-1{fill:url(#未命名漸層_217);}.cls-12,.cls-14,.cls-15,.cls-16,.cls-2,.cls-3,.cls-4,.cls-6,.cls-7,.cls-8,.cls-9{opacity:0.5;}.cls-3{fill:url(#未命名漸層_167);}.cls-4{fill:url(#未命名漸層_167-2);}.cls-5{fill:url(#未命名漸層_168);}.cls-6{fill:url(#未命名漸層_167-3);}.cls-7{fill:url(#未命名漸層_167-4);}.cls-8{fill:url(#未命名漸層_167-5);}.cls-9{fill:url(#未命名漸層_167-6);}.cls-10{fill:url(#未命名漸層_161);}.cls-11,.cls-13{opacity:0.75;}.cls-11{fill:url(#未命名漸層_163);}.cls-12{fill:url(#未命名漸層_163-2);}.cls-13{fill:url(#未命名漸層_163-3);}.cls-14{fill:url(#未命名漸層_163-4);}.cls-15{fill:url(#未命名漸層_163-5);}.cls-16{fill:url(#未命名漸層_238);}</style><linearGradient id="未命名漸層_217" y1="283.84" x2="1920" y2="283.84" gradientUnits="userSpaceOnUse"><stop offset="0" stop-color="#714eae"/><stop offset="0.37" stop-color="#3e4f94"/><stop offset="1" stop-color="#3d458a"/></linearGradient><linearGradient id="未命名漸層_167" x1="1120.88" y1="174.71" x2="1287.59" y2="341.43" gradientUnits="userSpaceOnUse"><stop offset="0" stop-color="#607bc0"/><stop offset="1" stop-color="#555da1" stop-opacity="0"/></linearGradient><linearGradient id="未命名漸層_167-2" x1="326.84" y1="-26.49" x2="642.84" y2="231.89" xlink:href="#未命名漸層_167"/><linearGradient id="未命名漸層_168" x1="1292.32" y1="48.97" x2="1550.68" y2="48.97" gradientUnits="userSpaceOnUse"><stop offset="0" stop-color="#8162bc"/><stop offset="1" stop-color="#555da1" stop-opacity="0"/></linearGradient><linearGradient id="未命名漸層_167-3" x1="2360.29" y1="490.38" x2="2552.63" y2="490.38" gradientTransform="translate(-2184.93 -245.55)" xlink:href="#未命名漸層_167"/><linearGradient id="未命名漸層_167-4" x1="79.54" y1="32.08" x2="187.52" y2="32.08" xlink:href="#未命名漸層_167"/><linearGradient id="未命名漸層_167-5" x1="493.5" y1="394" x2="522.5" y2="423" xlink:href="#未命名漸層_167"/><linearGradient id="未命名漸層_167-6" x1="446.69" y1="201.69" x2="527.31" y2="282.31" gradientTransform="translate(1126 -398) rotate(90)" xlink:href="#未命名漸層_167"/><linearGradient id="未命名漸層_161" x1="161.64" y1="382.45" x2="6.38" y2="382.45" gradientUnits="userSpaceOnUse"><stop offset="0" stop-color="#7d61b9"/><stop offset="1" stop-color="#555da1" stop-opacity="0"/></linearGradient><linearGradient id="未命名漸層_163" x1="1164.15" y1="108.41" x2="1098.36" y2="174.2" gradientUnits="userSpaceOnUse"><stop offset="0" stop-color="#486ac0"/><stop offset="1" stop-color="#555da1" stop-opacity="0"/></linearGradient><linearGradient id="未命名漸層_163-2" x1="1700.51" y1="47.86" x2="1656.66" y2="91.72" xlink:href="#未命名漸層_163"/><linearGradient id="未命名漸層_163-3" x1="1237.65" y1="97.91" x2="1171.86" y2="163.7" xlink:href="#未命名漸層_163"/><linearGradient id="未命名漸層_163-4" x1="627.78" y1="168.97" x2="540.06" y2="256.68" xlink:href="#未命名漸層_163"/><linearGradient id="未命名漸層_163-5" x1="691.78" y1="159.97" x2="604.06" y2="247.68" xlink:href="#未命名漸層_163"/><linearGradient id="未命名漸層_238" x1="947.78" y1="571.57" x2="959.35" y2="76.61" gradientUnits="userSpaceOnUse"><stop offset="0" stop-color="#714eae" stop-opacity="0"/><stop offset="0.7" stop-color="#42458d" stop-opacity="0.5"/><stop offset="1" stop-color="#3d3476"/></linearGradient></defs><path class="cls-1" d="M0,0V400L194.13,516.25a362.1,362.1,0,0,0,295.3,34.55L1920,98V0Z"/><g class="cls-2"><path class="cls-3" d="M1310.35,174.94a134.14,134.14,0,0,0-198.6,179.89l237.52-75.08A133.82,133.82,0,0,0,1310.35,174.94Z"/><path class="cls-4" d="M297,97.5C297,202.71,382.29,288,487.5,288S678,202.71,678,97.5A189.58,189.58,0,0,0,651.18,0H323.82A189.58,189.58,0,0,0,297,97.5Z"/><path class="cls-5" d="M1292.32,0a133.55,133.55,0,0,0,34.33,58.65,134.15,134.15,0,0,0,189.7,0A133.55,133.55,0,0,0,1550.68,0Z"/><circle class="cls-6" cx="271.53" cy="244.83" r="96.17"/><path class="cls-7" d="M95.35,48.35A54,54,0,0,0,186.56,0H80.5A53.94,53.94,0,0,0,95.35,48.35Z"/><circle class="cls-8" cx="508" cy="408.5" r="20.5"/><circle class="cls-9" cx="884" cy="89" r="57"/><path class="cls-10" d="M138.9,438.1A77.64,77.64,0,1,0,16,345.77L6.57,377.69a78,78,0,0,0,3.15,28.13l89.46,53.52A77.26,77.26,0,0,0,138.9,438.1Z"/></g><polygon class="cls-11" points="1237.27 315.66 1340.44 283.06 1057.38 0 921.62 0 1237.27 315.66"/><g class="cls-2"><polygon class="cls-12" points="1724.85 161.6 1793.63 139.87 1653.76 0 1563.24 0 1724.85 161.6"/><polygon class="cls-13" points="1300.27 294.66 1403.44 262.06 1141.38 0 1005.62 0 1300.27 294.66"/><polygon class="cls-14" points="749.7 469.71 887.26 426.25 461.01 0 279.99 0 749.7 469.71"/><polygon class="cls-15" points="804.7 451.71 942.26 408.25 534.01 0 352.99 0 804.7 451.71"/></g><path class="cls-16" d="M0,0V400L194.13,516.25a362.1,362.1,0,0,0,295.3,34.55L1920,98V0Z"/></svg>