<?xml version="1.0" encoding="iso-8859-1"?>
<!-- Generator: Adobe Illustrator 19.0.0, SVG Export Plug-In . SVG Version: 6.00 Build 0)  -->
<svg version="1.1" id="Capa_1" xmlns="http://www.w3.org/2000/svg" xmlns:xlink="http://www.w3.org/1999/xlink" x="0px" y="0px"
	 viewBox="0 0 490.667 490.667" style="enable-background:new 0 0 490.667 490.667;" xml:space="preserve">
<path style="fill:#4CAF50;" d="M245.333,0C109.839,0,0,109.839,0,245.333s109.839,245.333,245.333,245.333
	s245.333-109.839,245.333-245.333C490.514,109.903,380.764,0.153,245.333,0z"/>
<path style="fill:#FAFAFA;" d="M274.219,88.448c-4.16-4.171-10.914-4.179-15.085-0.019C257.123,90.435,255.995,93.16,256,96v74.667
	H96.171c-5.891,0-10.667,4.776-10.667,10.667v128c0,5.891,4.776,10.667,10.667,10.667H256v74.667
	c-0.011,5.891,4.757,10.675,10.648,10.686c2.84,0.005,5.565-1.123,7.571-3.134l149.504-149.333c4.164-4.165,4.164-10.917,0-15.083
	L274.219,88.448z"/>
<path d="M266.667,405.333c-5.891,0-10.667-4.776-10.667-10.667V320H96.171c-5.891,0-10.667-4.776-10.667-10.667v-128
	c0-5.891,4.776-10.667,10.667-10.667H256V96c-0.011-5.891,4.757-10.675,10.648-10.686c2.84-0.005,5.565,1.123,7.571,3.134
	l149.504,149.333c4.164,4.165,4.164,10.917,0,15.083L274.219,402.197C272.218,404.204,269.501,405.333,266.667,405.333z
	 M106.837,298.667h159.829c5.891,0,10.667,4.776,10.667,10.667v59.605l123.733-123.605L277.333,121.728v59.605
	c0,5.891-4.776,10.667-10.667,10.667H106.837V298.667z"/>
<path d="M245.333,490.667C109.839,490.667,0,380.827,0,245.333S109.839,0,245.333,0s245.333,109.839,245.333,245.333
	C490.514,380.764,380.764,490.514,245.333,490.667z M245.333,21.333c-123.712,0-224,100.288-224,224s100.288,224,224,224
	s224-100.288,224-224C469.192,121.68,368.987,21.474,245.333,21.333z"/>
<g>
</g>
<g>
</g>
<g>
</g>
<g>
</g>
<g>
</g>
<g>
</g>
<g>
</g>
<g>
</g>
<g>
</g>
<g>
</g>
<g>
</g>
<g>
</g>
<g>
</g>
<g>
</g>
<g>
</g>
</svg>
