<?xml version="1.0" encoding="utf-8"?>
<!-- Generator: Adobe Illustrator 24.2.1, SVG Export Plug-In . SVG Version: 6.00 Build 0)  -->
<svg version="1.1" id="圖層_1"
	xmlns="http://www.w3.org/2000/svg"
	xmlns:xlink="http://www.w3.org/1999/xlink" x="0px" y="0px" viewBox="0 0 90 90" style="enable-background:new 0 0 90 90;" xml:space="preserve">
	<style type="text/css">
	.st0{opacity:0.8;fill:none;stroke:url(#SVGID_1_);enable-background:new    ;}
	.st1{opacity:0.8;fill:none;stroke:url(#SVGID_2_);enable-background:new    ;}
	.st2{opacity:0.6;fill:none;stroke:url(#SVGID_3_);enable-background:new    ;}
	.st3{opacity:0.6;fill:none;stroke:url(#SVGID_4_);enable-background:new    ;}
	.st4{opacity:0.4;fill:none;stroke:url(#SVGID_5_);enable-background:new    ;}
	.st5{opacity:0.4;fill:none;stroke:url(#SVGID_6_);enable-background:new    ;}
	.st6{fill-rule:evenodd;clip-rule:evenodd;fill:#FFFFFF;}
	.flash{
		animation: flash 3s infinite;
	}
	
    @keyframes flash {
        0%{
            opacity: 0;
        }

        50%{
		    opacity: 1;
        }

		100% {
            opacity: 0;
		}
	}
	</style>
	<g>
		<g>

			<linearGradient id="SVGID_1_" gradientUnits="userSpaceOnUse" x1="-296.1911" y1="231.6944" x2="-296.1911" y2="232.6944" gradientTransform="matrix(20.156 0 0 -34.722 5981.6719 8124.6123)">
				<stop offset="0" style="stop-color:#C9D1D9"/>
				<stop offset="1" style="stop-color:#FFFFFF"/>
			</linearGradient>
			<path class="st0" d="M25.2,79.7C13.1,72.8,5,59.8,5,45"/>

			<linearGradient id="SVGID_2_" gradientUnits="userSpaceOnUse" x1="-300.2813" y1="232.9232" x2="-300.2813" y2="233.9232" gradientTransform="matrix(28.3 0 0 -38.255 8574.2998 8955.4756)">
				<stop offset="0" style="stop-color:#C9D1D9"/>
				<stop offset="1" style="stop-color:#FFFFFF"/>
			</linearGradient>
			<path class="st1" d="M56.7,6.7C73.1,11.8,85,27,85,45"/>

			<linearGradient id="SVGID_3_" gradientUnits="userSpaceOnUse" x1="-291.7216" y1="222.3551" x2="-291.7216" y2="223.3551" gradientTransform="matrix(15.884 0 0 -20.402 4705.6855 4610.998)">
				<stop offset="0" style="stop-color:#C9D1D9"/>
				<stop offset="1" style="stop-color:#FFFFFF"/>
			</linearGradient>
			<path class="st2" d="M77.8,54.1c-2.4,8.7-8.2,16-15.9,20.4"/>

			<linearGradient id="SVGID_4_" gradientUnits="userSpaceOnUse" x1="-302.3793" y1="227.9873" x2="-302.3793" y2="228.9873" gradientTransform="matrix(33.308 0 0 -27.156 10091.7881 6229.3755)">
				<stop offset="0" style="stop-color:#C9D1D9"/>
				<stop offset="1" style="stop-color:#FFFFFF"/>
			</linearGradient>
			<path class="st3" d="M11.7,38.2C14.9,22.7,28.6,11,45,11"/>

			<linearGradient id="SVGID_5_" gradientUnits="userSpaceOnUse" x1="-285.7902" y1="234.9566" x2="-285.7902" y2="235.9566" gradientTransform="matrix(12.232 0 0 -46 3567.1521 10877.1758)">
				<stop offset="0" style="stop-color:#C9D1D9"/>
				<stop offset="1" style="stop-color:#FFFFFF"/>
			</linearGradient>
			<path class="st4" d="M65.6,23.2C71.4,28.6,75,36.4,75,45c0,2.1-0.2,4.1-0.6,6c-1.5,7.4-5.8,13.8-11.6,18.1"/>

			<linearGradient id="SVGID_6_" gradientUnits="userSpaceOnUse" x1="-240.9119" y1="224.9939" x2="-240.9119" y2="225.9939" gradientTransform="matrix(4.409 0 0 -23.093 1078.608 5248.2139)">
				<stop offset="0" style="stop-color:#C9D1D9"/>
				<stop offset="1" style="stop-color:#FFFFFF"/>
			</linearGradient>
			<path class="st5" d="M15.9,52.4C15.3,50.1,15,47.6,15,45c0-5.7,1.6-11.1,4.4-15.7"/>
			<path class="st6" d="M45,0C20.2,0,0,20.2,0,45s20.2,45,45,45s45-20.2,45-45S69.8,0,45,0 M45,1c24.3,0,44,19.7,44,44S69.3,89,45,89
			S1,69.3,1,45S20.7,1,45,1"/>
		</g>
		<g>
			<path class="st6 flash" d="M55.7,56.4c0-0.7,0.3-1.3,0.8-1.8s1.1-0.8,1.8-0.8s1.3,0.3,1.8,0.8s0.7,1.1,0.7,1.8s-0.2,1.3-0.7,1.8
			S58.9,59,58.2,59s-1.3-0.3-1.8-0.8S55.7,57.1,55.7,56.4 M55.7,50.7c0-0.7,0.2-1.3,0.7-1.8s1.1-0.8,1.8-0.8s1.3,0.3,1.8,0.8
			s0.8,1.1,0.8,1.8S60.5,52,60,52.5s-1.1,0.8-1.8,0.8s-1.3-0.3-1.8-0.8S55.7,51.4,55.7,50.7 M55.6,28c0-0.7,0.2-1.3,0.7-1.8
			s1.1-0.8,1.8-0.8s1.3,0.3,1.8,0.8s0.8,1.1,0.8,1.8s-0.3,1.3-0.8,1.8s-1.1,0.8-1.8,0.8s-1.3-0.3-1.8-0.8S55.6,28.7,55.6,28
			 M49.1,62c0-0.7,0.2-1.3,0.7-1.8s1.1-0.8,1.8-0.8s1.3,0.3,1.8,0.8s0.8,1.1,0.8,1.8s-0.3,1.3-0.8,1.8c-0.5,0.5-1.1,0.8-1.8,0.8
			s-1.3-0.3-1.8-0.8C49.3,63.3,49.1,62.7,49.1,62 M49,44.9c0-0.7,0.2-1.3,0.7-1.8s1.1-0.7,1.8-0.7s1.3,0.2,1.8,0.7s0.8,1.1,0.8,1.8
			s-0.3,1.3-0.8,1.8s-1.1,0.8-1.8,0.8s-1.3-0.3-1.8-0.8C49.3,46.2,49,45.6,49,44.9 M49,27.9c0-0.7,0.3-1.3,0.8-1.8s1.1-0.8,1.8-0.8
			s1.3,0.3,1.8,0.8s0.7,1.1,0.7,1.8s-0.2,1.3-0.7,1.8s-1.1,0.7-1.8,0.7s-1.3-0.2-1.8-0.7C49.2,29.2,49,28.6,49,27.9 M42.6,62
			c0-0.7,0.2-1.3,0.7-1.8s1.1-0.7,1.8-0.7s1.3,0.2,1.8,0.7s0.8,1.1,0.8,1.8s-0.3,1.3-0.8,1.8c-0.5,0.5-1.1,0.8-1.8,0.8
			s-1.3-0.3-1.8-0.8C42.9,63.3,42.6,62.7,42.6,62 M42.6,44.9c0-0.7,0.3-1.3,0.8-1.8s1.1-0.8,1.8-0.8s1.3,0.3,1.8,0.8
			s0.7,1.1,0.7,1.8s-0.2,1.3-0.7,1.8s-1.1,0.7-1.8,0.7s-1.3-0.2-1.8-0.7C42.8,46.2,42.6,45.7,42.6,44.9 M42.5,27.9
			c0-0.7,0.3-1.3,0.8-1.8s1.1-0.8,1.8-0.8s1.3,0.3,1.8,0.8s0.8,1.1,0.8,1.8s-0.3,1.3-0.8,1.8s-1.1,0.8-1.8,0.8s-1.3-0.3-1.8-0.8
			C42.8,29.2,42.5,28.6,42.5,27.9 M35.9,62.1c0-0.7,0.3-1.3,0.8-1.8s1.1-0.7,1.8-0.7s1.3,0.2,1.8,0.7s0.7,1.1,0.7,1.8
			s-0.2,1.3-0.7,1.8c-0.5,0.5-1.1,0.8-1.8,0.8s-1.3-0.3-1.8-0.8S35.9,62.8,35.9,62.1 M35.9,45.1c0-0.7,0.3-1.3,0.8-1.8
			s1.1-0.8,1.8-0.8s1.3,0.3,1.8,0.8s0.8,1.1,0.8,1.8s-0.3,1.3-0.8,1.8s-1.1,0.7-1.8,0.7s-1.3-0.2-1.8-0.7
			C36.1,46.4,35.9,45.8,35.9,45.1 M35.9,28c0-0.7,0.2-1.3,0.7-1.8s1.1-0.8,1.8-0.8s1.3,0.3,1.8,0.8S41,27.3,41,28s-0.3,1.3-0.8,1.8
			s-1.1,0.8-1.8,0.8s-1.3-0.3-1.8-0.8C36.1,29.3,35.9,28.7,35.9,28 M29.3,56.4c0-0.7,0.3-1.3,0.8-1.8s1.1-0.8,1.8-0.8
			c0.7,0,1.3,0.3,1.8,0.8s0.7,1.1,0.7,1.8s-0.2,1.3-0.7,1.8s-1.1,0.7-1.8,0.7s-1.3-0.2-1.8-0.7C29.6,57.7,29.3,57.1,29.3,56.4
			 M29.3,44.9c0-0.7,0.3-1.3,0.8-1.8s1.1-0.7,1.8-0.7c0.7,0,1.3,0.2,1.8,0.7s0.8,1.1,0.8,1.8s-0.3,1.3-0.8,1.8s-1.1,0.8-1.8,0.8
			s-1.3-0.3-1.8-0.8C29.5,46.3,29.3,45.7,29.3,44.9 M29.3,39.3c0-0.7,0.3-1.3,0.8-1.8s1.1-0.8,1.8-0.8c0.7,0,1.3,0.3,1.8,0.8
			s0.8,1.1,0.8,1.8s-0.3,1.3-0.8,1.8s-1.1,0.8-1.8,0.8s-1.3-0.3-1.8-0.8C29.5,40.6,29.3,40,29.3,39.3 M29.3,33.6
			c0-0.7,0.3-1.3,0.8-1.8s1.1-0.8,1.8-0.8c0.7,0,1.3,0.3,1.8,0.8s0.7,1.1,0.7,1.8s-0.2,1.3-0.7,1.8s-1.1,0.8-1.8,0.8
			s-1.3-0.3-1.8-0.8C29.5,34.9,29.3,34.3,29.3,33.6 M29.3,27.9c0-0.7,0.2-1.3,0.7-1.8s1.1-0.8,1.8-0.8c0.7,0,1.3,0.3,1.8,0.8
			s0.8,1.1,0.8,1.8s-0.3,1.3-0.8,1.8s-1.1,0.7-1.8,0.7s-1.3-0.2-1.8-0.7C29.5,29.2,29.3,28.6,29.3,27.9"/>
		</g>
	</g>
</svg>
