<?xml version="1.0" encoding="utf-8"?>
<!-- Generator: Adobe Illustrator 24.2.1, SVG Export Plug-In . SVG Version: 6.00 Build 0)  -->
<svg version="1.1" id="圖層_1" xmlns="http://www.w3.org/2000/svg" xmlns:xlink="http://www.w3.org/1999/xlink" x="0px" y="0px"
	 viewBox="0 0 1007.1 97.2" style="enable-background:new 0 0 1007.1 97.2;" xml:space="preserve">
<style type="text/css">
	.st0{fill:#124380;}
	.st1{opacity:0.82;fill:url(#SVGID_1_);enable-background:new    ;}
	.st2{opacity:0.21;fill:url(#SVGID_2_);enable-background:new    ;}
	.st3{opacity:0.82;fill:url(#SVGID_3_);enable-background:new    ;}
	.st4{opacity:0.21;fill:url(#SVGID_4_);enable-background:new    ;}
	.st5{opacity:0.82;fill:url(#SVGID_5_);enable-background:new    ;}
	.st6{opacity:0.21;fill:url(#SVGID_6_);enable-background:new    ;}
	.st7{fill:#C7391A;}
	.st8{fill:#083A6E;}
	.st9{fill:#3D3A39;}
	.st10{fill:#0A559A;}
	.st11{fill:#FF8300;}
	.st12{fill:#3E3A39;}
	.st13{fill:#1A1A1A;}
</style>
<g>
	<g>
		<g>
			<g>
				<path class="st0" d="M81.6,5.6c-1.8-1.4-4.1-2.8-7.1-3.4C67,0.4,58.6,3.9,53.4,11.1l0,0l0,0l0,0c8.7-1.5,14.4,0.6,17.1,2
					c5.8,2.9,10.3,8.4,13.2,15.5c2.4,5.9,3.6,13,3.4,20.8c0,0.2,0,0.4,0,0.7c-0.1,2.6-0.4,5.2-0.8,7.9c-0.3,2.2-0.8,4.4-1.4,6.6l0,0
					c0,0,5.6-16.3,5.7-32.7c0-6.4-0.8-12.8-3.1-18.2C85.7,9.3,82.8,6.6,81.6,5.6z"/>
				
					<linearGradient id="SVGID_1_" gradientUnits="userSpaceOnUse" x1="75.2037" y1="74.7058" x2="87.0966" y2="99.3726" gradientTransform="matrix(1 0 0 -1 0 100)">
					<stop  offset="0" style="stop-color:#FFFFFF"/>
					<stop  offset="1" style="stop-color:#231815"/>
				</linearGradient>
				<path class="st1" d="M53.4,11.1L53.4,11.1L53.4,11.1L53.4,11.1L53.4,11.1L53.4,11.1c8.7-1.5,14.4,0.6,17.1,2
					c5.8,2.9,10.3,8.4,13.2,15.5c2.4,5.9,3.6,13,3.4,20.8c0,0.2,0,0.4,0,0.7c-0.1,2.6-0.4,5.2-0.8,7.9c-0.3,2.2-0.8,4.4-1.4,6.6l0,0
					c0,0,5.6-16.3,5.7-32.7C89.1-2.2,53.4,11.1,53.4,11.1z"/>
				
					<linearGradient id="SVGID_2_" gradientUnits="userSpaceOnUse" x1="59.4162" y1="87.1347" x2="91.7938" y2="81.2859" gradientTransform="matrix(1 0 0 -1 0 100)">
					<stop  offset="0" style="stop-color:#FFFFFF;stop-opacity:0"/>
					<stop  offset="0.1075" style="stop-color:#D8EFFA;stop-opacity:0.2232"/>
					<stop  offset="0.2825" style="stop-color:#9FD6F2;stop-opacity:0.5865"/>
					<stop  offset="0.4124" style="stop-color:#7CC7ED;stop-opacity:0.8561"/>
					<stop  offset="0.4817" style="stop-color:#6EC1EB"/>
					<stop  offset="0.5437" style="stop-color:#85CBEE;stop-opacity:0.8804"/>
					<stop  offset="0.6956" style="stop-color:#B9E1F5;stop-opacity:0.5873"/>
					<stop  offset="0.8278" style="stop-color:#DFF1FB;stop-opacity:0.3323"/>
					<stop  offset="0.9336" style="stop-color:#F6FBFE;stop-opacity:0.128"/>
					<stop  offset="1" style="stop-color:#FFFFFF;stop-opacity:0"/>
				</linearGradient>
				<path class="st2" d="M90.6,31.9c0-6.4-0.8-12.8-3.1-18.2c-1.9-4.4-4.8-7.1-6-8.1c-1.8-1.4-4.1-2.8-7.1-3.4
					c-7.4-1.8-15.8,1.7-21,8.9C53.4,11.1,89.1-2.2,90.6,31.9z"/>
			</g>
			<g>
				<path class="st0" d="M75,94.1c2.1-0.9,4.5-2.2,6.5-4.4c5.3-5.7,6.4-14.7,2.8-22.8l0,0l0,0l0,0c-3,8.3-7.7,12.2-10.3,13.9
					c-5.4,3.6-12.4,4.8-20,3.7c-6.3-0.9-13.1-3.4-19.7-7.4c-0.2-0.1-0.4-0.2-0.6-0.4c-2.2-1.4-4.4-2.9-6.5-4.6
					c-1.7-1.4-3.4-2.8-5-4.4l0,0c0,0,11.4,13,25.5,21.2c5.5,3.2,11.5,5.7,17.3,6.4C69.7,95.8,73.5,94.7,75,94.1z"/>
				
					<linearGradient id="SVGID_3_" gradientUnits="userSpaceOnUse" x1="-0.2353" y1="-4718.6816" x2="11.6581" y2="-4694.0132" gradientTransform="matrix(-0.4965 0.868 0.868 0.4965 4156.7544 2421.8372)">
					<stop  offset="0" style="stop-color:#FFFFFF"/>
					<stop  offset="1" style="stop-color:#231815"/>
				</linearGradient>
				<path class="st3" d="M84.2,66.9L84.2,66.9L84.2,66.9L84.2,66.9L84.2,66.9L84.2,66.9c-3,8.3-7.7,12.2-10.3,13.9
					c-5.4,3.6-12.4,4.8-20,3.7c-6.3-0.9-13.1-3.4-19.7-7.4c-0.2-0.1-0.4-0.2-0.6-0.4c-2.2-1.4-4.4-2.9-6.5-4.6
					c-1.7-1.4-3.4-2.8-5-4.4l0,0c0,0,11.4,13,25.5,21.2C78,104.5,84.2,66.9,84.2,66.9z"/>
				
					<linearGradient id="SVGID_4_" gradientUnits="userSpaceOnUse" x1="-16.0309" y1="-4706.2036" x2="16.3473" y2="-4712.0522" gradientTransform="matrix(-0.4965 0.868 0.868 0.4965 4156.7544 2421.8372)">
					<stop  offset="0" style="stop-color:#FFFFFF;stop-opacity:0"/>
					<stop  offset="0.1075" style="stop-color:#D8EFFA;stop-opacity:0.2232"/>
					<stop  offset="0.2825" style="stop-color:#9FD6F2;stop-opacity:0.5865"/>
					<stop  offset="0.4124" style="stop-color:#7CC7ED;stop-opacity:0.8561"/>
					<stop  offset="0.4817" style="stop-color:#6EC1EB"/>
					<stop  offset="0.5437" style="stop-color:#85CBEE;stop-opacity:0.8804"/>
					<stop  offset="0.6956" style="stop-color:#B9E1F5;stop-opacity:0.5873"/>
					<stop  offset="0.8278" style="stop-color:#DFF1FB;stop-opacity:0.3323"/>
					<stop  offset="0.9336" style="stop-color:#F6FBFE;stop-opacity:0.128"/>
					<stop  offset="1" style="stop-color:#FFFFFF;stop-opacity:0"/>
				</linearGradient>
				<path class="st4" d="M47.7,88.9c5.5,3.2,11.5,5.7,17.3,6.4c4.7,0.5,8.5-0.6,10-1.2c2.1-0.9,4.5-2.2,6.5-4.4
					c5.3-5.7,6.4-14.7,2.8-22.8C84.2,66.9,78,104.5,47.7,88.9z"/>
			</g>
			<g>
				<path class="st0" d="M1.7,44c-0.3,2.3-0.3,5,0.6,7.8c2.3,7.4,9.5,12.9,18.3,13.8l0,0l0,0l0,0c-5.7-6.8-6.7-12.7-6.8-15.8
					c-0.4-6.5,2.1-13.1,6.8-19.2c3.9-5,9.5-9.7,16.3-13.4c0.2-0.1,0.4-0.2,0.6-0.3c2.3-1.2,4.7-2.3,7.2-3.3c2-0.8,4.2-1.5,6.4-2.1
					l0,0c0,0-16.9,3.3-31.2,11.4C14.4,26.1,9.2,30,5.7,34.7C2.8,38.6,1.9,42.4,1.7,44z"/>
				
					<linearGradient id="SVGID_5_" gradientUnits="userSpaceOnUse" x1="4172.8687" y1="-2514.3005" x2="4184.7612" y2="-2489.6345" gradientTransform="matrix(-0.5016 -0.8651 -0.8651 0.5016 -60.109 4910.8364)">
					<stop  offset="0" style="stop-color:#FFFFFF"/>
					<stop  offset="1" style="stop-color:#231815"/>
				</linearGradient>
				<path class="st5" d="M20.6,65.7L20.6,65.7L20.6,65.7L20.6,65.7L20.6,65.7L20.6,65.7c-5.7-6.8-6.7-12.7-6.8-15.8
					c-0.4-6.5,2.1-13.1,6.8-19.2c3.9-5,9.5-9.7,16.3-13.4c0.2-0.1,0.4-0.2,0.6-0.3c2.3-1.2,4.7-2.3,7.2-3.3c2-0.8,4.2-1.5,6.4-2.1
					l0,0c0,0-16.9,3.3-31.2,11.4C-8.9,41.4,20.6,65.7,20.6,65.7z"/>
				
					<linearGradient id="SVGID_6_" gradientUnits="userSpaceOnUse" x1="4157.1143" y1="-2501.9216" x2="4189.4922" y2="-2507.7708" gradientTransform="matrix(-0.5016 -0.8651 -0.8651 0.5016 -60.109 4910.8364)">
					<stop  offset="0" style="stop-color:#FFFFFF;stop-opacity:0"/>
					<stop  offset="0.1075" style="stop-color:#D8EFFA;stop-opacity:0.2232"/>
					<stop  offset="0.2825" style="stop-color:#9FD6F2;stop-opacity:0.5865"/>
					<stop  offset="0.4124" style="stop-color:#7CC7ED;stop-opacity:0.8561"/>
					<stop  offset="0.4817" style="stop-color:#6EC1EB"/>
					<stop  offset="0.5437" style="stop-color:#85CBEE;stop-opacity:0.8804"/>
					<stop  offset="0.6956" style="stop-color:#B9E1F5;stop-opacity:0.5873"/>
					<stop  offset="0.8278" style="stop-color:#DFF1FB;stop-opacity:0.3323"/>
					<stop  offset="0.9336" style="stop-color:#F6FBFE;stop-opacity:0.128"/>
					<stop  offset="1" style="stop-color:#FFFFFF;stop-opacity:0"/>
				</linearGradient>
				<path class="st6" d="M19.9,23c-5.5,3.2-10.7,7.1-14.2,11.8c-2.8,3.8-3.7,7.7-4,9.2c-0.3,2.3-0.3,5,0.6,7.8
					c2.3,7.4,9.5,12.9,18.3,13.8C20.6,65.7-8.9,41.4,19.9,23z"/>
			</g>
			<g>
				<g>
					<rect x="27.9" y="37.3" class="st7" width="4.5" height="4.2"/>
					<path class="st8" d="M29.2,44.6c-0.7,0-1.2,0.5-1.2,1.2v15.8h2.6H31c0.7,0,1.2-0.5,1.2-1.2v-2.2V44.6H29.2z"/>
				</g>
				<g>
					<path class="st8" d="M55.3,40.7V38c0-0.7-0.6-1.2-1.2-1.2H38.4v24.8h3.3l0,0l0,0c0.7,0,1.2-0.5,1.2-1.2l0,0l0,0V52h10.8v-2.7
						l0,0l0,0c0-0.6-0.6-1.2-1.2-1.2l0,0l0,0H43v-7.3L55.3,40.7L55.3,40.7z"/>
					<path class="st8" d="M78.6,40.7V38c0-0.7-0.6-1.2-1.2-1.2h-6.8H66h-8.1v2.7l0,0l0,0c0,0.6,0.6,1.2,1.2,1.2l0,0l0,0H66v0.2l0,0
						v20.7h3.2c0,0,0,0,0.1,0c0,0,0,0,0.1,0c0.7,0,1.2-0.5,1.2-1.2l0,0l0,0V40.7H78.6z"/>
				</g>
			</g>
		</g>
		<g>
			<g>
				<path class="st9" d="M171.3,66.4l-2.7-1.3v0.1c-0.4,1.7-1.1,3.1-2,4.4l-0.1,0.1l1.3,0.7h0.1h0.1c1.3-1,2.4-2.2,3.2-3.1
					c0.3-0.1,0.6-0.2,0.6-0.5C171.7,66.6,171.5,66.5,171.3,66.4L171.3,66.4L171.3,66.4L171.3,66.4z"/>
				<path class="st9" d="M153.3,83.3h3v-1h11.3v1h3.1V73.1h-17.4L153.3,83.3L153.3,83.3z M156.4,77v-2.5h11.3V77H156.4z M167.6,78.3
					v2.6h-11.3v-2.6H167.6z"/>
				<path class="st9" d="M166,64.8h7.1v-1.4h-7.4c0.5-0.3,1.2-0.8,3-2.2c0.4-0.1,0.7-0.2,0.7-0.5c0-0.2-0.2-0.3-0.4-0.4l-2.8-1v0.1
					c-0.4,1-1.3,2.4-2.1,3.2l-0.1,0.1l1.4,0.8h-7.3l2.3-1.3l-0.1-0.1c-1.2-1.1-3.9-2.6-4.2-2.8H156l-1.3,1l0.1,0.1
					c1.3,1.3,2,2.4,2.5,3.1h-6.6v1.4h7.1v5.7h-2.9l2.4-1.6l0.1-0.1l-0.1-0.1c-0.9-1.4-2.7-3-3.5-3.6h-0.1l-1.3,0.8l0.1,0.1
					c1,1.4,1.3,2.1,2.3,4.5v0.1h-5.4V72h25v-1.3H166V64.8z M163.2,64.8v5.7h-2.4v-5.7H163.2z"/>
				<path class="st9" d="M205.6,79v-1.4h-4.7v-2.7h3.5v-1.4h-3.5V71h3.5v-1.3h-3.5V67h4.4v-1.4h-4.8c0.5-0.5,1.9-2.1,1.9-2.3
					s-0.1-0.3-0.3-0.4l-2.5-0.7h-0.1v0.1c-0.4,1.6-0.6,2.2-1,3.3h-3.2c0.7-1,0.9-1.4,1.2-1.9c0.1-0.1,0.3-0.2,0.3-0.4
					s-0.2-0.4-0.3-0.4l-2.6-0.8v0.1c-0.5,2.8-2.1,5.4-3.7,7.5l-0.1,0.1l0.9,0.9l0.1-0.1c0.4-0.4,0.8-0.8,1.5-1.5v10L205.6,79
					L205.6,79z M195.4,69.6V67h2.8v2.6H195.4z M195.4,73.5V71h2.8v2.6L195.4,73.5L195.4,73.5z M195.4,77.6v-2.7h2.8v2.7H195.4z"/>
				<path class="st9" d="M185.3,69.2L185.3,69.2c2,1.9,2.7,2.7,3.2,3.5l0.1,0.1l1.8-1.9l0.1-0.1l-0.1-0.1c-1.1-0.9-2.1-1.6-4-2.6
					h-0.1L185.3,69.2v-7.4h20.5v-1.4h-23.4V83h2.9v-1.1h21v-1.4h-21V69.2z"/>
				<path class="st9" d="M191.5,65.1c-1.7-1.3-3.8-2.4-4.2-2.5h-0.1l-0.9,1l0.1,0.1c0.7,0.6,2,1.8,3.2,3.4l0.1,0.1L191.5,65.1
					L191.5,65.1z"/>
				<path class="st9" d="M190.7,71.6c-0.6,1.1-3,4.7-4.8,6.5l-0.1,0.1l1.8,1.4c0.2,0.1,0.3,0.2,0.4,0.2c0.3,0,0.3-0.2,0.3-0.5l0,0
					c1.1-1.5,3-5,3.5-6.4v-0.1L190.7,71.6L190.7,71.6z"/>
				<path class="st9" d="M231.1,74.5L231.1,74.5c-0.1,0.6-0.8,2.6-2.7,5.3l-0.1,0.1l1.3,0.8h0.1h0.1c1.2-0.9,3.2-2.8,4.2-3.9h0.1
					c0.5-0.3,0.5-0.3,0.5-0.5s-0.2-0.3-0.2-0.4L231.1,74.5z"/>
				<path class="st9" d="M228,59.5L228,59.5l-3.9-0.1v0.1c-1.9,3.8-4.5,7-11.2,10.1l-0.1,0.1l1.1,1h0.1h0.1c2.3-0.8,4.2-1.7,5.8-2.7
					v1.3h4.7v3.4h-8.1V74h8.1v6.9h-10.5v1.3h24v-1.3h-10.4V74h8v-1.3h-8v-3.4h4.7V68c1.7,1.1,3.6,1.9,5.6,2.8h0.1l1-1.2l-0.1-0.1
					C234.7,67.7,230.6,65.2,228,59.5z M219.9,67.8c3-1.8,4.9-3.8,6.1-5.4c2,2.4,3.9,4,6.1,5.4H219.9z"/>
				<path class="st9" d="M220.7,80.8l2.9-1.5l-0.1-0.1c-1.8-2.4-4.2-4.3-4.4-4.5H219l-1.3,0.9l0.1,0.1c1.9,2.6,2.5,4.1,2.8,4.9
					L220.7,80.8z"/>
				<path class="st9" d="M268.5,75.5L268.5,75.5l-1.4,0.3v0.1c0.3,1.2,0.4,1.6,0.7,2.9c-0.4,0.1-1.3,0.3-1.6,0.4v-4.6h3.5V64.2h-3.5
					v-3.6c0.1-0.3,0.2-0.5,0.2-0.7s-0.2-0.4-0.6-0.4l-2.7-0.1v0.1c0.2,0.6,0.2,0.9,0.2,1.7v2.9h-3.5v10.5h3.5V80
					c-1.8,0.4-2.8,0.6-3.9,0.8h-0.2l0.8,2c0.1,0.2,0.2,0.3,0.4,0.3c0.2,0,0.4-0.2,0.6-0.4c2.4-0.8,4.7-1.6,6.9-2.5
					c0.2,1,0.2,1.8,0.3,2.3c0,0.1,0,0.3,0,0.4v0.2l2.6-1.2v-0.1C270.5,80.2,269.9,78.3,268.5,75.5z M266.2,73.4v-7.8h1v7.8H266.2z
					 M263.4,65.6v7.8h-1v-7.8H263.4z"/>
				<path class="st9" d="M246.3,83.4h2.6v-7.5l0.6,0.6l0.1-0.1c1.9-1.6,2.5-3.7,2.6-4.7h0.7v2.2c0,1.7,0.3,1.8,2,1.8h1.5v5.4
					c0,0.7,0,0.8-0.3,0.8c-0.3,0-1-0.1-1.8-0.2h-0.2l0.6,1.5h2.1c2.1,0,2.2-0.4,2.2-2.1V70.3h-12.7L246.3,83.4L246.3,83.4z
					 M256.4,71.7v2.6h-0.8c-0.8,0-0.8,0-0.8-0.7v-2L256.4,71.7L256.4,71.7z M250.2,71.7c-0.1,1.4-0.8,2.7-1.3,3.4v-3.4H250.2z"/>
				<polygon class="st9" points="256.1,76.6 249.1,76.6 249.1,78 251.2,78 251.2,82.3 253.8,82.3 253.8,78 256.1,78 				"/>
				<rect x="245.4" y="60.6" class="st9" width="14.2" height="1.3"/>
				<path class="st9" d="M258,68.8v-5.3h-10.8v5.3H258z M255.3,64.8v2.6H250v-2.6H255.3z"/>
				<path class="st9" d="M293,72.8l0.1,0.1l1.9-2.4l-0.1-0.1c-1-1.1-1.9-1.7-4.6-3.5l-0.1-0.1l-0.8,1.1l-0.1,0.1l0.1,0.1
					C290.5,69.2,292.2,71.4,293,72.8z"/>
				<path class="st9" d="M293.3,66.7l0.1,0.1l1.9-2.2l0.1-0.1l-0.1-0.1c-1.7-1.7-3.9-2.8-4.6-3.2l-0.1-0.1l-0.8,1l0.1,0.1
					C291.3,63.7,292,64.7,293.3,66.7z"/>
				<path class="st9" d="M288.9,74L288.9,74c-2.5-2.5-3.5-5.3-3.8-6.1v-0.5h3.4V66h-3.4v-3.8h0.1c0.5-0.1,1.4-0.2,2.6-0.4
					c0.3,0.1,0.4,0.1,0.6,0.1c0.3,0,0.4-0.2,0.4-0.3s-0.1-0.3-0.2-0.4l-1.5-1.8H287c-2.2,1.4-7.7,1.7-9.5,1.8h-0.2l0.6,1.4v0.1h0.1
					c1.2,0,2.6-0.1,4.1-0.2V66h-4.7v1.3h4.5c-0.9,3.7-2.7,7.1-5,9.5l-0.1,0.1l0.9,1l0.1-0.1c1.5-1.3,3-2.8,4.3-4.8v10.2h3v-11
					c0.5,0.7,1.4,1.7,2.8,2.9l0.1,0.1L288.9,74z"/>
				<path class="st9" d="M299.3,72.8V60.6c0.1-0.2,0.3-0.4,0.3-0.6c0-0.3-0.4-0.3-0.5-0.3l0,0l-2.7-0.1h-0.1v0.2
					c0.1,0.3,0.1,0.6,0.1,1.5v12.5l-8.2,2.4h-0.1l0.5,1.3l7.8-2.3v8.1h2.9v-9l3.7-1.1l-0.4-1.3L299.3,72.8z"/>
				<path class="st9" d="M319.3,71.6l-0.2-1.5l-0.1,0.1c-1.2,0.6-1.6,0.8-2.6,1.3h-0.1v-5.1h2.8V65h-2.8v-4.5
					c0.1-0.2,0.2-0.5,0.2-0.6c0-0.2-0.2-0.3-0.5-0.3l-2.8-0.1v0.1c0.1,0.6,0.1,1.2,0.1,1.9V65h-3.6v1.3h3.6v6.4
					c-0.1,0-0.2,0.1-0.3,0.1c-0.8,0.3-2.4,0.9-3.7,1.2h-0.1l0.7,2.2c0,0.2,0.2,0.3,0.3,0.3c0.2,0,0.4-0.2,0.5-0.5c1-0.5,1.3-0.6,2-1
					l0.6-0.3v5.9c0,0.8,0,1-0.7,1c-0.5,0-1-0.1-1.8-0.2h-0.2l0.3,1.7h2.9c2.3,0,2.3-0.7,2.3-2.5v-7.4
					C317.1,72.8,318.2,72.2,319.3,71.6L319.3,71.6z"/>
				<path class="st9" d="M335,81.9c-1.9-0.5-4.2-1.4-6.3-3.2c1.9-2,4-4.9,4.6-9.4v-0.1h-5.1V65h6.5v-1.4h-6.5v-3l0.1-0.1
					c0.1-0.2,0.3-0.3,0.3-0.6c0-0.2-0.2-0.4-0.4-0.4l-3.1-0.1l0.1,0.3c0.1,0.4,0.2,0.9,0.2,1.5v2.3h-6V65h6v4.2H320v1.4h9.9
					c-0.4,2.4-1.3,4.5-2.9,6.4c-1.2-1.6-2.1-3.7-2.4-5.8v-0.1l-2.9,0.8V72c0.7,3.5,2.8,6,3.6,6.8c-1.2,0.9-3.6,2.5-7.5,3.4h-0.2
					l0.8,1.3h0.1c4.5-0.9,7.1-2.5,8.3-3.3c0.9,0.7,3.3,2.3,7.2,3.2h0.1l1-1.3L335,81.9z"/>
			</g>
			<g>
				<g>
					<rect x="111.6" y="14.9" class="st7" width="5.6" height="5.3"/>
					<rect x="111.6" y="24.1" class="st8" width="5.4" height="21.4"/>
				</g>
				<polygon class="st8" points="146.1,45.5 151.8,45.5 151.8,33.4 165.3,33.4 165.3,28.4 151.8,28.4 151.8,19.2 167.3,19.2 
					167.3,14.3 146.1,14.3 				"/>
				<rect x="170.6" y="13.9" class="st8" width="5.4" height="31.6"/>
				<path class="st8" d="M195.9,35.1c0,3.4-1.9,5.8-4.8,5.8c-2.9,0-4.8-2.3-4.8-5.8V23.4h-5.4v12c0,6.1,4.1,10.1,10.2,10.1
					s10.2-4.1,10.2-10.1v-12h-5.4V35.1z"/>
				<path class="st8" d="M131.7,23.4c-6.1,0-10.2,4.1-10.2,10.1v12h5.4V33.9c0-3.4,2-5.8,4.8-5.8c2.9,0,4.8,2.3,4.8,5.8v11.7h5.4
					v-12C141.9,27.5,137.8,23.4,131.7,23.4z"/>
				<polygon class="st8" points="227.4,24.1 220.9,24.1 216.2,31 211.5,24.1 205,24.1 212.5,34.7 204.9,45.5 211.2,45.5 216.3,38.4 
					221.1,45.5 227.4,45.5 219.8,34.8 				"/>
				<path class="st10" d="M245.1,22.9v6.6h-4.6v2.1h4.6v14h2.5v-14h6.7v-2.1h-6.7v-6.6c0-3.2,1.9-5.2,4.8-5.2c0.6,0,1.2,0.1,1.9,0.3
					v-2.2c-0.8-0.2-1.6-0.3-2.3-0.3C247.9,15.5,245.1,18.4,245.1,22.9z"/>
				<g>
					<rect x="259.2" y="15.5" class="st7" width="2.6" height="5.2"/>
					<rect x="259.2" y="24.9" class="st10" width="2.5" height="20.7"/>
				</g>
				<path class="st10" d="M319.1,23.7c-5.9,0-10,4.5-10,11s4.2,10.9,10.2,10.9c4.2,0,7.6-2.1,8.8-5.5h-2.7c-1.1,2.3-3.4,3.4-6.1,3.4
					c-4.2,0-7.4-3.3-7.7-7.9h17.3v-0.8C328.8,28.3,325,23.7,319.1,23.7z M311.5,33.7c0.3-4.7,3.4-8,7.7-8c4.4,0,7,3.8,7.1,8H311.5z"
					/>
				<path class="st10" d="M341.8,25.8c3.4,0,5.8,1.9,6.5,5h2.5c-0.8-4.5-4.5-7.1-9.1-7.1c-6,0-10.2,4.5-10.2,11
					c0,6.4,4.2,10.9,10.2,10.9c4.6,0,8.2-2.7,9.1-7.1h-2.5c-0.7,3-3.2,5-6.5,5c-4.5,0-7.7-3.6-7.7-8.8
					C334.1,29.4,337.3,25.8,341.8,25.8z"/>
				<path class="st10" d="M364.8,24.3c-0.1,0-0.2,0-0.3,0c-0.2,0-0.4,0-0.6,0c-2.7,0-5,0.9-6.6,2.6V15.2h-2.5v18.2v12.2l0,0h2.5l0,0
					l0,0V33.9c0.4-4.2,3.2-7.4,7-7.4c0.2,0,0.3,0,0.4,0c2.6,0.3,4.6,2,5.3,4.6c0.2,0.7,0.3,1.5,0.3,2.4v12.1h2.5l0,0V33.3l0,0
					C372.9,28,369.7,24.3,364.8,24.3z"/>
				<path class="st10" d="M276.5,24.3c-5.3,0-9.1,3.6-9.1,9.1v12.2h2.5V33.4c0-4.2,2.8-7,6.5-7s6.6,2.7,6.6,7v12.1h2.5V33.3
					C285.6,27.9,281.8,24.3,276.5,24.3z"/>
				<polygon class="st10" points="298.6,15.8 296.1,15.8 284.8,15.8 284.8,17.9 296.1,17.9 296.1,45.5 298.6,45.5 298.6,17.9 
					309.8,17.9 309.8,15.8 				"/>
			</g>
		</g>
	</g>
	<g>
		<g>
			<path class="st11" d="M621.6,59.2l-0.8,0.6c-1.2,0.9-1.3,2.6-0.3,4c1,1.3,2.7,1.7,3.9,0.9l0.8-0.6c1.2-0.9,1.3-2.6,0.3-4
				C624.5,58.7,622.8,58.3,621.6,59.2z"/>
			<path class="st12" d="M603.1,30.3l-4-5c-0.6-0.7-1.4-1.1-2.4-1.1h-0.1c-1.8,0-3.3,1.5-3.3,3.2v22.5v23c0,1.8,1.5,3.2,3.3,3.2
				s3.2-1.5,3.2-3.2v-23V35.2c0.8,0.1,1.6-0.2,2.3-0.7C603.7,33.5,604.1,31.5,603.1,30.3z"/>
			<path class="st12" d="M634.6,72.8V49.9V27.4c0-1.8-1.5-3.2-3.2-3.2c-1.8,0-3.3,1.5-3.3,3.2v22.5V65c-0.8-0.1-1.6,0.2-2.3,0.7
				c-1.4,1.1-1.8,3.2-0.8,4.4l3.9,5c0.6,0.7,1.4,1.1,2.4,1.1h0.1c1.8,0,3.2-1.5,3.2-3.2L634.6,72.8
				C634.6,72.9,634.6,72.9,634.6,72.8z"/>
			<path class="st12" d="M608,36.7c-1-1.3-2.9-1.5-4.3-0.4c-1.4,1-1.7,3-0.8,4.3l12.7,17.2c0.9,1.3,2.9,1.5,4.3,0.4
				c1.4-1.1,1.8-3,0.9-4.3L608,36.7z"/>
		</g>
		<g>
			<path class="st11" d="M501.7,49.4v1c0,1.5,1.4,2.6,3,2.6c1.7,0,3-1.2,3-2.6v-1c0-1.5-1.4-2.6-3-2.6C503,46.8,501.7,48,501.7,49.4
				z"/>
			<path class="st11" d="M508.7,49.4v1c0,1.5,1.4,2.6,3,2.6c1.7,0,3-1.2,3-2.6v-1c0-1.5-1.4-2.6-3-2.6C510,46.8,508.7,48,508.7,49.4
				z"/>
			<path class="st11" d="M515.7,49.4v1c0,1.5,1.4,2.6,3,2.6c1.7,0,3-1.2,3-2.6v-1c0-1.5-1.4-2.6-3-2.6
				C517.1,46.8,515.7,48,515.7,49.4z"/>
			<path class="st12" d="M530.5,50.1c1.4-2.2,3.1-6.8,3.1-11.7c0-10.1-6.8-14.4-12.6-14.4c-0.4,0-2.4,0-4.3,0h-4.1h-17.8
				c-1.8,0-3.3,1.5-3.3,3.3v19.4h-6.8c-1.6,0-2.9,1.5-2.9,3.2c0,1.8,1.3,3.3,2.9,3.3h6.8v19.7c0,1.8,1.5,3.3,3.3,3.3h15h7h2.2
				c11.3,0,16.3-7.9,16.3-15.8C535.2,54.6,532.6,52.2,530.5,50.1z M518.9,69.6h-2.2l0,0H498V53.2c1.5-0.1,2.7-1.5,2.7-3.2
				s-1.2-3.1-2.7-3.2V30.6h18.7l0,0c1.7,0,3.3,0,3.9,0c1.4,0,2.4,0.2,3.5,1c1.9,1.3,2.9,3.6,2.9,6.8c0,5.9-1.8,7.9-2.9,8.8
				c-0.4,0.3-1.4,1.1-1.4,2.8l0,0c0,2,1.4,2.8,2,3.1c0.4,0.2,3.9,1.2,3.9,7.2C528.6,69,521.1,69.6,518.9,69.6z"/>
		</g>
		<g>
			<path class="st11" d="M664.4,42.5l0.7,0.7c1,1,2.9,0.9,4.1-0.3c1.2-1.2,1.4-3.1,0.4-4.1l-0.7-0.7c-1-1-2.9-0.9-4.1,0.3
				C663.5,39.7,663.4,41.5,664.4,42.5z"/>
			<path class="st12" d="M686,70.7l-17-20.1c-1.2-1.4-3.2-1.5-4.6-0.4c-1.4,1.2-1.5,3.2-0.4,4.6L681,75c0.6,0.8,1.6,1.1,2.5,1.1
				c0.8,0,1.5-0.3,2.1-0.8C687,74.2,687.2,72.1,686,70.7z"/>
			<path class="st12" d="M674.3,38.2l8.9-8.6c1.2-1.1,1.1-3.1-0.2-4.4s-3.2-1.4-4.4-0.3l-8.9,8.6c-1.2,1.1-1.1,3.1,0.2,4.4
				C671.2,39.2,673.1,39.3,674.3,38.2z"/>
			<path class="st12" d="M664.1,43.5c-1.3-1.3-3.2-1.4-4.4-0.3l-8,7.8v-1.1V27.3c0-1.8-1.5-3.3-3.3-3.3s-3.3,1.5-3.3,3.3v22.6v22.9
				c0,1.8,1.5,3.3,3.3,3.3s3.3-1.5,3.3-3.3v-16c1.2,0.7,2.7,0.7,3.7-0.3l8.9-8.6C665.4,46.8,665.3,44.8,664.1,43.5z"/>
		</g>
		<g>
			<path class="st11" d="M445.9,65.2c4.8,0,11.4-2.3,12.3-7.3c0.1-0.3,0.1-0.7,0.1-1c-0.2-1-1.2-0.3-1.7-0.1
				c-0.7,0.3-6.1,1.7-10.7,1.7c-4.5,0-10-1.4-10.7-1.7c-0.5-0.2-1.5-0.9-1.7,0.1c0,0.2,0.1,0.7,0.1,1
				C434.6,62.9,441.1,65.2,445.9,65.2z"/>
			<path class="st11" d="M466.5,26.1c-0.9,0-1.8,0.4-2.5,1c-1.4,1.4-1.4,3.6,0,5c5.2,5.2,7.8,12.4,7.4,19.7
				c-0.5,6.8-3.5,13-8.7,17.5c-4.7,4.1-10.6,6.3-16.8,6.3c-0.6,0-1.1,0-1.7-0.1c-9.6-0.7-18-6.6-21.7-15.4c-1.2-2.9-1.9-5.9-2-9
				c-0.1-1.9-1.6-3.4-3.5-3.4h-0.1c-1.9,0.1-3.5,1.7-3.4,3.7c0.2,4,1,7.8,2.6,11.5c4.8,11.3,15.4,18.8,27.6,19.7h0.1
				c0.7,0,1.5,0.1,2.3,0.1c7.8,0,15.4-2.9,21.4-8c6.6-5.7,10.5-13.6,11.1-22.3c0.6-9.3-2.8-18.5-9.4-25.2
				C468.4,26.4,467.5,26.1,466.5,26.1z"/>
			<path class="st12" d="M435.6,41.3c-2.3,0-4.2,1.6-4.1,3.6v1.4c0,2,1.9,3.6,4.2,3.6c2.3,0,4.2-1.6,4.2-3.6v-1.4
				C439.8,43,437.9,41.3,435.6,41.3z"/>
			<path class="st12" d="M456.2,41.3c-2.3,0-4.2,1.6-4.1,3.6v1.4c0,2,1.9,3.6,4.2,3.6c2.3,0,4.2-1.6,4.2-3.6v-1.4
				C460.4,43,458.5,41.3,456.2,41.3z"/>
			<path class="st12" d="M460.5,20.8c-3.6-1.8-7.4-2.9-11.3-3.3c-1-0.1-1.9,0.2-2.7,0.8c-0.8,0.6-1.2,1.5-1.3,2.5c0,0.3,0,0.6,0,1
				c0,0.1,0,0.2,0.1,0.3c0.4,1.5,1.7,2.7,3.2,2.8c3,0.3,6,1.2,8.8,2.5c0.9,0.4,1.9,0.5,2.8,0.2s1.7-1,2.1-1.9
				c0.4-0.8,0.5-1.7,0.3-2.5C462.2,22.2,461.5,21.3,460.5,20.8z"/>
			<path class="st12" d="M441.7,18.8c-0.9-0.7-2-0.9-3.1-0.7c-3.9,0.9-7.5,2.5-10.8,4.7c-0.8,0.5-1.4,1.4-1.6,2.3
				c-0.2,1,0,2,0.6,2.8c0.2,0.3,0.4,0.5,0.6,0.7c0.1,0.1,0.1,0.1,0.2,0.2c1.3,1,3,1,4.3,0.1c2.5-1.7,5.4-2.9,8.4-3.6
				c1-0.2,1.8-0.8,2.3-1.6c0.5-0.8,0.7-1.8,0.5-2.8C442.8,20.1,442.4,19.4,441.7,18.8z"/>
			<path class="st12" d="M425.2,29.4c-0.7-0.5-1.5-0.8-2.4-0.8c-1.1,0-2.1,0.6-2.8,1.4c-2.4,3.2-4.2,6.7-5.4,10.5
				c-0.3,0.9-0.2,1.9,0.3,2.8c0.5,0.9,1.3,1.5,2.2,1.8c0.3,0.1,0.6,0.1,0.9,0.1c0.1,0,0.2,0,0.3,0c1.6-0.1,2.9-1.1,3.4-2.6
				c0.9-2.9,2.3-5.7,4.2-8.1c0.6-0.8,0.9-1.8,0.7-2.7C426.5,30.9,426,30,425.2,29.4z"/>
		</g>
		<g>
			<path class="st11" d="M553.4,59.3v1c0,1.5,1.4,2.6,3.2,2.6c1.7,0,3.2-1.2,3.2-2.6v-1c0-1.5-1.4-2.6-3.2-2.6
				C554.8,56.7,553.4,57.8,553.4,59.3z"/>
			<path class="st13" d="M586.2,71.7l-20.6-45.5c-0.5-1.2-1.7-2-3.1-2l0,0l0,0c-1.3,0-2.5,0.8-3.1,2L539,71.7
				c-0.7,1.7,0.1,3.6,1.8,4.3c0.4,0.2,0.8,0.3,1.3,0.3c1.3,0,2.5-0.8,3.1-2l17.5-39.5l9.7,21.9h-8.7c-1.6,0-2.9,1.5-2.9,3.3
				s1.3,3.3,2.9,3.3h11.6l4.9,11.1c0.5,1.3,1.8,2,3.1,2c0.4,0,0.8-0.1,1.3-0.3C586.1,75.3,586.9,73.3,586.2,71.7z"/>
		</g>
		<g>
			<path class="st13" d="M881.2,66.2v-9.1c0-0.9-0.7-1.4-1.8-1.4s-1.9,0.5-1.9,1.4v9.1c0,0.9,0.9,1.4,1.9,1.4
				C880.4,67.7,881.2,67.2,881.2,66.2z"/>
			<path class="st13" d="M894.3,55.7c-1.1,0-1.9,0.5-1.9,1.4v9.1c0,0.9,0.9,1.4,1.9,1.4c1.1,0,1.8-0.5,1.8-1.4v-9.1
				C896.1,56.2,895.4,55.7,894.3,55.7z"/>
			<path class="st13" d="M977,29.2h23.3c1.1,0,2.1-0.9,2.1-2.1s-0.9-2.1-2.1-2.1H977c-1.2,0-2.1,0.9-2.1,2.1
				C974.9,28.3,975.9,29.2,977,29.2z"/>
			<path class="st13" d="M965.7,24.4l-10.9,8.4c-0.9,0.7-1.1,2-0.4,2.9c0.4,0.5,1,0.8,1.7,0.8c0.4,0,0.9-0.1,1.3-0.4l10.9-8.4
				c0.9-0.7,1.1-2,0.4-2.9C967.9,23.9,966.6,23.7,965.7,24.4z"/>
			<path class="st13" d="M965.7,39.1l-10.9,8.4c-0.9,0.7-1.1,2-0.4,2.9c0.4,0.5,1,0.8,1.7,0.8c0.4,0,0.9-0.1,1.3-0.4L961,48v26
				c0,1.2,0.9,2.1,2.1,2.1c1.2,0,2.1-0.9,2.1-2.1V44.8l3.1-2.3c0.9-0.7,1.1-2,0.4-2.9C967.9,38.6,966.6,38.4,965.7,39.1z"/>
			<path class="st13" d="M1003.5,40.5h-29.6c-1.2,0-2.1,0.9-2.1,2.1c0,1.2,0.9,2.1,2.1,2.1h17.3v25.2c0,1.3-0.3,1.9-1.5,1.9h-3.5
				l0,0h-0.1h-6.8c-1.2,0-2.1,0.9-2.1,2.1s0.9,2.1,2.1,2.1h6.8h0.1l0,0h4.5c3.3,0,4.6-1.6,4.6-5.1V44.7h8.3c1.1,0,2.1-0.9,2.1-2.1
				C1005.6,41.4,1004.7,40.5,1003.5,40.5z"/>
			<path class="st13" d="M895.8,69.8l-7.1,0.9V52h5.8c1.1,0,2-0.9,2-2s-0.9-2-2-2h-5.8v-7.3h5.8c1.1,0,2-0.9,2-2s-0.9-2-2-2H879
				c-1.1,0-2,0.9-2,2s0.9,2,2,2h5.8V48H879c-1.1,0-2,0.9-2,2s0.9,2,2,2h5.8v19.2l-7.5,0.9c-1.1,0.1-1.8,1.1-1.7,2.2s1.1,1.8,2.2,1.7
				l18.5-2.3c1.1-0.1,1.8-1.1,1.7-2.2C897.8,70.4,896.8,69.7,895.8,69.8z"/>
			<path class="st13" d="M927,72.3c-3.9-2.8-6.6-6.1-8.6-9.4l7.5-5.6c0.9-0.7,1.1-2,0.4-2.9c-0.7-0.9-2-1.1-2.9-0.4l-7,5.2
				c-1.4-3.1-2.2-5.8-2.5-7.4h6.2c3.6,0,5.1-1.3,5.1-4.7v-17c0-3.3-1.6-4.6-5.1-4.6h-15.3c-3.5,0-5.1,1.3-5.1,4.6v42.2v1.9
				c0,0,0.2,2.5,3.2,1.4l0,0l10.2-3.2c1.1-0.3,1.7-1.5,1.4-2.6s-1.5-1.7-2.6-1.4l-7.9,2.5v-19h5.6c0.3,1.9,1.3,6.2,3.9,11.1
				c0.1,0.3,0.2,0.5,0.3,0.7l0.1,0.1c2.2,4,5.6,8.3,10.5,11.9c0.4,0.3,0.8,0.4,1.2,0.4c0.6,0,1.3-0.3,1.7-0.9
				C928.1,74.3,927.9,73,927,72.3z M904.1,31.1c0-1.2,0.6-1.5,1.9-1.5h13.2c1.3,0,1.9,0.3,1.9,1.5v5.7h-17L904.1,31.1L904.1,31.1z
				 M904.1,40.8h17v5.7c0,1.2-0.6,1.5-1.9,1.5h-15.1V40.8z"/>
			<path class="st13" d="M893.4,26.4c-0.4-0.6-1-1-1.8-1h-10.7c-0.7,0-1.4,0.4-1.8,1l-4.3,7.1c-0.6,1-0.3,2.3,0.7,2.9
				c0.3,0.2,0.7,0.3,1.1,0.3c0.7,0,1.4-0.4,1.8-1l3.7-6.1h8.4l3.9,6.1c0.6,1,1.9,1.3,2.9,0.6c1-0.6,1.3-1.9,0.6-2.9L893.4,26.4z"/>
			<path class="st13" d="M769.5,70.7h-21.8V52.8h16.2c1.2,0,2.2-1,2.2-2.2s-1-2.2-2.2-2.2h-16.2V32.3h18.7c1.2,0,2.2-1,2.2-2.2
				s-1-2.2-2.2-2.2h-41.9c-1.2,0-2.2,1-2.2,2.2s1,2.2,2.2,2.2h18.7v16.1H727c-1.2,0-2.2,1-2.2,2.2s1,2.2,2.2,2.2h16.2v17.9h-21.8
				c-1.2,0-2.2,1-2.2,2.2s1,2.2,2.2,2.2h48c1.2,0,2.2-1,2.2-2.2C771.7,71.6,770.7,70.7,769.5,70.7z"/>
			<path class="st13" d="M813.8,34.8h14.4v3.8h-2.9l0,0h-5.1c-3.2,0-4.7,1.3-4.7,4.4v20.6c0,3.2,1.4,4.5,4.7,4.5h19.9
				c3.3,0,4.8-1.3,4.8-4.5V43c0-3.1-1.5-4.4-4.8-4.4h-7.9v-3.8h14.4c1.1,0,2-0.9,2-2c0-1.1-0.9-2-2-2h-7.8l2.3-3.9
				c0.5-0.9,0.2-2.1-0.7-2.7c-0.9-0.5-2.1-0.2-2.7,0.7l-3.3,5.8c0,0,0,0,0,0.1h-7.9c0,0,0,0,0-0.1l-3.3-5.8
				c-0.5-0.9-1.7-1.3-2.7-0.7c-0.9,0.5-1.3,1.7-0.7,2.7l2.3,3.9h-7.8c-1.1,0-2,0.9-2,2C811.9,33.9,812.8,34.8,813.8,34.8z
				 M840.7,62.8c0,1.1-0.5,1.5-1.6,1.5h-17.8c-1.2,0-1.7-0.4-1.7-1.5V59h21.1V62.8z M840.7,55.5h-21.1v-5h21.1V55.5z M840.7,43.7V47
				h-21.1v-3.3c0-1.2,0.5-1.5,1.7-1.5h17.8C840.2,42.2,840.7,42.5,840.7,43.7z"/>
			<path class="st13" d="M799.3,30.1c1.2,1.1,2.1,2.1,6.7,8.2c0.4,0.5,1,0.8,1.7,0.8c0.4,0,0.9-0.1,1.3-0.4c0.9-0.7,1.1-2,0.4-2.9
				c-4.8-6.3-5.8-7.3-7.1-8.6l-0.2-0.2c-0.8-0.8-2.1-0.8-2.9,0c-0.8,0.8-0.8,2.1,0,2.9L799.3,30.1z"/>
			<path class="st13" d="M847.6,71.6c-0.2,0-21.2,0.8-29.1,0c-5.3-0.5-7.8-4-8.6-5.5v-14c0-2.1-0.6-3.5-1.9-4.2
				c-0.4-0.3-0.8-0.4-1.3-0.4h-0.5c-0.2,0-0.3,0-0.5,0H804l0,0h-5.1c-1.1,0-2.1,0.9-2.1,2.1c0,1.2,0.9,2.1,2.1,2.1h5.1l0,0h0.3
				c1,0,1.4,0.3,1.4,1.4v12.1l-7.6,7c-0.8,0.8-0.9,2.1-0.1,3c0.8,0.8,2.1,0.9,2.9,0.1l6.2-5.8c1.7,2.4,5.1,5.8,11,6.3
				c2.8,0.3,7.2,0.4,11.8,0.4c8.8,0,17.2-0.3,17.8-0.4c1.2,0,2.1-1,2-2.2C849.8,72.4,848.8,71.5,847.6,71.6z"/>
		</g>
	</g>
</g>
</svg>
