<?xml version="1.0" encoding="utf-8"?>
<!-- Generator: Adobe Illustrator 24.2.1, SVG Export Plug-In . SVG Version: 6.00 Build 0)  -->
<svg version="1.1" id="圖層_1"
	xmlns="http://www.w3.org/2000/svg"
	xmlns:xlink="http://www.w3.org/1999/xlink" x="0px" y="0px" viewBox="0 0 1843.6 800" style="enable-background:new 0 0 1843.6 800;" xml:space="preserve">
	<style type="text/css">
	.st0{fill:#193563;}
	.st1{fill:none;}
	.st2{fill:#326398;}
	.st3{fill:#112E53;}
	.st4{}
	.st5{font-family:'NotoSansTC-Medium-90ms-RKSJ-H';}
	.st6{font-size:56px;}
	.st7{font-family:'NotoSansTC-Regular-90ms-RKSJ-H';}
	.st8{font-size:36.3809px;}
	.st9{fill:#124385;}
	.st10{fill:#C29B61;}
	.st11{opacity:0.82;fill:url(#SVGID_1_);}
	.st12{opacity:0.21;fill:url(#SVGID_2_);}
	.st13{opacity:0.82;fill:url(#SVGID_3_);}
	.st14{opacity:0.21;fill:url(#SVGID_4_);}
	.st15{opacity:0.82;fill:url(#SVGID_5_);}
	.st16{opacity:0.21;fill:url(#SVGID_6_);}
	.st17{fill:#CE391A;}
	.st18{fill:#083A6E;}
	.st19{fill:#3D3A39;}

	.draw{
		animation: dash 2s linear forwards infinite;
	}

	@keyframes dash {
		0%{
			fill: url(#line1);
		}
		100% {
			fill: url(#line2);
		}
		0%{
			fill: url(#SVGID3);
		}
	}
	</style>
	<g>
		<polygon class="st0" points="645.4,332.3 386.3,332.3 386.3,317.9 353.4,336.9 386.3,355.9 386.3,341.5 645.4,341.5 	"/>
	</g>
	<polygon class="st1" points="1401.1,438 1109,443.9 1109,481.9 1401.1,481.9 "/>
	<g>
		<polygon class="st0" points="1401.1,458.3 1141.9,458.3 1141.9,443.9 1109,462.9 1141.9,481.9 1141.9,467.5 1401.1,467.5 	"/>
	</g>
	<g>
		<g>
			<g>
				<path class="st2" d="M1423.8,440.5c10.1,12,20.2,24,30.2,36.1c6.1,7.3,12.3,14.6,18.4,22c10.2,12.4,23.5,18.4,39.4,18.5
				c24.4,0.2,48.8,0.3,73.2-0.1c8.9-0.2,14.8,4,20.2,10c0.7,0.8,0.5,1.5,0.3,2.4c-1.4,6.6,0.6,12.3,5.3,17
				c8.7,8.6,17.4,17.2,26.2,25.7c1,1,2.2,1.7,3.3,2.5c1.2,0,2.3,0,3.4,0c4.5-3.4,8.2-7.7,12.1-11.7c17.8-17.8,35.6-35.8,53.4-53.7
				c3.8-3.9,3.8-6.6-0.1-10.5c-8-8.1-16.1-16.1-24.1-24.2c-4.5-4.6-9.5-7.7-16.2-6.9c-1.3,0.1-1.7-0.6-2.1-1.5
				c-19-33.5-60.5-41.6-90.3-30.1c-1.6,0.6-3.1,0.9-4.7,0.9c-19.3,0-38.6,0.1-57.9-0.1c-8.4-0.1-15.7,1.9-20.5,7.6
				c-6.5-6.1-13.1-12-19.5-18.3c-5.5-5.3-10.6-11-16-16.4c-12.2-12.3-32.8-8-38.1,8.2C1417.1,425.8,1418,433.7,1423.8,440.5z
				 M1618.5,528.8c15.9-16,31.9-31.9,47.9-47.9c1.2-1.2,2.6-2,4.7-2c1.7-0.1,3.2,1,4.6,2.4c6.9,6.9,13.7,13.9,20.7,20.7
				c1.4,1.4,1.4,2.2,0,3.6c-17.7,17.7-35.3,35.5-53,53.3c-1.3,1.3-2,1.4-3.4,0c-7.1-7.1-14.3-14.1-21.4-21.2
				C1615.7,535,1615.6,531.8,1618.5,528.8z M1433.4,417.1c4.8-4.4,11.5-4.1,16.4,0.9c12.2,12.4,24.3,24.9,36.4,37.4
				c0.8,0.8,1.1,1.6,1.1,2.8c-0.1,14.7,9.6,24.5,24.3,24.5c14.5,0,29.1,0,43.6,0c0.9,0,1.7,0,2.6-0.1c2.8-0.5,4.8-2.7,4.9-5.5
				c0.1-2.8-1.8-5.1-4.6-5.7c-1-0.2-2.1-0.2-3.1-0.2c-14.8,0-29.7,0-44.5,0c-7.3,0-12.4-5.8-11.6-13c0.7-5.8,5.5-9.9,12.1-9.9
				c20.8,0,41.5,0,62.3,0c1.7,0,3.4-0.1,5.1-0.8c12.1-5,24.6-6.1,37.4-3.8c17.6,3.1,31.3,12.1,40.7,27.5c1.2,1.9,0.8,2.9-0.7,4.3
				c-13.7,13.6-27.4,27.3-41,41c-1.7,1.7-2.6,1.8-4.2,0c-7-7.9-15.8-11.2-26.3-10.9c-11.7,0.3-23.3,0.1-35,0.1
				c-12.4,0-24.9,0.1-37.3,0c-11.2-0.1-21.4-3.5-28.7-12c-17.1-19.9-33.7-40.1-50.5-60.2C1428.4,428,1428.7,421.4,1433.4,417.1z"/>
			</g>
			<g>
				<g>
					<path class="st2" d="M1536.1,280.7c-35-0.1-63.4,28.3-63.3,63.2c0.1,34.7,28.3,62.9,63,63c34.8,0,63.2-28.3,63.2-63.1
					C1599,309.1,1570.8,280.8,1536.1,280.7z M1536,395.5c-28.4,0.1-51.7-23.1-51.7-51.5c0-28.5,23.1-51.7,51.5-51.7
					c28.5,0,51.6,23,51.7,51.5C1587.6,372.2,1564.5,395.4,1536,395.5z"/>
				</g>
				<g>
					<path class="st2" d="M1539.5,338.7c-1.8-0.5-3.6-0.4-5.4-0.7c-3.6-0.6-5.8-3.8-4.8-7.1c0.9-3.4,4.3-5,7.7-3.8
					c1.7,0.6,2.9,1.8,4.3,2.8c2.7,2,6,1.8,8-0.6c2-2.3,1.8-5.6-0.5-8c-0.5-0.5-1.1-1-1.7-1.5c-2.8-2.3-5.8-7.4-6.6-11.2
					c-0.6-3-3-4.9-5.9-4.8c-3,0.2-5.2,2.5-5.4,5.6c-0.1,1.4-0.1,2.9,0,4.3c0.2,1.7-0.3,2.7-2.1,3.4c-2.8,1.1-4.9,3.2-6.6,5.8
					c-7.3,11.4-0.1,25.5,13.7,26.6c2.9,0.3,5.2,1.3,6.1,4.3c0.7,2.5-0.1,4.5-2.1,6.1c-2.1,1.7-5.1,1.5-7.7-0.4
					c-1.1-0.8-2-1.8-2.9-2.7c-2.7-2.6-6-2.9-8.4-0.6c-2.4,2.3-2.3,5.7,0.1,8.5c1.3,1.5,2.6,3.3,4.5,4c4.7,1.8,6.2,4.9,5.6,9.8
					c-0.4,3.1,2.4,5.4,5.4,5.5c2.9,0.1,5.5-2,5.8-5.2c0.2-1.6,0.2-3.3,0.1-4.9c-0.1-1.6,0.4-2.5,1.9-3.3c6.2-3.1,9.2-8.4,9.5-14.5
					C1552,347.7,1546.9,340.9,1539.5,338.7z"/>
				</g>
			</g>
		</g>
		<g>
			<g>
				<path class="st3" d="M315.9,407.6c-9.6-11.4-19.2-22.9-28.7-34.3c-5.8-7-11.7-13.9-17.5-20.9c-9.7-11.8-22.4-17.5-37.4-17.6
				c-23.2-0.2-46.4-0.3-69.6,0.1c-8.4,0.1-14.1-3.9-19.2-9.5c-0.7-0.8-0.4-1.4-0.3-2.2c1.3-6.3-0.5-11.6-5.1-16.1
				c-8.3-8.2-16.6-16.3-24.9-24.5c-0.9-0.9-2.1-1.6-3.1-2.4c-1.1,0-2.2,0-3.3,0c-4.3,3.2-7.8,7.3-11.5,11.1
				c-17,17-33.8,34-50.7,51.1c-3.6,3.7-3.6,6.3,0.1,10c7.6,7.7,15.3,15.3,22.9,23c4.3,4.4,9,7.3,15.4,6.6c1.2-0.1,1.6,0.6,2,1.4
				c18.1,31.9,57.5,39.6,85.9,28.6c1.5-0.6,2.9-0.8,4.5-0.8c18.4,0,36.7-0.1,55.1,0.1c8,0.1,14.9-1.8,19.5-7.2
				c6.2,5.8,12.5,11.5,18.5,17.4c5.2,5.1,10.1,10.5,15.2,15.6c11.6,11.7,31.2,7.6,36.2-7.8C322.3,421.6,321.4,414.1,315.9,407.6z
				 M130.8,323.6c-15.2,15.2-30.4,30.3-45.5,45.5c-1.2,1.1-2.4,1.9-4.5,1.9c-1.6,0.1-3-1-4.3-2.3c-6.5-6.6-13-13.2-19.7-19.7
				c-1.4-1.4-1.3-2.1,0-3.4c16.8-16.9,33.6-33.8,50.4-50.7c1.2-1.3,1.9-1.4,3.2,0c6.7,6.8,13.6,13.4,20.3,20.2
				C133.4,317.8,133.5,320.9,130.8,323.6z M306.8,429.9c-4.6,4.1-11,3.9-15.6-0.9c-11.6-11.8-23.1-23.7-34.6-35.6
				c-0.8-0.8-1.1-1.5-1.1-2.6c0.1-14-9.1-23.3-23.1-23.3c-13.8,0-27.6,0-41.5,0c-0.8,0-1.6,0-2.4,0.1c-2.7,0.4-4.6,2.6-4.6,5.3
				c-0.1,2.7,1.7,4.9,4.4,5.4c1,0.2,2,0.1,3,0.1c14.1,0,28.2,0,42.3,0c6.9,0,11.8,5.5,11,12.4c-0.6,5.5-5.3,9.4-11.5,9.4
				c-19.7,0-39.5,0-59.2,0c-1.6,0-3.3,0.1-4.8,0.7c-11.5,4.8-23.4,5.8-35.6,3.6c-16.8-3-29.8-11.5-38.7-26.1
				c-1.1-1.8-0.7-2.7,0.6-4.1c13-12.9,26-25.9,39-39c1.6-1.6,2.4-1.8,4,0c6.6,7.5,15,10.6,25,10.3c11.1-0.3,22.2-0.1,33.3-0.1
				c11.8,0,23.6-0.1,35.5,0c10.6,0.1,20.3,3.3,27.3,11.5c16.2,18.9,32.1,38.1,48,57.3C311.6,419.5,311.3,425.8,306.8,429.9z"/>
			</g>
			<g>
				<g>
					<path class="st3" d="M219.9,444.4c-33.3-0.1-60.2,26.9-60.2,60.1c0.1,33,26.9,59.8,59.9,59.9c33.1,0,60.1-26.9,60.1-60
					C279.6,471.4,252.8,444.5,219.9,444.4z M219.7,553.5c-27,0.1-49.1-22-49.2-49c0-27.1,21.9-49.1,49-49.2
					c27.1,0,49.1,21.9,49.2,49C268.8,531.3,246.8,553.4,219.7,553.5z"/>
				</g>
				<g>
					<path class="st3" d="M223,499.6c-1.7-0.5-3.4-0.4-5.1-0.7c-3.5-0.6-5.5-3.6-4.6-6.8c0.9-3.2,4-4.7,7.3-3.6
					c1.6,0.5,2.8,1.7,4.1,2.6c2.6,1.9,5.7,1.7,7.6-0.6c1.9-2.2,1.7-5.4-0.5-7.6c-0.5-0.5-1.1-1-1.6-1.5c-2.7-2.2-5.6-7-6.3-10.6
					c-0.6-2.8-2.9-4.7-5.6-4.5c-2.9,0.1-5,2.3-5.1,5.4c-0.1,1.4-0.1,2.7,0,4.1c0.2,1.6-0.3,2.6-2,3.3c-2.7,1.1-4.7,3.1-6.3,5.5
					c-6.9,10.8-0.1,24.2,13,25.3c2.8,0.2,4.9,1.2,5.8,4.1c0.7,2.4-0.1,4.3-2,5.8c-2,1.6-4.8,1.4-7.3-0.4c-1-0.7-1.9-1.7-2.8-2.6
					c-2.5-2.5-5.7-2.7-8-0.6c-2.3,2.2-2.2,5.4,0.1,8c1.3,1.5,2.5,3.1,4.2,3.8c4.4,1.7,5.9,4.6,5.3,9.3c-0.3,2.9,2.3,5.1,5.1,5.3
					c2.8,0.1,5.2-1.9,5.6-4.9c0.2-1.5,0.2-3.1,0.1-4.6s0.4-2.3,1.9-3.1c5.8-3,8.7-8,9.1-13.8C235,508.1,230.1,501.7,223,499.6z"/>
				</g>
			</g>
		</g>
	</g>
	<defs>
		<linearGradient id="left-to-right">
			<stop offset="0" stop-color="#13345F">
				<animate id="a" dur="3s" begin="0s;c.end+0s" attributeName="offset" fill="freeze" repeatCount="indefinite" from="0" to="1" />
			</stop>
			<stop offset="0" stop-color="#ffffff00">
				<animate id="b" dur="3s" begin="0s;d.end+3s" attributeName="offset" fill="freeze" repeatCount="indefinite" from="0" to="1" />
			</stop>

		</linearGradient>
	</defs>
	<defs>
		<linearGradient id="right-to-left">
			<stop offset="0" stop-color="#ffffff00">
				<animate id="c" dur="3s" begin="0s;a.end+3s" attributeName="offset" fill="freeze" repeatCount="indefinite" from="1" to="0" />
			</stop>
			<stop offset="0" stop-color="#13345F">
				<animate id="d" dur="3s" begin="0s;b.end+3s" attributeName="offset" fill="freeze" repeatCount="indefinite" from="1" to="0" />
			</stop>
		</linearGradient>
	</defs>
	<path class="st4" fill="url(#left-to-right)" d="M1374.1,220.5l-19.1-39.8l-7.4,15.5c-3-3.1-44.9-45.9-120.5-88.1c-72-40.1-190.1-88-344.5-88
	c-154.3,0-276.2,47.8-351.3,87.9c-81.4,43.5-127,87.7-127.5,88.2l3.6,7.8c0.4-0.4,45.4-44,126.1-87.1
	C608.1,77,729.2,29.5,882.6,29.5c153.2,0,270.5,47.4,341.9,87.2c76.5,42.6,118.1,85.7,119.4,87.1l-8,16.6L1374.1,220.5L1374.1,220.5
	z"/>
	<path class="st4" fill="url(#right-to-left)" d="M403.8,589.5l19.1,39.8l7.4-15.5c3,3.1,44.9,45.9,120.5,88.1c72,40.1,190.1,88,344.5,88
	c154.3,0,276.2-47.8,351.3-87.9c81.4-43.5,127-87.7,127.5-88.2l-3.6-7.8c-0.4,0.4-45.4,44-126.1,87.1
	c-74.6,39.8-195.7,87.3-349.1,87.3c-153.2,0-270.5-47.4-341.9-87.2c-76.5-42.6-118-85.7-119.4-87.1l8-16.6H403.8z"/>
	<text transform="matrix(1 0 0 1 164.6091 243.8951)" class="st0 st5 st6">投資人</text>
	<text transform="matrix(1 0 0 1 1451.2386 243.8951)" class="st2 st5 st6">借款人</text>
	<text transform="matrix(1 0 0 1 177.3978 51.7455)" class="st3 st7 st8">提供資金幫他人圓夢 </text>
	<text transform="matrix(1 0 0 1 217.8535 95.4055)" class="st3 st7 st8">並獲得合理報酬</text>
	<text transform="matrix(1 0 0 1 1378.2849 52.6919)" class="st2 st7 st8">取得投資人資金</text>
	<text transform="matrix(1 0 0 1 1305.5234 96.3519)" class="st2 st7 st8">解決生活所需及實現夢想</text>
	<text transform="matrix(1 0 0 1 1206.9421 350.6115)" class="st2 st7 st8">借款人</text>
	<text transform="matrix(1 0 0 1 1152.3707 394.2715)" class="st2 st7 st8">定期償還本息</text>
	<text transform="matrix(1 0 0 1 462.3746 424.6571)" class="st3 st7 st8">投資人</text>
	<text transform="matrix(1 0 0 1 407.803 468.3171)" class="st3 st7 st8">定期回收本息</text>
	<polygon class="st9" points="907.8,445.7 907.8,445.7 907.8,445.7 "/>
	<polygon class="st10" points="907.8,445.7 907.8,445.7 907.8,445.7 "/>
	<polygon class="st9" points="900.9,422.6 900.9,422.6 900.9,422.6 "/>
	<polygon class="st10" points="900.9,422.6 900.9,422.6 900.9,422.6 "/>
	<g>
		<g>
			<path class="st9" d="M1033.5,187.7c-7.1-5.6-16.5-11-28.1-13.7c-30.2-7-63.4,7-84.2,35.4l0,0h0l0,0c34.8-5.9,57.2,2.5,68.2,8.1
			c23,11.6,41.1,33.4,52.5,61.9c9.5,23.7,14.3,52,13.4,82.8c0,0.9-0.1,1.8-0.1,2.7c-0.4,10.3-1.4,20.8-3.1,31.6
			c-1.4,8.6-3.1,17.3-5.4,26.1l0,0c0,0,22.4-64.9,22.8-130.2c0.2-25.4-3-50.9-12.2-72.6C1049.9,202.4,1038.5,191.7,1033.5,187.7z"/>
			<linearGradient id="SVGID_1_" gradientUnits="userSpaceOnUse" x1="1008.0906" y1="266.0174" x2="1055.4514" y2="167.7874">
				<stop offset="0" style="stop-color:#FFFFFF"/>
				<stop offset="1" style="stop-color:#231815"/>
			</linearGradient>
			<path class="st11" d="M921.2,209.4L921.2,209.4L921.2,209.4L921.2,209.4L921.2,209.4L921.2,209.4c34.8-5.9,57.2,2.5,68.2,8.1
			c23,11.6,41.1,33.4,52.5,61.9c9.5,23.7,14.3,52,13.4,82.8c0,0.9-0.1,1.8-0.1,2.7c-0.4,10.3-1.4,20.8-3.1,31.6
			c-1.4,8.6-3.1,17.3-5.4,26.1l0,0c0,0,22.4-64.9,22.8-130.2C1063.5,156.5,921.2,209.4,921.2,209.4z"/>
			<linearGradient id="SVGID_2_" gradientUnits="userSpaceOnUse" x1="945.259" y1="216.4942" x2="1074.1953" y2="239.7859">
				<stop offset="0" style="stop-color:#FFFFFF;stop-opacity:0"/>
				<stop offset="0.1075" style="stop-color:#D8F0FC;stop-opacity:0.2232"/>
				<stop offset="0.2825" style="stop-color:#9FDBF6;stop-opacity:0.5865"/>
				<stop offset="0.4124" style="stop-color:#7CCDF3;stop-opacity:0.8561"/>
				<stop offset="0.4817" style="stop-color:#6EC8F2"/>
				<stop offset="0.5437" style="stop-color:#85D1F4;stop-opacity:0.8804"/>
				<stop offset="0.6956" style="stop-color:#B9E5F9;stop-opacity:0.5873"/>
				<stop offset="0.8278" style="stop-color:#DFF3FC;stop-opacity:0.3323"/>
				<stop offset="0.9336" style="stop-color:#F6FCFE;stop-opacity:0.128"/>
				<stop offset="1" style="stop-color:#FFFFFF;stop-opacity:0"/>
			</linearGradient>
			<path class="st12" d="M1069.6,292.4c0.2-25.4-3-50.9-12.2-72.6c-7.5-17.4-19-28.1-23.9-32.1c-7.1-5.6-16.5-11-28.1-13.7
			c-30.2-7-63.4,7-84.2,35.4C921.2,209.4,1063.5,156.5,1069.6,292.4z"/>
		</g>
		<g>
			<path class="st9" d="M1007.2,540c8.4-3.4,17.7-8.8,25.8-17.6c21-22.7,25.4-58.5,11.1-90.7l0,0v0l0,0
			c-12.1,33.2-30.6,48.4-40.9,55.2c-21.5,14.2-49.4,19.1-79.8,14.8c-25.3-3.5-52.2-13.4-78.6-29.5c-0.8-0.5-1.5-0.9-2.3-1.4
			c-8.7-5.4-17.4-11.6-25.9-18.4c-6.8-5.4-13.5-11.3-20-17.6c0,0,0,0,0,0c0,0,45.2,51.7,101.6,84.5c22,12.8,45.7,22.6,69,25.5
			C986.3,547,1001.3,542.3,1007.2,540z"/>

			<linearGradient id="SVGID_3_" gradientUnits="userSpaceOnUse" x1="-2859.6372" y1="3233.4685" x2="-2812.2764" y2="3135.2385" gradientTransform="matrix(-0.4965 0.868 -0.868 -0.4965 2338.6089 4566.8403)">
				<stop offset="0" style="stop-color:#FFFFFF"/>
				<stop offset="1" style="stop-color:#231815"/>
			</linearGradient>
			<path class="st13" d="M1044.1,431.8L1044.1,431.8L1044.1,431.8L1044.1,431.8L1044.1,431.8L1044.1,431.8
			c-12.1,33.2-30.6,48.4-40.9,55.2c-21.5,14.2-49.4,19.1-79.8,14.8c-25.3-3.5-52.2-13.4-78.6-29.5c-0.8-0.5-1.5-0.9-2.3-1.4
			c-8.7-5.4-17.4-11.6-25.9-18.4c-6.8-5.4-13.5-11.3-20-17.6c0,0,0,0,0,0c0,0,45.2,51.7,101.6,84.5
			C1019.4,581.5,1044.1,431.8,1044.1,431.8z"/>

			<linearGradient id="SVGID_4_" gradientUnits="userSpaceOnUse" x1="-2922.4688" y1="3183.9453" x2="-2793.5325" y2="3207.2368" gradientTransform="matrix(-0.4965 0.868 -0.868 -0.4965 2338.6089 4566.8403)">
				<stop offset="0" style="stop-color:#FFFFFF;stop-opacity:0"/>
				<stop offset="0.1075" style="stop-color:#D8F0FC;stop-opacity:0.2232"/>
				<stop offset="0.2825" style="stop-color:#9FDBF6;stop-opacity:0.5865"/>
				<stop offset="0.4124" style="stop-color:#7CCDF3;stop-opacity:0.8561"/>
				<stop offset="0.4817" style="stop-color:#6EC8F2"/>
				<stop offset="0.5437" style="stop-color:#85D1F4;stop-opacity:0.8804"/>
				<stop offset="0.6956" style="stop-color:#B9E5F9;stop-opacity:0.5873"/>
				<stop offset="0.8278" style="stop-color:#DFF3FC;stop-opacity:0.3323"/>
				<stop offset="0.9336" style="stop-color:#F6FCFE;stop-opacity:0.128"/>
				<stop offset="1" style="stop-color:#FFFFFF;stop-opacity:0"/>
			</linearGradient>
			<path class="st14" d="M898.4,519.4c22,12.8,45.7,22.6,69,25.5c18.9,2.1,33.8-2.5,39.8-4.8c8.4-3.4,17.7-8.8,25.8-17.6
			c21-22.7,25.4-58.5,11.1-90.7C1044.1,431.8,1019.4,581.5,898.4,519.4z"/>
		</g>
		<g>
			<path class="st9" d="M715.3,340.6c-1.3,9-1.3,19.8,2.2,31.2c9.1,29.6,37.9,51.4,72.9,55.1l0,0v0l0,0
			c-22.6-27.1-26.5-50.8-27.2-63.1c-1.5-25.7,8.3-52.3,27.2-76.4c15.7-20.1,37.8-38.5,64.9-53.2c0.8-0.4,1.6-0.8,2.4-1.2
			c9.1-4.8,18.7-9.2,28.9-13.1c8.1-3.1,16.6-6,25.3-8.5c0,0,0,0,0,0c0,0-67.4,13.2-124.1,45.5c-22.1,12.6-42.5,28.1-56.7,46.9
			C719.8,319.1,716.3,334.3,715.3,340.6z"/>

			<linearGradient id="SVGID_5_" gradientUnits="userSpaceOnUse" x1="1624.733" y1="5235.6782" x2="1672.0939" y2="5137.4482" gradientTransform="matrix(-0.5016 -0.8651 0.8651 -0.5016 -2918.3657 4355.2783)">
				<stop offset="0" style="stop-color:#FFFFFF"/>
				<stop offset="1" style="stop-color:#231815"/>
			</linearGradient>
			<path class="st15" d="M790.5,426.9L790.5,426.9L790.5,426.9L790.5,426.9L790.5,426.9L790.5,426.9c-22.6-27.1-26.5-50.8-27.2-63.1
			c-1.5-25.7,8.3-52.3,27.2-76.4c15.7-20.1,37.8-38.5,64.9-53.2c0.8-0.4,1.6-0.8,2.4-1.2c9.1-4.8,18.7-9.2,28.9-13.1
			c8.1-3.1,16.6-6,25.3-8.5c0,0,0,0,0,0c0,0-67.4,13.2-124.1,45.5C673.3,330.3,790.5,426.9,790.5,426.9z"/>

			<linearGradient id="SVGID_6_" gradientUnits="userSpaceOnUse" x1="1561.9014" y1="5186.1553" x2="1690.8376" y2="5209.4468" gradientTransform="matrix(-0.5016 -0.8651 0.8651 -0.5016 -2918.3657 4355.2783)">
				<stop offset="0" style="stop-color:#FFFFFF;stop-opacity:0"/>
				<stop offset="0.1075" style="stop-color:#D8F0FC;stop-opacity:0.2232"/>
				<stop offset="0.2825" style="stop-color:#9FDBF6;stop-opacity:0.5865"/>
				<stop offset="0.4124" style="stop-color:#7CCDF3;stop-opacity:0.8561"/>
				<stop offset="0.4817" style="stop-color:#6EC8F2"/>
				<stop offset="0.5437" style="stop-color:#85D1F4;stop-opacity:0.8804"/>
				<stop offset="0.6956" style="stop-color:#B9E5F9;stop-opacity:0.5873"/>
				<stop offset="0.8278" style="stop-color:#DFF3FC;stop-opacity:0.3323"/>
				<stop offset="0.9336" style="stop-color:#F6FCFE;stop-opacity:0.128"/>
				<stop offset="1" style="stop-color:#FFFFFF;stop-opacity:0"/>
			</linearGradient>
			<path class="st16" d="M787.8,256.9c-22.1,12.6-42.5,28.1-56.7,46.9c-11.3,15.3-14.8,30.5-15.8,36.8c-1.3,9-1.3,19.8,2.2,31.2
			c9.1,29.6,37.9,51.4,72.9,55.1C790.5,426.9,673.3,330.3,787.8,256.9z"/>
		</g>
		<g>
			<g>
				<rect x="819.5" y="313.7" class="st17" width="17.8" height="16.8"/>
				<path class="st18" d="M824.9,342.9c-2.7,0-5,2.1-5,4.8v63.1h10.2h2c2.7,0,5-2.1,5-4.8v-8.6v-54.5H824.9z"/>
			</g>
			<g>
				<path class="st18" d="M928.7,327.5v-10.9c0-2.6-2.2-4.8-5-4.8h-62.2v98.9h13c0,0,0.1,0,0.1,0c0,0,0.1,0,0.1,0
				c2.7-0.1,4.8-2.1,4.8-4.7c0,0,0-0.1,0-0.1c0,0,0-0.1,0-0.1v-33.6h42.8v-10.8c0,0,0-0.1,0-0.1s0-0.1,0-0.1
				c-0.1-2.6-2.2-4.6-4.9-4.7c0,0-0.1,0-0.1,0s-0.1,0-0.1,0h-37.8v-29.1H928.7z"/>
				<path class="st18" d="M1021.8,327.6v-11c0-2.6-2.2-4.8-5-4.8h-27.2h-18.1h-32.2v10.8c0,0,0,0.1,0,0.1s0,0.1,0,0.1
				c0.1,2.6,2.2,4.6,4.9,4.6c0,0,0,0,0.1,0c0,0,0,0,0.1,0h27.2v0.8h0v82.4h12.9c0.1,0,0.2,0,0.3,0c0.1,0,0.2,0,0.3,0
				c2.6-0.1,4.7-2.2,4.7-4.7c0,0,0,0,0,0s0,0,0,0v-78.4H1021.8z"/>
			</g>
		</g>
	</g>
	<g>
		<g>
			<path class="st19" d="M756.2,591.7l-0.1,0.3c-0.8,3.3-2.1,6-4,8.6l-0.1,0.2l2.7,1.5l0.1-0.1c2.6-2,4.7-4.3,6.3-6.2
			c0.6-0.2,1.2-0.4,1.2-0.9c0-0.4-0.4-0.6-0.7-0.8l-0.1,0.2l0,0l0,0l0,0l0.1-0.2L756.2,591.7z"/>
			<path class="st19" d="M751.1,591.1h14v-2.7h-14.5c1-0.6,2.4-1.6,5.8-4.4c0.8-0.2,1.4-0.4,1.4-1c0-0.4-0.4-0.5-0.9-0.7l-5.2-2
			l-0.2-0.1l-0.1,0.2c-0.7,1.9-2.6,4.7-4,6.3l-0.2,0.2l2.7,1.5h-14.4l4.5-2.6l-0.2-0.2c-2.3-2.1-7.6-5.2-8.2-5.5l-0.1-0.1l-2.6,2
			l0.3,0.3c2.5,2.6,4,4.7,4.8,6.1h-12.9v2.7h13.9v11.2h-5.8l4.6-3.2l0.2-0.1l-0.1-0.2c-1.8-2.8-5.3-5.9-6.9-7.1l-0.1-0.1l-2.5,1.6
			l0.1,0.2c2,2.8,2.6,4.1,4.5,8.8l0.1,0.2h-10.7v2.6h49.1v-2.6h-16.4V591.1z M745.5,591.1v11.2h-4.8v-11.2H745.5z"/>
			<path class="st19" d="M726.1,627.5h6v-2.1h22.1v2.1h6v-20h-34.1V627.5z M732.1,615.1v-4.9h22.1v4.9H732.1z M754.2,617.8v5.1h-22.1
			v-5.1H754.2z"/>
			<path class="st19" d="M828.8,619.1v-2.7h-9.2V611h6.9v-2.7h-6.9v-5.1h6.9v-2.6h-6.9v-5.1h8.6v-2.7h-9.4c1.1-1.2,3.8-4.2,3.8-4.6
			c0-0.3-0.2-0.6-0.7-0.7l-5-1.5l-0.1,0.2c-0.7,3.1-1.1,4.3-2,6.6h-6.3c1.3-2,1.8-2.8,2.4-3.8c0.2-0.1,0.6-0.4,0.6-0.8
			c0-0.4-0.4-0.7-0.7-0.8l-5.1-1.6l0,0.2c-1,5.6-4.2,10.6-7.3,14.7l-0.1,0.2l1.8,1.7l0.1-0.1c0.8-0.8,1.6-1.5,3-3v19.6H828.8z
			 M808.8,600.6v-5.1h5.4v5.1H808.8z M808.8,608.3v-5.1h5.4v5.1H808.8z M808.8,616.4V611h5.4v5.4H808.8z"/>
			<path class="st19" d="M799.6,604.6c-1.3,2.2-5.9,9.3-9.4,12.7l-0.2,0.2l3.5,2.7c0.3,0.2,0.6,0.3,0.8,0.3c0.5,0,0.5-0.4,0.6-1.1
			l0-0.1c2.1-2.9,5.9-9.8,7-12.5l0-0.1l-2.2-2.4L799.6,604.6z"/>
			<path class="st19" d="M801.5,591.9l-0.2-0.1c-3.4-2.6-7.4-4.6-8.2-5l-0.1-0.1l-1.9,1.9l0.2,0.1c1.4,1.2,3.9,3.5,6.3,6.7l0.1,0.2
			l3.6-3.6L801.5,591.9z"/>
			<path class="st19" d="M789.1,599.9l0.1,0.1c3.8,3.6,5.1,5.3,6.1,6.8l0.1,0.2l3.6-3.8l-0.2-0.1c-2.1-1.7-4.1-3.1-7.8-5.1l-0.1-0.1
			L789.1,599.9v-14.6h40.2v-2.7h-46V627h5.8v-2.2h41.2v-2.7h-41.2V599.9z"/>
			<path class="st19" d="M858.5,622.6l5.4-2.8l0.2-0.1l-0.2-0.2c-3.6-4.9-8.5-8.6-8.7-8.8l-0.1-0.1l-2.5,1.8l0.1,0.2
			c3.7,5.1,4.9,8,5.5,9.6L858.5,622.6z"/>
			<path class="st19" d="M872.9,580.7l-0.1-0.1h-7.6l-0.1,0.1c-3.7,7.5-8.9,13.7-22,19.8l-0.3,0.1l2.1,2l0.1,0.1l0.2-0.1
			c4.5-1.6,8.2-3.4,11.4-5.3v2.6h9.2v6.7h-15.8v2.6H866v13.6h-20.7v2.6h47.2v-2.6h-20.5v-13.6h15.7v-2.6h-15.7v-6.7h9.3v-2.5
			c3.4,2.1,7,3.8,11.1,5.4l0.1,0.1l2-2.4l-0.3-0.1C886.1,596.8,878,591.9,872.9,580.7z M857,597.2c5.9-3.6,9.6-7.5,11.9-10.6
			c3.9,4.6,7.7,7.9,11.9,10.6H857z"/>
			<path class="st19" d="M879.1,610.1l-0.1,0.2c-0.3,1.1-1.5,5-5.3,10.2l-0.1,0.2l2.6,1.7l0.1-0.1c2.3-1.8,6.3-5.6,8.2-7.7l0.1-0.1
			c0.9-0.5,1-0.6,1-0.9s-0.4-0.6-0.5-0.7L879.1,610.1z"/>
			<rect x="907.1" y="582.8" class="st19" width="28" height="2.6"/>
			<path class="st19" d="M952.6,612.3l-0.1-0.2l-2.8,0.8l0.1,0.2c0.6,2.2,0.8,3.1,1.4,5.7c-0.7,0.2-2.5,0.7-3.2,0.9v-9h6.9V590h-6.9
			v-7c0.3-0.6,0.5-1,0.5-1.4c0-0.5-0.4-0.8-1.1-0.8l-5.3-0.2l0.1,0.3c0.3,1.2,0.4,1.7,0.4,3.4v5.7h-6.9v20.7h6.9V621
			c-3.5,0.8-5.4,1.2-7.4,1.5l-0.5,0.1l1.6,4c0.1,0.3,0.5,0.6,0.8,0.6c0.4,0,0.8-0.4,1.2-0.8c4.8-1.6,9.3-3.2,13.6-5
			c0.3,1.9,0.5,3.5,0.6,4.6c0,0.3,0.1,0.5,0.1,0.8l0,0.3l5-2.3l0.2-0.1l0-0.2C956.6,621.3,955.4,617.7,952.6,612.3z M947.9,608
			v-15.3h2.1V608H947.9z M942.4,592.7V608h-2v-15.3H942.4z"/>
			<path class="st19" d="M908.9,627.7h5.1v-14.8l1.3,1.1l0.1-0.1c3.8-3.1,4.9-7.3,5.1-9.2h1.3v4.4c0,3.4,0.6,3.5,4,3.5h3v10.7
			c0,1.4,0,1.5-0.7,1.5c-0.5,0-2-0.1-3.6-0.3l-0.4-0.1l1.1,2.9h4.2c4.1,0,4.3-0.9,4.3-4.2V602h-24.9V627.7z M928.8,604.7v5.2h-1.5
			c-1.6,0-1.6-0.1-1.6-1.3v-3.9H928.8z M916.5,604.7c-0.2,2.8-1.6,5.4-2.6,6.7v-6.7H916.5z"/>
			<path class="st19" d="M931.9,598.9v-10.5h-21.2v10.5H931.9z M926.6,591.1v5.2h-10.3v-5.2H926.6z"/>
			<polygon class="st19" points="928.3,614.4 914.4,614.4 914.4,617 918.5,617 918.5,625.5 923.7,625.5 923.7,617 928.3,617 		"/>
			<path class="st19" d="M1001.4,594.9l0.2,0.2l3.9-4.4l-0.1-0.1c-3.5-3.4-7.7-5.6-9-6.3l-0.2-0.1l-1.5,2.1l0.1,0.1
			C997.4,589,998.7,591,1001.4,594.9z"/>
			<path class="st19" d="M1000.7,607l0.2,0.3l3.6-4.6l0.1-0.1l-0.1-0.1c-2-2.2-3.7-3.3-9.1-7l-0.2-0.1l-1.6,2.1l-0.1,0.1l0.1,0.1
			C995.8,599.9,999.2,604.2,1000.7,607z"/>
			<path class="st19" d="M992.7,609.3l-0.1-0.1c-4.8-4.9-6.8-10.3-7.2-11.9v-1h6.7v-2.6h-6.7v-7.4l0.1,0c1-0.1,2.7-0.3,5.3-0.8
			c0.5,0.2,0.9,0.3,1.2,0.3c0.7,0,0.7-0.5,0.7-0.6c0-0.2-0.1-0.5-0.4-0.8l-2.9-3.4l-0.1-0.1l-0.2,0.1c-4.2,2.7-15.2,3.4-18.7,3.5
			l-0.3,0l1.3,2.7l0.1,0.1h0.1c2.4,0,5.1-0.1,8.1-0.3v6.9h-9.2v2.6h8.8c-1.7,7.3-5.2,14-9.9,18.7l-0.1,0.1l1.8,2l0.2-0.1
			c2.9-2.6,6-5.5,8.4-9.5v20.1h5.8v-21.8c1.1,1.4,2.8,3.4,5.5,5.6l0.2,0.1L992.7,609.3z"/>
			<path class="st19" d="M1019.3,605.1l-6.3,1.8v-24.1c0.3-0.3,0.6-0.9,0.6-1.2c0-0.4-0.3-0.7-1-0.7l-5.6-0.2l0.1,0.4
			c0.1,0.7,0.2,1.1,0.2,2.9v24.6l-16.1,4.8l-0.2,0.1l1,2.6l15.4-4.6v16h5.7v-17.8l7-2.1l0.2-0.1l-0.8-2.3L1019.3,605.1z"/>
			<path class="st19" d="M1083.2,624.9c-3.6-1.1-8.3-2.7-12.5-6.2c3.6-3.9,7.9-9.6,9.1-18.6l0-0.2h-10v-8.3h12.7v-2.7h-12.7V583
			l0.1-0.1c0.3-0.3,0.5-0.6,0.5-1.1c0-0.4-0.4-0.7-0.8-0.7l-6.1-0.3l0.1,0.5c0.2,0.7,0.4,1.7,0.4,2.9v4.6h-11.8v2.7h11.8v8.3h-10.3
			v2.7h19.4c-0.8,4.6-2.6,8.8-5.6,12.6c-2.4-3.2-4.2-7.3-4.7-11.5l0-0.2l-5.7,1.5l0,0.2c1.3,6.9,5.5,11.8,7,13.4
			c-2.3,1.8-7.1,5-14.7,6.6l-0.3,0.1l1.6,2.5l0.1,0c8.8-1.8,14-4.9,16.4-6.6c1.8,1.4,6.5,4.6,14.2,6.3l0.1,0l1.9-2.5L1083.2,624.9z" />
			<path class="st19" d="M1052.3,604.5l-0.4-2.9l-0.3,0.1c-2.3,1.2-3.1,1.6-5.2,2.5l-0.1,0v-10h5.5v-2.6h-5.5v-8.8
			c0.2-0.3,0.4-0.9,0.4-1.2c0-0.4-0.4-0.7-0.9-0.7l-5.4-0.3l0,0.3c0.2,1.2,0.2,2.4,0.2,3.6v7h-7.1v2.6h7.1v12.5
			c-0.2,0.1-0.4,0.1-0.7,0.3c-1.5,0.6-4.7,1.8-7.2,2.4l-0.2,0.1l1.4,4.4c0.1,0.3,0.4,0.6,0.6,0.6c0.4,0,0.7-0.4,1.1-1.1
			c2-0.9,2.6-1.2,4-1.9l1-0.5v11.7c0,1.6-0.1,2-1.4,2c-0.9,0-2.1-0.2-3.6-0.5l-0.3-0.1l0.6,3.2h5.8c4.6,0,4.6-1.4,4.6-4.9v-14.6
			c1.6-0.9,3.8-2.1,5.8-3.3L1052.3,604.5z"/>
		</g>
	</g>
</svg>
