<svg width="85" height="85" viewBox="0 0 85 85" fill="none" xmlns="http://www.w3.org/2000/svg">
<circle cx="42.0334" cy="42.0334" r="41.0334" stroke="#153A71" stroke-width="2"/>
<g clip-path="url(#clip0_72_3)">
<path d="M71.6946 62.375C71.4021 62.7697 71.0744 63.101 70.5246 62.8966C69.9854 62.6992 69.9255 62.2552 69.929 61.7477C69.9431 59.8129 69.922 57.8782 69.9396 55.9434C69.9502 54.8721 69.5202 54.1215 68.5264 53.6774C67.9062 53.4025 67.2859 53.11 66.7115 52.7541C66.1476 52.4052 65.7494 52.4263 65.2983 52.962C64.738 53.6246 64.0155 54.0968 63.1415 54.2765C61.8129 54.5479 60.6817 54.1602 59.702 53.2545C58.7293 52.3559 58.7258 52.3559 57.5417 53.0114C57.5276 53.0184 57.517 53.0396 57.4677 53.0924C58.5108 54.3118 58.5883 55.7954 58.5566 57.3214C58.5249 58.865 58.5531 60.4085 58.5461 61.9521C58.5461 62.4596 58.3099 62.8226 57.7989 62.9318C57.3866 63.0199 57.073 62.8226 56.8686 62.4701C56.7241 62.2235 56.7628 61.9415 56.7628 61.6702C56.7593 59.9892 56.7276 58.3081 56.7699 56.6271C56.8157 54.9391 56.1285 53.8184 54.5285 53.1946C53.1541 52.6589 51.8149 52.0281 50.4793 51.4008C50.1198 51.2317 49.9648 51.281 49.7745 51.6193C48.3155 54.1849 46.1058 55.7602 43.216 56.2218C39.7624 56.7716 36.8373 55.665 34.5149 53.029C34.1132 52.5744 33.7678 52.0775 33.4929 51.5347C33.3661 51.2845 33.2533 51.214 32.9643 51.3444C31.4278 52.0457 29.8772 52.7224 28.3336 53.4131C27.0825 53.9734 26.561 54.9884 26.561 56.317C26.561 58.0368 26.561 59.7566 26.561 61.4763C26.561 61.6525 26.568 61.8288 26.5539 62.005C26.5151 62.5794 26.1451 62.9635 25.6553 62.9494C25.1548 62.9353 24.7954 62.5512 24.7813 61.9627C24.7636 61.2191 24.7777 60.479 24.7777 59.7354C24.7777 58.6394 24.7989 57.5469 24.7742 56.4509C24.7355 54.784 25.3099 53.4061 26.6808 52.296C26.1486 52.1162 25.6658 51.9576 25.183 51.792C24.9857 51.725 24.9011 51.8766 24.7954 51.9823C24.1998 52.5744 23.6183 53.184 23.0086 53.7585C22.7866 53.9664 22.8007 54.199 22.8007 54.4492C22.8007 56.8738 22.8007 59.2949 22.8007 61.7195C22.8007 61.9697 22.8395 62.234 22.702 62.4631C22.4941 62.812 22.184 63.0129 21.7717 62.9283C21.3206 62.8367 21.0492 62.5336 21.0316 62.0684C21.0104 61.4059 21.0245 60.7398 21.0245 60.0737C21.0245 58.1777 21.0175 56.2818 21.0316 54.3858C21.0351 54.0862 20.9505 53.8783 20.7391 53.6739C20.1752 53.1347 19.6219 52.5814 19.0792 52.0211C18.896 51.8308 18.7479 51.7885 18.4731 51.8766C17.363 52.229 16.2352 52.5321 15.1181 52.8563C13.9128 53.2052 13.4053 53.8571 13.4018 55.1012C13.3948 57.3883 13.3948 59.6755 13.4018 61.9627C13.4018 62.4032 13.2327 62.7168 12.8274 62.886C12.482 63.034 12.1754 62.9353 11.9111 62.6957C11.7102 62.516 11.6397 62.2834 11.6397 62.012C11.6468 59.5099 11.5869 57.0077 11.6679 54.5091C11.7173 53.0008 12.5701 51.8942 13.9939 51.3656C15.1568 50.9321 16.3727 50.6502 17.5638 50.2942C17.8387 50.2132 18.2228 50.1779 18.1946 49.8044C18.1559 49.3286 18.4625 48.7894 17.9726 48.3842C16.2035 46.9216 15.3401 45.0362 15.4106 42.7455C15.4317 41.9843 15.2555 41.3147 14.9348 40.6275C13.423 37.3818 15.8018 33.3361 19.3647 33.0471C22.0571 32.8286 24.7531 33.0013 27.449 32.952C28.3618 32.9343 28.3618 32.9484 28.4147 32.004C28.5098 30.3688 28.612 28.73 29.0102 27.1336C29.9265 23.4403 31.8542 20.4518 35.2515 18.5699C37.7325 17.1955 40.4108 16.7867 43.2196 17.0792C45.4116 17.3083 47.4274 18.0025 49.2282 19.2853C51.8044 21.1144 53.3515 23.6412 54.2008 26.6367C54.6554 28.2402 54.7717 29.8965 54.9127 31.5458C55.0818 33.4982 55.251 35.4541 55.4307 37.5404C55.8818 36.7193 56.2236 35.9545 56.8474 35.4329C57.5452 34.8479 57.7884 34.2277 57.7566 33.2797C57.6967 31.359 59.2896 29.7062 61.316 29.3115C63.4305 28.9027 65.4886 29.7767 66.493 31.5352C66.9511 32.3387 67.1238 33.2092 66.9053 34.1255C66.8419 34.3933 66.9194 34.5449 67.1238 34.7211C69.8585 37.0963 70.5598 40.5394 68.981 43.8239C68.8436 44.1094 68.7872 44.4089 68.7132 44.712C68.3749 46.1146 67.6912 47.3269 66.5564 48.2361C66.1829 48.5357 66.0807 48.8388 66.0278 49.3004C65.9186 50.2026 66.2533 50.6784 67.085 50.992C67.8639 51.2845 68.5828 51.7427 69.344 52.0845C70.5775 52.6413 71.3034 53.6034 71.684 54.8651C71.6946 57.3707 71.6946 59.8729 71.6946 62.375Z" fill="#0F3668"/>
<path d="M17.1627 59.2713C17.1627 60.1665 17.1697 61.0651 17.1592 61.9602C17.1521 62.5699 16.7785 62.9717 16.2605 62.9576C15.7565 62.9435 15.4041 62.5593 15.4006 61.9743C15.3936 60.1629 15.3936 58.3515 15.4006 56.5401C15.4041 55.9234 15.7636 55.5498 16.3063 55.5604C16.8244 55.571 17.1521 55.9269 17.1592 56.526C17.1697 57.4388 17.1627 58.355 17.1627 59.2713Z" fill="#0F3668"/>
<path d="M66.1764 59.8528C66.1764 59.1304 66.1694 58.4079 66.1799 57.689C66.1905 57.0864 66.5147 56.7304 67.0328 56.7163C67.572 56.7022 67.935 57.0828 67.9385 57.6996C67.9455 59.1233 67.9455 60.5471 67.9385 61.9708C67.935 62.5558 67.5826 62.94 67.0821 62.9576C66.5641 62.9717 66.1905 62.5699 66.1799 61.9602C66.1658 61.2589 66.1764 60.5541 66.1764 59.8528Z" fill="#0F3668"/>
<path d="M31.3614 60.1558C31.3614 59.592 31.3473 59.0281 31.365 58.4643C31.3826 57.8229 31.7174 57.4528 32.246 57.4423C32.7887 57.4317 33.1447 57.77 33.1588 58.4184C33.1834 59.6061 33.1834 60.7937 33.1588 61.9813C33.1447 62.5875 32.7323 62.9822 32.2319 62.9611C31.7209 62.9399 31.3791 62.5417 31.365 61.9109C31.3473 61.3223 31.3579 60.7373 31.3614 60.1558Z" fill="#0F3668"/>
<path d="M51.9776 60.2299C51.9776 60.7937 51.9917 61.3576 51.9741 61.9215C51.9565 62.5487 51.6041 62.9435 51.0896 62.954C50.5856 62.9646 50.1944 62.5769 50.1803 61.9567C50.1557 60.7691 50.1521 59.5814 50.1839 58.3938C50.198 57.7524 50.5645 57.4176 51.1142 57.4352C51.6217 57.4529 51.9565 57.8123 51.9776 58.4149C51.9917 59.0246 51.9776 59.6272 51.9776 60.2299Z" fill="#0F3668"/>
<path d="M47.28 46.0311C47.0298 44.9175 47.4773 44.2197 48.3654 43.4867C50.8922 41.3969 51.9812 38.5846 51.9741 35.3318C51.9741 34.8808 51.9918 34.4332 51.96 33.9856C51.879 32.7945 51.3645 31.8359 50.427 31.0817C47.7769 28.9496 44.7285 27.7021 41.4405 26.9585C40.355 26.7118 39.252 26.5955 38.1595 26.4087C37.5921 26.3136 37.1058 26.6519 37.0247 27.1664C36.9507 27.621 37.2573 28.058 37.8071 28.1532C39.2273 28.3928 40.6581 28.562 42.0502 28.9391C44.7074 29.658 47.1813 30.7434 49.3346 32.4949C49.8138 32.8826 50.1099 33.3478 50.1486 33.9821C50.3072 36.5582 50.0218 39.0251 48.2738 41.0832C45.9302 43.8391 42.9277 44.8576 39.4564 43.9272C36.0838 43.025 34.0327 40.7132 33.3173 37.2666C33.2786 37.0763 33.2292 36.8825 33.2222 36.6922C33.1235 34.3134 32.9896 34.5706 34.579 33.5345C35.6221 32.8544 36.3411 31.8359 36.7675 30.6412C37.0142 29.954 36.8661 29.4959 36.3164 29.2844C35.8124 29.0941 35.3684 29.3338 35.1111 29.9892C34.6988 31.0465 33.9975 31.8782 33.0425 32.4526C31.802 33.1962 31.3015 34.2535 31.3509 35.6702C31.4742 39.1591 32.8416 41.996 35.6679 44.0858C35.9499 44.2937 36.0767 44.4946 36.0626 44.847C36.0345 45.647 36.0345 46.4505 36.0591 47.2505C36.0767 47.8179 35.7983 48.1315 35.3261 48.3923C34.4979 48.8469 33.7191 48.935 32.7922 48.5791C31.4495 48.061 30.1068 47.5571 28.8628 46.8241C28.6408 46.6937 28.5527 46.5844 28.5985 46.2849C29.254 41.9643 29.7157 37.6225 30.0751 33.2667C30.2584 31.0571 30.3465 28.8333 30.9773 26.6766C32.2953 22.1692 36.0309 19.1384 40.6934 18.8283C43.8862 18.6168 46.769 19.3569 49.1865 21.5384C51.1107 23.2758 52.1821 25.4995 52.686 28.0016C53.1441 30.2817 53.1794 32.6147 53.3979 34.9266C53.6305 37.3723 53.8631 39.8181 54.1802 42.2568C54.36 43.6277 54.5503 44.9986 54.7582 46.3659C54.7934 46.602 54.6948 46.676 54.5397 46.7712C52.9679 47.7333 51.2623 48.3817 49.4931 48.8681C48.6156 49.1077 47.2835 47.987 47.28 47.0848C47.28 46.7324 47.28 46.3835 47.28 46.0311Z" fill="white"/>
<path d="M23.4004 34.7715C24.6515 34.7715 25.9025 34.7856 27.1501 34.7644C27.499 34.7574 27.6223 34.8314 27.6117 35.2085C27.5836 36.2622 27.6047 37.3194 27.6012 38.3731C27.5977 39.0885 27.4038 39.7617 27.0585 40.3819C26.7413 40.9458 26.6285 41.5343 26.6567 42.1757C26.706 43.3527 26.6778 44.5228 26.047 45.58C25.0885 47.1905 23.6682 48.0258 21.7969 47.9835C20.0102 47.9412 18.7168 47.0284 17.8287 45.5025C17.3036 44.5968 17.1415 43.5994 17.1697 42.581C17.1944 41.6647 17.0252 40.8436 16.6094 40.0048C15.4887 37.7317 17.1768 34.9371 19.7071 34.8173C20.9335 34.7609 22.167 34.8067 23.3969 34.8067C23.4004 34.7926 23.4004 34.782 23.4004 34.7715Z" fill="white"/>
<path d="M67.7693 42.2039C66.839 41.3651 65.9051 40.7132 64.8831 40.1845C63.632 39.5396 62.3104 39.0885 60.9642 38.7044C60.1537 38.4718 59.7836 38.715 59.5686 39.5502C59.4524 39.9978 59.2162 40.3608 58.9343 40.7167C58.5502 41.196 58.5748 41.7528 58.9695 42.0664C59.3819 42.3977 59.8893 42.3167 60.2981 41.8409C60.4497 41.6647 60.6611 41.499 60.7281 41.2911C60.9713 40.5616 61.3977 40.6603 61.9756 40.8859C63.7271 41.566 65.4434 42.2849 66.7297 43.7369C66.9447 43.9765 67.0011 44.1774 66.9094 44.5122C66.3491 46.5914 64.4214 48.0504 62.2717 47.987C59.9775 47.9165 58.1308 46.38 57.722 44.195C57.6339 43.7298 57.4471 43.3069 57.2392 42.8876C55.5934 39.5326 57.6304 35.4305 61.4682 34.8384C65.7183 34.1865 68.8512 38.137 67.8257 41.8479C67.8151 41.9255 67.8081 42.003 67.7693 42.2039Z" fill="white"/>
<path d="M37.8635 46.5492C37.9199 46.158 37.7014 45.6505 37.9727 45.432C38.1348 45.3016 38.6388 45.5976 38.9912 45.6893C41.0035 46.2038 43.0052 46.1756 44.9681 45.4743C45.4333 45.3087 45.4756 45.4532 45.4686 45.8584C45.458 46.6373 45.3664 47.4302 45.5954 48.1844C45.9302 49.2874 46.7795 49.8865 47.8192 50.2389C48.2949 50.4011 48.3795 50.5561 48.094 51.0284C45.1796 55.8141 37.9621 55.7225 35.1464 50.8557C34.9737 50.5596 35.0054 50.4469 35.312 50.32C35.9005 50.0768 36.5137 49.8689 36.986 49.4002C37.8036 48.6002 37.934 47.6029 37.8635 46.5492Z" fill="white"/>
<path d="M51.7697 50.031C53.0772 49.5693 54.1873 49.0196 55.2762 48.4099C56.0586 47.9729 56.5943 47.409 56.5731 46.3377C57.1158 47.2505 57.7114 47.9623 58.4726 48.5156C58.7722 48.7341 58.5995 49.0548 58.6488 49.3297C58.7969 50.1508 58.4268 50.535 57.7044 50.972C56.4216 51.7473 55.2974 51.853 54.0216 51.0389C53.3767 50.6301 52.6155 50.401 51.7697 50.031Z" fill="white"/>
<path d="M31.5165 50.0451C30.7095 50.4046 29.9729 50.7323 29.2364 51.0636C29.113 51.12 29.0179 51.0706 28.9051 51.0354C28.01 50.7746 27.1113 50.5385 26.2232 50.2601C25.5466 50.0486 25.3422 48.8927 25.8955 48.4311C26.255 48.1315 26.6074 47.8284 26.914 47.4901C28.1897 48.7588 29.8461 49.3191 31.5165 50.0451Z" fill="white"/>
<path d="M60.4884 49.5764C61.1016 49.6539 61.7325 49.7914 62.3633 49.7914C62.9941 49.7914 63.6249 49.6504 64.2557 49.5729C64.3474 50.609 64.6117 51.6803 63.3641 52.2935C62.6593 52.6389 62.0109 52.6283 61.3096 52.2829C60.062 51.6627 60.3298 50.609 60.4884 49.5764Z" fill="white"/>
<path d="M65.2214 33.5415C63.3007 32.7944 61.4259 32.7768 59.5545 33.5204C59.3924 32.3609 60.4602 31.2085 61.817 31.0535C63.7271 30.8315 65.0134 31.7407 65.2214 33.5415Z" fill="white"/>
<path d="M19.989 49.4954C21.1837 49.8478 22.3537 49.8971 23.5308 49.594C23.6224 49.5694 23.8057 49.4777 23.8233 49.6328C23.855 49.8971 23.996 50.2249 23.8162 50.4257C23.2559 51.0495 22.6462 51.6239 22.0542 52.216C21.8991 52.3711 21.8145 52.2266 21.7264 52.1385C21.1872 51.6028 20.6516 51.0671 20.1124 50.5279C19.8093 50.2213 20.0419 49.8654 19.989 49.4954Z" fill="white"/>
<path d="M19.3582 37.6613C21.3211 37.7811 23.1502 37.8833 24.877 38.5881C25.3528 38.7819 25.6735 39.0744 25.603 39.6418C25.5325 40.2198 24.9933 40.5475 24.3731 40.3079C22.7837 39.6876 21.1238 39.5396 19.4463 39.4868C19.2912 39.4832 19.1362 39.4586 18.9846 39.4304C18.4983 39.3387 18.2164 39.0427 18.2234 38.5458C18.234 38.0454 18.5547 37.7775 19.0234 37.6859C19.1785 37.6542 19.3371 37.6613 19.3582 37.6613Z" fill="#0F3668"/>
</g>
<defs>
<clipPath id="clip0_72_3">
<rect width="60.069" height="45.9689" fill="white" transform="translate(11.6263 16.9922)"/>
</clipPath>
</defs>
</svg>
