<svg xmlns="http://www.w3.org/2000/svg" width="22.606" height="25.833" viewBox="0 0 22.606 25.833">
    <defs>
        <style>
            .cls-1{fill:#112e53}
        </style>
    </defs>
    <g id="组_4225" data-name="组 4225" transform="translate(-1244.353 -181.003)">
        <path id="路径_5625" data-name="路径 5625" class="cls-1" d="M1344.461 181c.617.114 1.246.187 1.849.35a8.078 8.078 0 0 1 3.734 2.242 8.46 8.46 0 0 1-9.1 13.781 12.363 12.363 0 0 1-1.313-.634c-.3-.157-.383-.37-.256-.584s.345-.237.641-.063a7.714 7.714 0 0 0 11.476-5.006 7.7 7.7 0 0 0-10.975-8.507 7.565 7.565 0 0 0-4.012 4.928c-.07.25-.107.509-.166.763s-.243.4-.465.345a.39.39 0 0 1-.273-.494 8.4 8.4 0 0 1 4.66-6.264 7.983 7.983 0 0 1 2.868-.813c.091-.009.18-.03.271-.046z" transform="translate(-85.472)"/>
        <path id="路径_5626" data-name="路径 5626" class="cls-1" d="M1244.355 329.381c0-.807.01-1.615 0-2.422a2.089 2.089 0 0 1 1.365-2.113c.9-.394 1.787-.816 2.686-1.212a.616.616 0 0 0 .408-.617 1.6 1.6 0 0 0-.476-1.361 2.849 2.849 0 0 1-.747-2.134c0-.159.024-.308-.2-.37a.357.357 0 0 1-.189-.27 3.967 3.967 0 0 1 .258-2.05 2.667 2.667 0 0 1 2.265-1.583 14.022 14.022 0 0 1 2.166 0 2.741 2.741 0 0 1 2.512 2.637c.02.428.009.857.01 1.286a.406.406 0 0 1-.278.431.266.266 0 0 0-.131.2 3.192 3.192 0 0 1-1.088 2.253.314.314 0 0 0-.115.182c-.008.327-.007.656.009.983.01.212.171.312.347.391.91.412 1.815.836 2.73 1.236a2.1 2.1 0 0 1 1.366 2.115c-.01 1.665 0 3.33 0 4.995 0 .117.02.264-.04.343-.085.113-.24.246-.358.24s-.252-.156-.332-.275c-.052-.078-.025-.212-.025-.321 0-1.656-.009-3.313 0-4.969a1.4 1.4 0 0 0-.922-1.437c-.68-.287-1.35-.6-2.017-.918a.347.347 0 0 0-.444.055c-.643.554-1.3 1.093-1.953 1.635-.3.248-.428.246-.726 0-.652-.544-1.307-1.084-1.953-1.635a.334.334 0 0 0-.421-.063c-.705.335-1.418.654-2.129.975a1.3 1.3 0 0 0-.824 1.292v5.1a2.128 2.128 0 0 1 0 .227.367.367 0 0 1-.357.359.374.374 0 0 1-.39-.351 1.668 1.668 0 0 1-.006-.227l-.001-2.607zm5.337-11.169a2.568 2.568 0 0 1-1.241.97.217.217 0 0 0-.1.166 2.5 2.5 0 0 0 1.377 2.49 2.455 2.455 0 0 0 3.52-2.046c.006-.175-.048-.231-.217-.251a6.926 6.926 0 0 1-2.7-.914c-.216-.127-.42-.272-.639-.414zm3.946.625c0-.361.019-.7 0-1.043a1.993 1.993 0 0 0-1.765-1.782 21.237 21.237 0 0 0-1.837-.033 2.1 2.1 0 0 0-2.056 2.546 3.742 3.742 0 0 0 .513-.189 1.951 1.951 0 0 0 .726-.816.4.4 0 0 1 .684-.127 5.96 5.96 0 0 0 2.06 1.132 5.45 5.45 0 0 0 1.675.313zm-2.834 6.787 1.766-1.473c-.555-.38-.535-.957-.54-1.54a3.334 3.334 0 0 1-2.472 0c.027.6.028 1.165-.522 1.539z" transform="translate(0 -125.723)"/>
        <path id="路径_5627" data-name="路径 5627" class="cls-1" d="M1426.84 242.013c-.057.262.127.74-.392.739s-.315-.487-.378-.735a10.924 10.924 0 0 1-1.262-.477 1.935 1.935 0 0 1-1.152-1.681.35.35 0 0 1 .324-.4.354.354 0 0 1 .4.294 1.712 1.712 0 0 0 1.675 1.415c.005-.08.015-.16.015-.239 0-.958 0-1.917.005-2.875a.29.29 0 0 0-.223-.327 4.057 4.057 0 0 1-1.6-.926 1.991 1.991 0 0 1 .531-3.242 6 6 0 0 1 1.111-.382c.133-.038.184-.081.177-.214a1.926 1.926 0 0 1 .01-.327.339.339 0 0 1 .339-.314.342.342 0 0 1 .376.269.447.447 0 0 1 .027.2c-.063.316.11.373.377.43a2.44 2.44 0 0 1 1.95 1.523 1.854 1.854 0 0 1 .093.492.372.372 0 0 1-.739.08 1.7 1.7 0 0 0-1.654-1.382.436.436 0 0 0-.021.094c0 1.034-.005 2.068.006 3.1 0 .075.1.175.177.218a11.992 11.992 0 0 1 1.35.717 2 2 0 0 1-.294 3.491 11.644 11.644 0 0 1-1.228.459zm-.776-8.1a2.224 2.224 0 0 0-1.271.56 1.173 1.173 0 0 0-.242 1.448 2.653 2.653 0 0 0 1.513 1.076zm.779 7.315a8.1 8.1 0 0 0 .9-.35 1.226 1.226 0 0 0 .519-1.861 2.9 2.9 0 0 0-1.418-.922z" transform="translate(-167.96 -48.072)"/>
        <path id="路径_5628" data-name="路径 5628" class="cls-1" d="M1277.13 522.525v1.713c0 .3-.136.473-.364.481s-.391-.173-.391-.484v-3.425c0-.312.152-.487.394-.478s.36.176.361.481v1.712z" transform="translate(-29.995 -317.882)"/>
        <path id="路径_5629" data-name="路径 5629" class="cls-1" d="M1405.144 522.523v1.637c0 .092.021.21-.027.27-.091.113-.222.263-.34.266s-.261-.137-.353-.248c-.053-.064-.035-.193-.035-.293v-3.248c0-.39.117-.571.37-.578s.386.179.387.583l-.002 1.611z" transform="translate(-149.918 -317.879)"/>
    </g>
</svg>
