<svg xmlns="http://www.w3.org/2000/svg" width="92" height="92" viewBox="0 0 92 92">
    <defs>
        <linearGradient id="ky1a2ls03a" x1="3.314%" x2="100%" y1="0%" y2="100%">
            <stop offset="0%" stop-color="#A90015"/>
            <stop offset="50.754%" stop-color="#A5001E"/>
            <stop offset="100%" stop-color="#7A000F"/>
        </linearGradient>
        <linearGradient id="zw56frmysc" x1="0%" x2="100%" y1="37.5%" y2="60.608%">
            <stop offset="0%" stop-color="#F7ECA8"/>
            <stop offset="50.754%" stop-color="#E1B658"/>
            <stop offset="100%" stop-color="#E7CC7E"/>
        </linearGradient>
        <linearGradient id="cm8rhtt51d" x1="37.5%" x2="62.5%" y1="0%" y2="92.434%">
            <stop offset="0%" stop-color="#F7ECA8"/>
            <stop offset="50.754%" stop-color="#E1B658"/>
            <stop offset="100%" stop-color="#E7CC7E"/>
        </linearGradient>
        <linearGradient id="057wcyuqbe" x1="3.315%" x2="99.999%" y1="0%" y2="100%">
            <stop offset="0%" stop-color="#F7ECA8"/>
            <stop offset="50.754%" stop-color="#BF9437" stop-opacity=".7"/>
            <stop offset="100%" stop-color="#E7CC7E"/>
        </linearGradient>
        <radialGradient id="7cp1y5y9nb" cx="44.749%" cy="22.136%" r="120.788%" fx="44.749%" fy="22.136%" gradientTransform="scale(1 .88889) rotate(60.714 .424 .235)">
            <stop offset="0%" stop-color="#F7ECA8"/>
            <stop offset="53.478%" stop-color="#DCAA3E"/>
            <stop offset="100%" stop-color="#E7CC7E"/>
        </radialGradient>
    </defs>
    <g fill="none" fill-rule="evenodd">
        <g>
            <g transform="translate(-142 -360) translate(143 361)">
                <circle cx="45" cy="45" r="45" fill="url(#ky1a2ls03a)" fill-rule="nonzero" stroke="#000"/>
                <path fill="url(#7cp1y5y9nb)" fill-rule="nonzero" d="M34.37 49.132l22.238 13.174C59.861 64.233 64 61.919 64 58.174V31.826c0-3.745-4.139-6.059-7.392-4.132L34.37 40.868c-3.16 1.871-3.16 6.392 0 8.264" transform="matrix(-1 0 0 1 96 0)"/>
                <g fill-rule="nonzero" opacity=".8">
                    <path fill="url(#zw56frmysc)" d="M6 3c1.066 0 2 .7 2 1 0 .3-.934 1-2 1-1.066 0-2-.7-2-1 0-.3.934-1 2-1M2 3c1.066 0 2 .7 2 1 0 .3-.934 1-2 1-1.066 0-2-.7-2-1 0-.3.934-1 2-1" transform="translate(49 21)"/>
                    <path fill="url(#cm8rhtt51d)" d="M5 6c0 1.066-.7 2-1 2-.3 0-1-.934-1-2 0-1.066.7-2 1-2 .3 0 1 .934 1 2m0-4c0 1.066-.7 2-1 2-.3 0-1-.934-1-2 0-1.066.7-2 1-2 .3 0 1 .934 1 2" transform="translate(49 21)"/>
                </g>
                <g fill-rule="nonzero" opacity=".4">
                    <path fill="url(#zw56frmysc)" d="M6 3c1.066 0 2 .7 2 1 0 .3-.934 1-2 1-1.066 0-2-.7-2-1 0-.3.934-1 2-1M2 3c1.066 0 2 .7 2 1 0 .3-.934 1-2 1-1.066 0-2-.7-2-1 0-.3.934-1 2-1" transform="translate(20 41)"/>
                    <path fill="url(#cm8rhtt51d)" d="M5 6c0 1.066-.7 2-1 2-.3 0-1-.934-1-2 0-1.066.7-2 1-2 .3 0 1 .934 1 2m0-4c0 1.066-.7 2-1 2-.3 0-1-.934-1-2 0-1.066.7-2 1-2 .3 0 1 .934 1 2" transform="translate(20 41)"/>
                </g>
                <g fill-rule="nonzero" opacity=".6">
                    <path fill="url(#zw56frmysc)" d="M6 3c1.066 0 2 .7 2 1 0 .3-.934 1-2 1-1.066 0-2-.7-2-1 0-.3.934-1 2-1M2 3c1.066 0 2 .7 2 1 0 .3-.934 1-2 1-1.066 0-2-.7-2-1 0-.3.934-1 2-1" transform="translate(55 58)"/>
                    <path fill="url(#cm8rhtt51d)" d="M5 6c0 1.066-.7 2-1 2-.3 0-1-.934-1-2 0-1.066.7-2 1-2 .3 0 1 .934 1 2m0-4c0 1.066-.7 2-1 2-.3 0-1-.934-1-2 0-1.066.7-2 1-2 .3 0 1 .934 1 2" transform="translate(55 58)"/>
                </g>
                <path stroke="url(#057wcyuqbe)" d="M77.782 38.413l2.597-.519.454 2.975c.14.993.126 2.002.197 3.002l3.97-.124c-.191-6.14-1.813-12.245-4.698-17.681l-3.5 1.88 1.306 2.711c.404.917.706 1.877 1.064 2.814l-2.51.845c-.71-2.087-1.614-4.112-2.726-6.018-.595-.928-1.09-1.924-1.799-2.777-.674-.874-1.279-1.805-2.064-2.588l1.988-1.75c.705.716 1.29 1.532 1.888 2.338l.901 1.205c.28.415.527.854.792 1.28l3.374-2.097c-.75-1.347-1.73-2.54-2.642-3.777-.44-.633-.982-1.18-1.494-1.754l-1.554-1.704-1.703-1.553c-.575-.512-1.122-1.056-1.755-1.495-1.238-.91-2.429-1.891-3.776-2.642l-2.097 3.375c.426.265.864.511 1.28.79l1.204.902c.806.598 1.622 1.184 2.34 1.888l-1.751 1.988c-.784-.784-1.714-1.39-2.588-2.064-.853-.709-1.849-1.204-2.778-1.798-1.906-1.112-3.93-2.017-6.018-2.727l.846-2.51c.936.358 1.897.66 2.814 1.064l2.71 1.307 1.881-3.5C58.498 6.814 52.393 5.19 46.253 5l-.123 3.971c1 .07 2.009.056 3.001.196l2.975.454-.518 2.598-3.276-.489L45 11.562l-3.312.168-3.275.489-.519-2.598 2.975-.454c.992-.14 2.001-.126 3-.196L43.748 5c-6.14.191-12.245 1.814-17.681 4.699l1.88 3.5 2.711-1.307c.917-.404 1.877-.706 2.814-1.063l.845 2.509c-2.088.71-4.112 1.615-6.018 2.727-.93.594-1.924 1.09-2.777 1.798-.874.674-1.805 1.28-2.589 2.064l-1.75-1.988c.717-.704 1.533-1.29 2.34-1.888l1.204-.901c.415-.28.854-.526 1.279-.79l-2.096-3.376c-1.347.75-2.54 1.731-3.777 2.642-.633.44-1.18.983-1.755 1.495l-1.703 1.553-1.554 1.704c-.511.574-1.055 1.12-1.494 1.754-.91 1.238-1.891 2.43-2.642 3.777l3.374 2.097c.265-.426.512-.865.792-1.28l.901-1.205c.598-.806 1.184-1.622 1.888-2.339l1.988 1.751c-.784.783-1.39 1.714-2.064 2.588-.709.853-1.204 1.849-1.8 2.777-1.11 1.906-2.015 3.93-2.725 6.018l-2.51-.845c.358-.937.66-1.897 1.064-2.814l1.306-2.711-3.5-1.88C6.815 31.502 5.192 37.608 5 43.746l3.97.125c.072-1 .057-2.009.197-3.002l.454-2.975 2.597.52-.488 3.274L11.562 45l.168 3.313.488 3.275-2.597.518-.454-2.975c-.14-.992-.125-2.001-.197-3L5 46.252c.191 6.14 1.814 12.246 4.699 17.682l3.499-1.881-1.306-2.71c-.404-.917-.706-1.878-1.064-2.814l2.51-.846c.71 2.088 1.615 4.112 2.726 6.019.595.928 1.09 1.924 1.799 2.777.674.874 1.28 1.804 2.064 2.588l-1.988 1.75c-.704-.717-1.29-1.533-1.888-2.338l-.901-1.206c-.28-.415-.527-.853-.792-1.279l-3.374 2.097c.75 1.347 1.731 2.538 2.642 3.776.44.634.983 1.181 1.494 1.755l1.554 1.704 1.703 1.553c.575.512 1.122 1.055 1.755 1.494 1.238.912 2.43 1.891 3.777 2.643l2.096-3.375c-.425-.265-.864-.511-1.28-.792l-1.204-.901c-.806-.597-1.622-1.183-2.339-1.887l1.75-1.989c.784.785 1.715 1.39 2.589 2.065.853.708 1.848 1.203 2.777 1.798 1.906 1.112 3.93 2.017 6.018 2.726l-.845 2.51c-.937-.358-1.897-.66-2.814-1.063l-2.711-1.307-1.88 3.5c5.436 2.885 11.542 4.507 17.68 4.699l.124-3.971c-1-.071-2.009-.056-3.001-.197l-2.975-.454.52-2.597 3.274.489 3.312.167 3.312-.167 3.276-.489.518 2.597-2.975.454c-.992.141-2.001.126-3 .197l.122 3.97c6.14-.191 12.245-1.813 17.682-4.698l-1.881-3.5-2.71 1.307c-.917.403-1.878.705-2.814 1.063l-.846-2.51c2.088-.71 4.112-1.614 6.018-2.726.93-.595 1.925-1.09 2.778-1.798.874-.675 1.804-1.28 2.588-2.065l1.75 1.989c-.717.704-1.533 1.29-2.34 1.887l-1.204.901c-.415.28-.853.527-1.279.792l2.097 3.375c1.347-.752 2.538-1.731 3.776-2.643.633-.44 1.18-.982 1.755-1.494l1.703-1.553 1.554-1.704c.512-.574 1.055-1.12 1.494-1.755.912-1.238 1.891-2.429 2.642-3.776l-3.374-2.097c-.265.426-.512.864-.792 1.28l-.901 1.205c-.598.805-1.183 1.621-1.888 2.339l-1.988-1.751c.785-.784 1.39-1.714 2.064-2.588.709-.853 1.204-1.849 1.8-2.777 1.11-1.907 2.016-3.93 2.725-6.02l2.51.847c-.358.936-.66 1.897-1.064 2.814l-1.306 2.71 3.5 1.881C83.187 58.499 84.81 52.393 85 46.253l-3.97-.123c-.071 1-.057 2.009-.197 3.001l-.454 2.975-2.597-.518.489-3.275.167-3.313h-.661c-.085 1.224-.095 2.454-.22 3.672l-.28 1.817c-.09.605-.163 1.215-.345 1.801l3.874.88.19-.741.12-.757.23-1.515c.072-.505.165-1.009.219-1.516l.078-1.53 2.644.151c-.296 5.347-1.705 10.642-4.119 15.431l-2.365-1.192.665-1.38c.225-.459.451-.918.609-1.405.347-.96.712-1.915 1.044-2.88l-3.797-1.17c-.427 1.145-.804 2.314-1.29 3.436l-.8 1.654-.395.83-.476.784c-.638 1.047-1.24 2.116-2.02 3.067l-1.104 1.47-1.24 1.358 2.912 2.704c1.423-1.47 2.632-3.126 3.793-4.802l2.213 1.456c-2.93 4.493-6.801 8.364-11.294 11.294l-1.456-2.213c1.676-1.161 3.332-2.37 4.8-3.793l-2.702-2.912-1.358 1.24-1.47 1.103c-.95.78-2.02 1.384-3.067 2.022l-.785.476-.829.395-1.654.8c-1.122.485-2.29.862-3.437 1.29l1.17 3.796c.966-.333 1.92-.697 2.881-1.044.487-.158.946-.383 1.405-.609l1.38-.664 1.192 2.364c-4.789 2.414-10.084 3.823-15.431 4.12l-.151-2.645 1.53-.078c.507-.054 1.01-.147 1.516-.219l1.515-.23.757-.12.742-.19-.88-3.873c-.588.18-1.197.254-1.803.345l-1.816.28c-1.218.124-2.449.134-3.672.219-1.223-.085-2.454-.095-3.672-.22l-1.816-.28c-.606-.09-1.215-.163-1.802-.344l-.88 3.873.741.19.758.12 1.515.23c.505.072 1.008.165 1.516.219l1.53.078-.151 2.644c-5.348-.296-10.643-1.705-15.431-4.119l1.192-2.364 1.38.664c.459.226.917.451 1.404.609.96.347 1.916.71 2.881 1.044l1.17-3.797c-1.146-.427-2.315-.804-3.437-1.29l-1.653-.8-.83-.394-.785-.476c-1.046-.638-2.116-1.241-3.067-2.022l-1.47-1.103-1.358-1.24-2.703 2.912c1.47 1.423 3.125 2.632 4.802 3.793l-1.456 2.213c-4.493-2.93-8.364-6.801-11.295-11.294l2.214-1.456c1.16 1.676 2.37 3.332 3.792 4.802l2.912-2.704-1.24-1.358-1.103-1.47c-.78-.95-1.383-2.02-2.02-3.067l-.477-.785-.396-.829-.798-1.654c-.487-1.122-.863-2.29-1.291-3.436l-3.797 1.17c.333.965.697 1.92 1.044 2.88.158.487.384.946.609 1.405l.665 1.38-2.365 1.192c-2.414-4.789-3.823-10.084-4.12-15.431l2.646-.15.077 1.53c.054.506.148 1.01.22 1.515l.23 1.515.12.757.19.742 3.873-.88c-.182-.587-.255-1.197-.345-1.802l-.28-1.817c-.125-1.218-.135-2.448-.219-3.672.084-1.223.094-2.453.219-3.671l.28-1.817c.09-.605.163-1.215.345-1.801l-3.874-.88-.19.741-.118.757-.231 1.515c-.072.505-.166 1.008-.22 1.516l-.077 1.53-2.645-.151c.296-5.348 1.705-10.642 4.119-15.431l2.365 1.192-.665 1.38c-.225.459-.451.917-.609 1.404-.347.961-.71 1.916-1.044 2.881l3.797 1.17c.428-1.146.804-2.314 1.29-3.437l.8-1.653.395-.83.476-.785c.638-1.046 1.241-2.115 2.02-3.067l1.104-1.47 1.24-1.358-2.912-2.703c-1.423 1.47-2.632 3.126-3.792 4.802l-2.214-1.456c2.931-4.493 6.802-8.364 11.295-11.294l1.456 2.213c-1.677 1.161-3.332 2.37-4.802 3.792l2.703 2.912 1.359-1.239 1.47-1.104c.95-.78 2.02-1.383 3.066-2.02l.785-.477.83-.395 1.653-.8c1.122-.486 2.29-.862 3.437-1.29l-1.17-3.796c-.965.332-1.92.696-2.881 1.044-.487.157-.945.383-1.404.608l-1.38.665-1.192-2.365c4.788-2.413 10.083-3.822 15.43-4.12l.151 2.646-1.53.077c-.507.054-1.01.148-1.515.22l-1.515.23-.758.12-.74.19.879 3.873c.587-.182 1.196-.255 1.802-.345l1.816-.28c1.218-.125 2.449-.134 3.672-.219 1.223.085 2.454.094 3.672.22l1.816.28c.606.09 1.215.162 1.802.344l.88-3.874-.741-.19-.757-.118-1.515-.231c-.505-.072-1.009-.166-1.516-.22l-1.53-.077.151-2.645c5.347.297 10.642 1.706 15.431 4.119l-1.192 2.365-1.38-.665c-.459-.225-.918-.451-1.405-.608-.96-.348-1.915-.712-2.88-1.044l-1.171 3.797c1.146.427 2.315.803 3.437 1.29l1.654.799.829.395.785.476c1.047.638 2.116 1.241 3.067 2.02l1.47 1.105 1.358 1.24 2.703-2.913c-1.469-1.423-3.125-2.63-4.801-3.792l1.456-2.213c4.493 2.93 8.364 6.801 11.294 11.294l-2.213 1.456c-1.161-1.676-2.37-3.332-3.793-4.802l-2.912 2.703 1.24 1.359 1.103 1.47c.78.95 1.383 2.02 2.02 3.066l.477.785.396.83.798 1.653c.487 1.123.864 2.29 1.291 3.437l3.797-1.17c-.332-.965-.697-1.92-1.044-2.881-.158-.487-.384-.945-.609-1.404l-.665-1.38 2.365-1.192c2.414 4.789 3.823 10.083 4.12 15.43l-2.645.151-.078-1.53c-.054-.507-.147-1.01-.219-1.515l-.23-1.515-.12-.757-.19-.742-3.874.88c.182.587.255 1.197.345 1.802l.28 1.817c.125 1.218.135 2.448.22 3.671h.661l-.167-3.312-.489-3.275h0z"/>
            </g>
        </g>
    </g>
</svg>
