<svg xmlns="http://www.w3.org/2000/svg" width="240" height="140" viewBox="0 0 240 140">
    <g fill="none" fill-rule="evenodd">
        <g fill-rule="nonzero">
            <g>
                <g>
                    <g opacity=".1">
                        <path fill="#284D9F" d="M97.935 20.334L33.267 59.923 0.645 39.985 65.347 0.396z" transform="translate(-924 -238) translate(914 218) translate(10 20) translate(19.689 28.792)"/>
                        <path fill="#FFF" d="M33.267 60.132l-.085-.054L.306 39.985l.254-.155L65.347.187l.084.054 32.843 20.093-.254.155-64.753 39.643zM.984 39.977l32.283 19.737 64.328-39.38L65.347.604.984 39.978z" transform="translate(-924 -238) translate(914 218) translate(10 20) translate(19.689 28.792)"/>
                    </g>
                    <g opacity=".1">
                        <path fill="#284D9F" d="M60.526 12.776L20.707 37.141 0.645 24.869 40.464 0.504z" transform="translate(-924 -238) translate(914 218) translate(10 20) translate(0 45.707)"/>
                        <path fill="#FFF" d="M20.707 37.35l-.085-.054L.306 24.87l.254-.155L40.464.295l.085.054 20.317 12.427-.255.155-39.904 24.42zM.984 24.87l19.723 12.064 39.48-24.157L40.464.72.984 24.869z" transform="translate(-924 -238) translate(914 218) translate(10 20) translate(0 45.707)"/>
                    </g>
                    <g opacity=".1">
                        <path fill="#284D9F" d="M60.187 12.776L20.368 37.141 0.339 24.869 40.124 0.504z" transform="translate(-924 -238) translate(914 218) translate(10 20) translate(96.068 83.496)"/>
                        <path fill="#FFF" d="M20.368 37.35L0 24.87 40.124.295l.085.054 20.317 12.427-.254.155-39.904 24.42zM.678 24.87l19.69 12.064 39.48-24.157L40.123.72.68 24.869z" transform="translate(-924 -238) translate(914 218) translate(10 20) translate(96.068 83.496)"/>
                    </g>
                    <g opacity=".1">
                        <path fill="#284D9F" d="M60.187 12.776L20.368 37.141 0.339 24.869 40.124 0.504z" transform="translate(-924 -238) translate(914 218) translate(10 20) translate(175.842 50.026)"/>
                        <path fill="#FFF" d="M20.368 37.35L0 24.87 40.124.295l.085.054 20.317 12.427-.254.155-39.904 24.42zM.678 24.87l19.69 12.064 39.48-24.157L40.123.72.68 24.869z" transform="translate(-924 -238) translate(914 218) translate(10 20) translate(175.842 50.026)"/>
                    </g>
                    <g opacity=".1">
                        <path fill="#284D9F" d="M35.1 0.36L63.276 17.599 28.583 38.869 0.407 21.594z" transform="translate(-924 -238) translate(914 218) translate(10 20) translate(137.143 30.951)"/>
                        <path fill="#FFF" d="M28.583 39.078l-.085-.054-28.43-17.43L35.1.15l.085.054L63.615 17.6l-.254.155-34.778 21.324zM.747 21.594L28.583 38.66 62.936 17.6 35.1.569.747 21.594z" transform="translate(-924 -238) translate(914 218) translate(10 20) translate(137.143 30.951)"/>
                    </g>
                    <g opacity=".1">
                        <path fill="#284D9F" d="M25.018 0.252L44.979 12.452 20.402 27.532 0.407 15.296z" transform="translate(-924 -238) translate(914 218) translate(10 20) translate(110.325 18.715)"/>
                        <path fill="#FFF" d="M20.402 27.74L.068 15.297l.254-.155L25.018.043l.085.054 20.215 12.355-24.916 15.289zM.747 15.297l19.655 12.027 24.237-14.87L25.02.46.746 15.296z" transform="translate(-924 -238) translate(914 218) translate(10 20) translate(110.325 18.715)"/>
                    </g>
                    <g opacity=".1">
                        <path fill="#284D9F" d="M25.018 0.252L44.979 12.452 20.402 27.532 0.407 15.296z" transform="translate(-924 -238) translate(914 218) translate(10 20) translate(94.031 1.44)"/>
                        <path fill="#FFF" d="M20.402 27.74L.068 15.297l.254-.155L25.018.043l.085.054 20.215 12.355-24.916 15.289zM.747 15.297l19.655 12.027 24.237-14.87L25.02.46.746 15.296z" transform="translate(-924 -238) translate(914 218) translate(10 20) translate(94.031 1.44)"/>
                    </g>
                    <g opacity=".1">
                        <path fill="#CF3819" d="M25.018 0.252L44.979 12.452 20.402 27.532 0.407 15.296z" transform="translate(-924 -238) translate(914 218) translate(10 20) translate(107.27 107.97)"/>
                        <path fill="#FFF" d="M20.402 27.74L.068 15.297l.254-.155L25.018.043l.085.054 20.215 12.355-24.916 15.289zM.747 15.297l19.655 12.027 24.237-14.87L25.02.46.746 15.296z" transform="translate(-924 -238) translate(914 218) translate(10 20) translate(107.27 107.97)"/>
                    </g>
                    <g opacity=".1">
                        <path fill="#284D9F" d="M25.018 0.252L44.979 12.452 20.402 27.532 0.407 15.296z" transform="translate(-924 -238) translate(914 218) translate(10 20) translate(74.342 110.129)"/>
                        <path fill="#FFF" d="M20.402 27.74L.068 15.297l.254-.155L25.018.043l.085.054 20.215 12.355-24.916 15.289zM.747 15.297l19.655 12.027 24.237-14.87L25.02.46.746 15.296z" transform="translate(-924 -238) translate(914 218) translate(10 20) translate(74.342 110.129)"/>
                    </g>
                    <g opacity=".1">
                        <path fill="#284D9F" d="M25.018 0.252L44.979 12.452 20.402 27.532 0.407 15.296z" transform="translate(-924 -238) translate(914 218) translate(10 20) translate(18.331 71.62)"/>
                        <path fill="#FFF" d="M20.402 27.74L.068 15.297l.254-.155L25.018.043l.085.054 20.215 12.355-24.916 15.289zM.747 15.297l19.655 12.027 24.237-14.87L25.02.46.746 15.296z" transform="translate(-924 -238) translate(914 218) translate(10 20) translate(18.331 71.62)"/>
                    </g>
                    <g opacity=".1">
                        <path fill="#284D9F" d="M25.018 0.252L44.979 12.452 20.402 27.532 0.407 15.296z" transform="translate(-924 -238) translate(914 218) translate(10 20) translate(151.4 77.018)"/>
                        <path fill="#FFF" d="M20.402 27.74L.068 15.297l.254-.155L25.018.043l.085.054 20.215 12.355-24.916 15.289zM.747 15.297l19.655 12.027 24.237-14.87L25.02.46.746 15.296z" transform="translate(-924 -238) translate(914 218) translate(10 20) translate(151.4 77.018)"/>
                    </g>
                    <g opacity=".1">
                        <path fill="#284D9F" d="M24.509 0.252L52.685 17.527 28.583 32.283 0.407 15.008z" transform="translate(-924 -238) translate(914 218) translate(10 20) translate(137.143 75.938)"/>
                        <path fill="#FFF" d="M28.583 32.492l-.085-.054-28.43-17.43L24.509.043l.085.054 28.43 17.43-24.441 14.965zM.747 15.008l27.836 17.066 23.762-14.547L24.51.461.747 15.008z" transform="translate(-924 -238) translate(914 218) translate(10 20) translate(137.143 75.938)"/>
                    </g>
                    <g opacity=".1">
                        <path fill="#284D9F" d="M67.655 24.509L40.023 41.424 0.645 17.347 28.277 0.432z" transform="translate(-924 -238) translate(914 218) translate(10 20) translate(71.966 98.252)"/>
                        <path fill="#FFF" d="M40.023 41.633l-.085-.054L.306 17.347l.254-.155L28.277.223l.085.054L67.994 24.51l-.254.155-27.717 16.969zM.984 17.347l39.039 23.868L67.315 24.51 28.277.641.984 17.347z" transform="translate(-924 -238) translate(914 218) translate(10 20) translate(71.966 98.252)"/>
                    </g>
                    <g opacity=".1">
                        <path fill="#284D9F" d="M67.655 24.509L40.023 41.424 0.645 17.347 28.277 0.432z" transform="translate(-924 -238) translate(914 218) translate(10 20) translate(66.874 77.378)"/>
                        <path fill="#FFF" d="M40.023 41.633l-.085-.054L.306 17.347l.254-.155L28.277.223l.085.054L67.994 24.51l-.254.155-27.717 16.969zM.984 17.347l39.039 23.868L67.315 24.51 28.277.641.984 17.347z" transform="translate(-924 -238) translate(914 218) translate(10 20) translate(66.874 77.378)"/>
                    </g>
                    <g opacity=".1">
                        <path fill="#284D9F" d="M67.655 24.509L40.023 41.424 0.645 17.347 28.277 0.432z" transform="translate(-924 -238) translate(914 218) translate(10 20) translate(24.78 83.136)"/>
                        <path fill="#FFF" d="M40.023 41.633l-.085-.054L.306 17.347l.254-.155L28.277.223l.085.054L67.994 24.51l-.254.155-27.717 16.969zM.984 17.347l39.039 23.868L67.315 24.51 28.277.641.984 17.347z" transform="translate(-924 -238) translate(914 218) translate(10 20) translate(24.78 83.136)"/>
                    </g>
                    <g opacity=".1">
                        <path fill="#CF3819" d="M67.655 24.509L40.023 41.424 0.645 17.347 28.277 0.432z" transform="translate(-924 -238) translate(914 218) translate(10 20) translate(11.881 53.625)"/>
                        <path fill="#FFF" d="M40.023 41.633l-.085-.054L.306 17.347l.254-.155L28.277.223l.085.054L67.994 24.51l-.254.155-27.717 16.969zM.984 17.347l39.039 23.868L67.315 24.51 28.277.641.984 17.347z" transform="translate(-924 -238) translate(914 218) translate(10 20) translate(11.881 53.625)"/>
                    </g>
                    <g opacity=".1">
                        <path fill="#284D9F" d="M84.322 24.581L39.921 51.753 0.543 27.676 44.945 0.504z" transform="translate(-924 -238) translate(914 218) translate(10 20) translate(25.46 62.982)"/>
                        <path fill="#FFF" d="M39.92 51.962l-.084-.054L.204 27.676l.254-.155L44.928.295l.085.054 39.649 24.232-.255.155-44.486 27.226zM.884 27.676L39.92 51.544l44.062-26.963L44.945.72.883 27.676z" transform="translate(-924 -238) translate(914 218) translate(10 20) translate(25.46 62.982)"/>
                    </g>
                    <g opacity=".1">
                        <path fill="#284D9F" d="M84.322 24.581L39.921 51.753 0.543 27.676 44.945 0.504z" transform="translate(-924 -238) translate(914 218) translate(10 20) translate(81.471 28.432)"/>
                        <path fill="#FFF" d="M39.92 51.962l-.084-.054L.204 27.676l.254-.155L44.928.295l.085.054 39.649 24.232-.255.155-44.486 27.226zM.884 27.676L39.92 51.544l44.062-26.963L44.945.72.883 27.676z" transform="translate(-924 -238) translate(914 218) translate(10 20) translate(81.471 28.432)"/>
                    </g>
                    <g opacity=".1">
                        <path fill="#284D9F" d="M46.065 17.239L27.836 28.396 0.339 11.589 18.569 0.432z" transform="translate(-924 -238) translate(914 218) translate(10 20) translate(115.417)"/>
                        <path fill="#FFF" d="M27.836 28.605l-.085-.054L0 11.589 18.569.223l.084.054L46.405 17.24l-18.57 11.366zM.679 11.589l27.157 16.598 17.89-10.948L18.569.641.679 11.589z" transform="translate(-924 -238) translate(914 218) translate(10 20) translate(115.417)"/>
                    </g>
                    <g opacity=".1">
                        <path fill="#284D9F" d="M46.065 17.239L27.836 28.396 0.339 11.589 18.569 0.432z" transform="translate(-924 -238) translate(914 218) translate(10 20) translate(83.847 10.437)"/>
                        <path fill="#FFF" d="M27.836 28.605l-.085-.054L0 11.589 18.569.223l.084.054L46.405 17.24l-18.57 11.366zM.679 11.589l27.157 16.598 17.89-10.948L18.569.641.679 11.589z" transform="translate(-924 -238) translate(914 218) translate(10 20) translate(83.847 10.437)"/>
                    </g>
                    <g opacity=".1">
                        <path fill="#CF3819" d="M46.065 17.239L27.836 28.396 0.339 11.589 18.569 0.432z" transform="translate(-924 -238) translate(914 218) translate(10 20) translate(137.482 30.591)"/>
                        <path fill="#FFF" d="M27.836 28.605l-.085-.054L0 11.589 18.569.223l.084.054L46.405 17.24l-18.57 11.366zM.679 11.589l27.157 16.598 17.89-10.948L18.569.641.679 11.589z" transform="translate(-924 -238) translate(914 218) translate(10 20) translate(137.482 30.591)"/>
                    </g>
                    <g opacity=".1">
                        <path fill="#284D9F" d="M46.065 17.239L27.836 28.396 0.339 11.589 18.569 0.432z" transform="translate(-924 -238) translate(914 218) translate(10 20) translate(122.207 81.337)"/>
                        <path fill="#FFF" d="M27.836 28.605l-.085-.054L0 11.589 18.569.223l.084.054L46.405 17.24l-18.57 11.366zM.679 11.589l27.157 16.598 17.89-10.948L18.569.641.679 11.589z" transform="translate(-924 -238) translate(914 218) translate(10 20) translate(122.207 81.337)"/>
                    </g>
                    <g opacity=".1">
                        <path fill="#CF3819" d="M31.808 11.841L19.281 19.542 0.373 7.954 12.9 0.288z" transform="translate(-924 -238) translate(914 218) translate(10 20) translate(207.751 58.663)"/>
                        <path fill="#FFF" d="M19.281 19.751l-.084-.054L.034 7.954 12.9.079l19.247 11.762-12.866 7.91zM.713 7.954l18.568 11.38 12.187-7.493L12.9.497.713 7.954z" transform="translate(-924 -238) translate(914 218) translate(10 20) translate(207.751 58.663)"/>
                    </g>
                    <g opacity=".1">
                        <path fill="#284D9F" d="M31.808 11.841L19.281 19.542 0.373 7.954 12.9 0.288z" transform="translate(-924 -238) translate(914 218) translate(10 20) translate(172.447 60.463)"/>
                        <path fill="#FFF" d="M19.281 19.751l-.084-.054L.034 7.954 12.9.079l19.247 11.762-12.866 7.91zM.713 7.954l18.568 11.38 12.187-7.493L12.9.497.713 7.954z" transform="translate(-924 -238) translate(914 218) translate(10 20) translate(172.447 60.463)"/>
                    </g>
                    <g opacity=".1">
                        <path fill="#284D9F" d="M31.808 11.841L19.281 19.542 0.373 7.954 12.9 0.288z" transform="translate(-924 -238) translate(914 218) translate(10 20) translate(66.195 40.668)"/>
                        <path fill="#FFF" d="M19.281 19.751l-.084-.054L.034 7.954 12.9.079l19.247 11.762-12.866 7.91zM.713 7.954l18.568 11.38 12.187-7.493L12.9.497.713 7.954z" transform="translate(-924 -238) translate(914 218) translate(10 20) translate(66.195 40.668)"/>
                    </g>
                    <g opacity=".1">
                        <path fill="#284D9F" d="M31.808 11.841L19.281 19.542 0.373 7.954 12.9 0.288z" transform="translate(-924 -238) translate(914 218) translate(10 20) translate(74.342 21.234)"/>
                        <path fill="#FFF" d="M19.281 19.751l-.084-.054L.034 7.954 12.9.079l19.247 11.762-12.866 7.91zM.713 7.954l18.568 11.38 12.187-7.493L12.9.497.713 7.954z" transform="translate(-924 -238) translate(914 218) translate(10 20) translate(74.342 21.234)"/>
                    </g>
                    <g opacity=".1">
                        <path fill="#CF3819" d="M31.808 11.841L19.281 19.542 0.373 7.954 12.9 0.288z" transform="translate(-924 -238) translate(914 218) translate(10 20) translate(106.591 10.797)"/>
                        <path fill="#FFF" d="M19.281 19.751l-.084-.054L.034 7.954 12.9.079l19.247 11.762-12.866 7.91zM.713 7.954l18.568 11.38 12.187-7.493L12.9.497.713 7.954z" transform="translate(-924 -238) translate(914 218) translate(10 20) translate(106.591 10.797)"/>
                    </g>
                    <path fill="#FFF" d="M53.871 69.532v7.198c-.032 1.008.647 2.051 1.97 2.88l49.698 30.41c2.376 1.476 6.042 1.62 8.113.36L179.61 70c1.086-.648 1.527-1.584 1.357-2.52v-6.873" transform="translate(-924 -238) translate(914 218) translate(10 20)"/>
                    <path fill="#284D9F" d="M181.096 61.2c.044-.177.066-.36.068-.543 0-1.08-.743-2.138-2.036-2.937L129.43 27.31c-2.41-1.497-6.11-1.66-8.242-.36L55.231 67.33c-.917.558-1.43 1.34-1.453 2.203h-.034v7.198c-.038 1.08.702 2.16 2.036 3.002l49.694 30.397c1.42.83 3.02 1.256 4.64 1.238 1.253.035 2.494-.267 3.606-.879l65.954-40.38c1.093-.651 1.61-1.623 1.426-2.638l-.004-6.27zm-1.55 8.681l-65.958 40.384c-2.037 1.231-5.683 1.08-7.985-.36l-49.697-30.41c-1.246-.778-1.938-1.8-1.905-2.765v-6.14c.403.827 1.035 1.504 1.81 1.94l49.697 30.4c1.42.83 3.02 1.257 4.64 1.239 1.252.035 2.491-.268 3.602-.879l65.958-40.348c.458-.272.848-.659 1.134-1.126v5.68c.166.931-.306 1.795-1.297 2.385z" transform="translate(-924 -238) translate(914 218) translate(10 20)"/>
                    <path fill="#FFF" d="M110.156 100.447c-1.005.036-2.001-.212-2.886-.72L60.085 70.865c-.277-.165-.48-.44-.563-.766-.083-.325-.04-.671.122-.962.101-.197.254-.36.44-.468l62.835-38.473c.573-.28 1.204-.405 1.833-.36 1.006-.036 2.002.213 2.886.72l47.185 28.864c.277.165.48.44.563.765.083.325.04.672-.122.963-.101.197-.254.36-.44.467l-62.835 38.473c-.58.261-1.205.384-1.833.36z" transform="translate(-924 -238) translate(914 218) translate(10 20)"/>
                    <path fill="#CF3819" d="M130.313 75.165c-.994.013-1.973-.246-2.845-.753l-6.484-3.995.34-.619 6.484 3.98c1.262.782 3.286.88 4.413.213.357-.175.603-.535.648-.95 0-.46-.363-.95-.991-1.342l-9.946-6.079c-1.148-.72-1.61-1.8-1.148-2.681 1.246-2.57-.187-5.517-3.734-7.684-5.241-3.207-13.113-3.516-17.543-.687-1.545.982-2.472 2.256-2.686 3.678-.193 1.27.194 2.595 1.12 3.843.38-.35.787-.665 1.216-.942 4.603-2.937 12.78-2.631 18.233.68 1.873 1.14 3.177 2.465 3.866 3.93l-.604.324c-.625-1.321-1.867-2.574-3.602-3.628-5.258-3.196-13.127-3.505-17.543-.687-.488.317-.943.688-1.358 1.104l-.258.256-.231-.284c-1.219-1.498-1.735-3.128-1.497-4.711.244-1.627 1.263-3.067 2.987-4.168 4.624-2.948 12.805-2.642 18.236.68 3.9 2.38 5.432 5.694 4.002 8.638-.281.54.072 1.209.89 1.72l9.943 6.079c.848.54 1.33 1.26 1.33 1.98-.035.676-.415 1.279-.99 1.572-.697.372-1.469.555-2.248.533z" transform="translate(-924 -238) translate(914 218) translate(10 20)"/>
                    <path fill="#CF3819" d="M121.018 70.421l-3.462-2.123c-1.016-.599-2.195-.812-3.34-.605-4.753.871-10.3-.194-14.119-2.714-.915-.584-1.741-1.312-2.45-2.159l-.218-.266.241-.234c.455-.452.952-.854 1.484-1.199 4.62-2.947 12.8-2.641 18.232.68 1.84 1.141 3.137 2.462 3.863 3.923l-.597.339c-.659-1.325-1.905-2.584-3.609-3.639-5.238-3.203-13.106-3.512-17.54-.684-.396.255-.771.545-1.12.868.614.68 1.31 1.27 2.07 1.756 3.687 2.433 9.044 3.459 13.65 2.613 1.3-.235 2.636.006 3.789.684l3.466 2.123-.34.637z" transform="translate(-924 -238) translate(914 218) translate(10 20)"/>
                    <path fill="#CF3819" d="M120.611 63.414H121.611V69.964H120.611z" transform="translate(-924 -238) translate(914 218) translate(10 20)"/>
                </g>
            </g>
        </g>
    </g>
</svg>
