<svg xmlns="http://www.w3.org/2000/svg" width="255.454" height="124.75" viewBox="0 0 255.454 124.75">
  <g id="组_3988" data-name="组 3988" transform="translate(-1605.256 -173.302)">
    <path id="路径_5186" data-name="路径 5186" d="M1617.918,297.4s-21.4-26.536-8.56-51.787,37.235-19.26,71.475-44.939c41.567-31.175,70.754-32.888,107.854-19.26,20.972,7.7,24.4,39.375,57.779,59.063,30.095,17.748,5.564,47.935-10.272,52.643s-26.535,4.708-26.535,4.708Z" transform="translate(0 0)" fill="#f2f8fe"/>
    <path id="路径_5187" data-name="路径 5187" d="M2239.576,539.2c-5.341,10.842-12.038,40.47-13.864,42.093s-12.379,7.914-14.205,10.958-1.015,2.03-.2,2.232,46.674.406,46.674.406-5.276-31.454-5.885-31.657S2239.576,539.2,2239.576,539.2Z" transform="translate(-494.251 -298.846)" fill="#a2dff2"/>
    <path id="路径_5188" data-name="路径 5188" d="M2328.154,594.743c8.423.059,17.312.105,22.2.129l-6.7-40.064c-3.573-6.927-7.911-15.608-7.911-15.608-.673,1.367-1.368,3.033-2.073,4.9-.695,30.091,3.639,38.526.384,43.888A21.072,21.072,0,0,1,2328.154,594.743Z" transform="translate(-590.424 -298.846)" fill="#96cfe0"/>
    <path id="路径_5189" data-name="路径 5189" d="M1858.693,838.91H1638.468a1.7,1.7,0,0,1,0-3.4h220.225a1.7,1.7,0,1,1,0,3.4Z" transform="translate(-25.738 -540.858)" fill="#c6dcf9"/>
    <path id="路径_5190" data-name="路径 5190" d="M2397.42,467.79c7.617,7.031,24.573,13.7,24.573,13.7s2.576,23.8.819,37.278-.781,16.211-.781,16.211h-34.961s-4.692-6.511-13.282-26.758c-5.469-12.891-4.492-27.344-4.492-27.344l21.29-9.571Z" transform="translate(-623.97 -240.522)" fill="#a2dff2"/>
    <path id="路径_5191" data-name="路径 5191" d="M2447.748,599.049h34.961s-.976-2.734.781-16.211c1.447-11.1-.044-29.194-.615-35.239l-3.179-1.363c-7.982,2.3-12.582,14.206-13.935,25.841-.906,7.785-13.8,15.449-22.24,19.668A69.073,69.073,0,0,0,2447.748,599.049Z" transform="translate(-684.65 -304.593)" fill="#96cfe0"/>
    <path id="路径_5192" data-name="路径 5192" d="M2412.324,334.475c-4.214,9.386.844,18.082.691,17.715s6.379-15.848,6.379-15.848Z" transform="translate(-657.797 -131.638)" fill="#2e5b9a"/>
    <path id="路径_5193" data-name="路径 5193" d="M2466.937,372.351l5.345,19.536a1.769,1.769,0,0,1-.338,1.583c-1.254,1.544-3.039,4.721-6.64,5.74a8.925,8.925,0,0,1-2.261.254,1.526,1.526,0,0,1-1.506-1.235l-3.581-18.53Z" transform="translate(-696.439 -162.573)" fill="#f09959"/>
    <path id="路径_5194" data-name="路径 5194" d="M2465.916,381.261l-1.954.8-6.006,4.914,3.224,16.428C2466.648,400,2467.445,397.695,2465.916,381.261Z" transform="translate(-696.439 -169.85)" fill="#e38540"/>
    <path id="路径_5195" data-name="路径 5195" d="M2428.87,345.732c-1.183,6.427-5.992,10.773-10.741,9.708s-7.015-5.225-6.457-13.565c.437-6.543,3.664-13.655,8.413-12.59S2430.052,339.305,2428.87,345.732Z" transform="translate(-658.569 -127.312)" fill="#f09959"/>
    <path id="路径_5196" data-name="路径 5196" d="M2495.142,541.816c7.074,1.6,8.388,15.965,10.688,31.117.265,1.744,1.624,16.506,1.624,16.506a4.518,4.518,0,0,1-2.571,4.059c-2.312,1.156-3.247,2.03-16.641,2.165-12.864.13-29.449-.406-29.449-.406s-.147-4.786,1.173-7.125c1.984-3.518,22.323-8.569,24.218-8.839.271-3.788-1.868-17.495,1.082-26.788,2.03-6.393,4.211-9.741,6.944-10.616A5.487,5.487,0,0,1,2495.142,541.816Z" transform="translate(-697.119 -300.848)" fill="#a2dff2"/>
    <path id="路径_5197" data-name="路径 5197" d="M2498.506,610.6c6.342.1,15.045.186,22.176.114,13.394-.135,14.329-1.009,16.641-2.165a4.755,4.755,0,0,0,2.841-3.653s-1.367-15.708-1.623-17.453c-1.488-10.147-3.1-21.758-6.839-27.363a76.5,76.5,0,0,1,4.147,22.727,22.648,22.648,0,0,1-.691,6.259,3.473,3.473,0,0,1-4.6,2.57c-4.871-1.353-10.959,1.488-10.959,1.488a15.249,15.249,0,0,1,8.929-.135c4.329,1.488,13.259,11.365,3.518,15.018C2529.065,609.125,2511.211,610.037,2498.506,610.6Z" transform="translate(-729.558 -315.9)" fill="#96cfe0"/>
    <path id="路径_5198" data-name="路径 5198" d="M2461.07,784.078a6.707,6.707,0,0,1,5.5-3.067c3.7,0,3.427,6.043,2.886,8.027a3.005,3.005,0,0,1-2.706,2.075l-7.937-.361Z" transform="translate(-697.141 -496.344)" fill="#96cfe0"/>
    <path id="矩形_1389" data-name="矩形 1389" d="M1.569,0H51.211a1.569,1.569,0,0,1,1.569,1.569v0a1.569,1.569,0,0,1-1.569,1.569H1.569A1.569,1.569,0,0,1,0,1.569v0A1.569,1.569,0,0,1,1.569,0Z" transform="translate(1704.474 293.008)" fill="#75a1de"/>
    <path id="路径_5199" data-name="路径 5199" d="M2377.174,787.668c-7.757-2.8-9.792-1.743-11.545-2.255-4.329-1.263-5.412-.18-8.208,7.486-.557,1.528,1.082,1.623,2.706,1.623s3.608-3.157,4.239-3.518a8.819,8.819,0,0,1,2.345-.541s-.541,0-1.353,1.623-1.8,2.255-.541,2.255,1.443-2.075,3.788-1.624,1.443,1.624,7.306,1.533,10.287,0,10.192-3.518c-.09-3.337.279-5.006-2.886-5.592C2380.782,784.691,2377.174,787.668,2377.174,787.668Z" transform="translate(-614.238 -499.574)" fill="#f09959"/>
    <path id="路径_5200" data-name="路径 5200" d="M2465.858,790.468c5.186-.586,3.664,5.874,3.123,6.415s2.887.19,2.887.19a6.262,6.262,0,0,0,.258-5.568,5.057,5.057,0,0,0-4.059-3.112l-2.3,1.263Z" transform="translate(-702.82 -502.374)" fill="#a86b48"/>
    <path id="路径_5201" data-name="路径 5201" d="M2469.79,789.006c-.067.8-1.427,1.341-3.039,1.206s-2.864-.893-2.8-1.694,1.427-1.341,3.039-1.206S2469.857,788.205,2469.79,789.006Z" transform="translate(-701.336 -501.474)" fill="#2e5b9a"/>
    <path id="路径_5202" data-name="路径 5202" d="M2470.311,787.648c-.06.715-1.275,1.2-2.715,1.078s-2.558-.8-2.5-1.513,1.275-1.2,2.715-1.077S2470.371,786.932,2470.311,787.648Z" transform="translate(-702.27 -500.514)" fill="#3e6bab"/>
    <path id="路径_5203" data-name="路径 5203" d="M2471.916,787.75c-.043.515-.918.862-1.954.775s-1.842-.574-1.8-1.089.918-.862,1.955-.776S2471.959,787.235,2471.916,787.75Z" transform="translate(-704.774 -500.948)" fill="#f0ceb4"/>
    <g id="组_3978" data-name="组 3978" transform="translate(1641.541 238.806)">
      <path id="路径_5204" data-name="路径 5204" d="M1865.735,578.182H1815.33a5.515,5.515,0,0,1-5.4-4.564l-6.574-36.288a5.548,5.548,0,0,1,5.4-6.577h50.405a5.515,5.515,0,0,1,5.4,4.564l6.574,36.288A5.548,5.548,0,0,1,1865.735,578.182Z" transform="translate(-1803.26 -530.753)" fill="#75a1de"/>
      <path id="路径_5205" data-name="路径 5205" d="M1868.09,576.115l-6.709-35.537a5.568,5.568,0,0,0-5.515-4.47h-51.224a5.661,5.661,0,0,0-1.286,4.738l6.805,37.049a5.687,5.687,0,0,0,5.594,4.66h46.821A5.5,5.5,0,0,0,1868.09,576.115Z" transform="translate(-1803.26 -535.127)" fill="#a8ceff"/>
      <path id="路径_5206" data-name="路径 5206" d="M1968.172,698.9H1958.6a3.253,3.253,0,0,1-3.09-3.395v-17.5a5.178,5.178,0,0,0-4.918-5.4h-5a5.177,5.177,0,0,0-4.918,5.4V697.6a5.783,5.783,0,0,0,5.532,6.039l26.115-.179A4.373,4.373,0,0,0,1968.172,698.9Z" transform="translate(-1915.496 -646.612)" fill="#75a1de"/>
      <path id="路径_5207" data-name="路径 5207" d="M1942.755,680.522v19.292a5.946,5.946,0,0,0,5.514,5.93l25.486-.159c0-.417-2.012-1.178-4.493-1.178h-10.351a3.342,3.342,0,0,1-3.343-3.343V680.522a5.32,5.32,0,0,0-5.32-5.32h-2.174A5.32,5.32,0,0,0,1942.755,680.522Z" transform="translate(-1917.192 -648.731)" fill="#a8ceff"/>
    </g>
    <path id="路径_5208" data-name="路径 5208" d="M2213.315,798.193c3.852-2.14,8.559-1.427,10.271.713s2,3.566-1.854,3.566-11.555.285-12.839.143S2213.315,798.193,2213.315,798.193Z" transform="translate(-492.864 -509.322)" fill="#f09959"/>
    <path id="路径_5209" data-name="路径 5209" d="M2265,795.911c4.137-1,6.963,1.409,10.413,3.709,3,2,3.6,3.939.285,2.282a24.991,24.991,0,0,0-7.7-2.71Z" transform="translate(-538.843 -508.324)" fill="#f09959"/>
    <path id="路径_5210" data-name="路径 5210" d="M2195.977,801.391c-2.089,0-3.913-.666-5.388-.543s-6.145,4.916-5.407,5.284a1.694,1.694,0,0,0,.172.073,2.516,2.516,0,0,0,2.985-1.047c.661-1.061,1.736-2.295,2.988-1.853a13.282,13.282,0,0,0,4.281.666Z" transform="translate(-473.588 -512.533)" fill="#f09959"/>
    <path id="路径_5211" data-name="路径 5211" d="M2234.684,796.371c-2.14-.856,1.284-7.988,2.425-7.988s5.421,3.424,5.421,3.424-1.007.568-4.422-.57c-.856-.285-1.569,4.565-2.568,5.135S2234.684,796.371,2234.684,796.371Z" transform="translate(-513.52 -502.365)" fill="#f7a96f"/>
    <path id="路径_5212" data-name="路径 5212" d="M2401.334,324.359c-.2,7.854,2.477,9.182,4.349,10.249s9.935-.7,11.119-2.638c3.028-4.97.479-9.6,1.156-9.534s1.3,2,3.063,4.516c.165.234,1.312,1.786,1.372,1.27.82-7.033,4.482-9.217,3.61-16.331-.643-5.244-3.972-4.828-3.972-4.828s-2.147-4.388-8.832-3.89c-4.479.334-8.472,2.079-13.089,3.267s5.462,11.653,11.451,7.83,3.031,4.6,3.977,5.252.455.087.888,4.4-5.04,7.123-6.608,7.492c-5.015,1.18-5.854.352-6.952-1.536A21.54,21.54,0,0,1,2401.334,324.359Z" transform="translate(-648.235 -106.04)" fill="#2e5b9a"/>
    <path id="路径_5213" data-name="路径 5213" d="M2506.35,386.124c-.575,1.98-1.982,3.258-3.14,2.856s-1.194-2.01-1.058-4.312c.124-2.075,1.982-3.258,3.141-2.856S2506.925,384.144,2506.35,386.124Z" transform="translate(-732.491 -170.236)" fill="#f09959"/>
    <g id="组_3983" data-name="组 3983" transform="translate(1620.603 190.461)">
      <g id="组_3980" data-name="组 3980">
        <path id="矩形_1390" data-name="矩形 1390" d="M4.6,0H39.9a4.6,4.6,0,0,1,4.6,4.6v10.9a4.6,4.6,0,0,1-4.6,4.6H4.6a4.6,4.6,0,0,1-4.6-4.6V4.6A4.6,4.6,0,0,1,4.6,0Z" fill="#b7e1ff"/>
        <path id="矩形_1391" data-name="矩形 1391" d="M3.719,0H38.351a3.719,3.719,0,0,1,3.719,3.719v6.446a3.719,3.719,0,0,1-3.719,3.719H3.72A3.72,3.72,0,0,1,0,10.165V3.719A3.719,3.719,0,0,1,3.719,0Z" transform="translate(1.217 5.284)" fill="#fff"/>
        <g id="组_3979" data-name="组 3979" transform="translate(1.835 1.48)">
          <rect id="矩形_1392" data-name="矩形 1392" width="1.744" height="1.569" rx="0.785" fill="#fff"/>
          <path id="矩形_1393" data-name="矩形 1393" d="M.785,0H.959a.784.784,0,0,1,.784.784v0a.785.785,0,0,1-.785.785H.785A.785.785,0,0,1,0,.785v0A.785.785,0,0,1,.785,0Z" transform="translate(3.17)" fill="#fff"/>
          <path id="矩形_1394" data-name="矩形 1394" d="M.785,0H.959a.784.784,0,0,1,.784.784v0a.785.785,0,0,1-.785.785H.785A.785.785,0,0,1,0,.785v0A.785.785,0,0,1,.785,0Z" transform="translate(6.34)" fill="#fff"/>
        </g>
        <path id="路径_5214" data-name="路径 5214" d="M1813.729,306.444h-22.253a.666.666,0,1,1,0-1.331h22.253a.666.666,0,1,1,0,1.331Z" transform="translate(-1772.153 -298.117)" fill="#b7e1ff"/>
        <path id="路径_5215" data-name="路径 5215" d="M1722.394,362.491h-22.253a.666.666,0,0,1,0-1.331h22.253a.666.666,0,1,1,0,1.331Z" transform="translate(-1697.556 -343.893)" fill="#b7e1ff"/>
        <rect id="矩形_1395" data-name="矩形 1395" width="2.758" height="1.331" rx="0.666" transform="translate(26.408 17.267)" fill="#b7e1ff"/>
        <rect id="矩形_1396" data-name="矩形 1396" width="2.758" height="1.331" rx="0.666" transform="translate(29.879 17.267)" fill="#b7e1ff"/>
        <path id="路径_5216" data-name="路径 5216" d="M1750.789,324.179h-36.851a.452.452,0,1,1,0-.9h36.851a.452.452,0,1,1,0,.9Z" transform="translate(-1708.999 -312.952)" fill="#b7e1ff"/>
        <path id="路径_5217" data-name="路径 5217" d="M1750.789,334.818h-36.851a.452.452,0,1,1,0-.9h36.851a.452.452,0,1,1,0,.9Z" transform="translate(-1708.999 -321.641)" fill="#b7e1ff"/>
      </g>
      <g id="组_3982" data-name="组 3982" transform="translate(10.056 14.122)">
        <path id="矩形_1397" data-name="矩形 1397" d="M4.605,0H39.9a4.6,4.6,0,0,1,4.6,4.6v10.9A4.605,4.605,0,0,1,39.9,20.113H4.605A4.605,4.605,0,0,1,0,15.507V4.605A4.605,4.605,0,0,1,4.605,0Z" fill="#9ec8ff"/>
        <path id="矩形_1398" data-name="矩形 1398" d="M3.719,0H38.351a3.72,3.72,0,0,1,3.72,3.72v6.446a3.719,3.719,0,0,1-3.719,3.719H3.72A3.72,3.72,0,0,1,0,10.165V3.719A3.719,3.719,0,0,1,3.719,0Z" transform="translate(1.217 5.284)" fill="#fff"/>
        <g id="组_3981" data-name="组 3981" transform="translate(1.835 1.48)">
          <path id="矩形_1399" data-name="矩形 1399" d="M.785,0H.959a.784.784,0,0,1,.784.784v0a.785.785,0,0,1-.785.785H.785A.785.785,0,0,1,0,.785v0A.785.785,0,0,1,.785,0Z" fill="#fff"/>
          <rect id="矩形_1400" data-name="矩形 1400" width="1.744" height="1.569" rx="0.785" transform="translate(3.17)" fill="#fff"/>
          <path id="矩形_1401" data-name="矩形 1401" d="M.784,0H.959a.785.785,0,0,1,.785.785v0a.784.784,0,0,1-.784.784H.785A.785.785,0,0,1,0,.784v0A.784.784,0,0,1,.784,0Z" transform="translate(6.34)" fill="#fff"/>
        </g>
        <path id="路径_5218" data-name="路径 5218" d="M1868.605,383.5h-22.254a.666.666,0,1,1,0-1.332h22.254a.666.666,0,0,1,0,1.332Z" transform="translate(-1827.029 -375.177)" fill="#9ec8ff"/>
        <path id="路径_5219" data-name="路径 5219" d="M1777.271,439.551h-22.253a.666.666,0,0,1,0-1.331h22.253a.666.666,0,1,1,0,1.331Z" transform="translate(-1752.433 -420.953)" fill="#9ec8ff"/>
        <rect id="矩形_1402" data-name="矩形 1402" width="2.758" height="1.331" rx="0.666" transform="translate(26.408 17.267)" fill="#9ec8ff"/>
        <rect id="矩形_1403" data-name="矩形 1403" width="2.758" height="1.331" rx="0.666" transform="translate(29.879 17.267)" fill="#9ec8ff"/>
        <path id="路径_5220" data-name="路径 5220" d="M1805.666,401.24h-36.851a.452.452,0,0,1,0-.9h36.851a.452.452,0,1,1,0,.9Z" transform="translate(-1763.876 -390.012)" fill="#9ec8ff"/>
        <path id="路径_5221" data-name="路径 5221" d="M1805.666,411.879h-36.851a.452.452,0,1,1,0-.9h36.851a.452.452,0,1,1,0,.9Z" transform="translate(-1763.876 -398.702)" fill="#9ec8ff"/>
      </g>
    </g>
    <g id="组_3985" data-name="组 3985" transform="translate(1679.443 213.997)">
      <path id="路径_5222" data-name="路径 5222" d="M2021.642,401.148a5.777,5.777,0,1,1-5.777-5.777A5.777,5.777,0,0,1,2021.642,401.148Z" transform="translate(-2010.088 -395.371)" fill="#ff5e5e"/>
    </g>
    <g id="组_3987" data-name="组 3987" transform="translate(1689.568 176.391)">
      <path id="矩形_1404" data-name="矩形 1404" d="M8.274,0H31.882a8.274,8.274,0,0,1,8.274,8.274v0a8.274,8.274,0,0,1-8.274,8.274H8.273A8.273,8.273,0,0,1,0,8.275v0A8.274,8.274,0,0,1,8.274,0Z" fill="#9ec8ff"/>
      <path id="路径_5224" data-name="路径 5224" d="M2091.8,260.637v9.13l10.52-10.52S2092.017,260.637,2091.8,260.637Z" transform="translate(-2086.953 -246.586)" fill="#9ec8ff"/>
      <path id="矩形_1405" data-name="矩形 1405" d="M6.633,0H29.37A6.633,6.633,0,0,1,36,6.633v0a6.633,6.633,0,0,1-6.633,6.633H6.634A6.634,6.634,0,0,1,0,6.633v0A6.633,6.633,0,0,1,6.633,0Z" transform="translate(2.077 1.641)" fill="#fff"/>
      <path id="路径_5225" data-name="路径 5225" d="M2108,210.658h-16.262a.713.713,0,1,1,0-1.427H2108a.713.713,0,1,1,0,1.427Z" transform="translate(-2086.316 -205.736)" fill="#9ec8ff"/>
      <rect id="矩形_1406" data-name="矩形 1406" width="30.955" height="0.801" rx="0.401" transform="translate(4.708 6.847)" fill="#9ec8ff"/>
      <rect id="矩形_1407" data-name="矩形 1407" width="30.955" height="0.801" rx="0.401" transform="translate(4.708 8.4)" fill="#9ec8ff"/>
      <g id="组_3986" data-name="组 3986" transform="translate(27.666 12.767)">
        <path id="矩形_1408" data-name="矩形 1408" d="M.785,0H.959a.784.784,0,0,1,.784.784v0a.784.784,0,0,1-.784.784H.785A.785.785,0,0,1,0,.785v0A.785.785,0,0,1,.785,0Z" fill="#9ec8ff"/>
        <rect id="矩形_1409" data-name="矩形 1409" width="1.743" height="1.569" rx="0.785" transform="translate(3.17)" fill="#9ec8ff"/>
        <rect id="矩形_1410" data-name="矩形 1410" width="1.744" height="1.569" rx="0.785" transform="translate(6.34)" fill="#9ec8ff"/>
      </g>
    </g>
    <text id="_" data-name="+" transform="translate(1686.133 226.062) rotate(-45)" fill="#fff" font-size="13" font-family="NotoSansTC-Medium, Noto Sans TC" font-weight="500"><tspan x="0" y="0">+</tspan></text>
  </g>
</svg>
