<svg xmlns="http://www.w3.org/2000/svg" width="293" height="89" viewBox="0 0 293 89">
    <defs>
        <linearGradient id="bnjbra21xc" x1="50%" x2="50%" y1="0%" y2="100%">
            <stop offset="0%"/>
            <stop offset="100%"/>
        </linearGradient>
        <linearGradient id="vfxsa2mqid" x1="50%" x2="50%" y1="0%" y2="100%">
            <stop offset="0%" stop-color="#D40000"/>
            <stop offset="100%" stop-color="#8E061B"/>
        </linearGradient>
        <linearGradient id="bmxujupv4e" x1="50%" x2="50%" y1="49.018%" y2="51.192%">
            <stop offset="0%" stop-color="#A90000"/>
            <stop offset="50.754%" stop-color="#A5001E"/>
            <stop offset="100%" stop-color="#7A000F"/>
        </linearGradient>
        <linearGradient id="2kgtvx3z5f" x1="50%" x2="50%" y1="47.855%" y2="52.605%">
            <stop offset="0%" stop-color="#A90000"/>
            <stop offset="50.754%" stop-color="#A5001E"/>
            <stop offset="100%" stop-color="#7A000F"/>
        </linearGradient>
        <linearGradient id="kx0ovigdtg" x1="50%" x2="50%" y1="47.855%" y2="52.605%">
            <stop offset="0%" stop-color="#A90000"/>
            <stop offset="50.754%" stop-color="#A5001E"/>
            <stop offset="100%" stop-color="#7A000F"/>
        </linearGradient>
        <filter id="50a3jpgaua" width="117.3%" height="104.5%" x="-8.6%" y="-2.2%" filterUnits="objectBoundingBox">
            <feOffset dy="2" in="SourceAlpha" result="shadowOffsetOuter1"/>
            <feGaussianBlur in="shadowOffsetOuter1" result="shadowBlurOuter1" stdDeviation="2"/>
            <feColorMatrix in="shadowBlurOuter1" result="shadowMatrixOuter1" values="0 0 0 0 0 0 0 0 0 0 0 0 0 0 0 0 0 0 0.5 0"/>
            <feMerge>
                <feMergeNode in="shadowMatrixOuter1"/>
                <feMergeNode in="SourceGraphic"/>
            </feMerge>
        </filter>
        <filter id="z5w5qz02hb" width="109.8%" height="148.1%" x="-4.9%" y="-25%" filterUnits="objectBoundingBox">
            <feOffset dy="2" in="SourceAlpha" result="shadowOffsetOuter1"/>
            <feGaussianBlur in="shadowOffsetOuter1" result="shadowBlurOuter1" stdDeviation="2"/>
            <feColorMatrix in="shadowBlurOuter1" result="shadowMatrixOuter1" values="0 0 0 0 0 0 0 0 0 0 0 0 0 0 0 0 0 0 0.5 0"/>
            <feMerge>
                <feMergeNode in="shadowMatrixOuter1"/>
                <feMergeNode in="SourceGraphic"/>
            </feMerge>
        </filter>
    </defs>
    <g fill="none" fill-rule="evenodd">
        <g>
            <g filter="url(#50a3jpgaua)" transform="translate(-41 -194) translate(60 116)">
                <g filter="url(#z5w5qz02hb)" transform="translate(0 97)">
                    <path fill="url(#bnjbra21xc)" stroke="#000" stroke-linejoin="round" d="M0 40L255 40 255 23 0 23z"/>
                    <path fill="#79000F" stroke="#000" stroke-linejoin="round" d="M5 48L250 48 250 14 5 14z"/>
                    <path fill="url(#vfxsa2mqid)" stroke="#000" stroke-linejoin="round" d="M12 51L243 51 243 11 12 11z"/>
                    <g>
                        <path fill="url(#bmxujupv4e)" d="M191.262 8.54l-.198 2.273 2.25 1.04 2.388-1.096-.21-2.286-2.06-1.432-2.17 1.501zm.859 1.66l.096-1.105 1.213-.839 1.11.77.1 1.118-1.323.607-1.196-.55zm-77.86-1.66l-.197 2.274 2.25 1.038 2.388-1.094-.21-2.287-2.06-1.432-2.17 1.501zm.86 1.661l.096-1.106 1.214-.839 1.109.77.1 1.12-1.324.606-1.194-.55zm-77.86-1.66l-.197 2.273 2.25 1.038 2.388-1.094-.21-2.287-2.06-1.432-2.17 1.501zm.86 1.66l.097-1.106 1.213-.839 1.109.77.102 1.12-1.326.606-1.194-.55zm114.354 20.183l.208 2.286 2.062 1.433 2.17-1.502.198-2.274-2.25-1.038-2.388 1.095zm1.162 1.732l-.102-1.119 1.326-.607 1.196.551-.097 1.105-1.213.84-1.11-.77zm-78.162-1.733l.21 2.287 2.06 1.432 2.17-1.5.198-2.276-2.251-1.037-2.387 1.094zm1.164 1.733l-.103-1.12 1.325-.608 1.195.551-.095 1.107-1.214.84-1.108-.77zM.84 29.3v1.1l.02-.01 1.196.55-.096 1.107-1.12.774v1.216l2.075-1.435.197-2.275L.862 29.29l-.021.01zm228.633 1.085l.209 2.286 2.062 1.433.095-.066v-1.216l-.093.065-1.11-.77-.102-1.119 1.305-.597v-1.1l-2.366 1.084z" transform="translate(11 11)"/>
                        <path fill="url(#2kgtvx3z5f)" d="M224.916.57l-.984.452-.04-.451h-1.005l.178 1.949 4.252-1.95h-2.4zm-62.07 0l-.04.447-.967-.446h-2.389l4.23 1.95.168-1.95h-1.003zm-14.93 0l-.984.452-.04-.451h-1.006l.178 1.949 4.253-1.95h-2.4zm-62.07 0l-.04.447-.968-.446H82.45l4.23 1.95.168-1.95h-1.003zm-14.932 0l-.98.45-.043-.45h-1.003l.178 1.95L73.317.57h-2.403zM8.845.57l-.039.447L7.84.57H5.451L9.68 2.52 9.85.57H8.845zM187.44 6.32l-.603 6.949 6.473 2.986 6.634-3.042-.637-6.963-5.869-4.077-5.998 4.148zm.454 6.336l.501-5.781 5.041-3.486 4.918 3.415.53 5.796-5.572 2.554-5.418-2.498zM110.44 6.32l-.602 6.948 6.473 2.987 6.633-3.043-.637-6.963-5.869-4.077-5.998 4.148zm.454 6.335l.502-5.781 5.04-3.486 4.918 3.415.53 5.796-5.572 2.555-5.418-2.5zM33.438 6.32l-.602 6.948 6.474 2.987 6.633-3.043-.637-6.963-5.869-4.077-5.999 4.148zm.455 6.335l.502-5.781 5.041-3.486 4.917 3.415.53 5.796-5.572 2.555-5.418-2.5zm37.342 15.272l.635 6.965 5.871 4.076 5.997-4.148.604-6.95-6.475-2.986-6.632 3.043zm1.588 6.409l-.528-5.795 5.571-2.555 5.42 2.499-.504 5.78-5.04 3.487-4.919-3.416zM.84 24.897v1.102l.026-.012 5.42 2.499-.505 5.78-4.94 3.418V38.9l5.896-4.08.604-6.948-6.474-2.987-.027.012zm147.393 3.03l.637 6.966 5.87 4.076 5.998-4.148.602-6.95-6.473-2.985-6.634 3.042zm1.59 6.41l-.528-5.795 5.571-2.554 5.418 2.498-.502 5.78-5.04 3.487-4.919-3.416zm75.411-6.41l.635 6.966 5.871 4.076.1-.07v-1.214l-.098.068-4.92-3.416-.528-5.795L231.84 26v-1.101l-6.606 3.029zm-40.906 12.644h1.003l.04-.446.965.446h2.39l-4.229-1.95-.169 1.95zm-76.999 0h1.004l.04-.446.964.446h2.39l-4.228-1.95-.17 1.95zm-77 0h1.003l.04-.446.965.446h2.388l-4.227-1.95-.169 1.95zm167.532 0h2.4l.983-.451.042.45h1.004l-.178-1.948-4.25 1.949zm-77 0h2.4l.984-.451.041.45h1.004l-.178-1.948-4.252 1.949zm-77 0h2.402l.981-.45.042.45h1.004l-.178-1.948-4.25 1.948z" transform="translate(11 11)"/>
                        <path fill="url(#2kgtvx3z5f)" d="M218.87.57l.727 7.94 12.244-5.612V1.797l-11.377 5.215-.59-6.441h-1.003zm-22.48 0l5.779 4.014.954 10.472-9.816 4.5-9.641-4.446.907-10.454L190.479.57h-1.757l-5.104 3.53-1.008 11.622 10.694 4.936 10.88-4.99-1.062-11.64-4.98-3.458h-1.752zm-29.53 0l-.561 6.464-11.404-5.262-11.431 5.24-.59-6.441h-1.003l.726 7.94 12.295-5.637 12.28 5.664.692-7.967h-1.003zm-47.47 0l5.778 4.014.955 10.472-9.816 4.5-9.642-4.446.908-10.454L113.479.57h-1.757l-5.105 3.53-1.01 11.622 10.699 4.936 10.878-4.99-1.063-11.64L121.143.57h-1.753zm-29.53 0l-.561 6.464-11.404-5.262-11.431 5.24-.59-6.441h-1.002l.725 7.94 12.297-5.637 12.278 5.664.692-7.967H89.86zm-47.47 0l5.777 4.014.957 10.472-9.817 4.5-9.641-4.446.908-10.454L36.48.57h-1.76L29.618 4.1l-1.008 11.622 10.696 4.936 10.88-4.99-1.065-11.64L44.142.57H42.39zm-29.53 0l-.561 6.464L.894 1.772l-.053.025v1.1l.052-.023 12.279 5.664.692-7.967H12.86zm131.134 24.902l1.063 11.64 4.977 3.459h1.753l-5.777-4.013-.955-10.472 9.816-4.501 9.64 4.447-.906 10.454-5.905 4.085h1.758l5.103-3.53 1.007-11.623-10.694-4.935-10.88 4.989zm-77 0l1.064 11.64 4.977 3.459h1.752l-5.776-4.013-.956-10.472 9.816-4.501 9.642 4.447-.908 10.454L80.7 40.57h1.758l5.103-3.53 1.009-11.623-10.698-4.935-10.878 4.989zM.84 20.498v1.1l.03-.013 9.642 4.447-.908 10.454L3.7 40.57h1.758l5.102-3.53 1.009-11.623L.872 20.483l-.031.015zm220.154 4.974l1.062 11.64 4.977 3.459h1.753l-5.777-4.013-.955-10.472 9.786-4.487v-1.101l-10.846 4.974zM180.314 40.57h1.004l.56-6.463 11.406 5.262 11.43-5.241.589 6.442h1.004l-.726-7.94-12.295 5.637-12.28-5.664-.692 7.967zm-77 0h1.004l.56-6.463 11.406 5.262 11.43-5.241.589 6.442h1.004l-.726-7.94-12.296 5.637-12.28-5.664-.69 7.967zm-77 0h1.004l.56-6.463 11.407 5.262 11.43-5.241.588 6.442h1.004l-.725-7.94-12.296 5.637-12.28-5.664-.691 7.967z" transform="translate(11 11)"/>
                        <path fill="url(#kx0ovigdtg)" d="M214.854.57l1.273 13.932 15.713-7.205v-1.1l-14.846 6.807L215.858.57h-1.004zm-11.452 0l2.579 1.793 1.383 15.15-14.063 6.446-13.864-6.395 1.313-15.128L183.446.57h-1.756l-1.895 1.31-1.415 16.297 14.92 6.883 15.125-6.936-1.49-16.317L205.153.57h-1.751zm-32.526 0l-1.084 12.48-14.903-6.876-14.895 6.83L138.858.57h-1.004l1.273 13.93 15.761-7.225 15.777 7.278L171.879.57h-1.003zm-44.475 0l2.58 1.793 1.383 15.15-14.062 6.446-13.865-6.395 1.313-15.128L106.447.57h-1.757l-1.894 1.31-1.415 16.297 14.92 6.883 15.124-6.936-1.491-16.317L128.153.57h-1.752zm-32.526 0l-1.083 12.48-14.904-6.876-14.894 6.83L61.859.57h-1.004l1.271 13.93 15.761-7.225 15.778 7.278L94.878.57h-1.003zm-44.473 0l2.58 1.793 1.382 15.15-14.063 6.447-13.864-6.396 1.314-15.128L29.447.57H27.69l-1.894 1.31-1.416 16.297 14.921 6.884 15.124-6.937-1.49-16.317L51.153.57h-1.751zm-32.528 0l-1.082 12.48L.889 6.174l-.048.022v1.1l.047-.02 15.777 7.278L17.879.57h-1.005zm45.879 22.446l1.491 16.318 1.78 1.237h1.752l-2.579-1.792-1.384-15.15 14.062-6.448 13.866 6.397-1.313 15.128-2.696 1.865h1.756l1.895-1.311 1.414-16.295-14.921-6.885-15.123 6.936zM.841 16.096v1.1l.035-.015 13.865 6.397-1.314 15.128-2.696 1.865h1.757l1.894-1.311 1.416-16.295L.877 16.08l-.036.016zm138.912 6.92l1.49 16.318 1.78 1.237h1.752l-2.579-1.792-1.383-15.15 14.063-6.447 13.864 6.396-1.313 15.128-2.696 1.865h1.758l1.894-1.311 1.414-16.295-14.919-6.884-15.125 6.935zm77 0l1.49 16.318 1.78 1.237h1.753l-2.58-1.792-1.383-15.15 14.027-6.431v-1.1l-15.087 6.918zM176.298 40.57h1.004l1.084-12.48 14.902 6.876 14.896-6.83 1.135 12.434h1.004L209.05 26.64l-15.76 7.226-15.777-7.28-1.215 13.985zm-76.998 0h1.003l1.083-12.48 14.903 6.876 14.894-6.83 1.136 12.434h1.004l-1.272-13.931-15.761 7.226-15.777-7.28L99.3 40.572zm-77.001 0h1.004l1.084-12.48 14.902 6.876 14.894-6.83 1.136 12.434h1.004L55.051 26.64 39.29 33.866l-15.776-7.28-1.215 13.985z" transform="translate(11 11)"/>
                        <path fill="url(#2kgtvx3z5f)" d="M210.335 0.571L212.135 20.275 193.296 28.914 174.68 20.325 176.395 0.571 175.391 0.571 173.721 19.819 154.884 11.128 136.091 19.744 134.339 0.571 133.335 0.571 135.135 20.275 116.295 28.914 97.68 20.325 99.396 0.571 98.392 0.571 96.72 19.819 77.882 11.128 59.09 19.744 57.339 0.571 56.335 0.571 58.135 20.275 39.296 28.914 20.68 20.325 22.395 0.571 21.392 0.571 19.72 19.819 0.882 11.128 0.84 11.147 0.84 12.246 0.881 12.228 19.497 20.817 17.782 40.571 18.786 40.571 20.457 21.323 39.295 30.014 58.087 21.398 59.837 40.571 60.841 40.571 59.042 20.867 77.881 12.228 96.497 20.817 94.782 40.571 95.786 40.571 97.456 21.323 116.294 30.014 135.086 21.398 136.838 40.571 137.841 40.571 136.042 20.867 154.881 12.228 173.497 20.817 171.782 40.571 172.785 40.571 174.457 21.323 193.294 30.014 212.087 21.398 213.837 40.571 214.841 40.571 213.042 20.867 231.84 12.247 231.84 11.148 213.09 19.744 211.34 0.571z" transform="translate(11 11)"/>
                    </g>
                    <path stroke="#000" stroke-linejoin="round" d="M12 51L243 51 243 11 12 11z"/>
                    <g fill="#FCFAF6" stroke="#000" stroke-linejoin="round">
                        <path d="M22 6.318c0-2.025-1.528-3.668-3.412-3.668-.62 0-1.194.191-1.695.502C16.658 1.372 15.25 0 13.53 0 12.52 0 11.625.479 11 1.226 10.375.479 9.48 0 8.47 0 6.75 0 5.342 1.373 5.106 3.152c-.5-.31-1.074-.502-1.695-.502C1.526 2.65 0 4.293 0 6.318c0 1.235.57 2.32 1.44 2.985-.4.864-.629 1.797-.629 2.774 0 4.376 4.38 7.923 9.781 7.923 5.402 0 9.78-3.547 9.78-7.923 0-.83-.158-1.63-.451-2.382C21.143 9.137 22 7.835 22 6.318M86 6.318c0-2.025-1.528-3.668-3.412-3.668-.62 0-1.194.191-1.695.502C80.658 1.372 79.25 0 77.53 0 76.52 0 75.625.479 75 1.226 74.375.479 73.48 0 72.47 0c-1.72 0-3.128 1.373-3.364 3.152-.5-.31-1.074-.502-1.695-.502C65.526 2.65 64 4.293 64 6.318c0 1.235.57 2.32 1.44 2.985-.4.864-.629 1.797-.629 2.774 0 4.376 4.38 7.923 9.781 7.923 5.402 0 9.78-3.547 9.78-7.923 0-.83-.158-1.63-.451-2.382C85.143 9.137 86 7.835 86 6.318" transform="matrix(1 0 0 -1 85 20)"/>
                    </g>
                </g>
            </g>
        </g>
    </g>
</svg>
