<svg width="46" height="46" viewBox="0 0 46 46" fill="none" xmlns="http://www.w3.org/2000/svg">
<path d="M13.7998 42.9C16.9998 44.4 20.6998 45.1 24.4998 44.9C35.4998 44.2 44.3998 35.1 44.8998 24.1C45.4998 11.1 34.8998 0.499993 21.9998 1.09999C10.9998 1.59999 1.89979 10.5 1.09979 21.5C0.89979 24 1.19979 26.3 1.79979 28.6C1.89979 28.9 1.99979 29.1 2.09979 29.4" stroke="url(#paint0_linear_431_5176)" stroke-linecap="round"/>
<path d="M4.5 19.8C5.6 13 10.5 7.40001 16.9 5.10001" stroke="url(#paint1_linear_431_5176)" stroke-linecap="round"/>
<path d="M20.7996 41.4C17.2996 41.1 14.1996 39.9 11.5996 37.9" stroke="url(#paint2_linear_431_5176)" stroke-linecap="round"/>
<path d="M31.8996 9.39999C32.1996 9.49999 32.3996 9.49999 32.6996 9.69999C33.6996 10.2 34.2996 11 34.3996 12.2C34.3996 12.3 34.3996 12.4 34.3996 12.5C34.3996 19.6 34.3996 26.6 34.3996 33.7C34.3996 34.9 33.8996 35.8 32.8996 36.4C32.3996 36.7 31.8996 36.8 31.3996 36.8C28.7996 36.8 26.0996 36.8 23.4996 36.8C20.4996 36.8 17.4996 36.8 14.4996 36.8C12.9996 36.8 11.8996 35.9 11.5996 34.4C11.5996 34.2 11.5996 33.9 11.5996 33.7C11.5996 26.7 11.5996 19.6 11.5996 12.6C11.5996 10.9 12.3996 9.89999 13.9996 9.49999C19.9996 9.39999 25.9996 9.39999 31.8996 9.39999ZM12.7996 23C12.7996 26.5 12.7996 30.1 12.7996 33.6C12.7996 34.8 13.4996 35.5 14.6996 35.5C20.2996 35.5 25.7996 35.5 31.3996 35.5C32.5996 35.5 33.2996 34.8 33.2996 33.6C33.2996 26.5 33.2996 19.4 33.2996 12.3C33.2996 11.1 32.5996 10.4 31.3996 10.4C25.7996 10.4 20.2996 10.4 14.6996 10.4C13.4996 10.4 12.7996 11.1 12.7996 12.3C12.7996 15.9 12.7996 19.5 12.7996 23Z" fill="url(#paint3_linear_431_5176)"/>
<path d="M15 24.1C15 21 17.5 18.4 20.7 18.4C23.8 18.4 26.4 21 26.4 24.1C26.4 27.2 23.8 29.8 20.7 29.8C17.6 29.8 15 27.3 15 24.1ZM18 27.7C19.2 28.7 21.4 29.1 23.1 28C24.9 26.9 25.7 24.7 25.1 22.7C24.6 21 22.7 19.5 21.3 19.6C21.3 19.7 21.3 19.8 21.3 19.9C21.3 21.2 21.3 22.6 21.3 23.9C21.3 24.2 21.2 24.4 21 24.6C20.6 25 20.1 25.5 19.7 25.9C19.1 26.6 18.5 27.1 18 27.7ZM17.1 26.9C18.1 25.9 19.1 24.9 20 23.9C20.1 23.8 20.1 23.7 20.1 23.6C20.1 22.3 20.1 21 20.1 19.7C20.1 19.6 20.1 19.6 20.1 19.5C18.4 19.8 17.2 20.7 16.5 22.2C15.9 23.9 16.1 25.5 17.1 26.9Z" fill="url(#paint4_linear_431_5176)"/>
<path d="M22.9996 32.1C25.3996 32.1 27.7996 32.1 30.2996 32.1C30.6996 32.1 30.9996 32.3 30.9996 32.6C30.9996 32.9 30.7996 33.2 30.4996 33.2C30.3996 33.2 30.3996 33.2 30.2996 33.2C25.4996 33.2 20.5996 33.2 15.7996 33.2C15.3996 33.2 15.0996 33 15.0996 32.6C15.0996 32.3 15.2996 32.1 15.5996 32.1C15.6996 32.1 15.7996 32.1 15.8996 32.1C18.1996 32.1 20.5996 32.1 22.9996 32.1Z" fill="url(#paint5_linear_431_5176)"/>
<path d="M29.2996 18.5C29.6996 18.5 29.9996 18.5 30.3996 18.5C30.7996 18.5 30.9996 18.7 30.9996 19.1C30.9996 19.4 30.7996 19.7 30.3996 19.7C29.6996 19.7 28.8996 19.7 28.1996 19.7C27.7996 19.7 27.5996 19.4 27.5996 19.1C27.5996 18.8 27.7996 18.6 28.1996 18.6C28.4996 18.5 28.8996 18.5 29.2996 18.5Z" fill="url(#paint6_linear_431_5176)"/>
<path d="M29.2996 23C28.8996 23 28.5996 23 28.1996 23C27.7996 23 27.5996 22.8 27.5996 22.4C27.5996 22.1 27.7996 21.8 28.1996 21.8C28.8996 21.8 29.6996 21.8 30.3996 21.8C30.7996 21.8 30.9996 22 30.9996 22.4C30.9996 22.7 30.7996 23 30.3996 23C29.9996 23 29.5996 23 29.2996 23Z" fill="url(#paint7_linear_431_5176)"/>
<path d="M29.1996 26.4C28.8996 26.4 28.4996 26.4 28.1996 26.4C27.7996 26.4 27.5996 26.2 27.5996 25.8C27.5996 25.5 27.7996 25.2 28.1996 25.2C28.8996 25.2 29.5996 25.2 30.3996 25.2C30.7996 25.2 30.9996 25.4 30.9996 25.8C30.9996 26.1 30.7996 26.4 30.3996 26.4C29.9996 26.4 29.5996 26.4 29.1996 26.4Z" fill="url(#paint8_linear_431_5176)"/>
<path d="M29.2996 28.7C29.6996 28.7 29.9996 28.7 30.3996 28.7C30.7996 28.7 30.9996 28.9 30.9996 29.3C30.9996 29.6 30.7996 29.9 30.3996 29.9C29.6996 29.9 28.8996 29.9 28.1996 29.9C27.8996 29.9 27.5996 29.7 27.5996 29.3C27.5996 29 27.7996 28.7 28.1996 28.7C28.4996 28.7 28.8996 28.7 29.2996 28.7Z" fill="url(#paint9_linear_431_5176)"/>
<defs>
<linearGradient id="paint0_linear_431_5176" x1="22.9811" y1="34.217" x2="22.9811" y2="11.8101" gradientUnits="userSpaceOnUse">
<stop stop-color="#81C3F3"/>
<stop offset="1" stop-color="#157EFB"/>
</linearGradient>
<linearGradient id="paint1_linear_431_5176" x1="10.6999" y1="16.4342" x2="10.6999" y2="8.56239" gradientUnits="userSpaceOnUse">
<stop stop-color="#81C3F3"/>
<stop offset="1" stop-color="#157EFB"/>
</linearGradient>
<linearGradient id="paint2_linear_431_5176" x1="18.787" y1="39.89" x2="13.5437" y2="39.4033" gradientUnits="userSpaceOnUse">
<stop stop-color="#81C3F3"/>
<stop offset="1" stop-color="#157EFB"/>
</linearGradient>
<linearGradient id="paint3_linear_431_5176" x1="11.6382" y1="23" x2="34.361" y2="23" gradientUnits="userSpaceOnUse">
<stop stop-color="#81C3F3"/>
<stop offset="1" stop-color="#157EFB"/>
</linearGradient>
<linearGradient id="paint4_linear_431_5176" x1="15.0491" y1="24.1312" x2="26.4073" y2="24.1312" gradientUnits="userSpaceOnUse">
<stop stop-color="#81C3F3"/>
<stop offset="1" stop-color="#157EFB"/>
</linearGradient>
<linearGradient id="paint5_linear_431_5176" x1="15.0512" y1="32.6613" x2="30.9442" y2="32.6613" gradientUnits="userSpaceOnUse">
<stop stop-color="#81C3F3"/>
<stop offset="1" stop-color="#157EFB"/>
</linearGradient>
<linearGradient id="paint6_linear_431_5176" x1="27.544" y1="19.0247" x2="30.9447" y2="19.0247" gradientUnits="userSpaceOnUse">
<stop stop-color="#81C3F3"/>
<stop offset="1" stop-color="#157EFB"/>
</linearGradient>
<linearGradient id="paint7_linear_431_5176" x1="27.5434" y1="22.4331" x2="30.9446" y2="22.4331" gradientUnits="userSpaceOnUse">
<stop stop-color="#81C3F3"/>
<stop offset="1" stop-color="#157EFB"/>
</linearGradient>
<linearGradient id="paint8_linear_431_5176" x1="27.5433" y1="25.8423" x2="30.9445" y2="25.8423" gradientUnits="userSpaceOnUse">
<stop stop-color="#81C3F3"/>
<stop offset="1" stop-color="#157EFB"/>
</linearGradient>
<linearGradient id="paint9_linear_431_5176" x1="27.5432" y1="29.2524" x2="30.9445" y2="29.2524" gradientUnits="userSpaceOnUse">
<stop stop-color="#81C3F3"/>
<stop offset="1" stop-color="#157EFB"/>
</linearGradient>
</defs>
</svg>
