<svg xmlns="http://www.w3.org/2000/svg" width="240" height="140" viewBox="0 0 240 140">
    <g fill="none" fill-rule="evenodd">
        <g fill-rule="nonzero">
            <g>
                <g transform="translate(-1204 -152) translate(1194 132) translate(10 20)">
                    <path fill="#CF3819" d="M66.116 98.383L63.191 100.372 90.715 118.656 93.673 116.705zM58.837 77.23L55.878 79.18 103.014 110.508 105.972 108.519z" opacity=".1"/>
                    <path fill="#284D9F" d="M62.028 63L59.102 64.951 115.313 102.322 118.271 100.372zM95.634 69.005L92.676 70.956 127.612 94.137 130.571 92.186zM92.609 50.645L89.651 52.596 139.911 85.989 142.87 84z" opacity=".1"/>
                    <path fill="#CF3819" d="M86.726 30.372L83.767 32.361 152.211 77.803 155.169 75.852zM106.105 26.929L103.18 28.88 164.51 69.656 167.435 67.667z" opacity=".1"/>
                    <path fill="#284D9F" d="M64.886 91.689L61.928 93.639 95.136 115.71 98.094 113.76zM72.066 80.137L69.108 82.087 107.435 107.563 110.393 105.574zM58.238 54.585L55.28 56.574 119.734 99.377 122.693 97.426zM94.936 62.656L92.011 64.607 132.033 91.23 134.992 89.24zM91.346 43.913L88.388 45.863 144.332 83.044 147.291 81.093zM94.837 29.913L91.878 31.863 156.632 74.858 159.59 72.907zM123.59 32.667L120.665 34.617 168.931 66.71 171.889 64.721z" opacity=".3"/>
                    <path fill="#284D9F" d="M80.37 106.958L79.596 89.979 79.725 89.96 99.56 86.877 100.81 71.893 95.189 51.452 95.199 51.406 98.397 37.18 98.417 37.154 106.926 25.487 107.146 25.693 98.656 37.333 95.481 51.444 101.096 71.855 99.819 87.167 79.895 90.262 80.653 106.943z" opacity=".8"/>
                    <path fill="#CF3819" d="M72.136 101.523L71.864 101.439 75.145 87.5 92.586 82.699 103.941 74.039 104.869 58.054 107.471 43.021 117.583 33.65 117.763 33.902 107.731 43.201 105.148 58.096 104.214 74.223 92.676 83.009 75.371 87.768z" opacity=".6"/>
                    <path fill="#284D9F" d="M239.668 57.507c-.1-1.914-1.033-3.64-2.48-4.59l-77-51.157c-3.081-2.066-6.89-2.066-9.972 0l-22.604 15.017-17.717-11.766c-3.09-2.027-6.882-2.027-9.973 0L2.825 69.503C2.061 70 1.43 70.727.997 71.607c-.48.963-.711 2.065-.665 3.174v7.192c-.065 2.11.896 4.086 2.493 5.125l76.987 51.142c3.081 2.066 6.89 2.066 9.972 0l22.637-15.032 17.718 11.781c3.081 2.066 6.89 2.066 9.972 0l97.097-64.492c1.55-1.018 2.503-2.918 2.493-4.972V57.53l-.033-.023zM3.902 73.573c.137-.292.345-.531.599-.689l97.083-64.507c2.055-1.377 4.594-1.377 6.649 0l16.009 10.634-71.136 47.24c-.764.497-1.396 1.225-1.828 2.104-.662 1.319-.842 2.886-.499 4.357.343 1.47 1.18 2.724 2.327 3.485l50.526 33.573-19.998 13.308L11.342 75.03c-.066-.056-.153-.063-.225-.02-.072.044-.117.131-.114.225.003.094.052.178.126.216l72.399 48.12c.065.046.147.046.213 0l20.343-13.518 5.003 3.324-20.965 13.924c-1.02.643-2.16.997-3.324 1.032-1.169.007-2.318-.35-3.324-1.032L4.488 76.158c-.383-.25-.661-.667-.774-1.156-.112-.489-.05-1.01.175-1.445l.013.016zm235.48-8.033c0 1.931-.9 3.715-2.36 4.667l-97.077 64.476c-2.993 1.99-6.68 1.99-9.674 0l-17.717-11.781-.133-.077-.133.077-22.637 15.032c-2.993 1.99-6.68 1.99-9.673 0L2.958 86.831C1.453 85.836.546 83.969.596 81.973v-5.654c.383 1.324 1.177 2.438 2.23 3.13l76.986 51.141c3.081 2.066 6.89 2.066 9.972 0l22.604-15.017 17.717 11.766c3.082 2.066 6.89 2.066 9.973 0l97.097-64.492c.764-.497 1.396-1.224 1.828-2.104.145-.297.267-.608.365-.93l.014 5.727z"/>
                    <path fill="#FFF" d="M135.091 125.044c-1.168.007-2.317-.35-3.324-1.033L54.781 72.869c-.382-.25-.66-.667-.773-1.156-.113-.49-.05-1.01.175-1.445.137-.292.345-.531.598-.689l97.097-64.492c2.055-1.376 4.594-1.376 6.648 0l76.986 51.143c.383.25.661.666.774 1.156.112.489.05 1.01-.175 1.445-.137.291-.345.53-.599.688l-97.096 64.492c-1.007.683-2.156 1.04-3.325 1.033z"/>
                    <path fill="#284D9F" d="M135.091 125.289c-1.207.01-2.394-.36-3.433-1.068L54.675 73.08c-.43-.283-.744-.753-.87-1.306-.125-.552-.05-1.139.205-1.628.155-.321.385-.586.665-.765l97.097-64.488c2.121-1.415 4.739-1.415 6.86 0l76.987 51.142c.43.284.744.753.87 1.305.13.551.06 1.14-.195 1.63-.155.32-.386.586-.665.764l-97.107 64.488c-1.038.708-2.224 1.077-3.43 1.068zM155.202 4.303c-1.13 0-2.24.343-3.218.995L54.888 69.793c-.218.134-.397.337-.516.586-.203.38-.264.84-.166 1.273.097.433.343.802.682 1.022l76.986 51.142c1.988 1.33 4.444 1.33 6.432 0l97.1-64.526c.217-.134.396-.337.515-.586.204-.38.264-.84.167-1.273-.097-.433-.343-.802-.682-1.022L158.42 5.267c-.98-.64-2.09-.973-3.218-.964z"/>
                    <path fill="#284D9F" d="M133.961 120.316c-.037 0-.073-.011-.106-.03L61.423 72.198c-.075-.038-.124-.121-.126-.215-.003-.094.041-.181.113-.225.072-.043.16-.036.225.02l72.326 48.009 94.697-62.89c.1-.05.216-.007.27.101.055.108.03.247-.057.32l-94.803 62.966c-.033.02-.07.03-.107.03z"/>
                    <path fill="#CF3819" d="M112.753 92.683L109.795 94.634 141.008 115.404 143.967 113.415zM103.18 70L100.222 71.951 153.307 107.219 156.266 105.268zM122.294 66.328L119.335 68.317 165.607 99.071 168.565 97.082zM158.427 74.016L155.468 75.967 177.906 90.885 180.864 88.934zM155.102 55.464L152.177 57.415 190.205 82.699 193.163 80.749zM150.947 36.377L147.989 38.328 202.504 74.552 205.463 72.601zM173.186 34.809L170.227 36.76 214.803 66.366 217.762 64.415z" opacity=".1"/>
                    <path fill="#284D9F" d="M122.56 93.333L119.601 95.284 145.463 112.459 148.421 110.508zM117.54 73.634L114.582 75.585 157.762 104.273 160.687 102.322zM113.651 54.738L110.693 56.689 170.028 96.126 172.986 94.137zM158.593 68.24L155.634 70.191 182.327 87.94 185.285 85.989zM149.019 45.557L146.094 47.508 194.626 79.754 197.584 77.803zM148.554 28.88L145.596 30.869 206.925 71.607 209.884 69.656zM183.856 35.995L180.898 37.945 219.224 63.421 222.183 61.47z" opacity=".3"/>
                    <path fill="#284D9F" d="M130.94 103.742L130.667 103.657 134.141 89.401 145.413 81.544 143.588 63.578 143.611 63.532 149.894 51.023 155.408 38.255 155.481 38.244 176.49 34.878 176.53 35.199 155.594 38.554 150.143 51.177 143.88 63.646 145.712 81.713 134.38 89.615z" opacity=".8"/>
                    <path fill="#CF3819" d="M125.279 100.322L122.493 81.984 122.643 81.965 142.93 79.402 156.263 72.077 156.858 55.885 162.322 42.807 165.836 29.14 166.109 29.232 162.585 42.926 157.137 55.966 156.535 72.284 142.986 79.723 122.825 82.267 125.558 100.268z" opacity=".6"/>
                    <ellipse cx="166.098" cy="29.179" fill="#CF3819" rx="1.337" ry="2.066" transform="rotate(-83.05 166.098 29.179)"/>
                    <ellipse cx="107.04" cy="25.551" fill="#284D9F" rx="1.337" ry="2.066" transform="rotate(-83.05 107.04 25.551)"/>
                    <ellipse cx="176.219" cy="35.237" fill="#284D9F" rx="1.337" ry="2.066" transform="rotate(-83.05 176.22 35.237)"/>
                </g>
            </g>
        </g>
    </g>
</svg>
