<?xml version="1.0"?>
<svg xmlns="http://www.w3.org/2000/svg" xmlns:xlink="http://www.w3.org/1999/xlink" version="1.1" id="Capa_1" x="0px" y="0px" viewBox="0 0 423.354 423.354" style="enable-background:new 0 0 423.354 423.354;" xml:space="preserve" width="512px" height="512px" class=""><g transform="matrix(6.12323e-17 -1 1 6.12323e-17 2.84217e-14 423.354)"><g>
	<g>
		<polygon style="fill:#00ACEA;" points="49.181,304.236 127.026,381.558 127.026,381.558 126.503,381.558 84.707,423.354     7.385,346.032 49.181,304.236 49.181,303.713   " data-original="#00ACEA"/>
		<g>
			<path style="fill:#00CEB4;" d="M211.662,411.86c-2.756-0.039-5.385-1.166-7.314-3.135l-48.065-48.065l14.629-15.151     l40.751,40.751l65.829-65.306l-24.033-24.033l14.629-14.629l31.347,30.824c2.1,2.055,3.238,4.9,3.135,7.837     c-0.039,2.756-1.166,5.385-3.135,7.314l-80.457,80.457C216.924,410.506,214.367,411.602,211.662,411.86z" data-original="#00CEB4" class=""/>
			<g>
				<path style="fill:#083863;" d="M298.389,129.738c-2.756-0.039-5.385-1.166-7.314-3.135c-3.585-4.414-3.585-10.737,0-15.151      l59.559-59.037c3.706-4.04,9.986-4.31,14.025-0.603c0.21,0.192,0.411,0.394,0.603,0.603c4.047,4.24,4.047,10.911,0,15.151      l-59.037,59.037C304.171,128.704,301.326,129.841,298.389,129.738z" data-original="#083863" class=""/>
				<path style="fill:#083863;" d="M261.295,91.077h-3.657c-5.33-2.172-7.899-8.246-5.747-13.584l25.6-70.531      c1.927-5.44,7.899-8.287,13.339-6.36c0.082,0.029,0.164,0.059,0.245,0.09c5.332,2.18,8.069,8.112,6.269,13.584l-26.122,70.008      C269.559,88.322,265.661,90.99,261.295,91.077z" data-original="#083863" class=""/>
				<path style="fill:#083863;" d="M335.483,165.264c-4.548-0.018-8.562-2.976-9.927-7.314c-1.758-5.331,1.011-11.098,6.269-13.061      l70.008-26.122c5.39-2.063,11.431,0.635,13.493,6.024c0.031,0.081,0.061,0.163,0.09,0.245c1.8,5.472-0.938,11.404-6.269,13.584      l-70.008,25.6L335.483,165.264z" data-original="#083863" class=""/>
			</g>
		</g>
	</g>
	<polygon style="fill:#00EFD1" points="343.32,241.542 264.43,292.742 166.732,355.436 127.026,381.558 127.026,381.558    49.181,304.236 49.181,303.713 189.197,87.42  " data-original="#00EFD1" class="active-path" data-old_color="#00EFD1"/>
	<path style="fill:#00CEB4;" d="M360.56,269.232c-2.653-0.075-5.214-0.989-7.314-2.612L164.642,77.493   c-4.047-4.24-4.047-10.911,0-15.151c4.165-3.725,10.464-3.725,14.629,0l189.127,189.127c3.585,4.414,3.585,10.737,0,15.151   C366.136,268.315,363.387,269.232,360.56,269.232z" data-original="#00CEB4" class=""/>
</g></g> </svg>
