<svg xmlns="http://www.w3.org/2000/svg" width="251" height="453" viewBox="0 0 251 453">
    <defs>
        <filter id="b9n7g8x7da" width="117.3%" height="104.5%" x="-8.6%" y="-2.2%" filterUnits="objectBoundingBox">
            <feOffset dy="2" in="SourceAlpha" result="shadowOffsetOuter1"/>
            <feGaussianBlur in="shadowOffsetOuter1" result="shadowBlurOuter1" stdDeviation="2"/>
            <feColorMatrix in="shadowBlurOuter1" result="shadowMatrixOuter1" values="0 0 0 0 0 0 0 0 0 0 0 0 0 0 0 0 0 0 0.5 0"/>
            <feMerge>
                <feMergeNode in="shadowMatrixOuter1"/>
                <feMergeNode in="SourceGraphic"/>
            </feMerge>
        </filter>
    </defs>
    <g fill="none" fill-rule="evenodd" stroke-linejoin="round">
        <g>
            <g filter="url(#b9n7g8x7da)" transform="translate(-62 -254) translate(60 116)">
                <g>
                    <g>
                        <path fill="#A51010" stroke="#000" d="M0 433L231 433 231 424 0 424z" transform="translate(0 97) translate(12 51)"/>
                        <path fill="#A60011" stroke="#000" d="M5 424L226 424 226 0 5 0z" transform="translate(0 97) translate(12 51)"/>
                        <path fill="#FEF2D8" stroke="#000" d="M9 424L222 424 222 0 9 0z" transform="translate(0 97) translate(12 51)"/>
                        <g stroke="#FFE69D" stroke-linecap="round" stroke-width="2">
                            <g>
                                <path d="M211 13.993L211 16.989 208 16.989 208 10.996 214 10.996 214 19.985 205 19.985 205 8 217 8.019 217 22.981 202 22.981 202 8 187 8 187 23 199 22.981 199 10.996 190 10.996 190 19.985 196 19.985 196 13.993 193 13.993 192.963 16.989" transform="translate(0 97) translate(12 51) translate(10.5 1.5) translate(0 390) rotate(90 202 15.5)"/>
                                <path d="M196 13.993L196 16.989 193 16.989 193 10.996 199 10.996 199 19.985 190 19.985 190 8 202 8.019 202 22.981 187 22.981 187 8 172 8 172 23 184 22.981 184 10.996 175 10.996 175 19.985 181 19.985 181 13.993 178 13.993 177.963 16.989" transform="translate(0 97) translate(12 51) translate(10.5 1.5) translate(0 390) matrix(0 1 1 0 171.5 -171.5)"/>
                                <path d="M181 13.993L181 16.989 178 16.989 178 10.996 184 10.996 184 19.985 175 19.985 175 8 187 8.019 187 22.981 172 22.981 172 8 157 8 157 23 169 22.981 169 10.996 160 10.996 160 19.985 166 19.985 166 13.993 163 13.993 162.963 16.989" transform="translate(0 97) translate(12 51) translate(10.5 1.5) translate(0 390) rotate(90 172 15.5)"/>
                                <path d="M166 13.993L166 16.989 163 16.989 163 10.996 169 10.996 169 19.985 160 19.985 160 8 172 8.019 172 22.981 157 22.981 157 8 142 8 142 23 154 22.981 154 10.996 145 10.996 145 19.985 151 19.985 151 13.993 148 13.993 147.963 16.989" transform="translate(0 97) translate(12 51) translate(10.5 1.5) translate(0 390) matrix(0 1 1 0 141.5 -141.5)"/>
                                <path d="M151 13.993L151 16.989 148 16.989 148 10.996 154 10.996 154 19.985 145 19.985 145 8 157 8.019 157 22.981 142 22.981 142 8 127 8 127 23 139 22.981 139 10.996 130 10.996 130 19.985 136 19.985 136 13.993 133 13.993 132.963 16.989" transform="translate(0 97) translate(12 51) translate(10.5 1.5) translate(0 390) rotate(90 142 15.5)"/>
                                <path d="M136 13.993L136 16.989 133 16.989 133 10.996 139 10.996 139 19.985 130 19.985 130 8 142 8.019 142 22.981 127 22.981 127 8 112 8 112 23 124 22.981 124 10.996 115 10.996 115 19.985 121 19.985 121 13.993 118 13.993 117.963 16.989" transform="translate(0 97) translate(12 51) translate(10.5 1.5) translate(0 390) matrix(0 1 1 0 111.5 -111.5)"/>
                                <path d="M121.5 14.493L121.5 16.489 118.5 16.489 118.5 11.496 124.5 11.496 124.5 19.485 115.5 19.485 115.5 8.5 127.5 8.519 127.5 22.481 112.5 22.481 112.5 8.5 97.5 8.5 97.5 22.5 109.5 22.481 109.5 11.496 100.5 11.496 100.5 19.485 106.5 19.485 106.5 14.493 103.5 14.493 103.463 16.489" transform="translate(0 97) translate(12 51) translate(10.5 1.5) translate(0 390) rotate(90 112.5 15.5)"/>
                                <path d="M107.5 14.493L107.5 16.489 104.5 16.489 104.5 11.496 110.5 11.496 110.5 19.485 101.5 19.485 101.5 8.5 113.5 8.519 113.5 22.481 98.5 22.481 98.5 8.5 83.5 8.5 83.5 22.5 95.5 22.481 95.5 11.496 86.5 11.496 86.5 19.485 92.5 19.485 92.5 14.493 89.5 14.493 89.463 16.489" transform="translate(0 97) translate(12 51) translate(10.5 1.5) translate(0 390) matrix(0 1 1 0 83 -83)"/>
                                <path d="M92 13.993L92 16.989 89 16.989 89 10.996 95 10.996 95 19.985 86 19.985 86 8 98 8.019 98 22.981 83 22.981 83 8 68 8 68 23 80 22.981 80 10.996 71 10.996 71 19.985 77 19.985 77 13.993 74 13.993 73.963 16.989" transform="translate(0 97) translate(12 51) translate(10.5 1.5) translate(0 390) rotate(90 83 15.5)"/>
                                <path d="M77 13.993L77 16.989 74 16.989 74 10.996 80 10.996 80 19.985 71 19.985 71 8 83 8.019 83 22.981 68 22.981 68 8 53 8 53 23 65 22.981 65 10.996 56 10.996 56 19.985 62 19.985 62 13.993 59 13.993 58.962 16.989" transform="translate(0 97) translate(12 51) translate(10.5 1.5) translate(0 390) matrix(0 1 1 0 52.5 -52.5)"/>
                                <path d="M62 13.993L62 16.989 59 16.989 59 10.996 65 10.996 65 19.985 56 19.985 56 8 68 8.019 68 22.981 53 22.981 53 8 38 8 38 23 50 22.981 50 10.996 41 10.996 41 19.985 47 19.985 47 13.993 44 13.993 43.962 16.989" transform="translate(0 97) translate(12 51) translate(10.5 1.5) translate(0 390) rotate(90 53 15.5)"/>
                                <path d="M47 13.993L47 16.989 44 16.989 44 10.996 50 10.996 50 19.985 41 19.985 41 8 53 8.019 53 22.981 38 22.981 38 8 23 8 23 23 35 22.981 35 10.996 26 10.996 26 19.985 32 19.985 32 13.993 29 13.993 28.962 16.989" transform="translate(0 97) translate(12 51) translate(10.5 1.5) translate(0 390) matrix(0 1 1 0 22.5 -22.5)"/>
                                <path d="M32 13.993L32 16.989 29 16.989 29 10.996 35 10.996 35 19.985 26 19.985 26 8 38 8.019 38 22.981 23 22.981 23 8 8 8 8 23 20 22.981 20 10.996 11 10.996 11 19.985 17 19.985 17 13.993 14 13.993 13.963 16.989" transform="translate(0 97) translate(12 51) translate(10.5 1.5) translate(0 390) rotate(90 23 15.5)"/>
                                <path d="M17 13.993L17 16.989 14 16.989 14 10.996 20 10.996 20 19.985 11 19.985 11 8 23 8.019 23 22.981 8 22.981 8 8 -7 8 -7 23 5 22.981 5 10.996 -4 10.996 -4 19.985 2 19.985 2 13.993 -1 13.993 -1.038 16.989" transform="translate(0 97) translate(12 51) translate(10.5 1.5) translate(0 390) matrix(0 1 1 0 -7.5 7.5)"/>
                            </g>
                            <g>
                                <path d="M211 13.993L211 16.989 208 16.989 208 10.996 214 10.996 214 19.985 205 19.985 205 8 217 8.019 217 22.981 202 22.981 202 8 187 8 187 23 199 22.981 199 10.996 190 10.996 190 19.985 196 19.985 196 13.993 193 13.993 192.963 16.989" transform="translate(0 97) translate(12 51) translate(10.5 1.5) translate(0 360) rotate(90 202 15.5)"/>
                                <path d="M196 13.993L196 16.989 193 16.989 193 10.996 199 10.996 199 19.985 190 19.985 190 8 202 8.019 202 22.981 187 22.981 187 8 172 8 172 23 184 22.981 184 10.996 175 10.996 175 19.985 181 19.985 181 13.993 178 13.993 177.963 16.989" transform="translate(0 97) translate(12 51) translate(10.5 1.5) translate(0 360) matrix(0 1 1 0 171.5 -171.5)"/>
                                <path d="M181 13.993L181 16.989 178 16.989 178 10.996 184 10.996 184 19.985 175 19.985 175 8 187 8.019 187 22.981 172 22.981 172 8 157 8 157 23 169 22.981 169 10.996 160 10.996 160 19.985 166 19.985 166 13.993 163 13.993 162.963 16.989" transform="translate(0 97) translate(12 51) translate(10.5 1.5) translate(0 360) rotate(90 172 15.5)"/>
                                <path d="M166 13.993L166 16.989 163 16.989 163 10.996 169 10.996 169 19.985 160 19.985 160 8 172 8.019 172 22.981 157 22.981 157 8 142 8 142 23 154 22.981 154 10.996 145 10.996 145 19.985 151 19.985 151 13.993 148 13.993 147.963 16.989" transform="translate(0 97) translate(12 51) translate(10.5 1.5) translate(0 360) matrix(0 1 1 0 141.5 -141.5)"/>
                                <path d="M151 13.993L151 16.989 148 16.989 148 10.996 154 10.996 154 19.985 145 19.985 145 8 157 8.019 157 22.981 142 22.981 142 8 127 8 127 23 139 22.981 139 10.996 130 10.996 130 19.985 136 19.985 136 13.993 133 13.993 132.963 16.989" transform="translate(0 97) translate(12 51) translate(10.5 1.5) translate(0 360) rotate(90 142 15.5)"/>
                                <path d="M136 13.993L136 16.989 133 16.989 133 10.996 139 10.996 139 19.985 130 19.985 130 8 142 8.019 142 22.981 127 22.981 127 8 112 8 112 23 124 22.981 124 10.996 115 10.996 115 19.985 121 19.985 121 13.993 118 13.993 117.963 16.989" transform="translate(0 97) translate(12 51) translate(10.5 1.5) translate(0 360) matrix(0 1 1 0 111.5 -111.5)"/>
                                <path d="M121.5 14.493L121.5 16.489 118.5 16.489 118.5 11.496 124.5 11.496 124.5 19.485 115.5 19.485 115.5 8.5 127.5 8.519 127.5 22.481 112.5 22.481 112.5 8.5 97.5 8.5 97.5 22.5 109.5 22.481 109.5 11.496 100.5 11.496 100.5 19.485 106.5 19.485 106.5 14.493 103.5 14.493 103.463 16.489" transform="translate(0 97) translate(12 51) translate(10.5 1.5) translate(0 360) rotate(90 112.5 15.5)"/>
                                <path d="M107.5 14.493L107.5 16.489 104.5 16.489 104.5 11.496 110.5 11.496 110.5 19.485 101.5 19.485 101.5 8.5 113.5 8.519 113.5 22.481 98.5 22.481 98.5 8.5 83.5 8.5 83.5 22.5 95.5 22.481 95.5 11.496 86.5 11.496 86.5 19.485 92.5 19.485 92.5 14.493 89.5 14.493 89.463 16.489" transform="translate(0 97) translate(12 51) translate(10.5 1.5) translate(0 360) matrix(0 1 1 0 83 -83)"/>
                                <path d="M92 13.993L92 16.989 89 16.989 89 10.996 95 10.996 95 19.985 86 19.985 86 8 98 8.019 98 22.981 83 22.981 83 8 68 8 68 23 80 22.981 80 10.996 71 10.996 71 19.985 77 19.985 77 13.993 74 13.993 73.963 16.989" transform="translate(0 97) translate(12 51) translate(10.5 1.5) translate(0 360) rotate(90 83 15.5)"/>
                                <path d="M77 13.993L77 16.989 74 16.989 74 10.996 80 10.996 80 19.985 71 19.985 71 8 83 8.019 83 22.981 68 22.981 68 8 53 8 53 23 65 22.981 65 10.996 56 10.996 56 19.985 62 19.985 62 13.993 59 13.993 58.962 16.989" transform="translate(0 97) translate(12 51) translate(10.5 1.5) translate(0 360) matrix(0 1 1 0 52.5 -52.5)"/>
                                <path d="M62 13.993L62 16.989 59 16.989 59 10.996 65 10.996 65 19.985 56 19.985 56 8 68 8.019 68 22.981 53 22.981 53 8 38 8 38 23 50 22.981 50 10.996 41 10.996 41 19.985 47 19.985 47 13.993 44 13.993 43.962 16.989" transform="translate(0 97) translate(12 51) translate(10.5 1.5) translate(0 360) rotate(90 53 15.5)"/>
                                <path d="M47 13.993L47 16.989 44 16.989 44 10.996 50 10.996 50 19.985 41 19.985 41 8 53 8.019 53 22.981 38 22.981 38 8 23 8 23 23 35 22.981 35 10.996 26 10.996 26 19.985 32 19.985 32 13.993 29 13.993 28.962 16.989" transform="translate(0 97) translate(12 51) translate(10.5 1.5) translate(0 360) matrix(0 1 1 0 22.5 -22.5)"/>
                                <path d="M32 13.993L32 16.989 29 16.989 29 10.996 35 10.996 35 19.985 26 19.985 26 8 38 8.019 38 22.981 23 22.981 23 8 8 8 8 23 20 22.981 20 10.996 11 10.996 11 19.985 17 19.985 17 13.993 14 13.993 13.963 16.989" transform="translate(0 97) translate(12 51) translate(10.5 1.5) translate(0 360) rotate(90 23 15.5)"/>
                                <path d="M17 13.993L17 16.989 14 16.989 14 10.996 20 10.996 20 19.985 11 19.985 11 8 23 8.019 23 22.981 8 22.981 8 8 -7 8 -7 23 5 22.981 5 10.996 -4 10.996 -4 19.985 2 19.985 2 13.993 -1 13.993 -1.038 16.989" transform="translate(0 97) translate(12 51) translate(10.5 1.5) translate(0 360) matrix(0 1 1 0 -7.5 7.5)"/>
                            </g>
                            <g>
                                <path d="M211 13.993L211 16.989 208 16.989 208 10.996 214 10.996 214 19.985 205 19.985 205 8 217 8.019 217 22.981 202 22.981 202 8 187 8 187 23 199 22.981 199 10.996 190 10.996 190 19.985 196 19.985 196 13.993 193 13.993 192.963 16.989" transform="translate(0 97) translate(12 51) translate(10.5 1.5) translate(0 330) rotate(90 202 15.5)"/>
                                <path d="M196 13.993L196 16.989 193 16.989 193 10.996 199 10.996 199 19.985 190 19.985 190 8 202 8.019 202 22.981 187 22.981 187 8 172 8 172 23 184 22.981 184 10.996 175 10.996 175 19.985 181 19.985 181 13.993 178 13.993 177.963 16.989" transform="translate(0 97) translate(12 51) translate(10.5 1.5) translate(0 330) matrix(0 1 1 0 171.5 -171.5)"/>
                                <path d="M181 13.993L181 16.989 178 16.989 178 10.996 184 10.996 184 19.985 175 19.985 175 8 187 8.019 187 22.981 172 22.981 172 8 157 8 157 23 169 22.981 169 10.996 160 10.996 160 19.985 166 19.985 166 13.993 163 13.993 162.963 16.989" transform="translate(0 97) translate(12 51) translate(10.5 1.5) translate(0 330) rotate(90 172 15.5)"/>
                                <path d="M166 13.993L166 16.989 163 16.989 163 10.996 169 10.996 169 19.985 160 19.985 160 8 172 8.019 172 22.981 157 22.981 157 8 142 8 142 23 154 22.981 154 10.996 145 10.996 145 19.985 151 19.985 151 13.993 148 13.993 147.963 16.989" transform="translate(0 97) translate(12 51) translate(10.5 1.5) translate(0 330) matrix(0 1 1 0 141.5 -141.5)"/>
                                <path d="M151 13.993L151 16.989 148 16.989 148 10.996 154 10.996 154 19.985 145 19.985 145 8 157 8.019 157 22.981 142 22.981 142 8 127 8 127 23 139 22.981 139 10.996 130 10.996 130 19.985 136 19.985 136 13.993 133 13.993 132.963 16.989" transform="translate(0 97) translate(12 51) translate(10.5 1.5) translate(0 330) rotate(90 142 15.5)"/>
                                <path d="M136 13.993L136 16.989 133 16.989 133 10.996 139 10.996 139 19.985 130 19.985 130 8 142 8.019 142 22.981 127 22.981 127 8 112 8 112 23 124 22.981 124 10.996 115 10.996 115 19.985 121 19.985 121 13.993 118 13.993 117.963 16.989" transform="translate(0 97) translate(12 51) translate(10.5 1.5) translate(0 330) matrix(0 1 1 0 111.5 -111.5)"/>
                                <path d="M121.5 14.493L121.5 16.489 118.5 16.489 118.5 11.496 124.5 11.496 124.5 19.485 115.5 19.485 115.5 8.5 127.5 8.519 127.5 22.481 112.5 22.481 112.5 8.5 97.5 8.5 97.5 22.5 109.5 22.481 109.5 11.496 100.5 11.496 100.5 19.485 106.5 19.485 106.5 14.493 103.5 14.493 103.463 16.489" transform="translate(0 97) translate(12 51) translate(10.5 1.5) translate(0 330) rotate(90 112.5 15.5)"/>
                                <path d="M107.5 14.493L107.5 16.489 104.5 16.489 104.5 11.496 110.5 11.496 110.5 19.485 101.5 19.485 101.5 8.5 113.5 8.519 113.5 22.481 98.5 22.481 98.5 8.5 83.5 8.5 83.5 22.5 95.5 22.481 95.5 11.496 86.5 11.496 86.5 19.485 92.5 19.485 92.5 14.493 89.5 14.493 89.463 16.489" transform="translate(0 97) translate(12 51) translate(10.5 1.5) translate(0 330) matrix(0 1 1 0 83 -83)"/>
                                <path d="M92 13.993L92 16.989 89 16.989 89 10.996 95 10.996 95 19.985 86 19.985 86 8 98 8.019 98 22.981 83 22.981 83 8 68 8 68 23 80 22.981 80 10.996 71 10.996 71 19.985 77 19.985 77 13.993 74 13.993 73.963 16.989" transform="translate(0 97) translate(12 51) translate(10.5 1.5) translate(0 330) rotate(90 83 15.5)"/>
                                <path d="M77 13.993L77 16.989 74 16.989 74 10.996 80 10.996 80 19.985 71 19.985 71 8 83 8.019 83 22.981 68 22.981 68 8 53 8 53 23 65 22.981 65 10.996 56 10.996 56 19.985 62 19.985 62 13.993 59 13.993 58.962 16.989" transform="translate(0 97) translate(12 51) translate(10.5 1.5) translate(0 330) matrix(0 1 1 0 52.5 -52.5)"/>
                                <path d="M62 13.993L62 16.989 59 16.989 59 10.996 65 10.996 65 19.985 56 19.985 56 8 68 8.019 68 22.981 53 22.981 53 8 38 8 38 23 50 22.981 50 10.996 41 10.996 41 19.985 47 19.985 47 13.993 44 13.993 43.962 16.989" transform="translate(0 97) translate(12 51) translate(10.5 1.5) translate(0 330) rotate(90 53 15.5)"/>
                                <path d="M47 13.993L47 16.989 44 16.989 44 10.996 50 10.996 50 19.985 41 19.985 41 8 53 8.019 53 22.981 38 22.981 38 8 23 8 23 23 35 22.981 35 10.996 26 10.996 26 19.985 32 19.985 32 13.993 29 13.993 28.962 16.989" transform="translate(0 97) translate(12 51) translate(10.5 1.5) translate(0 330) matrix(0 1 1 0 22.5 -22.5)"/>
                                <path d="M32 13.993L32 16.989 29 16.989 29 10.996 35 10.996 35 19.985 26 19.985 26 8 38 8.019 38 22.981 23 22.981 23 8 8 8 8 23 20 22.981 20 10.996 11 10.996 11 19.985 17 19.985 17 13.993 14 13.993 13.963 16.989" transform="translate(0 97) translate(12 51) translate(10.5 1.5) translate(0 330) rotate(90 23 15.5)"/>
                                <path d="M17 13.993L17 16.989 14 16.989 14 10.996 20 10.996 20 19.985 11 19.985 11 8 23 8.019 23 22.981 8 22.981 8 8 -7 8 -7 23 5 22.981 5 10.996 -4 10.996 -4 19.985 2 19.985 2 13.993 -1 13.993 -1.038 16.989" transform="translate(0 97) translate(12 51) translate(10.5 1.5) translate(0 330) matrix(0 1 1 0 -7.5 7.5)"/>
                            </g>
                            <g>
                                <path d="M211 13.993L211 16.989 208 16.989 208 10.996 214 10.996 214 19.985 205 19.985 205 8 217 8.019 217 22.981 202 22.981 202 8 187 8 187 23 199 22.981 199 10.996 190 10.996 190 19.985 196 19.985 196 13.993 193 13.993 192.963 16.989" transform="translate(0 97) translate(12 51) translate(10.5 1.5) translate(0 300) rotate(90 202 15.5)"/>
                                <path d="M196 13.993L196 16.989 193 16.989 193 10.996 199 10.996 199 19.985 190 19.985 190 8 202 8.019 202 22.981 187 22.981 187 8 172 8 172 23 184 22.981 184 10.996 175 10.996 175 19.985 181 19.985 181 13.993 178 13.993 177.963 16.989" transform="translate(0 97) translate(12 51) translate(10.5 1.5) translate(0 300) matrix(0 1 1 0 171.5 -171.5)"/>
                                <path d="M181 13.993L181 16.989 178 16.989 178 10.996 184 10.996 184 19.985 175 19.985 175 8 187 8.019 187 22.981 172 22.981 172 8 157 8 157 23 169 22.981 169 10.996 160 10.996 160 19.985 166 19.985 166 13.993 163 13.993 162.963 16.989" transform="translate(0 97) translate(12 51) translate(10.5 1.5) translate(0 300) rotate(90 172 15.5)"/>
                                <path d="M166 13.993L166 16.989 163 16.989 163 10.996 169 10.996 169 19.985 160 19.985 160 8 172 8.019 172 22.981 157 22.981 157 8 142 8 142 23 154 22.981 154 10.996 145 10.996 145 19.985 151 19.985 151 13.993 148 13.993 147.963 16.989" transform="translate(0 97) translate(12 51) translate(10.5 1.5) translate(0 300) matrix(0 1 1 0 141.5 -141.5)"/>
                                <path d="M151 13.993L151 16.989 148 16.989 148 10.996 154 10.996 154 19.985 145 19.985 145 8 157 8.019 157 22.981 142 22.981 142 8 127 8 127 23 139 22.981 139 10.996 130 10.996 130 19.985 136 19.985 136 13.993 133 13.993 132.963 16.989" transform="translate(0 97) translate(12 51) translate(10.5 1.5) translate(0 300) rotate(90 142 15.5)"/>
                                <path d="M136 13.993L136 16.989 133 16.989 133 10.996 139 10.996 139 19.985 130 19.985 130 8 142 8.019 142 22.981 127 22.981 127 8 112 8 112 23 124 22.981 124 10.996 115 10.996 115 19.985 121 19.985 121 13.993 118 13.993 117.963 16.989" transform="translate(0 97) translate(12 51) translate(10.5 1.5) translate(0 300) matrix(0 1 1 0 111.5 -111.5)"/>
                                <path d="M121.5 14.493L121.5 16.489 118.5 16.489 118.5 11.496 124.5 11.496 124.5 19.485 115.5 19.485 115.5 8.5 127.5 8.519 127.5 22.481 112.5 22.481 112.5 8.5 97.5 8.5 97.5 22.5 109.5 22.481 109.5 11.496 100.5 11.496 100.5 19.485 106.5 19.485 106.5 14.493 103.5 14.493 103.463 16.489" transform="translate(0 97) translate(12 51) translate(10.5 1.5) translate(0 300) rotate(90 112.5 15.5)"/>
                                <path d="M107.5 14.493L107.5 16.489 104.5 16.489 104.5 11.496 110.5 11.496 110.5 19.485 101.5 19.485 101.5 8.5 113.5 8.519 113.5 22.481 98.5 22.481 98.5 8.5 83.5 8.5 83.5 22.5 95.5 22.481 95.5 11.496 86.5 11.496 86.5 19.485 92.5 19.485 92.5 14.493 89.5 14.493 89.463 16.489" transform="translate(0 97) translate(12 51) translate(10.5 1.5) translate(0 300) matrix(0 1 1 0 83 -83)"/>
                                <path d="M92 13.993L92 16.989 89 16.989 89 10.996 95 10.996 95 19.985 86 19.985 86 8 98 8.019 98 22.981 83 22.981 83 8 68 8 68 23 80 22.981 80 10.996 71 10.996 71 19.985 77 19.985 77 13.993 74 13.993 73.963 16.989" transform="translate(0 97) translate(12 51) translate(10.5 1.5) translate(0 300) rotate(90 83 15.5)"/>
                                <path d="M77 13.993L77 16.989 74 16.989 74 10.996 80 10.996 80 19.985 71 19.985 71 8 83 8.019 83 22.981 68 22.981 68 8 53 8 53 23 65 22.981 65 10.996 56 10.996 56 19.985 62 19.985 62 13.993 59 13.993 58.962 16.989" transform="translate(0 97) translate(12 51) translate(10.5 1.5) translate(0 300) matrix(0 1 1 0 52.5 -52.5)"/>
                                <path d="M62 13.993L62 16.989 59 16.989 59 10.996 65 10.996 65 19.985 56 19.985 56 8 68 8.019 68 22.981 53 22.981 53 8 38 8 38 23 50 22.981 50 10.996 41 10.996 41 19.985 47 19.985 47 13.993 44 13.993 43.962 16.989" transform="translate(0 97) translate(12 51) translate(10.5 1.5) translate(0 300) rotate(90 53 15.5)"/>
                                <path d="M47 13.993L47 16.989 44 16.989 44 10.996 50 10.996 50 19.985 41 19.985 41 8 53 8.019 53 22.981 38 22.981 38 8 23 8 23 23 35 22.981 35 10.996 26 10.996 26 19.985 32 19.985 32 13.993 29 13.993 28.962 16.989" transform="translate(0 97) translate(12 51) translate(10.5 1.5) translate(0 300) matrix(0 1 1 0 22.5 -22.5)"/>
                                <path d="M32 13.993L32 16.989 29 16.989 29 10.996 35 10.996 35 19.985 26 19.985 26 8 38 8.019 38 22.981 23 22.981 23 8 8 8 8 23 20 22.981 20 10.996 11 10.996 11 19.985 17 19.985 17 13.993 14 13.993 13.963 16.989" transform="translate(0 97) translate(12 51) translate(10.5 1.5) translate(0 300) rotate(90 23 15.5)"/>
                                <path d="M17 13.993L17 16.989 14 16.989 14 10.996 20 10.996 20 19.985 11 19.985 11 8 23 8.019 23 22.981 8 22.981 8 8 -7 8 -7 23 5 22.981 5 10.996 -4 10.996 -4 19.985 2 19.985 2 13.993 -1 13.993 -1.038 16.989" transform="translate(0 97) translate(12 51) translate(10.5 1.5) translate(0 300) matrix(0 1 1 0 -7.5 7.5)"/>
                            </g>
                            <g>
                                <path d="M211 13.993L211 16.989 208 16.989 208 10.996 214 10.996 214 19.985 205 19.985 205 8 217 8.019 217 22.981 202 22.981 202 8 187 8 187 23 199 22.981 199 10.996 190 10.996 190 19.985 196 19.985 196 13.993 193 13.993 192.963 16.989" transform="translate(0 97) translate(12 51) translate(10.5 1.5) translate(0 270) rotate(90 202 15.5)"/>
                                <path d="M196 13.993L196 16.989 193 16.989 193 10.996 199 10.996 199 19.985 190 19.985 190 8 202 8.019 202 22.981 187 22.981 187 8 172 8 172 23 184 22.981 184 10.996 175 10.996 175 19.985 181 19.985 181 13.993 178 13.993 177.963 16.989" transform="translate(0 97) translate(12 51) translate(10.5 1.5) translate(0 270) matrix(0 1 1 0 171.5 -171.5)"/>
                                <path d="M181 13.993L181 16.989 178 16.989 178 10.996 184 10.996 184 19.985 175 19.985 175 8 187 8.019 187 22.981 172 22.981 172 8 157 8 157 23 169 22.981 169 10.996 160 10.996 160 19.985 166 19.985 166 13.993 163 13.993 162.963 16.989" transform="translate(0 97) translate(12 51) translate(10.5 1.5) translate(0 270) rotate(90 172 15.5)"/>
                                <path d="M166 13.993L166 16.989 163 16.989 163 10.996 169 10.996 169 19.985 160 19.985 160 8 172 8.019 172 22.981 157 22.981 157 8 142 8 142 23 154 22.981 154 10.996 145 10.996 145 19.985 151 19.985 151 13.993 148 13.993 147.963 16.989" transform="translate(0 97) translate(12 51) translate(10.5 1.5) translate(0 270) matrix(0 1 1 0 141.5 -141.5)"/>
                                <path d="M151 13.993L151 16.989 148 16.989 148 10.996 154 10.996 154 19.985 145 19.985 145 8 157 8.019 157 22.981 142 22.981 142 8 127 8 127 23 139 22.981 139 10.996 130 10.996 130 19.985 136 19.985 136 13.993 133 13.993 132.963 16.989" transform="translate(0 97) translate(12 51) translate(10.5 1.5) translate(0 270) rotate(90 142 15.5)"/>
                                <path d="M136 13.993L136 16.989 133 16.989 133 10.996 139 10.996 139 19.985 130 19.985 130 8 142 8.019 142 22.981 127 22.981 127 8 112 8 112 23 124 22.981 124 10.996 115 10.996 115 19.985 121 19.985 121 13.993 118 13.993 117.963 16.989" transform="translate(0 97) translate(12 51) translate(10.5 1.5) translate(0 270) matrix(0 1 1 0 111.5 -111.5)"/>
                                <path d="M121.5 14.493L121.5 16.489 118.5 16.489 118.5 11.496 124.5 11.496 124.5 19.485 115.5 19.485 115.5 8.5 127.5 8.519 127.5 22.481 112.5 22.481 112.5 8.5 97.5 8.5 97.5 22.5 109.5 22.481 109.5 11.496 100.5 11.496 100.5 19.485 106.5 19.485 106.5 14.493 103.5 14.493 103.463 16.489" transform="translate(0 97) translate(12 51) translate(10.5 1.5) translate(0 270) rotate(90 112.5 15.5)"/>
                                <path d="M107.5 14.493L107.5 16.489 104.5 16.489 104.5 11.496 110.5 11.496 110.5 19.485 101.5 19.485 101.5 8.5 113.5 8.519 113.5 22.481 98.5 22.481 98.5 8.5 83.5 8.5 83.5 22.5 95.5 22.481 95.5 11.496 86.5 11.496 86.5 19.485 92.5 19.485 92.5 14.493 89.5 14.493 89.463 16.489" transform="translate(0 97) translate(12 51) translate(10.5 1.5) translate(0 270) matrix(0 1 1 0 83 -83)"/>
                                <path d="M92 13.993L92 16.989 89 16.989 89 10.996 95 10.996 95 19.985 86 19.985 86 8 98 8.019 98 22.981 83 22.981 83 8 68 8 68 23 80 22.981 80 10.996 71 10.996 71 19.985 77 19.985 77 13.993 74 13.993 73.963 16.989" transform="translate(0 97) translate(12 51) translate(10.5 1.5) translate(0 270) rotate(90 83 15.5)"/>
                                <path d="M77 13.993L77 16.989 74 16.989 74 10.996 80 10.996 80 19.985 71 19.985 71 8 83 8.019 83 22.981 68 22.981 68 8 53 8 53 23 65 22.981 65 10.996 56 10.996 56 19.985 62 19.985 62 13.993 59 13.993 58.962 16.989" transform="translate(0 97) translate(12 51) translate(10.5 1.5) translate(0 270) matrix(0 1 1 0 52.5 -52.5)"/>
                                <path d="M62 13.993L62 16.989 59 16.989 59 10.996 65 10.996 65 19.985 56 19.985 56 8 68 8.019 68 22.981 53 22.981 53 8 38 8 38 23 50 22.981 50 10.996 41 10.996 41 19.985 47 19.985 47 13.993 44 13.993 43.962 16.989" transform="translate(0 97) translate(12 51) translate(10.5 1.5) translate(0 270) rotate(90 53 15.5)"/>
                                <path d="M47 13.993L47 16.989 44 16.989 44 10.996 50 10.996 50 19.985 41 19.985 41 8 53 8.019 53 22.981 38 22.981 38 8 23 8 23 23 35 22.981 35 10.996 26 10.996 26 19.985 32 19.985 32 13.993 29 13.993 28.962 16.989" transform="translate(0 97) translate(12 51) translate(10.5 1.5) translate(0 270) matrix(0 1 1 0 22.5 -22.5)"/>
                                <path d="M32 13.993L32 16.989 29 16.989 29 10.996 35 10.996 35 19.985 26 19.985 26 8 38 8.019 38 22.981 23 22.981 23 8 8 8 8 23 20 22.981 20 10.996 11 10.996 11 19.985 17 19.985 17 13.993 14 13.993 13.963 16.989" transform="translate(0 97) translate(12 51) translate(10.5 1.5) translate(0 270) rotate(90 23 15.5)"/>
                                <path d="M17 13.993L17 16.989 14 16.989 14 10.996 20 10.996 20 19.985 11 19.985 11 8 23 8.019 23 22.981 8 22.981 8 8 -7 8 -7 23 5 22.981 5 10.996 -4 10.996 -4 19.985 2 19.985 2 13.993 -1 13.993 -1.038 16.989" transform="translate(0 97) translate(12 51) translate(10.5 1.5) translate(0 270) matrix(0 1 1 0 -7.5 7.5)"/>
                            </g>
                            <g>
                                <path d="M211 13.993L211 16.989 208 16.989 208 10.996 214 10.996 214 19.985 205 19.985 205 8 217 8.019 217 22.981 202 22.981 202 8 187 8 187 23 199 22.981 199 10.996 190 10.996 190 19.985 196 19.985 196 13.993 193 13.993 192.963 16.989" transform="translate(0 97) translate(12 51) translate(10.5 1.5) translate(0 240) rotate(90 202 15.5)"/>
                                <path d="M196 13.993L196 16.989 193 16.989 193 10.996 199 10.996 199 19.985 190 19.985 190 8 202 8.019 202 22.981 187 22.981 187 8 172 8 172 23 184 22.981 184 10.996 175 10.996 175 19.985 181 19.985 181 13.993 178 13.993 177.963 16.989" transform="translate(0 97) translate(12 51) translate(10.5 1.5) translate(0 240) matrix(0 1 1 0 171.5 -171.5)"/>
                                <path d="M181 13.993L181 16.989 178 16.989 178 10.996 184 10.996 184 19.985 175 19.985 175 8 187 8.019 187 22.981 172 22.981 172 8 157 8 157 23 169 22.981 169 10.996 160 10.996 160 19.985 166 19.985 166 13.993 163 13.993 162.963 16.989" transform="translate(0 97) translate(12 51) translate(10.5 1.5) translate(0 240) rotate(90 172 15.5)"/>
                                <path d="M166 13.993L166 16.989 163 16.989 163 10.996 169 10.996 169 19.985 160 19.985 160 8 172 8.019 172 22.981 157 22.981 157 8 142 8 142 23 154 22.981 154 10.996 145 10.996 145 19.985 151 19.985 151 13.993 148 13.993 147.963 16.989" transform="translate(0 97) translate(12 51) translate(10.5 1.5) translate(0 240) matrix(0 1 1 0 141.5 -141.5)"/>
                                <path d="M151 13.993L151 16.989 148 16.989 148 10.996 154 10.996 154 19.985 145 19.985 145 8 157 8.019 157 22.981 142 22.981 142 8 127 8 127 23 139 22.981 139 10.996 130 10.996 130 19.985 136 19.985 136 13.993 133 13.993 132.963 16.989" transform="translate(0 97) translate(12 51) translate(10.5 1.5) translate(0 240) rotate(90 142 15.5)"/>
                                <path d="M136 13.993L136 16.989 133 16.989 133 10.996 139 10.996 139 19.985 130 19.985 130 8 142 8.019 142 22.981 127 22.981 127 8 112 8 112 23 124 22.981 124 10.996 115 10.996 115 19.985 121 19.985 121 13.993 118 13.993 117.963 16.989" transform="translate(0 97) translate(12 51) translate(10.5 1.5) translate(0 240) matrix(0 1 1 0 111.5 -111.5)"/>
                                <path d="M121.5 14.493L121.5 16.489 118.5 16.489 118.5 11.496 124.5 11.496 124.5 19.485 115.5 19.485 115.5 8.5 127.5 8.519 127.5 22.481 112.5 22.481 112.5 8.5 97.5 8.5 97.5 22.5 109.5 22.481 109.5 11.496 100.5 11.496 100.5 19.485 106.5 19.485 106.5 14.493 103.5 14.493 103.463 16.489" transform="translate(0 97) translate(12 51) translate(10.5 1.5) translate(0 240) rotate(90 112.5 15.5)"/>
                                <path d="M107.5 14.493L107.5 16.489 104.5 16.489 104.5 11.496 110.5 11.496 110.5 19.485 101.5 19.485 101.5 8.5 113.5 8.519 113.5 22.481 98.5 22.481 98.5 8.5 83.5 8.5 83.5 22.5 95.5 22.481 95.5 11.496 86.5 11.496 86.5 19.485 92.5 19.485 92.5 14.493 89.5 14.493 89.463 16.489" transform="translate(0 97) translate(12 51) translate(10.5 1.5) translate(0 240) matrix(0 1 1 0 83 -83)"/>
                                <path d="M92 13.993L92 16.989 89 16.989 89 10.996 95 10.996 95 19.985 86 19.985 86 8 98 8.019 98 22.981 83 22.981 83 8 68 8 68 23 80 22.981 80 10.996 71 10.996 71 19.985 77 19.985 77 13.993 74 13.993 73.963 16.989" transform="translate(0 97) translate(12 51) translate(10.5 1.5) translate(0 240) rotate(90 83 15.5)"/>
                                <path d="M77 13.993L77 16.989 74 16.989 74 10.996 80 10.996 80 19.985 71 19.985 71 8 83 8.019 83 22.981 68 22.981 68 8 53 8 53 23 65 22.981 65 10.996 56 10.996 56 19.985 62 19.985 62 13.993 59 13.993 58.962 16.989" transform="translate(0 97) translate(12 51) translate(10.5 1.5) translate(0 240) matrix(0 1 1 0 52.5 -52.5)"/>
                                <path d="M62 13.993L62 16.989 59 16.989 59 10.996 65 10.996 65 19.985 56 19.985 56 8 68 8.019 68 22.981 53 22.981 53 8 38 8 38 23 50 22.981 50 10.996 41 10.996 41 19.985 47 19.985 47 13.993 44 13.993 43.962 16.989" transform="translate(0 97) translate(12 51) translate(10.5 1.5) translate(0 240) rotate(90 53 15.5)"/>
                                <path d="M47 13.993L47 16.989 44 16.989 44 10.996 50 10.996 50 19.985 41 19.985 41 8 53 8.019 53 22.981 38 22.981 38 8 23 8 23 23 35 22.981 35 10.996 26 10.996 26 19.985 32 19.985 32 13.993 29 13.993 28.962 16.989" transform="translate(0 97) translate(12 51) translate(10.5 1.5) translate(0 240) matrix(0 1 1 0 22.5 -22.5)"/>
                                <path d="M32 13.993L32 16.989 29 16.989 29 10.996 35 10.996 35 19.985 26 19.985 26 8 38 8.019 38 22.981 23 22.981 23 8 8 8 8 23 20 22.981 20 10.996 11 10.996 11 19.985 17 19.985 17 13.993 14 13.993 13.963 16.989" transform="translate(0 97) translate(12 51) translate(10.5 1.5) translate(0 240) rotate(90 23 15.5)"/>
                                <path d="M17 13.993L17 16.989 14 16.989 14 10.996 20 10.996 20 19.985 11 19.985 11 8 23 8.019 23 22.981 8 22.981 8 8 -7 8 -7 23 5 22.981 5 10.996 -4 10.996 -4 19.985 2 19.985 2 13.993 -1 13.993 -1.038 16.989" transform="translate(0 97) translate(12 51) translate(10.5 1.5) translate(0 240) matrix(0 1 1 0 -7.5 7.5)"/>
                            </g>
                            <g>
                                <path d="M211 13.993L211 16.989 208 16.989 208 10.996 214 10.996 214 19.985 205 19.985 205 8 217 8.019 217 22.981 202 22.981 202 8 187 8 187 23 199 22.981 199 10.996 190 10.996 190 19.985 196 19.985 196 13.993 193 13.993 192.963 16.989" transform="translate(0 97) translate(12 51) translate(10.5 1.5) translate(0 210) rotate(90 202 15.5)"/>
                                <path d="M196 13.993L196 16.989 193 16.989 193 10.996 199 10.996 199 19.985 190 19.985 190 8 202 8.019 202 22.981 187 22.981 187 8 172 8 172 23 184 22.981 184 10.996 175 10.996 175 19.985 181 19.985 181 13.993 178 13.993 177.963 16.989" transform="translate(0 97) translate(12 51) translate(10.5 1.5) translate(0 210) matrix(0 1 1 0 171.5 -171.5)"/>
                                <path d="M181 13.993L181 16.989 178 16.989 178 10.996 184 10.996 184 19.985 175 19.985 175 8 187 8.019 187 22.981 172 22.981 172 8 157 8 157 23 169 22.981 169 10.996 160 10.996 160 19.985 166 19.985 166 13.993 163 13.993 162.963 16.989" transform="translate(0 97) translate(12 51) translate(10.5 1.5) translate(0 210) rotate(90 172 15.5)"/>
                                <path d="M166 13.993L166 16.989 163 16.989 163 10.996 169 10.996 169 19.985 160 19.985 160 8 172 8.019 172 22.981 157 22.981 157 8 142 8 142 23 154 22.981 154 10.996 145 10.996 145 19.985 151 19.985 151 13.993 148 13.993 147.963 16.989" transform="translate(0 97) translate(12 51) translate(10.5 1.5) translate(0 210) matrix(0 1 1 0 141.5 -141.5)"/>
                                <path d="M151 13.993L151 16.989 148 16.989 148 10.996 154 10.996 154 19.985 145 19.985 145 8 157 8.019 157 22.981 142 22.981 142 8 127 8 127 23 139 22.981 139 10.996 130 10.996 130 19.985 136 19.985 136 13.993 133 13.993 132.963 16.989" transform="translate(0 97) translate(12 51) translate(10.5 1.5) translate(0 210) rotate(90 142 15.5)"/>
                                <path d="M136 13.993L136 16.989 133 16.989 133 10.996 139 10.996 139 19.985 130 19.985 130 8 142 8.019 142 22.981 127 22.981 127 8 112 8 112 23 124 22.981 124 10.996 115 10.996 115 19.985 121 19.985 121 13.993 118 13.993 117.963 16.989" transform="translate(0 97) translate(12 51) translate(10.5 1.5) translate(0 210) matrix(0 1 1 0 111.5 -111.5)"/>
                                <path d="M121.5 14.493L121.5 16.489 118.5 16.489 118.5 11.496 124.5 11.496 124.5 19.485 115.5 19.485 115.5 8.5 127.5 8.519 127.5 22.481 112.5 22.481 112.5 8.5 97.5 8.5 97.5 22.5 109.5 22.481 109.5 11.496 100.5 11.496 100.5 19.485 106.5 19.485 106.5 14.493 103.5 14.493 103.463 16.489" transform="translate(0 97) translate(12 51) translate(10.5 1.5) translate(0 210) rotate(90 112.5 15.5)"/>
                                <path d="M107.5 14.493L107.5 16.489 104.5 16.489 104.5 11.496 110.5 11.496 110.5 19.485 101.5 19.485 101.5 8.5 113.5 8.519 113.5 22.481 98.5 22.481 98.5 8.5 83.5 8.5 83.5 22.5 95.5 22.481 95.5 11.496 86.5 11.496 86.5 19.485 92.5 19.485 92.5 14.493 89.5 14.493 89.463 16.489" transform="translate(0 97) translate(12 51) translate(10.5 1.5) translate(0 210) matrix(0 1 1 0 83 -83)"/>
                                <path d="M92 13.993L92 16.989 89 16.989 89 10.996 95 10.996 95 19.985 86 19.985 86 8 98 8.019 98 22.981 83 22.981 83 8 68 8 68 23 80 22.981 80 10.996 71 10.996 71 19.985 77 19.985 77 13.993 74 13.993 73.963 16.989" transform="translate(0 97) translate(12 51) translate(10.5 1.5) translate(0 210) rotate(90 83 15.5)"/>
                                <path d="M77 13.993L77 16.989 74 16.989 74 10.996 80 10.996 80 19.985 71 19.985 71 8 83 8.019 83 22.981 68 22.981 68 8 53 8 53 23 65 22.981 65 10.996 56 10.996 56 19.985 62 19.985 62 13.993 59 13.993 58.962 16.989" transform="translate(0 97) translate(12 51) translate(10.5 1.5) translate(0 210) matrix(0 1 1 0 52.5 -52.5)"/>
                                <path d="M62 13.993L62 16.989 59 16.989 59 10.996 65 10.996 65 19.985 56 19.985 56 8 68 8.019 68 22.981 53 22.981 53 8 38 8 38 23 50 22.981 50 10.996 41 10.996 41 19.985 47 19.985 47 13.993 44 13.993 43.962 16.989" transform="translate(0 97) translate(12 51) translate(10.5 1.5) translate(0 210) rotate(90 53 15.5)"/>
                                <path d="M47 13.993L47 16.989 44 16.989 44 10.996 50 10.996 50 19.985 41 19.985 41 8 53 8.019 53 22.981 38 22.981 38 8 23 8 23 23 35 22.981 35 10.996 26 10.996 26 19.985 32 19.985 32 13.993 29 13.993 28.962 16.989" transform="translate(0 97) translate(12 51) translate(10.5 1.5) translate(0 210) matrix(0 1 1 0 22.5 -22.5)"/>
                                <path d="M32 13.993L32 16.989 29 16.989 29 10.996 35 10.996 35 19.985 26 19.985 26 8 38 8.019 38 22.981 23 22.981 23 8 8 8 8 23 20 22.981 20 10.996 11 10.996 11 19.985 17 19.985 17 13.993 14 13.993 13.963 16.989" transform="translate(0 97) translate(12 51) translate(10.5 1.5) translate(0 210) rotate(90 23 15.5)"/>
                                <path d="M17 13.993L17 16.989 14 16.989 14 10.996 20 10.996 20 19.985 11 19.985 11 8 23 8.019 23 22.981 8 22.981 8 8 -7 8 -7 23 5 22.981 5 10.996 -4 10.996 -4 19.985 2 19.985 2 13.993 -1 13.993 -1.038 16.989" transform="translate(0 97) translate(12 51) translate(10.5 1.5) translate(0 210) matrix(0 1 1 0 -7.5 7.5)"/>
                            </g>
                            <g>
                                <path d="M211 13.993L211 16.989 208 16.989 208 10.996 214 10.996 214 19.985 205 19.985 205 8 217 8.019 217 22.981 202 22.981 202 8 187 8 187 23 199 22.981 199 10.996 190 10.996 190 19.985 196 19.985 196 13.993 193 13.993 192.963 16.989" transform="translate(0 97) translate(12 51) translate(10.5 1.5) translate(0 180) rotate(90 202 15.5)"/>
                                <path d="M196 13.993L196 16.989 193 16.989 193 10.996 199 10.996 199 19.985 190 19.985 190 8 202 8.019 202 22.981 187 22.981 187 8 172 8 172 23 184 22.981 184 10.996 175 10.996 175 19.985 181 19.985 181 13.993 178 13.993 177.963 16.989" transform="translate(0 97) translate(12 51) translate(10.5 1.5) translate(0 180) matrix(0 1 1 0 171.5 -171.5)"/>
                                <path d="M181 13.993L181 16.989 178 16.989 178 10.996 184 10.996 184 19.985 175 19.985 175 8 187 8.019 187 22.981 172 22.981 172 8 157 8 157 23 169 22.981 169 10.996 160 10.996 160 19.985 166 19.985 166 13.993 163 13.993 162.963 16.989" transform="translate(0 97) translate(12 51) translate(10.5 1.5) translate(0 180) rotate(90 172 15.5)"/>
                                <path d="M166 13.993L166 16.989 163 16.989 163 10.996 169 10.996 169 19.985 160 19.985 160 8 172 8.019 172 22.981 157 22.981 157 8 142 8 142 23 154 22.981 154 10.996 145 10.996 145 19.985 151 19.985 151 13.993 148 13.993 147.963 16.989" transform="translate(0 97) translate(12 51) translate(10.5 1.5) translate(0 180) matrix(0 1 1 0 141.5 -141.5)"/>
                                <path d="M151 13.993L151 16.989 148 16.989 148 10.996 154 10.996 154 19.985 145 19.985 145 8 157 8.019 157 22.981 142 22.981 142 8 127 8 127 23 139 22.981 139 10.996 130 10.996 130 19.985 136 19.985 136 13.993 133 13.993 132.963 16.989" transform="translate(0 97) translate(12 51) translate(10.5 1.5) translate(0 180) rotate(90 142 15.5)"/>
                                <path d="M136 13.993L136 16.989 133 16.989 133 10.996 139 10.996 139 19.985 130 19.985 130 8 142 8.019 142 22.981 127 22.981 127 8 112 8 112 23 124 22.981 124 10.996 115 10.996 115 19.985 121 19.985 121 13.993 118 13.993 117.963 16.989" transform="translate(0 97) translate(12 51) translate(10.5 1.5) translate(0 180) matrix(0 1 1 0 111.5 -111.5)"/>
                                <path d="M121.5 14.493L121.5 16.489 118.5 16.489 118.5 11.496 124.5 11.496 124.5 19.485 115.5 19.485 115.5 8.5 127.5 8.519 127.5 22.481 112.5 22.481 112.5 8.5 97.5 8.5 97.5 22.5 109.5 22.481 109.5 11.496 100.5 11.496 100.5 19.485 106.5 19.485 106.5 14.493 103.5 14.493 103.463 16.489" transform="translate(0 97) translate(12 51) translate(10.5 1.5) translate(0 180) rotate(90 112.5 15.5)"/>
                                <path d="M107.5 14.493L107.5 16.489 104.5 16.489 104.5 11.496 110.5 11.496 110.5 19.485 101.5 19.485 101.5 8.5 113.5 8.519 113.5 22.481 98.5 22.481 98.5 8.5 83.5 8.5 83.5 22.5 95.5 22.481 95.5 11.496 86.5 11.496 86.5 19.485 92.5 19.485 92.5 14.493 89.5 14.493 89.463 16.489" transform="translate(0 97) translate(12 51) translate(10.5 1.5) translate(0 180) matrix(0 1 1 0 83 -83)"/>
                                <path d="M92 13.993L92 16.989 89 16.989 89 10.996 95 10.996 95 19.985 86 19.985 86 8 98 8.019 98 22.981 83 22.981 83 8 68 8 68 23 80 22.981 80 10.996 71 10.996 71 19.985 77 19.985 77 13.993 74 13.993 73.963 16.989" transform="translate(0 97) translate(12 51) translate(10.5 1.5) translate(0 180) rotate(90 83 15.5)"/>
                                <path d="M77 13.993L77 16.989 74 16.989 74 10.996 80 10.996 80 19.985 71 19.985 71 8 83 8.019 83 22.981 68 22.981 68 8 53 8 53 23 65 22.981 65 10.996 56 10.996 56 19.985 62 19.985 62 13.993 59 13.993 58.962 16.989" transform="translate(0 97) translate(12 51) translate(10.5 1.5) translate(0 180) matrix(0 1 1 0 52.5 -52.5)"/>
                                <path d="M62 13.993L62 16.989 59 16.989 59 10.996 65 10.996 65 19.985 56 19.985 56 8 68 8.019 68 22.981 53 22.981 53 8 38 8 38 23 50 22.981 50 10.996 41 10.996 41 19.985 47 19.985 47 13.993 44 13.993 43.962 16.989" transform="translate(0 97) translate(12 51) translate(10.5 1.5) translate(0 180) rotate(90 53 15.5)"/>
                                <path d="M47 13.993L47 16.989 44 16.989 44 10.996 50 10.996 50 19.985 41 19.985 41 8 53 8.019 53 22.981 38 22.981 38 8 23 8 23 23 35 22.981 35 10.996 26 10.996 26 19.985 32 19.985 32 13.993 29 13.993 28.962 16.989" transform="translate(0 97) translate(12 51) translate(10.5 1.5) translate(0 180) matrix(0 1 1 0 22.5 -22.5)"/>
                                <path d="M32 13.993L32 16.989 29 16.989 29 10.996 35 10.996 35 19.985 26 19.985 26 8 38 8.019 38 22.981 23 22.981 23 8 8 8 8 23 20 22.981 20 10.996 11 10.996 11 19.985 17 19.985 17 13.993 14 13.993 13.963 16.989" transform="translate(0 97) translate(12 51) translate(10.5 1.5) translate(0 180) rotate(90 23 15.5)"/>
                                <path d="M17 13.993L17 16.989 14 16.989 14 10.996 20 10.996 20 19.985 11 19.985 11 8 23 8.019 23 22.981 8 22.981 8 8 -7 8 -7 23 5 22.981 5 10.996 -4 10.996 -4 19.985 2 19.985 2 13.993 -1 13.993 -1.038 16.989" transform="translate(0 97) translate(12 51) translate(10.5 1.5) translate(0 180) matrix(0 1 1 0 -7.5 7.5)"/>
                            </g>
                            <g>
                                <path d="M211 13.993L211 16.989 208 16.989 208 10.996 214 10.996 214 19.985 205 19.985 205 8 217 8.019 217 22.981 202 22.981 202 8 187 8 187 23 199 22.981 199 10.996 190 10.996 190 19.985 196 19.985 196 13.993 193 13.993 192.963 16.989" transform="translate(0 97) translate(12 51) translate(10.5 1.5) translate(0 150) rotate(90 202 15.5)"/>
                                <path d="M196 13.993L196 16.989 193 16.989 193 10.996 199 10.996 199 19.985 190 19.985 190 8 202 8.019 202 22.981 187 22.981 187 8 172 8 172 23 184 22.981 184 10.996 175 10.996 175 19.985 181 19.985 181 13.993 178 13.993 177.963 16.989" transform="translate(0 97) translate(12 51) translate(10.5 1.5) translate(0 150) matrix(0 1 1 0 171.5 -171.5)"/>
                                <path d="M181 13.993L181 16.989 178 16.989 178 10.996 184 10.996 184 19.985 175 19.985 175 8 187 8.019 187 22.981 172 22.981 172 8 157 8 157 23 169 22.981 169 10.996 160 10.996 160 19.985 166 19.985 166 13.993 163 13.993 162.963 16.989" transform="translate(0 97) translate(12 51) translate(10.5 1.5) translate(0 150) rotate(90 172 15.5)"/>
                                <path d="M166 13.993L166 16.989 163 16.989 163 10.996 169 10.996 169 19.985 160 19.985 160 8 172 8.019 172 22.981 157 22.981 157 8 142 8 142 23 154 22.981 154 10.996 145 10.996 145 19.985 151 19.985 151 13.993 148 13.993 147.963 16.989" transform="translate(0 97) translate(12 51) translate(10.5 1.5) translate(0 150) matrix(0 1 1 0 141.5 -141.5)"/>
                                <path d="M151 13.993L151 16.989 148 16.989 148 10.996 154 10.996 154 19.985 145 19.985 145 8 157 8.019 157 22.981 142 22.981 142 8 127 8 127 23 139 22.981 139 10.996 130 10.996 130 19.985 136 19.985 136 13.993 133 13.993 132.963 16.989" transform="translate(0 97) translate(12 51) translate(10.5 1.5) translate(0 150) rotate(90 142 15.5)"/>
                                <path d="M136 13.993L136 16.989 133 16.989 133 10.996 139 10.996 139 19.985 130 19.985 130 8 142 8.019 142 22.981 127 22.981 127 8 112 8 112 23 124 22.981 124 10.996 115 10.996 115 19.985 121 19.985 121 13.993 118 13.993 117.963 16.989" transform="translate(0 97) translate(12 51) translate(10.5 1.5) translate(0 150) matrix(0 1 1 0 111.5 -111.5)"/>
                                <path d="M121.5 14.493L121.5 16.489 118.5 16.489 118.5 11.496 124.5 11.496 124.5 19.485 115.5 19.485 115.5 8.5 127.5 8.519 127.5 22.481 112.5 22.481 112.5 8.5 97.5 8.5 97.5 22.5 109.5 22.481 109.5 11.496 100.5 11.496 100.5 19.485 106.5 19.485 106.5 14.493 103.5 14.493 103.463 16.489" transform="translate(0 97) translate(12 51) translate(10.5 1.5) translate(0 150) rotate(90 112.5 15.5)"/>
                                <path d="M107.5 14.493L107.5 16.489 104.5 16.489 104.5 11.496 110.5 11.496 110.5 19.485 101.5 19.485 101.5 8.5 113.5 8.519 113.5 22.481 98.5 22.481 98.5 8.5 83.5 8.5 83.5 22.5 95.5 22.481 95.5 11.496 86.5 11.496 86.5 19.485 92.5 19.485 92.5 14.493 89.5 14.493 89.463 16.489" transform="translate(0 97) translate(12 51) translate(10.5 1.5) translate(0 150) matrix(0 1 1 0 83 -83)"/>
                                <path d="M92 13.993L92 16.989 89 16.989 89 10.996 95 10.996 95 19.985 86 19.985 86 8 98 8.019 98 22.981 83 22.981 83 8 68 8 68 23 80 22.981 80 10.996 71 10.996 71 19.985 77 19.985 77 13.993 74 13.993 73.963 16.989" transform="translate(0 97) translate(12 51) translate(10.5 1.5) translate(0 150) rotate(90 83 15.5)"/>
                                <path d="M77 13.993L77 16.989 74 16.989 74 10.996 80 10.996 80 19.985 71 19.985 71 8 83 8.019 83 22.981 68 22.981 68 8 53 8 53 23 65 22.981 65 10.996 56 10.996 56 19.985 62 19.985 62 13.993 59 13.993 58.962 16.989" transform="translate(0 97) translate(12 51) translate(10.5 1.5) translate(0 150) matrix(0 1 1 0 52.5 -52.5)"/>
                                <path d="M62 13.993L62 16.989 59 16.989 59 10.996 65 10.996 65 19.985 56 19.985 56 8 68 8.019 68 22.981 53 22.981 53 8 38 8 38 23 50 22.981 50 10.996 41 10.996 41 19.985 47 19.985 47 13.993 44 13.993 43.962 16.989" transform="translate(0 97) translate(12 51) translate(10.5 1.5) translate(0 150) rotate(90 53 15.5)"/>
                                <path d="M47 13.993L47 16.989 44 16.989 44 10.996 50 10.996 50 19.985 41 19.985 41 8 53 8.019 53 22.981 38 22.981 38 8 23 8 23 23 35 22.981 35 10.996 26 10.996 26 19.985 32 19.985 32 13.993 29 13.993 28.962 16.989" transform="translate(0 97) translate(12 51) translate(10.5 1.5) translate(0 150) matrix(0 1 1 0 22.5 -22.5)"/>
                                <path d="M32 13.993L32 16.989 29 16.989 29 10.996 35 10.996 35 19.985 26 19.985 26 8 38 8.019 38 22.981 23 22.981 23 8 8 8 8 23 20 22.981 20 10.996 11 10.996 11 19.985 17 19.985 17 13.993 14 13.993 13.963 16.989" transform="translate(0 97) translate(12 51) translate(10.5 1.5) translate(0 150) rotate(90 23 15.5)"/>
                                <path d="M17 13.993L17 16.989 14 16.989 14 10.996 20 10.996 20 19.985 11 19.985 11 8 23 8.019 23 22.981 8 22.981 8 8 -7 8 -7 23 5 22.981 5 10.996 -4 10.996 -4 19.985 2 19.985 2 13.993 -1 13.993 -1.038 16.989" transform="translate(0 97) translate(12 51) translate(10.5 1.5) translate(0 150) matrix(0 1 1 0 -7.5 7.5)"/>
                            </g>
                            <g>
                                <path d="M211 13.993L211 16.989 208 16.989 208 10.996 214 10.996 214 19.985 205 19.985 205 8 217 8.019 217 22.981 202 22.981 202 8 187 8 187 23 199 22.981 199 10.996 190 10.996 190 19.985 196 19.985 196 13.993 193 13.993 192.963 16.989" transform="translate(0 97) translate(12 51) translate(10.5 1.5) translate(0 120) rotate(90 202 15.5)"/>
                                <path d="M196 13.993L196 16.989 193 16.989 193 10.996 199 10.996 199 19.985 190 19.985 190 8 202 8.019 202 22.981 187 22.981 187 8 172 8 172 23 184 22.981 184 10.996 175 10.996 175 19.985 181 19.985 181 13.993 178 13.993 177.963 16.989" transform="translate(0 97) translate(12 51) translate(10.5 1.5) translate(0 120) matrix(0 1 1 0 171.5 -171.5)"/>
                                <path d="M181 13.993L181 16.989 178 16.989 178 10.996 184 10.996 184 19.985 175 19.985 175 8 187 8.019 187 22.981 172 22.981 172 8 157 8 157 23 169 22.981 169 10.996 160 10.996 160 19.985 166 19.985 166 13.993 163 13.993 162.963 16.989" transform="translate(0 97) translate(12 51) translate(10.5 1.5) translate(0 120) rotate(90 172 15.5)"/>
                                <path d="M166 13.993L166 16.989 163 16.989 163 10.996 169 10.996 169 19.985 160 19.985 160 8 172 8.019 172 22.981 157 22.981 157 8 142 8 142 23 154 22.981 154 10.996 145 10.996 145 19.985 151 19.985 151 13.993 148 13.993 147.963 16.989" transform="translate(0 97) translate(12 51) translate(10.5 1.5) translate(0 120) matrix(0 1 1 0 141.5 -141.5)"/>
                                <path d="M151 13.993L151 16.989 148 16.989 148 10.996 154 10.996 154 19.985 145 19.985 145 8 157 8.019 157 22.981 142 22.981 142 8 127 8 127 23 139 22.981 139 10.996 130 10.996 130 19.985 136 19.985 136 13.993 133 13.993 132.963 16.989" transform="translate(0 97) translate(12 51) translate(10.5 1.5) translate(0 120) rotate(90 142 15.5)"/>
                                <path d="M136 13.993L136 16.989 133 16.989 133 10.996 139 10.996 139 19.985 130 19.985 130 8 142 8.019 142 22.981 127 22.981 127 8 112 8 112 23 124 22.981 124 10.996 115 10.996 115 19.985 121 19.985 121 13.993 118 13.993 117.963 16.989" transform="translate(0 97) translate(12 51) translate(10.5 1.5) translate(0 120) matrix(0 1 1 0 111.5 -111.5)"/>
                                <path d="M121.5 14.493L121.5 16.489 118.5 16.489 118.5 11.496 124.5 11.496 124.5 19.485 115.5 19.485 115.5 8.5 127.5 8.519 127.5 22.481 112.5 22.481 112.5 8.5 97.5 8.5 97.5 22.5 109.5 22.481 109.5 11.496 100.5 11.496 100.5 19.485 106.5 19.485 106.5 14.493 103.5 14.493 103.463 16.489" transform="translate(0 97) translate(12 51) translate(10.5 1.5) translate(0 120) rotate(90 112.5 15.5)"/>
                                <path d="M107.5 14.493L107.5 16.489 104.5 16.489 104.5 11.496 110.5 11.496 110.5 19.485 101.5 19.485 101.5 8.5 113.5 8.519 113.5 22.481 98.5 22.481 98.5 8.5 83.5 8.5 83.5 22.5 95.5 22.481 95.5 11.496 86.5 11.496 86.5 19.485 92.5 19.485 92.5 14.493 89.5 14.493 89.463 16.489" transform="translate(0 97) translate(12 51) translate(10.5 1.5) translate(0 120) matrix(0 1 1 0 83 -83)"/>
                                <path d="M92 13.993L92 16.989 89 16.989 89 10.996 95 10.996 95 19.985 86 19.985 86 8 98 8.019 98 22.981 83 22.981 83 8 68 8 68 23 80 22.981 80 10.996 71 10.996 71 19.985 77 19.985 77 13.993 74 13.993 73.963 16.989" transform="translate(0 97) translate(12 51) translate(10.5 1.5) translate(0 120) rotate(90 83 15.5)"/>
                                <path d="M77 13.993L77 16.989 74 16.989 74 10.996 80 10.996 80 19.985 71 19.985 71 8 83 8.019 83 22.981 68 22.981 68 8 53 8 53 23 65 22.981 65 10.996 56 10.996 56 19.985 62 19.985 62 13.993 59 13.993 58.962 16.989" transform="translate(0 97) translate(12 51) translate(10.5 1.5) translate(0 120) matrix(0 1 1 0 52.5 -52.5)"/>
                                <path d="M62 13.993L62 16.989 59 16.989 59 10.996 65 10.996 65 19.985 56 19.985 56 8 68 8.019 68 22.981 53 22.981 53 8 38 8 38 23 50 22.981 50 10.996 41 10.996 41 19.985 47 19.985 47 13.993 44 13.993 43.962 16.989" transform="translate(0 97) translate(12 51) translate(10.5 1.5) translate(0 120) rotate(90 53 15.5)"/>
                                <path d="M47 13.993L47 16.989 44 16.989 44 10.996 50 10.996 50 19.985 41 19.985 41 8 53 8.019 53 22.981 38 22.981 38 8 23 8 23 23 35 22.981 35 10.996 26 10.996 26 19.985 32 19.985 32 13.993 29 13.993 28.962 16.989" transform="translate(0 97) translate(12 51) translate(10.5 1.5) translate(0 120) matrix(0 1 1 0 22.5 -22.5)"/>
                                <path d="M32 13.993L32 16.989 29 16.989 29 10.996 35 10.996 35 19.985 26 19.985 26 8 38 8.019 38 22.981 23 22.981 23 8 8 8 8 23 20 22.981 20 10.996 11 10.996 11 19.985 17 19.985 17 13.993 14 13.993 13.963 16.989" transform="translate(0 97) translate(12 51) translate(10.5 1.5) translate(0 120) rotate(90 23 15.5)"/>
                                <path d="M17 13.993L17 16.989 14 16.989 14 10.996 20 10.996 20 19.985 11 19.985 11 8 23 8.019 23 22.981 8 22.981 8 8 -7 8 -7 23 5 22.981 5 10.996 -4 10.996 -4 19.985 2 19.985 2 13.993 -1 13.993 -1.038 16.989" transform="translate(0 97) translate(12 51) translate(10.5 1.5) translate(0 120) matrix(0 1 1 0 -7.5 7.5)"/>
                            </g>
                            <g>
                                <path d="M211 13.993L211 16.989 208 16.989 208 10.996 214 10.996 214 19.985 205 19.985 205 8 217 8.019 217 22.981 202 22.981 202 8 187 8 187 23 199 22.981 199 10.996 190 10.996 190 19.985 196 19.985 196 13.993 193 13.993 192.963 16.989" transform="translate(0 97) translate(12 51) translate(10.5 1.5) translate(0 90) rotate(90 202 15.5)"/>
                                <path d="M196 13.993L196 16.989 193 16.989 193 10.996 199 10.996 199 19.985 190 19.985 190 8 202 8.019 202 22.981 187 22.981 187 8 172 8 172 23 184 22.981 184 10.996 175 10.996 175 19.985 181 19.985 181 13.993 178 13.993 177.963 16.989" transform="translate(0 97) translate(12 51) translate(10.5 1.5) translate(0 90) matrix(0 1 1 0 171.5 -171.5)"/>
                                <path d="M181 13.993L181 16.989 178 16.989 178 10.996 184 10.996 184 19.985 175 19.985 175 8 187 8.019 187 22.981 172 22.981 172 8 157 8 157 23 169 22.981 169 10.996 160 10.996 160 19.985 166 19.985 166 13.993 163 13.993 162.963 16.989" transform="translate(0 97) translate(12 51) translate(10.5 1.5) translate(0 90) rotate(90 172 15.5)"/>
                                <path d="M166 13.993L166 16.989 163 16.989 163 10.996 169 10.996 169 19.985 160 19.985 160 8 172 8.019 172 22.981 157 22.981 157 8 142 8 142 23 154 22.981 154 10.996 145 10.996 145 19.985 151 19.985 151 13.993 148 13.993 147.963 16.989" transform="translate(0 97) translate(12 51) translate(10.5 1.5) translate(0 90) matrix(0 1 1 0 141.5 -141.5)"/>
                                <path d="M151 13.993L151 16.989 148 16.989 148 10.996 154 10.996 154 19.985 145 19.985 145 8 157 8.019 157 22.981 142 22.981 142 8 127 8 127 23 139 22.981 139 10.996 130 10.996 130 19.985 136 19.985 136 13.993 133 13.993 132.963 16.989" transform="translate(0 97) translate(12 51) translate(10.5 1.5) translate(0 90) rotate(90 142 15.5)"/>
                                <path d="M136 13.993L136 16.989 133 16.989 133 10.996 139 10.996 139 19.985 130 19.985 130 8 142 8.019 142 22.981 127 22.981 127 8 112 8 112 23 124 22.981 124 10.996 115 10.996 115 19.985 121 19.985 121 13.993 118 13.993 117.963 16.989" transform="translate(0 97) translate(12 51) translate(10.5 1.5) translate(0 90) matrix(0 1 1 0 111.5 -111.5)"/>
                                <path d="M121.5 14.493L121.5 16.489 118.5 16.489 118.5 11.496 124.5 11.496 124.5 19.485 115.5 19.485 115.5 8.5 127.5 8.519 127.5 22.481 112.5 22.481 112.5 8.5 97.5 8.5 97.5 22.5 109.5 22.481 109.5 11.496 100.5 11.496 100.5 19.485 106.5 19.485 106.5 14.493 103.5 14.493 103.463 16.489" transform="translate(0 97) translate(12 51) translate(10.5 1.5) translate(0 90) rotate(90 112.5 15.5)"/>
                                <path d="M107.5 14.493L107.5 16.489 104.5 16.489 104.5 11.496 110.5 11.496 110.5 19.485 101.5 19.485 101.5 8.5 113.5 8.519 113.5 22.481 98.5 22.481 98.5 8.5 83.5 8.5 83.5 22.5 95.5 22.481 95.5 11.496 86.5 11.496 86.5 19.485 92.5 19.485 92.5 14.493 89.5 14.493 89.463 16.489" transform="translate(0 97) translate(12 51) translate(10.5 1.5) translate(0 90) matrix(0 1 1 0 83 -83)"/>
                                <path d="M92 13.993L92 16.989 89 16.989 89 10.996 95 10.996 95 19.985 86 19.985 86 8 98 8.019 98 22.981 83 22.981 83 8 68 8 68 23 80 22.981 80 10.996 71 10.996 71 19.985 77 19.985 77 13.993 74 13.993 73.963 16.989" transform="translate(0 97) translate(12 51) translate(10.5 1.5) translate(0 90) rotate(90 83 15.5)"/>
                                <path d="M77 13.993L77 16.989 74 16.989 74 10.996 80 10.996 80 19.985 71 19.985 71 8 83 8.019 83 22.981 68 22.981 68 8 53 8 53 23 65 22.981 65 10.996 56 10.996 56 19.985 62 19.985 62 13.993 59 13.993 58.962 16.989" transform="translate(0 97) translate(12 51) translate(10.5 1.5) translate(0 90) matrix(0 1 1 0 52.5 -52.5)"/>
                                <path d="M62 13.993L62 16.989 59 16.989 59 10.996 65 10.996 65 19.985 56 19.985 56 8 68 8.019 68 22.981 53 22.981 53 8 38 8 38 23 50 22.981 50 10.996 41 10.996 41 19.985 47 19.985 47 13.993 44 13.993 43.962 16.989" transform="translate(0 97) translate(12 51) translate(10.5 1.5) translate(0 90) rotate(90 53 15.5)"/>
                                <path d="M47 13.993L47 16.989 44 16.989 44 10.996 50 10.996 50 19.985 41 19.985 41 8 53 8.019 53 22.981 38 22.981 38 8 23 8 23 23 35 22.981 35 10.996 26 10.996 26 19.985 32 19.985 32 13.993 29 13.993 28.962 16.989" transform="translate(0 97) translate(12 51) translate(10.5 1.5) translate(0 90) matrix(0 1 1 0 22.5 -22.5)"/>
                                <path d="M32 13.993L32 16.989 29 16.989 29 10.996 35 10.996 35 19.985 26 19.985 26 8 38 8.019 38 22.981 23 22.981 23 8 8 8 8 23 20 22.981 20 10.996 11 10.996 11 19.985 17 19.985 17 13.993 14 13.993 13.963 16.989" transform="translate(0 97) translate(12 51) translate(10.5 1.5) translate(0 90) rotate(90 23 15.5)"/>
                                <path d="M17 13.993L17 16.989 14 16.989 14 10.996 20 10.996 20 19.985 11 19.985 11 8 23 8.019 23 22.981 8 22.981 8 8 -7 8 -7 23 5 22.981 5 10.996 -4 10.996 -4 19.985 2 19.985 2 13.993 -1 13.993 -1.038 16.989" transform="translate(0 97) translate(12 51) translate(10.5 1.5) translate(0 90) matrix(0 1 1 0 -7.5 7.5)"/>
                            </g>
                            <g>
                                <path d="M211 13.993L211 16.989 208 16.989 208 10.996 214 10.996 214 19.985 205 19.985 205 8 217 8.019 217 22.981 202 22.981 202 8 187 8 187 23 199 22.981 199 10.996 190 10.996 190 19.985 196 19.985 196 13.993 193 13.993 192.963 16.989" transform="translate(0 97) translate(12 51) translate(10.5 1.5) translate(0 60) rotate(90 202 15.5)"/>
                                <path d="M196 13.993L196 16.989 193 16.989 193 10.996 199 10.996 199 19.985 190 19.985 190 8 202 8.019 202 22.981 187 22.981 187 8 172 8 172 23 184 22.981 184 10.996 175 10.996 175 19.985 181 19.985 181 13.993 178 13.993 177.963 16.989" transform="translate(0 97) translate(12 51) translate(10.5 1.5) translate(0 60) matrix(0 1 1 0 171.5 -171.5)"/>
                                <path d="M181 13.993L181 16.989 178 16.989 178 10.996 184 10.996 184 19.985 175 19.985 175 8 187 8.019 187 22.981 172 22.981 172 8 157 8 157 23 169 22.981 169 10.996 160 10.996 160 19.985 166 19.985 166 13.993 163 13.993 162.963 16.989" transform="translate(0 97) translate(12 51) translate(10.5 1.5) translate(0 60) rotate(90 172 15.5)"/>
                                <path d="M166 13.993L166 16.989 163 16.989 163 10.996 169 10.996 169 19.985 160 19.985 160 8 172 8.019 172 22.981 157 22.981 157 8 142 8 142 23 154 22.981 154 10.996 145 10.996 145 19.985 151 19.985 151 13.993 148 13.993 147.963 16.989" transform="translate(0 97) translate(12 51) translate(10.5 1.5) translate(0 60) matrix(0 1 1 0 141.5 -141.5)"/>
                                <path d="M151 13.993L151 16.989 148 16.989 148 10.996 154 10.996 154 19.985 145 19.985 145 8 157 8.019 157 22.981 142 22.981 142 8 127 8 127 23 139 22.981 139 10.996 130 10.996 130 19.985 136 19.985 136 13.993 133 13.993 132.963 16.989" transform="translate(0 97) translate(12 51) translate(10.5 1.5) translate(0 60) rotate(90 142 15.5)"/>
                                <path d="M136 13.993L136 16.989 133 16.989 133 10.996 139 10.996 139 19.985 130 19.985 130 8 142 8.019 142 22.981 127 22.981 127 8 112 8 112 23 124 22.981 124 10.996 115 10.996 115 19.985 121 19.985 121 13.993 118 13.993 117.963 16.989" transform="translate(0 97) translate(12 51) translate(10.5 1.5) translate(0 60) matrix(0 1 1 0 111.5 -111.5)"/>
                                <path d="M121.5 14.493L121.5 16.489 118.5 16.489 118.5 11.496 124.5 11.496 124.5 19.485 115.5 19.485 115.5 8.5 127.5 8.519 127.5 22.481 112.5 22.481 112.5 8.5 97.5 8.5 97.5 22.5 109.5 22.481 109.5 11.496 100.5 11.496 100.5 19.485 106.5 19.485 106.5 14.493 103.5 14.493 103.463 16.489" transform="translate(0 97) translate(12 51) translate(10.5 1.5) translate(0 60) rotate(90 112.5 15.5)"/>
                                <path d="M107.5 14.493L107.5 16.489 104.5 16.489 104.5 11.496 110.5 11.496 110.5 19.485 101.5 19.485 101.5 8.5 113.5 8.519 113.5 22.481 98.5 22.481 98.5 8.5 83.5 8.5 83.5 22.5 95.5 22.481 95.5 11.496 86.5 11.496 86.5 19.485 92.5 19.485 92.5 14.493 89.5 14.493 89.463 16.489" transform="translate(0 97) translate(12 51) translate(10.5 1.5) translate(0 60) matrix(0 1 1 0 83 -83)"/>
                                <path d="M92 13.993L92 16.989 89 16.989 89 10.996 95 10.996 95 19.985 86 19.985 86 8 98 8.019 98 22.981 83 22.981 83 8 68 8 68 23 80 22.981 80 10.996 71 10.996 71 19.985 77 19.985 77 13.993 74 13.993 73.963 16.989" transform="translate(0 97) translate(12 51) translate(10.5 1.5) translate(0 60) rotate(90 83 15.5)"/>
                                <path d="M77 13.993L77 16.989 74 16.989 74 10.996 80 10.996 80 19.985 71 19.985 71 8 83 8.019 83 22.981 68 22.981 68 8 53 8 53 23 65 22.981 65 10.996 56 10.996 56 19.985 62 19.985 62 13.993 59 13.993 58.962 16.989" transform="translate(0 97) translate(12 51) translate(10.5 1.5) translate(0 60) matrix(0 1 1 0 52.5 -52.5)"/>
                                <path d="M62 13.993L62 16.989 59 16.989 59 10.996 65 10.996 65 19.985 56 19.985 56 8 68 8.019 68 22.981 53 22.981 53 8 38 8 38 23 50 22.981 50 10.996 41 10.996 41 19.985 47 19.985 47 13.993 44 13.993 43.962 16.989" transform="translate(0 97) translate(12 51) translate(10.5 1.5) translate(0 60) rotate(90 53 15.5)"/>
                                <path d="M47 13.993L47 16.989 44 16.989 44 10.996 50 10.996 50 19.985 41 19.985 41 8 53 8.019 53 22.981 38 22.981 38 8 23 8 23 23 35 22.981 35 10.996 26 10.996 26 19.985 32 19.985 32 13.993 29 13.993 28.962 16.989" transform="translate(0 97) translate(12 51) translate(10.5 1.5) translate(0 60) matrix(0 1 1 0 22.5 -22.5)"/>
                                <path d="M32 13.993L32 16.989 29 16.989 29 10.996 35 10.996 35 19.985 26 19.985 26 8 38 8.019 38 22.981 23 22.981 23 8 8 8 8 23 20 22.981 20 10.996 11 10.996 11 19.985 17 19.985 17 13.993 14 13.993 13.963 16.989" transform="translate(0 97) translate(12 51) translate(10.5 1.5) translate(0 60) rotate(90 23 15.5)"/>
                                <path d="M17 13.993L17 16.989 14 16.989 14 10.996 20 10.996 20 19.985 11 19.985 11 8 23 8.019 23 22.981 8 22.981 8 8 -7 8 -7 23 5 22.981 5 10.996 -4 10.996 -4 19.985 2 19.985 2 13.993 -1 13.993 -1.038 16.989" transform="translate(0 97) translate(12 51) translate(10.5 1.5) translate(0 60) matrix(0 1 1 0 -7.5 7.5)"/>
                            </g>
                            <g>
                                <path d="M211 13.993L211 16.989 208 16.989 208 10.996 214 10.996 214 19.985 205 19.985 205 8 217 8.019 217 22.981 202 22.981 202 8 187 8 187 23 199 22.981 199 10.996 190 10.996 190 19.985 196 19.985 196 13.993 193 13.993 192.963 16.989" transform="translate(0 97) translate(12 51) translate(10.5 1.5) translate(0 30) rotate(90 202 15.5)"/>
                                <path d="M196 13.993L196 16.989 193 16.989 193 10.996 199 10.996 199 19.985 190 19.985 190 8 202 8.019 202 22.981 187 22.981 187 8 172 8 172 23 184 22.981 184 10.996 175 10.996 175 19.985 181 19.985 181 13.993 178 13.993 177.963 16.989" transform="translate(0 97) translate(12 51) translate(10.5 1.5) translate(0 30) matrix(0 1 1 0 171.5 -171.5)"/>
                                <path d="M181 13.993L181 16.989 178 16.989 178 10.996 184 10.996 184 19.985 175 19.985 175 8 187 8.019 187 22.981 172 22.981 172 8 157 8 157 23 169 22.981 169 10.996 160 10.996 160 19.985 166 19.985 166 13.993 163 13.993 162.963 16.989" transform="translate(0 97) translate(12 51) translate(10.5 1.5) translate(0 30) rotate(90 172 15.5)"/>
                                <path d="M166 13.993L166 16.989 163 16.989 163 10.996 169 10.996 169 19.985 160 19.985 160 8 172 8.019 172 22.981 157 22.981 157 8 142 8 142 23 154 22.981 154 10.996 145 10.996 145 19.985 151 19.985 151 13.993 148 13.993 147.963 16.989" transform="translate(0 97) translate(12 51) translate(10.5 1.5) translate(0 30) matrix(0 1 1 0 141.5 -141.5)"/>
                                <path d="M151 13.993L151 16.989 148 16.989 148 10.996 154 10.996 154 19.985 145 19.985 145 8 157 8.019 157 22.981 142 22.981 142 8 127 8 127 23 139 22.981 139 10.996 130 10.996 130 19.985 136 19.985 136 13.993 133 13.993 132.963 16.989" transform="translate(0 97) translate(12 51) translate(10.5 1.5) translate(0 30) rotate(90 142 15.5)"/>
                                <path d="M136 13.993L136 16.989 133 16.989 133 10.996 139 10.996 139 19.985 130 19.985 130 8 142 8.019 142 22.981 127 22.981 127 8 112 8 112 23 124 22.981 124 10.996 115 10.996 115 19.985 121 19.985 121 13.993 118 13.993 117.963 16.989" transform="translate(0 97) translate(12 51) translate(10.5 1.5) translate(0 30) matrix(0 1 1 0 111.5 -111.5)"/>
                                <path d="M121.5 14.493L121.5 16.489 118.5 16.489 118.5 11.496 124.5 11.496 124.5 19.485 115.5 19.485 115.5 8.5 127.5 8.519 127.5 22.481 112.5 22.481 112.5 8.5 97.5 8.5 97.5 22.5 109.5 22.481 109.5 11.496 100.5 11.496 100.5 19.485 106.5 19.485 106.5 14.493 103.5 14.493 103.463 16.489" transform="translate(0 97) translate(12 51) translate(10.5 1.5) translate(0 30) rotate(90 112.5 15.5)"/>
                                <path d="M107.5 14.493L107.5 16.489 104.5 16.489 104.5 11.496 110.5 11.496 110.5 19.485 101.5 19.485 101.5 8.5 113.5 8.519 113.5 22.481 98.5 22.481 98.5 8.5 83.5 8.5 83.5 22.5 95.5 22.481 95.5 11.496 86.5 11.496 86.5 19.485 92.5 19.485 92.5 14.493 89.5 14.493 89.463 16.489" transform="translate(0 97) translate(12 51) translate(10.5 1.5) translate(0 30) matrix(0 1 1 0 83 -83)"/>
                                <path d="M92 13.993L92 16.989 89 16.989 89 10.996 95 10.996 95 19.985 86 19.985 86 8 98 8.019 98 22.981 83 22.981 83 8 68 8 68 23 80 22.981 80 10.996 71 10.996 71 19.985 77 19.985 77 13.993 74 13.993 73.963 16.989" transform="translate(0 97) translate(12 51) translate(10.5 1.5) translate(0 30) rotate(90 83 15.5)"/>
                                <path d="M77 13.993L77 16.989 74 16.989 74 10.996 80 10.996 80 19.985 71 19.985 71 8 83 8.019 83 22.981 68 22.981 68 8 53 8 53 23 65 22.981 65 10.996 56 10.996 56 19.985 62 19.985 62 13.993 59 13.993 58.962 16.989" transform="translate(0 97) translate(12 51) translate(10.5 1.5) translate(0 30) matrix(0 1 1 0 52.5 -52.5)"/>
                                <path d="M62 13.993L62 16.989 59 16.989 59 10.996 65 10.996 65 19.985 56 19.985 56 8 68 8.019 68 22.981 53 22.981 53 8 38 8 38 23 50 22.981 50 10.996 41 10.996 41 19.985 47 19.985 47 13.993 44 13.993 43.962 16.989" transform="translate(0 97) translate(12 51) translate(10.5 1.5) translate(0 30) rotate(90 53 15.5)"/>
                                <path d="M47 13.993L47 16.989 44 16.989 44 10.996 50 10.996 50 19.985 41 19.985 41 8 53 8.019 53 22.981 38 22.981 38 8 23 8 23 23 35 22.981 35 10.996 26 10.996 26 19.985 32 19.985 32 13.993 29 13.993 28.962 16.989" transform="translate(0 97) translate(12 51) translate(10.5 1.5) translate(0 30) matrix(0 1 1 0 22.5 -22.5)"/>
                                <path d="M32 13.993L32 16.989 29 16.989 29 10.996 35 10.996 35 19.985 26 19.985 26 8 38 8.019 38 22.981 23 22.981 23 8 8 8 8 23 20 22.981 20 10.996 11 10.996 11 19.985 17 19.985 17 13.993 14 13.993 13.963 16.989" transform="translate(0 97) translate(12 51) translate(10.5 1.5) translate(0 30) rotate(90 23 15.5)"/>
                                <path d="M17 13.993L17 16.989 14 16.989 14 10.996 20 10.996 20 19.985 11 19.985 11 8 23 8.019 23 22.981 8 22.981 8 8 -7 8 -7 23 5 22.981 5 10.996 -4 10.996 -4 19.985 2 19.985 2 13.993 -1 13.993 -1.038 16.989" transform="translate(0 97) translate(12 51) translate(10.5 1.5) translate(0 30) matrix(0 1 1 0 -7.5 7.5)"/>
                            </g>
                            <g>
                                <path d="M211 13.993L211 16.989 208 16.989 208 10.996 214 10.996 214 19.985 205 19.985 205 8 217 8.019 217 22.981 202 22.981 202 8 187 8 187 23 199 22.981 199 10.996 190 10.996 190 19.985 196 19.985 196 13.993 193 13.993 192.963 16.989" transform="translate(0 97) translate(12 51) translate(10.5 1.5) rotate(90 202 15.5)"/>
                                <path d="M196 13.993L196 16.989 193 16.989 193 10.996 199 10.996 199 19.985 190 19.985 190 8 202 8.019 202 22.981 187 22.981 187 8 172 8 172 23 184 22.981 184 10.996 175 10.996 175 19.985 181 19.985 181 13.993 178 13.993 177.963 16.989" transform="translate(0 97) translate(12 51) translate(10.5 1.5) matrix(0 1 1 0 171.5 -171.5)"/>
                                <path d="M181 13.993L181 16.989 178 16.989 178 10.996 184 10.996 184 19.985 175 19.985 175 8 187 8.019 187 22.981 172 22.981 172 8 157 8 157 23 169 22.981 169 10.996 160 10.996 160 19.985 166 19.985 166 13.993 163 13.993 162.963 16.989" transform="translate(0 97) translate(12 51) translate(10.5 1.5) rotate(90 172 15.5)"/>
                                <path d="M166 13.993L166 16.989 163 16.989 163 10.996 169 10.996 169 19.985 160 19.985 160 8 172 8.019 172 22.981 157 22.981 157 8 142 8 142 23 154 22.981 154 10.996 145 10.996 145 19.985 151 19.985 151 13.993 148 13.993 147.963 16.989" transform="translate(0 97) translate(12 51) translate(10.5 1.5) matrix(0 1 1 0 141.5 -141.5)"/>
                                <path d="M151 13.993L151 16.989 148 16.989 148 10.996 154 10.996 154 19.985 145 19.985 145 8 157 8.019 157 22.981 142 22.981 142 8 127 8 127 23 139 22.981 139 10.996 130 10.996 130 19.985 136 19.985 136 13.993 133 13.993 132.963 16.989" transform="translate(0 97) translate(12 51) translate(10.5 1.5) rotate(90 142 15.5)"/>
                                <path d="M136 13.993L136 16.989 133 16.989 133 10.996 139 10.996 139 19.985 130 19.985 130 8 142 8.019 142 22.981 127 22.981 127 8 112 8 112 23 124 22.981 124 10.996 115 10.996 115 19.985 121 19.985 121 13.993 118 13.993 117.963 16.989" transform="translate(0 97) translate(12 51) translate(10.5 1.5) matrix(0 1 1 0 111.5 -111.5)"/>
                                <path d="M121.5 14.493L121.5 16.489 118.5 16.489 118.5 11.496 124.5 11.496 124.5 19.485 115.5 19.485 115.5 8.5 127.5 8.519 127.5 22.481 112.5 22.481 112.5 8.5 97.5 8.5 97.5 22.5 109.5 22.481 109.5 11.496 100.5 11.496 100.5 19.485 106.5 19.485 106.5 14.493 103.5 14.493 103.463 16.489" transform="translate(0 97) translate(12 51) translate(10.5 1.5) rotate(90 112.5 15.5)"/>
                                <path d="M107.5 14.493L107.5 16.489 104.5 16.489 104.5 11.496 110.5 11.496 110.5 19.485 101.5 19.485 101.5 8.5 113.5 8.519 113.5 22.481 98.5 22.481 98.5 8.5 83.5 8.5 83.5 22.5 95.5 22.481 95.5 11.496 86.5 11.496 86.5 19.485 92.5 19.485 92.5 14.493 89.5 14.493 89.463 16.489" transform="translate(0 97) translate(12 51) translate(10.5 1.5) matrix(0 1 1 0 83 -83)"/>
                                <path d="M92 13.993L92 16.989 89 16.989 89 10.996 95 10.996 95 19.985 86 19.985 86 8 98 8.019 98 22.981 83 22.981 83 8 68 8 68 23 80 22.981 80 10.996 71 10.996 71 19.985 77 19.985 77 13.993 74 13.993 73.963 16.989" transform="translate(0 97) translate(12 51) translate(10.5 1.5) rotate(90 83 15.5)"/>
                                <path d="M77 13.993L77 16.989 74 16.989 74 10.996 80 10.996 80 19.985 71 19.985 71 8 83 8.019 83 22.981 68 22.981 68 8 53 8 53 23 65 22.981 65 10.996 56 10.996 56 19.985 62 19.985 62 13.993 59 13.993 58.962 16.989" transform="translate(0 97) translate(12 51) translate(10.5 1.5) matrix(0 1 1 0 52.5 -52.5)"/>
                                <path d="M62 13.993L62 16.989 59 16.989 59 10.996 65 10.996 65 19.985 56 19.985 56 8 68 8.019 68 22.981 53 22.981 53 8 38 8 38 23 50 22.981 50 10.996 41 10.996 41 19.985 47 19.985 47 13.993 44 13.993 43.962 16.989" transform="translate(0 97) translate(12 51) translate(10.5 1.5) rotate(90 53 15.5)"/>
                                <path d="M47 13.993L47 16.989 44 16.989 44 10.996 50 10.996 50 19.985 41 19.985 41 8 53 8.019 53 22.981 38 22.981 38 8 23 8 23 23 35 22.981 35 10.996 26 10.996 26 19.985 32 19.985 32 13.993 29 13.993 28.962 16.989" transform="translate(0 97) translate(12 51) translate(10.5 1.5) matrix(0 1 1 0 22.5 -22.5)"/>
                                <path d="M32 13.993L32 16.989 29 16.989 29 10.996 35 10.996 35 19.985 26 19.985 26 8 38 8.019 38 22.981 23 22.981 23 8 8 8 8 23 20 22.981 20 10.996 11 10.996 11 19.985 17 19.985 17 13.993 14 13.993 13.963 16.989" transform="translate(0 97) translate(12 51) translate(10.5 1.5) rotate(90 23 15.5)"/>
                                <path d="M17 13.993L17 16.989 14 16.989 14 10.996 20 10.996 20 19.985 11 19.985 11 8 23 8.019 23 22.981 8 22.981 8 8 -7 8 -7 23 5 22.981 5 10.996 -4 10.996 -4 19.985 2 19.985 2 13.993 -1 13.993 -1.038 16.989" transform="translate(0 97) translate(12 51) translate(10.5 1.5) matrix(0 1 1 0 -7.5 7.5)"/>
                            </g>
                        </g>
                    </g>
                </g>
            </g>
        </g>
    </g>
</svg>
