<svg xmlns="http://www.w3.org/2000/svg" width="233" height="435" viewBox="0 0 233 435">
    <g fill="none" fill-rule="evenodd" stroke-linejoin="round">
        <g stroke-width="2">
            <g>
                <g>
                    <path fill="#A80015" stroke="#000" d="M0 433L231 433 231 424 0 424zM5 424L226 424 226 0 5 0z" transform="translate(-71 -263) translate(60 110) translate(12 154)"/>
                    <path fill="#FFE715" stroke="#000" d="M9 424L222 424 222 0 9 0z" transform="translate(-71 -263) translate(60 110) translate(12 154)"/>
                    <path fill="#FEF2D8" stroke="#000" d="M28 390L203 390 203 0 28 0z" transform="translate(-71 -263) translate(60 110) translate(12 154)"/>
                    <g stroke="#FFBE00" stroke-linecap="round">
                        <g>
                            <path d="M17 13.993L17 16.989 14 16.989 14 10.996 20 10.996 20 19.985 11 19.985 11 8 23 8.019 23 22.981 8 22.981 8 8 -7 8 -7 23 5 22.981 5 10.996 -4 10.996 -4 19.985 2 19.985 2 13.993 -1 13.993 -1.038 16.989" transform="translate(-71 -263) translate(60 110) translate(12 154) translate(10.5 1.5) rotate(90 8 15.5)"/>
                            <path d="M17 43.993L17 46.989 14 46.989 14 40.996 20 40.996 20 49.985 11 49.985 11 38 23 38.019 23 52.981 8 52.981 8 38 -7 38 -7 53 5 52.981 5 40.996 -4 40.996 -4 49.985 2 49.985 2 43.993 -1 43.993 -1.038 46.989" transform="translate(-71 -263) translate(60 110) translate(12 154) translate(10.5 1.5) rotate(90 8 45.5)"/>
                            <path d="M17 73.993L17 76.989 14 76.989 14 70.996 20 70.996 20 79.985 11 79.985 11 68 23 68.019 23 82.981 8 82.981 8 68 -7 68 -7 83 5 82.981 5 70.996 -4 70.996 -4 79.985 2 79.985 2 73.993 -1 73.993 -1.038 76.989" transform="translate(-71 -263) translate(60 110) translate(12 154) translate(10.5 1.5) rotate(90 8 75.5)"/>
                            <path d="M17 103.993L17 106.989 14 106.989 14 100.996 20 100.996 20 109.985 11 109.985 11 98 23 98.019 23 112.981 8 112.981 8 98 -7 98 -7 113 5 112.981 5 100.996 -4 100.996 -4 109.985 2 109.985 2 103.993 -1 103.993 -1.038 106.989" transform="translate(-71 -263) translate(60 110) translate(12 154) translate(10.5 1.5) rotate(90 8 105.5)"/>
                            <path d="M17 133.993L17 136.989 14 136.989 14 130.996 20 130.996 20 139.985 11 139.985 11 128 23 128.019 23 142.981 8 142.981 8 128 -7 128 -7 143 5 142.981 5 130.996 -4 130.996 -4 139.985 2 139.985 2 133.993 -1 133.993 -1.038 136.989" transform="translate(-71 -263) translate(60 110) translate(12 154) translate(10.5 1.5) rotate(90 8 135.5)"/>
                            <path d="M17 163.993L17 166.989 14 166.989 14 160.996 20 160.996 20 169.985 11 169.985 11 158 23 158.019 23 172.981 8 172.981 8 158 -7 158 -7 173 5 172.981 5 160.996 -4 160.996 -4 169.985 2 169.985 2 163.993 -1 163.993 -1.038 166.989" transform="translate(-71 -263) translate(60 110) translate(12 154) translate(10.5 1.5) rotate(90 8 165.5)"/>
                            <path d="M17 193.993L17 196.989 14 196.989 14 190.996 20 190.996 20 199.985 11 199.985 11 188 23 188.019 23 202.981 8 202.981 8 188 -7 188 -7 203 5 202.981 5 190.996 -4 190.996 -4 199.985 2 199.985 2 193.993 -1 193.993 -1.038 196.989" transform="translate(-71 -263) translate(60 110) translate(12 154) translate(10.5 1.5) rotate(90 8 195.5)"/>
                            <path d="M17 223.993L17 226.989 14 226.989 14 220.996 20 220.996 20 229.985 11 229.985 11 218 23 218.019 23 232.981 8 232.981 8 218 -7 218 -7 233 5 232.981 5 220.996 -4 220.996 -4 229.985 2 229.985 2 223.993 -1 223.993 -1.038 226.989" transform="translate(-71 -263) translate(60 110) translate(12 154) translate(10.5 1.5) rotate(90 8 225.5)"/>
                            <path d="M17 253.993L17 256.989 14 256.989 14 250.996 20 250.996 20 259.985 11 259.985 11 248 23 248.019 23 262.981 8 262.981 8 248 -7 248 -7 263 5 262.981 5 250.996 -4 250.996 -4 259.985 2 259.985 2 253.993 -1 253.993 -1.038 256.989" transform="translate(-71 -263) translate(60 110) translate(12 154) translate(10.5 1.5) rotate(90 8 255.5)"/>
                            <path d="M17 283.993L17 286.989 14 286.989 14 280.996 20 280.996 20 289.985 11 289.985 11 278 23 278.019 23 292.981 8 292.981 8 278 -7 278 -7 293 5 292.981 5 280.996 -4 280.996 -4 289.985 2 289.985 2 283.993 -1 283.993 -1.038 286.989" transform="translate(-71 -263) translate(60 110) translate(12 154) translate(10.5 1.5) rotate(90 8 285.5)"/>
                            <path d="M17 313.993L17 316.989 14 316.989 14 310.996 20 310.996 20 319.985 11 319.985 11 308 23 308.019 23 322.981 8 322.981 8 308 -7 308 -7 323 5 322.981 5 310.996 -4 310.996 -4 319.985 2 319.985 2 313.993 -1 313.993 -1.038 316.989" transform="translate(-71 -263) translate(60 110) translate(12 154) translate(10.5 1.5) rotate(90 8 315.5)"/>
                            <path d="M17 343.993L17 346.989 14 346.989 14 340.996 20 340.996 20 349.985 11 349.985 11 338 23 338.019 23 352.981 8 352.981 8 338 -7 338 -7 353 5 352.981 5 340.996 -4 340.996 -4 349.985 2 349.985 2 343.993 -1 343.993 -1.038 346.989" transform="translate(-71 -263) translate(60 110) translate(12 154) translate(10.5 1.5) rotate(90 8 345.5)"/>
                            <path d="M17 373.993L17 376.989 14 376.989 14 370.996 20 370.996 20 379.985 11 379.985 11 368 23 368.019 23 382.981 8 382.981 8 368 -7 368 -7 383 5 382.981 5 370.996 -4 370.996 -4 379.985 2 379.985 2 373.993 -1 373.993 -1.038 376.989" transform="translate(-71 -263) translate(60 110) translate(12 154) translate(10.5 1.5) rotate(90 8 375.5)"/>
                        </g>
                        <g>
                            <path d="M17 13.993L17 16.989 14 16.989 14 10.996 20 10.996 20 19.985 11 19.985 11 8 23 8.019 23 22.981 8 22.981 8 8 -7 8 -7 23 5 22.981 5 10.996 -4 10.996 -4 19.985 2 19.985 2 13.993 -1 13.993 -1.038 16.989" transform="translate(-71 -263) translate(60 110) translate(12 154) translate(10.5 1.5) translate(194) matrix(0 1 1 0 -7.5 7.5)"/>
                            <path d="M17 43.993L17 46.989 14 46.989 14 40.996 20 40.996 20 49.985 11 49.985 11 38 23 38.019 23 52.981 8 52.981 8 38 -7 38 -7 53 5 52.981 5 40.996 -4 40.996 -4 49.985 2 49.985 2 43.993 -1 43.993 -1.038 46.989" transform="translate(-71 -263) translate(60 110) translate(12 154) translate(10.5 1.5) translate(194) matrix(0 1 1 0 -37.5 37.5)"/>
                            <path d="M17 73.993L17 76.989 14 76.989 14 70.996 20 70.996 20 79.985 11 79.985 11 68 23 68.019 23 82.981 8 82.981 8 68 -7 68 -7 83 5 82.981 5 70.996 -4 70.996 -4 79.985 2 79.985 2 73.993 -1 73.993 -1.038 76.989" transform="translate(-71 -263) translate(60 110) translate(12 154) translate(10.5 1.5) translate(194) matrix(0 1 1 0 -67.5 67.5)"/>
                            <path d="M17 103.993L17 106.989 14 106.989 14 100.996 20 100.996 20 109.985 11 109.985 11 98 23 98.019 23 112.981 8 112.981 8 98 -7 98 -7 113 5 112.981 5 100.996 -4 100.996 -4 109.985 2 109.985 2 103.993 -1 103.993 -1.038 106.989" transform="translate(-71 -263) translate(60 110) translate(12 154) translate(10.5 1.5) translate(194) matrix(0 1 1 0 -97.5 97.5)"/>
                            <path d="M17 133.993L17 136.989 14 136.989 14 130.996 20 130.996 20 139.985 11 139.985 11 128 23 128.019 23 142.981 8 142.981 8 128 -7 128 -7 143 5 142.981 5 130.996 -4 130.996 -4 139.985 2 139.985 2 133.993 -1 133.993 -1.038 136.989" transform="translate(-71 -263) translate(60 110) translate(12 154) translate(10.5 1.5) translate(194) matrix(0 1 1 0 -127.5 127.5)"/>
                            <path d="M17 163.993L17 166.989 14 166.989 14 160.996 20 160.996 20 169.985 11 169.985 11 158 23 158.019 23 172.981 8 172.981 8 158 -7 158 -7 173 5 172.981 5 160.996 -4 160.996 -4 169.985 2 169.985 2 163.993 -1 163.993 -1.038 166.989" transform="translate(-71 -263) translate(60 110) translate(12 154) translate(10.5 1.5) translate(194) matrix(0 1 1 0 -157.5 157.5)"/>
                            <path d="M17 193.993L17 196.989 14 196.989 14 190.996 20 190.996 20 199.985 11 199.985 11 188 23 188.019 23 202.981 8 202.981 8 188 -7 188 -7 203 5 202.981 5 190.996 -4 190.996 -4 199.985 2 199.985 2 193.993 -1 193.993 -1.038 196.989" transform="translate(-71 -263) translate(60 110) translate(12 154) translate(10.5 1.5) translate(194) matrix(0 1 1 0 -187.5 187.5)"/>
                            <path d="M17 223.993L17 226.989 14 226.989 14 220.996 20 220.996 20 229.985 11 229.985 11 218 23 218.019 23 232.981 8 232.981 8 218 -7 218 -7 233 5 232.981 5 220.996 -4 220.996 -4 229.985 2 229.985 2 223.993 -1 223.993 -1.038 226.989" transform="translate(-71 -263) translate(60 110) translate(12 154) translate(10.5 1.5) translate(194) matrix(0 1 1 0 -217.5 217.5)"/>
                            <path d="M17 253.993L17 256.989 14 256.989 14 250.996 20 250.996 20 259.985 11 259.985 11 248 23 248.019 23 262.981 8 262.981 8 248 -7 248 -7 263 5 262.981 5 250.996 -4 250.996 -4 259.985 2 259.985 2 253.993 -1 253.993 -1.038 256.989" transform="translate(-71 -263) translate(60 110) translate(12 154) translate(10.5 1.5) translate(194) matrix(0 1 1 0 -247.5 247.5)"/>
                            <path d="M17 283.993L17 286.989 14 286.989 14 280.996 20 280.996 20 289.985 11 289.985 11 278 23 278.019 23 292.981 8 292.981 8 278 -7 278 -7 293 5 292.981 5 280.996 -4 280.996 -4 289.985 2 289.985 2 283.993 -1 283.993 -1.038 286.989" transform="translate(-71 -263) translate(60 110) translate(12 154) translate(10.5 1.5) translate(194) matrix(0 1 1 0 -277.5 277.5)"/>
                            <path d="M17 313.993L17 316.989 14 316.989 14 310.996 20 310.996 20 319.985 11 319.985 11 308 23 308.019 23 322.981 8 322.981 8 308 -7 308 -7 323 5 322.981 5 310.996 -4 310.996 -4 319.985 2 319.985 2 313.993 -1 313.993 -1.038 316.989" transform="translate(-71 -263) translate(60 110) translate(12 154) translate(10.5 1.5) translate(194) matrix(0 1 1 0 -307.5 307.5)"/>
                            <path d="M17 343.993L17 346.989 14 346.989 14 340.996 20 340.996 20 349.985 11 349.985 11 338 23 338.019 23 352.981 8 352.981 8 338 -7 338 -7 353 5 352.981 5 340.996 -4 340.996 -4 349.985 2 349.985 2 343.993 -1 343.993 -1.038 346.989" transform="translate(-71 -263) translate(60 110) translate(12 154) translate(10.5 1.5) translate(194) matrix(0 1 1 0 -337.5 337.5)"/>
                            <path d="M17 373.993L17 376.989 14 376.989 14 370.996 20 370.996 20 379.985 11 379.985 11 368 23 368.019 23 382.981 8 382.981 8 368 -7 368 -7 383 5 382.981 5 370.996 -4 370.996 -4 379.985 2 379.985 2 373.993 -1 373.993 -1.038 376.989" transform="translate(-71 -263) translate(60 110) translate(12 154) translate(10.5 1.5) translate(194) matrix(0 1 1 0 -367.5 367.5)"/>
                        </g>
                        <g>
                            <path d="M17 13.993L17 16.989 14 16.989 14 10.996 20 10.996 20 19.985 11 19.985 11 8 23 8.019 23 22.981 8 22.981 8 8 -7 8 -7 23 5 22.981 5 10.996 -4 10.996 -4 19.985 2 19.985 2 13.993 -1 13.993 -1.038 16.989" transform="translate(-71 -263) translate(60 110) translate(12 154) translate(10.5 1.5) translate(0 390) rotate(90 8 15.5)"/>
                            <path d="M47 13.993L47 16.989 44 16.989 44 10.996 50 10.996 50 19.985 41 19.985 41 8 53 8.019 53 22.981 38 22.981 38 8 23 8 23 23 35 22.981 35 10.996 26 10.996 26 19.985 32 19.985 32 13.993 29 13.993 28.962 16.989" transform="translate(-71 -263) translate(60 110) translate(12 154) translate(10.5 1.5) translate(0 390) rotate(90 38 15.5)"/>
                            <path d="M77 13.993L77 16.989 74 16.989 74 10.996 80 10.996 80 19.985 71 19.985 71 8 83 8.019 83 22.981 68 22.981 68 8 53 8 53 23 65 22.981 65 10.996 56 10.996 56 19.985 62 19.985 62 13.993 59 13.993 58.962 16.989" transform="translate(-71 -263) translate(60 110) translate(12 154) translate(10.5 1.5) translate(0 390) rotate(90 68 15.5)"/>
                            <path d="M211 13.993L211 16.989 208 16.989 208 10.996 214 10.996 214 19.985 205 19.985 205 8 217 8.019 217 22.981 202 22.981 202 8 187 8 187 23 199 22.981 199 10.996 190 10.996 190 19.985 196 19.985 196 13.993 193 13.993 192.963 16.989" transform="translate(-71 -263) translate(60 110) translate(12 154) translate(10.5 1.5) translate(0 390) rotate(90 202 15.5)"/>
                            <path d="M181 13.993L181 16.989 178 16.989 178 10.996 184 10.996 184 19.985 175 19.985 175 8 187 8.019 187 22.981 172 22.981 172 8 157 8 157 23 169 22.981 169 10.996 160 10.996 160 19.985 166 19.985 166 13.993 163 13.993 162.963 16.989" transform="translate(-71 -263) translate(60 110) translate(12 154) translate(10.5 1.5) translate(0 390) rotate(90 172 15.5)"/>
                            <path d="M151 13.993L151 16.989 148 16.989 148 10.996 154 10.996 154 19.985 145 19.985 145 8 157 8.019 157 22.981 142 22.981 142 8 127 8 127 23 139 22.981 139 10.996 130 10.996 130 19.985 136 19.985 136 13.993 133 13.993 132.963 16.989" transform="translate(-71 -263) translate(60 110) translate(12 154) translate(10.5 1.5) translate(0 390) rotate(90 142 15.5)"/>
                            <path d="M121.5 14.493L121.5 16.489 118.5 16.489 118.5 11.496 124.5 11.496 124.5 19.485 115.5 19.485 115.5 8.5 127.5 8.519 127.5 22.481 112.5 22.481 112.5 8.5 97.5 8.5 97.5 22.5 109.5 22.481 109.5 11.496 100.5 11.496 100.5 19.485 106.5 19.485 106.5 14.493 103.5 14.493 103.463 16.489" transform="translate(-71 -263) translate(60 110) translate(12 154) translate(10.5 1.5) translate(0 390) rotate(90 112.5 15.5)"/>
                            <path d="M196 13.993L196 16.989 193 16.989 193 10.996 199 10.996 199 19.985 190 19.985 190 8 202 8.019 202 22.981 187 22.981 187 8 172 8 172 23 184 22.981 184 10.996 175 10.996 175 19.985 181 19.985 181 13.993 178 13.993 177.963 16.989" transform="translate(-71 -263) translate(60 110) translate(12 154) translate(10.5 1.5) translate(0 390) matrix(0 1 1 0 171.5 -171.5)"/>
                            <path d="M166 13.993L166 16.989 163 16.989 163 10.996 169 10.996 169 19.985 160 19.985 160 8 172 8.019 172 22.981 157 22.981 157 8 142 8 142 23 154 22.981 154 10.996 145 10.996 145 19.985 151 19.985 151 13.993 148 13.993 147.963 16.989" transform="translate(-71 -263) translate(60 110) translate(12 154) translate(10.5 1.5) translate(0 390) matrix(0 1 1 0 141.5 -141.5)"/>
                            <path d="M136 13.993L136 16.989 133 16.989 133 10.996 139 10.996 139 19.985 130 19.985 130 8 142 8.019 142 22.981 127 22.981 127 8 112 8 112 23 124 22.981 124 10.996 115 10.996 115 19.985 121 19.985 121 13.993 118 13.993 117.963 16.989" transform="translate(-71 -263) translate(60 110) translate(12 154) translate(10.5 1.5) translate(0 390) matrix(0 1 1 0 111.5 -111.5)"/>
                            <path d="M106.5 14.493L106.5 16.489 103.5 16.489 103.5 11.496 109.5 11.496 109.5 19.485 100.5 19.485 100.5 8.5 112.5 8.519 112.5 22.481 97.5 22.481 97.5 8.5 82.5 8.5 82.5 22.5 94.5 22.481 94.5 11.496 85.5 11.496 85.5 19.485 91.5 19.485 91.5 14.493 88.5 14.493 88.463 16.489" transform="translate(-71 -263) translate(60 110) translate(12 154) translate(10.5 1.5) translate(0 390) matrix(0 1 1 0 82 -82)"/>
                            <path d="M32 13.993L32 16.989 29 16.989 29 10.996 35 10.996 35 19.985 26 19.985 26 8 38 8.019 38 22.981 23 22.981 23 8 8 8 8 23 20 22.981 20 10.996 11 10.996 11 19.985 17 19.985 17 13.993 14 13.993 13.963 16.989" transform="translate(-71 -263) translate(60 110) translate(12 154) translate(10.5 1.5) translate(0 390) matrix(0 1 1 0 7.5 -7.5)"/>
                            <path d="M62 13.993L62 16.989 59 16.989 59 10.996 65 10.996 65 19.985 56 19.985 56 8 68 8.019 68 22.981 53 22.981 53 8 38 8 38 23 50 22.981 50 10.996 41 10.996 41 19.985 47 19.985 47 13.993 44 13.993 43.962 16.989" transform="translate(-71 -263) translate(60 110) translate(12 154) translate(10.5 1.5) translate(0 390) matrix(0 1 1 0 37.5 -37.5)"/>
                            <path d="M92 13.993L92 16.989 89 16.989 89 10.996 95 10.996 95 19.985 86 19.985 86 8 98 8.019 98 22.981 83 22.981 83 8 68 8 68 23 80 22.981 80 10.996 71 10.996 71 19.985 77 19.985 77 13.993 74 13.993 73.963 16.989" transform="translate(-71 -263) translate(60 110) translate(12 154) translate(10.5 1.5) translate(0 390) matrix(0 1 1 0 67.5 -67.5)"/>
                        </g>
                    </g>
                </g>
            </g>
        </g>
    </g>
</svg>
