<svg xmlns="http://www.w3.org/2000/svg" width="93.181" height="117.801" viewBox="0 0 93.181 117.801">
    <defs>
        <style>
            .cls-1{fill:#fff}
        </style>
    </defs>
    <g id="safe" transform="translate(-10 -6)">
        <path id="Path_3177" d="M62.629 53.172c-1.87-10.6-7.479-14.959-11.842-17.14a20.88 20.88 0 0 0-5.61-2.181 13.2 13.2 0 0 0 5.61-5.3 10.243 10.243 0 0 0 1.247-5.3 12.154 12.154 0 0 0-24.308 0 10.243 10.243 0 0 0 1.247 5.3 12.23 12.23 0 0 0 5.61 5.61 24.422 24.422 0 0 0-6.544 2.8c-4.051 2.493-8.726 6.544-10.6 16.517a2.384 2.384 0 1 0 4.675.935c1.558-8.1 4.986-11.219 8.414-13.4 5.61-3.428 12.466-3.74 17.764-.623 3.74 2.181 7.791 5.61 9.349 14.024a2.276 2.276 0 0 0 2.181 1.87h.312c1.872-.619 2.807-1.866 2.495-3.112zM33.335 26.37a6.282 6.282 0 0 1-.935-3.428 7.479 7.479 0 0 1 14.959 0 7.1 7.1 0 0 1-.935 3.428 7.312 7.312 0 0 1-13.089 0z" class="cls-1" data-name="Path 3177" transform="translate(15.621 10.794)"/>
        <path id="Path_3178" d="M60.9 44.389H37.526a8.583 8.583 0 0 1 8.414-8.414h.312a8.4 8.4 0 0 1 7.479 5.3 2.373 2.373 0 1 0 4.363-1.87 13.1 13.1 0 0 0-11.842-8.1h-.312a13.108 13.108 0 0 0-12.777 13.084h-2.182A2.13 2.13 0 0 0 28.8 46.57v6.544a17.292 17.292 0 0 0 17.14 17.14h.312a17.292 17.292 0 0 0 17.14-17.14V46.57a2.644 2.644 0 0 0-2.492-2.181zm-2.493 9.038A12.5 12.5 0 0 1 45.94 65.892h-.312a12.5 12.5 0 0 1-12.465-12.465v-4.363h25.243z" class="cls-1" data-name="Path 3178" transform="translate(39.789 53.546)"/>
        <g id="Group_2640" data-name="Group 2640" transform="translate(10 75.185)">
            <path id="Path_3179" d="M65.472 54.69H23.089A13.168 13.168 0 0 1 10 41.6v-.312A13.168 13.168 0 0 1 23.089 28.2h63.575a13.34 13.34 0 0 1 13.089 10.6 2.384 2.384 0 1 1-4.675.935 8.643 8.643 0 0 0-8.414-6.856H23.089a8.711 8.711 0 0 0-8.726 8.721v.312a8.711 8.711 0 0 0 8.726 8.726h42.072a2.13 2.13 0 0 1 2.182 2.181c.311.936-.624 1.871-1.871 1.871z" class="cls-1" data-name="Path 3179" transform="translate(-10 -28.2)"/>
        </g>
        <g id="Group_2641" data-name="Group 2641" transform="translate(53.318 86.404)">
            <path id="Path_3180" d="M28.575 36.163h-2.493a2.181 2.181 0 1 1 0-4.363h2.493a2.13 2.13 0 0 1 2.182 2.181c.311 1.247-.936 2.182-2.182 2.182z" class="cls-1" data-name="Path 3180" transform="translate(-23.9 -31.8)"/>
        </g>
        <g id="Group_2642" data-name="Group 2642" transform="translate(43.034 86.404)">
            <path id="Path_3181" d="M25.275 36.163h-2.494a2.181 2.181 0 1 1 0-4.363h2.493a2.181 2.181 0 1 1 0 4.363z" class="cls-1" data-name="Path 3181" transform="translate(-20.6 -31.8)"/>
        </g>
        <g id="Group_2643" data-name="Group 2643" transform="translate(32.75 86.404)">
            <path id="Path_3182" d="M21.975 36.163h-2.494a2.181 2.181 0 1 1 0-4.363h2.493a2.181 2.181 0 1 1 0 4.363z" class="cls-1" data-name="Path 3182" transform="translate(-17.3 -31.8)"/>
        </g>
        <g id="Group_2644" data-name="Group 2644" transform="translate(22.154 86.404)">
            <path id="Path_3183" d="M18.575 36.163h-2.494a2.181 2.181 0 0 1 0-4.363h2.493a2.13 2.13 0 0 1 2.181 2.181c.313 1.247-.934 2.182-2.18 2.182z" class="cls-1" data-name="Path 3183" transform="translate(-13.9 -31.8)"/>
        </g>
        <g id="Group_2645" data-name="Group 2645" transform="translate(14.986 6)">
            <path id="Path_3184" d="M22.819 73.315a2.694 2.694 0 0 1-1.87-.935A41.144 41.144 0 0 1 11.6 46.513C11.6 24.387 29.987 6 52.425 6A40.965 40.965 0 0 1 93.25 46.825a40 40 0 0 1-9.037 25.555c-.935.935-2.182 1.247-3.116.312s-1.247-2.182-.312-3.116a35.656 35.656 0 0 0 8.1-22.75 36.151 36.151 0 1 0-64.2 23.062A2.082 2.082 0 0 1 24.377 73a2.809 2.809 0 0 1-1.558.315z" class="cls-1" data-name="Path 3184" transform="translate(-11.6 -6)"/>
        </g>
    </g>
</svg>
