<?xml version="1.0" encoding="utf-8"?>
<!-- Generator: Adobe Illustrator 24.2.1, SVG Export Plug-In . SVG Version: 6.00 Build 0)  -->
<svg version="1.1" xmlns="http://www.w3.org/2000/svg" xmlns:xlink="http://www.w3.org/1999/xlink" x="0px" y="0px"
	 viewBox="0 0 393.68 411.71" style="enable-background:new 0 0 393.68 411.71;" xml:space="preserve">
<style type="text/css">
	.st0{fill:#FFFFFF;}
	.st1{display:none;}
	.st2{display:inline;fill:#FFFFFF;}
</style>
<g id="圖層_2">
	<g>
		<path class="st0" d="M93.38,9.65c99.89,0,199.78,0,299.67,0c0,130.72,0,261.44,0,392.4c-131.15,0-261.77,0-392.4,0
			c0-23.25,0-46.5,0-69.74c7.66,0,15.32-0.2,22.97,0.11c3.23,0.13,4.36-1.11,5.28-3.92c6.77-20.66,13.74-41.26,20.5-61.93
			c0.81-2.48,1.83-3.36,4.5-3.3c8.66,0.19,17.33,0.07,26.13,0.07c-0.21-1.42-0.3-2.56-0.55-3.67
			c-6.22-27.94-12.35-55.89-18.73-83.79c-6.64-28.99,4.28-53.59,30.54-67.73c2.3-1.24,2.1-2.83,2.1-4.71
			C93.38,72.18,93.38,40.92,93.38,9.65z M231.32,378.76c46.58,0,92.59,0,138.56,0c0-115.45,0-230.6,0-345.93
			c-84.51,0-168.85,0-253.28,0c0,23.24,0,46.27,0,69.45c8.46,0.19,16.31,1.96,23.86,5.33c23.08,10.28,37.5,36.54,32.67,61.18
			c-4.33,22.1-9.5,44.04-14.31,66.04c-2.05,9.4-4.13,18.79-6.26,28.5c10.13,0,19.82,0,29.58,0c0.41,1.14,0.76,2.09,1.08,3.05
			c6.93,20.76,13.89,41.51,20.72,62.31c0.88,2.69,2.03,3.81,5.04,3.71c7.35-0.26,14.72-0.08,22.36-0.08
			C231.32,348.05,231.32,363.33,231.32,378.76z M116.73,263.34c3.19,0,6.41,0.21,9.57-0.11c1.09-0.11,2.75-1.37,2.97-2.36
			c7.14-31.92,14.38-63.83,21.07-95.85c4.41-21.12-15.63-42.11-37.01-39.43c-21.76,2.73-35.19,21.42-30.51,42.81
			c6.72,30.71,13.66,61.38,20.43,92.08c0.47,2.13,1.25,3.03,3.51,2.91C110.08,263.21,113.41,263.34,116.73,263.34z M180.75,332.22
			c-4.96-14.93-9.72-29.42-14.69-43.84c-0.33-0.96-2.2-1.98-3.35-1.98c-30.89-0.11-61.78-0.06-92.67-0.13
			c-2.19,0-3.09,0.72-3.71,2.79c-1.6,5.36-3.48,10.64-5.25,15.94c-3.01,9-6.01,18-9.09,27.22
			C95.05,332.22,137.67,332.22,180.75,332.22z M23.8,378.8c61.66,0,123,0,184.24,0c0-7.98,0-15.69,0-23.31
			c-61.56,0-122.82,0-184.24,0C23.8,363.31,23.8,370.92,23.8,378.8z"/>
		<path class="st0" d="M315.92,96.67c3.34-4.4,6.42-8.44,9.69-12.74c6.16,4.61,12.15,9.1,18.47,13.83
			c-3.44,4.59-6.69,9.11-10.13,13.48c-1.44,1.83-1.72,3.17-0.35,5.35c28.37,45.17,7.16,103.52-43.57,120.05
			c-47.07,15.34-97.57-16.78-103.93-66.11c-5.73-44.42,24.96-84.54,69.19-90.39c21.2-2.8,40.45,2.24,57.82,14.64
			C313.93,95.37,314.78,95.91,315.92,96.67z M301.79,115.6c-20.03-17.52-54.16-18.46-76.38,3.62c-21.92,21.78-22.69,57.01-1.7,79.51
			c21.23,22.77,56.54,24.72,79.44,4.74c23.48-20.49,23.91-52.52,13.39-68.93c-16.48,21.97-32.92,43.88-48.79,65.03
			c-10.87-10.85-21.57-21.53-31.61-31.55c4.86-4.94,10.09-10.26,15.96-16.22c3.99,4.2,8.25,8.68,12.6,13.25
			C277.13,148.47,289.38,132.14,301.79,115.6z"/>
	</g>
</g>
</svg>
