<svg xmlns="http://www.w3.org/2000/svg" width="188" height="115" viewBox="0 0 188 115">
    <defs>
        <linearGradient id="fzvdd70mwa" x1="3.637%" x2="90.215%" y1="16.806%" y2="88.574%">
            <stop offset="0%" stop-color="#FFF" stop-opacity="0"/>
            <stop offset="26%" stop-color="#D55237" stop-opacity=".44"/>
            <stop offset="50%" stop-color="#CF3819"/>
            <stop offset="78%" stop-color="#D85C43" stop-opacity=".41"/>
            <stop offset="100%" stop-color="#FFF" stop-opacity="0"/>
        </linearGradient>
        <linearGradient id="s6rp6j4gtb" x1="2.921%" x2="92.043%" y1="44.295%" y2="54.248%">
            <stop offset="0%" stop-color="#FFF" stop-opacity="0"/>
            <stop offset="26%" stop-color="#D55237" stop-opacity=".44"/>
            <stop offset="50%" stop-color="#CF3819"/>
            <stop offset="78%" stop-color="#D85C43" stop-opacity=".41"/>
            <stop offset="100%" stop-color="#FFF" stop-opacity="0"/>
        </linearGradient>
        <linearGradient id="4tm2aokhsc" x1="1.617%" x2="102.225%" y1="66.108%" y2="39.853%">
            <stop offset="0%" stop-color="#FFF" stop-opacity="0"/>
            <stop offset="26%" stop-color="#D55237" stop-opacity=".44"/>
            <stop offset="50%" stop-color="#CF3819"/>
            <stop offset="78%" stop-color="#D85C43" stop-opacity=".41"/>
            <stop offset="100%" stop-color="#FFF" stop-opacity="0"/>
        </linearGradient>
    </defs>
    <g fill="none" fill-rule="evenodd">
        <g fill-rule="nonzero">
            <g transform="translate(-670 -146) translate(670 143)">
                <path fill="#284D9F" d="M187.75 67.107c1.04-28.765-37.173-56.492-87.308-62.692C48.782-1.973 4.028 16.909.48 46.592c-.197 1.654-.264 3.322-.2 4.987-1.472 14.242 6.665 28.798 22.967 41.023 16.475 12.352 39.32 20.853 64.33 23.954 6.647.826 13.337 1.243 20.033 1.248 17.677 0 34.277-3.003 48.065-8.822 18.93-7.988 30.305-20.324 32.027-34.723.282-2.375.298-4.774.048-7.152zm-.347 7.1C185.7 88.5 174.39 100.76 155.56 108.706c-18.83 7.945-43 10.638-67.948 7.55-24.947-3.087-47.75-11.57-64.19-23.905C8 80.792-.085 67.138.427 53.66c2.8 27.124 39.623 52.362 87.166 58.237C139.25 118.3 184 99.415 187.555 69.732c.02-.17.037-.34.055-.509.063 1.665-.004 3.331-.2 4.985h-.007z"/>
                <ellipse cx="94.011" cy="55.159" fill="#FFF" rx="45.561" ry="79.32" transform="rotate(-83.07 94.011 55.159)"/>
                <ellipse cx="94.007" cy="52.157" fill="#284D9F" rx="36.764" ry="64.016" transform="rotate(-83.07 94.007 52.157)"/>
                <ellipse cx="94.003" cy="48.86" fill="#FFF" rx="28.196" ry="49.087" transform="rotate(-83.07 94.003 48.86)"/>
                <ellipse cx="94.003" cy="48.86" fill="#FFF" rx="28.196" ry="49.087" transform="rotate(-83.07 94.003 48.86)"/>
                <ellipse cx="94.003" cy="48.86" fill="#FFF" rx="28.196" ry="49.087" transform="rotate(-83.07 94.003 48.86)"/>
                <path fill="#284D9F" d="M83.4 47.25c-3.325 1.934-10.45.815-16.25-2.593-5.8-3.408-7.75-7.604-4.425-9.537 3.325-1.932 10.45-.814 16.25 2.594 5.8 3.408 7.75 7.579 4.425 9.537zM96.3 39.698c-3.325 1.933-10.45.814-16.25-2.594-5.8-3.408-7.75-7.604-4.425-9.537 3.325-1.933 10.45-.814 16.275 2.594 5.825 3.408 7.725 7.579 4.4 9.537zM85.025 57.906c-1.025.61-2.575.967-4.475 1.069-2.743.07-5.48-.273-8.125-1.018-2.8-.763-5.25-1.856-6.925-3.077-1.95-1.424-2.65-2.95-1.925-4.196.725-1.246 2.775-2.009 5.625-2.136 2.743-.07 5.48.273 8.125 1.017 2.8.763 5.25 1.857 6.925 3.077 1.95 1.424 2.65 2.95 1.925 4.196-.288.45-.684.817-1.15 1.068zM114.45 40.664c-.569.325-1.185.557-1.825.687-2.1.407-4.725.025-7.15-1.12-2.017-.933-3.802-2.315-5.225-4.043-1.3-1.653-1.9-3.331-1.725-4.755.225-1.679 1.55-2.874 3.65-3.306 2.1-.433 4.725 0 7.15 1.119 2.022.937 3.808 2.328 5.225 4.069 1.3 1.653 1.9 3.331 1.725 4.755-.181 1.106-.855 2.063-1.825 2.594zM109.5 64.112c-1.523.84-3.219 1.3-4.95 1.347-2.088.048-4.166-.306-6.125-1.042-1.528-.589-2.968-1.393-4.275-2.39-1.592-1.167-2.957-2.624-4.025-4.299-1.346-2.035-1.98-4.471-1.8-6.917.078-1.222.374-2.42.875-3.535.4-.915.9-1.882 2-2.62l.1-.05.175-.102.05-.025c1.9-1.12 5.25-1.424 7.5-1.628 2.651-.254 5.32-.28 7.975-.076 5.1.356 10.175 1.551 14.25 3.408 1.95.864 3.375 1.755 4.375 2.695 1.35 1.297 1.875 2.722 1.425 3.942-.425 1.145-1.75 2.162-3.75 2.823-1.575.534-3.35.814-4.925 1.043l-4.225.636c-.125.025-.4.05-.575.101-.025.077-.025.178-.05.255v.025c-.167.926-.436 1.83-.8 2.696-.474 1.256-1.278 2.356-2.325 3.179l-.9.534z"/>
                <path fill="#284D9F" d="M105.45 101.602c-5.636-.004-11.266-.355-16.86-1.05-21.053-2.604-40.283-9.766-54.15-20.165-13.867-10.398-20.75-22.84-19.292-34.98 1.457-12.14 11.03-22.53 26.97-29.246 15.94-6.716 36.27-8.992 57.322-6.388 21.053 2.604 40.282 9.766 54.15 20.164 13.868 10.4 20.75 22.84 19.292 34.98-1.457 12.142-11.03 22.53-26.97 29.246-11.607 4.911-25.58 7.44-40.462 7.44zM82.577 9.033c-14.842 0-28.774 2.523-40.347 7.406-15.837 6.685-25.352 16.99-26.79 29.016-2.973 24.852 29.86 49.438 73.185 54.797 5.583.695 11.203 1.046 16.828 1.05 14.842 0 28.774-2.52 40.347-7.406 15.837-6.683 25.352-16.987 26.79-29.016 1.438-12.03-5.373-24.35-19.175-34.701-13.802-10.35-33-17.51-54-20.108-5.587-.695-11.21-1.045-16.838-1.05v.012z"/>
                <path fill="#284D9F" d="M105.45 101.602c-5.636-.004-11.266-.355-16.86-1.05-21.053-2.604-40.283-9.766-54.15-20.165-13.867-10.398-20.75-22.84-19.292-34.98 1.457-12.14 11.03-22.53 26.97-29.246 15.94-6.716 36.27-8.992 57.322-6.388 21.053 2.604 40.282 9.766 54.15 20.164 13.868 10.4 20.75 22.84 19.292 34.98-1.457 12.142-11.03 22.53-26.97 29.246-11.607 4.911-25.58 7.44-40.462 7.44zM82.577 9.033c-14.842 0-28.774 2.523-40.347 7.406-15.837 6.685-25.352 16.99-26.79 29.016-2.973 24.852 29.86 49.438 73.185 54.797 5.583.695 11.203 1.046 16.828 1.05 14.842 0 28.774-2.52 40.347-7.406 15.837-6.683 25.352-16.987 26.79-29.016 1.438-12.03-5.373-24.35-19.175-34.701-13.802-10.35-33-17.51-54-20.108-5.587-.695-11.21-1.045-16.838-1.05v.012z"/>
                <path fill="url(#fzvdd70mwa)" d="M79.317 98.927l.428-11.953c-30.03-6.5-51.443-24.47-49.265-42.683.213-1.756.64-3.478 1.27-5.127H16.83c-.76 2.016-1.276 4.118-1.537 6.26-2.768 23.174 25.262 46.02 64.024 53.503z"/>
                <path fill="url(#s6rp6j4gtb)" d="M79.75 8.9v6.03c6.217-.296 12.448-.056 18.625.718 19.657 2.43 36.615 9.732 47.305 19.23l12.305-1.177C144.75 21.962 123.75 12.931 99.422 9.918c-6.525-.816-13.099-1.156-19.672-1.017z"/>
                <path fill="url(#4tm2aokhsc)" d="M172.735 64.897c.07-.582.115-1.164.145-1.75l-15.215-4.597c-.025.49-.063.979-.12 1.47-2.14 17.903-26.355 30.021-56.322 29.472l-6.868 11.5c41.002 3.357 75.527-12.217 78.38-36.095z"/>
            </g>
        </g>
    </g>
</svg>
