<?xml version="1.0" encoding="utf-8"?>
<!-- Generator: Adobe Illustrator 24.2.1, SVG Export Plug-In . SVG Version: 6.00 Build 0)  -->
<svg version="1.1" id="圖層_1" xmlns="http://www.w3.org/2000/svg" xmlns:xlink="http://www.w3.org/1999/xlink" x="0px" y="0px"
	 viewBox="0 0 771.1 324.7" style="enable-background:new 0 0 771.1 324.7;" xml:space="preserve">
<style type="text/css">
	.st0{opacity:0.75;}
	.st1{fill:#EEEEEF;}
	.st2{fill:url(#SVGID_3_);}
	.st3{fill:url(#SVGID_4_);}
	.st4{fill:url(#SVGID_5_);}
	.st5{fill:url(#SVGID_6_);}
	.st6{fill:url(#SVGID_7_);}
	.st7{fill:url(#SVGID_8_);}
	.st8{fill:#888888;}
	.st9{fill:#FFFFFF;}
	.st10{fill:#D0392A;}
	.st11{filter:url(#Adobe_OpacityMaskFilter);}
	.st12{fill:none;stroke:#3E3A39;stroke-width:2;stroke-miterlimit:10;}
	.st13{opacity:0.3;fill:#FFFFFF;}
	.st14{fill:#036EB7;}
	.st15{fill:url(#SVGID_10_);}
	.st16{fill:url(#SVGID_11_);}
	.st17{fill:url(#SVGID_12_);}
	.st18{fill:url(#SVGID_13_);}
	.st19{fill:url(#SVGID_14_);}
	.st20{fill:url(#SVGID_15_);}
	.st21{fill:url(#SVGID_16_);}
	.st22{fill:url(#SVGID_17_);}
	.st23{fill:url(#SVGID_18_);}
	.st24{fill:url(#SVGID_19_);}
	.st25{fill:url(#SVGID_20_);}
	.st26{fill:url(#SVGID_21_);}
	.st27{fill:url(#SVGID_22_);}
	.st28{fill:url(#SVGID_23_);}
	.st29{fill:url(#SVGID_24_);}
	.st30{fill:url(#SVGID_25_);}
	.st31{fill:url(#SVGID_26_);}
	.st32{fill:url(#SVGID_27_);}
	.st33{fill:url(#SVGID_28_);}
	.st34{fill:url(#SVGID_29_);}
	.st35{fill:url(#SVGID_30_);}
	.st36{fill:url(#SVGID_31_);}
	.st37{fill:url(#SVGID_32_);}
	.st38{fill:url(#SVGID_33_);}
	.st39{fill:url(#SVGID_34_);}
	.st40{fill:url(#SVGID_35_);}
	.st41{fill:url(#SVGID_36_);}
	.st42{fill:url(#SVGID_37_);}
	.st43{fill:url(#SVGID_38_);}
	.st44{fill:url(#SVGID_39_);}
	.st45{fill:url(#SVGID_40_);}
	.st46{fill:url(#SVGID_41_);}
	.st47{fill:url(#SVGID_42_);}
	.st48{fill:url(#SVGID_43_);}
	.st49{fill:url(#SVGID_44_);}
	.st50{fill:url(#SVGID_45_);}
	.st51{fill:url(#SVGID_46_);}
	.st52{fill:url(#SVGID_47_);}
	.st53{fill:url(#SVGID_48_);}
	.st54{fill:url(#SVGID_49_);}
	.st55{fill:url(#SVGID_50_);}
	.st56{fill:url(#SVGID_51_);}
	.st57{fill:url(#SVGID_52_);}
	.st58{fill:url(#SVGID_53_);}
	.st59{fill:url(#SVGID_54_);}
	.st60{fill:url(#SVGID_55_);}
	.st61{fill:url(#SVGID_56_);}
	.st62{fill:url(#SVGID_57_);}
	.st63{fill:url(#SVGID_58_);}
	.st64{fill:url(#SVGID_59_);}
	.st65{fill:url(#SVGID_60_);}
	.st66{fill:url(#SVGID_61_);}
	.st67{fill:url(#SVGID_62_);}
	.st68{fill:url(#SVGID_63_);}
	.st69{fill:url(#SVGID_64_);}
	.st70{fill:url(#SVGID_65_);}
	.st71{fill:url(#SVGID_66_);}
	.st72{fill:none;stroke:#036EB7;stroke-width:2;stroke-miterlimit:10;}
	.st73{fill:url(#SVGID_67_);}
	.st74{fill:url(#SVGID_68_);}
	.st75{fill:url(#SVGID_69_);}
	.st76{fill:url(#SVGID_70_);}
	.st77{fill:url(#SVGID_71_);}
	.st78{fill:url(#SVGID_72_);}
	.st79{fill:url(#SVGID_73_);}
	.st80{fill:url(#SVGID_74_);}
	.st81{fill:url(#SVGID_75_);}
	.st82{fill:url(#SVGID_76_);}
	.st83{fill:url(#SVGID_77_);}
	.st84{fill:url(#SVGID_78_);}
	.st85{fill:url(#SVGID_79_);}
	.st86{fill:#B3B3B3;}
	.st87{fill:#777778;}
	.st88{fill:url(#SVGID_80_);}
	.st89{fill:url(#SVGID_81_);}
	.st90{fill:url(#SVGID_82_);}
	.st91{fill:url(#SVGID_83_);}
	.st92{fill:url(#SVGID_84_);}
	.st93{fill:url(#SVGID_85_);}
	.st94{fill:url(#SVGID_86_);}
	.st95{clip-path:url(#SVGID_88_);fill:url(#SVGID_89_);}
	.st96{clip-path:url(#SVGID_91_);}
	.st97{fill:url(#SVGID_92_);}
	.st98{fill:url(#SVGID_93_);}
	.st99{fill:url(#SVGID_94_);}
	.st100{fill:#124380;}
	.st101{opacity:0.82;fill:url(#SVGID_95_);}
	.st102{opacity:0.21;fill:url(#SVGID_96_);}
	.st103{opacity:0.82;fill:url(#SVGID_97_);}
	.st104{opacity:0.21;fill:url(#SVGID_98_);}
	.st105{opacity:0.82;fill:url(#SVGID_99_);}
	.st106{opacity:0.21;fill:url(#SVGID_100_);}
	.st107{fill:#C7391A;}
	.st108{fill:#083A6E;}
	.st109{fill:#3D3A39;}
	.st110{fill:#0A559A;}
	.st111{fill:#2E3D47;}
	.st112{fill:#E72410;}
	.st113{fill-rule:evenodd;clip-rule:evenodd;fill:#E72410;}
	.st114{fill:#124385;}
	.st115{opacity:0.82;fill:url(#SVGID_101_);}
	.st116{opacity:0.21;fill:url(#SVGID_102_);}
	.st117{opacity:0.82;fill:url(#SVGID_103_);}
	.st118{opacity:0.21;fill:url(#SVGID_104_);}
	.st119{opacity:0.82;fill:url(#SVGID_105_);}
	.st120{opacity:0.21;fill:url(#SVGID_106_);}
	.st121{fill:#CE391A;}
	.st122{fill:url(#SVGID_107_);}
	.st123{fill:none;stroke:url(#SVGID_108_);stroke-width:2;stroke-miterlimit:10;}
	.st124{fill:url(#SVGID_109_);}
	.st125{fill:url(#SVGID_112_);}
	.st126{clip-path:url(#SVGID_114_);}
	.st127{fill:none;stroke:#FF9825;stroke-width:1.4185;stroke-linecap:round;stroke-miterlimit:10;}
	.st128{fill:url(#SVGID_117_);}
	.st129{fill:url(#SVGID_120_);}
	.st130{clip-path:url(#SVGID_122_);}
	.st131{fill:url(#SVGID_125_);}
	.st132{fill:none;stroke:url(#SVGID_126_);stroke-width:2;stroke-miterlimit:10;}
	.st133{fill:url(#SVGID_127_);}
	.st134{fill:url(#SVGID_128_);}
	.st135{fill:url(#SVGID_129_);}
	.st136{fill:url(#SVGID_130_);}
	.st137{fill:url(#SVGID_131_);}
	.st138{fill:#717071;}
	.st139{fill:#E50012;}
	.st140{fill:url(#SVGID_132_);}
	.st141{fill:url(#SVGID_133_);}
	.st142{fill:url(#SVGID_134_);}
	.st143{fill:url(#SVGID_135_);}
	.st144{fill:url(#SVGID_136_);}
	.st145{fill:url(#SVGID_137_);}
	.st146{fill:url(#SVGID_138_);}
	.st147{fill:url(#SVGID_139_);}
	.st148{fill:url(#SVGID_140_);}
	.st149{fill:url(#SVGID_141_);}
	.st150{fill:url(#SVGID_142_);}
	.st151{fill:url(#SVGID_143_);}
	.st152{fill:url(#SVGID_144_);}
	.st153{fill:url(#SVGID_145_);}
	.st154{fill:url(#SVGID_146_);}
	.st155{fill:url(#SVGID_147_);}
	.st156{fill:url(#SVGID_148_);}
	.st157{fill:url(#SVGID_149_);}
	.st158{fill:url(#SVGID_150_);}
	.st159{fill:url(#SVGID_151_);}
	.st160{fill:url(#SVGID_152_);}
	.st161{fill:url(#SVGID_153_);}
	.st162{fill:url(#SVGID_154_);}
	.st163{fill:url(#SVGID_155_);}
	.st164{fill:url(#SVGID_156_);}
	.st165{fill:url(#SVGID_157_);}
	.st166{fill:url(#SVGID_158_);}
	.st167{fill:url(#SVGID_159_);}
	.st168{fill:url(#SVGID_160_);}
	.st169{fill:url(#SVGID_161_);}
	.st170{fill:url(#SVGID_162_);}
	.st171{fill:url(#SVGID_163_);}
	.st172{fill:url(#SVGID_164_);}
	.st173{fill:url(#SVGID_165_);}
	.st174{fill:url(#SVGID_166_);}
	.st175{fill:url(#SVGID_167_);}
	.st176{fill:url(#SVGID_168_);}
	.st177{clip-path:url(#SVGID_170_);fill:url(#SVGID_171_);}
	.st178{clip-path:url(#SVGID_173_);}
	.st179{fill:url(#SVGID_174_);}
	.st180{fill:url(#SVGID_175_);}
	.st181{fill:url(#SVGID_176_);}
	.st182{fill:url(#SVGID_177_);}
	.st183{fill:none;stroke:url(#SVGID_178_);stroke-width:2;stroke-miterlimit:10;}
	.st184{fill:url(#SVGID_179_);}
	.st185{fill:url(#SVGID_182_);}
	.st186{clip-path:url(#SVGID_184_);}
	.st187{fill:url(#SVGID_187_);}
	.st188{fill:url(#SVGID_190_);}
	.st189{clip-path:url(#SVGID_192_);}
</style>
<g>
	<g class="st0">
		
			<image style="overflow:visible;opacity:0.15;" width="3084" height="1426" xlink:href="650EACD8.png"  transform="matrix(0.24 0 0 0.24 42.6629 -7.1222)">
		</image>
		<g>
			<path class="st1" d="M740.7,313.1h-670c-11,0-20-9-20-20V21c0-11,9-20,20-20h670c11,0,20,9,20,20v272.1
				C760.7,304.1,751.7,313.1,740.7,313.1z"/>
		</g>
	</g>
	<g>
		<g>
			<linearGradient id="SVGID_2_" gradientUnits="userSpaceOnUse" x1="61.0243" y1="71.9316" x2="25.5777" y2="54.0825">
				<stop  offset="0" style="stop-color:#C64214"/>
				<stop  offset="1" style="stop-color:#A52C0C"/>
			</linearGradient>
			<polygon style="fill:url(#SVGID_2_);" points="2,79.8 51.2,107.8 51.2,30.9 2,1.4 			"/>
			<g>
				
					<image style="overflow:visible;opacity:0.2;" width="910" height="378" xlink:href="650EACD9.png"  transform="matrix(0.24 0 0 0.24 -0.1771 -0.7622)">
				</image>
				<g>
					<g>
						<g>
							<g>
								<defs>
									<path id="SVGID_188_" d="M177.5,79.8H2V1.4h175.5c16.9,0,30.7,13.7,30.7,30.7v17C208.2,66.1,194.5,79.8,177.5,79.8z"/>
								</defs>
								<clipPath id="SVGID_3_">
									<use xlink:href="#SVGID_188_"  style="overflow:visible;"/>
								</clipPath>
							</g>
						</g>
					</g>
					<g>
						<g>
							<linearGradient id="SVGID_4_" gradientUnits="userSpaceOnUse" x1="18.4141" y1="8.3667" x2="199.7082" y2="86.7915">
								<stop  offset="0" style="stop-color:#FF9825"/>
								<stop  offset="1" style="stop-color:#ED5F21"/>
							</linearGradient>
							<path class="st3" d="M177.5,79.8H2V1.4h175.5c16.9,0,30.7,13.7,30.7,30.7v17C208.2,66.1,194.5,79.8,177.5,79.8z"/>
							<g>
								<defs>
									<path id="SVGID_191_" d="M177.5,79.8H2V1.4h175.5c16.9,0,30.7,13.7,30.7,30.7v17C208.2,66.1,194.5,79.8,177.5,79.8z"/>
								</defs>
								<clipPath id="SVGID_5_">
									<use xlink:href="#SVGID_191_"  style="overflow:visible;"/>
								</clipPath>
								<g style="clip-path:url(#SVGID_5_);">
									<path class="st127" d="M-6.9,10.6h175c16.6,0,30,13.4,30,30v0c0,16.6-13.4,30-30,30h-175"/>
								</g>
							</g>
						</g>
					</g>
					<g>
						<g>
							<g>
								<defs>
									<path id="SVGID_193_" d="M177.5,79.8H2V1.4h175.5c16.9,0,30.7,13.7,30.7,30.7v17C208.2,66.1,194.5,79.8,177.5,79.8z"/>
								</defs>
								<clipPath id="SVGID_6_">
									<use xlink:href="#SVGID_193_"  style="overflow:visible;"/>
								</clipPath>
							</g>
						</g>
					</g>
				</g>
			</g>
		</g>
		<g>
			<g>
				<path class="st9" d="M68.4,44.3l-3.1,0.8v10.1h-3.6V46l-4.2,1.1l-0.9-3.9c1.4-0.3,3.2-0.6,5.2-1v-7h-1.9
					c-0.3,1.6-0.7,3.1-1.2,4.3c-0.6-0.3-2-0.8-2.7-1c1-2.6,1.6-6.7,1.9-10.6l2.9,0.4c-0.1,1.1-0.2,2.2-0.4,3.3h1.3v-6.2h3.6v6.2h2.8
					v3.6h-2.8v6.2l2.7-0.6L68.4,44.3z M85.9,44.2h-3.1v6.7c0,1.9-0.4,2.9-1.6,3.5c-1.2,0.6-3,0.7-5.3,0.7c-0.2-1.1-0.7-2.7-1.2-3.8
					c1.5,0.1,3.2,0.1,3.7,0.1c0.5,0,0.6-0.1,0.6-0.5v-6.6H68.9v-3.5H79v-2.2h3.8v2.2h3.1V44.2z M75,31.6h-6v-3.5h6v-2.8h3.8v2.8h6.4
					v3.5h-6.4v2.7h5.3v3.5H70.2v-3.5H75V31.6z M73.1,44.3c1.4,1.4,3.1,3.5,3.8,4.8l-3,2c-0.7-1.3-2.3-3.5-3.6-5L73.1,44.3z"/>
				<path class="st9" d="M91.2,53.9c1.2-1.3,1.9-3.6,2.2-5.7l2.6,0.8c-0.4,2.3-0.9,4.7-2.3,6.2L91.2,53.9z M91.9,44.3
					c1.6,0,3.6-0.1,5.7-0.2v-1.5h-4.9v-2.9h4.9v-1.4h-5V26.2h13.5v12.1H101v1.4h5.1v2.9H101V44c1.9-0.1,3.8-0.2,5.6-0.2l-0.1,2.9
					c-5.2,0.3-10.7,0.6-14.5,0.8L91.9,44.3z M95.4,35.7h2.7v-6.9h-2.7v1.3l1.5-0.4c0.5,1.5,0.9,3.4,1,4.6l-1.7,0.5
					c-0.1-1.2-0.4-3-0.8-4.4V35.7z M98.5,48.1c0.4,1.8,0.6,4.1,0.7,5.6L96.7,54c0.1-1.5-0.2-3.8-0.5-5.6L98.5,48.1z M101.6,47.8
					c0.6,1.7,1.2,3.8,1.4,5.3l-2.3,0.5c-0.2-1.4-0.7-3.6-1.3-5.3L101.6,47.8z M103.2,28.8h-2.8v5.3c0.4-1.3,1-3.1,1.2-4.4l1.5,0.5
					V28.8z M103.2,35.7v-4.5c-0.5,1.3-1,2.7-1.4,3.6l-1.3-0.5v1.4H103.2z M104.7,47.2c1,1.5,2,3.6,2.5,5l-2.4,1
					c-0.4-1.4-1.3-3.5-2.3-5.1L104.7,47.2z M115.2,35.4v4.9h5.1V55h-3.6v-1.1h-5.9v1.2h-3.5V40.3h4.2v-15h3.7v6.6h6.2v3.5H115.2z
					 M116.6,43.8h-5.9v6.7h5.9V43.8z"/>
				<path class="st9" d="M127,49.7c6.4-5.8,10.2-10.2,10.2-13.9c0-2.4-1.3-3.8-3.6-3.8c-1.7,0-3.2,1.1-4.4,2.4l-2.6-2.6
					c2.2-2.3,4.3-3.6,7.5-3.6c4.5,0,7.5,2.9,7.5,7.3c0,4.3-3.6,8.9-7.9,13.1c1.2-0.1,2.8-0.3,3.8-0.3h5.2v4H127V49.7z"/>
			</g>
		</g>
	</g>
	<g>
		<g>
			<path class="st138" d="M246.6,126.1c-0.1-0.7-0.2-1.5-0.4-2.4c-9.1,1.4-10.7,1.7-11.6,2.2c-0.2-0.9-0.9-3-1.4-4.1
				c1.1-0.3,2.2-1.4,3.6-3.2c0.6-0.7,2-2.4,3.5-4.7c-4.3,0.5-5.3,0.8-6,1.1c-0.2-0.9-0.9-2.9-1.3-3.9c0.9-0.2,1.6-1.2,2.6-2.6
				c1-1.4,4-6.8,5.8-11.9l4.1,1.7c-1.9,4.2-4.3,8.6-6.8,12.1l4.2-0.3c1.3-2,2.5-4.2,3.5-6.4l3.8,2.4c-2.8,5.2-6.6,10.5-10.3,14.8
				l5.7-0.7c-0.4-1.5-0.8-3.1-1.3-4.4l3.3-0.9c1.2,3.3,2.3,7.5,2.6,10.1L246.6,126.1z M238.6,128.3c-0.4,4.3-1.3,8.9-2.3,11.9
				c-0.8-0.4-2.4-1-3.4-1.2c1.1-3,1.8-7.3,2.2-11.3L238.6,128.3z M243.2,127.6c0.6,3.2,1.1,7.3,1.2,10.1l-3.4,0.7
				c0-2.8-0.5-7-1-10.2L243.2,127.6z M247.5,126.4c0.9,2.3,1.8,5.2,2.2,7.2l-3.1,1.1c-0.3-2-1.2-5-2.1-7.3L247.5,126.4z
				 M261.5,123.2c-1.6,7.3-5.5,12.6-10.4,15.4c-0.6-0.9-1.8-2.4-2.5-3.1c3.3-1.8,6.3-5.2,7.9-9.4h-5.3v-3.6h7l0.7-0.1L261.5,123.2z
				 M276.5,122.9c-2.2,1.9-4.5,3.9-6.5,5.4c2,3,4.5,5.6,7.4,7.1c-1,0.8-2.3,2.4-2.9,3.5c-3.3-2.1-6-5.5-8.1-9.6v6.9
				c0,2.1-0.4,3.3-1.8,4s-3.6,0.7-6.6,0.7c-0.1-1.2-0.7-3-1.2-4.1c2,0.1,4,0.1,4.6,0c0.6,0,0.8-0.2,0.8-0.7v-17.3h-9.3v-17h7.1
				c0.6-1.6,1.2-3.6,1.5-5.1l5,1c-0.7,1.4-1.3,2.8-2.1,4.1H275v17h-8.6v1.7c0.5,1.7,1.1,3.3,1.9,4.8c1.8-1.6,3.6-3.6,4.9-5.2
				L276.5,122.9z M257,108.7h13.6v-3.4H257V108.7z M257,115.4h13.6v-3.5H257V115.4z"/>
			<path class="st138" d="M329.5,134v4.5h-43V134h17.5V97.5h4.8v14.3h17.3v4.5h-17.3V134H329.5z"/>
			<path class="st138" d="M379.8,103.1v27.4h-4.6v-2.4H363v12.7h-4.6v-12.7h-11.9v2.6h-4.4v-27.7h16.3v-6.3h4.6v6.3H379.8z
				 M346.5,107.4v6h11.9v-6H346.5z M358.4,123.9v-6.3h-11.9v6.3H358.4z M363,107.4v6h12.2v-6H363z M375.2,123.9v-6.3H363v6.3H375.2z
				"/>
			<path class="st138" d="M400.6,128.1c-0.3,4.5-1.7,9.5-6,12.9c-0.6-0.9-1.8-2.2-2.6-2.9c3.5-2.5,4.4-6.5,4.7-10h-4.4v-3.6h4.5v-5
				h-5.1v-3.6h7.5c0.7-2.5,1.6-6.2,1.9-8.8l3.5,0.7c-0.8,2.7-1.6,5.7-2.3,8.1h3.6v3.6h-5.2v5h4.4v3.6H400.6z M405.8,106.6h-13.7V103
				h5.1c-0.5-1.5-1.2-3.2-2-4.6l3.7-1.1c1,1.7,2,4,2.5,5.7h4.4V106.6z M394.4,115.6c0-2-0.5-5.2-1.3-7.6l3-0.7
				c0.8,2.4,1.4,5.5,1.5,7.5L394.4,115.6z M419.1,109.3c-0.3,20.4-0.5,27-1.6,28.9c-0.7,1.2-1.5,1.6-2.7,1.8c-1,0.2-2.4,0.1-3.8,0.1
				c0-1.1-0.4-2.6-1-3.6c1.3,0.1,2.4,0.1,3.1,0.1c0.5,0,0.9-0.1,1.2-0.8c0.7-1.2,1-7.2,1.2-24.5h-2.7c-0.5,12.3-2,22.3-6.8,29.7
				c-0.5-0.7-2.1-2-2.9-2.6c4.4-6.3,5.9-15.6,6.3-27h-2.6v-3.8h2.7c0-3.4,0-7,0-10.6h3.5c0,3.7,0,7.2-0.1,10.6h6.3V109.3z
				 M430.3,119.5v5.7h4.8v3.6h-4.8v12h-4v-12h-4.6v-3.6h4.6v-5.7h-5.5v-3.6h8c0.8-2.5,1.6-6.4,2-9l3.4,0.8c-0.6,2.7-1.4,5.8-2.2,8.2
				h3.6v3.6H430.3z M435.1,106.5H421v-3.6h5.2c-0.5-1.6-1.3-3.4-2.1-4.8l3.7-1.1c1,1.8,2,4.1,2.7,5.9h4.6V106.5z M423.6,115.7
				c0-2.1-0.6-5.3-1.4-7.8l3-0.8c0.9,2.4,1.5,5.6,1.6,7.7L423.6,115.7z"/>
			<path class="st138" d="M443.8,132.8l2.7-3.6c2.1,2.1,4.7,3.9,8.4,3.9c4,0,6.7-2.2,6.7-5.9c0-3.9-2.5-6.5-10.5-6.5v-4.1
				c7,0,9.3-2.6,9.3-6.2c0-3.1-2.1-5.1-5.4-5.1c-2.7,0-5,1.4-7.1,3.4l-2.9-3.5c2.8-2.5,6-4.3,10.1-4.3c6.3,0,10.8,3.3,10.8,9.1
				c0,4.1-2.4,6.9-6.1,8.3v0.2c4.1,1,7.3,4.1,7.3,8.8c0,6.4-5.3,10.1-11.8,10.1C449.7,137.7,446.1,135.5,443.8,132.8z"/>
			<path class="st138" d="M501.3,115.2V129c4.7-2.9,8.3-6.8,10.8-11.8l4.4,2.1c-6.7,12.7-18.9,18.7-37,21.4
				c-0.4-1.3-1.3-3.1-2.3-4.2c9.2-1.2,16.9-3.3,22.9-6.7h-3.6v-14.6h-19V111h6.9v-10.7h4.5V111h8.1V96.8h4.8v4.5h13.9v4.2h-13.9v5.4
				h17.8v4.2H501.3z M492.5,118.4c-2.6,4.3-6.9,8.8-10.6,11.6c-0.7-0.9-2.4-2.6-3.4-3.4c3.6-2.4,7.4-6,9.6-9.8L492.5,118.4z"/>
			<path class="st138" d="M529.2,137c0.8-2.8,1.6-7.4,1.9-10.6l2.3,0.8c-0.3,3.3-1,7.9-1.8,10.8L529.2,137z M547.4,120.6
				c0,0,0,1.1,0,1.6c-0.5,11.3-1.1,15.5-2.2,16.9c-0.7,1-1.5,1.3-2.6,1.5c-0.9,0.1-2.5,0.1-4.2,0c-0.1-1.1-0.4-2.6-0.9-3.6
				c1.5,0.1,2.8,0.2,3.5,0.2c0.6,0,0.9-0.1,1.3-0.6c0.4-0.5,0.7-2,1-4.9l-1.4,0.5c-0.4-1.7-1.3-4.3-2.2-6.2l1.7-0.7
				c0.8,1.4,1.5,3.3,2,4.8c0.1-1.7,0.2-3.7,0.4-6.1h-12.5V98.7h15.4v3.6H542v3.6h4v3.5h-4v3.8h4v3.5h-4v3.8H547.4z M536.2,127
				c0.5,2.7,0.7,6.4,0.6,8.7l-2.1,0.3c0.1-2.4-0.1-6-0.5-8.8L536.2,127z M534.8,102.3v3.6h3.8v-3.6H534.8z M538.6,109.5h-3.8v3.8
				h3.8V109.5z M534.8,120.6h3.8v-3.8h-3.8V120.6z M538.6,134.5c-0.1-2.1-0.8-5.3-1.5-7.7l1.9-0.3c0.8,2.4,1.5,5.6,1.6,7.6
				L538.6,134.5z M549.6,114.4v-12.3h-1.3v-3.2h13v3.2h-1.2v16.5h-3.2v-2.2c-3,0.5-6,1-8.6,1.4l-0.7-3.2L549.6,114.4z M555.2,124.3
				c-0.2,1.2-0.4,2.2-0.8,3.3c1.5,2.2,3.1,5,3.9,6.7l-2.4,1.8c-0.5-1.3-1.5-3.3-2.6-5.2c-1.1,2.4-2.4,4.6-4,6.1
				c-0.2-0.8-1-2.6-1.4-3.4c2.3-2.3,3.9-5.8,4.7-9.9L555.2,124.3z M569.9,120.3c-2.2,0.7-4.8,1.2-7.6,1.6v18.8h-3.9v-18.2
				c-2.4,0.3-4.8,0.4-7,0.6c-0.1-0.8-0.6-2.1-1-2.9c5.8-0.4,12.6-1.2,16.4-2.4L569.9,120.3z M552.8,102.1v1.9h4.1v-1.9H552.8z
				 M552.8,108.7h4.1v-2.2h-4.1V108.7z M552.8,114l4.1-0.6v-2.1h-4.1V114z M563.6,104.1c1.1,1.1,2.3,2.3,3.4,3.6
				c0.7-1.5,1.3-3.1,1.8-4.8H562v-3.4h8l0.6-0.1l2.1,0.6c-0.7,4-1.8,7.5-3.4,10.4c1.6,1.9,3.1,3.7,4.1,5l-2.7,2.5
				c-0.8-1.2-2-2.8-3.3-4.5c-1.4,1.8-2.9,3.4-4.7,4.5c-0.4-0.9-1.3-2.2-2.1-2.9c1.6-1,3.1-2.5,4.5-4.3c-1.4-1.6-2.8-3.2-4.1-4.6
				L563.6,104.1z M569.7,123.2c-0.2,1.2-0.5,2.4-0.8,3.5c0.8,2.7,2.1,5.6,3.8,7.1c-0.7,0.6-1.8,1.7-2.3,2.4
				c-1.2-1.2-2.3-3.1-3.1-5.2c-1,2.2-2.1,4.1-3.6,5.5c-0.2-0.8-0.9-2.6-1.4-3.4c2.3-2.4,3.8-6.2,4.5-10.5L569.7,123.2z"/>
			<path class="st138" d="M260.7,198.4c1.2-3.2,2.1-8.5,2.4-12.3l3.3,0.5c-0.2,3.9-1.1,9.5-2.3,13L260.7,198.4z M274.7,194.9
				c-0.5-2.1-1.7-5.4-3-8.1v34h-4.4v-44h4.4v8.8l2.6-1.1c1.5,2.8,3.1,6.5,3.6,8.8L274.7,194.9z M305.3,198.3v4.2h-14.9
				c-1.3,6.8-4.9,13.6-13.6,18.5c-0.6-0.9-2.1-2.6-3.2-3.5c7.9-3.9,11-9.4,12.2-15h-10.5v-4.2h11.1c0.1-1.8,0.2-3.6,0.2-5.3v-4.7
				h-8.8v-4.1h8.8v-7.4h4.5v7.4h10.5v14.1H305.3z M291.2,193c0,1.7,0,3.5-0.2,5.3h6.3v-10h-6.1V193z M295.1,203.4
				c3.3,4.7,7.8,11.1,10,15l-4.1,2.3c-2-3.9-6.4-10.5-9.7-15.5L295.1,203.4z"/>
			<path class="st138" d="M327.3,199.8c-0.8,4.3-2.4,8.6-4.4,12.1c0.8,0.4,1.8,1.2,3.2,2c3.4,1.9,7.8,2.2,13.3,2.2
				c5.8,0,14-0.4,19.4-1.1c-0.6,1.2-1.3,3.5-1.4,4.7c-3.6,0.2-12.5,0.5-18.2,0.5c-6.2,0-10.3-0.5-13.8-2.5c-2-1.1-3.7-2.6-4.7-2.6
				c-1.1,0-2.8,3-4.2,5.8l-2.9-4.2c1.3-1.8,2.8-3.4,4.2-4.4l0,0c2.1-2.5,3.6-6.1,4.7-9.6h-6.8c1.3-2.8,2.9-6.8,4.3-10.5h-5.6v-4
				h11.3c-1.2,3.4-2.7,7.3-4.2,10.7h2.4l0.7-0.1L327.3,199.8z M320.3,186.2c-0.8-2-2.5-5.5-3.7-8l3.9-1.3c1.2,2.5,2.9,5.7,3.8,7.7
				L320.3,186.2z M339.8,185.2h-12.3v-3.7h12.3v-4.6h4.3v4.6h13.1v3.7h-13.1v3.4h11.2v12.2h-9.7c4.1,2.6,8.7,6,11.1,8.4l-2.7,3
				c-2.1-2.3-6-5.4-9.8-8v9.9h-4.3v-10.1c-2.8,3.7-6.6,7-10.3,8.9c-0.7-1-1.9-2.6-2.9-3.4c4.1-1.8,8.6-5.1,11.3-8.8h-8.8v-12.2h10.7
				V185.2z M333.3,197.2h6.6v-5.2h-6.6V197.2z M344.2,192.1v5.2h6.9v-5.2H344.2z"/>
			<path class="st138" d="M406.3,181.1c-2.7,11.1-7.5,19.6-13.9,26c5.1,4.3,11.3,7.3,18.9,9.2c-1,1-2.3,2.9-3,4.1
				c-7.9-2.1-14.3-5.5-19.4-10c-5.6,4.6-12.1,7.9-19.2,10c-0.5-1.2-1.8-3.3-2.8-4.2c7-1.9,13.3-4.8,18.7-9.1
				c-5.5-6-9.5-13.6-12.3-22.6l0.7-0.2h-4v-4.4h32.6l0.8-0.2L406.3,181.1z M377.8,184.3c2.4,7.7,6.2,14.4,11.3,19.7
				c5.2-5,9.2-11.5,11.6-19.7H377.8z"/>
			<path class="st138" d="M438.4,189.1c-0.1,2.3-0.3,4.6-0.6,6.8h20.4c0,0,0,1.4-0.2,2c-0.9,13.2-1.8,18.5-3.7,20.5
				c-1.3,1.3-2.5,1.7-4.6,1.9c-1.8,0.1-4.9,0.1-8.1-0.1c0-1.3-0.7-3.1-1.6-4.4c3.4,0.3,6.7,0.3,8,0.3c1.1,0,1.7-0.1,2.3-0.6
				c1.3-1.1,2.2-5.6,3-15.4h-16.2c-1.5,8.3-5,16-13.9,20.8c-0.7-1.2-2.1-2.7-3.3-3.6c11.9-6,13-17.7,13.5-28.3h-12.6v-4.4h20.5
				c-0.6-1.9-1.9-4.7-3-6.7l4.4-1.6c1.2,2.2,2.7,5,3.4,7l-3.2,1.4h19.7v4.4H438.4z"/>
			<path class="st138" d="M486.7,178.2c-1.2,3.5-2.8,7.1-4.5,10.5v32.1H478v-25c-1.1,1.5-2.2,2.9-3.3,4.2c-0.4-1.1-1.7-3.5-2.5-4.5
				c4.2-4.5,8-11.6,10.3-18.5L486.7,178.2z M502.8,205.4c-0.5,2.8-1.5,5.4-3.3,7.7c4.8,1.9,10.8,2.9,17.6,3.3c-1,1-2.1,2.9-2.7,4.1
				c-7-0.6-13.1-2-18-4.3c-2.4,1.9-5.8,3.5-10.1,4.8c-0.5-1.1-1.8-2.8-2.7-3.6c3.8-0.9,6.7-2,8.9-3.3c-2.5-1.7-4.7-3.8-6.4-6.3
				l3.9-1.3c1.4,2,3.3,3.6,5.7,4.9c1.6-1.8,2.4-3.8,2.8-6h-10.9v-18.5h11.4v-3.6h-12.4v-3.9h29.2v3.9h-12.4v3.6h11v18.5H502.8z
				 M491.7,194.6h7.2v-4.3h-7.2V194.6z M498.9,202c0-0.7,0-1.5,0-2.3v-2.1h-7.2v4.3H498.9z M510,197.7h-6.7v2.1c0,0.7,0,1.5,0,2.2
				h6.7V197.7z M503.3,190.2v4.3h6.7v-4.3H503.3z"/>
			<path class="st138" d="M530.9,213.2c0-2.5,2-4.2,4.4-4.2c2.4,0,4.4,1.7,4.4,4.2s-2,4.2-4.4,4.2
				C532.9,217.4,530.9,215.7,530.9,213.2z M531.9,187.5l-0.1-6.3h7.1l-0.1,6.3l-1.4,17.7h-3.9L531.9,187.5z"/>
		</g>
	</g>
</g>
</svg>
