<?xml version="1.0" encoding="utf-8"?>
<!-- Generator: Adobe Illustrator 24.2.1, SVG Export Plug-In . SVG Version: 6.00 Build 0)  -->
<svg version="1.1" id="圖層_1" xmlns="http://www.w3.org/2000/svg" xmlns:xlink="http://www.w3.org/1999/xlink" x="0px" y="0px"
	 viewBox="0 0 570.7 371.7" style="enable-background:new 0 0 570.7 371.7;" xml:space="preserve">
<style type="text/css">
	.st0{opacity:0.75;}
	.st1{fill:#EEEEEF;}
	.st2{fill:url(#SVGID_3_);}
	.st3{fill:url(#SVGID_4_);}
	.st4{fill:url(#SVGID_5_);}
	.st5{fill:url(#SVGID_6_);}
	.st6{fill:url(#SVGID_7_);}
	.st7{fill:url(#SVGID_8_);}
	.st8{fill:#888888;}
	.st9{fill:#FFFFFF;}
	.st10{fill:#D0392A;}
	.st11{filter:url(#Adobe_OpacityMaskFilter);}
	.st12{fill:none;stroke:#3E3A39;stroke-width:2;stroke-miterlimit:10;}
	.st13{opacity:0.3;fill:#FFFFFF;}
	.st14{fill:#036EB7;}
	.st15{fill:url(#SVGID_10_);}
	.st16{fill:url(#SVGID_11_);}
	.st17{fill:url(#SVGID_12_);}
	.st18{fill:url(#SVGID_13_);}
	.st19{fill:url(#SVGID_14_);}
	.st20{fill:url(#SVGID_15_);}
	.st21{fill:url(#SVGID_16_);}
	.st22{fill:url(#SVGID_17_);}
	.st23{fill:url(#SVGID_18_);}
	.st24{fill:url(#SVGID_19_);}
	.st25{fill:url(#SVGID_20_);}
	.st26{fill:url(#SVGID_21_);}
	.st27{fill:url(#SVGID_22_);}
	.st28{fill:url(#SVGID_23_);}
	.st29{fill:url(#SVGID_24_);}
	.st30{fill:url(#SVGID_25_);}
	.st31{fill:url(#SVGID_26_);}
	.st32{fill:url(#SVGID_27_);}
	.st33{fill:url(#SVGID_28_);}
	.st34{fill:url(#SVGID_29_);}
	.st35{fill:url(#SVGID_30_);}
	.st36{fill:url(#SVGID_31_);}
	.st37{fill:url(#SVGID_32_);}
	.st38{fill:url(#SVGID_33_);}
	.st39{fill:url(#SVGID_34_);}
	.st40{fill:url(#SVGID_35_);}
	.st41{fill:url(#SVGID_36_);}
	.st42{fill:url(#SVGID_37_);}
	.st43{fill:url(#SVGID_38_);}
	.st44{fill:url(#SVGID_39_);}
	.st45{fill:url(#SVGID_40_);}
	.st46{fill:url(#SVGID_41_);}
	.st47{fill:url(#SVGID_42_);}
	.st48{fill:url(#SVGID_43_);}
	.st49{fill:url(#SVGID_44_);}
	.st50{fill:url(#SVGID_45_);}
	.st51{fill:url(#SVGID_46_);}
	.st52{fill:url(#SVGID_47_);}
	.st53{fill:url(#SVGID_48_);}
	.st54{fill:url(#SVGID_49_);}
	.st55{fill:url(#SVGID_50_);}
	.st56{fill:url(#SVGID_51_);}
	.st57{fill:url(#SVGID_52_);}
	.st58{fill:url(#SVGID_53_);}
	.st59{fill:url(#SVGID_54_);}
	.st60{fill:url(#SVGID_55_);}
	.st61{fill:url(#SVGID_56_);}
	.st62{fill:url(#SVGID_57_);}
	.st63{fill:url(#SVGID_58_);}
	.st64{fill:url(#SVGID_59_);}
	.st65{fill:url(#SVGID_60_);}
	.st66{fill:url(#SVGID_61_);}
	.st67{fill:url(#SVGID_62_);}
	.st68{fill:url(#SVGID_63_);}
	.st69{fill:url(#SVGID_64_);}
	.st70{fill:url(#SVGID_65_);}
	.st71{fill:url(#SVGID_66_);}
	.st72{fill:none;stroke:#036EB7;stroke-width:2;stroke-miterlimit:10;}
	.st73{fill:url(#SVGID_67_);}
	.st74{fill:url(#SVGID_68_);}
	.st75{fill:url(#SVGID_69_);}
	.st76{fill:url(#SVGID_70_);}
	.st77{fill:url(#SVGID_71_);}
	.st78{fill:url(#SVGID_72_);}
	.st79{fill:url(#SVGID_73_);}
	.st80{fill:url(#SVGID_74_);}
	.st81{fill:url(#SVGID_75_);}
	.st82{fill:url(#SVGID_76_);}
	.st83{fill:url(#SVGID_77_);}
	.st84{fill:url(#SVGID_78_);}
	.st85{fill:url(#SVGID_79_);}
	.st86{fill:#B3B3B3;}
	.st87{fill:#777778;}
	.st88{fill:url(#SVGID_80_);}
	.st89{fill:url(#SVGID_81_);}
	.st90{fill:url(#SVGID_82_);}
	.st91{fill:url(#SVGID_83_);}
	.st92{fill:url(#SVGID_84_);}
	.st93{fill:url(#SVGID_85_);}
	.st94{fill:url(#SVGID_86_);}
	.st95{clip-path:url(#SVGID_88_);fill:url(#SVGID_89_);}
	.st96{clip-path:url(#SVGID_91_);}
	.st97{fill:url(#SVGID_92_);}
	.st98{fill:url(#SVGID_93_);}
	.st99{fill:url(#SVGID_94_);}
	.st100{fill:#124380;}
	.st101{opacity:0.82;fill:url(#SVGID_95_);}
	.st102{opacity:0.21;fill:url(#SVGID_96_);}
	.st103{opacity:0.82;fill:url(#SVGID_97_);}
	.st104{opacity:0.21;fill:url(#SVGID_98_);}
	.st105{opacity:0.82;fill:url(#SVGID_99_);}
	.st106{opacity:0.21;fill:url(#SVGID_100_);}
	.st107{fill:#C7391A;}
	.st108{fill:#083A6E;}
	.st109{fill:#3D3A39;}
	.st110{fill:#0A559A;}
	.st111{fill:#2E3D47;}
	.st112{fill:#E72410;}
	.st113{fill-rule:evenodd;clip-rule:evenodd;fill:#E72410;}
	.st114{fill:#124385;}
	.st115{opacity:0.82;fill:url(#SVGID_101_);}
	.st116{opacity:0.21;fill:url(#SVGID_102_);}
	.st117{opacity:0.82;fill:url(#SVGID_103_);}
	.st118{opacity:0.21;fill:url(#SVGID_104_);}
	.st119{opacity:0.82;fill:url(#SVGID_105_);}
	.st120{opacity:0.21;fill:url(#SVGID_106_);}
	.st121{fill:#CE391A;}
	.st122{fill:url(#SVGID_107_);}
	.st123{fill:none;stroke:url(#SVGID_108_);stroke-width:2;stroke-miterlimit:10;}
	.st124{fill:url(#SVGID_109_);}
	.st125{fill:url(#SVGID_112_);}
	.st126{clip-path:url(#SVGID_114_);}
	.st127{fill:none;stroke:#FF9825;stroke-width:1.4185;stroke-linecap:round;stroke-miterlimit:10;}
	.st128{fill:url(#SVGID_117_);}
	.st129{fill:url(#SVGID_120_);}
	.st130{clip-path:url(#SVGID_122_);}
	.st131{fill:url(#SVGID_125_);}
	.st132{fill:none;stroke:url(#SVGID_126_);stroke-width:2;stroke-miterlimit:10;}
	.st133{fill:url(#SVGID_127_);}
	.st134{fill:url(#SVGID_128_);}
	.st135{fill:url(#SVGID_129_);}
	.st136{fill:url(#SVGID_130_);}
	.st137{fill:url(#SVGID_131_);}
	.st138{fill:#717071;}
	.st139{fill:#E50012;}
	.st140{fill:url(#SVGID_132_);}
	.st141{fill:url(#SVGID_133_);}
	.st142{fill:url(#SVGID_134_);}
	.st143{fill:url(#SVGID_135_);}
	.st144{fill:url(#SVGID_136_);}
	.st145{fill:url(#SVGID_137_);}
	.st146{fill:url(#SVGID_138_);}
	.st147{fill:url(#SVGID_139_);}
	.st148{fill:url(#SVGID_140_);}
	.st149{fill:url(#SVGID_141_);}
	.st150{fill:url(#SVGID_142_);}
	.st151{fill:url(#SVGID_143_);}
	.st152{fill:url(#SVGID_144_);}
	.st153{fill:url(#SVGID_145_);}
	.st154{fill:url(#SVGID_146_);}
	.st155{fill:url(#SVGID_147_);}
	.st156{fill:url(#SVGID_148_);}
	.st157{fill:url(#SVGID_149_);}
	.st158{fill:url(#SVGID_150_);}
	.st159{fill:url(#SVGID_151_);}
	.st160{fill:url(#SVGID_152_);}
	.st161{fill:url(#SVGID_153_);}
	.st162{fill:url(#SVGID_154_);}
	.st163{fill:url(#SVGID_155_);}
	.st164{fill:url(#SVGID_156_);}
	.st165{fill:url(#SVGID_157_);}
	.st166{fill:url(#SVGID_158_);}
	.st167{fill:url(#SVGID_159_);}
	.st168{fill:url(#SVGID_160_);}
	.st169{fill:url(#SVGID_161_);}
	.st170{fill:url(#SVGID_162_);}
	.st171{fill:url(#SVGID_163_);}
	.st172{fill:url(#SVGID_164_);}
	.st173{fill:url(#SVGID_165_);}
	.st174{fill:url(#SVGID_166_);}
	.st175{fill:url(#SVGID_167_);}
	.st176{fill:url(#SVGID_168_);}
	.st177{clip-path:url(#SVGID_170_);fill:url(#SVGID_171_);}
	.st178{clip-path:url(#SVGID_173_);}
	.st179{fill:url(#SVGID_174_);}
	.st180{fill:url(#SVGID_175_);}
	.st181{fill:url(#SVGID_176_);}
	.st182{fill:url(#SVGID_177_);}
	.st183{fill:none;stroke:url(#SVGID_178_);stroke-width:2;stroke-miterlimit:10;}
	.st184{fill:url(#SVGID_179_);}
	.st185{fill:url(#SVGID_182_);}
	.st186{clip-path:url(#SVGID_184_);}
	.st187{fill:url(#SVGID_187_);}
	.st188{fill:url(#SVGID_190_);}
	.st189{clip-path:url(#SVGID_192_);}
</style>
<g>
	<g class="st0">
		
			<image style="overflow:visible;opacity:0.15;" width="2459" height="1629" xlink:href="BCAF6C88.png"  transform="matrix(0.24 0 0 0.24 -7.1453 -7.1222)">
		</image>
		<g>
			<path class="st1" d="M541,361.7H21c-11,0-20-9-20-20V21C1,10,10,1,21,1h520c11,0,20,9,20,20v320.7C561,352.7,552,361.7,541,361.7
				z"/>
		</g>
	</g>
	<g>
		<linearGradient id="SVGID_2_" gradientUnits="userSpaceOnUse" x1="224.7632" y1="14.7258" x2="364.0259" y2="153.9885">
			<stop  offset="0" style="stop-color:#606EB2"/>
			<stop  offset="1" style="stop-color:#4490CC"/>
		</linearGradient>
		<path style="fill:url(#SVGID_2_);" d="M268,129.1c-1.6,0-3.1-0.8-4-2.2l-26.1-40.3c-0.5-0.8-0.8-1.7-0.8-2.6c0-2,1.3-3.8,3.2-4.5
			c30-10.5,50.5-25.3,66.5-48c0.9-1.3,2.4-2.1,3.9-2.1c1.5,0,3,0.8,3.9,2L343,71.8c0.6,0.8,0.9,1.8,0.9,2.7c0,1.3-0.5,2.5-1.4,3.4
			c-29.9,28.7-35.3,32.5-72.4,50.7C269.4,128.9,268.7,129.1,268,129.1z M310.7,34.2c-16.4,23.3-38.2,39.1-68.8,49.8l26.1,40.3
			c36.4-17.9,41.8-21.6,71.2-49.8l0,0L310.7,34.2z"/>
		<linearGradient id="SVGID_3_" gradientUnits="userSpaceOnUse" x1="224.7124" y1="14.7788" x2="363.9722" y2="154.0386">
			<stop  offset="0" style="stop-color:#606EB2"/>
			<stop  offset="1" style="stop-color:#4490CC"/>
		</linearGradient>
		<path class="st2" d="M276.2,113.7l-1.2-1.5c-1.7-2.1-4.5-2.7-6.9-1.4l-1.9,1.1l-12.2-18.8l2-1.3c1.6-1,2.5-2.8,2.5-4.6
			c0-0.7-0.1-1.4-0.4-2.1l-0.9-2.2l2.1-0.9c17.8-7.7,32.3-17.6,44.1-30.4l1.7-1.8l1.7,1.7c1,1,2.4,1.6,3.9,1.6
			c1.5,0,2.7-0.7,3.4-1.2l2-1.6l12.1,17.1l-1.5,1.4c-1.1,1.1-1.7,2.5-1.7,4c0,1.6,0.7,2.7,1.2,3.4l1.4,1.7l-1.6,1.5
			c-17.2,15.9-26.1,22.1-48,33.2L276.2,113.7z M270.7,105.4c2.4,0,4.8,0.9,6.6,2.5c19.7-10.1,28.5-16.1,43.9-30.4
			c-0.7-1.4-1.1-2.9-1.1-4.5c0-2.1,0.6-4.2,1.9-5.9L314.9,57c-3,1.4-6.7,1.2-9.5-0.5c-11.6,12.1-25.4,21.6-42.3,29.1
			c0.1,0.5,0.1,1.1,0.1,1.6c0,2.7-1,5.2-2.9,7.1l7.5,11.5C268.7,105.5,269.7,105.4,270.7,105.4z"/>
		<linearGradient id="SVGID_4_" gradientUnits="userSpaceOnUse" x1="223.5799" y1="15.9142" x2="362.8369" y2="155.1712">
			<stop  offset="0" style="stop-color:#606EB2"/>
			<stop  offset="1" style="stop-color:#4490CC"/>
		</linearGradient>
		<circle class="st3" cx="291.7" cy="84" r="4.7"/>
		<linearGradient id="SVGID_5_" gradientUnits="userSpaceOnUse" x1="191.4852" y1="48.0029" x2="330.7479" y2="187.2656">
			<stop  offset="0" style="stop-color:#606EB2"/>
			<stop  offset="1" style="stop-color:#4490CC"/>
		</linearGradient>
		<path class="st4" d="M249,171.8c-1.6,0-3.1-0.8-4-2.2l-26.1-40.3c-0.5-0.8-0.8-1.7-0.8-2.6c0-2,1.3-3.8,3.2-4.5
			c8.8-3.1,16.6-6.5,23.8-10.3l2.2,4.2c-7.4,4-15.4,7.4-24.5,10.6L249,167c36.4-17.9,41.8-21.6,71.2-49.8l-5.4-7.6l3.9-2.7l5.3,7.6
			c0.6,0.8,0.9,1.8,0.9,2.7c0,1.3-0.5,2.5-1.4,3.4c-29.9,28.7-35.3,32.5-72.4,50.7C250.4,171.6,249.7,171.8,249,171.8z"/>
		<linearGradient id="SVGID_6_" gradientUnits="userSpaceOnUse" x1="189.0916" y1="50.3966" x2="328.3544" y2="189.6594">
			<stop  offset="0" style="stop-color:#606EB2"/>
			<stop  offset="1" style="stop-color:#4490CC"/>
		</linearGradient>
		<path class="st5" d="M257.2,156.4l-1.2-1.5c-1.7-2.1-4.5-2.7-6.9-1.4l-1.9,1.1L235,135.8l2-1.3c1.6-1,2.5-2.8,2.5-4.6
			c0-0.7-0.1-1.4-0.4-2.1l-0.9-2.2l2.1-0.9c4.5-1.9,8.1-3.7,11.8-5.7l2.3,4.2c-3.3,1.8-6.6,3.4-10.3,5c0.1,0.5,0.1,1.1,0.1,1.6
			c0,2.7-1,5.2-2.9,7.1l7.5,11.5c3.3-1,6.9-0.2,9.5,2c20.3-10.4,29-16.5,45.4-31.7l3.2,3.5c-17.2,15.9-26.1,22.1-48,33.2
			L257.2,156.4z"/>
	</g>
	<g>
		<g>
			<path class="st14" d="M186.2,210.8c-2,1.4-4,2.6-6,3.6c-0.7-0.9-2.3-2.4-3.2-3.2c5.1-2.2,10.6-5.9,13.8-9.7l4,1.5
				c-1.2,1.6-2.8,3.1-4.4,4.5v10h-4.3V210.8z M196,240.1c-3.9,2.4-9.9,4.7-14.7,6c-0.8-0.9-2.4-2.5-3.4-3.3c4.9-1,10.7-2.6,14-4.5
				L196,240.1z M184.1,218.8h31.3v19.3h-31.3V218.8z M188.4,224.3H211v-2.7h-22.6V224.3z M188.4,229.7H211V227h-22.6V229.7z
				 M188.4,235.3H211v-2.8h-22.6V235.3z M199.7,207.4c-0.8-1.7-1.3-3.6-1.5-5.6h4.1c0.2,2,0.9,3.7,1.8,5.3l9.5-0.5
				c-2-1-4.9-2-7.4-2.6l2.1-2.3c2.7,0.5,6.4,1.7,8.4,2.8l-1.8,2l5.1-0.3l0.3,3.4l-13.6,0.9c2.6,2.6,6,4.2,8.9,4.2
				c1.3,0,1.6-0.9,1.8-3.5c0.9,0.7,2.3,1.3,3.4,1.6c-0.6,4.7-2,5.8-5.4,5.8c-5.1,0-10.5-2.9-13.9-7.8l-9,0.6l-0.3-3.5L199.7,207.4z
				 M206.5,238.3c5.1,1.7,10.9,3.9,14.4,5.6l-5.1,2.1c-2.8-1.5-7.9-3.7-12.9-5.4L206.5,238.3z"/>
			<path class="st14" d="M237.4,232.4c-1.2,3.6-2.8,7.5-4.2,10.2c-0.8-0.5-2.5-1.3-3.5-1.6c1.6-2.5,3.1-6.2,4-9.5L237.4,232.4z
				 M243.9,230.2v15.6h-4.2v-15.6h-9.6v-3.7h23.2v3.7H243.9z M239.7,209.7h-8.9v-3.6h8.9v-4h4.2v4h9v3.6h-9v3.4h8v3.6h-20v-3.6h7.8
				V209.7z M251.3,220.7c2.8-4.8,4.4-11.7,5.2-18.8l4.4,0.6c-0.4,2.7-0.9,5.4-1.4,8h10.8l0.7-0.2l3,0.9c-0.9,4.5-2.3,9.6-3.5,12.9
				l-3.6-1.1c0.8-2.2,1.6-5.3,2.2-8.4h-10.5c-1.1,3.7-2.4,7-4,9.6c-0.7-0.6-2.1-1.6-3.2-2.3v1.6h-19.1v-3.6h19.1V220.7z
				 M249.4,231.5c1.3,2.4,2.8,5.5,3.5,7.4l-3.6,1.6c-0.6-2-2-5.2-3.2-7.7L249.4,231.5z M264.4,220.2c0,1.4,0,2.9-0.1,4.6
				c1.6,7.7,4.9,14.4,10.5,17.3c-1,0.9-2.4,2.6-3,3.7c-4.2-2.6-7.1-7.1-9-12.6c-1.4,4.4-3.8,8.9-8.1,12.8c-0.8-1-2.3-2.4-3.4-3
				c8.3-7.2,9-16.6,9-22.9v-2.2h4.2V220.2z"/>
			<path class="st14" d="M307.3,220v5.8h16.1v4h-16.1v10.7h18.4v4.1h-41.2v-4.1h18.1v-10.7h-15.8v-4h15.8V220h-10v-2.5
				c-2.3,1.2-4.6,2.2-7,3.1c-0.6-1.3-1.9-3-3-4.1c8.9-2.7,17.6-8,22.2-15.1l4.2,1.9c-0.4,0.6-0.8,1.2-1.2,1.8
				c4.7,4.7,12.8,9.3,20,11.4c-1,0.9-2.4,2.7-3.1,3.9c-2.4-0.9-4.8-2-7.2-3.3v2.9H307.3z M294,230.3c1.8,2.5,3.7,6,4.5,8.3l-3.9,1.7
				c-0.7-2.3-2.5-5.9-4.3-8.5L294,230.3z M315.2,215.9c-3.7-2.3-7.3-4.9-10.2-7.8c-2.8,3-6,5.6-9.6,7.8H315.2z M310.9,238.9
				c1.6-2.3,3.6-6,4.7-8.6l4.3,1.6c-1.8,3-3.9,6.3-5.6,8.4L310.9,238.9z"/>
			<path class="st14" d="M355,231.4v14.3H351v-1.3h-7.5v1.4h-3.8V232c-0.7,0.3-1.4,0.6-2.1,0.9c-0.4-1-1.5-2.8-2.2-3.6
				c3.1-1,6.2-2.5,8.8-4.5c-1.1-0.7-2.2-1.3-3.2-1.9l2.5-2.7c1.1,0.6,2.3,1.3,3.6,2c1.2-1.2,2.4-2.7,3.3-4.3H344
				c-1.4,2.1-3.1,4-5.4,5.6c-0.4-0.9-1.5-2.4-2.3-2.9c3.7-2.5,6-6,7.1-9.3l3.5,0.7c-0.3,0.9-0.7,1.7-1.1,2.5h6.6l0.6-0.1l2.3,1.6
				c-1.2,3.1-2.9,5.8-4.9,8.1c2.7,1.6,5.4,3.3,7.1,4.5L355,231.4z M340,214.7h-3.3v-8.3h8.5c-0.4-1.2-0.9-2.3-1.2-3.3l3.5-1.2
				c0.7,1.3,1.4,3.2,2,4.6h7.8v8.3h-3.5v-4.7H340V214.7z M354.2,231.2c-1.7-1.2-4-2.8-6.5-4.4c-2,1.8-4.2,3.3-6.4,4.4H354.2z
				 M351,240.8v-6.1h-7.5v6.1H351z M367.9,239.9c-2.8,2.3-6.9,4.7-10,6.2c-0.4-0.9-1.3-2.4-1.9-3.3c2.9-1.3,6.9-3.7,9.1-5.7
				L367.9,239.9z M366,211.8c0.3-1.2,0.5-2.7,0.8-4.1h-8.2V204h20.9v3.8h-8.6c-0.4,1.4-0.8,2.8-1.2,4.1h8.4v24.9h-18.3v-24.9H366z
				 M373.9,215.3h-10.1v3.7h10.1V215.3z M373.9,222.4h-10.1v3.7h10.1V222.4z M373.9,229.4h-10.1v3.8h10.1V229.4z M372.1,236.9
				c2.6,1.6,6.2,4.2,8,5.9l-2.5,3.1c-1.7-1.7-5.2-4.4-7.9-6.2L372.1,236.9z"/>
		</g>
	</g>
	<g>
		<g>
			<path class="st138" d="M221.8,292c-1,3.2-2.5,5.7-4.6,7.8c1.8,1.3,3.9,2.2,6.3,2.8c-0.7,0.6-1.5,1.8-1.9,2.5
				c-2.4-0.7-4.7-1.9-6.5-3.3c-1.9,1.5-4.1,2.6-6.4,3.5c-0.3-0.7-1-1.8-1.7-2.4v2.5h-3v-3.1c-4.1,0.4-8.1,0.9-11.2,1.3l-0.3-2.8
				c0.9-0.1,2-0.2,3.1-0.3v-10.9h-2.8V287h29.8v2.5h-15.6v13.2c2.1-0.6,4.1-1.6,5.9-3c-1.5-1.6-2.7-3.6-3.6-5.7l0.8-0.2h-2v-2.5
				h11.2l0.5-0.1L221.8,292z M199.8,285.6h-3v-10.4h21.9v10.4h-3.2v-8.1h-15.7V285.6z M198.4,289.5v1.9h5.6v-1.9H198.4z
				 M198.4,295.6h5.6v-1.9h-5.6V295.6z M198.4,300.2c1.8-0.2,3.7-0.4,5.6-0.6v-1.6h-5.6V300.2z M214.1,279.1v2h-12.9v-2H214.1z
				 M201.1,282.7h13v2h-13V282.7z M212,293.8c0.7,1.5,1.7,2.9,2.9,4.1c1.2-1.2,2.2-2.6,3-4.1H212z"/>
			<path class="st138" d="M259.9,277.5v2.7h-29.6v-2.7h13.5c-0.3-0.9-0.6-1.9-1-2.8l3.2-0.7c0.4,1.1,1,2.4,1.3,3.5H259.9z
				 M259,302.2c0,1.5-0.4,2.1-1.4,2.5c-1.1,0.4-2.6,0.4-4.9,0.4c-0.2-0.7-0.6-1.7-1-2.3c1.4,0.1,3.1,0.1,3.5,0
				c0.4,0,0.6-0.1,0.6-0.5V293h-21.3v12.3h-3.1v-14.9H259V302.2z M255.5,281.8v7h-20.4v-7H255.5z M240.6,301.9v1.6h-2.9v-8.7h14.4
				v7.2H240.6z M252.2,284h-13.9v2.5h13.9V284z M240.6,297v2.6h8.7V297H240.6z"/>
			<path class="st139" d="M266.5,299.6l1.9-2.5c1.5,1.5,3.3,2.8,5.9,2.8c2.8,0,4.8-1.6,4.8-4.1c0-2.8-1.8-4.6-7.4-4.6v-2.9
				c4.9,0,6.6-1.9,6.6-4.4c0-2.2-1.5-3.6-3.8-3.6c-1.9,0-3.6,1-5,2.4l-2-2.4c2-1.8,4.3-3,7.2-3c4.5,0,7.6,2.3,7.6,6.5
				c0,2.9-1.7,4.9-4.3,5.9v0.2c2.9,0.7,5.2,2.9,5.2,6.3c0,4.5-3.8,7.2-8.4,7.2C270.7,303.1,268.1,301.5,266.5,299.6z"/>
			<path class="st139" d="M289.9,290c0-8.7,3.2-12.9,8.1-12.9c4.9,0,8.1,4.2,8.1,12.9c0,8.7-3.2,13.1-8.1,13.1
				C293.1,303.1,289.9,298.7,289.9,290z M302.4,290c0-7.2-1.8-9.8-4.4-9.8s-4.4,2.6-4.4,9.8c0,7.2,1.8,10,4.4,10
				S302.4,297.3,302.4,290z"/>
			<path class="st139" d="M312.7,290c0-8.7,3.2-12.9,8.1-12.9c4.9,0,8.1,4.2,8.1,12.9c0,8.7-3.2,13.1-8.1,13.1
				C315.8,303.1,312.7,298.7,312.7,290z M325.1,290c0-7.2-1.8-9.8-4.4-9.8s-4.4,2.6-4.4,9.8c0,7.2,1.8,10,4.4,10
				S325.1,297.3,325.1,290z"/>
			<path class="st139" d="M343.3,278.7h-7.4V276h7.4v-1.9h3.1v1.9h3.8v2.7h-3.8v1.8h-3.1V278.7z M364.4,302.3c0,1.4-0.2,2.1-1.2,2.5
				c-0.9,0.5-2.3,0.5-4.4,0.5c-0.1-0.7-0.5-1.7-0.9-2.4l-0.6,0.2c-0.1-0.5-0.3-1.2-0.6-1.9c-5.2,0.3-10.5,0.6-14.2,0.9l-0.2-2.7
				c1.9-0.1,4.2-0.2,6.9-0.3v-3.2h-8.7v9.5h-3.1v-9.5h-1.3v-2.6h1.3v-1.1h3.1v1.1h8.7v-1.8h-9.6V281h22.4v10.5h-9.8v1.8h12.1V302.3z
				 M342.8,285.2h6.5v-2h-6.5V285.2z M349.3,289.3v-2h-6.5v2H349.3z M365.7,276v2.7h-7.5v1.8h-3.1v-1.8h-3.7V276h3.7v-1.9h3.1v1.9
				H365.7z M359,283.2h-6.7v2h6.7V283.2z M359,287.2h-6.7v2h6.7V287.2z M358.4,302.7c1.2,0,2.1,0,2.4,0c0.4,0,0.5-0.1,0.5-0.5v-6.5
				h-9.1v3.1l3.5-0.2c-0.4-0.7-0.8-1.3-1.2-1.9l2.3-0.6c1.3,1.9,2.7,4.4,3.1,6.1L358.4,302.7z"/>
		</g>
	</g>
</g>
</svg>
