<?xml version="1.0" encoding="utf-8"?>
<!-- Generator: Adobe Illustrator 24.2.1, SVG Export Plug-In . SVG Version: 6.00 Build 0)  -->
<svg version="1.1" id="圖層_1" xmlns="http://www.w3.org/2000/svg" xmlns:xlink="http://www.w3.org/1999/xlink" x="0px" y="0px"
	 viewBox="0 0 317.8 73.6" style="enable-background:new 0 0 317.8 73.6;" xml:space="preserve">
<style type="text/css">
	.st0{opacity:0.75;}
	.st1{fill:#EEEEEF;}
	.st2{fill:url(#SVGID_3_);}
	.st3{fill:url(#SVGID_4_);}
	.st4{fill:url(#SVGID_5_);}
	.st5{fill:url(#SVGID_6_);}
	.st6{fill:url(#SVGID_7_);}
	.st7{fill:url(#SVGID_8_);}
	.st8{fill:#888888;}
	.st9{fill:#FFFFFF;}
	.st10{fill:#D0392A;}
	.st11{filter:url(#Adobe_OpacityMaskFilter);}
	.st12{fill:none;stroke:#3E3A39;stroke-width:2;stroke-miterlimit:10;}
	.st13{opacity:0.3;fill:#FFFFFF;}
	.st14{fill:#036EB7;}
	.st15{fill:#E50012;}
	.st16{fill:#FFFFFF;stroke:#AE1E24;stroke-width:10;stroke-linecap:round;stroke-linejoin:round;stroke-miterlimit:10;}
	.st17{fill:#FFFFFF;stroke:#D0392A;stroke-width:10;stroke-linecap:round;stroke-linejoin:round;stroke-miterlimit:10;}
	.st18{fill:url(#SVGID_10_);}
	.st19{fill:url(#SVGID_11_);}
	.st20{fill:url(#SVGID_12_);}
	.st21{fill:url(#SVGID_13_);}
	.st22{fill:url(#SVGID_14_);}
	.st23{fill:url(#SVGID_15_);}
	.st24{fill:url(#SVGID_16_);}
	.st25{fill:url(#SVGID_17_);}
	.st26{fill:url(#SVGID_18_);}
	.st27{fill:url(#SVGID_19_);}
	.st28{fill:url(#SVGID_20_);}
	.st29{fill:url(#SVGID_21_);}
	.st30{fill:url(#SVGID_22_);}
	.st31{fill:url(#SVGID_23_);}
	.st32{fill:url(#SVGID_24_);}
	.st33{fill:url(#SVGID_25_);}
	.st34{fill:url(#SVGID_26_);}
	.st35{fill:url(#SVGID_27_);}
	.st36{fill:url(#SVGID_28_);}
	.st37{fill:url(#SVGID_29_);}
	.st38{fill:url(#SVGID_30_);}
	.st39{fill:url(#SVGID_31_);}
	.st40{fill:url(#SVGID_32_);}
	.st41{fill:url(#SVGID_33_);}
	.st42{fill:url(#SVGID_34_);}
	.st43{fill:url(#SVGID_35_);}
	.st44{fill:url(#SVGID_36_);}
	.st45{fill:url(#SVGID_37_);}
	.st46{fill:url(#SVGID_38_);}
	.st47{fill:url(#SVGID_39_);}
	.st48{fill:url(#SVGID_40_);}
	.st49{fill:url(#SVGID_41_);}
	.st50{fill:url(#SVGID_42_);}
	.st51{fill:url(#SVGID_43_);}
	.st52{fill:url(#SVGID_44_);}
	.st53{fill:url(#SVGID_45_);}
	.st54{fill:url(#SVGID_46_);}
	.st55{fill:url(#SVGID_47_);}
	.st56{fill:url(#SVGID_48_);}
	.st57{fill:url(#SVGID_49_);}
	.st58{fill:url(#SVGID_50_);}
	.st59{fill:url(#SVGID_51_);}
	.st60{fill:url(#SVGID_52_);}
	.st61{fill:url(#SVGID_53_);}
	.st62{fill:url(#SVGID_54_);}
	.st63{fill:url(#SVGID_55_);}
	.st64{fill:url(#SVGID_56_);}
	.st65{fill:url(#SVGID_57_);}
	.st66{fill:url(#SVGID_58_);}
	.st67{fill:url(#SVGID_59_);}
	.st68{fill:url(#SVGID_60_);}
	.st69{fill:url(#SVGID_61_);}
	.st70{fill:url(#SVGID_62_);}
	.st71{fill:url(#SVGID_63_);}
	.st72{fill:url(#SVGID_64_);}
	.st73{fill:url(#SVGID_65_);}
	.st74{fill:url(#SVGID_66_);}
	.st75{fill:none;stroke:#036EB7;stroke-width:2;stroke-miterlimit:10;}
	.st76{fill:url(#SVGID_67_);}
	.st77{fill:url(#SVGID_68_);}
	.st78{fill:url(#SVGID_69_);}
	.st79{fill:url(#SVGID_70_);}
	.st80{fill:url(#SVGID_71_);}
	.st81{fill:url(#SVGID_72_);}
	.st82{fill:url(#SVGID_73_);}
	.st83{fill:url(#SVGID_74_);}
	.st84{fill:url(#SVGID_75_);}
	.st85{fill:url(#SVGID_76_);}
	.st86{fill:url(#SVGID_77_);}
	.st87{fill:url(#SVGID_78_);}
	.st88{fill:url(#SVGID_79_);}
	.st89{fill:#B3B3B3;}
	.st90{fill:#777778;}
	.st91{fill:url(#SVGID_80_);}
	.st92{fill:url(#SVGID_81_);}
	.st93{fill:url(#SVGID_82_);}
	.st94{fill:url(#SVGID_83_);}
	.st95{fill:url(#SVGID_84_);}
	.st96{fill:url(#SVGID_85_);}
	.st97{fill:url(#SVGID_86_);}
	.st98{clip-path:url(#SVGID_88_);fill:url(#SVGID_89_);}
	.st99{clip-path:url(#SVGID_91_);}
	.st100{fill:url(#SVGID_92_);}
	.st101{fill:url(#SVGID_93_);}
	.st102{fill:url(#SVGID_94_);}
	.st103{fill:#124380;}
	.st104{opacity:0.82;fill:url(#SVGID_95_);}
	.st105{opacity:0.21;fill:url(#SVGID_96_);}
	.st106{opacity:0.82;fill:url(#SVGID_97_);}
	.st107{opacity:0.21;fill:url(#SVGID_98_);}
	.st108{opacity:0.82;fill:url(#SVGID_99_);}
	.st109{opacity:0.21;fill:url(#SVGID_100_);}
	.st110{fill:#C7391A;}
	.st111{fill:#083A6E;}
	.st112{fill:#3D3A39;}
	.st113{fill:#0A559A;}
	.st114{fill:#2E3D47;}
	.st115{fill:#E72410;}
	.st116{fill-rule:evenodd;clip-rule:evenodd;fill:#E72410;}
	.st117{opacity:0.82;fill:url(#SVGID_101_);}
	.st118{opacity:0.21;fill:url(#SVGID_102_);}
	.st119{opacity:0.82;fill:url(#SVGID_103_);}
	.st120{opacity:0.21;fill:url(#SVGID_104_);}
	.st121{opacity:0.82;fill:url(#SVGID_105_);}
	.st122{opacity:0.21;fill:url(#SVGID_106_);}
	.st123{fill:#124385;}
	.st124{opacity:0.82;fill:url(#SVGID_107_);}
	.st125{opacity:0.21;fill:url(#SVGID_108_);}
	.st126{opacity:0.82;fill:url(#SVGID_109_);}
	.st127{opacity:0.21;fill:url(#SVGID_111_);}
	.st128{opacity:0.82;fill:url(#SVGID_112_);}
	.st129{opacity:0.21;fill:url(#SVGID_114_);}
	.st130{fill:#CE391A;}
	.st131{fill:url(#SVGID_116_);}
	.st132{fill:none;stroke:url(#SVGID_117_);stroke-width:2;stroke-miterlimit:10;}
	.st133{fill:url(#SVGID_119_);}
	.st134{fill:url(#SVGID_122_);}
	.st135{clip-path:url(#SVGID_124_);}
	.st136{fill:none;stroke:#FF9825;stroke-width:1.4185;stroke-linecap:round;stroke-miterlimit:10;}
	.st137{fill:url(#SVGID_126_);}
	.st138{fill:url(#SVGID_128_);}
	.st139{clip-path:url(#SVGID_129_);}
	.st140{fill:url(#SVGID_131_);}
	.st141{fill:none;stroke:url(#SVGID_132_);stroke-width:2;stroke-miterlimit:10;}
	.st142{fill:url(#SVGID_133_);}
	.st143{fill:url(#SVGID_134_);}
	.st144{fill:url(#SVGID_135_);}
	.st145{fill:url(#SVGID_136_);}
	.st146{fill:url(#SVGID_137_);}
	.st147{fill:#717071;}
	.st148{fill:url(#SVGID_138_);}
	.st149{fill:url(#SVGID_139_);}
	.st150{fill:url(#SVGID_140_);}
	.st151{fill:url(#SVGID_141_);}
	.st152{fill:url(#SVGID_142_);}
	.st153{fill:url(#SVGID_143_);}
	.st154{fill:url(#SVGID_144_);}
	.st155{fill:url(#SVGID_145_);}
	.st156{fill:url(#SVGID_146_);}
	.st157{fill:url(#SVGID_147_);}
	.st158{fill:url(#SVGID_148_);}
	.st159{fill:url(#SVGID_149_);}
	.st160{fill:url(#SVGID_150_);}
	.st161{fill:url(#SVGID_151_);}
	.st162{fill:url(#SVGID_152_);}
	.st163{fill:url(#SVGID_153_);}
	.st164{fill:url(#SVGID_154_);}
	.st165{fill:url(#SVGID_155_);}
	.st166{fill:url(#SVGID_156_);}
	.st167{fill:url(#SVGID_157_);}
	.st168{fill:url(#SVGID_158_);}
	.st169{fill:url(#SVGID_159_);}
	.st170{fill:url(#SVGID_160_);}
	.st171{fill:url(#SVGID_161_);}
	.st172{fill:url(#SVGID_162_);}
	.st173{fill:url(#SVGID_163_);}
	.st174{fill:url(#SVGID_164_);}
	.st175{fill:url(#SVGID_165_);}
	.st176{fill:url(#SVGID_166_);}
	.st177{fill:url(#SVGID_167_);}
	.st178{fill:url(#SVGID_168_);}
	.st179{fill:url(#SVGID_169_);}
	.st180{fill:url(#SVGID_170_);}
	.st181{fill:url(#SVGID_171_);}
	.st182{fill:url(#SVGID_172_);}
	.st183{fill:url(#SVGID_173_);}
	.st184{fill:url(#SVGID_174_);}
	.st185{clip-path:url(#SVGID_176_);fill:url(#SVGID_177_);}
	.st186{clip-path:url(#SVGID_179_);}
	.st187{fill:url(#SVGID_181_);}
	.st188{fill:url(#SVGID_182_);}
	.st189{fill:url(#SVGID_184_);}
	.st190{fill:url(#SVGID_186_);}
	.st191{fill:none;stroke:url(#SVGID_187_);stroke-width:2;stroke-miterlimit:10;}
	.st192{fill:url(#SVGID_189_);}
	.st193{fill:url(#SVGID_192_);}
	.st194{clip-path:url(#SVGID_194_);}
	.st195{fill:url(#SVGID_196_);}
	.st196{fill:url(#SVGID_198_);}
	.st197{clip-path:url(#SVGID_199_);}
</style>
<g>
	<g>
		<g>
			<path class="st114" d="M146.3,36.8h4.5c1.2-3.9,2-8,2.6-12.1h-4.2C148.7,27.7,147.3,34.1,146.3,36.8z M166.2,19.5h-6.7v-2.8h6.7
				v-3.5h-3.3c0.5-1.6,0.9-3.5,1.3-5.1h1.7V4.5h-6.5c-0.4-1-0.9-2.5-1.2-3.4h-4.9c0.3,1.1,0.7,2.4,1.1,3.4H148v3.5h1.8
				c0.3,1.6,0.8,3.5,1.2,5.1h-3.3v3.5h7v2.8h-7V23h7v15h4.9V23h6.7V19.5z M158.8,13.1h-3.7c-0.4-1.6-0.9-3.6-1.1-5.1h6.1
				C159.7,9.5,159.2,11.6,158.8,13.1z M173.1,13.2V7.9c0-0.4,0.3-0.8,0.8-0.9c3.5-0.5,6.2-1,9.6-2V1.5c-4,0.9-8.7,1.7-12.8,2.3
				c-0.7,0.1-1.3,0.4-1.7,0.9c-0.5,0.6-0.8,1.4-0.8,2.2V24c0,5-0.9,10.5-3.2,14h5.3c2.3-4.4,2.8-10.9,2.8-16.6v-4.7h3.7V38h4.9V16.7
				h2.3v-3.5H173.1z M164.7,24.7h-4c0.2,2.7,0.6,6.6,1.2,9.4h4.2C165.4,31.4,164.9,27.4,164.7,24.7z"/>
			<path class="st114" d="M225.5,3.1h-5.2c-1.2,3.9-2.5,7.7-5,11.1h5.7C223.1,10.7,224.5,6.9,225.5,3.1z M203.9,14.1
				c-2.2-3.5-3.8-7.3-5.1-11.1h-5.2c1.3,3.7,2.7,7.6,4.8,11.1H203.9z M219.6,34.2c-0.8,0-1.4-0.6-1.4-1.4V20h9.6v-3.7h-15.5V1h-5.6
				v15.3H191V20h9.6c0.7,11.4-6.6,15.8-10.5,17.9h8.2c2.8-2,8-6,7.8-17.9h6.6v13.4c0,3.3,1.8,4.5,3.9,4.5h10.8l1.6-3.8H219.6z"/>
			<path class="st114" d="M246.2,21.9h5.1v-3.5h-5.1v-3.3h5.1v-3.5h-15.3v3.5h5.4v3.3h-5.4v3.5h5.4v11.9c-1.7,0.3-4.4,0.7-5.7,0.9
				v3.7c3.8-0.6,12.2-2.2,16.4-3.3v-3.7c-1.4,0.4-4.1,1.1-5.7,1.5V21.9z M240,31.6c-0.6-2-1.2-6-1.4-8.1H235
				c0.2,2.1,0.9,6.2,1.4,8.1H240z M246.9,30.5h3.7c0.5-1.9,1.1-5.3,1.2-7h-3.5C248,25.6,247.5,28.5,246.9,30.5z M246.4,1h-6.1
				c-1.8,0-2.6,1.1-2.8,1.6c-0.5,1.3-1.7,5-2.9,7.6h4.7c0.7-1.7,1.4-3.9,1.9-5.1c0.1-0.4,0.6-0.7,1-0.7h2.4c0.4,0,0.8,0.3,1,0.7
				c0.4,1.2,1.2,3.4,1.9,5.1h4.7c-1.2-2.6-2.4-6.3-2.9-7.6C249,2.1,248.3,1,246.4,1z M267.9,30.6c2-3.2,3.9-6.4,4.9-8.7h-4.5
				c-0.6,1.4-1.6,3.2-2.5,4.8c-0.8-1.6-1.5-3.2-2-4.7h-4.7c1.9,6,5.4,12.4,8.6,16.1h5.8C271.8,36.4,269.8,33.7,267.9,30.6z
				 M258.1,33.6V19.7h9.9c1.2,0,2.2-0.5,2.9-1.3c0.5-0.6,0.8-1.5,0.8-2.4V4.7c0-1.2-0.5-2.1-1.2-2.8c-0.7-0.5-1.6-0.9-2.6-0.9h-10.8
				c-1.1,0-2,0.4-2.7,1.1c-0.7,0.7-1.1,1.8-1.1,3.1v29.3c0,0.8,0.4,1.7,1.1,2.4c0.6,0.6,1.5,1.1,2.5,1.1h5l2.1-3.3h-4.8
				C258.6,34.7,258.1,34.2,258.1,33.6z M258.1,5.5c0-0.5,0.5-1,1-1h6.6c0.5,0,1.1,0.6,1.1,1.1v3h-8.8V5.5z M258.1,12.1h8.8v3
				c0,0.5-0.4,1-1,1h-7.8V12.1z"/>
			<path class="st114" d="M315.5,2.1h-20.7v3.7h20.7V2.1z M291.6,1h-4.9c-1.2,2.2-4.7,7.1-8,10.9h5.4C287.2,8.2,290.7,2.9,291.6,1z
				 M277.6,24.5h5.2c0.7-0.6,1.6-1.6,2.5-2.7l-0.2,4V38h4.8V15.5c1.4-2.1,2.5-3.9,2.9-4.8h-4.8C286.5,13.5,281.3,20.9,277.6,24.5z
				 M293.6,12.7v3.7h13.3V33c0,0.8-0.5,1.2-1,1.2h-7.4l1.6,3.7h9.1c1.7,0,3.3-1.5,3.3-3.2V16.4h4.1v-3.7H293.6z"/>
		</g>
		<g>
			<path class="st114" d="M302.7,62.4c0-0.6,0-1.3,0.1-1.9c0-0.6,0-1.4,0-2.2c0-1.6-0.3-2.8-1-3.5c-0.7-0.7-1.7-1.1-2.9-1.1
				c-0.8,0-1.5,0.2-2.1,0.6c-0.6,0.4-1.1,0.9-1.6,1.6h-0.1l0.1-1.9h-3.6c0.1,0.9,0.1,1.8,0.2,2.7c0,0.9,0,1.8,0,2.8v1c0,1,0,2,0,2.9
				c0,0.9-0.1,1.7-0.2,2.6h3.7c-0.1-0.8-0.1-1.7-0.2-2.6c0-0.9,0-1.8,0-2.9v-1c0-1.1,0.2-2,0.5-2.7c0.3-0.6,0.9-1,1.6-1
				c0.6,0,1.1,0.2,1.5,0.7c0.4,0.5,0.5,1.2,0.5,2.3c0,1.5,0,2.8-0.1,4c0,1.2-0.1,2.2-0.2,3h3.8c0-0.6-0.1-1.2-0.1-1.8
				C302.7,63.5,302.7,62.9,302.7,62.4z M288.8,64.8c-0.1-0.1-0.2-0.3-0.3-0.5c-0.1-0.2-0.1-0.5-0.1-0.9c0-0.9,0-1.8,0-2.7
				c0-0.9,0-1.9,0-2.9c0-0.7-0.1-1.3-0.3-1.9c-0.2-0.5-0.5-0.9-0.9-1.3c-0.4-0.3-0.9-0.6-1.4-0.7c-0.5-0.1-1.1-0.2-1.8-0.2
				c-0.8,0-1.6,0.1-2.4,0.4c-0.8,0.3-1.6,0.7-2.3,1.3l0.3,1.5h0.2c0.1-0.2,0.3-0.3,0.5-0.5c0.2-0.2,0.5-0.3,0.8-0.4
				c0.3-0.1,0.6-0.2,0.9-0.3c0.3-0.1,0.6-0.1,0.9-0.1c0.7,0,1.3,0.2,1.7,0.6c0.4,0.4,0.6,0.9,0.6,1.5c0,0.2,0,0.4-0.1,0.6
				c-0.1,0.1-0.2,0.3-0.4,0.4c-0.2,0.1-0.5,0.2-0.9,0.4c-0.4,0.1-0.9,0.3-1.7,0.4c-0.6,0.1-1.1,0.3-1.5,0.5
				c-0.5,0.2-0.8,0.4-1.2,0.7c-0.3,0.3-0.6,0.6-0.8,1c-0.2,0.4-0.3,0.9-0.3,1.4c0,0.4,0.1,0.8,0.2,1.2c0.1,0.4,0.3,0.7,0.6,1
				c0.3,0.3,0.7,0.5,1.1,0.7c0.5,0.2,1,0.2,1.6,0.2c0.8,0,1.4-0.2,1.9-0.5c0.5-0.3,0.9-0.7,1.3-1.3c0.2,0.6,0.5,1,0.8,1.3
				c0.4,0.3,0.9,0.4,1.5,0.4c0.4,0,0.7-0.1,1.1-0.2c0.3-0.1,0.8-0.2,1.2-0.4V65c-0.2,0-0.5,0-0.7,0C289.1,65,288.9,64.9,288.8,64.8z
				 M285.3,60.5c0,0.4,0,0.9,0,1.6c0,0.8-0.2,1.4-0.5,1.8c-0.3,0.4-0.8,0.6-1.3,0.6c-0.4,0-0.8-0.1-1-0.5c-0.3-0.3-0.4-0.8-0.4-1.4
				c0-0.6,0.1-1.1,0.3-1.4c0.2-0.3,0.5-0.6,0.8-0.8c0.3-0.2,0.7-0.3,1-0.5c0.4-0.1,0.7-0.3,1.1-0.5
				C285.3,59.8,285.3,60.1,285.3,60.5z M315.8,65.1c-0.2-0.4-0.5-0.8-0.8-1.4c-0.3-0.5-0.6-1.1-1-1.6c-0.3-0.6-0.7-1.1-1-1.6
				c-0.3-0.5-0.6-0.9-0.8-1.3c-0.1-0.1-0.3-0.5-0.6-0.9c0.4-0.4,0.7-0.8,0.9-1c0.3-0.4,0.7-0.8,1.1-1.2c0.4-0.4,0.7-0.8,1.1-1.2
				c0.3-0.4,0.8-0.8,1-1h-2.8c-0.7,0.8-1.3,1.3-1.9,2c-0.6,0.6-1.1,1.1-1.5,1.6c-0.2,0.2-0.4,0.4-0.6,0.6c0-0.2,0-0.4,0-0.6v-1.6
				c0-1.6,0-3.1,0-4.5c0-1.4,0.1-2.7,0.1-4.1h-3.7c0.1,1.4,0.1,2.8,0.1,4.1c0,1.3,0.1,2.8,0.1,4.5v1.6c0,1.6,0,3.1-0.1,4.5
				c0,1.4-0.1,2.7-0.1,4h3.7c-0.1-1.3-0.1-2.7-0.1-4c0-0.6,0-1.3,0-1.9c0.7,1.1,1.6,2.6,1.8,2.9c0.3,0.5,0.5,0.9,0.8,1.3
				c0.2,0.4,0.5,0.8,0.7,1.1c0.2,0.3,0.3,0.5,0.4,0.6h3.8C316.2,65.8,316.1,65.5,315.8,65.1z M275.1,57.8c-0.5-0.3-0.9-0.6-1.4-0.7
				c-0.5-0.2-1-0.2-1.3-0.3v0c0.4-0.1,0.8-0.2,1.3-0.4c0.5-0.2,0.9-0.4,1.3-0.8c0.4-0.3,0.7-0.7,1-1.2c0.3-0.5,0.4-1.1,0.4-1.8
				c0-0.7-0.1-1.3-0.4-1.7c-0.2-0.5-0.6-0.9-1-1.2c-0.4-0.3-0.9-0.5-1.5-0.7c-0.6-0.1-1.3-0.2-2.1-0.2h-6.5c0.1,1.1,0.1,2.1,0.2,3.2
				c0,1.1,0.1,2.3,0.1,3.7v3.4c0,1.4,0,2.6-0.1,3.7c0,1.1-0.1,2.1-0.2,3.1h6.2c0.8,0,1.5-0.1,2.2-0.2c0.7-0.2,1.3-0.4,1.8-0.8
				c0.5-0.4,0.9-0.9,1.3-1.5c0.3-0.6,0.5-1.4,0.5-2.3c0-0.8-0.2-1.4-0.5-1.9C275.9,58.6,275.6,58.2,275.1,57.8z M268.7,52.2
				c0-0.6,0-1.2,0.1-1.9c0.2,0,0.3-0.1,0.5-0.1c0.1,0,0.4,0,0.8,0c0.5,0,0.9,0.1,1.3,0.2c0.3,0.2,0.6,0.4,0.8,0.6
				c0.2,0.3,0.4,0.6,0.5,0.9c0.1,0.4,0.1,0.7,0.1,1.1c0,0.5-0.1,1-0.3,1.4c-0.2,0.4-0.4,0.7-0.7,1c-0.3,0.3-0.6,0.5-0.9,0.6
				c-0.3,0.1-0.7,0.2-1.1,0.2h-1.1c0-0.4,0-0.8,0-1.3c0-0.4,0-0.8,0-1.3C268.7,53.4,268.7,52.8,268.7,52.2z M272.7,62.6
				c-0.1,0.4-0.4,0.8-0.6,1.1c-0.3,0.3-0.5,0.5-0.9,0.6c-0.3,0.2-0.7,0.2-1.1,0.2c-0.3,0-0.5,0-0.7,0c-0.2,0-0.4,0-0.7,0
				c0-0.2,0-0.5,0-0.8c0-0.3,0-0.7,0-1.1c0-0.4,0-0.8,0-1.2c0-0.4,0-0.8,0-1.2c0-0.5,0-1,0-1.3c0-0.4,0-0.7,0-1.1c0.2,0,0.3,0,0.5,0
				c0.2,0,0.4,0,0.6,0c1,0,1.8,0.3,2.3,0.9c0.5,0.6,0.8,1.4,0.8,2.6C272.9,61.7,272.9,62.2,272.7,62.6z"/>
			<path class="st114" d="M213.8,61.6c-0.7-0.9-1.4-1.9-2.1-2.9c-0.6-0.9-1.4-1.9-2-2.7c0.7-0.8,1.4-1.6,1.7-2
				c0.6-0.7,1.2-1.3,1.8-2c0.6-0.7,1.2-1.3,1.8-1.9c0.6-0.6,1-1,1.2-1.3h-3.4c-0.2,0.3-0.4,0.5-0.9,1.1c-0.5,0.5-1,1.2-1.6,1.9
				c-0.6,0.7-1.2,1.3-1.8,2.1c-0.5,0.6-1,1.1-1.6,1.7v-1.2c0-1.2,0-2.3,0-3.3c0-1,0.1-1.7,0.2-2.2h-3.8c0.1,1.1,0.1,2.1,0.1,3.2
				c0,1,0,2.3,0,3.7v3.4c0,1.3,0,2.6,0,3.7c0,1-0.1,2.1-0.1,3.1h3.8c-0.1-0.8-0.2-1.8-0.2-3.1c0-1.3,0-2.9,0-4.6v-0.4l0,0.1
				c0.8,1.1,1.7,2.3,3,4.2c0.9,1.3,1.8,2.6,2.8,3.8h4.5c-0.3-0.4-0.8-1-1.4-1.8C215.1,63.4,214.5,62.5,213.8,61.6z M172.7,62.4
				c0-0.6,0-1.3,0-1.9c0-0.6,0-1.4,0-2.2c0-1.6-0.3-2.8-0.9-3.5c-0.6-0.7-1.5-1.1-2.8-1.1c-0.8,0-1.5,0.2-2.2,0.6
				c-0.6,0.4-1.2,0.9-1.6,1.6l-0.1,0c0-1.6,0-3.1,0.1-4.5c0-1.4,0.1-2.7,0.2-4.1h-3.7c0.1,1.4,0.1,2.8,0.1,4.1c0,1.3,0,2.8,0,4.5
				v1.6c0,1.6,0,3.1,0,4.5c0,1.4-0.1,2.7-0.1,4h3.7c0-0.4-0.1-0.9-0.1-1.4c0-0.5,0-1.1-0.1-1.6c0-0.5,0-1,0-1.4c0-0.4,0-0.8,0-1v-1
				c0-1.1,0.2-2,0.5-2.7c0.4-0.6,0.9-1,1.7-1c0.7,0,1.2,0.2,1.5,0.7c0.4,0.5,0.5,1.3,0.5,2.3c0,1.5,0,2.8-0.1,4c0,1.2-0.1,2.2-0.2,3
				h3.6c0-0.6-0.1-1.2-0.1-1.8C172.7,63.5,172.7,62.9,172.7,62.4z M193.3,62.4c0-0.6,0-1.3,0-1.9c0-0.6,0-1.4,0-2.2
				c0-1.6-0.3-2.8-1-3.5c-0.6-0.7-1.5-1.1-2.8-1.1c-0.8,0-1.5,0.2-2.2,0.6c-0.6,0.4-1.2,0.9-1.6,1.6h0l0.1-1.9h-3.6
				c0.1,0.9,0.1,1.8,0.2,2.7c0,0.9,0,1.8,0,2.8v1c0,1,0,2,0,2.9c0,0.9-0.1,1.7-0.2,2.6h3.7c-0.1-0.8-0.1-1.7-0.2-2.6
				c0-0.9,0-1.8,0-2.9v-1c0-1.1,0.2-2,0.5-2.7c0.4-0.6,0.9-1,1.7-1c0.7,0,1.2,0.2,1.5,0.7c0.4,0.5,0.5,1.3,0.5,2.3
				c0,1.5,0,2.8-0.1,4c0,1.2-0.1,2.2-0.2,3h3.6c0-0.6-0.1-1.2-0.1-1.8C193.3,63.5,193.3,62.9,193.3,62.4z M177.6,47.3
				c-0.6,0-1,0.2-1.4,0.6c-0.4,0.4-0.6,0.8-0.6,1.4c0,0.5,0.2,1,0.6,1.4c0.4,0.4,0.9,0.6,1.4,0.6c0.6,0,1-0.2,1.4-0.6
				c0.4-0.4,0.6-0.8,0.6-1.4c0-0.5-0.2-1-0.6-1.4C178.6,47.5,178.2,47.3,177.6,47.3z M179.3,56.6c0-0.9,0.1-1.8,0.2-2.7h-3.8
				c0.1,0.9,0.1,1.8,0.2,2.7c0,0.9,0,1.8,0,2.8v1c0,1,0,2,0,2.9c0,0.9-0.1,1.7-0.2,2.6h3.8c-0.1-0.8-0.1-1.7-0.2-2.6
				c0-0.9,0-1.8,0-2.9v-1C179.3,58.5,179.3,57.5,179.3,56.6z M249.9,64c-0.7,0-1.2-0.1-1.5-0.4c-0.3-0.2-0.5-0.6-0.5-1
				c0-0.2,0.1-0.4,0.2-0.6c0.1-0.2,0.3-0.3,0.5-0.3c0.2,0,0.4,0,0.6,0c0.2,0,0.4,0,0.5,0c0.7,0,1.4-0.1,2-0.3
				c0.6-0.2,1.1-0.5,1.5-0.8c0.4-0.4,0.7-0.8,0.9-1.3c0.2-0.5,0.3-1.1,0.3-1.7c0-0.6-0.1-1.2-0.3-1.6c-0.2-0.5-0.5-0.8-1-1.1l0.1,0
				l2.1,0.1v-1.2c-0.4,0-0.9,0-1.3,0c-0.4,0-0.8,0-1.2,0c-0.3,0-0.5,0-0.7,0c-0.2,0-0.4,0-0.7,0c-0.3,0-0.6,0-0.9-0.1
				c-0.3,0-0.6,0-0.9,0c-0.8,0-1.5,0.1-2.2,0.3c-0.7,0.2-1.2,0.4-1.7,0.8c-0.4,0.3-0.8,0.8-1,1.2c-0.2,0.5-0.4,1.1-0.4,1.7
				c0,1.1,0.3,1.9,0.8,2.6c0.5,0.7,1.3,1.1,2.3,1.3v0.1c-0.7,0.2-1.3,0.5-1.7,1.1c-0.4,0.5-0.6,1-0.6,1.6c0,0.4,0.1,0.7,0.3,1
				c0.2,0.3,0.5,0.5,0.8,0.6l0,0c-0.7,0.3-1.1,0.6-1.5,1.1c-0.4,0.5-0.6,1.2-0.6,2c0,1,0.4,1.8,1.2,2.5c0.9,0.6,2.1,0.9,3.7,0.9
				c2.7,0,6.4-1,6.4-4.3C255.6,64.9,253.6,64,249.9,64z M249.6,54.7c0.5,0,0.8,0.2,1.1,0.7c0.3,0.5,0.5,1.2,0.5,2.3
				c0,1.1-0.1,2-0.4,2.4c-0.3,0.5-0.7,0.7-1.2,0.7c-0.2,0-0.4-0.1-0.6-0.1c-0.2-0.1-0.4-0.3-0.5-0.5c-0.2-0.2-0.3-0.5-0.4-0.9
				c-0.1-0.4-0.1-0.8-0.1-1.4C247.9,55.8,248.4,54.7,249.6,54.7z M252.7,69.5c-0.1,0.3-0.3,0.6-0.6,0.8c-0.3,0.2-0.6,0.4-0.9,0.6
				c-0.4,0.1-0.8,0.2-1.2,0.2c-0.4,0-0.8-0.1-1.2-0.2c-0.4-0.1-0.7-0.3-1-0.5c-0.3-0.2-0.5-0.5-0.7-0.8c-0.2-0.3-0.2-0.7-0.2-1.2
				c0-0.6,0.1-1.2,0.3-1.6c0.2-0.4,0.5-0.6,0.7-0.7c0.3-0.2,0.8-0.3,1.6-0.3c0.5,0,1,0,1.4,0.1c0.4,0.1,0.8,0.2,1.1,0.4
				c0.3,0.2,0.5,0.4,0.7,0.7c0.2,0.3,0.2,0.8,0.2,1.3C252.9,68.7,252.8,69.1,252.7,69.5z M223,53.7c-1.9,0-3.3,0.5-4.4,1.6
				c-1.1,1.1-1.6,2.6-1.6,4.4c0,1,0.1,1.9,0.5,2.7c0.3,0.8,0.7,1.5,1.3,2.1c0.5,0.6,1.2,1,2,1.3c0.7,0.3,1.5,0.4,2.4,0.4
				c0.9,0,1.6-0.1,2.4-0.4c0.8-0.3,1.4-0.7,1.9-1.3c0.6-0.6,1-1.3,1.3-2.1c0.3-0.8,0.5-1.7,0.5-2.7c0-1.9-0.5-3.3-1.6-4.4
				C226.3,54.2,224.9,53.7,223,53.7z M223,65.2c-1.5,0-2.3-1.9-2.3-5.8c0-1.5,0.2-2.6,0.5-3.4c0.3-0.8,1-1.2,1.8-1.2
				c0.8,0,1.4,0.4,1.8,1.2c0.3,0.8,0.5,1.9,0.5,3.4C225.3,63.2,224.5,65.2,223,65.2z M242.2,62.4c0-0.6,0-1.3,0-1.9
				c0-0.6,0-1.4,0-2.2c0-1.6-0.3-2.8-1-3.5c-0.7-0.7-1.6-1.1-2.9-1.1c-0.8,0-1.5,0.2-2.2,0.6c-0.6,0.4-1.1,0.9-1.6,1.6h0l0.1-1.9
				h-3.5c0.1,0.9,0.1,1.8,0.2,2.7c0,0.9,0,1.8,0,2.8v1c0,1,0,2,0,2.9c0,0.9-0.1,1.7-0.2,2.6h3.6c-0.1-0.8-0.1-1.7-0.2-2.6
				c0-0.9,0-1.8,0-2.9v-1c0-1.1,0.2-2,0.5-2.7c0.3-0.6,0.9-1,1.6-1c0.7,0,1.2,0.2,1.5,0.7c0.4,0.5,0.5,1.3,0.5,2.3c0,1.5,0,2.8,0,4
				c0,1.2-0.1,2.2-0.2,3h3.8c0-0.6-0.1-1.2-0.1-1.8C242.2,63.5,242.2,62.9,242.2,62.4z M158.9,58.3c-0.4-0.6-1-1.1-1.7-1.5
				c-0.7-0.4-1.3-0.8-2.1-1c-0.7-0.3-1.4-0.6-2.1-0.9c-0.6-0.3-1.2-0.6-1.6-1c-0.4-0.4-0.7-0.9-0.7-1.5c0-0.6,0.2-1.1,0.7-1.6
				c0.5-0.4,1.2-0.7,2-0.7c2,0,3.4,0.7,4.2,2.1h0.2l0.8-2.5c-0.6-0.4-1.4-0.7-2.2-0.9c-0.8-0.2-1.8-0.3-3-0.3
				c-0.8,0-1.6,0.1-2.4,0.3c-0.7,0.2-1.4,0.6-1.9,1c-0.5,0.5-1,1-1.3,1.7c-0.3,0.7-0.4,1.4-0.4,2.3c0.1,0.9,0.3,1.7,0.8,2.3
				c0.4,0.6,1,1.1,1.6,1.5c0.6,0.4,1.3,0.8,2.1,1c0.7,0.3,1.4,0.6,2.1,0.9c0.6,0.3,1.2,0.6,1.6,1.1c0.4,0.4,0.7,0.9,0.7,1.5
				c0,0.7-0.2,1.3-0.7,1.8c-0.5,0.5-1.3,0.9-2.4,0.8c-0.6-0.1-1.2-0.1-1.7-0.3c-0.5-0.2-1-0.4-1.3-0.7c-0.4-0.3-0.8-0.7-1-1
				c-0.3-0.3-0.4-0.8-0.6-1.2l-0.3,0l-0.9,2.7c0.5,0.3,1.5,1,2.3,1.3c0.9,0.3,1.8,0.7,2.9,0.7c1.2,0.1,2.1-0.1,3-0.4
				c0.9-0.3,1.6-0.8,2.2-1.2c0.6-0.5,1.1-1.1,1.4-1.8c0.3-0.7,0.4-1.4,0.4-2.3C159.6,59.7,159.3,58.9,158.9,58.3z"/>
		</g>
	</g>
	<g>
		<g>
			<g>
				<path class="st115" d="M99.9,11.6c-6.5-5.1-21.6-8.9-38.4-10c-3-0.2-6.1-0.4-9.1-0.4c-2.8,0-5.6,0.1-8.4,0.3l0,0
					c-17.1,1-32.6,4.9-39.2,10.1c-2.6,2-3.8,4.9-3.8,7.9c0,2.5,0.4,4.8,2.7,6.8C9.8,31.9,27.4,37.2,44,38.9c2.8,0.3,5.7,0.5,8.4,0.5
					c2.9,0,6.1-0.2,9.1-0.5c16.3-1.6,33.5-7,39.5-12.5c2.2-2,2.8-4.3,2.8-6.8C103.7,16.5,102.5,13.7,99.9,11.6z M85,26.4
					c-3.8,4.4-12.4,8.2-23.5,9.7c-2.8,0.4-5.9,0.6-9.1,0.6c-2.9,0-5.8-0.2-8.4-0.5c-11.5-1.3-20.4-5.2-24.3-9.7
					c-1.5-1.8-2.2-4.4-2.2-6.3c0-2,0.8-5.2,4-7.6C25.6,9.2,33.8,6,44,4.5c2.6-0.4,5.5-0.5,8.4-0.6c3.1,0.1,6.2,0.3,9.1,0.8
					c9.8,1.4,17.7,4.6,21.8,7.8c3.1,2.4,4,5.6,4,7.6C87.2,22,86.6,24.6,85,26.4z"/>
				<path class="st116" d="M60.1,14.9c0.5-0.1,1-0.2,1.4-0.4c0.7-0.2,1.3-0.6,2.1-1c0.5-0.5,1-0.9,1.4-1.5c0.2-1,0.2-1.8,0-2.7
					c-0.5-0.4-0.9-0.8-1.6-1.1c-0.7-0.1-1.3-0.2-2,0c-0.4,0.1-0.8,0.5-1.1,0.9c-1.6,1.9-2.5,3.4-2.5,6C58.6,15.1,59.4,15,60.1,14.9z
					 M44,13.9c0.6,0.3,1.3,0.5,1.7,0.7c0.4,0.2,1.4,0.4,1.6,0c0.4-0.7,0.1-1.7,0-2.5c-0.2-1.1-0.8-2.1-1.5-3.1
					c-0.5-0.6-1.1-1.3-1.9-1.6c-0.1,0-0.1-0.1-0.2-0.1c-0.7-0.2-1.6-0.2-2.1,0.2c-0.8,0.7-1.6,2-1.2,3.3
					C40.9,12.3,42.6,13.2,44,13.9z M61.5,28.2h-0.1c-0.4-0.2-0.7-0.5-0.7-1.2v-5h4.6v-5.4h-3.7l-5.9-0.1L55.7,7h-6.1v9.5L44,16.6
					h-4.3V22h4.6c-0.1,1.1-0.1,2.3-0.1,3.2C44,25.5,44,25.8,44,26.1c-0.2,0.9-0.5,1.8-1,2.7c-0.8,1.3-1.7,2.4-2.5,3.7
					c-0.1,0.7,0.6,0.7,0.9,0.6c1-0.5,1.8-1,2.5-1.5c0.7-0.5,1.5-1.1,2.4-1.7c1.2-0.9,2.4-2.5,3.1-3.6c0.7-1,1.2-1.7,1.7-3.2l0.2-1
					l2.4-0.1l0.6,0.4l-0.1,8.3c0.2,1.2,1.1,2,1.7,2.2l3.7,0.1l1.8-0.1l1.1-0.1c1.9-1.2,2.5-2.3,2.8-4.7L61.5,28.2z"/>
			</g>
		</g>
		<g>
			<path class="st114" d="M89.2,49.7c0-0.2,0.2-0.5,0.5-0.5h7.9c0.2,0,0.5,0.3,0.5,0.5v2.6h2.5v-3c0-0.9-0.6-2.1-2.1-2.1h-3.3
				c-0.3-0.6-0.6-1.4-0.8-2.1h-2.9c0.2,0.6,0.5,1.5,0.8,2.1h-3.2c-1.5,0-2.1,1.1-2.1,2.1v3h2.5V49.7z M87.2,56.6h3.3
				c1.5-1.1,2.5-3.4,2.6-5.9h-2.6C90.2,54.3,87.8,56.1,87.2,56.6z M94.3,50.7v3.6c0,1.6,1.1,2.3,2.5,2.3h3.2l0.6-2h-3
				c-0.4,0-0.6-0.2-0.6-0.5v-3.4H94.3z M86.4,54.1c-0.5,0.2-1.2,0.6-1.8,0.8v-3.7H86v-2.1h-1.4v-4.1h-2.8v4.1h-2.2l0,2.1h2.2v4.9
				c-0.7,0.3-1.7,0.6-2.4,0.8v2.3c0.7-0.2,1.7-0.6,2.4-0.9v5.2c0,0.4-0.3,0.5-0.6,0.5h-1.6l0.6,2h2.2c1.4,0,2.2-1.1,2.2-2.1v-6.9
				c0.5-0.2,1.2-0.5,1.8-0.8V54.1z M94.9,64.1v-4.5h5.1v-2H87.1v2h4.7v4.5h-5.6v2h14.4v-2H94.9z"/>
			<path class="st114" d="M70.8,63.1c0.6-1.5,1.2-3,1.6-4.6h-2.8c-0.5,1.6-1,3.1-1.9,4.6H70.8z M60.3,58.6h-2.9
				c0.5,1.6,1.1,3.1,1.7,4.6h3.1C61.4,61.7,60.8,60.2,60.3,58.6z M66.6,57.6h8v-2.1h-8v-2.8h3.6V51c1,1.2,1.4,1.7,1.8,2h3.8
				c-1.9-1.9-3.9-4.1-5.3-6.2c-0.2-0.3-0.9-1.4-2.3-1.4h-6.6c-1.3,0-2,1-2.3,1.4C57.9,49,56,51.1,54,53.1h3.8c0.4-0.4,0.9-0.9,1.8-2
				v1.7h3.6v2.8h-8v2.1h8V64h-8.7V66h20.8V64h-8.7V57.6z M59.9,50.7c0.6-0.7,1.3-1.6,2.2-2.8c0.2-0.3,0.4-0.4,0.8-0.4h3.9
				c0.4,0,0.6,0.1,0.8,0.4c0.9,1.2,1.7,2.1,2.2,2.8H59.9z"/>
			<path class="st114" d="M4.1,65.3h2.6c0.7-2.2,1.1-4.6,1.5-6.9H5.7C5.4,60.2,4.7,63.8,4.1,65.3z M15.4,55.5h-3.8v-1.6h3.8v-2h-1.9
				c0.3-0.9,0.5-2,0.7-2.9h1v-2h-3.7c-0.2-0.6-0.5-1.4-0.7-2H8c0.2,0.6,0.4,1.4,0.6,2H5v2h1c0.2,0.9,0.4,2,0.7,2.9H4.8v2h4v1.6h-4v2
				h4V66h2.8v-8.5h3.8V55.5z M11.2,51.9H9C8.8,51,8.5,49.9,8.4,49h3.5C11.7,49.9,11.4,51,11.2,51.9z M19.3,52v-3
				c0-0.3,0.2-0.5,0.4-0.5c2-0.3,3.5-0.6,5.5-1.1v-2c-2.3,0.5-4.9,1-7.3,1.3c-0.4,0.1-0.7,0.2-1,0.5c-0.3,0.3-0.4,0.8-0.4,1.2v9.7
				c0,2.8-0.5,5.9-1.8,7.9h3c1.3-2.5,1.6-6.2,1.6-9.4V54h2.1v12h2.8V54h1.3v-2H19.3z M14.5,58.5h-2.3c0.1,1.5,0.4,3.8,0.7,5.3h2.4
				C14.9,62.3,14.6,60,14.5,58.5z"/>
			<path class="st114" d="M49,46.2h-3c-0.7,2.2-1.4,4.3-2.8,6.3h3.2C47.6,50.5,48.4,48.4,49,46.2z M36.7,52.5
				c-1.3-2-2.2-4.1-2.9-6.3h-2.9c0.8,2.1,1.5,4.3,2.7,6.3H36.7z M45.7,63.9c-0.5,0-0.8-0.3-0.8-0.8v-7.3h5.4v-2.1h-8.8v-8.7h-3.2
				v8.7h-8.9v2.1h5.5c0.4,6.5-3.8,8.9-5.9,10.2h4.7c1.6-1.1,4.6-3.4,4.4-10.2h3.7v7.6c0,1.9,1.1,2.6,2.2,2.6h6.1l0.9-2.1H45.7z"/>
		</g>
		<rect x="122.8" y="1.2" class="st115" width="5.7" height="64.8"/>
	</g>
</g>
</svg>
