<?xml version="1.0" encoding="utf-8"?>
<!-- Generator: Adobe Illustrator 24.2.1, SVG Export Plug-In . SVG Version: 6.00 Build 0)  -->
<svg version="1.1" id="圖層_1" xmlns="http://www.w3.org/2000/svg" xmlns:xlink="http://www.w3.org/1999/xlink" x="0px" y="0px"
	 viewBox="0 0 771.1 181.7" style="enable-background:new 0 0 771.1 181.7;" xml:space="preserve">
<style type="text/css">
	.st0{opacity:0.75;}
	.st1{fill:#EEEEEF;}
	.st2{fill:url(#SVGID_3_);}
	.st3{fill:url(#SVGID_4_);}
	.st4{fill:url(#SVGID_5_);}
	.st5{fill:url(#SVGID_6_);}
	.st6{fill:url(#SVGID_7_);}
	.st7{fill:url(#SVGID_8_);}
	.st8{fill:#888888;}
	.st9{fill:#FFFFFF;}
	.st10{fill:#D0392A;}
	.st11{filter:url(#Adobe_OpacityMaskFilter);}
	.st12{fill:none;stroke:#3E3A39;stroke-width:2;stroke-miterlimit:10;}
	.st13{opacity:0.3;fill:#FFFFFF;}
	.st14{fill:#036EB7;}
	.st15{fill:url(#SVGID_10_);}
	.st16{fill:url(#SVGID_11_);}
	.st17{fill:url(#SVGID_12_);}
	.st18{fill:url(#SVGID_13_);}
	.st19{fill:url(#SVGID_14_);}
	.st20{fill:url(#SVGID_15_);}
	.st21{fill:url(#SVGID_16_);}
	.st22{fill:url(#SVGID_17_);}
	.st23{fill:url(#SVGID_18_);}
	.st24{fill:url(#SVGID_19_);}
	.st25{fill:url(#SVGID_20_);}
	.st26{fill:url(#SVGID_21_);}
	.st27{fill:url(#SVGID_22_);}
	.st28{fill:url(#SVGID_23_);}
	.st29{fill:url(#SVGID_24_);}
	.st30{fill:url(#SVGID_25_);}
	.st31{fill:url(#SVGID_26_);}
	.st32{fill:url(#SVGID_27_);}
	.st33{fill:url(#SVGID_28_);}
	.st34{fill:url(#SVGID_29_);}
	.st35{fill:url(#SVGID_30_);}
	.st36{fill:url(#SVGID_31_);}
	.st37{fill:url(#SVGID_32_);}
	.st38{fill:url(#SVGID_33_);}
	.st39{fill:url(#SVGID_34_);}
	.st40{fill:url(#SVGID_35_);}
	.st41{fill:url(#SVGID_36_);}
	.st42{fill:url(#SVGID_37_);}
	.st43{fill:url(#SVGID_38_);}
	.st44{fill:url(#SVGID_39_);}
	.st45{fill:url(#SVGID_40_);}
	.st46{fill:url(#SVGID_41_);}
	.st47{fill:url(#SVGID_42_);}
	.st48{fill:url(#SVGID_43_);}
	.st49{fill:url(#SVGID_44_);}
	.st50{fill:url(#SVGID_45_);}
	.st51{fill:url(#SVGID_46_);}
	.st52{fill:url(#SVGID_47_);}
	.st53{fill:url(#SVGID_48_);}
	.st54{fill:url(#SVGID_49_);}
	.st55{fill:url(#SVGID_50_);}
	.st56{fill:url(#SVGID_51_);}
	.st57{fill:url(#SVGID_52_);}
	.st58{fill:url(#SVGID_53_);}
	.st59{fill:url(#SVGID_54_);}
	.st60{fill:url(#SVGID_55_);}
	.st61{fill:url(#SVGID_56_);}
	.st62{fill:url(#SVGID_57_);}
	.st63{fill:url(#SVGID_58_);}
	.st64{fill:url(#SVGID_59_);}
	.st65{fill:url(#SVGID_60_);}
	.st66{fill:url(#SVGID_61_);}
	.st67{fill:url(#SVGID_62_);}
	.st68{fill:url(#SVGID_63_);}
	.st69{fill:url(#SVGID_64_);}
	.st70{fill:url(#SVGID_65_);}
	.st71{fill:url(#SVGID_66_);}
	.st72{fill:none;stroke:#036EB7;stroke-width:2;stroke-miterlimit:10;}
	.st73{fill:url(#SVGID_67_);}
	.st74{fill:url(#SVGID_68_);}
	.st75{fill:url(#SVGID_69_);}
	.st76{fill:url(#SVGID_70_);}
	.st77{fill:url(#SVGID_71_);}
	.st78{fill:url(#SVGID_72_);}
	.st79{fill:url(#SVGID_73_);}
	.st80{fill:url(#SVGID_74_);}
	.st81{fill:url(#SVGID_75_);}
	.st82{fill:url(#SVGID_76_);}
	.st83{fill:url(#SVGID_77_);}
	.st84{fill:url(#SVGID_78_);}
	.st85{fill:url(#SVGID_79_);}
	.st86{fill:#B3B3B3;}
	.st87{fill:#777778;}
	.st88{fill:url(#SVGID_80_);}
	.st89{fill:url(#SVGID_81_);}
	.st90{fill:url(#SVGID_82_);}
	.st91{fill:url(#SVGID_83_);}
	.st92{fill:url(#SVGID_84_);}
	.st93{fill:url(#SVGID_85_);}
	.st94{fill:url(#SVGID_86_);}
	.st95{clip-path:url(#SVGID_88_);fill:url(#SVGID_89_);}
	.st96{clip-path:url(#SVGID_91_);}
	.st97{fill:url(#SVGID_92_);}
	.st98{fill:url(#SVGID_93_);}
	.st99{fill:url(#SVGID_94_);}
	.st100{fill:#124380;}
	.st101{opacity:0.82;fill:url(#SVGID_95_);}
	.st102{opacity:0.21;fill:url(#SVGID_96_);}
	.st103{opacity:0.82;fill:url(#SVGID_97_);}
	.st104{opacity:0.21;fill:url(#SVGID_98_);}
	.st105{opacity:0.82;fill:url(#SVGID_99_);}
	.st106{opacity:0.21;fill:url(#SVGID_100_);}
	.st107{fill:#C7391A;}
	.st108{fill:#083A6E;}
	.st109{fill:#3D3A39;}
	.st110{fill:#0A559A;}
	.st111{fill:#2E3D47;}
	.st112{fill:#E72410;}
	.st113{fill-rule:evenodd;clip-rule:evenodd;fill:#E72410;}
	.st114{fill:#124385;}
	.st115{opacity:0.82;fill:url(#SVGID_101_);}
	.st116{opacity:0.21;fill:url(#SVGID_102_);}
	.st117{opacity:0.82;fill:url(#SVGID_103_);}
	.st118{opacity:0.21;fill:url(#SVGID_104_);}
	.st119{opacity:0.82;fill:url(#SVGID_105_);}
	.st120{opacity:0.21;fill:url(#SVGID_106_);}
	.st121{fill:#CE391A;}
	.st122{fill:url(#SVGID_107_);}
	.st123{fill:none;stroke:url(#SVGID_108_);stroke-width:2;stroke-miterlimit:10;}
	.st124{fill:url(#SVGID_109_);}
	.st125{fill:url(#SVGID_112_);}
	.st126{clip-path:url(#SVGID_114_);}
	.st127{fill:none;stroke:#FF9825;stroke-width:1.4185;stroke-linecap:round;stroke-miterlimit:10;}
	.st128{fill:url(#SVGID_117_);}
	.st129{fill:url(#SVGID_120_);}
	.st130{clip-path:url(#SVGID_122_);}
	.st131{fill:url(#SVGID_125_);}
	.st132{fill:none;stroke:url(#SVGID_126_);stroke-width:2;stroke-miterlimit:10;}
	.st133{fill:url(#SVGID_127_);}
	.st134{fill:url(#SVGID_128_);}
	.st135{fill:url(#SVGID_129_);}
	.st136{fill:url(#SVGID_130_);}
	.st137{fill:url(#SVGID_131_);}
	.st138{fill:#717071;}
	.st139{fill:#E50012;}
	.st140{fill:url(#SVGID_132_);}
	.st141{fill:url(#SVGID_133_);}
	.st142{fill:url(#SVGID_134_);}
	.st143{fill:url(#SVGID_135_);}
	.st144{fill:url(#SVGID_136_);}
	.st145{fill:url(#SVGID_137_);}
	.st146{fill:url(#SVGID_138_);}
	.st147{fill:url(#SVGID_139_);}
	.st148{fill:url(#SVGID_140_);}
	.st149{fill:url(#SVGID_141_);}
	.st150{fill:url(#SVGID_142_);}
	.st151{fill:url(#SVGID_143_);}
	.st152{fill:url(#SVGID_144_);}
	.st153{fill:url(#SVGID_145_);}
	.st154{fill:url(#SVGID_146_);}
	.st155{fill:url(#SVGID_147_);}
	.st156{fill:url(#SVGID_148_);}
	.st157{fill:url(#SVGID_149_);}
	.st158{fill:url(#SVGID_150_);}
	.st159{fill:url(#SVGID_151_);}
	.st160{fill:url(#SVGID_152_);}
	.st161{fill:url(#SVGID_153_);}
	.st162{fill:url(#SVGID_154_);}
	.st163{fill:url(#SVGID_155_);}
	.st164{fill:url(#SVGID_156_);}
	.st165{fill:url(#SVGID_157_);}
	.st166{fill:url(#SVGID_158_);}
	.st167{fill:url(#SVGID_159_);}
	.st168{fill:url(#SVGID_160_);}
	.st169{fill:url(#SVGID_161_);}
	.st170{fill:url(#SVGID_162_);}
	.st171{fill:url(#SVGID_163_);}
	.st172{fill:url(#SVGID_164_);}
	.st173{fill:url(#SVGID_165_);}
	.st174{fill:url(#SVGID_166_);}
	.st175{fill:url(#SVGID_167_);}
	.st176{fill:url(#SVGID_168_);}
	.st177{clip-path:url(#SVGID_170_);fill:url(#SVGID_171_);}
	.st178{clip-path:url(#SVGID_173_);}
	.st179{fill:url(#SVGID_174_);}
	.st180{fill:url(#SVGID_175_);}
	.st181{fill:url(#SVGID_176_);}
	.st182{fill:url(#SVGID_177_);}
	.st183{fill:none;stroke:url(#SVGID_178_);stroke-width:2;stroke-miterlimit:10;}
	.st184{fill:url(#SVGID_179_);}
	.st185{fill:url(#SVGID_182_);}
	.st186{clip-path:url(#SVGID_184_);}
	.st187{fill:url(#SVGID_187_);}
	.st188{fill:url(#SVGID_190_);}
	.st189{clip-path:url(#SVGID_192_);}
</style>
<g>
	<g class="st0">
		
			<image style="overflow:visible;opacity:0.15;" width="3084" height="840" xlink:href="DB8C51C3.png"  transform="matrix(0.24 0 0 0.24 42.6629 -7.1222)">
		</image>
		<g>
			<path class="st1" d="M740.7,172.3h-670c-11,0-20-9-20-20V21c0-11,9-20,20-20h670c11,0,20,9,20,20v131.3
				C760.7,163.3,751.7,172.3,740.7,172.3z"/>
		</g>
	</g>
	<g>
		<g>
			<path class="st138" d="M290.3,72.7v27.4h-4.6v-2.4h-12.2v12.7h-4.6V97.7H257v2.6h-4.4V72.7h16.3v-6.3h4.6v6.3H290.3z M257,77v6
				h11.9v-6H257z M268.8,93.4v-6.3H257v6.3H268.8z M273.5,77v6h12.2v-6H273.5z M285.6,93.4v-6.3h-12.2v6.3H285.6z"/>
			<path class="st138" d="M311.1,97.7c-0.3,4.5-1.7,9.5-6,12.9c-0.6-0.9-1.8-2.2-2.6-2.9c3.5-2.5,4.4-6.5,4.7-10h-4.4V94h4.5v-5
				h-5.1v-3.6h7.5c0.7-2.5,1.6-6.2,1.9-8.8l3.5,0.7c-0.8,2.7-1.6,5.7-2.3,8.1h3.6V89h-5.2v5h4.4v3.6H311.1z M316.3,76.2h-13.7v-3.6
				h5.1c-0.5-1.5-1.2-3.2-2-4.6l3.7-1.1c1,1.7,2,4,2.5,5.7h4.4V76.2z M304.9,85.2c0-2-0.5-5.2-1.3-7.6l3-0.7
				c0.8,2.4,1.4,5.5,1.5,7.5L304.9,85.2z M329.6,78.9c-0.3,20.4-0.5,27-1.6,28.9c-0.7,1.2-1.5,1.6-2.7,1.8c-1,0.2-2.4,0.1-3.8,0.1
				c0-1.1-0.4-2.6-1-3.6c1.3,0.1,2.4,0.1,3.1,0.1c0.5,0,0.9-0.1,1.2-0.8c0.7-1.2,1-7.2,1.2-24.5h-2.7c-0.5,12.3-2,22.3-6.8,29.7
				c-0.5-0.7-2.1-2-2.9-2.6c4.4-6.3,5.9-15.6,6.3-27h-2.6V77h2.7c0-3.4,0-7,0-10.6h3.5c0,3.7,0,7.2-0.1,10.6h6.3V78.9z M340.8,89.1
				v5.7h4.8v3.6h-4.8v12h-4v-12h-4.6v-3.6h4.6v-5.7h-5.5v-3.6h8c0.8-2.5,1.6-6.4,2-9l3.4,0.8c-0.6,2.7-1.4,5.8-2.2,8.2h3.6v3.6
				H340.8z M345.5,76.1h-14.1v-3.6h5.2c-0.5-1.6-1.3-3.4-2.1-4.8l3.7-1.1c1,1.8,2,4.1,2.7,5.9h4.6V76.1z M334.1,85.2
				c0-2.1-0.6-5.3-1.4-7.8l3-0.8c0.9,2.4,1.5,5.6,1.6,7.7L334.1,85.2z"/>
			<path class="st138" d="M384.9,73.6c0,0.3,0,0.7-0.1,1.2c2.6,2.6,7.7,4.3,14.1,4.7c-0.9,0.9-2,2.5-2.4,3.6
				c-5.5-0.8-9.8-2.5-12.9-5.3c-1.7,2.2-5.5,4.3-13.8,5.4c-0.4-1-1.4-2.5-2.3-3.3h-12.2v-3.5h13.9v3.2c10.4-1.3,11.5-4,11.5-6.1
				v-0.6h-4c-1.1,1.7-2.3,3.3-3.5,4.5c-0.7-0.6-2.4-1.8-3.4-2.3c2.5-2.2,4.5-5.5,5.5-8.8l4,0.9c-0.3,0.8-0.6,1.6-0.9,2.4h15l0.6-0.2
				l3.1,1c-1.2,2.5-2.8,5.3-4.2,7.1l-3.5-1.2c0.6-0.9,1.3-2.1,2-3.3h-6.7V73.6z M384.5,102.7c4.9,1.6,10.3,3.6,13.5,5.2l-4,2.4
				c-2.9-1.6-8-3.7-12.9-5.4l2.8-2.3h-14.4l4,1.8c-3.9,2.4-9.9,4.7-14.7,6c-0.8-0.9-2.4-2.5-3.3-3.4c4.9-1,10.5-2.6,13.8-4.5h-7.7
				V83.4h31.3v19.3H384.5z M368.1,72.4h-11.8V69h11.8V72.4z M365.9,88.9h22.5v-2.7h-22.5V88.9z M365.9,94.3h22.5v-2.7h-22.5V94.3z
				 M365.9,99.8h22.5V97h-22.5V99.8z"/>
			<path class="st138" d="M449.6,72.5c-2,4.6-5,8.5-8.7,11.7c3.3,2,7.1,3.5,11.2,4.4c-0.7,1.1-1.3,2.9-1.6,4.1
				c-4.8-1.3-9.2-3.4-13-6c-4.2,2.8-9,5-13.9,6.5c-0.3-0.8-1-2-1.5-2.9l-0.5,0.6c-0.6-1.3-1.9-3.6-3.1-5.6v25.1h-4.2V88.6
				c-1.4,4.8-3.3,9.4-5.2,12.3c-0.4-1.3-1.4-3.3-2.2-4.5c2.8-3.8,5.5-10.9,6.7-16.9h-5.7v-4.1h6.3v-9h4.2v9h4.8v3.2
				c3.4-3.1,6.3-7.6,8-12.5l3.9,1.1c-0.5,1.2-1,2.5-1.6,3.7h12.2l0.7-0.2L449.6,72.5z M423.5,88.6c3.7-1.2,7.3-2.7,10.5-4.7
				c-1.8-1.6-3.5-3.5-4.8-5.4c-1.1,1.4-2.3,2.7-3.5,3.9c-0.4-0.8-1.5-2.4-2.4-3.3v0.4h-4.8v0.6c1.2,1.2,4.9,6.1,5.9,7.3L423.5,88.6z
				 M426.2,92.6h21.7v17.6h-4.4v-2.4h-13.1v2.5h-4.2V92.6z M430.4,96.5v7.3h13.1v-7.3H430.4z M431.7,74.9L431.7,74.9
				c1.3,2.6,3.3,4.8,5.7,6.7c2.4-1.9,4.5-4.2,6.1-6.7H431.7z"/>
			<path class="st138" d="M474.8,89.7c0,0,0,1.2-0.1,1.8c-0.5,10.9-1.1,15.3-2.4,16.8c-0.9,1.1-1.8,1.4-3.2,1.6
				c-1.2,0.1-3.4,0.1-5.7,0c0-1.3-0.5-3.1-1.3-4.4c2.2,0.2,4.3,0.3,5.1,0.3c0.8,0,1.2-0.1,1.6-0.6c0.8-0.8,1.2-3.9,1.7-11.7h-9.1
				c0.3-3.8,0.5-9.9,0.5-14.7h8.5v-6.4h-9.2v-4h13.3V83h-9c0,2.3-0.1,4.7-0.2,6.8H474.8z M504.5,103.7h-12.7v6.7h-4v-6.7h-12v-3.7
				h12v-2.8H478V80.9h24.1v16.3h-10.2v2.8h12.7V103.7z M488.6,78.7h-11.4V68.1h11.4V78.7z M484.9,71.3h-4.2v4.2h4.2V71.3z
				 M481.9,87.4h5.9v-3.2h-5.9V87.4z M487.8,93.8v-3.2h-5.9v3.2H487.8z M502.7,78.7H491V68.1h11.7V78.7z M498,84.2h-6.2v3.2h6.2
				V84.2z M498,90.6h-6.2v3.2h6.2V90.6z M499,71.3h-4.5v4.2h4.5V71.3z"/>
			<path class="st138" d="M512.7,87.8c1.2-3.2,2.1-8.5,2.4-12.4l3.2,0.5c-0.2,3.9-1.1,9.5-2.3,13.1L512.7,87.8z M556.9,104.6v4.2
				h-29.4v-4.2h13.3V93.7h-9.7v-4.2h9.7v-9h-6.2c-0.9,2.7-2,5.1-3.1,7.1c-0.9-0.6-2.9-1.6-4-2.1c0.6-1,1.2-2.1,1.8-3.3l-2.7,1.3
				c-0.4-1.9-1.7-5-2.9-7.5v34.4h-4.5v-44h4.5v8.9l2.8-1.2c1.2,2.3,2.5,5.2,3.1,7.2c1.5-3.7,2.5-8.3,3.2-12.8l4.4,0.7
				c-0.3,2.4-0.9,4.8-1.4,7h5v-9.7h4.5v9.7h10.4v4.2h-10.4v9h9.3v4.2h-9.3v10.9H556.9z"/>
		</g>
	</g>
	<g>
		<g>
			<linearGradient id="SVGID_2_" gradientUnits="userSpaceOnUse" x1="61.0243" y1="71.5117" x2="25.5777" y2="53.6627">
				<stop  offset="0" style="stop-color:#C64214"/>
				<stop  offset="1" style="stop-color:#A52C0C"/>
			</linearGradient>
			<polygon style="fill:url(#SVGID_2_);" points="2,79.4 51.2,107.3 51.2,30.5 2,1 			"/>
			<g>
				
					<image style="overflow:visible;opacity:0.2;" width="910" height="377" xlink:href="DB8C51C1.png"  transform="matrix(0.24 0 0 0.24 -0.1771 -1.0022)">
				</image>
				<g>
					<g>
						<g>
							<g>
								<defs>
									<path id="SVGID_180_" d="M177.5,79.4H2V1h175.5c16.9,0,30.7,13.7,30.7,30.7v17C208.2,65.6,194.5,79.4,177.5,79.4z"/>
								</defs>
								<clipPath id="SVGID_3_">
									<use xlink:href="#SVGID_180_"  style="overflow:visible;"/>
								</clipPath>
							</g>
						</g>
					</g>
					<g>
						<g>
							<linearGradient id="SVGID_4_" gradientUnits="userSpaceOnUse" x1="18.4141" y1="7.9468" x2="199.7082" y2="86.3716">
								<stop  offset="0" style="stop-color:#FF9825"/>
								<stop  offset="1" style="stop-color:#ED5F21"/>
							</linearGradient>
							<path class="st3" d="M177.5,79.4H2V1h175.5c16.9,0,30.7,13.7,30.7,30.7v17C208.2,65.6,194.5,79.4,177.5,79.4z"/>
							<g>
								<defs>
									<path id="SVGID_183_" d="M177.5,79.4H2V1h175.5c16.9,0,30.7,13.7,30.7,30.7v17C208.2,65.6,194.5,79.4,177.5,79.4z"/>
								</defs>
								<clipPath id="SVGID_5_">
									<use xlink:href="#SVGID_183_"  style="overflow:visible;"/>
								</clipPath>
								<g style="clip-path:url(#SVGID_5_);">
									<path class="st127" d="M-6.9,10.2h175c16.6,0,30,13.4,30,30v0c0,16.6-13.4,30-30,30h-175"/>
								</g>
							</g>
						</g>
					</g>
					<g>
						<g>
							<g>
								<defs>
									<path id="SVGID_185_" d="M177.5,79.4H2V1h175.5c16.9,0,30.7,13.7,30.7,30.7v17C208.2,65.6,194.5,79.4,177.5,79.4z"/>
								</defs>
								<clipPath id="SVGID_6_">
									<use xlink:href="#SVGID_185_"  style="overflow:visible;"/>
								</clipPath>
							</g>
						</g>
					</g>
				</g>
			</g>
		</g>
		<g>
			<g>
				<path class="st9" d="M68.4,43.9l-3.1,0.8v10.1h-3.6v-9.2l-4.2,1.1l-0.9-3.9c1.4-0.3,3.2-0.6,5.2-1v-7h-1.9
					c-0.3,1.6-0.7,3.1-1.2,4.3c-0.6-0.3-2-0.8-2.7-1c1-2.6,1.6-6.7,1.9-10.6l2.9,0.4c-0.1,1.1-0.2,2.2-0.4,3.3h1.3v-6.2h3.6v6.2h2.8
					v3.6h-2.8V41l2.7-0.6L68.4,43.9z M85.9,43.8h-3.1v6.7c0,1.9-0.4,2.9-1.6,3.5c-1.2,0.6-3,0.7-5.3,0.7c-0.2-1.1-0.7-2.7-1.2-3.8
					c1.5,0.1,3.2,0.1,3.7,0.1c0.5,0,0.6-0.1,0.6-0.5v-6.6H68.9v-3.5H79v-2.2h3.8v2.2h3.1V43.8z M75,31.2h-6v-3.5h6v-2.8h3.8v2.8h6.4
					v3.5h-6.4v2.7h5.3v3.5H70.2v-3.5H75V31.2z M73.1,43.9c1.4,1.4,3.1,3.5,3.8,4.8l-3,2c-0.7-1.3-2.3-3.5-3.6-5L73.1,43.9z"/>
				<path class="st9" d="M91.2,53.5c1.2-1.3,1.9-3.6,2.2-5.7l2.6,0.8c-0.4,2.3-0.9,4.7-2.3,6.2L91.2,53.5z M91.9,43.9
					c1.6,0,3.6-0.1,5.7-0.2v-1.5h-4.9v-2.9h4.9v-1.4h-5V25.8h13.5v12.1H101v1.4h5.1v2.9H101v1.4c1.9-0.1,3.8-0.2,5.6-0.2l-0.1,2.9
					c-5.2,0.3-10.7,0.6-14.5,0.8L91.9,43.9z M95.4,35.3h2.7v-6.9h-2.7v1.3l1.5-0.4c0.5,1.5,0.9,3.4,1,4.6l-1.7,0.5
					c-0.1-1.2-0.4-3-0.8-4.4V35.3z M98.5,47.7c0.4,1.8,0.6,4.1,0.7,5.6l-2.5,0.3c0.1-1.5-0.2-3.8-0.5-5.6L98.5,47.7z M101.6,47.4
					c0.6,1.7,1.2,3.8,1.4,5.3l-2.3,0.5c-0.2-1.4-0.7-3.6-1.3-5.3L101.6,47.4z M103.2,28.4h-2.8v5.3c0.4-1.3,1-3.1,1.2-4.4l1.5,0.5
					V28.4z M103.2,35.3v-4.5c-0.5,1.3-1,2.7-1.4,3.6l-1.3-0.5v1.4H103.2z M104.7,46.7c1,1.5,2,3.6,2.5,5l-2.4,1
					c-0.4-1.4-1.3-3.5-2.3-5.1L104.7,46.7z M115.2,35v4.9h5.1v14.7h-3.6v-1.1h-5.9v1.2h-3.5V39.9h4.2v-15h3.7v6.6h6.2V35H115.2z
					 M116.6,43.4h-5.9V50h5.9V43.4z"/>
				<path class="st9" d="M128.2,48.2h5.1v-15H129v-2.9c2.4-0.4,4-1.1,5.5-2h3.5v19.9h4.4V52h-14.2V48.2z"/>
			</g>
		</g>
	</g>
</g>
</svg>
