<svg xmlns="http://www.w3.org/2000/svg" width="367.285" height="350.982" viewBox="0 0 367.285 350.982">
  <g id="组_3978" data-name="组 3978" transform="translate(-916 -2372.509)">
    <g id="组_3919" data-name="组 3919" transform="translate(262.317 2459.122)" opacity="0.2">
      <path id="路径_19837" data-name="路径 19837" d="M761.726-60.856C721.853-41.679,692.7-7.088,676.145,29.422c-14.062,31.018-19.919,63.8-22.214,96.075-4.256,59.835,46.839,102.834,102.7,123.225,51.5,18.8,114.4,23.516,168.079-1.9,53.066-25.123,88.907-77.362,95.156-128.7S1005.217,17.331,969.732-19.2C955.3-34.067,937.541-44.3,921.07-56.772,905.42-68.626,890.561-80.79,869.322-85,835.208-91.748,793.5-76.136,761.726-60.856Z" fill="#fcfca2"/>
    </g>
    <g id="组_3939" data-name="组 3939" transform="translate(662.02 2242.681)">
      <path id="路径_19861" data-name="路径 19861" d="M567,474.239c-12.135-3.893-26.531-3.35-39.1-2.837a235.753,235.753,0,0,0-32.874,3.718c-2.464.451-4.911.98-7.352,1.534a21.876,21.876,0,0,0-8.223-.121c-5.4.9-10.268.735-15.379,3.1-1.929.89-5.065,2.259-5.7,4.5a3.2,3.2,0,0,0-.115.671,2.436,2.436,0,0,0-1.029,2.837c1.005,2.75,3.427,4.027,6.36,4.322,1.329.133,2.685.206,4.053.228,2.531,1.017,5.979,1.014,8.135,1.036a11.361,11.361,0,0,0,2.53-.283c3.686.467,7.615.458,10.94.645,13.556.764,27.018-.8,40.462-2.349,11.916-1.381,24.066-2.46,35.785-5.1,2.457-.553,7.652-2.507,8.114-5.574C574.2,476.714,570.1,475.234,567,474.239Z" transform="translate(-25.157 -67.247)" fill="#d5d5d5"/>
      <g id="组_3938" data-name="组 3938" transform="translate(354.98 198.094)">
        <g id="组_3931" data-name="组 3931" transform="translate(4.453 29.157)">
          <g id="组_3930" data-name="组 3930" transform="translate(19.218 36.908)">
            <path id="路径_19862" data-name="路径 19862" d="M409.861,304.206c-1.8-2.46-.821-2.932-2.877-5.3-3.014-3.472-9.123-8.064-14.336-6.585a5.074,5.074,0,0,0-2.73,1.7,3.043,3.043,0,0,0-2.461,2.011c-2.172,5.65-.61,12.366.94,17.861,1.023,3.628,4.207,12.342,8.594,13.412a5.762,5.762,0,0,0,6.535-2.565c1.529-2.334,5.613-3.218,8.156-3.942-.619.176,2.042.1,2.544-.093C415.406,320.259,411.3,306.182,409.861,304.206Z" transform="translate(-386.389 -287.303)" fill="#d67540"/>
            <path id="路径_19863" data-name="路径 19863" d="M437.053,382.878a10.627,10.627,0,0,0-1.37-1.977c-.742-1.8-.963-4.611-1.549-6.071-1.419-3.543-2.452-7.273-3.591-10.918-2.271-7.254-4.146-14.651-7.579-21.439-.881-1.74-1.8-3.447-2.559-5.25-.433-1.032-.15-2.386-.581-3.385-.842-1.941-2.533-3.969-4.991-3.807-5.713.372-11.714,1.777-15.345,6.512a2.926,2.926,0,0,0,0,3.106l.24.335a2.889,2.889,0,0,0,1.137.929,5.011,5.011,0,0,0-.433,1.931c-.072,4,3.726,7.885,6.1,10.737,3.067,3.694,5.342,7.987,8.461,11.695a95.78,95.78,0,0,1,7.7,10.754,34.528,34.528,0,0,0,4.287,5.507c.593.621,1.5,1.428,2.258,2.271a7.835,7.835,0,0,0,2.919,3.992C435.264,390.093,438.5,385.7,437.053,382.878Z" transform="translate(-389.506 -296.663)" fill="#b8a764"/>
            <path id="路径_19864" data-name="路径 19864" d="M396.53,285.757a36.054,36.054,0,0,0-8.345,1.04,2.509,2.509,0,0,0-1.8,2.371,2.379,2.379,0,0,0,2.446,2.313c1.211.11,6.33-2.6,7.694-2.687C399.9,288.573,399.9,285.747,396.53,285.757Z" transform="translate(-386.389 -285.757)" fill="#edc940"/>
          </g>
          <path id="路径_19865" data-name="路径 19865" d="M396.739,271.519c0-.1,0-.2,0-.3-.036-1.581-.939-3.084-1.431-4.538-.616-1.823-1.5-4.165-3.351-5.029a3.27,3.27,0,0,0-3.439.417,4.2,4.2,0,0,0-1.175-.152,5.722,5.722,0,0,0-1.212.168c-.924-1.584-3.4-1.666-4.793-.368A4.906,4.906,0,0,0,380,264.192a5.515,5.515,0,0,1-.745.71c-.552.386-.426-.473-.609-1a3.372,3.372,0,0,0-2.544-2.488,2.883,2.883,0,0,0-3.5,2.742c.155,2.373-1.616,2.308-2.084,1.517l-.261-.44c-.9-1.516-2.8-1.387-4.075-.359-2.485,2-2.675,7.524-2.183,10.305a8.551,8.551,0,0,0,8.274,7.49c4.562.243,9.426.193,13.675-1.726,1.74-.788,3.573-.692,5.249-1.638a4.063,4.063,0,0,0,1.263-1.148c2.172.821,5.051-.425,4.941-3.161A11.345,11.345,0,0,0,396.739,271.519Z" transform="translate(-361.601 -242.703)" fill="#edbb7a"/>
          <path id="路径_19866" data-name="路径 19866" d="M388.478,251.532c-.333-2.593-3.35-5.956-6.278-6.029-.078-.08-.159-.157-.235-.239-.154-.167-.314-.326-.471-.486a13.264,13.264,0,0,0-2.517-2.964c-.118-.2-.243-.4-.383-.607-.9-1.3-1.907-2.537-2.815-3.821a1.3,1.3,0,0,0-1.786-.382c-1.887,1.479-.768,3.635.393,5.1.522.659.974,1.337,1.442,1.981.008.041.013.094.022.131s.025.079.035.12a2.8,2.8,0,0,0-1.467.222,8.277,8.277,0,0,0-2.353-3.868,10.229,10.229,0,0,0-9.6-1.9c-2.1.6-2.1,3.7,0,4.127,2.193.441,4.3-.172,6.208,1.225,1.2.879,1.237,2.381,1.107,3.866a4.823,4.823,0,0,0-.1,3.083c.019.075.05.136.073.2a56.688,56.688,0,0,1-1.23,6.178,1.847,1.847,0,0,0,1.359,2.287c3.192.745,4.067-2.693,3.941-5.087a6.805,6.805,0,0,1,.623-2.388,7.834,7.834,0,0,0,.813,2.1,2.305,2.305,0,0,0,2.1,1.03c.191.187.38.364.564.518,1.182.989,3.4.283,3.31-1.469a4.3,4.3,0,0,0-.511-2.139c1.665.232,3.285,1.132,4.945,1.412C386.926,253.953,388.669,253.018,388.478,251.532Z" transform="translate(-360.889 -236.783)" fill="#0666b2"/>
        </g>
        <g id="组_3932" data-name="组 3932" transform="translate(192.159 143.02)">
          <path id="路径_19867" data-name="路径 19867" d="M663.944,415.043c-.923-5.137-2.229-9.524-5.287-13.741-2.241-3.085-5.136-6.061-8.722-7.428a22.521,22.521,0,0,0-5.3-1.263,1.081,1.081,0,0,0-1.461-.286c-.077.046-.161.072-.24.112-2.113-.168-4.251-.2-6.444-.32-2.126-.121-5.445.057-6.58,2.342-2.2-5.783-9.42-8.943-14.562-4.491-1.908,1.652-4.43,4.682-4.728,7.282a1.576,1.576,0,0,0,.315,1.268,31.25,31.25,0,0,0-.533,3.958,65.564,65.564,0,0,0,.142,16.353,54.649,54.649,0,0,0,4.168,14.388c2.043,4.678,5.721,8.492,9.143,12.164,2.036,2.186,7.018,3.419,9.874,3.747,5.224.605,10.176-1.407,15.026-3.21,3.721-1.385,7.149-2.382,10-5.357s5.411-7.064,5.918-11.222A50.478,50.478,0,0,0,663.944,415.043Zm-36.565-9.5a9.974,9.974,0,0,1-1.908,1.107,4.431,4.431,0,0,1-3.839.708,7.385,7.385,0,0,1-2.326.063,7.887,7.887,0,0,1-3.982-2.379c-2.054-1.9-1-5.5,1.252-6.715a15.011,15.011,0,0,1,2.7-1.177,6.15,6.15,0,0,1,.5-.485c3.027-2.611,6.532.068,8.367,2.577A4.594,4.594,0,0,1,627.379,405.54Z" transform="translate(-609.957 -387.869)" fill="#fff"/>
          <path id="路径_19868" data-name="路径 19868" d="M636.972,448.99a13.533,13.533,0,0,0-1.024-2.073c-4.4-7.484-14.173-2.355-9.038,3.774a5.229,5.229,0,0,0,.488,1.667c.637,1.3,2.555,2.963,4.057,2.929a3.05,3.05,0,0,0,1.643-.5C636.011,452.87,638.18,452.23,636.972,448.99Z" transform="translate(-613.776 -401.5)" fill="#ff3654"/>
          <path id="路径_19869" data-name="路径 19869" d="M663.226,444.725a6.071,6.071,0,0,0-1.236-3.032,3.709,3.709,0,0,0-6.167.369c-.095.041-.189.078-.283.122-.127.06-.246.131-.365.2a3.371,3.371,0,0,0-1.551-.347A3.723,3.723,0,0,0,650,445.767c.075,2.442,1.025,4.931,3.319,6.026a7.73,7.73,0,0,0,7.167-.349A5.628,5.628,0,0,0,663.226,444.725Z" transform="translate(-619.823 -400.765)" fill="#5cb854"/>
          <path id="路径_19870" data-name="路径 19870" d="M672.877,420.97c-.072-.135-.164-.253-.243-.38-.708-2.043-2.9-3.384-4.723-4.13a5.082,5.082,0,0,0-6.742,3.061c-.863,2.492.31,4.78,2.124,6.3.108.139.22.274.335.4a2.308,2.308,0,0,0,.427,2.414c1.069,1.363,3.062,1.5,4.63,1.666a3.164,3.164,0,0,0,2.774-1.659,5.907,5.907,0,0,0,.593-1.733A5.079,5.079,0,0,0,672.877,420.97Z" transform="translate(-622.503 -394.819)" fill="#ffd154"/>
          <path id="路径_19871" data-name="路径 19871" d="M654.5,400.7a11.751,11.751,0,0,0-5.756.583c-1.787.814-2.094,2.8-1.812,4.507a3.913,3.913,0,0,0,1.565,2.295,5.174,5.174,0,0,0,.607.482,4.193,4.193,0,0,0,.691.369,3.239,3.239,0,0,0,2.534,1.282,5.491,5.491,0,0,0,3.817-1.5,2.579,2.579,0,0,0,.729-1.07,4.657,4.657,0,0,0,.93-1.737C658.526,403.424,656.693,401.338,654.5,400.7Z" transform="translate(-619.045 -390.975)" fill="#2965c2"/>
        </g>
        <g id="组_3933" data-name="组 3933" transform="translate(98.949 204.469)">
          <path id="路径_19872" data-name="路径 19872" d="M507.625,476.351a7.017,7.017,0,0,0-1.964-1.011,2.514,2.514,0,0,0-1.294-1.516c-1.532-.889-3.712-.644-5.395-.633a38.6,38.6,0,0,0-10.825,1.413,1.984,1.984,0,0,0-1.434,2.432c-.037.066-.082.128-.113.2a3.144,3.144,0,0,0-.266,1.066,3.18,3.18,0,0,0,1.754,3.181,1.535,1.535,0,0,0,.244.119,2.11,2.11,0,0,0,.787.747,4.5,4.5,0,0,0,2.793.36,12.4,12.4,0,0,0,5.662.06c3.688.608,8.021-.145,10.209-1.83A2.994,2.994,0,0,0,507.625,476.351Z" transform="translate(-486.276 -470.329)" fill="#4dc0d8"/>
          <path id="路径_19873" data-name="路径 19873" d="M575.394,470.7c-2.143-1.581-5.813-1.279-8.281-1.268a32.3,32.3,0,0,0-10.237,1.618,8.872,8.872,0,0,0-.917.369,6.312,6.312,0,0,0-2.9,1.668c-.909.974-1.039,1.772-.7,2.43-.216,1.526.646,3.066,3.1,4.046,1.147.459,1.751-1,1.158-1.83a34.565,34.565,0,0,0,3.778.646,1.011,1.011,0,0,0,1.046.687,28.538,28.538,0,0,0,4.042-.428,27.284,27.284,0,0,0,8.716-1.52C577.3,475.959,578.239,472.8,575.394,470.7Z" transform="translate(-502.515 -469.406)" fill="#4dc0d8"/>
        </g>
        <g id="组_3936" data-name="组 3936" transform="translate(80.273 1.797)">
          <path id="路径_19874" data-name="路径 19874" d="M539.239,367.121c-2.125-4.306-1.341-10.84-6.686-12.626a2.857,2.857,0,0,0-3.438,1.332c-1.76,3.2-4.739,3.675-8.26,3.782-4.451.134-3.2-4.315-5.6-6.316a11.341,11.341,0,0,0-5.888-2.641,1.069,1.069,0,0,0-1.122-1.141c-3.116.075-2.332,5.192-2.238,7.173.126,2.636.045,5.291.045,7.933,0,3.039-.6,5.7.846,8.516,2.6,5.065,7.2,3.819,12.179,3.729,2.711-.049,5.352.326,8.045-.188a56.965,56.965,0,0,1,10.072-.982C541.685,375.628,540.432,369.542,539.239,367.121Z" transform="translate(-472.423 -237.195)" fill="#7fc0d8"/>
          <path id="路径_19875" data-name="路径 19875" d="M557.937,406.312c-1.637-4.194-2.536-9.083-3.571-13.47-1.237-5.23-2.477-10.332-4.079-15.481-1.808-5.808-3.831-11.853-4.86-17.86-.362-2.11-.439-5.729-3.113-6.1-2.139-.293-6.212,1.692-7.733,3.186-2.336,2.293-.743,4.892.714,7.242,1.17,1.886,3.628,4.221,3.171,6.682-.215,1.161-6.9,1.236-7.907,1.331-4.578.427-9.057,1.439-13.668,1.846-2.468.217-5.009.094-7.481.14-1.471.027-4.036.577-5.8.354v-12c0-2.079,0-4.152.1-6.23.015-.318.114-5.264.876-5.621,1.355-.635.2-2.576-1.143-1.983a1.136,1.136,0,0,0-1.476.46,15.572,15.572,0,0,0-1.947,6.371c-1.006,2.665-1.428,5.485-2.337,8.184a39.228,39.228,0,0,0-1.877,9.29c-.2.767-.378,1.538-.534,2.316-.987,4.954-1,10.075-1.782,15.063-.889,5.651-.451,11.511-.451,17.2,0,4.1-.808,9.123.558,13.042a3.2,3.2,0,0,0,1.907,2.14c1.83.414,5.021.752,6.741.134,4.422-1.592,9.8-1.746,14.473-2.228,5.072-.525,9.953-.526,15.066-.573,4.826-.044,9.707.173,14.494-.585,3.8-.6,8.848-.618,11.672-3.64C559.859,413.477,558.815,408.562,557.937,406.312Z" transform="translate(-469.207 -236.882)" fill="#bde28d"/>
          <g id="组_3935" data-name="组 3935">
            <path id="路径_19876" data-name="路径 19876" d="M567.349,297.2a5.629,5.629,0,0,0-2.336-3.648A8.2,8.2,0,0,0,558,292.309c-.109-.038-.221-.069-.334-.1a87.67,87.67,0,0,0,2.878-13.847c.264-2.258-1.95-4.152-4.076-4.084a51.015,51.015,0,0,1-16.4-1.944c-5.02-1.429-10.1-2.691-14.865-4.818-4.98-2.219-9.634-4.835-14.794-6.722-6.523-2.378-20.219-7.285-27.984-3.638a1.024,1.024,0,0,0-.584-.152l-.507.02a1.086,1.086,0,0,0-1.861-.359,30.767,30.767,0,0,0-2.881,3.712c-.852,1.21-1.65,2.447-2.384,3.715A8.056,8.056,0,0,0,473.084,261a9.656,9.656,0,0,0-1.163-3.406,3.238,3.238,0,0,0-4.642-.8,5.315,5.315,0,0,0-1.669,1.834c-4.848,2.028-4.821,12.1-2.932,15.7a5.022,5.022,0,0,0,6.5,2.017,52.311,52.311,0,0,0-1.242,6.169,60.807,60.807,0,0,0-.295,14.184c.433,4.2,3.574,8.9,6.139,12.047a43.727,43.727,0,0,0,11.593,9.787c2.214,2.464,6.194,4.116,8.518,5.293a60.273,60.273,0,0,0,12.014,4.767,16.964,16.964,0,0,0,.455,1.966c.387,1.353.656,2.745,1.036,4.1.59,2.712,1.932,5.45,4.75,4.3a4.37,4.37,0,0,0,2.008-1.935A6.011,6.011,0,0,0,516.4,335.5c1.091-1.218,2.472-3.428,1.738-5.067-.03-.069-.066-.118-.1-.18a7,7,0,0,0,.079-.827c1.532-.121,3.037-.3,4.521-.556,5.214.219,10.564-.656,13.266-4.663.091-.134.182-.287.273-.448.089-.063.175-.13.261-.194a22.89,22.89,0,0,0,6.395-3.648c1.884-1.568,3.685-3.309,5.535-4.932,1.977-1.734,2.7-4.824,3.708-7.184.213-.5.422-1,.631-1.507,2.871,2.152,9.024-.529,11.185-2.6a5.529,5.529,0,0,0,.436-.468c1.774-.945,3.382-2.213,3.532-4.373A2.221,2.221,0,0,0,567.349,297.2Z" transform="translate(-461.495 -214.121)" fill="#ffe6c9"/>
            <g id="组_3934" data-name="组 3934" transform="translate(8.512 67.828)">
              <path id="路径_19877" data-name="路径 19877" d="M575.575,312.826c-2.48-4.526-8.3-6.551-12.723-3.146a6.288,6.288,0,0,0-.819.776,9.406,9.406,0,0,0-3.508,9.717C561.108,330.391,580.844,322.456,575.575,312.826Z" transform="translate(-493.848 -294.79)" fill="#f7bfa7"/>
              <path id="路径_19878" data-name="路径 19878" d="M493.615,298.423c-1.373-3.093-3.97-4.714-6.93-6.164a12.9,12.9,0,0,0-4.989-1.605c-2.813-.876-6.332,1.71-7.943,4.2a5.814,5.814,0,0,0-.553,5.365c-1.384,6.68,8.554,13.267,15.041,10.98a9.468,9.468,0,0,0,5.71-6.6l0-.008c.058-.216.116-.431.16-.65a7.4,7.4,0,0,0,.124-.766c.008-.066.018-.133.025-.2.008-.1.015-.2.02-.3A8.824,8.824,0,0,0,493.615,298.423Z" transform="translate(-472.79 -290.48)" fill="#f7bfa7"/>
            </g>
            <path id="路径_19879" data-name="路径 19879" d="M582.787,238.309c-2.2-1.9-5.442-2.406-8.276-2.433-4.1-.039-8.2-.837-12.319-.509-4.318.342-8.426,1.845-12.8,2.017-5.248.208-8.864-1.816-13.2-4.316A29.258,29.258,0,0,1,521.9,208.6a1.162,1.162,0,0,0-2.321.106c.01.394.031.786.055,1.178-1.176-1.165-3.542-1.378-5.123-1.712a32.114,32.114,0,0,0-12.749-.02c-4.624.949-8.98,3.428-13.513,4.781-4.59,1.368-7.861,4.245-10.968,7.815a33.219,33.219,0,0,0-5.884,10.671c-1.534,4.058-.3,6.553,2.614,9.379,2.112,2.052,5.035,2.332,8.052,1.4a28.805,28.805,0,0,0,5.733-2.789,7.513,7.513,0,0,0,.872-.6c-.993,1.228-2.018,2.389-2.774,3.366a17.475,17.475,0,0,0-3.351,6.233,8.33,8.33,0,0,0,3.938,9.05c3.917,2.2,9.294-1.25,12.27-3.745,2.394-2.01,4.739-4.1,7.077-6.181,1.51-1.345,3.425-3.524,5.4-4.7-.644,3.208-3.657,6.626-4.391,9.693-.646,2.693-.635,5.336,1.131,7.429,4.955,5.878,12.928-.064,16.6-4.464a14.644,14.644,0,0,0,2.283-3.593,12.394,12.394,0,0,1,1.834-2.837c1.326-1.485.669-.059.827,1.155.408,3.147.087,8.029,1.571,10.9,1.035,2,2.923,3.665,5.373,2.9,2.747-.854,3.4-4.039,4.709-6.251,1.473-2.484,2.444,2.8,2.815,3.42a74.334,74.334,0,0,1,3.094,6.768c1.583,3.385,2.94,5.572,6.438,7.066,6.3,2.695,11.014-2.319,10.46-8.692-.025-.3,2.9,1.664,3.119,1.788,1.305.732,3.665.485,5.094.5a11.321,11.321,0,0,0,9.06-3.993c4.65-5.326,2.522-11.755-.22-17.024,1.736-1.081,3.7-.293,4.333-3.207C585.915,241.829,584.521,239.813,582.787,238.309Z" transform="translate(-463.771 -202.213)" fill="#c26f25"/>
            <path id="路径_19880" data-name="路径 19880" d="M589.354,228.464c-1.658-2.813-4.811-4.565-7.175-6.684-2.71-2.426-5.441-4.951-8.059-7.483a29.656,29.656,0,0,0-6.9-4.959,1.2,1.2,0,0,0,.016-.155v-.52a1.148,1.148,0,0,0-2.06-.647c-4.322-.369-8.315-2.682-12.183-4.35-2.961-1.274-6.162-1.838-9.175-2.895-4.484-1.57-5.866,3.507-6.218,7.1-.676,6.892,2.967,12.849,8.194,17.569.768,1.8,2.209,2.869,3.345,4.809,1.41,2.408,4.059,3.965,6.554,5,3.172,1.314,7.069,1.461,10.484,1.816,1.547.16,3.089.344,4.634.51a45.086,45.086,0,0,0,14.045.621C590.323,237.593,591.967,232.9,589.354,228.464Z" transform="translate(-480.226 -200.478)" fill="#c22f25"/>
          </g>
        </g>
        <g id="组_3937" data-name="组 3937">
          <path id="路径_19881" data-name="路径 19881" d="M548.888,297.388a2.679,2.679,0,0,1,2.164-1.762c1.754-.185,2.6,2.07,2.541,3.511a1.739,1.739,0,0,1-.809,1.444,1.62,1.62,0,0,1-1.981-.2l-.014-.014a2.072,2.072,0,0,1-1.629-1.205,2.863,2.863,0,0,1-.266-.765A2.194,2.194,0,0,1,548.888,297.388Z" transform="translate(-402.739 -222.12)"/>
          <path id="路径_19882" data-name="路径 19882" d="M500.129,285.843l.005-.02h0a1.542,1.542,0,0,1,.358-.619,1.406,1.406,0,0,1,1.23-.768,1.632,1.632,0,0,1,.365-.036,2.446,2.446,0,0,1,1.524.545,2.091,2.091,0,0,1,.56,2.219,3.64,3.64,0,0,1-.976,1.574,2.086,2.086,0,0,1-1.138.522,1.777,1.777,0,0,1-2.314-1.612A4.1,4.1,0,0,1,500.129,285.843Z" transform="translate(-390.646 -219.357)"/>
          <path id="路径_19883" data-name="路径 19883" d="M508.844,317.178c2.057,1.635,3.388,4.115,5.4,5.87a16.828,16.828,0,0,0,7.7,3.544c5.379,1.132,11.849-1.4,13.826-6.869a1.142,1.142,0,0,1,2.244.242c.241,6.668-8.739,10.3-14.136,10.239-6.354-.072-16.576-4.9-16.817-12.238A1.075,1.075,0,0,1,508.844,317.178Z" transform="translate(-392.449 -227.372)"/>
          <path id="路径_19884" data-name="路径 19884" d="M603.738,360.159A28.013,28.013,0,0,0,590.877,344.8c-6.4-3.455-14.821-2.146-21.586-.347-.9.238-1.788.525-2.672.825a14.406,14.406,0,0,0-6-4.856c-2.61-1.062-6.647.8-8.86,2.139a7.12,7.12,0,0,0-1.134.88c-.155.1-.318.21-.487.329a33.721,33.721,0,0,1-8.041-1.786c-4.137-1.543-7.9-4.184-11.432-6.772a111.98,111.98,0,0,1-10.166-8.692c-3.16-2.941-5.815-6.384-8.906-9.361a.731.731,0,0,0-.389-.512c-.124-.059-.247-.118-.372-.176-.029-.014-.057-.023-.087-.034,0-.016-.007-.031-.01-.046a35.509,35.509,0,0,0,11.433-7.482,49.277,49.277,0,0,0,9.98-14.47,11.645,11.645,0,0,0,6.555-.524c3.959-1.32,7.716-4.7,8.129-9.135.4-4.272-2.479-7.576-6.741-7.277a10.085,10.085,0,0,0-3.35.837,48.249,48.249,0,0,0,.362-8.812c3.88,1.67,9.151.665,13.014-1.475,7.335-4.067,8.654-14.406,5.048-21.246a7.865,7.865,0,0,0,4.428-1.843,5,5,0,0,0,1.122-6.408c-1.159-2.142-4.161-3.623-6.293-4.422a22.435,22.435,0,0,0-7.471-1.376,7.825,7.825,0,0,0-.155-3.413c-.712-2.745-3.174-5.221-5-7.2a57.752,57.752,0,0,0-8.523-7.45c-2.836-2.063-5.786-4.028-8.808-5.881.362-.264.707-.512,1.017-.744,2.106-1.565,4.792-2.159,6.767-3.885.669-.586.6-1.9-.423-1.968-3.088-.206-6.377,1.613-8.841,3.484-.489.372-1.054.8-1.635,1.259q-3.5-2.012-7.079-3.8c-5.194-2.579-12.626-6.015-18.752-4.827a1.082,1.082,0,0,0-.891,1.008,5.37,5.37,0,0,0-.74.362,4.578,4.578,0,0,0-1.655,1.625c-2,.869-2.8,2.7-3,4.81-1.326-.375-2.664-.736-3.973-1.13a7.627,7.627,0,0,0-2.782-.252.509.509,0,0,0-.279-.13c-3.657-.433-7.433.14-11.1.655a29.22,29.22,0,0,0-9.306,2.451,43.747,43.747,0,0,0-6.429,2.423c-3.372,1.571-6.1,3.978-8.886,6.4-4.893,4.248-8.009,11.858-7.848,18.141a10.366,10.366,0,0,0,.844,3.823c-2.6.387-4.72,3.019-5.67,5.575-1.347,3.63-2.162,8.663-.46,12.2a7.137,7.137,0,0,0,5.838,4,38.08,38.08,0,0,0-2.794,12.75c-.513,14.857,10.472,28.331,22.087,36.388a58.594,58.594,0,0,0,4.991,3.1c-.717.312-1.338.7-2.057.94a32.62,32.62,0,0,1-7.017,1.412,60.058,60.058,0,0,1-13.835-.362,58.5,58.5,0,0,1-13.9-3.59c-1.957-.774-6.737-2.318-8.744-4.389a1.7,1.7,0,0,0-.589-.8c-.008-.007-.017-.01-.028-.017a2.312,2.312,0,0,1-.267-.733.947.947,0,0,0-1.078-.842.915.915,0,0,0,.22-1.17c-.909-1.337-2.3-1.526-3.883-1.606-.276-.014-.554-.021-.832-.024q-.982-2.79-1.976-5.574c-3.063-8.52-6.85-17.027-12.046-24.431a19.809,19.809,0,0,0-4.656-4.606,1.832,1.832,0,0,0,.494-2.192c.017-.02.032-.042.047-.063a.779.779,0,0,0,.475.085c4.677-.72,4.345-5.673,4.256-9.2-.051-1.971-1.369-4.186-2.244-5.88a47.545,47.545,0,0,0-4.315-6.417A75.427,75.427,0,0,0,381.323,232.5c-1.79-1.635-3.786-3.015-5.677-4.531a5.519,5.519,0,0,0-3.43-1.629.443.443,0,0,0-.119.867c.077.025.15.066.225.1a10.3,10.3,0,0,0,.46,4.624,17.575,17.575,0,0,0-6.389-2.5,24.334,24.334,0,0,0-10.723.466.932.932,0,0,0-.641,1.126q.094.2.173.414a.769.769,0,0,0,.383.408.45.45,0,0,0,.329.769c3.419.13,7.158-.015,9.217,3.062,1.426,2.131.541,5.529.013,7.863-1.234,5.436-3.725,10.454-4.017,16.058-.234,4.471,1.644,8.836,6.055,10.463a17.821,17.821,0,0,0,9.336.558,1.468,1.468,0,0,0,1.034,1.009c-1.344,4.339-.935,9.391-.444,13.6.7,6.019,4.378,11.8,7.044,17.107,3.011,6,6.55,11.735,9.882,17.575a136.637,136.637,0,0,0,10.133,16.026c3.822,4.989,7.092,10.324,10.7,15.481,2.307,3.3,5.747,7.884,10.551,6.971a3.164,3.164,0,0,0,2.669-2.856c.047-.514.081-1.047.108-1.589-.275-1.484-.589-2.963-.884-4.452a54.433,54.433,0,0,1-1.421-6.927q-.657-1.757-1.276-3.528c-1.623-4.639-3.177-9.292-4.831-13.915-1.754-4.9-3.461-9.809-5.169-14.717l.026-.013a9.749,9.749,0,0,0,2.172-1.467,32.01,32.01,0,0,0,6.13,3.36,59.737,59.737,0,0,0,15.675,5.328,63.414,63.414,0,0,0,15.767.807,32.7,32.7,0,0,0,7.032-1.263,8.16,8.16,0,0,0,2.367-1.2,62.114,62.114,0,0,0-2.611,6.567c-1.494,4.9-3.732,26.761-3.945,31.261-.309,6.56-.964,13.187-1.075,19.735-.041,2.55-.91,6.166.079,8.589.71,1.742-.079,4.149,1.764,5.359,1.929,1.268,4.74,1.518,6.991,1.79a52.679,52.679,0,0,0,6.316.317c.309,2.427.928,4.8,1.018,7.277a48.506,48.506,0,0,0,1.138,8.212,26.081,26.081,0,0,0-5.667-1.519,27.777,27.777,0,0,0-7.894.143c-3.738.763-9.02,3.294-9.017,7.792,0,5.513,6.912,5.254,10.922,5.28,5.121.034,10.507-.668,14.287-4.352.988-.964-.259-2.233-1.361-1.76a33.681,33.681,0,0,1-10.4,2.543,45.641,45.641,0,0,1-5.608-.032,18.417,18.417,0,0,1-3.357-.5c-1.8-.426-.629-2.233.118-3.09,2.078-2.381,6.459-2.93,9.393-2.745a21.111,21.111,0,0,1,5.706.8,18.55,18.55,0,0,0,5.195,1.421,1.769,1.769,0,0,0,1.688-2.219,56.645,56.645,0,0,1-2.033-11.025,41.935,41.935,0,0,0-1.153-6.256q.711-.011,1.422-.02a172.856,172.856,0,0,0,20.311-1.066c1.809-.232,3.611-.525,5.409-.839a57.4,57.4,0,0,0,.345,9.731c.216,2.666-.6,5.817.164,8.373a1.755,1.755,0,0,0,2.112,1.2c2.241-.329,4.122-1.747,6.355-2.128a62.241,62.241,0,0,1,8.118-.788c2.155-.087,7.245-.85,8.675,1.249,1.694,2.487-11.538,5.43-12.964,5.52-3.329.212-7.406.849-9.808-2.018a1.187,1.187,0,0,0-2.011.843c.5,5.386,7.321,4.963,11.286,4.69a33.542,33.542,0,0,0,10.146-2.271c2.372-.937,5.468-2.113,6.5-4.715,2.128-5.352-4.512-6.726-8.231-6.849a62.88,62.88,0,0,0-7.859.3c-1.962.184-3.912.545-5.852.879a14.334,14.334,0,0,0-3.332,1.316c.027-.5.087-1.01.124-1.494a26.811,26.811,0,0,0-.286-5.153c-.359-3.07-.482-6.084-1.054-9.11l1.319-.239c3.5-.631,6.948-.87,10.453-1.319,4.349-.561,10.439-4.184,11.388-8.858.449-2.221-.292-4.922-.86-7.04-.871-3.259-3.032-10.489-3.437-10.461-.5-2.448-1.2-4.843-1.8-7.288-1.071-4.321-2.021-8.674-2.974-13.018a82.444,82.444,0,0,0-3.185-11.709c-.393-1.038-.794-2.074-1.192-3.109,1.7,1.932,3.589,3.724,5.315,5.433a103.981,103.981,0,0,0,10.757,9.243c4.734,3.56,11.132,7.664,17.5,8.279a6.21,6.21,0,0,0-1.26,3.118,32.3,32.3,0,0,0-2.093,7.09,59.565,59.565,0,0,0-.756,11.031c0,.309,0,.623,0,.941-.038.165-.075.333-.109.5a30.639,30.639,0,0,0-.439,6.11c-.005,7.459.751,14.76,6.318,20.224a50.955,50.955,0,0,0,9,6.48,26.327,26.327,0,0,0,11.268,3.831c8.4.858,15.838-1.66,22.872-6.25,6.092-3.983,11.419-9.8,13.44-17.045C607.357,376,605.931,367.034,603.738,360.159ZM359.246,231.494a42.375,42.375,0,0,1,6.483.317c3.184.439,6.107,2.216,9.019,3.411.681.281,1.4-.535.828-1.083l-.041-.038a.386.386,0,0,0-.054-.177,16.143,16.143,0,0,1-1.629-2.859,15.053,15.053,0,0,1-.718-3.314,29.434,29.434,0,0,1,2.673,2.559c1.348,1.235,2.765,2.383,4.082,3.654,2.848,2.745,5.991,5.446,8.386,8.619a5.1,5.1,0,0,1-2.972.6,8.286,8.286,0,0,0-4.768.454c-1.071.443-2.856,4.676-4.311,3.538-1.054-.824-1.665-2.108-2.717-2.96a1.188,1.188,0,0,0-1.393-.122c-1.491.886-1.965,3.233-2.583,4.679-.672,1.574-.934,2.842-1.992.375a8.634,8.634,0,0,1-.575-2.324c1.014-3.369,1.826-7.77.372-10.894C365.773,232.567,362.647,231.555,359.246,231.494Zm19.092,36.161c-4.006.541-8.788,1.014-11.964-1.5-4.37-3.452-2.16-10.979-.419-16.244.326,1.61,1.12,2.812,2.8,2.8,2.8-.02,2.67-4.261,3.9-6.1,1.691,1.812,4.257,5.1,6.621,2.262a18.13,18.13,0,0,0,1.6-2.284c1.193-1.973,3.435-1.169,5.264-.99a4.413,4.413,0,0,0,3.41-1.278,44.74,44.74,0,0,1,4.994,8.719c.636,1.552,1.459,4.908.477,6.544-.414.69-.277,1.357-.995,1.929a4.468,4.468,0,0,0-.659.612,1.793,1.793,0,0,0-1.265.366,3.446,3.446,0,0,0-.723.7c-2.146-.276-5.8.784-7.083,1.136C382.489,264.828,379.58,265.881,378.339,267.655Zm12.088-2.244c-1.1.7-2.963.9-4.172,1.225-1.929.511-3.883.9-5.821,1.357l-.01-.017a16.4,16.4,0,0,1,4.4-1.753C386.122,265.864,389.648,265.9,390.427,265.412ZM381.9,289.6a33.2,33.2,0,0,1-1.717-14.177,13.9,13.9,0,0,1,1.066-4.428,44.684,44.684,0,0,0,9.509-2.88,35.06,35.06,0,0,1,4.3,3.7c2.337,2.931,4.1,6.694,5.733,10.054a129.481,129.481,0,0,1,5.725,14.138c-2.489-.232-5.388,1.06-7.655,1.772-3.5,1.1-7.682,2.937-10.384,5.578A107.531,107.531,0,0,1,381.9,289.6Zm37.281,43.5c1.455,4.1,2.651,8.273,4.182,12.35.2,1.05.433,2.1.567,3.169a11.831,11.831,0,0,0,.728,3.333c0,.362-.005.726-.009,1.087,0,.44.363,1.953-.359,1.859a7.638,7.638,0,0,1-3.034-1.311c-1.95-1.214-3.226-3.846-4.5-5.68q-2.306-3.3-4.477-6.691c-2.47-3.831-5.351-7.329-8.04-11-3.011-4.108-5.235-8.622-7.756-13.018-2.311-4.027-4.731-8.035-7.031-12.1a45.968,45.968,0,0,1,7.524-3.963,33.094,33.094,0,0,1,5.465-1.865,24.836,24.836,0,0,1,4.789-1.184c.281.828.556,1.657.833,2.488a2.337,2.337,0,0,1,.43,1.523v.011l.1.081a10.054,10.054,0,0,0,1.139,3.429l0,.008a14.756,14.756,0,0,1,.912,2.807c.01.031.02.06.029.09l-.1.017a1.205,1.205,0,0,0,0,2.41c.194.02.384.032.575.039.038.178.08.354.113.533.012.06.017.115.023.173.191-.034.345-.061.421-.081C414.116,318.792,416.64,325.947,419.183,333.1Zm-4.783-25.31-.149.093a1.213,1.213,0,0,0-.536-.072q-.166-.476-.332-.95a3.5,3.5,0,0,1,.548.011,2.965,2.965,0,0,1,1.07.392A2.789,2.789,0,0,1,414.4,307.789Zm125.692-27.458c4.046-.417,3.81,4.275,2.313,6.753a9.379,9.379,0,0,1-8.841,3.923c.071-.192.145-.384.215-.577a60.655,60.655,0,0,0,2.466-9A11.463,11.463,0,0,1,540.092,280.331Zm-45.237-77.248a1.456,1.456,0,0,0,.381-1.6,3.886,3.886,0,0,1,1.745-.975.461.461,0,0,0,.383-.291c4.737-.124,9.977,2.512,13.923,4.381a86.47,86.47,0,0,1,7.9,4.331,6.421,6.421,0,0,0-1.8,3.225,1.483,1.483,0,0,0,2.694,1.066,1.333,1.333,0,0,0,.993-1.477,10.986,10.986,0,0,1,.985-1.014c1.564,1,3.113,2.019,4.656,3.037a65.763,65.763,0,0,1,12.833,10.517c1.836,2.036,4.605,4.818,4.37,7.86a3.048,3.048,0,0,1-.161.736,1.19,1.19,0,0,0-.986,1.5c-1.647,1.617-4.655,2.489-6.364,2.842-4.817.99-10.274.112-15.037-.476a30.146,30.146,0,0,1-15.31-6.681,36.908,36.908,0,0,1-10.384-12.323,27.924,27.924,0,0,1-2.533-7.991,22.188,22.188,0,0,1-.189-3.128C492.926,204.823,493.585,204.279,494.856,203.082Zm-52.171,26.6c1.142-5.489,3.7-9.436,7.813-13.279a34.386,34.386,0,0,1,6.734-5.073,23.341,23.341,0,0,1,5.51-2.183c2.779-.411,5.545-1.333,8.353-1.681s5.686-.559,8.509-1c2.2.5,4.381.323,6.557,1.1a26.249,26.249,0,0,0,3.063,1.036,33.086,33.086,0,0,0,.78,4.712,33.66,33.66,0,0,0,10.136,16.745c5.052,4.71,10.769,8.374,17.634,9.885,3.4.751,6.929.787,10.393,1.138a29.717,29.717,0,0,0,9.35-.463c3.341-.734,6.713-2.541,8.417-5.262a22.729,22.729,0,0,1,9.014,2.392c1.708.909,4.923,3.119,2.1,5.093a22.126,22.126,0,0,1-3.914,1.84,1.4,1.4,0,0,0-.8,1.1,1.02,1.02,0,0,0-.05.917c2.3,5.877,2.7,14-3.432,17.951-3.172,2.042-7.361,2.69-10.655,1.255.048-.124.107-.258.153-.38.014-.036.026-.073.039-.111a10.578,10.578,0,0,1-4.741-2.62,1.209,1.209,0,0,0-1.108,1.626,8.994,8.994,0,0,0,1.176,2.378c-1.2,2.307-2.842,4.334-5.057,5.051-4.942,1.6-7.761-4.114-9.339-7.585a25.751,25.751,0,0,1-1.981-5.139,4.68,4.68,0,0,0-2.254-3.348,1.856,1.856,0,0,0-1.892.067c-2.446,1.764-6.941,8.4-9.943,4.153-1.063-1.5-.749-3.861-.708-5.62a41.227,41.227,0,0,1,.886-7.158c.385-1.934-2.409-3.3-3.328-1.285a23.313,23.313,0,0,1-14.517,12.853c-3.979,1.108-6.966-2.253-7.223-5.932a14.763,14.763,0,0,1,.9-5.815c1.21-1.168,2.369-2.383,3.48-3.626a.615.615,0,0,0,.49-.706c.375-1.1-.771-2.444-1.889-1.585-3.6,2.767-7.1,5.7-10.783,8.342-3.274,2.345-6.7,4.624-10.777,4.691a5.783,5.783,0,0,1-4.861-2.332c-1.119-1.529-.3-4.112.191-5.769a13.518,13.518,0,0,1,1.907-3.83q.279-.151.556-.307c2.636-1.475,5.263-3.045,6.829-5.721a1.779,1.779,0,0,0-.651-2.447c-3.623-2.03-7.109,2.65-9.375,5.924a16.384,16.384,0,0,1-2.287,1c0-.087.008-.175.012-.263-.107.118-.208.243-.312.362a8.882,8.882,0,0,1-3.921.41C441.993,240.342,441.717,234.332,442.685,229.684Zm-6.014,25.953c-1.58-2.018-1.045-5.413-.651-7.8.463-2.812,1.984-7.624,5.719-5.839.11.053.216.118.32.182a10.247,10.247,0,0,0,1,.8c.622.612,1.17,1.332,1.735,1.909.674.687,1.375,1.341,1.973,2.071a63.578,63.578,0,0,0-6.4,10.6C439.013,257.106,437.585,256.8,436.671,255.637ZM452.5,299.172c-5.362-5.581-10.76-12.6-12.013-20.484-1.633-10.278,2.721-20.146,8.642-29.009a.968.968,0,0,0,.766-1.127c.381-.555.774-1.1,1.167-1.644a18.18,18.18,0,0,0-.247,1.828,8.137,8.137,0,0,0,2.059,6.484c3.022,3.485,9.243,3.137,13.166,1.248a48.452,48.452,0,0,0,9.556-6.178q-.086.349-.163.694a9.9,9.9,0,0,0,4.553,10.616c3.692,2.407,8.9.159,12.321-1.883a28.064,28.064,0,0,0,6.34-5.138c-.176,3.511.373,6.931,2.822,9.049,1.881,1.628,4.306,1.652,6.627.947,2.489-.757,3.9-2.743,5.661-4.422.108.465.156.962.219,1.256a14.989,14.989,0,0,0,1.281,3.04c1.077,2.317,1.922,4.877,3.509,6.893,2.784,3.538,7.121,5.4,11.621,3.973a8.985,8.985,0,0,0,3.792-2.57,52.906,52.906,0,0,1-1.134,8.906,5.438,5.438,0,0,0-.589,2.292,1.184,1.184,0,0,0,.009.12,53.413,53.413,0,0,1-1.8,5.569,1.394,1.394,0,0,0-1.873,1.888,5.71,5.71,0,0,0,.623,1.061A43.5,43.5,0,0,1,518.944,307c-12.956,11.439-32.3,11.4-47.125,5.172A56.158,56.158,0,0,1,452.5,299.172Zm32.22,29.559c2.851.349,5.437-1.262,7.309-3.316a9.008,9.008,0,0,0,2.48-5.347,50.835,50.835,0,0,0,6.545-.8c.128,2.714.9,5.327,1.154,8.038.2,2.109.491,4.247.688,6.383-.531.785-1.712.879-2.67,1.13a14.135,14.135,0,0,0-2.345.894c-4.564-.053-9.012.8-13.654,1.112a76.517,76.517,0,0,1-8.884.2,18.893,18.893,0,0,1-5.756-1.363c-.035-4.07-.07-15.677.719-19.81a59.068,59.068,0,0,0,6.868,2.336C475.973,322.807,480.279,328.188,484.722,328.731Zm-4.887-9.888a54.722,54.722,0,0,0,11.312,1.308,12.5,12.5,0,0,1-.794,2.069,6.419,6.419,0,0,1-5.212,3.409C481.4,325.8,480.252,321.943,479.835,318.843Zm34.578,20.006c.926,4.354,1.834,8.716,2.9,13.041,1,4.054,5.773,20.082,6.1,22.833.347,2.945-2.91,4.815-5.092,6.144-2.34,1.425-5.03.877-7.563,1.277-6.018.951-11.977,2.273-18.037,2.9-6.015.627-12.111.653-18.147.73l-.994.023a1.255,1.255,0,0,0-2.338.048c-4.288.055-10.827-.1-10.845-1.894a26.524,26.524,0,0,0-.609-3.351,24.683,24.683,0,0,1-.034-4.082c.1-2.784.426-5.545.573-8.324.291-5.524.28-11.069.567-16.6.258-4.965,1.225-10.134.623-15.072a91.168,91.168,0,0,1,2.051-13.407,93.975,93.975,0,0,1,3.021-8.955c.52.254,1.038.514,1.565.753a24.847,24.847,0,0,0-.37,2.567,138.316,138.316,0,0,0-1.141,17.214c0,.061,0,.119,0,.178a1.432,1.432,0,0,0-.378,2.1c3.728,4.159,10.864,3.52,15.932,3.359a123.429,123.429,0,0,0,19.248-2.552.777.777,0,0,0,.545-.424c.131-.029.262-.057.393-.089a4.913,4.913,0,0,0,3.234-2.236l.084-.026c0-.038-.009-.076-.013-.114a3.222,3.222,0,0,0,.3-1.1,1.33,1.33,0,0,0-.411-1.4,1.575,1.575,0,0,0-.185-.113q-.182-1.482-.382-2.97c-.454-3.421-1.589-6.874-1.747-10.3a1.028,1.028,0,0,0-.031-.2q2.222-.525,4.4-1.25a4.315,4.315,0,0,0,1.213,2.892c.549.607.748,2.138,1.016,2.907.339.974.695,1.942,1.048,2.911A92.946,92.946,0,0,1,514.413,338.849Zm87.844,41.473c-1.093,7.178-6.517,12.764-12.2,16.594a40.326,40.326,0,0,1-9.265,4.672c-3.428,1.194-7.111,1.138-10.69,1.051-7.026-.174-14.4-5.074-19.309-9.888-4.125-4.033-4.675-10.133-4.641-15.807a31.036,31.036,0,0,0,.135-5.458c-.071-3.188-.061-6.372.151-9.559a44.3,44.3,0,0,1,1.61-8.965c.265-.953.615-2.242,1.057-3.535a4.1,4.1,0,0,1,1.522-1.1,7.432,7.432,0,0,1,.112-1.289,14.049,14.049,0,0,1,1.408-1.02,20.34,20.34,0,0,1,3.225-1.6,23.424,23.424,0,0,1,5.195-.212,12.546,12.546,0,0,1,3.841,4.1,1.719,1.719,0,0,0,1.974.785c6.3-2.146,13.568-3.8,20.114-2.161,5.982,1.5,11.209,7.67,13.472,13.3A41.318,41.318,0,0,1,602.256,380.322Z" transform="translate(-354.98 -198.094)"/>
          <path id="路径_19885" data-name="路径 19885" d="M630.343,402.244a6.392,6.392,0,0,0-1.5-2.062,5.177,5.177,0,0,0-1.675-1.953,6.666,6.666,0,0,0-.442-3.242.745.745,0,0,0-1.289.02,8.62,8.62,0,0,0-.652,2.184,9.214,9.214,0,0,0-1.16-.2c-.732-1.338-1.923-2.4-3.57-2.024a1.045,1.045,0,0,0,.273,2.04.82.82,0,0,1,.335.052c-.194.029-.387.06-.577.094a8.742,8.742,0,0,0-2.063.668,4.86,4.86,0,0,0-.864-1.509c-.73-.763-2.106.292-1.483,1.185a5.294,5.294,0,0,1,.628,1.448,5.065,5.065,0,0,0-1.035,1.244c-.913,1.594-.41,4.018.105,5.664,0,.029-.008.056-.014.084a9.52,9.52,0,0,0,1.033,1.385l.047.054c.06.066.12.137.182.2.108.115.217.228.332.337,1.176,1.123,3.459,2.8,5.24,2.565a10.5,10.5,0,0,0,2.3.128C628.8,410.363,632.064,406.456,630.343,402.244ZM627.5,406a4.717,4.717,0,0,1-3.631,1.422,6.137,6.137,0,0,1-3.748-1.271,3.316,3.316,0,0,1-.561.051,3.955,3.955,0,0,1-1.871-3.1.91.91,0,0,0-.1-.748c0-.008.009-.015.013-.022.035.019.068.038.1.056a1.869,1.869,0,0,0,.8,1.1.77.77,0,0,0,.925-.136,1.467,1.467,0,0,0,.388-.552c.5.028,1,.028,1.469.022a1.443,1.443,0,0,0,.546-.119,1.112,1.112,0,0,0,.809.879,1.127,1.127,0,0,0,1.107-.314,3.741,3.741,0,0,0,.492-.8,1.959,1.959,0,0,0,1.809-.809c.038.034.077.06.115.093C627.311,402.77,628.864,404.2,627.5,406Z" transform="translate(-418.984 -246.514)"/>
        </g>
      </g>
    </g>
    <g id="组_3953" data-name="组 3953" transform="translate(720.752 2033.924)">
      <path id="路径_19907" data-name="路径 19907" d="M314.12,669.145a6.187,6.187,0,0,1-1.536,0,4.751,4.751,0,0,0-1.343-.4c-1.191-.155-2.071,1.148-2.8,1.879-2.044,2.044-5.12,2.322-7.722,3.362l-3.332,1.332a16.628,16.628,0,0,0-3.032.093,13.436,13.436,0,0,0-4.1,1.381l-.262.134a14.046,14.046,0,0,0-2.9.643,13.036,13.036,0,0,0-3.508,2.026q-.347.269-.686.541c-.171.081-.34.166-.509.254-1.246.654-2.456,1.375-3.663,2.1-1.266.758-2.4,1.717-3.691,2.452-1.189.677-2.317,1.36-3.459,2.113a9.9,9.9,0,0,1-4.006,1.569c-2.4.428-5.068,1.189-7.562.858a16.748,16.748,0,0,0-2.237-.564l-.02,0c-1.986-.644-3.9-1.525-5.837-2.306-1.147-.894-1.939-2.178-3.217-2.89a15.313,15.313,0,0,0-1.986-1.928,29.948,29.948,0,0,1-2.436-2.4c-.713-.843-1.341-1.707-2.125-2.5-.369-.372-.786-.779-1.223-1.154a1.041,1.041,0,0,0,0-.187,2.068,2.068,0,0,0-.969-1.654,2.909,2.909,0,0,0-1.155-.856.983.983,0,0,0-.549-.364,2.713,2.713,0,0,0-2.318.684,3.811,3.811,0,0,0-3.271,2.56,3.09,3.09,0,0,0,.59,3.048,25.567,25.567,0,0,0,2.488,3.166,15.314,15.314,0,0,0,3.8,2.109,31.218,31.218,0,0,0,4.027,1.916c1.811.605,3.641,1.154,5.45,1.765a26.1,26.1,0,0,0,5.252,2.447,19.83,19.83,0,0,0,2.966.733,13.779,13.779,0,0,0,2.484.552,12.913,12.913,0,0,0,2.766.825,30.756,30.756,0,0,0,3.588-.257,30.43,30.43,0,0,0,5.017-.638,10.5,10.5,0,0,0,4.053-1.311,18.093,18.093,0,0,0,3.341-2.662c.971-1,1.806-2.112,2.791-3.1a31.714,31.714,0,0,1,2.813-2.443c.56-.269,1.13-.521,1.715-.747,1.6-.613,3.132-1.474,4.7-2.219.5-.073,1-.142,1.494-.222a35.447,35.447,0,0,0,5.818-1.352,18.288,18.288,0,0,0,3.125-.176,22.485,22.485,0,0,0,2.6-.278c.809-.228,1.645-.407,2.447-.674a21.3,21.3,0,0,0,4.513-2.48,27.916,27.916,0,0,0,4.417-2.861A1.138,1.138,0,0,0,314.12,669.145Z" transform="translate(0 -24.343)" fill="#d5d5d5"/>
      <g id="组_3952" data-name="组 3952" transform="translate(232.803 619.399)">
        <path id="路径_19908" data-name="路径 19908" d="M313.442,641.563c-.629-1.076-2.032-1.388-3.057-1.919-1.11-.576-2.216-1.13-3.344-1.672-1.235-.593-2.346-1.4-3.514-2.114a28.879,28.879,0,0,1-6.541-5.874c-.932-1.08-1.662-2.3-2.58-3.39a38.56,38.56,0,0,1-2.676-3.132,3.853,3.853,0,0,0-2.888-1.888,4.581,4.581,0,0,0-3.211,1.753c-1.265,1.37-3.116,1.873-4.681,2.861a39.131,39.131,0,0,1-5.892,3.1c-2.2.9-4.59,1.229-6.82,2.038-.927.336-1.842.7-2.768,1.046a26.234,26.234,0,0,1-3.368.818c-2.158.482-4.245,1.226-6.413,1.671-2.405.493-4.847.974-7.269,1.375-.959.158-1.957.038-2.93.216s-2.008.318-3.007.4c-.91.077-1.852.009-2.766.009s-1.59-.573-2.559-.26a1.566,1.566,0,0,0-.476.254c-.85-.44-1.783.8-1.03,1.474.894.794.918,2.092,1.708,2.954,1.044,1.139,1.867,2.45,2.818,3.664.862,1.1,1.733,2.141,2.526,3.3a10.951,10.951,0,0,0,2.865,3.11l.593.387a21.625,21.625,0,0,0,2.171,2.812c1.022,1.061,2.355,1.779,3.418,2.8a7.246,7.246,0,0,0,.949.742,18.112,18.112,0,0,0,2.631,1.768c.347.238.692.478,1.04.715,1.639,1.114,3.3,2.193,4.995,3.216a1.353,1.353,0,0,0,1.586-.134,15.081,15.081,0,0,0,3.163.549c.179.046.358.088.538.126a6.921,6.921,0,0,0,1.752.136,4.922,4.922,0,0,0,.927-.177,1.453,1.453,0,0,0,.445-.091,2.016,2.016,0,0,1,.266-.023,3.52,3.52,0,0,0,2.9-1.583,15.784,15.784,0,0,1,2.946-2.736,26.2,26.2,0,0,1,4.158-2.515,39.583,39.583,0,0,1,8.807-3.485,18.716,18.716,0,0,0,4.107-1.277,25.127,25.127,0,0,1,3.882-1.94c1.444-.463,2.88-.924,4.315-1.416a16.923,16.923,0,0,1,4.472-1.153,20.229,20.229,0,0,0,2.159-.279,8.2,8.2,0,0,0,2.257-.506l1.866-.931c.526-.262.909-1.124,1.244-1.592A2.8,2.8,0,0,0,313.442,641.563Z" transform="translate(-234.232 -620.471)" fill="#fffded"/>
        <g id="组_3949" data-name="组 3949" transform="translate(10.148 20.507)">
          <path id="路径_19909" data-name="路径 19909" d="M259.365,660a9.165,9.165,0,0,0-2.264,4.174,4.438,4.438,0,0,0-.315-1.685.6.6,0,0,0-.691-.281,3.386,3.386,0,0,0-1.913,1.968c0-.193.005-.355,0-.444a9.3,9.3,0,0,0-.047-1.409c.018-.014.035-.024.053-.038a.151.151,0,0,0,0-.215,1.1,1.1,0,0,0-.334-.2.322.322,0,0,0-.389.221,8.377,8.377,0,0,0-.3,2.567,2.352,2.352,0,0,0,.613,2.083.614.614,0,0,0,.895-.364A6.5,6.5,0,0,1,255.9,663.7c.219,1.157-.153,2.454.072,3.61a.619.619,0,0,0,1.124.147c1.213-2.206,1.772-4.7,2.957-6.927A.442.442,0,0,0,259.365,660Z" transform="translate(-253.153 -659.881)" fill="#d5d5d5"/>
          <path id="路径_19910" data-name="路径 19910" d="M371.716,663.311l-.512.512a3.672,3.672,0,0,0,.11-.6.311.311,0,0,0-.393-.3c-.926.378-1.567,1.179-2.486,1.554-.287.116-.505.474-.7.7a5.589,5.589,0,0,1-.883.835,20.342,20.342,0,0,1,1.2-1.9c.455-.762.873-1.544,1.356-2.288.219-.338-.32-.649-.536-.314-.6.927-1.114,1.907-1.7,2.846a6.078,6.078,0,0,0-1.144,2.283.31.31,0,0,0,.394.3,5.3,5.3,0,0,0,1.937-1.542,4.99,4.99,0,0,1,1.085-.768c.4-.268.747-.59,1.146-.846a6.059,6.059,0,0,0-.21.991.313.313,0,0,0,.53.219l1.243-1.243A.311.311,0,0,0,371.716,663.311Z" transform="translate(-308.848 -660.613)" fill="#d5d5d5"/>
        </g>
        <g id="组_3950" data-name="组 3950" transform="translate(24.579 15.018)">
          <path id="路径_19911" data-name="路径 19911" d="M297.533,667.721a1.379,1.379,0,0,0-.791-.6c-.042-.112-.087-.224-.136-.337a1.288,1.288,0,0,0-1.772-.465,5.774,5.774,0,0,0-1.082,1.082,1.717,1.717,0,0,0-2.478-.157,6.448,6.448,0,0,0-.956.92,1.473,1.473,0,0,0-.232,0,1.112,1.112,0,0,0-1.125-.754,2.46,2.46,0,0,0-1.43.651,1.229,1.229,0,0,0-.233-.016,1.313,1.313,0,0,0-1.92.308,5.266,5.266,0,0,0-.814,1.644,1.4,1.4,0,0,0-1.309.406l-.036.041c-1.8.436-2.018,2.267-.869,3.606a.826.826,0,0,0,.945.275,2.126,2.126,0,0,0,.1.6,1.3,1.3,0,0,0,1.184.9,2.846,2.846,0,0,0,.189,1.881c.411.961,1.68.657,2.166,0a2.8,2.8,0,0,0,.475-1.578c.21-.121.453-.217.654-.314s.379-.19.559-.292q.16-.046.324-.09a2.2,2.2,0,0,0,.942-.509,1.626,1.626,0,0,0,.636-.351,2.019,2.019,0,0,0,.579.323,2.618,2.618,0,0,0,1.239.091c.01.084.02.168.034.253a1.308,1.308,0,0,0,1.9.771c1.357-.608,1.982-2.5,2.161-3.879.121-.264.223-.537.319-.81.03-.085.054-.172.079-.259l.033-.064C297.379,670.044,298.144,668.8,297.533,667.721Z" transform="translate(-281.641 -657.478)" fill="#7ed9e0"/>
          <path id="路径_19912" data-name="路径 19912" d="M341.531,654.505l.014-.069a4.723,4.723,0,0,0-.07-2.607,1.3,1.3,0,0,0-2.139-.564,2.614,2.614,0,0,0-.269.246,4.022,4.022,0,0,0-.406-.558,1.266,1.266,0,0,0-1.553-.2c-.056.038-.107.078-.158.119a1.232,1.232,0,0,0-1.7-.422c-.034.023-.064.049-.1.073a3.9,3.9,0,0,0-.351-.851,1.263,1.263,0,0,0-1.973-.254,4.931,4.931,0,0,0-.979,2.091,5.475,5.475,0,0,0-2.1,2.143,1.9,1.9,0,0,0-.707-.974,1.224,1.224,0,0,0-1.659.435,3.99,3.99,0,0,0,.181,3.753,1.9,1.9,0,0,0,.521.568,1.477,1.477,0,0,0,1.345.356,1.99,1.99,0,0,0,1.058-.653c.326.15.662.29.974.446a.15.15,0,0,0,.219-.1,1.352,1.352,0,0,0,1.069.279c0,.209,0,.419,0,.628a1.282,1.282,0,0,0,2.172.9c.074-.085.141-.17.2-.256l0,0a1.312,1.312,0,0,0,1.171,1.293,1.207,1.207,0,0,0,1.17-.718,1.3,1.3,0,0,0,2.138-.57q.128-.5.256-1a1.125,1.125,0,0,0,1.014-.108,11.533,11.533,0,0,0,1.7-1.552A1.122,1.122,0,0,0,341.531,654.505Z" transform="translate(-304.017 -649.046)" fill="#7ed9e0"/>
          <path id="路径_19913" data-name="路径 19913" d="M314.094,661.323a1.349,1.349,0,0,0-.765-1.051c-.027-.19-.056-.381-.1-.572a6.369,6.369,0,0,0,.017-2.826,2.008,2.008,0,0,0-1.127-2.272c-.842-.349-1.95.19-2.787.374a5.015,5.015,0,0,1-2.99-.251,2.528,2.528,0,0,0-1.579-.2c-.195.039-.515.149-.779.227a2.69,2.69,0,0,0-.342-.6,1.772,1.772,0,0,0-1.6-.622,10.538,10.538,0,0,0-.237-1.114.789.789,0,0,0-1.511,0,16.5,16.5,0,0,0-.427,2.695,1.693,1.693,0,0,0,.946,1.959,1.88,1.88,0,0,0,1.7.007,2.023,2.023,0,0,0,1.346.289c.611-.078,1.157-.45,1.751-.2a6.253,6.253,0,0,0,.672.241,2.527,2.527,0,0,0,1.161,2.086,6.736,6.736,0,0,1,.164.93,1.2,1.2,0,0,0-.378.9,2.528,2.528,0,0,0,.485,1.579c.549.711,1.942.907,2.287-.086a3.812,3.812,0,0,0,1.315-.2c.042.1.084.193.128.289.447.981,1.7.671,2.214,0A2.128,2.128,0,0,0,314.094,661.323Z" transform="translate(-290.625 -650.43)" fill="#ffc51b"/>
        </g>
        <path id="路径_19914" data-name="路径 19914" d="M314.255,640.059a3.042,3.042,0,0,0-.622.03,1.533,1.533,0,0,0-.293.06,2.2,2.2,0,0,0-.673-.389,5.135,5.135,0,0,1-1.42-.511c-.687-.438-9.392-6.156-10.614-7.266-2.242-2.033-4.229-4.347-6.263-6.583a43.127,43.127,0,0,0-3.187-3.338,9.747,9.747,0,0,1-1.5-1.492,2.79,2.79,0,0,0-1.568-1.1,3.268,3.268,0,0,0-2.747.832c-1.062.794-2.142,1.587-3.156,2.446a29.817,29.817,0,0,1-7.674,4.289,79.317,79.317,0,0,1-8.818,3.278,136.334,136.334,0,0,1-18.682,4.131c-2.511.378-5.06.6-7.6.739-1.205.063-2.391-.072-3.593-.118a3.123,3.123,0,0,1-1.535-.407,1.6,1.6,0,0,0-.868-.21.339.339,0,0,0-.177.622.546.546,0,0,0,0,.16,29.8,29.8,0,0,0,5.264,12.13,76.266,76.266,0,0,0,9.018,10.564,31.417,31.417,0,0,0,11.986,7.92,15.253,15.253,0,0,0,12.646-1.551.282.282,0,0,0,.268-.025c.659-.395,1.123-1.008,1.755-1.451.779-.547,1.513-1.154,2.24-1.767a60.908,60.908,0,0,1,5.015-3.976,38.253,38.253,0,0,1,10.872-4.915c4-1.14,8.205-1.767,11.929-3.693a40.053,40.053,0,0,1,5.092-2.207,3.719,3.719,0,0,0,1.689-1.127,8.855,8.855,0,0,0,4.018-3.657A.949.949,0,0,0,314.255,640.059Zm-12.814,7.565c-3.819,1.438-7.9,2.008-11.749,3.358a38.263,38.263,0,0,0-10.037,5.114,48.113,48.113,0,0,0-4.392,3.763c-.741.693-1.467,1.4-2.21,2.094a2.553,2.553,0,0,0-.33.373.618.618,0,0,0-.311.025,29.61,29.61,0,0,1-6.436,1.751,14.6,14.6,0,0,1-6.465-.684c-4.192-1.452-7.807-4.458-10.948-7.5a95.8,95.8,0,0,1-8.432-9.37c-2.557-3.238-4.775-6.673-5.7-10.707h0c.653.233,1.342.367,2,.587a15.331,15.331,0,0,0,4.613.474,56.552,56.552,0,0,0,9.648-.863,115.76,115.76,0,0,0,18.536-4.458,86.972,86.972,0,0,0,8.38-3.455,36.018,36.018,0,0,0,3.755-1.976,44.3,44.3,0,0,0,3.525-2.764,13.777,13.777,0,0,0,1.4-1.052,3.475,3.475,0,0,1,1.273-.847c.227-.075.941.979,1.095,1.147.568.617,1.245,1.137,1.844,1.722,2.213,2.167,4.126,4.662,6.234,6.932a25.622,25.622,0,0,0,4.523,4.161c1.451.94,4.574,2.738,4.623,2.776.08.062.164.12.246.181s.173.141.258.213a1.164,1.164,0,0,0,.267.175c.732.52,1.489,1.01,2.211,1.542.485.358.992.676,1.491,1.016a4.142,4.142,0,0,0,1.467.542c-.106.08-.221.155-.314.242a3.97,3.97,0,0,0-.666,1c-.276-.128-1.435,1.01-2,1.235-.681.272-1.4.455-2.079.728C304.933,645.829,303.28,646.931,301.441,647.624Z" transform="translate(-233.121 -619.399)"/>
        <g id="组_3951" data-name="组 3951" transform="translate(22.519 14.93)">
          <path id="路径_19915" data-name="路径 19915" d="M285.363,681.514a.344.344,0,0,1-.06.011A.14.14,0,0,0,285.363,681.514Z" transform="translate(-281.388 -664.978)"/>
          <path id="路径_19916" data-name="路径 19916" d="M302.537,651.806c-1.165.357-2.2,1.142-3.423,1.266a15.688,15.688,0,0,1-3.765-.206,6.389,6.389,0,0,1-5.02-3.893.144.144,0,0,0-.275,0,2.416,2.416,0,0,0-.073.352,6.384,6.384,0,0,0-2.627,5.246,3.585,3.585,0,0,0,.2,1.249,4.128,4.128,0,0,0-1.495.474,3.446,3.446,0,0,0-1.513,1.568c-.191.449-.243.984-.394,1.464a1.231,1.231,0,0,0-.8-.445c-.656-.005-1.1-.318-1.779-.312-1.453.014-2.935.262-3.55,1.7a4.964,4.964,0,0,0-.1,3.885,3.123,3.123,0,0,0,2.125,1.656c-.057.126-.109.254-.156.38a2.909,2.909,0,0,0,.625,3.3,5.518,5.518,0,0,0,4,1.189,4.369,4.369,0,0,0,3.253-2.921.4.4,0,0,0-.486-.486c-.879.307-1.529,1.164-2.3,1.669-.712.464-1.914.035-2.629-.225A1.486,1.486,0,0,1,281.2,667.2a5.339,5.339,0,0,1,.111-1.221c.033-.154.076-.311.118-.463s.156-.127.119-.105a.248.248,0,0,0,.005-.472.936.936,0,0,0-1.192.346A3.913,3.913,0,0,1,279,663.448c-.242-.688-.082-2.7.618-3.109A3.5,3.5,0,0,1,281,660c.191-.014.383-.024.575-.028a.9.9,0,0,0,.245-.029.568.568,0,0,0,.094.059,2.494,2.494,0,0,0,.91.262c.437.057.654.421.971.735a.694.694,0,0,0,.982,0c.941-1.123.633-2.706,1.972-3.528a1.974,1.974,0,0,1,1.772-.166,3.173,3.173,0,0,0,2.724.844.433.433,0,0,0,.294-.591,1.851,1.851,0,0,1,.5-.274,3.861,3.861,0,0,1,2.518.461c2.217,1.017.552,3.877-.136,5.309a.529.529,0,0,0,.049.532c-.255.589-.285,1.247-.5,1.862-.176.491-.481.976-.7,1.455-.735,1.581-2.641,1.253-3.612.05-.084-.1-.258.033-.183.141.957,1.381,2.415,1.977,3.9,1.139.663-.375.766-1.233,1.223-1.771a3.594,3.594,0,0,0,.647-2.841,7.015,7.015,0,0,0,1.843-3.092,4.24,4.24,0,0,0-1.073-3.662c-.656-.828-2.415-1.069-3.38-1.152a3.033,3.033,0,0,0-2.36.868,6.9,6.9,0,0,1-.644-.43,2.22,2.22,0,0,0-.377-.167,2.838,2.838,0,0,1-.567-1.694,6.075,6.075,0,0,1,1.28-4.564c.066,2.036,2.627,3.976,4.389,4.347a17.274,17.274,0,0,0,4.765.372,5.494,5.494,0,0,0,3.738-2.1C303.047,652.115,302.871,651.7,302.537,651.806Z" transform="translate(-277.574 -648.871)"/>
        </g>
        <path id="路径_19917" data-name="路径 19917" d="M336.168,653.029a4.448,4.448,0,0,0-1.92-1.023,2.194,2.194,0,0,0,.961-1.977,3.542,3.542,0,0,0-1.776-3.035,4.118,4.118,0,0,0-3.3-.6,5.448,5.448,0,0,0-1.608.536c-.022.013-.039.024-.056.036l-.015-.005a1.818,1.818,0,0,1-.678-.488,2.963,2.963,0,0,0-2.6-1.039,2.741,2.741,0,0,0-2.332,2.07,8.332,8.332,0,0,0,.032,3.389,2.942,2.942,0,0,0-2.823,1.808,6.209,6.209,0,0,0-.277,4.459,2.63,2.63,0,0,0,.355.569,8.23,8.23,0,0,1-2.357,2.518,7.059,7.059,0,0,1-5.612.535.194.194,0,0,0-.1.374,8.037,8.037,0,0,0,6.2-.086,6.359,6.359,0,0,0,2.639-2.723,2.218,2.218,0,0,0,2.06-.071,9.908,9.908,0,0,0,1.123-.921c.437-.323,1.132.62,1.4.9.99,1.025,1.914,2.035,3.4,2.192,1.83.193,3.34-1.97,4.523-3.044.312-.283.554-.548.982-.52a3.58,3.58,0,0,0,1.05-.055,1.67,1.67,0,0,0,1.154-1.451A3.565,3.565,0,0,0,336.168,653.029Zm-1.252,1.167a7.431,7.431,0,0,1-.076.993c-.447.025-1-.193-1.4.068a11.414,11.414,0,0,0-1.726,1.38c-.77.733-2,2.548-3.235,2.021a9.325,9.325,0,0,1-2.335-2.076,2.588,2.588,0,0,0-2.311-.94c-.725.209-1.122.78-1.725,1.175a.493.493,0,0,1-.712-.083,3.212,3.212,0,0,0-.012-.732.277.277,0,0,0-.4-.211,7.6,7.6,0,0,1-.2-1.285c-.1-1.719.651-2.945,2.237-3.268a.733.733,0,0,0,.993.408.321.321,0,0,0,.076-.58c-.48-.33-.346-.891-.288-1.4a7.6,7.6,0,0,1,.31-2.235,1.564,1.564,0,0,1,2.409-.36,5.842,5.842,0,0,0,1.313,1.087,1.149,1.149,0,0,0,1.061.105,6.178,6.178,0,0,1,2.008-.566,2.944,2.944,0,0,1,2.371,1c.57.572.8,1.935-.01,2.436a.607.607,0,0,0,.2,1.1.347.347,0,0,0,.066.234,4.74,4.74,0,0,0,.924.93C334.731,653.646,334.953,653.722,334.916,654.2Z" transform="translate(-272.006 -632.229)"/>
      </g>
    </g>
  </g>
</svg>
