<svg xmlns="http://www.w3.org/2000/svg" width="219.337" height="212.726" viewBox="0 0 219.337 212.726">
  <g id="组_3948" data-name="组 3948" transform="translate(-508.224 -497.38)">
    <path id="路径_19886" data-name="路径 19886" d="M703.626,731.709c-3.38-4.088-9.794-5.3-14.75-5.856a60.017,60.017,0,0,0-7.982-.358c-2.941.067-5.8.58-8.755.491-6-.185-11.954-.232-17.959-.026-6.221.212-12.441-.1-18.661-.29-5.267-.16-10.5-.473-15.752-.811a38.094,38.094,0,0,0-6.977.093,26.028,26.028,0,0,0-3.307.49,14.73,14.73,0,0,1-4.076.114c-4.6-.14-9.035,1.662-13.327,3.092-2.225.742-4.217,1.992-6.5,2.581a72.317,72.317,0,0,0-16.97.8c-5.175.751-10.621,2.183-14.972,5.189-1.749,1.208-3.178,2.672-3.424,4.855-.267,2.369,2.55,4.012,4.379,4.738a43.934,43.934,0,0,0,15.151,2.587c6.249.1,12.377-1.021,18.592-1.215,6.516-.207,12.988.824,19.512.4,12.525-.818,25.067.4,37.6.066a171.383,171.383,0,0,0,19.116-1.612c3.005-.421,6.017-.857,8.977-1.536a55.173,55.173,0,0,1,9.2-1.75c2.9-.162,5.875-.591,8.767-.593a26.163,26.163,0,0,0,8.98-1.058c2.164-.753,4.189-1.553,4.777-4.01A7.107,7.107,0,0,0,703.626,731.709Z" transform="translate(-7.254 -39.294)" fill="#d5d5d5"/>
    <g id="组_3947" data-name="组 3947" transform="translate(508.224 497.38)">
      <g id="组_3940" data-name="组 3940" transform="translate(2.04 23.048)">
        <path id="路径_19887" data-name="路径 19887" d="M533.5,551.916a59.205,59.205,0,0,1-5.764-9.107c-1.517-3.032-3.607-5.682-5.349-8.59a32.588,32.588,0,0,0-2.455-3.672,14.054,14.054,0,0,1-1.582-2.4c-1.042-1.747-3.771-4.142-5.755-2.159-1.3,1.3-.762,2.658-.1,3.865-.2,1.781-.259,3.574-.424,5.364a69.571,69.571,0,0,1-.736,7.689,35.739,35.739,0,0,0-.523,7.289c-.013,2.291-.175,4.583-.107,6.873.092,3.12,1.927,8.816,5.926,5.641.967-.768,1.22-2.213,1.664-3.367l.1.079c.357.292.72.572,1.084.852a4.823,4.823,0,0,0,2.5.86c1.691.193,2.861-1.85,3.388-3.12.345-.833.276-1.191,1-.783.841.477,1.554,1.149,2.4,1.62a2.741,2.741,0,0,0,4.131-1.569,3.853,3.853,0,0,0-.357-2.483C533.575,554.261,534.346,553.047,533.5,551.916Z" transform="translate(-510.69 -525.244)" fill="#ffd697"/>
        <path id="路径_19888" data-name="路径 19888" d="M572.584,681.829a69.814,69.814,0,0,1-3.621-7.377,75.33,75.33,0,0,1-2.558-7.947c-1.417-5.889-3.135-11.613-4.912-17.4-1.811-5.9-3.524-11.774-5.014-17.765-1.495-6.009-3.015-12.014-5.092-17.852-1.991-5.608-4.245-11.2-5.844-16.936-.744-2.665-1.346-5.306-2.274-7.922-1.022-2.876-2.108-5.721-2.91-8.67-.748-2.764-1.293-5.59-1.859-8.4-.218-1.07-.548-2.087-.754-3.156a7.678,7.678,0,0,0-.722-2.89c-1.169-1.673-3.146-1.647-4.865-.835-.658.311-1.467,1.01-2.233.669-1.052-.468-2.19-1.3-3.4-1.239-2.25.11-3.144,1.656-3.693,3.648-.3,1.11-.724,1.276-1.884,1.32-.656.027-.932-.576-1.518-1.192a2.15,2.15,0,0,0-3.034,0c-.821.943-1.467,1.824-2.286,2.663l-.445-.011a1.926,1.926,0,0,0-1.834,2.4q.077.422.2.84a9.055,9.055,0,0,0,.024,2.64,33.93,33.93,0,0,0,2.132,6.746c.818,2.219,1.709,4.408,2.453,6.655.754,2.278,1,4.726,1.622,7.053.591,2.2,1.5,4.34,1.99,6.565.911,4.18,3.512,7.649,4.8,11.671a34.342,34.342,0,0,0,1.633,4.082,53.388,53.388,0,0,0,3.357,11.437c1.011,2.349,2.457,4.466,3.16,6.939a36.122,36.122,0,0,0,1.891,5.277,10.766,10.766,0,0,0,.554,3.169c1.185,3.654,2.2,6.386,3.74,10.335.913,2.334,1.907,4.636,2.885,6.946,1.187,2.8,2.8,5.378,3.892,8.249.6,1.594,1.147,3.139,1.764,4.674a15.665,15.665,0,0,0,1.529,3.523,2.244,2.244,0,0,0,.16.224c.1.222.2.449.3.673a37.1,37.1,0,0,0,1.442,4.314,14.372,14.372,0,0,1,.284,2.209,1.943,1.943,0,0,0,2.261,1.984c.042.048.08.1.122.144a2.158,2.158,0,0,0,2.608.336c2.2-1.25,3.577-3.9,6.219-3.954,1.452-.03,2.735-.6,4.226-.608,1.213-.007,2.429,0,3.644,0A2.176,2.176,0,0,0,572.584,681.829Z" transform="translate(-510.882 -531.961)" fill="#ffca39"/>
        <path id="路径_19889" data-name="路径 19889" d="M582.723,712.8c-.182-1.281-1.067-1.879-1.977-2.7a.612.612,0,0,0-.859.033,11.665,11.665,0,0,0-3.744-.259,11.417,11.417,0,0,0-4.626,1.258,11.944,11.944,0,0,0-3.275.429,19.014,19.014,0,0,0-5.3,2.911c-1.079.763-3.72,3.038-2.226,4.581,2.3,2.371,5.859-1.12,7.888-1.887s4.22-1.089,6.315-1.7a59.517,59.517,0,0,1,7.386-1.919C582.655,713.487,582.766,713.093,582.723,712.8Z" transform="translate(-519.258 -557.147)" fill="#ac794a"/>
        <path id="路径_19890" data-name="路径 19890" d="M583.419,716.937c-2.744-1.834-6.811.036-9.656.412-3.34.441-6.885.542-10.014,1.88a2.432,2.432,0,0,0-1.7,2.261c-.038.128-.072.266-.1.418a5.221,5.221,0,0,0,.957,3.764,17.432,17.432,0,0,1,2.773,3.789c.755,1.5.94,3.108,2.752,3.644,3.419,1.01,7.087.263,10.408-.789a13.889,13.889,0,0,0,4.541-2.5c1.344-1.079,1.979-3.113,2.408-4.711C586.564,722.208,586.055,718.7,583.419,716.937Z" transform="translate(-519.538 -558.236)" fill="#e35668"/>
      </g>
      <g id="组_3942" data-name="组 3942" transform="translate(93.777 162.658)">
        <path id="路径_19891" data-name="路径 19891" d="M690.351,696.436c-.489-2.368-3.128-2.689-5.076-2.24a13.34,13.34,0,0,1-3.367.524c-1.5,0-3.007-.019-4.51.01-2.909.055-5.786.565-8.709.6-6.134.079-12.368,1.068-18.483.372-2.269-.26-4.516-.39-6.794-.5-1.923-.1-4.308-.267-6.066.679a3.222,3.222,0,0,0-.51.342c-.849-.477-2.036-.363-2.205.84-.348,2.49-1.344,5.815-.481,8.239a2.1,2.1,0,0,0,1.973,1.5l9.1.048c3.275.017,6.408.5,9.671-.044,2.671-.448,5.205-1.643,7.933-1.74a66.829,66.829,0,0,0,9.551-1.027,35.488,35.488,0,0,0,7.809-2.294,33.458,33.458,0,0,1,7.112-1.772C689.012,699.65,690.753,698.373,690.351,696.436Z" transform="translate(-623.705 -694.023)" fill="#e5667c"/>
        <g id="组_3941" data-name="组 3941" transform="translate(0 21.912)">
          <path id="路径_19892" data-name="路径 19892" d="M640.689,721.865a38.1,38.1,0,0,0-17.551-.582A2.071,2.071,0,0,0,621.6,723.3a7,7,0,0,0,2.761,4.772c1.935,1.63,4.071,1.932,6.541,2.132,4.721.385,9.972.323,13.9-2.634a2.218,2.218,0,0,0,.817-1.164,1.7,1.7,0,0,1,.788.476,1.393,1.393,0,0,0,2.364-.979C648.333,722.242,643.326,722.539,640.689,721.865Z" transform="translate(-621.594 -720.514)" fill="#c22f6d"/>
          <path id="路径_19893" data-name="路径 19893" d="M707.77,728.042c-1.237-1.314-3.381-1.539-5.064-1.679-4.126-.347-8.173.567-12.229,1.051a1.745,1.745,0,0,0-1.653,1.7,2.2,2.2,0,0,0-.305.71c-1.07,4.41,4.8,3.858,7.421,3.8,3.724-.084,8.119,1.251,11.463-1.035C709.175,731.378,709.182,729.544,707.77,728.042Z" transform="translate(-633.138 -721.511)" fill="#c22f6d"/>
        </g>
      </g>
      <g id="组_3945" data-name="组 3945" transform="translate(45.21 2.849)">
        <path id="路径_19894" data-name="路径 19894" d="M711.209,559.548c-2.058-3.758-6.838-4.7-10.748-4.779a12.116,12.116,0,0,0-5.368,1.007c-.358-.442-.728-.878-1.127-1.3-.331-1.674-1.115-3.5-2.683-4.128-2.362-.94-4.689.041-7.018.571-2.2.5-5.32-1.863-7.163-2.831-1.35-.711-2.745-.828-4.109-1.466a8,8,0,0,1-2.587-2.383,2.231,2.231,0,0,0-3.7.975c-.219.736-.645,4.722-1.511,4.779-.775.048-1.809-.83-2.37-1.277a26.5,26.5,0,0,0-2.97-2.174c-1.749-1.043-4.713-2.053-5.843-3.8-1.027-1.587-1.673-3.8-3.46-4.709-3.843-1.954-5.821,3.788-6.579,6.45-.482,1.7-2.812,2.4-4.228,3.049-2.249,1.034-4.894,1.646-6.392-.667a13.021,13.021,0,0,1-1.4-2.706,11.964,11.964,0,0,1-.527-2.585c-.309-1.8-1.17-4.789-3.406-5.107-5.406-.77-5.148,6.452-9.542,7.826-4.958,1.549-8.5,4.739-11.694,8.687a24.424,24.424,0,0,0-5.053,9.345,9.132,9.132,0,0,0-.871-3.2,3.807,3.807,0,0,0-4.476-2.023c-2.444.586-3.7,3.358-4.384,5.487a15.811,15.811,0,0,0-.52,6.927c.32,2.391,1.736,3.924,3.6,5.341.772.587,1.724.957,2.477,1.555a3.05,3.05,0,0,0,2.016.613c.017.184.024.37.036.549a10.378,10.378,0,0,0,.332,2.613c.033.1.062.177.086.244a3.71,3.71,0,0,0,.047.62,10.524,10.524,0,0,0,.349,1.649c.3,1.022.849,1.965,1.2,2.973a23.1,23.1,0,0,0,3.22,6.4c3.282,4.394,8.021,5.593,12.633,8.079a47.671,47.671,0,0,0,16.788,5.752c1.96.242,3.953.379,5.956.464-.049.732-.067,1.472-.069,2.205a7.1,7.1,0,0,0-.6,3.37c.071,1.783,1.209,3.2,2.018,4.7,1.7,3.155,6.413,4.205,9.619,3.211,3.091-.959,4.435-4.518,5.44-7.257.572-1.557,1.273-2.961,1.959-4.469a8.866,8.866,0,0,0,.635-2.052,76.149,76.149,0,0,0,15.254-3.821,25.226,25.226,0,0,0,5.143-2.1,33.046,33.046,0,0,0,4.135-3.325,15.034,15.034,0,0,1,4.334-3.151,16.894,16.894,0,0,0,4.174-2.269c5.592-4.179,7.818-11.554,7.924-18.3,0-.023,0-.046,0-.071,1.071-.121,2.159-.3,3.211-.5a12.138,12.138,0,0,0,5.644-3.023C711.544,567.214,712.912,562.661,711.209,559.548Z" transform="translate(-567.796 -506.974)" fill="#ffe6c9"/>
        <g id="组_3943" data-name="组 3943">
          <path id="路径_19895" data-name="路径 19895" d="M598.744,602.968a26.9,26.9,0,0,1-1.869-4.19c-1.358-3.16-3-5.665-3.088-9.227a1.965,1.965,0,0,0-1.51-1.951,1.3,1.3,0,0,0-1.191-1.739c-1.874.132-2.1,2.013-2.781,3.382-1.183,2.372-3.836,3.893-6.1,4.994-5.251,2.553-11.536,2.449-17.222,2.949-1.858.163-3.091,2.9-1.049,3.872a29.853,29.853,0,0,0,10.154,2.714,14.237,14.237,0,0,1,1.919.487,11.439,11.439,0,0,0,2.941.089,14.336,14.336,0,0,0,4.8-1.332c.119-.048.23-.1.347-.154-2.122,1.85-4.274,3.406-5.341,6.167a2.069,2.069,0,0,0,.959,2.353c2.617,1.469,5.435.893,8.307.893a6.909,6.909,0,0,0,1.8-.074,1.855,1.855,0,0,0,.541-.251c-.118.216-.239.432-.356.648-.881,1.638-1.49,3.563-.612,5.325,1.017,2.039,3.65,1.155,5.123.338,3.842-2.127,8.656-6.8,6.477-11.509A31,31,0,0,0,598.744,602.968Z" transform="translate(-562.88 -515.52)" fill="#b54c36"/>
          <path id="路径_19896" data-name="路径 19896" d="M755.808,589.508c-1.6-1.131-4.358-1.359-6.2-1.622a56.926,56.926,0,0,1-8.1-1.62c-.74-1.3-2.049-1.42-3.323-2.053a31.128,31.128,0,0,1-4.5-2.941c-1.856-1.363-4.278-2.014-5.532-4.047-.027-.045-.059-.083-.088-.122a1.844,1.844,0,0,0-2.274-1.477,2.326,2.326,0,0,0-3.487,2.348,9.183,9.183,0,0,0,.868,2.649c-.092.65-.171,1.3-.275,1.9a25.355,25.355,0,0,1-2.61,7.437,23.108,23.108,0,0,1-4.775,6.023c-1.593,1.481-3.468,3.433-2.993,5.818.4,2,2.551,3.3,4.108,4.387.779.543,1.609,1.031,2.348,1.63a26.968,26.968,0,0,0,3.367,1.936,14.744,14.744,0,0,0,6.707,1.923,68.714,68.714,0,0,0,6.875.3,5.2,5.2,0,0,0,4.755-3.348,5.708,5.708,0,0,0,.4-1.717c2.729.1,7.406-.189,6.615-3.969-.341-1.631-2.04-2.288-3.443-2.752-1.06-.352-2.226-.711-3.341-.97,2.017-.673,4.186-.845,6.157-1.7,1.654-.72,3.233-1.333,4.941-1.921a9.276,9.276,0,0,0,4.582-3.146C757.338,591.463,756.665,590.117,755.808,589.508Z" transform="translate(-588.727 -513.69)" fill="#b54c36"/>
          <path id="路径_19897" data-name="路径 19897" d="M702.845,545.781c2.506.191,4.264-1.506,5.435-3.544a11.15,11.15,0,0,0,1.668-6.4,21.146,21.146,0,0,0-2.3-6.558c-.44-.924-.866-1.84-1.3-2.755a41.642,41.642,0,0,0-1.969-4.333,26.3,26.3,0,0,0-1.843-3.067c-.68-1.218-1.376-2.424-2.1-3.6a16.285,16.285,0,0,0-4.349-4.889c-2.343-1.651-5.195-2.154-7.857-3.1a127.708,127.708,0,0,0-17.008-5.275,14.733,14.733,0,0,0-3.734-.2c-1.638-.321-3.431-.39-5.017-.582-4.287-.514-8.7-.561-13.011-.645-3.5-.07-10.969,1.061-13.141,4.912a1.525,1.525,0,0,0-.254-.035c-2.355-.1-3.739,1.505-5.316,3.046a82.831,82.831,0,0,0-6.092,5.828c-1.816,2.181-3.79,4.188-5.674,6.309a61.568,61.568,0,0,0-4.78,6.764c-1.951,2.912-4.77,6.027-5.232,9.594-.505,3.913,4.79,3.224,6.727.95A234.994,234.994,0,0,0,635.873,523.7c1.086-.9,2.291-2.029,3.5-2.9-.1.5-.245,1-.395,1.486-1.166,3.794-3.364,7.225-4.5,11.059-.826,2.792-1.132,6.749,1.106,8.971,2.434,2.417,6.1,1.279,8.149-.93a16.874,16.874,0,0,0,2.48-3.889c.86-1.69,2.032-3.276,2.961-4.946.873-1.567,1.912-3.013,2.842-4.541.269-.442.841-1.622,1.391-2.446a10.684,10.684,0,0,1,.443,2.25,25.433,25.433,0,0,0,1.205,5.539c1.214,3.081,2.567,6.178,5.549,7.916a6.441,6.441,0,0,0,4.568.843,4.556,4.556,0,0,0,3.4-2.98c.713-1.546,1.4-3.106,2.037-4.685a24.542,24.542,0,0,1,1.6-3.587,8,8,0,0,1,.911.764c.849.776,1.6,1.655,2.38,2.506a22.086,22.086,0,0,0,3.776,2.664c1.566,1.108,2.757,2.689,4.358,3.8a5.865,5.865,0,0,0,8.452-1.558,8.661,8.661,0,0,0,1-2.151,16.436,16.436,0,0,0,1.026,1.917,25.106,25.106,0,0,0,2.819,3.41C698.5,543.858,700.472,545.6,702.845,545.781Z" transform="translate(-570.842 -500.824)" fill="#b54c36"/>
        </g>
        <g id="组_3944" data-name="组 3944" transform="translate(35.246 58.712)">
          <path id="路径_19898" data-name="路径 19898" d="M713.5,580.568a5.71,5.71,0,0,0-.13-1.883c-1.129-4.282-3.867-7.815-8.709-6.661a8.961,8.961,0,0,0-6.332,6.583A8.193,8.193,0,0,0,697,583.849c.313,4.819,4.305,7.349,8.833,6.095a10.962,10.962,0,0,0,2.737-1.2,8.648,8.648,0,0,0,3.622-2.391A5.782,5.782,0,0,0,713.5,580.568Z" transform="translate(-621.303 -571.803)" fill="#f7bfa7"/>
          <path id="路径_19899" data-name="路径 19899" d="M606.787,579.694c-5.148,7.049,6.276,16.395,12.64,11.119h0c3.645-1.084,5.164-5.16,4.7-8.631C622.969,573.608,611.148,573.721,606.787,579.694Z" transform="translate(-605.491 -572.432)" fill="#f7bfa7"/>
        </g>
      </g>
      <path id="路径_19900" data-name="路径 19900" d="M689.535,674.621c-1.434-2.124-2.188-5.138-2.966-7.6-1.147-3.628-1.66-7.441-2.629-11.121a51.413,51.413,0,0,1-1.735-11.661c-.244-6.993-3.152-12.94-6.053-19.126-1.1-2.336-4.248-2.762-6.236-1.359-2.409,1.7-2.936,4.839-4.916,6.9-1.371,1.425-2.975,1.4-4.822,1.4a43.506,43.506,0,0,0-4.927.583,16.817,16.817,0,0,1-4.761.017c-1.442-.283-2.572-1.81-3.553-2.988a8.427,8.427,0,0,0-1.753-4.258c-1.092-1.352-3.147-.457-3.577.981a1,1,0,0,0-.357.439c-1.017,2.4-1.01,5.31-1.388,7.881-.442,3-1.022,5.966-1.317,8.984-.136,1.374-.012,3.329-.587,4.587a7.688,7.688,0,0,0-.639,2.97c-.108,2.6-.514,5.267-.781,7.869a165.3,165.3,0,0,0-1.084,16.763c0,1.809-.481,4.128.381,5.791,1.229,2.362,5.641,1.344,7.659,1.184,2.906-.23,5.779-.368,8.694-.367,2.774,0,5.437.608,8.216.608,1.449,0,2.912.057,4.358-.026,1.063-.06,2.082-.433,3.137-.553a78.122,78.122,0,0,0,9.107-1.164c2.828-.658,5.683-.127,8.545-.073,1.61.03,3.725.18,4.59-1.579C691.1,677.752,690.679,676.312,689.535,674.621Z" transform="translate(-530.189 -519.081)" fill="#ede28d"/>
      <path id="路径_19901" data-name="路径 19901" d="M673.584,668.135c-.347-.888.031-1.85-.392-2.758a3.574,3.574,0,0,0-1.447-1.63,7.921,7.921,0,0,0-4.257-.692c-3.817.23-7.584.9-11.385,1.248-1.258.114-2.563.094-3.827.111a21.748,21.748,0,0,1-2.18-.079,2.664,2.664,0,0,1-.51-.086,1.649,1.649,0,0,0-1.267-1.067.645.645,0,0,0-.154-.249,3.141,3.141,0,0,0-1.333-.84,1.386,1.386,0,0,0-1.687.959c-1.281,3.831-.53,8.079,1.072,11.668,1.515,3.394,3.03,6.792,6.877,8a20.073,20.073,0,0,0,5.417.415,57.641,57.641,0,0,0,6.27.042c3.455-.278,7.052-1.619,8.457-5.018C674.383,675.392,674.653,670.853,673.584,668.135Z" transform="translate(-531.775 -525.836)" fill="#edcc54"/>
      <g id="组_3946" data-name="组 3946">
        <path id="路径_19902" data-name="路径 19902" d="M632.12,572.116c-.054-.127-.1-.224-.127-.3a1.706,1.706,0,0,0-.472-1.549l0-.01c-.05-.064-.1-.127-.148-.19a2.279,2.279,0,0,0-2.111-1.371,2.4,2.4,0,0,0-2.38,2.381,10.059,10.059,0,0,0,.136,1.7,4.451,4.451,0,0,0,1.032,1.94,2.2,2.2,0,0,0,2.223.587,3.132,3.132,0,0,0,1.6-1.213A2.446,2.446,0,0,0,632.12,572.116Z" transform="translate(-528.731 -509.705)"/>
        <path id="路径_19903" data-name="路径 19903" d="M687.41,570.77a2.509,2.509,0,0,0-.242-.594,1.863,1.863,0,0,0-.268-.352,1.524,1.524,0,0,0-.311-.348,3.887,3.887,0,0,0-.459-.341,2.511,2.511,0,0,0-4.495.749,3.753,3.753,0,0,0,.211,2.29,4.083,4.083,0,0,0,.816,1.4,2.866,2.866,0,0,0,1.328.831,2.693,2.693,0,0,0,3.085-1.251,3.543,3.543,0,0,0,.409-1.56A2.459,2.459,0,0,0,687.41,570.77Z" transform="translate(-538.178 -509.592)"/>
        <path id="路径_19904" data-name="路径 19904" d="M683.91,585.1a5.057,5.057,0,0,0-1.5,2.111c-.371.937-1,1.718-1.4,2.6-1.048,2.293-2.882,3.751-4.777,5.328-3.669,3.049-8.562,4.237-13.147,5.039-4.935.864-9.423,1.072-14.2-.745-4.4-1.677-7.519-5.522-9.3-9.756-.67-1.592-3.3-.913-2.635.726a23.166,23.166,0,0,0,8.8,11.106c4.889,3.1,10.8,3.574,16.4,2.8,9.834-1.365,23.866-6.378,23.915-18.313A1.276,1.276,0,0,0,683.91,585.1Z" transform="translate(-530.452 -512.479)"/>
        <path id="路径_19905" data-name="路径 19905" d="M677.335,675.427a14.236,14.236,0,0,0-.75-4.6c-.744-2.225-.237-4.291-.4-6.56-.263-3.587-3.777-2.9-6.39-2.9-4.415.01-8.783.725-13.207.9-2.017.079-4.037.234-6.057.165a34.642,34.642,0,0,0-5.106-.041,1.073,1.073,0,0,0-1.783.774,40.52,40.52,0,0,0,1.1,10.19,17.385,17.385,0,0,0,2.879,6.366c1.121,2.108,3.721,3.27,5.9,4.023,3.991,1.384,8.494.836,12.628.816,2.9-.016,5.834.19,8.467-1.266C677.3,681.8,677.382,678.1,677.335,675.427Zm-3.675,4.77c-1.028,1.876-5.345,1.261-7.065,1.233-3.4-.056-6.8.346-10.181-.176a12.538,12.538,0,0,1-4.6-1.668c-.893-.534-1.629-1.3-2.517-1.813-.2-.281-.4-.565-.582-.855a18.711,18.711,0,0,1-1.818-4.162,32.149,32.149,0,0,1-1.136-9.456,35.114,35.114,0,0,0,7.754,1.438,81.166,81.166,0,0,0,9.969-.222c3.137-.275,6.226-.3,9.373-.421.954-.036.558.862.548,1.554s-.1,1.39-.154,2.08a11.736,11.736,0,0,0,.82,4.541C674.818,674.535,674.823,678.072,673.66,680.2Z" transform="translate(-531.627 -525.711)"/>
        <path id="路径_19906" data-name="路径 19906" d="M725.587,574.133c-5.888-1.3-12.1-1.274-17.828-3.383-4.92-1.808-9.833-4.374-13.556-8.13a12.835,12.835,0,0,0,5.866-5.267c2.1-3.927-.63-8.531-3.73-10.963a11.825,11.825,0,0,0-6.228-2.489,1.513,1.513,0,0,0,.266-.3c6.372-9.4,3.85-22.34-2.846-30.809-6.071-7.679-15.69-11.621-25.021-13.552-11.519-2.384-24.365-2.762-35.757.519a30.9,30.9,0,0,0-10.027,4.872c-1.165.863-4.874,3.551-3.166,5.384a2.976,2.976,0,0,0,.482.405c.689.5,1.538-.615.9-1.171-.955-.84,4.566-3.9,5.3-4.3a36.446,36.446,0,0,1,11.558-3.444,84.836,84.836,0,0,1,30.935,1.31c8.1,1.8,15.891,5.306,21.46,11.622a24.379,24.379,0,0,1,5.782,12.4,24.131,24.131,0,0,1-.081,8.062c-.481,2.624-1.411,5.089-1.835,7.726a1.361,1.361,0,0,0,.4,1.242,11.369,11.369,0,0,0-3.475.73,7.21,7.21,0,0,0-2.083,1.242,69.847,69.847,0,0,0-5.44-10.421,1.29,1.29,0,0,0-.41-.4,13.5,13.5,0,0,0-1.866-5.351c-.623-.958-2.533-1.026-2.726.357a37.576,37.576,0,0,0,.009,6.7c.054,1.75-.043,4.507-2.018,5.224-1.481.537-3.539-.247-4.893-.827a17.611,17.611,0,0,1-4.735-3.12,26.3,26.3,0,0,1-3.822-3.694c-.915-1.239-1.628-2.606-3.057-3.327a2.244,2.244,0,0,0-2.617.337,4.157,4.157,0,0,0-1.164,3.2,14.862,14.862,0,0,1-.647,4.235c-.325,1.035-.843,2.682-2.091,2.783a5.1,5.1,0,0,1-3.719-1.762,17.362,17.362,0,0,1-2.994-3.9c-.423-.711-.787-1.457-1.147-2.2a10.409,10.409,0,0,1-1.17-2.586c-.1-2.19-.618-4.922-2.97-5.643-1.423-.434-2.434.745-3.184,1.734-1.041,1.371-2.084,2.721-3.021,4.17-2.194,3.392-4.192,7.143-7.652,9.425-4.058,2.674-4.688-2.4-4.712-5.21-.035-4.061,1.7-7.411,3.109-11.092.575-1.5-1.1-2.749-2.443-2.441-2.061.468-2.985,2.507-4.367,3.884-2.1,2.09-4.613,3.976-6.866,5.919-2.336,2.013-4.736,4.029-7.185,5.9-2,1.531-5.238,4.091-7.958,3.566-.776-.151.639-5.121.763-5.527.863-2.834,2.74-5.2,4.261-7.686,3.266-5.349,7.552-10.063,11.725-14.706a.519.519,0,0,0-.734-.732c-2.636,2.371-5.371,4.712-7.816,7.283a91.571,91.571,0,0,0-6.379,7.866,28.711,28.711,0,0,0-4.732,8.368c-.672,2.045-1.617,5.1-.334,7.091a4.343,4.343,0,0,0,2.69,1.984,33.386,33.386,0,0,0-4.846,7.919c-1.161-1.867-3.25-3.521-5.278-3.515-3.773.017-5.491,2.8-6.312,6.123-.86,3.483-.653,7.22,1.917,9.895a8.44,8.44,0,0,0,6.31,2.406c-.05,1.256-.05,2.514.009,3.762a30.633,30.633,0,0,0,10.367,21.724c6.446,5.748,14.532,9.124,23.059,10.781-.108.239-.223.481-.361.721-.762,1.327-2.233,1.851-3.18,2.951-1.967,2.286-4.666,3.52-7.424,4.588-5.591,2.163-11.121,4.5-17.048,5.654a55.37,55.37,0,0,1-9.723.74,34.125,34.125,0,0,1-9.019-.844,22.7,22.7,0,0,1-8.053-4.381c-1.661-1.3-3.617-2.425-4.922-4.094a1.876,1.876,0,0,0,.5-2.262c-.018-.031-.038-.065-.057-.1.954-1.085,0-3.027-.564-4.128a18.18,18.18,0,0,0-3.587-4.486c-.548-1.961-1.091-3.925-1.611-5.9-.711-2.7-1.528-5.363-2.376-8.015a18.594,18.594,0,0,0,3.008,1.77,93.479,93.479,0,0,0,9.026,4.191,20.878,20.878,0,0,0,7.8,1.2,9.114,9.114,0,0,0-2.4,4.842,2,2,0,0,0,1.013,1.766c1.968,1.182,4.1.791,6.245.4,1.993-.369,2.345.8,2.775,2.49.725,2.843,1.29,6.193,4.909,6.282,2.831.071,5.552-2.353,7.541-4.066a23.383,23.383,0,0,0,5.283-6.026,1.68,1.68,0,0,0-2.283-2.284,29.794,29.794,0,0,0-5.172,4.453c-1.345,1.261-3.611,3.543-5.408,3.68-.014-.021-.022-.036-.038-.061a7.991,7.991,0,0,1-.512-1.875,16.473,16.473,0,0,0-1.539-4.365,5.258,5.258,0,0,0-4.18-2.432,35.816,35.816,0,0,0-3.766.559,22.8,22.8,0,0,1,2.274-2.353c1.666-1.564,3.543-2.908,5.21-4.472,1.9-1.785-.867-4.4-2.81-2.81-3.985,3.27-10.11,2.722-14.6,1.091-2.433-.883-4.584-2.324-6.943-3.348-.338-.147-.692-.305-1.044-.476,1.979-.005,3.959-.006,5.937-.043a36.651,36.651,0,0,0,11.3-1.685c5.392-1.881,10.69-5.886,11.509-11.86.042-.308-.4-.576-.554-.235-2.659,5.687-9.288,8.478-15.142,9.479-4.005.687-8.189.493-12.236.481-.328,0-2.31.135-2.327.122a3.948,3.948,0,0,0-1.488-.5,3.858,3.858,0,0,0-3.17.593c-.5-1.545-1.005-3.091-1.487-4.645-.872-2.8-1.595-5.633-2.333-8.468-.773-2.959-1.955-5.775-2.746-8.72-.591-2.2-.962-4.674-2.163-6.636a3.229,3.229,0,0,0-1.314-1.241c-2.18-3.056-3.913-6.511-5.959-9.656-2.492-3.823-4.446-8.06-6.657-12.054-1.543-2.786-2.936-5.674-4.444-8.489-.14-.18-.28-.357-.42-.532a48.464,48.464,0,0,1-3.337-4.684,44.574,44.574,0,0,1-2.532-4.569,1.662,1.662,0,0,0-.741.009,2.7,2.7,0,0,0-.445-.043.554.554,0,0,0-.594.613.449.449,0,0,0-.28.413c-.167,4.116-.616,8.22-.8,12.341s-.333,8.233-.6,12.343c-.268,4.213-.717,8.421-1.066,12.628-.242,2.926-1.134,6.887.438,9.569a1.432,1.432,0,0,0,.513.522c1.168,5.478,2.773,10.853,4.288,16.242q2.645,9.4,5.066,18.849c3.216,12.646,6.718,25.158,11.073,37.466,3.884,10.98,8.316,21.758,13.179,32.339q.266.939.546,1.874c1.689,5.582,7.617,20.843,8.025,22.226.87,2.96,2.41,5.636,3.362,8.55.756,2.31,2.438,3.191,4.8,3.082a76.86,76.86,0,0,0,9-1.165,17.169,17.169,0,0,0,8-3.771c2.272-1.963,2.309-4.3,2.171-7.125a23.245,23.245,0,0,0-1.823-8.011c-.529-1.255-1.141-2.474-1.715-3.709a11.754,11.754,0,0,0-1.221-2.43,19.352,19.352,0,0,0-.622-2.992c-.426-1.722-.883-3.437-1.345-5.149-.928-3.442-1.958-6.856-2.961-10.278-.978-3.332-1.913-6.659-3.1-9.921-.366-1-.78-1.989-1.217-2.961q-.074-.71-.136-1.423c-.045-.125-.085-.252-.132-.378-1.115-3.072-2.319-6.111-3.333-9.218-1.885-5.782-3.595-11.619-5.235-17.474.811.86,1.711,1.648,2.617,2.435a31.6,31.6,0,0,0,7.742,5.381c6.052,2.72,13.729,2.167,20.152,1.519,6.808-.687,13.289-3.567,19.61-5.967a21.975,21.975,0,0,0,8.074-4.835c.518-.526,1.078-1,1.635-1.469-.487,1.42-.974,2.84-1.452,4.262a108.7,108.7,0,0,0-3.756,15.305,146.637,146.637,0,0,0-1.752,15.243,71.243,71.243,0,0,0,.083,14.378,1.628,1.628,0,0,0,.7,3.064,1.706,1.706,0,0,0,.486-.076,1.832,1.832,0,0,0,.592.108,1.75,1.75,0,0,0,.137.208,14.164,14.164,0,0,0-.591,2.888c-.267,2.051-1.622,5.109-.535,7.018a.822.822,0,0,0,1.271.184,40.16,40.16,0,0,0,12.852,2.374c.553.021,1.108.041,1.663.059a35.645,35.645,0,0,0,.086,8.07c-.891-.127-1.84-.17-2.821-.332a64.459,64.459,0,0,0-10.566-.767c-4.013,0-12.8-1.385-14.066,4.12-.568,2.468,1.519,4.479,3.271,5.822,2.55,1.955,6.23,3,9.306,3.7,5.069,1.162,14.49.788,17.08-4.76a1.364,1.364,0,0,0-1.851-1.852c-1.641.751-3,1.913-4.643,2.654-2.347,1.06-5.451.832-7.959.766-2.525-.067-5.033-1.171-7.36-2.048-1.608-.606-3.854-1.67-4.429-3.437-.651-2,10.006-1.514,10.652-1.514a59.566,59.566,0,0,1,8.263.419,21.835,21.835,0,0,0,2.977.385c.906,0,2.328-.1,2.877.787a1.769,1.769,0,0,0,3.218-1.359c-.682-3.524-1.158-7.064-1.738-10.6a73.132,73.132,0,0,0,10.412-.436c4.458-.562,9.006-.85,13.407-1.726.142-.029.288-.056.43-.084-.2,1.069-.309,2.135-.419,3.227-.174,1.776.458,3.645.675,5.415a30.77,30.77,0,0,1,.449,4.255,6.153,6.153,0,0,0,.572,2.882,1.164,1.164,0,0,0-1.185,1.508c.713,2.845,3.859,4.245,6.3,5.372,3.335,1.539,6.514,1.567,10.11,1.074,4.506-.618,15.127-3.725,10.307-10.229-1.766-2.385-4.918-2.23-7.6-2.137-3.6.123-7.134.341-10.709.8-1.378.177-2.583.733-3.926,1.032a1.619,1.619,0,0,0-.256.079c-.076-.677-.11-1.332-.225-2.013a55.422,55.422,0,0,0-1.381-6.105c-.52-1.82-.635-3.65-1.011-5.489,1.632-.315,3.261-.632,4.88-1.023a12.177,12.177,0,0,0,4.576-1.691c2.472-.194,4.975-.238,6.866-2.065a2.565,2.565,0,0,0,.682-1.359c.161-.8-.212-1.031-.456-1.7-.462-1.263-1.06-2.473-1.587-3.708a3.03,3.03,0,0,0,2.53-2.735,1.642,1.642,0,0,0-1.531-1.682c-.745-4.111-1.863-8.094-3.02-12.136a9.6,9.6,0,0,0,.379-1.147c.185-.706.12-1.463.312-2.157.3-1.073-.433-2.359-.071-3.346a.607.607,0,0,0,.022-.077,37.552,37.552,0,0,0,4.005-2.927,32.546,32.546,0,0,0,5.033-4.526c2.845-3.3,2.4-7.567.626-11.269-1.8-3.75-6.244-6.522-9.348-9.082-1.808-1.491-3.451-3.166-5.128-4.8-.934-.909-1.881-1.8-2.839-2.68-.507-.465-1.19-.9-1.746-1.393q4.343-1.5,8.569-3.366c6.466-2.856,12.8-6.441,16.937-12.337,4.707-6.71,4.542-15.653,3.475-23.418a61.935,61.935,0,0,0-3.034-12.328,7.124,7.124,0,0,1,3.419-1.418,8.314,8.314,0,0,1,6.689,2.234c2,1.819,2.989,4.511.984,6.68-1.719,1.861-4.454,2.16-6.175,3.9a1.372,1.372,0,0,0,.6,2.261,4.788,4.788,0,0,0,1.911.325,1.283,1.283,0,0,0,.352.919c6.354,7.025,15.758,10.586,24.844,12.267,1.984.368,4.035.81,6.061,1.045-.446.3-.912.568-1.376.836a29.715,29.715,0,0,1-3.6,1.716c-1.08.436-2.246.731-3.354,1.084a21.284,21.284,0,0,1-4.322,1.271,12.7,12.7,0,0,0-5.359,1.412,1.981,1.981,0,0,0-.4,3.088c2.1,1.826,5.265,2.093,7.678,3.467a9.134,9.134,0,0,1-2.28.37c-2.016.2-4.3-.319-6.117.714-2.5,1.421.273,3.352.42,4.935.067.733-2.951,1.3-3.421,1.4a19.894,19.894,0,0,1-4.4.3,16.045,16.045,0,0,1-7.466-2.054,17.508,17.508,0,0,1-3.334-2.534c-.9-.823-1.947-1.443-2.754-2.327-.957-1.051-2.278.285-1.808,1.4a12,12,0,0,0,1.863,3.631,16.336,16.336,0,0,0,4.057,3.217A20.239,20.239,0,0,0,696.369,602c3.236.162,7.112-.4,9.795-2.319a4.358,4.358,0,0,0,1.809-3.347,2.915,2.915,0,0,0-.365-1.636l.2,0c.538.006,1.075,0,1.614-.021a15.105,15.105,0,0,0,3.817-.569c2.017-.6,4.092-2.52,3.252-4.808-.7-1.892-2.7-2.743-4.418-3.47q.352-.074.682-.175a63.589,63.589,0,0,0,8.339-2.965c1.987-.917,4.712-2.169,5.913-4.105C728,577,727.742,574.608,725.587,574.133Zm-140.9-18.31a41.33,41.33,0,0,0-2.115,9.605,14.7,14.7,0,0,1-3.061-.941c-2.4-1.111-2.908-3.347-2.956-5.779-.044-2.251.356-5.245,2.443-6.483,1.845-1.1,4.6.1,5.945,1.777A1.751,1.751,0,0,0,584.689,555.823Zm-72.773-9.5c.279-3.93.66-7.869.79-11.808q.175-5.287.1-10.575a16.033,16.033,0,0,0,3.96-.315,3.745,3.745,0,0,0,1.592-.6c1.4,2.765,2.927,5.469,4.4,8.183,1.945,3.573,3.682,7.282,5.88,10.708,1.739,2.711,3.22,5.664,5.009,8.359-.06.073-.123.144-.183.225a44.735,44.735,0,0,1-2.517,3.855c.33-.368-1.432-1.686-1.81-2.058a3.94,3.94,0,0,0-2.707-1.319c-1.892-.074-2.8,2.549-3.531,3.832-1.954,3.4-2.573-1.166-4.006-2.3-2.332-1.845-3.827.491-4.506,2.594-.333,1.03-.594,2.068-.927,3.088a.872.872,0,0,0-.3-.217c-.37-.376-.716-.917-1.076-1.319a2.62,2.62,0,0,0-.24-.229c0-.031-.007-.063-.013-.1C511.038,553.152,511.687,549.555,511.916,546.325Zm43.707,118.62c-2.276-5.023-3.328-10.427-4.914-15.677-3.251-10.755-6.028-21.679-8.638-32.614-.61-2.551-1.229-5.078-1.7-7.657a36.369,36.369,0,0,0-2.444-7.075,17.4,17.4,0,0,1-.817-3.2,21.772,21.772,0,0,0-1.172-3.377c-.44-1.176-.638-2.492-1.065-3.692-.472-1.329-.964-2.645-1.369-4-1.575-5.232-3.835-10.232-5.471-15.447a124.22,124.22,0,0,0-5.379-13.505,3.189,3.189,0,0,0,.967-.494,7.232,7.232,0,0,0,1.649-2.02c.278-.438.546-.862.787-1.32.479-.9.692-.771,1.258-.108.9,1.06,2.226,2.582,3.752,2.765a18,18,0,0,0,.806,5.4c.717,2.62,1.379,5.247,2.024,7.884a65.3,65.3,0,0,0,2.279,7.567c.882,2.36.945,4.977,1.9,7.3,2,4.846,2.527,10.238,3.943,15.267.635,2.256,1.626,4.4,2.283,6.661.763,2.621,1.361,5.22,2.357,7.777a26.771,26.771,0,0,1,.721,3.825c.307,1.424.631,2.839.884,4.271a55.794,55.794,0,0,0,2.207,7.4c1.61,4.985,2.874,10.135,4.134,15.216,1.169,4.719,3.367,9.177,4.414,13.886a9.586,9.586,0,0,0,.8,2.654,13.858,13.858,0,0,1,1.692,3.233,18.639,18.639,0,0,0,1.1,3.908c.4.772.832,1.525,1.261,2.282a33.412,33.412,0,0,0-4.358,1.875,1.327,1.327,0,0,0-.61-.314,5.651,5.651,0,0,1-.422-.8,7.189,7.189,0,0,1-.6-1.968,10.586,10.586,0,0,0-.98-2.54C556.472,667.19,556.118,666.036,555.623,664.945Zm.859,10.112c-.488.192-1,.4-1.5.629a.181.181,0,0,0-.016-.021,9.665,9.665,0,0,1-1.607-3.143,60.163,60.163,0,0,1-2.431-7.129c-.753-2.635-1.313-5.3-2.209-7.895-.832-2.4-1.93-4.673-2.576-7.143a67.219,67.219,0,0,0-2.118-7.836,67.649,67.649,0,0,1-2.591-7.421,135.4,135.4,0,0,0-5.068-15.343,57.213,57.213,0,0,1-1.954-6.67c-.637-2.373-1.736-4.609-2.457-6.96-1.6-5.225-3.862-10.233-5.65-15.394Q520.991,575.4,515.4,560.16a20.752,20.752,0,0,0,1.487-4.367,7.089,7.089,0,0,1,.417-1.079,1.229,1.229,0,0,0,.07.165,13.69,13.69,0,0,0,1.712,2.707,3.662,3.662,0,0,0,2.279,1.236c1.783,4.854,3.789,9.612,5.268,14.572,1.623,5.445,3.889,10.7,5.644,16.108.729,2.249,1.364,4.626,2.183,6.828.844,2.264,1.137,4.654,2.117,6.88,2.363,5.366,2.99,11.247,4.552,16.885,1.553,5.609,2.7,11.339,4.258,16.95,1.5,5.407,2.8,10.928,4.1,16.386,1.278,5.361,3.115,10.378,4.9,15.572.525,1.529.957,3.009,1.5,4.532A13.518,13.518,0,0,0,556.482,675.057Zm-9.7-10.725c-.527-1.246-1.007-2.512-1.472-3.784-.03-.208-.062-.414-.089-.623-.14-.376-.281-.751-.419-1.127-1.517-4.161-3.091-8.31-4.578-12.482-.5-1.41-.965-2.845-1.327-4.3-1.746-4.135-3.433-8.3-5-12.526-4.53-12.242-8.324-24.693-12.009-37.21-3.281-11.141-7.3-22.046-10.715-33.137.17.234.332.458.478.667.765,1.106,2.487,1.9,3.471.744,3.09,10.236,6.451,20.393,9.74,30.568,1.679,5.192,3.762,10.251,5.312,15.487.7,2.357,1.635,4.634,2.3,7,.376,1.334.5,2.718.879,4.055.38,1.355.932,2.667,1.423,3.985a126.975,126.975,0,0,1,4.569,15.6,52.773,52.773,0,0,0,2.51,7.251c1,2.542,1.289,5.462,2.016,8.095.658,2.383,1.843,4.64,2.625,6.989.876,2.625,1.424,5.342,2.275,7.972.96,2.969,1.85,6.914,4.01,9.312a7.293,7.293,0,0,0-.921.721A130.391,130.391,0,0,0,546.785,664.332Zm27.222,14.48a24.486,24.486,0,0,1,1.516,4.414c.438,1.96,1.152,5.594-.256,7.282-1.662,1.992-4.809,2.975-7.206,3.578a47.047,47.047,0,0,1-7.051,1c-.817.077-2.189.526-2.531-.452-.37-1.063-.909-2.051-1.372-3.075-1.173-2.587-2.179-5.225-3.285-7.839-.085-.2-.165-.409-.241-.62,2.558-.1,5.159-1.2,7.576-1.858a84.57,84.57,0,0,1,9.927-1.791A8.668,8.668,0,0,0,574.007,678.812Zm-1.55-3.5c.03.074.06.151.09.225a4.78,4.78,0,0,1,.237,1.383c.011.16-1.017.122-1.15.16a37.052,37.052,0,0,1-3.755.673,73.462,73.462,0,0,0-7.989,1.715c-2.25.65-4.458,1.8-6.709,2.434-.206-.649-.411-1.3-.666-1.928-.031-.122-.06-.247-.092-.371,2.545-1.686,5.93-2.112,8.668-3.336.759-.339,1.486-.723,2.215-1.118a7.176,7.176,0,0,1,3.219-.392c1.831-.011,3.63.377,5.454.411A1.384,1.384,0,0,0,572.457,675.313Zm-10.294-33.625c.3.841.595,1.685.859,2.537,1.022,3.3,1.811,6.664,2.7,10q1.38,5.176,2.747,10.355.679,2.571,1.305,5.155c.191.785.335,1.556.529,2.3-1.083-.09-2.162-.173-3.247-.2a1.218,1.218,0,0,0-.492-.5c-.417-.767-.844-1.529-1.274-2.29a12.11,12.11,0,0,1-1.163-3.9,7.787,7.787,0,0,0-1.141-2.624,9.661,9.661,0,0,1-1.322-3.271c-1.064-4.719-3.139-9.195-4.35-13.9-1.308-5.088-2.521-10.21-4.012-15.251a63.329,63.329,0,0,1-2.231-7.389c-.458-2.715-1.2-5.37-1.63-8.091a23.345,23.345,0,0,0-1.17-3.236,32.229,32.229,0,0,1-.864-3.237,44.75,44.75,0,0,0-2.2-6.6c-1.9-4.9-2.277-10.281-3.941-15.256-.81-2.414-1.4-4.8-2-7.273-.618-2.524-1.747-4.9-2.394-7.433-.682-2.666-1.228-5.419-2.141-8.016-.749-2.132-1.429-4.26-1.961-6.45a9.4,9.4,0,0,0,2.544-3.162,3.189,3.189,0,0,0,.154-.31c.247.692.4,1.453.585,2.1.826,2.868,1.741,5.676,2.611,8.529,1.807,5.9,3.233,11.885,5.183,17.755,2.024,6.1,3.649,12.279,5.272,18.5.282,1.084.577,2.165.875,3.246a1.321,1.321,0,0,0-.375,1.848,4.063,4.063,0,0,0,1.221,1.156c1.2,4.166,2.466,8.316,3.679,12.476C556.7,626.718,558.807,634.564,562.163,641.687ZM658.823,689c2.78-1.1,6.207-1.141,9.165-1.272,2.5-.109,5.32-.44,7.762.159,1.554.382.347,1.95-.276,2.411a11.619,11.619,0,0,1-4.128,1.527,20.613,20.613,0,0,1-9.062.623,15.95,15.95,0,0,1-4.092-1.84c-.528-.286-1.145-.581-1.756-.892A10.515,10.515,0,0,0,658.823,689Zm6.229-23.106a11.276,11.276,0,0,0-3.458.95c-1.194.233-2.4.792-3.517,1.071-2.084.523-4.177.907-6.282,1.323-4.6.908-9.321,1.305-13.975,1.913a100.39,100.39,0,0,1-13.643.486,43.417,43.417,0,0,1-7.189-.291,15.782,15.782,0,0,0-4.957-.407,22.481,22.481,0,0,0,.583-4c.121-.991.144-2.069.209-3.068a9.836,9.836,0,0,0-.077-1.16,1.441,1.441,0,0,0,.767-.423c.948.2,1.932.347,2.86.538a47.294,47.294,0,0,0,8.449,1.005c6.374.143,12.729.414,19.1.194,5.907-.2,11.73-.522,17.6-1.22a19.419,19.419,0,0,0,3.831-.849,11.315,11.315,0,0,0,1.527-.74,10.756,10.756,0,0,0,.189,1.8,17.66,17.66,0,0,0,.476,2.48A6.937,6.937,0,0,1,665.052,665.892Zm2.286-8.636a11.914,11.914,0,0,0-2.956,1.151c-2.4.927-5.042.926-7.545,1.4-2.76.519-5.593.194-8.367.466s-5.573.385-8.362.459c-5.594.149-11.193.079-16.788.176a57.014,57.014,0,0,1-8.032-.6c-.545-.068-1.094-.109-1.645-.148a1.408,1.408,0,0,0-.829-.569,134.425,134.425,0,0,1,1.195-27.885c.647-4.513,1.57-8.981,2.454-13.452.434-2.192,1-4.355,1.527-6.527q.455-1.886.817-3.789c.109-.564.17-1.242.34-1.864.014-.035.031-.066.046-.1a1.951,1.951,0,0,0,.079-.286,2.629,2.629,0,0,1,.383-.7q2.194.294,4.406.452a8.716,8.716,0,0,0,.876,5.268c1.539,3.255,5.611,4.36,8.906,4.5,3.528.158,7.01-2.943,9.248-5.3,1.652-1.74,3.879-3.837,4.33-6.154,2.406-.517,4.784-1.141,7.137-1.853A37.249,37.249,0,0,0,655.4,606c.61,2.529,1.18,5.069,1.754,7.607,1.175,5.194,2.281,10.4,3.455,15.6.434,1.917.735,3.875,1.015,5.837a9.007,9.007,0,0,1-1.13.829,6.644,6.644,0,0,0-1.756,1.831c-1.318,1.908,1.869,3.8,3.119,1.825a3,3,0,0,1,.35-.448c.026.17.055.338.084.508a1.51,1.51,0,0,0-.438.6,3.822,3.822,0,0,1-1.287,1.537.557.557,0,0,0,.113.873,1.948,1.948,0,0,0,2.113-.275c.094.457.2.911.305,1.365-1.53,1.154-.566,3.522.953,3.453l1.592,5.589a16.06,16.06,0,0,0,1.725,4.525A.272.272,0,0,0,667.339,657.256Zm-40.722-51.5a1.711,1.711,0,0,0,.148-.174,84.947,84.947,0,0,0,14.552-.754c.423-.059.846-.122,1.268-.187-.5.576-1.084,1.1-1.562,1.669a20.226,20.226,0,0,1-4.833,4.32,7.307,7.307,0,0,1-7.015.066,4.171,4.171,0,0,1-2.044-2.265C626.891,607.909,626.082,606.273,626.617,605.753ZM661.91,607.9c2.915,2.992,6.147,5.547,9.2,8.382,2.938,2.726,6.268,7.33,3.2,11.216a25.524,25.524,0,0,1-4.98,4.358c-.926.685-1.965,1.321-2.914,2.046a1.577,1.577,0,0,0-1.477-1.009c-.223-1.309-.476-2.612-.8-3.9-1.236-4.9-2.392-9.817-3.716-14.693-.679-2.506-1.413-4.992-2.278-7.439-.567-1.606-1.358-3.254-1.77-4.943a5.227,5.227,0,0,0,.983,1.2C658.942,604.645,660.381,606.336,661.91,607.9Zm21.469-35.989a20.381,20.381,0,0,1-5.99,13.7c-3.377,3.35-7.879,5.551-12.156,7.509-17.929,8.2-39.2,11.088-57.967,3.99-8.478-3.207-16.18-9.215-19.4-17.913-2.142-5.777-2.214-12.42-1.125-18.418a42.425,42.425,0,0,1,3.1-9.829,26.387,26.387,0,0,1,3.915-5.844c3.806-1,8.056-4.446,10.084-6.1,2.912-2.367,5.793-4.746,8.579-7.261.33-.3.665-.585,1-.869a25.317,25.317,0,0,0-.677,5.195c-.06,3.34.657,8.071,4.336,9.387,4.674,1.673,8.816-1.914,11.571-5.322a63.724,63.724,0,0,0,4.08-5.973c.5-.78,1.007-1.553,1.52-2.319a23.219,23.219,0,0,0,1.861,4.569c1.569,3.365,4.1,7.095,7.544,8.735,2.863,1.364,6.888,1.265,8.69-1.757a17.615,17.615,0,0,0,2-5.188c.027-.118.053-.235.079-.352.265.28.535.553.807.828a35.8,35.8,0,0,0,5.453,4.872c3.287,2.175,8.086,4.193,11.962,2.476a7.5,7.5,0,0,0,4.046-4.945c1.63,4.44,3.407,8.829,4.737,13.373A52.11,52.11,0,0,1,683.379,571.916Z" transform="translate(-508.224 -497.38)"/>
      </g>
    </g>
  </g>
</svg>
