<svg xmlns="http://www.w3.org/2000/svg" width="228.731" height="246.091" viewBox="0 0 228.731 246.091">
  <g id="组_3979" data-name="组 3979" transform="translate(-233.567 -3162.667)">
    <g id="组_3920" data-name="组 3920" transform="translate(311.728 2813.027)" opacity="0.2">
      <path id="路径_19838" data-name="路径 19838" d="M-17.8,364.4c-24.209,11.938-41.131,35.09-50.1,60.064-7.62,21.218-10.041,43.983-10.256,66.527-.4,41.794,33.182,73.879,68.887,90.291,32.914,15.129,72.43,20.819,105.034,5.031C128,570.7,148.432,535.43,150.4,499.671s-12.977-71.233-36.55-98.195C104.258,390.508,92.768,382.664,82,373.293c-10.235-8.9-19.987-18-33.428-21.749C26.979,345.518,1.487,354.886-17.8,364.4Z" fill="#c1e4ff"/>
    </g>
    <g id="组_3929" data-name="组 3929" transform="translate(212.353 2843.086)">
      <g id="组_3928" data-name="组 3928" transform="translate(52.283 338.261)">
        <path id="路径_19839" data-name="路径 19839" d="M234.369,597.105c-4.782-2.3-12.324-3.547-14.506-3.652-26.469-1.271-54.3,6.557-80.423,9.977-4.556.6-17.061,1.314-19.547,5.805-4.815,8.7,9.224,12.4,15.426,12.631,5.071.187,10.176,0,15.251.044,12.024.1,24.068.184,36.041-1.069a115.912,115.912,0,0,0,34.942-9.021c1.383-.611,2.745-1.266,4.105-1.926a23.274,23.274,0,0,1,3.776-1.846,20.079,20.079,0,0,0,5.362-2.32C240.711,602.055,238.641,599.16,234.369,597.105Z" transform="translate(-71.866 -413.231)" fill="#d5d5d5"/>
        <g id="组_3927" data-name="组 3927">
          <g id="组_3921" data-name="组 3921" transform="translate(58.12 163.418)">
            <path id="路径_19840" data-name="路径 19840" d="M177.772,578.8c-1.138-.817-3.22-.417-4.508-.374a27.738,27.738,0,0,1-5.779-.207c-2.007-.359-6.614-2.543-8.17-.307a1.5,1.5,0,0,0-2.173,1.077c-.238,1.175-.64,3.238.148,4.311.954,1.3,2.2,1.567,3.669,2.028,1.928.6,3.941,1,5.9,1.505,1.518.39,3,.566,4.525.844,1.2.22,2.561.886,3.794.467a4.309,4.309,0,0,0,2.765-2.775c.431-1.041.643-2.126.97-3.186A2.866,2.866,0,0,0,177.772,578.8Z" transform="translate(-141.132 -571.83)" fill="#cd4343"/>
            <path id="路径_19841" data-name="路径 19841" d="M234.451,574.5c-.077-1.751-.895-4.342-2.876-4.723-2.167-.416-4.7,1.274-6.6,2.115-1.171.518-2.359,1.141-3.571,1.54a22.084,22.084,0,0,0-2.86,1.018,1.891,1.891,0,0,0-1.529.8c-.011-.045-.024-.09-.032-.137-.335-1.8-3.076-1.31-3.1.419a5.715,5.715,0,0,0,.741,2.711c-.129-.263-.092.932-.088,1.1a7.171,7.171,0,0,0,.3,1.716,4.194,4.194,0,0,0,4.136,3.169c4.277.359,8.617-2.376,11.55-5.286C232.023,577.449,234.563,577.065,234.451,574.5Z" transform="translate(-157.903 -569.711)" fill="#cd4343"/>
            <path id="路径_19842" data-name="路径 19842" d="M152.349,605.7c-3.82-.159-7.679-.013-11.5,0-2.079,0-5.811.471-6.208,3.1-.4,2.653,2.409,3.671,4.466,4.26.967.277,1.962.434,2.942.654.793.179,1.562.441,2.36.6a6.866,6.866,0,0,0,2.806-.053,1.131,1.131,0,0,0,.935-1.163,35.489,35.489,0,0,0,3.533-.773c1.689-.46,3.715-1.091,4.773-2.588a2.531,2.531,0,0,0,.145-2.642C155.828,605.772,153.675,605.755,152.349,605.7Z" transform="translate(-134.599 -580.268)" fill="#47bf84"/>
            <path id="路径_19843" data-name="路径 19843" d="M258.838,600.628c-.746-1.649-2.6-2.4-4.193-2.97-1.93-.686-4.255-.259-6.2.178a18.047,18.047,0,0,0-6.088,2.584c-2.005,1.365-4.2,2.588-5.3,4.875a1.531,1.531,0,0,0,1.5,2.251,2.108,2.108,0,0,0,1.087.825,5.849,5.849,0,0,0,2.907.119,24.717,24.717,0,0,1,3.028-.049,13.915,13.915,0,0,0,3.2-.63c1.24-.3,2.545-.471,3.762-.849C255.345,606.092,260.752,604.861,258.838,600.628Z" transform="translate(-164.664 -577.82)" fill="#47bf84"/>
          </g>
          <g id="组_3924" data-name="组 3924" transform="translate(19.537 3.658)">
            <g id="组_3923" data-name="组 3923">
              <path id="路径_19844" data-name="路径 19844" d="M188.534,375.543c-1.4-1.054-3.409-.759-5.007-.509a15.679,15.679,0,0,0-5.357,2.293,15.3,15.3,0,0,0-3.553,3.154,16.06,16.06,0,0,1-2.269-2.168l-2.427-2.417a32.151,32.151,0,0,0-4.954-3.7,67.038,67.038,0,0,0-11.349-5.848,55.094,55.094,0,0,0-11.154-3.734c-4.458-.8-8.85.229-13.112,1.487a37.172,37.172,0,0,0-10.426,5.423,12.227,12.227,0,0,0-2.024,2.153c-.7.779-1.6,1.279-2.324,2-.629.63-1.1,1.466-1.71,2.132-.862.939-1.75,1.833-2.579,2.8-1.512,1.77-3.007,3.555-4.449,5.383a48.109,48.109,0,0,0-3.556,5.308c-1.2,2-3,4.017-3.487,6.333a10.651,10.651,0,0,0-2.69.305c-1.863.534-2.562,2.606-3.316,4.183a19.494,19.494,0,0,0-.811,2.989c-.291,1.008-.6,2.007-.854,3.027a25.961,25.961,0,0,0-.39,6.27q0,1.846,0,3.693a1.591,1.591,0,0,0-.48-.525c-.036-.06-.08-.128-.14-.215a2.315,2.315,0,0,0-.7-.774,15.669,15.669,0,0,0-2.272-1.364,4.379,4.379,0,0,0-4.688.539c-2.677,2.457-3,6.974-1.942,10.248a9.459,9.459,0,0,0,7.944,6.547c3.181.357,6.581-.2,7.762-3.542a5.659,5.659,0,0,0,.184-3,27.972,27.972,0,0,0,1.658,3.092,45.654,45.654,0,0,1,2.424,5.729c3.379,7.772,11.679,11.958,18.689,15.851a48.077,48.077,0,0,0,5.575,2.579c2.246.9,4.263,1.841,6.713,1.928a60.291,60.291,0,0,0,11.637-.96,9.6,9.6,0,0,0,.688,3.292,7.616,7.616,0,0,0,3.7,3.755,9.108,9.108,0,0,0,9.621-1.126c3.156-2.651.8-6.925,2.571-10,3.089-1.414,6.026-3.146,8.959-4.858,1.878-1.1,3.756-2.106,5.54-3.361a39.494,39.494,0,0,0,5.2-4.593c.537-.537,1.224-.936,1.808-1.421a11.386,11.386,0,0,0,1.5-2.04,27.656,27.656,0,0,0,3.28-5.618c.434-.945.832-1.906,1.236-2.864a16.941,16.941,0,0,0,1.239-2.893,50.725,50.725,0,0,1,1.507-7.174,15.1,15.1,0,0,0,.4-5.726,28.375,28.375,0,0,0-.8-6.594,30.557,30.557,0,0,0-3-6.888c1.935-3.193,5.223-6.174,5.557-10.06A10.257,10.257,0,0,0,188.534,375.543Z" transform="translate(-79.954 -348.996)" fill="#ffe6c9"/>
              <path id="路径_19845" data-name="路径 19845" d="M148.189,356.913a14.01,14.01,0,0,0-2.535-6.23c-3.729-5.055-10.654-7.635-16.807-7.191a14.08,14.08,0,0,0-12.011,8.159,18.834,18.834,0,0,0-6.816.921,14.721,14.721,0,0,0-1.659.686c-.426-.082-.849-.152-1.265-.205-3.159-.4-7.463.261-8.589,3.746-.957,2.968.4,6.478,2.562,8.637l-.008,0c-6.255-1.623-15.245.067-15.542,7.9s9.617,11.325,15.275,14c1.4.665,2.657-1.053,1.84-2.038a13.663,13.663,0,0,0,4.158,2.057c4.392,1.275,9.647-1.157,10.685-5.415a9.862,9.862,0,0,0,7.592-4.234,5.356,5.356,0,0,0,.674-1.459,10.657,10.657,0,0,0,8.149.273q.3-.118.592-.254a17.9,17.9,0,0,0,7.562-3.223C146.842,369.537,149.739,362.639,148.189,356.913Z" transform="translate(-81.588 -343.442)" fill="#ecc547"/>
              <path id="路径_19846" data-name="路径 19846" d="M186.868,450.385a9.142,9.142,0,0,0-4.058-.732,49.521,49.521,0,0,0-5.6.262,34.55,34.55,0,0,0-11.052,3.186,38.011,38.011,0,0,0-4.758,2.713,6.773,6.773,0,0,0-1.826,1.472c-.482.611-.874,1.278-1.322,1.913-.871,1.235.563,2.389,1.715,2.231l.432-.059a1.156,1.156,0,0,0,.926-.765l.02.016c1.024.738,2.432.608,3.569,1.079a31.658,31.658,0,0,0,5.433,1.731c2.981.622,6.326.2,9.326-.2,3.772-.51,9.645-1.61,10.426-6.17A6.4,6.4,0,0,0,186.868,450.385Z" transform="translate(-102.891 -374.662)" fill="#f08e7e"/>
              <g id="组_3922" data-name="组 3922" transform="translate(26.173 49.869)">
                <path id="路径_19847" data-name="路径 19847" d="M131.474,441.28a8.657,8.657,0,0,0-3.086-.574,1.237,1.237,0,0,0-.592-.1,12.809,12.809,0,0,0-4.557.768,13.289,13.289,0,0,0-4.378,3.2c-2.553,2.735-2.244,6.617-.32,9.585,1.8,2.771,5.2,4.51,8.324,5.312,3.5.9,7.061-1.011,8.949-3.967C138.938,450.619,136.984,443.423,131.474,441.28Z" transform="translate(-117.023 -421.869)" fill="#f7bfa7"/>
                <path id="路径_19848" data-name="路径 19848" d="M223.466,420.038a10.515,10.515,0,0,0-3.139-3.365,14.154,14.154,0,0,0-4.286-2.432c-2.873-.82-6.5,1.479-7.7,4.133a7.671,7.671,0,0,0-1.953,4.228,8.828,8.828,0,0,0,2.254,7.628c4.112,4.2,11.23,2.754,14.528-1.588A8.035,8.035,0,0,0,223.466,420.038Z" transform="translate(-143.254 -414.072)" fill="#f7bfa7"/>
              </g>
            </g>
            <path id="路径_19849" data-name="路径 19849" d="M196.655,486.915c-.577-1.836-1.738-3.482-2.076-5.3-.376-2.029-.873-3.538-2.79-4.577-2.795-1.515-7.518-1.118-8.452,2.468a6.552,6.552,0,0,0-.047,2.171c.091,1.089.047,2.19.048,3.283,0,1.308.347,3.015-.318,4.21-.952,1.713-6.2,3.023-7.887,3-2.74-.032-2.557-2.3-4.44-4.243a10.262,10.262,0,0,0-3.669-2.9c-1.523-.612-3.5-.335-5.107-.335l-.032,0a1.366,1.366,0,0,0-1.943,1.035c-.293,1.926.475,3.58.841,5.437a25.817,25.817,0,0,1,.525,6.127c-.127,3.144.792,6.751,4.548,7.023,1.556.114,3.184-.085,4.75-.086a43.45,43.45,0,0,0,6.175-.3,41.213,41.213,0,0,1,5.749-.16,18.023,18.023,0,0,0,6.034-1.252,7.783,7.783,0,0,1,2.362-.559,4.781,4.781,0,0,0,2.246-.542,9.089,9.089,0,0,0,3.28-4.231,14.108,14.108,0,0,0,1.459-5.209C197.981,490.249,197.162,488.53,196.655,486.915Z" transform="translate(-103.446 -382.467)" fill="#47bf84"/>
            <path id="路径_19850" data-name="路径 19850" d="M192.592,443.088c-.232-2.445-1.67-4.479-2.228-6.821a3.463,3.463,0,0,0,.774-1.342.785.785,0,0,0-.954-.953c-1.467.244-2.817,1.83-4,2.687-1.411,1.025-2.893,1.947-4.389,2.844a41.647,41.647,0,0,1-9.293,4.5,39.438,39.438,0,0,1-10.959,1.5,29.464,29.464,0,0,1-4.786-.5c-.746-.121-1.468-.482-2.212-.6a.515.515,0,0,0-.969.016h0a.153.153,0,0,0-.059.263c-.641,2.865-.813,5.754.453,8.462a13.53,13.53,0,0,0,5.812,5.665,23.342,23.342,0,0,0,17.08,1.912,33.159,33.159,0,0,0,8.65-3.079c2.523-1.462,4.342-4.056,5.69-6.583A13.54,13.54,0,0,0,192.592,443.088Zm-3.605,6.158a14.222,14.222,0,0,1-4.488,5.735,23.238,23.238,0,0,1-7.4,2.8c-4.949,1.265-9.991,1.416-14.755-.687a13.714,13.714,0,0,1-5.709-4.471c-1.533-2.141-1.469-4.641-1.86-7.1,5.4,3.133,12.565,2.412,18.385.835a41.885,41.885,0,0,0,9.907-4.7,44.986,44.986,0,0,0,4.553-3.155c.143-.111.3-.224.454-.338a3.9,3.9,0,0,0,.267.815,20.252,20.252,0,0,1,1.277,3.237A10.429,10.429,0,0,1,188.987,449.247Z" transform="translate(-101.432 -370.049)"/>
            <path id="路径_19851" data-name="路径 19851" d="M213.85,534a18.617,18.617,0,0,0-1.3-5.542c-1.839-4.212-2.979-8.658-4.751-12.888-1.848-4.414-3.328-8.972-5.019-13.446-1.629-4.313-3.463-8.5-4.829-12.909-.649-2.1-1.229-4.213-1.8-6.331q-.426-1.577-.841-3.157-.206-.784-.414-1.565c-.018-.066-.527-1.346-.342-.9a10.685,10.685,0,0,0-1.4-3.073,2.535,2.535,0,0,0-3.759-.054c-1.22,1.036-.51,3.067-.141,4.3a26.6,26.6,0,0,0,2.05,5.1c.954,1.786,1.07,3.936,1.292,5.915a9.952,9.952,0,0,0,.544,3.093,10.92,10.92,0,0,1,.728,2.1c.829,3.307-2.013,4.594-4.719,5.183-1.743.38-3.472.814-5.22,1.182-1.058.223-2.118.43-3.176.652a16.822,16.822,0,0,1-3.194.688,55.983,55.983,0,0,0-6.09.112,54.562,54.562,0,0,1-6.106.368q-3.223.008-6.445.015a6.32,6.32,0,0,1-.947-.035l-.033,0c-.053-.852,0-1.725-.006-2.579,0-1.844-.016-3.681-.181-5.519-.171-1.918-.714-3.737-.758-5.665-.035-1.531-.118-3.4-1.934-3.882a18.371,18.371,0,0,0-5.6-.047,1.566,1.566,0,0,0-.137,3.117,8.46,8.46,0,0,0,.287,1.568,65.53,65.53,0,0,1,.588,11,63.882,63.882,0,0,1-.727,11.295c-.337,1.877-.578,3.8-.875,5.689a37.246,37.246,0,0,0-.192,5.868c-.1.326-.2.656-.313.979a55.155,55.155,0,0,0-1.791,5.908,35.082,35.082,0,0,1-1.785,6.7c-.727,1.647-1.6,3.648-.695,5.411.8,1.566,2.394,1.692,3.96,1.611,1.161-.06,2.326-.085,3.494-.094.686.2,1.373.4,2.065.587a19.391,19.391,0,0,0,4.7.81c1.572.016,3.045.422,4.6.522,1.5.1,2.952.406,4.457.407,1.769,0,3.541-.027,5.309.018,1.329.033,2.628.4,3.96.439,1.86.06,3.739,0,5.6-.06a44.412,44.412,0,0,0,9.492-1.445c3.093-.774,6.065-2.034,9.182-2.665,2.064-.418,3.65-1.743,5.5-2.622a34.218,34.218,0,0,0,5.91-2C213.743,537.361,214.056,535.7,213.85,534Z" transform="translate(-98.614 -381.618)" fill="#b9ffff"/>
          </g>
          <path id="路径_19852" data-name="路径 19852" d="M216.118,392.247c-.049.414-.4.607-.689.833-.323.254-.452.818-.616,1.174-.38.823-.771,1.632-1.119,2.47-.192.463-1.131,1.064-1.515,1.4a3.887,3.887,0,0,1-.413.309c.435-2.305.933-5.224.4-7.533a.863.863,0,0,0-.485-1.273c-.136-.048-.27-.1-.412-.135a1.022,1.022,0,0,0-1.229.7,22.1,22.1,0,0,0-.746,3.907c-.239,1.334-.551,2.66-.742,4a1.522,1.522,0,0,0-.025.809c-.006.02-.016.04-.021.059a9.873,9.873,0,0,1-1.493-2.17c-.338-.626-.661-1.259-.973-1.9-.291-.6-.411-1.333-.758-1.892a7.574,7.574,0,0,1-1.425-3.448c-.066-1.186-1.917-1.193-1.85,0a14.417,14.417,0,0,0,1.147,4.345c.751,1.937.924,4.464,2.319,6.117.913,1.082,1.619,2.267,2.982,2.753-.009,1.014-.018,2.027-.022,3.041a47.2,47.2,0,0,1-.665,9.149,20.981,20.981,0,0,1-9.345,13.587,31.593,31.593,0,0,1-15.151,4.755,36.033,36.033,0,0,1-8.966-.4,44.5,44.5,0,0,1-5.634-1.675,43.3,43.3,0,0,0,11.836-14.519A29.951,29.951,0,0,0,182.3,394.7a42.243,42.243,0,0,0-2.716-6.424c1.349-.767,2.283-2.492,3.047-3.741a42.6,42.6,0,0,0,2.72-5.729,11.293,11.293,0,0,0-1.848-10.967,8.768,8.768,0,0,0-10.554-2.164,11.724,11.724,0,0,0-4.906,4.711c-1.3-1.525-2.725-2.927-4.161-4.332l-.008-.006a25.679,25.679,0,0,0-1.952-2.012,40.944,40.944,0,0,0-5.57-4.309,53.035,53.035,0,0,0-12.209-5.809q-.881-.3-1.761-.57a17.647,17.647,0,0,0-1.451-4.074c-2.889-5.819-10.174-11.5-16.948-10.978a9.645,9.645,0,0,0-7.82,5.02c-.079.145-.151.294-.222.443a17.418,17.418,0,0,0-8.183.3,9.877,9.877,0,0,0-3.979,2.365,20.359,20.359,0,0,0-11.486.761,16.138,16.138,0,0,0-8.32,7.269,13.658,13.658,0,0,0-.782,10.2,9.48,9.48,0,0,0-4.347,2.071,6.226,6.226,0,0,0-1.987,5.408c-2.514,2.35-2.277,6.142-.962,9.348a12.566,12.566,0,0,0,3.729,5.347,10.242,10.242,0,0,0,5.5,1.973c-.573,1.2-1.1,2.422-1.551,3.665a39.55,39.55,0,0,0-2.129,10.092c0,.021,0,.04,0,.061-.153.808-.277,1.622-.361,2.444-1.86-1.528-3.893-2.559-6.511-1.329-3.242,1.524-4.713,5.985-5.053,9.237a11.5,11.5,0,0,0,4.708,10.851c1.766,1.25,4.635,1.567,6.727,1.581a9.957,9.957,0,0,0,4.774-1.623A49.33,49.33,0,0,0,99.589,439.3c5.75,4.116,12.541,6.171,19.487,6.99-1.531,1.587-3.732,2.389-5.721,3.267a53.361,53.361,0,0,1-8.877,2.915,45.885,45.885,0,0,1-18.456.856,37.909,37.909,0,0,1-16.306-7.366,34.972,34.972,0,0,1-6.324-6.408,25.543,25.543,0,0,1-2.266-3.4c2.034-.589,3.33-3.117,3.909-4.969a11.122,11.122,0,0,0,.029-6.841.726.726,0,0,0-1.387,0c-.657,1.676-.823,3.539-1.4,5.254a7.937,7.937,0,0,1-1.294,2.4c-.124.153-.256.294-.391.434a1.355,1.355,0,0,0,.018-.276c-.013-.336-.006-.671-.014-1.009a1.424,1.424,0,0,0-.54-1.085,9.41,9.41,0,0,1-.148-1.242,10.208,10.208,0,0,0-.351-3.222c-.289-.728-1.526-1.2-1.929-.251a10.68,10.68,0,0,0-.612,5.805c-.033.016-.068.031-.1.05-1.5-1.02-1.75-3.607-2.146-5.195a1.213,1.213,0,0,0-2.324,0c-.669,3.056.733,8.019,4.33,8.57a1.871,1.871,0,0,0,1.065-.107A16.381,16.381,0,0,0,60.033,439a39.574,39.574,0,0,0,6.521,7.824,38.565,38.565,0,0,0,17.719,9.161,48.644,48.644,0,0,0,20.526-.4,54.853,54.853,0,0,0,10.165-3.278c2.463-1.063,5.747-2.151,6.8-4.843-.271,4.99-.834,9.988-1.32,14.95a153.884,153.884,0,0,1-2.815,17.7c-.65,2.982-1.447,5.925-2.16,8.892-.695,2.9-.983,5.9-1.813,8.755a29.516,29.516,0,0,0-1.005,5.128.839.839,0,0,0-.09.256,2.355,2.355,0,0,0,.028.964c-.018,2.261.594,4.126,2.791,3.722a1.278,1.278,0,0,0,.94-1.123c.145.049.286.1.42.144a37.76,37.76,0,0,0,7.312,1.608,6.238,6.238,0,0,0-.369,1.309,35.282,35.282,0,0,0-.17,3.874c-.009.638-.36,1.118-.419,1.78a2.288,2.288,0,0,0,1.382,1.95,7.353,7.353,0,0,0,2.223.472,16.511,16.511,0,0,1,2.8.446,29.644,29.644,0,0,0,4.053.67c-.139,1.527-.2,3.079-.2,4.6,0,1.164.1,2.347.039,3.515a3.726,3.726,0,0,0-.433-.088c-.943-.131-1.889-.164-2.833-.318a33.7,33.7,0,0,0-5.477-.218c-2.038,0-4.08.032-6.117-.011-1.984-.041-3.931-.521-5.919-.563-2.761-.058-5.725,1.354-4.854,4.556a10.569,10.569,0,0,0,4.616,5.495,18.514,18.514,0,0,0,18.016.7,32.309,32.309,0,0,0,5.185-3.349c1.053-.867,2.108-3.061.764-3.912a18.272,18.272,0,0,0-.073-5.368c-.164-1.546-.184-3.106-.281-4.658a43.208,43.208,0,0,0,6.31.827c1.889.1,3.377.46,4.507-1.388.909-1.486.554-3.536.736-5.181.138-1.256.194-2.5.294-3.751,1.209.008,2.419.006,3.628-.013a105.335,105.335,0,0,0,11.824-.893c.733-.095,1.458-.209,2.181-.333.209.963.464,1.917.647,2.893.189,1.01.361,2.024.551,3.032.179.944.525,1.861.683,2.789a1.554,1.554,0,0,0,1.5,1.14,15.456,15.456,0,0,0,4.1-.219,21.979,21.979,0,0,0,4.219-1.583,10.85,10.85,0,0,0,.433,1.959,37.931,37.931,0,0,0,1.073,4.308c.757,1.94.486,4.375,3.186,4.6a5.761,5.761,0,0,0,2.894-.947c1.173-.628,2.242-1.317,3.472-1.88a37.127,37.127,0,0,1,9.73-2.4,19.186,19.186,0,0,1,3.794-.284c1.519.064,1.838,1.786,1.8,2.939-.088,2.435-2.326,3.59-4.407,4.07a46.335,46.335,0,0,1-9.646,1.584,18.256,18.256,0,0,1-4.7-.723c-1.234-.31-2.077-1.377-3.232-1.912a1.215,1.215,0,0,0-1.649,1.649,6.267,6.267,0,0,0,2.368,2.852c1.341.82,3.035.849,4.508,1.285,1.791.53,4.138.166,5.952-.077a51.719,51.719,0,0,0,5.629-1.154c2.711-.676,5.434-1.176,7.135-3.665,1.457-2.132,2.057-6.189-.029-8.171-2.31-2.193-4.938-1.971-7.89-1.5a42.159,42.159,0,0,0-10.453,2.592,37.391,37.391,0,0,0-3.957,2.1,4.591,4.591,0,0,1-.962.453,3.038,3.038,0,0,1-.109-.333c-.09-.331-.149-.673-.223-1.009-.282-1.289-1.186-2.547-1.337-3.843A9.366,9.366,0,0,0,179.4,515.7c1.978-.769,4.033-1.325,5.957-2.252,2.173-1.048,4.507-3,3.978-5.694a10.606,10.606,0,0,0-2.248-4.2c-.517-.675-1.012-1.361-1.5-2.047.08-.059.16-.117.237-.183a11.209,11.209,0,0,0,1.419-1.808,4.781,4.781,0,0,1,1.531-.843l.525-.268a1.025,1.025,0,0,0,1.616-.5,2.751,2.751,0,0,0,.124-.416,1.527,1.527,0,0,0-.181-2.42c-.111-.433-.239-.859-.344-1.262-.39-1.5-.806-3-1.219-4.495-.8-2.9-1.667-5.785-2.448-8.692-1.623-6.052-3.616-12-5.673-17.918-1.97-5.665-4.232-11.194-6.673-16.672-1.224-2.749-2.579-5.442-4.068-8.057-.664-1.168-1.431-2.274-2.136-3.417-.335-.546-.676-1.087-1.039-1.615-.037-.053-.076-.1-.117-.152.7.376,1.39.779,2.12,1.114a25.352,25.352,0,0,0,4.9,1.632,34.868,34.868,0,0,0,9.581.71,33.765,33.765,0,0,0,16.7-5.146,24.185,24.185,0,0,0,10.435-14.767,39.247,39.247,0,0,0,.915-9.394q-.008-2.364-.018-4.726c1.829-.5,3.117-2.034,4.4-3.451.732-.807.955-2.364,1.266-3.395.334-1.11.954-1.913,1.015-3.114C218.532,390.712,216.291,390.792,216.118,392.247ZM174.6,368.35c3.073-1.22,5.723.335,7.151,3.078,1.346,2.581.707,5.305-.414,7.8a35.03,35.03,0,0,1-2.045,3.93c-.4.657-.975,1.265-1.459,1.907-.389-.674-.786-1.343-1.185-2-1.652-2.737-3.375-5.435-5.192-8.067a1.452,1.452,0,0,0-1.092-1.559l-.213-.3A8.236,8.236,0,0,1,174.6,368.35Zm-35.969-10.63a16.055,16.055,0,0,1-6.225,10.35c-1.922,1.389-4.551,2.334-6.6.717a12.869,12.869,0,0,1-2.706-3.129,11.574,11.574,0,0,0-.579-4.135,6.615,6.615,0,0,0,6.979-3.556,6.182,6.182,0,0,0,.439-4.106,45.337,45.337,0,0,1,8.739,1.618A9.658,9.658,0,0,1,138.63,357.719Zm-16.6-.789a9.194,9.194,0,0,1-2.146-3.117,15.533,15.533,0,0,1,3.588-.25c.715,0,1.43.02,2.146.046.011.02.023.038.035.059a2.664,2.664,0,0,1-.323,3.258A2.4,2.4,0,0,1,122.029,356.931Zm1.795-14.565c3.445-.688,7.278,1.879,9.71,4.006a16.259,16.259,0,0,1,4.284,5.762,47.108,47.108,0,0,0-8.572-1.1l-.506-.018a11.688,11.688,0,0,0-1.788-2.191,18.569,18.569,0,0,0-6.881-3.974A5.62,5.62,0,0,1,123.824,342.365Zm-4.9,6.349a15.232,15.232,0,0,1,4.418,2.312,15.388,15.388,0,0,0-4.116.8A11.334,11.334,0,0,1,118.925,348.714Zm-3.97-1.034a16.76,16.76,0,0,0,.242,4.116c-.7-.56-1.415-1.073-2.115-1.531a27.5,27.5,0,0,0-4.32-2.3A12.135,12.135,0,0,1,114.954,347.681Zm-9.618,3.181a24.756,24.756,0,0,1,8.18,4.6,15.965,15.965,0,0,1,5.534,8.668,5.367,5.367,0,0,1-3.694,6.388c-3.424.912-6.51-1.953-8.291-4.51a18.29,18.29,0,0,1-2.958-9.807A10.217,10.217,0,0,1,105.336,350.861Zm-18.763,7.807c.652-3.663,3.809-6.575,7.159-7.876a15.622,15.622,0,0,1,7.567-.843,13.868,13.868,0,0,0-.612,1.529c-1.136,3.439-.576,7.344.336,10.76a19.158,19.158,0,0,0,5.411,9.116,11.521,11.521,0,0,0,6.759,3.163,45.571,45.571,0,0,1-7.812,1.321c-1.014-3.284-3.622-5.946-6.414-7.806a23.727,23.727,0,0,0-9.845-3.532,19.471,19.471,0,0,0-2.046-.173A11.432,11.432,0,0,1,86.574,358.668Zm3.415,10.7c-.256-.3-.5-.606-.734-.924a21.8,21.8,0,0,1,5.137,1.6,13.883,13.883,0,0,1,6.624,5.685c-.652-.079-1.307-.186-1.963-.332C95.524,374.617,92.3,372.05,89.989,369.372Zm5.569,15.963a10.26,10.26,0,0,1-5.147-1.124,17.75,17.75,0,0,1-8.1-7.52,13.458,13.458,0,0,1-1.163-2.9c3.179-.971,6.735,1.215,9.24,2.927,1.243.851,2.34,1.866,3.529,2.783a10.1,10.1,0,0,1,3.321,4.011C97.83,385.021,96.968,385.208,95.558,385.336Zm6.423-6a14.648,14.648,0,0,1-.849,4.291,7.384,7.384,0,0,0-.424-1.505,11.14,11.14,0,0,0-1.982-3.176A21.3,21.3,0,0,0,101.981,379.336ZM84.641,368.461l.03-.006a17.889,17.889,0,0,0,1.224,1.956,11.27,11.27,0,0,0-4.815-.264C81.758,369.066,83.444,368.718,84.641,368.461ZM81.592,384.28a9.517,9.517,0,0,1-2.5-4.042,10.733,10.733,0,0,1-.6-2.391c.011.027.023.055.035.082a19.791,19.791,0,0,0,6.617,7.733A6.633,6.633,0,0,1,81.592,384.28Zm.645,37.384c-1.539.5-3.378.033-4.877-.4-3.125-.905-4.39-4.088-4.514-7.09a10.273,10.273,0,0,1,2.473-7.294c1.638-1.808,3.81-.4,5.627,1.106,0,.2,0,.392.008.59a30.4,30.4,0,0,0,3.1,11.971c.07.152.148.3.22.451C83.61,421.2,82.947,421.431,82.237,421.664ZM133.6,530.641a12.316,12.316,0,0,1-1.572,1.138c-1.232.817-2.526,1.545-3.83,2.24-4.584,2.444-10.317,1.268-14.561-1.24a7.109,7.109,0,0,1-2.665-3.355l.095-.034a5.767,5.767,0,0,1,2.1-.159c1.62.035,3.231.379,4.844.521,3.112.273,6.338.042,9.461.042a29.284,29.284,0,0,1,3.562.338c.894.109,1.793.28,2.692.4Zm11.486-19.559c-.037,1.612-.539,3.173-.546,4.8a5.172,5.172,0,0,1-.188,1.558c-.652.237-1.714-.144-2.4-.179a39.6,39.6,0,0,1-5.895-.843c-1.59-.322-3.218-.422-4.817-.7a13.252,13.252,0,0,1-2.358-.647,8.717,8.717,0,0,0-2.177-.107,4.087,4.087,0,0,1-.491-.063,7.47,7.47,0,0,0,.082-1.837c-.015-.962-.065-1.922-.109-2.883a6.028,6.028,0,0,1,.195-1.391l.03-.021.443.057c3.971.516,8.016.57,12.015.763q3.133.152,6.269.222C145.108,510.234,145.091,510.656,145.081,511.082Zm40.685-1.894a7.9,7.9,0,0,1-2.656,1.687c-1.819.853-3.792,1.316-5.631,2.117a49.019,49.019,0,0,1-4.891,2.038,8.78,8.78,0,0,1-2.557.308c-.356-1.181-.778-2.364-1.1-3.554s-.807-2.39-1.184-3.6c2.385-.5,4.736-1.117,7.107-1.776a40.114,40.114,0,0,0,4.781-1.844c1.075-.453,2.164-.831,3.2-1.338.716,1.291,1.8,2.476,2.564,3.674C185.88,507.643,186.418,508.447,185.767,509.188Zm-18.134-71.455a74.718,74.718,0,0,1,3.994,8.3c2.338,5.575,4.491,11.185,6.441,16.906,2.021,5.934,3.953,11.9,5.571,17.957.778,2.912,1.6,5.807,2.426,8.7.425,1.489.84,2.981,1.259,4.472.131.465.251.988.395,1.513l-1.628.8c-1.187.585-1.684,1.664-2.571,2.579a.938.938,0,0,0-1.27.638c-.02.073-.036.145-.052.218-.119.065-.233.128-.333.188a14.209,14.209,0,0,1-2.2.989c-1.576.615-3.11,1.327-4.7,1.9-1.5.536-3.061.826-4.575,1.3a30.193,30.193,0,0,1-3.424.843,1.065,1.065,0,0,0-1.816.318l-.141.023a95.451,95.451,0,0,1-11.264,1.075c-2.068.083-4.137.105-6.206.088a1.057,1.057,0,0,0-1.478-.018c-4.923-.081-9.847-.359-14.762-.558a86.35,86.35,0,0,1-10.539-1.151c-1.3-.215-2.534-.551-3.8-.878-.177-.047-.378-.088-.585-.135.035-.417.077-.835.086-1.253.057-2.514,1.112-5,1.488-7.491.854-5.646,2.5-11.159,3.5-16.785a139.226,139.226,0,0,0,1.932-16.434c.161-2.783.3-5.58.35-8.367.046-2.289-.1-4.556-.209-6.832q2.077.088,4.19.018c.186,1.135.628,2.3.792,3.368a36.761,36.761,0,0,1,.468,9.024c-.177,2.056.052,4.678,2.325,5.445,2.025.683,4.6.32,6.694.351,5.9.088,12.146.332,17.829-1.517,1.331-.433,2.693-.769,4.034-1.17,1.267-.379,3.112-.815,4.121-1.714a31.2,31.2,0,0,1,2.763-1.621,1.2,1.2,0,0,0,1.462-.807c.479-1.532-.178-3.649-.446-5.207a29.047,29.047,0,0,0-1.542-5.769c-.656-1.66-1.192-3.381-1.912-5.013a25.691,25.691,0,0,0-1.405-2.655,5.4,5.4,0,0,1-1.1-2.3,1.013,1.013,0,0,0-.411-.748q2.056-1.235,4.018-2.619c.135.2.268.4.386.613C166.408,435.464,166.991,436.615,167.633,437.733Zm-27.516,14.885a8.638,8.638,0,0,0,13.38-5.892c.261-1.505.6-4.4-.258-6.156,2.213-.989,4.411-2.091,6.555-3.305a9.624,9.624,0,0,0,1.4,3.511,46.691,46.691,0,0,1,2.244,6.028,35.692,35.692,0,0,1,1.554,5.719c.2,1.184.183,2.679.429,4A21.822,21.822,0,0,0,162.794,458c-2,1.3-4.4,1.792-6.686,2.437A55.435,55.435,0,0,1,140.7,462.3c-2.228,0-4.464-.092-6.69.023a4.709,4.709,0,0,1-2.04-.152c-.963-.412-.721-2.269-.692-3.1a34.711,34.711,0,0,0-.316-6.9,15.407,15.407,0,0,0-.688-3.478,11.637,11.637,0,0,1-.665-2.108c1.979-.129,3.965-.348,5.939-.663a1.045,1.045,0,0,0,.128.22C137.308,448.3,137.771,451.006,140.117,452.618Zm-2.354-7.091a67.813,67.813,0,0,0,11.364-3.249q.783-.3,1.567-.623a4.646,4.646,0,0,1,.26,1.1,31.724,31.724,0,0,1-.042,3.236,6.236,6.236,0,0,1-3.746,5.3,6.57,6.57,0,0,1-6.685-1.111C139.175,449,138.707,447.031,137.763,445.527Zm28.057-17.006A67.253,67.253,0,0,1,148.113,438.6a63.571,63.571,0,0,1-24.411,4.325,40.735,40.735,0,0,1-21.5-6.256c-6.221-4.08-11.274-10.43-14.707-16.967a24.5,24.5,0,0,1-2.43-16.834c.96-4.387.748-8.447,2.323-12.744a12.506,12.506,0,0,1,.664-1.668,2.29,2.29,0,0,1,.64-.673,14.038,14.038,0,0,0,7.765,1.3,6.184,6.184,0,0,0,3.594-1.574c-.118,1.362,1.589,2.6,2.659,1.362a14.3,14.3,0,0,0,3.2-9.643,54.625,54.625,0,0,0,8.228-1.538,1.659,1.659,0,0,0,.154-3.124,10.716,10.716,0,0,0,2.121-.229,8.238,8.238,0,0,0,5.362-4.1,7.85,7.85,0,0,0,4,3.1c4,1.288,8.153-.955,10.991-3.681a20.768,20.768,0,0,0,5.521-9.6,13.934,13.934,0,0,0,.45-3.306l.577.2a54.19,54.19,0,0,1,11.021,5.3,44.842,44.842,0,0,1,4.978,3.721c1.255,1.063,2.439,2.358,3.772,3.379.781,1.178,1.522,2.382,2.362,3.519.521.706,1.027,1.421,1.529,2.14.022.186.049.37.088.554a1.441,1.441,0,0,0,.968.986q.714,1.058,1.413,2.128c2.414,3.708,4.755,7.5,6.787,11.433a29.722,29.722,0,0,1,3.61,11.781,27.59,27.59,0,0,1-1.735,10.747C175.81,419.039,171.011,424.3,165.821,428.521Z" transform="translate(-52.283 -338.261)"/>
          <g id="组_3925" data-name="组 3925" transform="translate(63.957 65.702)">
            <path id="路径_19853" data-name="路径 19853" d="M146.4,431.462a1.344,1.344,0,0,0-.436-.109,1.974,1.974,0,0,1,.409.1Z" transform="translate(-143.776 -431.326)"/>
            <path id="路径_19854" data-name="路径 19854" d="M147.8,433.782a1.841,1.841,0,0,0-1.276-1.757c-.029-.034-.056-.068-.09-.1a1.7,1.7,0,0,0-.948-.472,1.707,1.707,0,0,1,.243.123,1.461,1.461,0,0,0-.27-.128c-.091-.017-.185-.032-.283-.044-.228-.03-.235-.065-.126-.061a2.128,2.128,0,0,0-.3-.027,1.886,1.886,0,0,0-1.869,1.869c-.007.6-.024,1.2-.016,1.793a1.9,1.9,0,0,0,1.885,1.886,4.016,4.016,0,0,0,.428-.059c.056,0,.112.008.169.008a1.761,1.761,0,0,0,1.577-.945A3.153,3.153,0,0,0,147.8,433.782Z" transform="translate(-142.865 -431.315)"/>
          </g>
          <path id="路径_19855" data-name="路径 19855" d="M208.167,412.747a1.871,1.871,0,0,0-1.376-1.735,1.418,1.418,0,0,0-1.018-.406,1.575,1.575,0,0,0-1.541,1.542c-.042.374-.089.75-.119,1.125,0,.054-.008.108-.013.162a4.989,4.989,0,0,0-.094.83c0,.035-.007.051,0,.038,0,.078-.006.157-.006.237l.021,0a1.76,1.76,0,0,0,1.283,1.715,1.724,1.724,0,0,0,.754.035,1.881,1.881,0,0,0,.315.028,1.815,1.815,0,0,0,1.775-1.774A13.572,13.572,0,0,0,208.167,412.747Z" transform="translate(-96.878 -359.526)"/>
          <g id="组_3926" data-name="组 3926" transform="translate(79.434 135.557)">
            <path id="路径_19856" data-name="路径 19856" d="M174.157,532.471c.007-.127.011-.254.012-.381a1.852,1.852,0,0,0-1.839-1.839c-1.4.016-3.275.5-3.724,1.95a2.62,2.62,0,0,0-2.68-.141,2.375,2.375,0,0,0-1.134,2.2,4.65,4.65,0,0,0,.244,1.183c-.054-.187.046-.057.064.113q.049.446.13.888a5.51,5.51,0,0,0,.289,1.015,2.342,2.342,0,0,0-.483,1.882c.21,1.414,1.715,2.81,3.2,2.233a1.835,1.835,0,0,0,.914-.787h.006a2.924,2.924,0,0,0,1.142-.323,1.738,1.738,0,0,0,2.734-.761,5.045,5.045,0,0,1,.535-.551,1.609,1.609,0,0,0,.476-1.476,6.889,6.889,0,0,0,.981-2.148A3.043,3.043,0,0,0,174.157,532.471Z" transform="translate(-164.786 -530.252)" fill="#ff3654"/>
            <path id="路径_19857" data-name="路径 19857" d="M165.14,537.61c.008.029.02.066.037.112C165.163,537.685,165.153,537.647,165.14,537.61Z" transform="translate(-164.89 -532.415)" fill="#ff3654"/>
          </g>
          <path id="路径_19858" data-name="路径 19858" d="M217.538,537.034a2.087,2.087,0,0,0-1.658-.78,1.966,1.966,0,0,0-.977.268c-.526-2.023-1.289-4.325-3.479-4.968-2.956-.868-5.152,1.194-6.525,3.534a1.831,1.831,0,0,0,2.046,2.662,2.271,2.271,0,0,0,.312-.073,2.031,2.031,0,0,0,1.449.771.582.582,0,0,1,.265.061c0,.025,0,.047,0,.074a5.443,5.443,0,0,0,.348,1.778,3.707,3.707,0,0,0,3.3,2.3,3.8,3.8,0,0,0,1.166-.315,2.406,2.406,0,0,0,1.514.116c2.084-.583,2.567-1.739,2.576-3.6A1.76,1.76,0,0,0,217.538,537.034Z" transform="translate(-97.064 -395.018)" fill="#ffd154"/>
          <path id="路径_19859" data-name="路径 19859" d="M204.227,552.1c-.453-.018-.988-.063-1.542-.083a16.457,16.457,0,0,1-1.695-.819c-.154-.076-.318-.157-.488-.244a11.644,11.644,0,0,0-.732-.981,1.611,1.611,0,0,0-.628-.426,4.737,4.737,0,0,0-.784-.684,2.532,2.532,0,0,0-1.984-.33,12.1,12.1,0,0,0-1.219.474,27.4,27.4,0,0,0-6.146.371,1.594,1.594,0,0,0-.943,2.317c.061.113.123.227.184.341a1.215,1.215,0,0,0,.311.368,5.3,5.3,0,0,0,3.412,3.659,4.52,4.52,0,0,0,1.327.3,1.984,1.984,0,0,0,.137,2.632,4.12,4.12,0,0,0,3.879.9q.375-.15.744-.31l.236-.137q.757-.591.054-.029a3.356,3.356,0,0,0,1.44-.907,3.234,3.234,0,0,0,2.838-2.628,7.048,7.048,0,0,0,1.453.082c.047,0,.1.008.144.01l0-.02c.169-.011.342-.026.517-.049C206.992,555.6,206.3,552.185,204.227,552.1Z" transform="translate(-92.137 -400.047)" fill="#5cb854"/>
        </g>
        <path id="路径_19860" data-name="路径 19860" d="M219.9,515.711a3.3,3.3,0,0,0-1.637.388c0-.117-.006-.234-.009-.352a1.71,1.71,0,0,0-3.418,0c0,.277-.008.555,0,.831a2.623,2.623,0,0,0,.391,2.235,3.854,3.854,0,0,0,.891,1.044,2.21,2.21,0,0,0,2.788,1.1l-.056.032c.051-.017.093-.035.141-.053a1.861,1.861,0,0,0,.6.221,5.152,5.152,0,0,0,.947.105,2.33,2.33,0,0,0,2.318-2.318A3.126,3.126,0,0,0,219.9,515.711Z" transform="translate(-100.033 -389.945)" fill="#9a40a9"/>
      </g>
    </g>
  </g>
</svg>
