<svg xmlns="http://www.w3.org/2000/svg" width="150.673" height="76.189" viewBox="0 0 150.673 76.189">
  <g id="组_3911" data-name="组 3911" transform="translate(-144.998 -51.981)">
    <g id="组_3902" data-name="组 3902" transform="translate(175.116 51.981)">
      <g id="组_3901" data-name="组 3901">
        <g id="组_3895" data-name="组 3895" transform="translate(7.882 5.093)">
          <path id="路径_11646" data-name="路径 11646" d="M200.98,64.382c5.2-1.464,10.408-2.926,15.6-4.43a20.56,20.56,0,0,0-5.736-.872l-8.3,2.226a18.633,18.633,0,0,0-4.585,3.917C198.968,64.942,199.975,64.665,200.98,64.382Z" transform="translate(-197.962 -59.08)" fill="#d66b8a"/>
        </g>
        <g id="组_3896" data-name="组 3896" transform="translate(39.554 65.085)">
          <path id="路径_11647" data-name="路径 11647" d="M257.25,142.694q-7.512,2.442-15.145,4.491a23.229,23.229,0,0,1,5.758,6.613A124.512,124.512,0,0,1,257.25,142.694Z" transform="translate(-242.105 -142.694)" fill="#d66b8a"/>
        </g>
        <g id="组_3897" data-name="组 3897" transform="translate(0 3.483)">
          <path id="路径_11648" data-name="路径 11648" d="M282.2,73.6a19.147,19.147,0,0,0-1.058-4.893c-1.388.546-2.776,1.093-4.176,1.632q-11.216,4.326-22.583,8.255c-6.279,2.181-12.59,4.273-18.915,6.322,2.939-1.218,5.883-2.428,8.816-3.659q2.033-.855,4.065-1.713l1.919-.811.924-.392.213-.09q.391-.166.779-.335,3.821-1.655,7.635-3.326,7.594-3.328,15.162-6.709Q277.4,66.8,279.8,65.7q-.506-.931-1.1-1.817c-.894.366-1.793.717-2.684,1.091q-7.647,3.2-15.321,6.333t-15.367,6.235c-1.842.748-3.691,1.479-5.535,2.222q5.531-2.811,11.061-5.624c7.359-3.729,14.741-7.417,22.21-10.922l3.757-1.768a24.653,24.653,0,0,0-5.433-4.611c-6.355,2.058-12.686,4.189-19.012,6.333q-8.379,2.84-16.789,5.583a25.588,25.588,0,0,0-2.418,6.549V75.02c-1.222-1.436-2.455-2.875-3.722-4.28-7.279,2.3-14.608,4.439-22.017,6.275-1.591.394-3.188.766-4.786,1.13q8.146-3.239,16.107-6.894c2.581-1.185,5.132-2.423,7.671-3.684-.847-.834-1.716-1.642-2.62-2.408q-10.7,5.136-21.755,9.461c-4.672,1.826-9.391,3.521-14.14,5.13a42.407,42.407,0,0,0-.806,4.97q9.125-1.4,18.111-3.57c2.924-.7,5.833-1.469,8.734-2.265q-6.289,2.368-12.534,4.853c-4.83,1.92-9.68,3.843-14.44,5.952.037.7.1,1.4.2,2.091.475-.174.951-.344,1.424-.524q5.519-2.108,11.02-4.258c7.31-2.845,14.654-5.606,22.059-8.2q3.587-1.255,7.192-2.455l-6.459,2.759c-6.412,2.739-12.786,5.57-19.177,8.356-5.2,2.268-10.449,4.487-15.561,6.963a21.476,21.476,0,0,0,.78,2.5q1.99-.745,3.961-1.536,4.828-1.937,9.629-3.932l19.307-8.045c5.3-2.208,10.575-4.469,15.854-6.723-2.376,1.209-4.751,2.421-7.133,3.62-7.366,3.707-14.8,7.282-22.326,10.658q-2.794,1.254-5.607,2.466l-1.383.592-.692.293-.187.079-.3.125q-1.434.6-2.874,1.19c-2.486,1.016-4.991,1.981-7.5,2.932.078.159.147.32.23.476a20.954,20.954,0,0,0,2.533,3.744q7.414-2.229,14.824-4.472,11.569-3.53,23.093-7.206,6.253-2,12.482-4.084L225.194,95l-6.568,2.026c-4.532,1.4-9.065,2.809-13.578,4.27-3.684,1.193-7.364,2.416-11,3.754q.609.562,1.256,1.09,4.331-1.115,8.631-2.358c2.02-.582,4.034-1.185,6.048-1.792l-.768.353c-1.376.46-2.754.914-4.126,1.385a14.688,14.688,0,0,0-1.832.753,1.028,1.028,0,0,0-.524.823c-1.775.8-3.553,1.59-5.355,2.388a48.175,48.175,0,0,0,5.8,3.359c4.07-1.089,8.125-2.236,12.173-3.392q8.19-2.336,16.329-4.847-5.191,2.009-10.365,4.053-5.99,2.375-11.957,4.807c-.861.35-1.718.712-2.574,1.076q1.439.645,2.9,1.271c1.629-.622,3.249-1.269,4.875-1.9q3-1.16,6.006-2.307c2.678-1.021,5.364-2.021,8.048-3.025q-3.063,1.4-6.126,2.8c-3.729,1.7-7.452,3.427-11.184,5.13,2.1.9,4.2,1.813,6.233,2.785q7.016-2.094,14.008-4.27l9.244-2.893-.192.082-.124.052-1.073.451q-1.054.442-2.109.88-2.11.876-4.227,1.736-4.292,1.745-8.585,3.488c-1.455.59-2.924,1.149-4.369,1.759.784.415,1.548.85,2.3,1.3.207-.072.415-.137.621-.211q1.841-.659,3.68-1.331l-3.814,1.832a35.124,35.124,0,0,1,3.48,2.429l8.69-4.135,12.44-5.919a75.794,75.794,0,0,1,6.419-5.219c4.386-3.15,9.05-5.934,13.389-9.133q-10.808,3.305-21.62,6.6c-5.1,1.555-10.206,3.079-15.306,4.633l8.742-3.957q3.881-1.756,7.766-3.5,1.855-.565,3.71-1.127c7.165-2.16,14.308-4.385,21.4-6.778.2-.067.4-.139.6-.207.9-.844,1.763-1.733,2.584-2.66-.8.219-1.6.42-2.4.649L263.3,94.761q5-2.251,9.989-4.507l4.343-1.954A27.183,27.183,0,0,0,281,81.943q-13.416,4.951-26.986,9.467-16.866,5.6-33.959,10.48l3.376-1.534q3.995-1.356,7.985-2.724,6.812-2.331,13.622-4.666l13.617-4.684,6.809-2.342c2.25-.774,4.476-1.612,6.714-2.42l1.712-.617c.435-.157.263-.838-.194-.7l-3.48,1.026c-1.137.335-2.289.631-3.42.983l-6.866,2.135-.483.15c.109-.051.217-.1.326-.156,1.143-.42,2.282-.854,3.427-1.272,5.609-2.051,11.215-4.112,16.833-6.14.656-.237,1.306-.491,1.959-.737.081-.48.149-.963.2-1.451.053-.552.071-1.1.072-1.652-.365.113-.731.222-1.1.336-3.632,1.14-7.243,2.362-10.844,3.607l8.07-3.673C279.664,74.775,280.933,74.185,282.2,73.6Z" transform="translate(-186.976 -56.836)" fill="#d66b8a"/>
        </g>
        <g id="组_3898" data-name="组 3898" transform="translate(3.186 7.209)">
          <path id="路径_11649" data-name="路径 11649" d="M193.172,70.3a34.033,34.033,0,0,0-1.756,3.651,1.729,1.729,0,0,0,1.719.394c9.566-3.367,19.1-6.835,28.673-10.175-.22-.147-.429-.306-.653-.448a26.513,26.513,0,0,0-3.12-1.7c-2.747.9-5.5,1.785-8.24,2.693C204.248,66.559,198.689,68.377,193.172,70.3Z" transform="translate(-191.416 -62.029)" fill="#d66b8a"/>
        </g>
        <g id="组_3899" data-name="组 3899" transform="translate(1.766 9.73)">
          <path id="路径_11650" data-name="路径 11650" d="M199.916,75.333c6.028-2.1,12.05-4.236,18.136-6.168,1.99-.632,3.969-1.293,5.947-1.961-.71-.583-1.446-1.134-2.2-1.661-1.068.4-2.137.8-3.2,1.212-2.99,1.172-6,2.3-9.009,3.412-5.995,2.223-12.025,4.349-18.04,6.517l-1.564.563c-.2.578-.378,1.159-.55,1.739l1.4-.488Q195.378,76.916,199.916,75.333Z" transform="translate(-189.437 -65.543)" fill="#d66b8a"/>
        </g>
        <g id="组_3900" data-name="组 3900" transform="translate(51.074)">
          <path id="路径_11651" data-name="路径 11651" d="M276.665,55.679c-3.99,1.074-7.969,2.187-11.947,3.3.4-.152.8-.3,1.192-.449q5.831-2.264,11.6-4.694c1.058-.449,2.135-.874,3.17-1.375.276-.133.55-.271.826-.405-.564-.047-1.129-.078-1.7-.077q-.58,0-1.159.033c-.289.107-.58.209-.868.319q-2.9,1.095-5.822,2.137c-2.2.784-4.417,1.522-6.637,2.245a30.458,30.458,0,0,0-7.157,6.807l.486-.141c2.919-.855,5.824-1.759,8.735-2.64,5.862-1.773,11.735-3.527,17.555-5.436L287.4,54.5c.471-.155.936-.324,1.4-.491a22.794,22.794,0,0,0-2.291-.913c-.322.079-.646.15-.967.232C282.576,54.081,279.622,54.883,276.665,55.679Z" transform="translate(-258.161 -51.981)" fill="#d66b8a"/>
        </g>
      </g>
    </g>
    <g id="组_3906" data-name="组 3906" transform="translate(251.429 81.362)">
      <path id="路径_11652" data-name="路径 11652" d="M293.339,120.093c4.907.832,11-2.891,13.2-7.359s2.935-9.547,5.2-13.976a11.975,11.975,0,0,1,3.851-4.663,6.266,6.266,0,0,1,5.818-.743,6.738,6.738,0,0,1,3.6,5.375,19.876,19.876,0,0,1-.616,6.7,14.9,14.9,0,0,1,4.472-4.032,6.264,6.264,0,0,1,5.817-.215c2.9,1.607,3.322,5.663,2.574,8.9-2.015,8.717-10.015,15.386-18.819,16.979s-18.065-1.433-25.1-6.962" transform="translate(-293.339 -92.931)" fill="#ea92ab"/>
      <g id="组_3905" data-name="组 3905" transform="translate(6.478 27.014)" opacity="0.8" style="mix-blend-mode: multiply;isolation: isolate">
        <g id="组_3903" data-name="组 3903">
          <path id="路径_11653" data-name="路径 11653" d="M331.657,130.6c-.859.535-1.659,1.16-2.52,1.7a26.018,26.018,0,0,1-2.658,1.441,27.279,27.279,0,0,1-5.652,1.93,27.665,27.665,0,0,1-11.875.053,29.366,29.366,0,0,1-6.376-2.229c-.156-.075-.295.186-.143.273a24.584,24.584,0,0,0,11.679,3.037,27.675,27.675,0,0,0,11.876-2.382,25.694,25.694,0,0,0,3.028-1.611,13.48,13.48,0,0,0,2.748-2.079.084.084,0,0,0-.106-.129Z" transform="translate(-302.367 -130.584)" fill="#ea92ab"/>
        </g>
        <g id="组_3904" data-name="组 3904" transform="translate(4.627 1.11)">
          <path id="路径_11654" data-name="路径 11654" d="M329.742,132.14a31.557,31.557,0,0,1-7.922,2.471,28.611,28.611,0,0,1-8.286.123q-1.16-.153-2.3-.4c-.758-.164-1.5-.386-2.269-.517-.164-.028-.2.21-.06.27a10.406,10.406,0,0,0,2.03.616q1.012.228,2.04.377a28.324,28.324,0,0,0,4.2.295,28.693,28.693,0,0,0,8.262-1.254,22.794,22.794,0,0,0,4.377-1.822.086.086,0,0,0-.072-.157Z" transform="translate(-308.816 -132.131)" fill="#ea92ab"/>
        </g>
      </g>
    </g>
    <g id="组_3910" data-name="组 3910" transform="translate(144.998 79.718)">
      <path id="路径_11655" data-name="路径 11655" d="M179.089,126.172c-8.24,3.786-21.179,1.462-28.208-4.266a15.378,15.378,0,0,1-5.7-8.62c-.679-3.45.57-7.4,3.566-9.246s7.607-.778,8.935,2.478c-1.1-3.226-1.915-6.725-1.033-10.016s3.962-6.207,7.348-5.829c3.209.358,5.508,3.463,6.2,6.616s.189,6.426.078,9.653a39.566,39.566,0,0,0,1.867,13.435,10.989,10.989,0,0,0,2.347,4.438,4.575,4.575,0,0,0,4.6,1.357" transform="translate(-144.998 -90.64)" fill="#fccaca"/>
      <g id="组_3909" data-name="组 3909" transform="translate(8.256 30.342)" style="mix-blend-mode: multiply;isolation: isolate">
        <g id="组_3907" data-name="组 3907">
          <path id="路径_11656" data-name="路径 11656" d="M156.534,133.1a9.953,9.953,0,0,0,1.6,1.217q.827.55,1.688,1.042a27.669,27.669,0,0,0,3.663,1.754,28.808,28.808,0,0,0,7.83,1.851c.738.067,1.479.1,2.219.114q.569.008,1.139-.008a3.87,3.87,0,0,0,1.136-.125.165.165,0,0,0-.027-.316,4.232,4.232,0,0,0-.958-.019q-.493.017-.987.017c-.677,0-1.354-.027-2.028-.077a29.223,29.223,0,0,1-11.366-3.272q-.973-.512-1.906-1.1c-.637-.4-1.24-.874-1.9-1.241-.1-.057-.174.09-.1.163Z" transform="translate(-156.505 -132.929)" fill="#fccaca"/>
        </g>
        <g id="组_3908" data-name="组 3908" transform="translate(5.914 1.423)">
          <path id="路径_11657" data-name="路径 11657" d="M164.78,135.069a9.742,9.742,0,0,0,2.091,1.186,16.732,16.732,0,0,0,2.234.829,17.86,17.86,0,0,0,4.774.7,12.175,12.175,0,0,0,2.712-.2c.22-.049.131-.392-.082-.377-.78.058-1.545.17-2.33.18a17.156,17.156,0,0,1-2.358-.133,18.042,18.042,0,0,1-4.539-1.19c-.828-.337-1.6-.781-2.408-1.149a.089.089,0,0,0-.094.148Z" transform="translate(-164.748 -134.913)" fill="#fccaca"/>
        </g>
      </g>
    </g>
  </g>
</svg>
