<?xml version="1.0" encoding="utf-8"?>
<!-- Generator: Adobe Illustrator 24.2.1, SVG Export Plug-In . SVG Version: 6.00 Build 0)  -->
<svg version="1.1" id="圖層_1" xmlns="http://www.w3.org/2000/svg" xmlns:xlink="http://www.w3.org/1999/xlink" x="0px" y="0px"
	 viewBox="0 0 143.4 63.2" style="enable-background:new 0 0 143.4 63.2;" xml:space="preserve">
<style type="text/css">
	.st0{enable-background:new    ;}
	.st1{fill:#585858;}
	.st2{fill:none;stroke:#585858;}
	.st3{fill:none;}
	.st4{fill:none;stroke:#585858;stroke-width:2;}
</style>
<g id="组_3980" transform="translate(-693 -3618.781)">
	<g class="st0">
		<path class="st1" d="M722.2,3662.4c0.1,0,0.2,0,0.1-0.2l0-0.1c-0.1-0.4-0.3-1.3-0.6-2.9c-0.9,0.3-1.8,0.6-2.7,0.8
			c-0.5,0.1-0.8,0-0.9-0.5c-0.1-0.3,0.1-0.6,0.5-0.7c0.1,0,0.1-0.1,0.3-0.1c0.9-0.3,1.7-0.6,2.6-0.8c-0.3-1.1-0.6-2.5-0.9-4
			c-1.5,0.2-2.6,0.2-3.2,0.1c-0.2-0.1-0.3-0.3-0.3-0.5c0-0.4,0.2-0.7,0.6-0.8c0.3-0.1,1-0.1,1.9-0.1c0.3,0,0.5,0,0.8-0.1
			c-0.2-0.7-0.3-1.3-0.5-2c-0.1-0.5,0-0.8,0.5-0.9c0.4-0.1,0.7,0.1,0.8,0.5c0.2,0.8,0.4,1.6,0.5,2.3c0.8-0.1,1.7-0.2,2.6-0.4
			c0.5-0.1,0.8,0.1,0.9,0.6c0,0.4-0.2,0.7-0.8,0.8l-0.9,0.1c-0.5,0.1-1,0.2-1.5,0.2c0.4,1.5,0.7,2.7,0.9,3.8c0.5-0.2,1-0.3,1.5-0.5
			c0.1,0,0.1-0.1,0.2-0.1c0.5-0.1,0.8,0,0.9,0.5c0.1,0.3-0.1,0.6-0.4,0.7c-0.1,0-0.1,0.1-0.2,0.1c-0.6,0.2-1.2,0.4-1.7,0.5
			c0.3,1.5,0.5,2.5,0.6,2.9c0.1,0.7,0.1,1.3,0,1.6c-0.2,0.3-0.5,0.5-1.1,0.6c-0.7,0.1-1.1-0.1-1.2-0.5c-0.1-0.3,0-0.6,0.2-0.8
			C721.7,3662.4,721.9,3662.4,722.2,3662.4z M737.8,3642.6c0.2,0.5,0.4,1.2,0.5,2.1c0.2,0.9,0.3,1.5,0.3,1.7c0,0.3-0.2,0.6-0.7,0.8
			c-1.5,0.4-3.5,0.7-6.2,1.1c-0.9,0.1-1.3-0.2-1.2-0.9c0-1.9-0.2-3.3-0.5-4.2c-0.1-0.5,0.1-0.8,0.6-0.9c0.3-0.1,0.6,0.1,0.7,0.4
			c1.8-0.3,3.6-0.5,5.4-0.7C737.2,3641.9,737.6,3642.1,737.8,3642.6z M731.6,3643.9c0.1,0.7,0.2,1.7,0.2,2.8c0,0.1,0,0.2,0.1,0.1
			c2.8-0.4,4.5-0.6,5.2-0.9c0,0,0.1-0.1,0-0.1c-0.1-0.9-0.3-1.7-0.5-2.4c0-0.1-0.1-0.2-0.3-0.2
			C734.9,3643.5,733.3,3643.7,731.6,3643.9z M736.7,3660.7c0.1,1.5,0,2.7-0.3,3.6c-0.1,0.3-0.3,0.4-0.6,0.5
			c-0.5,0.1-0.8-0.1-0.9-0.5c0-0.1,0-0.2,0-0.3c0.5-1.8,0.4-4.8-0.4-9c-0.2-0.7,0-1.1,0.5-1.3c2.5-0.4,4.3-0.6,5.3-0.7
			c0.4,0,0.7,0.1,0.9,0.6c0.4,1.6,1,4.6,1.7,9.1l0.2,1.4c0.2,1-0.2,1.7-1.1,1.8c-0.7,0.1-1.1-0.1-1.2-0.6c-0.1-0.4,0-0.6,0.4-0.7
			c0.2,0,0.3,0,0.5,0c0.1,0,0.2-0.1,0.1-0.3c-0.3-1.5-0.5-2.8-0.7-4.1L736.7,3660.7z M740.5,3655.9c-0.1-0.6-0.2-1.1-0.3-1.6
			c-0.9,0.1-2.3,0.3-4.1,0.5c0.1,0.6,0.2,1.1,0.3,1.6L740.5,3655.9z M736.5,3657.7c0.1,0.6,0.1,1.2,0.2,1.7l4.3-0.6
			c-0.1-0.6-0.2-1.2-0.3-1.7L736.5,3657.7z"/>
		<path class="st1" d="M752.7,3641.6c0.9,0,2.2-0.2,4-0.4l-0.4-1.8c-0.1-0.4,0.1-0.7,0.6-0.8c0.4-0.1,0.7,0.1,0.8,0.5l0.4,1.9
			c1.5-0.2,2.6-0.4,3.5-0.5c0.4-0.1,0.7,0.1,0.8,0.6c0.1,0.4-0.1,0.6-0.6,0.7c-0.3,0.1-0.7,0.1-1,0.2c-0.8,0.1-1.6,0.2-2.4,0.3
			l0.6,2.6c1.1-0.1,1.9-0.3,2.6-0.4c0.4-0.1,0.7,0.1,0.8,0.6c0.1,0.4-0.1,0.6-0.6,0.7c-0.3,0-0.6,0.1-0.8,0.2
			c-2.1,0.3-4.2,0.5-6.2,0.7c-0.2,0-0.3,0-0.4,0c-0.3-0.1-0.5-0.3-0.5-0.7c0-0.4,0.2-0.6,0.6-0.6c0.7,0,1.8-0.1,3.2-0.3l-0.6-2.6
			c-1.3,0.2-2.6,0.3-3.9,0.4c-0.2,0-0.3,0-0.5,0c-0.3-0.1-0.5-0.3-0.5-0.7C752.1,3641.9,752.3,3641.7,752.7,3641.6z M755.8,3653.8
			c0.4,0,0.9-0.1,1.5-0.2c1.7-0.2,3.7-0.6,6.1-1.1c0.5,0,0.8,0.1,0.8,0.5c0.1,0.4-0.1,0.6-0.6,0.8c-1.1,0.3-2.2,0.5-3.2,0.7
			c0.2,0.6,0.3,1.3,0.5,2c1.4,0.9,2.7,1.3,4,1.1c0.4,0,0.7,0.2,0.7,0.6c0,0.4-0.2,0.6-0.5,0.7l-0.2,0c-1.3,0.2-2.5,0-3.6-0.6
			c0.2,1,0.4,1.7,0.4,2.1c0.2,0.7,0.1,1.3-0.3,1.6c-0.3,0.3-0.7,0.4-1.2,0.5c-0.7,0.1-1.1-0.1-1.3-0.6c-0.1-0.4,0.1-0.7,0.5-0.7
			c0.1,0,0.3,0,0.6,0c0.3,0,0.4-0.2,0.4-0.6c-0.1-0.5-0.3-1.2-0.5-2.4c-0.3,0.4-0.7,0.8-1.2,1.2c-1.1,0.9-2,1.3-2.6,1.4
			c-0.4,0-0.6-0.1-0.7-0.4c-0.1-0.4,0-0.7,0.5-0.8c0.8-0.3,1.5-0.7,2.2-1.3c0.7-0.6,1.2-1.2,1.5-1.8c-0.1-0.6-0.3-1.2-0.5-1.8
			c-0.6,0.1-1.2,0.2-1.7,0.2c-0.8,0.1-1.4,0.2-2,0.1c-0.3-0.1-0.5-0.2-0.6-0.6C754.8,3654,755.1,3653.7,755.8,3653.8z M755.6,3650
			l6.7-0.9c0.4,0,0.7,0.1,0.7,0.6c0,0.4-0.2,0.6-0.6,0.7l-6.7,0.9c-0.4,0-0.6-0.2-0.7-0.5C755,3650.3,755.2,3650,755.6,3650z
			 M770.8,3642.8c0,0.8-0.1,1.6-0.3,2.5c2.9-0.2,4.8-0.2,5.6,0c0.5,0.2,0.7,0.5,0.7,1.1c0.1,1.3-0.1,2.3-0.5,3
			c-0.2,0.4-0.5,0.5-0.9,0.4c-0.3-0.1-0.4-0.4-0.4-0.8c0.1-0.3,0.2-0.6,0.3-1c0.1-0.3,0.1-0.8,0.2-1.3c0-0.1-0.1-0.2-0.2-0.2
			c-0.9-0.1-2.7-0.1-5.2,0.1c-0.1,0.5-0.3,1-0.5,1.5c-0.4,1.1-0.8,1.7-1.2,1.7c-0.4,0-0.7-0.1-0.8-0.5c0-0.2,0.1-0.4,0.2-0.6
			c0.9-1.4,1.4-3.4,1.6-6c0.1-0.3,0.3-0.5,0.5-0.5C770.5,3642.1,770.7,3642.3,770.8,3642.8z M773.2,3657c-0.1,0.2-0.2,0.5-0.3,0.7
			c-0.6,1.1-1.1,1.7-1.6,1.7c-0.4,0-0.7-0.1-0.8-0.5c0-0.2,0.1-0.4,0.2-0.6c1.2-1.4,2-3.4,2.3-6.1c0.1-0.3,0.3-0.5,0.5-0.5
			c0.5,0,0.8,0.2,0.8,0.7c0,1-0.2,2.1-0.7,3.3c1.6,1.2,3.2,1.7,4.7,1.5c0.4,0,0.7,0.2,0.8,0.6c0,0.4-0.2,0.7-0.6,0.8l-0.2,0
			C776.6,3658.7,774.9,3658.2,773.2,3657z"/>
		<path class="st1" d="M803.5,3637.6c-1.2,0.2-2.5,0.4-4,0.6l1.2,6c1.8-0.2,3.3-0.5,4.4-0.7c0.5-0.1,0.7,0.1,0.8,0.5
			c0.1,0.5-0.1,0.7-0.6,0.8c-0.8,0.1-1.6,0.3-2.4,0.4c0,0.1,0.1,0.2,0.1,0.3c0,0.1,0,0.4,0,0.7c0,0.5-0.2,1.2-0.5,2
			c-0.5,1.2-1.2,2.6-2.3,4.1c0.6,0,1.4-0.1,2.5-0.3c1.3-0.2,2.6-0.5,3.7-0.9c-0.5-0.5-0.9-1-1.3-1.5c-0.1-0.2-0.2-0.3-0.2-0.5
			c0.1-0.4,0.3-0.6,0.6-0.6c0.2,0,0.4,0.1,0.5,0.2c0.1,0.1,0.2,0.3,0.3,0.4c0.8,1,1.8,1.9,3.1,2.7c0.3,0.1,0.4,0.3,0.5,0.5
			c0,0.4-0.2,0.7-0.6,0.8c-0.2,0-0.3,0-0.4-0.1c-0.5-0.3-1-0.6-1.4-1c-1.5,0.5-3,0.9-4.7,1.2c-1.9,0.3-3.2,0.3-3.8,0.2
			c-0.4-0.1-0.7-0.3-0.7-0.6c0-0.2,0.1-0.5,0.3-0.8c0.4-0.6,0.8-1.1,1.1-1.5c0.7-1.3,1.3-2.3,1.6-3.1c0.2-0.7,0.3-1.3,0.3-1.6
			c0-0.2,0-0.3,0-0.4c-0.7,0.1-1.3,0.2-1.9,0.2c-3,0.4-4.9,0.5-5.7,0.5c-0.4-0.1-0.6-0.3-0.6-0.7c0-0.3,0.2-0.5,0.5-0.6
			c0.1,0,0.2,0,0.4,0c0.9,0,2.6-0.2,5-0.5l-1.2-6c-0.1,0-0.3,0-0.4,0c-3.1,0.3-5.1,0.4-5.9,0.3c-0.4-0.1-0.6-0.3-0.6-0.7
			c0-0.3,0.2-0.5,0.5-0.6c0.1,0,0.3,0,0.4,0c1,0,2.8-0.1,5.6-0.3l0.2,0l-0.4-2.1c-0.1-0.4,0.1-0.7,0.5-0.8c0.4-0.1,0.7,0.1,0.8,0.5
			l0.4,2.3c1.6-0.2,2.9-0.4,4-0.6c0.5-0.1,0.7,0.1,0.8,0.5C804.2,3637.3,804,3637.5,803.5,3637.6z"/>
	</g>
	<g class="st0">
		<path class="st2" d="M722.2,3662.4c0.1,0,0.2,0,0.1-0.2l0-0.1c-0.1-0.4-0.3-1.3-0.6-2.9c-0.9,0.3-1.8,0.6-2.7,0.8
			c-0.5,0.1-0.8,0-0.9-0.5c-0.1-0.3,0.1-0.6,0.5-0.7c0.1,0,0.1-0.1,0.3-0.1c0.9-0.3,1.7-0.6,2.6-0.8c-0.3-1.1-0.6-2.5-0.9-4
			c-1.5,0.2-2.6,0.2-3.2,0.1c-0.2-0.1-0.3-0.3-0.3-0.5c0-0.4,0.2-0.7,0.6-0.8c0.3-0.1,1-0.1,1.9-0.1c0.3,0,0.5,0,0.8-0.1
			c-0.2-0.7-0.3-1.3-0.5-2c-0.1-0.5,0-0.8,0.5-0.9c0.4-0.1,0.7,0.1,0.8,0.5c0.2,0.8,0.4,1.6,0.5,2.3c0.8-0.1,1.7-0.2,2.6-0.4
			c0.5-0.1,0.8,0.1,0.9,0.6c0,0.4-0.2,0.7-0.8,0.8l-0.9,0.1c-0.5,0.1-1,0.2-1.5,0.2c0.4,1.5,0.7,2.7,0.9,3.8c0.5-0.2,1-0.3,1.5-0.5
			c0.1,0,0.1-0.1,0.2-0.1c0.5-0.1,0.8,0,0.9,0.5c0.1,0.3-0.1,0.6-0.4,0.7c-0.1,0-0.1,0.1-0.2,0.1c-0.6,0.2-1.2,0.4-1.7,0.5
			c0.3,1.5,0.5,2.5,0.6,2.9c0.1,0.7,0.1,1.3,0,1.6c-0.2,0.3-0.5,0.5-1.1,0.6c-0.7,0.1-1.1-0.1-1.2-0.5c-0.1-0.3,0-0.6,0.2-0.8
			C721.7,3662.4,721.9,3662.4,722.2,3662.4z M737.8,3642.6c0.2,0.5,0.4,1.2,0.5,2.1c0.2,0.9,0.3,1.5,0.3,1.7c0,0.3-0.2,0.6-0.7,0.8
			c-1.5,0.4-3.5,0.7-6.2,1.1c-0.9,0.1-1.3-0.2-1.2-0.9c0-1.9-0.2-3.3-0.5-4.2c-0.1-0.5,0.1-0.8,0.6-0.9c0.3-0.1,0.6,0.1,0.7,0.4
			c1.8-0.3,3.6-0.5,5.4-0.7C737.2,3641.9,737.6,3642.1,737.8,3642.6z M731.6,3643.9c0.1,0.7,0.2,1.7,0.2,2.8c0,0.1,0,0.2,0.1,0.1
			c2.8-0.4,4.5-0.6,5.2-0.9c0,0,0.1-0.1,0-0.1c-0.1-0.9-0.3-1.7-0.5-2.4c0-0.1-0.1-0.2-0.3-0.2
			C734.9,3643.5,733.3,3643.7,731.6,3643.9z M736.7,3660.7c0.1,1.5,0,2.7-0.3,3.6c-0.1,0.3-0.3,0.4-0.6,0.5
			c-0.5,0.1-0.8-0.1-0.9-0.5c0-0.1,0-0.2,0-0.3c0.5-1.8,0.4-4.8-0.4-9c-0.2-0.7,0-1.1,0.5-1.3c2.5-0.4,4.3-0.6,5.3-0.7
			c0.4,0,0.7,0.1,0.9,0.6c0.4,1.6,1,4.6,1.7,9.1l0.2,1.4c0.2,1-0.2,1.7-1.1,1.8c-0.7,0.1-1.1-0.1-1.2-0.6c-0.1-0.4,0-0.6,0.4-0.7
			c0.2,0,0.3,0,0.5,0c0.1,0,0.2-0.1,0.1-0.3c-0.3-1.5-0.5-2.8-0.7-4.1L736.7,3660.7z M740.5,3655.9c-0.1-0.6-0.2-1.1-0.3-1.6
			c-0.9,0.1-2.3,0.3-4.1,0.5c0.1,0.6,0.2,1.1,0.3,1.6L740.5,3655.9z M736.5,3657.7c0.1,0.6,0.1,1.2,0.2,1.7l4.3-0.6
			c-0.1-0.6-0.2-1.2-0.3-1.7L736.5,3657.7z"/>
		<path class="st2" d="M752.7,3641.6c0.9,0,2.2-0.2,4-0.4l-0.4-1.8c-0.1-0.4,0.1-0.7,0.6-0.8c0.4-0.1,0.7,0.1,0.8,0.5l0.4,1.9
			c1.5-0.2,2.6-0.4,3.5-0.5c0.4-0.1,0.7,0.1,0.8,0.6c0.1,0.4-0.1,0.6-0.6,0.7c-0.3,0.1-0.7,0.1-1,0.2c-0.8,0.1-1.6,0.2-2.4,0.3
			l0.6,2.6c1.1-0.1,1.9-0.3,2.6-0.4c0.4-0.1,0.7,0.1,0.8,0.6c0.1,0.4-0.1,0.6-0.6,0.7c-0.3,0-0.6,0.1-0.8,0.2
			c-2.1,0.3-4.2,0.5-6.2,0.7c-0.2,0-0.3,0-0.4,0c-0.3-0.1-0.5-0.3-0.5-0.7c0-0.4,0.2-0.6,0.6-0.6c0.7,0,1.8-0.1,3.2-0.3l-0.6-2.6
			c-1.3,0.2-2.6,0.3-3.9,0.4c-0.2,0-0.3,0-0.5,0c-0.3-0.1-0.5-0.3-0.5-0.7C752.1,3641.9,752.3,3641.7,752.7,3641.6z M755.8,3653.8
			c0.4,0,0.9-0.1,1.5-0.2c1.7-0.2,3.7-0.6,6.1-1.1c0.5,0,0.8,0.1,0.8,0.5c0.1,0.4-0.1,0.6-0.6,0.8c-1.1,0.3-2.2,0.5-3.2,0.7
			c0.2,0.6,0.3,1.3,0.5,2c1.4,0.9,2.7,1.3,4,1.1c0.4,0,0.7,0.2,0.7,0.6c0,0.4-0.2,0.6-0.5,0.7l-0.2,0c-1.3,0.2-2.5,0-3.6-0.6
			c0.2,1,0.4,1.7,0.4,2.1c0.2,0.7,0.1,1.3-0.3,1.6c-0.3,0.3-0.7,0.4-1.2,0.5c-0.7,0.1-1.1-0.1-1.3-0.6c-0.1-0.4,0.1-0.7,0.5-0.7
			c0.1,0,0.3,0,0.6,0c0.3,0,0.4-0.2,0.4-0.6c-0.1-0.5-0.3-1.2-0.5-2.4c-0.3,0.4-0.7,0.8-1.2,1.2c-1.1,0.9-2,1.3-2.6,1.4
			c-0.4,0-0.6-0.1-0.7-0.4c-0.1-0.4,0-0.7,0.5-0.8c0.8-0.3,1.5-0.7,2.2-1.3c0.7-0.6,1.2-1.2,1.5-1.8c-0.1-0.6-0.3-1.2-0.5-1.8
			c-0.6,0.1-1.2,0.2-1.7,0.2c-0.8,0.1-1.4,0.2-2,0.1c-0.3-0.1-0.5-0.2-0.6-0.6C754.8,3654,755.1,3653.7,755.8,3653.8z M755.6,3650
			l6.7-0.9c0.4,0,0.7,0.1,0.7,0.6c0,0.4-0.2,0.6-0.6,0.7l-6.7,0.9c-0.4,0-0.6-0.2-0.7-0.5C755,3650.3,755.2,3650,755.6,3650z
			 M770.8,3642.8c0,0.8-0.1,1.6-0.3,2.5c2.9-0.2,4.8-0.2,5.6,0c0.5,0.2,0.7,0.5,0.7,1.1c0.1,1.3-0.1,2.3-0.5,3
			c-0.2,0.4-0.5,0.5-0.9,0.4c-0.3-0.1-0.4-0.4-0.4-0.8c0.1-0.3,0.2-0.6,0.3-1c0.1-0.3,0.1-0.8,0.2-1.3c0-0.1-0.1-0.2-0.2-0.2
			c-0.9-0.1-2.7-0.1-5.2,0.1c-0.1,0.5-0.3,1-0.5,1.5c-0.4,1.1-0.8,1.7-1.2,1.7c-0.4,0-0.7-0.1-0.8-0.5c0-0.2,0.1-0.4,0.2-0.6
			c0.9-1.4,1.4-3.4,1.6-6c0.1-0.3,0.3-0.5,0.5-0.5C770.5,3642.1,770.7,3642.3,770.8,3642.8z M773.2,3657c-0.1,0.2-0.2,0.5-0.3,0.7
			c-0.6,1.1-1.1,1.7-1.6,1.7c-0.4,0-0.7-0.1-0.8-0.5c0-0.2,0.1-0.4,0.2-0.6c1.2-1.4,2-3.4,2.3-6.1c0.1-0.3,0.3-0.5,0.5-0.5
			c0.5,0,0.8,0.2,0.8,0.7c0,1-0.2,2.1-0.7,3.3c1.6,1.2,3.2,1.7,4.7,1.5c0.4,0,0.7,0.2,0.8,0.6c0,0.4-0.2,0.7-0.6,0.8l-0.2,0
			C776.6,3658.7,774.9,3658.2,773.2,3657z"/>
		<path class="st2" d="M803.5,3637.6c-1.2,0.2-2.5,0.4-4,0.6l1.2,6c1.8-0.2,3.3-0.5,4.4-0.7c0.5-0.1,0.7,0.1,0.8,0.5
			c0.1,0.5-0.1,0.7-0.6,0.8c-0.8,0.1-1.6,0.3-2.4,0.4c0,0.1,0.1,0.2,0.1,0.3c0,0.1,0,0.4,0,0.7c0,0.5-0.2,1.2-0.5,2
			c-0.5,1.2-1.2,2.6-2.3,4.1c0.6,0,1.4-0.1,2.5-0.3c1.3-0.2,2.6-0.5,3.7-0.9c-0.5-0.5-0.9-1-1.3-1.5c-0.1-0.2-0.2-0.3-0.2-0.5
			c0.1-0.4,0.3-0.6,0.6-0.6c0.2,0,0.4,0.1,0.5,0.2c0.1,0.1,0.2,0.3,0.3,0.4c0.8,1,1.8,1.9,3.1,2.7c0.3,0.1,0.4,0.3,0.5,0.5
			c0,0.4-0.2,0.7-0.6,0.8c-0.2,0-0.3,0-0.4-0.1c-0.5-0.3-1-0.6-1.4-1c-1.5,0.5-3,0.9-4.7,1.2c-1.9,0.3-3.2,0.3-3.8,0.2
			c-0.4-0.1-0.7-0.3-0.7-0.6c0-0.2,0.1-0.5,0.3-0.8c0.4-0.6,0.8-1.1,1.1-1.5c0.7-1.3,1.3-2.3,1.6-3.1c0.2-0.7,0.3-1.3,0.3-1.6
			c0-0.2,0-0.3,0-0.4c-0.7,0.1-1.3,0.2-1.9,0.2c-3,0.4-4.9,0.5-5.7,0.5c-0.4-0.1-0.6-0.3-0.6-0.7c0-0.3,0.2-0.5,0.5-0.6
			c0.1,0,0.2,0,0.4,0c0.9,0,2.6-0.2,5-0.5l-1.2-6c-0.1,0-0.3,0-0.4,0c-3.1,0.3-5.1,0.4-5.9,0.3c-0.4-0.1-0.6-0.3-0.6-0.7
			c0-0.3,0.2-0.5,0.5-0.6c0.1,0,0.3,0,0.4,0c1,0,2.8-0.1,5.6-0.3l0.2,0l-0.4-2.1c-0.1-0.4,0.1-0.7,0.5-0.8c0.4-0.1,0.7,0.1,0.8,0.5
			l0.4,2.3c1.6-0.2,2.9-0.4,4-0.6c0.5-0.1,0.7,0.1,0.8,0.5C804.2,3637.3,804,3637.5,803.5,3637.6z"/>
	</g>
	<g id="矩形_1426" transform="translate(693 3640.458) rotate(-9)">
		<path class="st3" d="M21,0l96.6,0c11.6,0,21,9.4,21,21l0,0c0,11.6-9.4,21-21,21L21,42C9.4,42,0,32.6,0,21l0,0C0,9.4,9.4,0,21,0z"
			/>
		<path class="st4" d="M21,1l96.6,0c11,0,20,9,20,20l0,0c0,11-9,20-20,20L21,41C10,41,1,32,1,21l0,0C1,10,10,1,21,1z"/>
	</g>
</g>
</svg>
