<svg xmlns="http://www.w3.org/2000/svg" width="112.378" height="112.135" viewBox="0 0 112.378 112.135">
    <defs>
        <style>
            .cls-1{fill:none;stroke:#195ca0;stroke-linecap:round;stroke-linejoin:round;stroke-miterlimit:10}.cls-2{fill:#195ca0}
        </style>
    </defs>
    <g id="累積放款金額-01" transform="translate(.5 .517)">
        <path id="路径_340" d="M68.585 20.509V78.8a7.17 7.17 0 0 1-7.185 7.192s-2.032-.313-2.032-2.032c0-1.875 2.032-2.032 2.032-2.032a4.942 4.942 0 0 0 3.282-4.689V15.352a4.869 4.869 0 0 0-4.845-4.845H58.9a2.168 2.168 0 0 0-1.88 1.093 3.4 3.4 0 0 1-3.126 2.188H36.078a3.4 3.4 0 0 1-3.126-2.188 1.828 1.828 0 0 0-1.719-1.25H30.3a4.869 4.869 0 0 0-4.849 4.85v63.92a2.046 2.046 0 0 1-1.875 2.032 1.938 1.938 0 0 1-1.876-2.036V13.789A7.17 7.17 0 0 1 28.889 6.6h32.82a7.176 7.176 0 0 1 6.876 5.314v.313c-.312-.157 0 .624 0 8.282z" class="cls-1" transform="translate(10.651 2.124)"/>
        <path id="路径_341" d="M66.639 107.107V103.2l1.561-7.345V78.038a2.633 2.633 0 0 0-2.813-2.813 2.738 2.738 0 0 0-2.813 2.969v-1.875s0-2.813-2.657-2.813c-2.5 0-2.5 2.813-2.5 2.813a2.813 2.813 0 1 0-5.626 0V62.41s0-2.813-2.657-2.813a2.6 2.6 0 0 0-2.657 2.657v19.379s0-4.532-3.438-4.532c-3.126 0-3.126 3.907-3.126 3.907v13.127a3.181 3.181 0 0 0 .938 2.344l5.157 5.939a2.808 2.808 0 0 1 .625 1.407v3.126c0 7.033-5.783 4.845-5.783 4.845A56.132 56.132 0 0 1 1 57.721C1 25.058 27.881-1.042 60.388 1.146c27.819 1.875 50.324 25.006 51.886 53.293a57.121 57.121 0 0 1-16.253 43.447" class="cls-1" transform="translate(-1 -1.018)"/>
        <path id="路径_342" d="M9.213 65.524A47.643 47.643 0 0 1 6.4 49.114 48.244 48.244 0 0 1 20.153 15.2" class="cls-1" transform="translate(2.039 6.964)"/>
        <path id="路径_343" d="M75.3 36.9A49.674 49.674 0 0 1 72.642 53 47.36 47.36 0 0 1 51.7 78.628" class="cls-1" transform="translate(27.536 19.178)"/>
        <g id="组_343" transform="translate(42.978 19.82)">
            <path id="路径_344" d="M37.868 36.4h-.313a2 2 0 0 1-1.719-1.875.781.781 0 1 0-1.563 0 3.7 3.7 0 0 0 2.657 3.595v.78a.781.781 0 1 0 1.563 0v-.781a3.623 3.623 0 0 0-.625-7.189 1.875 1.875 0 0 1 0-3.751 2.017 2.017 0 0 1 1.875 1.875.781.781 0 1 0 1.563 0 3.679 3.679 0 0 0-2.969-3.595v-.781a.781.781 0 0 0-1.563 0v.781a3.659 3.659 0 0 0 .938 7.189 1.806 1.806 0 0 1 1.875 1.875c.313.942-.625 1.877-1.719 1.877z" class="cls-2" transform="translate(-25.365 -7.959)"/>
            <path id="路径_345" d="M28.5 33.4A12.5 12.5 0 1 0 41 20.9a12.54 12.54 0 0 0-12.5 12.5zM41 22.619A10.784 10.784 0 1 1 30.219 33.4 10.805 10.805 0 0 1 41 22.619z" class="cls-2" transform="translate(-28.5 -9.648)"/>
            <path id="路径_346" d="M37.563 22.608v-8.127a.738.738 0 0 0-.781-.781c-.469 0-.781.156-.781.625v8.127a.738.738 0 0 0 .781.781c.468 0 .781-.156.781-.625z" class="cls-2" transform="translate(-24.279 -13.7)"/>
            <path id="路径_347" d="M41.763 21.089v-3.908a.781.781 0 1 0-1.563 0v3.907a.738.738 0 0 0 .781.781.837.837 0 0 0 .782-.78z" class="cls-2" transform="translate(-21.915 -12.18)"/>
            <path id="路径_348" d="M33.463 21.089v-3.908a.781.781 0 1 0-1.563 0v3.907a.781.781 0 1 0 1.563 0z" class="cls-2" transform="translate(-26.586 -12.18)"/>
        </g>
    </g>
</svg>
