<svg id="風險報告書-03" xmlns="http://www.w3.org/2000/svg" xmlns:xlink="http://www.w3.org/1999/xlink" width="237.333" height="45.119" viewBox="0 0 237.333 45.119">
  <defs>
    <linearGradient id="linear-gradient" x1="-0.083" y1="0.49" x2="5.534" y2="0.587" gradientUnits="objectBoundingBox">
      <stop offset="0" stop-color="#fff"/>
      <stop offset="0.5" stop-color="#319acf"/>
      <stop offset="1" stop-color="#16559b"/>
    </linearGradient>
  </defs>
  <path id="路径_1122" data-name="路径 1122" d="M39.319,2.09c-.134,18.268-.134,37.221,2.418,37.221.484,0,.779-3.143.873-7.159a16.843,16.843,0,0,0,2.566,3.439c-.43,5.991-1.263,8.556-3.922,8.556-6.286,0-6.286-17.166-6.38-37.906H9.929V17.994c0,7.925-.819,19.047-6.139,26.26A16.347,16.347,0,0,0,.11,41.782C5.187,35.012,5.617,25.3,5.617,17.994V2.09Zm-8.8,28.718a37.13,37.13,0,0,1,5.225,10.585l-3.721,1.3a23.8,23.8,0,0,0-1.155-3.533c-7.589.578-15.38,1.155-20.941,1.545l-.336-4.016c2.9-.148,6.568-.39,10.585-.631V30.11H12.2V16.6h7.979V12.621H11.715V8.994H32.844v3.627H24.086v3.962h8.22v13.54h-8.22v5.709l5.131-.336a38.715,38.715,0,0,0-2.176-3.573ZM20.178,26.6V20.129H15.732V26.6ZM24.1,20.116V26.59h4.54V20.116Z" transform="translate(-0.11 0.717)" fill="url(#linear-gradient)"/>
  <path id="路径_1123" data-name="路径 1123" d="M51,3.815c-1.263,4.016-2.754,8.8-4.11,12.626A16.359,16.359,0,0,1,50.464,26.6c0,2.848-.578,4.93-1.84,5.95a6.524,6.524,0,0,1-2.472.967,21.529,21.529,0,0,1-3,.054A9.557,9.557,0,0,0,42.19,29.7a20.2,20.2,0,0,0,2.324.054,2.332,2.332,0,0,0,1.263-.43c.631-.484.873-1.692.873-3.143A14.669,14.669,0,0,0,43.171,16.9c1.061-3.2,2.176-7.253,3-10.437H41.424V44.729H37.65V2.364h9.967l.578-.148ZM59.907,31.19A33.968,33.968,0,0,1,58.7,34.48,25.1,25.1,0,0,1,63.722,38.3l-2.324,3a28.648,28.648,0,0,0-4.406-3.774,24.511,24.511,0,0,1-7.065,7.441A23.6,23.6,0,0,0,46.972,42a20.223,20.223,0,0,0,9-11.605Zm-2.66-19.248a55.931,55.931,0,0,1-4.983,3.2,17.579,17.579,0,0,0-2.955-3.049c5.709-3,10.88-7.643,13.634-12.089l4.352,1.451c-.336.537-.672,1.061-1.021,1.545A45.341,45.341,0,0,0,80.391,10.88a17.254,17.254,0,0,0-1.934,4.2A65.119,65.119,0,0,1,71.5,11.4v3.331H57.248Zm-5.279,5.8H63.144V29.537H51.969Zm3.4,8.65h4.245V20.887H55.354v5.507Zm15.81-15.178a54.6,54.6,0,0,1-7.2-5.319,48.081,48.081,0,0,1-5.749,5.319Zm2.163,19.678a30.073,30.073,0,0,1-1.155,4.057,60.772,60.772,0,0,1,7.925,6.1l-2.66,3.089a62.643,62.643,0,0,0-6.864-5.749,18.76,18.76,0,0,1-5.655,6.434,20.946,20.946,0,0,0-2.955-2.9c3.868-2.418,6.34-6.528,7.307-11.552ZM65.75,17.744H77.167V29.537H65.75Zm3.385,8.65h4.5V20.887h-4.5v5.507Z" transform="translate(12.774)" fill="url(#linear-gradient)"/>
  <path id="路径_1124" data-name="路径 1124" d="M85.438,31.472h8.221v3.815H85.438v9.188H81.274V35.287h-8.65V31.472h8.65V26.824H73.631V23.01h4.057a24,24,0,0,0-2.082-5.373l3-.913H72.61V12.909h8.65V8.745H74.007V4.984H81.26V.43h4.164V4.97h7.012V8.745H85.424v4.164h8.167v3.815H88.272l3.143.819c-.913,1.786-1.934,3.815-2.848,5.467h4.11v3.815H85.424v4.648ZM79,16.723a22.709,22.709,0,0,1,2.27,5.507l-2.324.779h5.709a50.256,50.256,0,0,0,2.848-6.286H79Zm36.455,2.9a46.35,46.35,0,0,1-5.507,15.42,24.719,24.719,0,0,0,7.2,5.709,15.352,15.352,0,0,0-3,3.573,25.2,25.2,0,0,1-6.676-5.655,26.806,26.806,0,0,1-6.34,6.044,12.113,12.113,0,0,0-1.84-2.082v1.934H95.19V2.458h19.1v9.134c0,2.082-.43,3.237-2.082,3.815-1.6.672-4.057.672-7.683.672a14.124,14.124,0,0,0-1.357-3.868c2.754.094,5.319.094,5.991.054.779-.054.967-.188.967-.725v-5.1H99.3V18.805h12.626l.779-.188ZM99.313,40.9a26.84,26.84,0,0,0,5.615-5.749,47.659,47.659,0,0,1-5.615-12.479Zm3.667-18.469a39.333,39.333,0,0,0,4.258,9,34.982,34.982,0,0,0,3.385-9H102.98Z" transform="translate(24.773 0.148)" fill="url(#linear-gradient)"/>
  <path id="路径_1125" data-name="路径 1125" d="M151.4,17.718v4.2H109.2v-4.2h19.826V11.042H117.81a40.873,40.873,0,0,1-4.3,5.991c-.967-.631-3-1.84-4.11-2.418,3.479-3.291,6.528-8.7,8.274-13.969l4.5,1.061c-.631,1.746-1.357,3.533-2.122,5.225h9V.35h4.742V6.932h14.319v4.11H133.794v6.676ZM114.949,26.14h31.23V44.9h-4.688V42.433h-22V45h-4.54V26.14Zm4.54,4.151v7.979h22V30.29Z" transform="translate(37.332 0.12)" fill="url(#linear-gradient)"/>
  <path id="路径_1126" data-name="路径 1126" d="M187.749,24.492v3.237H144.9V24.492h18.953V22.168H148.231v-2.9h15.622v-2.23H149.4V14.189h14.453V11.812h-18.9V8.575h18.9V6.264H149.977V3.5h13.875V.22h4.54V3.511h13.58V8.588h5.709v3.237h-5.709v5.225H168.406v2.23h15.957v2.9H168.406v2.324h19.342ZM151,29.7h31.23V44.788h-4.54v-1.4H155.4v1.451H151Zm4.392,2.9v2.418h22.284V32.605Zm22.3,7.791V37.83H155.4V40.4ZM168.406,8.575h9.134V6.264h-9.134Zm0,5.615h9.134V11.812h-9.134Z" transform="translate(49.585 0.076)" fill="url(#linear-gradient)"/>
</svg>
