<svg width="325" height="325" viewBox="0 0 325 325" fill="none" xmlns="http://www.w3.org/2000/svg">
<mask id="path-1-inside-1_200_16" fill="white">
<path d="M325 162.5C325 252.246 252.246 325 162.5 325C72.7537 325 0 252.246 0 162.5C0 72.7537 72.7537 0 162.5 0C252.246 0 325 72.7537 325 162.5ZM48.75 162.5C48.75 225.322 99.6776 276.25 162.5 276.25C225.322 276.25 276.25 225.322 276.25 162.5C276.25 99.6776 225.322 48.75 162.5 48.75C99.6776 48.75 48.75 99.6776 48.75 162.5Z"/>
</mask>
<path d="M325 162.5C325 252.246 252.246 325 162.5 325C72.7537 325 0 252.246 0 162.5C0 72.7537 72.7537 0 162.5 0C252.246 0 325 72.7537 325 162.5ZM48.75 162.5C48.75 225.322 99.6776 276.25 162.5 276.25C225.322 276.25 276.25 225.322 276.25 162.5C276.25 99.6776 225.322 48.75 162.5 48.75C99.6776 48.75 48.75 99.6776 48.75 162.5Z" fill="#6B6B6B" fill-opacity="0.702" stroke="white" stroke-width="10" mask="url(#path-1-inside-1_200_16)"/>
<mask id="path-2-inside-2_200_16" fill="white">
<path d="M162.5 0C204.868 -5.05238e-07 245.561 16.5475 275.906 46.1158C306.251 75.684 323.847 115.935 324.945 158.289C326.043 200.643 310.556 241.751 281.784 272.852C253.012 303.953 213.231 322.586 170.92 324.782C128.608 326.977 87.1123 312.56 55.2763 284.604C23.4404 256.648 3.78198 217.363 0.490967 175.122C-2.80005 132.882 10.5366 91.0265 37.6585 58.4767C64.7804 25.9269 103.542 5.25706 145.683 0.872489L150.728 49.3607C121.23 52.4299 94.0963 66.8988 75.1109 89.6837C56.1256 112.469 46.79 141.767 49.0937 171.336C51.3974 200.904 65.1583 228.403 87.4435 247.973C109.729 267.542 138.776 277.634 168.394 276.097C198.012 274.561 225.858 261.517 245.999 239.746C266.139 217.976 276.98 189.2 276.212 159.552C275.443 129.904 263.126 101.729 241.884 81.031C220.643 60.3333 192.158 48.75 162.5 48.70V0Z"/>
</mask>
<path d="M162.5 0C204.868 -5.05238e-07 245.561 16.5475 275.906 46.1158C306.251 75.684 323.847 115.935 324.945 158.289C326.043 200.643 310.556 241.751 281.784 272.852C253.012 303.953 213.231 322.586 170.92 324.782C128.608 326.977 87.1123 312.56 55.2763 284.604C23.4404 256.648 3.78198 217.363 0.490967 175.122C-2.80005 132.882 10.5366 91.0265 37.6585 58.4767C64.7804 25.9269 103.542 5.25706 145.683 0.872489L150.728 49.3607C121.23 52.4299 94.0963 66.8988 75.1109 89.6837C56.1256 112.469 46.79 141.767 49.0937 171.336C51.3974 200.904 65.1583 228.403 87.4435 247.973C109.729 267.542 138.776 277.634 168.394 276.097C198.012 274.561 225.858 261.517 245.999 239.746C266.139 217.976 276.98 189.2 276.212 159.552C275.443 129.904 263.126 101.729 241.884 81.031C220.643 60.3333 192.158 48.75 162.5 48.75V0Z" fill="#F2B162" stroke="white" stroke-width="10" mask="url(#path-2-inside-2_200_16)"/>
</svg>
