<svg width="212" height="276" viewBox="0 0 212 276" fill="none" xmlns="http://www.w3.org/2000/svg">
<g opacity="0.15" clip-path="url(#clip0_4084_1002)">
<path d="M196.894 7.45969C196.898 7.88566 196.564 8.22491 196.139 8.22866C195.713 8.23241 195.374 7.89907 195.37 7.4731C195.366 7.04713 195.699 6.70788 196.125 6.70413C196.551 6.67796 196.89 7.03372 196.894 7.45969Z" fill="url(#paint0_radial_4084_1002)"/>
<path d="M164.242 4.38504C164.415 4.38351 164.554 4.24155 164.553 4.06795C164.551 3.89435 164.41 3.75486 164.236 3.75639C164.063 3.75792 163.923 3.89988 163.925 4.07348C163.926 4.24708 164.068 4.38657 164.242 4.38504Z" fill="url(#paint1_radial_4084_1002)"/>
<path d="M130.944 1.85246C131.266 1.84963 131.525 1.58636 131.522 1.26443C131.519 0.942494 131.256 0.683812 130.934 0.686645C130.612 0.689477 130.354 0.95275 130.357 1.27468C130.36 1.59661 130.623 1.8553 130.944 1.85246Z" fill="url(#paint2_radial_4084_1002)"/>
<path d="M33.7766 20.5994C33.7827 21.2945 33.2272 21.8375 32.5549 21.8434C31.8827 21.8493 31.3176 21.2937 31.3116 20.6211C31.3055 19.9261 31.861 19.3831 32.5332 19.3772C33.2055 19.3713 33.7706 19.9269 33.7766 20.5994Z" fill="url(#paint3_radial_4084_1002)"/>
<path d="M33.2767 77.7787C33.2829 78.4737 32.7278 79.0616 32.0107 79.0679C31.316 79.074 30.7285 78.5186 30.7222 77.8012C30.7161 77.1062 31.2711 76.5184 31.9882 76.5121C32.7053 76.5058 33.2704 77.0613 33.2767 77.7787Z" fill="url(#paint4_radial_4084_1002)"/>
<path d="M22.1255 68.7962C22.133 69.6482 21.4445 70.3493 20.5929 70.3568C19.7414 70.3643 19.0406 69.6754 19.0331 68.8234C19.0256 67.9715 19.7142 67.2704 20.5657 67.2629C21.4398 67.2776 22.118 67.9443 22.1255 68.7962Z" fill="url(#paint5_radial_4084_1002)"/>
<path d="M184.987 12.7002C184.99 13.0141 184.745 13.2853 184.409 13.2883C184.096 13.291 183.824 13.0468 183.822 12.7105C183.819 12.3966 184.063 12.1254 184.399 12.1224C184.735 12.1419 184.984 12.3863 184.987 12.7002Z" fill="url(#paint6_radial_4084_1002)"/>
<path d="M167.355 3.70698C167.358 4.13296 167.025 4.47221 166.6 4.47596C166.174 4.4797 165.835 4.14637 165.831 3.7204C165.827 3.29442 166.16 2.95517 166.586 2.95142C167.012 2.94768 167.351 3.28101 167.355 3.70698Z" fill="url(#paint7_radial_4084_1002)"/>
<path d="M158.301 98.8298C158.759 98.8258 159.127 98.4512 159.123 97.993C159.119 97.5349 158.744 97.1668 158.286 97.1708C157.828 97.1748 157.46 97.5495 157.464 98.0076C157.468 98.4658 157.843 98.8339 158.301 98.8298Z" fill="url(#paint8_radial_4084_1002)"/>
<path d="M134.643 63.6128C135.275 63.6072 135.782 63.0908 135.776 62.4593C135.771 61.8279 135.254 61.3204 134.623 61.326C133.992 61.3316 133.485 61.848 133.491 62.4795C133.496 63.1109 134.012 63.6184 134.643 63.6128Z" fill="url(#paint9_radial_4084_1002)"/>
<path d="M125.497 96.8547C125.634 96.8535 125.743 96.7419 125.742 96.6055C125.741 96.4691 125.629 96.3595 125.493 96.3607C125.357 96.3619 125.247 96.4735 125.248 96.6099C125.249 96.7463 125.361 96.8559 125.497 96.8547Z" fill="url(#paint10_radial_4084_1002)"/>
<path d="M98.1639 50.3027C99.0054 50.2953 99.6816 49.6068 99.6742 48.7648C99.6668 47.9228 98.9786 47.2463 98.1371 47.2537C97.2955 47.2611 96.6193 47.9496 96.6267 48.7916C96.6341 49.6336 97.3223 50.3101 98.1639 50.3027Z" fill="url(#paint11_radial_4084_1002)"/>
<path d="M65.5562 110.095C66.67 110.085 67.565 109.173 67.5552 108.059C67.5454 106.945 66.6345 106.049 65.5207 106.059C64.4068 106.069 63.5119 106.98 63.5217 108.095C63.5315 109.209 64.4424 110.104 65.5562 110.095Z" fill="url(#paint12_radial_4084_1002)"/>
<path d="M91.3247 163.589C91.3322 164.441 90.6437 165.142 89.7922 165.15C88.9406 165.157 88.2399 164.468 88.2324 163.616C88.2249 162.764 88.9134 162.063 89.7649 162.056C90.6164 162.048 91.317 162.715 91.3247 163.589Z" fill="url(#paint13_radial_4084_1002)"/>
<path d="M104.428 118.005C105.22 117.998 105.857 117.35 105.85 116.557C105.843 115.765 105.195 115.128 104.403 115.135C103.611 115.142 102.974 115.79 102.981 116.582C102.988 117.375 103.636 118.012 104.428 118.005Z" fill="url(#paint14_radial_4084_1002)"/>
<path d="M32.5493 20.6108L130.939 1.26967L98.1451 48.7776L32.5493 20.6108Z" stroke="url(#paint15_radial_4084_1002)" stroke-miterlimit="10" stroke-linecap="round" stroke-linejoin="round"/>
<path d="M20.6004 68.8094L9.47661 93.3241L32.0189 77.7895L20.6004 68.8094Z" stroke="url(#paint16_radial_4084_1002)" stroke-miterlimit="10" stroke-linecap="round" stroke-linejoin="round"/>
<path d="M65.543 108.077L89.7864 163.603L104.41 116.569L65.543 108.077Z" stroke="url(#paint17_radial_4084_1002)" stroke-miterlimit="10" stroke-linecap="round" stroke-linejoin="round"/>
<path d="M166.59 3.71338L196.137 7.46674L184.418 12.7044L166.59 3.71338Z" stroke="url(#paint18_radial_4084_1002)" stroke-miterlimit="10" stroke-linecap="round" stroke-linejoin="round"/>
<path d="M104.405 116.569L1.52441 162.9L65.5382 108.077L104.405 116.569Z" stroke="url(#paint19_radial_4084_1002)" stroke-miterlimit="10" stroke-linecap="round" stroke-linejoin="round"/>
<path d="M134.641 62.4701L125.507 96.6085L158.305 98.0014L134.641 62.4701Z" stroke="url(#paint20_radial_4084_1002)" stroke-miterlimit="10" stroke-linecap="round" stroke-linejoin="round"/>
<path d="M129.609 178.836L104.409 116.569L37.0709 208.663L129.609 178.836Z" stroke="url(#paint21_radial_4084_1002)" stroke-miterlimit="10" stroke-linecap="round" stroke-linejoin="round"/>
<path d="M209.992 132.658L89.7878 163.603L104.411 116.569L209.992 132.658Z" stroke="url(#paint22_radial_4084_1002)" stroke-miterlimit="10" stroke-linecap="round" stroke-linejoin="round"/>
<path d="M37.0722 208.664L89.7875 163.603L78.5079 274.801L37.0722 208.664Z" stroke="url(#paint23_radial_4084_1002)" stroke-miterlimit="10" stroke-linecap="round" stroke-linejoin="round"/>
<path d="M166.592 3.71369L130.939 1.26967L32.5493 20.6108L166.592 3.71369Z" stroke="url(#paint24_radial_4084_1002)" stroke-miterlimit="10" stroke-linecap="round" stroke-linejoin="round"/>
<path d="M32.5547 20.611L89.7937 163.604" stroke="url(#paint25_radial_4084_1002)" stroke-width="2" stroke-miterlimit="10" stroke-linecap="round" stroke-linejoin="round"/>
</g>
<defs>
<radialGradient id="paint0_radial_4084_1002" cx="0" cy="0" r="1" gradientUnits="userSpaceOnUse" gradientTransform="translate(196.443 7.52773) rotate(52.6267) scale(1.81949 5.25907)">
<stop stop-color="#0083E2"/>
<stop offset="1" stop-color="#134C72"/>
</radialGradient>
<radialGradient id="paint1_radial_4084_1002" cx="0" cy="0" r="1" gradientUnits="userSpaceOnUse" gradientTransform="translate(164.367 4.09619) rotate(52.6109) scale(0.749941 2.16798)">
<stop stop-color="#0083E2"/>
<stop offset="1" stop-color="#134C72"/>
</radialGradient>
<radialGradient id="paint2_radial_4084_1002" cx="0" cy="0" r="1" gradientUnits="userSpaceOnUse" gradientTransform="translate(131.177 1.31681) rotate(52.6091) scale(1.39078 4.02065)">
<stop stop-color="#0083E2"/>
<stop offset="1" stop-color="#134C72"/>
</radialGradient>
<radialGradient id="paint3_radial_4084_1002" cx="0" cy="0" r="1" gradientUnits="userSpaceOnUse" gradientTransform="translate(33.0476 20.7102) rotate(52.6093) scale(2.94204 8.50519)">
<stop stop-color="#0083E2"/>
<stop offset="1" stop-color="#134C72"/>
</radialGradient>
<radialGradient id="paint4_radial_4084_1002" cx="0" cy="0" r="1" gradientUnits="userSpaceOnUse" gradientTransform="translate(32.5213 77.8936) rotate(52.6091) scale(3.049 8.81443)">
<stop stop-color="#0083E2"/>
<stop offset="1" stop-color="#134C72"/>
</radialGradient>
<radialGradient id="paint5_radial_4084_1002" cx="0" cy="0" r="1" gradientUnits="userSpaceOnUse" gradientTransform="translate(21.211 68.9352) rotate(52.6094) scale(3.69091 10.6701)">
<stop stop-color="#0083E2"/>
<stop offset="1" stop-color="#134C72"/>
</radialGradient>
<radialGradient id="paint6_radial_4084_1002" cx="0" cy="0" r="1" gradientUnits="userSpaceOnUse" gradientTransform="translate(184.642 12.7526) rotate(52.6095) scale(1.39078 4.02063)">
<stop stop-color="#0083E2"/>
<stop offset="1" stop-color="#134C72"/>
</radialGradient>
<radialGradient id="paint7_radial_4084_1002" cx="0" cy="0" r="1" gradientUnits="userSpaceOnUse" gradientTransform="translate(166.904 3.77548) rotate(52.6089) scale(1.81872 5.2578)">
<stop stop-color="#0083E2"/>
<stop offset="1" stop-color="#134C72"/>
</radialGradient>
<radialGradient id="paint8_radial_4084_1002" cx="0" cy="0" r="1" gradientUnits="userSpaceOnUse" gradientTransform="translate(158.632 98.0676) rotate(52.6091) scale(1.97918 5.72167)">
<stop stop-color="#0083E2"/>
<stop offset="1" stop-color="#134C72"/>
</radialGradient>
<radialGradient id="paint9_radial_4084_1002" cx="0" cy="0" r="1" gradientUnits="userSpaceOnUse" gradientTransform="translate(135.1 62.5621) rotate(52.6093) scale(2.72807 7.88664)">
<stop stop-color="#0083E2"/>
<stop offset="1" stop-color="#134C72"/>
</radialGradient>
<radialGradient id="paint10_radial_4084_1002" cx="0" cy="0" r="1" gradientUnits="userSpaceOnUse" gradientTransform="translate(125.596 96.6277) rotate(52.6085) scale(0.589234 1.70344)">
<stop stop-color="#0083E2"/>
<stop offset="1" stop-color="#134C72"/>
</radialGradient>
<radialGradient id="paint11_radial_4084_1002" cx="0" cy="0" r="1" gradientUnits="userSpaceOnUse" gradientTransform="translate(98.773 48.9018) rotate(52.6093) scale(3.63742 10.5155)">
<stop stop-color="#0083E2"/>
<stop offset="1" stop-color="#134C72"/>
</radialGradient>
<radialGradient id="paint12_radial_4084_1002" cx="0" cy="0" r="1" gradientUnits="userSpaceOnUse" gradientTransform="translate(66.3624 108.24) rotate(52.6092) scale(4.81423 13.9176)">
<stop stop-color="#0083E2"/>
<stop offset="1" stop-color="#134C72"/>
</radialGradient>
<radialGradient id="paint13_radial_4084_1002" cx="0" cy="0" r="1" gradientUnits="userSpaceOnUse" gradientTransform="translate(90.4102 163.728) rotate(52.6095) scale(3.69092 10.6702)">
<stop stop-color="#0083E2"/>
<stop offset="1" stop-color="#134C72"/>
</radialGradient>
<radialGradient id="paint14_radial_4084_1002" cx="0" cy="0" r="1" gradientUnits="userSpaceOnUse" gradientTransform="translate(105.001 116.686) rotate(52.6094) scale(3.42348 9.89699)">
<stop stop-color="#0083E2"/>
<stop offset="1" stop-color="#134C72"/>
</radialGradient>
<radialGradient id="paint15_radial_4084_1002" cx="0" cy="0" r="1" gradientUnits="userSpaceOnUse" gradientTransform="translate(101.983 27.1327) rotate(32.0373) scale(83.7529 228.697)">
<stop stop-color="#0083E2"/>
<stop offset="1" stop-color="#134C72"/>
</radialGradient>
<radialGradient id="paint16_radial_4084_1002" cx="0" cy="0" r="1" gradientUnits="userSpaceOnUse" gradientTransform="translate(25.3409 82.0095) rotate(54.6043) scale(28.4014 80.2445)">
<stop stop-color="#0083E2"/>
<stop offset="1" stop-color="#134C72"/>
</radialGradient>
<radialGradient id="paint17_radial_4084_1002" cx="0" cy="0" r="1" gradientUnits="userSpaceOnUse" gradientTransform="translate(93.1128 138.063) rotate(61.907) scale(60.0032 148.31)">
<stop stop-color="#0083E2"/>
<stop offset="1" stop-color="#134C72"/>
</radialGradient>
<radialGradient id="paint18_radial_4084_1002" cx="0" cy="0" r="1" gradientUnits="userSpaceOnUse" gradientTransform="translate(187.407 8.49129) rotate(21.9272) scale(22.8733 48.5807)">
<stop stop-color="#0083E2"/>
<stop offset="1" stop-color="#134C72"/>
</radialGradient>
<radialGradient id="paint19_radial_4084_1002" cx="0" cy="0" r="1" gradientUnits="userSpaceOnUse" gradientTransform="translate(74.0055 137.429) rotate(34.4747) scale(90.3033 255.426)">
<stop stop-color="#0083E2"/>
<stop offset="1" stop-color="#134C72"/>
</radialGradient>
<radialGradient id="paint20_radial_4084_1002" cx="0" cy="0" r="1" gradientUnits="userSpaceOnUse" gradientTransform="translate(148.454 81.731) rotate(54.9376) scale(41.4047 116.474)">
<stop stop-color="#0083E2"/>
<stop offset="1" stop-color="#134C72"/>
</radialGradient>
<radialGradient id="paint21_radial_4084_1002" cx="0" cy="0" r="1" gradientUnits="userSpaceOnUse" gradientTransform="translate(102.02 166.214) rotate(52.2071) scale(109.73 318.487)">
<stop stop-color="#0083E2"/>
<stop offset="1" stop-color="#134C72"/>
</radialGradient>
<radialGradient id="paint22_radial_4084_1002" cx="0" cy="0" r="1" gradientUnits="userSpaceOnUse" gradientTransform="translate(174.397 141.391) rotate(26.9042) scale(97.2171 239.235)">
<stop stop-color="#0083E2"/>
<stop offset="1" stop-color="#134C72"/>
</radialGradient>
<radialGradient id="paint23_radial_4084_1002" cx="0" cy="0" r="1" gradientUnits="userSpaceOnUse" gradientTransform="translate(74.5929 223.988) rotate(69.7505) scale(112.619 215.639)">
<stop stop-color="#0083E2"/>
<stop offset="1" stop-color="#134C72"/>
</radialGradient>
<radialGradient id="paint24_radial_4084_1002" cx="0" cy="0" r="1" gradientUnits="userSpaceOnUse" gradientTransform="translate(126.926 11.3245) rotate(9.88651) scale(97.7318 104.405)">
<stop stop-color="#0083E2"/>
<stop offset="1" stop-color="#134C72"/>
</radialGradient>
<radialGradient id="paint25_radial_4084_1002" cx="0" cy="0" r="1" gradientUnits="userSpaceOnUse" gradientTransform="translate(72.6415 98.0799) rotate(73.1699) scale(142.661 231.746)">
<stop stop-color="#0083E2"/>
<stop offset="1" stop-color="#134C72"/>
</radialGradient>
<clipPath id="clip0_4084_1002">
<rect width="208.944" height="273.754" fill="white" transform="translate(0 1.83899) rotate(-0.504279)"/>
</clipPath>
</defs>
</svg>
