<svg width="325" height="325" viewBox="0 0 325 325" fill="none" xmlns="http://www.w3.org/2000/svg">
<mask id="path-1-inside-1_200_14" fill="white">
<path d="M325 162.5C325 252.246 252.246 325 162.5 325C72.7537 325 0 252.246 0 162.5C0 72.7537 72.7537 0 162.5 0C252.246 0 325 72.7537 325 162.5ZM48.75 162.5C48.75 225.322 99.6776 276.25 162.5 276.25C225.322 276.25 276.25 225.322 276.25 162.5C276.25 99.6776 225.322 48.75 162.5 48.75C99.6776 48.75 48.75 99.6776 48.75 162.5Z"/>
</mask>
<path d="M325 162.5C325 252.246 252.246 325 162.5 325C72.7537 325 0 252.246 0 162.5C0 72.7537 72.7537 0 162.5 0C252.246 0 325 72.7537 325 162.5ZM48.75 162.5C48.75 225.322 99.6776 276.25 162.5 276.25C225.322 276.25 276.25 225.322 276.25 162.5C276.25 99.6776 225.322 48.75 162.5 48.75C99.6776 48.75 48.75 99.6776 48.75 162.5Z" fill="#6B6B6B" fill-opacity="0.702" stroke="white" stroke-width="10" mask="url(#path-1-inside-1_200_14)"/>
<mask id="path-2-inside-2_200_14" fill="white">
<path d="M162.5 0C205.111 -5.08136e-07 246.018 16.7374 276.408 46.6067C306.798 76.4761 324.24 117.087 324.976 159.692C325.712 202.297 309.684 243.487 280.344 274.388C251.004 305.29 210.7 323.431 168.114 324.903C125.529 326.375 84.0682 311.061 52.6643 282.26C21.2605 253.458 2.42609 213.474 0.218262 170.92C-1.98956 128.365 12.6058 86.6467 40.8605 54.7499C69.1152 22.8531 108.768 3.33071 151.278 0.387967L154.644 49.0216C124.888 51.0815 97.1306 64.7472 77.3523 87.0749C57.5741 109.403 47.3573 138.606 48.9028 168.394C50.4483 198.182 63.6323 226.171 85.615 246.332C107.598 266.493 136.62 277.213 166.43 276.182C196.24 275.152 224.453 262.453 244.991 240.822C265.529 219.191 276.748 190.358 276.233 160.535C275.718 130.711 263.509 102.283 242.236 81.3747C220.963 60.4662 192.328 48.75 162.5 48.75V0Z"/>
</mask>
<path d="M162.5 0C205.111 -5.08136e-07 246.018 16.7374 276.408 46.6067C306.798 76.4761 324.24 117.087 324.976 159.692C325.712 202.297 309.684 243.487 280.344 274.388C251.004 305.29 210.7 323.431 168.114 324.903C125.529 326.375 84.0682 311.061 52.6643 282.26C21.2605 253.458 2.42609 213.474 0.218262 170.92C-1.98956 128.365 12.6058 86.6467 40.8605 54.7499C69.1152 22.8531 108.768 3.33071 151.278 0.387967L154.644 49.0216C124.888 51.0815 97.1306 64.7472 77.3523 87.0749C57.5741 109.403 47.3573 138.606 48.9028 168.394C50.4483 198.182 63.6323 226.171 85.615 246.332C107.598 266.493 136.62 277.213 166.43 276.182C196.24 275.152 224.453 262.453 244.991 240.822C265.529 219.191 276.748 190.358 276.233 160.535C275.718 130.711 263.509 102.283 242.236 81.3747C220.963 60.4662 192.328 48.75 162.5 48.75V0Z" fill="#F2B162" stroke="white" stroke-width="10" mask="url(#path-2-inside-2_200_14)"/>
</svg>
