<svg width="297" height="280" viewBox="0 0 297 280" fill="none" xmlns="http://www.w3.org/2000/svg">
<g opacity="0.5" clip-path="url(#clip0_4084_1063)">
<path d="M285.27 146.374C284.96 146.573 284.559 146.486 284.361 146.177C284.162 145.867 284.25 145.467 284.559 145.268C284.868 145.069 285.269 145.156 285.468 145.466C285.683 145.764 285.579 146.176 285.27 146.374Z" fill="#6DB8DE"/>
<path d="M272.495 121.115C272.576 121.24 272.743 121.277 272.869 121.196C272.995 121.115 273.032 120.948 272.951 120.822C272.87 120.696 272.703 120.66 272.577 120.74C272.451 120.821 272.414 120.989 272.495 121.115Z" fill="#6DB8DE"/>
<path d="M259.027 95.6323C259.177 95.8659 259.488 95.9337 259.722 95.7835C259.956 95.6334 260.023 95.3222 259.873 95.0885C259.723 94.8548 259.412 94.7871 259.178 94.9373C258.944 95.0874 258.877 95.3986 259.027 95.6323Z" fill="#6DB8DE"/>
<path d="M200.637 33.2947C200.132 33.6188 199.48 33.4629 199.167 32.9747C198.853 32.4865 198.999 31.8183 199.487 31.5046C199.992 31.1804 200.644 31.3363 200.958 31.8245C201.271 32.3127 201.125 32.981 200.637 33.2947Z" fill="#6DB8DE"/>
<path d="M158.654 59.2318C158.149 59.5559 157.465 59.4209 157.13 58.9002C156.806 58.3957 156.942 57.7111 157.463 57.3765C157.967 57.0524 158.652 57.1874 158.986 57.7081C159.321 58.2289 159.175 58.8971 158.654 59.2318Z" fill="#6DB8DE"/>
<path d="M160.084 46.9573C159.466 47.3546 158.637 47.1743 158.24 46.5559C157.843 45.9375 158.023 45.1088 158.642 44.7115C159.261 44.3141 160.09 44.4945 160.487 45.1129C160.878 45.758 160.703 46.5599 160.084 46.9573Z" fill="#6DB8DE"/>
<path d="M275.964 140.089C275.736 140.235 275.426 140.182 275.269 139.937C275.123 139.71 275.176 139.399 275.42 139.242C275.648 139.096 275.959 139.15 276.115 139.394C276.256 139.648 276.192 139.942 275.964 140.089Z" fill="#6DB8DE"/>
<path d="M274.423 123.075C274.113 123.274 273.712 123.187 273.514 122.877C273.315 122.568 273.403 122.167 273.712 121.969C274.021 121.77 274.422 121.857 274.621 122.166C274.82 122.476 274.732 122.877 274.423 123.075Z" fill="#6DB8DE"/>
<path d="M200.787 160.22C201.001 160.552 201.444 160.649 201.776 160.435C202.109 160.221 202.206 159.779 201.992 159.446C201.779 159.114 201.336 159.017 201.003 159.231C200.67 159.445 200.574 159.887 200.787 160.22Z" fill="#6DB8DE"/>
<path d="M215.626 126.744C215.921 127.202 216.531 127.335 216.99 127.041C217.448 126.746 217.581 126.136 217.287 125.677C216.993 125.219 216.382 125.086 215.924 125.381C215.465 125.675 215.332 126.285 215.626 126.744Z" fill="#6DB8DE"/>
<path d="M187.14 135.354C187.203 135.453 187.335 135.482 187.434 135.418C187.533 135.355 187.561 135.223 187.498 135.124C187.434 135.025 187.303 134.997 187.204 135.06C187.105 135.124 187.076 135.255 187.14 135.354Z" fill="#6DB8DE"/>
<path d="M208.567 93.9796C208.959 94.5908 209.773 94.7679 210.385 94.3752C210.996 93.9825 211.174 93.1687 210.781 92.5576C210.389 91.9464 209.575 91.7693 208.963 92.162C208.352 92.5547 208.174 93.3685 208.567 93.9796Z" fill="#6DB8DE"/>
<path d="M149.901 97.6696C150.42 98.4785 151.497 98.7129 152.306 98.1931C153.116 97.6734 153.351 96.5963 152.831 95.7874C152.312 94.9785 151.235 94.7441 150.425 95.2638C149.616 95.7836 149.381 96.8607 149.901 97.6696Z" fill="#6DB8DE"/>
<path d="M122.686 141.094C122.067 141.492 121.239 141.312 120.841 140.693C120.444 140.075 120.625 139.246 121.244 138.849C121.862 138.451 122.691 138.632 123.088 139.25C123.485 139.868 123.321 140.687 122.686 141.094Z" fill="#6DB8DE"/>
<path d="M162.003 129.696C162.372 130.271 163.138 130.438 163.714 130.068C164.289 129.698 164.456 128.932 164.087 128.357C163.717 127.782 162.951 127.615 162.376 127.985C161.8 128.355 161.633 129.12 162.003 129.696Z" fill="#6DB8DE"/>
<path d="M200.068 32.4048L259.449 95.3609L209.671 93.2646L200.068 32.4048Z" stroke="#6DB8DE" stroke-miterlimit="10" stroke-linecap="round" stroke-linejoin="round"/>
<path d="M159.37 45.8495L136.351 49.0022L158.065 58.319L159.37 45.8495Z" stroke="#6DB8DE" stroke-miterlimit="10" stroke-linecap="round" stroke-linejoin="round"/>
<path d="M151.371 96.7336L121.973 139.979L163.047 129.024L151.371 96.7336Z" stroke="#6DB8DE" stroke-miterlimit="10" stroke-linecap="round" stroke-linejoin="round"/>
<path d="M274.066 122.52L284.916 145.825L275.701 139.675L274.066 122.52Z" stroke="#6DB8DE" stroke-miterlimit="10" stroke-linecap="round" stroke-linejoin="round"/>
<path d="M163.044 129.019L81.8867 75.1976L151.368 96.7286L163.044 129.019Z" stroke="#6DB8DE" stroke-miterlimit="10" stroke-linecap="round" stroke-linejoin="round"/>
<path d="M216.459 126.215L187.326 135.247L201.395 159.84L216.459 126.215Z" stroke="#6DB8DE" stroke-miterlimit="10" stroke-linecap="round" stroke-linejoin="round"/>
<path d="M129.167 176.067L163.048 129.023L64.8189 122.208L129.167 176.067Z" stroke="#6DB8DE" stroke-miterlimit="10" stroke-linecap="round" stroke-linejoin="round"/>
<path d="M199.856 213.527L121.965 139.978L163.04 129.023L199.856 213.527Z" stroke="#6DB8DE" stroke-miterlimit="10" stroke-linecap="round" stroke-linejoin="round"/>
<path d="M64.8144 122.208L121.969 139.979L35.5748 182.89L64.8144 122.208Z" stroke="#6DB8DE" stroke-miterlimit="10" stroke-linecap="round" stroke-linejoin="round"/>
<path d="M274.064 122.522L259.449 95.3609L200.068 32.4048L274.064 122.522Z" stroke="#6DB8DE" stroke-miterlimit="10" stroke-linecap="round" stroke-linejoin="round"/>
<path d="M200.07 32.4084L121.973 139.983" stroke="#6DB8DE" stroke-width="2" stroke-miterlimit="10" stroke-linecap="round" stroke-linejoin="round"/>
</g>
<defs>
<clipPath id="clip0_4084_1063">
<rect width="180.334" height="236.27" fill="white" transform="translate(198.805) rotate(57.2906)"/>
</clipPath>
</defs>
</svg>
