<svg width="325" height="325" viewBox="0 0 325 325" fill="none" xmlns="http://www.w3.org/2000/svg">
<mask id="path-1-inside-1_200_15" fill="white">
<path d="M325 162.5C325 252.246 252.246 325 162.5 325C72.7537 325 0 252.246 0 162.5C0 72.7537 72.7537 0 162.5 0C252.246 0 325 72.7537 325 162.5ZM48.75 162.5C48.75 225.322 99.6776 276.25 162.5 276.25C225.322 276.25 276.25 225.322 276.25 162.5C276.25 99.6776 225.322 48.75 162.5 48.75C99.6776 48.75 48.75 99.6776 48.75 162.5Z"/>
</mask>
<path d="M325 162.5C325 252.246 252.246 325 162.5 325C72.7537 325 0 252.246 0 162.5C0 72.7537 72.7537 0 162.5 0C252.246 0 325 72.7537 325 162.5ZM48.75 162.5C48.75 225.322 99.6776 276.25 162.5 276.25C225.322 276.25 276.25 225.322 276.25 162.5C276.25 99.6776 225.322 48.75 162.5 48.75C99.6776 48.75 48.75 99.6776 48.75 162.5Z" fill="#6B6B6B" fill-opacity="0.702" stroke="white" stroke-width="10" mask="url(#path-1-inside-1_200_15)"/>
<mask id="path-2-inside-2_200_15" fill="white">
<path d="M162.5 0C204.908 -5.05712e-07 245.636 16.5785 275.988 46.196C306.341 75.8134 323.912 116.123 324.951 158.518C325.99 200.914 310.415 242.036 281.55 273.105C252.685 304.174 212.818 322.727 170.461 324.805C128.103 326.882 86.6122 312.319 54.8455 284.224C23.0787 256.129 3.55365 216.729 0.438904 174.435C-2.67587 132.141 10.8665 90.3059 38.1747 57.8603C65.4829 25.4147 104.393 4.93007 146.598 0.779979L151.368 49.296C121.825 52.201 94.588 66.5403 75.4723 89.2522C56.3566 111.964 46.8769 141.249 49.0572 170.855C51.2375 200.46 64.9051 228.04 87.1418 247.707C109.379 267.373 138.422 277.568 168.073 276.113C197.723 274.659 225.629 261.671 245.835 239.923C266.04 218.175 276.943 189.39 276.216 159.713C275.488 130.036 263.188 101.819 241.942 81.0872C220.695 60.355 192.186 48.75 162.5 48.75V0Z"/>
</mask>
<path d="M162.5 0C204.908 -5.05712e-07 245.636 16.5785 275.988 46.196C306.341 75.8134 323.912 116.123 324.951 158.518C325.99 200.914 310.415 242.036 281.55 273.105C252.685 304.174 212.818 322.727 170.461 324.805C128.103 326.882 86.6122 312.319 54.8455 284.224C23.0787 256.129 3.55365 216.729 0.438904 174.435C-2.67587 132.141 10.8665 90.3059 38.1747 57.8603C65.4829 25.4147 104.393 4.93007 146.598 0.779979L151.368 49.296C121.825 52.201 94.588 66.5403 75.4723 89.2522C56.3566 111.964 46.8769 141.249 49.0572 170.855C51.2375 200.46 64.9051 228.04 87.1418 247.707C109.379 267.373 138.422 277.568 168.073 276.113C197.723 274.659 225.629 261.671 245.835 239.923C266.04 218.175 276.943 189.39 276.216 159.713C275.488 130.036 263.188 101.819 241.942 81.0872C220.695 60.355 192.186 48.75 162.5 48.75V0Z" fill="#F2B162" stroke="white" stroke-width="10" mask="url(#path-2-inside-2_200_15)"/>
</svg>
