<svg width="617" height="69" viewBox="0 0 617 69" fill="none" xmlns="http://www.w3.org/2000/svg">
<path d="M8.08 17.72C9.232 16.352 10.384 14.768 11.392 13.04H14.992V16.136C14.992 16.64 14.992 17.144 14.92 17.72H8.08ZM34.36 31.328C32.488 30.104 25.288 26 22.264 24.416H34.144V17.72H23.056C23.128 17.216 23.128 16.784 23.128 16.28V13.04H32.488V6.416H14.632C15.208 4.976 15.64 3.536 16.072 2.168L8.512 0.583997C7.072 5.912 4.264 11.168 0.592 14.624C2.032 15.344 4.336 16.64 6.064 17.72H1.24V24.416H13.192C11.392 28.016 7.72 31.544 0.376 34.424C2.248 35.792 4.624 38.456 5.776 40.184C12.256 37.16 16.432 33.488 19.024 29.816C22.264 32.048 26.296 35 28.312 36.8L34.36 31.328ZM48.976 44.576V48.608H19.24V44.576H48.976ZM19.24 59.048V54.8H48.976V59.048H19.24ZM10.816 68.264H19.24V65.888H48.976V68.192H57.76V37.88H10.816V68.264ZM55.456 26H44.512V13.832H55.456V26ZM36.592 6.272V33.56H63.952V6.272H36.592ZM181.24 2.096V10.088H192.688C195.208 16.136 198.88 22.184 203.56 27.296H166.264C170.944 21.176 174.904 13.688 177.568 5.624L168.568 3.464C165.256 14.264 158.848 23.912 150.712 29.744C152.728 31.184 156.4 34.352 157.912 36.08C159.784 34.496 161.584 32.768 163.312 30.896V35.648H175.48C174.04 46.088 170.296 55.592 154.024 60.848C156.112 62.792 158.632 66.32 159.712 68.768C178.36 61.784 183.04 49.472 184.84 35.648H199.024C198.376 50.624 197.584 57.032 196.144 58.616C195.352 59.48 194.56 59.624 193.264 59.624C191.464 59.624 187.72 59.552 183.76 59.264C185.272 61.712 186.424 65.312 186.568 67.904C190.816 68.048 194.992 68.048 197.44 67.688C200.248 67.328 202.192 66.608 203.992 64.232C206.512 61.28 207.376 53 208.168 31.76C209.896 33.272 211.768 34.712 213.64 35.936C215.008 33.488 217.96 29.816 219.688 28.016C209.68 22.832 202.336 12.608 199.024 2.096H181.24ZM292.048 6.344H265.624C265.048 4.328 264.184 2.24 263.32 0.511998L254.464 2.024C255.04 3.248 255.544 4.832 255.976 6.344H229.48V13.544H292.048V6.344ZM246.328 22.688H275.272V26.72H246.328V22.688ZM284.344 32.624V16.856H237.76V32.624H284.344ZM293.2 47.96H266.128C273.4 45.8 280.384 42.992 286.216 39.896L280.744 35.144L278.944 35.504H235.456V42.2H265.192C262.24 43.28 259.144 44.216 256.12 44.864L256.192 44.936H256.12V47.96H228.4V55.232H256.12V59.984C256.12 61.064 255.688 61.352 254.248 61.424C253.024 61.424 247.408 61.424 243.232 61.28C244.384 63.224 245.608 66.104 246.184 68.264C252.448 68.264 257.2 68.336 260.584 67.4C263.968 66.32 265.264 64.592 265.264 60.344V55.232H293.2V47.96ZM350.697 1.088C350.409 13.256 351.777 45.512 322.545 61.136C325.425 63.08 328.161 65.816 329.673 68.12C344.649 59.336 352.209 46.304 356.169 33.632C360.345 46.016 368.337 60.056 384.321 67.688C385.473 65.24 387.921 62.36 390.585 60.272C365.457 49.184 361.065 22.04 360.057 12.32C360.345 8 360.489 4.112 360.561 1.088H350.697ZM426.297 1.088C426.009 13.256 427.377 45.512 398.145 61.136C401.025 63.08 403.761 65.816 405.273 68.12C420.249 59.336 427.809 46.304 431.769 33.632C435.945 46.016 443.937 60.056 459.921 67.688C461.073 65.24 463.521 62.36 466.185 60.272C441.057 49.184 436.665 22.04 435.657 12.32C435.945 8 436.089 4.112 436.161 1.088H426.297ZM523.137 35.504H497.289V30.968H523.137V35.504ZM497.145 47.312C497.217 45.656 497.289 44.144 497.289 42.632H523.137V47.312H497.145ZM539.553 17.72V9.656H504.417C505.209 7.424 506.001 5.192 506.721 2.96L497.865 0.943996C497.073 3.824 496.137 6.704 494.985 9.656H475.689V17.72H491.313C487.065 25.712 481.305 32.984 474.033 37.808C475.689 39.392 478.353 42.488 479.649 44.432C482.961 42.128 485.841 39.464 488.577 36.584V42.416C488.577 49.112 488.073 56.816 481.881 62.216C483.681 63.368 486.921 66.968 488.073 68.768C492.537 65.096 494.841 59.84 496.065 54.44H523.137V58.76C523.137 59.768 522.705 60.128 521.481 60.2C520.257 60.2 516.081 60.2 512.409 59.984C513.489 62.288 514.641 65.888 515.001 68.264C520.833 68.264 524.937 68.192 527.745 66.824C530.697 65.528 531.489 63.224 531.489 58.976V23.408H498.009C499.089 21.536 500.097 19.664 500.889 17.72H539.553Z" fill="#153A71"/>
<path d="M95.128 10.376L90.808 15.2C94.048 17 98.224 19.88 100.096 21.968L104.92 16.496C102.904 14.48 98.8 12.032 95.56 10.376H110.536C108.16 17.072 104.2 23.552 99.808 28.088C97.504 26.216 94.336 24.272 91.672 22.904L87.64 27.584V10.376H95.128ZM121.48 28.592H113.92V24.776H121.48V28.592ZM121.48 38.24H113.92V34.424H121.48V38.24ZM121.48 48.104H113.92V44.144H121.48V48.104ZM87.64 58.76V28.088C90.88 30.032 94.984 32.984 96.856 35.072L100.456 30.824C101.752 32.336 103.048 34.208 103.624 35.216C104.632 34.208 105.568 33.128 106.504 31.976V57.032H113.92V54.584H140.344V48.104H129.112V44.144H137.752V38.24H129.112V34.424H137.752V28.592H129.112V24.776H139.84V18.296H131.416C130.696 15.92 129.4 13.184 128.176 10.88L120.616 13.112C121.408 14.624 122.128 16.496 122.776 18.296H115C116.008 16.208 116.872 14.048 117.664 11.888L112.408 10.376H140.848V3.248H79.288V65.888H142.288V58.76H87.64ZM95.128 56.744C98.08 51.848 101.32 46.232 103.84 41.264L99.016 36.224C95.848 41.768 92.032 47.672 89.368 51.344L95.128 56.744ZM565.472 28.952V42.2H573.248V1.16H565.472V11.888H560.072V2.816H552.944V18.368H565.472V22.328H550.136V28.952H554.168C554.096 31.616 553.304 36.656 549.416 39.68C551.36 40.472 554.456 42.2 555.896 43.352C560.648 39.392 561.656 32.336 561.656 28.952H565.472ZM584.48 23.768C589.88 22.76 594.92 21.32 599.456 19.304V23.768H584.48ZM603.992 9.224C602.48 10.808 600.608 12.176 598.52 13.4C597.152 12.032 595.568 10.52 593.984 9.224H603.992ZM616.664 53.648V46.592H604.712L606.368 44.936C605.072 43.568 602.912 41.912 600.752 40.472C602.264 40.328 603.56 40.112 604.568 39.68C606.944 38.672 607.592 37.16 607.592 33.776V29.312H615.728V23.768H607.592V19.16H599.744C605.864 16.352 610.904 12.392 614.072 6.632L609.68 4.4L608.312 4.616H598.304C599.384 3.824 600.392 3.032 601.4 2.168L594.344 0.727999C590.6 3.536 584.12 6.056 575.48 7.784C576.848 8.792 578.792 11.096 579.656 12.608C582.464 11.816 585.128 10.952 587.432 10.088C589.592 11.816 591.824 13.904 593.408 15.704C588.08 17.792 581.888 19.088 575.408 19.736C576.344 20.744 577.496 22.328 578.216 23.768H575.408V29.312H582.536L579.584 31.544C582.248 33.272 585.272 36.008 586.64 37.88L592.256 33.632C591.248 32.264 589.376 30.752 587.504 29.312H599.456V33.488C599.456 34.208 599.24 34.424 598.448 34.496C597.656 34.496 594.992 34.496 592.688 34.352C593.552 36.224 594.488 38.6 594.776 40.544H597.512L594.92 42.992C596.432 44 598.16 45.296 599.672 46.592H587.144C587.216 46.016 587.216 45.512 587.216 44.936V39.896H578.72V44.648C578.72 45.296 578.648 45.944 578.576 46.592H549.704V53.648H573.752C569.648 56.888 562.304 59.84 549.344 61.784C550.928 63.656 553.088 66.68 554.096 68.696C573.248 65.6 581.672 59.696 585.056 53.648H587.216L584.984 57.248C593.984 60.344 606.8 65.24 613.064 68.336L616.952 61.64C611.84 59.408 603.128 56.24 595.424 53.648H616.664ZM588.44 12.536C584.264 12.824 580.736 13.112 577.712 13.328L578.432 17.648C581.672 17.288 584.984 16.928 588.512 16.568L588.44 12.536Z" fill="#F29600"/>
</svg>
