<svg width="869" height="529" viewBox="0 0 869 529" fill="none" xmlns="http://www.w3.org/2000/svg">
<g opacity="0.5" clip-path="url(#clip0_239_188)">
<path d="M545.502 322.637C545.853 322.526 546.217 322.715 546.328 323.066C546.439 323.416 546.25 323.78 545.899 323.891C545.549 324.002 545.184 323.813 545.074 323.463C544.944 323.118 545.152 322.748 545.502 322.637Z" fill="#6DB8DE"/>
<path d="M551.228 350.357C551.183 350.215 551.031 350.136 550.888 350.181C550.745 350.226 550.666 350.378 550.711 350.521C550.756 350.663 550.909 350.742 551.051 350.697C551.194 350.652 551.273 350.5 551.228 350.357Z" fill="#6DB8DE"/>
<path d="M557.568 378.474C557.485 378.21 557.202 378.063 556.937 378.147C556.672 378.231 556.525 378.513 556.609 378.778C556.693 379.043 556.975 379.189 557.24 379.106C557.505 379.022 557.652 378.739 557.568 378.474Z" fill="#6DB8DE"/>
<path d="M597.633 453.907C598.204 453.726 598.793 454.047 598.968 454.6C599.143 455.153 598.828 455.76 598.274 455.935C597.702 456.116 597.114 455.795 596.939 455.242C596.764 454.689 597.079 454.082 597.633 453.907Z" fill="#6DB8DE"/>
<path d="M644.935 439.845C645.507 439.664 646.133 439.973 646.319 440.563C646.5 441.135 646.191 441.76 645.6 441.947C645.029 442.128 644.403 441.819 644.216 441.229C644.03 440.638 644.345 440.032 644.935 439.845Z" fill="#6DB8DE"/>
<path d="M640.347 451.319C641.048 451.097 641.801 451.488 642.023 452.189C642.244 452.889 641.853 453.642 641.152 453.864C640.451 454.086 639.698 453.695 639.477 452.994C639.268 452.269 639.646 451.541 640.347 451.319Z" fill="#6DB8DE"/>
<path d="M552.84 331.137C553.099 331.055 553.384 331.188 553.472 331.464C553.553 331.722 553.42 332.008 553.144 332.095C552.885 332.177 552.6 332.044 552.512 331.768C552.443 331.485 552.582 331.218 552.84 331.137Z" fill="#6DB8DE"/>
<path d="M549.882 347.962C550.232 347.851 550.596 348.04 550.707 348.39C550.818 348.741 550.629 349.105 550.278 349.216C549.928 349.327 549.563 349.137 549.453 348.787C549.342 348.437 549.531 348.073 549.882 347.962Z" fill="#6DB8DE"/>
<path d="M630.664 331.355C630.545 330.978 630.143 330.769 629.766 330.888C629.389 331.008 629.18 331.41 629.299 331.787C629.418 332.164 629.821 332.372 630.198 332.253C630.575 332.134 630.783 331.732 630.664 331.355Z" fill="#6DB8DE"/>
<path d="M607.592 359.789C607.428 359.269 606.873 358.982 606.354 359.146C605.834 359.31 605.546 359.865 605.71 360.384C605.875 360.904 606.429 361.191 606.949 361.027C607.468 360.862 607.756 360.308 607.592 359.789Z" fill="#6DB8DE"/>
<path d="M637.338 358.923C637.303 358.811 637.183 358.749 637.071 358.785C636.959 358.82 636.897 358.94 636.932 359.052C636.968 359.164 637.087 359.226 637.199 359.19C637.311 359.155 637.373 359.035 637.338 358.923Z" fill="#6DB8DE"/>
<path d="M605.84 393.259C605.621 392.566 604.882 392.182 604.189 392.402C603.496 392.621 603.112 393.36 603.331 394.052C603.551 394.745 604.29 395.129 604.983 394.909C605.676 394.69 606.06 393.951 605.84 393.259Z" fill="#6DB8DE"/>
<path d="M663.433 405.032C663.143 404.115 662.164 403.607 661.247 403.897C660.33 404.188 659.822 405.166 660.112 406.082C660.402 406.999 661.38 407.507 662.297 407.217C663.214 406.926 663.723 405.948 663.433 405.032Z" fill="#6DB8DE"/>
<path d="M701.054 370.23C701.755 370.008 702.508 370.399 702.729 371.1C702.951 371.801 702.56 372.553 701.859 372.775C701.158 372.997 700.405 372.606 700.183 371.905C699.962 371.205 700.334 370.458 701.054 370.23Z" fill="#6DB8DE"/>
<path d="M660.124 370.956C659.917 370.304 659.222 369.943 658.569 370.149C657.917 370.356 657.556 371.051 657.762 371.703C657.968 372.355 658.664 372.716 659.316 372.51C659.968 372.303 660.33 371.608 660.124 370.956Z" fill="#6DB8DE"/>
<path d="M597.952 454.915L557.091 378.626L604.591 393.661L597.952 454.915Z" stroke="#6DB8DE" stroke-miterlimit="10" stroke-linecap="round" stroke-linejoin="round"/>
<path d="M640.749 452.575L663.792 455.549L645.268 440.881L640.749 452.575Z" stroke="#6DB8DE" stroke-miterlimit="10" stroke-linecap="round" stroke-linejoin="round"/>
<path d="M661.769 405.551L701.449 371.493L658.938 371.331L661.769 405.551Z" stroke="#6DB8DE" stroke-miterlimit="10" stroke-linecap="round" stroke-linejoin="round"/>
<path d="M550.08 348.59L545.698 323.26L552.986 331.604L550.08 348.59Z" stroke="#6DB8DE" stroke-miterlimit="10" stroke-linecap="round" stroke-linejoin="round"/>
<path d="M658.939 371.337L723.207 444.5L661.769 405.556L658.939 371.337Z" stroke="#6DB8DE" stroke-miterlimit="10" stroke-linecap="round" stroke-linejoin="round"/>
<path d="M606.65 360.082L637.131 358.978L629.979 331.563L606.65 360.082Z" stroke="#6DB8DE" stroke-miterlimit="10" stroke-linecap="round" stroke-linejoin="round"/>
<path d="M703.94 334.78L658.94 371.332L751.973 403.586L703.94 334.78Z" stroke="#6DB8DE" stroke-miterlimit="10" stroke-linecap="round" stroke-linejoin="round"/>
<path d="M645.497 280.144L701.455 371.496L658.945 371.334L645.497 280.144Z" stroke="#6DB8DE" stroke-miterlimit="10" stroke-linecap="round" stroke-linejoin="round"/>
<path d="M751.976 403.586L701.453 371.494L796.06 352.657L751.976 403.586Z" stroke="#6DB8DE" stroke-miterlimit="10" stroke-linecap="round" stroke-linejoin="round"/>
<path d="M550.084 348.589L557.091 378.626L597.952 454.915L550.084 348.589Z" stroke="#6DB8DE" stroke-miterlimit="10" stroke-linecap="round" stroke-linejoin="round"/>
<path d="M597.95 454.911L701.45 371.49" stroke="#6DB8DE" stroke-width="2" stroke-miterlimit="10" stroke-linecap="round" stroke-linejoin="round"/>
</g>
<g opacity="0.5" clip-path="url(#clip1_239_188)">
<path d="M92.0754 24.1158C91.8969 24.9639 91.0253 25.5299 90.1736 25.3507C89.3219 25.1715 88.7522 24.3023 88.9306 23.4542C89.109 22.6061 89.9807 22.0401 90.8324 22.2192C91.7496 22.4122 92.2538 23.2677 92.0754 24.1158Z" fill="#6DB8DE"/>
<path d="M68.8646 63.242C68.5352 64.8077 67.0159 65.8506 65.378 65.506C63.8056 65.1751 62.756 63.6599 63.0992 62.029C63.4286 60.4632 64.9479 59.4204 66.5858 59.765C68.21 60.1748 69.194 61.6763 68.8646 63.242Z" fill="#6DB8DE"/>
<path d="M88.084 197.884C87.8781 198.862 86.9272 199.48 85.9445 199.273C84.9617 199.066 84.3403 198.118 84.5461 197.139C84.752 196.161 85.7029 195.543 86.6857 195.75C87.6166 195.878 88.2899 196.905 88.084 197.884Z" fill="#6DB8DE"/>
<path d="M147.188 167.944C150.3 168.599 153.351 166.618 154.003 163.519C154.655 160.42 152.661 157.378 149.549 156.723C146.437 156.068 143.386 158.049 142.734 161.148C142.082 164.247 144.076 167.289 147.188 167.944Z" fill="#6DB8DE"/>
<path d="M131.446 115.309C130.952 117.657 128.654 119.149 126.295 118.653C123.937 118.157 122.435 115.865 122.929 113.517C123.423 111.168 125.721 109.676 128.08 110.172C130.438 110.668 131.94 112.96 131.446 115.309Z" fill="#6DB8DE"/>
<path d="M178.749 29.0666C180.739 29.4853 182.69 28.2183 183.107 26.2366C183.524 24.255 182.249 22.3091 180.259 21.8904C178.269 21.4717 176.317 22.7387 175.9 24.7204C175.483 26.702 176.759 28.6479 178.749 29.0666Z" fill="#6DB8DE"/>
<path d="M88.9724 15.0832C88.4508 17.5622 85.9943 19.1573 83.5046 18.6335C81.015 18.1097 79.4095 15.66 79.9311 13.181C80.4527 10.7019 82.9092 9.10681 85.3988 9.63061C87.9539 10.1682 89.4939 12.6041 88.9724 15.0832Z" fill="#6DB8DE"/>
<path d="M148.374 162.335L86.2434 197.496L127.19 114.413L148.374 162.335Z" stroke="#6DB8DE" stroke-miterlimit="10" stroke-linecap="round" stroke-linejoin="round"/>
<path d="M84.5329 14.1493L179.506 25.479L66.0504 62.6497L84.5329 14.1493Z" stroke="#6DB8DE" stroke-miterlimit="10" stroke-linecap="round" stroke-linejoin="round"/>
<path d="M127.202 114.416L84.5329 14.1494L66.0504 62.6498L127.202 114.416Z" stroke="#6DB8DE" stroke-miterlimit="10" stroke-linecap="round" stroke-linejoin="round"/>
</g>
<g opacity="0.15" clip-path="url(#clip2_239_188)">
<path d="M708.384 15.528C708.48 15.8357 708.313 16.1545 708.005 16.2505C707.698 16.3465 707.379 16.1794 707.283 15.8717C707.187 15.5639 707.354 15.2452 707.661 15.1491C707.964 15.0369 708.288 15.2202 708.384 15.528Z" fill="url(#paint0_radial_239_188)"/>
<path d="M684.059 20.4568C684.184 20.4177 684.254 20.2843 684.215 20.1589C684.176 20.0335 684.042 19.9635 683.917 20.0027C683.792 20.0418 683.722 20.1752 683.761 20.3006C683.8 20.426 683.933 20.4959 684.059 20.4568Z" fill="url(#paint1_radial_239_188)"/>
<path d="M659.383 25.9202C659.616 25.8476 659.745 25.6002 659.673 25.3677C659.6 25.1351 659.353 25.0054 659.12 25.078C658.888 25.1505 658.758 25.3979 658.831 25.6305C658.904 25.863 659.151 25.9927 659.383 25.9202Z" fill="url(#paint2_radial_239_188)"/>
<path d="M593.108 60.7949C593.265 61.297 592.981 61.812 592.496 61.9636C592.01 62.1153 591.479 61.8367 591.327 61.3508C591.17 60.8487 591.454 60.3336 591.939 60.182C592.425 60.0304 592.956 60.309 593.108 60.7949Z" fill="url(#paint3_radial_239_188)"/>
<path d="M605.278 102.322C605.435 102.824 605.162 103.372 604.644 103.533C604.142 103.69 603.594 103.417 603.433 102.898C603.276 102.396 603.549 101.849 604.067 101.687C604.585 101.525 605.116 101.804 605.278 102.322Z" fill="url(#paint4_radial_239_188)"/>
<path d="M595.233 98.2591C595.425 98.8746 595.08 99.5333 594.465 99.7254C593.85 99.9174 593.191 99.572 592.999 98.9565C592.807 98.3411 593.152 97.6823 593.767 97.4903C594.404 97.3094 595.041 97.6436 595.233 98.2591Z" fill="url(#paint5_radial_239_188)"/>
<path d="M700.907 21.9338C700.977 22.1606 700.86 22.4105 700.617 22.4863C700.391 22.5571 700.141 22.4396 700.065 22.1966C699.994 21.9699 700.111 21.7199 700.354 21.6441C700.602 21.5845 700.836 21.7071 700.907 21.9338Z" fill="url(#paint6_radial_239_188)"/>
<path d="M686.164 19.2837C686.26 19.5915 686.093 19.9102 685.785 20.0062C685.478 20.1023 685.159 19.9351 685.063 19.6274C684.967 19.3197 685.134 19.0009 685.441 18.9049C685.749 18.8089 686.068 18.976 686.164 19.2837Z" fill="url(#paint7_radial_239_188)"/>
<path d="M700.455 90.1698C700.785 90.0666 700.97 89.7145 700.866 89.3836C700.763 89.0526 700.411 88.868 700.08 88.9713C699.75 89.0746 699.565 89.4266 699.669 89.7576C699.772 90.0885 700.124 90.2731 700.455 90.1698Z" fill="url(#paint8_radial_239_188)"/>
<path d="M675.6 69.8452C676.056 69.7029 676.31 69.2177 676.167 68.7615C676.025 68.3053 675.54 68.0508 675.084 68.1932C674.628 68.3355 674.374 68.8208 674.516 69.2769C674.659 69.7331 675.144 69.9876 675.6 69.8452Z" fill="url(#paint9_radial_239_188)"/>
<path d="M676.26 95.9286C676.358 95.8978 676.413 95.793 676.382 95.6945C676.352 95.5959 676.247 95.541 676.148 95.5717C676.05 95.6025 675.995 95.7073 676.026 95.8058C676.057 95.9044 676.161 95.9593 676.26 95.9286Z" fill="url(#paint10_radial_239_188)"/>
<path d="M646.258 68.1991C646.866 68.0093 647.205 67.3623 647.015 66.7541C646.825 66.1458 646.178 65.8066 645.57 65.9964C644.962 66.1862 644.623 66.8331 644.813 67.4414C645.003 68.0496 645.65 68.3889 646.258 68.1991Z" fill="url(#paint11_radial_239_188)"/>
<path d="M635.742 118.656C636.547 118.405 636.995 117.548 636.744 116.743C636.493 115.938 635.636 115.489 634.832 115.74C634.027 115.992 633.579 116.848 633.83 117.653C634.081 118.458 634.937 118.907 635.742 118.656Z" fill="url(#paint12_radial_239_188)"/>
<path d="M666.132 151.757C666.324 152.373 665.979 153.031 665.364 153.223C664.748 153.415 664.09 153.07 663.898 152.455C663.706 151.839 664.051 151.18 664.666 150.988C665.281 150.796 665.935 151.126 666.132 151.757Z" fill="url(#paint13_radial_239_188)"/>
<path d="M665.632 115.866C666.205 115.688 666.524 115.079 666.345 114.506C666.166 113.934 665.557 113.615 664.985 113.793C664.413 113.972 664.094 114.581 664.273 115.153C664.451 115.726 665.06 116.045 665.632 115.866Z" fill="url(#paint14_radial_239_188)"/>
<path d="M592.223 61.0717L659.252 25.4989L645.91 67.0985L592.223 61.0717Z" stroke="url(#paint15_radial_239_188)" stroke-miterlimit="10" stroke-linecap="round" stroke-linejoin="round"/>
<path d="M594.131 98.6031L591.446 118.798L604.37 102.605L594.131 98.6031Z" stroke="url(#paint16_radial_239_188)" stroke-miterlimit="10" stroke-linecap="round" stroke-linejoin="round"/>
<path d="M635.292 117.197L665.022 152.104L665.306 114.83L635.292 117.197Z" stroke="url(#paint17_radial_239_188)" stroke-miterlimit="10" stroke-linecap="round" stroke-linejoin="round"/>
<path d="M685.612 19.4558L707.837 15.699L700.496 22.0613L685.612 19.4558Z" stroke="url(#paint18_radial_239_188)" stroke-miterlimit="10" stroke-linecap="round" stroke-linejoin="round"/>
<path d="M665.301 114.831L600.933 170.939L635.287 117.198L665.301 114.831Z" stroke="url(#paint19_radial_239_188)" stroke-miterlimit="10" stroke-linecap="round" stroke-linejoin="round"/>
<path d="M675.346 69.0184L676.211 95.7485L700.274 89.5694L675.346 69.0184Z" stroke="url(#paint20_radial_239_188)" stroke-miterlimit="10" stroke-linecap="round" stroke-linejoin="round"/>
<path d="M697.205 154.41L665.306 114.83L636.713 196.297L697.205 154.41Z" stroke="url(#paint21_radial_239_188)" stroke-miterlimit="10" stroke-linecap="round" stroke-linejoin="round"/>
<path d="M745.309 103.345L665.02 152.105L665.305 114.831L745.309 103.345Z" stroke="url(#paint22_radial_239_188)" stroke-miterlimit="10" stroke-linecap="round" stroke-linejoin="round"/>
<path d="M636.713 196.297L665.022 152.104L681.221 235.122L636.713 196.297Z" stroke="url(#paint23_radial_239_188)" stroke-miterlimit="10" stroke-linecap="round" stroke-linejoin="round"/>
<path d="M685.614 19.4555L659.252 25.4989L592.223 61.0717L685.614 19.4555Z" stroke="url(#paint24_radial_239_188)" stroke-miterlimit="10" stroke-linecap="round" stroke-linejoin="round"/>
<path d="M592.226 61.0709L665.025 152.104" stroke="url(#paint25_radial_239_188)" stroke-width="2" stroke-miterlimit="10" stroke-linecap="round" stroke-linejoin="round"/>
</g>
<g opacity="0.15" clip-path="url(#clip3_239_188)">
<path d="M113.794 310.377C113.981 311.267 113.385 312.179 112.493 312.367C111.6 312.555 110.687 311.961 110.5 311.071C110.312 310.181 110.909 309.269 111.801 309.081C112.762 308.879 113.607 309.487 113.794 310.377Z" fill="url(#paint26_linear_239_188)"/>
<path d="M108.08 357.764C108.426 359.407 107.41 361.051 105.694 361.412C104.047 361.758 102.401 360.747 102.041 359.035C101.695 357.392 102.71 355.749 104.426 355.387C106.156 355.095 107.734 356.121 108.08 357.764Z" fill="url(#paint27_linear_239_188)"/>
<path d="M183.399 478.959C183.615 479.985 182.964 480.98 181.935 481.197C180.905 481.414 179.909 480.766 179.693 479.739C179.476 478.712 180.127 477.717 181.157 477.5C182.103 477.23 183.183 477.932 183.399 478.959Z" fill="url(#paint28_linear_239_188)"/>
<path d="M227.412 425.226C230.671 424.54 232.759 421.348 232.075 418.096C231.39 414.845 228.193 412.765 224.933 413.451C221.673 414.137 219.586 417.329 220.27 420.581C220.955 423.833 224.152 425.912 227.412 425.226Z" fill="url(#paint29_linear_239_188)"/>
<path d="M190.078 381.325C190.597 383.789 189.024 386.194 186.554 386.714C184.083 387.234 181.675 385.668 181.156 383.203C180.637 380.739 182.21 378.334 184.68 377.814C187.151 377.294 189.559 378.86 190.078 381.325Z" fill="url(#paint30_linear_239_188)"/>
<path d="M198.977 278.505C201.062 278.066 202.397 276.025 201.959 273.945C201.522 271.866 199.477 270.536 197.392 270.975C195.307 271.414 193.972 273.455 194.41 275.535C194.848 277.614 196.893 278.944 198.977 278.505Z" fill="url(#paint31_linear_239_188)"/>
<path d="M107.008 303.012C107.555 305.614 105.874 308.184 103.266 308.733C100.658 309.282 98.0842 307.607 97.5366 305.006C96.989 302.404 98.6698 299.834 101.278 299.285C103.954 298.722 106.46 300.411 107.008 303.012Z" fill="url(#paint32_linear_239_188)"/>
<path d="M226.173 419.339L181.471 479.365L185.615 382.265L226.173 419.339Z" stroke="url(#paint33_linear_239_188)" stroke-miterlimit="10" stroke-linecap="round" stroke-linejoin="round"/>
<path d="M102.355 303.992L198.187 274.74L105.132 358.385L102.355 303.992Z" stroke="url(#paint34_linear_239_188)" stroke-miterlimit="10" stroke-linecap="round" stroke-linejoin="round"/>
<path d="M185.629 382.262L102.354 303.992L105.132 358.384L185.629 382.262Z" stroke="url(#paint35_linear_239_188)" stroke-miterlimit="10" stroke-linecap="round" stroke-linejoin="round"/>
</g>
<defs>
<radialGradient id="paint0_radial_239_188" cx="0" cy="0" r="1" gradientUnits="userSpaceOnUse" gradientTransform="translate(708.072 15.676) rotate(35.7931) scale(1.37695 3.97996)">
<stop stop-color="#0083E2"/>
<stop offset="1" stop-color="#134C72"/>
</radialGradient>
<radialGradient id="paint1_radial_239_188" cx="0" cy="0" r="1" gradientUnits="userSpaceOnUse" gradientTransform="translate(684.086 20.2201) rotate(35.7773) scale(0.567541 1.64069)">
<stop stop-color="#0083E2"/>
<stop offset="1" stop-color="#134C72"/>
</radialGradient>
<radialGradient id="paint2_radial_239_188" cx="0" cy="0" r="1" gradientUnits="userSpaceOnUse" gradientTransform="translate(659.435 25.4811) rotate(35.7755) scale(1.05252 3.04275)">
<stop stop-color="#0083E2"/>
<stop offset="1" stop-color="#134C72"/>
</radialGradient>
<radialGradient id="paint3_radial_239_188" cx="0" cy="0" r="1" gradientUnits="userSpaceOnUse" gradientTransform="translate(592.604 61.0349) rotate(35.7757) scale(2.22648 6.43656)">
<stop stop-color="#0083E2"/>
<stop offset="1" stop-color="#134C72"/>
</radialGradient>
<radialGradient id="paint4_radial_239_188" cx="0" cy="0" r="1" gradientUnits="userSpaceOnUse" gradientTransform="translate(604.756 102.571) rotate(35.7755) scale(2.30742 6.67059)">
<stop stop-color="#0083E2"/>
<stop offset="1" stop-color="#134C72"/>
</radialGradient>
<radialGradient id="paint5_radial_239_188" cx="0" cy="0" r="1" gradientUnits="userSpaceOnUse" gradientTransform="translate(594.601 98.5602) rotate(35.7757) scale(2.79321 8.07495)">
<stop stop-color="#0083E2"/>
<stop offset="1" stop-color="#134C72"/>
</radialGradient>
<radialGradient id="paint6_radial_239_188" cx="0" cy="0" r="1" gradientUnits="userSpaceOnUse" gradientTransform="translate(700.668 22.0473) rotate(35.7758) scale(1.05252 3.04273)">
<stop stop-color="#0083E2"/>
<stop offset="1" stop-color="#134C72"/>
</radialGradient>
<radialGradient id="paint7_radial_239_188" cx="0" cy="0" r="1" gradientUnits="userSpaceOnUse" gradientTransform="translate(685.852 19.4321) rotate(35.7753) scale(1.37637 3.979)">
<stop stop-color="#0083E2"/>
<stop offset="1" stop-color="#134C72"/>
</radialGradient>
<radialGradient id="paint8_radial_239_188" cx="0" cy="0" r="1" gradientUnits="userSpaceOnUse" gradientTransform="translate(700.528 89.545) rotate(35.7755) scale(1.49781 4.33005)">
<stop stop-color="#0083E2"/>
<stop offset="1" stop-color="#134C72"/>
</radialGradient>
<radialGradient id="paint9_radial_239_188" cx="0" cy="0" r="1" gradientUnits="userSpaceOnUse" gradientTransform="translate(675.7 68.984) rotate(35.7756) scale(2.06455 5.96846)">
<stop stop-color="#0083E2"/>
<stop offset="1" stop-color="#134C72"/>
</radialGradient>
<radialGradient id="paint10_radial_239_188" cx="0" cy="0" r="1" gradientUnits="userSpaceOnUse" gradientTransform="translate(676.282 95.7425) rotate(35.7748) scale(0.445921 1.28913)">
<stop stop-color="#0083E2"/>
<stop offset="1" stop-color="#134C72"/>
</radialGradient>
<radialGradient id="paint11_radial_239_188" cx="0" cy="0" r="1" gradientUnits="userSpaceOnUse" gradientTransform="translate(646.392 67.0508) rotate(35.7756) scale(2.75273 7.95792)">
<stop stop-color="#0083E2"/>
<stop offset="1" stop-color="#134C72"/>
</radialGradient>
<radialGradient id="paint12_radial_239_188" cx="0" cy="0" r="1" gradientUnits="userSpaceOnUse" gradientTransform="translate(635.92 117.136) rotate(35.7756) scale(3.64332 10.5325)">
<stop stop-color="#0083E2"/>
<stop offset="1" stop-color="#134C72"/>
</radialGradient>
<radialGradient id="paint13_radial_239_188" cx="0" cy="0" r="1" gradientUnits="userSpaceOnUse" gradientTransform="translate(665.5 152.058) rotate(35.7758) scale(2.79322 8.07496)">
<stop stop-color="#0083E2"/>
<stop offset="1" stop-color="#134C72"/>
</radialGradient>
<radialGradient id="paint14_radial_239_188" cx="0" cy="0" r="1" gradientUnits="userSpaceOnUse" gradientTransform="translate(665.759 114.786) rotate(35.7757) scale(2.59082 7.48985)">
<stop stop-color="#0083E2"/>
<stop offset="1" stop-color="#134C72"/>
</radialGradient>
<radialGradient id="paint15_radial_239_188" cx="0" cy="0" r="1" gradientUnits="userSpaceOnUse" gradientTransform="translate(643.947 50.5787) rotate(15.2036) scale(63.3825 173.073)">
<stop stop-color="#0083E2"/>
<stop offset="1" stop-color="#134C72"/>
</radialGradient>
<radialGradient id="paint16_radial_239_188" cx="0" cy="0" r="1" gradientUnits="userSpaceOnUse" gradientTransform="translate(600.457 107.126) rotate(37.7707) scale(21.4936 60.7275)">
<stop stop-color="#0083E2"/>
<stop offset="1" stop-color="#134C72"/>
</radialGradient>
<radialGradient id="paint17_radial_239_188" cx="0" cy="0" r="1" gradientUnits="userSpaceOnUse" gradientTransform="translate(661.834 132.875) rotate(45.0733) scale(45.4093 112.238)">
<stop stop-color="#0083E2"/>
<stop offset="1" stop-color="#134C72"/>
</radialGradient>
<radialGradient id="paint18_radial_239_188" cx="0" cy="0" r="1" gradientUnits="userSpaceOnUse" gradientTransform="translate(701.738 18.3544) rotate(5.09355) scale(17.3101 36.765)">
<stop stop-color="#0083E2"/>
<stop offset="1" stop-color="#134C72"/>
</radialGradient>
<radialGradient id="paint19_radial_239_188" cx="0" cy="0" r="1" gradientUnits="userSpaceOnUse" gradientTransform="translate(647.853 136.604) rotate(17.6411) scale(68.3398 193.302)">
<stop stop-color="#0083E2"/>
<stop offset="1" stop-color="#134C72"/>
</radialGradient>
<radialGradient id="paint20_radial_239_188" cx="0" cy="0" r="1" gradientUnits="userSpaceOnUse" gradientTransform="translate(689.573 79.9428) rotate(38.104) scale(31.3342 88.1454)">
<stop stop-color="#0083E2"/>
<stop offset="1" stop-color="#134C72"/>
</radialGradient>
<radialGradient id="paint21_radial_239_188" cx="0" cy="0" r="1" gradientUnits="userSpaceOnUse" gradientTransform="translate(674.455 151.314) rotate(35.3735) scale(83.0418 241.025)">
<stop stop-color="#0083E2"/>
<stop offset="1" stop-color="#134C72"/>
</radialGradient>
<radialGradient id="paint22_radial_239_188" cx="0" cy="0" r="1" gradientUnits="userSpaceOnUse" gradientTransform="translate(721.439 117.472) rotate(10.0706) scale(73.572 181.048)">
<stop stop-color="#0083E2"/>
<stop offset="1" stop-color="#134C72"/>
</radialGradient>
<radialGradient id="paint23_radial_239_188" cx="0" cy="0" r="1" gradientUnits="userSpaceOnUse" gradientTransform="translate(667.25 199.174) rotate(52.9168) scale(85.2279 163.191)">
<stop stop-color="#0083E2"/>
<stop offset="1" stop-color="#134C72"/>
</radialGradient>
<radialGradient id="paint24_radial_239_188" cx="0" cy="0" r="1" gradientUnits="userSpaceOnUse" gradientTransform="translate(658.549 33.6616) rotate(-6.94713) scale(73.9615 79.0113)">
<stop stop-color="#0083E2"/>
<stop offset="1" stop-color="#134C72"/>
</radialGradient>
<radialGradient id="paint25_radial_239_188" cx="0" cy="0" r="1" gradientUnits="userSpaceOnUse" gradientTransform="translate(638.241 108.4) rotate(56.3363) scale(107.963 175.381)">
<stop stop-color="#0083E2"/>
<stop offset="1" stop-color="#134C72"/>
</radialGradient>
<linearGradient id="paint26_linear_239_188" x1="108.903" y1="309.691" x2="115.582" y2="309.228" gradientUnits="userSpaceOnUse">
<stop stop-color="#30ACFF"/>
<stop offset="1" stop-color="#00426F"/>
</linearGradient>
<linearGradient id="paint27_linear_239_188" x1="99.1132" y1="356.506" x2="111.358" y2="355.658" gradientUnits="userSpaceOnUse">
<stop stop-color="#30ACFF"/>
<stop offset="1" stop-color="#00426F"/>
</linearGradient>
<linearGradient id="paint28_linear_239_188" x1="177.895" y1="478.183" x2="185.409" y2="477.661" gradientUnits="userSpaceOnUse">
<stop stop-color="#30ACFF"/>
<stop offset="1" stop-color="#00426F"/>
</linearGradient>
<linearGradient id="paint29_linear_239_188" x1="214.548" y1="415.637" x2="238.481" y2="413.98" gradientUnits="userSpaceOnUse">
<stop stop-color="#30ACFF"/>
<stop offset="1" stop-color="#00426F"/>
</linearGradient>
<linearGradient id="paint30_linear_239_188" x1="176.831" y1="379.466" x2="194.92" y2="378.214" gradientUnits="userSpaceOnUse">
<stop stop-color="#30ACFF"/>
<stop offset="1" stop-color="#00426F"/>
</linearGradient>
<linearGradient id="paint31_linear_239_188" x1="190.751" y1="272.373" x2="206.056" y2="271.313" gradientUnits="userSpaceOnUse">
<stop stop-color="#30ACFF"/>
<stop offset="1" stop-color="#00426F"/>
</linearGradient>
<linearGradient id="paint32_linear_239_188" x1="92.9459" y1="301.039" x2="112.147" y2="299.71" gradientUnits="userSpaceOnUse">
<stop stop-color="#30ACFF"/>
<stop offset="1" stop-color="#00426F"/>
</linearGradient>
<linearGradient id="paint33_linear_239_188" x1="141.226" y1="391.608" x2="252.622" y2="377.62" gradientUnits="userSpaceOnUse">
<stop stop-color="#30ACFF"/>
<stop offset="1" stop-color="#00426F"/>
</linearGradient>
<linearGradient id="paint34_linear_239_188" x1="51.9832" y1="305.516" x2="263.325" y2="311.43" gradientUnits="userSpaceOnUse">
<stop stop-color="#30ACFF"/>
<stop offset="1" stop-color="#00426F"/>
</linearGradient>
<linearGradient id="paint35_linear_239_188" x1="66.6088" y1="311.516" x2="213.297" y2="297.02" gradientUnits="userSpaceOnUse">
<stop stop-color="#30ACFF"/>
<stop offset="1" stop-color="#00426F"/>
</linearGradient>
<clipPath id="clip0_239_188">
<rect width="180.334" height="236.27" fill="white" transform="translate(590.7 486.523) rotate(-107.557)"/>
</clipPath>
<clipPath id="clip1_239_188">
<rect width="110" height="193" fill="white" transform="translate(76.2136) rotate(11.8814)"/>
</clipPath>
<clipPath id="clip2_239_188">
<rect width="158.125" height="207.172" fill="white" transform="translate(564.531 54.6078) rotate(-17.3379)"/>
</clipPath>
<clipPath id="clip3_239_188">
<rect width="115.233" height="202.53" fill="white" transform="translate(88.4001 293.918) rotate(-11.8873)"/>
</clipPath>
</defs>
</svg>
