<svg width="347" height="171" viewBox="0 0 347 171" fill="none" xmlns="http://www.w3.org/2000/svg">
<g opacity="0.5" clip-path="url(#clip0_239_124)">
<path d="M223.573 101.734C223.711 101.664 223.875 101.717 223.945 101.855C224.015 101.993 223.961 102.157 223.824 102.227C223.686 102.297 223.522 102.243 223.452 102.106C223.375 101.972 223.435 101.804 223.573 101.734Z" fill="#6DB8DE"/>
<path d="M227.844 112.841C227.816 112.785 227.747 112.763 227.691 112.791C227.635 112.82 227.613 112.888 227.641 112.944C227.67 113 227.738 113.023 227.794 112.994C227.85 112.966 227.873 112.897 227.844 112.841Z" fill="#6DB8DE"/>
<path d="M232.398 124.071C232.345 123.967 232.218 123.925 232.113 123.978C232.009 124.031 231.968 124.158 232.02 124.262C232.073 124.366 232.201 124.408 232.305 124.355C232.409 124.302 232.451 124.175 232.398 124.071Z" fill="#6DB8DE"/>
<path d="M254.177 152.62C254.402 152.506 254.668 152.599 254.778 152.817C254.889 153.034 254.799 153.307 254.582 153.418C254.357 153.532 254.091 153.439 253.98 153.222C253.87 153.004 253.959 152.731 254.177 152.62Z" fill="#6DB8DE"/>
<path d="M272.837 143.552C273.062 143.438 273.342 143.523 273.46 143.755C273.574 143.98 273.488 144.26 273.256 144.378C273.031 144.492 272.751 144.407 272.633 144.175C272.515 143.943 272.605 143.67 272.837 143.552Z" fill="#6DB8DE"/>
<path d="M271.718 148.625C271.994 148.485 272.333 148.596 272.473 148.871C272.613 149.147 272.502 149.486 272.226 149.626C271.951 149.766 271.612 149.655 271.472 149.38C271.335 149.093 271.443 148.765 271.718 148.625Z" fill="#6DB8DE"/>
<path d="M227.198 104.758C227.3 104.706 227.428 104.742 227.483 104.85C227.534 104.952 227.499 105.079 227.39 105.135C227.288 105.186 227.161 105.151 227.106 105.042C227.058 104.929 227.097 104.809 227.198 104.758Z" fill="#6DB8DE"/>
<path d="M227.122 111.939C227.26 111.869 227.424 111.923 227.494 112.061C227.564 112.198 227.51 112.362 227.372 112.432C227.235 112.502 227.071 112.449 227.001 112.311C226.931 112.173 226.984 112.009 227.122 111.939Z" fill="#6DB8DE"/>
<path d="M259.496 99.5247C259.421 99.3766 259.24 99.3175 259.091 99.3928C258.943 99.468 258.884 99.6491 258.959 99.7973C259.034 99.9455 259.215 100.005 259.364 99.9293C259.512 99.854 259.571 99.6729 259.496 99.5247Z" fill="#6DB8DE"/>
<path d="M251.87 112.898C251.766 112.694 251.517 112.612 251.312 112.716C251.108 112.82 251.027 113.069 251.13 113.273C251.234 113.478 251.484 113.559 251.688 113.455C251.892 113.352 251.974 113.102 251.87 112.898Z" fill="#6DB8DE"/>
<path d="M264.15 110.504C264.128 110.46 264.074 110.442 264.03 110.465C263.986 110.487 263.968 110.541 263.99 110.585C264.013 110.629 264.067 110.647 264.111 110.624C264.155 110.602 264.172 110.548 264.15 110.504Z" fill="#6DB8DE"/>
<path d="M253.433 126.901C253.295 126.629 252.962 126.52 252.689 126.659C252.417 126.797 252.308 127.13 252.447 127.402C252.585 127.675 252.918 127.783 253.19 127.645C253.463 127.506 253.571 127.174 253.433 126.901Z" fill="#6DB8DE"/>
<path d="M278.128 127.846C277.945 127.485 277.505 127.341 277.144 127.525C276.784 127.708 276.64 128.148 276.823 128.509C277.006 128.869 277.446 129.013 277.807 128.83C278.167 128.646 278.311 128.206 278.128 127.846Z" fill="#6DB8DE"/>
<path d="M291.354 110.836C291.629 110.696 291.968 110.807 292.108 111.082C292.248 111.358 292.137 111.697 291.862 111.837C291.586 111.976 291.247 111.866 291.107 111.59C290.967 111.315 291.071 110.98 291.354 110.836Z" fill="#6DB8DE"/>
<path d="M274.425 113.937C274.295 113.68 273.981 113.578 273.725 113.708C273.469 113.839 273.366 114.152 273.496 114.408C273.626 114.664 273.94 114.767 274.196 114.636C274.453 114.506 274.555 114.193 274.425 113.937Z" fill="#6DB8DE"/>
<path d="M254.378 153.017L232.21 124.166L252.942 127.154L254.378 153.017Z" stroke="#6DB8DE" stroke-miterlimit="10" stroke-linecap="round" stroke-linejoin="round"/>
<path d="M271.971 149.119L281.733 148.776L273.046 143.959L271.971 149.119Z" stroke="#6DB8DE" stroke-miterlimit="10" stroke-linecap="round" stroke-linejoin="round"/>
<path d="M277.474 128.175L291.604 111.333L273.959 114.174L277.474 128.175Z" stroke="#6DB8DE" stroke-miterlimit="10" stroke-linecap="round" stroke-linejoin="round"/>
<path d="M227.247 112.186L223.697 101.979L227.291 104.942L227.247 112.186Z" stroke="#6DB8DE" stroke-miterlimit="10" stroke-linecap="round" stroke-linejoin="round"/>
<path d="M273.96 114.176L305.623 140.129L277.474 128.177L273.96 114.176Z" stroke="#6DB8DE" stroke-miterlimit="10" stroke-linecap="round" stroke-linejoin="round"/>
<path d="M251.5 113.084L264.068 110.541L259.226 99.6579L251.5 113.084Z" stroke="#6DB8DE" stroke-miterlimit="10" stroke-linecap="round" stroke-linejoin="round"/>
<path d="M290.126 95.9333L273.959 114.174L314.757 121.189L290.126 95.9333Z" stroke="#6DB8DE" stroke-miterlimit="10" stroke-linecap="round" stroke-linejoin="round"/>
<path d="M262.146 77.2672L291.607 111.334L273.962 114.174L262.146 77.2672Z" stroke="#6DB8DE" stroke-miterlimit="10" stroke-linecap="round" stroke-linejoin="round"/>
<path d="M314.759 121.189L291.606 111.333L329.562 97.0478L314.759 121.189Z" stroke="#6DB8DE" stroke-miterlimit="10" stroke-linecap="round" stroke-linejoin="round"/>
<path d="M227.249 112.186L232.21 124.166L254.378 153.017L227.249 112.186Z" stroke="#6DB8DE" stroke-miterlimit="10" stroke-linecap="round" stroke-linejoin="round"/>
<path d="M254.377 153.015L291.604 111.331" stroke="#6DB8DE" stroke-width="2" stroke-miterlimit="10" stroke-linecap="round" stroke-linejoin="round"/>
</g>
<g opacity="0.5" clip-path="url(#clip1_239_124)">
<path d="M15.0655 8.91859C15.0494 9.2826 14.7266 9.57701 14.361 9.56093C13.9955 9.54486 13.6997 9.22325 13.7157 8.85924C13.7317 8.49523 14.0546 8.20083 14.4201 8.2169C14.8138 8.23421 15.0815 8.55458 15.0655 8.91859Z" fill="#6DB8DE"/>
<path d="M8.11363 26.7363C8.08408 27.4084 7.52518 27.9449 6.82218 27.914C6.1473 27.8843 5.60829 27.3276 5.63907 26.6275C5.66861 25.9555 6.22752 25.419 6.93052 25.4499C7.63229 25.5088 8.14317 26.0643 8.11363 26.7363Z" fill="#6DB8DE"/>
<path d="M25.296 81.2729C25.2775 81.693 24.9253 82.0141 24.5035 81.9956C24.0817 81.977 23.759 81.6262 23.7775 81.2062C23.796 80.7862 24.1482 80.465 24.57 80.4835C24.9649 80.4728 25.3144 80.8529 25.296 81.2729Z" fill="#6DB8DE"/>
<path d="M47.7652 64.8107C49.1008 64.8694 50.2309 63.8389 50.2894 62.509C50.3478 61.179 49.3125 60.0533 47.9769 59.9946C46.6413 59.9358 45.5112 60.9664 45.4527 62.2963C45.3942 63.6263 46.4296 64.752 47.7652 64.8107Z" fill="#6DB8DE"/>
<path d="M37.6348 44.0536C37.5905 45.0616 36.7393 45.8378 35.727 45.7932C34.7146 45.7487 33.9349 44.9009 33.9792 43.8928C34.0235 42.8848 34.8747 42.1087 35.887 42.1532C36.8993 42.1977 37.6791 43.0456 37.6348 44.0536Z" fill="#6DB8DE"/>
<path d="M51.3575 5.04356C52.2116 5.08111 52.9344 4.42206 52.9718 3.57152C53.0092 2.72098 52.3471 2.00104 51.4929 1.96348C50.6387 1.92592 49.916 2.58498 49.8786 3.43552C49.8412 4.28606 50.5033 5.006 51.3575 5.04356Z" fill="#6DB8DE"/>
<path d="M13.1604 5.38398C13.1136 6.44801 12.2037 7.2777 11.1351 7.23072C10.0666 7.18374 9.23301 6.27739 9.2798 5.21336C9.32658 4.14933 10.2365 3.31964 11.305 3.36662C12.4017 3.41484 13.2071 4.31996 13.1604 5.38398Z" fill="#6DB8DE"/>
<path d="M47.8736 62.4028L24.506 81.2382L35.8082 43.9734L47.8736 62.4028Z" stroke="#6DB8DE" stroke-miterlimit="10" stroke-linecap="round" stroke-linejoin="round"/>
<path d="M11.255 5.30027L51.4261 3.50357L6.90568 26.6832L11.255 5.30027Z" stroke="#6DB8DE" stroke-miterlimit="10" stroke-linecap="round" stroke-linejoin="round"/>
<path d="M35.813 43.9735L11.2549 5.3003L6.90566 26.6832L35.813 43.9735Z" stroke="#6DB8DE" stroke-miterlimit="10" stroke-linecap="round" stroke-linejoin="round"/>
</g>
<defs>
<clipPath id="clip0_239_124">
<rect width="75.8154" height="99.3317" fill="white" transform="translate(253.532 166.624) rotate(-116.921)"/>
</clipPath>
<clipPath id="clip1_239_124">
<rect width="46.2458" height="81.1403" fill="white" transform="translate(6.83618) rotate(2.51759)"/>
</clipPath>
</defs>
</svg>
