<svg width="144" height="149" viewBox="0 0 144 149" fill="none" xmlns="http://www.w3.org/2000/svg">
<path d="M106.303 126.917C106.303 132.389 106.303 137.622 106.303 142.851C106.303 143.777 106.311 144.699 106.303 145.626C106.278 148.475 104.627 149.475 102.034 148.195C99.5469 146.968 97.0849 145.679 94.5734 144.502C93.8159 144.148 92.9224 143.905 92.0908 143.901C77.6273 143.864 63.1637 143.868 48.7043 143.897C47.9097 143.897 47.074 144.086 46.3288 144.374C42.9239 145.683 39.5519 147.071 36.1594 148.405C33.7303 149.36 32.1987 148.331 32.1864 145.745C32.1699 141.896 32.1823 138.042 32.1823 134.151C31.9517 134.065 31.7458 134.032 31.5894 133.929C28.8268 132.035 26.0807 131.603 23.1945 133.752C22.7828 134.057 21.9224 133.847 21.2924 133.74C20.856 133.665 20.4114 133.423 20.0449 133.155C18.2746 131.866 16.5371 131.796 14.7462 133.122C13.1899 134.271 11.5801 134.209 10.0362 133.097C8.35638 131.887 6.71364 131.747 5.01738 133.056C4.65918 133.332 4.20218 133.493 3.77812 133.674C1.78542 134.522 0.122096 133.476 0.0726904 131.29C-0.0837609 124.357 -0.199041 117.432 2.10244 110.729C2.46063 109.691 2.51827 108.51 2.51827 107.394C2.54297 86.9977 2.49357 66.5973 2.57179 46.201C2.58415 42.3679 2.29595 38.6295 1.1308 34.9735C0.295016 32.3591 -0.00965238 29.683 0.0768076 26.9328C0.163268 24.1084 0.0479876 21.2799 0.0768076 18.4556C0.10151 16.0841 1.93364 14.8284 3.91398 16.0841C6.42544 17.6774 8.64046 17.7721 11.0366 16.0347C12.1441 15.2318 13.3669 15.5983 14.3592 16.3105C16.393 17.7721 18.3281 17.8051 20.3496 16.3064C21.6671 15.3307 23.0875 15.4459 24.3679 16.3723C26.2989 17.7721 28.1516 17.7968 30.0825 16.3888C31.4288 15.4089 32.8863 15.3677 34.2408 16.3641C36.1635 17.7803 38.0204 17.8092 39.9513 16.3929C41.3635 15.3554 42.8539 15.4212 44.2455 16.4299C46.0735 17.7556 47.8521 17.8627 49.6801 16.467C51.467 15.1042 53.1303 15.7753 54.8183 16.7428C55.897 17.3604 56.9469 18.1097 58.3385 17.134C59.059 16.6276 59.3924 16.2117 59.3801 15.3307C59.3348 11.6335 59.3554 7.93215 59.3636 4.23084C59.3677 1.04829 61.027 -0.0592176 63.806 1.56294C65.8934 2.78573 67.6844 3.03687 69.6812 1.5547C70.9616 0.603642 72.3491 0.607759 73.7119 1.50118C73.9671 1.66998 74.2924 1.74409 74.5312 1.92524C75.9845 3.04099 77.4173 2.96276 78.8583 1.90054C80.7069 0.537768 82.5761 0.603642 84.4 1.91701C85.808 2.92983 87.179 3.03687 88.5912 1.97465C90.5963 0.463659 92.6013 0.653048 94.5446 2.05288C95.8374 2.98335 97.0684 2.98335 98.32 2.04464C100.416 0.471894 102.503 0.648931 104.562 2.10228C105.735 2.92983 106.855 3.01217 108.057 2.11875C110.157 0.562471 112.302 0.554236 114.434 2.08993C115.587 2.91747 116.715 3.03687 117.926 2.12698C120.083 0.504831 122.282 0.570705 124.435 2.15992C125.575 2.99982 126.667 2.95041 127.79 2.12698C129.96 0.533651 132.151 0.554236 134.304 2.1558C135.444 3.00393 136.523 2.92983 137.668 2.14757C138.256 1.74409 138.936 1.46824 139.59 1.17592C141.583 0.290739 143.353 1.29944 143.353 3.4527C143.357 11.0406 143.921 18.682 142.048 26.1464C140.665 31.651 141.126 37.1474 141.661 42.6643C143.057 57.0249 143.32 71.3979 141.571 85.7337C140.722 92.6794 141.41 99.452 142.62 106.229C143.831 113.018 143.254 119.857 143.329 126.675C143.349 128.548 141.402 129.754 139.825 128.729C137.141 126.987 134.769 126.967 132.089 128.7C131.426 129.128 129.89 128.848 129.116 128.342C127.016 126.975 125.127 126.893 123.101 128.371C121.722 129.38 120.264 129.211 118.943 128.247C117.107 126.909 115.344 126.86 113.504 128.219C112.001 129.326 110.47 129.223 108.922 128.21C108.197 127.741 107.365 127.432 106.303 126.917ZM32.1782 116.691C32.1782 111.915 32.1699 107.299 32.1823 102.684C32.1905 99.8885 33.6686 98.9086 36.3035 99.9461C39.6466 101.268 42.9774 102.626 46.3329 103.911C47.0781 104.195 47.9139 104.38 48.7085 104.384C57.5068 104.417 66.3092 104.405 75.1076 104.405C75.5975 104.405 76.0874 104.405 76.6515 104.405C76.6515 103.569 76.6515 102.956 76.6515 102.342C76.6515 82.3577 76.6392 62.3731 76.6721 42.3885C76.6762 40.9722 76.9232 39.5394 77.1826 38.1396C77.5037 36.4104 77.9525 34.7059 78.3478 32.9767C54.0443 32.9767 29.9425 32.9767 5.75434 32.9767C5.89021 33.5902 5.97667 34.0966 6.12077 34.5865C7.19123 38.2096 7.51648 41.8903 7.50001 45.674C7.40943 64.9916 7.4012 84.3092 7.45472 103.623C7.46707 107.653 7.29827 111.614 6.00137 115.464C5.87786 115.83 5.88609 116.238 5.82434 116.686C14.6103 116.691 23.2934 116.691 32.1782 116.691ZM81.485 42.4914C95.2569 31.3834 113.002 34.0925 122.895 44.5994C133.036 55.3657 133.649 71.789 124.583 83.3993C116.407 93.8733 97.4389 100.205 81.7032 87.29C81.7032 93.0005 81.7032 98.6574 81.7032 104.286C88.2248 104.648 94.6558 105.084 100.28 100.984C100.811 100.597 101.461 100.37 102.062 100.074C104.66 98.8057 106.291 99.802 106.307 102.676C106.32 104.866 106.311 107.052 106.311 109.259C116.991 109.259 127.473 109.259 138.013 109.259C137.89 108.312 137.803 107.448 137.655 106.591C136.449 99.6456 135.802 92.7164 136.638 85.6308C138.322 71.3979 138.104 57.132 136.729 42.8743C136.218 37.5714 135.613 32.2603 136.889 26.9533C137.383 24.8948 137.593 22.7703 137.943 20.6294C119.869 20.6294 102.034 20.6294 84.0665 20.6294C84.0665 21.2676 84.0377 21.8234 84.0706 22.3751C84.4082 28.0691 83.7165 33.6272 81.9914 39.0742C81.6456 40.1529 81.6415 41.3469 81.485 42.4914ZM37.1599 131.562C38.8356 131.562 40.4001 131.562 41.9481 131.562C41.9481 133.291 41.9481 134.851 41.9481 136.519C40.3095 136.519 38.782 136.519 37.2175 136.519C37.2175 138.594 37.2175 140.549 37.2175 142.645C39.6796 141.673 41.9769 140.652 44.3567 139.862C45.8347 139.372 47.4239 138.985 48.9678 138.977C62.1921 138.907 75.4205 139.042 88.6447 138.874C92.6754 138.82 96.385 139.31 99.7857 141.537C100.222 141.822 100.737 141.986 101.251 142.221C101.251 140.187 101.251 138.363 101.251 136.432C99.6128 136.432 98.0894 136.432 96.5208 136.432C96.5208 134.761 96.5208 133.2 96.5208 131.475C98.18 131.475 99.7404 131.475 101.284 131.475C101.284 129.783 101.284 128.26 101.284 126.572C99.6457 126.572 98.0771 126.572 96.5455 126.572C96.5455 124.842 96.5455 123.282 96.5455 121.615C98.1924 121.615 99.7157 121.615 101.264 121.615C101.264 119.939 101.264 118.383 101.264 116.658C99.5963 116.658 98.0359 116.658 96.5167 116.658C96.5167 114.965 96.5167 113.442 96.5167 111.754C98.1636 111.754 99.7281 111.754 101.26 111.754C101.26 109.778 101.26 107.97 101.26 106.002C99.8228 106.715 98.5012 107.279 97.2743 108.003C95.4833 109.057 93.6059 109.374 91.5391 109.366C78.109 109.304 64.6747 109.276 51.2446 109.378C48.0374 109.403 45.0442 108.996 42.1499 107.596C40.5771 106.834 38.8932 106.303 37.2175 105.652C37.2175 107.81 37.2175 109.741 37.2175 111.845C38.8644 111.845 40.4248 111.845 41.9481 111.845C41.9481 113.574 41.9481 115.134 41.9481 116.802C40.2971 116.802 38.7738 116.802 37.2422 116.802C37.2422 118.477 37.2422 120.034 37.2422 121.705C38.8767 121.705 40.4001 121.705 41.9811 121.705C41.9811 123.377 41.9811 124.937 41.9811 126.662C40.326 126.662 38.7656 126.662 37.1722 126.662C37.1599 128.313 37.1599 129.799 37.1599 131.562ZM81.5962 67.7048C81.5962 71.5049 81.5756 75.3009 81.6209 79.101C81.625 79.5539 81.8967 80.0809 82.1973 80.4473C86.862 86.1125 92.8936 89.2457 100.206 89.5503C115.797 90.2008 127.712 77.1001 125.802 61.5867C124.624 52.0144 117.535 43.8912 108.016 41.2069C98.5876 38.5472 88.196 41.8409 82.2138 49.4041C81.942 49.7499 81.625 50.1905 81.6209 50.594C81.5756 54.4599 81.5962 58.3301 81.5962 62.1961C83.8853 54.5176 88.7353 50.1658 95.158 50.1452C101.643 50.1287 106.451 54.4682 108.679 62.4719C111.606 62.4719 114.583 62.4719 117.555 62.4719C120.483 62.4719 121.36 63.4353 121.071 66.3091C120.124 75.8197 110.729 81.9213 101.601 79.0022C100.943 78.7922 100.094 78.8005 99.4316 79.0105C94.8451 80.4762 90.6992 79.7063 86.9814 76.6925C84.12 74.3704 82.5308 71.2702 81.5962 67.7048ZM69.2736 15.5777C69.2736 13.8897 69.2736 12.3293 69.2736 10.7977C71.0069 10.7977 72.5673 10.7977 74.2389 10.7977C74.2389 12.4404 74.2389 13.9638 74.2389 15.5077C75.9145 15.5077 77.4749 15.5077 79.2041 15.5077C79.2041 13.8444 79.2041 12.284 79.2041 10.7647C80.9004 10.7647 82.4237 10.7647 84.1118 10.7647C84.1118 12.4075 84.1118 13.9679 84.1118 15.483C85.8451 15.483 87.4055 15.483 89.077 15.483C89.077 13.8361 89.077 12.3128 89.077 10.7853C90.7527 10.7853 92.3131 10.7853 93.9847 10.7853C93.9847 12.4157 93.9847 13.9391 93.9847 15.5159C95.6603 15.5159 97.2207 15.5159 98.9499 15.5159C98.9499 13.8649 98.9499 12.3046 98.9499 10.7524C100.646 10.7524 102.17 10.7524 103.858 10.7524C103.858 12.3869 103.858 13.9473 103.858 15.4912C105.591 15.4912 107.151 15.4912 108.823 15.4912C108.823 13.8526 108.823 12.3293 108.823 10.773C110.498 10.773 112.059 10.773 113.788 10.773C113.788 12.4322 113.788 13.9926 113.788 15.5242C115.484 15.5242 117.008 15.5242 118.696 15.5242C118.696 13.8855 118.696 12.321 118.696 10.7977C120.429 10.7977 121.989 10.7977 123.661 10.7977C123.661 12.4404 123.661 13.9638 123.661 15.5036C125.337 15.5036 126.897 15.5036 128.626 15.5036C128.626 13.8402 128.626 12.2757 128.626 10.7647C130.323 10.7647 131.846 10.7647 133.534 10.7647C133.534 12.4116 133.534 13.972 133.534 15.5365C135.226 15.5365 136.753 15.5365 138.351 15.5365C138.351 12.8233 138.351 10.1801 138.351 7.20342C136.453 8.85027 134.724 8.14213 133.151 7.05932C131.615 6.00121 130.244 6.11238 128.812 7.13343C127.016 8.41386 125.184 8.48797 123.41 7.15813C121.833 5.97651 120.343 6.07532 118.811 7.1993C117.057 8.48385 115.258 8.42621 113.545 7.16636C111.968 6.00533 110.482 6.05885 108.942 7.19107C107.192 8.47561 105.397 8.43856 103.676 7.17871C102.104 6.02592 100.621 6.04238 99.0734 7.18283C97.3319 8.46326 95.5327 8.45091 93.8076 7.19107C92.2431 6.0465 90.7609 6.03003 89.2047 7.1746C87.4713 8.45503 85.6639 8.47561 83.9388 7.1993C82.3743 6.04238 80.888 6.03415 79.3359 7.17048C77.5326 8.49208 75.7251 8.4015 73.926 7.14989C73.8436 7.09225 73.7366 7.06343 73.6542 7.00579C72.4067 6.0712 71.2251 6.08767 69.8706 6.93992C68.2072 7.98567 66.4286 9.00261 64.4154 7.25282C64.4154 10.2048 64.4154 12.881 64.4154 15.59C66.021 15.5777 67.5073 15.5777 69.2736 15.5777ZM79.0806 21.8893C77.0385 23.7749 75.3587 22.7909 73.7571 21.8193C72.4108 21.0041 71.1839 20.7365 69.8335 21.7657C67.7585 23.3467 65.6546 23.1903 63.6002 21.7163C62.4227 20.8723 61.3069 20.8229 60.1088 21.6958C58.0091 23.2273 55.8517 23.3056 53.7355 21.7205C52.4921 20.79 51.3023 20.8929 50.1083 21.7575C48.0168 23.2726 45.9253 23.2438 43.8708 21.7246C42.6316 20.8106 41.45 20.8723 40.2436 21.7452C38.1645 23.2479 36.073 23.2561 34.0062 21.7328C32.7793 20.827 31.5935 20.8476 30.379 21.7369C28.2422 23.3056 26.1013 23.1903 24.0015 21.6669C22.8611 20.8394 21.7741 20.827 20.646 21.6587C18.4187 23.3014 16.1995 23.2191 13.9927 21.6052C13.9516 21.5764 13.898 21.5599 13.8569 21.5311C12.9264 20.8806 12.0536 20.8723 11.0366 21.4775C9.19627 22.5727 7.31474 23.812 5.0956 22.1116C5.0956 24.1743 5.0956 25.9982 5.0956 27.8262C29.8067 27.8262 54.4231 27.8262 79.0806 27.8262C79.0806 25.9405 79.0806 24.1537 79.0806 21.8893ZM106.353 121.483C107.353 121.956 108.333 122.306 109.189 122.854C110.581 123.743 111.874 123.883 113.257 122.862C115.171 121.45 117.131 121.384 119.07 122.829C120.483 123.879 121.854 123.83 123.262 122.796C125.143 121.417 127.049 121.442 128.947 122.813C129.194 122.99 129.524 123.051 129.771 123.229C130.627 123.842 131.409 123.727 132.311 123.233C134.18 122.216 136.029 120.771 138.347 122.607C138.347 119.7 138.347 117.057 138.347 114.368C136.708 114.368 135.148 114.368 133.419 114.368C133.419 116.024 133.419 117.588 133.419 119.12C131.722 119.12 130.199 119.12 128.507 119.12C128.507 117.481 128.507 115.917 128.507 114.393C126.774 114.393 125.209 114.393 123.542 114.393C123.542 116.04 123.542 117.563 123.542 119.095C121.866 119.095 120.301 119.095 118.63 119.095C118.63 117.465 118.63 115.941 118.63 114.36C116.954 114.36 115.394 114.36 113.665 114.36C113.665 116.011 113.665 117.572 113.665 119.124C111.968 119.124 110.445 119.124 108.757 119.124C108.757 117.489 108.757 115.925 108.757 114.385C107.851 114.385 107.114 114.385 106.357 114.385C106.353 116.859 106.353 119.214 106.353 121.483ZM32.0917 128.634C32.0917 126.267 32.0917 124.031 32.0917 121.763C23.0422 121.763 14.0833 121.763 5.0709 121.763C5.0709 123.669 5.0709 125.485 5.0709 127.654C7.19946 125.719 8.99453 126.938 10.699 127.955C11.9054 128.676 12.9429 128.783 14.0627 127.963C16.286 126.333 18.4928 126.382 20.7119 127.976C21.0001 128.181 21.3336 128.367 21.6712 128.453C22.0335 128.544 22.5605 128.671 22.787 128.494C25.8748 126.082 28.9133 126.642 32.0917 128.634ZM103.569 62.476C102.655 59.1905 100.967 56.7573 97.8218 55.5757C94.9645 54.5011 92.3419 55.1187 90.0404 57.0373C86.0056 60.401 85.3551 66.9102 88.583 71.2826C90.1557 73.4111 92.2349 74.6422 95.121 74.8027C94.7299 74.2305 94.454 73.8105 94.1658 73.4029C92.556 71.122 91.6791 68.5776 91.5103 65.8027C91.3662 63.4394 92.276 62.4884 94.6269 62.4801C97.5501 62.4678 100.473 62.476 103.569 62.476ZM96.8461 67.4578C98.0071 71.9866 102.112 74.9757 106.744 74.7945C111.042 74.6257 114.999 71.402 115.698 67.4578C109.44 67.4578 103.195 67.4578 96.8461 67.4578Z" fill="#036FB7"/>
<path d="M12.4117 78.2611C12.4117 74.9221 12.3912 71.5831 12.4159 68.2482C12.4611 62.089 16.9859 57.5478 23.1739 57.5807C24.7673 57.589 25.883 57.1402 27.0688 56.0245C35.4183 48.1772 48.6426 48.1895 57.0498 56.0121C58.0132 56.9096 58.8778 57.2102 60.0347 56.6997C62.4185 55.6457 64.827 54.637 67.1532 53.4677C68.2443 52.9201 69.2077 52.249 70.4387 52.9613C71.6533 53.6571 71.7233 54.8099 71.7191 56.0409C71.6986 61.9449 71.7233 67.853 71.7068 73.757C71.6862 79.908 67.602 84.231 61.4716 84.7045C60.9528 84.7456 60.3188 85.0997 59.9894 85.5073C50.8946 96.9571 35.4389 97.6734 25.4384 87.0389C24.8167 86.376 24.3144 86.2484 23.6186 86.6971C21.4283 88.1093 19.2009 89.4762 17.0806 90.9913C16.0719 91.7118 15.1867 92.4323 13.8857 91.8395C12.6052 91.2548 12.387 90.1597 12.3994 88.8957C12.4323 85.3467 12.4117 81.8019 12.4117 78.2611ZM17.3811 84.4862C23.3016 80.645 29.5637 79.5868 36.1965 79.7062C44.4266 79.8545 52.6609 79.7515 60.8911 79.7351C64.016 79.7268 66.5727 77.7918 66.6798 74.9015C66.8692 69.8375 66.7333 64.761 66.7333 59.6558C66.4986 59.6764 66.3339 59.6475 66.2063 59.7052C61.3522 62.0272 56.2016 62.5584 50.8864 62.5007C41.627 62.4019 32.3634 62.4595 23.104 62.4801C20.0367 62.4884 17.5005 64.551 17.4264 67.4413C17.2782 73.02 17.3811 78.6029 17.3811 84.4862ZM53.7972 84.8403C46.02 84.8403 38.3497 84.8403 30.5354 84.8403C35.3483 90.4067 46.9587 91.823 53.7972 84.8403ZM50.5612 57.4613C45.8347 54.3117 37.8021 54.3364 33.6727 57.4613C39.3008 57.4613 44.8178 57.4613 50.5612 57.4613Z" fill="#036FB7"/>
<path d="M69.2324 136.465C62.4021 136.453 56.8728 130.907 56.8892 124.089C56.9057 117.345 62.4309 111.82 69.1665 111.808C76.071 111.795 81.625 117.366 81.5921 124.266C81.5591 130.977 75.9845 136.477 69.2324 136.465ZM69.1789 116.748C65.1482 116.781 61.8463 120.1 61.838 124.126C61.8339 128.214 65.1935 131.549 69.3065 131.533C73.3207 131.516 76.6515 128.169 76.6474 124.155C76.6391 120.05 73.2796 116.719 69.1789 116.748Z" fill="#036FB7"/>
</svg>
