<svg width="152" height="146" viewBox="0 0 152 146" fill="none" xmlns="http://www.w3.org/2000/svg">
<path d="M128.604 127.128C128.57 128.8 127.206 130.053 125.489 129.986C123.976 129.927 122.712 128.603 122.705 127.072C122.697 125.444 124.11 124.098 125.775 124.15C127.414 124.199 128.637 125.485 128.604 127.128Z" fill="#036FB7"/>
<path d="M0.0464416 142.083C0.815868 140.284 2.26179 139.722 4.10916 139.786C5.7335 139.838 7.36157 139.797 9.19035 139.797C9.19035 139.09 9.19035 138.514 9.19035 137.938C9.19035 123.884 9.18291 109.83 9.19406 95.7759C9.19778 90.9474 11.5953 87.6058 15.8959 86.4907C16.8846 86.2342 17.9477 86.2342 18.9773 86.1971C20.3006 86.1488 21.6238 86.1859 23.1404 86.1859C23.1404 85.4462 23.1404 84.8701 23.1404 84.294C23.1404 75.5366 23.2853 66.7719 23.0921 58.0182C22.9545 51.8777 27.2068 47.6514 33.2619 47.9525C35.8155 48.0789 38.3802 47.9748 41.0825 47.9748C41.0825 45.2093 41.1085 42.5963 41.049 39.9906C41.0416 39.6858 40.6104 39.2138 40.2833 39.1171C34.0908 37.2586 29.556 29.4603 33.6075 21.621C36.1723 16.6625 38.5735 11.6185 41.0305 6.60423C41.6735 5.2884 42.469 4.22161 44.1119 4.22904C45.7585 4.24019 46.5242 5.34415 47.1636 6.64883C49.5982 11.6185 52.0589 16.577 54.4973 21.543C58.1437 28.9696 55.486 35.9614 47.8475 39.1246C47.5167 39.2621 47.0781 39.6858 47.0706 39.9869C47.0112 42.5963 47.0335 45.2056 47.0335 47.893C55.7722 47.893 64.3511 47.893 73.0007 47.893C73.0007 43.6816 73.0007 39.5409 73.0007 35.2551C70.6106 34.4597 68.3841 33.2479 66.7449 31.159C63.998 27.6575 63.0316 23.658 64.7749 19.6064C67.4065 13.4882 70.4694 7.54835 73.4839 1.6011C74.5879 -0.577085 77.528 -0.517612 78.6431 1.68659C81.6093 7.54835 84.6499 13.3878 87.2518 19.4131C89.8463 25.4199 86.434 32.5082 80.26 34.8202C79.8921 34.9578 79.5166 35.0767 79.0817 35.2254C79.0817 39.4256 79.0817 43.6036 79.0817 47.8782C87.6941 47.8782 96.273 47.8782 105.042 47.8782C105.042 45.1982 105.068 42.5405 105.004 39.8866C104.997 39.6078 104.499 39.2249 104.149 39.0874C96.8566 36.2067 93.9833 29.0588 97.377 21.9927C99.9046 16.7369 102.533 11.533 105.105 6.29943C105.688 5.10998 106.502 4.26249 107.919 4.23276C109.402 4.20302 110.271 5.04307 110.885 6.29571C113.479 11.5702 116.155 16.8075 118.679 22.1191C121.984 29.0774 119.081 36.1286 111.844 39.0948C111.487 39.2398 111.041 39.7379 111.033 40.0836C110.966 42.6483 110.996 45.2131 110.996 47.9674C113.907 47.9674 116.709 47.9711 119.512 47.9674C122.147 47.9599 124.493 48.7368 126.366 50.6362C128.284 52.5765 128.964 54.9703 128.953 57.6688C128.916 66.5265 128.938 75.3842 128.938 84.2419C128.938 84.8255 128.938 85.4053 128.938 86.1859C130.462 86.1859 131.83 86.1785 133.198 86.1859C139.279 86.2194 142.881 89.7989 142.885 95.8725C142.9 109.878 142.888 123.88 142.888 137.886C142.888 138.466 142.888 139.05 142.888 139.797C144.684 139.797 146.301 139.774 147.921 139.808C148.609 139.819 149.326 139.834 149.973 140.035C151.304 140.447 151.954 141.481 151.999 142.834C152.04 144.123 151.018 145.357 149.754 145.614C149.226 145.722 148.672 145.733 148.129 145.733C100.09 145.737 52.0515 145.733 4.01252 145.759C2.1986 145.759 0.83817 145.257 0.0427246 143.569C0.0464416 143.075 0.0464416 142.577 0.0464416 142.083ZM15.1599 105.373C19.6947 105.671 23.0251 108.562 26.8054 110.544C31.5186 113.012 36.3173 112.811 40.945 110.09C41.8817 109.54 42.7923 108.942 43.6993 108.339C48.3159 105.269 53.3859 104.593 58.7533 105.455C62.225 106.013 65.0945 107.856 67.9492 109.73C69.9193 111.023 72.0305 111.882 74.4169 112.09C78.1599 112.417 81.4978 111.503 84.6722 109.451C86.8912 108.02 89.2701 106.615 91.7754 105.897C98.3546 104.009 104.41 105.44 110.037 109.358C115.721 113.309 121.575 113.198 127.333 109.35C130.02 107.555 132.789 105.975 136.049 105.44C136.398 105.384 136.908 104.767 136.915 104.399C136.978 101.285 136.989 98.1659 136.923 95.0511C136.882 93.2743 135.796 92.2707 134.005 92.1406C133.462 92.1034 132.916 92.1183 132.373 92.1183C110.264 92.1183 88.155 92.1183 66.0461 92.1072C65.2618 92.1072 64.4552 92.0663 63.6969 91.8916C62.4146 91.5942 61.5076 90.3044 61.5522 89.0332C61.6042 87.6802 62.645 86.4684 64.0017 86.2677C64.6336 86.1748 65.2841 86.1822 65.9234 86.1822C84.2744 86.1785 102.622 86.1785 120.973 86.1785C121.601 86.1785 122.229 86.1785 122.902 86.1785C122.902 81.4616 122.902 76.938 122.902 72.2879C116.33 73.5963 110.625 71.8419 105.343 68.0691C101.395 65.2516 96.9347 64.9802 92.4631 66.4782C90.5376 67.1213 88.7906 68.3813 87.0585 69.5113C82.5572 72.4478 77.6507 73.1503 72.4283 72.4292C68.7781 71.9237 65.7673 70.0503 62.7974 68.0691C58.9131 65.4783 54.6831 64.9654 50.3379 66.3667C48.3121 67.0209 46.4425 68.255 44.6211 69.4109C41.2312 71.5668 37.5922 72.76 33.5667 72.6857C32.1096 72.6596 30.6562 72.5333 29.1991 72.4515C29.1991 77.0309 29.1991 81.5471 29.1991 86.1785C30.0057 86.1785 30.6897 86.1785 31.3736 86.1785C34.5405 86.1859 37.7037 86.1525 40.8706 86.2231C42.4132 86.2566 43.454 87.2304 43.6807 88.5871C43.9149 89.9922 43.2049 91.4084 41.9226 91.821C41.2349 92.044 40.4655 92.0997 39.7332 92.1034C34.6892 92.1257 29.6415 92.1146 24.5975 92.1183C22.423 92.1183 20.2448 92.0774 18.0703 92.1518C16.3308 92.2112 15.2119 93.2334 15.1748 94.9061C15.1041 98.3183 15.1599 101.727 15.1599 105.373ZM15.2231 111.146C15.2231 120.907 15.2231 130.281 15.2231 139.67C55.8317 139.67 96.3511 139.67 136.893 139.67C136.893 130.207 136.893 120.873 136.893 111.317C136.049 111.577 135.257 111.696 134.596 112.053C132.86 112.989 131.143 113.971 129.485 115.041C125.154 117.829 120.426 118.52 115.412 117.907C111.762 117.461 108.725 115.651 105.722 113.699C100.135 110.072 94.5112 110.098 88.9133 113.714C88.2479 114.142 87.5789 114.565 86.9173 114.997C82.5683 117.855 77.7808 118.524 72.7145 117.892C68.8487 117.409 65.745 115.305 62.5298 113.343C57.4003 110.213 52.1704 110.205 46.9814 113.294C46.0893 113.826 45.2307 114.409 44.3609 114.974C39.4767 118.152 34.1539 118.725 28.5598 117.595C25.0249 116.881 22.2334 114.666 19.1966 112.934C17.9923 112.246 16.6616 111.785 15.2231 111.146ZM76.0486 53.9072C61.857 53.9072 47.6617 53.9072 33.47 53.9072C33.024 53.9072 32.5779 53.8849 32.1356 53.9184C30.225 54.0708 29.136 55.145 29.0988 57.0667C29.0467 59.7876 29.043 62.5084 29.1211 65.2256C29.1322 65.6233 29.6526 66.2738 30.0355 66.3555C33.89 67.1696 37.5959 66.8165 41.0044 64.6569C42.0489 63.9952 43.0748 63.3076 44.1305 62.6645C46.8253 61.0142 49.7209 60.0477 52.9027 59.769C58.5228 59.2783 63.3773 61.0736 67.886 64.2666C71.841 67.0655 76.268 67.4595 80.7544 65.9801C82.7282 65.3297 84.5272 64.0584 86.3002 62.9099C90.8536 59.9511 95.8047 59.2449 101.075 60.0069C104.77 60.5421 107.792 62.5084 110.81 64.497C114.226 66.7496 117.954 67.1324 121.898 66.4485C122.768 66.2961 123.036 65.9467 123.021 65.0955C122.972 62.7723 123.006 60.4455 123.006 58.1223C123.002 54.7881 122.121 53.9109 118.78 53.9109C104.532 53.9072 90.2923 53.9072 76.0486 53.9072ZM44.0859 13.8227C42.0787 17.93 40.157 21.6545 38.436 25.4682C37.3209 27.9363 38.2799 30.9062 40.3986 32.4859C42.6883 34.1921 45.5281 34.1809 47.8066 32.4599C49.9588 30.8319 50.8583 27.9772 49.7172 25.4384C47.9925 21.621 46.0708 17.8929 44.0859 13.8227ZM108.023 13.8376C107.157 15.5809 106.447 16.9896 105.751 18.4058C104.603 20.755 103.369 23.067 102.347 25.4682C101.284 27.966 102.124 30.7947 104.187 32.393C106.413 34.1177 109.249 34.2106 111.476 32.6346C113.698 31.0623 114.799 28.1667 113.721 25.7135C112.004 21.7957 110.03 17.9895 108.023 13.8376ZM76.0449 9.62246C73.9671 13.9417 71.9302 17.8185 70.2352 21.8403C69.2428 24.1969 70.4434 26.981 72.5658 28.4976C74.6213 29.9658 77.45 29.9732 79.5055 28.5124C81.6353 26.9959 82.8508 24.2267 81.8584 21.8626C80.1671 17.8371 78.1227 13.9565 76.0449 9.62246Z" fill="#036FB7"/>
<path d="M93.5299 77.436C93.5076 75.7931 94.7417 74.4959 96.3771 74.4513C98.0387 74.4066 99.4549 75.7819 99.4363 77.4137C99.4177 78.9935 98.0647 80.3205 96.4701 80.3279C94.8346 80.339 93.5522 79.0752 93.5299 77.436Z" fill="#036FB7"/>
<path d="M52.6016 86.2082C54.2594 86.1822 55.5418 87.394 55.5901 89.0257C55.6384 90.717 54.3672 92.0328 52.6425 92.0774C51.1222 92.1183 49.7098 90.7133 49.6949 89.1484C49.6763 87.5612 50.9921 86.2342 52.6016 86.2082Z" fill="#036FB7"/>
<path d="M57.6456 70.4592C59.3442 70.4443 60.5857 71.6114 60.6229 73.2618C60.6601 74.9679 59.3628 76.2912 57.6641 76.2763C56.0509 76.2614 54.7314 74.9493 54.724 73.3547C54.7165 71.7304 55.984 70.474 57.6456 70.4592Z" fill="#036FB7"/>
<path d="M57.9318 121.26C59.6305 121.238 60.8794 122.408 60.9203 124.055C60.9649 125.743 59.6379 127.114 57.9727 127.099C56.3781 127.088 55.0325 125.75 55.0177 124.167C55.0028 122.561 56.2852 121.278 57.9318 121.26Z" fill="#036FB7"/>
<path d="M23.1627 132.943C23.1999 131.318 24.4934 130.08 26.14 130.099C27.7495 130.118 29.0654 131.433 29.0654 133.028C29.0616 134.619 27.7161 135.964 26.1363 135.95C24.3968 135.927 23.1218 134.637 23.1627 132.943Z" fill="#036FB7"/>
<path d="M92.3813 130.14C94.0279 130.162 95.3029 131.441 95.288 133.047C95.2731 134.663 93.8532 135.983 92.1731 135.946C90.5822 135.909 89.3296 134.556 89.3816 132.92C89.43 131.288 90.69 130.118 92.3813 130.14Z" fill="#036FB7"/>
</svg>
