<svg width="159" height="158" viewBox="0 0 159 158" fill="none" xmlns="http://www.w3.org/2000/svg">
<path d="M158.098 27.8072C157.839 28.8942 157.629 29.9934 157.308 31.0598C154.454 40.6362 148.155 46.499 138.328 48.537C137.834 48.64 137.344 48.7511 136.491 48.9323C136.491 52.9053 136.808 56.9319 136.438 60.8926C134.659 79.9261 127.314 96.1765 111.657 107.894C102.809 114.514 92.6685 117.293 81.6264 116.548C69.3367 115.721 59.472 104.818 59.1591 92.0799C58.7474 75.4467 71.7946 66.1131 84.9859 66.0102C93.4261 65.9443 100.664 69.2051 107.128 74.1786C111.509 77.5505 115.465 81.4824 119.545 85.2372C120.9 86.4847 120.916 87.9833 119.854 89.0291C118.742 90.1201 117.31 89.9802 115.955 88.5721C110.805 83.2198 105.374 78.2051 98.7866 74.6315C91.2893 70.5637 83.5491 69.4809 75.5453 73.0628C65.8454 77.4023 62.5269 87.2093 64.6679 96.5841C66.7758 105.806 75.2324 112.048 84.7718 111.739C99.8859 111.245 111.397 104.057 120.274 92.3352C128.529 81.4371 131.707 68.8551 131.773 55.3633C131.785 53.2141 131.773 51.065 131.773 49.134C129.142 48.2982 126.577 47.7959 124.301 46.6967C115.395 42.4066 110.656 35.1893 110.343 25.3411C110.109 17.9508 110.282 10.5482 110.298 3.1538C110.302 0.947008 111.196 0.086526 113.402 0.0700574C115.407 0.057706 117.417 0.0453546 119.422 0.0741746C121.093 0.0988774 122.209 1.10346 122.213 2.52387C122.217 3.94429 121.101 4.94887 119.438 4.99416C118.154 5.03121 116.869 5.03121 115.585 5.0518C115.539 5.0518 115.494 5.08473 115.354 5.13826C115.317 5.43469 115.239 5.77641 115.239 6.11814C115.23 12.4874 115.177 18.8566 115.251 25.2258C115.346 33.2583 120.307 40.1216 127.874 42.8801C135.059 45.4986 143.26 43.3865 148.402 37.569C151.107 34.5099 152.898 30.928 153.022 26.8809C153.244 19.6553 153.083 12.4174 153.083 4.99416C152.091 4.99416 151.128 5.02709 150.173 4.98592C148.588 4.92005 147.583 3.94017 147.587 2.51976C147.591 1.09934 148.596 0.119463 150.193 0.0782917C151.943 0.0371203 153.717 -0.102862 155.434 0.135932C156.373 0.26768 157.213 1.09523 158.098 1.60575C158.098 10.3423 158.098 19.0748 158.098 27.8072Z" fill="#036FB7"/>
<path d="M-6.10352e-05 31.1956C0.893358 29.9728 2.08733 29.6229 3.5942 29.6393C10.6427 29.7011 17.6913 29.6682 24.7398 29.6682C25.0486 29.6682 25.3574 29.6558 25.6662 29.6723C27.3007 29.7546 28.4206 30.8168 28.3711 32.2249C28.3217 33.6041 27.2595 34.5799 25.6662 34.5881C21.4996 34.6128 17.3331 34.5964 13.1624 34.5964C10.4945 34.5964 7.82662 34.5964 5.05167 34.5964C5.05167 74.0427 5.05167 113.394 5.05167 152.837C35.0738 152.837 65.0878 152.837 95.2829 152.837C95.2829 152.19 95.2829 151.585 95.2829 150.98C95.2829 141.634 95.2829 132.288 95.2829 122.942C95.2829 122.53 95.2788 122.119 95.2829 121.711C95.2994 119.442 96.1022 118.351 97.7491 118.355C99.3959 118.36 100.219 119.459 100.219 121.723C100.223 132.609 100.207 143.495 100.24 154.38C100.244 155.891 99.8859 157.098 98.5025 157.859C65.6683 157.859 32.8341 157.859 -6.10352e-05 157.859C-6.10352e-05 115.638 -6.10352e-05 73.4169 -6.10352e-05 31.1956Z" fill="#036FB7"/>
<path d="M13.6852 144.256C38.0134 144.256 62.2346 144.256 86.6739 144.256C86.6739 143.655 86.6739 143.112 86.6739 142.564C86.6739 136.146 86.6451 129.723 86.711 123.304C86.7192 122.456 87.0033 121.419 87.5467 120.809C88.6913 119.529 90.8693 120.142 91.4004 121.797C91.5856 122.37 91.6021 123.012 91.6021 123.621C91.6145 131.016 91.6145 138.41 91.6062 145.809C91.6021 148.518 90.8528 149.242 88.0861 149.242C62.7698 149.242 37.4535 149.242 12.1372 149.242C9.30461 149.242 8.62939 148.559 8.62939 145.681C8.62939 111.068 8.62939 76.4512 8.62939 41.8384C8.62939 38.977 9.31696 38.2771 12.1454 38.2771C37.4617 38.2771 62.778 38.2771 88.0943 38.2771C90.8446 38.2771 91.6021 39.0182 91.6062 41.7273C91.6145 47.6312 91.6104 53.5393 91.6021 59.4433C91.6021 59.9538 91.598 60.4808 91.4827 60.9708C91.1863 62.2347 90.3217 62.9429 89.0454 62.8935C87.7073 62.84 86.7892 62.0701 86.7233 60.6867C86.6327 58.7393 86.6739 56.7836 86.6698 54.8362C86.6657 51.0443 86.6698 47.2483 86.6698 43.3371C62.3045 43.3371 38.0505 43.3371 13.6811 43.3371C13.6852 76.9 13.6852 110.504 13.6852 144.256Z" fill="#036FB7"/>
<path d="M137.821 117.623C133.972 112.044 130.291 106.667 126.565 101.327C125.107 99.2355 124.98 97.9139 126.322 96.8928C127.644 95.8841 129.105 96.3288 130.501 98.3585C134.046 103.517 137.57 108.697 141.016 113.921C141.695 114.951 142.214 115.296 143.54 115.099C149.209 114.263 154.549 117.726 156.221 123.115C157.909 128.554 155.471 134.355 150.407 136.961C145.372 139.551 139.159 138.13 135.75 133.605C132.321 129.056 132.646 122.839 136.553 118.623C136.825 118.335 137.191 118.117 137.821 117.623ZM145.071 119.916C141.226 119.891 138.204 122.876 138.208 126.689C138.216 130.419 141.193 133.428 144.932 133.49C148.6 133.548 151.741 130.518 151.828 126.833C151.914 123.074 148.855 119.941 145.071 119.916Z" fill="#036FB7"/>
<path d="M50.0232 34.5964C44.9303 34.5964 39.8333 34.6005 34.7404 34.5964C32.126 34.5923 31.1708 33.4107 31.7678 30.9157C32.3771 28.3713 32.9988 25.831 33.6452 23.299C34.0899 21.5615 34.7857 21.014 36.589 21.0098C45.5932 21.0016 54.6015 21.0016 63.6056 21.0098C65.3925 21.0098 66.1418 21.578 66.5823 23.2825C67.2493 25.8639 67.8998 28.4495 68.4968 31.0515C69.032 33.3777 68.0316 34.5923 65.6148 34.5964C60.419 34.6046 55.219 34.5964 50.0232 34.5964ZM37.186 29.59C45.9061 29.59 54.4079 29.59 63.0045 29.59C62.8398 28.853 62.6134 28.2148 62.5681 27.5643C62.4693 26.1768 61.7365 25.8886 60.4396 25.9051C55.252 25.9792 50.0644 25.9339 44.8768 25.9339C42.6247 25.9339 40.3726 25.9339 38.0753 25.9339C37.7706 27.1814 37.4947 28.3178 37.186 29.59Z" fill="#036FB7"/>
<path d="M95.2788 34.5964C88.6173 34.5964 82.2439 34.5964 75.8706 34.5964C75.356 34.5964 74.8372 34.6376 74.3308 34.5717C72.968 34.3988 72.1775 33.5753 72.1116 32.2332C72.0499 30.9486 72.7704 30.1005 74.0014 29.7629C74.4378 29.6435 74.9195 29.6723 75.3807 29.6682C82.528 29.6641 89.6713 29.6599 96.8186 29.6682C99.4206 29.6682 100.215 30.4587 100.215 33.0772C100.223 41.9043 100.223 50.7273 100.211 59.5545C100.211 60.1144 100.314 60.8637 100.009 61.1931C99.3712 61.8848 98.556 62.6794 97.6997 62.84C96.5633 63.0541 95.6617 62.2389 95.3941 61.0325C95.2623 60.4397 95.2829 59.8098 95.2829 59.1963C95.2747 51.6537 95.2788 44.1111 95.2788 36.5685C95.2788 35.9633 95.2788 35.3622 95.2788 34.5964Z" fill="#036FB7"/>
<path d="M50.1673 126.721C58.241 126.721 66.3188 126.721 74.3925 126.721C74.8536 126.721 75.323 126.693 75.78 126.742C77.151 126.882 77.9662 127.697 78.0568 129.027C78.1515 130.382 77.3651 131.254 76.0641 131.571C75.5247 131.703 74.9401 131.65 74.376 131.65C58.2245 131.654 42.0771 131.654 25.9255 131.654C25.7197 131.654 25.5138 131.658 25.308 131.654C23.3729 131.621 22.2366 130.699 22.2407 129.163C22.2448 127.623 23.3606 126.726 25.3203 126.726C33.6081 126.717 41.8877 126.721 50.1673 126.721Z" fill="#036FB7"/>
<path d="M44.7944 62.1483C38.524 62.1483 32.2536 62.1524 25.9873 62.1442C25.3739 62.1442 24.7398 62.1607 24.147 62.033C22.9406 61.7736 22.286 60.9337 22.2613 59.7315C22.2366 58.5252 22.8707 57.6689 24.0605 57.3642C24.6451 57.216 25.2833 57.2201 25.8968 57.2201C38.4376 57.2119 50.9743 57.216 63.5151 57.216C63.7209 57.216 63.9268 57.2119 64.1326 57.216C66.08 57.2654 67.1999 58.1835 67.1793 59.7151C67.1587 61.2466 66.0594 62.1318 64.0668 62.136C57.6399 62.1565 51.2172 62.1483 44.7944 62.1483Z" fill="#036FB7"/>
<path d="M86.6739 91.7546C86.6739 87.0282 86.6286 82.3058 86.7192 77.5834C86.7357 76.7559 87.1103 75.7266 87.6867 75.1584C88.8642 73.9974 90.9022 74.6726 91.4086 76.2824C91.5898 76.8547 91.6063 77.497 91.6063 78.1063C91.6186 87.2464 91.6145 96.3864 91.6104 105.531C91.6104 105.942 91.6186 106.358 91.5527 106.757C91.3222 108.17 90.3588 108.981 89.0166 108.935C87.695 108.89 86.7768 107.989 86.7027 106.548C86.6369 105.267 86.6739 103.983 86.6739 102.698C86.6698 99.0502 86.6739 95.4024 86.6739 91.7546Z" fill="#036FB7"/>
<path d="M38.7505 74.6109C43.1682 74.6109 47.59 74.6026 52.0076 74.615C53.9921 74.6191 55.0461 75.5043 55.0296 77.0853C55.0132 78.658 53.9468 79.535 51.9624 79.5391C43.0735 79.5473 34.1804 79.5473 25.2915 79.5391C23.3688 79.535 22.2284 78.5716 22.2407 77.04C22.2531 75.5084 23.3647 74.6232 25.3368 74.6191C29.808 74.6068 34.2792 74.6109 38.7505 74.6109Z" fill="#036FB7"/>
<path d="M38.5446 96.8764C34.1269 96.8764 29.7051 96.8846 25.2874 96.8723C23.34 96.8681 22.2283 95.9418 22.2448 94.3979C22.2613 92.8704 23.3935 91.9523 25.345 91.9482C34.2339 91.9399 43.1269 91.9399 52.0158 91.9482C53.9715 91.9523 55.0461 92.8704 55.0337 94.4514C55.0214 96.0077 53.9509 96.864 51.9582 96.8681C47.487 96.8846 43.0158 96.8764 38.5446 96.8764Z" fill="#036FB7"/>
<path d="M38.7586 114.271C34.4439 114.271 30.1291 114.275 25.8143 114.267C25.2503 114.267 24.6698 114.275 24.1304 114.144C22.8665 113.835 22.2036 112.954 22.2654 111.678C22.323 110.479 23.0065 109.677 24.221 109.438C24.6698 109.351 25.1391 109.347 25.6003 109.347C34.2833 109.343 42.9664 109.343 51.6453 109.347C52.1064 109.347 52.5758 109.347 53.0245 109.43C54.3091 109.668 55.009 110.484 55.0213 111.776C55.0337 113.069 54.3585 113.905 53.078 114.168C52.5799 114.271 52.057 114.267 51.5465 114.267C47.2893 114.275 43.024 114.271 38.7586 114.271Z" fill="#036FB7"/>
<path d="M95.2911 91.9111C95.2911 88.0657 95.2582 84.2203 95.3076 80.379C95.3281 78.8021 96.4192 77.7728 97.7943 77.8099C99.1077 77.847 100.063 78.8351 100.199 80.3337C100.24 80.7907 100.219 81.2559 100.219 81.7171C100.219 87.7157 100.219 93.7103 100.219 99.709C100.219 100.886 100.24 102.068 100.211 103.246C100.166 105.119 99.2806 106.148 97.7614 106.161C96.2339 106.173 95.3034 105.148 95.2911 103.287C95.2623 99.4949 95.2828 95.6989 95.2828 91.907C95.287 91.9111 95.2911 91.9111 95.2911 91.9111Z" fill="#036FB7"/>
</svg>
