<svg width="159" height="147" viewBox="0 0 159 147" fill="none" xmlns="http://www.w3.org/2000/svg">
<path d="M0.0124216 95.5488C1.37465 91.8631 4.02458 90.4169 7.93323 90.5532C13.1006 90.7309 18.2804 90.6193 23.4519 90.5863C25.5884 90.5739 27.373 91.2309 28.8718 92.7927C29.1824 93.1192 29.9608 93.2968 30.3955 93.1522C32.0103 92.6192 33.5962 91.9788 35.1281 91.2515C35.5629 91.0449 36.0722 90.4086 36.0722 89.9665C36.126 81.5497 36.126 73.1329 36.0763 64.7202C36.0722 64.2946 35.6623 63.6872 35.2731 63.4765C31.9814 61.7245 30.3997 59.0346 30.4245 55.32C30.4576 49.5889 30.4204 43.8579 30.4369 38.1269C30.4494 33.1024 33.9854 29.5572 39.0202 29.5365C44.8004 29.5117 50.5847 29.5324 56.4601 29.2927C55.8597 28.9539 55.2552 28.6192 54.6631 28.268C50.005 25.5079 46.4359 21.9006 45.2559 16.3886C43.227 6.90575 51.3962 -1.478 60.9815 0.220235C66.6789 1.22843 71.1589 4.31914 75.1794 8.24038C79.5145 12.4632 82.9346 17.3472 85.6259 22.7477C85.8246 23.1485 86.0441 23.5452 86.3712 24.165C87.0709 22.8179 87.6299 21.6362 88.2758 20.504C92.4205 13.2153 97.5671 6.83964 104.987 2.61677C108.482 0.629299 112.27 -0.432615 116.299 0.236763C125.665 1.79038 130.435 11.3476 126.224 19.9793C124.365 23.789 121.317 26.4293 117.678 28.4663C117.201 28.7349 116.725 29.0035 116.299 29.5241C116.837 29.5241 117.375 29.5241 117.914 29.5241C124.381 29.5241 130.849 29.5117 137.316 29.5283C142.334 29.5448 145.933 33.1065 145.953 38.0855C145.978 43.9199 145.97 49.7542 145.953 55.5885C145.945 59.1007 144.405 61.7369 141.25 63.3318C140.504 63.7079 140.194 64.1128 140.198 64.964C140.227 75.4468 140.214 85.9254 140.223 96.4082C140.223 96.7057 140.293 97.0032 140.359 97.5362C141.279 97.0445 142.107 96.6603 142.877 96.181C149.531 92.0407 155.493 95.9413 157.87 101.371C158.317 102.391 158.627 103.478 159 104.532C159 105.771 159 107.011 159 108.25C158.255 110.655 157.145 112.796 154.917 114.213C138.939 124.39 122.977 134.592 106.991 144.752C104.594 146.277 101.927 147.004 99.0536 147C81.8332 146.988 64.6128 147.021 47.3924 146.955C45.5167 146.946 43.5789 146.587 41.7737 146.05C37.687 144.827 33.6624 143.389 29.526 142.009C27.8119 144.62 25.2903 145.211 22.3712 145.149C17.6138 145.046 12.8522 144.984 8.09885 145.165C4.16122 145.314 1.41606 143.909 0 140.17C0.0124216 125.299 0.0124216 110.424 0.0124216 95.5488ZM72.9435 141.761C81.4812 141.761 90.019 141.736 98.5567 141.777C100.751 141.785 102.747 141.269 104.581 140.1C120.303 130.071 136.02 120.047 151.721 109.986C152.383 109.56 153.021 108.912 153.373 108.213C154.375 106.242 153.311 102.871 151.216 100.941C149.514 99.375 148.115 99.313 145.576 100.693C134.596 106.651 123.603 112.585 112.643 118.584C109.301 120.415 105.815 121.345 101.981 121.32C91.2694 121.245 80.5579 121.295 69.8464 121.291C69.3826 121.291 68.9106 121.316 68.451 121.258C67.1592 121.097 66.3849 120.316 66.1862 119.072C65.9833 117.804 66.5464 116.82 67.7223 116.328C68.3185 116.08 69.0266 116.035 69.6849 116.031C75.0676 116.01 80.4668 115.742 85.8246 116.097C90.8678 116.432 95.1325 115.147 99.0743 112.089C101.372 110.308 102.337 108.527 101.625 106.205C100.888 103.813 99.1737 102.672 96.2836 102.668C89.0915 102.664 81.8953 102.627 74.7032 102.689C71.78 102.714 69.1011 102.057 66.5422 100.664C62.0084 98.1974 57.4248 95.8215 52.8785 93.3712C50.3528 92.0118 47.8271 91.8093 45.1441 92.9167C40.6143 94.7844 36.0556 96.5859 31.4928 98.375C30.7102 98.6808 30.4121 99.0775 30.4121 99.9534C30.4452 111.833 30.4494 123.708 30.408 135.587C30.4038 136.567 30.7682 136.897 31.6377 137.174C35.2192 138.331 38.7428 139.678 42.3492 140.744C44.2497 141.306 46.2786 141.682 48.2577 141.707C56.4891 141.823 64.7163 141.761 72.9435 141.761ZM134.96 64.3607C119.533 64.3607 104.304 64.3607 89.0832 64.3607C89.0832 75.4096 89.0832 86.3304 89.0832 97.3999C91.8118 97.3999 94.4411 97.3834 97.0661 97.404C103.608 97.4536 108.332 103.511 106.875 109.903C106.316 112.353 104.871 114.213 102.913 115.981C105.525 116.109 107.624 115.304 109.641 114.213C117.673 109.858 125.69 105.482 133.747 101.176C134.749 100.643 134.977 100.015 134.973 98.9907C134.944 87.9955 134.956 77.0004 134.956 66.0011C134.96 65.4515 134.96 64.8979 134.96 64.3607ZM83.5929 97.3916C83.5929 86.256 83.5929 75.2939 83.5929 64.307C69.511 64.307 55.5533 64.307 41.5211 64.307C41.5211 72.4346 41.5211 80.4919 41.5211 88.6525C41.9517 88.5162 42.254 88.4542 42.5273 88.3261C47.2185 86.1692 51.7068 86.6279 56.1578 89.1484C60.4267 91.5614 64.7825 93.8257 69.1466 96.057C70.3639 96.6809 71.7427 97.2635 73.076 97.3296C76.5292 97.5115 79.9989 97.3916 83.5929 97.3916ZM98.8259 34.7965C101.347 38.0525 103.662 41.1556 106.105 44.1554C107.633 46.0313 109.306 47.7957 110.991 49.5352C112.258 50.8409 112.523 52.3367 111.508 53.4895C110.502 54.6299 108.871 54.7043 107.513 53.4854C106.134 52.2458 104.788 50.9401 103.612 49.5146C100.822 46.1264 98.2131 42.5935 95.3934 39.2342C93.7703 37.2963 91.7456 35.8047 89.0998 35.1725C89.0998 43.1679 89.0998 51.0269 89.0998 58.8776C89.3689 58.9189 89.5221 58.9644 89.6712 58.9644C105.554 58.9685 121.433 58.9809 137.316 58.9602C139.477 58.9561 140.678 57.638 140.686 55.3943C140.703 49.8699 140.695 44.3455 140.691 38.821C140.691 35.7634 139.697 34.7924 136.579 34.7924C124.526 34.7924 112.473 34.7924 100.42 34.7924C99.919 34.7965 99.4221 34.7965 98.8259 34.7965ZM74.1898 34.8667C73.548 34.8213 73.3451 34.7965 73.1422 34.7965C61.8138 34.7924 50.4812 34.7882 39.1527 34.8006C36.8754 34.8048 35.7244 35.9617 35.7161 38.2384C35.6995 43.7629 35.7078 49.2873 35.712 54.8117C35.712 57.9768 36.7098 58.9726 39.8732 58.9726C53.893 58.9726 67.9128 58.9726 81.9326 58.9726C82.4874 58.9726 83.0381 58.9726 83.6384 58.9726C83.6384 50.9484 83.6384 43.0976 83.6384 34.7469C81.8622 35.8502 80.1314 36.5071 78.9845 37.7137C76.3304 40.5151 73.991 43.61 71.4612 46.5313C69.3702 48.9444 67.2586 51.3533 65.0061 53.6135C63.8136 54.8076 62.1078 54.568 61.1554 53.411C60.2197 52.2747 60.4681 50.936 61.5529 49.6798C65.7307 44.862 69.8381 39.9863 74.1898 34.8667ZM5.29158 117.688C5.29158 124.448 5.31642 131.203 5.27088 137.963C5.2626 139.364 5.7843 139.889 7.18794 139.876C12.5126 139.831 17.8373 139.827 23.1621 139.881C24.6278 139.897 25.1826 139.372 25.1785 137.893C25.1454 124.53 25.1454 111.172 25.1785 97.809C25.1826 96.3256 24.6402 95.8132 23.1703 95.8297C17.8995 95.8876 12.6244 95.8504 7.35356 95.8545C5.46962 95.8545 5.29158 96.0281 5.29158 97.8792C5.28744 104.482 5.29158 111.085 5.29158 117.688ZM90.1266 29.1605C91.1162 29.1605 91.9899 29.2473 92.8387 29.144C95.8116 28.7928 98.7927 28.487 101.737 27.9664C106.515 27.1193 111.26 26.0781 115.529 23.6278C118.369 21.9998 120.708 19.8595 121.876 16.6985C123.785 11.517 120.87 6.30248 115.545 5.45543C112.726 5.00918 110.134 5.88102 107.674 7.18672C103.819 9.23618 100.755 12.2112 98.0226 15.5416C94.6688 19.6281 91.9816 24.103 90.1266 29.1605ZM82.6116 29.4911C82.3922 28.7969 82.3135 28.4539 82.181 28.1275C79.9327 22.6361 76.7983 17.6984 72.7323 13.3681C69.6311 10.0667 66.2027 7.20325 61.7517 5.8521C56.4684 4.2489 51.6612 6.62065 50.4977 11.5005C49.7235 14.7441 50.7048 17.6075 52.8454 20.1032C54.7004 22.2601 56.9818 23.917 59.64 24.8219C63.1884 26.0285 66.8072 27.1276 70.4757 27.8631C74.3968 28.644 78.4131 28.9498 82.6116 29.4911Z" fill="#036FB7"/>
</svg>
