<svg width="149" height="129" viewBox="0 0 149 129" fill="none" xmlns="http://www.w3.org/2000/svg">
<path d="M10.0802 69.5138C10.0802 61.5389 10.0925 53.6299 10.039 45.7209C10.0349 45.3668 9.49556 44.8027 9.10443 44.6916C3.43513 43.0612 -0.0356178 38.6641 0.260816 32.8836C0.771342 22.9819 1.47126 13.0925 2.11353 3.19904C2.22057 1.5563 3.36926 0.498198 4.76908 0.601127C6.20597 0.708172 7.11174 1.80745 7.00881 3.53665C6.56004 11.0751 6.11539 18.6136 5.55134 26.1397C5.4443 27.5519 5.83954 28.2889 7.13232 28.5894C9.66848 29.1823 12.2088 29.7381 15.0125 30.3722C15.0125 29.4705 15.0125 28.9229 15.0125 28.3754C15.0125 20.4128 15.0125 12.4461 15.0125 4.48359C15.0125 4.07188 15.0002 3.66016 15.0166 3.25256C15.0825 1.65511 16.0212 0.617595 17.4128 0.580541C18.8621 0.543487 19.9243 1.61806 19.9325 3.28138C19.9613 8.67484 19.9449 14.0724 19.9449 19.4659C19.9449 22.9531 19.9449 26.4362 19.9449 30.0387C23.0039 29.9028 25.8365 29.4046 28.5703 28.3012C29.6572 27.8607 29.4308 27.0785 29.3772 26.2674C28.9079 19.0418 28.4385 11.8121 27.9774 4.58652C27.9486 4.1254 27.9239 3.66016 27.9362 3.19904C27.965 1.71687 28.8832 0.679352 30.2212 0.59701C31.514 0.514667 32.6668 1.46984 32.815 2.92319C33.0085 4.81296 33.0744 6.71508 33.1938 8.61308C33.5026 13.4795 33.8114 18.346 34.1366 23.5336C46.5581 12.6191 60.8528 7.25443 77.169 8.07785C93.5058 8.9054 107.199 15.6699 118.592 27.9307C118.592 26.2262 118.592 24.8675 118.592 23.5089C118.6 10.2146 128.234 0.584658 141.532 0.572307C142.866 0.572307 144.204 0.543487 145.538 0.584658C147.185 0.634064 148.083 1.54395 148.177 3.17434C148.194 3.4296 148.181 3.68898 148.181 3.94424C148.181 42.1184 148.186 80.2966 148.177 118.471C148.177 123.403 145.275 127.339 140.857 128.484C134.57 130.11 128.518 125.527 128.469 118.989C128.407 110.409 128.452 101.829 128.452 93.2491C128.452 92.7015 128.452 92.1498 128.452 91.2153C118.538 111.068 103.115 123.152 81.3355 125.803C59.5353 128.459 41.671 120.389 27.3475 103.554C27.3475 104.287 27.3475 104.777 27.3475 105.263C27.3475 109.837 27.3845 114.411 27.3351 118.981C27.2693 124.535 22.8598 128.858 17.384 128.813C11.9905 128.768 7.64697 124.441 7.63461 118.936C7.59756 103.521 7.63461 88.1068 7.60168 72.6922C7.59344 70.9178 8.3757 69.9091 10.0802 69.5138ZM24.8813 69.5262C26.944 69.9338 27.3845 71.3171 27.3681 73.1781C27.3104 79.8561 27.3228 86.5341 27.3763 93.2121C27.3845 94.0273 27.6274 94.9577 28.0721 95.6329C40.193 113.967 57.2667 123.07 79.174 121.003C101.658 118.882 116.99 106.42 125.245 85.4183C126.579 82.0217 127.209 78.3533 128.23 74.5614C125.883 74.5614 123.993 74.5614 122.099 74.5614C119.296 74.5573 118.587 73.8368 118.587 70.9836C118.587 59.785 118.604 48.5864 118.55 37.3837C118.546 36.5438 118.233 35.5515 117.727 34.8846C107.986 22.0555 95.1156 14.6323 79.0546 13.2078C62.2732 11.7174 47.8632 17.1767 35.767 28.8694C34.8695 29.734 34.5648 30.5739 34.6513 31.8255C35.1248 38.4294 32.1316 42.6371 25.6842 44.7163C25.3424 44.8274 24.9142 45.3874 24.9101 45.7414C24.869 53.6464 24.8813 61.5554 24.8813 69.5262ZM143.175 5.62815C132.462 4.45477 123.573 12.2773 123.536 22.9243C123.483 38.0795 123.52 53.2346 123.528 68.3898C123.528 68.781 123.598 69.168 123.635 69.5468C130.202 69.5468 136.653 69.5468 143.179 69.5468C143.175 48.2241 143.175 26.9755 143.175 5.62815ZM22.411 74.6808C19.0062 74.6808 15.8071 74.6808 12.5464 74.6808C12.5464 82.8081 12.5464 90.82 12.5464 98.8279C12.5464 105.452 12.5381 112.077 12.5505 118.701C12.5546 121.003 13.728 122.761 15.696 123.543C19.0473 124.877 22.3987 122.378 22.4028 118.504C22.4151 104.279 22.4069 90.0501 22.4069 75.8254C22.411 75.4713 22.411 75.1172 22.411 74.6808ZM133.384 74.6273C133.384 80.4119 133.384 86.0524 133.384 91.697C133.384 100.631 133.397 109.569 133.376 118.504C133.372 120.793 134.278 122.497 136.357 123.452C139.7 124.992 143.237 122.477 143.241 118.549C143.257 104.271 143.249 89.9925 143.245 75.7183C143.245 75.3725 143.208 75.0308 143.183 74.6273C139.914 74.6273 136.748 74.6273 133.384 74.6273ZM19.8378 69.5591C19.8378 61.3042 19.8378 53.177 19.8378 45.0909C18.1704 45.0909 16.6141 45.0909 15.0949 45.0909C15.0949 53.3088 15.0949 61.3989 15.0949 69.5591C16.6964 69.5591 18.2157 69.5591 19.8378 69.5591ZM5.25902 33.2665C5.09846 36.7949 7.69225 39.8539 11.163 39.9775C15.3707 40.1257 19.5908 40.1298 23.7944 39.9775C27.3557 39.8457 30.1883 36.4244 29.5996 33.3036C22.271 35.6956 12.7563 35.7492 5.25902 33.2665Z" fill="#036FB7"/>
<path d="M34.7419 67.1917C34.7172 45.4574 52.4086 27.696 74.0812 27.7001C95.9885 27.7043 113.667 45.3874 113.655 67.2864C113.643 88.8973 95.9226 106.609 74.3076 106.622C52.458 106.634 34.7707 89.0043 34.7419 67.1917ZM74.1841 32.6325C55.1465 32.6448 39.6948 48.0923 39.6742 67.13C39.6578 86.1429 55.1835 101.714 74.1265 101.685C93.2671 101.656 108.694 86.2335 108.719 67.1012C108.748 48.1417 93.1929 32.6201 74.1841 32.6325Z" fill="#036FB7"/>
</svg>
