<svg width="151" height="153" viewBox="0 0 151 153" fill="none" xmlns="http://www.w3.org/2000/svg">
<path d="M132.693 123.828C137.498 125.846 139.577 129.51 139.404 134.656C139.289 138.094 139.396 141.54 139.375 144.982C139.363 147.094 138.482 147.979 136.37 147.983C130.878 147.996 125.381 147.988 119.761 147.988C119.366 150.071 117.933 150.499 116.019 150.482C109.086 150.412 102.152 150.454 95.0998 150.454C94.7045 152.541 93.2718 152.957 91.3573 152.945C80.521 152.891 69.6805 152.92 58.8442 152.916C56.6745 152.916 56.201 152.578 55.3899 150.45C49.9924 150.45 44.5536 150.45 39.1149 150.45C37.4722 150.45 35.8294 150.454 34.1826 150.45C32.0128 150.441 31.5394 150.112 30.7283 147.983C25.4336 147.983 20.0978 147.983 14.762 147.983C11.8265 147.983 11.1431 147.296 11.1431 144.36C11.1431 141.124 11.2377 137.884 11.1225 134.652C10.9372 129.502 13.0328 125.846 17.8334 123.824C13.9551 118.912 13.8768 114.268 17.607 110.785C20.8554 107.747 25.9565 107.71 29.242 110.699C33.0504 114.161 33.0174 118.673 29.1926 123.754C30.4483 124.512 31.7123 125.273 32.7127 125.878C34.9731 124.236 37.1757 122.638 39.3496 121.057C34.8495 115.956 34.5655 110.414 38.7979 106.314C42.5486 102.678 48.502 102.6 52.3433 106.133C56.7445 110.18 56.5386 115.512 51.8039 121.292C53.2243 122.041 54.6612 122.799 56.094 123.556C59.7253 116.965 59.7253 116.965 67.7373 113.399C61.7468 106.738 61.3433 99.817 66.638 94.6458C71.3809 90.0099 78.9729 89.9605 83.7694 94.5347C89.167 99.677 88.8005 106.643 82.7772 113.404C90.7274 116.924 90.7274 116.924 94.4246 123.556C95.8573 122.799 97.2942 122.041 98.7146 121.288C93.9717 115.586 93.7617 110.205 98.1753 106.133C102.004 102.6 107.978 102.678 111.721 106.31C115.949 110.414 115.669 115.899 110.988 121.267C112.178 121.926 113.45 122.482 114.549 123.281C115.653 124.083 116.583 125.121 117.559 126.031C118.81 125.273 120.074 124.512 121.33 123.754C117.501 118.711 117.464 114.157 121.277 110.699C124.566 107.71 129.667 107.751 132.912 110.785C136.646 114.28 136.572 118.892 132.693 123.828ZM90.0604 147.926C90.0604 141.285 90.0933 134.817 90.0522 128.353C90.0151 122.688 85.7456 118.455 80.0804 118.402C77.0008 118.373 73.9212 118.389 70.8416 118.398C64.6782 118.418 60.4911 122.585 60.4787 128.736C60.4623 134.689 60.4746 140.647 60.4787 146.6C60.4787 147.041 60.5364 147.481 60.5652 147.926C70.4257 147.926 80.1587 147.926 90.0604 147.926ZM35.8294 145.418C42.4868 145.418 48.9672 145.418 55.5382 145.418C55.5382 144.809 55.5382 144.303 55.5382 143.796C55.5299 140.054 55.6411 136.303 55.4846 132.569C55.3282 128.913 52.1909 125.965 48.5226 125.821C46.6287 125.747 44.7266 125.747 42.8327 125.821C39.1643 125.969 36.0023 128.921 35.8706 132.569C35.7141 136.809 35.8294 141.062 35.8294 145.418ZM114.681 145.455C114.681 141.001 114.854 136.645 114.627 132.309C114.438 128.699 111.227 125.928 107.599 125.808C105.808 125.751 104.009 125.759 102.218 125.804C98.624 125.899 95.388 128.485 95.1451 132.062C94.8445 136.484 95.0751 140.943 95.0751 145.455C101.601 145.455 108.044 145.455 114.681 145.455ZM30.8477 142.981C30.8477 139.449 30.9588 136.015 30.8106 132.594C30.7036 130.218 28.5709 128.369 26.1541 128.279C24.3591 128.213 22.5599 128.209 20.7648 128.283C18.3974 128.378 16.2895 130.152 16.1742 132.478C16.0013 135.945 16.1289 139.428 16.1289 142.981C21.0365 142.981 25.8412 142.981 30.8477 142.981ZM134.447 142.985C134.447 139.572 134.493 136.336 134.431 133.104C134.381 130.407 132.31 128.357 129.622 128.275C127.876 128.221 126.131 128.217 124.385 128.279C122.112 128.361 119.992 129.905 119.836 132.132C119.584 135.735 119.77 139.362 119.77 142.989C124.681 142.985 129.486 142.985 134.447 142.985ZM75.3046 96.2104C71.2121 96.1898 67.8772 99.5288 67.8772 103.638C67.8772 107.648 71.2162 110.987 75.2222 110.991C79.2694 110.991 82.596 107.734 82.6537 103.716C82.7113 99.6152 79.3929 96.2268 75.3046 96.2104ZM50.5976 113.515C50.6264 110.826 48.4608 108.591 45.7641 108.533C43.0797 108.475 40.8112 110.641 40.7494 113.321C40.6876 116.08 42.9027 118.369 45.6529 118.381C48.3414 118.394 50.5688 116.203 50.5976 113.515ZM104.919 118.385C107.608 118.352 109.794 116.125 109.781 113.436C109.765 110.69 107.472 108.471 104.713 108.537C102.033 108.603 99.8715 110.876 99.9333 113.564C99.995 116.257 102.231 118.418 104.919 118.385ZM23.4615 113.474C21.4277 113.49 19.7643 115.19 19.789 117.22C19.8137 119.242 21.5471 120.905 23.5727 120.851C25.5366 120.802 27.1546 119.151 27.167 117.179C27.1793 115.153 25.483 113.457 23.4615 113.474ZM127.086 113.474C125.052 113.461 123.368 115.137 123.364 117.171C123.36 119.192 125.068 120.876 127.098 120.851C129.062 120.827 130.701 119.2 130.742 117.232C130.783 115.207 129.107 113.482 127.086 113.474Z" fill="#036FB7"/>
<path d="M145.769 106.82C144.131 106.277 142.681 105.799 141.1 105.276C142.587 100.702 144.036 96.2268 145.551 91.558C143.789 90.9651 142.056 90.3928 140.331 89.8041C137.267 88.7624 136.329 86.9138 136.452 83.6943C136.633 78.8319 136.588 73.9572 136.415 69.0949C136.316 66.3076 137.342 64.2943 140.001 63.3515C141.784 62.7215 143.595 62.1657 145.563 61.5234C144.04 56.8464 142.541 52.2393 140.998 47.5005C139.219 48.0604 137.527 48.5956 135.831 49.1226C132.8 50.0654 130.944 49.205 129.161 46.6276C126.365 42.5846 123.446 38.6198 120.408 34.7579C118.452 32.2712 118.172 30.2291 119.984 27.6476C121.013 26.1819 122.075 24.7368 123.249 23.1023C119.267 20.208 115.348 17.363 111.309 14.4275C110.168 15.9838 109.098 17.4742 108.003 18.944C106.179 21.3896 104.026 21.9824 101.255 20.7144C96.6642 18.6105 91.9171 17.0172 86.9642 16.0208C84.1028 15.4444 82.6783 13.637 82.6536 10.6891C82.6371 8.84465 82.6495 7.00428 82.6495 5.05276C77.7089 5.05276 72.8671 5.05276 67.8525 5.05276C67.8525 6.86018 67.8689 8.64291 67.8483 10.4215C67.8195 13.39 66.4485 15.1562 63.5706 15.782C58.5889 16.8648 53.7801 18.4335 49.1606 20.5991C46.571 21.8136 44.3601 21.1796 42.6432 18.8946C41.5357 17.4206 40.4652 15.9179 39.263 14.2669C35.2653 17.1695 31.3375 20.0186 27.3151 22.9376C28.435 24.4898 29.4931 25.9308 30.5265 27.3924C32.3586 29.9903 32.2639 32.1806 30.1353 34.4821C26.7346 38.1587 23.832 42.1811 21.3823 46.5453C19.8054 49.3491 17.7098 50.1107 14.6467 49.0732C13.0039 48.5174 11.3694 47.9534 9.55376 47.3358C8.01395 52.054 6.51119 56.6529 4.97138 61.3835C6.63882 61.9269 8.18687 62.4333 9.73491 62.9315C13.2633 64.0678 14.1938 65.8135 14.0497 69.4983C13.8603 74.3072 13.9385 79.1366 14.1197 83.9495C14.2226 86.7327 13.2057 88.746 10.546 89.7012C8.76327 90.3393 6.95173 90.8951 4.99197 91.5415C6.47414 96.1157 7.9316 100.628 9.44259 105.289C7.86161 105.812 6.38356 106.301 4.76964 106.833C3.18866 101.954 1.57062 97.2561 0.166678 92.4926C-0.520884 90.1582 0.990106 87.7867 3.38628 86.8891C4.34558 86.531 5.33369 86.2428 6.30533 85.9175C7.22346 85.6087 8.14158 85.2958 8.93619 85.0241C8.93619 79.3548 8.93619 73.7843 8.93619 67.9338C7.53636 67.4563 5.8648 66.8593 4.18089 66.3117C0.734844 65.1836 -0.529118 62.7339 0.594861 59.2549C1.98234 54.9607 3.3657 50.6624 4.77376 46.3765C5.88539 42.9922 8.3639 41.7488 11.7482 42.8275C13.1645 43.2804 14.5684 43.7868 16.0012 44.1697C16.3841 44.2726 17.0758 44.1656 17.261 43.898C20.3242 39.4844 23.3256 35.0255 26.4958 30.3608C25.6559 29.1833 24.5484 27.6559 23.4656 26.1119C21.5635 23.3905 21.9875 20.7061 24.6719 18.7258C28.435 15.9549 32.2186 13.2129 36.0146 10.4874C38.7196 8.54821 41.4204 8.98051 43.4049 11.6361C44.5083 13.1141 45.5828 14.6169 46.5668 15.9673C52.0138 14.1928 57.3496 12.4513 62.9448 10.6274C62.9448 9.17402 62.9366 7.33366 62.9448 5.49329C62.9613 1.99784 64.9087 0.0174978 68.3589 0.00926356C72.9824 -0.00308785 77.606 -0.00308785 82.2295 0.00926356C85.5767 0.0174978 87.5777 2.0349 87.6024 5.38625C87.6147 7.23073 87.6065 9.07109 87.6065 10.6274C93.0823 12.4101 98.3728 14.1311 103.947 15.9467C104.824 14.761 105.911 13.2912 106.994 11.8213C109.139 8.92287 111.782 8.49469 114.71 10.6109C118.374 13.2582 122.026 15.9179 125.669 18.5858C128.642 20.7638 129.041 23.407 126.876 26.4372C125.892 27.8123 124.895 29.1792 124.027 30.3896C127.357 35.0132 130.61 39.5338 134.023 44.2685C135.481 43.8239 137.276 43.2639 139.075 42.7287C142.319 41.7571 144.757 43.0128 145.823 46.2365C147.272 50.6171 148.709 55.006 150.117 59.399C151.142 62.5939 149.866 65.1301 146.712 66.217C144.975 66.814 143.217 67.3657 141.364 67.975C141.5 69.5972 141.755 71.1699 141.743 72.7427C141.722 76.3863 141.648 80.0341 141.426 83.6654C141.36 84.7359 141.66 85.1064 142.579 85.374C144.052 85.8022 145.514 86.2963 146.959 86.815C149.821 87.8484 151.101 90.3105 150.195 93.1884C148.779 97.6843 147.289 102.156 145.769 106.82Z" fill="#036FB7"/>
<path d="M124.142 99.6317C122.771 98.9812 121.4 98.3266 119.91 97.6143C125.694 84.5671 126.266 71.384 120.997 58.1145C117.147 48.4268 110.757 40.7566 102.008 35.0832C84.5187 23.7322 61.9444 24.7368 45.1629 37.4094C30.5471 48.4433 19.1797 72.3515 30.5677 97.6472C29.1967 98.3101 27.8215 98.9688 26.4505 99.6317C17.9898 84.0277 17.8086 56.587 37.4845 37.5782C57.5473 18.1947 88.7181 17.0048 109.913 34.725C131.779 53.0051 133.467 81.681 124.142 99.6317Z" fill="#036FB7"/>
<path d="M107.254 76.5757C107.254 78.1979 107.254 79.7171 107.254 81.3187C85.9062 81.3187 64.6288 81.3187 43.2773 81.3187C43.2773 79.7253 43.2773 78.2061 43.2773 76.5757C64.5671 76.5757 85.8444 76.5757 107.254 76.5757Z" fill="#036FB7"/>
<path d="M92.5842 71.4581C90.785 71.4581 89.2657 71.4581 87.5983 71.4581C87.5983 70.4741 87.5983 69.5642 87.5983 68.6502C87.5983 61.6634 87.5942 54.6766 87.5983 47.6899C87.5983 45.1866 88.397 44.4085 90.9332 44.4044C93.8605 44.4003 96.7878 44.3797 99.715 44.4167C101.378 44.4373 102.366 45.3513 102.371 46.9694C102.404 55.0801 102.383 63.195 102.383 71.4169C100.761 71.4169 99.2045 71.4169 97.4753 71.4169C97.4753 64.109 97.4753 56.797 97.4753 49.4108C95.7873 49.4108 94.2681 49.4108 92.5759 49.4108C92.5842 56.7229 92.5842 64.039 92.5842 71.4581Z" fill="#036FB7"/>
<path d="M72.8548 71.4581C71.0556 71.4581 69.5364 71.4581 67.869 71.4581C67.869 68.0079 67.869 64.6319 67.869 61.2558C67.869 59.0985 67.8566 56.9411 67.8731 54.7837C67.8896 52.7375 68.7583 51.8276 70.7427 51.8111C73.773 51.7864 76.8032 51.7864 79.8334 51.8111C81.6161 51.8276 82.633 52.7045 82.6454 54.3679C82.6866 60.0125 82.6619 65.6612 82.6619 71.4211C81.0397 71.4211 79.4834 71.4211 77.7542 71.4211C77.7542 66.5793 77.7542 61.7334 77.7542 56.8134C76.0662 56.8134 74.547 56.8134 72.8548 56.8134C72.8548 61.6552 72.8548 66.5052 72.8548 71.4581Z" fill="#036FB7"/>
<path d="M62.8378 71.4663C61.2115 71.4663 59.6923 71.4663 58.0578 71.4663C58.0578 69.0578 58.0578 66.7152 58.0578 64.2531C56.3904 64.2531 54.8341 64.2531 53.1049 64.2531C53.1049 66.6122 53.1049 68.9919 53.1049 71.454C51.4169 71.454 49.8976 71.454 48.1437 71.454C48.1437 69.0331 48.1437 66.5917 48.1437 64.1502C48.1437 59.3949 48.3372 59.2014 53.0555 59.2014C55.3652 59.2014 57.679 59.1849 59.9887 59.2055C62.0144 59.222 62.9202 60.103 62.9325 62.1081C62.9531 65.0354 62.9366 67.9627 62.9325 70.8899C62.9284 71.0382 62.8831 71.1864 62.8378 71.4663Z" fill="#036FB7"/>
</svg>
