<svg width="138" height="126" viewBox="0 0 138 126" fill="none" xmlns="http://www.w3.org/2000/svg">
<path d="M137.09 34.1284C135.271 34.1284 133.452 34.1284 131.449 34.1284C131.449 24.7185 131.449 15.3153 131.449 5.83186C89.5824 5.83186 47.9033 5.83186 6.13397 5.83186C6.13397 8.59731 6.13397 11.336 6.13397 14.2285C35.5006 14.2285 64.8438 14.2285 94.2773 14.2285C94.2773 16.1847 94.2773 17.9871 94.2773 19.9233C64.9341 19.9233 35.5875 19.9233 6.14066 19.9233C6.14066 46.5546 6.14066 73.0554 6.14066 99.6633C34.5375 99.6633 62.9043 99.6633 91.3848 99.6633C91.3848 90.969 91.3848 82.2714 91.3848 73.3898C91.0571 73.6975 90.7862 73.9349 90.5388 74.189C85.4058 79.4357 77.6278 80.3553 71.5117 76.2723C67.6661 73.7075 63.9309 70.9688 60.2057 68.2267C56.9922 65.8626 55.7148 62.5654 56.5441 58.7165C57.3634 54.9211 59.8713 52.4968 63.7136 51.6474C66.4288 51.0488 68.9034 51.7745 71.1773 53.306C73.6852 54.9947 76.2066 56.6633 78.8516 58.4256C79.8716 56.0447 80.8614 53.724 81.8612 51.41C83.3058 48.0694 84.4962 44.5515 87.1714 41.9332C88.8969 40.2445 90.8531 38.7932 92.933 37.0443C93.9563 39.0909 94.7756 40.7294 95.6149 42.4081C94.712 43.0267 93.876 43.5316 93.117 44.1269C91.0002 45.7821 89.549 47.9423 88.5023 50.3968C86.7066 54.6068 84.9109 58.8169 83.1018 63.0202C81.9448 65.7121 80.2661 66.2103 77.8418 64.5985C74.4343 62.3313 71.0335 60.0575 67.626 57.7936C66.255 56.884 64.8371 56.9141 63.4895 57.7903C62.2957 58.5694 61.7473 59.8267 62.1118 61.1476C62.376 62.0973 62.9946 63.1406 63.7704 63.7291C67.2481 66.3575 70.7726 68.929 74.3975 71.3467C79.7144 74.8979 85.9408 72.9083 88.4655 66.9393C89.5389 64.4013 90.512 61.8231 91.5353 59.2649C91.99 58.128 92.6889 57.2552 93.9897 57.078C95.4744 56.8774 96.7451 57.7334 97.0729 59.1947C97.2066 59.7933 97.2367 60.4286 97.2367 61.0473C97.2434 81.9671 97.2434 102.89 97.2434 123.81C97.2434 124.285 97.2434 124.76 97.2434 125.315C95.2772 125.315 93.4815 125.315 91.542 125.315C91.542 120.098 91.542 114.959 91.542 109.598C90.91 109.812 90.4619 109.946 90.0272 110.11C85.1182 111.946 80.1825 113.721 75.3104 115.651C73.1134 116.52 70.9198 117.022 68.5623 116.858C67.7263 116.801 66.8836 116.848 65.9038 116.848C65.9038 119.71 65.9038 122.452 65.9038 125.295C63.9644 125.295 62.1686 125.295 60.2459 125.295C60.2459 122.546 60.2459 119.807 60.2459 116.848C58.6842 116.848 57.2363 116.921 55.7984 116.824C54.6615 116.748 53.481 116.614 52.421 116.233C42.8473 112.795 33.2969 109.291 23.7299 105.833C23.0377 105.582 22.2652 105.452 21.5295 105.448C15.7445 105.418 9.95946 105.435 4.17441 105.432C1.36549 105.442 0.362305 104.455 0.362305 101.686C0.362305 69.0594 0.362305 36.4291 0.362305 3.80208C0.362305 1.05335 1.39224 0.0133758 4.14098 0.0133758C47.2212 0.0100319 90.298 0.0133758 133.378 0C135.154 0 136.485 0.561785 137.093 2.34411C137.09 12.9378 137.09 23.5348 137.09 34.1284ZM60.0987 111.07C60.0987 109.133 60.0987 107.338 60.0987 105.515C53.3506 105.515 46.6861 105.515 40.0216 105.515C44.011 107.15 48.0939 108.485 52.0465 110.123C54.6715 111.213 57.3032 111.166 60.0987 111.07ZM65.9306 111.263C68.0373 111.11 70.0805 111.324 71.8728 110.752C76.2567 109.351 80.527 107.592 84.8407 105.967C85.0781 105.876 85.2854 105.716 85.5696 105.555C78.9419 105.555 72.4413 105.555 65.9306 105.555C65.9306 107.425 65.9306 109.187 65.9306 111.263Z" fill="#036FB7"/>
<path d="M137.09 73.1256C136.414 75.958 135.445 78.6499 133.351 80.79C133.321 80.8201 133.301 80.8703 133.268 80.8903C131.281 82.0339 131.382 83.8932 131.388 85.8494C131.439 98.4461 131.415 111.043 131.415 123.643C131.415 124.168 131.415 124.693 131.415 125.308C129.479 125.308 127.683 125.308 125.724 125.308C125.724 111.996 125.724 98.7136 125.724 85.4782C121.046 85.4782 116.525 85.4582 112.007 85.4849C108.686 85.505 105.991 84.2945 104.232 81.4354C100.621 75.5634 104.737 68.5645 111.88 68.3973C114.538 68.3338 117.197 68.3873 119.972 68.3873C119.972 65.5148 119.972 62.7728 119.972 59.9337C121.885 59.9337 123.681 59.9337 125.68 59.9337C125.68 61.0105 125.68 62.0572 125.68 63.1072C125.68 65.5115 125.687 67.9158 125.68 70.3201C125.674 73.1022 124.684 74.1121 121.928 74.1188C118.591 74.1288 115.254 74.1088 111.913 74.1288C110.288 74.1389 109.221 74.8043 108.813 75.9714C108.175 77.8005 109.352 79.7032 111.382 79.75C115.471 79.8437 119.581 79.9406 123.657 79.6865C128.048 79.4123 131.161 76.1051 131.332 71.4169C131.539 65.6854 131.472 59.9337 131.312 54.1955C131.178 49.3903 128.884 45.6417 124.981 42.8662C124.764 42.7124 124.56 42.5418 124.353 42.378C124.319 42.3512 124.306 42.3044 124.212 42.1472C125.205 40.6592 126.229 39.121 127.272 37.556C132.509 40.93 135.695 45.5347 136.802 51.5571C136.866 51.8982 136.996 52.2226 137.093 52.557C137.09 59.4154 137.09 66.2705 137.09 73.1256Z" fill="#036FB7"/>
<path d="M17.4967 31.3395C17.4967 33.3626 17.4967 35.1282 17.4967 37.0209C38.3396 37.0209 59.1423 37.0209 80.0421 37.0209C80.0421 38.9404 80.0421 40.7394 80.0421 42.6756C79.5605 42.699 79.089 42.7458 78.6175 42.7458C57.6175 42.7491 36.6175 42.7491 15.6174 42.7458C12.6848 42.7458 11.7819 41.8463 11.7752 38.9404C11.7685 35.6934 11.7618 32.4431 11.7785 29.1961C11.7919 26.7483 12.8219 25.6649 15.2529 25.6615C36.5205 25.6481 57.788 25.6515 79.0523 25.6582C79.3532 25.6582 79.6542 25.7083 80.0454 25.7418C80.0454 27.5977 80.0454 29.3934 80.0454 31.3429C59.2092 31.3395 38.4165 31.3395 17.4967 31.3395Z" fill="#036FB7"/>
<path d="M109.994 11.433C113.799 11.2624 117.167 12.3927 119.691 15.536C121.323 17.5658 122.153 19.9266 121.962 22.4747C121.614 27.173 121.196 31.8779 120.524 36.5394C119.752 41.8897 115.368 45.5514 110.101 45.6049C104.901 45.6584 100.34 41.9733 99.534 36.6832C98.8485 32.1588 98.484 27.5809 98.1129 23.0164C97.5812 16.4389 102.865 11.015 109.994 11.433ZM116.264 23.1469C116.347 19.5488 114.562 17.4253 111.596 17.1511C110.452 17.0475 109.278 17.0742 108.138 17.218C105.413 17.5624 103.533 19.7695 103.761 22.5048C104.122 26.8887 104.573 31.2693 105.098 35.6365C105.393 38.101 107.55 39.8633 109.997 39.89C112.442 39.9168 114.629 38.1713 114.93 35.7068C115.468 31.3462 115.866 26.9623 116.264 23.1469Z" fill="#036FB7"/>
<path d="M108.686 99.8505C110.569 99.8505 112.371 99.8505 114.247 99.8505C114.247 108.364 114.247 116.791 114.247 125.315C112.381 125.315 110.586 125.315 108.686 125.315C108.686 116.851 108.686 108.424 108.686 99.8505Z" fill="#036FB7"/>
<path d="M43.0512 59.9337C43.0512 61.8097 43.0512 63.5786 43.0512 65.4646C36.4469 65.4646 29.8727 65.4646 23.2149 65.4646C23.2149 63.6154 23.2149 61.8231 23.2149 59.9337C29.8225 59.9337 36.3667 59.9337 43.0512 59.9337Z" fill="#036FB7"/>
<path d="M11.8354 54.0818C11.8354 52.2393 11.8354 50.4737 11.8354 48.5944C18.4029 48.5944 24.9537 48.5944 31.5915 48.5944C31.5915 50.4068 31.5915 52.2058 31.5915 54.0818C25.0407 54.0818 18.52 54.0818 11.8354 54.0818Z" fill="#036FB7"/>
<path d="M17.3931 59.9471C17.3931 61.8164 17.3931 63.6154 17.3931 65.4981C15.5405 65.4981 13.7481 65.4981 11.8655 65.4981C11.8655 63.6455 11.8655 61.8532 11.8655 59.9471C13.6645 59.9471 15.4536 59.9471 17.3931 59.9471Z" fill="#036FB7"/>
<path d="M23.2349 71.2931C25.1042 71.2931 26.8731 71.2931 28.7558 71.2931C28.7558 73.1457 28.7558 74.9648 28.7558 76.8642C26.9066 76.8642 25.1109 76.8642 23.2349 76.8642C23.2349 74.9815 23.2349 73.1557 23.2349 71.2931Z" fill="#036FB7"/>
<path d="M43.048 48.5643C43.048 50.4503 43.048 52.2092 43.048 54.0651C41.1954 54.0651 39.3696 54.0651 37.4803 54.0651C37.4803 52.2259 37.4803 50.4369 37.4803 48.5643C39.3395 48.5643 41.1319 48.5643 43.048 48.5643Z" fill="#036FB7"/>
<path d="M17.3663 76.8608C15.5104 76.8608 13.7181 76.8608 11.8521 76.8608C11.8521 74.9949 11.8521 73.2026 11.8521 71.3333C13.688 71.3333 15.4837 71.3333 17.3663 71.3333C17.3663 73.129 17.3663 74.9213 17.3663 76.8608Z" fill="#036FB7"/>
<path d="M34.5911 76.8508C34.5911 74.9782 34.5911 73.2159 34.5911 71.3567C36.4303 71.3567 38.2561 71.3567 40.1521 71.3567C40.1521 73.1825 40.1521 74.9715 40.1521 76.8508C38.3029 76.8508 36.5106 76.8508 34.5911 76.8508Z" fill="#036FB7"/>
</svg>
