<svg width="159" height="158" viewBox="0 0 159 158" fill="none" xmlns="http://www.w3.org/2000/svg">
<path d="M158.189 84.8181C157.88 86.1562 157.617 87.5066 157.258 88.8365C154.306 99.7922 144.285 107.66 132.951 107.903C129.768 107.969 126.582 107.882 123.399 107.965C122.868 107.977 122.082 108.343 121.859 108.776C119.027 114.289 115.572 119.361 111.447 123.98C111.352 124.087 111.299 124.227 111.089 124.581C111.764 124.581 112.299 124.581 112.834 124.581C122.131 124.581 131.432 124.577 140.728 124.581C143.602 124.581 144.738 125.784 144.606 128.649C144.195 137.719 136.442 145.32 127.343 145.517C124.008 145.587 120.669 145.529 117.269 145.529C117.116 146.019 116.98 146.452 116.849 146.884C114.872 153.348 109.018 157.831 102.233 157.848C82.4047 157.893 62.5766 157.893 42.7484 157.848C35.9057 157.831 30.047 153.294 28.0996 146.732C27.9967 146.39 27.8897 146.048 27.7291 145.538C24.5877 145.538 21.4175 145.604 18.2556 145.525C11.4623 145.357 6.27468 142.347 2.75041 136.529C1.26001 134.067 0.523037 131.354 0.378937 128.493C0.247189 125.796 1.42469 124.59 4.10495 124.581C7.99976 124.569 11.8946 124.577 15.5012 124.577C14.8713 121.988 13.8749 119.46 13.7102 116.878C13.3562 111.39 15.4847 106.639 19.1202 102.588C19.8489 101.777 19.9354 101.147 19.5895 100.154C17.0369 92.8713 15.88 85.341 15.8429 77.6378C15.8182 71.7833 15.8306 65.9287 15.8388 60.0741C15.8429 57.2045 16.8969 56.1505 19.7377 56.1464C32.4268 56.1423 45.1158 56.1464 57.8007 56.1464C58.1095 56.1464 58.4182 56.134 58.727 56.1587C60.4068 56.2822 61.642 57.5215 61.6914 59.1272C61.7367 60.7164 60.5633 62.0627 58.9041 62.2768C58.3977 62.3427 57.8789 62.3139 57.3643 62.3139C46.2686 62.3139 35.1729 62.3139 24.0772 62.3139C23.4637 62.3139 22.8503 62.3139 22.0227 62.3139C22.138 74.1548 21.0305 85.9956 25.267 97.5278C26.0205 97.2066 26.7533 96.8814 27.4944 96.5849C31.5375 94.9792 35.6628 94.5675 39.8376 95.9674C46.8409 98.3141 50.5751 105.593 48.8871 113.391C47.969 117.628 45.8733 121.201 42.7361 124.454C43.2919 124.507 43.6583 124.577 44.0289 124.577C62.9842 124.581 81.9395 124.59 100.895 124.544C101.615 124.544 102.505 124.178 103.023 123.684C116.157 111.176 122.716 95.7944 122.971 77.6996C123.037 73.0267 122.983 68.3537 122.979 63.6766C122.979 63.2773 122.934 62.8779 122.901 62.3097C122.222 62.3097 121.62 62.3097 121.019 62.3097C109.874 62.3097 98.725 62.3097 87.5799 62.3097C87.0653 62.3097 86.5466 62.3386 86.0401 62.2686C84.3933 62.0421 83.224 60.667 83.294 59.086C83.364 57.4762 84.5991 56.2658 86.2954 56.1628C86.7565 56.134 87.2218 56.1505 87.6829 56.1505C102.323 56.1505 116.964 56.1464 131.605 56.1505C145.298 56.1546 155.727 65.0353 157.934 78.5601C157.975 78.8071 158.102 79.0377 158.189 79.2765C158.189 81.1209 158.189 82.9695 158.189 84.8181ZM7.024 130.802C7.16398 131.272 7.25456 131.667 7.39866 132.034C9.10727 136.365 13.3232 139.296 18.0456 139.358C21.9486 139.407 25.8517 139.366 29.7547 139.374C32.4679 139.378 33.489 140.33 33.666 142.981C33.9913 147.847 37.882 151.668 42.769 151.68C62.593 151.722 82.4212 151.722 102.245 151.676C107.124 151.664 110.99 147.831 111.319 142.944C111.492 140.362 112.526 139.378 115.111 139.37C118.965 139.362 122.814 139.37 126.668 139.366C129.324 139.366 131.724 138.572 133.832 136.958C135.874 135.397 137.282 133.4 137.986 130.794C94.2333 130.802 50.6904 130.802 7.024 130.802ZM129.233 69.7124C130.382 69.7124 131.448 69.6959 132.51 69.7165C138.847 69.8276 144.117 74.7764 144.59 81.0551C145.068 87.3872 140.708 93.0977 134.421 94.0899C132.057 94.4605 129.624 94.3699 127.162 94.4893C126.442 96.8443 125.713 99.2322 124.943 101.76C127.442 101.76 129.842 101.822 132.239 101.748C140.419 101.505 146.562 97.7748 150.07 90.4133C153.528 83.1548 152.635 76.0569 147.645 69.7371C142.976 63.8166 136.627 61.7251 129.229 62.4127C129.233 64.8706 129.233 67.2091 129.233 69.7124ZM36.5686 101.402C31.0228 100.731 26.7204 103.061 23.3032 107.17C20.3347 110.74 18.9184 114.803 20.4953 119.896C22.4592 114.243 26.2099 111.18 31.5086 109.612C34.9588 108.591 37.0174 104.967 36.5686 101.402ZM42.3902 106.001C40.4264 111.715 36.5357 114.7 31.2204 116.318C28.3055 117.204 26.778 119.641 26.2552 122.655C26.0246 123.989 26.3951 124.581 27.8938 124.606C33.4684 124.697 39.4753 120.637 41.9456 114.931C43.1437 112.168 43.576 109.332 42.3902 106.001ZM129.311 75.8716C129.04 80.0546 128.78 84.0688 128.517 88.153C130.015 88.153 131.514 88.2807 132.98 88.1283C136.286 87.7825 138.653 84.8881 138.447 81.615C138.245 78.4078 135.631 75.9457 132.325 75.8757C131.353 75.8551 130.382 75.8716 129.311 75.8716Z" fill="#036FB7"/>
<path d="M73.4212 0.0627109C76.0602 1.86602 76.2785 3.46347 74.2075 5.84729C70.0369 10.6479 70.181 17.2765 74.6645 22.0441C78.3 25.9101 80.1362 30.4266 79.8892 35.7295C79.6833 40.1595 78.0077 43.9967 74.9774 47.2246C73.5858 48.7067 71.799 48.8426 70.4609 47.6486C69.1146 46.4464 69.0858 44.6884 70.3786 43.1198C75.1133 37.3887 74.9569 31.5012 69.9216 25.9925C63.4659 18.9316 63.4165 8.42874 69.8269 1.5243C70.3415 0.972599 70.9879 0.544416 71.5726 0.0585938C72.186 0.0627109 72.8036 0.0627109 73.4212 0.0627109Z" fill="#036FB7"/>
<path d="M94.3074 44.8654C94.4926 44.5237 94.7685 43.7456 95.2625 43.1404C98.301 39.3938 98.2228 35.5195 94.9702 31.9294C89.9391 26.3754 89.795 18.4746 94.6285 13.0441C96.1518 11.3313 97.8893 11.0431 99.3426 12.27C100.78 13.4805 100.775 15.2797 99.3344 17.0253C96.3989 20.5784 96.5677 24.5309 99.8079 28.1004C104.925 33.7409 104.893 42.1852 99.7379 47.3357C98.7456 48.3279 97.6175 48.7644 96.2548 48.2086C94.9702 47.6857 94.3444 46.7099 94.3074 44.8654Z" fill="#036FB7"/>
<path d="M50.6863 15.0491C50.4928 15.4114 50.2004 16.239 49.6817 16.8812C46.7091 20.5537 46.7832 24.4691 49.9658 27.9728C55.0422 33.568 55.1904 41.5758 50.3198 46.9899C48.813 48.6614 47.0179 48.9167 45.6057 47.661C44.2265 46.4382 44.2265 44.709 45.6098 43.0251C48.6112 39.369 48.4507 35.5442 45.1446 31.8223C40.0887 26.1324 40.1176 17.8858 45.1981 12.7064C46.2274 11.6566 47.3926 11.1872 48.8089 11.7924C50.0028 12.2989 50.6286 13.2376 50.6863 15.0491Z" fill="#036FB7"/>
<path d="M72.4823 62.2933C70.8602 62.2851 69.4603 60.9017 69.4233 59.2754C69.3862 57.5668 70.7902 56.1464 72.507 56.1546C74.228 56.1629 75.6155 57.5915 75.5661 59.3001C75.5125 60.9346 74.1086 62.2974 72.4823 62.2933Z" fill="#036FB7"/>
</svg>
