<svg xmlns="http://www.w3.org/2000/svg" xmlns:xlink="http://www.w3.org/1999/xlink" width="100" height="100" viewBox="0 0 100 100">
    <defs>
        <linearGradient id="igtknkp4na" x1="40.62%" x2="60.046%" y1="0%" y2="100%">
            <stop offset="0%" stop-color="#F7ECA8"/>
            <stop offset="50.754%" stop-color="#BF9437" stop-opacity=".7"/>
            <stop offset="100%" stop-color="#E7CC7E"/>
        </linearGradient>
        <linearGradient id="td1nqd34od" x1="40.62%" x2="60.046%" y1="0%" y2="100%">
            <stop offset="0%" stop-color="#F7ECA8"/>
            <stop offset="51.673%" stop-color="#BF9437"/>
            <stop offset="100%" stop-color="#E7CC7E"/>
        </linearGradient>
        <linearGradient id="felpba6nie" x1="3.314%" x2="100%" y1="0%" y2="100%">
            <stop offset="0%" stop-color="#F7ECA8"/>
            <stop offset="50.754%" stop-color="#BF9437" stop-opacity=".7"/>
            <stop offset="100%" stop-color="#E7CC7E"/>
        </linearGradient>
        <linearGradient id="vywn6pvbyf" x1="4.095%" x2="99.164%" y1="0%" y2="100%">
            <stop offset="0%" stop-color="#F7ECA8"/>
            <stop offset="50.754%" stop-color="#BF9437" stop-opacity=".7"/>
            <stop offset="100%" stop-color="#E7CC7E"/>
        </linearGradient>
        <filter id="c7btapqz1b" width="108%" height="103.7%" x="-4%" y="-1.8%" filterUnits="objectBoundingBox">
            <feOffset in="SourceAlpha" result="shadowOffsetOuter1"/>
            <feGaussianBlur in="shadowOffsetOuter1" result="shadowBlurOuter1" stdDeviation="5"/>
            <feColorMatrix in="shadowBlurOuter1" values="0 0 0 0 0.321148859 0 0 0 0 0.20422573 0 0 0 0 0 0 0 0 1 0"/>
        </filter>
        <path id="kemzamo3wc" d="M375 0v812H0V0h375zm-70.374 9.998H70.374c-5.486 0-9.446 5.407-7.644 10.533l.087.236c1.612 4.161 2.392 8.738 2.135 13.525l-.039.626c-1.141 15.78-13.8 28.584-29.52 29.957l-.477.038c-4.805.347-9.407-.35-13.604-1.89l-.545-.205c-5.115-1.982-10.6 1.865-10.765 7.303l-.004.252v671.252c0 5.486 5.406 9.446 10.533 7.643l.236-.087c4.161-1.612 8.737-2.39 13.524-2.134l.625.039c15.78 1.142 28.585 13.8 29.958 29.518l.038.477c.347 4.805-.35 9.408-1.89 13.606l-.206.545c-1.98 5.115 1.867 10.6 7.305 10.764l.252.004h234.252c5.487 0 9.447-5.406 7.643-10.532l-.087-.236c-1.611-4.162-2.392-8.738-2.134-13.525l.04-.626c1.14-15.78 13.798-28.584 29.517-29.957l.477-.038c4.805-.347 9.408.35 13.606 1.89l.545.206c5.116 1.98 10.6-1.867 10.765-7.305l.004-.252V70.373c0-5.486-5.405-9.446-10.532-7.642l-.236.087c-4.162 1.611-8.738 2.39-13.525 2.133l-.625-.039c-15.782-1.141-28.584-13.798-29.957-29.517l-.038-.477c-.348-4.805.35-9.409 1.889-13.606l.205-.545c1.982-5.115-1.866-10.6-7.304-10.765l-.252-.004z"/>
    </defs>
    <g fill="none" fill-rule="evenodd">
        <g>
            <g>
                <path stroke="#1C509B" stroke-width="10" d="M5 5H370V807H5z" transform="translate(0 -712)"/>
                <path stroke="url(#igtknkp4na)" stroke-width="3" d="M11.5 11.5H363.5V800.5H11.5z" transform="translate(0 -712)"/>
            </g>
            <g transform="translate(0 -712)">
                <g>
                    <use fill="#000" filter="url(#c7btapqz1b)" xlink:href="#kemzamo3wc"/>
                    <use fill="#1C509B" xlink:href="#kemzamo3wc"/>
                </g>
                <path stroke="url(#td1nqd34od)" stroke-width="3" d="M70.374 9.998c-5.57 0-9.568 5.575-7.557 10.769 1.682 4.342 2.458 9.137 2.096 14.151C63.76 50.857 50.857 63.76 34.916 64.913c-5.014.362-9.807-.413-14.149-2.095-5.194-2.012-10.769 1.985-10.769 7.555v671.252c0 5.57 5.574 9.567 10.769 7.556 4.342-1.682 9.136-2.457 14.149-2.095 15.94 1.154 28.843 14.056 29.996 29.995.362 5.014-.413 9.808-2.096 14.151C60.805 796.426 64.803 802 70.373 802h234.252c5.571 0 9.568-5.574 7.556-10.768-1.681-4.343-2.458-9.137-2.094-14.151 1.152-15.94 14.055-28.842 29.994-29.995 5.014-.362 9.808.413 14.151 2.096 5.195 2.01 10.769-1.987 10.769-7.557V70.373c0-5.57-5.573-9.568-10.768-7.555-4.343 1.681-9.137 2.457-14.15 2.094-15.941-1.153-28.842-14.055-29.995-29.994-.363-5.014.413-9.809 2.094-14.151 2.012-5.194-1.986-10.769-7.556-10.769H70.374z"/>
                <circle cx="32.5" cy="779.5" r="21" fill="#05296A" stroke="url(#felpba6nie)" stroke-width="3"/>
                <path fill="url(#vywn6pvbyf)" d="M35.637 782.773c.013-.039.01-.07-.01-.098-.02-.026-.042-.039-.068-.039h-1.797c-.091 0-.137.052-.137.157v3.164c0 .09.046.136.137.136h1.19c.014 0 .024-.007.03-.019.008-.013.004-.027-.01-.039-.246-.105-.41-.28-.487-.528-.027-.09-.04-.182-.04-.273 0-.156.046-.306.137-.449.39-.638.743-1.309 1.055-2.012zm-6.367-6.836c-.027.013-.032.032-.02.06.013.025.033.038.059.038h5.703c.026 0 .046-.013.059-.039.012-.027.006-.046-.02-.059-1.211-1.067-2.161-2.058-2.852-2.969-.051-.078-.104-.078-.156 0-.742 1.003-1.667 1.993-2.773 2.97zm1.25 6.856c0-.105-.052-.157-.156-.157h-1.797c-.04 0-.066.013-.078.04-.013.026-.013.051 0 .077.429.613.774 1.16 1.035 1.641.078.156.117.313.117.47 0 .142-.026.28-.078.41-.13.3-.345.514-.645.644l-.254.117c-.012 0-.02.01-.02.03 0 .02.014.028.04.028h1.68c.104 0 .156-.046.156-.136v-3.164zm6.289-.157c-.026 0-.04.007-.04.02 0 .013.008.02.02.02l.723.273c.273.091.456.273.547.547.026.09.039.182.039.273 0 .17-.052.332-.156.488-.664.912-1.087 1.485-1.27 1.72-.013.025-.013.051 0 .077.013.027.032.04.059.04h2.793c.312 0 .583.114.81.341.228.228.342.498.342.811v.175c0 .313-.114.583-.342.811-.227.228-.498.342-.81.342h-14.63c-.312 0-.582-.114-.81-.342-.227-.228-.342-.498-.342-.81v-.176c0-.313.115-.583.342-.81.228-.228.498-.343.81-.343h2.266c.039 0 .069-.012.088-.039.02-.026.023-.058.01-.097-.234-.599-.515-1.179-.84-1.739-.091-.156-.136-.325-.136-.508 0-.104.019-.208.058-.312.09-.286.274-.48.547-.586l.273-.117c.013-.013.02-.026.02-.039 0-.013-.013-.02-.04-.02H25.95c-.312 0-.583-.114-.81-.342-.228-.227-.342-.498-.342-.81v-.176c0-.312.114-.583.342-.81.227-.228.498-.342.81-.342h4.415c.104 0 .156-.046.156-.137v-1.328c0-.09-.052-.137-.156-.137h-2.5c-.222 0-.408-.075-.557-.224-.15-.15-.225-.335-.225-.557 0-.013-.01-.026-.03-.039-.02-.013-.035-.013-.048 0-.495.352-1.074.723-1.738 1.113-.183.105-.364.156-.547.156-.104 0-.208-.019-.312-.058-.3-.078-.547-.247-.743-.508-.13-.183-.273-.364-.43-.547-.143-.169-.214-.358-.214-.566 0-.066.007-.124.019-.176.039-.273.183-.48.43-.625 1.276-.703 2.493-1.582 3.652-2.637 1.107-.989 2.012-1.966 2.715-2.929.469-.638 1.068-.957 1.797-.957h.742c.742 0 1.355.305 1.836.918.938 1.184 1.999 2.252 3.184 3.203 1.145.924 2.33 1.673 3.554 2.246.248.117.404.312.469.586.013.065.02.136.02.215 0 .182-.066.358-.196.527-.182.234-.364.488-.546.762-.183.273-.43.45-.743.527-.104.026-.202.04-.293.04-.208 0-.403-.053-.585-.157-.625-.378-1.231-.775-1.817-1.192-.013-.012-.03-.012-.05 0-.018.013-.028.027-.028.04 0 .234-.081.432-.244.595-.163.163-.362.244-.596.244h-2.578c-.091 0-.137.046-.137.137v1.328c0 .091.046.137.137.137h4.492c.313 0 .583.114.81.342.228.227.343.498.343.81v.176c0 .312-.115.583-.342.81-.228.228-.498.342-.811.342h-1.445z"/>
            </g>
        </g>
    </g>
</svg>
