<svg xmlns="http://www.w3.org/2000/svg" xmlns:xlink="http://www.w3.org/1999/xlink" width="100" height="100" viewBox="0 0 100 100">
    <defs>
        <linearGradient id="jr9fphtfsa" x1="40.62%" x2="60.046%" y1="0%" y2="100%">
            <stop offset="0%" stop-color="#F7ECA8"/>
            <stop offset="50.754%" stop-color="#BF9437" stop-opacity=".7"/>
            <stop offset="100%" stop-color="#E7CC7E"/>
        </linearGradient>
        <linearGradient id="s8ihxy6fnd" x1="40.62%" x2="60.046%" y1="0%" y2="100%">
            <stop offset="0%" stop-color="#F7ECA8"/>
            <stop offset="22.413%" stop-color="#D5B35E" stop-opacity=".867"/>
            <stop offset="44.079%" stop-color="#D9BC6B" stop-opacity=".837"/>
            <stop offset="67.752%" stop-color="#BF9437" stop-opacity=".7"/>
            <stop offset="100%" stop-color="#E7CC7E"/>
        </linearGradient>
        <linearGradient id="jbvl7iccce" x1="3.314%" x2="100%" y1="0%" y2="100%">
            <stop offset="0%" stop-color="#F7ECA8"/>
            <stop offset="50.754%" stop-color="#BF9437" stop-opacity=".7"/>
            <stop offset="100%" stop-color="#E7CC7E"/>
        </linearGradient>
        <linearGradient id="ago3sq2urf" x1="5.963%" x2="97.163%" y1="0%" y2="100%">
            <stop offset="0%" stop-color="#F7ECA8"/>
            <stop offset="50.754%" stop-color="#BF9437"/>
            <stop offset="100%" stop-color="#E7CC7E"/>
        </linearGradient>
        <filter id="yvhtrl46vb" width="108%" height="103.7%" x="-4%" y="-1.8%" filterUnits="objectBoundingBox">
            <feOffset in="SourceAlpha" result="shadowOffsetOuter1"/>
            <feGaussianBlur in="shadowOffsetOuter1" result="shadowBlurOuter1" stdDeviation="5"/>
            <feColorMatrix in="shadowBlurOuter1" values="0 0 0 0 0.321148859 0 0 0 0 0.20422573 0 0 0 0 0 0 0 0 1 0"/>
        </filter>
        <path id="d8c9ws0inc" d="M375 0v812H0V0h375zm-70.374 9.998H70.374c-5.486 0-9.446 5.407-7.644 10.533l.087.236c1.612 4.161 2.392 8.738 2.135 13.525l-.039.626c-1.141 15.78-13.8 28.584-29.52 29.957l-.477.038c-4.805.347-9.407-.35-13.604-1.89l-.545-.205c-5.115-1.982-10.6 1.865-10.765 7.303l-.004.252v671.252c0 5.486 5.406 9.446 10.533 7.643l.236-.087c4.161-1.612 8.737-2.39 13.524-2.134l.625.039c15.78 1.142 28.585 13.8 29.958 29.518l.038.477c.347 4.805-.35 9.408-1.89 13.606l-.206.545c-1.98 5.115 1.867 10.6 7.305 10.764l.252.004h234.252c5.487 0 9.447-5.406 7.643-10.532l-.087-.236c-1.611-4.162-2.392-8.738-2.134-13.525l.04-.626c1.14-15.78 13.798-28.584 29.517-29.957l.477-.038c4.805-.347 9.408.35 13.606 1.89l.545.206c5.116 1.98 10.6-1.867 10.765-7.305l.004-.252V70.373c0-5.486-5.405-9.446-10.532-7.642l-.236.087c-4.162 1.611-8.738 2.39-13.525 2.133l-.625-.039c-15.782-1.141-28.584-13.798-29.957-29.517l-.038-.477c-.348-4.805.35-9.409 1.889-13.606l.205-.545c1.982-5.115-1.866-10.6-7.304-10.765l-.252-.004z"/>
    </defs>
    <g fill="none" fill-rule="evenodd">
        <g>
            <g>
                <path stroke="#A90015" stroke-width="10" d="M5 5H370V807H5z" transform="translate(-275 -712)"/>
                <path stroke="url(#jr9fphtfsa)" stroke-width="3" d="M11.5 11.5H363.5V800.5H11.5z" transform="translate(-275 -712)"/>
            </g>
            <g transform="translate(-275 -712)">
                <g>
                    <use fill="#000" filter="url(#yvhtrl46vb)" xlink:href="#d8c9ws0inc"/>
                    <use fill="#A90015" xlink:href="#d8c9ws0inc"/>
                </g>
                <path stroke="url(#s8ihxy6fnd)" stroke-width="3" d="M304.603 11.498c2.326.076 4.281 1.226 5.45 2.89 1.15 1.64 1.53 3.779.728 5.843h0l-.21.558c-1.611 4.392-2.343 9.21-1.98 14.237.738 8.465 4.437 15.988 10.005 21.556 5.606 5.605 13.105 9.23 21.386 9.827h0l.639.04c5.003.27 9.787-.545 14.14-2.226 2.157-.751 4.323-.347 5.96.802 1.664 1.168 2.78 3.1 2.78 5.348h0v671.229c-.076 2.326-1.225 4.281-2.89 5.45-1.64 1.15-3.778 1.53-5.843.729h0l-.558-.21c-4.392-1.613-9.209-2.344-14.237-1.981-8.465.737-15.988 4.436-21.556 10.005-5.605 5.605-9.23 13.104-9.827 21.385h0l-.04.639c-.27 5.005.545 9.79 2.227 14.143.75 2.157.345 4.322-.803 5.958-1.169 1.664-3.101 2.78-5.349 2.78h0H70.396c-2.326-.076-4.281-1.226-5.45-2.89-1.15-1.64-1.53-3.778-.729-5.842h0l.21-.558c1.613-4.392 2.344-9.209 1.981-14.237-.737-8.465-4.437-15.987-10.005-21.555-5.605-5.606-13.105-9.23-21.386-9.829h0l-.64-.04c-5.004-.269-9.789.545-14.14 2.228-2.157.749-4.322.344-5.958-.804-1.665-1.168-2.781-3.1-2.781-5.348h0V70.396c.076-2.326 1.226-4.28 2.89-5.45 1.64-1.149 3.778-1.53 5.843-.727h0l.558.21c4.391 1.612 9.207 2.343 14.235 1.98 8.466-.737 15.989-4.436 21.557-10.005C62.187 50.8 65.812 43.3 66.41 35.02h0l.04-.64c.269-5.004-.546-9.788-2.228-14.139-.75-2.158-.345-4.324.804-5.961 1.168-1.665 3.1-2.781 5.348-2.781h0z"/>
                <circle cx="342.5" cy="779.5" r="21" fill="#79000F" stroke="url(#jbvl7iccce)" stroke-width="3"/>
                <path fill="url(#ago3sq2urf)" d="M350.305 779.668c.312 0 .583.114.811.342.227.227.341.498.341.81v.586c0 .313-.114.583-.341.811-.228.227-.499.342-.811.342h-6.113c-.105 0-.157.051-.157.156v5.137c0 .312-.114.583-.341.81-.228.228-.498.342-.811.342h-.801c-.312 0-.583-.114-.81-.342-.228-.227-.342-.498-.342-.81v-5.137c0-.105-.046-.156-.137-.156h-6.64c-.313 0-.583-.115-.811-.342-.227-.228-.342-.498-.342-.811v-.586c0-.312.115-.583.342-.81.228-.228.498-.342.811-.342h6.64c.091 0 .137-.052.137-.156v-3.282c0-.09-.046-.136-.137-.136H337.2c-.091 0-.157.046-.196.136-.339.677-.683 1.283-1.035 1.817-.169.261-.417.423-.742.488-.091.013-.176.02-.254.02-.234 0-.449-.059-.645-.176-.247-.117-.514-.247-.8-.391-.247-.104-.404-.299-.469-.586-.013-.065-.02-.13-.02-.195 0-.195.059-.378.176-.547.469-.612.892-1.341 1.27-2.187.417-.951.768-1.947 1.054-2.989.091-.312.267-.553.528-.722.208-.13.423-.196.644-.196.078 0 .156.007.235.02l.781.156c.312.052.554.215.723.488.104.169.156.352.156.547 0 .091-.013.189-.039.293-.091.3-.196.638-.313 1.016-.012.039-.007.071.02.098.026.026.052.039.078.039h2.422c.104 0 .156-.046.156-.137v-1.934c0-.312.114-.583.342-.81.227-.228.498-.342.81-.342h.801c.313 0 .583.114.811.342.227.227.341.498.341.81v1.914c0 .105.046.157.137.157h4.961c.313 0 .583.114.811.341.227.228.341.499.341.811v.566c0 .313-.114.583-.341.811-.228.228-.498.342-.811.342h-4.941c-.105 0-.157.046-.157.136v3.282c0 .104.052.156.157.156h6.113z"/>
            </g>
        </g>
    </g>
</svg>
