<svg xmlns="http://www.w3.org/2000/svg" xmlns:xlink="http://www.w3.org/1999/xlink" width="100" height="100" viewBox="0 0 100 100">
    <defs>
        <linearGradient id="oeg9k0mora" x1="40.62%" x2="60.046%" y1="0%" y2="100%">
            <stop offset="0%" stop-color="#F7ECA8"/>
            <stop offset="50.754%" stop-color="#BF9437" stop-opacity=".7"/>
            <stop offset="100%" stop-color="#E7CC7E"/>
        </linearGradient>
        <linearGradient id="wedmjkz84d" x1="40.62%" x2="60.046%" y1="0%" y2="100%">
            <stop offset="0%" stop-color="#F7ECA8"/>
            <stop offset="22.413%" stop-color="#D5B35E" stop-opacity=".867"/>
            <stop offset="44.079%" stop-color="#D9BC6B" stop-opacity=".837"/>
            <stop offset="67.752%" stop-color="#BF9437" stop-opacity=".7"/>
            <stop offset="100%" stop-color="#E7CC7E"/>
        </linearGradient>
        <linearGradient id="85yvthg5xe" x1="3.314%" x2="100%" y1="0%" y2="100%">
            <stop offset="0%" stop-color="#F7ECA8"/>
            <stop offset="50.754%" stop-color="#BF9437" stop-opacity=".7"/>
            <stop offset="100%" stop-color="#E7CC7E"/>
        </linearGradient>
        <linearGradient id="idpppxw6df" x1="4.095%" x2="99.164%" y1="0%" y2="100%">
            <stop offset="0%" stop-color="#F7ECA8"/>
            <stop offset="50.754%" stop-color="#BF9437"/>
            <stop offset="100%" stop-color="#E7CC7E"/>
        </linearGradient>
        <filter id="qlattz97ab" width="108%" height="103.7%" x="-4%" y="-1.8%" filterUnits="objectBoundingBox">
            <feOffset in="SourceAlpha" result="shadowOffsetOuter1"/>
            <feGaussianBlur in="shadowOffsetOuter1" result="shadowBlurOuter1" stdDeviation="5"/>
            <feColorMatrix in="shadowBlurOuter1" values="0 0 0 0 0.321148859 0 0 0 0 0.20422573 0 0 0 0 0 0 0 0 1 0"/>
        </filter>
        <path id="a8k1ecpiwc" d="M375 0v812H0V0h375zm-70.374 9.998H70.374c-5.486 0-9.446 5.407-7.644 10.533l.087.236c1.612 4.161 2.392 8.738 2.135 13.525l-.039.626c-1.141 15.78-13.8 28.584-29.52 29.957l-.477.038c-4.805.347-9.407-.35-13.604-1.89l-.545-.205c-5.115-1.982-10.6 1.865-10.765 7.303l-.004.252v671.252c0 5.486 5.406 9.446 10.533 7.643l.236-.087c4.161-1.612 8.737-2.39 13.524-2.134l.625.039c15.78 1.142 28.585 13.8 29.958 29.518l.038.477c.347 4.805-.35 9.408-1.89 13.606l-.206.545c-1.98 5.115 1.867 10.6 7.305 10.764l.252.004h234.252c5.487 0 9.447-5.406 7.643-10.532l-.087-.236c-1.611-4.162-2.392-8.738-2.134-13.525l.04-.626c1.14-15.78 13.798-28.584 29.517-29.957l.477-.038c4.805-.347 9.408.35 13.606 1.89l.545.206c5.116 1.98 10.6-1.867 10.765-7.305l.004-.252V70.373c0-5.486-5.405-9.446-10.532-7.642l-.236.087c-4.162 1.611-8.738 2.39-13.525 2.133l-.625-.039c-15.782-1.141-28.584-13.798-29.957-29.517l-.038-.477c-.348-4.805.35-9.409 1.889-13.606l.205-.545c1.982-5.115-1.866-10.6-7.304-10.765l-.252-.004z"/>
    </defs>
    <g fill="none" fill-rule="evenodd">
        <g>
            <g>
                <path stroke="#A90015" stroke-width="10" d="M5 5H370V807H5z" transform="translate(0 -712)"/>
                <path stroke="url(#oeg9k0mora)" stroke-width="3" d="M11.5 11.5H363.5V800.5H11.5z" transform="translate(0 -712)"/>
            </g>
            <g transform="translate(0 -712)">
                <g>
                    <use fill="#000" filter="url(#qlattz97ab)" xlink:href="#a8k1ecpiwc"/>
                    <use fill="#A90015" xlink:href="#a8k1ecpiwc"/>
                </g>
                <path stroke="url(#wedmjkz84d)" stroke-width="3" d="M304.603 11.498c2.326.076 4.281 1.226 5.45 2.89 1.15 1.64 1.53 3.779.728 5.843h0l-.21.558c-1.611 4.392-2.343 9.21-1.98 14.237.738 8.465 4.437 15.988 10.005 21.556 5.606 5.605 13.105 9.23 21.386 9.827h0l.639.04c5.003.27 9.787-.545 14.14-2.226 2.157-.751 4.323-.347 5.96.802 1.664 1.168 2.78 3.1 2.78 5.348h0v671.229c-.076 2.326-1.225 4.281-2.89 5.45-1.64 1.15-3.778 1.53-5.843.729h0l-.558-.21c-4.392-1.613-9.209-2.344-14.237-1.981-8.465.737-15.988 4.436-21.556 10.005-5.605 5.605-9.23 13.104-9.827 21.385h0l-.04.639c-.27 5.005.545 9.79 2.227 14.143.75 2.157.345 4.322-.803 5.958-1.169 1.664-3.101 2.78-5.349 2.78h0H70.396c-2.326-.076-4.281-1.226-5.45-2.89-1.15-1.64-1.53-3.778-.729-5.842h0l.21-.558c1.613-4.392 2.344-9.209 1.981-14.237-.737-8.465-4.437-15.987-10.005-21.555-5.605-5.606-13.105-9.23-21.386-9.829h0l-.64-.04c-5.004-.269-9.789.545-14.14 2.228-2.157.749-4.322.344-5.958-.804-1.665-1.168-2.781-3.1-2.781-5.348h0V70.396c.076-2.326 1.226-4.28 2.89-5.45 1.64-1.149 3.778-1.53 5.843-.727h0l.558.21c4.391 1.612 9.207 2.343 14.235 1.98 8.466-.737 15.989-4.436 21.557-10.005C62.187 50.8 65.812 43.3 66.41 35.02h0l.04-.64c.269-5.004-.546-9.788-2.228-14.139-.75-2.158-.345-4.324.804-5.961 1.168-1.665 3.1-2.781 5.348-2.781h0z"/>
                <circle cx="32.5" cy="779.5" r="21" fill="#79000F" stroke="url(#85yvthg5xe)" stroke-width="3"/>
                <path fill="url(#idpppxw6df)" d="M35.617 782.773c.013-.039.01-.071-.01-.098-.019-.026-.042-.039-.068-.039h-1.797c-.091 0-.137.052-.137.157v3.164c0 .09.046.136.137.136h1.191c.013 0 .023-.007.03-.019.007-.013.003-.027-.01-.039-.247-.105-.41-.281-.488-.528-.027-.09-.039-.182-.039-.273 0-.156.045-.306.136-.449.391-.638.743-1.309 1.055-2.012zm-6.367-6.836c-.027.013-.032.032-.02.059.013.026.033.039.059.039h5.703c.026 0 .046-.013.059-.039.012-.027.006-.046-.02-.059-1.211-1.067-2.161-2.058-2.852-2.969-.051-.078-.104-.078-.156 0-.742 1.003-1.667 1.993-2.773 2.969zm1.25 6.856c0-.105-.052-.157-.156-.157h-1.797c-.039 0-.066.013-.078.039-.013.027-.013.052 0 .078.429.613.774 1.16 1.035 1.641.078.156.117.313.117.469 0 .143-.026.28-.078.41-.13.3-.345.515-.645.645l-.254.117c-.012 0-.019.009-.019.029 0 .02.013.029.039.029h1.68c.104 0 .156-.046.156-.136v-3.164zm6.289-.157c-.026 0-.039.007-.039.02 0 .013.007.019.019.019l.723.274c.273.091.456.273.547.547.026.09.039.182.039.273 0 .169-.052.332-.156.488-.664.912-1.087 1.485-1.27 1.719-.013.026-.013.052 0 .078.013.027.032.039.059.039h2.793c.312 0 .583.115.81.342.228.228.342.498.342.811v.175c0 .313-.114.583-.342.811-.227.228-.498.342-.81.342H24.875c-.313 0-.583-.114-.811-.342-.227-.228-.342-.498-.342-.811v-.175c0-.313.115-.583.342-.811.228-.227.498-.342.811-.342h2.265c.039 0 .069-.012.088-.039.02-.026.023-.058.01-.097-.234-.599-.515-1.179-.84-1.739-.091-.156-.136-.325-.136-.508 0-.104.019-.208.058-.312.091-.286.274-.481.547-.586l.273-.117c.013-.013.02-.026.02-.039 0-.013-.013-.02-.039-.02h-1.192c-.312 0-.583-.114-.81-.342-.228-.227-.342-.498-.342-.81v-.176c0-.312.114-.583.342-.81.227-.228.498-.342.81-.342h4.415c.104 0 .156-.046.156-.137v-1.328c0-.091-.052-.137-.156-.137h-2.5c-.222 0-.408-.075-.557-.224-.149-.15-.225-.335-.225-.557 0-.013-.009-.026-.029-.039-.02-.013-.036-.013-.049 0-.495.352-1.074.723-1.738 1.113-.183.105-.364.156-.547.156-.104 0-.208-.019-.312-.058-.3-.078-.547-.247-.743-.508-.13-.183-.273-.364-.429-.547-.144-.169-.215-.358-.215-.566 0-.066.007-.124.019-.176.039-.273.183-.481.43-.625 1.276-.703 2.493-1.582 3.652-2.637 1.107-.989 2.012-1.966 2.715-2.929.469-.638 1.068-.957 1.797-.957h.742c.742 0 1.355.305 1.836.918.938 1.184 1.999 2.252 3.184 3.203 1.145.924 2.331 1.673 3.554 2.246.248.117.404.312.469.586.013.065.02.136.02.215 0 .182-.066.358-.196.527-.182.234-.364.488-.546.762-.183.273-.43.449-.743.527-.104.026-.202.039-.293.039-.208 0-.403-.052-.585-.156-.625-.378-1.231-.775-1.817-1.192-.013-.012-.029-.012-.049 0-.019.013-.029.027-.029.039 0 .235-.081.433-.244.596-.163.163-.362.244-.596.244h-2.578c-.091 0-.137.046-.137.137v1.328c0 .091.046.137.137.137h4.492c.313 0 .583.114.811.342.227.227.342.498.342.81v.176c0 .312-.115.583-.342.81-.228.228-.498.342-.811.342h-1.445z"/>
            </g>
        </g>
    </g>
</svg>
