<svg xmlns="http://www.w3.org/2000/svg" width="91" height="30" viewBox="0 0 91 30">
    <g fill="none" fill-rule="evenodd">
        <g>
            <g>
                <g fill="#1C509B">
                    <path d="M10.622 3.511l-1.314-.65-.015.063c-.203.808-.516 1.484-.983 2.126l-.036.048.64.351.03.017.027-.021c.63-.49 1.159-1.068 1.55-1.52.14-.045.284-.103.284-.22 0-.09-.102-.147-.176-.19l-.033.042.026-.046zM3.355 10.542h5.453V9.297H3.355v1.245zm0-1.908h5.453V7.426H3.355v1.208zM1.879 11.7h1.476v-.508h5.453v.508h1.488V6.763H1.88V11.7z" transform="translate(-143 -442) translate(143 442) translate(0 18)"/>
                    <path d="M5.495 5.474h1.173V2.718H5.495v2.756zm2.557-2.756h3.458v-.664H7.942c.249-.152.592-.385 1.44-1.076.19-.057.34-.104.34-.259 0-.089-.112-.136-.218-.173L8.164.044l-.018.05c-.17.46-.652 1.17-.994 1.544l-.045.049.657.367H4.206l1.115-.63-.053-.049C4.704.852 3.397.101 3.25.017L3.22 0l-.635.49.064.067c.608.646.982 1.16 1.198 1.497H.666v.664h3.431v2.756H2.67l1.145-.796.042-.029-.027-.042C3.38 3.91 2.515 3.15 2.12 2.847l-.03-.023-.624.396.031.045c.485.691.631 1.02 1.117 2.171l.016.038H0v.65h12.097v-.65H8.052V2.718zM22.272 8.943h1.343V7.624h-1.343v1.32zm0-1.982h1.343V5.716h-1.343v1.245zm0-1.896h1.343V3.82h-1.343v1.245zm4.932 4.542v-.664h-2.257V7.624h1.696v-.663h-1.696V5.716h1.696v-.65h-1.696V3.82h2.113v-.662h-2.32c.243-.265.938-1.03.938-1.137 0-.081-.057-.14-.17-.175l-1.186-.347-.054-.015-.013.054c-.175.75-.276 1.049-.481 1.62h-1.56c.322-.485.447-.687.591-.926.072-.043.145-.117.145-.199 0-.117-.102-.184-.168-.199l-1.256-.402-.011.06c-.243 1.378-1.042 2.603-1.792 3.62l-.028.038.45.412.035-.034c.197-.187.385-.374.734-.747v4.826h6.29z" transform="translate(-143 -442) translate(143 442) translate(0 18)"/>
                    <path d="M17.405 4.882l.028.027c.93.882 1.265 1.295 1.505 1.674l.037.057.855-.903.04-.042-.045-.035c-.53-.422-1.015-.76-1.927-1.246l-.034-.018-.46.465V1.293h9.917V.63h-11.34v10.934h1.424v-.533h10.164v-.662H17.405V4.882z" transform="translate(-143 -442) translate(143 442) translate(0 18)"/>
                    <path d="M20.411 2.871c-.845-.644-1.83-1.14-2.018-1.233l-.035-.017-.455.477.04.036c.34.302.974.865 1.558 1.653l.037.048.92-.927-.047-.037zM20.008 6.046c-.313.538-1.441 2.281-2.315 3.136l-.043.042.87.67c.077.057.137.084.189.084.122 0 .13-.11.141-.264l.002-.017c.521-.71 1.451-2.41 1.72-3.085l.012-.03-.54-.6-.036.064zM39.588 7.41l-.017.06c-.072.267-.379 1.233-1.31 2.511l-.033.046.622.389.032.019.028-.022c.568-.436 1.56-1.372 2.012-1.896l.027-.016c.219-.126.252-.146.252-.223 0-.079-.086-.155-.12-.171l-1.493-.697z" transform="translate(-143 -442) translate(143 442) translate(0 18)"/>
                    <path d="M34.157 4.21c1.446-.884 2.366-1.835 2.936-2.6.959 1.145 1.9 1.95 2.94 2.6h-5.876zM38.078.165l-.015-.03h-1.867l-.014.029c-.916 1.848-2.187 3.383-5.416 4.87l-.072.032.528.487.033.018.03-.01c1.108-.394 2.037-.846 2.817-1.317v.63h2.257v1.64h-3.901v.652h3.901v3.364h-5.102v.65h11.627v-.65h-5.05V7.166h3.876v-.651h-3.875V4.874h2.283v-.611c.83.51 1.721.925 2.733 1.338l.036.014.486-.591-.064-.028c-1.975-.881-3.977-2.076-5.23-4.83z" transform="translate(-143 -442) translate(143 442) translate(0 18)"/>
                    <path d="M34.52 10.481l1.397-.71-.037-.05c-.875-1.18-2.022-2.07-2.15-2.167l-.031-.023-.61.437.031.043c.904 1.263 1.194 1.97 1.35 2.35l.05.12zM54.716 6.887h.495V3.114h-.495v3.773zm1.853 0h.508V3.114h-.508v3.773zm1.142 1.044l-.02-.039-.678.202.013.049c.156.566.21.785.342 1.399l-.799.217v-2.21h1.697V2.452h-1.697V.72c.066-.139.118-.249.118-.334 0-.119-.103-.19-.274-.19L55.104.158l.018.068c.075.286.089.418.089.829V2.45H53.5V7.55h1.71v2.544c-.894.212-1.349.285-1.873.37l-.093.015.404.979c.032.076.113.156.192.156.106 0 .208-.1.304-.205 1.171-.385 2.297-.796 3.348-1.224.076.471.114.864.14 1.128l.019.18.008.073 1.268-.596-.012-.044c-.223-.756-.521-1.644-1.205-2.995zM48.825 6.063c-.06.694-.387 1.327-.633 1.649V6.063h.633zm3.02 0v1.282h-.365c-.404 0-.404-.018-.404-.319v-.963h.769zm-4.907 5.662h1.254v-3.64l.311.273.035-.027c.943-.754 1.197-1.804 1.265-2.268h.319v1.075c0 .843.158.87.992.87h.73v2.624c0 .338-.005.38-.169.38-.126 0-.498-.027-.892-.086l-.09-.013.28.725h1.042c1.018 0 1.057-.197 1.057-1.03V5.4h-6.134v6.325z" transform="translate(-143 -442) translate(143 442) translate(0 18)"/>
                    <path d="M51.715 8.46L48.309 8.46 48.309 9.111 49.313 9.111 49.313 11.206 50.58 11.206 50.58 9.111 51.715 9.111zM46.508 1.33L53.411 1.33 53.411.679 46.508.679zM48.753 4h2.543V2.73h-2.543V4zm-1.358.65h5.22V2.067h-5.22V4.65zM69.567 6.63l.039.072.912-1.178-.03-.032c-.502-.54-.908-.822-2.241-1.718l-.041-.028-.396.523-.028.036.033.033c.553.55 1.389 1.601 1.752 2.292M69.74 3.648l.038.056.92-1.041.031-.037-.035-.035c-.842-.837-1.876-1.37-2.216-1.545l-.067-.035-.38.507.033.032c.684.663 1.027 1.148 1.676 2.098M67.595 7.209l-.032-.034C66.38 5.98 65.9 4.628 65.778 4.231v-.25h1.644v-.65h-1.644V1.497l.047-.005c.234-.028.668-.078 1.265-.185.131.049.21.072.292.072.165 0 .183-.106.183-.151 0-.058-.032-.124-.104-.208l-.746-.877-.039.024c-1.047.66-3.744.846-4.606.859l-.08.001.308.657.014.03h.034c.597 0 1.268-.028 1.996-.082V3.33h-2.258v.65h2.178c-.425 1.807-1.29 3.442-2.437 4.607l-.035.035.447.484.04-.033c.72-.636 1.467-1.358 2.065-2.34v4.954h1.436V6.32c.26.345.69.834 1.348 1.391l.042.035.427-.537z" transform="translate(-143 -442) translate(143 442) translate(0 18)"/>
                    <path d="M72.602 6.622V.678c.072-.085.144-.21.144-.293 0-.162-.182-.164-.244-.164H72.5L71.182.17 71.115.17l.019.093c.035.165.058.275.058.705v6.07l-3.981 1.178-.054.016.246.644 3.789-1.134v3.948h1.41V7.313l1.776-.524-.217-.62-1.559.453zM82.298 6.013l-.093-.717-.067.035c-.57.301-.76.387-1.267.617l-.039.018V3.498h1.358v-.65h-1.358V.683c.05-.095.104-.22.104-.298 0-.1-.092-.165-.232-.165L79.362.156l.009.062c.038.294.038.601.038.898v1.732H77.66v.65h1.75V6.58l-.168.062c-.374.14-1.153.433-1.776.58l-.055.014.343 1.078c.017.082.088.152.155.152.094 0 .182-.087.262-.26.482-.225.635-.3.964-.463l.274-.136v2.876c0 .39-.013.493-.339.493-.226 0-.503-.043-.877-.11l-.076-.015.153.8h1.426c1.136 0 1.136-.353 1.136-1.205V6.847c.403-.215.937-.519 1.436-.816l.03-.018z" transform="translate(-143 -442) translate(143 442) translate(0 18)"/>
                    <path d="M89.916 11.04c-.898-.262-2.054-.673-3.07-1.528.896-.974 1.946-2.372 2.233-4.573l.008-.06h-2.461V2.83h3.132v-.663h-3.132V.726l.025-.032c.068-.081.131-.16.131-.272 0-.104-.086-.177-.207-.177L85.073.181l.027.128c.038.175.09.416.09.72v1.137h-2.91v.663h2.91v2.05h-2.545v.663h4.779c-.2 1.142-.653 2.16-1.385 3.109-.604-.786-1.026-1.81-1.163-2.82l-.008-.06-1.41.374.01.049c.331 1.703 1.355 2.906 1.723 3.293-.566.45-1.755 1.228-3.613 1.639l-.075.016.4.614.036-.007c2.169-.45 3.456-1.2 4.046-1.622.44.346 1.605 1.135 3.5 1.548l.033.007.47-.62-.072-.023z" transform="translate(-143 -442) translate(143 442) translate(0 18)"/>
                </g>
                <g>
                    <path fill="#A90015" d="M0 3.122L2.814 3.122 2.814 0.465 0 0.465z" transform="translate(-143 -442) translate(143 442) translate(16)"/>
                    <path fill="#1C509B" d="M.045 15.803L2.747 15.803 2.747 5.083.045 5.083zM17.259 15.803L20.118 15.803 20.118 9.728 26.885 9.728 26.885 7.249 20.118 7.249 20.118 2.649 27.867 2.649 27.867.17 17.259.17zM29.524 15.803L32.227 15.803 32.227 0 29.524 0zM42.17 10.577c0 1.72-.961 2.881-2.39 2.881-1.43 0-2.413-1.161-2.413-2.881V4.748h-2.702v5.985c0 3.037 2.055 5.07 5.114 5.07 3.06 0 5.092-2.033 5.092-5.07V4.748H42.17v5.829zM10.081 4.748c-3.06 0-5.114 2.033-5.114 5.07v5.985h2.702V9.974c0-1.72.983-2.88 2.412-2.88 1.43 0 2.39 1.16 2.39 2.88v5.83h2.702V9.817c0-3.037-2.032-5.07-5.092-5.07M57.892 5.083L54.631 5.083 52.286 8.545 49.963 5.083 46.703 5.083 50.477 10.376 46.658 15.803 49.829 15.803 52.331 12.207 54.765 15.803 57.914 15.803 54.095 10.421z" transform="translate(-143 -442) translate(143 442) translate(16)"/>
                </g>
            </g>
        </g>
    </g>
</svg>
