<svg xmlns="http://www.w3.org/2000/svg" width="257" height="52" viewBox="0 0 257 52">
    <g fill="none" fill-rule="evenodd" stroke-linejoin="round">
        <g stroke="#000" stroke-width="2">
            <g>
                <g>
                    <path fill="#000" d="M0 39L255 39 255 22 0 22z" transform="translate(-59 -213) translate(60 110) translate(0 104)"/>
                    <path fill="#8B572A" d="M5 47L250 47 250 13 5 13z" transform="translate(-59 -213) translate(60 110) translate(0 104)"/>
                    <path fill="#A80015" d="M12 50L243 50 243 10 12 10z" transform="translate(-59 -213) translate(60 110) translate(0 104)"/>
                    <g fill="#FCFAF6">
                        <path d="M22 6.318c0-2.025-1.528-3.668-3.412-3.668-.62 0-1.194.191-1.695.502C16.658 1.372 15.25 0 13.53 0 12.52 0 11.625.479 11 1.226 10.375.479 9.48 0 8.47 0 6.75 0 5.342 1.373 5.106 3.152c-.5-.31-1.074-.502-1.695-.502C1.526 2.65 0 4.293 0 6.318c0 1.235.57 2.32 1.44 2.985-.4.864-.629 1.797-.629 2.774 0 4.376 4.38 7.923 9.781 7.923 5.402 0 9.78-3.547 9.78-7.923 0-.83-.158-1.63-.451-2.382C21.143 9.137 22 7.835 22 6.318M86 6.318c0-2.025-1.528-3.668-3.412-3.668-.62 0-1.194.191-1.695.502C80.658 1.372 79.25 0 77.53 0 76.52 0 75.625.479 75 1.226 74.375.479 73.48 0 72.47 0c-1.72 0-3.128 1.373-3.364 3.152-.5-.31-1.074-.502-1.695-.502C65.526 2.65 64 4.293 64 6.318c0 1.235.57 2.32 1.44 2.985-.4.864-.629 1.797-.629 2.774 0 4.376 4.38 7.923 9.781 7.923 5.402 0 9.78-3.547 9.78-7.923 0-.83-.158-1.63-.451-2.382C85.143 9.137 86 7.835 86 6.318" transform="translate(-59 -213) translate(60 110) translate(0 104) matrix(1 0 0 -1 85 20)"/>
                    </g>
                </g>
            </g>
        </g>
    </g>
</svg>
