<?xml version="1.0" encoding="utf-8"?>
<!-- Generator: Adobe Illustrator 24.2.1, SVG Export Plug-In . SVG Version: 6.00 Build 0)  -->
<svg version="1.1" id="圖層_1" xmlns="http://www.w3.org/2000/svg" xmlns:xlink="http://www.w3.org/1999/xlink" x="0px" y="0px"
	 viewBox="0 0 232 434.9" style="enable-background:new 0 0 232 434.9;" xml:space="preserve">
<style type="text/css">
	.st0{fill-rule:evenodd;clip-rule:evenodd;fill:#1C509B;stroke:#000000;stroke-linejoin:round;}
	.st1{fill-rule:evenodd;clip-rule:evenodd;fill:#FEF2D8;stroke:#000000;stroke-linejoin:round;}
	.st2{fill:none;stroke:#FFE69D;stroke-width:2;stroke-linecap:round;stroke-linejoin:round;}
</style>
<g>
	<g>
		<g transform="translate(-62 -254) translate(60 116)">
			<g>
				<g>
					<path class="st0" d="M2.5,572.4h231v-9H2.5V572.4z M7.5,563.4h221v-424H7.5V563.4z"/>
					<path class="st1" d="M11.5,563.4h213v-424h-213V563.4z"/>
					<g>
						<g>
							<path class="st2" d="M216.5,555.4h-3v-3h6v6h-9v-9h12l0,12h-15v-15h15v-15h-15l0,12h12v-9h-9v6h6v-3l-3,0"/>
							<path class="st2" d="M198.5,555.4h3v-3h-6v6h9v-9h-12l0,12h15v-15h-15v-15h15l0,12h-12v-9h9v6h-6v-3l3,0"/>
							<path class="st2" d="M186.5,555.4h-3v-3h6v6h-9v-9h12l0,12h-15v-15h15v-15h-15l0,12h12v-9h-9v6h6v-3l-3,0"/>
							<path class="st2" d="M168.5,555.4h3v-3h-6v6h9v-9h-12l0,12h15v-15h-15v-15h15l0,12h-12v-9h9v6h-6v-3l3,0"/>
							<path class="st2" d="M156.5,555.4h-3v-3h6v6h-9v-9h12l0,12h-15v-15h15v-15h-15l0,12h12v-9h-9v6h6v-3l-3,0"/>
							<path class="st2" d="M138.5,555.4h3v-3h-6v6h9v-9h-12l0,12h15v-15h-15v-15h15l0,12h-12v-9h9v6h-6v-3l3,0"/>
							<path class="st2" d="M126.5,555.4h-2v-3h5v6h-8v-9h11l0,12h-14v-15h14v-15h-14l0,12h11v-9h-8v6h5v-3l-2,0"/>
							<path class="st2" d="M110.5,555.4h2v-3h-5v6h8v-9h-11l0,12h14v-15h-14v-15h14l0,12h-11v-9h8v6h-5v-3l2,0"/>
							<path class="st2" d="M97.5,555.4h-3v-3h6v6h-9v-9h12l0,12h-15v-15h15v-15h-15l0,12h12v-9h-9v6h6v-3l-3,0"/>
							<path class="st2" d="M79.5,555.4h3v-3h-6v6h9v-9h-12l0,12h15v-15h-15v-15h15l0,12h-12v-9h9v6h-6v-3l3,0"/>
							<path class="st2" d="M67.5,555.4h-3v-3h6v6h-9v-9h12l0,12h-15v-15h15v-15h-15l0,12h12v-9h-9v6h6v-3l-3,0"/>
							<path class="st2" d="M49.5,555.4h3v-3h-6v6h9v-9h-12l0,12h15v-15h-15v-15h15l0,12h-12v-9h9v6h-6v-3l3,0"/>
							<path class="st2" d="M37.5,555.4h-3v-3h6v6h-9v-9h12l0,12h-15v-15h15v-15h-15l0,12h12v-9h-9v6h6v-3l-3,0"/>
							<path class="st2" d="M19.5,555.4h3v-3h-6v6h9v-9h-12l0,12h15v-15h-15v-15h15l0,12h-12v-9h9v6h-6v-3l3,0"/>
						</g>
						<g>
							<path class="st2" d="M216.5,525.4h-3v-3h6v6h-9v-9h12l0,12h-15v-15h15v-15h-15l0,12h12v-9h-9v6h6v-3l-3,0"/>
							<path class="st2" d="M198.5,525.4h3v-3h-6v6h9v-9h-12l0,12h15v-15h-15v-15h15l0,12h-12v-9h9v6h-6v-3l3,0"/>
							<path class="st2" d="M186.5,525.4h-3v-3h6v6h-9v-9h12l0,12h-15v-15h15v-15h-15l0,12h12v-9h-9v6h6v-3l-3,0"/>
							<path class="st2" d="M168.5,525.4h3v-3h-6v6h9v-9h-12l0,12h15v-15h-15v-15h15l0,12h-12v-9h9v6h-6v-3l3,0"/>
							<path class="st2" d="M156.5,525.4h-3v-3h6v6h-9v-9h12l0,12h-15v-15h15v-15h-15l0,12h12v-9h-9v6h6v-3l-3,0"/>
							<path class="st2" d="M138.5,525.4h3v-3h-6v6h9v-9h-12l0,12h15v-15h-15v-15h15l0,12h-12v-9h9v6h-6v-3l3,0"/>
							<path class="st2" d="M126.5,525.4h-2v-3h5v6h-8v-9h11l0,12h-14v-15h14v-15h-14l0,12h11v-9h-8v6h5v-3l-2,0"/>
							<path class="st2" d="M110.5,525.4h2v-3h-5v6h8v-9h-11l0,12h14v-15h-14v-15h14l0,12h-11v-9h8v6h-5v-3l2,0"/>
							<path class="st2" d="M97.5,525.4h-3v-3h6v6h-9v-9h12l0,12h-15v-15h15v-15h-15l0,12h12v-9h-9v6h6v-3l-3,0"/>
							<path class="st2" d="M79.5,525.4h3v-3h-6v6h9v-9h-12l0,12h15v-15h-15v-15h15l0,12h-12v-9h9v6h-6v-3l3,0"/>
							<path class="st2" d="M67.5,525.4h-3v-3h6v6h-9v-9h12l0,12h-15v-15h15v-15h-15l0,12h12v-9h-9v6h6v-3l-3,0"/>
							<path class="st2" d="M49.5,525.4h3v-3h-6v6h9v-9h-12l0,12h15v-15h-15v-15h15l0,12h-12v-9h9v6h-6v-3l3,0"/>
							<path class="st2" d="M37.5,525.4h-3v-3h6v6h-9v-9h12l0,12h-15v-15h15v-15h-15l0,12h12v-9h-9v6h6v-3l-3,0"/>
							<path class="st2" d="M19.5,525.4h3v-3h-6v6h9v-9h-12l0,12h15v-15h-15v-15h15l0,12h-12v-9h9v6h-6v-3l3,0"/>
						</g>
						<g>
							<path class="st2" d="M216.5,495.4h-3v-3h6v6h-9v-9h12l0,12h-15v-15h15v-15h-15l0,12h12v-9h-9v6h6v-3l-3,0"/>
							<path class="st2" d="M198.5,495.4h3v-3h-6v6h9v-9h-12l0,12h15v-15h-15v-15h15l0,12h-12v-9h9v6h-6v-3l3,0"/>
							<path class="st2" d="M186.5,495.4h-3v-3h6v6h-9v-9h12l0,12h-15v-15h15v-15h-15l0,12h12v-9h-9v6h6v-3l-3,0"/>
							<path class="st2" d="M168.5,495.4h3v-3h-6v6h9v-9h-12l0,12h15v-15h-15v-15h15l0,12h-12v-9h9v6h-6v-3l3,0"/>
							<path class="st2" d="M156.5,495.4h-3v-3h6v6h-9v-9h12l0,12h-15v-15h15v-15h-15l0,12h12v-9h-9v6h6v-3l-3,0"/>
							<path class="st2" d="M138.5,495.4h3v-3h-6v6h9v-9h-12l0,12h15v-15h-15v-15h15l0,12h-12v-9h9v6h-6v-3l3,0"/>
							<path class="st2" d="M126.5,495.4h-2v-3h5v6h-8v-9h11l0,12h-14v-15h14v-15h-14l0,12h11v-9h-8v6h5v-3l-2,0"/>
							<path class="st2" d="M110.5,495.4h2v-3h-5v6h8v-9h-11l0,12h14v-15h-14v-15h14l0,12h-11v-9h8v6h-5v-3l2,0"/>
							<path class="st2" d="M97.5,495.4h-3v-3h6v6h-9v-9h12l0,12h-15v-15h15v-15h-15l0,12h12v-9h-9v6h6v-3l-3,0"/>
							<path class="st2" d="M79.5,495.4h3v-3h-6v6h9v-9h-12l0,12h15v-15h-15v-15h15l0,12h-12v-9h9v6h-6v-3l3,0"/>
							<path class="st2" d="M67.5,495.4h-3v-3h6v6h-9v-9h12l0,12h-15v-15h15v-15h-15l0,12h12v-9h-9v6h6v-3l-3,0"/>
							<path class="st2" d="M49.5,495.4h3v-3h-6v6h9v-9h-12l0,12h15v-15h-15v-15h15l0,12h-12v-9h9v6h-6v-3l3,0"/>
							<path class="st2" d="M37.5,495.4h-3v-3h6v6h-9v-9h12l0,12h-15v-15h15v-15h-15l0,12h12v-9h-9v6h6v-3l-3,0"/>
							<path class="st2" d="M19.5,495.4h3v-3h-6v6h9v-9h-12l0,12h15v-15h-15v-15h15l0,12h-12v-9h9v6h-6v-3l3,0"/>
						</g>
						<g>
							<path class="st2" d="M216.5,465.4h-3v-3h6v6h-9v-9h12l0,12h-15v-15h15v-15h-15l0,12h12v-9h-9v6h6v-3l-3,0"/>
							<path class="st2" d="M198.5,465.4h3v-3h-6v6h9v-9h-12l0,12h15v-15h-15v-15h15l0,12h-12v-9h9v6h-6v-3l3,0"/>
							<path class="st2" d="M186.5,465.4h-3v-3h6v6h-9v-9h12l0,12h-15v-15h15v-15h-15l0,12h12v-9h-9v6h6v-3l-3,0"/>
							<path class="st2" d="M168.5,465.4h3v-3h-6v6h9v-9h-12l0,12h15v-15h-15v-15h15l0,12h-12v-9h9v6h-6v-3l3,0"/>
							<path class="st2" d="M156.5,465.4h-3v-3h6v6h-9v-9h12l0,12h-15v-15h15v-15h-15l0,12h12v-9h-9v6h6v-3l-3,0"/>
							<path class="st2" d="M138.5,465.4h3v-3h-6v6h9v-9h-12l0,12h15v-15h-15v-15h15l0,12h-12v-9h9v6h-6v-3l3,0"/>
							<path class="st2" d="M126.5,465.4h-2v-3h5v6h-8v-9h11l0,12h-14v-15h14v-15h-14l0,12h11v-9h-8v6h5v-3l-2,0"/>
							<path class="st2" d="M110.5,465.4h2v-3h-5v6h8v-9h-11l0,12h14v-15h-14v-15h14l0,12h-11v-9h8v6h-5v-3l2,0"/>
							<path class="st2" d="M97.5,465.4h-3v-3h6v6h-9v-9h12l0,12h-15v-15h15v-15h-15l0,12h12v-9h-9v6h6v-3l-3,0"/>
							<path class="st2" d="M79.5,465.4h3v-3h-6v6h9v-9h-12l0,12h15v-15h-15v-15h15l0,12h-12v-9h9v6h-6v-3l3,0"/>
							<path class="st2" d="M67.5,465.4h-3v-3h6v6h-9v-9h12l0,12h-15v-15h15v-15h-15l0,12h12v-9h-9v6h6v-3l-3,0"/>
							<path class="st2" d="M49.5,465.4h3v-3h-6v6h9v-9h-12l0,12h15v-15h-15v-15h15l0,12h-12v-9h9v6h-6v-3l3,0"/>
							<path class="st2" d="M37.5,465.4h-3v-3h6v6h-9v-9h12l0,12h-15v-15h15v-15h-15l0,12h12v-9h-9v6h6v-3l-3,0"/>
							<path class="st2" d="M19.5,465.4h3v-3h-6v6h9v-9h-12l0,12h15v-15h-15v-15h15l0,12h-12v-9h9v6h-6v-3l3,0"/>
						</g>
						<g>
							<path class="st2" d="M216.5,435.4h-3v-3h6v6h-9v-9h12l0,12h-15v-15h15v-15h-15l0,12h12v-9h-9v6h6v-3l-3,0"/>
							<path class="st2" d="M198.5,435.4h3v-3h-6v6h9v-9h-12l0,12h15v-15h-15v-15h15l0,12h-12v-9h9v6h-6v-3l3,0"/>
							<path class="st2" d="M186.5,435.4h-3v-3h6v6h-9v-9h12l0,12h-15v-15h15v-15h-15l0,12h12v-9h-9v6h6v-3l-3,0"/>
							<path class="st2" d="M168.5,435.4h3v-3h-6v6h9v-9h-12l0,12h15v-15h-15v-15h15l0,12h-12v-9h9v6h-6v-3l3,0"/>
							<path class="st2" d="M156.5,435.4h-3v-3h6v6h-9v-9h12l0,12h-15v-15h15v-15h-15l0,12h12v-9h-9v6h6v-3l-3,0"/>
							<path class="st2" d="M138.5,435.4h3v-3h-6v6h9v-9h-12l0,12h15v-15h-15v-15h15l0,12h-12v-9h9v6h-6v-3l3,0"/>
							<path class="st2" d="M126.5,435.4h-2v-3h5v6h-8v-9h11l0,12h-14v-15h14v-15h-14l0,12h11v-9h-8v6h5v-3l-2,0"/>
							<path class="st2" d="M110.5,435.4h2v-3h-5v6h8v-9h-11l0,12h14v-15h-14v-15h14l0,12h-11v-9h8v6h-5v-3l2,0"/>
							<path class="st2" d="M97.5,435.4h-3v-3h6v6h-9v-9h12l0,12h-15v-15h15v-15h-15l0,12h12v-9h-9v6h6v-3l-3,0"/>
							<path class="st2" d="M79.5,435.4h3v-3h-6v6h9v-9h-12l0,12h15v-15h-15v-15h15l0,12h-12v-9h9v6h-6v-3l3,0"/>
							<path class="st2" d="M67.5,435.4h-3v-3h6v6h-9v-9h12l0,12h-15v-15h15v-15h-15l0,12h12v-9h-9v6h6v-3l-3,0"/>
							<path class="st2" d="M49.5,435.4h3v-3h-6v6h9v-9h-12l0,12h15v-15h-15v-15h15l0,12h-12v-9h9v6h-6v-3l3,0"/>
							<path class="st2" d="M37.5,435.4h-3v-3h6v6h-9v-9h12l0,12h-15v-15h15v-15h-15l0,12h12v-9h-9v6h6v-3l-3,0"/>
							<path class="st2" d="M19.5,435.4h3v-3h-6v6h9v-9h-12l0,12h15v-15h-15v-15h15l0,12h-12v-9h9v6h-6v-3l3,0"/>
						</g>
						<g>
							<path class="st2" d="M216.5,405.4h-3v-3h6v6h-9v-9h12l0,12h-15v-15h15v-15h-15l0,12h12v-9h-9v6h6v-3l-3,0"/>
							<path class="st2" d="M198.5,405.4h3v-3h-6v6h9v-9h-12l0,12h15v-15h-15v-15h15l0,12h-12v-9h9v6h-6v-3l3,0"/>
							<path class="st2" d="M186.5,405.4h-3v-3h6v6h-9v-9h12l0,12h-15v-15h15v-15h-15l0,12h12v-9h-9v6h6v-3l-3,0"/>
							<path class="st2" d="M168.5,405.4h3v-3h-6v6h9v-9h-12l0,12h15v-15h-15v-15h15l0,12h-12v-9h9v6h-6v-3l3,0"/>
							<path class="st2" d="M156.5,405.4h-3v-3h6v6h-9v-9h12l0,12h-15v-15h15v-15h-15l0,12h12v-9h-9v6h6v-3l-3,0"/>
							<path class="st2" d="M138.5,405.4h3v-3h-6v6h9v-9h-12l0,12h15v-15h-15v-15h15l0,12h-12v-9h9v6h-6v-3l3,0"/>
							<path class="st2" d="M126.5,405.4h-2v-3h5v6h-8v-9h11l0,12h-14v-15h14v-15h-14l0,12h11v-9h-8v6h5v-3l-2,0"/>
							<path class="st2" d="M110.5,405.4h2v-3h-5v6h8v-9h-11l0,12h14v-15h-14v-15h14l0,12h-11v-9h8v6h-5v-3l2,0"/>
							<path class="st2" d="M97.5,405.4h-3v-3h6v6h-9v-9h12l0,12h-15v-15h15v-15h-15l0,12h12v-9h-9v6h6v-3l-3,0"/>
							<path class="st2" d="M79.5,405.4h3v-3h-6v6h9v-9h-12l0,12h15v-15h-15v-15h15l0,12h-12v-9h9v6h-6v-3l3,0"/>
							<path class="st2" d="M67.5,405.4h-3v-3h6v6h-9v-9h12l0,12h-15v-15h15v-15h-15l0,12h12v-9h-9v6h6v-3l-3,0"/>
							<path class="st2" d="M49.5,405.4h3v-3h-6v6h9v-9h-12l0,12h15v-15h-15v-15h15l0,12h-12v-9h9v6h-6v-3l3,0"/>
							<path class="st2" d="M37.5,405.4h-3v-3h6v6h-9v-9h12l0,12h-15v-15h15v-15h-15l0,12h12v-9h-9v6h6v-3l-3,0"/>
							<path class="st2" d="M19.5,405.4h3v-3h-6v6h9v-9h-12l0,12h15v-15h-15v-15h15l0,12h-12v-9h9v6h-6v-3l3,0"/>
						</g>
						<g>
							<path class="st2" d="M216.5,375.4h-3v-3h6v6h-9v-9h12l0,12h-15v-15h15v-15h-15l0,12h12v-9h-9v6h6v-3l-3,0"/>
							<path class="st2" d="M198.5,375.4h3v-3h-6v6h9v-9h-12l0,12h15v-15h-15v-15h15l0,12h-12v-9h9v6h-6v-3l3,0"/>
							<path class="st2" d="M186.5,375.4h-3v-3h6v6h-9v-9h12l0,12h-15v-15h15v-15h-15l0,12h12v-9h-9v6h6v-3l-3,0"/>
							<path class="st2" d="M168.5,375.4h3v-3h-6v6h9v-9h-12l0,12h15v-15h-15v-15h15l0,12h-12v-9h9v6h-6v-3l3,0"/>
							<path class="st2" d="M156.5,375.4h-3v-3h6v6h-9v-9h12l0,12h-15v-15h15v-15h-15l0,12h12v-9h-9v6h6v-3l-3,0"/>
							<path class="st2" d="M138.5,375.4h3v-3h-6v6h9v-9h-12l0,12h15v-15h-15v-15h15l0,12h-12v-9h9v6h-6v-3l3,0"/>
							<path class="st2" d="M126.5,375.4h-2v-3h5v6h-8v-9h11l0,12h-14v-15h14v-15h-14l0,12h11v-9h-8v6h5v-3l-2,0"/>
							<path class="st2" d="M110.5,375.4h2v-3h-5v6h8v-9h-11l0,12h14v-15h-14v-15h14l0,12h-11v-9h8v6h-5v-3l2,0"/>
							<path class="st2" d="M97.5,375.4h-3v-3h6v6h-9v-9h12l0,12h-15v-15h15v-15h-15l0,12h12v-9h-9v6h6v-3l-3,0"/>
							<path class="st2" d="M79.5,375.4h3v-3h-6v6h9v-9h-12l0,12h15v-15h-15v-15h15l0,12h-12v-9h9v6h-6v-3l3,0"/>
							<path class="st2" d="M67.5,375.4h-3v-3h6v6h-9v-9h12l0,12h-15v-15h15v-15h-15l0,12h12v-9h-9v6h6v-3l-3,0"/>
							<path class="st2" d="M49.5,375.4h3v-3h-6v6h9v-9h-12l0,12h15v-15h-15v-15h15l0,12h-12v-9h9v6h-6v-3l3,0"/>
							<path class="st2" d="M37.5,375.4h-3v-3h6v6h-9v-9h12l0,12h-15v-15h15v-15h-15l0,12h12v-9h-9v6h6v-3l-3,0"/>
							<path class="st2" d="M19.5,375.4h3v-3h-6v6h9v-9h-12l0,12h15v-15h-15v-15h15l0,12h-12v-9h9v6h-6v-3l3,0"/>
						</g>
						<g>
							<path class="st2" d="M216.5,345.4h-3v-3h6v6h-9v-9h12l0,12h-15v-15h15v-15h-15l0,12h12v-9h-9v6h6v-3l-3,0"/>
							<path class="st2" d="M198.5,345.4h3v-3h-6v6h9v-9h-12l0,12h15v-15h-15v-15h15l0,12h-12v-9h9v6h-6v-3l3,0"/>
							<path class="st2" d="M186.5,345.4h-3v-3h6v6h-9v-9h12l0,12h-15v-15h15v-15h-15l0,12h12v-9h-9v6h6v-3l-3,0"/>
							<path class="st2" d="M168.5,345.4h3v-3h-6v6h9v-9h-12l0,12h15v-15h-15v-15h15l0,12h-12v-9h9v6h-6v-3l3,0"/>
							<path class="st2" d="M156.5,345.4h-3v-3h6v6h-9v-9h12l0,12h-15v-15h15v-15h-15l0,12h12v-9h-9v6h6v-3l-3,0"/>
							<path class="st2" d="M138.5,345.4h3v-3h-6v6h9v-9h-12l0,12h15v-15h-15v-15h15l0,12h-12v-9h9v6h-6v-3l3,0"/>
							<path class="st2" d="M126.5,345.4h-2v-3h5v6h-8v-9h11l0,12h-14v-15h14v-15h-14l0,12h11v-9h-8v6h5v-3l-2,0"/>
							<path class="st2" d="M110.5,345.4h2v-3h-5v6h8v-9h-11l0,12h14v-15h-14v-15h14l0,12h-11v-9h8v6h-5v-3l2,0"/>
							<path class="st2" d="M97.5,345.4h-3v-3h6v6h-9v-9h12l0,12h-15v-15h15v-15h-15l0,12h12v-9h-9v6h6v-3l-3,0"/>
							<path class="st2" d="M79.5,345.4h3v-3h-6v6h9v-9h-12l0,12h15v-15h-15v-15h15l0,12h-12v-9h9v6h-6v-3l3,0"/>
							<path class="st2" d="M67.5,345.4h-3v-3h6v6h-9v-9h12l0,12h-15v-15h15v-15h-15l0,12h12v-9h-9v6h6v-3l-3,0"/>
							<path class="st2" d="M49.5,345.4h3v-3h-6v6h9v-9h-12l0,12h15v-15h-15v-15h15l0,12h-12v-9h9v6h-6v-3l3,0"/>
							<path class="st2" d="M37.5,345.4h-3v-3h6v6h-9v-9h12l0,12h-15v-15h15v-15h-15l0,12h12v-9h-9v6h6v-3l-3,0"/>
							<path class="st2" d="M19.5,345.4h3v-3h-6v6h9v-9h-12l0,12h15v-15h-15v-15h15l0,12h-12v-9h9v6h-6v-3l3,0"/>
						</g>
						<g>
							<path class="st2" d="M216.5,315.4h-3v-3h6v6h-9v-9h12l0,12h-15v-15h15v-15h-15l0,12h12v-9h-9v6h6v-3l-3,0"/>
							<path class="st2" d="M198.5,315.4h3v-3h-6v6h9v-9h-12l0,12h15v-15h-15v-15h15l0,12h-12v-9h9v6h-6v-3l3,0"/>
							<path class="st2" d="M186.5,315.4h-3v-3h6v6h-9v-9h12l0,12h-15v-15h15v-15h-15l0,12h12v-9h-9v6h6v-3l-3,0"/>
							<path class="st2" d="M168.5,315.4h3v-3h-6v6h9v-9h-12l0,12h15v-15h-15v-15h15l0,12h-12v-9h9v6h-6v-3l3,0"/>
							<path class="st2" d="M156.5,315.4h-3v-3h6v6h-9v-9h12l0,12h-15v-15h15v-15h-15l0,12h12v-9h-9v6h6v-3l-3,0"/>
							<path class="st2" d="M138.5,315.4h3v-3h-6v6h9v-9h-12l0,12h15v-15h-15v-15h15l0,12h-12v-9h9v6h-6v-3l3,0"/>
							<path class="st2" d="M126.5,315.4h-2v-3h5v6h-8v-9h11l0,12h-14v-15h14v-15h-14l0,12h11v-9h-8v6h5v-3l-2,0"/>
							<path class="st2" d="M110.5,315.4h2v-3h-5v6h8v-9h-11l0,12h14v-15h-14v-15h14l0,12h-11v-9h8v6h-5v-3l2,0"/>
							<path class="st2" d="M97.5,315.4h-3v-3h6v6h-9v-9h12l0,12h-15v-15h15v-15h-15l0,12h12v-9h-9v6h6v-3l-3,0"/>
							<path class="st2" d="M79.5,315.4h3v-3h-6v6h9v-9h-12l0,12h15v-15h-15v-15h15l0,12h-12v-9h9v6h-6v-3l3,0"/>
							<path class="st2" d="M67.5,315.4h-3v-3h6v6h-9v-9h12l0,12h-15v-15h15v-15h-15l0,12h12v-9h-9v6h6v-3l-3,0"/>
							<path class="st2" d="M49.5,315.4h3v-3h-6v6h9v-9h-12l0,12h15v-15h-15v-15h15l0,12h-12v-9h9v6h-6v-3l3,0"/>
							<path class="st2" d="M37.5,315.4h-3v-3h6v6h-9v-9h12l0,12h-15v-15h15v-15h-15l0,12h12v-9h-9v6h6v-3l-3,0"/>
							<path class="st2" d="M19.5,315.4h3v-3h-6v6h9v-9h-12l0,12h15v-15h-15v-15h15l0,12h-12v-9h9v6h-6v-3l3,0"/>
						</g>
						<g>
							<path class="st2" d="M216.5,285.4h-3v-3h6v6h-9v-9h12l0,12h-15v-15h15v-15h-15l0,12h12v-9h-9v6h6v-3l-3,0"/>
							<path class="st2" d="M198.5,285.4h3v-3h-6v6h9v-9h-12l0,12h15v-15h-15v-15h15l0,12h-12v-9h9v6h-6v-3l3,0"/>
							<path class="st2" d="M186.5,285.4h-3v-3h6v6h-9v-9h12l0,12h-15v-15h15v-15h-15l0,12h12v-9h-9v6h6v-3l-3,0"/>
							<path class="st2" d="M168.5,285.4h3v-3h-6v6h9v-9h-12l0,12h15v-15h-15v-15h15l0,12h-12v-9h9v6h-6v-3l3,0"/>
							<path class="st2" d="M156.5,285.4h-3v-3h6v6h-9v-9h12l0,12h-15v-15h15v-15h-15l0,12h12v-9h-9v6h6v-3l-3,0"/>
							<path class="st2" d="M138.5,285.4h3v-3h-6v6h9v-9h-12l0,12h15v-15h-15v-15h15l0,12h-12v-9h9v6h-6v-3l3,0"/>
							<path class="st2" d="M126.5,285.4h-2v-3h5v6h-8v-9h11l0,12h-14v-15h14v-15h-14l0,12h11v-9h-8v6h5v-3l-2,0"/>
							<path class="st2" d="M110.5,285.4h2v-3h-5v6h8v-9h-11l0,12h14v-15h-14v-15h14l0,12h-11v-9h8v6h-5v-3l2,0"/>
							<path class="st2" d="M97.5,285.4h-3v-3h6v6h-9v-9h12l0,12h-15v-15h15v-15h-15l0,12h12v-9h-9v6h6v-3l-3,0"/>
							<path class="st2" d="M79.5,285.4h3v-3h-6v6h9v-9h-12l0,12h15v-15h-15v-15h15l0,12h-12v-9h9v6h-6v-3l3,0"/>
							<path class="st2" d="M67.5,285.4h-3v-3h6v6h-9v-9h12l0,12h-15v-15h15v-15h-15l0,12h12v-9h-9v6h6v-3l-3,0"/>
							<path class="st2" d="M49.5,285.4h3v-3h-6v6h9v-9h-12l0,12h15v-15h-15v-15h15l0,12h-12v-9h9v6h-6v-3l3,0"/>
							<path class="st2" d="M37.5,285.4h-3v-3h6v6h-9v-9h12l0,12h-15v-15h15v-15h-15l0,12h12v-9h-9v6h6v-3l-3,0"/>
							<path class="st2" d="M19.5,285.4h3v-3h-6v6h9v-9h-12l0,12h15v-15h-15v-15h15l0,12h-12v-9h9v6h-6v-3l3,0"/>
						</g>
						<g>
							<path class="st2" d="M216.5,255.4h-3v-3h6v6h-9v-9h12l0,12h-15v-15h15v-15h-15l0,12h12v-9h-9v6h6v-3l-3,0"/>
							<path class="st2" d="M198.5,255.4h3v-3h-6v6h9v-9h-12l0,12h15v-15h-15v-15h15l0,12h-12v-9h9v6h-6v-3l3,0"/>
							<path class="st2" d="M186.5,255.4h-3v-3h6v6h-9v-9h12l0,12h-15v-15h15v-15h-15l0,12h12v-9h-9v6h6v-3l-3,0"/>
							<path class="st2" d="M168.5,255.4h3v-3h-6v6h9v-9h-12l0,12h15v-15h-15v-15h15l0,12h-12v-9h9v6h-6v-3l3,0"/>
							<path class="st2" d="M156.5,255.4h-3v-3h6v6h-9v-9h12l0,12h-15v-15h15v-15h-15l0,12h12v-9h-9v6h6v-3l-3,0"/>
							<path class="st2" d="M138.5,255.4h3v-3h-6v6h9v-9h-12l0,12h15v-15h-15v-15h15l0,12h-12v-9h9v6h-6v-3l3,0"/>
							<path class="st2" d="M126.5,255.4h-2v-3h5v6h-8v-9h11l0,12h-14v-15h14v-15h-14l0,12h11v-9h-8v6h5v-3l-2,0"/>
							<path class="st2" d="M110.5,255.4h2v-3h-5v6h8v-9h-11l0,12h14v-15h-14v-15h14l0,12h-11v-9h8v6h-5v-3l2,0"/>
							<path class="st2" d="M97.5,255.4h-3v-3h6v6h-9v-9h12l0,12h-15v-15h15v-15h-15l0,12h12v-9h-9v6h6v-3l-3,0"/>
							<path class="st2" d="M79.5,255.4h3v-3h-6v6h9v-9h-12l0,12h15v-15h-15v-15h15l0,12h-12v-9h9v6h-6v-3l3,0"/>
							<path class="st2" d="M67.5,255.4h-3v-3h6v6h-9v-9h12l0,12h-15v-15h15v-15h-15l0,12h12v-9h-9v6h6v-3l-3,0"/>
							<path class="st2" d="M49.5,255.4h3v-3h-6v6h9v-9h-12l0,12h15v-15h-15v-15h15l0,12h-12v-9h9v6h-6v-3l3,0"/>
							<path class="st2" d="M37.5,255.4h-3v-3h6v6h-9v-9h12l0,12h-15v-15h15v-15h-15l0,12h12v-9h-9v6h6v-3l-3,0"/>
							<path class="st2" d="M19.5,255.4h3v-3h-6v6h9v-9h-12l0,12h15v-15h-15v-15h15l0,12h-12v-9h9v6h-6v-3l3,0"/>
						</g>
						<g>
							<path class="st2" d="M216.5,225.4h-3v-3h6v6h-9v-9h12l0,12h-15v-15h15v-15h-15l0,12h12v-9h-9v6h6v-3l-3,0"/>
							<path class="st2" d="M198.5,225.4h3v-3h-6v6h9v-9h-12l0,12h15v-15h-15v-15h15l0,12h-12v-9h9v6h-6v-3l3,0"/>
							<path class="st2" d="M186.5,225.4h-3v-3h6v6h-9v-9h12l0,12h-15v-15h15v-15h-15l0,12h12v-9h-9v6h6v-3l-3,0"/>
							<path class="st2" d="M168.5,225.4h3v-3h-6v6h9v-9h-12l0,12h15v-15h-15v-15h15l0,12h-12v-9h9v6h-6v-3l3,0"/>
							<path class="st2" d="M156.5,225.4h-3v-3h6v6h-9v-9h12l0,12h-15v-15h15v-15h-15l0,12h12v-9h-9v6h6v-3l-3,0"/>
							<path class="st2" d="M138.5,225.4h3v-3h-6v6h9v-9h-12l0,12h15v-15h-15v-15h15l0,12h-12v-9h9v6h-6v-3l3,0"/>
							<path class="st2" d="M126.5,225.4h-2v-3h5v6h-8v-9h11l0,12h-14v-15h14v-15h-14l0,12h11v-9h-8v6h5v-3l-2,0"/>
							<path class="st2" d="M110.5,225.4h2v-3h-5v6h8v-9h-11l0,12h14v-15h-14v-15h14l0,12h-11v-9h8v6h-5v-3l2,0"/>
							<path class="st2" d="M97.5,225.4h-3v-3h6v6h-9v-9h12l0,12h-15v-15h15v-15h-15l0,12h12v-9h-9v6h6v-3l-3,0"/>
							<path class="st2" d="M79.5,225.4h3v-3h-6v6h9v-9h-12l0,12h15v-15h-15v-15h15l0,12h-12v-9h9v6h-6v-3l3,0"/>
							<path class="st2" d="M67.5,225.4h-3v-3h6v6h-9v-9h12l0,12h-15v-15h15v-15h-15l0,12h12v-9h-9v6h6v-3l-3,0"/>
							<path class="st2" d="M49.5,225.4h3v-3h-6v6h9v-9h-12l0,12h15v-15h-15v-15h15l0,12h-12v-9h9v6h-6v-3l3,0"/>
							<path class="st2" d="M37.5,225.4h-3v-3h6v6h-9v-9h12l0,12h-15v-15h15v-15h-15l0,12h12v-9h-9v6h6v-3l-3,0"/>
							<path class="st2" d="M19.5,225.4h3v-3h-6v6h9v-9h-12l0,12h15v-15h-15v-15h15l0,12h-12v-9h9v6h-6v-3l3,0"/>
						</g>
						<g>
							<path class="st2" d="M216.5,195.4h-3v-3h6v6h-9v-9h12l0,12h-15v-15h15v-15h-15l0,12h12v-9h-9v6h6v-3l-3,0"/>
							<path class="st2" d="M198.5,195.4h3v-3h-6v6h9v-9h-12l0,12h15v-15h-15v-15h15l0,12h-12v-9h9v6h-6v-3l3,0"/>
							<path class="st2" d="M186.5,195.4h-3v-3h6v6h-9v-9h12l0,12h-15v-15h15v-15h-15l0,12h12v-9h-9v6h6v-3l-3,0"/>
							<path class="st2" d="M168.5,195.4h3v-3h-6v6h9v-9h-12l0,12h15v-15h-15v-15h15l0,12h-12v-9h9v6h-6v-3l3,0"/>
							<path class="st2" d="M156.5,195.4h-3v-3h6v6h-9v-9h12l0,12h-15v-15h15v-15h-15l0,12h12v-9h-9v6h6v-3l-3,0"/>
							<path class="st2" d="M138.5,195.4h3v-3h-6v6h9v-9h-12l0,12h15v-15h-15v-15h15l0,12h-12v-9h9v6h-6v-3l3,0"/>
							<path class="st2" d="M126.5,195.4h-2v-3h5v6h-8v-9h11l0,12h-14v-15h14v-15h-14l0,12h11v-9h-8v6h5v-3l-2,0"/>
							<path class="st2" d="M110.5,195.4h2v-3h-5v6h8v-9h-11l0,12h14v-15h-14v-15h14l0,12h-11v-9h8v6h-5v-3l2,0"/>
							<path class="st2" d="M97.5,195.4h-3v-3h6v6h-9v-9h12l0,12h-15v-15h15v-15h-15l0,12h12v-9h-9v6h6v-3l-3,0"/>
							<path class="st2" d="M79.5,195.4h3v-3h-6v6h9v-9h-12l0,12h15v-15h-15v-15h15l0,12h-12v-9h9v6h-6v-3l3,0"/>
							<path class="st2" d="M67.5,195.4h-3v-3h6v6h-9v-9h12l0,12h-15v-15h15v-15h-15l0,12h12v-9h-9v6h6v-3l-3,0"/>
							<path class="st2" d="M49.5,195.4h3v-3h-6v6h9v-9h-12l0,12h15v-15h-15v-15h15l0,12h-12v-9h9v6h-6v-3l3,0"/>
							<path class="st2" d="M37.5,195.4h-3v-3h6v6h-9v-9h12l0,12h-15v-15h15v-15h-15l0,12h12v-9h-9v6h6v-3l-3,0"/>
							<path class="st2" d="M19.5,195.4h3v-3h-6v6h9v-9h-12l0,12h15v-15h-15v-15h15l0,12h-12v-9h9v6h-6v-3l3,0"/>
						</g>
						<g>
							<path class="st2" d="M216.5,165.4h-3v-3h6v6h-9v-9h12l0,12h-15v-15h15v-15h-15l0,12h12v-9h-9v6h6v-3l-3,0"/>
							<path class="st2" d="M198.5,165.4h3v-3h-6v6h9v-9h-12l0,12h15v-15h-15v-15h15l0,12h-12v-9h9v6h-6v-3l3,0"/>
							<path class="st2" d="M186.5,165.4h-3v-3h6v6h-9v-9h12l0,12h-15v-15h15v-15h-15l0,12h12v-9h-9v6h6v-3l-3,0"/>
							<path class="st2" d="M168.5,165.4h3v-3h-6v6h9v-9h-12l0,12h15v-15h-15v-15h15l0,12h-12v-9h9v6h-6v-3l3,0"/>
							<path class="st2" d="M156.5,165.4h-3v-3h6v6h-9v-9h12l0,12h-15v-15h15v-15h-15l0,12h12v-9h-9v6h6v-3l-3,0"/>
							<path class="st2" d="M138.5,165.4h3v-3h-6v6h9v-9h-12l0,12h15v-15h-15v-15h15l0,12h-12v-9h9v6h-6v-3l3,0"/>
							<path class="st2" d="M126.5,165.4h-2v-3h5v6h-8v-9h11l0,12h-14v-15h14v-15h-14l0,12h11v-9h-8v6h5v-3l-2,0"/>
							<path class="st2" d="M110.5,165.4h2v-3h-5v6h8v-9h-11l0,12h14v-15h-14v-15h14l0,12h-11v-9h8v6h-5v-3l2,0"/>
							<path class="st2" d="M97.5,165.4h-3v-3h6v6h-9v-9h12l0,12h-15v-15h15v-15h-15l0,12h12v-9h-9v6h6v-3l-3,0"/>
							<path class="st2" d="M79.5,165.4h3v-3h-6v6h9v-9h-12l0,12h15v-15h-15v-15h15l0,12h-12v-9h9v6h-6v-3l3,0"/>
							<path class="st2" d="M67.5,165.4h-3v-3h6v6h-9v-9h12l0,12h-15v-15h15v-15h-15l0,12h12v-9h-9v6h6v-3l-3,0"/>
							<path class="st2" d="M49.5,165.4h3v-3h-6v6h9v-9h-12l0,12h15v-15h-15v-15h15l0,12h-12v-9h9v6h-6v-3l3,0"/>
							<path class="st2" d="M37.5,165.4h-3v-3h6v6h-9v-9h12l0,12h-15v-15h15v-15h-15l0,12h12v-9h-9v6h6v-3l-3,0"/>
							<path class="st2" d="M19.5,165.4h3v-3h-6v6h9v-9h-12l0,12h15v-15h-15v-15h15l0,12h-12v-9h9v6h-6v-3l3,0"/>
						</g>
					</g>
				</g>
			</g>
		</g>
	</g>
</g>
</svg>
