<svg xmlns="http://www.w3.org/2000/svg" width="90" height="90" viewBox="0 0 90 90">
    <style type="text/css">
	.flash{
		animation: flash 3s infinite;
    }

    @keyframes flash {
        0%{
            opacity: 0;
        }

        50%{
		    opacity: 1;
        }

		100% {
            opacity: 0;
		}
	}
    </style>
    <defs>
        <linearGradient id="bedj07g6za" x1="50%" x2="50%" y1="100%" y2="0%">
            <stop offset="0%" stop-color="#C9D1D9"/>
            <stop offset="100%" stop-color="#FFF"/>
        </linearGradient>
        <linearGradient id="mbfzni1glb" x1="50%" x2="50%" y1="100%" y2="0%">
            <stop offset="0%" stop-color="#C9D1D9"/>
            <stop offset="100%" stop-color="#FFF"/>
        </linearGradient>
        <linearGradient id="kacafootpc" x1="50%" x2="50%" y1="100%" y2="0%">
            <stop offset="0%" stop-color="#C9D1D9"/>
            <stop offset="100%" stop-color="#FFF"/>
        </linearGradient>
        <linearGradient id="5zbfkbcl4d" x1="50%" x2="50%" y1="100%" y2="0%">
            <stop offset="0%" stop-color="#C9D1D9"/>
            <stop offset="100%" stop-color="#FFF"/>
        </linearGradient>
        <linearGradient id="7muso98pre" x1="50%" x2="50%" y1="100%" y2="0%">
            <stop offset="0%" stop-color="#C9D1D9"/>
            <stop offset="100%" stop-color="#FFF"/>
        </linearGradient>
        <linearGradient id="a8dy5bvnvf" x1="50%" x2="50%" y1="100%" y2="0%">
            <stop offset="0%" stop-color="#C9D1D9"/>
            <stop offset="100%" stop-color="#FFF"/>
        </linearGradient>
    </defs>
    <g fill="none" fill-rule="evenodd">
        <g>
            <g>
                <g>
                    <g>
                        <path fill="#FFF" d="M45 0C20.188 0 0 20.187 0 45s20.188 45 45 45 45-20.187 45-45S69.812 0 45 0m0 1c24.262 0 44 19.738 44 44S69.262 89 45 89 1 69.262 1 45 20.738 1 45 1" transform="translate(-1051 -339) translate(47 146) translate(1004 193)"/>
                        <path stroke="url(#bedj07g6za)" d="M25.071 79.673C13.085 72.757 5.001 59.805 5.001 45c0-5.923 1.293-11.55 3.613-16.611" opacity=".8" transform="translate(-1051 -339) translate(47 146) translate(1004 193)"/>
                        <path stroke="url(#mbfzni1glb)" d="M45 5c17.702 0 32.755 11.559 38.009 27.525" opacity=".8" transform="translate(-1051 -339) translate(47 146) translate(1004 193)"/>
                        <path stroke="url(#kacafootpc)" d="M73.186 63.997C67.069 73.042 56.717 79 44.999 79c-11.58 0-21.829-5.82-27.97-14.69" opacity=".6" transform="translate(-1051 -339) translate(47 146) translate(1004 193)"/>
                        <path stroke="url(#5zbfkbcl4d)" d="M45 11c11.66 0 21.968 5.899 28.096 14.871" opacity=".6" transform="translate(-1051 -339) translate(47 146) translate(1004 193)"/>
                        <path stroke="url(#7muso98pre)" d="M22.548 25.102C28.044 18.905 36.066 15 45 15c3.39 0 6.65.563 9.69 1.6" opacity=".4" transform="translate(-1051 -339) translate(47 146) translate(1004 193)"/>
                        <path stroke="url(#a8dy5bvnvf)" d="M56.678 72.643C53.088 74.16 49.143 75 45 75c-7.464 0-14.291-2.725-19.541-7.236" opacity=".4" transform="translate(-1051 -339) translate(47 146) translate(1004 193)"/>
                    </g>
                    <g fill="#FFF">
                        <g>
                            <path class="flash" d="M5.28 29.92c0-.56.2-1.033.6-1.42.4-.387.88-.58 1.44-.58.56 0 1.033.193 1.42.58.386.387.58.86.58 1.42 0 .56-.194 1.04-.58 1.44-.387.4-.86.6-1.42.6-.56 0-1.04-.2-1.44-.6-.4-.4-.6-.88-.6-1.44M5.28 25.46c0-.555.2-1.03.6-1.426.4-.396.88-.594 1.44-.594.56 0 1.033.198 1.42.594.386.397.58.87.58 1.426 0 .555-.194 1.03-.58 1.426-.387.396-.86.594-1.42.594-.56 0-1.04-.198-1.44-.594-.4-.396-.6-.871-.6-1.426M5.28 20.92c0-.56.193-1.04.58-1.44.386-.4.86-.6 1.42-.6.56 0 1.04.2 1.44.6.4.4.6.88.6 1.44 0 .56-.2 1.034-.6 1.42-.4.387-.88.58-1.44.58-.56 0-1.034-.193-1.42-.58-.387-.386-.58-.86-.58-1.42M5.28 16.4c0-.56.197-1.04.594-1.44.396-.4.871-.6 1.426-.6.554 0 1.03.2 1.425.6.397.4.595.88.595 1.44 0 .56-.198 1.034-.595 1.42-.396.387-.87.58-1.425.58s-1.03-.193-1.426-.58c-.397-.386-.594-.86-.594-1.42M5.28 11.82c0-.566.2-1.044.6-1.434.4-.391.88-.586 1.44-.586.56 0 1.033.195 1.42.586.386.39.58.868.58 1.434s-.194 1.05-.58 1.454c-.387.404-.86.606-1.42.606-.56 0-1.04-.202-1.44-.606-.4-.404-.6-.888-.6-1.454M5.28 7.32c0-.56.2-1.04.6-1.44.4-.4.88-.6 1.44-.6.56 0 1.033.2 1.42.6.386.4.58.88.58 1.44 0 .56-.194 1.04-.58 1.44-.387.4-.86.6-1.42.6-.56 0-1.04-.2-1.44-.6-.4-.4-.6-.88-.6-1.44M5.28 2.74c0-.576.193-1.071.58-1.482C6.246.846 6.72.64 7.28.64c.56 0 1.04.206 1.44.618.4.41.6.906.6 1.482s-.2 1.072-.6 1.483c-.4.412-.88.617-1.44.617-.56 0-1.034-.205-1.42-.617-.387-.411-.58-.907-.58-1.483M0 2.68c0-.56.193-1.04.58-1.44.387-.4.86-.6 1.42-.6.56 0 1.04.2 1.44.6.4.4.6.88.6 1.44 0 .56-.2 1.034-.6 1.42-.4.386-.88.58-1.44.58-.56 0-1.033-.194-1.42-.58C.193 3.714 0 3.24 0 2.68" transform="translate(-1051 -339) translate(47 146) translate(1004 193) translate(28 28.36)"/>
                        </g>
                        <g>
                            <path class="flash" d="M17.16 25.4c0-.56.2-1.04.6-1.44.4-.4.88-.6 1.44-.6.56 0 1.032.2 1.42.6.386.4.58.88.58 1.44 0 .56-.194 1.04-.58 1.44-.388.4-.86.6-1.42.6-.56 0-1.04-.2-1.44-.6-.4-.4-.6-.88-.6-1.44M17.16 20.88c0-.56.192-1.04.58-1.44.386-.4.86-.6 1.42-.6.56 0 1.04.2 1.44.6.4.4.6.88.6 1.44 0 .56-.2 1.04-.6 1.44-.4.4-.88.6-1.44.6-.56 0-1.034-.2-1.42-.6-.388-.4-.58-.88-.58-1.44M17.16 16.36c0-.56.192-1.04.58-1.44.386-.4.86-.6 1.42-.6.56 0 1.04.2 1.44.6.4.4.6.88.6 1.44 0 .56-.2 1.033-.6 1.42-.4.387-.88.58-1.44.58-.56 0-1.034-.193-1.42-.58-.388-.387-.58-.86-.58-1.42M17.12 11.8c0-.56.2-1.034.6-1.42.4-.386.88-.58 1.44-.58.56 0 1.04.194 1.44.58.4.386.6.86.6 1.42 0 .56-.2 1.04-.6 1.44-.4.4-.88.6-1.44.6-.56 0-1.04-.2-1.44-.6-.4-.4-.6-.88-.6-1.44M17.12 7.28c0-.56.2-1.033.6-1.42.4-.387.88-.58 1.44-.58.56 0 1.032.193 1.42.58.386.387.58.86.58 1.42 0 .56-.194 1.04-.58 1.44-.388.4-.86.6-1.42.6-.56 0-1.04-.2-1.44-.6-.4-.4-.6-.88-.6-1.44M13.92 29.84c0-.56.192-1.04.58-1.44.386-.4.86-.6 1.42-.6.56 0 1.04.2 1.44.6.4.4.6.88.6 1.44 0 .56-.2 1.04-.6 1.44-.4.4-.88.6-1.44.6-.56 0-1.034-.2-1.42-.6-.388-.4-.58-.88-.58-1.44M13.84 2.68c0-.56.2-1.04.6-1.44.4-.4.88-.6 1.44-.6.56 0 1.032.2 1.42.6.385.4.58.88.58 1.44 0 .56-.195 1.033-.58 1.42-.388.386-.86.58-1.42.58-.56 0-1.04-.194-1.44-.58-.4-.387-.6-.86-.6-1.42M8.8 29.84c0-.56.192-1.034.58-1.42.385-.387.86-.58 1.42-.58.56 0 1.04.193 1.44.58.4.386.6.86.6 1.42 0 .56-.2 1.04-.6 1.44-.4.4-.88.6-1.44.6-.56 0-1.035-.2-1.42-.6-.388-.4-.58-.88-.58-1.44M8.72 2.68c0-.56.2-1.04.6-1.44.4-.4.88-.6 1.44-.6.56 0 1.04.2 1.44.6.4.4.6.88.6 1.44 0 .56-.2 1.04-.6 1.44-.4.4-.88.6-1.44.6-.56 0-1.04-.2-1.44-.6-.4-.4-.6-.88-.6-1.44M3.44 29.96c0-.56.2-1.034.6-1.42.4-.387.88-.58 1.44-.58.56 0 1.033.193 1.42.58.385.386.58.86.58 1.42 0 .56-.195 1.04-.58 1.44-.387.4-.86.6-1.42.6-.56 0-1.04-.2-1.44-.6-.4-.4-.6-.88-.6-1.44M3.4 2.8c0-.56.193-1.04.58-1.44.385-.4.86-.6 1.42-.6.56 0 1.04.2 1.44.6.4.4.6.88.6 1.44 0 .56-.2 1.04-.6 1.44-.4.4-.88.6-1.44.6-.56 0-1.035-.2-1.42-.6-.387-.4-.58-.88-.58-1.44M.2 25.36c0-.56.2-1.04.6-1.44.4-.4.88-.6 1.44-.6.56 0 1.032.2 1.42.6.386.4.58.88.58 1.44 0 .56-.194 1.033-.58 1.42-.388.387-.86.58-1.42.58-.56 0-1.04-.193-1.44-.58-.4-.387-.6-.86-.6-1.42M.2 20.84c0-.56.192-1.04.58-1.44.386-.4.86-.6 1.42-.6.56 0 1.04.2 1.44.6.4.4.6.88.6 1.44 0 .56-.2 1.034-.6 1.42-.4.386-.88.58-1.44.58-.56 0-1.034-.194-1.42-.58-.388-.386-.58-.86-.58-1.42M.16 16.28c0-.56.2-1.033.6-1.42.4-.387.88-.58 1.44-.58.56 0 1.04.193 1.44.58.4.387.6.86.6 1.42 0 .56-.2 1.04-.6 1.44-.4.4-.88.6-1.44.6-.56 0-1.04-.2-1.44-.6-.4-.4-.6-.88-.6-1.44M.16 11.76c0-.56.2-1.04.6-1.44.4-.4.88-.6 1.44-.6.56 0 1.04.2 1.44.6.4.4.6.88.6 1.44 0 .56-.2 1.04-.6 1.44-.4.4-.88.6-1.44.6-.56 0-1.04-.2-1.44-.6-.4-.4-.6-.88-.6-1.44M.16 7.24c0-.56.2-1.04.6-1.44.4-.4.88-.6 1.44-.6.56 0 1.032.2 1.42.6.386.4.58.88.58 1.44 0 .56-.194 1.04-.58 1.44-.388.4-.86.6-1.42.6-.56 0-1.04-.2-1.44-.6-.4-.4-.6-.88-.6-1.44" transform="translate(-1051 -339) translate(47 146) translate(1004 193) translate(28 28.36) translate(13)"/>
                        </g>
                    </g>
                </g>
            </g>
        </g>
    </g>
</svg>
