<?xml version="1.0" encoding="utf-8"?>
<!-- Generator: Adobe Illustrator 24.2.1, SVG Export Plug-In . SVG Version: 6.00 Build 0)  -->
<svg version="1.1" id="圖層_1" xmlns="http://www.w3.org/2000/svg" xmlns:xlink="http://www.w3.org/1999/xlink" x="0px" y="0px"
	 viewBox="0 0 60 60" style="enable-background:new 0 0 60 60;" xml:space="preserve">
<style type="text/css">
	.st0{fill-rule:evenodd;clip-rule:evenodd;fill:#FFFFFF;}
	.st1{opacity:0.8;fill:none;stroke:url(#SVGID_1_);enable-background:new    ;}
	.st2{opacity:0.8;fill:none;stroke:url(#SVGID_2_);enable-background:new    ;}
	.st3{opacity:0.6;fill:none;stroke:url(#SVGID_3_);enable-background:new    ;}
	.st4{opacity:0.6;fill:none;stroke:url(#SVGID_4_);enable-background:new    ;}
	.st5{opacity:0.4;fill:none;stroke:url(#SVGID_5_);enable-background:new    ;}
	.st6{opacity:0.4;fill:none;stroke:url(#SVGID_6_);enable-background:new    ;}
</style>
<g>
	<g>
		<g>
			<g>
				<path class="st0" d="M30,0C13.5,0,0,13.5,0,30s13.5,30,30,30s30-13.5,30-30S46.5,0,30,0 M30,0.7c16.2,0,29.3,13.2,29.3,29.3
					S46.2,59.3,30,59.3S0.7,46.2,0.7,30S13.8,0.7,30,0.7"/>
				
					<linearGradient id="SVGID_1_" gradientUnits="userSpaceOnUse" x1="-470.6531" y1="555.1122" x2="-470.6531" y2="556.1122" gradientTransform="matrix(13.38 0 0 -34.189 6304.7544 19031.8477)">
					<stop  offset="0" style="stop-color:#C9D1D9"/>
					<stop  offset="1" style="stop-color:#FFFFFF"/>
				</linearGradient>
				<path class="st1" d="M16.7,53.1C8.7,48.5,3.3,39.9,3.3,30c0-3.9,0.9-7.7,2.4-11.1"/>
				
					<linearGradient id="SVGID_2_" gradientUnits="userSpaceOnUse" x1="-488.17" y1="542.2616" x2="-488.17" y2="543.2616" gradientTransform="matrix(25.34 0 0 -18.35 12419.0605 9972.1836)">
					<stop  offset="0" style="stop-color:#C9D1D9"/>
					<stop  offset="1" style="stop-color:#FFFFFF"/>
				</linearGradient>
				<path class="st2" d="M30,3.3c11.8,0,21.8,7.7,25.3,18.4"/>
				
					<linearGradient id="SVGID_3_" gradientUnits="userSpaceOnUse" x1="-494.9036" y1="519.1102" x2="-494.9036" y2="520.1102" gradientTransform="matrix(37.437 0 0 -10.002 18557.7871 5244.8062)">
					<stop  offset="0" style="stop-color:#C9D1D9"/>
					<stop  offset="1" style="stop-color:#FFFFFF"/>
				</linearGradient>
				<path class="st3" d="M48.8,42.7c-4.1,6-11,10-18.8,10c-7.7,0-14.6-3.9-18.6-9.8"/>
				
					<linearGradient id="SVGID_4_" gradientUnits="userSpaceOnUse" x1="-481.0892" y1="518.6584" x2="-481.0892" y2="519.6584" gradientTransform="matrix(18.73 0 0 -9.914 9054.5693 5159.2266)">
					<stop  offset="0" style="stop-color:#C9D1D9"/>
					<stop  offset="1" style="stop-color:#FFFFFF"/>
				</linearGradient>
				<path class="st4" d="M30,7.3c7.8,0,14.6,3.9,18.7,9.9"/>
				
					<linearGradient id="SVGID_5_" gradientUnits="userSpaceOnUse" x1="-484.803" y1="494.4247" x2="-484.803" y2="495.4247" gradientTransform="matrix(21.428 0 0 -6.735 10412.8838 3346.6853)">
					<stop  offset="0" style="stop-color:#C9D1D9"/>
					<stop  offset="1" style="stop-color:#FFFFFF"/>
				</linearGradient>
				<path class="st5" d="M15,16.7c3.7-4.1,9-6.7,15-6.7c2.3,0,4.4,0.4,6.5,1.1"/>
				
					<linearGradient id="SVGID_6_" gradientUnits="userSpaceOnUse" x1="-484.0663" y1="464.4859" x2="-484.0663" y2="465.4859" gradientTransform="matrix(20.813 0 0 -4.824 10101.7891 2290.6807)">
					<stop  offset="0" style="stop-color:#C9D1D9"/>
					<stop  offset="1" style="stop-color:#FFFFFF"/>
				</linearGradient>
				<path class="st6" d="M37.8,48.4c-2.4,1-5,1.6-7.8,1.6c-5,0-9.5-1.8-13-4.8"/>
			</g>
			<g>
				<g>
					<path class="st0" d="M22.2,38.9c0-0.4,0.1-0.7,0.4-0.9c0.3-0.3,0.6-0.4,1-0.4c0.4,0,0.7,0.1,0.9,0.4c0.3,0.3,0.4,0.6,0.4,0.9
						c0,0.4-0.1,0.7-0.4,1c-0.3,0.3-0.6,0.4-0.9,0.4c-0.4,0-0.7-0.1-1-0.4C22.3,39.5,22.2,39.2,22.2,38.9 M22.2,35.9
						c0-0.4,0.1-0.7,0.4-0.9c0.3-0.3,0.6-0.4,1-0.4c0.4,0,0.7,0.1,0.9,0.4c0.3,0.3,0.4,0.6,0.4,0.9c0,0.4-0.1,0.7-0.4,1
						c-0.3,0.3-0.6,0.4-0.9,0.4c-0.4,0-0.7-0.1-1-0.4C22.3,36.6,22.2,36.3,22.2,35.9 M22.2,32.9c0-0.4,0.1-0.7,0.4-1
						c0.3-0.3,0.6-0.4,0.9-0.4c0.4,0,0.7,0.1,1,0.4c0.3,0.3,0.4,0.6,0.4,1c0,0.4-0.1,0.7-0.4,0.9c-0.3,0.3-0.6,0.4-1,0.4
						c-0.4,0-0.7-0.1-0.9-0.4C22.3,33.5,22.2,33.2,22.2,32.9 M22.2,29.8c0-0.4,0.1-0.7,0.4-1c0.3-0.3,0.6-0.4,0.9-0.4
						c0.4,0,0.7,0.1,1,0.4c0.3,0.3,0.4,0.6,0.4,1c0,0.4-0.1,0.7-0.4,0.9c-0.3,0.3-0.6,0.4-0.9,0.4c-0.4,0-0.7-0.1-1-0.4
						C22.3,30.5,22.2,30.2,22.2,29.8 M22.2,26.8c0-0.4,0.1-0.7,0.4-1c0.3-0.3,0.6-0.4,1-0.4c0.4,0,0.7,0.1,0.9,0.4
						c0.3,0.3,0.4,0.6,0.4,1c0,0.4-0.1,0.7-0.4,1c-0.3,0.3-0.6,0.4-0.9,0.4c-0.4,0-0.7-0.1-1-0.4C22.3,27.5,22.2,27.2,22.2,26.8
						 M22.2,23.8c0-0.4,0.1-0.7,0.4-1c0.3-0.3,0.6-0.4,1-0.4c0.4,0,0.7,0.1,0.9,0.4c0.3,0.3,0.4,0.6,0.4,1c0,0.4-0.1,0.7-0.4,1
						c-0.3,0.3-0.6,0.4-0.9,0.4c-0.4,0-0.7-0.1-1-0.4C22.3,24.5,22.2,24.2,22.2,23.8 M22.2,20.7c0-0.4,0.1-0.7,0.4-1
						c0.3-0.3,0.6-0.4,0.9-0.4c0.4,0,0.7,0.1,1,0.4c0.3,0.3,0.4,0.6,0.4,1c0,0.4-0.1,0.7-0.4,1c-0.3,0.3-0.6,0.4-1,0.4
						c-0.4,0-0.7-0.1-0.9-0.4C22.3,21.4,22.2,21.1,22.2,20.7 M18.7,20.7c0-0.4,0.1-0.7,0.4-1c0.3-0.3,0.6-0.4,0.9-0.4
						c0.4,0,0.7,0.1,1,0.4c0.3,0.3,0.4,0.6,0.4,1c0,0.4-0.1,0.7-0.4,0.9c-0.3,0.3-0.6,0.4-1,0.4c-0.4,0-0.7-0.1-0.9-0.4
						C18.8,21.4,18.7,21.1,18.7,20.7"/>
				</g>
				<g>
					<path class="st0" d="M38.8,35.8c0-0.4,0.1-0.7,0.4-1c0.3-0.3,0.6-0.4,1-0.4c0.4,0,0.7,0.1,0.9,0.4c0.3,0.3,0.4,0.6,0.4,1
						c0,0.4-0.1,0.7-0.4,1s-0.6,0.4-0.9,0.4c-0.4,0-0.7-0.1-1-0.4C38.9,36.5,38.8,36.2,38.8,35.8 M38.8,32.8c0-0.4,0.1-0.7,0.4-1
						c0.3-0.3,0.6-0.4,0.9-0.4s0.7,0.1,1,0.4c0.3,0.3,0.4,0.6,0.4,1s-0.1,0.7-0.4,1c-0.3,0.3-0.6,0.4-1,0.4s-0.7-0.1-0.9-0.4
						C38.9,33.5,38.8,33.2,38.8,32.8 M38.8,29.8c0-0.4,0.1-0.7,0.4-1c0.3-0.3,0.6-0.4,0.9-0.4s0.7,0.1,1,0.4c0.3,0.3,0.4,0.6,0.4,1
						c0,0.4-0.1,0.7-0.4,0.9c-0.3,0.3-0.6,0.4-1,0.4s-0.7-0.1-0.9-0.4C38.9,30.5,38.8,30.2,38.8,29.8 M38.7,26.8
						c0-0.4,0.1-0.7,0.4-0.9c0.3-0.3,0.6-0.4,1-0.4c0.4,0,0.7,0.1,1,0.4c0.3,0.3,0.4,0.6,0.4,0.9c0,0.4-0.1,0.7-0.4,1
						c-0.3,0.3-0.6,0.4-1,0.4c-0.4,0-0.7-0.1-1-0.4C38.9,27.5,38.7,27.1,38.7,26.8 M38.7,23.8c0-0.4,0.1-0.7,0.4-0.9
						c0.3-0.3,0.6-0.4,1-0.4c0.4,0,0.7,0.1,0.9,0.4c0.3,0.3,0.4,0.6,0.4,0.9c0,0.4-0.1,0.7-0.4,1c-0.3,0.3-0.6,0.4-0.9,0.4
						c-0.4,0-0.7-0.1-1-0.4C38.9,24.5,38.7,24.1,38.7,23.8 M36.6,38.8c0-0.4,0.1-0.7,0.4-1c0.3-0.3,0.6-0.4,0.9-0.4
						c0.4,0,0.7,0.1,1,0.4c0.3,0.3,0.4,0.6,0.4,1c0,0.4-0.1,0.7-0.4,1s-0.6,0.4-1,0.4c-0.4,0-0.7-0.1-0.9-0.4
						C36.7,39.5,36.6,39.2,36.6,38.8 M36.6,20.7c0-0.4,0.1-0.7,0.4-1c0.3-0.3,0.6-0.4,1-0.4s0.7,0.1,0.9,0.4c0.3,0.3,0.4,0.6,0.4,1
						c0,0.4-0.1,0.7-0.4,0.9c-0.3,0.3-0.6,0.4-0.9,0.4s-0.7-0.1-1-0.4C36.7,21.4,36.6,21.1,36.6,20.7 M33.2,38.8
						c0-0.4,0.1-0.7,0.4-0.9c0.3-0.3,0.6-0.4,0.9-0.4c0.4,0,0.7,0.1,1,0.4c0.3,0.3,0.4,0.6,0.4,0.9c0,0.4-0.1,0.7-0.4,1
						c-0.3,0.3-0.6,0.4-1,0.4c-0.4,0-0.7-0.1-0.9-0.4C33.3,39.5,33.2,39.2,33.2,38.8 M33.1,20.7c0-0.4,0.1-0.7,0.4-1
						c0.3-0.3,0.6-0.4,1-0.4c0.4,0,0.7,0.1,1,0.4c0.3,0.3,0.4,0.6,0.4,1c0,0.4-0.1,0.7-0.4,1c-0.3,0.3-0.6,0.4-1,0.4
						c-0.4,0-0.7-0.1-1-0.4C33.3,21.4,33.1,21.1,33.1,20.7 M29.6,38.9c0-0.4,0.1-0.7,0.4-0.9c0.3-0.3,0.6-0.4,1-0.4
						c0.4,0,0.7,0.1,0.9,0.4c0.3,0.3,0.4,0.6,0.4,0.9c0,0.4-0.1,0.7-0.4,1c-0.3,0.3-0.6,0.4-0.9,0.4c-0.4,0-0.7-0.1-1-0.4
						C29.8,39.6,29.6,39.3,29.6,38.9 M29.6,20.8c0-0.4,0.1-0.7,0.4-1c0.3-0.3,0.6-0.4,0.9-0.4c0.4,0,0.7,0.1,1,0.4
						c0.3,0.3,0.4,0.6,0.4,1c0,0.4-0.1,0.7-0.4,1c-0.3,0.3-0.6,0.4-1,0.4c-0.4,0-0.7-0.1-0.9-0.4C29.7,21.5,29.6,21.1,29.6,20.8
						 M27.5,35.8c0-0.4,0.1-0.7,0.4-1c0.3-0.3,0.6-0.4,1-0.4s0.7,0.1,0.9,0.4c0.3,0.3,0.4,0.6,0.4,1c0,0.4-0.1,0.7-0.4,0.9
						c-0.3,0.3-0.6,0.4-0.9,0.4c-0.4,0-0.7-0.1-1-0.4C27.6,36.5,27.5,36.2,27.5,35.8 M27.5,32.8c0-0.4,0.1-0.7,0.4-1
						c0.3-0.3,0.6-0.4,0.9-0.4c0.4,0,0.7,0.1,1,0.4c0.3,0.3,0.4,0.6,0.4,1c0,0.4-0.1,0.7-0.4,0.9c-0.3,0.3-0.6,0.4-1,0.4
						c-0.4,0-0.7-0.1-0.9-0.4C27.6,33.5,27.5,33.2,27.5,32.8 M27.4,29.8c0-0.4,0.1-0.7,0.4-0.9c0.3-0.3,0.6-0.4,1-0.4
						c0.4,0,0.7,0.1,1,0.4s0.4,0.6,0.4,0.9c0,0.4-0.1,0.7-0.4,1c-0.3,0.3-0.6,0.4-1,0.4c-0.4,0-0.7-0.1-1-0.4
						C27.6,30.5,27.4,30.1,27.4,29.8 M27.4,26.7c0-0.4,0.1-0.7,0.4-1c0.3-0.3,0.6-0.4,1-0.4c0.4,0,0.7,0.1,1,0.4
						c0.3,0.3,0.4,0.6,0.4,1c0,0.4-0.1,0.7-0.4,1c-0.3,0.3-0.6,0.4-1,0.4c-0.4,0-0.7-0.1-1-0.4C27.6,27.4,27.4,27.1,27.4,26.7
						 M27.4,23.7c0-0.4,0.1-0.7,0.4-1s0.6-0.4,1-0.4c0.4,0,0.7,0.1,0.9,0.4s0.4,0.6,0.4,1c0,0.4-0.1,0.7-0.4,1s-0.6,0.4-0.9,0.4
						c-0.4,0-0.7-0.1-1-0.4S27.4,24.1,27.4,23.7"/>
				</g>
			</g>
		</g>
	</g>
</g>
</svg>
