<svg xmlns="http://www.w3.org/2000/svg" width="90" height="90" viewBox="0 0 90 90">
    <style type="text/css">
	.flash{
		animation: flash 3s infinite;
    }

    @keyframes flash {
        0%{
            opacity: 0;
        }

        50%{
		    opacity: 1;
        }

		100% {
            opacity: 0;
		}
	}
    </style>
    <defs>
        <linearGradient id="9cws3pilba" x1="50%" x2="50%" y1="100%" y2="0%">
            <stop offset="0%" stop-color="#C9D1D9"/>
            <stop offset="100%" stop-color="#FFF"/>
        </linearGradient>
        <linearGradient id="zyi19p4y2b" x1="50%" x2="50%" y1="100%" y2="0%">
            <stop offset="0%" stop-color="#C9D1D9"/>
            <stop offset="100%" stop-color="#FFF"/>
        </linearGradient>
        <linearGradient id="1km9wixm0c" x1="50%" x2="50%" y1="100%" y2="0%">
            <stop offset="0%" stop-color="#C9D1D9"/>
            <stop offset="100%" stop-color="#FFF"/>
        </linearGradient>
        <linearGradient id="y6x0o7rg0d" x1="50%" x2="50%" y1="100%" y2="0%">
            <stop offset="0%" stop-color="#C9D1D9"/>
            <stop offset="100%" stop-color="#FFF"/>
        </linearGradient>
        <linearGradient id="5mbnx1e48e" x1="50%" x2="50%" y1="100%" y2="0%">
            <stop offset="0%" stop-color="#C9D1D9"/>
            <stop offset="100%" stop-color="#FFF"/>
        </linearGradient>
        <linearGradient id="3dtitsw14f" x1="50%" x2="50%" y1="100%" y2="0%">
            <stop offset="0%" stop-color="#C9D1D9"/>
            <stop offset="100%" stop-color="#FFF"/>
        </linearGradient>
    </defs>
    <g fill="none" fill-rule="evenodd">
        <g>
            <g>
                <g>
                    <g>
                        <path stroke="url(#9cws3pilba)" d="M79.004 66.047C71.942 77.415 59.34 85 45 85" opacity=".8" transform="translate(-498 -147) translate(47 146) translate(451 1)"/>
                        <path stroke="url(#zyi19p4y2b)" d="M5 45c0-12.215 5.504-23.168 14.161-30.511" opacity=".8" transform="translate(-498 -147) translate(47 146) translate(451 1)"/>
                        <path stroke="url(#1km9wixm0c)" d="M34.17 77.232c-10.207-3.438-18.264-11.6-21.557-21.873" opacity=".6" transform="translate(-498 -147) translate(47 146) translate(451 1)"/>
                        <path stroke="url(#y6x0o7rg0d)" d="M36.503 12.074C39.22 11.374 42.067 11 45 11c11 0 20.799 5.252 27.017 13.38" opacity=".6" transform="translate(-498 -147) translate(47 146) translate(451 1)"/>
                        <path stroke="url(#5mbnx1e48e)" d="M75 45c0 3.641-.648 7.131-1.837 10.359" opacity=".4" transform="translate(-498 -147) translate(47 146) translate(451 1)"/>
                        <path stroke="url(#3dtitsw14f)" d="M23.213 24.376C28.68 18.602 36.42 15 45 15" opacity=".4" transform="translate(-498 -147) translate(47 146) translate(451 1)"/>
                        <path fill="#FFF" d="M45 0C20.188 0 0 20.187 0 45s20.188 45 45 45 45-20.187 45-45S69.812 0 45 0m0 1c24.262 0 44 19.738 44 44S69.262 89 45 89 1 69.262 1 45 20.738 1 45 1" transform="translate(-498 -147) translate(47 146) translate(451 1)"/>
                    </g>
                    <g fill="#FFF">
                        <g>
                            <path class="flash" d="M18 25.4c0-.56.2-1.04.601-1.44.399-.4.879-.6 1.439-.6.561 0 1.033.2 1.42.6.387.4.58.88.58 1.44 0 .56-.193 1.04-.58 1.44-.387.4-.859.6-1.42.6-.56 0-1.04-.2-1.439-.6-.401-.4-.601-.88-.601-1.44M18 20.88c0-.56.193-1.04.58-1.44.387-.4.86-.6 1.42-.6.561 0 1.04.2 1.44.6.4.4.6.88.6 1.44 0 .56-.2 1.04-.6 1.44-.4.4-.879.6-1.44.6-.56 0-1.033-.2-1.42-.6-.387-.4-.58-.88-.58-1.44M17.96 11.8c0-.56.2-1.034.601-1.42.399-.386.879-.58 1.439-.58.561 0 1.04.194 1.44.58.4.386.6.86.6 1.42 0 .56-.2 1.04-.6 1.44-.4.4-.879.6-1.44.6-.56 0-1.04-.2-1.439-.6-.401-.4-.601-.88-.601-1.44M17.96 7.28c0-.56.2-1.033.601-1.42.399-.387.879-.58 1.439-.58.561 0 1.033.193 1.42.58.387.387.58.86.58 1.42 0 .56-.193 1.04-.58 1.44-.387.4-.859.6-1.42.6-.56 0-1.04-.2-1.439-.6-.401-.4-.601-.88-.601-1.44M13.76 29.84c0-.56.193-1.04.58-1.44.387-.4.86-.6 1.42-.6.56 0 1.04.2 1.44.6.401.4.6.88.6 1.44 0 .56-.199 1.04-.6 1.44-.4.4-.88.6-1.44.6-.56 0-1.033-.2-1.42-.6-.387-.4-.58-.88-.58-1.44M13.72 16.24c0-.56.193-1.033.58-1.42.387-.387.86-.58 1.42-.58.56 0 1.04.193 1.44.58.401.387.6.86.6 1.42 0 .56-.199 1.04-.6 1.44-.4.4-.88.6-1.44.6-.56 0-1.033-.2-1.42-.6-.387-.4-.58-.88-.58-1.44M13.68 2.68c0-.56.2-1.04.6-1.44.4-.4.88-.6 1.44-.6.56 0 1.033.2 1.42.6.386.4.58.88.58 1.44 0 .56-.194 1.033-.58 1.42-.387.386-.86.58-1.42.58-.56 0-1.04-.194-1.44-.58-.4-.387-.6-.86-.6-1.42M8.64 29.84c0-.56.193-1.034.58-1.42.386-.387.86-.58 1.42-.58.56 0 1.04.193 1.44.58.4.386.6.86.6 1.42 0 .56-.2 1.04-.6 1.44-.4.4-.88.6-1.44.6-.56 0-1.034-.2-1.42-.6-.387-.4-.58-.88-.58-1.44M8.601 16.28c0-.56.199-1.04.599-1.44.401-.4.88-.6 1.44-.6.56 0 1.033.2 1.421.6.385.4.579.88.579 1.44 0 .56-.194 1.033-.579 1.42-.388.387-.861.58-1.421.58s-1.039-.193-1.44-.58c-.4-.387-.599-.86-.599-1.42M8.561 2.68c0-.56.199-1.04.599-1.44.401-.4.88-.6 1.441-.6.559 0 1.039.2 1.439.6.4.4.6.88.6 1.44 0 .56-.2 1.04-.6 1.44-.4.4-.88.6-1.439.6-.561 0-1.04-.2-1.441-.6-.4-.4-.599-.88-.599-1.44M3.28 29.96c0-.56.2-1.034.6-1.42.4-.387.88-.58 1.44-.58.56 0 1.034.193 1.42.58.386.386.58.86.58 1.42 0 .56-.194 1.04-.58 1.44-.386.4-.86.6-1.42.6-.56 0-1.04-.2-1.44-.6-.4-.4-.6-.88-.6-1.44M3.24 2.8c0-.56.194-1.04.58-1.44.386-.4.86-.6 1.42-.6.56 0 1.04.2 1.44.6.4.4.6.88.6 1.44 0 .56-.2 1.04-.6 1.44-.4.4-.88.6-1.44.6-.56 0-1.034-.2-1.42-.6-.386-.4-.58-.88-.58-1.44M.04 25.36c0-.56.2-1.04.6-1.44.4-.4.881-.6 1.44-.6.56 0 1.033.2 1.42.6.387.4.58.88.58 1.44 0 .56-.193 1.033-.58 1.42-.387.387-.86.58-1.42.58-.559 0-1.04-.193-1.44-.58-.4-.387-.6-.86-.6-1.42M0 7.24C0 6.68.2 6.2.601 5.8c.399-.4.879-.6 1.439-.6.561 0 1.033.2 1.42.6.387.4.58.88.58 1.44 0 .56-.193 1.04-.58 1.44-.387.4-.859.6-1.42.6-.56 0-1.04-.2-1.439-.6C.2 8.28 0 7.8 0 7.24" transform="translate(-498 -147) translate(47 146) translate(451 1) translate(21 28) translate(0 .36)"/>
                        </g>
                        <g>
                            <path class="flash" d="M17.68 25.4c0-.56.2-1.04.6-1.44.4-.4.88-.6 1.44-.6.56 0 1.033.2 1.42.6.387.4.58.88.58 1.44 0 .56-.193 1.04-.58 1.44-.387.4-.86.6-1.42.6-.56 0-1.04-.2-1.44-.6-.4-.4-.6-.88-.6-1.44M17.68 20.88c0-.56.193-1.04.58-1.44.387-.4.86-.6 1.42-.6.56 0 1.04.2 1.44.6.4.4.6.88.6 1.44 0 .56-.2 1.04-.6 1.44-.4.4-.88.6-1.44.6-.56 0-1.033-.2-1.42-.6-.387-.4-.58-.88-.58-1.44M17.68 16.36c0-.56.193-1.04.58-1.44.387-.4.86-.6 1.42-.6.56 0 1.04.2 1.44.6.4.4.6.88.6 1.44 0 .56-.2 1.033-.6 1.42-.4.387-.88.58-1.44.58-.56 0-1.033-.193-1.42-.58-.387-.387-.58-.86-.58-1.42M17.64 11.8c0-.56.2-1.034.6-1.42.4-.386.88-.58 1.44-.58.56 0 1.04.194 1.44.58.4.386.6.86.6 1.42 0 .56-.2 1.04-.6 1.44-.4.4-.88.6-1.44.6-.56 0-1.04-.2-1.44-.6-.4-.4-.6-.88-.6-1.44M17.64 7.28c0-.56.2-1.033.6-1.42.4-.387.88-.58 1.44-.58.56 0 1.033.193 1.42.58.387.387.58.86.58 1.42 0 .56-.193 1.04-.58 1.44-.387.4-.86.6-1.42.6-.56 0-1.04-.2-1.44-.6-.4-.4-.6-.88-.6-1.44M14.44 29.84c0-.56.193-1.04.58-1.44.387-.4.86-.6 1.42-.6.56 0 1.04.2 1.44.6.4.4.6.88.6 1.44 0 .56-.2 1.04-.6 1.44-.4.4-.88.6-1.44.6-.56 0-1.033-.2-1.42-.6-.387-.4-.58-.88-.58-1.44M14.36 2.68c0-.56.2-1.04.6-1.44.4-.4.88-.6 1.44-.6.56 0 1.033.2 1.42.6.386.4.58.88.58 1.44 0 .56-.194 1.033-.58 1.42-.387.386-.86.58-1.42.58-.56 0-1.04-.194-1.44-.58-.4-.387-.6-.86-.6-1.42M9.32 29.84c0-.56.193-1.034.58-1.42.386-.387.86-.58 1.42-.58.56 0 1.04.193 1.44.58.4.386.6.86.6 1.42 0 .56-.2 1.04-.6 1.44-.4.4-.88.6-1.44.6-.56 0-1.034-.2-1.42-.6-.387-.4-.58-.88-.58-1.44M9.24 2.68c0-.56.2-1.04.6-1.44.4-.4.88-.6 1.44-.6.56 0 1.04.2 1.44.6.4.4.6.88.6 1.44 0 .56-.2 1.04-.6 1.44-.4.4-.88.6-1.44.6-.56 0-1.04-.2-1.44-.6-.4-.4-.6-.88-.6-1.44M3.96 29.96c0-.56.2-1.034.6-1.42.4-.387.88-.58 1.44-.58.56 0 1.034.193 1.42.58.386.386.58.86.58 1.42 0 .56-.194 1.04-.58 1.44-.386.4-.86.6-1.42.6-.56 0-1.04-.2-1.44-.6-.4-.4-.6-.88-.6-1.44M3.92 2.8c0-.56.194-1.04.58-1.44.386-.4.86-.6 1.42-.6.56 0 1.04.2 1.44.6.4.4.6.88.6 1.44 0 .56-.2 1.04-.6 1.44-.4.4-.88.6-1.44.6-.56 0-1.034-.2-1.42-.6-.386-.4-.58-.88-.58-1.44M.72 25.36c0-.56.2-1.04.6-1.44.4-.4.88-.6 1.44-.6.56 0 1.033.2 1.42.6.387.4.58.88.58 1.44 0 .56-.193 1.033-.58 1.42-.387.387-.86.58-1.42.58-.56 0-1.04-.193-1.44-.58-.4-.387-.6-.86-.6-1.42M.72 20.84c0-.56.193-1.04.58-1.44.387-.4.86-.6 1.42-.6.56 0 1.04.2 1.44.6.4.4.6.88.6 1.44 0 .56-.2 1.034-.6 1.42-.4.386-.88.58-1.44.58-.56 0-1.033-.194-1.42-.58-.387-.386-.58-.86-.58-1.42M.68 16.28c0-.56.2-1.033.6-1.42.4-.387.88-.58 1.44-.58.56 0 1.04.193 1.44.58.4.387.6.86.6 1.42 0 .56-.2 1.04-.6 1.44-.4.4-.88.6-1.44.6-.56 0-1.04-.2-1.44-.6-.4-.4-.6-.88-.6-1.44M.68 11.76c0-.56.2-1.04.6-1.44.4-.4.88-.6 1.44-.6.56 0 1.04.2 1.44.6.4.4.6.88.6 1.44 0 .56-.2 1.04-.6 1.44-.4.4-.88.6-1.44.6-.56 0-1.04-.2-1.44-.6-.4-.4-.6-.88-.6-1.44M.68 7.24c0-.56.2-1.04.6-1.44.4-.4.88-.6 1.44-.6.56 0 1.033.2 1.42.6.387.4.58.88.58 1.44 0 .56-.193 1.04-.58 1.44-.387.4-.86.6-1.42.6-.56 0-1.04-.2-1.44-.6-.4-.4-.6-.88-.6-1.44" transform="translate(-498 -147) translate(47 146) translate(451 1) translate(21 28) translate(25 .36)"/>
                        </g>
                    </g>
                </g>
            </g>
        </g>
    </g>
</svg>
