<?xml version="1.0" encoding="utf-8"?>
<!-- Generator: Adobe Illustrator 24.2.1, SVG Export Plug-In . SVG Version: 6.00 Build 0)  -->
<svg version="1.1" id="圖層_1" xmlns="http://www.w3.org/2000/svg" xmlns:xlink="http://www.w3.org/1999/xlink" x="0px" y="0px"
	 viewBox="0 0 60 60" style="enable-background:new 0 0 60 60;" xml:space="preserve">
<style type="text/css">
	.st0{opacity:0.8;fill:none;stroke:url(#SVGID_1_);enable-background:new    ;}
	.st1{opacity:0.8;fill:none;stroke:url(#SVGID_2_);enable-background:new    ;}
	.st2{opacity:0.6;fill:none;stroke:url(#SVGID_3_);enable-background:new    ;}
	.st3{opacity:0.6;fill:none;stroke:url(#SVGID_4_);enable-background:new    ;}
	.st4{opacity:0.4;fill:none;stroke:url(#SVGID_5_);enable-background:new    ;}
	.st5{opacity:0.4;fill:none;stroke:url(#SVGID_6_);enable-background:new    ;}
	.st6{fill-rule:evenodd;clip-rule:evenodd;fill:#FFFFFF;}
</style>
<g>
	<g>
		
			<linearGradient id="SVGID_1_" gradientUnits="userSpaceOnUse" x1="-485.8112" y1="529.7183" x2="-485.8112" y2="530.7183" gradientTransform="matrix(22.67 0 0 -12.636 11060.0293 6750.188)">
			<stop  offset="0" style="stop-color:#C9D1D9"/>
			<stop  offset="1" style="stop-color:#FFFFFF"/>
		</linearGradient>
		<path class="st0" d="M52.7,44C48,51.6,39.6,56.7,30,56.7"/>
		
			<linearGradient id="SVGID_2_" gradientUnits="userSpaceOnUse" x1="-454.7446" y1="544.9754" x2="-454.7446" y2="545.9754" gradientTransform="matrix(9.441 0 0 -20.34 4299.8018 11114.7998)">
			<stop  offset="0" style="stop-color:#C9D1D9"/>
			<stop  offset="1" style="stop-color:#FFFFFF"/>
		</linearGradient>
		<path class="st1" d="M3.3,30c0-8.1,3.7-15.4,9.4-20.3"/>
		
			<linearGradient id="SVGID_3_" gradientUnits="userSpaceOnUse" x1="-473.2404" y1="535.0939" x2="-473.2404" y2="536.0939" gradientTransform="matrix(14.371 0 0 -14.582 6814.248 7854.2285)">
			<stop  offset="0" style="stop-color:#C9D1D9"/>
			<stop  offset="1" style="stop-color:#FFFFFF"/>
		</linearGradient>
		<path class="st2" d="M22.8,51.5C16,49.2,10.6,43.8,8.4,36.9"/>
		
			<linearGradient id="SVGID_4_" gradientUnits="userSpaceOnUse" x1="-486.9026" y1="512.9372" x2="-486.9026" y2="513.9372" gradientTransform="matrix(23.676 0 0 -8.92 11566.4199 4591.6528)">
			<stop  offset="0" style="stop-color:#C9D1D9"/>
			<stop  offset="1" style="stop-color:#FFFFFF"/>
		</linearGradient>
		<path class="st3" d="M24.3,8.1C26.1,7.6,28,7.3,30,7.3c7.3,0,13.9,3.5,18,8.9"/>
		
			<linearGradient id="SVGID_5_" gradientUnits="userSpaceOnUse" x1="-92.8477" y1="496.296" x2="-92.8477" y2="497.296" gradientTransform="matrix(1.225 0 0 -6.906 163.2992 3464.325)">
			<stop  offset="0" style="stop-color:#C9D1D9"/>
			<stop  offset="1" style="stop-color:#FFFFFF"/>
		</linearGradient>
		<path class="st4" d="M50,30c0,2.4-0.4,4.8-1.2,6.9"/>
		
			<linearGradient id="SVGID_6_" gradientUnits="userSpaceOnUse" x1="-473.6885" y1="488.56" x2="-473.6885" y2="489.56" gradientTransform="matrix(14.525 0 0 -6.25 6899.6997 3069.75)">
			<stop  offset="0" style="stop-color:#C9D1D9"/>
			<stop  offset="1" style="stop-color:#FFFFFF"/>
		</linearGradient>
		<path class="st5" d="M15.5,16.3C19.1,12.4,24.3,10,30,10"/>
		<path class="st6" d="M30,0C13.5,0,0,13.5,0,30s13.5,30,30,30s30-13.5,30-30S46.5,0,30,0 M30,0.7c16.2,0,29.3,13.2,29.3,29.3
			S46.2,59.3,30,59.3S0.7,46.2,0.7,30S13.8,0.7,30,0.7"/>
	</g>
	<g>
		<g>
			<path class="st6" d="M27.4,36.1c0-0.4,0.1-0.7,0.4-1c0.3-0.3,0.6-0.4,1-0.4c0.4,0,0.7,0.1,0.9,0.4c0.3,0.3,0.4,0.6,0.4,1
				s-0.1,0.7-0.4,1s-0.6,0.4-0.9,0.4c-0.4,0-0.7-0.1-1-0.4C27.6,36.7,27.4,36.4,27.4,36.1 M27.4,33c0-0.4,0.1-0.7,0.4-1
				c0.3-0.3,0.6-0.4,0.9-0.4c0.4,0,0.7,0.1,1,0.4c0.3,0.3,0.4,0.6,0.4,1c0,0.4-0.1,0.7-0.4,1c-0.3,0.3-0.6,0.4-1,0.4
				c-0.4,0-0.7-0.1-0.9-0.4C27.6,33.7,27.4,33.4,27.4,33 M27.4,21c0-0.4,0.1-0.7,0.4-1c0.3-0.3,0.6-0.4,0.9-0.4c0.4,0,0.7,0.1,1,0.4
				c0.3,0.3,0.4,0.6,0.4,1c0,0.4-0.1,0.7-0.4,1c-0.3,0.3-0.6,0.4-1,0.4c-0.4,0-0.7-0.1-0.9-0.4C27.5,21.7,27.4,21.3,27.4,21
				 M23.9,39c0-0.4,0.1-0.7,0.4-1s0.6-0.4,0.9-0.4c0.4,0,0.7,0.1,1,0.4s0.4,0.6,0.4,1c0,0.4-0.1,0.7-0.4,1c-0.3,0.3-0.6,0.4-1,0.4
				c-0.4,0-0.7-0.1-0.9-0.4C24.1,39.7,23.9,39.4,23.9,39 M23.9,29.9c0-0.4,0.1-0.7,0.4-0.9c0.3-0.3,0.6-0.4,0.9-0.4
				c0.4,0,0.7,0.1,1,0.4c0.3,0.3,0.4,0.6,0.4,0.9c0,0.4-0.1,0.7-0.4,1c-0.3,0.3-0.6,0.4-1,0.4c-0.4,0-0.7-0.1-0.9-0.4
				C24,30.6,23.9,30.3,23.9,29.9 M23.9,20.9c0-0.4,0.1-0.7,0.4-1c0.3-0.3,0.6-0.4,1-0.4c0.4,0,0.7,0.1,0.9,0.4
				c0.3,0.3,0.4,0.6,0.4,1c0,0.4-0.1,0.7-0.4,0.9c-0.3,0.3-0.6,0.4-0.9,0.4c-0.4,0-0.7-0.1-1-0.4C24,21.6,23.9,21.3,23.9,20.9
				 M20.5,39c0-0.4,0.1-0.7,0.4-0.9c0.3-0.3,0.6-0.4,0.9-0.4c0.4,0,0.7,0.1,1,0.4c0.3,0.3,0.4,0.6,0.4,0.9c0,0.4-0.1,0.7-0.4,1
				c-0.3,0.3-0.6,0.4-1,0.4c-0.4,0-0.7-0.1-0.9-0.4C20.6,39.7,20.5,39.4,20.5,39 M20.5,30c0-0.4,0.1-0.7,0.4-1s0.6-0.4,1-0.4
				c0.4,0,0.7,0.1,0.9,0.4c0.3,0.3,0.4,0.6,0.4,1c0,0.4-0.1,0.7-0.4,0.9c-0.3,0.3-0.6,0.4-0.9,0.4c-0.4,0-0.7-0.1-1-0.4
				C20.6,30.7,20.5,30.3,20.5,30 M20.5,20.9c0-0.4,0.1-0.7,0.4-1c0.3-0.3,0.6-0.4,1-0.4s0.7,0.1,1,0.4c0.3,0.3,0.4,0.6,0.4,1
				c0,0.4-0.1,0.7-0.4,1c-0.3,0.3-0.6,0.4-1,0.4c-0.4,0-0.7-0.1-1-0.4S20.5,21.3,20.5,20.9 M16.9,39.1c0-0.4,0.1-0.7,0.4-0.9
				c0.3-0.3,0.6-0.4,1-0.4c0.4,0,0.7,0.1,0.9,0.4c0.3,0.3,0.4,0.6,0.4,0.9c0,0.4-0.1,0.7-0.4,1c-0.3,0.3-0.6,0.4-0.9,0.4
				c-0.4,0-0.7-0.1-1-0.4S16.9,39.5,16.9,39.1 M16.9,30.1c0-0.4,0.1-0.7,0.4-1c0.3-0.3,0.6-0.4,1-0.4c0.4,0,0.7,0.1,1,0.4
				c0.3,0.3,0.4,0.6,0.4,1c0,0.4-0.1,0.7-0.4,0.9c-0.3,0.3-0.6,0.4-1,0.4c-0.4,0-0.7-0.1-1-0.4C17.1,30.7,16.9,30.4,16.9,30.1
				 M16.9,21c0-0.4,0.1-0.7,0.4-1c0.3-0.3,0.6-0.4,0.9-0.4c0.4,0,0.7,0.1,1,0.4c0.3,0.3,0.4,0.6,0.4,1c0,0.4-0.1,0.7-0.4,1
				c-0.3,0.3-0.6,0.4-1,0.4c-0.4,0-0.7-0.1-0.9-0.4S16.9,21.4,16.9,21 M13.5,36c0-0.4,0.1-0.7,0.4-1c0.3-0.3,0.6-0.4,1-0.4
				s0.7,0.1,0.9,0.4c0.3,0.3,0.4,0.6,0.4,1c0,0.4-0.1,0.7-0.4,0.9c-0.3,0.3-0.6,0.4-0.9,0.4s-0.7-0.1-1-0.4
				C13.6,36.7,13.5,36.4,13.5,36 M13.4,30c0-0.4,0.1-0.7,0.4-0.9c0.3-0.3,0.6-0.4,1-0.4c0.4,0,0.7,0.1,1,0.4
				c0.3,0.3,0.4,0.6,0.4,0.9c0,0.4-0.1,0.7-0.4,1c-0.3,0.3-0.6,0.4-1,0.4c-0.4,0-0.7-0.1-1-0.4C13.6,30.7,13.4,30.3,13.4,30
				 M13.4,27c0-0.4,0.1-0.7,0.4-1c0.3-0.3,0.6-0.4,1-0.4c0.4,0,0.7,0.1,1,0.4c0.3,0.3,0.4,0.6,0.4,1c0,0.4-0.1,0.7-0.4,1
				c-0.3,0.3-0.6,0.4-1,0.4c-0.4,0-0.7-0.1-1-0.4C13.6,27.7,13.4,27.3,13.4,27 M13.4,23.9c0-0.4,0.1-0.7,0.4-1
				c0.3-0.3,0.6-0.4,1-0.4c0.4,0,0.7,0.1,0.9,0.4c0.3,0.3,0.4,0.6,0.4,1c0,0.4-0.1,0.7-0.4,1c-0.3,0.3-0.6,0.4-0.9,0.4
				c-0.4,0-0.7-0.1-1-0.4C13.6,24.6,13.4,24.3,13.4,23.9 M13.4,20.9c0-0.4,0.1-0.7,0.4-1c0.3-0.3,0.6-0.4,0.9-0.4
				c0.4,0,0.7,0.1,1,0.4c0.3,0.3,0.4,0.6,0.4,1c0,0.4-0.1,0.7-0.4,0.9c-0.3,0.3-0.6,0.4-1,0.4c-0.4,0-0.7-0.1-0.9-0.4
				C13.6,21.6,13.4,21.3,13.4,20.9"/>
		</g>
		<g>
			<path class="st6" d="M43.9,36.1c0-0.4,0.1-0.7,0.4-1c0.3-0.3,0.6-0.4,1-0.4c0.4,0,0.7,0.1,0.9,0.4c0.3,0.3,0.4,0.6,0.4,1
				c0,0.4-0.1,0.7-0.4,1c-0.3,0.3-0.6,0.4-0.9,0.4c-0.4,0-0.7-0.1-1-0.4C44,36.7,43.9,36.4,43.9,36.1 M43.9,33c0-0.4,0.1-0.7,0.4-1
				c0.3-0.3,0.6-0.4,0.9-0.4s0.7,0.1,1,0.4c0.3,0.3,0.4,0.6,0.4,1s-0.1,0.7-0.4,1c-0.3,0.3-0.6,0.4-1,0.4s-0.7-0.1-0.9-0.4
				C44,33.7,43.9,33.4,43.9,33 M43.9,30c0-0.4,0.1-0.7,0.4-1c0.3-0.3,0.6-0.4,0.9-0.4s0.7,0.1,1,0.4c0.3,0.3,0.4,0.6,0.4,1
				c0,0.4-0.1,0.7-0.4,0.9c-0.3,0.3-0.6,0.4-1,0.4s-0.7-0.1-0.9-0.4C44,30.7,43.9,30.4,43.9,30 M43.9,27c0-0.4,0.1-0.7,0.4-0.9
				c0.3-0.3,0.6-0.4,1-0.4c0.4,0,0.7,0.1,1,0.4c0.3,0.3,0.4,0.6,0.4,0.9c0,0.4-0.1,0.7-0.4,1c-0.3,0.3-0.6,0.4-1,0.4
				c-0.4,0-0.7-0.1-1-0.4C44,27.7,43.9,27.4,43.9,27 M43.9,24c0-0.4,0.1-0.7,0.4-0.9c0.3-0.3,0.6-0.4,1-0.4c0.4,0,0.7,0.1,0.9,0.4
				s0.4,0.6,0.4,0.9c0,0.4-0.1,0.7-0.4,1c-0.3,0.3-0.6,0.4-0.9,0.4c-0.4,0-0.7-0.1-1-0.4C44,24.7,43.9,24.3,43.9,24 M41.7,39
				c0-0.4,0.1-0.7,0.4-1c0.3-0.3,0.6-0.4,0.9-0.4c0.4,0,0.7,0.1,1,0.4c0.3,0.3,0.4,0.6,0.4,1c0,0.4-0.1,0.7-0.4,1s-0.6,0.4-1,0.4
				c-0.4,0-0.7-0.1-0.9-0.4C41.8,39.7,41.7,39.4,41.7,39 M41.7,20.9c0-0.4,0.1-0.7,0.4-1c0.3-0.3,0.6-0.4,1-0.4
				c0.4,0,0.7,0.1,0.9,0.4c0.3,0.3,0.4,0.6,0.4,1c0,0.4-0.1,0.7-0.4,0.9c-0.3,0.3-0.6,0.4-0.9,0.4c-0.4,0-0.7-0.1-1-0.4
				C41.8,21.6,41.7,21.3,41.7,20.9 M38.3,39c0-0.4,0.1-0.7,0.4-0.9c0.3-0.3,0.6-0.4,0.9-0.4c0.4,0,0.7,0.1,1,0.4
				c0.3,0.3,0.4,0.6,0.4,0.9c0,0.4-0.1,0.7-0.4,1c-0.3,0.3-0.6,0.4-1,0.4c-0.4,0-0.7-0.1-0.9-0.4C38.4,39.7,38.3,39.4,38.3,39
				 M38.3,20.9c0-0.4,0.1-0.7,0.4-1c0.3-0.3,0.6-0.4,1-0.4c0.4,0,0.7,0.1,1,0.4c0.3,0.3,0.4,0.6,0.4,1c0,0.4-0.1,0.7-0.4,1
				c-0.3,0.3-0.6,0.4-1,0.4c-0.4,0-0.7-0.1-1-0.4C38.4,21.6,38.3,21.3,38.3,20.9 M34.7,39.1c0-0.4,0.1-0.7,0.4-0.9
				c0.3-0.3,0.6-0.4,1-0.4c0.4,0,0.7,0.1,0.9,0.4c0.3,0.3,0.4,0.6,0.4,0.9c0,0.4-0.1,0.7-0.4,1c-0.3,0.3-0.6,0.4-0.9,0.4
				c-0.4,0-0.7-0.1-1-0.4C34.9,39.8,34.7,39.5,34.7,39.1 M34.7,21c0-0.4,0.1-0.7,0.4-1c0.3-0.3,0.6-0.4,0.9-0.4c0.4,0,0.7,0.1,1,0.4
				c0.3,0.3,0.4,0.6,0.4,1c0,0.4-0.1,0.7-0.4,1c-0.3,0.3-0.6,0.4-1,0.4c-0.4,0-0.7-0.1-0.9-0.4C34.8,21.7,34.7,21.4,34.7,21
				 M32.6,36c0-0.4,0.1-0.7,0.4-1c0.3-0.3,0.6-0.4,1-0.4c0.4,0,0.7,0.1,0.9,0.4c0.3,0.3,0.4,0.6,0.4,1c0,0.4-0.1,0.7-0.4,0.9
				c-0.3,0.3-0.6,0.4-0.9,0.4s-0.7-0.1-1-0.4C32.7,36.7,32.6,36.4,32.6,36 M32.6,33c0-0.4,0.1-0.7,0.4-1c0.3-0.3,0.6-0.4,0.9-0.4
				c0.4,0,0.7,0.1,1,0.4c0.3,0.3,0.4,0.6,0.4,1c0,0.4-0.1,0.7-0.4,0.9c-0.3,0.3-0.6,0.4-1,0.4c-0.4,0-0.7-0.1-0.9-0.4
				C32.7,33.7,32.6,33.4,32.6,33 M32.5,30c0-0.4,0.1-0.7,0.4-0.9c0.3-0.3,0.6-0.4,1-0.4c0.4,0,0.7,0.1,1,0.4
				c0.3,0.3,0.4,0.6,0.4,0.9c0,0.4-0.1,0.7-0.4,1c-0.3,0.3-0.6,0.4-1,0.4c-0.4,0-0.7-0.1-1-0.4C32.7,30.7,32.5,30.3,32.5,30
				 M32.5,27c0-0.4,0.1-0.7,0.4-1c0.3-0.3,0.6-0.4,1-0.4c0.4,0,0.7,0.1,1,0.4c0.3,0.3,0.4,0.6,0.4,1c0,0.4-0.1,0.7-0.4,1
				c-0.3,0.3-0.6,0.4-1,0.4c-0.4,0-0.7-0.1-1-0.4C32.7,27.7,32.5,27.3,32.5,27 M32.5,23.9c0-0.4,0.1-0.7,0.4-1
				c0.3-0.3,0.6-0.4,1-0.4c0.4,0,0.7,0.1,0.9,0.4s0.4,0.6,0.4,1c0,0.4-0.1,0.7-0.4,1s-0.6,0.4-0.9,0.4c-0.4,0-0.7-0.1-1-0.4
				C32.7,24.6,32.5,24.3,32.5,23.9"/>
		</g>
	</g>
</g>
</svg>
