<?xml version="1.0" encoding="utf-8"?>
<!-- Generator: Adobe Illustrator 24.2.1, SVG Export Plug-In . SVG Version: 6.00 Build 0)  -->
<svg version="1.1" id="圖層_1" xmlns="http://www.w3.org/2000/svg" xmlns:xlink="http://www.w3.org/1999/xlink" x="0px" y="0px"
	 viewBox="0 0 60 60" style="enable-background:new 0 0 60 60;" xml:space="preserve">
<style type="text/css">
	.st0{opacity:0.8;fill:none;stroke:url(#SVGID_1_);enable-background:new    ;}
	.st1{opacity:0.8;fill:none;stroke:url(#SVGID_2_);enable-background:new    ;}
	.st2{opacity:0.6;fill:none;stroke:url(#SVGID_3_);enable-background:new    ;}
	.st3{opacity:0.6;fill:none;stroke:url(#SVGID_4_);enable-background:new    ;}
	.st4{opacity:0.4;fill:none;stroke:url(#SVGID_5_);enable-background:new    ;}
	.st5{opacity:0.4;fill:none;stroke:url(#SVGID_6_);enable-background:new    ;}
	.st6{fill-rule:evenodd;clip-rule:evenodd;fill:#FFFFFF;}
</style>
<g>
	<g>
		<g>
			<g>
				
					<linearGradient id="SVGID_1_" gradientUnits="userSpaceOnUse" x1="-470.7849" y1="548.011" x2="-470.7849" y2="549.011" gradientTransform="matrix(13.435 0 0 -23.148 6332.75 12738.5068)">
					<stop  offset="0" style="stop-color:#C9D1D9"/>
					<stop  offset="1" style="stop-color:#FFFFFF"/>
				</linearGradient>
				<path class="st0" d="M16.8,53.1C8.8,48.5,3.3,39.9,3.3,30"/>
				
					<linearGradient id="SVGID_2_" gradientUnits="userSpaceOnUse" x1="-481.3269" y1="550.0416" x2="-481.3269" y2="551.0416" gradientTransform="matrix(18.867 0 0 -25.503 9132.1035 14057.71)">
					<stop  offset="0" style="stop-color:#C9D1D9"/>
					<stop  offset="1" style="stop-color:#FFFFFF"/>
				</linearGradient>
				<path class="st1" d="M37.8,4.5C48.7,7.8,56.7,18,56.7,30"/>
				
					<linearGradient id="SVGID_3_" gradientUnits="userSpaceOnUse" x1="-460.3024" y1="532.579" x2="-460.3024" y2="533.579" gradientTransform="matrix(10.59 0 0 -13.602 4922.561 7293.8125)">
					<stop  offset="0" style="stop-color:#C9D1D9"/>
					<stop  offset="1" style="stop-color:#FFFFFF"/>
				</linearGradient>
				<path class="st2" d="M51.8,36.1c-1.6,5.8-5.5,10.7-10.6,13.6"/>
				
					<linearGradient id="SVGID_4_" gradientUnits="userSpaceOnUse" x1="-485.8238" y1="541.8846" x2="-485.8238" y2="542.8846" gradientTransform="matrix(22.205 0 0 -18.104 10801.1396 9835.7168)">
					<stop  offset="0" style="stop-color:#C9D1D9"/>
					<stop  offset="1" style="stop-color:#FFFFFF"/>
				</linearGradient>
				<path class="st3" d="M7.8,25.4C9.9,15.1,19.1,7.3,30,7.3"/>
				
					<linearGradient id="SVGID_5_" gradientUnits="userSpaceOnUse" x1="-445.8823" y1="553.4023" x2="-445.8823" y2="554.4023" gradientTransform="matrix(8.155 0 0 -30.667 3683.7393 17017.3047)">
					<stop  offset="0" style="stop-color:#C9D1D9"/>
					<stop  offset="1" style="stop-color:#FFFFFF"/>
				</linearGradient>
				<path class="st4" d="M43.7,15.4C47.6,19.1,50,24.3,50,30c0,1.4-0.1,2.7-0.4,4c-1,4.9-3.8,9.2-7.7,12.1"/>
				
					<linearGradient id="SVGID_6_" gradientUnits="userSpaceOnUse" x1="-335.5465" y1="536.9373" x2="-335.5465" y2="537.9373" gradientTransform="matrix(2.94 0 0 -15.395 997.4603 8301.1025)">
					<stop  offset="0" style="stop-color:#C9D1D9"/>
					<stop  offset="1" style="stop-color:#FFFFFF"/>
				</linearGradient>
				<path class="st5" d="M10.6,35c-0.4-1.6-0.6-3.2-0.6-5c0-3.8,1.1-7.4,2.9-10.4"/>
				<path class="st6" d="M30,0C13.5,0,0,13.5,0,30s13.5,30,30,30s30-13.5,30-30S46.5,0,30,0 M30,0.7c16.2,0,29.3,13.2,29.3,29.3
					S46.2,59.3,30,59.3S0.7,46.2,0.7,30S13.8,0.7,30,0.7"/>
			</g>
			<g>
				<path class="st6" d="M35.3,35.8c0-0.4,0.1-0.7,0.4-1c0.3-0.3,0.6-0.4,1-0.4c0.4,0,0.7,0.1,0.9,0.4c0.3,0.3,0.4,0.6,0.4,1
					s-0.1,0.7-0.4,1s-0.6,0.4-0.9,0.4c-0.4,0-0.7-0.1-1-0.4C35.5,36.5,35.3,36.2,35.3,35.8 M35.3,32.8c0-0.4,0.1-0.7,0.4-1
					c0.3-0.3,0.6-0.4,0.9-0.4c0.4,0,0.7,0.1,1,0.4c0.3,0.3,0.4,0.6,0.4,1c0,0.4-0.1,0.7-0.4,1c-0.3,0.3-0.6,0.4-1,0.4
					c-0.4,0-0.7-0.1-0.9-0.4C35.5,33.5,35.3,33.2,35.3,32.8 M35.3,20.7c0-0.4,0.1-0.7,0.4-1c0.3-0.3,0.6-0.4,0.9-0.4s0.7,0.1,1,0.4
					c0.3,0.3,0.4,0.6,0.4,1c0,0.4-0.1,0.7-0.4,1c-0.3,0.3-0.6,0.4-1,0.4S36,22,35.7,21.7C35.4,21.4,35.3,21.1,35.3,20.7 M31.8,38.8
					c0-0.4,0.1-0.7,0.4-1c0.3-0.3,0.6-0.4,0.9-0.4s0.7,0.1,1,0.4c0.3,0.3,0.4,0.6,0.4,1c0,0.4-0.1,0.7-0.4,1c-0.3,0.3-0.6,0.4-1,0.4
					s-0.7-0.1-0.9-0.4C32,39.5,31.8,39.2,31.8,38.8 M31.8,29.7c0-0.4,0.1-0.7,0.4-0.9c0.3-0.3,0.6-0.4,0.9-0.4c0.4,0,0.7,0.1,1,0.4
					c0.3,0.3,0.4,0.6,0.4,0.9c0,0.4-0.1,0.7-0.4,1c-0.3,0.3-0.6,0.4-1,0.4c-0.4,0-0.7-0.1-0.9-0.4C31.9,30.4,31.8,30.1,31.8,29.7
					 M31.8,20.7c0-0.4,0.1-0.7,0.4-1c0.3-0.3,0.6-0.4,1-0.4c0.4,0,0.7,0.1,0.9,0.4c0.3,0.3,0.4,0.6,0.4,1c0,0.4-0.1,0.7-0.4,0.9
					c-0.3,0.3-0.6,0.4-0.9,0.4c-0.4,0-0.7-0.1-1-0.4C31.9,21.4,31.8,21.1,31.8,20.7 M28.4,38.8c0-0.4,0.1-0.7,0.4-0.9
					c0.3-0.3,0.6-0.4,0.9-0.4c0.4,0,0.7,0.1,1,0.4c0.3,0.3,0.4,0.6,0.4,0.9c0,0.4-0.1,0.7-0.4,1c-0.3,0.3-0.6,0.4-1,0.4
					c-0.4,0-0.7-0.1-0.9-0.4C28.6,39.5,28.4,39.2,28.4,38.8 M28.4,29.8c0-0.4,0.1-0.7,0.4-1c0.3-0.3,0.6-0.4,1-0.4
					c0.4,0,0.7,0.1,0.9,0.4c0.3,0.3,0.4,0.6,0.4,1c0,0.4-0.1,0.7-0.4,0.9c-0.3,0.3-0.6,0.4-0.9,0.4c-0.4,0-0.7-0.1-1-0.4
					C28.5,30.4,28.4,30.1,28.4,29.8 M28.4,20.7c0-0.4,0.1-0.7,0.4-1s0.6-0.4,1-0.4s0.7,0.1,1,0.4c0.3,0.3,0.4,0.6,0.4,1
					c0,0.4-0.1,0.7-0.4,1c-0.3,0.3-0.6,0.4-1,0.4s-0.7-0.1-1-0.4C28.5,21.4,28.4,21.1,28.4,20.7 M24.9,38.9c0-0.4,0.1-0.7,0.4-0.9
					c0.3-0.3,0.6-0.4,1-0.4c0.4,0,0.7,0.1,0.9,0.4c0.3,0.3,0.4,0.6,0.4,0.9s-0.1,0.7-0.4,1c-0.3,0.3-0.6,0.4-0.9,0.4
					c-0.4,0-0.7-0.1-1-0.4S24.9,39.3,24.9,38.9 M24.8,29.8c0-0.4,0.1-0.7,0.4-1c0.3-0.3,0.6-0.4,1-0.4c0.4,0,0.7,0.1,1,0.4
					c0.3,0.3,0.4,0.6,0.4,1s-0.1,0.7-0.4,0.9c-0.3,0.3-0.6,0.4-1,0.4c-0.4,0-0.7-0.1-1-0.4C25,30.5,24.8,30.2,24.8,29.8 M24.8,20.8
					c0-0.4,0.1-0.7,0.4-1c0.3-0.3,0.6-0.4,0.9-0.4c0.4,0,0.7,0.1,1,0.4c0.3,0.3,0.4,0.6,0.4,1c0,0.4-0.1,0.7-0.4,1
					c-0.3,0.3-0.6,0.4-1,0.4c-0.4,0-0.7-0.1-0.9-0.4S24.8,21.1,24.8,20.8 M21.4,35.8c0-0.4,0.1-0.7,0.4-1c0.3-0.3,0.6-0.4,1-0.4
					c0.4,0,0.7,0.1,0.9,0.4c0.3,0.3,0.4,0.6,0.4,1c0,0.4-0.1,0.7-0.4,0.9c-0.3,0.3-0.6,0.4-0.9,0.4c-0.4,0-0.7-0.1-1-0.4
					C21.5,36.5,21.4,36.2,21.4,35.8 M21.3,29.8c0-0.4,0.1-0.7,0.4-0.9c0.3-0.3,0.6-0.4,1-0.4c0.4,0,0.7,0.1,1,0.4
					c0.3,0.3,0.4,0.6,0.4,0.9c0,0.4-0.1,0.7-0.4,1c-0.3,0.3-0.6,0.4-1,0.4c-0.4,0-0.7-0.1-1-0.4C21.5,30.5,21.3,30.1,21.3,29.8
					 M21.3,26.7c0-0.4,0.1-0.7,0.4-1c0.3-0.3,0.6-0.4,1-0.4c0.4,0,0.7,0.1,1,0.4c0.3,0.3,0.4,0.6,0.4,1c0,0.4-0.1,0.7-0.4,1
					c-0.3,0.3-0.6,0.4-1,0.4c-0.4,0-0.7-0.1-1-0.4C21.5,27.4,21.3,27.1,21.3,26.7 M21.3,23.7c0-0.4,0.1-0.7,0.4-1
					c0.3-0.3,0.6-0.4,1-0.4c0.4,0,0.7,0.1,0.9,0.4c0.3,0.3,0.4,0.6,0.4,1c0,0.4-0.1,0.7-0.4,1c-0.3,0.3-0.6,0.4-0.9,0.4
					c-0.4,0-0.7-0.1-1-0.4C21.5,24.4,21.3,24.1,21.3,23.7 M21.3,20.7c0-0.4,0.1-0.7,0.4-1c0.3-0.3,0.6-0.4,0.9-0.4
					c0.4,0,0.7,0.1,1,0.4c0.3,0.3,0.4,0.6,0.4,1c0,0.4-0.1,0.7-0.4,0.9c-0.3,0.3-0.6,0.4-1,0.4c-0.4,0-0.7-0.1-0.9-0.4
					C21.5,21.4,21.3,21.1,21.3,20.7"/>
			</g>
		</g>
	</g>
</g>
</svg>
