<svg xmlns="http://www.w3.org/2000/svg" width="90" height="90" viewBox="0 0 90 90" >
    <style type="text/css">
	.flash{
		animation: flash 3s infinite;
    }

    @keyframes flash {
        0%{
            opacity: 0;
        }

        50%{
		    opacity: 1;
        }

		100% {
            opacity: 0;
		}
	}
    </style>
    <defs>
        <linearGradient id="83pqye6pca" x1="50%" x2="50%" y1="100%" y2="0%">
            <stop offset="0%" stop-color="#C9D1D9"/>
            <stop offset="100%" stop-color="#FFF"/>
        </linearGradient>
        <linearGradient id="qrbut4531b" x1="50%" x2="50%" y1="100%" y2="0%">
            <stop offset="0%" stop-color="#C9D1D9"/>
            <stop offset="100%" stop-color="#FFF"/>
        </linearGradient>
        <linearGradient id="hk0bmdj6lc" x1="50%" x2="50%" y1="100%" y2="0%">
            <stop offset="0%" stop-color="#C9D1D9"/>
            <stop offset="100%" stop-color="#FFF"/>
        </linearGradient>
        <linearGradient id="1ddrxy1s6d" x1="50%" x2="50%" y1="100%" y2="0%">
            <stop offset="0%" stop-color="#C9D1D9"/>
            <stop offset="100%" stop-color="#FFF"/>
        </linearGradient>
        <linearGradient id="ugvpoebxxe" x1="50%" x2="50%" y1="100%" y2="0%">
            <stop offset="0%" stop-color="#C9D1D9"/>
            <stop offset="100%" stop-color="#FFF"/>
        </linearGradient>
        <linearGradient id="fjec8k2eaf" x1="50%" x2="50%" y1="100%" y2="0%">
            <stop offset="0%" stop-color="#C9D1D9"/>
            <stop offset="100%" stop-color="#FFF"/>
        </linearGradient>
    </defs>
    <g fill="none" fill-rule="evenodd">
        <g>
            <g>
                <g>
                    <g>
                        <path stroke="url(#83pqye6pca)" d="M25.156 79.722C13.123 72.819 5 59.84 5 45" opacity=".8" transform="translate(-349 -427) translate(47 146) translate(302 281)"/>
                        <path stroke="url(#qrbut4531b)" d="M56.7 6.745C73.066 11.761 85 27.015 85 45" opacity=".8" transform="translate(-349 -427) translate(47 146) translate(302 281)"/>
                        <path stroke="url(#hk0bmdj6lc)" d="M77.762 54.105c-2.42 8.697-8.217 16-15.884 20.402" opacity=".6" transform="translate(-349 -427) translate(47 146) translate(302 281)"/>
                        <path stroke="url(#1ddrxy1s6d)" d="M11.692 38.156C14.867 22.677 28.595 11 45 11" opacity=".6" transform="translate(-349 -427) translate(47 146) translate(302 281)"/>
                        <path stroke="url(#ugvpoebxxe)" d="M65.583 23.175C71.381 28.645 75 36.4 75 45c0 2.07-.21 4.093-.609 6.046-1.515 7.4-5.753 13.808-11.623 18.129" opacity=".4" transform="translate(-349 -427) translate(47 146) translate(302 281)"/>
                        <path stroke="url(#fjec8k2eaf)" d="M15.927 52.429c-.605-2.376-.927-4.864-.927-7.43 0-5.74 1.613-11.103 4.409-15.663" opacity=".4" transform="translate(-349 -427) translate(47 146) translate(302 281)"/>
                        <path fill="#FFF" d="M45 0C20.188 0 0 20.187 0 45s20.188 45 45 45 45-20.187 45-45S69.812 0 45 0m0 1c24.262 0 44 19.738 44 44S69.262 89 45 89 1 69.262 1 45 20.738 1 45 1" transform="translate(-349 -427) translate(47 146) translate(302 281)"/>
                    </g>
                    <g fill="#FFF">
                        <path class="flash" d="M21 24.76c0-.56.2-1.04.601-1.44.399-.4.879-.6 1.439-.6.561 0 1.033.2 1.42.6.387.4.58.88.58 1.44 0 .56-.193 1.04-.58 1.44-.387.4-.859.6-1.42.6-.56 0-1.04-.2-1.439-.6-.401-.4-.601-.88-.601-1.44M21 20.24c0-.56.193-1.04.58-1.44.387-.4.86-.6 1.42-.6.561 0 1.04.2 1.44.6.4.4.6.88.6 1.44 0 .56-.2 1.04-.6 1.44-.4.4-.879.6-1.44.6-.56 0-1.033-.2-1.42-.6-.387-.4-.58-.88-.58-1.44M20.96 2.12c0-.56.193-1.04.58-1.44.387-.4.86-.6 1.42-.6.561 0 1.04.2 1.44.6.4.4.6.88.6 1.44 0 .56-.2 1.04-.6 1.44-.4.4-.879.6-1.44.6-.56 0-1.033-.2-1.42-.6-.387-.4-.58-.88-.58-1.44M15.76 29.2c0-.56.193-1.04.58-1.44.387-.4.86-.6 1.42-.6.56 0 1.04.2 1.44.6.401.4.6.88.6 1.44 0 .56-.199 1.04-.6 1.44-.4.4-.88.6-1.44.6-.56 0-1.033-.2-1.42-.6-.387-.4-.58-.88-.58-1.44M15.72 15.6c0-.56.193-1.032.58-1.42.387-.386.86-.58 1.42-.58.56 0 1.04.194 1.44.58.401.388.6.86.6 1.42 0 .56-.199 1.04-.6 1.44-.4.4-.88.6-1.44.6-.56 0-1.033-.2-1.42-.6-.387-.4-.58-.88-.58-1.44M15.68 2.04c0-.56.2-1.04.6-1.44.4-.4.88-.6 1.44-.6.56 0 1.033.2 1.42.6.386.4.58.88.58 1.44 0 .56-.194 1.034-.58 1.42-.387.387-.86.58-1.42.58-.56 0-1.04-.193-1.44-.58-.4-.386-.6-.86-.6-1.42M10.64 29.2c0-.56.193-1.033.58-1.42.386-.386.86-.58 1.42-.58.56 0 1.04.194 1.44.58.4.387.6.86.6 1.42 0 .56-.2 1.04-.6 1.44-.4.4-.88.6-1.44.6-.56 0-1.034-.2-1.42-.6-.387-.4-.58-.88-.58-1.44M10.601 15.64c0-.56.199-1.04.599-1.44.401-.4.88-.6 1.44-.6.56 0 1.033.2 1.421.6.385.4.579.88.579 1.44 0 .56-.194 1.034-.579 1.42-.388.388-.861.58-1.421.58s-1.039-.192-1.44-.58c-.4-.386-.599-.86-.599-1.42M10.561 2.04c0-.56.199-1.04.599-1.44.401-.4.88-.6 1.441-.6.559 0 1.039.2 1.439.6.4.4.6.88.6 1.44 0 .56-.2 1.04-.6 1.44-.4.4-.88.6-1.439.6-.561 0-1.04-.2-1.441-.6-.4-.4-.599-.88-.599-1.44M5.28 29.32c0-.56.2-1.033.6-1.42.4-.386.88-.58 1.44-.58.56 0 1.034.194 1.42.58.386.387.58.86.58 1.42 0 .56-.194 1.04-.58 1.44-.386.4-.86.6-1.42.6-.56 0-1.04-.2-1.44-.6-.4-.4-.6-.88-.6-1.44M5.24 15.76c0-.56.2-1.04.6-1.44.4-.4.88-.6 1.44-.6.56 0 1.04.2 1.44.6.4.4.6.88.6 1.44 0 .56-.2 1.034-.6 1.42-.4.388-.88.58-1.44.58-.56 0-1.04-.192-1.44-.58-.4-.386-.6-.86-.6-1.42M5.24 2.16c0-.56.194-1.04.58-1.44.386-.4.86-.6 1.42-.6.56 0 1.04.2 1.44.6.4.4.6.88.6 1.44 0 .56-.2 1.04-.6 1.44-.4.4-.88.6-1.44.6-.56 0-1.034-.2-1.42-.6-.386-.4-.58-.88-.58-1.44M.04 24.72c0-.56.2-1.04.6-1.44.4-.4.881-.6 1.44-.6.56 0 1.033.2 1.42.6.387.4.58.88.58 1.44 0 .56-.193 1.034-.58 1.42-.387.388-.86.58-1.42.58-.559 0-1.04-.192-1.44-.58-.4-.386-.6-.86-.6-1.42M0 15.64c0-.56.2-1.032.601-1.42.399-.386.879-.58 1.439-.58.561 0 1.04.194 1.44.58.4.388.6.86.6 1.42 0 .56-.2 1.04-.6 1.44-.4.4-.879.6-1.44.6-.56 0-1.04-.2-1.439-.6C.2 16.68 0 16.2 0 15.64M0 11.12c0-.56.2-1.04.601-1.44.399-.4.879-.6 1.439-.6.561 0 1.04.2 1.44.6.4.4.6.88.6 1.44 0 .56-.2 1.04-.6 1.44-.4.4-.879.6-1.44.6-.56 0-1.04-.2-1.439-.6C.2 12.16 0 11.68 0 11.12M0 6.6c0-.56.2-1.04.601-1.44.399-.4.879-.6 1.439-.6.561 0 1.033.2 1.42.6.387.4.58.88.58 1.44 0 .56-.193 1.04-.58 1.44-.387.4-.859.6-1.42.6-.56 0-1.04-.2-1.439-.6C.2 7.64 0 7.16 0 6.6M0 2.08C0 1.52.193 1.04.58.64c.387-.4.86-.6 1.42-.6.561 0 1.04.2 1.44.6.4.4.6.88.6 1.44 0 .56-.2 1.035-.6 1.42-.4.387-.879.58-1.44.58-.56 0-1.033-.193-1.42-.58C.193 3.115 0 2.64 0 2.08" transform="translate(-349 -427) translate(47 146) translate(302 281) translate(32 29)"/>
                    </g>
                </g>
            </g>
        </g>
    </g>
</svg>
