<svg xmlns="http://www.w3.org/2000/svg" xmlns:xlink="http://www.w3.org/1999/xlink" width="133" height="31.28" viewBox="0 0 133 31.28">
    <defs>
        <linearGradient id="g1y5iupoaa" x1="-.142" x2="5.128" y1=".527" y2=".332" gradientUnits="objectBoundingBox">
            <stop offset="0" stop-color="#16559b"/>
            <stop offset=".5" stop-color="#319acf"/>
            <stop offset="1" stop-color="#16559b"/>
        </linearGradient>
        <linearGradient id="aj9c43jbqb" x1="-1.261" x2="4.14" y1=".564" y2=".381" xlink:href="#g1y5iupoaa"/>
        <linearGradient id="x29pezo3tc" x1="-2.294" x2="2.987" y1=".597" y2=".414" xlink:href="#g1y5iupoaa"/>
        <linearGradient id="rwviqhwlld" x1="-3.493" x2="1.957" y1=".635" y2=".444" xlink:href="#g1y5iupoaa"/>
    </defs>
    <g>
        <path fill="url(#g1y5iupoaa)" d="M17.884 27.826h12.871v2.85H2.089v-2.85h12.465v-4.991H5.42v-2.756h9.134v-4.623H6.948V12.7a38.873 38.873 0 0 1-4.416 2.718A11.893 11.893 0 0 0 .56 12.832a40.987 40.987 0 0 0 11.993-8.558H7.146V1.33h10.833a32.623 32.623 0 0 0 14.2 11.106 15.736 15.736 0 0 0-2.142 2.85A32.933 32.933 0 0 1 25.66 12.8v2.652h-7.776v4.624h9.238v2.755h-9.238v4.992zM7.014 12.681h18.448a41.956 41.956 0 0 1-9.172-8.388 49.2 49.2 0 0 1-9.276 8.388z" transform="translate(-0.56 -0.29) translate(0 -0.059)"/>
        <path fill="url(#aj9c43jbqb)" d="M50.072 22.229l.3 2.925c-4.372 1.085-9.104 2.274-12.633 3.123l-.679-3.123c1.934-.406 4.454-.915 7.134-1.566a107.08 107.08 0 0 0 2.076-13.145l2.953.51c-.642 3.869-1.529 8.662-2.378 12.021zM37.409 6.471h13.21V9.4h-13.21zm3.7 4.312a92.4 92.4 0 0 1 1.631 11.653l-2.623.51a91.251 91.251 0 0 0-1.491-11.682zM43.42 6.4a29.905 29.905 0 0 0-2.17-5.1l2.717-.774a23.329 23.329 0 0 1 2.312 4.926zm16.267 3.571v6.322h6.9v15.013H63.4v-1.425h-9.2v1.566h-3.062V16.293h5.332V.29h3.23v6.662h8.219v3.02zm3.7 9.276h-9.2v7.681h9.2z" transform="translate(-0.56 -0.29) translate(-2.059 0)"/>
        <path fill="url(#x29pezo3tc)" d="M82.583 17.552c-1.019.406-2.076.783-3.1 1.189v8.964c0 1.529-.34 2.416-1.189 2.85-.915.547-2.246.642-4.284.642a12.5 12.5 0 0 0-.849-2.953c1.255.038 2.482.038 2.85.038.406-.038.547-.132.547-.576v-7.917c-1.085.406-2.17.783-3.123 1.151l-.849-3.02c1.123-.34 2.482-.783 3.973-1.293V9.871h-3.526V6.946h3.529V.36h2.925v6.586h2.68v2.925h-2.68v5.775c.887-.3 1.7-.642 2.585-.953zm19.155 1.661a17.021 17.021 0 0 1-5.945 7.3 35.931 35.931 0 0 0 8.351 2.208 13.4 13.4 0 0 0-1.972 2.784 31.633 31.633 0 0 1-9.445-3.161 36.8 36.8 0 0 1-10.427 3.23 8.583 8.583 0 0 0-1.4-2.784 36.933 36.933 0 0 0 8.964-2.274 19.191 19.191 0 0 1-4.69-4.963l1.226-.443h-3.6v-2.652h8.153V.36h2.991v18.108h5.265l.576-.132zM89.952 16.26H83.2V3.729a39.206 39.206 0 0 0 5.228-2.444l1.93 2.245a39.758 39.758 0 0 1-4.378 1.595v3.123h3.774v2.585H85.98v2.821h3.973v2.6zm-1.632 4.86a16.341 16.341 0 0 0 4.52 3.944 16.864 16.864 0 0 0 4.482-3.944zm13.758-4.793h-6.964v-2.653h4.208v-2.85h-4.038V8.239h4.039v-2.85h-4.209V2.776h6.964z" transform="translate(-0.56 -0.29) translate(-4.063 -0.004)"/>
        <path fill="url(#rwviqhwlld)" d="M139.673 24.446h-6.822v3.869c0 1.566-.34 2.378-1.529 2.784-1.227.443-3.02.472-5.775.472a9.072 9.072 0 0 0-1.057-2.784c2 .066 3.973.038 4.52.038.576-.038.717-.132.717-.613v-3.776h-11.851a23.043 23.043 0 0 1 4.142 3.331l-2.274 1.972a22.617 22.617 0 0 0-5.029-4.142l1.359-1.151h-6.964v-2.614h20.618v-1.906h-4.822v-7.134h12.908v7.134h-4.954v1.906h6.822v2.614zm-29.959-6.218c1.491-.066 3.293-.17 5.3-.274v-2.888h-4.69v-2.274h12.5v2.274h-4.86v2.718l5.463-.377v2.34c-4.86.377-9.879.717-13.484.915zM132.162 7.5h-21.429V5.46h21.429v-1.7h-19.221V1.62h22.316v3.84h2.585V7.5h-2.585v3.869h-22.486V9.2h19.391zm-4.312 10.293h6.832v-2.85h-6.832z" transform="translate(-0.56 -0.29) translate(-6.123 -0.075)"/>
    </g>
</svg>
