<svg xmlns="http://www.w3.org/2000/svg" width="97" height="113" viewBox="0 0 97 113">
    <g fill="none" fill-rule="evenodd">
        <g>
            <g>
                <path stroke="#65DAB3" stroke-width="2" d="M0.296 71.885L0.296 38.198 65.586 0.278 94.371 16.896 94.371 93.996 66.48 110.109z" transform="translate(-589 -307) translate(589.806 308.492)"/>
                <path fill="#65DAB3" d="M52.62 29.284c6.566-.006 11.902 5.312 11.92 11.878.018 6.551-5.315 11.903-11.878 11.92-6.552.017-11.912-5.324-11.918-11.877-.006-6.569 5.32-11.915 11.876-11.92m.003 26.447c8.02.01 14.565-6.529 14.563-14.549-.002-8-6.508-14.529-14.496-14.545-8.063-.018-14.604 6.518-14.592 14.577.012 7.992 6.53 14.507 14.525 14.517" transform="translate(-589 -307) translate(589.806 308.492)"/>
                <path fill="#65DAB3" d="M51.372 44.8c-.248-.18-.461-.409-.681-.625-.612-.602-1.39-.658-1.94-.135-.546.521-.541 1.306.018 1.951.305.35.605.756 1.028.92 1.07.412 1.422 1.123 1.292 2.25-.082.706.552 1.245 1.244 1.271.68.027 1.262-.469 1.347-1.194.044-.37.04-.75.015-1.122-.026-.373.094-.568.448-.75 1.416-.727 2.114-1.935 2.196-3.335.012-1.95-1.168-3.516-2.88-4.024-.408-.122-.828-.102-1.24-.17-.837-.14-1.324-.868-1.113-1.637.212-.776.979-1.15 1.776-.886.39.13.674.403.99.641.623.468 1.373.407 1.84-.136.463-.537.417-1.302-.116-1.85-.122-.126-.258-.24-.394-.352-.65-.533-1.347-1.707-1.528-2.579-.142-.686-.701-1.135-1.365-1.1-.692.038-1.206.566-1.244 1.298-.017.33-.03.663 0 .991.04.4-.072.627-.475.792-.644.264-1.136.743-1.515 1.333-1.684 2.62-.024 5.865 3.155 6.142.68.06 1.194.292 1.399.988.169.578-.033 1.046-.478 1.407-.476.387-1.17.35-1.78-.09" transform="translate(-589 -307) translate(589.806 308.492)"/>
                <path fill="#65DAB3" d="M77.418 90.792c-.298.302-.467.327-.78.013-1.631-1.642-3.289-3.257-4.931-4.888-.682-.677-.699-1.417-.028-2.089 3.675-3.682 7.359-7.355 11.036-11.035.279-.278.594-.449 1.091-.459.384-.019.727.237 1.049.562.95.958 1.908 1.908 2.862 2.862v4.662c-3.439 3.451-6.874 6.907-10.299 10.372zM57.754 70.58c-.235-.046-.482-.037-.724-.037-3.417-.002-6.834.006-10.251-.005-1.681-.006-2.849-1.337-2.664-2.996.151-1.345 1.273-2.283 2.782-2.286 4.784-.007 9.567-.004 14.351-.001.4.001.79-.021 1.166-.177 2.784-1.159 5.667-1.408 8.62-.885 4.061.719 7.219 2.783 9.383 6.334.265.435.176.66-.153.986-3.16 3.136-6.312 6.281-9.444 9.447-.383.389-.588.425-.96.003-1.606-1.822-3.641-2.573-6.067-2.505-2.687.075-5.378.017-8.067.017-2.866 0-5.732.016-8.598-.005-2.581-.019-4.925-.8-6.625-2.777-3.937-4.578-7.773-9.243-11.641-13.88-1.015-1.217-.94-2.755.143-3.739 1.109-1.007 2.661-.936 3.786.213 2.805 2.867 5.596 5.75 8.398 8.621.18.185.263.363.261.634-.023 3.396 2.21 5.647 5.601 5.652 3.351.006 6.702.002 10.053.001.198 0 .399.01.594-.022.654-.108 1.109-.633 1.125-1.276.015-.647-.408-1.186-1.069-1.317zm29.963 19.768l-21.663 12.514L6.263 68.33V41.831l58.91-34.216L87.717 20.63v51.373c-.236-.24-.476-.474-.711-.715-1.035-1.064-2.192-1.772-3.736-1.59-.294.035-.381-.142-.491-.336-4.381-7.724-13.94-9.595-20.815-6.946-.358.138-.707.201-1.087.201-4.453-.006-8.905.035-13.357-.022-1.938-.025-3.608.436-4.718 1.754-1.507-1.405-3.029-2.778-4.497-4.208-1.263-1.229-2.451-2.535-3.694-3.786-2.81-2.831-7.555-1.848-8.77 1.899-.59 1.819-.383 3.645.95 5.216 2.338 2.755 4.643 5.539 6.961 8.311 1.415 1.691 2.835 3.375 4.238 5.075 2.355 2.854 5.419 4.233 9.076 4.258 5.62.04 11.242.074 16.861-.023 2.046-.035 3.406.934 4.662 2.307.172.188.106.349.066.544-.317 1.531.126 2.824 1.231 3.911 2.011 1.978 4.018 3.961 6.034 5.933.227.221.506.387.76.579h.794c1.041-.785 1.881-1.781 2.795-2.695 2.49-2.492 4.967-4.997 7.448-7.499v6.177zM65.17 5L4 40.528v29.108l62.054 35.839L89.98 91.653V19.323L65.17 5z" transform="translate(-589 -307) translate(589.806 308.492)"/>
            </g>
        </g>
    </g>
</svg>
