<svg xmlns="http://www.w3.org/2000/svg" width="1531.14" height="689.521" viewBox="0 0 1531.14 689.521">
    <defs>
        <clipPath id="r4u9k9pvma">
            <path d="M0 613.66Q0 308.17-.07 2.68C-.07.5.6.01 3.59.01Q765.5.1 1527.41.01c2.99 0 3.66.49 3.66 2.67q-.12 305.2-.07 610.41c-1.13.27-2.25.58-3.4.81-37.88 7.36-76.04 13.85-114.33 19.98q-93.255 14.925-187.44 26.28-65.25 7.83-130.89 13.73c-30.44 2.73-60.91 5.23-91.45 7.28-28.95 1.94-57.95 3.51-86.97 4.88-34.33 1.61-68.69 2.78-103.08 3.19-54.73.64-109.46.34-164.13-2.07-19.88-.88-39.79-1.49-59.64-2.57q-46.86-2.55-93.62-6.14-51.3-3.975-102.42-9.02-58.425-5.8-116.55-13.04-98.625-12.2-196.15-28.36Q40.31 621.275 0 613.66z"/>
        </clipPath>
    </defs>
    <g>
        <path fill="#153a71" d="M0 613.66Q0 308.17-.07 2.68C-.07.5.6.01 3.59.01Q765.5.1 1527.41.01c2.99 0 3.66.49 3.66 2.67q-.12 305.2-.07 610.41c-1.13.27-2.25.58-3.4.81-37.88 7.36-76.04 13.85-114.33 19.98q-93.255 14.925-187.44 26.28-65.25 7.83-130.89 13.73c-30.44 2.73-60.91 5.23-91.45 7.28-28.95 1.94-57.95 3.51-86.97 4.88-34.33 1.61-68.69 2.78-103.08 3.19-54.73.64-109.46.34-164.13-2.07-19.88-.88-39.79-1.49-59.64-2.57q-46.86-2.55-93.62-6.14-51.3-3.975-102.42-9.02-58.425-5.8-116.55-13.04-98.625-12.2-196.15-28.36Q40.31 621.275 0 613.66z" transform="translate(.07 -.01)"/>
        <g clip-path="url(#r4u9k9pvma)" transform="translate(.07 -.01)"/>
    </g>
</svg>
