<svg xmlns="http://www.w3.org/2000/svg" width="178.363" height="111.193" viewBox="0 0 178.363 111.193">
    <path data-name="路径 8165" d="M3407.067 176.869a21.728 21.728 0 0 0-8.57 1.752 26.092 26.092 0 0 0-40.646-17.215 37.254 37.254 0 0 0-69.858 16.551 25.33 25.33 0 1 0-12.147 47.558h.144a30.757 30.757 0 0 0 57.572 11.86 20.187 20.187 0 0 0 22.011-3.152 24.31 24.31 0 0 0 43.268-15.227c0-.039-.006-.077-.006-.115a21.811 21.811 0 1 0 8.232-42.008zm-51.494 26.9c-.422-.372-.86-.724-1.311-1.06.218-.272.436-.545.646-.822.42.394.852.777 1.3 1.143-.216.242-.431.483-.635.737z" transform="translate(-3250.518 -142.126)" style="fill:#fff"/>
</svg>
