<svg xmlns="http://www.w3.org/2000/svg" width="96.451" height="58.06" viewBox="0 0 96.451 58.06">
    <path data-name="路径 8166" d="M3229.026 453.057a12.152 12.152 0 0 0-2.542.26 19.49 19.49 0 0 0-25.743-10.626 21.56 21.56 0 0 0-42.752 3.862c0 .322.008.642.02.961-.261-.018-.52-.042-.785-.043a12.55 12.55 0 1 0 1.744 24.956 12.087 12.087 0 0 0 22.087 5.318 10.3 10.3 0 0 0 14.5-2.5 19.467 19.467 0 0 0 26.168-.421 12.09 12.09 0 1 0 7.3-21.768z" transform="translate(-3144.612 -425.096)" style="fill:#fff"/>
</svg>
