<svg xmlns="http://www.w3.org/2000/svg" width="249.233" height="149.5" viewBox="0 0 249.233 149.5">
    <g data-name="组 54">
        <path data-name="路径 8271" d="M521.785 139.489a25.7 25.7 0 0 1 7.755 1.2 33.256 33.256 0 0 1 46.142-27.053c-.046-.762-.116-1.517-.116-2.29a38.1 38.1 0 0 1 74.377-11.636 25.624 25.624 0 0 1 33.172 14.865 25.693 25.693 0 0 1 36.934 31.77A34.334 34.334 0 1 1 682.14 200.9a46.906 46.906 0 0 1-46.434 8.361 41.884 41.884 0 0 1-64.3-8.939 25.655 25.655 0 0 1-37.6-12.382 25.717 25.717 0 1 1-12.022-48.449z" transform="translate(-493.333 -73.242)" style="fill:#cbe6f6"/>
        <g data-name="组 48" style="opacity:.15;mix-blend-mode:multiply;isolation:isolate">
            <path data-name="路径 8272" d="M518.151 142.533a25.68 25.68 0 0 1 7.756 1.2 33.255 33.255 0 0 1 46.142-27.054c-.045-.762-.116-1.516-.116-2.29a38.1 38.1 0 0 1 74.377-11.631 25.624 25.624 0 0 1 33.171 14.864 25.693 25.693 0 0 1 36.934 31.77 34.334 34.334 0 1 1-37.909 54.552 46.906 46.906 0 0 1-46.434 8.361 41.883 41.883 0 0 1-64.294-8.939 25.655 25.655 0 0 1-37.6-12.382 25.717 25.717 0 1 1-12.022-48.449z" transform="translate(-492.432 -73.996)" style="fill:#fff"/>
            <path data-name="路径 8273" d="M518.187 142.5a25.7 25.7 0 0 1 7.755 1.2 33.255 33.255 0 0 1 46.142-27.053c-.045-.762-.116-1.516-.116-2.29a38.1 38.1 0 0 1 74.377-11.631 25.624 25.624 0 0 1 33.171 14.864 25.693 25.693 0 0 1 36.934 31.77 34.334 34.334 0 1 1-37.909 54.552 46.906 46.906 0 0 1-46.434 8.361 41.883 41.883 0 0 1-64.294-8.939 25.655 25.655 0 0 1-37.6-12.382 25.717 25.717 0 1 1-12.026-48.452z" transform="translate(-492.441 -73.989)" style="fill:#fdfdfd"/>
            <path data-name="路径 8274" d="M518.223 142.473a25.706 25.706 0 0 1 7.755 1.2 33.254 33.254 0 0 1 46.142-27.053c-.045-.762-.116-1.517-.116-2.29a38.1 38.1 0 0 1 74.378-11.63 25.621 25.621 0 0 1 33.171 14.864 25.693 25.693 0 0 1 36.934 31.77 34.334 34.334 0 1 1-37.909 54.552 46.906 46.906 0 0 1-46.434 8.361 41.883 41.883 0 0 1-64.294-8.939 25.655 25.655 0 0 1-37.6-12.382 25.717 25.717 0 1 1-12.023-48.449z" transform="translate(-492.45 -73.982)" style="fill:#fafafb"/>
            <path data-name="路径 8275" d="M518.259 142.443a25.706 25.706 0 0 1 7.755 1.2 33.254 33.254 0 0 1 46.142-27.053c-.045-.762-.116-1.517-.116-2.29a38.1 38.1 0 0 1 74.377-11.631 25.623 25.623 0 0 1 33.171 14.865 25.693 25.693 0 0 1 36.934 31.77 34.334 34.334 0 1 1-37.909 54.552 46.906 46.906 0 0 1-46.434 8.361 41.883 41.883 0 0 1-64.294-8.939 25.655 25.655 0 0 1-37.6-12.382 25.717 25.717 0 1 1-12.022-48.449z" transform="translate(-492.459 -73.974)" style="fill:#f7f7f8"/>
            <path data-name="路径 8276" d="M518.3 142.413a25.7 25.7 0 0 1 7.755 1.2 33.256 33.256 0 0 1 46.143-27.054c-.045-.761-.116-1.516-.116-2.29a38.1 38.1 0 0 1 74.377-11.631 25.623 25.623 0 0 1 33.165 14.862 25.693 25.693 0 0 1 36.934 31.77 34.334 34.334 0 1 1-37.909 54.552 46.906 46.906 0 0 1-46.434 8.361 41.884 41.884 0 0 1-64.294-8.939 25.655 25.655 0 0 1-37.6-12.382 25.717 25.717 0 1 1-12.021-48.449z" transform="translate(-492.468 -73.966)" style="fill:#f4f4f5"/>
            <path data-name="路径 8277" d="M518.331 142.382a25.7 25.7 0 0 1 7.755 1.2 33.256 33.256 0 0 1 46.143-27.054c-.046-.761-.116-1.516-.116-2.29a38.1 38.1 0 0 1 74.376-11.638 25.624 25.624 0 0 1 33.172 14.865 25.693 25.693 0 0 1 36.934 31.77 34.334 34.334 0 1 1-37.909 54.552 46.908 46.908 0 0 1-46.434 8.36 41.883 41.883 0 0 1-64.294-8.939 25.655 25.655 0 0 1-37.6-12.382 25.717 25.717 0 1 1-12.022-48.449z" transform="translate(-492.477 -73.959)" style="fill:#f1f0f1"/>
            <path data-name="路径 8278" d="M518.367 142.352a25.675 25.675 0 0 1 7.755 1.2 33.256 33.256 0 0 1 46.143-27.054c-.046-.761-.116-1.516-.116-2.29a38.1 38.1 0 0 1 74.376-11.631 25.624 25.624 0 0 1 33.175 14.862 25.692 25.692 0 0 1 36.934 31.77 34.334 34.334 0 1 1-37.909 54.552 46.906 46.906 0 0 1-46.434 8.361 41.883 41.883 0 0 1-64.294-8.939 25.656 25.656 0 0 1-37.6-12.381 25.717 25.717 0 1 1-12.022-48.449z" transform="translate(-492.486 -73.952)" style="fill:#ededee"/>
            <path data-name="路径 8279" d="M518.4 142.322a25.7 25.7 0 0 1 7.755 1.2 33.256 33.256 0 0 1 46.145-27.058c-.046-.762-.116-1.516-.116-2.29a38.1 38.1 0 0 1 74.376-11.631 25.625 25.625 0 0 1 33.172 14.864 25.693 25.693 0 0 1 36.934 31.77 34.334 34.334 0 1 1-37.909 54.552 46.906 46.906 0 0 1-46.434 8.361 41.883 41.883 0 0 1-64.294-8.939 25.655 25.655 0 0 1-37.6-12.382 25.717 25.717 0 1 1-12.029-48.447z" transform="translate(-492.494 -73.944)" style="fill:#eae9eb"/>
            <path data-name="路径 8280" d="M518.439 142.292a25.7 25.7 0 0 1 7.755 1.2 33.256 33.256 0 0 1 46.142-27.053c-.046-.762-.116-1.517-.116-2.29a38.1 38.1 0 0 1 74.38-11.635 25.625 25.625 0 0 1 33.172 14.864 25.693 25.693 0 0 1 36.934 31.77 34.334 34.334 0 1 1-37.912 54.552 46.906 46.906 0 0 1-46.434 8.361 41.884 41.884 0 0 1-64.3-8.939 25.655 25.655 0 0 1-37.6-12.382 25.717 25.717 0 1 1-12.022-48.449z" transform="translate(-492.503 -73.937)" style="fill:#e7e6e8"/>
            <path data-name="路径 8281" d="M518.475 142.262a25.7 25.7 0 0 1 7.755 1.2 33.256 33.256 0 0 1 46.142-27.062c-.046-.762-.116-1.517-.116-2.29a38.1 38.1 0 0 1 74.376-11.631 25.622 25.622 0 0 1 33.168 14.869 25.693 25.693 0 0 1 36.934 31.77 34.334 34.334 0 1 1-37.909 54.552 46.906 46.906 0 0 1-46.434 8.361 41.884 41.884 0 0 1-64.3-8.939 25.655 25.655 0 0 1-37.6-12.382 25.717 25.717 0 1 1-12.022-48.449z" transform="translate(-492.512 -73.929)" style="fill:#e4e2e4"/>
            <path data-name="路径 8282" d="M518.511 142.232a25.7 25.7 0 0 1 7.755 1.2 33.254 33.254 0 0 1 46.143-27.053c-.046-.762-.116-1.517-.116-2.29a38.1 38.1 0 0 1 74.376-11.631 25.624 25.624 0 0 1 33.172 14.865 25.693 25.693 0 0 1 36.934 31.77 34.334 34.334 0 1 1-37.909 54.552A46.906 46.906 0 0 1 632.431 212a41.884 41.884 0 0 1-64.295-8.939 25.655 25.655 0 0 1-37.6-12.382 25.717 25.717 0 1 1-12.022-48.449z" transform="translate(-492.521 -73.922)" style="fill:#e1dfe1"/>
            <path data-name="路径 8283" d="M518.547 142.2a25.7 25.7 0 0 1 7.755 1.2 33.256 33.256 0 0 1 46.143-27.054c-.046-.761-.116-1.516-.116-2.29a38.1 38.1 0 0 1 74.371-11.633 25.624 25.624 0 0 1 33.172 14.865 25.693 25.693 0 0 1 36.934 31.77 34.334 34.334 0 1 1-37.906 54.553 46.906 46.906 0 0 1-46.434 8.361 41.885 41.885 0 0 1-64.295-8.939 25.655 25.655 0 0 1-37.6-12.382 25.717 25.717 0 1 1-12.024-48.451z" transform="translate(-492.53 -73.914)" style="fill:#dedcde"/>
            <path data-name="路径 8284" d="M518.583 142.172a25.675 25.675 0 0 1 7.755 1.2 33.256 33.256 0 0 1 46.143-27.054c-.046-.761-.116-1.516-.116-2.29a38.1 38.1 0 0 1 74.376-11.631 25.624 25.624 0 0 1 33.172 14.865 25.693 25.693 0 0 1 36.934 31.77 34.334 34.334 0 1 1-37.909 54.552 46.908 46.908 0 0 1-46.434 8.36 41.884 41.884 0 0 1-64.3-8.939 25.655 25.655 0 0 1-37.6-12.382 25.717 25.717 0 1 1-12.022-48.449z" transform="translate(-492.539 -73.907)" style="fill:#dbd9db"/>
            <path data-name="路径 8285" d="M518.619 142.141a25.674 25.674 0 0 1 7.755 1.2 33.256 33.256 0 0 1 46.143-27.054c-.046-.761-.116-1.516-.116-2.29a38.1 38.1 0 0 1 74.376-11.631 25.624 25.624 0 0 1 33.172 14.865A25.693 25.693 0 0 1 716.882 149a34.334 34.334 0 1 1-37.909 54.553 46.908 46.908 0 0 1-46.434 8.36 41.884 41.884 0 0 1-64.3-8.939 25.655 25.655 0 0 1-37.6-12.382 25.717 25.717 0 1 1-12.022-48.449z" transform="translate(-492.548 -73.899)" style="fill:#d8d5d8"/>
            <path data-name="路径 8286" d="M518.655 142.111a25.7 25.7 0 0 1 7.755 1.2 33.256 33.256 0 0 1 46.142-27.053c-.046-.761-.116-1.516-.116-2.29a38.1 38.1 0 0 1 74.376-11.631 25.625 25.625 0 0 1 33.172 14.863 25.693 25.693 0 0 1 36.934 31.77 34.334 34.334 0 1 1-37.908 54.55 46.906 46.906 0 0 1-46.434 8.361 41.884 41.884 0 0 1-64.3-8.939 25.655 25.655 0 0 1-37.6-12.382 25.717 25.717 0 1 1-12.022-48.449z" transform="translate(-492.557 -73.892)" style="fill:#d4d2d5"/>
            <path data-name="路径 8287" d="M518.691 142.081a25.7 25.7 0 0 1 7.755 1.2 33.256 33.256 0 0 1 46.143-27.053c-.046-.762-.116-1.517-.116-2.29a38.1 38.1 0 0 1 74.376-11.638 25.622 25.622 0 0 1 33.172 14.864 25.693 25.693 0 0 1 36.934 31.77 34.334 34.334 0 1 1-37.909 54.552 46.906 46.906 0 0 1-46.434 8.361 41.884 41.884 0 0 1-64.3-8.939 25.655 25.655 0 0 1-37.6-12.382 25.717 25.717 0 1 1-12.022-48.449z" transform="translate(-492.566 -73.884)" style="fill:#d1cfd2"/>
            <path data-name="路径 8288" d="M518.727 142.051a25.7 25.7 0 0 1 7.755 1.2 33.254 33.254 0 0 1 46.143-27.053c-.046-.762-.116-1.517-.116-2.29a38.1 38.1 0 0 1 74.376-11.631 25.624 25.624 0 0 1 33.172 14.865 25.693 25.693 0 0 1 36.934 31.77 34.334 34.334 0 1 1-37.909 54.552 46.906 46.906 0 0 1-46.434 8.361 41.884 41.884 0 0 1-64.3-8.939 25.655 25.655 0 0 1-37.6-12.382 25.717 25.717 0 1 1-12.022-48.449z" transform="translate(-492.575 -73.877)" style="fill:#cecccf"/>
            <path data-name="路径 8289" d="M518.763 142.021a25.7 25.7 0 0 1 7.755 1.2 33.254 33.254 0 0 1 46.143-27.053c-.046-.762-.116-1.517-.116-2.29a38.1 38.1 0 0 1 74.376-11.631 25.624 25.624 0 0 1 33.172 14.865 25.693 25.693 0 0 1 36.934 31.77 34.334 34.334 0 1 1-37.909 54.552 46.906 46.906 0 0 1-46.434 8.361 41.884 41.884 0 0 1-64.295-8.939 25.655 25.655 0 0 1-37.6-12.382 25.717 25.717 0 1 1-12.022-48.449z" transform="translate(-492.584 -73.87)" style="fill:#cbc9cc"/>
            <path data-name="路径 8290" d="M518.8 141.991a25.7 25.7 0 0 1 7.755 1.2 33.255 33.255 0 0 1 46.145-27.059c-.045-.761-.115-1.516-.115-2.29a38.1 38.1 0 0 1 74.376-11.631 25.624 25.624 0 0 1 33.172 14.865 25.693 25.693 0 0 1 36.934 31.77 34.334 34.334 0 1 1-37.913 54.554 46.906 46.906 0 0 1-46.434 8.361 41.885 41.885 0 0 1-64.3-8.939 25.655 25.655 0 0 1-37.6-12.382 25.717 25.717 0 1 1-12.02-48.449z" transform="translate(-492.593 -73.862)" style="fill:#c8c5c9"/>
            <path data-name="路径 8291" d="M518.835 141.96a25.675 25.675 0 0 1 7.755 1.2 33.255 33.255 0 0 1 46.142-27.06c-.045-.761-.115-1.516-.115-2.29a38.1 38.1 0 0 1 74.376-11.631 25.624 25.624 0 0 1 33.172 14.865 25.693 25.693 0 0 1 36.934 31.77 34.334 34.334 0 1 1-37.909 54.556 46.908 46.908 0 0 1-46.434 8.36 41.884 41.884 0 0 1-64.3-8.939 25.655 25.655 0 0 1-37.6-12.382 25.717 25.717 0 1 1-12.022-48.449z" transform="translate(-492.602 -73.854)" style="fill:#c5c2c6"/>
            <path data-name="路径 8292" d="M518.871 141.93a25.674 25.674 0 0 1 7.755 1.2 33.255 33.255 0 0 1 46.142-27.054c-.045-.761-.115-1.516-.115-2.29a38.1 38.1 0 0 1 74.376-11.631 25.624 25.624 0 0 1 33.171 14.862 25.693 25.693 0 0 1 36.934 31.77 34.334 34.334 0 1 1-37.909 54.552 46.908 46.908 0 0 1-46.434 8.36 41.884 41.884 0 0 1-64.3-8.939 25.653 25.653 0 0 1-37.6-12.382 25.717 25.717 0 1 1-12.022-48.449z" transform="translate(-492.61 -73.847)" style="fill:#c2bfc3"/>
            <path data-name="路径 8293" d="M518.907 141.9a25.7 25.7 0 0 1 7.755 1.2 33.255 33.255 0 0 1 46.138-27.058c-.045-.762-.115-1.516-.115-2.29a38.1 38.1 0 0 1 74.376-11.631 25.625 25.625 0 0 1 33.172 14.864 25.693 25.693 0 0 1 36.934 31.77 34.334 34.334 0 1 1-37.909 54.552 46.906 46.906 0 0 1-46.434 8.361 41.884 41.884 0 0 1-64.3-8.939 25.655 25.655 0 0 1-37.6-12.382 25.717 25.717 0 1 1-12.017-48.447z" transform="translate(-492.619 -73.84)" style="fill:#bfbcc0"/>
            <path data-name="路径 8294" d="M518.943 141.87a25.7 25.7 0 0 1 7.755 1.2 33.255 33.255 0 0 1 46.142-27.053c-.045-.762-.115-1.516-.115-2.29a38.1 38.1 0 0 1 74.375-11.635 25.622 25.622 0 0 1 33.172 14.864 25.693 25.693 0 0 1 36.934 31.77 34.334 34.334 0 1 1-37.906 54.553 46.906 46.906 0 0 1-46.434 8.361 41.884 41.884 0 0 1-64.295-8.939 25.655 25.655 0 0 1-37.6-12.382 25.717 25.717 0 1 1-12.022-48.449z" transform="translate(-492.628 -73.832)" style="fill:#bdb9be"/>
            <path data-name="路径 8295" d="M518.979 141.84a25.7 25.7 0 0 1 7.755 1.2 33.254 33.254 0 0 1 46.142-27.053c-.045-.762-.115-1.517-.115-2.29a38.1 38.1 0 0 1 74.376-11.631 25.624 25.624 0 0 1 33.172 14.865 25.694 25.694 0 0 1 36.934 31.77 34.334 34.334 0 1 1-37.909 54.552 46.906 46.906 0 0 1-46.434 8.357 41.884 41.884 0 0 1-64.3-8.94 25.655 25.655 0 0 1-37.6-12.382 25.717 25.717 0 1 1-12.022-48.449z" transform="translate(-492.637 -73.825)" style="fill:#bab6bb"/>
            <path data-name="路径 8296" d="M519.015 141.81a25.7 25.7 0 0 1 7.755 1.2 33.254 33.254 0 0 1 46.142-27.053c-.045-.762-.115-1.517-.115-2.29a38.1 38.1 0 0 1 74.376-11.631 25.624 25.624 0 0 1 33.171 14.864 25.694 25.694 0 0 1 36.934 31.77 34.334 34.334 0 1 1-37.909 54.552 46.906 46.906 0 0 1-46.434 8.361 41.884 41.884 0 0 1-64.3-8.939 25.655 25.655 0 0 1-37.6-12.382 25.717 25.717 0 1 1-12.022-48.449z" transform="translate(-492.646 -73.817)" style="fill:#b7b3b8"/>
            <path data-name="路径 8297" d="M519.051 141.78a25.7 25.7 0 0 1 7.755 1.2 33.255 33.255 0 0 1 46.142-27.054c-.045-.761-.115-1.516-.115-2.29A38.1 38.1 0 0 1 647.209 102a25.624 25.624 0 0 1 33.172 14.865 25.694 25.694 0 0 1 36.934 31.77 34.334 34.334 0 1 1-37.909 54.552 46.906 46.906 0 0 1-46.434 8.361 41.884 41.884 0 0 1-64.3-8.939 25.655 25.655 0 0 1-37.6-12.382 25.717 25.717 0 1 1-12.022-48.449z" transform="translate(-492.655 -73.81)" style="fill:#b4b1b5"/>
            <path data-name="路径 8298" d="M519.087 141.749a25.7 25.7 0 0 1 7.755 1.2 33.255 33.255 0 0 1 46.142-27.054c-.045-.761-.115-1.516-.115-2.29a38.1 38.1 0 0 1 74.376-11.631 25.624 25.624 0 0 1 33.172 14.865 25.694 25.694 0 0 1 36.934 31.77 34.334 34.334 0 1 1-37.909 54.552 46.9 46.9 0 0 1-46.434 8.36 41.884 41.884 0 0 1-64.3-8.939 25.655 25.655 0 0 1-37.6-12.382 25.717 25.717 0 1 1-12.022-48.449z" transform="translate(-492.664 -73.802)" style="fill:#b1aeb3"/>
            <path data-name="路径 8299" d="M519.123 141.719a25.675 25.675 0 0 1 7.755 1.2 33.255 33.255 0 0 1 46.142-27.054c-.045-.761-.115-1.516-.115-2.29a38.1 38.1 0 0 1 74.376-11.631 25.624 25.624 0 0 1 33.172 14.865 25.693 25.693 0 0 1 36.934 31.77 34.334 34.334 0 1 1-37.909 54.553 46.908 46.908 0 0 1-46.434 8.36 41.884 41.884 0 0 1-64.3-8.939 25.655 25.655 0 0 1-37.6-12.381 25.717 25.717 0 1 1-12.022-48.449z" transform="translate(-492.673 -73.795)" style="fill:#afabb0"/>
            <path data-name="路径 8300" d="M519.159 141.689a25.674 25.674 0 0 1 7.755 1.2 33.255 33.255 0 0 1 46.142-27.054c-.045-.762-.116-1.516-.116-2.29a38.1 38.1 0 0 1 74.377-11.631 25.625 25.625 0 0 1 33.172 14.864 25.694 25.694 0 0 1 36.934 31.77 34.334 34.334 0 1 1-37.91 54.552 46.906 46.906 0 0 1-46.434 8.361 41.884 41.884 0 0 1-64.295-8.939 25.655 25.655 0 0 1-37.6-12.382 25.717 25.717 0 1 1-12.022-48.449z" transform="translate(-492.682 -73.787)" style="fill:#aca8ad"/>
            <path data-name="路径 8301" d="M519.195 141.659a25.7 25.7 0 0 1 7.755 1.2 33.255 33.255 0 0 1 46.141-27.059c-.045-.762-.116-1.517-.116-2.29a38.1 38.1 0 0 1 74.377-11.631 25.625 25.625 0 0 1 33.172 14.864 25.694 25.694 0 0 1 36.934 31.77 34.334 34.334 0 1 1-37.909 54.552 46.9 46.9 0 0 1-46.434 8.361 41.884 41.884 0 0 1-64.3-8.939 25.655 25.655 0 0 1-37.6-12.382 25.717 25.717 0 1 1-12.022-48.449z" transform="translate(-492.691 -73.78)" style="fill:#a9a5ab"/>
            <path data-name="路径 8302" d="M519.23 141.629a25.7 25.7 0 0 1 7.755 1.2 33.254 33.254 0 0 1 46.142-27.053c-.045-.762-.116-1.517-.116-2.29a38.1 38.1 0 0 1 74.377-11.631 25.622 25.622 0 0 1 33.172 14.864 25.694 25.694 0 0 1 36.934 31.77 34.334 34.334 0 1 1-37.909 54.552 46.9 46.9 0 0 1-46.434 8.361 41.884 41.884 0 0 1-64.3-8.939 25.655 25.655 0 0 1-37.6-12.382 25.717 25.717 0 1 1-12.022-48.449z" transform="translate(-492.699 -73.772)" style="fill:#a7a2a8"/>
            <path data-name="路径 8303" d="M519.266 141.6a25.7 25.7 0 0 1 7.755 1.2 33.254 33.254 0 0 1 46.142-27.053c-.045-.762-.116-1.517-.116-2.29a38.1 38.1 0 0 1 74.377-11.631 25.624 25.624 0 0 1 33.176 14.859 25.694 25.694 0 0 1 36.934 31.77 34.334 34.334 0 1 1-37.909 54.552 46.9 46.9 0 0 1-46.434 8.361 41.884 41.884 0 0 1-64.3-8.939 25.655 25.655 0 0 1-37.6-12.382 25.717 25.717 0 1 1-12.025-48.447z" transform="translate(-492.708 -73.765)" style="fill:#a4a0a6"/>
            <path data-name="路径 8304" d="M519.3 141.569a25.7 25.7 0 0 1 7.755 1.2A33.255 33.255 0 0 1 573.2 115.71c-.045-.761-.116-1.516-.116-2.29a38.1 38.1 0 0 1 74.377-11.631 25.623 25.623 0 0 1 33.171 14.865 25.694 25.694 0 0 1 36.935 31.77 34.334 34.334 0 1 1-37.909 54.552 46.9 46.9 0 0 1-46.434 8.361 41.885 41.885 0 0 1-64.3-8.939 25.655 25.655 0 0 1-37.6-12.382 25.717 25.717 0 1 1-12.024-48.447z" transform="translate(-492.717 -73.757)" style="fill:#a19da3"/>
            <path data-name="路径 8305" d="M519.338 141.539a25.7 25.7 0 0 1 7.756 1.2 33.255 33.255 0 0 1 46.142-27.054c-.045-.761-.116-1.516-.116-2.29a38.1 38.1 0 0 1 74.38-11.635 25.623 25.623 0 0 1 33.171 14.865A25.694 25.694 0 0 1 717.6 148.4a34.334 34.334 0 1 1-37.909 54.552 46.906 46.906 0 0 1-46.434 8.36 41.884 41.884 0 0 1-64.295-8.939 25.655 25.655 0 0 1-37.6-12.382 25.717 25.717 0 1 1-12.022-48.449z" transform="translate(-492.726 -73.75)" style="fill:#9f9aa0"/>
            <path data-name="路径 8306" d="M519.374 141.508a25.679 25.679 0 0 1 7.755 1.2 33.255 33.255 0 0 1 46.142-27.054c-.045-.761-.116-1.516-.116-2.29a38.1 38.1 0 0 1 74.377-11.631 25.623 25.623 0 0 1 33.168 14.862 25.693 25.693 0 0 1 36.935 31.77 34.335 34.335 0 1 1-37.909 54.553 46.906 46.906 0 0 1-46.434 8.36A41.884 41.884 0 0 1 569 202.339a25.656 25.656 0 0 1-37.6-12.381 25.717 25.717 0 1 1-12.022-48.449z" transform="translate(-492.735 -73.742)" style="fill:#9c989e"/>
            <path data-name="路径 8307" d="M519.41 141.478a25.7 25.7 0 0 1 7.755 1.2 33.255 33.255 0 0 1 46.142-27.053c-.045-.761-.116-1.516-.116-2.29a38.1 38.1 0 0 1 74.378-11.635 25.624 25.624 0 0 1 33.171 14.864 25.694 25.694 0 0 1 36.935 31.77 34.335 34.335 0 1 1-37.909 54.553 46.906 46.906 0 0 1-46.434 8.36 41.884 41.884 0 0 1-64.3-8.939 25.655 25.655 0 0 1-37.6-12.382 25.717 25.717 0 1 1-12.022-48.449z" transform="translate(-492.744 -73.735)" style="fill:#9a959c"/>
            <path data-name="路径 8308" d="M519.446 141.448a25.7 25.7 0 0 1 7.755 1.2 33.255 33.255 0 0 1 46.142-27.053c-.045-.762-.116-1.517-.116-2.29A38.1 38.1 0 0 1 647.6 101.67a25.624 25.624 0 0 1 33.171 14.864A25.694 25.694 0 0 1 717.71 148.3a34.334 34.334 0 1 1-37.91 54.557 46.9 46.9 0 0 1-46.434 8.361 41.884 41.884 0 0 1-64.3-8.939 25.655 25.655 0 0 1-37.6-12.382 25.717 25.717 0 1 1-12.022-48.449z" transform="translate(-492.753 -73.728)" style="fill:#979399"/>
            <path data-name="路径 8309" d="M519.482 141.418a25.7 25.7 0 0 1 7.755 1.2 33.255 33.255 0 0 1 46.142-27.053c-.045-.762-.116-1.517-.116-2.29a38.1 38.1 0 0 1 74.377-11.631 25.623 25.623 0 0 1 33.171 14.856 25.694 25.694 0 0 1 36.935 31.77 34.334 34.334 0 1 1-37.909 54.552 46.9 46.9 0 0 1-46.434 8.361 41.884 41.884 0 0 1-64.3-8.939 25.655 25.655 0 0 1-37.6-12.382 25.717 25.717 0 1 1-12.022-48.449z" transform="translate(-492.762 -73.72)" style="fill:#949097"/>
            <path data-name="路径 8310" d="M519.518 141.388a25.7 25.7 0 0 1 7.756 1.2 33.254 33.254 0 0 1 46.142-27.053c-.045-.762-.116-1.517-.116-2.29a38.1 38.1 0 0 1 74.377-11.631 25.623 25.623 0 0 1 33.171 14.865 25.694 25.694 0 0 1 36.935 31.77 34.334 34.334 0 1 1-37.91 54.551 46.9 46.9 0 0 1-46.434 8.361 41.884 41.884 0 0 1-64.3-8.939 25.655 25.655 0 0 1-37.6-12.382 25.717 25.717 0 1 1-12.022-48.449z" transform="translate(-492.771 -73.713)" style="fill:#928d94"/>
            <path data-name="路径 8311" d="M519.554 141.358a25.7 25.7 0 0 1 7.755 1.2 33.255 33.255 0 0 1 46.142-27.058c-.045-.761-.116-1.516-.116-2.289a38.1 38.1 0 0 1 74.377-11.631 25.623 25.623 0 0 1 33.171 14.865 25.693 25.693 0 0 1 36.934 31.77 34.334 34.334 0 1 1-37.909 54.552 46.9 46.9 0 0 1-46.434 8.361 41.885 41.885 0 0 1-64.295-8.939 25.655 25.655 0 0 1-37.6-12.382 25.717 25.717 0 1 1-12.022-48.449z" transform="translate(-492.78 -73.705)" style="fill:#8f8b92"/>
            <path data-name="路径 8312" d="M519.59 141.328a25.679 25.679 0 0 1 7.755 1.2 33.255 33.255 0 0 1 46.142-27.054c-.045-.761-.116-1.516-.116-2.29a38.1 38.1 0 0 1 74.377-11.631 25.623 25.623 0 0 1 33.171 14.865 25.693 25.693 0 0 1 36.934 31.77 34.334 34.334 0 1 1-37.909 54.552 46.906 46.906 0 0 1-46.434 8.36 41.884 41.884 0 0 1-64.3-8.939 25.655 25.655 0 0 1-37.6-12.382 25.717 25.717 0 1 1-12.022-48.449z" transform="translate(-492.789 -73.698)" style="fill:#8d8890"/>
            <path data-name="路径 8313" d="M519.626 141.3a25.68 25.68 0 0 1 7.755 1.2 33.255 33.255 0 0 1 46.142-27.054c-.045-.761-.116-1.516-.116-2.29a38.1 38.1 0 0 1 74.377-11.631 25.623 25.623 0 0 1 33.171 14.865 25.693 25.693 0 0 1 36.934 31.77 34.334 34.334 0 1 1-37.909 54.552 46.908 46.908 0 0 1-46.434 8.36 41.883 41.883 0 0 1-64.294-8.939 25.657 25.657 0 0 1-37.6-12.382 25.717 25.717 0 1 1-12.026-48.451z" transform="translate(-492.798 -73.69)" style="fill:#8a868d"/>
            <path data-name="路径 8314" d="M519.662 141.267a25.7 25.7 0 0 1 7.755 1.2 33.255 33.255 0 0 1 46.142-27.053c-.045-.761-.116-1.516-.116-2.29a38.1 38.1 0 0 1 74.377-11.631 25.623 25.623 0 0 1 33.171 14.865 25.693 25.693 0 0 1 36.934 31.77 34.334 34.334 0 1 1-37.909 54.552 46.906 46.906 0 0 1-46.434 8.361 41.883 41.883 0 0 1-64.294-8.939 25.655 25.655 0 0 1-37.6-12.382 25.717 25.717 0 1 1-12.022-48.449z" transform="translate(-492.806 -73.683)" style="fill:#88848b"/>
            <path data-name="路径 8315" d="M519.7 141.237a25.7 25.7 0 0 1 7.755 1.2 33.255 33.255 0 0 1 46.145-27.058c-.045-.762-.116-1.517-.116-2.29a38.1 38.1 0 0 1 74.377-11.631 25.621 25.621 0 0 1 33.171 14.864 25.693 25.693 0 0 1 36.934 31.77 34.334 34.334 0 1 1-37.909 54.552 46.906 46.906 0 0 1-46.434 8.361 41.883 41.883 0 0 1-64.294-8.939 25.655 25.655 0 0 1-37.6-12.382 25.717 25.717 0 1 1-12.029-48.447z" transform="translate(-492.815 -73.675)" style="fill:#868189"/>
            <path data-name="路径 8316" d="M519.734 141.207a25.7 25.7 0 0 1 7.755 1.2 33.254 33.254 0 0 1 46.142-27.053c-.045-.762-.116-1.517-.116-2.29a38.1 38.1 0 0 1 74.377-11.631 25.623 25.623 0 0 1 33.171 14.865A25.693 25.693 0 0 1 718 148.064a34.334 34.334 0 1 1-37.909 54.552 46.906 46.906 0 0 1-46.434 8.361 41.883 41.883 0 0 1-64.294-8.939 25.655 25.655 0 0 1-37.6-12.382 25.717 25.717 0 1 1-12.022-48.449z" transform="translate(-492.824 -73.668)" style="fill:#837f87"/>
            <path data-name="路径 8317" d="M519.77 141.177a25.706 25.706 0 0 1 7.755 1.2 33.254 33.254 0 0 1 46.142-27.053c-.045-.762-.116-1.517-.116-2.29a38.1 38.1 0 0 1 74.378-11.634 25.623 25.623 0 0 1 33.171 14.863 25.693 25.693 0 0 1 36.934 31.77 34.334 34.334 0 1 1-37.909 54.552 46.906 46.906 0 0 1-46.434 8.361 41.883 41.883 0 0 1-64.294-8.939 25.655 25.655 0 0 1-37.6-12.382 25.717 25.717 0 1 1-12.022-48.449z" transform="translate(-492.833 -73.66)" style="fill:#817c84"/>
            <path data-name="路径 8318" d="M519.806 141.147a25.706 25.706 0 0 1 7.755 1.2 33.255 33.255 0 0 1 46.139-27.059c-.046-.761-.116-1.516-.116-2.29a38.1 38.1 0 0 1 74.377-11.631 25.623 25.623 0 0 1 33.171 14.865A25.693 25.693 0 0 1 718.069 148a34.334 34.334 0 1 1-37.909 54.552 46.906 46.906 0 0 1-46.434 8.361 41.883 41.883 0 0 1-64.294-8.939 25.655 25.655 0 0 1-37.6-12.382 25.717 25.717 0 1 1-12.022-48.449z" transform="translate(-492.842 -73.653)" style="fill:#7e7a82"/>
            <path data-name="路径 8319" d="M519.842 141.116a25.683 25.683 0 0 1 7.755 1.2 33.255 33.255 0 0 1 46.142-27.054c-.046-.761-.116-1.516-.116-2.29A38.1 38.1 0 0 1 648 101.338a25.623 25.623 0 0 1 33.171 14.862 25.693 25.693 0 0 1 36.934 31.77 34.334 34.334 0 1 1-37.905 54.556 46.908 46.908 0 0 1-46.434 8.36 41.883 41.883 0 0 1-64.294-8.939 25.655 25.655 0 0 1-37.6-12.382 25.717 25.717 0 1 1-12.022-48.449z" transform="translate(-492.851 -73.645)" style="fill:#7c7880"/>
            <path data-name="路径 8320" d="M519.878 141.086a25.674 25.674 0 0 1 7.755 1.2 33.256 33.256 0 0 1 46.143-27.054c-.046-.761-.116-1.516-.116-2.29a38.1 38.1 0 0 1 74.377-11.631 25.623 25.623 0 0 1 33.171 14.865 25.693 25.693 0 0 1 36.934 31.77 34.334 34.334 0 1 1-37.909 54.554 46.908 46.908 0 0 1-46.434 8.36 41.883 41.883 0 0 1-64.294-8.939 25.655 25.655 0 0 1-37.6-12.382 25.717 25.717 0 1 1-12.022-48.449z" transform="translate(-492.86 -73.638)" style="fill:#79757e"/>
            <path data-name="路径 8321" d="M519.914 141.056a25.675 25.675 0 0 1 7.755 1.2 33.256 33.256 0 0 1 46.142-27.056c-.046-.762-.116-1.516-.116-2.29a38.1 38.1 0 0 1 74.376-11.631 25.625 25.625 0 0 1 33.172 14.864 25.693 25.693 0 0 1 36.934 31.77 34.334 34.334 0 1 1-37.909 54.552 46.906 46.906 0 0 1-46.434 8.361 41.883 41.883 0 0 1-64.294-8.939 25.655 25.655 0 0 1-37.6-12.382 25.717 25.717 0 1 1-12.022-48.449z" transform="translate(-492.869 -73.63)" style="fill:#77737c"/>
            <path data-name="路径 8322" d="M519.95 141.026a25.7 25.7 0 0 1 7.755 1.2 33.256 33.256 0 0 1 46.142-27.053c-.046-.762-.116-1.516-.116-2.29a38.1 38.1 0 0 1 74.376-11.631 25.622 25.622 0 0 1 33.172 14.864 25.693 25.693 0 0 1 36.934 31.77 34.334 34.334 0 1 1-37.913 54.549 46.906 46.906 0 0 1-46.43 8.365 41.883 41.883 0 0 1-64.294-8.939 25.655 25.655 0 0 1-37.6-12.382 25.717 25.717 0 1 1-12.022-48.449z" transform="translate(-492.878 -73.623)" style="fill:#75717a"/>
            <path data-name="路径 8323" d="M519.986 141a25.7 25.7 0 0 1 7.755 1.2 33.256 33.256 0 0 1 46.143-27.053c-.046-.762-.116-1.517-.116-2.29a38.1 38.1 0 0 1 74.376-11.631 25.622 25.622 0 0 1 33.172 14.864 25.693 25.693 0 0 1 36.934 31.77 34.334 34.334 0 1 1-37.909 54.54 46.906 46.906 0 0 1-46.434 8.361 41.883 41.883 0 0 1-64.294-8.939 25.655 25.655 0 0 1-37.6-12.382A25.717 25.717 0 1 1 519.986 141z" transform="translate(-492.887 -73.616)" style="fill:#726f78"/>
            <path data-name="路径 8324" d="M520.022 140.966a25.7 25.7 0 0 1 7.755 1.2 33.254 33.254 0 0 1 46.142-27.053c-.046-.762-.116-1.517-.116-2.29a38.1 38.1 0 0 1 74.376-11.631 25.624 25.624 0 0 1 33.172 14.865 25.693 25.693 0 0 1 36.934 31.77 34.334 34.334 0 1 1-37.909 54.552 46.906 46.906 0 0 1-46.434 8.361 41.884 41.884 0 0 1-64.3-8.939 25.655 25.655 0 0 1-37.6-12.382 25.717 25.717 0 1 1-12.022-48.449z" transform="translate(-492.896 -73.608)" style="fill:#706d76"/>
            <path data-name="路径 8325" d="M520.058 140.936a25.7 25.7 0 0 1 7.755 1.2 33.256 33.256 0 0 1 46.143-27.054c-.046-.761-.116-1.516-.116-2.29a38.1 38.1 0 0 1 74.376-11.631 25.624 25.624 0 0 1 33.172 14.865 25.693 25.693 0 0 1 36.934 31.77 34.334 34.334 0 1 1-37.909 54.552 46.906 46.906 0 0 1-46.434 8.361 41.884 41.884 0 0 1-64.3-8.939 25.655 25.655 0 0 1-37.6-12.382 25.717 25.717 0 1 1-12.022-48.449z" transform="translate(-492.905 -73.601)" style="fill:#6e6a74"/>
            <path data-name="路径 8326" d="M520.094 140.9a25.7 25.7 0 0 1 7.755 1.2 33.256 33.256 0 0 1 46.142-27.054c-.046-.761-.116-1.516-.116-2.29a38.1 38.1 0 0 1 74.376-11.631 25.624 25.624 0 0 1 33.172 14.865 25.693 25.693 0 0 1 36.934 31.77 34.334 34.334 0 1 1-37.909 54.552 46.9 46.9 0 0 1-46.434 8.36 41.884 41.884 0 0 1-64.295-8.939 25.655 25.655 0 0 1-37.6-12.382 25.717 25.717 0 1 1-12.025-48.451z" transform="translate(-492.914 -73.593)" style="fill:#6c6872"/>
            <path data-name="路径 8327" d="M520.13 140.875a25.675 25.675 0 0 1 7.755 1.2 33.256 33.256 0 0 1 46.143-27.054c-.046-.761-.116-1.516-.116-2.29a38.1 38.1 0 0 1 74.376-11.631 25.624 25.624 0 0 1 33.172 14.865 25.692 25.692 0 0 1 36.934 31.77 34.334 34.334 0 1 1-37.909 54.553 46.908 46.908 0 0 1-46.434 8.36 41.884 41.884 0 0 1-64.3-8.939 25.655 25.655 0 0 1-37.6-12.381 25.717 25.717 0 1 1-12.022-48.449z" transform="translate(-492.922 -73.586)" style="fill:#696670"/>
            <path data-name="路径 8328" d="M520.166 140.845a25.674 25.674 0 0 1 7.755 1.2 33.256 33.256 0 0 1 46.143-27.054c-.046-.762-.116-1.516-.116-2.29a38.1 38.1 0 0 1 74.376-11.631 25.625 25.625 0 0 1 33.176 14.861 25.693 25.693 0 0 1 36.934 31.77 34.334 34.334 0 1 1-37.909 54.552 46.906 46.906 0 0 1-46.434 8.361 41.884 41.884 0 0 1-64.3-8.939 25.655 25.655 0 0 1-37.6-12.382 25.717 25.717 0 1 1-12.022-48.449z" transform="translate(-492.931 -73.578)" style="fill:#67646e"/>
            <path data-name="路径 8329" d="M520.2 140.815a25.7 25.7 0 0 1 7.755 1.2 33.256 33.256 0 0 1 46.145-27.058c-.046-.762-.116-1.517-.116-2.29a38.1 38.1 0 0 1 74.376-11.631 25.625 25.625 0 0 1 33.171 14.864 25.693 25.693 0 0 1 36.934 31.77 34.334 34.334 0 1 1-37.909 54.552 46.906 46.906 0 0 1-46.434 8.361 41.884 41.884 0 0 1-64.3-8.939 25.655 25.655 0 0 1-37.6-12.382 25.717 25.717 0 1 1-12.022-48.447z" transform="translate(-492.94 -73.571)" style="fill:#65626c"/>
            <path data-name="路径 8330" d="M520.238 140.785a25.7 25.7 0 0 1 7.755 1.2 33.256 33.256 0 0 1 46.142-27.053c-.046-.762-.116-1.517-.116-2.29a38.1 38.1 0 0 1 74.381-11.635 25.622 25.622 0 0 1 33.172 14.864 25.693 25.693 0 0 1 36.934 31.77 34.334 34.334 0 1 1-37.909 54.552 46.906 46.906 0 0 1-46.434 8.361 41.884 41.884 0 0 1-64.3-8.939 25.655 25.655 0 0 1-37.6-12.382 25.717 25.717 0 1 1-12.022-48.449z" transform="translate(-492.949 -73.563)" style="fill:#63606a"/>
            <path data-name="路径 8331" d="M520.274 140.755a25.7 25.7 0 0 1 7.755 1.2 33.254 33.254 0 0 1 46.142-27.055c-.046-.762-.116-1.517-.116-2.29a38.1 38.1 0 0 1 74.376-11.631 25.624 25.624 0 0 1 33.169 14.862 25.693 25.693 0 0 1 36.934 31.77 34.334 34.334 0 1 1-37.909 54.552 46.906 46.906 0 0 1-46.434 8.361 41.884 41.884 0 0 1-64.295-8.939A25.655 25.655 0 0 1 532.3 189.2a25.717 25.717 0 1 1-12.022-48.449z" transform="translate(-492.958 -73.556)" style="fill:#615e68"/>
            <path data-name="路径 8332" d="M520.31 140.725a25.7 25.7 0 0 1 7.755 1.2 33.256 33.256 0 0 1 46.143-27.054c-.046-.761-.116-1.516-.116-2.29a38.1 38.1 0 0 1 74.376-11.631 25.624 25.624 0 0 1 33.172 14.865 25.693 25.693 0 0 1 36.934 31.77 34.334 34.334 0 1 1-37.909 54.552 46.906 46.906 0 0 1-46.434 8.361 41.884 41.884 0 0 1-64.295-8.939 25.655 25.655 0 0 1-37.6-12.382 25.717 25.717 0 1 1-12.022-48.449z" transform="translate(-492.967 -73.548)" style="fill:#5f5c67"/>
            <path data-name="路径 8333" d="M520.346 140.695a25.7 25.7 0 0 1 7.755 1.2 33.255 33.255 0 0 1 46.142-27.054c-.045-.761-.115-1.516-.115-2.29a38.1 38.1 0 0 1 74.372-11.635 25.624 25.624 0 0 1 33.172 14.865 25.693 25.693 0 0 1 36.934 31.77A34.334 34.334 0 1 1 680.7 202.1a46.908 46.908 0 0 1-46.434 8.36 41.884 41.884 0 0 1-64.3-8.939 25.655 25.655 0 0 1-37.6-12.382 25.717 25.717 0 1 1-12.022-48.449z" transform="translate(-492.976 -73.541)" style="fill:#5c5a65"/>
            <path data-name="路径 8334" d="M520.382 140.664a25.675 25.675 0 0 1 7.755 1.2 33.255 33.255 0 0 1 46.142-27.054c-.045-.761-.115-1.516-.115-2.29a38.1 38.1 0 0 1 74.376-11.631 25.624 25.624 0 0 1 33.172 14.865 25.693 25.693 0 0 1 36.934 31.77 34.334 34.334 0 1 1-37.909 54.553 46.908 46.908 0 0 1-46.434 8.36 41.884 41.884 0 0 1-64.3-8.939 25.655 25.655 0 0 1-37.6-12.381 25.717 25.717 0 1 1-12.022-48.449z" transform="translate(-492.985 -73.533)" style="fill:#5a5863"/>
            <path data-name="路径 8335" d="M520.418 140.634a25.675 25.675 0 0 1 7.755 1.2 33.255 33.255 0 0 1 46.142-27.054c-.045-.761-.115-1.516-.115-2.29a38.1 38.1 0 0 1 74.376-11.631 25.624 25.624 0 0 1 33.172 14.865 25.693 25.693 0 0 1 36.934 31.77 34.334 34.334 0 1 1-37.909 54.553 46.908 46.908 0 0 1-46.434 8.36 41.884 41.884 0 0 1-64.3-8.939 25.655 25.655 0 0 1-37.6-12.381 25.717 25.717 0 1 1-12.022-48.449z" transform="translate(-492.994 -73.526)" style="fill:#585761"/>
            <path data-name="路径 8336" d="M520.454 140.6a25.7 25.7 0 0 1 7.755 1.2 33.255 33.255 0 0 1 46.142-27.053c-.045-.762-.115-1.517-.115-2.29a38.1 38.1 0 0 1 74.376-11.631 25.622 25.622 0 0 1 33.172 14.864 25.693 25.693 0 0 1 36.934 31.77 34.334 34.334 0 1 1-37.909 54.552 46.906 46.906 0 0 1-46.434 8.361 41.884 41.884 0 0 1-64.3-8.939 25.655 25.655 0 0 1-37.6-12.382 25.717 25.717 0 1 1-12.021-48.452z" transform="translate(-493.003 -73.518)" style="fill:#565560"/>
            <path data-name="路径 8337" d="M520.49 140.574a25.7 25.7 0 0 1 7.755 1.2 33.255 33.255 0 0 1 46.142-27.053c-.045-.762-.115-1.517-.115-2.29a38.1 38.1 0 0 1 74.376-11.631 25.622 25.622 0 0 1 33.172 14.864 25.693 25.693 0 0 1 36.934 31.77 34.334 34.334 0 1 1-37.909 54.552 46.906 46.906 0 0 1-46.434 8.361 41.884 41.884 0 0 1-64.3-8.939 25.655 25.655 0 0 1-37.6-12.382 25.717 25.717 0 1 1-12.022-48.449z" transform="translate(-493.011 -73.511)" style="fill:#54535e"/>
            <path data-name="路径 8338" d="M520.526 140.544a25.7 25.7 0 0 1 7.755 1.2 33.254 33.254 0 0 1 46.142-27.053c-.045-.762-.115-1.517-.115-2.29a38.1 38.1 0 0 1 74.376-11.631 25.624 25.624 0 0 1 33.172 14.865 25.694 25.694 0 0 1 36.934 31.77 34.334 34.334 0 1 1-37.909 54.552 46.906 46.906 0 0 1-46.434 8.361 41.884 41.884 0 0 1-64.295-8.939 25.655 25.655 0 0 1-37.6-12.382 25.717 25.717 0 1 1-12.022-48.449z" transform="translate(-493.02 -73.503)" style="fill:#52515c"/>
            <path data-name="路径 8339" d="M520.562 140.514a25.7 25.7 0 0 1 7.755 1.2 33.254 33.254 0 0 1 46.142-27.053c-.045-.762-.115-1.517-.115-2.29a38.1 38.1 0 0 1 74.376-11.631 25.624 25.624 0 0 1 33.171 14.86 25.694 25.694 0 0 1 36.934 31.77 34.334 34.334 0 1 1-37.909 54.552 46.906 46.906 0 0 1-46.434 8.361 41.884 41.884 0 0 1-64.3-8.939 25.655 25.655 0 0 1-37.6-12.382 25.717 25.717 0 1 1-12.022-48.449z" transform="translate(-493.029 -73.496)" style="fill:#50505b"/>
            <path data-name="路径 8340" d="M520.6 140.484a25.7 25.7 0 0 1 7.755 1.2 33.255 33.255 0 0 1 46.142-27.054c-.045-.761-.115-1.516-.115-2.29a38.1 38.1 0 0 1 74.376-11.631 25.624 25.624 0 0 1 33.172 14.865 25.694 25.694 0 0 1 36.934 31.77 34.334 34.334 0 1 1-37.909 54.552 46.911 46.911 0 0 1-46.434 8.361 41.885 41.885 0 0 1-64.3-8.939 25.655 25.655 0 0 1-37.6-12.382 25.717 25.717 0 1 1-12.021-48.452z" transform="translate(-493.038 -73.488)" style="fill:#4e4e59"/>
            <path data-name="路径 8341" d="M520.634 140.453a25.675 25.675 0 0 1 7.755 1.2A33.255 33.255 0 0 1 574.53 114.6c-.045-.761-.115-1.516-.115-2.29a38.1 38.1 0 0 1 74.376-11.631 25.624 25.624 0 0 1 33.172 14.865A25.694 25.694 0 0 1 718.9 147.31a34.334 34.334 0 1 1-37.909 54.552 46.908 46.908 0 0 1-46.434 8.36 41.884 41.884 0 0 1-64.3-8.939 25.655 25.655 0 0 1-37.6-12.382 25.717 25.717 0 1 1-12.022-48.449z" transform="translate(-493.047 -73.481)" style="fill:#4c4c58"/>
            <path data-name="路径 8342" d="M520.67 140.423a25.675 25.675 0 0 1 7.755 1.2 33.255 33.255 0 0 1 46.142-27.054c-.045-.762-.115-1.516-.115-2.29a38.1 38.1 0 0 1 74.376-11.631A25.624 25.624 0 0 1 682 115.51a25.693 25.693 0 0 1 36.934 31.77 34.334 34.334 0 1 1-37.909 54.552 46.906 46.906 0 0 1-46.434 8.361 41.884 41.884 0 0 1-64.3-8.939 25.655 25.655 0 0 1-37.6-12.381 25.717 25.717 0 1 1-12.022-48.449z" transform="translate(-493.056 -73.473)" style="fill:#4a4b56"/>
            <path data-name="路径 8343" d="M520.706 140.393a25.7 25.7 0 0 1 7.755 1.2 33.255 33.255 0 0 1 46.139-27.058c-.045-.762-.116-1.517-.116-2.29a38.1 38.1 0 0 1 74.377-11.631 25.622 25.622 0 0 1 33.172 14.864 25.694 25.694 0 0 1 36.934 31.77A34.334 34.334 0 1 1 681.06 201.8a46.906 46.906 0 0 1-46.434 8.361 41.884 41.884 0 0 1-64.3-8.939 25.655 25.655 0 0 1-37.6-12.382 25.717 25.717 0 1 1-12.022-48.449z" transform="translate(-493.065 -73.466)" style="fill:#494955"/>
            <path data-name="路径 8344" d="M520.742 140.363a25.7 25.7 0 0 1 7.755 1.2 33.255 33.255 0 0 1 46.142-27.053c-.045-.762-.116-1.517-.116-2.29a38.1 38.1 0 0 1 74.377-11.635 25.622 25.622 0 0 1 33.172 14.864 25.694 25.694 0 0 1 36.934 31.77 34.334 34.334 0 1 1-37.906 54.553 46.9 46.9 0 0 1-46.434 8.361 41.884 41.884 0 0 1-64.3-8.939 25.655 25.655 0 0 1-37.6-12.382 25.717 25.717 0 1 1-12.022-48.449z" transform="translate(-493.074 -73.459)" style="fill:#474753"/>
            <path data-name="路径 8345" d="M520.777 140.333a25.7 25.7 0 0 1 7.755 1.2 33.255 33.255 0 0 1 46.142-27.053c-.045-.762-.116-1.517-.116-2.29a38.1 38.1 0 0 1 74.377-11.631 25.624 25.624 0 0 1 33.172 14.865 25.694 25.694 0 0 1 36.934 31.77 34.334 34.334 0 1 1-37.909 54.552A46.9 46.9 0 0 1 634.7 210.1a41.884 41.884 0 0 1-64.3-8.939 25.655 25.655 0 0 1-37.6-12.382 25.717 25.717 0 1 1-12.023-48.449z" transform="translate(-493.083 -73.451)" style="fill:#454652"/>
            <path data-name="路径 8346" d="M520.813 140.3a25.7 25.7 0 0 1 7.755 1.2 33.255 33.255 0 0 1 46.142-27.054c-.045-.761-.116-1.516-.116-2.29a38.1 38.1 0 0 1 74.377-11.631 25.624 25.624 0 0 1 33.172 14.865 25.694 25.694 0 0 1 36.934 31.77 34.334 34.334 0 1 1-37.909 54.552 46.9 46.9 0 0 1-46.434 8.361 41.884 41.884 0 0 1-64.3-8.939 25.655 25.655 0 0 1-37.6-12.382 25.717 25.717 0 1 1-12.021-48.452z" transform="translate(-493.092 -73.443)" style="fill:#434450"/>
            <path data-name="路径 8347" d="M520.849 140.272a25.7 25.7 0 0 1 7.755 1.2 33.255 33.255 0 0 1 46.142-27.054c-.045-.761-.116-1.516-.116-2.29a38.1 38.1 0 0 1 74.377-11.631 25.624 25.624 0 0 1 33.172 14.865 25.694 25.694 0 0 1 36.934 31.77 34.334 34.334 0 1 1-37.913 54.55 46.9 46.9 0 0 1-46.434 8.36 41.884 41.884 0 0 1-64.3-8.939 25.655 25.655 0 0 1-37.6-12.382 25.717 25.717 0 1 1-12.022-48.449z" transform="translate(-493.101 -73.436)" style="fill:#41434f"/>
            <path data-name="路径 8348" d="M520.885 140.242a25.68 25.68 0 0 1 7.755 1.2 33.255 33.255 0 0 1 46.142-27.054c-.045-.761-.116-1.516-.116-2.29a38.1 38.1 0 0 1 74.377-11.631 25.623 25.623 0 0 1 33.171 14.865 25.694 25.694 0 0 1 36.935 31.77 34.334 34.334 0 1 1-37.909 54.552 46.906 46.906 0 0 1-46.434 8.36 41.884 41.884 0 0 1-64.3-8.939 25.655 25.655 0 0 1-37.6-12.382 25.717 25.717 0 1 1-12.022-48.449z" transform="translate(-493.11 -73.429)" style="fill:#3f414e"/>
            <path data-name="路径 8349" d="M520.921 140.212a25.68 25.68 0 0 1 7.755 1.2 33.255 33.255 0 0 1 46.142-27.054c-.045-.762-.116-1.516-.116-2.29a38.1 38.1 0 0 1 74.377-11.631A25.624 25.624 0 0 1 682.25 115.3a25.694 25.694 0 0 1 36.935 31.77 34.334 34.334 0 1 1-37.909 54.552 46.9 46.9 0 0 1-46.434 8.361 41.884 41.884 0 0 1-64.295-8.939 25.655 25.655 0 0 1-37.6-12.382 25.717 25.717 0 1 1-12.022-48.449z" transform="translate(-493.119 -73.421)" style="fill:#3e404c"/>
            <path data-name="路径 8350" d="M520.957 140.182a25.7 25.7 0 0 1 7.755 1.2 33.255 33.255 0 0 1 46.142-27.053c-.045-.762-.116-1.516-.116-2.29a38.1 38.1 0 0 1 74.378-11.639 25.621 25.621 0 0 1 33.171 14.864 25.694 25.694 0 0 1 36.935 31.77 34.334 34.334 0 1 1-37.909 54.552 46.9 46.9 0 0 1-46.434 8.361 41.884 41.884 0 0 1-64.3-8.939 25.655 25.655 0 0 1-37.6-12.382 25.717 25.717 0 1 1-12.022-48.449z" transform="translate(-493.127 -73.414)" style="fill:#3c3f4b"/>
            <path data-name="路径 8351" d="M520.993 140.152a25.7 25.7 0 0 1 7.755 1.2 33.255 33.255 0 0 1 46.142-27.053c-.045-.762-.116-1.517-.116-2.29a38.1 38.1 0 0 1 74.377-11.631 25.621 25.621 0 0 1 33.171 14.864 25.694 25.694 0 0 1 36.935 31.77 34.334 34.334 0 1 1-37.909 54.552 46.9 46.9 0 0 1-46.434 8.361 41.884 41.884 0 0 1-64.3-8.939 25.655 25.655 0 0 1-37.6-12.382 25.717 25.717 0 1 1-12.022-48.449z" transform="translate(-493.136 -73.406)" style="fill:#3a3d4a"/>
            <path data-name="路径 8352" d="M521.029 140.122a25.7 25.7 0 0 1 7.755 1.2 33.254 33.254 0 0 1 46.142-27.053c-.045-.762-.116-1.517-.116-2.29a38.1 38.1 0 0 1 74.377-11.631 25.623 25.623 0 0 1 33.171 14.865 25.694 25.694 0 0 1 36.935 31.77 34.334 34.334 0 1 1-37.909 54.552 46.9 46.9 0 0 1-46.434 8.361 41.884 41.884 0 0 1-64.3-8.939 25.655 25.655 0 0 1-37.6-12.382 25.717 25.717 0 1 1-12.022-48.449z" transform="translate(-493.145 -73.399)" style="fill:#383c48"/>
            <path data-name="路径 8353" d="M521.065 140.092a25.7 25.7 0 0 1 7.755 1.2 33.255 33.255 0 0 1 46.142-27.054c-.045-.761-.116-1.516-.116-2.29a38.1 38.1 0 0 1 74.377-11.631 25.623 25.623 0 0 1 33.171 14.865 25.694 25.694 0 0 1 36.935 31.77A34.334 34.334 0 1 1 681.42 201.5a46.9 46.9 0 0 1-46.434 8.361 41.884 41.884 0 0 1-64.295-8.939 25.655 25.655 0 0 1-37.6-12.382 25.717 25.717 0 1 1-12.022-48.449z" transform="translate(-493.154 -73.391)" style="fill:#363a47"/>
            <path data-name="路径 8354" d="M521.1 140.061a25.7 25.7 0 0 1 7.755 1.2A33.255 33.255 0 0 1 575 114.2c-.045-.761-.116-1.516-.116-2.29a38.1 38.1 0 0 1 74.377-11.631 25.623 25.623 0 0 1 33.171 14.865 25.694 25.694 0 0 1 36.935 31.77 34.334 34.334 0 1 1-37.909 54.552 46.9 46.9 0 0 1-46.434 8.36 41.884 41.884 0 0 1-64.3-8.939 25.655 25.655 0 0 1-37.6-12.382 25.717 25.717 0 1 1-12.024-48.444z" transform="translate(-493.163 -73.384)" style="fill:#353946"/>
            <path data-name="路径 8355" d="M521.137 140.031a25.68 25.68 0 0 1 7.755 1.2 33.255 33.255 0 0 1 46.142-27.054c-.045-.761-.116-1.516-.116-2.29a38.1 38.1 0 0 1 74.382-11.634 25.623 25.623 0 0 1 33.171 14.865 25.692 25.692 0 0 1 36.934 31.77 34.334 34.334 0 1 1-37.909 54.553 46.906 46.906 0 0 1-46.434 8.36 41.884 41.884 0 0 1-64.295-8.939 25.655 25.655 0 0 1-37.6-12.382 25.717 25.717 0 1 1-12.022-48.449z" transform="translate(-493.172 -73.376)" style="fill:#333845"/>
            <path data-name="路径 8356" d="M521.173 140a25.68 25.68 0 0 1 7.755 1.2 33.255 33.255 0 0 1 46.142-27.054c-.045-.762-.116-1.516-.116-2.29a38.1 38.1 0 0 1 74.377-11.631 25.624 25.624 0 0 1 33.169 14.862 25.693 25.693 0 0 1 36.934 31.77 34.334 34.334 0 1 1-37.909 54.553 46.908 46.908 0 0 1-46.434 8.36 41.883 41.883 0 0 1-64.294-8.939 25.655 25.655 0 0 1-37.6-12.382A25.717 25.717 0 1 1 521.173 140z" transform="translate(-493.181 -73.369)" style="fill:#313744"/>
            <path data-name="路径 8357" d="M521.209 139.971a25.68 25.68 0 0 1 7.755 1.2 33.255 33.255 0 0 1 46.142-27.054c-.045-.762-.116-1.517-.116-2.29a38.1 38.1 0 0 1 74.377-11.631 25.624 25.624 0 0 1 33.171 14.864 25.693 25.693 0 0 1 36.934 31.77 34.334 34.334 0 1 1-37.909 54.552 46.906 46.906 0 0 1-46.434 8.361 41.883 41.883 0 0 1-64.294-8.939 25.655 25.655 0 0 1-37.6-12.382 25.717 25.717 0 1 1-12.022-48.449z" transform="translate(-493.19 -73.361)" style="fill:#2f3642"/>
            <path data-name="路径 8358" d="M521.245 139.941a25.7 25.7 0 0 1 7.755 1.2 33.255 33.255 0 0 1 46.142-27.053c-.045-.762-.116-1.517-.116-2.29a38.1 38.1 0 0 1 74.374-11.635 25.621 25.621 0 0 1 33.171 14.864 25.693 25.693 0 0 1 36.934 31.77A34.334 34.334 0 1 1 681.6 201.35a46.906 46.906 0 0 1-46.434 8.361 41.883 41.883 0 0 1-64.294-8.939 25.655 25.655 0 0 1-37.6-12.382 25.717 25.717 0 1 1-12.022-48.449z" transform="translate(-493.199 -73.354)" style="fill:#2d3441"/>
            <path data-name="路径 8359" d="M521.281 139.911a25.7 25.7 0 0 1 7.756 1.2 33.254 33.254 0 0 1 46.142-27.053c-.046-.762-.116-1.517-.116-2.29a38.1 38.1 0 0 1 74.377-11.631A25.623 25.623 0 0 1 682.61 115a25.693 25.693 0 0 1 36.934 31.77 34.334 34.334 0 1 1-37.909 54.552 46.906 46.906 0 0 1-46.434 8.361 41.883 41.883 0 0 1-64.294-8.939 25.655 25.655 0 0 1-37.6-12.382 25.717 25.717 0 1 1-12.023-48.449z" transform="translate(-493.208 -73.347)" style="fill:#2c3340"/>
            <path data-name="路径 8360" d="M521.317 139.881a25.7 25.7 0 0 1 7.755 1.2 33.254 33.254 0 0 1 46.142-27.053c-.046-.762-.116-1.517-.116-2.29a38.1 38.1 0 0 1 74.378-11.638 25.623 25.623 0 0 1 33.171 14.865 25.693 25.693 0 0 1 36.934 31.77 34.334 34.334 0 1 1-37.909 54.552 46.906 46.906 0 0 1-46.434 8.361 41.883 41.883 0 0 1-64.294-8.939 25.655 25.655 0 0 1-37.6-12.382 25.717 25.717 0 1 1-12.022-48.449z" transform="translate(-493.217 -73.339)" style="fill:#2a323f"/>
            <path data-name="路径 8361" d="M521.353 139.851a25.706 25.706 0 0 1 7.755 1.2 33.255 33.255 0 0 1 46.142-27.054c-.046-.761-.116-1.516-.116-2.29a38.1 38.1 0 0 1 74.377-11.631 25.623 25.623 0 0 1 33.171 14.865 25.693 25.693 0 0 1 36.934 31.77 34.334 34.334 0 1 1-37.909 54.552 46.908 46.908 0 0 1-46.434 8.36 41.883 41.883 0 0 1-64.294-8.939 25.655 25.655 0 0 1-37.6-12.382 25.717 25.717 0 1 1-12.022-48.449z" transform="translate(-493.226 -73.331)" style="fill:#28313e"/>
            <path data-name="路径 8362" d="M521.389 139.82a25.683 25.683 0 0 1 7.755 1.2 33.255 33.255 0 0 1 46.142-27.054c-.046-.761-.116-1.516-.116-2.29a38.1 38.1 0 0 1 74.377-11.631 25.623 25.623 0 0 1 33.171 14.865 25.692 25.692 0 0 1 36.934 31.77 34.335 34.335 0 1 1-37.909 54.553 46.908 46.908 0 0 1-46.434 8.36 41.883 41.883 0 0 1-64.294-8.939 25.655 25.655 0 0 1-37.6-12.382 25.717 25.717 0 1 1-12.022-48.449z" transform="translate(-493.235 -73.324)" style="fill:#27303d"/>
            <path data-name="路径 8363" d="M521.425 139.79a25.674 25.674 0 0 1 7.755 1.2 33.256 33.256 0 0 1 46.143-27.054c-.046-.761-.116-1.516-.116-2.29a38.1 38.1 0 0 1 74.377-11.631 25.623 25.623 0 0 1 33.171 14.865 25.693 25.693 0 0 1 36.934 31.77 34.334 34.334 0 1 1-37.909 54.55 46.908 46.908 0 0 1-46.434 8.36 41.883 41.883 0 0 1-64.294-8.939 25.656 25.656 0 0 1-37.6-12.381 25.717 25.717 0 1 1-12.022-48.449z" transform="translate(-493.243 -73.317)" style="fill:#252f3c"/>
            <path data-name="路径 8364" d="M521.461 139.76a25.674 25.674 0 0 1 7.755 1.2 33.256 33.256 0 0 1 46.142-27.06c-.046-.762-.116-1.517-.116-2.29a38.1 38.1 0 0 1 74.376-11.631 25.622 25.622 0 0 1 33.172 14.864 25.693 25.693 0 0 1 36.934 31.77 34.334 34.334 0 1 1-37.909 54.552 46.906 46.906 0 0 1-46.434 8.361 41.883 41.883 0 0 1-64.294-8.939 25.655 25.655 0 0 1-37.6-12.382 25.717 25.717 0 1 1-12.022-48.449z" transform="translate(-493.252 -73.309)" style="fill:#232e3b"/>
            <path data-name="路径 8365" d="M521.5 139.73a25.7 25.7 0 0 1 7.755 1.2 33.256 33.256 0 0 1 46.143-27.053c-.046-.762-.116-1.517-.116-2.29a38.1 38.1 0 0 1 74.376-11.631 25.622 25.622 0 0 1 33.172 14.864 25.693 25.693 0 0 1 36.934 31.77 34.334 34.334 0 1 1-37.909 54.552 46.906 46.906 0 0 1-46.434 8.361 41.883 41.883 0 0 1-64.294-8.939 25.655 25.655 0 0 1-37.6-12.382A25.717 25.717 0 1 1 521.5 139.73z" transform="translate(-493.261 -73.302)" style="fill:#222d3a"/>
            <path data-name="路径 8366" d="M521.533 139.7a25.7 25.7 0 0 1 7.755 1.2 33.256 33.256 0 0 1 46.142-27.053c-.046-.762-.116-1.517-.116-2.29a38.1 38.1 0 0 1 74.376-11.631 25.624 25.624 0 0 1 33.172 14.865 25.693 25.693 0 0 1 36.934 31.77 34.334 34.334 0 1 1-37.909 54.552 46.906 46.906 0 0 1-46.434 8.361 41.883 41.883 0 0 1-64.294-8.939 25.655 25.655 0 0 1-37.6-12.382 25.717 25.717 0 1 1-12.026-48.453z" transform="translate(-493.27 -73.294)" style="fill:#202c39"/>
            <path data-name="路径 8367" d="M521.569 139.67a25.7 25.7 0 0 1 7.755 1.2 33.254 33.254 0 0 1 46.142-27.053c-.046-.762-.116-1.517-.116-2.29a38.1 38.1 0 0 1 74.376-11.631 25.624 25.624 0 0 1 33.174 14.86 25.693 25.693 0 0 1 36.934 31.77 34.334 34.334 0 1 1-37.909 54.552 46.906 46.906 0 0 1-46.434 8.361 41.884 41.884 0 0 1-64.3-8.939 25.655 25.655 0 0 1-37.6-12.382 25.717 25.717 0 1 1-12.022-48.449z" transform="translate(-493.279 -73.287)" style="fill:#1f2b38"/>
            <path data-name="路径 8368" d="M521.605 139.639a25.7 25.7 0 0 1 7.755 1.2 33.256 33.256 0 0 1 46.14-27.058c-.046-.761-.116-1.516-.116-2.29A38.1 38.1 0 0 1 649.76 99.86a25.624 25.624 0 0 1 33.172 14.865 25.693 25.693 0 0 1 36.934 31.77 34.334 34.334 0 1 1-37.909 54.552 46.911 46.911 0 0 1-46.434 8.361 41.885 41.885 0 0 1-64.3-8.939 25.655 25.655 0 0 1-37.6-12.382 25.717 25.717 0 1 1-12.022-48.449z" transform="translate(-493.288 -73.279)" style="fill:#1d2a37"/>
            <path data-name="路径 8369" d="M521.641 139.609a25.674 25.674 0 0 1 7.755 1.2 33.256 33.256 0 0 1 46.143-27.054c-.046-.761-.116-1.516-.116-2.29A38.1 38.1 0 0 1 649.8 99.831a25.624 25.624 0 0 1 33.17 14.869 25.693 25.693 0 0 1 36.934 31.77A34.334 34.334 0 1 1 682 201.019a46.908 46.908 0 0 1-46.434 8.36 41.884 41.884 0 0 1-64.295-8.939 25.655 25.655 0 0 1-37.6-12.382 25.717 25.717 0 1 1-12.022-48.449z" transform="translate(-493.297 -73.272)" style="fill:#1b2936"/>
            <path data-name="路径 8370" d="M521.677 139.579a25.675 25.675 0 0 1 7.755 1.2 33.256 33.256 0 0 1 46.143-27.054c-.046-.761-.116-1.516-.116-2.29A38.1 38.1 0 0 1 649.835 99.8a25.625 25.625 0 0 1 33.172 14.864 25.693 25.693 0 0 1 36.934 31.77 34.334 34.334 0 1 1-37.909 54.553 46.908 46.908 0 0 1-46.434 8.36 41.884 41.884 0 0 1-64.3-8.939 25.655 25.655 0 0 1-37.6-12.381 25.717 25.717 0 1 1-12.023-48.449z" transform="translate(-493.306 -73.264)" style="fill:#192835"/>
            <path data-name="路径 8371" d="M521.713 139.549a25.7 25.7 0 0 1 7.755 1.2 33.256 33.256 0 0 1 46.142-27.053c-.046-.762-.116-1.516-.116-2.29a38.1 38.1 0 0 1 74.376-11.631 25.622 25.622 0 0 1 33.172 14.864 25.693 25.693 0 0 1 36.934 31.77 34.334 34.334 0 1 1-37.909 54.552 46.906 46.906 0 0 1-46.434 8.361 41.884 41.884 0 0 1-64.3-8.939A25.655 25.655 0 0 1 533.736 188a25.717 25.717 0 1 1-12.022-48.449z" transform="translate(-493.315 -73.257)" style="fill:#182734"/>
            <path data-name="路径 8372" d="M521.749 139.519a25.7 25.7 0 0 1 7.755 1.2 33.256 33.256 0 0 1 46.143-27.053c-.046-.762-.116-1.517-.116-2.29a38.1 38.1 0 0 1 74.376-11.631 25.622 25.622 0 0 1 33.172 14.864 25.693 25.693 0 0 1 36.934 31.77 34.334 34.334 0 1 1-37.913 54.549 46.906 46.906 0 0 1-46.434 8.361 41.884 41.884 0 0 1-64.3-8.939 25.655 25.655 0 0 1-37.6-12.382 25.717 25.717 0 1 1-12.022-48.449z" transform="translate(-493.324 -73.249)" style="fill:#162633"/>
            <path data-name="路径 8373" d="M521.785 139.489a25.7 25.7 0 0 1 7.755 1.2 33.256 33.256 0 0 1 46.142-27.053c-.046-.762-.116-1.517-.116-2.29a38.1 38.1 0 0 1 74.377-11.636 25.624 25.624 0 0 1 33.172 14.865 25.693 25.693 0 0 1 36.934 31.77A34.334 34.334 0 1 1 682.14 200.9a46.906 46.906 0 0 1-46.434 8.361 41.884 41.884 0 0 1-64.3-8.939 25.655 25.655 0 0 1-37.6-12.382 25.717 25.717 0 1 1-12.022-48.449z" transform="translate(-493.333 -73.242)" style="fill:#142532"/>
        </g>
        <path data-name="路径 8374" d="M521.785 139.489a25.7 25.7 0 0 1 7.755 1.2 33.256 33.256 0 0 1 46.142-27.053c-.046-.762-.116-1.517-.116-2.29a38.1 38.1 0 0 1 74.377-11.636 25.624 25.624 0 0 1 33.172 14.865 25.693 25.693 0 0 1 36.934 31.77A34.334 34.334 0 1 1 682.14 200.9a46.906 46.906 0 0 1-46.434 8.361 41.884 41.884 0 0 1-64.3-8.939 25.655 25.655 0 0 1-37.6-12.382 25.717 25.717 0 1 1-12.022-48.449z" transform="translate(-493.333 -73.242)" style="fill:#d9ebf9"/>
    </g>
</svg>
