<?xml version="1.0" encoding="utf-8"?>
<!-- Generator: Adobe Illustrator 24.2.1, SVG Export Plug-In . SVG Version: 6.00 Build 0)  -->
<svg version="1.1" id="圖層_1" xmlns="http://www.w3.org/2000/svg" xmlns:xlink="http://www.w3.org/1999/xlink" x="0px" y="0px"
	 viewBox="0 0 212.21 191.75" style="enable-background:new 0 0 212.21 191.75;" xml:space="preserve">
<style type="text/css">
	.st0{fill:#BBE2ED;}
	.st1{fill:#6496CF;}
	.st2{fill:#FFFFFF;}
</style>
<g id="XMLID_4013_">
	<path id="XMLID_4038_" class="st0" d="M109.99,14.34c-51,0-92.34,38.41-92.34,85.79c0,18.09,6.03,34.87,16.31,48.69v34.52l36-5.88
		c12.11,5.41,25.69,8.45,40.03,8.45c51,0,92.33-38.42,92.33-85.8C202.32,52.74,160.99,14.34,109.99,14.34z"/>
	<g id="XMLID_2154_">
		<path id="XMLID_2685_" class="st1" d="M194.57,92.37c0,47.38-41.33,85.8-92.33,85.8c-14.34,0-27.92-3.04-40.03-8.45l-36,5.88
			v-34.52c-10.29-13.83-16.31-30.6-16.31-48.69c0-47.38,41.34-85.79,92.34-85.79S194.57,44.99,194.57,92.37z"/>
		<g id="XMLID_2779_">
			<g id="XMLID_2783_">
				<path id="XMLID_2784_" class="st2" d="M138.04,94.42h-2.47c3.98,0,7.2-3.22,7.2-7.2l0,0c0-3.98-3.22-7.2-7.2-7.2h-16.53
					c6.57-13.19,9.84-33.67-5.72-32.86c-2.83,27.77-14.09,25.79-23.44,37.58c-2.72,0.05-8.34,0-8.34,0v47.07h5.48
					c4.4,3.75,9.98,5.8,15.75,5.8h4.66l0.04,0h24.32c3.98,0,7.2-3.22,7.2-7.2v0c0-3.98-3.22-7.2-7.2-7.2h3.77
					c3.98,0,7.2-3.22,7.2-7.2v0c0-3.98-3.22-7.2-7.2-7.2h2.47c3.98,0,7.2-3.22,7.2-7.2l0,0C145.24,97.65,142.02,94.42,138.04,94.42z
					"/>
			</g>
			<path id="XMLID_2780_" class="st2" d="M59.22,82.54v51.24h17.27V82.54H59.22z M67.85,131.07c-1.82,0-3.3-1.48-3.3-3.3
				c0-1.82,1.48-3.3,3.3-3.3c1.82,0,3.3,1.48,3.3,3.3C71.15,129.59,69.67,131.07,67.85,131.07z"/>
		</g>
	</g>
</g>
</svg>
