<svg id="圖層_2" data-name="圖層 2"    xmlns="http://www.w3.org/2000/svg"    xmlns:xlink="http://www.w3.org/1999/xlink" viewBox="0 0 640 860">    <defs>        <style>        .cls-1{fill:url(#radial);}        .cls-2{fill:#cfdeec;}        .cls-3{fill:#c5d4e2;}        .cls-4{fill:#dee5f2;}        .cls-5{fill:#f8f9fd;}        .cls-6{fill:#dfe5f1;}        .cls-7{fill:#eeeff3;}        .cls-8{fill:#c2d6f0;}        .cls-9{fill:#cedeef;}        .cls-10,.cls-11{fill:#e9effb;}        .cls-10{opacity:0.5;}        .cls-12{fill:#f7f9fd;}        .cls-13{fill:#c6d6ee;}.cls-14{fill:#b5c9e2;}        .cls-15{fill:#5f708e;}        .cls-16{fill:#fff;}        .waving{            animation: waving 1s infinite alternate linear;        }        @keyframes waving {            0% {                transform: translateY(-10px);            }            50%{                transform: translateY(0px);            }            100% {                transform: translateY(20px);            }        }        </style>        <radialGradient id="radial" cx="433.42" cy="791.41" r="192.01" gradientTransform="translate(0 555.17) scale(1 0.3)" gradientUnits="userSpaceOnUse">            <stop offset="0" stop-color="#5f708e" stop-opacity="0.5"/>            <stop offset="0.13" stop-color="#5f708e" stop-opacity="0.41"/>            <stop offset="0.49" stop-color="#5f708e" stop-opacity="0.19"/>            <stop offset="0.79" stop-color="#5f708e" stop-opacity="0.05"/>            <stop offset="1" stop-color="#5f708e" stop-opacity="0"/>        </radialGradient>    </defs>    <ellipse class="cls-1" cx="433.42" cy="791.41" rx="195.43" ry="57.59"/>    <g class="waving">        <path class="cls-2" d="M519.81,584.66c-20.83-24.5-62.49-99.25-62.49-99.25s-17.16-28.18-34.31-27S399.56,463,399.56,463l-38.62,24.66.07.09.2-.13s6.43-3.39,24-4.65,35.07,27.65,35.07,27.65,42.58,76.64,63.87,101.77,11.27,33.93,11.27,33.93c-.84,1.41-1.72,2.76-2.62,4.07,5-2,25.25-11.28,38.06-32.64C530.83,617.74,540.64,609.17,519.81,584.66Z"/>        <path class="cls-3" d="M484.12,612.38c-21.29-25.13-63.87-101.77-63.87-101.77s-17.54-28.9-35.07-27.65-24,4.65-24,4.65l-.2.13L491.62,650.83s.41-.15,1.15-.45c.9-1.31,1.78-2.66,2.62-4.07C495.39,646.31,505.41,637.51,484.12,612.38Z"/>        <path class="cls-4" d="M115.46,550.35l7.35-31.85c-6.13-12.26-10.07-13.74-10.07-13.74h0a10.39,10.39,0,0,0-17.8,4.5,10.41,10.41,0,0,0-10.64,17.3,10.41,10.41,0,0,0,4,18.69,10.25,10.25,0,0,0-1,4.49,10.42,10.42,0,0,0,10.41,10.42,10.58,10.58,0,0,0,3.06-.46h0l.08,0C107,557.94,115.46,550.35,115.46,550.35Z"/>        <path class="cls-4" d="M522.26,525.85,514.9,557.7C521,570,525,571.44,525,571.44h0a10.39,10.39,0,0,0,17.8-4.5,10.4,10.4,0,0,0,13.79-9.85,10.33,10.33,0,0,0-3.15-7.45,10.41,10.41,0,0,0-4-18.69,10.39,10.39,0,0,0-9.39-14.9,10.68,10.68,0,0,0-3.06.45h0l-.09,0C530.75,518.26,522.26,525.85,522.26,525.85Z"/>        <path class="cls-5" d="M226.2,585.18c-62.38,0-105.71-20.28-107.82-21.29a24.51,24.51,0,0,1,21-44.27c.84.39,49.38,22.52,114.11,15a24.51,24.51,0,0,1,5.68,48.68A284.41,284.41,0,0,1,226.2,585.18Z"/>        <path class="cls-6" d="M163.47,527.83c-3.9-1.05-7.38-2.11-10.4-3.09-6,7.84-10.37,20.53-5.26,38a4.89,4.89,0,0,0,4.7,3.52,5,5,0,0,0,1.38-.19,4.9,4.9,0,0,0,3.33-6.08C152,542.05,158.92,532.13,163.47,527.83Z"/>        <path class="cls-6" d="M189.36,533.3c-5,7.93-8.18,19.8-3.57,35.58a4.91,4.91,0,0,0,4.7,3.53,4.7,4.7,0,0,0,1.38-.2,4.9,4.9,0,0,0,3.33-6.08c-4.94-16.9.93-26.69,5.44-31.36Q194.77,534.14,189.36,533.3Z"/>        <path class="cls-5" d="M448,727.65a109.44,109.44,0,0,1-33.58-26.59s-25.57,4.24-67.5-7.23h0s22.18,41.53,52.82,53.79c0,0-14.43,29.82,17.15,15.92,30.63-13.47,31.13-35.9,31.13-35.9Z"/>        <path class="cls-7" d="M549.21,706s-63.71-41.66-106.6-136-81.67-82.31-81.67-82.31l-131.53-9.59s-22,33.08-15.93,64.94c1.12,5.79,2.62,13.2,4.79,21.6a177.77,177.77,0,0,0,95.69-2s14.7-6.13,28.18,15.92c16,26.14,39.21,51.47,39.21,51.47s4.9,17.15-17.16,22-59.62,11-98.8.1a131.92,131.92,0,0,0,37.54,25.63c67.39,30.64,111.5,23.28,111.5,23.28s29.41,38,79.64,38c0,0-15.92,39.21,23.28,18.38S549.21,706,549.21,706Z"/>        <path class="cls-8" d="M364.19,652.05c22.06-4.9,17.16-22,17.16-22s-23.24-25.33-39.21-51.47c-13.48-22-28.18-15.92-28.18-15.92a177.77,177.77,0,0,1-95.69,2c6.65,25.73,19.6,60.8,47.12,87.55C304.57,663,342.2,656.94,364.19,652.05Z"/>        <path class="cls-6" d="M442.61,570c-42.88-94.35-81.67-82.31-81.67-82.31l-1.52,0L347,492.76s33.08,7.36,69.84,84.55c15.65,32.87,41.07,65.92,65.09,93a77.81,77.81,0,0,0,10.24-19.55A379.31,379.31,0,0,1,442.61,570Z"/>        <path class="cls-6" d="M549.21,706s-10.72-7-26.31-21.79a134.4,134.4,0,0,1-12.08,16.89c19.23,19.38,33.29,31.54,33.43,31.66C552.17,718.36,549.21,706,549.21,706Z"/>        <path class="cls-9" d="M416.92,704a112.62,112.62,0,0,0,42.54,28.78c.41,0,26.42-2.17,51.36-31.67C502,692.2,492.11,681.8,482,670.35,471.25,685.24,451.78,701.07,416.92,704Z"/>        <path class="cls-3" d="M492.21,650.8A77.81,77.81,0,0,1,482,670.35c10.14,11.45,20,21.85,28.85,30.72a134.4,134.4,0,0,0,12.08-16.89A337.16,337.16,0,0,1,492.21,650.8Z"/>        <path class="cls-9" d="M428.23,714.6a94.39,94.39,0,0,1-13.8-13.54s-25.57,4.24-67.5-7.23h0s10.8,20.19,27.72,36.57c.27,0,33.16,2.57,53.59-15.8Z"/>        <path class="cls-10" d="M448,727.65a109.44,109.44,0,0,1-33.58-26.59s-25.57,4.24-67.5-7.23h0s22.18,41.53,52.82,53.79c0,0-14.43,29.82,17.15,15.92,30.63-13.47,31.13-35.9,31.13-35.9Z"/>        <path class="cls-5" d="M419.87,155l.28-.05L328,13.92a8.65,8.65,0,0,0-14.52.06c-10.39,16.19-28.08,49.24-30.25,89.16-9-.85-18.16-1.3-27.44-1.3a285.16,285.16,0,0,0-88.73,14L100.42,13.92A8.64,8.64,0,0,0,85.91,14C69.8,39.07,36.13,104.67,70,173.62c-.15.14-.29.29-.43.43-2.93,1.16-22.54,9.6-23.19,26.79h0C23.32,232.48,10,269.76,10,309.67c0,98.77,77,175.82,184.93,195.41a266.64,266.64,0,0,1-43.71-6.29s16.36,36.78,139.06,18.27c4-.5,6.52-1,6.52-1,22.06-6.13,29.41-8.58,50.76-23.25,87.48-31.42,154-97.76,154-183.13C501.51,248.24,470,193,419.87,155Z"/>        <path class="cls-11" d="M419.87,155l.28-.05L396.67,119l-5.52,50.27c132,171.42-1.22,305.09-1.23,305.1,68.62-39.21,111.59-94.16,111.59-164.72C501.51,248.24,470,193,419.87,155Z"/>        <path class="cls-11" d="M167,115.81,100.42,13.92A8.64,8.64,0,0,0,85.91,14c-.41.64-.84,1.31-1.27,2,1.86-2.34,6.06-5.08,12.59,4.7,9.1,13.66,54.61,103.16,54.61,103.16l16.69-8.5Z"/>        <path class="cls-12" d="M312,16.3a8.68,8.68,0,0,0-.86,1.46Z"/>        <path class="cls-11" d="M328,13.92a8.65,8.65,0,0,0-14.52.06l-1.27,2c1.84-2.34,6.05-5.14,12.6,4.68l66.37,148.61,5.5-50.3Z"/>        <path class="cls-13" d="M448.13,249.52,437,252.79s-15.17,3-10.62,31.85,3,50.06,3,50.06S424.9,362,444.62,355.94c5.51-1.69,10-3.38,13.75-4.94C462.65,320.78,461,286.5,448.13,249.52Z"/>        <path class="cls-14" d="M484.06,315c1.3-20.44.75-43.53,0-44,0,0-4.55-30.34-21.23-25.79l-14.7,4.32c12.85,37,14.52,71.26,10.24,101.48,9.59-4,13.56-7.19,13.56-7.19S482.73,336.18,484.06,315Z"/>        <path class="cls-15" d="M46.84,201.15s40.44-36.76,125-31.86S305.38,228.1,305.38,228.1s88.22,85.77,52.69,199.72c0,0-17.16,88.23-107.83,82.1,0,0-204.86,20.68-237.82-170.39C12.42,339.53,4,246.48,46.84,201.15Z"/>        <path class="cls-5" d="M520.88,517.34c-.6-.22-4.49-1.57-11.1-3.29-21.37-5.53-71.21-14.81-131-1.51a24.64,24.64,0,0,0-6.42,2.43,1.9,1.9,0,0,0-1,1.49c-.56,6.1-2,37.9,28.66,41.82h0c58.42-10.17,103.43,4.92,104.4,5.25a24.5,24.5,0,0,0,16.37-46.19Z"/>        <path class="cls-6" d="M488.66,543.62a4.89,4.89,0,0,0,1.64,6.73,4.8,4.8,0,0,0,2.54.72,4.9,4.9,0,0,0,4.19-2.35c8.91-14.65,8.58-27.38,5.41-36.43-3.6-.81-7.67-1.63-12.17-2.41C493.55,514.64,499.06,526.52,488.66,543.62Z"/>        <path class="cls-6" d="M450.39,539.69a4.89,4.89,0,0,0,1.64,6.73,4.8,4.8,0,0,0,2.54.72,4.9,4.9,0,0,0,4.19-2.36c9.52-15.64,8.49-29.1,4.72-38.22q-5.55-.42-11.5-.64C455.29,510.67,460.82,522.53,450.39,539.69Z"/>        <path class="cls-6" d="M409.14,546.42a4.88,4.88,0,0,0,6.73-1.64c9.56-15.7,8.49-29.2,4.68-38.32-3.44.24-6.95.56-10.5.94,3.23,5.49,6.93,16.7-2.55,32.29A4.89,4.89,0,0,0,409.14,546.42Z"/>        <path class="cls-16" d="M48.07,379.43a9.2,9.2,0,0,1-8.61-6C11.33,298,54.76,220.1,56.62,216.82a9.19,9.19,0,0,1,16,9.07h0c-.41.73-41,73.85-15.92,141.13a9.19,9.19,0,0,1-8.61,12.41Z"/>        <path class="cls-16" d="M76.86,432.73a9.16,9.16,0,0,1-6.5-2.7c-5.55-5.55-12.48-18-13.82-20.47a9.19,9.19,0,0,1,16.14-8.81c2.79,5.13,8,13.56,10.68,16.29a9.2,9.2,0,0,1-6.5,15.69Z"/>    </g></svg>