<svg xmlns="http://www.w3.org/2000/svg" width="237.019" height="239.359" viewBox="0 0 237.019 239.359">
    <g data-name="组 53">
        <path data-name="路径 8375" d="M215.763 702.636a24.69 24.69 0 0 0-4.809-6.363 74.6 74.6 0 0 0-5.981-5.27c-1.041-.877-2.246 1.247-1.048 1.981a40.712 40.712 0 0 1 5.969 4.769c1.873 1.712 3.566 3.671 5.519 5.27.221.177.457-.16.35-.387z" transform="translate(-109.33 -579.37)" style="fill:#fff"/>
        <path data-name="路径 8376" d="M218.8 713.659a18.792 18.792 0 0 0-5.733.222 23 23 0 0 0-2.747.711 8.6 8.6 0 0 0-2.847 1.253 1.641 1.641 0 0 0-.566 1.909 1.346 1.346 0 0 0 1.632.886 18.166 18.166 0 0 0 2.556-1.467 21.534 21.534 0 0 1 2.489-1.217 31.281 31.281 0 0 1 5.293-1.663c.344-.074.223-.601-.077-.634z" transform="translate(-110.455 -586.977)" style="fill:#fff"/>
        <path data-name="路径 8377" d="M224.376 724.648a5.084 5.084 0 0 0-2.009 1.111 19.435 19.435 0 0 0-1.884 1.719c-.56.6-1.134 1.207-1.637 1.867a8.5 8.5 0 0 0-.875 1.24c-.1.2-.174.437-.256.651a2.163 2.163 0 0 0-.074 1.139 1.012 1.012 0 0 0 1.236.776c.937-.216 1.476-1.284 1.983-2.089.446-.709.855-1.443 1.308-2.148.437-.679.841-1.38 1.265-2.069a7.591 7.591 0 0 0 .989-2.147.039.039 0 0 0-.046-.05z" transform="translate(-114.07 -590.693)" style="fill:#fff"/>
        <path data-name="路径 8378" d="M226.715 729.457a34.757 34.757 0 0 0-2.277 2.853 22.246 22.246 0 0 0-1.987 2.974 32.8 32.8 0 0 0-2.546 7.184c-.276 1.185-.741 2.986-.013 4.062a1.2 1.2 0 0 0 1.392.524c.727-.244 1.086-1.17 1.276-1.915.305-1.2.447-2.446.731-3.651.295-1.246.654-2.478 1.019-3.7a51.422 51.422 0 0 1 2.864-7.939c.155-.317-.221-.662-.459-.392z" transform="translate(-114.707 -592.269)" style="fill:#fff"/>
        <path data-name="路径 8379" d="M240.65 733.65a81.97 81.97 0 0 0-.475-3.4c-.329-2.132-.742-4.227-1.181-6.335-.092-.44-.658-.313-.682.1-.125 2.186-.226 4.356-.24 6.546a76.437 76.437 0 0 0 .025 3.212 12.851 12.851 0 0 0 .162 1.73 7.566 7.566 0 0 0 .542 1.62.892.892 0 0 0 1.67-.242 8.731 8.731 0 0 0 .179-3.231z" transform="translate(-120.916 -590.356)" style="fill:#fff"/>
        <path data-name="路径 8380" d="M258.786 724.318c-.411-.429-.821-.859-1.241-1.275a35.652 35.652 0 0 0-2.7-2.4 28.742 28.742 0 0 0-5.9-3.647.376.376 0 0 0-.35.662 36.436 36.436 0 0 1 5.118 4.452q1.17 1.221 2.228 2.566c.323.411.644.827.937 1.265.431.647.759 1.33 1.5 1.573a1.211 1.211 0 0 0 1.485-1.251 3.049 3.049 0 0 0-1.077-1.945z" transform="translate(-124.382 -588.121)" style="fill:#fff"/>
        <path data-name="路径 8381" d="M276.75 712.561a4.5 4.5 0 0 0-2.427-.445l-2.2-.093q-2.48-.1-4.958-.24c-3.258-.176-6.471-.31-9.732-.213-.336.01-.439.6-.083.674 3.141.692 6.268 1.157 9.447 1.583 1.593.213 3.184.429 4.774.661l2.387.349a4.855 4.855 0 0 0 2.514.085 1.368 1.368 0 0 0 .278-2.361z" transform="translate(-127.29 -586.309)" style="fill:#fff"/>
        <path data-name="路径 8382" d="M265.98 684.123a2.117 2.117 0 0 0-.976.465q-1.71 1.187-3.332 2.521a36.876 36.876 0 0 0-3.429 3.236c-.264.28.085.81.4.571a67.451 67.451 0 0 1 6.775-4.618c.548-.321 1.5-.684 1.376-1.549a.731.731 0 0 0-.814-.626z" transform="translate(-127.633 -577.138)" style="fill:#fff"/>
        <path data-name="路径 8383" d="M276.321 691.31a1.459 1.459 0 0 0-1.963-.991 3.915 3.915 0 0 0-1.072.755c-.514.422-1.022.86-1.549 1.263-.56.429-1.131.842-1.7 1.262a7.018 7.018 0 0 0-1.571 1.456c-.2.281-.1.827.3.793a12.939 12.939 0 0 0 3.777-1.4c.582-.249 1.179-.46 1.768-.686a7.078 7.078 0 0 0 1.177-.481 1.872 1.872 0 0 0 .833-1.971z" transform="translate(-131.051 -579.18)" style="fill:#fff"/>
        <path data-name="路径 8384" d="M294.1 648.61a8.69 8.69 0 0 0-2.685 2.188q-1.1 1.111-2.173 2.259-2.148 2.3-4.17 4.743a121.941 121.941 0 0 0-7.435 10.166c-.235.353.279.778.545.465a97.936 97.936 0 0 1 8.576-8.768q2.164-1.98 4.432-3.816 1.2-.968 2.425-1.9a9.879 9.879 0 0 0 2.589-2.315c.938-1.419-.621-3.621-2.104-3.022z" transform="translate(-134.132 -565.228)" style="fill:#fff"/>
        <path data-name="路径 8385" d="M261.926 656.866a1.7 1.7 0 0 0-.7-.45 1.555 1.555 0 0 0-1.788.8 37.548 37.548 0 0 0-2.357 4.82c-.77 1.617-1.559 3.223-2.311 4.85s-1.487 3.269-2.2 4.919a26.686 26.686 0 0 0-1.781 4.906c-.094.437.435.865.733.472a32.148 32.148 0 0 0 2.578-4.383q1.254-2.362 2.562-4.687c.872-1.551 1.747-3.1 2.673-4.617a53.185 53.185 0 0 0 2.844-4.505 1.942 1.942 0 0 0-.253-2.125z" transform="translate(-125.166 -567.845)" style="fill:#fff"/>
        <path data-name="路径 8386" d="M243.309 680.959a6.161 6.161 0 0 0 .007-2.642.52.52 0 0 0-.968-.14 5.348 5.348 0 0 0-.5 2.781q-.062 1.351-.044 2.7a36.436 36.436 0 0 0 .592 5.519.4.4 0 0 0 .789-.118c-.1-1.8-.055-3.595-.014-5.4q.029-1.35.138-2.7z" transform="translate(-122.163 -575.059)" style="fill:#fff"/>
        <path data-name="路径 8387" d="m231.226 661.217-1.131-4.1c-.33-1.2-.64-3.392-1.792-3.955a1.026 1.026 0 0 0-1.45.421c-.646 1.38.3 3.145.778 4.444l1.472 4c1 2.716 2.185 5.354 3.385 7.965.185.4.714.113.634-.3-.555-2.84-1.129-5.692-1.896-8.475z" transform="translate(-117.092 -566.737)" style="fill:#fff"/>
        <path data-name="路径 8388" d="M223.78 667c-1.3-2.675-2.709-5.28-4.105-7.9-.687-1.289-1.44-2.532-2.18-3.784-.726-1.229-1.5-2.86-2.825-3.374-.568-.221-1.157.355-1.157.974 0 1.478 1.133 2.8 1.9 3.906.861 1.238 1.707 2.486 2.618 3.678 1.76 2.3 3.5 4.614 5.345 6.839.204.247.538-.063.404-.339z" transform="translate(-112.704 -566.361)" style="fill:#fff"/>
        <path data-name="路径 8389" d="M226.966 687.464c-.246-.941-.556-1.851-.883-2.761-.347-.969-.687-2.287-1.673-2.657a.777.777 0 0 0-.944.592c-.331.956.357 2.108.714 2.952.373.884.729 1.775 1.116 2.652.767 1.736 1.429 3.521 2.225 5.24a.327.327 0 0 0 .613-.183 38.167 38.167 0 0 0-1.168-5.835z" transform="translate(-116.003 -576.431)" style="fill:#fff"/>
        <path data-name="路径 8390" d="M214.913 683.546a49.084 49.084 0 0 0-4.855-8.658 37.9 37.9 0 0 0-3.046-3.9q-.824-.9-1.686-1.762a8.178 8.178 0 0 0-1.041-.944 2.526 2.526 0 0 0-1.619-.382 1.509 1.509 0 0 0-1.322 1.917 3.279 3.279 0 0 0 .592 1.434 7.127 7.127 0 0 0 1.054.922c.57.453 1.137.91 1.688 1.393 1.192 1.043 2.387 2.09 3.533 3.2a61.7 61.7 0 0 1 6.27 7.146c.214.281.557-.076.432-.366z" transform="translate(-108.618 -571.714)" style="fill:#fff"/>
        <path data-name="路径 8391" d="M153.172 650.859c-5.015-5.943-11.918-10.295-18.264-14.259q-4.843-3.026-9.87-5.671c-3.261-1.716-6.856-4.247-10.532-4.36a1.682 1.682 0 0 0-1.046 2.793c2.735 2.421 6.425 3.221 9.648 4.654a143.976 143.976 0 0 1 10.429 5.178c6.649 3.627 12.843 8.351 19.569 11.761a.059.059 0 0 0 .066-.096z" transform="translate(-79.089 -557.89)" style="fill:#fff"/>
        <path data-name="路径 8392" d="M154.575 658.91c-3.39-3.4-7.662-5.928-11.715-8.224q-3.078-1.744-6.233-3.314c-2.135-1.06-4.433-2.365-6.76-2.724a1 1 0 0 0-.689 1.809 34.965 34.965 0 0 0 6.177 2.942 141.558 141.558 0 0 1 6.759 3.2c4.124 2.1 8.154 4.645 12.39 6.443.068.032.123-.08.071-.132z" transform="translate(-84.349 -563.933)" style="fill:#fff"/>
        <path data-name="路径 8393" d="M151.233 671.406c-7.572-6.924-16.421-12.407-25.266-17.076q-6.423-3.39-13.1-6.137c-2.459-1.01-4.924-2-7.413-2.918-2.261-.833-4.739-2.1-7.155-1.781a1.69 1.69 0 0 0-.747 3.048c1.872 1.477 4.323 1.75 6.512 2.383 2.382.69 4.755 1.426 7.1 2.265a153.282 153.282 0 0 1 13.933 5.792c8.978 4.253 17.305 9.622 25.782 14.932.279.173.621-.266.354-.508z" transform="translate(-73.685 -563.534)" style="fill:#fff"/>
        <path data-name="路径 8394" d="M103.1 659.328a102.558 102.558 0 0 0-9.555-3.766c-1.61-.551-3.241-1.032-4.863-1.54a19.1 19.1 0 0 0-4.927-1.263c-1.391-.044-2.027 2.266-.73 2.978a19.033 19.033 0 0 0 4.865 1.46c1.714.412 3.424.852 5.147 1.213a100.823 100.823 0 0 0 9.976 1.633c.405.042.4-.574.087-.715z" transform="translate(-68.825 -566.649)" style="fill:#fff"/>
        <path data-name="路径 8395" d="M115.983 683.124q-2.468-.658-4.95-1.244c-3.086-.732-6.183-1.437-9.312-1.9q-4.9-.724-9.827-1.221c-3.274-.327-6.755-1.1-9.921.1a1.9 1.9 0 0 0 0 3.505c3.122 1.272 6.637.689 9.921.732q4.734.061 9.463.342c3.141.187 6.285.267 9.426.47q2.529.164 5.054.387a17.151 17.151 0 0 0 4.323.226c.016 0 .017-.029 0-.037a15.324 15.324 0 0 0-4.177-1.36z" transform="translate(-68.319 -575.163)" style="fill:#fff"/>
        <path data-name="路径 8396" d="M111.638 691a161.009 161.009 0 0 0-22.66-1.716c-3.762-.052-7.528.053-11.286.248q-3.031.157-6.055.427c-1.784.162-3.541.173-5.142 1.132-1.211.726-.985 2.984.393 3.322 1.791.439 3.457-.063 5.248-.375 1.849-.322 3.7-.625 5.556-.892 3.75-.54 7.515-.925 11.286-1.236a207.681 207.681 0 0 1 22.592-.354c.28.006.359-.511.068-.556z" transform="translate(-63.268 -578.861)" style="fill:#fff"/>
        <path data-name="路径 8397" d="M81.305 706.016a45.93 45.93 0 0 0-9.889 1.83 44.385 44.385 0 0 0-4.695 1.66c-1.41.61-3.845 1.294-4.541 2.936-.31.733-.105 1.8.732 1.988 1.609.362 3.264-.985 4.676-1.716 1.487-.77 2.96-1.567 4.477-2.266 3.041-1.4 6.176-2.676 9.322-3.759.321-.109.282-.702-.082-.673z" transform="translate(-62.043 -584.461)" style="fill:#fff"/>
        <path data-name="路径 8398" d="M143.716 713.516a40.314 40.314 0 0 0-8.2-.285c-2.717.021-5.44.061-8.155.21s-5.431.333-8.127.686c-2.534.331-6.086.207-8.18 1.984a1.65 1.65 0 0 0 .336 2.842c2.379.875 5.32-.272 7.714-.715 2.781-.514 5.551-1.091 8.332-1.61 2.667-.5 5.329-1.016 8-1.46 2.733-.453 5.623-.584 8.282-1.419.096-.03.109-.21-.002-.233z" transform="translate(-78.214 -586.853)" style="fill:#fff"/>
        <path data-name="路径 8399" d="M122.2 723.779a62.421 62.421 0 0 0-15.283 1.6 54.256 54.256 0 0 0-7.5 2.016A20.245 20.245 0 0 0 92.5 731c-1.179 1.048.17 2.633 1.3 2.464 2.468-.37 4.736-1.557 7.063-2.514s4.653-1.959 7.023-2.817c4.709-1.7 9.533-2.841 14.353-4.078.138-.035.1-.27-.039-.276z" transform="translate(-72.075 -590.391)" style="fill:#fff"/>
        <path data-name="路径 8400" d="M110 737.4c-4.838-.069-9.89 1.406-14.531 2.772-2.4.708-4.789 1.471-7.148 2.341-2.185.807-4.815 1.521-6.469 3.4-.484.547-.151 1.605.588 1.569 2.218-.11 4.293-1.492 6.291-2.435a88.675 88.675 0 0 1 7.2-3.04c4.635-1.711 9.483-2.677 14.1-4.4.086-.04.069-.201-.031-.207z" transform="translate(-68.592 -594.959)" style="fill:#fff"/>
        <path data-name="路径 8401" d="M188.164 720.115a46.869 46.869 0 0 0-4.726-.2 29.3 29.3 0 0 0-4.456.664c-2.87.628-6.177 1.4-8.529 3.428-.661.568.1 1.467.72 1.367a23.327 23.327 0 0 0 4.227-1.394c1.35-.494 2.716-.956 4.092-1.355s2.759-.729 4.146-1.073a42.174 42.174 0 0 1 4.526-1.1c.194-.019.205-.329 0-.337z" transform="translate(-98.216 -589.103)" style="fill:#fff"/>
        <path data-name="路径 8402" d="M205.3 730.609a22.241 22.241 0 0 0-5.9 3.6 24.283 24.283 0 0 0-2.51 2.464 16.817 16.817 0 0 0-1.15 1.46 6.254 6.254 0 0 0-.845 1.7c-.148.445.407.953.765.649a8.279 8.279 0 0 0 1.18-1.185c.36-.453.715-.911 1.08-1.358.727-.9 1.492-1.762 2.295-2.574a34.9 34.9 0 0 1 5.225-4.39c.174-.111.06-.45-.14-.366z" transform="translate(-106.47 -592.683)" style="fill:#fff"/>
        <path data-name="路径 8403" d="M158.415 736.97a18.374 18.374 0 0 0-6.974.6c-2.449.532-4.9 1.151-7.3 1.906a61.03 61.03 0 0 0-7.047 2.774c-2.07.948-4.665 2.192-5.982 4.3a.963.963 0 0 0 .741 1.428 10.554 10.554 0 0 0 3.478-.859 22.328 22.328 0 0 0 3.107-1.344c2.236-1.076 4.5-2.045 6.768-3.032s4.533-1.9 6.846-2.711a29.067 29.067 0 0 0 6.41-2.64c.146-.092.138-.392-.047-.422z" transform="translate(-85.1 -594.765)" style="fill:#fff"/>
        <path data-name="路径 8404" d="M136.938 751.621c-1.947.007-4.11 1.081-5.881 1.9a59.984 59.984 0 0 0-5.884 3.174 78.595 78.595 0 0 0-5.584 3.706 26.232 26.232 0 0 0-5.284 4.655.836.836 0 0 0 .94 1.348 29.839 29.839 0 0 0 5.226-3.914c1.738-1.464 3.464-2.938 5.271-4.3a48.739 48.739 0 0 1 5.4-3.555c.9-.506 1.8-.995 2.726-1.444a23.778 23.778 0 0 0 3.093-1.494c.025-.021.014-.076-.023-.076z" transform="translate(-79.45 -599.715)" style="fill:#fff"/>
        <path data-name="路径 8405" d="M151.838 745.1a108.22 108.22 0 0 0-21.013 11.626c-3.391 2.318-6.774 4.654-10.069 7.136-3.16 2.381-6.813 4.728-9.2 8.082-.727 1.025.154 2.5 1.3 1.855 3.4-1.935 6.223-5.159 9.242-7.739 3.125-2.669 6.319-5.244 9.646-7.6 6.567-4.646 13.451-8.767 20.214-13.05.148-.087.049-.374-.12-.31z" transform="translate(-78.516 -597.531)" style="fill:#fff"/>
        <path data-name="路径 8406" d="M164.778 751.64c-3.367 2.094-6.4 5.228-9.336 7.973-3.058 2.857-6.048 5.8-9 8.792s-5.907 5.974-8.823 9c-1.426 1.481-2.807 3-4.17 4.554s-3.1 3.169-3.523 5.342c-.174.89.555 1.993 1.461 1.615 1.852-.771 2.955-2.562 4.182-4.2 1.252-1.669 2.52-3.323 3.774-4.991 2.561-3.407 5.218-6.726 8.02-9.893a229.883 229.883 0 0 1 8.438-9c2.971-3.014 6.352-5.79 9.045-9.1.039-.048-.012-.127-.068-.092z" transform="translate(-84.738 -599.718)" style="fill:#fff"/>
        <path data-name="路径 8407" d="M184.68 751.512a126.733 126.733 0 0 0-10.058 9.248c-1.593 1.628-3.179 3.269-4.707 4.97a33.366 33.366 0 0 0-4.4 5.487c-.239.415.255 1.016.637.7a41.5 41.5 0 0 0 4.531-4.8c1.561-1.758 3.115-3.523 4.7-5.25 3.129-3.4 6.294-6.771 9.455-10.14.098-.101-.038-.312-.158-.215z" transform="translate(-96.627 -599.67)" style="fill:#fff"/>
        <path data-name="路径 8408" d="M180.49 756.687c-2.319 1.289-4.408 3.434-6.43 5.216-2.2 1.94-4.333 3.968-6.44 6.032-4.206 4.117-8.281 8.406-12.274 12.773s-7.894 8.827-11.688 13.4c-1.9 2.284-3.715 4.649-5.5 7.037-.894 1.2-1.765 2.415-2.632 3.637a20.036 20.036 0 0 0-2.389 3.683c-.736 1.754 1.037 3.3 2.4 2.043a22.57 22.57 0 0 0 2.7-3.55c.873-1.217 1.756-2.423 2.63-3.639 1.75-2.436 3.539-4.836 5.312-7.251q5.153-7.025 10.708-13.658c3.7-4.413 7.553-8.661 11.487-12.821 2.027-2.144 4.092-4.244 6.132-6.375 2-2.084 4.352-4.05 6.044-6.444.026-.047-.011-.11-.06-.083z" transform="translate(-85.763 -601.407)" style="fill:#fff"/>
        <path data-name="路径 8409" d="M198.767 761.774q-4.092 4.27-7.827 8.921-1.844 2.294-3.646 4.626c-1.159 1.495-2.719 3.036-3.44 4.858-.245.619.3 1.474.924 1.022 1.509-1.087 2.619-2.994 3.76-4.506q1.836-2.435 3.635-4.9 3.515-4.833 6.637-9.985c.017-.029-.021-.059-.043-.036z" transform="translate(-102.764 -603.108)" style="fill:#fff"/>
        <path data-name="路径 8410" d="M208.38 757.66c-2.138 2.962-4.128 6.042-6.025 9.2-.958 1.593-1.9 3.2-2.787 4.84a32.733 32.733 0 0 0-2.411 5.02.444.444 0 0 0 .8.373 52.475 52.475 0 0 0 2.629-4.942 235.45 235.45 0 0 1 2.52-4.805c1.749-3.222 3.611-6.368 5.5-9.488.094-.153-.122-.342-.226-.198z" transform="translate(-107.223 -601.717)" style="fill:#fff"/>
        <path data-name="路径 8411" d="M201.751 777.565c-3.338 6.362-6.673 12.694-9.61 19.3-1.4 3.159-2.765 6.358-3.991 9.607-1.278 3.386-2.926 6.859-3.048 10.541a1.228 1.228 0 0 0 2.3.688 10.393 10.393 0 0 0 1.316-2.3c.282-.719.524-1.453.768-2.189a454.8 454.8 0 0 1 1.737-5.173c1.148-3.334 2.254-6.685 3.413-10.014 2.363-6.787 4.753-13.594 7.542-20.183.131-.314-.265-.585-.427-.277z" transform="translate(-103.201 -608.347)" style="fill:#fff"/>
        <path data-name="路径 8412" d="M166.264 820.56a14.679 14.679 0 0 1-1.4 2.435 47.145 47.145 0 0 0-1.155 2.208c-.77 1.543-1.495 3.107-2.2 4.69s-1.348 3.191-1.971 4.815a13.884 13.884 0 0 0-1.381 5.019c.008.667.813 1.109 1.248.572a15.015 15.015 0 0 0 2.043-4.7c.543-1.592 1.1-3.179 1.637-4.773s1.088-3.171 1.628-4.759c.269-.791.551-1.577.8-2.375a15.893 15.893 0 0 1 .962-3.031c.091-.154-.151-.285-.211-.101z" transform="translate(-94.189 -622.742)" style="fill:#fff"/>
        <path data-name="路径 8413" d="M209.409 782.672c-2.206 6.469-4.1 13.077-5.944 19.681-.908 3.251-1.819 6.5-2.69 9.761-.864 3.234-1.949 6.438-2.057 9.833a.681.681 0 0 0 1.277.382c1.476-2.861 2.064-6.1 2.842-9.256a922.543 922.543 0 0 0 2.423-10.173c1.565-6.687 3.095-13.4 4.29-20.185.018-.103-.108-.141-.141-.043z" transform="translate(-107.755 -610.081)" style="fill:#fff"/>
        <path data-name="路径 8414" d="M214.774 791.5c-1.256 7.557-2.876 15.045-4.2 22.59-.653 3.73-1.344 7.452-2.019 11.177q-.506 2.8-1.026 5.589a16.125 16.125 0 0 0-.481 5.181.679.679 0 0 0 1.269.184 15.547 15.547 0 0 0 1.365-5.036q.5-2.8.977-5.6a686.18 686.18 0 0 0 1.839-11.559c1.139-7.458 1.79-14.968 2.649-22.465a.191.191 0 0 0-.373-.061z" transform="translate(-110.518 -613.001)" style="fill:#fff"/>
        <path data-name="路径 8415" d="M232.172 765.486c-.041-1.1-.11-2.2-.2-3.29a23.357 23.357 0 0 0-.168-1.584 2.343 2.343 0 0 0-.326-1.14.052.052 0 0 0-.078 0 2.356 2.356 0 0 0-.395 1.14c-.11.548-.184 1.083-.266 1.64a62.482 62.482 0 0 0-.363 3.235c-.1 1.094-.162 2.195-.24 3.291a64.509 64.509 0 0 0-.1 1.706 5.909 5.909 0 0 0 .248 1.707.818.818 0 0 0 1.6 0 5.916 5.916 0 0 0 .329-1.707c.011-.569.009-1.137 0-1.706-.003-1.097.001-2.197-.041-3.292z" transform="translate(-118.233 -602.335)" style="fill:#fff"/>
        <path data-name="路径 8416" d="M246.258 776.961c-.251-.858-.516-1.71-.785-2.562-.541-1.715-1.072-3.445-1.742-5.1-.043-.107-.218-.056-.2.062.212 1.8.574 3.581.921 5.354.172.881.348 1.76.539 2.637a8.731 8.731 0 0 0 .863 2.685.5.5 0 0 0 .937-.28 8.875 8.875 0 0 0-.533-2.796z" transform="translate(-122.742 -605.607)" style="fill:#fff"/>
        <path data-name="路径 8417" d="M251.553 754.593c-.1-.693-.214-1.386-.325-2.078-.2-1.282-.441-2.56-.666-3.839s-.461-2.552-.713-3.825a22.283 22.283 0 0 0-.887-3.788.054.054 0 0 0-.1.015 22.654 22.654 0 0 0 .073 3.91q.1 1.95.249 3.894c.1 1.3.18 2.6.3 3.894q.094 1.048.2 2.1c.028.281.106.6.12.876a2.806 2.806 0 0 0 .122.9.928.928 0 0 0 1.831-.274 8.326 8.326 0 0 0-.204-1.785z" transform="translate(-124.504 -596.174)" style="fill:#fff"/>
        <path data-name="路径 8418" d="M258.713 746.162c-.211-.97-.423-1.949-.725-2.891s-.572-1.911-.922-2.836c-.361-.954-.774-1.88-1.147-2.828-.1-.256-.466-.072-.4.187.242.965.407 1.957.561 2.942s.363 1.963.481 2.961.281 1.958.394 2.942a5.008 5.008 0 0 0 .786 2.846.629.629 0 0 0 1.033-.147c.484-.938.155-2.188-.061-3.176z" transform="translate(-126.75 -594.987)" style="fill:#fff"/>
        <path data-name="路径 8419" d="M264.71 819.007c-.488-1.732-1-3.457-1.509-5.182q-1.482-5.028-3.046-10.024c-2.079-6.657-4.093-13.411-6.558-19.906a.212.212 0 1 0-.4.124c1.266 6.88 3.041 13.7 4.71 20.469q1.218 4.941 2.507 9.857c.459 1.741.91 3.484 1.39 5.219.4 1.463.59 3.447 1.72 4.432a1.112 1.112 0 0 0 1.894-.553c.425-1.487-.306-3.007-.708-4.436z" transform="translate(-125.973 -610.455)" style="fill:#fff"/>
        <path data-name="路径 8420" d="m240.137 821.311-.321-5.756c-.22-3.945-.491-7.888-.748-11.831-.509-7.8-1.33-15.566-2.047-23.342-.025-.266-.385-.279-.384 0 .039 7.781-.027 15.564.221 23.342.122 3.838.229 7.676.388 11.512l.238 5.756a18.377 18.377 0 0 0 .709 5.7c.323.867 1.471 1.024 1.744 0a16.945 16.945 0 0 0 .2-5.381z" transform="translate(-120.437 -609.266)" style="fill:#fff"/>
        <path data-name="路径 8421" d="M252.83 855.256c-.183-1.687-.382-3.372-.58-5.056-.411-3.5-.906-6.976-1.414-10.457-1.016-6.974-2.331-13.869-3.523-20.807a.218.218 0 0 0-.431.065c.664 7.014 1.051 14.07 1.575 21.1.258 3.472.487 6.946.763 10.417.134 1.684.257 3.37.39 5.055a16.422 16.422 0 0 0 .821 5.207 1.365 1.365 0 0 0 2.555-.369 15.693 15.693 0 0 0-.156-5.155z" transform="translate(-123.864 -622.172)" style="fill:#fff"/>
        <path data-name="路径 8422" d="M230.856 835.873c-.087-2.99-.165-5.978-.3-8.965-.279-5.973-.339-11.975-.873-17.929a.082.082 0 1 0-.164 0c-.534 5.954-.594 11.956-.873 17.929-.14 2.988-.218 5.976-.3 8.965-.069 2.357-.783 5.786.614 7.758a.853.853 0 0 0 1.292 0c1.399-1.987.674-5.38.604-7.758z" transform="translate(-117.58 -618.869)" style="fill:#fff"/>
        <path data-name="路径 8423" d="M282.051 835.384q-.572-1.923-1.164-3.838-1.092-3.537-2.223-7.059c-1.6-4.994-3.384-9.926-5.169-14.843-1.71-4.708-3.454-9.4-5.306-14.047a117.2 117.2 0 0 0-6.239-14.2.056.056 0 0 0-.1.047c1.2 4.949 3.1 9.775 4.712 14.576 1.628 4.854 3.258 9.708 4.815 14.592s3.011 9.813 4.522 14.718q1.089 3.535 2.139 7.085.525 1.775 1.047 3.551c.36 1.226.529 2.612 1.47 3.45a1.162 1.162 0 0 0 1.985-.579 6.066 6.066 0 0 0-.489-3.453z" transform="translate(-128.869 -609.664)" style="fill:#fff"/>
        <path data-name="路径 8424" d="M291.845 817.949q-1.523-3.01-3.031-6.029-3.221-6.449-6.367-12.944c-4.144-8.557-8.138-17.213-12.567-25.6a.028.028 0 0 0-.051.023c3.216 8.974 7.068 17.65 10.958 26.284q2.912 6.463 5.892 12.888 1.555 3.351 3.129 6.692c1.008 2.14 1.85 4.359 3.412 6.054.616.668 1.557-.017 1.39-.894-.449-2.365-1.699-4.369-2.765-6.474z" transform="translate(-131.539 -606.987)" style="fill:#fff"/>
        <path data-name="路径 8425" d="M317.551 848.5a16.246 16.246 0 0 0-1.466-3.879 137.212 137.212 0 0 0-1.853-3.961c-1.31-2.705-2.679-5.374-4.161-7.971-2.849-4.992-6.008-9.728-9.284-14.385-.12-.171-.383.053-.273.232a168.973 168.973 0 0 1 8.238 15.328c1.263 2.631 2.514 5.271 3.69 7.951 1.1 2.5 1.915 5.551 3.475 7.734.669.935 1.783-.121 1.634-1.049z" transform="translate(-141.793 -621.996)" style="fill:#fff"/>
        <path data-name="路径 8426" d="M308.623 809.217q-1.843-2.438-3.668-4.892-3.747-5.031-7.466-10.087c-4.874-6.664-9.531-13.579-14.8-19.869-.043-.05-.119.015-.087.074 4.123 7.266 8.952 14.038 13.5 20.977q3.378 5.147 6.7 10.337 1.667 2.589 3.32 5.188c1.015 1.6 2.012 3.748 3.642 4.645.976.536 2-.343 1.785-1.517-.337-1.887-1.842-3.421-2.926-4.856z" transform="translate(-135.808 -607.317)" style="fill:#fff"/>
        <path data-name="路径 8427" d="M275.791 614.969c4.055-5.831 8.1-11.632 11.789-17.76 1.763-2.932 3.485-5.909 5.082-8.955 1.663-3.175 3.7-6.383 4.256-10.016a1.243 1.243 0 0 0-2.2-1.01 10.013 10.013 0 0 0-1.574 2.09c-.365.674-.689 1.366-1.018 2.061-.77 1.631-1.539 3.26-2.328 4.88-1.529 3.141-3.018 6.306-4.557 9.441-3.138 6.393-6.3 12.8-9.841 18.935-.167.292.194.617.391.334z" transform="translate(-133.388 -541.235)" style="fill:#fff"/>
        <path data-name="路径 8428" d="M271.907 609.246c2.945-6.1 5.595-12.382 8.2-18.666 1.281-3.093 2.565-6.184 3.811-9.294 1.235-3.083 2.686-6.1 3.191-9.456a.689.689 0 0 0-1.221-.562c-1.8 2.626-2.762 5.755-3.9 8.772-1.223 3.236-2.408 6.488-3.594 9.741-2.335 6.407-4.637 12.848-6.617 19.4-.034.102.086.157.13.065z" transform="translate(-132.188 -539.3)" style="fill:#fff"/>
        <path data-name="路径 8429" d="M268.952 597.158c2.13-7.314 4.614-14.507 6.806-21.8 1.084-3.606 2.2-7.2 3.31-10.8q.83-2.7 1.672-5.394a15.9 15.9 0 0 0 1.083-5.069.685.685 0 0 0-1.237-.363 15.183 15.183 0 0 0-1.943 4.8q-.821 2.705-1.625 5.416c-1.1 3.719-2.141 7.458-3.177 11.2-2 7.232-3.527 14.586-5.256 21.9-.054.23.301.337.367.11z" transform="translate(-131.121 -533.439)" style="fill:#fff"/>
        <path data-name="路径 8430" d="M222.827 564.292c.281 1.788.587 3.571.889 5.355q.881 5.2 1.847 10.375c1.283 6.9 2.488 13.885 4.172 20.678a.211.211 0 1 0 .416-.065c-.45-7-1.412-14.015-2.274-20.971q-.628-5.074-1.332-10.132c-.252-1.792-.5-3.586-.767-5.374-.23-1.509-.182-3.5-1.187-4.641a1.1 1.1 0 0 0-1.943.277c-.6 1.411-.053 3.023.179 4.498z" transform="translate(-115.668 -535.309)" style="fill:#fff"/>
        <path data-name="路径 8431" d="m251.177 562.843-.355 5.754c-.244 3.945-.436 7.893-.643 11.839-.408 7.805-.5 15.625-.7 23.44-.007.267.349.331.381.055.873-7.722 1.849-15.43 2.514-23.178.327-3.823.672-7.644.963-11.471l.438-5.742a18.476 18.476 0 0 0-.037-5.755c-.219-.906-1.339-1.227-1.73-.25a16.814 16.814 0 0 0-.831 5.308z" transform="translate(-124.732 -534.601)" style="fill:#fff"/>
        <path data-name="路径 8432" d="M241.919 529.43c-.016 1.7-.016 3.4-.017 5.1 0 3.525.082 7.047.177 10.571.191 7.061.688 14.086 1.058 21.135a.217.217 0 0 0 .434 0c.163-7.05.6-14.1.909-21.146.15-3.48.33-6.958.463-10.438.064-1.69.139-3.38.2-5.069a16.554 16.554 0 0 0-.2-5.28 1.361 1.361 0 0 0-2.576 0 15.643 15.643 0 0 0-.448 5.127z" transform="translate(-122.199 -523.376)" style="fill:#fff"/>
        <path data-name="路径 8433" d="M261.479 555.876c-.264 2.976-.536 5.951-.748 8.933-.423 5.963-1.066 11.922-1.233 17.9a.083.083 0 1 0 .163.023c1.227-5.828 1.989-11.77 2.964-17.654.488-2.942.915-5.894 1.352-8.846.344-2.327 1.454-5.626.3-7.78a.856.856 0 0 0-1.28-.185c-1.631 1.772-1.309 5.241-1.518 7.609z" transform="translate(-128.084 -531.632)" style="fill:#fff"/>
        <path data-name="路径 8434" d="M204.393 536.1q.342 1.989.7 3.972.669 3.664 1.378 7.318c1.006 5.182 2.193 10.327 3.388 15.457 1.145 4.914 2.323 9.819 3.617 14.688A120.227 120.227 0 0 0 218 592.509a.055.055 0 0 0 .1-.033c-.612-5.079-1.931-10.136-2.966-15.127-1.046-5.047-2.094-10.092-3.065-15.158s-1.837-10.161-2.761-15.242q-.666-3.661-1.292-7.331-.313-1.835-.622-3.671c-.214-1.267-.219-2.666-1.053-3.631a1.151 1.151 0 0 0-2.036.29c-.456 1.206-.128 2.236.088 3.494z" transform="translate(-109.548 -526.201)" style="fill:#fff"/>
        <path data-name="路径 8435" d="M190.342 554.749q1.158 3.2 2.3 6.412 2.438 6.856 4.8 13.746c3.107 9.078 6.054 18.232 9.465 27.18a.027.027 0 0 0 .052-.016c-2.137-9.358-4.942-18.513-7.788-27.63q-2.131-6.825-4.334-13.622-1.149-3.546-2.319-7.083c-.749-2.267-1.324-4.586-2.675-6.491-.532-.75-1.545-.206-1.482.688.166 2.411 1.171 4.577 1.981 6.816z" transform="translate(-104.289 -531.241)" style="fill:#fff"/>
        <path data-name="路径 8436" d="M171.052 531.592a16.6 16.6 0 0 0 1 4.056c.433 1.407.9 2.8 1.373 4.192.984 2.871 2.029 5.712 3.193 8.5 2.24 5.357 4.819 10.506 7.522 15.592.1.186.385 0 .3-.192a173.969 173.969 0 0 1-6.374-16.377c-.944-2.789-1.876-5.586-2.728-8.412-.8-2.638-1.249-5.778-2.54-8.166-.556-1.025-1.787-.139-1.746.807z" transform="translate(-98.502 -525.701)" style="fill:#fff"/>
        <path data-name="路径 8437" d="M169.933 566.125q1.541 2.68 3.063 5.375 3.127 5.525 6.222 11.07c4.052 7.3 7.861 14.828 12.353 21.819.036.055.12 0 .094-.061-3.237-7.795-7.232-15.2-10.935-22.732-1.832-3.725-3.634-7.467-5.436-11.209q-1.35-2.805-2.685-5.619c-.819-1.731-1.556-4-3.067-5.127-.9-.672-2.021.055-1.947 1.249.118 1.922 1.431 3.658 2.338 5.235z" transform="translate(-97.344 -535.42)" style="fill:#fff"/>
        <path data-name="路径 8438" d="M313.73 795.335c-.624-1.712-2-2.77-3.2-4-1.36-1.391-2.764-2.73-4.153-4.086-2.707-2.644-5.488-5.2-8.207-7.825-5.293-5.123-10.545-10.363-16.151-15.068-.1-.081-.192.085-.122.174 4.666 5.92 9.81 11.395 14.832 16.944 2.479 2.74 4.9 5.547 7.391 8.271 1.247 1.362 2.48 2.74 3.75 4.074 1.212 1.274 2.411 2.966 4.031 3.545a1.582 1.582 0 0 0 1.829-2.029z" transform="translate(-135.567 -603.965)" style="fill:#fff"/>
        <path data-name="路径 8439" d="M334.583 800.734c-1.155-2.6-3.521-4.711-5.359-6.732q-2.784-3.06-5.7-5.961-6.073-6-12.577-11.441c-8.72-7.278-18-13.676-27.112-20.325-.21-.152-.39.208-.194.367q13.206 10.611 25.894 21.98c4.135 3.706 8.231 7.469 12.167 11.432 1.935 1.948 3.849 3.921 5.717 5.947s3.618 4.652 5.879 6.157c.85.566 1.68-.532 1.285-1.424z" transform="translate(-136.13 -601.259)" style="fill:#fff"/>
        <path data-name="路径 8440" d="M285.966 746.627c-.524-1.68-2.2-3.015-3.435-4.036q-2.109-1.738-4.251-3.423c-1.386-1.087-2.771-2.174-4.178-3.226-1.486-1.109-2.924-2.343-4.484-3.322-.257-.161-.5.208-.309.445 1.176 1.432 2.546 2.672 3.813 4S275.7 739.7 277 741c1.267 1.261 2.55 2.5 3.841 3.731 1.217 1.161 2.779 2.687 4.434 2.9.452.05.825-.559.691-1.004z" transform="translate(-131.342 -593.347)" style="fill:#fff"/>
        <path data-name="路径 8441" d="M345.63 782.257c-.814-1.965-2.966-3.177-4.518-4.364a297.49 297.49 0 0 0-5.254-3.948q-5.178-3.787-10.539-7.268a246.4 246.4 0 0 0-22.486-12.529c-.242-.124-.447.242-.212.4 7.161 4.843 14.031 10.161 21.038 15.266q5.194 3.784 10.337 7.652c1.675 1.26 3.352 2.516 5.014 3.8 1.686 1.3 3.342 3.005 5.453 3.24 1.123.125 1.546-1.333 1.167-2.249z" transform="translate(-142.472 -600.552)" style="fill:#fff"/>
        <path data-name="路径 8442" d="M346.928 762.36c-2.11-1.921-4.778-2.87-7.307-3.911-2.673-1.1-5.354-2.177-8.03-3.267-5.171-2.106-10.326-4.255-15.5-6.349-10.5-4.246-20.963-8.615-31.515-12.706-.2-.079-.342.28-.148.387 9.981 5.549 20.207 10.568 30.484 15.41 5.032 2.371 10.107 4.625 15.194 6.848a496.008 496.008 0 0 0 7.988 3.435c2.562 1.067 5.209 2.361 7.988 2.409a1.36 1.36 0 0 0 .846-2.256z" transform="translate(-136.391 -594.529)" style="fill:#fff"/>
        <path data-name="路径 8443" d="M370.235 760.187a5.782 5.782 0 0 0-2.414-2.187c-1.044-.688-2.121-1.322-3.192-1.956-1.993-1.181-4-2.327-6.062-3.361q-6.413-3.221-13.076-5.769a119.329 119.329 0 0 0-27.095-7.227c-.031 0-.037.052-.007.06a163.927 163.927 0 0 1 26.416 8.838 137.466 137.466 0 0 1 12.532 6.425c2 1.154 4.007 2.3 5.981 3.514 1.064.653 2.108 1.342 3.17 2a5.565 5.565 0 0 0 2.91 1.275 1.089 1.089 0 0 0 .837-1.612z" transform="translate(-147.774 -595.724)" style="fill:#fff"/>
        <path data-name="路径 8444" d="M330.421 734.967c-.793-1.39-2.46-1.734-3.794-2.267q-2.441-.977-4.927-1.78a133.208 133.208 0 0 0-10.323-2.918 113.352 113.352 0 0 0-20.407-3.081c-.2-.01-.255.365-.049.4a137.174 137.174 0 0 1 20.023 4.416 116.844 116.844 0 0 1 9.629 3.43c1.541.63 3.071 1.291 4.6 1.944 1.439.613 3.11 1.835 4.667 1.417a1.105 1.105 0 0 0 .581-1.561z" transform="translate(-138.55 -590.785)" style="fill:#fff"/>
        <path data-name="路径 8445" d="M359.068 726.167a8.453 8.453 0 0 0-3.832-1.6q-2.164-.536-4.347-.972-4.472-.9-9-1.408a102.151 102.151 0 0 0-18.493-.471c-.244.017-.249.421 0 .424a103.812 103.812 0 0 1 18.019 1.649q4.353.818 8.639 2.012 2.145.6 4.268 1.289c1.3.423 2.683 1.083 4.058.923.729-.087 1.426-1.197.688-1.846z" transform="translate(-149.393 -589.638)" style="fill:#fff"/>
        <path data-name="路径 8446" d="M399.778 727.2c-2.473-1.593-5.682-2.377-8.415-3.277-2.949-.972-5.909-1.893-8.908-2.662a96.215 96.215 0 0 0-8.812-1.815 32.028 32.028 0 0 0-9.065-.547.041.041 0 0 0-.009.079 67.157 67.157 0 0 0 8.724 1.87c2.935.58 5.857 1.274 8.753 2.059 2.809.762 5.61 1.611 8.351 2.636q2.188.819 4.345 1.737a34 34 0 0 0 4.311 1.822c1.021.265 1.667-1.302.725-1.902z" transform="translate(-163.217 -588.719)" style="fill:#fff"/>
        <path data-name="路径 8447" d="M357.943 705.089a45.05 45.05 0 0 0-5.784-.678c-2.019-.193-4.032-.411-6.056-.53a106.4 106.4 0 0 0-12.43-.013 87.513 87.513 0 0 0-11.708 1.492q-2.986.583-5.941 1.338a26.592 26.592 0 0 0-5.6 1.762c-.074.038-.037.174.042.17a45.294 45.294 0 0 0 5.493-1.026q3.067-.579 6.158-.97c3.927-.5 7.877-.809 11.827-.96a104.31 104.31 0 0 1 11.6.2c2.021.148 4.051.323 6.058.618s4 .876 6.023 1.139c1.312.169 1.601-2.249.318-2.542z" transform="translate(-145.104 -583.684)" style="fill:#fff"/>
        <path data-name="路径 8448" d="M364.708 688.648c-2.444-.7-5.547.031-8.048.2-2.745.186-5.49.363-8.233.586q-7.945.644-15.858 1.681a211.901 211.901 0 0 0-15.452 2.633c-5.313 1.1-10.889 2.158-16.01 4.087-.055.021-.051.124.015.119 5.228-.405 10.46-1.522 15.669-2.208q8.025-1.056 16.062-1.973 7.914-.893 15.859-1.393c2.647-.166 5.3-.309 7.949-.378 1.325-.034 2.652-.042 3.977-.05a12.81 12.81 0 0 0 4.071-.284 1.633 1.633 0 0 0-.001-3.02z" transform="translate(-141.987 -578.553)" style="fill:#fff"/>
        <path data-name="路径 8449" d="M346.734 670.923c-4.726-.273-9.723.827-14.375 1.7a139.084 139.084 0 0 0-14.325 3.5 249.389 249.389 0 0 0-27.965 10.57 146.161 146.161 0 0 0-15.215 7.178c-.194.113-.061.45.148.387 4.632-1.392 9.145-3.469 13.659-5.265q6.957-2.767 13.991-5.284A199.273 199.273 0 0 1 330.6 675.7c2.742-.547 5.5-1.017 8.267-1.368 2.723-.345 5.466-.427 8.169-.932 1.327-.245.921-2.407-.302-2.477z" transform="translate(-133.188 -572.71)" style="fill:#fff"/>
        <path data-name="路径 8450" d="M368.743 657.229a9.459 9.459 0 0 0-4.372.378 164.72 164.72 0 0 0-5.222 1.227c-3.377.865-6.741 1.788-10.074 2.837q-4.869 1.532-9.686 3.258a98.868 98.868 0 0 0-9.618 3.726c-.216.1-.057.461.155.406 3.277-.841 6.5-2.023 9.755-2.958s6.552-1.808 9.849-2.609c3.207-.779 6.417-1.547 9.641-2.24 1.657-.357 3.314-.717 4.974-1.058 1.611-.331 3.372-.451 4.778-1.452.511-.366.477-1.351-.18-1.515z" transform="translate(-151.553 -568.097)" style="fill:#fff"/>
        <path data-name="路径 8451" d="M325.591 665.2q.813-.333 1.627-.662 1.808-.73 3.625-1.434a11.52 11.52 0 0 0 3.5-1.656c.573-.486.459-1.629-.4-1.618a10.163 10.163 0 0 0-3.644 1.1q-1.938.792-3.865 1.613c-2.3.982-4.585 2-6.849 3.084q-3.528 1.683-7.014 3.47a41.321 41.321 0 0 0-7.29 4.2c-.217.176-.1.578.19.5a50.474 50.474 0 0 0 7.135-3.047q3.681-1.671 7.4-3.23 2.787-1.168 5.581-2.317" transform="translate(-143.36 -569.015)" style="fill:#fff"/>
        <path data-name="路径 8452" d="M338.383 644.163c-2.275.576-4.506 2.472-6.519 3.734l-6.243 3.914c-4.306 2.7-8.687 5.3-12.863 8.243-.192.135-.025.432.175.331 4.515-2.271 8.884-4.918 13.286-7.441l6.38-3.657c2.061-1.181 4.69-2.212 6.371-4.009a.667.667 0 0 0-.587-1.115z" transform="translate(-145.869 -563.769)" style="fill:#fff"/>
        <path data-name="路径 8453" d="M340.3 625c-4.393 1.458-8.5 4.508-12.436 7.065-3.957 2.572-7.851 5.254-11.633 8.132-7.519 5.72-15.24 11.767-21.653 18.987-.064.072.02.2.1.143 7.578-5.672 14.766-11.9 22.525-17.293 3.881-2.7 7.793-5.35 11.774-7.865 3.935-2.486 8.333-4.51 11.95-7.526.678-.573.325-1.963-.627-1.643z" transform="translate(-139.808 -557.349)" style="fill:#fff"/>
        <path data-name="路径 8454" d="M344.443 598.469c-1.322.317-2.355 1.4-3.4 2.3q-1.606 1.366-3.181 2.775-3.317 2.975-6.479 6.156a158.266 158.266 0 0 0-11.992 13.5c-.176.224.106.545.3.329a165.235 165.235 0 0 1 12.391-12.706q3.312-3.031 6.78-5.848 1.63-1.324 3.293-2.6a10.388 10.388 0 0 0 3.048-2.817.728.728 0 0 0-.76-1.089z" transform="translate(-148.096 -548.486)" style="fill:#fff"/>
        <path data-name="路径 8455" d="M240.259 626.817a65.088 65.088 0 0 0-.528-3.715 13.669 13.669 0 0 0-.987-3.707.536.536 0 0 0-1 .3 19.1 19.1 0 0 0 .626 3.822q.381 1.8.729 3.617c.475 2.5.865 5.014 1.224 7.536.036.252.394.184.395-.059a66.555 66.555 0 0 0-.459-7.794z" transform="translate(-120.806 -555.394)" style="fill:#fff"/>
        <path data-name="路径 8456" d="M260.816 619.924a14.732 14.732 0 0 0-.694 3.391c-.138 1.121-.286 2.241-.413 3.363-.259 2.29-.55 4.579-.7 6.882a.173.173 0 0 0 .341.051c.554-2.236.968-4.51 1.411-6.775.221-1.134.425-2.273.634-3.41a14.5 14.5 0 0 0 .335-3.366.464.464 0 0 0-.914-.136z" transform="translate(-127.921 -555.547)" style="fill:#fff"/>
        <path data-name="路径 8457" d="M220.791 644.566c-.148-.38-.309-.752-.473-1.125a3.606 3.606 0 0 0-.262-.545l-.356-.536a.3.3 0 0 0-.534.249 7.123 7.123 0 0 0 .4 1.166c.179.379.355.757.55 1.127.383.725.755 1.453 1.183 2.147a.194.194 0 0 0 .351-.163c-.25-.791-.559-1.552-.859-2.32z" transform="translate(-114.589 -563.124)" style="fill:#fff"/>
        <path data-name="路径 8458" d="M201.208 651.4c-.214-.457-.5-.863-.756-1.3a19.219 19.219 0 0 0-1.857-2.488 14.49 14.49 0 0 0-4.532-4.025.729.729 0 0 0-.819 1.174c1.306 1.482 2.888 2.65 4.279 4.035.682.68 1.293 1.439 1.969 2.122.347.35.644.749.99 1.1.3.306.572.827.987.947a.228.228 0 0 0 .278-.234c.032-.471-.347-.931-.539-1.331z" transform="translate(-105.855 -563.561)" style="fill:#fff"/>
        <path data-name="路径 8459" d="M286.137 643.02a4 4 0 0 0-1.143 1.382 9.563 9.563 0 0 1-.954 1.598 34.312 34.312 0 0 0-1.912 3.088 58.51 58.51 0 0 0-3.054 6.536.2.2 0 0 0 .367.171c1.207-2.035 2.444-4.107 3.835-6 .672-.911 1.3-1.858 1.983-2.759a6.574 6.574 0 0 1 1.107-1.258 5 5 0 0 0 1.162-1.571.924.924 0 0 0-1.391-1.187z" transform="translate(-134.626 -563.313)" style="fill:#fff"/>
        <path data-name="路径 8460" d="M328.131 566.362c-1.7.927-2.886 2.769-4.135 4.3q-1.924 2.352-3.812 4.737-3.87 4.885-7.615 9.887c-4.87 6.528-9.718 13.172-14.01 20.185-.092.15.122.336.23.2 4.974-6.517 9.8-13.156 14.971-19.49q3.835-4.7 7.795-9.264 1.988-2.277 4.008-4.52c1.314-1.459 2.946-2.833 3.744-4.729.363-.874-.378-1.742-1.176-1.306z" transform="translate(-141.141 -537.714)" style="fill:#fff"/>
        <path data-name="路径 8461" d="M339.692 589.611a40.265 40.265 0 0 0-3.911 3.644c-.607.634-1.221 1.261-1.821 1.9-.642.687-1.223 1.411-1.816 2.144-.078.1.025.273.132.19a41.085 41.085 0 0 0 2.02-1.607c.681-.588 1.34-1.208 2.007-1.814a41.1 41.1 0 0 0 3.808-3.856c.259-.301-.085-.867-.419-.601z" transform="translate(-152.372 -545.506)" style="fill:#fff"/>
        <path data-name="路径 8462" d="M311.895 534.743a2.5 2.5 0 0 0-.813.782c-.181.343-.227.741-.41 1.088-.356.672-.753 1.319-1.12 1.984-.759 1.374-1.454 2.789-2.133 4.212a53.317 53.317 0 0 0-3.4 8.532.213.213 0 0 0 .384.179c1.56-2.535 2.919-5.222 4.4-7.819.73-1.281 1.495-2.535 2.242-3.8.385-.654.77-1.309 1.174-1.949a5.653 5.653 0 0 1 .728-.836 2.2 2.2 0 0 0 .429-1.115c.155-.892-.695-1.82-1.481-1.258z" transform="translate(-142.969 -527.121)" style="fill:#fff"/>
        <path data-name="路径 8463" d="M170.712 601.894c-1.4-1.762-2.861-3.462-4.331-5.151-2.874-3.3-5.845-6.505-8.828-9.686s-5.994-6.334-9.073-9.4a88.25 88.25 0 0 0-9.546-8.664c-.59-.437-1.175.508-.731 1.046 2.8 3.386 5.973 6.342 9.047 9.407s6.164 6.137 9.2 9.259c2.971 3.052 5.891 6.162 8.832 9.249 1.471 1.544 2.933 3.1 4.429 4.612a59.733 59.733 0 0 0 4.562 4.529c.132.108.313-.1.225-.248a50.363 50.363 0 0 0-3.786-4.953z" transform="translate(-87.463 -538.595)" style="fill:#fff"/>
        <path data-name="路径 8464" d="M149.977 604.76a185.813 185.813 0 0 0-18.95-14.712c-3.253-2.253-6.569-4.388-9.917-6.463q-2.628-1.629-5.282-3.2c-1.684-1-3.239-2.01-5.191-2.034a1.144 1.144 0 0 0-.819 1.734c1.2 1.7 2.8 2.471 4.514 3.4q2.457 1.339 4.893 2.724c3.49 1.985 6.942 4.05 10.389 6.126 6.8 4.1 13.437 8.5 20.174 12.716.161.102.337-.158.189-.291z" transform="translate(-77.963 -541.762)" style="fill:#fff"/>
        <path data-name="路径 8465" d="M158.673 566.769c-.719-1.362-1.388-2.763-2.1-4.134q-1.038-2-2-4.054c-.678-1.446-1.213-3.1-2.671-3.766a1.035 1.035 0 0 0-1.281.8c-.274 1.726.771 3.141 1.6 4.483q1.216 1.971 2.506 3.883a44.595 44.595 0 0 0 2.651 3.549 22 22 0 0 0 2.939 3.282c.118.094.309-.064.255-.216a30.01 30.01 0 0 0-1.899-3.827z" transform="translate(-91.655 -533.872)" style="fill:#fff"/>
        <path data-name="路径 8466" d="M194.254 701.824a30.67 30.67 0 0 0-7.063-3.993 29.568 29.568 0 0 0-3.8-1.286c-1.179-.3-2.769-.824-3.965-.4a.459.459 0 0 0-.129.778c1.024.659 2.456.653 3.624.894 1.3.268 2.587.55 3.856.936a37.3 37.3 0 0 1 7.382 3.226c.089.054.179-.091.095-.155z" transform="translate(-101.203 -581.107)" style="fill:#fff"/>
        <path data-name="路径 8467" d="M171.45 704.184a30.855 30.855 0 0 0-11.353-4.574 33.63 33.63 0 0 0-6.215-.566c-1.006 0-2.009.047-3.009.148a7.479 7.479 0 0 0-3.1.775.434.434 0 0 0 .128.819 11.547 11.547 0 0 0 2.954-.176c.974-.118 1.955-.2 2.935-.24a32.768 32.768 0 0 1 6.065.31 36.883 36.883 0 0 1 11.525 3.629c.074.034.137-.081.07-.125z" transform="translate(-90.637 -582.13)" style="fill:#fff"/>
        <path data-name="路径 8468" d="M186.979 672.078a30.352 30.352 0 0 0-3.688-1.771q-.948-.382-1.924-.69a3.7 3.7 0 0 0-2.088-.357.586.586 0 0 0-.256.97 3.768 3.768 0 0 0 1.786.564q.94.2 1.866.474a24.09 24.09 0 0 1 3.893 1.513 28.869 28.869 0 0 1 6.762 4.624.062.062 0 0 0 .088-.087 25.432 25.432 0 0 0-6.439-5.24z" transform="translate(-101.109 -572.147)" style="fill:#fff"/>
        <path data-name="路径 8469" d="M249.8 643.038a7.713 7.713 0 0 0-1.824 3.186 34.292 34.292 0 0 0-1.146 3.438 31.21 31.21 0 0 0-.772 3.559 17.457 17.457 0 0 0-.2 1.752c-.041.631.049 1.239.045 1.866 0 .164.267.211.3.04.1-.6.325-1.2.461-1.8.12-.533.239-1.064.368-1.595a31.986 31.986 0 0 1 1.021-3.369 28.519 28.519 0 0 1 1.443-3.256 12.567 12.567 0 0 0 1.482-3.143.706.706 0 0 0-1.178-.678z" transform="translate(-123.517 -563.335)" style="fill:#fff"/>
        <path data-name="路径 8470" d="M320.986 608.728c-1.02-.054-1.927.858-2.692 1.43q-1.266.946-2.479 1.958-2.421 2.023-4.631 4.269a60.984 60.984 0 0 0-7.764 9.727c-.067.1.092.232.174.134a86 86 0 0 1 8.639-8.812 73.65 73.65 0 0 1 4.715-3.849q1.26-.943 2.55-1.847c.816-.571 1.878-1.051 2.224-2.045a.77.77 0 0 0-.736-.965z" transform="translate(-142.768 -551.922)" style="fill:#fff"/>
        <path data-name="路径 8471" d="M165.5 638.29a128.149 128.149 0 0 0-18.029-17.919c-3.312-2.592-6.733-5.019-10.241-7.338-1.773-1.172-3.565-2.318-5.333-3.5-1.636-1.092-3.574-2.7-5.587-2.83-1.646-.105-2.03 1.867-1.209 2.918a7.472 7.472 0 0 0 2.631 1.7c.948.485 1.921.918 2.872 1.4 1.746.88 3.457 1.861 5.127 2.878 3.551 2.162 6.993 4.524 10.341 6.988s6.771 4.844 9.989 7.477 6.309 5.464 9.286 8.38c.107.093.246-.051.153-.154z" transform="translate(-82.996 -551.245)" style="fill:#fff"/>
        <path data-name="路径 8472" d="M120.775 617.8a19.607 19.607 0 0 0-6.657-5.163 31.8 31.8 0 0 0-3.957-1.583q-.979-.313-1.977-.567a2.728 2.728 0 0 0-2.212.033.78.78 0 0 0-.276 1.054 2.515 2.515 0 0 0 1.677.941q1 .238 1.986.537a36.734 36.734 0 0 1 3.839 1.4c1.223.526 2.428 1.089 3.654 1.608 1.3.55 2.528 1.287 3.794 1.911a.107.107 0 0 0 .129-.171z" transform="translate(-76.607 -552.436)" style="fill:#fff"/>
        <path data-name="路径 8473" d="M371.622 648.44a2.556 2.556 0 0 0-.818-.05q-.292.04-.583.087c-.339.055-.678.111-1.01.2a13.755 13.755 0 0 0-2.22.78 18.45 18.45 0 0 0-1.937.994c-.313.192-.617.4-.916.611-.325.23-.6.528-.928.747a.12.12 0 0 0 .121.206 6.684 6.684 0 0 1 1.082-.3c.33-.082.654-.183.986-.262.7-.166 1.37-.365 2.078-.474.645-.1 1.281-.243 1.929-.326a9.408 9.408 0 0 0 2.217-.391.985.985 0 0 0 .694-.912.947.947 0 0 0-.695-.91z" transform="translate(-162.752 -565.183)" style="fill:#fff"/>
    </g>
</svg>
