<svg xmlns="http://www.w3.org/2000/svg" width="203.669" height="205.68" viewBox="0 0 203.669 205.68">
    <g data-name="组 51">
        <path data-name="路径 8474" d="M913.237 716.655a21.2 21.2 0 0 0-4.132-5.468 63.939 63.939 0 0 0-5.14-4.53c-.894-.754-1.93 1.072-.9 1.7a35.009 35.009 0 0 1 5.13 4.1c1.61 1.471 3.064 3.155 4.742 4.528.19.157.392-.135.3-.33z" transform="translate(-821.78 -610.734)" style="fill:#f7b52c"/>
        <path data-name="路径 8475" d="M915.877 726.356a16.145 16.145 0 0 0-4.926.191 19.668 19.668 0 0 0-2.36.611 7.381 7.381 0 0 0-2.446 1.076 1.412 1.412 0 0 0-.487 1.641 1.157 1.157 0 0 0 1.4.761 15.655 15.655 0 0 0 2.2-1.26 18.452 18.452 0 0 1 2.139-1.046 26.884 26.884 0 0 1 4.549-1.429c.296-.062.193-.516-.069-.545z" transform="translate(-822.781 -617.5)" style="fill:#f7b52c"/>
        <path data-name="路径 8476" d="M920.782 735.912a4.371 4.371 0 0 0-1.726.955 16.643 16.643 0 0 0-1.619 1.477c-.481.516-.975 1.037-1.407 1.6a7.3 7.3 0 0 0-.752 1.065c-.088.176-.15.376-.22.56a1.859 1.859 0 0 0-.064.979.871.871 0 0 0 1.062.667c.805-.186 1.268-1.1 1.7-1.8.383-.609.735-1.241 1.124-1.845.376-.583.723-1.186 1.087-1.778a6.544 6.544 0 0 0 .85-1.846.034.034 0 0 0-.035-.034z" transform="translate(-825.997 -620.806)" style="fill:#f7b52c"/>
        <path data-name="路径 8477" d="M922.811 740.092a29.79 29.79 0 0 0-1.956 2.452 19.087 19.087 0 0 0-1.708 2.555 28.187 28.187 0 0 0-2.188 6.173c-.238 1.018-.637 2.565-.011 3.491a1.029 1.029 0 0 0 1.2.451c.625-.209.933-1.005 1.1-1.645.262-1.028.384-2.1.629-3.137.253-1.071.561-2.129.875-3.18a44.149 44.149 0 0 1 2.461-6.822c.125-.273-.197-.57-.402-.338z" transform="translate(-826.563 -622.208)" style="fill:#f7b52c"/>
        <path data-name="路径 8478" d="M934.973 743.637c-.111-.98-.257-1.95-.409-2.924a107.476 107.476 0 0 0-1.014-5.443c-.079-.378-.566-.269-.586.087-.107 1.879-.194 3.743-.206 5.625-.006.922-.012 1.839.02 2.759a11.018 11.018 0 0 0 .139 1.488 6.428 6.428 0 0 0 .466 1.391.766.766 0 0 0 1.435-.207 7.518 7.518 0 0 0 .155-2.776z" transform="translate(-832.087 -620.506)" style="fill:#f7b52c"/>
        <path data-name="路径 8479" d="M950.663 735.551c-.353-.369-.705-.739-1.068-1.1a30.7 30.7 0 0 0-2.315-2.063 24.721 24.721 0 0 0-5.068-3.134.323.323 0 0 0-.3.57 31.274 31.274 0 0 1 4.4 3.825q1.006 1.049 1.914 2.2c.278.354.554.71.805 1.087.371.555.652 1.143 1.292 1.351a1.04 1.04 0 0 0 1.276-1.074 2.62 2.62 0 0 0-.936-1.662z" transform="translate(-835.17 -618.519)" style="fill:#f7b52c"/>
        <path data-name="路径 8480" d="M966.187 725.394a3.869 3.869 0 0 0-2.085-.382l-1.893-.08q-2.131-.089-4.26-.206c-2.8-.152-5.56-.267-8.363-.184-.289.009-.377.512-.071.58 2.7.595 5.386.994 8.119 1.36 1.368.184 2.736.368 4.1.569l2.052.3a4.17 4.17 0 0 0 2.16.073 1.175 1.175 0 0 0 .241-2.03z" transform="translate(-837.757 -616.906)" style="fill:#f7b52c"/>
        <path data-name="路径 8481" d="M956.942 700.679a1.819 1.819 0 0 0-.839.4q-1.469 1.019-2.863 2.166a31.808 31.808 0 0 0-2.947 2.781c-.226.241.074.7.343.491a57.85 57.85 0 0 1 5.822-3.968c.47-.276 1.288-.587 1.182-1.331a.629.629 0 0 0-.698-.539z" transform="translate(-838.062 -608.748)" style="fill:#f7b52c"/>
        <path data-name="路径 8482" d="M965.931 706.917a1.254 1.254 0 0 0-1.686-.852 3.38 3.38 0 0 0-.922.649c-.442.362-.878.739-1.331 1.085-.482.368-.972.724-1.458 1.085a6.02 6.02 0 0 0-1.349 1.251c-.175.241-.089.71.255.682a11.1 11.1 0 0 0 3.245-1.2c.5-.214 1.014-.395 1.519-.59a6.017 6.017 0 0 0 1.012-.413 1.607 1.607 0 0 0 .715-1.697z" transform="translate(-841.102 -610.565)" style="fill:#f7b52c"/>
        <path data-name="路径 8483" d="M981.306 669.8a7.476 7.476 0 0 0-2.308 1.88q-.946.955-1.867 1.941-1.846 1.977-3.583 4.076a104.752 104.752 0 0 0-6.388 8.735c-.2.3.239.669.468.4A84.125 84.125 0 0 1 975 679.3q1.86-1.7 3.809-3.279 1.031-.833 2.084-1.631a8.471 8.471 0 0 0 2.225-1.989c.799-1.221-.542-3.113-1.812-2.601z" transform="translate(-843.843 -598.154)" style="fill:#f7b52c"/>
        <path data-name="路径 8484" d="M953.384 676.977a1.46 1.46 0 0 0-.6-.387 1.337 1.337 0 0 0-1.537.691 32.193 32.193 0 0 0-2.025 4.141c-.662 1.39-1.34 2.769-1.987 4.168s-1.278 2.809-1.892 4.226a22.985 22.985 0 0 0-1.531 4.216c-.08.375.374.743.63.405a27.71 27.71 0 0 0 2.214-3.773q1.077-2.029 2.2-4.027c.749-1.333 1.5-2.669 2.3-3.968a45.519 45.519 0 0 0 2.444-3.869 1.67 1.67 0 0 0-.216-1.823z" transform="translate(-835.867 -600.482)" style="fill:#f7b52c"/>
        <path data-name="路径 8485" d="M937.295 697.9a5.293 5.293 0 0 0 .007-2.269.447.447 0 0 0-.833-.12 4.593 4.593 0 0 0-.432 2.39q-.054 1.161-.038 2.324a31.241 31.241 0 0 0 .508 4.743.344.344 0 0 0 .678-.1c-.089-1.551-.047-3.089-.012-4.641q.027-1.169.122-2.327z" transform="translate(-833.196 -606.899)" style="fill:#f7b52c"/>
        <path data-name="路径 8486" d="m926.759 680.682-.972-3.526c-.284-1.029-.549-2.914-1.54-3.4a.882.882 0 0 0-1.246.361c-.555 1.187.257 2.7.668 3.82l1.264 3.436c.858 2.334 1.877 4.6 2.909 6.845.159.347.614.1.545-.255-.475-2.439-.969-4.891-1.628-7.281z" transform="translate(-828.685 -599.497)" style="fill:#f7b52c"/>
        <path data-name="路径 8487" d="M920.228 685.639c-1.118-2.3-2.327-4.537-3.527-6.786-.591-1.108-1.237-2.175-1.873-3.252-.624-1.056-1.289-2.457-2.427-2.9-.488-.189-.994.305-.994.837 0 1.27.974 2.409 1.633 3.357.739 1.064 1.467 2.136 2.25 3.161 1.512 1.979 3.011 3.965 4.593 5.876.173.211.46-.056.345-.293z" transform="translate(-824.782 -599.162)" style="fill:#f7b52c"/>
        <path data-name="路径 8488" d="M923.066 703.529a28.22 28.22 0 0 0-.758-2.373c-.3-.833-.59-1.966-1.438-2.284a.668.668 0 0 0-.811.509c-.285.822.307 1.812.614 2.537.321.76.626 1.525.959 2.279.66 1.492 1.228 3.026 1.912 4.5a.281.281 0 0 0 .526-.158 32.741 32.741 0 0 0-1.004-5.01z" transform="translate(-827.717 -608.12)" style="fill:#f7b52c"/>
        <path data-name="路径 8489" d="M912.485 700.02a42.14 42.14 0 0 0-4.172-7.44 32.56 32.56 0 0 0-2.617-3.348q-.708-.776-1.448-1.514a7.015 7.015 0 0 0-.895-.81 2.165 2.165 0 0 0-1.391-.328 1.3 1.3 0 0 0-1.136 1.647 2.822 2.822 0 0 0 .508 1.232 6.191 6.191 0 0 0 .906.792c.49.389.978.783 1.451 1.2 1.024.9 2.051 1.8 3.035 2.746a53 53 0 0 1 5.388 6.142c.186.238.479-.069.371-.319z" transform="translate(-821.147 -603.924)" style="fill:#f7b52c"/>
        <path data-name="路径 8490" d="M858.538 671.514c-4.309-5.106-10.242-8.846-15.694-12.253q-4.162-2.6-8.481-4.873c-2.8-1.474-5.892-3.649-9.051-3.746a1.445 1.445 0 0 0-.9 2.4c2.35 2.081 5.522 2.768 8.291 4a123.358 123.358 0 0 1 8.962 4.449c5.713 3.117 11.036 7.176 16.816 10.107a.051.051 0 0 0 .057-.084z" transform="translate(-794.88 -591.626)" style="fill:#f7b52c"/>
        <path data-name="路径 8491" d="M859.9 678.614a45.907 45.907 0 0 0-10.067-7.067q-2.644-1.5-5.356-2.848a21.2 21.2 0 0 0-5.809-2.34.855.855 0 0 0-.593 1.554 30.026 30.026 0 0 0 5.308 2.528c1.955.87 3.894 1.776 5.808 2.753 3.544 1.808 7.007 3.992 10.647 5.537.062.025.11-.071.062-.117z" transform="translate(-799.559 -597.001)" style="fill:#f7b52c"/>
        <path data-name="路径 8492" d="M856.709 689.34A103.6 103.6 0 0 0 835 674.667q-5.52-2.913-11.256-5.274c-2.113-.868-4.231-1.721-6.369-2.508-1.943-.716-4.072-1.8-6.148-1.53a1.452 1.452 0 0 0-.642 2.619c1.608 1.269 3.715 1.5 5.6 2.048 2.047.593 4.086 1.225 6.1 1.946a131.331 131.331 0 0 1 11.973 4.976c7.715 3.655 14.871 8.269 22.155 12.831.231.151.523-.228.296-.435z" transform="translate(-790.073 -596.647)" style="fill:#f7b52c"/>
        <path data-name="路径 8493" d="M815.2 679.056a87.762 87.762 0 0 0-8.211-3.236c-1.384-.474-2.785-.887-4.179-1.323a16.394 16.394 0 0 0-4.234-1.085 1.414 1.414 0 0 0-.627 2.558 16.381 16.381 0 0 0 4.18 1.254c1.473.354 2.942.732 4.422 1.043a86.639 86.639 0 0 0 8.573 1.4c.351.04.347-.489.076-.611z" transform="translate(-785.75 -599.418)" style="fill:#f7b52c"/>
        <path data-name="路径 8494" d="M826.256 699.761q-2.119-.565-4.253-1.069c-2.652-.629-5.313-1.235-8-1.631q-4.212-.622-8.444-1.049c-2.813-.281-5.8-.949-8.524.089a1.632 1.632 0 0 0 0 3.012c2.682 1.093 5.7.592 8.524.629q4.068.052 8.132.294c2.7.161 5.4.23 8.1.4q2.173.14 4.343.332a14.738 14.738 0 0 0 3.714.194c.014 0 .015-.025 0-.032a13.175 13.175 0 0 0-3.592-1.169z" transform="translate(-785.299 -606.991)" style="fill:#f7b52c"/>
        <path data-name="路径 8495" d="M822.37 706.64a138.29 138.29 0 0 0-19.472-1.474c-3.232-.045-6.469.045-9.7.212q-2.6.135-5.2.367a9.847 9.847 0 0 0-4.418.973 1.646 1.646 0 0 0 .337 2.855 10.707 10.707 0 0 0 4.51-.323c1.588-.277 3.179-.537 4.774-.766 3.223-.464 6.456-.795 9.7-1.062a178.485 178.485 0 0 1 19.414-.3c.237.002.305-.442.055-.482z" transform="translate(-780.807 -610.281)" style="fill:#f7b52c"/>
        <path data-name="路径 8496" d="M796.268 719.713a39.47 39.47 0 0 0-8.5 1.573 38.1 38.1 0 0 0-4.034 1.426c-1.212.524-3.3 1.112-3.9 2.523-.266.63-.091 1.547.628 1.708 1.383.311 2.8-.846 4.018-1.474 1.277-.662 2.544-1.346 3.847-1.946 2.614-1.2 5.308-2.3 8.011-3.23.277-.093.243-.605-.07-.58z" transform="translate(-779.717 -615.262)" style="fill:#f7b52c"/>
        <path data-name="路径 8497" d="M850.387 726.231a34.674 34.674 0 0 0-7.05-.245c-2.335.018-4.675.052-7.007.18s-4.668.286-6.984.589c-2.178.285-5.229.178-7.029 1.705a1.417 1.417 0 0 0 .288 2.442c2.044.752 4.572-.234 6.629-.614 2.39-.441 4.77-.938 7.159-1.383 2.292-.427 4.579-.873 6.877-1.254a52.156 52.156 0 0 0 7.117-1.22c.084-.026.095-.181 0-.2z" transform="translate(-794.101 -617.39)" style="fill:#f7b52c"/>
        <path data-name="路径 8498" d="M831.711 735.157a53.617 53.617 0 0 0-13.133 1.371 46.617 46.617 0 0 0-6.443 1.733 17.393 17.393 0 0 0-5.947 3.1c-1.014.9.145 2.262 1.115 2.117a26.9 26.9 0 0 0 6.069-2.161c2.007-.826 4-1.683 6.035-2.42 4.047-1.465 8.192-2.441 12.334-3.5.124-.034.091-.235-.03-.24z" transform="translate(-788.641 -620.537)" style="fill:#f7b52c"/>
        <path data-name="路径 8499" d="M821.122 747c-4.157-.059-8.5 1.208-12.486 2.383a96.346 96.346 0 0 0-6.142 2.012c-1.878.693-4.138 1.307-5.56 2.918-.415.47-.129 1.379.505 1.348 1.906-.095 3.69-1.283 5.406-2.092a77.131 77.131 0 0 1 6.183-2.612c3.982-1.47 8.148-2.3 12.114-3.785.082-.03.071-.172-.02-.172z" transform="translate(-785.542 -624.601)" style="fill:#f7b52c"/>
        <path data-name="路径 8500" d="M889.186 731.969a40.433 40.433 0 0 0-4.061-.17 25.239 25.239 0 0 0-3.828.57c-2.467.54-5.308 1.206-7.329 2.946-.568.488.083 1.26.619 1.174a19.993 19.993 0 0 0 3.632-1.2c1.16-.424 2.334-.822 3.517-1.164s2.371-.627 3.562-.922a36.238 36.238 0 0 1 3.889-.941c.165-.02.175-.286-.001-.293z" transform="translate(-811.894 -619.392)" style="fill:#f7b52c"/>
        <path data-name="路径 8501" d="M904.164 741.1a19.136 19.136 0 0 0-5.07 3.1 20.932 20.932 0 0 0-2.158 2.117 14.577 14.577 0 0 0-.988 1.254 5.4 5.4 0 0 0-.726 1.462c-.128.383.35.82.658.558a7.1 7.1 0 0 0 1.014-1.019c.31-.388.615-.782.928-1.167a30.824 30.824 0 0 1 1.972-2.212 30.041 30.041 0 0 1 4.49-3.772c.145-.107.052-.398-.12-.321z" transform="translate(-819.236 -622.576)" style="fill:#f7b52c"/>
        <path data-name="路径 8502" d="M863.226 746.623a15.815 15.815 0 0 0-5.992.518c-2.1.457-4.207.989-6.27 1.638a52.433 52.433 0 0 0-6.055 2.384c-1.779.815-4.009 1.883-5.14 3.695a.827.827 0 0 0 .637 1.227 9.072 9.072 0 0 0 2.989-.737 19.076 19.076 0 0 0 2.669-1.156c1.921-.924 3.867-1.756 5.816-2.606s3.895-1.63 5.882-2.33a24.979 24.979 0 0 0 5.508-2.268c.122-.08.116-.336-.044-.365z" transform="translate(-800.227 -624.428)" style="fill:#f7b52c"/>
        <path data-name="路径 8503" d="M844.6 759.363c-1.673.007-3.532.929-5.054 1.631a51.428 51.428 0 0 0-5.056 2.727 67.159 67.159 0 0 0-4.8 3.185 22.513 22.513 0 0 0-4.541 4 .719.719 0 0 0 .808 1.158 25.673 25.673 0 0 0 4.491-3.363c1.493-1.258 2.977-2.524 4.529-3.694a41.87 41.87 0 0 1 4.637-3.055 45.19 45.19 0 0 1 2.342-1.241 20.456 20.456 0 0 0 2.658-1.283c.027-.018.017-.065-.014-.065z" transform="translate(-795.201 -628.831)" style="fill:#f7b52c"/>
        <path data-name="路径 8504" d="M857.374 753.7a93.006 93.006 0 0 0-18.056 9.991c-2.914 1.991-5.822 4-8.653 6.132-2.715 2.045-5.854 4.062-7.9 6.945-.626.88.132 2.152 1.113 1.594 2.926-1.664 5.349-4.434 7.942-6.65 2.685-2.294 5.43-4.506 8.288-6.529 5.643-3.992 11.558-7.533 17.37-11.214.127-.085.042-.331-.104-.269z" transform="translate(-794.37 -626.889)" style="fill:#f7b52c"/>
        <path data-name="路径 8505" d="M868.682 759.379c-2.893 1.8-5.5 4.492-8.022 6.851-2.629 2.456-5.2 4.987-7.735 7.556s-5.076 5.133-7.583 7.737c-1.225 1.272-2.411 2.581-3.583 3.913s-2.662 2.723-3.027 4.591c-.149.764.477 1.712 1.255 1.388 1.591-.664 2.54-2.2 3.594-3.608 1.075-1.434 2.165-2.855 3.243-4.288 2.2-2.928 4.484-5.78 6.891-8.5a198.237 198.237 0 0 1 7.25-7.734c2.553-2.59 5.458-4.975 7.773-7.823.036-.045-.008-.112-.056-.083z" transform="translate(-799.905 -628.834)" style="fill:#f7b52c"/>
        <path data-name="路径 8506" d="M886.143 759.269a108.828 108.828 0 0 0-8.643 7.947c-1.369 1.4-2.731 2.809-4.045 4.271a28.644 28.644 0 0 0-3.786 4.714c-.205.357.22.874.548.606a35.752 35.752 0 0 0 3.894-4.123c1.341-1.51 2.676-3.027 4.041-4.512 2.688-2.925 5.408-5.818 8.124-8.713.088-.093-.031-.275-.133-.19z" transform="translate(-810.481 -628.791)" style="fill:#f7b52c"/>
        <path data-name="路径 8507" d="M882.214 763.768a34.495 34.495 0 0 0-5.525 4.482c-1.892 1.667-3.723 3.409-5.535 5.183-3.613 3.538-7.115 7.223-10.546 10.976s-6.783 7.585-10.043 11.511c-1.629 1.963-3.192 4-4.728 6.048a147.046 147.046 0 0 0-2.262 3.125 17.28 17.28 0 0 0-2.052 3.165c-.632 1.508.891 2.832 2.059 1.756a19.329 19.329 0 0 0 2.321-3.05c.75-1.045 1.51-2.083 2.26-3.127 1.5-2.093 3.042-4.155 4.564-6.231q4.427-6.036 9.2-11.736c3.182-3.792 6.489-7.442 9.87-11.017 1.742-1.843 3.517-3.647 5.27-5.477a51.557 51.557 0 0 0 5.194-5.538c.028-.038-.005-.094-.047-.07z" transform="translate(-800.816 -630.337)" style="fill:#f7b52c"/>
        <path data-name="路径 8508" d="M898.434 768.19q-3.516 3.669-6.726 7.665-1.585 1.971-3.132 3.975a18.628 18.628 0 0 0-2.956 4.175c-.211.532.256 1.267.795.879a17.863 17.863 0 0 0 3.23-3.872q1.578-2.092 3.123-4.211 3.02-4.152 5.7-8.58c.018-.021-.015-.051-.034-.031z" transform="translate(-815.939 -631.849)" style="fill:#f7b52c"/>
        <path data-name="路径 8509" d="M906.83 764.613c-1.837 2.545-3.547 5.192-5.178 7.9a118.197 118.197 0 0 0-2.4 4.159 28.1 28.1 0 0 0-2.072 4.313.382.382 0 0 0 .688.321 44.855 44.855 0 0 0 2.26-4.247 209.974 209.974 0 0 1 2.165-4.129c1.5-2.768 3.1-5.472 4.729-8.153.083-.125-.103-.288-.192-.164z" transform="translate(-819.906 -630.613)" style="fill:#f7b52c"/>
        <path data-name="路径 8510" d="M901.011 781.918c-2.868 5.466-5.734 10.907-8.258 16.581-1.207 2.715-2.375 5.463-3.429 8.255-1.1 2.909-2.515 5.894-2.619 9.057a1.055 1.055 0 0 0 1.975.591 8.923 8.923 0 0 0 1.131-1.975c.243-.618.45-1.249.66-1.881.491-1.485.983-2.968 1.493-4.445.987-2.865 1.937-5.745 2.932-8.605 2.031-5.832 4.085-11.681 6.481-17.344.114-.266-.226-.499-.366-.234z" transform="translate(-816.329 -636.51)" style="fill:#f7b52c"/>
        <path data-name="路径 8511" d="M870.245 819.3a12.655 12.655 0 0 1-1.206 2.093c-.352.62-.673 1.256-.993 1.9a89.659 89.659 0 0 0-3.581 8.168 11.925 11.925 0 0 0-1.187 4.313c.007.573.7.953 1.072.491a12.913 12.913 0 0 0 1.755-4.04c.467-1.368.944-2.732 1.406-4.1s.935-2.725 1.4-4.089c.231-.68.474-1.354.69-2.041a13.678 13.678 0 0 1 .826-2.6c.073-.142-.127-.254-.182-.095z" transform="translate(-808.312 -649.315)" style="fill:#f7b52c"/>
        <path data-name="路径 8512" d="M907.73 786.358c-1.9 5.559-3.522 11.238-5.108 16.912-.781 2.793-1.564 5.584-2.312 8.388-.742 2.779-1.675 5.532-1.767 8.449a.585.585 0 0 0 1.1.329 35.723 35.723 0 0 0 2.442-7.953c.716-2.907 1.4-5.824 2.082-8.741 1.346-5.746 2.66-11.518 3.687-17.345.012-.091-.095-.123-.124-.039z" transform="translate(-820.379 -638.052)" style="fill:#f7b52c"/>
        <path data-name="路径 8513" d="M912.423 794.03c-1.079 6.494-2.471 12.928-3.605 19.412-.561 3.205-1.154 6.4-1.735 9.605q-.435 2.4-.881 4.8a13.828 13.828 0 0 0-.414 4.451.583.583 0 0 0 1.091.158 13.371 13.371 0 0 0 1.173-4.328q.427-2.406.84-4.814c.561-3.3 1.074-6.618 1.58-9.933.979-6.409 1.538-12.862 2.276-19.3a.164.164 0 0 0-.325-.051z" transform="translate(-822.837 -640.65)" style="fill:#f7b52c"/>
        <path data-name="路径 8514" d="M927.608 771.356a70.095 70.095 0 0 0-.168-2.828 20.86 20.86 0 0 0-.144-1.361 2.01 2.01 0 0 0-.28-.979.045.045 0 0 0-.067 0 2.022 2.022 0 0 0-.339.979c-.1.471-.159.931-.228 1.409-.134.92-.226 1.852-.312 2.78s-.139 1.886-.207 2.828c-.035.488-.063.976-.082 1.466a5.086 5.086 0 0 0 .212 1.467.7.7 0 0 0 1.378 0 5.083 5.083 0 0 0 .283-1.467c.009-.489.008-.976 0-1.466-.014-.942-.012-1.884-.046-2.828z" transform="translate(-829.7 -631.162)" style="fill:#f7b52c"/>
        <path data-name="路径 8515" d="M939.847 781.316a107.66 107.66 0 0 0-.674-2.2c-.465-1.474-.922-2.961-1.5-4.385-.037-.092-.187-.049-.176.053.182 1.546.493 3.077.791 4.6.149.756.3 1.512.464 2.266a7.48 7.48 0 0 0 .741 2.308.43.43 0 0 0 .805-.241 7.649 7.649 0 0 0-.451-2.401z" transform="translate(-833.711 -634.072)" style="fill:#f7b52c"/>
        <path data-name="路径 8516" d="M944.45 761.81c-.088-.6-.184-1.191-.28-1.785-.176-1.1-.379-2.2-.572-3.3s-.4-2.193-.612-3.286a19.115 19.115 0 0 0-.762-3.255.046.046 0 0 0-.086.012 19.521 19.521 0 0 0 .063 3.36q.088 1.675.214 3.346c.083 1.115.155 2.233.256 3.346.054.6.109 1.2.168 1.8.024.241.091.514.1.753a2.408 2.408 0 0 0 .105.77.8.8 0 0 0 1.573-.235 7.175 7.175 0 0 0-.167-1.526z" transform="translate(-835.278 -625.682)" style="fill:#f7b52c"/>
        <path data-name="路径 8517" d="M950.672 754.529c-.182-.833-.364-1.675-.623-2.483s-.491-1.643-.792-2.437c-.31-.82-.666-1.616-.986-2.431-.086-.22-.4-.062-.344.161.208.829.35 1.681.482 2.529s.312 1.687.413 2.544.241 1.683.338 2.529a4.311 4.311 0 0 0 .676 2.446.54.54 0 0 0 .887-.126 4.253 4.253 0 0 0-.051-2.732z" transform="translate(-837.276 -624.625)" style="fill:#f7b52c"/>
        <path data-name="路径 8518" d="M955.8 817.592c-.42-1.489-.86-2.97-1.3-4.453q-1.274-4.322-2.617-8.614c-1.787-5.72-3.517-11.525-5.635-17.106a.182.182 0 1 0-.348.107c1.088 5.912 2.613 11.769 4.047 17.589q1.046 4.247 2.154 8.47c.395 1.5.783 2.994 1.195 4.484.348 1.257.506 2.962 1.479 3.808a.954.954 0 0 0 1.627-.474c.373-1.276-.256-2.583-.602-3.811z" transform="translate(-836.585 -638.385)" style="fill:#f7b52c"/>
        <path data-name="路径 8519" d="m934.517 819.536-.276-4.946c-.19-3.391-.422-6.779-.643-10.167-.437-6.7-1.143-13.376-1.759-20.059-.021-.228-.331-.239-.33 0 .034 6.686-.023 13.375.19 20.059.105 3.3.2 6.6.333 9.892l.2 4.946a15.782 15.782 0 0 0 .61 4.9c.278.746 1.264.881 1.5 0a14.547 14.547 0 0 0 .175-4.625z" transform="translate(-831.661 -637.327)" style="fill:#f7b52c"/>
        <path data-name="路径 8520" d="M945.528 849.1c-.157-1.449-.328-2.9-.5-4.344-.353-3-.779-6-1.214-8.985-.874-5.993-2-11.918-3.028-17.88a.188.188 0 0 0-.37.055c.571 6.027.9 12.09 1.353 18.13.222 2.984.418 5.969.657 8.951.115 1.448.22 2.9.335 4.345a14.1 14.1 0 0 0 .705 4.474 1.173 1.173 0 0 0 2.2-.317 13.478 13.478 0 0 0-.138-4.429z" transform="translate(-834.709 -648.807)" style="fill:#f7b52c"/>
        <path data-name="路径 8521" d="M926.457 832.34c-.075-2.569-.142-5.137-.262-7.7-.239-5.133-.291-10.291-.751-15.407a.071.071 0 1 0-.141 0c-.459 5.116-.51 10.273-.75 15.407-.12 2.567-.187 5.135-.261 7.7-.059 2.025-.674 4.972.528 6.666a.733.733 0 0 0 1.11 0c1.21-1.706.587-4.623.527-6.666z" transform="translate(-829.119 -645.87)" style="fill:#f7b52c"/>
        <path data-name="路径 8522" d="M970.789 831.641q-.492-1.652-1-3.3-.938-3.04-1.91-6.066c-1.378-4.291-2.907-8.528-4.442-12.754-1.469-4.045-2.968-8.081-4.559-12.071a100.867 100.867 0 0 0-5.362-12.2.048.048 0 0 0-.086.04c1.033 4.252 2.665 8.4 4.049 12.525 1.4 4.172 2.8 8.342 4.137 12.538S964.2 818.787 965.5 823q.935 3.038 1.839 6.088.451 1.525.9 3.052c.309 1.054.455 2.245 1.262 2.965a1 1 0 0 0 1.706-.5 5.216 5.216 0 0 0-.418-2.964z" transform="translate(-839.161 -637.682)" style="fill:#f7b52c"/>
        <path data-name="路径 8523" d="M979.286 816.578q-1.309-2.586-2.6-5.18-2.767-5.542-5.47-11.123c-3.561-7.353-6.993-14.791-10.8-22a.024.024 0 0 0-.043.02c2.763 7.711 6.073 15.166 9.416 22.585q2.5 5.553 5.064 11.074 1.336 2.879 2.688 5.75a19.83 19.83 0 0 0 2.932 5.2c.529.574 1.337-.014 1.194-.768a21.333 21.333 0 0 0-2.381-5.558z" transform="translate(-841.536 -635.3)" style="fill:#f7b52c"/>
        <path data-name="路径 8524" d="M1001.685 843.282a13.952 13.952 0 0 0-1.26-3.333 112.224 112.224 0 0 0-1.593-3.4c-1.126-2.325-2.3-4.618-3.575-6.849-2.448-4.289-5.163-8.359-7.978-12.361-.1-.147-.329.045-.234.2a144.967 144.967 0 0 1 7.079 13.171c1.086 2.261 2.16 4.53 3.171 6.833.943 2.15 1.645 4.77 2.986 6.646.576.8 1.535-.107 1.404-.907z" transform="translate(-850.658 -648.652)" style="fill:#f7b52c"/>
        <path data-name="路径 8525" d="M993.833 809.086q-1.584-2.1-3.152-4.2-3.22-4.324-6.415-8.668c-4.187-5.725-8.19-11.667-12.72-17.073-.036-.043-.1.013-.074.063 3.542 6.244 7.692 12.063 11.6 18.025q2.9 4.423 5.759 8.882 1.433 2.225 2.854 4.458c.872 1.373 1.729 3.221 3.13 3.991.838.461 1.717-.295 1.533-1.3-.291-1.628-1.584-2.946-2.515-4.178z" transform="translate(-845.334 -635.594)" style="fill:#f7b52c"/>
        <path data-name="路径 8526" d="M965.547 640.17c3.484-5.01 6.963-10 10.129-15.261 1.515-2.519 3-5.077 4.368-7.695 1.429-2.728 3.183-5.485 3.657-8.607a1.068 1.068 0 0 0-1.889-.868 8.642 8.642 0 0 0-1.353 1.8c-.312.579-.592 1.174-.874 1.771-.661 1.4-1.323 2.8-2 4.193-1.314 2.7-2.593 5.419-3.916 8.113-2.7 5.493-5.418 11-8.457 16.271-.144.247.166.526.335.283z" transform="translate(-843.181 -576.812)" style="fill:#f7b52c"/>
        <path data-name="路径 8527" d="M962.173 635.194c2.531-5.241 4.808-10.639 7.045-16.039 1.1-2.657 2.2-5.314 3.274-7.986 1.061-2.649 2.308-5.246 2.742-8.125a.593.593 0 0 0-1.05-.483 34.844 34.844 0 0 0-3.352 7.537c-1.051 2.781-2.069 5.575-3.088 8.37-2.007 5.505-3.986 11.04-5.687 16.672-.026.086.078.133.116.054z" transform="translate(-842.113 -575.09)" style="fill:#f7b52c"/>
        <path data-name="路径 8528" d="M959.6 624.629c1.831-6.285 3.964-12.466 5.848-18.733.932-3.1 1.895-6.185 2.844-9.276q.713-2.32 1.437-4.635a13.676 13.676 0 0 0 .931-4.355.589.589 0 0 0-1.063-.312 13.049 13.049 0 0 0-1.67 4.123q-.705 2.325-1.4 4.654c-.943 3.2-1.84 6.409-2.73 9.624-1.721 6.215-3.031 12.534-4.516 18.816-.041.197.264.289.319.094z" transform="translate(-841.165 -569.876)" style="fill:#f7b52c"/>
        <path data-name="路径 8529" d="M919.5 596.444c.241 1.537.5 3.069.764 4.6q.757 4.467 1.587 8.916c1.1 5.927 2.138 11.93 3.585 17.768a.181.181 0 1 0 .357-.055c-.386-6.018-1.213-12.044-1.954-18.02q-.541-4.36-1.145-8.707c-.216-1.54-.426-3.081-.66-4.618-.2-1.3-.156-3.009-1.02-3.988a.945.945 0 0 0-1.669.238c-.515 1.214-.045 2.599.155 3.866z" transform="translate(-827.418 -571.539)" style="fill:#f7b52c"/>
        <path data-name="路径 8530" d="m944.135 595.177-.305 4.944c-.21 3.39-.375 6.782-.553 10.173-.351 6.708-.433 13.427-.6 20.141-.006.23.3.285.327.047.75-6.635 1.589-13.259 2.16-19.917.282-3.285.578-6.569.828-9.856l.376-4.934a15.861 15.861 0 0 0-.032-4.945c-.188-.779-1.151-1.054-1.487-.214a14.461 14.461 0 0 0-.714 4.561z" transform="translate(-835.481 -570.91)" style="fill:#f7b52c"/>
        <path data-name="路径 8531" d="M936.1 566.127c-.014 1.46-.014 2.919-.014 4.379 0 3.029.07 6.056.153 9.083.164 6.068.591 12.1.909 18.162a.187.187 0 0 0 .374 0c.139-6.058.52-12.117.781-18.171.129-2.99.284-5.978.4-8.969.055-1.452.12-2.9.176-4.356a14.23 14.23 0 0 0-.176-4.537 1.17 1.17 0 0 0-2.214 0 13.454 13.454 0 0 0-.389 4.409z" transform="translate(-833.227 -560.925)" style="fill:#f7b52c"/>
        <path data-name="路径 8532" d="M953.088 589.1c-.226 2.557-.46 5.114-.643 7.676-.363 5.125-.916 10.246-1.059 15.385 0 .1.12.119.14.02 1.055-5.008 1.709-10.114 2.548-15.17.419-2.527.786-5.065 1.161-7.6.3-2 1.25-4.834.257-6.686a.736.736 0 0 0-1.1-.159c-1.4 1.52-1.124 4.5-1.304 6.534z" transform="translate(-838.463 -568.269)" style="fill:#f7b52c"/>
        <path data-name="路径 8533" d="M903.474 571.939q.295 1.709.606 3.413.575 3.148 1.185 6.288c.864 4.453 1.884 8.873 2.911 13.282.983 4.222 2 8.438 3.107 12.621a103.342 103.342 0 0 0 3.888 12.867.047.047 0 0 0 .09-.027c-.526-4.365-1.66-8.711-2.548-13-.9-4.337-1.8-8.673-2.634-13.025s-1.579-8.732-2.373-13.1q-.572-3.146-1.11-6.3-.268-1.577-.534-3.155c-.184-1.089-.188-2.291-.905-3.121a.989.989 0 0 0-1.749.249 5.246 5.246 0 0 0 .066 3.008z" transform="translate(-821.974 -563.438)" style="fill:#f7b52c"/>
        <path data-name="路径 8534" d="M891.241 588.121q1 2.752 1.977 5.51 2.095 5.892 4.122 11.811c2.67 7.8 5.2 15.667 8.132 23.356a.024.024 0 0 0 .045-.014c-1.837-8.042-4.247-15.907-6.693-23.742q-1.83-5.865-3.724-11.7-.988-3.047-1.993-6.087a20.445 20.445 0 0 0-2.3-5.578c-.457-.645-1.328-.178-1.274.591a21.874 21.874 0 0 0 1.708 5.853z" transform="translate(-817.296 -567.921)" style="fill:#f7b52c"/>
        <path data-name="路径 8535" d="M874.491 568.055a14.248 14.248 0 0 0 .859 3.484c.372 1.209.771 2.409 1.18 3.6.845 2.466 1.743 4.909 2.744 7.3 1.925 4.6 4.14 9.028 6.463 13.4.086.161.332 0 .256-.164a149.532 149.532 0 0 1-5.477-14.073c-.812-2.4-1.612-4.8-2.344-7.229-.684-2.267-1.073-4.965-2.183-7.017-.477-.876-1.534-.114-1.498.699z" transform="translate(-812.149 -562.993)" style="fill:#f7b52c"/>
        <path data-name="路径 8536" d="M873.493 598.023q1.325 2.3 2.633 4.619 2.686 4.748 5.347 9.513c3.482 6.277 6.755 12.741 10.614 18.749.031.048.1 0 .081-.052-2.782-6.7-6.215-13.062-9.4-19.533q-2.36-4.8-4.67-9.631-1.16-2.41-2.308-4.829c-.7-1.487-1.337-3.441-2.635-4.4-.778-.578-1.737.047-1.674 1.073.105 1.644 1.233 3.136 2.012 4.491z" transform="translate(-811.119 -571.639)" style="fill:#f7b52c"/>
        <path data-name="路径 8537" d="M998.214 797.055c-.537-1.471-1.716-2.381-2.752-3.441-1.169-1.2-2.376-2.346-3.568-3.511-2.327-2.272-4.716-4.464-7.052-6.725-4.549-4.4-9.062-8.9-13.879-12.948-.082-.069-.165.074-.1.15 4.009 5.087 8.43 9.791 12.744 14.56 2.131 2.354 4.208 4.766 6.351 7.107 1.071 1.17 2.131 2.355 3.223 3.5 1.041 1.095 2.072 2.548 3.464 3.046a1.359 1.359 0 0 0 1.569-1.738z" transform="translate(-845.119 -632.612)" style="fill:#f7b52c"/>
        <path data-name="路径 8538" d="M1016.15 801.612c-.992-2.237-3.025-4.048-4.605-5.785q-2.393-2.629-4.9-5.122-5.218-5.16-10.807-9.831c-7.493-6.254-15.466-11.752-23.3-17.465-.18-.131-.336.18-.166.315q11.348 9.118 22.251 18.887c3.552 3.184 7.073 6.418 10.454 9.824 1.662 1.673 3.307 3.369 4.912 5.109s3.109 4 5.053 5.291c.734.487 1.448-.457 1.108-1.223z" transform="translate(-845.62 -630.205)" style="fill:#f7b52c"/>
        <path data-name="路径 8539" d="M974.228 754.879c-.451-1.443-1.887-2.591-2.952-3.468q-1.813-1.494-3.653-2.942c-1.191-.934-2.381-1.868-3.59-2.772-1.276-.953-2.513-2.014-3.853-2.854-.221-.139-.433.179-.266.381 1.01 1.23 2.188 2.3 3.276 3.441s2.216 2.259 3.336 3.375a226.377 226.377 0 0 0 3.3 3.206c1.045 1 2.388 2.308 3.81 2.489.387.049.711-.473.592-.856z" transform="translate(-841.361 -623.166)" style="fill:#f7b52c"/>
        <path data-name="路径 8540" d="M1025.834 785.714c-.7-1.688-2.549-2.73-3.882-3.75-1.5-1.145-3-2.283-4.514-3.392q-4.449-3.254-9.057-6.246a211.557 211.557 0 0 0-19.322-10.766c-.208-.107-.384.208-.182.344 6.153 4.163 12.056 8.732 18.078 13.118q4.463 3.252 8.882 6.576c1.44 1.083 2.88 2.162 4.309 3.263 1.449 1.117 2.873 2.583 4.686 2.785.968.108 1.327-1.146 1.002-1.932z" transform="translate(-851.262 -629.576)" style="fill:#f7b52c"/>
        <path data-name="路径 8541" d="M1026.765 768.434c-1.814-1.65-4.106-2.465-6.279-3.36-2.3-.945-4.6-1.871-6.9-2.807-4.443-1.81-8.873-3.657-13.319-5.455-9.023-3.649-18.014-7.4-27.081-10.918-.175-.068-.294.24-.127.333 8.577 4.768 17.364 9.081 26.194 13.241 4.325 2.037 8.685 3.974 13.057 5.885 2.283 1 4.566 2 6.863 2.952 2.2.917 4.477 2.029 6.864 2.07a1.169 1.169 0 0 0 .728-1.941z" transform="translate(-845.852 -624.218)" style="fill:#f7b52c"/>
        <path data-name="路径 8542" d="M1047.137 766.6a4.96 4.96 0 0 0-2.074-1.879c-.9-.591-1.823-1.135-2.743-1.681-1.712-1.016-3.44-2-5.208-2.888q-5.512-2.767-11.236-4.957a102.521 102.521 0 0 0-23.283-6.21c-.026 0-.032.044-.006.051a140.888 140.888 0 0 1 22.7 7.595 118.143 118.143 0 0 1 10.769 5.52c1.719.992 3.443 1.978 5.139 3.02.914.561 1.812 1.153 2.724 1.717a4.78 4.78 0 0 0 2.5 1.1.935.935 0 0 0 .718-1.388z" transform="translate(-855.978 -625.281)" style="fill:#f7b52c"/>
        <path data-name="路径 8543" d="M1012.646 744.783c-.681-1.195-2.113-1.49-3.259-1.949q-2.1-.839-4.234-1.529a113.76 113.76 0 0 0-8.87-2.508 97.5 97.5 0 0 0-17.536-2.647c-.173-.009-.219.314-.042.341a117.847 117.847 0 0 1 17.206 3.795c2.79.864 5.556 1.836 8.274 2.946 1.324.541 2.64 1.11 3.957 1.671 1.237.527 2.672 1.577 4.011 1.218a.95.95 0 0 0 .493-1.338z" transform="translate(-847.773 -620.887)" style="fill:#f7b52c"/>
        <path data-name="路径 8544" d="M1037.591 737.186a7.261 7.261 0 0 0-3.293-1.377q-1.86-.461-3.736-.835-3.844-.773-7.736-1.21a87.748 87.748 0 0 0-15.89-.4c-.211.014-.214.362 0 .364a89.2 89.2 0 0 1 15.483 1.417q3.741.7 7.423 1.729 1.843.513 3.667 1.108a8.593 8.593 0 0 0 3.487.793c.629-.075 1.229-1.031.595-1.589z" transform="translate(-857.417 -619.867)" style="fill:#f7b52c"/>
        <path data-name="路径 8545" d="M1072.99 738.042c-2.125-1.369-4.882-2.042-7.23-2.816-2.534-.835-5.077-1.627-7.654-2.288a82.733 82.733 0 0 0-7.573-1.56 27.535 27.535 0 0 0-7.788-.47.035.035 0 0 0-.009.068 57.727 57.727 0 0 0 7.5 1.607 111.6 111.6 0 0 1 7.521 1.77c2.414.655 4.821 1.384 7.176 2.265q1.881.7 3.734 1.493a29.162 29.162 0 0 0 3.7 1.565c.878.232 1.433-1.112.623-1.634z" transform="translate(-869.715 -619.05)" style="fill:#f7b52c"/>
        <path data-name="路径 8546" d="M1036.494 718.893a38.721 38.721 0 0 0-4.971-.583c-1.735-.166-3.465-.353-5.2-.456a91.277 91.277 0 0 0-10.682-.011 75.217 75.217 0 0 0-10.06 1.282q-2.566.5-5.106 1.151a22.8 22.8 0 0 0-4.809 1.514c-.063.032-.032.149.036.145a38.689 38.689 0 0 0 4.721-.881q2.634-.5 5.291-.833c3.375-.426 6.769-.695 10.163-.825a89.554 89.554 0 0 1 9.97.169c1.736.127 3.48.278 5.205.531s3.438.753 5.176.979c1.121.146 1.372-1.93.266-2.182z" transform="translate(-853.603 -614.571)" style="fill:#f7b52c"/>
        <path data-name="路径 8547" d="M1042.213 704.61c-2.1-.6-4.766.026-6.916.171-2.358.16-4.717.312-7.074.5q-6.827.554-13.626 1.445a182.758 182.758 0 0 0-13.279 2.263 91.887 91.887 0 0 0-13.757 3.512c-.048.018-.043.107.012.1 4.493-.348 8.989-1.308 13.464-1.9q6.9-.909 13.8-1.7 6.8-.768 13.628-1.2c2.275-.143 4.552-.265 6.83-.324 1.139-.03 2.279-.037 3.418-.043a11.026 11.026 0 0 0 3.5-.245 1.4 1.4 0 0 0 0-2.579z" transform="translate(-850.83 -610.007)" style="fill:#f7b52c"/>
        <path data-name="路径 8548" d="M1026.5 689.2c-4.061-.234-8.355.71-12.352 1.464a119.421 119.421 0 0 0-12.309 3.011 214.162 214.162 0 0 0-24.03 9.083 125.482 125.482 0 0 0-13.074 6.168c-.167.1-.051.387.127.333 3.98-1.2 7.858-2.981 11.737-4.524q5.978-2.378 12.023-4.54a171.236 171.236 0 0 1 24.018-6.887c2.356-.47 4.725-.874 7.1-1.175 2.34-.3 4.7-.368 7.019-.8 1.141-.212.794-2.069-.259-2.133z" transform="translate(-843.003 -604.81)" style="fill:#f7b52c"/>
        <path data-name="路径 8549" d="M1045.969 677.3a8.117 8.117 0 0 0-3.757.324c-1.5.332-3 .673-4.487 1.054-2.9.743-5.792 1.536-8.657 2.437q-4.184 1.316-8.323 2.8a84.976 84.976 0 0 0-8.265 3.2c-.186.09-.049.4.134.349 2.816-.723 5.582-1.739 8.382-2.542s5.629-1.553 8.463-2.242c2.756-.67 5.514-1.329 8.284-1.925 1.424-.307 2.848-.616 4.274-.91a10.319 10.319 0 0 0 4.105-1.247c.441-.314.414-1.161-.153-1.298z" transform="translate(-859.339 -600.706)" style="fill:#f7b52c"/>
        <path data-name="路径 8550" d="M1008.641 684.176q.7-.286 1.4-.569 1.553-.628 3.115-1.233a9.893 9.893 0 0 0 3.006-1.423c.492-.418.394-1.4-.341-1.39a8.723 8.723 0 0 0-3.132.942q-1.666.681-3.321 1.387c-1.977.844-3.94 1.721-5.885 2.65q-3.031 1.447-6.027 2.982a35.5 35.5 0 0 0-6.264 3.611c-.187.151-.083.5.163.428a43.475 43.475 0 0 0 6.131-2.618q3.162-1.437 6.361-2.776 2.395-1 4.8-1.99" transform="translate(-852.051 -601.523)" style="fill:#f7b52c"/>
        <path data-name="路径 8551" d="M1019.709 665.937c-1.954.5-3.872 2.125-5.6 3.209l-5.366 3.363c-3.7 2.319-7.465 4.555-11.053 7.083-.164.116-.022.372.151.285 3.88-1.952 7.634-4.226 11.417-6.394l5.482-3.142c1.771-1.016 4.03-1.9 5.475-3.446a.573.573 0 0 0-.506-.958z" transform="translate(-854.283 -596.855)" style="fill:#f7b52c"/>
        <path data-name="路径 8552" d="M1021.17 649.275c-3.776 1.252-7.3 3.873-10.686 6.071-3.4 2.21-6.747 4.516-10 6.988-6.462 4.916-13.1 10.112-18.606 16.315-.055.062.017.174.085.123 6.511-4.874 12.688-10.225 19.356-14.86 3.335-2.319 6.7-4.6 10.117-6.759 3.382-2.136 7.161-3.876 10.269-6.467.59-.486.286-1.686-.535-1.411z" transform="translate(-848.891 -591.145)" style="fill:#f7b52c"/>
        <path data-name="路径 8553" d="M1024.984 626.21a7.779 7.779 0 0 0-2.924 1.973q-1.38 1.174-2.734 2.385-2.851 2.557-5.567 5.29a135.85 135.85 0 0 0-10.306 11.6c-.151.192.091.468.255.282a142.006 142.006 0 0 1 10.647-10.918q2.847-2.6 5.827-5.026 1.4-1.138 2.829-2.233a8.932 8.932 0 0 0 2.62-2.421.626.626 0 0 0-.647-.932z" transform="translate(-856.264 -583.261)" style="fill:#f7b52c"/>
        <path data-name="路径 8554" d="M934.634 650.779a55.956 55.956 0 0 0-.455-3.192 11.706 11.706 0 0 0-.848-3.186.461.461 0 0 0-.864.258 16.412 16.412 0 0 0 .538 3.284q.327 1.549.627 3.108c.408 2.147.743 4.309 1.051 6.475.031.216.339.159.339-.051a57.214 57.214 0 0 0-.388-6.696z" transform="translate(-831.989 -589.406)" style="fill:#f7b52c"/>
        <path data-name="路径 8555" d="M952.514 644.86a12.687 12.687 0 0 0-.6 2.915c-.12.963-.246 1.925-.356 2.89-.222 1.967-.473 3.934-.6 5.913a.148.148 0 0 0 .293.044c.476-1.921.833-3.876 1.213-5.821.19-.975.365-1.953.544-2.931a12.434 12.434 0 0 0 .288-2.892.4.4 0 0 0-.782-.118z" transform="translate(-838.318 -589.542)" style="fill:#f7b52c"/>
        <path data-name="路径 8556" d="M917.717 666.264a26.572 26.572 0 0 0-.406-.966 3.075 3.075 0 0 0-.226-.468l-.306-.461a.254.254 0 0 0-.459.214 6.225 6.225 0 0 0 .343 1c.155.325.306.651.473.968.328.624.649 1.249 1.016 1.845a.167.167 0 0 0 .3-.14c-.213-.678-.477-1.331-.735-1.992z" transform="translate(-826.458 -596.282)" style="fill:#f7b52c"/>
        <path data-name="路径 8557" d="M900.626 672.153c-.185-.392-.433-.742-.65-1.114a16.442 16.442 0 0 0-1.6-2.138 12.444 12.444 0 0 0-3.894-3.459.626.626 0 0 0-.7 1.008c1.123 1.273 2.482 2.277 3.678 3.468.585.583 1.111 1.236 1.692 1.823.3.3.553.643.85.943.261.263.491.711.848.814a.2.2 0 0 0 .239-.2c.027-.409-.301-.798-.463-1.145z" transform="translate(-818.689 -596.671)" style="fill:#f7b52c"/>
        <path data-name="路径 8558" d="M974.474 664.941a3.432 3.432 0 0 0-.982 1.188 8.258 8.258 0 0 1-.82 1.37 29.478 29.478 0 0 0-1.643 2.653 50.479 50.479 0 0 0-2.625 5.616.175.175 0 0 0 .316.147c1.037-1.749 2.1-3.529 3.3-5.152.577-.783 1.117-1.6 1.7-2.371a5.67 5.67 0 0 1 .951-1.081 4.3 4.3 0 0 0 1-1.349.794.794 0 0 0-1.197-1.021z" transform="translate(-844.282 -596.45)" style="fill:#f7b52c"/>
        <path data-name="路径 8559" d="M1010.757 598.3c-1.462.8-2.479 2.38-3.553 3.692q-1.653 2.021-3.276 4.07-3.325 4.2-6.544 8.5c-4.185 5.609-8.35 11.319-12.038 17.345-.079.129.1.289.2.168 4.274-5.6 8.42-11.3 12.864-16.747 2.2-2.691 4.421-5.353 6.7-7.961q1.708-1.957 3.444-3.884c1.13-1.254 2.531-2.434 3.217-4.064.308-.751-.328-1.497-1.014-1.119z" transform="translate(-850.077 -573.679)" style="fill:#f7b52c"/>
        <path data-name="路径 8560" d="M1021.031 618.51a34.626 34.626 0 0 0-3.361 3.13c-.521.545-1.049 1.083-1.564 1.635-.552.591-1.051 1.212-1.56 1.843-.068.084.021.234.114.163a35.091 35.091 0 0 0 1.735-1.381c.585-.5 1.151-1.038 1.725-1.558a35.389 35.389 0 0 0 3.273-3.314c.22-.261-.075-.747-.362-.518z" transform="translate(-860.068 -580.61)" style="fill:#f7b52c"/>
        <path data-name="路径 8561" d="M996.86 570.8a2.162 2.162 0 0 0-.7.672c-.155.295-.195.637-.353.935-.305.577-.647 1.133-.962 1.7-.652 1.18-1.249 2.4-1.833 3.619a45.86 45.86 0 0 0-2.925 7.331.183.183 0 0 0 .33.154c1.341-2.179 2.508-4.488 3.78-6.719.628-1.1 1.285-2.178 1.927-3.267.331-.562.662-1.125 1.009-1.675a4.848 4.848 0 0 1 .626-.719 1.889 1.889 0 0 0 .368-.958c.14-.753-.591-1.551-1.267-1.073z" transform="translate(-851.704 -564.256)" style="fill:#f7b52c"/>
        <path data-name="路径 8562" d="M873.864 628.854c-1.2-1.514-2.459-2.975-3.723-4.426-2.469-2.838-5.022-5.59-7.586-8.323s-5.15-5.443-7.8-8.079a75.873 75.873 0 0 0-8.2-7.445c-.507-.375-1.01.437-.628.9 2.4 2.909 5.132 5.449 7.775 8.084s5.3 5.274 7.908 7.956c2.553 2.623 5.062 5.3 7.589 7.948 1.264 1.326 2.521 2.662 3.806 3.963a51.478 51.478 0 0 0 3.921 3.892c.114.093.27-.088.193-.213a43.235 43.235 0 0 0-3.255-4.257z" transform="translate(-802.329 -574.463)" style="fill:#f7b52c"/>
        <path data-name="路径 8563" d="M855.759 631.413a159.656 159.656 0 0 0-16.284-12.641 201.627 201.627 0 0 0-8.521-5.554q-2.258-1.4-4.539-2.753c-1.447-.858-2.783-1.727-4.461-1.747a.982.982 0 0 0-.7 1.49 10.11 10.11 0 0 0 3.879 2.925q2.111 1.15 4.2 2.341c3 1.706 5.966 3.48 8.927 5.264 5.844 3.519 11.547 7.3 17.336 10.927.139.086.29-.137.163-.252z" transform="translate(-793.878 -577.28)" style="fill:#f7b52c"/>
        <path data-name="路径 8564" d="M863.645 598.529c-.618-1.17-1.193-2.375-1.8-3.553q-.892-1.721-1.718-3.483c-.583-1.243-1.043-2.663-2.3-3.236a.89.89 0 0 0-1.1.691c-.235 1.483.662 2.7 1.374 3.852q1.044 1.693 2.154 3.336a38.238 38.238 0 0 0 2.277 3.05 18.9 18.9 0 0 0 2.526 2.821c.1.08.266-.055.219-.186a25.88 25.88 0 0 0-1.632-3.292z" transform="translate(-806.057 -570.261)" style="fill:#f7b52c"/>
        <path data-name="路径 8565" d="M894.509 716.01a26.356 26.356 0 0 0-6.07-3.432 25.409 25.409 0 0 0-3.267-1.1c-1.014-.258-2.379-.708-3.407-.343a.394.394 0 0 0-.11.668 9.128 9.128 0 0 0 3.114.768c1.115.23 2.223.473 3.313.8a32.031 32.031 0 0 1 6.343 2.772c.075.046.156-.078.084-.133z" transform="translate(-814.551 -612.279)" style="fill:#f7b52c"/>
        <path data-name="路径 8566" d="M874.594 718.068a26.52 26.52 0 0 0-9.755-3.93 28.979 28.979 0 0 0-5.341-.487c-.864 0-1.726.041-2.586.128a6.434 6.434 0 0 0-2.662.666.373.373 0 0 0 .111.7A9.887 9.887 0 0 0 856.9 715c.837-.1 1.68-.17 2.523-.206a28.178 28.178 0 0 1 5.211.266 31.685 31.685 0 0 1 9.9 3.119c.066.027.118-.073.06-.111z" transform="translate(-805.152 -613.188)" style="fill:#f7b52c"/>
        <path data-name="路径 8567" d="M888.254 690.179a25.991 25.991 0 0 0-3.169-1.522q-.815-.329-1.653-.593a3.187 3.187 0 0 0-1.8-.307.5.5 0 0 0-.22.833 3.23 3.23 0 0 0 1.534.484q.809.177 1.6.408a20.664 20.664 0 0 1 3.346 1.3 24.819 24.819 0 0 1 5.81 3.973.053.053 0 0 0 .076-.075 21.83 21.83 0 0 0-5.524-4.501z" transform="translate(-814.468 -604.308)" style="fill:#f7b52c"/>
        <path data-name="路径 8568" d="M942.914 664.957a6.632 6.632 0 0 0-1.568 2.738 29.513 29.513 0 0 0-.985 2.953 26.858 26.858 0 0 0-.663 3.058c-.081.5-.141 1-.175 1.506-.036.542.043 1.064.038 1.6 0 .141.23.182.254.034.087-.52.28-1.028.4-1.544.1-.458.205-.914.316-1.37a27.588 27.588 0 0 1 .878-2.895 24.453 24.453 0 0 1 1.24-2.8 10.8 10.8 0 0 0 1.274-2.7.606.606 0 0 0-1.009-.58z" transform="translate(-834.4 -596.47)" style="fill:#f7b52c"/>
        <path data-name="路径 8569" d="M1004.667 635.13c-.876-.046-1.656.737-2.313 1.229q-1.088.814-2.131 1.683-2.08 1.739-3.979 3.669a52.392 52.392 0 0 0-6.672 8.359c-.058.089.079.2.149.115a73.9 73.9 0 0 1 7.424-7.573 62.722 62.722 0 0 1 4.051-3.308q1.083-.81 2.191-1.587c.7-.49 1.614-.9 1.911-1.757a.662.662 0 0 0-.631-.83z" transform="translate(-851.525 -586.318)" style="fill:#f7b52c"/>
        <path data-name="路径 8570" d="M869.254 660.513a110.132 110.132 0 0 0-15.492-15.4 135.954 135.954 0 0 0-8.8-6.306c-1.524-1.008-3.063-1.992-4.583-3.006-1.406-.939-3.071-2.321-4.8-2.432-1.414-.091-1.744 1.6-1.039 2.508a6.412 6.412 0 0 0 2.261 1.457c.814.417 1.651.789 2.468 1.2 1.5.756 2.971 1.6 4.407 2.473 3.052 1.858 6.009 3.887 8.885 6.005s5.818 4.162 8.584 6.425 5.422 4.695 7.98 7.2c.085.088.205-.037.129-.124z" transform="translate(-798.355 -585.715)" style="fill:#f7b52c"/>
        <path data-name="路径 8571" d="M830.625 642.939a16.86 16.86 0 0 0-5.72-4.436 27.216 27.216 0 0 0-3.4-1.36q-.842-.269-1.7-.487a2.344 2.344 0 0 0-1.9.028.67.67 0 0 0-.237.906 2.161 2.161 0 0 0 1.442.808q.859.2 1.706.462a31.7 31.7 0 0 1 3.3 1.2c1.051.452 2.087.936 3.14 1.382 1.116.472 2.173 1.106 3.26 1.642a.092.092 0 0 0 .109-.145z" transform="translate(-792.672 -586.775)" style="fill:#f7b52c"/>
        <path data-name="路径 8572" d="M1048.783 669.656a2.2 2.2 0 0 0-.7-.043c-.167.023-.334.047-.5.074-.291.047-.583.1-.868.171a11.84 11.84 0 0 0-1.907.67 15.794 15.794 0 0 0-1.665.854c-.268.165-.53.343-.787.525-.28.2-.514.454-.8.642a.1.1 0 0 0 .1.178 5.775 5.775 0 0 1 .931-.258c.283-.07.561-.157.847-.224.6-.142 1.177-.314 1.785-.408.555-.086 1.1-.209 1.658-.28a8.076 8.076 0 0 0 1.905-.336.846.846 0 0 0 .6-.783.814.814 0 0 0-.599-.782z" transform="translate(-869.301 -598.114)" style="fill:#f7b52c"/>
    </g>
</svg>
