<svg xmlns="http://www.w3.org/2000/svg" width="279.96" height="282.724" viewBox="0 0 279.96 282.724">
    <g data-name="组 50">
        <path data-name="路径 8375" d="M218 704.781a29.161 29.161 0 0 0-5.68-7.516 88.093 88.093 0 0 0-7.065-6.225c-1.229-1.036-2.653 1.473-1.238 2.34a48.088 48.088 0 0 1 7.051 5.633c2.213 2.022 4.212 4.336 6.518 6.224.26.215.539-.188.414-.456z" transform="translate(-92.283 -559.184)" style="fill:#2ca6e0"/>
        <path data-name="路径 8376" d="M220.971 713.681a22.2 22.2 0 0 0-6.772.262 27.17 27.17 0 0 0-3.244.84 10.154 10.154 0 0 0-3.362 1.479 1.938 1.938 0 0 0-.668 2.255 1.59 1.59 0 0 0 1.928 1.046 21.448 21.448 0 0 0 3.019-1.733 25.437 25.437 0 0 1 2.94-1.437 36.952 36.952 0 0 1 6.252-1.964c.41-.086.267-.709-.093-.748z" transform="translate(-93.002 -564.048)" style="fill:#2ca6e0"/>
        <path data-name="路径 8377" d="M225.6 724.648a6 6 0 0 0-2.372 1.312 22.957 22.957 0 0 0-2.225 2.031c-.661.709-1.34 1.426-1.934 2.205a10.039 10.039 0 0 0-1.034 1.465c-.12.241-.206.516-.3.769a2.555 2.555 0 0 0-.087 1.346 1.2 1.2 0 0 0 1.46.917c1.107-.255 1.744-1.516 2.342-2.468.527-.837 1.01-1.705 1.546-2.537.516-.8.993-1.63 1.494-2.444a8.966 8.966 0 0 0 1.168-2.536.046.046 0 0 0-.058-.06z" transform="translate(-95.314 -566.424)" style="fill:#2ca6e0"/>
        <path data-name="路径 8378" d="M228.022 729.475a41.063 41.063 0 0 0-2.689 3.369 26.275 26.275 0 0 0-2.347 3.512 38.746 38.746 0 0 0-3.008 8.485c-.326 1.4-.875 3.526-.016 4.8a1.415 1.415 0 0 0 1.645.619c.859-.288 1.282-1.382 1.507-2.262.361-1.413.527-2.889.864-4.313.348-1.472.772-2.927 1.2-4.372a60.738 60.738 0 0 1 3.383-9.377c.186-.372-.261-.78-.539-.461z" transform="translate(-95.721 -567.432)" style="fill:#2ca6e0"/>
        <path data-name="路径 8379" d="M241.118 735.464a98.528 98.528 0 0 0-.561-4.019c-.389-2.518-.877-4.993-1.395-7.482-.108-.52-.777-.37-.8.121-.148 2.582-.267 5.145-.284 7.732-.008 1.266-.016 2.527.029 3.794a15.18 15.18 0 0 0 .191 2.044 8.935 8.935 0 0 0 .641 1.913 1.054 1.054 0 0 0 1.972-.285 10.313 10.313 0 0 0 .207-3.818z" transform="translate(-99.692 -566.209)" style="fill:#2ca6e0"/>
        <path data-name="路径 8380" d="M260.662 725.651c-.485-.506-.969-1.015-1.466-1.506a42.1 42.1 0 0 0-3.184-2.835 33.949 33.949 0 0 0-6.966-4.31.444.444 0 0 0-.413.782 43.035 43.035 0 0 1 6.045 5.258q1.382 1.442 2.631 3.031c.381.486.761.976 1.107 1.494.509.764.9 1.571 1.776 1.858a1.431 1.431 0 0 0 1.754-1.477 3.6 3.6 0 0 0-1.284-2.295z" transform="translate(-101.908 -564.78)" style="fill:#2ca6e0"/>
        <path data-name="路径 8381" d="M280.306 712.746a5.321 5.321 0 0 0-2.866-.525l-2.6-.109q-2.929-.123-5.856-.284c-3.848-.208-7.643-.366-11.5-.252-.4.012-.518.7-.1.8 3.71.818 7.4 1.366 11.159 1.869 1.881.252 3.761.506 5.639.781l2.82.413a5.734 5.734 0 0 0 2.97.1 1.616 1.616 0 0 0 .334-2.793z" transform="translate(-103.768 -563.621)" style="fill:#2ca6e0"/>
        <path data-name="路径 8382" d="M267.4 684.124a2.5 2.5 0 0 0-1.153.549q-2.02 1.4-3.935 2.978a43.557 43.557 0 0 0-4.05 3.822c-.311.33.1.957.471.674a79.66 79.66 0 0 1 8-5.455c.648-.379 1.771-.807 1.626-1.829a.864.864 0 0 0-.959-.739z" transform="translate(-103.987 -557.756)" style="fill:#2ca6e0"/>
        <path data-name="路径 8383" d="M277.761 691.507a1.724 1.724 0 0 0-2.318-1.171 4.626 4.626 0 0 0-1.266.892c-.608.5-1.207 1.016-1.829 1.492-.662.506-1.336.994-2 1.491a8.289 8.289 0 0 0-1.855 1.719c-.24.332-.123.976.351.937 1.557-.13 3.023-1.034 4.461-1.649.687-.294 1.393-.543 2.089-.81a8.36 8.36 0 0 0 1.391-.568 2.211 2.211 0 0 0 .976-2.333z" transform="translate(-106.172 -559.062)" style="fill:#2ca6e0"/>
        <path data-name="路径 8384" d="M297.1 648.629a10.264 10.264 0 0 0-3.171 2.584q-1.3 1.312-2.567 2.668-2.538 2.718-4.925 5.6a144.025 144.025 0 0 0-8.782 12.008c-.277.417.329.919.644.549a115.677 115.677 0 0 1 10.129-10.356q2.556-2.338 5.236-4.507 1.416-1.144 2.864-2.24a11.67 11.67 0 0 0 3.058-2.734c1.1-1.68-.742-4.281-2.486-3.572z" transform="translate(-108.143 -550.14)" style="fill:#2ca6e0"/>
        <path data-name="路径 8385" d="M263.947 656.962a2 2 0 0 0-.825-.531 1.837 1.837 0 0 0-2.112.95 44.345 44.345 0 0 0-2.784 5.693c-.91 1.91-1.841 3.806-2.73 5.729s-1.757 3.861-2.6 5.81a31.518 31.518 0 0 0-2.1 5.8c-.111.516.513 1.021.866.557a37.976 37.976 0 0 0 3.043-5.187q1.481-2.79 3.026-5.537c1.03-1.832 2.064-3.667 3.157-5.453a62.816 62.816 0 0 0 3.359-5.321 2.294 2.294 0 0 0-.3-2.51z" transform="translate(-102.41 -551.814)" style="fill:#2ca6e0"/>
        <path data-name="路径 8386" d="M243.583 681.513a7.277 7.277 0 0 0 .008-3.12.615.615 0 0 0-1.144-.165 6.317 6.317 0 0 0-.594 3.285q-.073 1.6-.052 3.195a43.039 43.039 0 0 0 .7 6.518.472.472 0 0 0 .932-.14c-.122-2.132-.065-4.246-.016-6.379q.035-1.6.166-3.194z" transform="translate(-100.489 -556.426)" style="fill:#2ca6e0"/>
        <path data-name="路径 8387" d="m232.058 662.7-1.336-4.846c-.39-1.414-.755-4.006-2.117-4.672a1.212 1.212 0 0 0-1.713.5c-.763 1.63.354 3.714.919 5.25l1.738 4.723c1.18 3.208 2.581 6.324 4 9.408.219.477.844.134.749-.349-.657-3.357-1.334-6.728-2.24-10.014z" transform="translate(-97.246 -551.105)" style="fill:#2ca6e0"/>
        <path data-name="路径 8388" d="M225.64 669.735c-1.538-3.16-3.2-6.236-4.849-9.327-.812-1.523-1.7-2.99-2.575-4.47-.858-1.451-1.772-3.378-3.336-3.985-.671-.261-1.366.419-1.366 1.15 0 1.746 1.339 3.31 2.245 4.614 1.016 1.462 2.016 2.936 3.093 4.345 2.078 2.721 4.139 5.45 6.313 8.078.235.288.635-.078.475-.405z" transform="translate(-94.44 -550.864)" style="fill:#2ca6e0"/>
        <path data-name="路径 8389" d="M227.616 688.453c-.29-1.111-.656-2.186-1.042-3.262-.41-1.145-.811-2.7-1.976-3.139a.917.917 0 0 0-1.115.7c-.391 1.129.421 2.49.844 3.487.441 1.044.861 2.1 1.318 3.133.906 2.05 1.688 4.159 2.628 6.189a.386.386 0 0 0 .724-.216 45.081 45.081 0 0 0-1.381-6.892z" transform="translate(-96.55 -557.304)" style="fill:#2ca6e0"/>
        <path data-name="路径 8390" d="M217.38 686.381a57.979 57.979 0 0 0-5.735-10.227 44.77 44.77 0 0 0-3.6-4.6q-.973-1.066-1.991-2.081a9.657 9.657 0 0 0-1.229-1.115 2.984 2.984 0 0 0-1.912-.451 1.782 1.782 0 0 0-1.561 2.265 3.873 3.873 0 0 0 .7 1.693 8.416 8.416 0 0 0 1.244 1.089 53.505 53.505 0 0 1 1.994 1.645c1.408 1.232 2.82 2.468 4.173 3.775a72.872 72.872 0 0 1 7.406 8.441c.253.33.658-.092.511-.434z" transform="translate(-91.827 -554.288)" style="fill:#2ca6e0"/>
        <path data-name="路径 8391" d="M160.449 655.26c-5.923-7.02-14.078-12.16-21.573-16.843q-5.72-3.574-11.658-6.7c-3.852-2.027-8.1-5.017-12.44-5.15a1.987 1.987 0 0 0-1.236 3.3c3.23 2.859 7.589 3.8 11.4 5.5a169.68 169.68 0 0 1 12.318 6.116c7.853 4.284 15.17 9.863 23.114 13.892a.07.07 0 0 0 .075-.115z" transform="translate(-72.943 -545.447)" style="fill:#2ca6e0"/>
        <path data-name="路径 8392" d="M159.256 661.5c-4-4.016-9.05-7-13.838-9.714q-3.635-2.06-7.362-3.915c-2.522-1.252-5.236-2.793-7.985-3.218a1.175 1.175 0 0 0-.814 2.137c2.207 1.559 4.869 2.4 7.3 3.475a164.068 164.068 0 0 1 7.984 3.784c4.871 2.485 9.632 5.486 14.635 7.61.077.031.141-.101.08-.159z" transform="translate(-76.307 -549.311)" style="fill:#2ca6e0"/>
        <path data-name="路径 8393" d="M161.086 676.472c-8.944-8.178-19.4-14.655-29.843-20.169q-7.587-4-15.472-7.249c-2.9-1.193-5.816-2.365-8.756-3.447-2.67-.984-5.6-2.479-8.451-2.1a2 2 0 0 0-.882 3.6c2.211 1.744 5.107 2.067 7.691 2.815 2.814.814 5.617 1.685 8.385 2.675a180.683 180.683 0 0 1 16.457 6.841c10.6 5.023 20.441 11.366 30.453 17.637.332.202.732-.318.418-.603z" transform="translate(-69.488 -549.056)" style="fill:#2ca6e0"/>
        <path data-name="路径 8394" d="M106.868 660.518a121.138 121.138 0 0 0-11.286-4.449c-1.9-.651-3.828-1.219-5.744-1.819a22.555 22.555 0 0 0-5.82-1.491c-1.643-.052-2.394 2.676-.862 3.517A22.482 22.482 0 0 0 88.9 658c2.024.487 4.045 1.006 6.079 1.433a119.1 119.1 0 0 0 11.784 1.928c.477.051.471-.676.105-.843z" transform="translate(-66.38 -551.049)" style="fill:#2ca6e0"/>
        <path data-name="路径 8395" d="M122.356 684.014q-2.915-.777-5.846-1.469c-3.645-.865-7.3-1.7-11-2.242q-5.79-.855-11.607-1.442c-3.868-.386-7.979-1.3-11.718.123a2.243 2.243 0 0 0 0 4.141c3.688 1.5 7.84.814 11.718.865q5.592.072 11.178.4c3.71.221 7.424.315 11.134.555q2.987.193 5.97.457a20.257 20.257 0 0 0 5.106.267c.019 0 .02-.035.006-.044a18.1 18.1 0 0 0-4.941-1.611z" transform="translate(-66.056 -556.493)" style="fill:#2ca6e0"/>
        <path data-name="路径 8396" d="M119.959 691.312a190.184 190.184 0 0 0-26.766-2.027c-4.443-.061-8.892.062-13.33.292q-3.58.185-7.152.5c-2.108.192-4.183.2-6.074 1.337-1.431.858-1.163 3.525.465 3.923 2.115.519 4.084-.074 6.2-.443a225.04 225.04 0 0 1 6.563-1.053c4.43-.638 8.876-1.093 13.33-1.46a245.32 245.32 0 0 1 26.686-.418c.329.014.419-.596.078-.651z" transform="translate(-62.827 -558.858)" style="fill:#2ca6e0"/>
        <path data-name="路径 8397" d="M84.795 706.016a54.252 54.252 0 0 0-11.681 2.162 52.434 52.434 0 0 0-5.545 1.961c-1.666.72-4.542 1.529-5.364 3.468-.366.866-.124 2.125.865 2.348 1.9.428 3.855-1.163 5.523-2.027 1.756-.91 3.5-1.851 5.288-2.676a119.28 119.28 0 0 1 11.011-4.44c.378-.13.333-.83-.097-.796z" transform="translate(-62.043 -562.439)" style="fill:#2ca6e0"/>
        <path data-name="路径 8398" d="M149.754 713.58c-3.133-.635-6.515-.36-9.691-.336-3.21.024-6.426.072-9.632.248s-6.416.393-9.6.81c-2.994.391-7.189.244-9.662 2.343a1.949 1.949 0 0 0 .4 3.357c2.81 1.033 6.283-.322 9.111-.844 3.285-.607 6.557-1.289 9.841-1.9 3.15-.587 6.294-1.2 9.453-1.725 3.229-.535 6.642-.69 9.782-1.676.113-.037.128-.25-.002-.277z" transform="translate(-72.384 -563.968)" style="fill:#2ca6e0"/>
        <path data-name="路径 8399" d="M127.663 723.785a73.725 73.725 0 0 0-18.052 1.885 64.084 64.084 0 0 0-8.857 2.381c-2.932 1.069-5.748 2.11-8.175 4.265-1.393 1.237.2 3.11 1.533 2.911 2.915-.437 5.594-1.839 8.342-2.97s5.5-2.314 8.3-3.327c5.563-2.013 11.26-3.355 16.953-4.817.166-.043.122-.321-.044-.328z" transform="translate(-68.459 -566.231)" style="fill:#2ca6e0"/>
        <path data-name="路径 8400" d="M115.138 737.405c-5.714-.081-11.682 1.66-17.163 3.274-2.838.836-5.656 1.737-8.443 2.766-2.581.953-5.687 1.8-7.641 4.011-.572.646-.178 1.9.694 1.853 2.619-.13 5.071-1.762 7.43-2.876a105.864 105.864 0 0 1 8.5-3.591c5.475-2.021 11.2-3.163 16.652-5.2.113-.042.097-.235-.029-.237z" transform="translate(-66.231 -569.153)" style="fill:#2ca6e0"/>
        <path data-name="路径 8401" d="M191.419 720.156a55.366 55.366 0 0 0-5.582-.235 34.6 34.6 0 0 0-5.263.785c-3.391.741-7.3 1.657-10.074 4.049-.781.671.115 1.733.851 1.615a27.551 27.551 0 0 0 4.993-1.646c1.6-.583 3.208-1.13 4.834-1.6s3.259-.862 4.9-1.267a49.825 49.825 0 0 1 5.346-1.294c.224-.032.237-.399-.005-.407z" transform="translate(-85.175 -565.408)" style="fill:#2ca6e0"/>
        <path data-name="路径 8402" d="M207.193 730.612a26.271 26.271 0 0 0-6.968 4.255 28.684 28.684 0 0 0-2.965 2.91 19.88 19.88 0 0 0-1.36 1.723 7.388 7.388 0 0 0-1 2.01c-.175.526.481 1.126.9.767a9.782 9.782 0 0 0 1.394-1.4c.425-.535.845-1.075 1.276-1.6a41.812 41.812 0 0 1 2.711-3.041 41.219 41.219 0 0 1 6.172-5.185c.207-.138.078-.538-.16-.439z" transform="translate(-90.453 -567.697)" style="fill:#2ca6e0"/>
        <path data-name="路径 8403" d="M163.385 737c-2.687-.486-5.595.138-8.237.712-2.893.628-5.783 1.359-8.619 2.251a72.085 72.085 0 0 0-8.323 3.276c-2.446 1.12-5.51 2.589-7.066 5.078a1.137 1.137 0 0 0 .876 1.687 12.464 12.464 0 0 0 4.108-1.014 26.363 26.363 0 0 0 3.67-1.588c2.641-1.271 5.316-2.415 7.994-3.582s5.354-2.241 8.086-3.2c2.526-.889 5.276-1.618 7.571-3.118.168-.115.16-.466-.06-.502z" transform="translate(-76.788 -569.028)" style="fill:#2ca6e0"/>
        <path data-name="路径 8404" d="M141.078 751.621c-2.3.009-4.855 1.277-6.947 2.242a70.844 70.844 0 0 0-6.95 3.749 93.32 93.32 0 0 0-6.6 4.378 30.983 30.983 0 0 0-6.241 5.5.988.988 0 0 0 1.111 1.592 35.245 35.245 0 0 0 6.173-4.623c2.053-1.729 4.092-3.47 6.226-5.077a57.566 57.566 0 0 1 6.373-4.2c1.06-.6 2.131-1.175 3.22-1.706a28.091 28.091 0 0 0 3.653-1.765c.039-.026.026-.09-.018-.09z" transform="translate(-73.174 -572.194)" style="fill:#2ca6e0"/>
        <path data-name="路径 8405" d="M159.183 745.1a127.821 127.821 0 0 0-24.82 13.732c-4.005 2.738-8 5.5-11.893 8.429-3.732 2.812-8.047 5.585-10.862 9.547-.859 1.211.182 2.958 1.531 2.192 4.021-2.286 7.351-6.094 10.917-9.141 3.691-3.153 7.464-6.194 11.393-8.974 7.757-5.488 15.887-10.356 23.876-15.414.175-.107.058-.446-.142-.371z" transform="translate(-72.577 -570.797)" style="fill:#2ca6e0"/>
        <path data-name="路径 8406" d="M171.1 751.641c-3.977 2.474-7.556 6.175-11.028 9.418-3.612 3.375-7.144 6.854-10.632 10.385s-6.977 7.056-10.422 10.635c-1.684 1.749-3.315 3.548-4.925 5.379s-3.66 3.744-4.162 6.31c-.205 1.051.656 2.354 1.726 1.907 2.187-.911 3.49-3.027 4.94-4.958 1.479-1.972 2.977-3.925 4.457-5.9 3.025-4.024 6.163-7.945 9.473-11.685a272.052 272.052 0 0 1 9.966-10.631c3.509-3.56 7.5-6.838 10.684-10.753.046-.054-.014-.148-.077-.107z" transform="translate(-76.556 -572.196)" style="fill:#2ca6e0"/>
        <path data-name="路径 8407" d="M188.164 751.517a149.69 149.69 0 0 0-11.881 10.924c-1.881 1.923-3.754 3.861-5.56 5.871a39.411 39.411 0 0 0-5.2 6.481c-.282.491.3 1.2.752.833a49.02 49.02 0 0 0 5.352-5.667c1.844-2.076 3.679-4.161 5.555-6.2 3.7-4.022 7.434-8 11.168-11.977.117-.131-.05-.382-.186-.265z" transform="translate(-84.159 -572.165)" style="fill:#2ca6e0"/>
        <path data-name="路径 8408" d="M189.1 756.688c-2.74 1.523-5.206 4.056-7.595 6.161-2.6 2.292-5.118 4.687-7.607 7.125-4.967 4.863-9.782 9.929-14.5 15.087s-9.324 10.426-13.805 15.824c-2.24 2.7-4.388 5.491-6.5 8.312a197.664 197.664 0 0 0-3.108 4.3 23.663 23.663 0 0 0-2.821 4.35c-.869 2.072 1.225 3.892 2.83 2.413a26.66 26.66 0 0 0 3.192-4.193c1.031-1.437 2.075-2.862 3.106-4.3 2.067-2.877 4.181-5.712 6.274-8.565q6.087-8.3 12.648-16.132c4.375-5.212 8.921-10.23 13.568-15.144 2.395-2.533 4.834-5.013 7.243-7.529 2.357-2.462 5.14-4.784 7.139-7.612.036-.055-.005-.129-.064-.097z" transform="translate(-77.211 -573.276)" style="fill:#2ca6e0"/>
        <path data-name="路径 8409" d="M201.479 761.775q-4.833 5.043-9.246 10.537-2.178 2.71-4.306 5.464c-1.369 1.766-3.212 3.585-4.063 5.739-.289.731.351 1.741 1.092 1.207 1.782-1.284 3.093-3.536 4.441-5.322q2.168-2.876 4.293-5.788 4.152-5.708 7.839-11.794c.022-.035-.024-.07-.05-.043z" transform="translate(-88.083 -574.363)" style="fill:#2ca6e0"/>
        <path data-name="路径 8410" d="M210.419 757.669c-2.525 3.5-4.875 7.137-7.117 10.864a150.498 150.498 0 0 0-3.292 5.717 38.662 38.662 0 0 0-2.848 5.93.525.525 0 0 0 .947.441 61.983 61.983 0 0 0 3.105-5.838c.977-1.9 1.958-3.8 2.976-5.676 2.066-3.806 4.265-7.522 6.5-11.207.11-.177-.148-.4-.271-.231z" transform="translate(-90.935 -573.474)" style="fill:#2ca6e0"/>
        <path data-name="路径 8411" d="M204.767 777.589c-3.942 7.515-7.882 14.994-11.352 22.793-1.659 3.732-3.266 7.51-4.714 11.348-1.509 4-3.457 8.1-3.6 12.451a1.45 1.45 0 0 0 2.714.812 12.275 12.275 0 0 0 1.555-2.714c.333-.85.619-1.716.907-2.586.675-2.041 1.352-4.08 2.052-6.11 1.356-3.938 2.662-7.9 4.031-11.829 2.792-8.017 5.614-16.056 8.908-23.84.159-.369-.31-.689-.501-.325z" transform="translate(-88.363 -577.714)" style="fill:#2ca6e0"/>
        <path data-name="路径 8412" d="M167.733 820.576a17.338 17.338 0 0 1-1.658 2.876 55.573 55.573 0 0 0-1.364 2.608c-.91 1.823-1.766 3.67-2.593 5.54s-1.593 3.769-2.328 5.688c-.724 1.888-1.656 3.84-1.631 5.928.009.788.96 1.31 1.474.675 1.249-1.545 1.761-3.641 2.413-5.553.641-1.88 1.3-3.754 1.933-5.638s1.285-3.746 1.923-5.621c.318-.935.651-1.862.949-2.8a18.773 18.773 0 0 1 1.136-3.581c.102-.184-.187-.339-.254-.122z" transform="translate(-82.6 -586.919)" style="fill:#2ca6e0"/>
        <path data-name="路径 8413" d="M211.346 782.682c-2.605 7.641-4.84 15.446-7.021 23.246-1.073 3.839-2.148 7.676-3.177 11.529-1.02 3.82-2.3 7.6-2.43 11.614a.8.8 0 0 0 1.509.451c1.743-3.38 2.439-7.206 3.357-10.933.984-4 1.923-8.006 2.862-12.016 1.849-7.9 3.655-15.832 5.067-23.842.021-.12-.128-.164-.167-.049z" transform="translate(-91.275 -578.823)" style="fill:#2ca6e0"/>
        <path data-name="路径 8414" d="M216.187 791.524c-1.483 8.926-3.4 17.771-4.956 26.683-.771 4.406-1.587 8.8-2.384 13.2q-.6 3.3-1.212 6.6a19.046 19.046 0 0 0-.568 6.119.8.8 0 0 0 1.5.217 18.363 18.363 0 0 0 1.612-5.949q.587-3.308 1.154-6.618c.771-4.541 1.477-9.1 2.172-13.653 1.346-8.809 2.115-17.68 3.129-26.535a.225.225 0 0 0-.447-.064z" transform="translate(-93.042 -580.69)" style="fill:#2ca6e0"/>
        <path data-name="路径 8415" d="M232.558 766.579c-.049-1.3-.13-2.593-.23-3.887a26.725 26.725 0 0 0-.2-1.871 2.767 2.767 0 0 0-.385-1.347.062.062 0 0 0-.092 0 2.783 2.783 0 0 0-.466 1.347c-.13.647-.218 1.279-.314 1.937-.185 1.265-.311 2.546-.429 3.821-.121 1.292-.191 2.593-.284 3.887a58.837 58.837 0 0 0-.112 2.015 6.98 6.98 0 0 0 .292 2.016.966.966 0 0 0 1.894 0 6.988 6.988 0 0 0 .389-2.016c.013-.672.011-1.343 0-2.015-.021-1.295-.014-2.594-.063-3.887z" transform="translate(-97.976 -573.869)" style="fill:#2ca6e0"/>
        <path data-name="路径 8416" d="M246.752 778.361c-.3-1.013-.609-2.02-.927-3.026-.639-2.026-1.266-4.069-2.057-6.029-.05-.126-.257-.066-.241.073.25 2.125.678 4.229 1.088 6.324.2 1.041.411 2.079.637 3.115a10.313 10.313 0 0 0 1.019 3.172.591.591 0 0 0 1.107-.331 10.483 10.483 0 0 0-.626-3.298z" transform="translate(-100.859 -575.962)" style="fill:#2ca6e0"/>
        <path data-name="路径 8417" d="M252.052 757.05c-.12-.819-.253-1.637-.384-2.454-.242-1.515-.521-3.023-.786-4.534s-.544-3.015-.842-4.518a26.321 26.321 0 0 0-1.047-4.474.063.063 0 0 0-.119.017 26.76 26.76 0 0 0 .086 4.618q.121 2.3.294 4.6c.115 1.533.213 3.069.352 4.6q.111 1.238.23 2.477c.033.332.126.706.142 1.035a3.314 3.314 0 0 0 .145 1.057 1.1 1.1 0 0 0 2.163-.323 9.835 9.835 0 0 0-.234-2.101z" transform="translate(-101.986 -569.93)" style="fill:#2ca6e0"/>
        <path data-name="路径 8418" d="M259.293 747.734c-.249-1.145-.5-2.3-.856-3.414s-.675-2.258-1.089-3.35c-.426-1.127-.914-2.221-1.354-3.341-.119-.3-.55-.085-.473.221.286 1.14.481 2.311.663 3.475s.428 2.319.568 3.5c.137 1.161.332 2.313.465 3.475.13 1.13.15 2.516.928 3.361a.743.743 0 0 0 1.22-.174c.572-1.109.183-2.587-.072-3.753z" transform="translate(-103.423 -569.17)" style="fill:#2ca6e0"/>
        <path data-name="路径 8419" d="M266.8 825.4c-.576-2.046-1.182-4.083-1.782-6.121q-1.75-5.939-3.6-11.841c-2.456-7.863-4.835-15.841-7.746-23.513a.25.25 0 1 0-.478.146c1.5 8.127 3.592 16.177 5.563 24.178q1.439 5.836 2.961 11.642c.542 2.056 1.075 4.115 1.642 6.164.478 1.728.7 4.071 2.032 5.235a1.313 1.313 0 0 0 2.237-.653c.507-1.756-.357-3.552-.829-5.237z" transform="translate(-102.925 -579.062)" style="fill:#2ca6e0"/>
        <path data-name="路径 8420" d="m240.771 828.764-.38-6.8c-.26-4.66-.58-9.317-.884-13.975-.6-9.212-1.571-18.386-2.418-27.571-.029-.314-.455-.329-.454 0 .046 9.19-.032 18.384.261 27.571.145 4.533.27 9.066.458 13.6l.281 6.8a21.708 21.708 0 0 0 .838 6.735c.382 1.024 1.738 1.21 2.06 0a20.015 20.015 0 0 0 .238-6.36z" transform="translate(-99.385 -578.301)" style="fill:#2ca6e0"/>
        <path data-name="路径 8421" d="M253.907 861.868c-.216-1.993-.451-3.983-.685-5.972-.485-4.13-1.071-8.24-1.67-12.351-1.2-8.238-2.753-16.382-4.162-24.576a.258.258 0 0 0-.509.076c.785 8.285 1.241 16.619 1.86 24.921.305 4.1.575 8.2.9 12.3.159 1.99.3 3.981.461 5.971.163 2.066.155 4.255.969 6.15a1.612 1.612 0 0 0 3.018-.436c.459-1.971.035-4.091-.182-6.083z" transform="translate(-101.577 -586.555)" style="fill:#2ca6e0"/>
        <path data-name="路径 8422" d="M231.357 840.762c-.1-3.531-.195-7.061-.36-10.59-.329-7.055-.4-14.145-1.031-21.177a.1.1 0 1 0-.194 0c-.631 7.033-.7 14.122-1.031 21.177-.165 3.529-.257 7.058-.36 10.59-.081 2.784-.925 6.835.726 9.163a1.008 1.008 0 0 0 1.526 0c1.667-2.347.807-6.354.724-9.163z" transform="translate(-97.558 -584.443)" style="fill:#2ca6e0"/>
        <path data-name="路径 8423" d="M285.711 845.17q-.676-2.271-1.375-4.534-1.29-4.178-2.626-8.338c-1.895-5.9-4-11.724-6.106-17.532-2.02-5.561-4.08-11.109-6.267-16.592-2.243-5.624-4.419-11.549-7.37-16.773a.066.066 0 0 0-.119.055c1.42 5.846 3.664 11.546 5.566 17.217 1.923 5.734 3.849 11.467 5.687 17.236s3.556 11.591 5.342 17.385q1.286 4.176 2.527 8.368l1.237 4.195c.425 1.448.625 3.086 1.736 4.075a1.373 1.373 0 0 0 2.344-.684c.378-1.495-.149-2.648-.576-4.078z" transform="translate(-104.778 -578.556)" style="fill:#2ca6e0"/>
        <path data-name="路径 8424" d="M295.834 826.027q-1.8-3.555-3.58-7.121-3.8-7.618-7.52-15.289c-4.9-10.108-9.613-20.331-14.843-30.235a.033.033 0 0 0-.06.027c3.8 10.6 8.349 20.848 12.943 31.045q3.44 7.634 6.959 15.222 1.837 3.958 3.7 7.9c1.191 2.528 2.185 5.148 4.03 7.151.727.789 1.839-.02 1.641-1.057-.535-2.79-2.011-5.157-3.27-7.643z" transform="translate(-106.485 -576.844)" style="fill:#2ca6e0"/>
        <path data-name="路径 8425" d="M320.643 853.978a19.188 19.188 0 0 0-1.732-4.582c-.7-1.575-1.439-3.13-2.189-4.678-1.548-3.2-3.165-6.348-4.915-9.415-3.365-5.9-7.1-11.491-10.966-16.991-.142-.2-.452.063-.322.274a199.587 199.587 0 0 1 9.731 18.105c1.492 3.107 2.969 6.226 4.358 9.392 1.3 2.956 2.262 6.556 4.1 9.135.792 1.107 2.113-.14 1.935-1.24z" transform="translate(-113.042 -586.442)" style="fill:#2ca6e0"/>
        <path data-name="路径 8426" d="M313.339 815.534q-2.177-2.88-4.332-5.779-4.425-5.943-8.819-11.914c-5.757-7.871-11.257-16.039-17.485-23.469-.05-.059-.141.018-.1.087 4.87 8.583 10.573 16.582 15.951 24.777q3.99 6.08 7.917 12.21 1.969 3.058 3.922 6.128c1.2 1.889 2.376 4.427 4.3 5.486 1.153.634 2.36-.406 2.108-1.792-.401-2.228-2.182-4.04-3.462-5.734z" transform="translate(-109.215 -577.055)" style="fill:#2ca6e0"/>
        <path data-name="路径 8427" d="M275.87 621.889c4.789-6.887 9.572-13.74 13.924-20.978 2.082-3.463 4.117-6.979 6-10.578 1.965-3.75 4.376-7.539 5.027-11.831a1.469 1.469 0 0 0-2.6-1.193 11.829 11.829 0 0 0-1.859 2.468 49.05 49.05 0 0 0-1.2 2.435c-.91 1.926-1.818 3.851-2.75 5.765-1.806 3.71-3.564 7.448-5.383 11.152-3.707 7.551-7.447 15.119-11.624 22.366-.195.344.232.728.465.394z" transform="translate(-107.667 -534.797)" style="fill:#2ca6e0"/>
        <path data-name="路径 8428" d="M271.932 616.178c3.479-7.2 6.608-14.625 9.683-22.047 1.513-3.653 3.03-7.3 4.5-10.977 1.459-3.641 3.173-7.211 3.769-11.169a.814.814 0 0 0-1.443-.664c-2.124 3.1-3.262 6.8-4.609 10.361-1.444 3.822-2.844 7.663-4.245 11.506-2.758 7.567-5.478 15.176-7.816 22.917-.033.116.109.181.161.073z" transform="translate(-106.9 -533.559)" style="fill:#2ca6e0"/>
        <path data-name="路径 8429" d="M269.019 605.074c2.516-8.639 5.449-17.136 8.039-25.749 1.281-4.259 2.6-8.5 3.909-12.751q.98-3.189 1.975-6.371a18.781 18.781 0 0 0 1.28-5.987.809.809 0 0 0-1.461-.429c-1.212 1.622-1.7 3.7-2.295 5.668q-.969 3.2-1.92 6.4c-1.3 4.393-2.529 8.809-3.753 13.228-2.365 8.543-4.166 17.229-6.208 25.865-.063.268.357.394.434.126z" transform="translate(-106.218 -529.811)" style="fill:#2ca6e0"/>
        <path data-name="路径 8430" d="M222.908 565.241c.332 2.112.693 4.218 1.05 6.325q1.041 6.14 2.181 12.255c1.515 8.148 2.939 16.4 4.928 24.424a.249.249 0 1 0 .491-.077c-.531-8.272-1.667-16.554-2.686-24.77q-.742-5.994-1.573-11.968c-.3-2.117-.585-4.236-.906-6.347-.272-1.782-.215-4.137-1.4-5.482a1.3 1.3 0 0 0-2.295.327c-.71 1.672-.063 3.572.21 5.313z" transform="translate(-96.335 -531.007)" style="fill:#2ca6e0"/>
        <path data-name="路径 8431" d="m251.485 563.912-.42 6.8c-.288 4.659-.515 9.323-.759 13.984-.482 9.22-.6 18.456-.83 27.686-.008.315.413.391.45.064 1.031-9.12 2.184-18.225 2.969-27.377.387-4.515.793-9.029 1.138-13.549l.517-6.782a21.823 21.823 0 0 0-.043-6.8c-.259-1.071-1.582-1.449-2.043-.295a19.859 19.859 0 0 0-.979 6.269z" transform="translate(-102.132 -530.554)" style="fill:#2ca6e0"/>
        <path data-name="路径 8432" d="M241.922 530.527c-.019 2.007-.019 4.013-.02 6.019 0 4.164.1 8.324.209 12.487.226 8.34.812 16.638 1.25 24.965a.257.257 0 0 0 .513 0c.193-8.327.715-16.656 1.074-24.977.177-4.111.39-8.218.546-12.33.075-2 .164-3.992.242-5.988.08-2.071.344-4.241-.241-6.236a1.608 1.608 0 0 0-3.043 0c-.684 1.891-.511 4.053-.53 6.06z" transform="translate(-100.512 -523.376)" style="fill:#2ca6e0"/>
        <path data-name="路径 8433" d="M261.837 557.292c-.311 3.516-.634 7.029-.884 10.551-.5 7.044-1.259 14.083-1.456 21.147a.1.1 0 1 0 .193.028c1.449-6.884 2.35-13.9 3.5-20.853.576-3.475 1.081-6.962 1.6-10.448.406-2.749 1.718-6.645.353-9.19a1.011 1.011 0 0 0-1.512-.219c-1.931 2.092-1.546 6.186-1.794 8.984z" transform="translate(-104.275 -528.656)" style="fill:#2ca6e0"/>
        <path data-name="路径 8434" d="M204.451 536.869q.4 2.349.832 4.692.79 4.328 1.628 8.643c1.188 6.121 2.59 12.2 4 18.258 1.352 5.8 2.744 11.6 4.272 17.349 1.565 5.9 3.03 12.083 5.344 17.687a.065.065 0 0 0 .123-.039c-.723-6-2.281-11.973-3.5-17.868-1.236-5.961-2.474-11.921-3.621-17.9s-2.17-12-3.262-18q-.787-4.324-1.526-8.659-.37-2.167-.735-4.336c-.252-1.5-.259-3.149-1.244-4.289a1.36 1.36 0 0 0-2.4.343c-.554 1.422-.162 2.639.089 4.119z" transform="translate(-92.422 -525.183)" style="fill:#2ca6e0"/>
        <path data-name="路径 8435" d="M190.7 556.173q1.368 3.783 2.717 7.573 2.88 8.1 5.666 16.237c3.67 10.723 7.151 21.536 11.179 32.1a.032.032 0 0 0 .061-.019c-2.524-11.054-5.837-21.867-9.2-32.636q-2.518-8.061-5.119-16.089-1.357-4.188-2.74-8.367c-.885-2.677-1.564-5.417-3.159-7.667-.629-.886-1.825-.244-1.751.812.204 2.852 1.391 5.411 2.346 8.056z" transform="translate(-89.059 -528.406)" style="fill:#2ca6e0"/>
        <path data-name="路径 8436" d="M171.053 531.821a19.6 19.6 0 0 0 1.181 4.791c.512 1.662 1.06 3.31 1.622 4.952 1.162 3.391 2.4 6.747 3.772 10.039 2.646 6.327 5.691 12.409 8.885 18.416.116.22.455 0 .351-.226a205.5 205.5 0 0 1-7.529-19.344c-1.115-3.295-2.215-6.6-3.222-9.936-.939-3.116-1.475-6.824-3-9.646-.656-1.21-2.113-.167-2.06.954z" transform="translate(-85.358 -524.863)" style="fill:#2ca6e0"/>
        <path data-name="路径 8437" d="M170.357 567.346q1.821 3.166 3.618 6.349 3.693 6.526 7.349 13.076c4.787 8.628 9.286 17.514 14.591 25.772.042.065.141 0 .111-.072-3.824-9.207-8.543-17.955-12.916-26.85a1815.48 1815.48 0 0 1-6.421-13.24q-1.594-3.314-3.172-6.637c-.967-2.045-1.838-4.73-3.623-6.055-1.068-.793-2.387.064-2.3 1.475.142 2.268 1.692 4.319 2.763 6.182z" transform="translate(-84.618 -531.078)" style="fill:#2ca6e0"/>
        <path data-name="路径 8438" d="M319.5 800.953c-.737-2.022-2.358-3.272-3.783-4.729-1.606-1.643-3.265-3.225-4.905-4.827-3.2-3.123-6.482-6.136-9.694-9.243-6.252-6.051-12.456-12.241-19.078-17.8-.112-.1-.226.1-.144.206 5.511 6.992 11.587 13.459 17.519 20.014 2.928 3.236 5.784 6.552 8.73 9.77 1.472 1.608 2.929 3.236 4.43 4.813 1.431 1.5 2.847 3.5 4.761 4.187a1.869 1.869 0 0 0 2.164-2.391z" transform="translate(-109.06 -574.912)" style="fill:#2ca6e0"/>
        <path data-name="路径 8439" d="M343.828 808.8c-1.364-3.075-4.159-5.565-6.33-7.952q-3.289-3.614-6.737-7.041-7.173-7.093-14.855-13.514c-10.3-8.6-21.26-16.154-32.023-24.007-.248-.18-.461.246-.229.433q15.6 12.533 30.585 25.962c4.884 4.377 9.723 8.823 14.371 13.5 2.285 2.3 4.547 4.632 6.753 7.024s4.273 5.495 6.945 7.272c1.007.669 1.987-.628 1.52-1.677z" transform="translate(-109.42 -573.181)" style="fill:#2ca6e0"/>
        <path data-name="路径 8440" d="M289 749.171c-.619-1.984-2.594-3.561-4.057-4.767q-2.492-2.053-5.022-4.043c-1.637-1.284-3.273-2.568-4.934-3.81-1.755-1.31-3.454-2.767-5.3-3.923-.3-.19-.594.246-.366.525 1.389 1.691 3.008 3.156 4.5 4.729s3.046 3.105 4.586 4.638c1.5 1.49 3.012 2.953 4.537 4.407 1.437 1.371 3.283 3.174 5.237 3.422.533.067.98-.649.819-1.178z" transform="translate(-106.359 -568.121)" style="fill:#2ca6e0"/>
        <path data-name="路径 8441" d="M353.441 787.355c-.961-2.321-3.5-3.752-5.336-5.155a347.544 347.544 0 0 0-6.206-4.663q-6.116-4.473-12.449-8.585a291.078 291.078 0 0 0-26.56-14.8c-.285-.146-.528.286-.251.474 8.458 5.721 16.573 12 24.85 18.032q6.135 4.47 12.209 9.039c1.979 1.488 3.959 2.972 5.923 4.486 1.991 1.534 3.948 3.55 6.441 3.828 1.326.148 1.826-1.575 1.379-2.656z" transform="translate(-113.476 -572.729)" style="fill:#2ca6e0"/>
        <path data-name="路径 8442" d="M358.268 767.114c-2.493-2.269-5.644-3.39-8.631-4.619-3.158-1.3-6.324-2.571-9.485-3.859-6.107-2.487-12.2-5.026-18.309-7.5-12.4-5.015-24.761-10.175-37.224-15.008-.241-.094-.4.33-.174.458 11.789 6.554 23.868 12.483 36.007 18.2 5.944 2.8 11.938 5.463 17.946 8.089 3.138 1.372 6.276 2.743 9.435 4.058 3.026 1.26 6.153 2.789 9.435 2.845a1.607 1.607 0 0 0 1-2.664z" transform="translate(-109.587 -568.877)" style="fill:#2ca6e0"/>
        <path data-name="路径 8443" d="M379.631 763.9a6.829 6.829 0 0 0-2.851-2.582c-1.233-.813-2.505-1.561-3.77-2.31-2.354-1.4-4.728-2.749-7.16-3.97q-7.575-3.8-15.445-6.814a140.951 140.951 0 0 0-32-8.536c-.036 0-.044.061-.009.071a193.623 193.623 0 0 1 31.2 10.439 162.379 162.379 0 0 1 14.8 7.589c2.364 1.363 4.732 2.719 7.064 4.151 1.256.771 2.49 1.586 3.744 2.361 1.1.679 2.145 1.538 3.438 1.506a1.286 1.286 0 0 0 .989-1.905z" transform="translate(-116.867 -569.641)" style="fill:#2ca6e0"/>
        <path data-name="路径 8444" d="M337.6 736.787c-.936-1.641-2.905-2.048-4.481-2.678q-2.883-1.154-5.82-2.1a157.27 157.27 0 0 0-12.193-3.447 133.891 133.891 0 0 0-24.1-3.639c-.238-.012-.3.432-.057.469a162.028 162.028 0 0 1 23.651 5.216 138.393 138.393 0 0 1 11.374 4.051c1.82.744 3.628 1.525 5.439 2.3 1.7.724 3.674 2.167 5.513 1.674a1.306 1.306 0 0 0 .674-1.846z" transform="translate(-110.968 -566.483)" style="fill:#2ca6e0"/>
        <path data-name="路径 8445" d="M365.565 727.014a9.985 9.985 0 0 0-4.526-1.892q-2.556-.633-5.135-1.148-5.283-1.061-10.633-1.663a120.657 120.657 0 0 0-21.843-.556c-.288.02-.294.5 0 .5a122.621 122.621 0 0 1 21.283 1.948q5.141.966 10.2 2.376 2.534.706 5.041 1.523c1.539.5 3.17 1.279 4.793 1.09.868-.1 1.692-1.411.82-2.178z" transform="translate(-117.902 -565.75)" style="fill:#2ca6e0"/>
        <path data-name="路径 8446" d="M406.162 728.727c-2.921-1.882-6.712-2.807-9.94-3.871-3.483-1.149-6.979-2.236-10.521-3.145a113.674 113.674 0 0 0-10.409-2.144c-3.413-.542-7.276-1.123-10.707-.646a.049.049 0 0 0-.011.094c3.274 1.122 6.928 1.542 10.3 2.208 3.467.685 6.918 1.5 10.338 2.432 3.318.9 6.627 1.9 9.864 3.114q2.585.967 5.133 2.052a40.166 40.166 0 0 0 5.092 2.152c1.21.319 1.974-1.529.861-2.246z" transform="translate(-126.742 -565.162)" style="fill:#2ca6e0"/>
        <path data-name="路径 8447" d="M366.558 705.342a53.208 53.208 0 0 0-6.832-.8c-2.384-.228-4.762-.485-7.153-.627a125.673 125.673 0 0 0-14.682-.016 103.376 103.376 0 0 0-13.829 1.763q-3.527.689-7.018 1.581a31.409 31.409 0 0 0-6.61 2.081c-.087.045-.044.206.049.2a53.5 53.5 0 0 0 6.489-1.211q3.622-.684 7.274-1.146c4.638-.586 9.3-.955 13.97-1.134a123.211 123.211 0 0 1 13.7.233c2.387.174 4.784.382 7.155.73s4.727 1.035 7.114 1.346c1.548.2 1.889-2.654.373-3z" transform="translate(-115.16 -561.942)" style="fill:#2ca6e0"/>
        <path data-name="路径 8448" d="M376.238 688.7c-2.887-.83-6.552.036-9.507.235-3.242.219-6.485.429-9.724.692q-9.384.761-18.731 1.986c-6.112.8-12.2 1.858-18.252 3.11-6.276 1.3-12.862 2.549-18.911 4.828-.065.024-.06.146.017.141 6.176-.479 12.355-1.8 18.508-2.608q9.479-1.247 18.972-2.331 9.347-1.055 18.732-1.645c3.127-.2 6.258-.365 9.389-.447a237.3 237.3 0 0 1 4.7-.059 15.129 15.129 0 0 0 4.809-.335c1.54-.522 1.638-3.093-.002-3.567z" transform="translate(-113.166 -558.661)" style="fill:#2ca6e0"/>
        <path data-name="路径 8449" d="M359.774 670.93c-5.582-.322-11.484.977-16.979 2.013a164.267 164.267 0 0 0-16.92 4.138 294.582 294.582 0 0 0-33.031 12.485c-6.011 2.632-12.247 5.139-17.971 8.479-.23.134-.072.531.175.458 5.471-1.644 10.8-4.1 16.133-6.219q8.218-3.269 16.526-6.241a235.368 235.368 0 0 1 33.014-9.467c3.239-.646 6.495-1.2 9.765-1.616 3.216-.408 6.456-.5 9.649-1.1 1.565-.293 1.083-2.846-.361-2.93z" transform="translate(-107.54 -554.925)" style="fill:#2ca6e0"/>
        <path data-name="路径 8450" d="M375.823 657.254c-1.747-.432-3.44.065-5.164.447-2.061.457-4.121.924-6.168 1.449-3.989 1.021-7.963 2.111-11.9 3.35q-5.751 1.81-11.441 3.849a116.793 116.793 0 0 0-11.36 4.4c-.255.123-.068.544.183.48 3.871-.994 7.673-2.39 11.522-3.494s7.739-2.135 11.633-3.082c3.788-.92 7.58-1.827 11.388-2.646 1.957-.421 3.914-.847 5.875-1.25 1.9-.391 3.982-.533 5.644-1.715.604-.43.565-1.594-.212-1.788z" transform="translate(-119.283 -551.975)" style="fill:#2ca6e0"/>
        <path data-name="路径 8451" d="M329.291 666.176q.96-.394 1.921-.782 2.136-.862 4.282-1.694a13.6 13.6 0 0 0 4.132-1.957c.677-.574.542-1.924-.469-1.911a12 12 0 0 0-4.3 1.3q-2.289.935-4.565 1.906a210.365 210.365 0 0 0-8.09 3.643q-4.167 1.988-8.285 4.1c-2.883 1.478-6.035 2.882-8.61 4.963-.256.208-.114.682.225.589a59.616 59.616 0 0 0 8.427-3.6q4.348-1.974 8.744-3.815 3.292-1.38 6.592-2.737" transform="translate(-114.044 -552.562)" style="fill:#2ca6e0"/>
        <path data-name="路径 8452" d="M343.041 644.166c-2.687.681-5.323 2.92-7.7 4.41l-7.375 4.623c-5.086 3.188-10.261 6.261-15.193 9.736-.226.16-.03.51.207.391 5.333-2.683 10.494-5.809 15.693-8.79l7.536-4.32c2.435-1.4 5.54-2.612 7.526-4.736a.787.787 0 0 0-.694-1.314z" transform="translate(-115.648 -549.207)" style="fill:#2ca6e0"/>
        <path data-name="路径 8453" d="M348.583 625.006c-5.189 1.722-10.039 5.324-14.689 8.345-4.674 3.038-9.274 6.206-13.741 9.6-8.882 6.757-18 13.9-25.576 22.427-.075.085.024.239.117.169 8.951-6.7 17.442-14.055 26.606-20.427 4.585-3.188 9.205-6.32 13.907-9.29 4.648-2.937 9.843-5.327 14.116-8.889.807-.668.39-2.31-.74-1.935z" transform="translate(-111.772 -545.101)" style="fill:#2ca6e0"/>
        <path data-name="路径 8454" d="M348.993 598.472c-1.561.375-2.782 1.659-4.02 2.712q-1.9 1.613-3.758 3.278-3.918 3.514-7.653 7.271a186.942 186.942 0 0 0-14.162 15.942c-.208.264.126.644.351.388a195.161 195.161 0 0 1 14.636-15.009q3.912-3.58 8.008-6.908 1.926-1.564 3.89-3.069c1.291-.99 2.74-1.837 3.6-3.328a.86.86 0 0 0-.892-1.277z" transform="translate(-117.073 -539.433)" style="fill:#2ca6e0"/>
        <path data-name="路径 8455" d="M240.716 628.214a77.575 77.575 0 0 0-.624-4.388 16.145 16.145 0 0 0-1.166-4.379.633.633 0 0 0-1.187.355 22.562 22.562 0 0 0 .74 4.515q.45 2.13.861 4.272c.561 2.952 1.021 5.923 1.446 8.9.042.3.465.218.466-.07a78.614 78.614 0 0 0-.536-9.205z" transform="translate(-99.621 -543.851)" style="fill:#2ca6e0"/>
        <path data-name="路径 8456" d="M261.144 619.989a17.4 17.4 0 0 0-.82 4.005c-.164 1.324-.338 2.647-.488 3.972-.306 2.705-.65 5.409-.825 8.128a.2.2 0 0 0 .4.06c.654-2.641 1.144-5.327 1.667-8 .261-1.34.5-2.685.748-4.027a17.122 17.122 0 0 0 .4-3.975.548.548 0 0 0-1.082-.163z" transform="translate(-104.171 -543.949)" style="fill:#2ca6e0"/>
        <path data-name="路径 8457" d="M221.088 644.991a34.464 34.464 0 0 0-.559-1.328 4.26 4.26 0 0 0-.31-.644l-.421-.634a.35.35 0 0 0-.631.294 8.414 8.414 0 0 0 .472 1.377c.211.447.42.895.649 1.331.452.857.891 1.716 1.4 2.536a.23.23 0 0 0 .414-.193c-.297-.93-.659-1.83-1.014-2.739z" transform="translate(-95.645 -548.794)" style="fill:#2ca6e0"/>
        <path data-name="路径 8458" d="M202.689 652.831c-.253-.539-.6-1.02-.893-1.531a22.7 22.7 0 0 0-2.193-2.938 17.115 17.115 0 0 0-5.353-4.754.861.861 0 0 0-.968 1.387c1.543 1.75 3.412 3.13 5.055 4.766.806.8 1.527 1.7 2.325 2.506.41.413.761.884 1.169 1.3.359.362.675.977 1.166 1.119a.27.27 0 0 0 .328-.276c.038-.567-.413-1.11-.636-1.579z" transform="translate(-90.06 -549.074)" style="fill:#2ca6e0"/>
        <path data-name="路径 8459" d="M287.419 643.063a4.719 4.719 0 0 0-1.35 1.632 11.3 11.3 0 0 1-1.126 1.883 40.525 40.525 0 0 0-2.259 3.647 69.109 69.109 0 0 0-3.607 7.72.241.241 0 0 0 .434.2c1.425-2.4 2.887-4.851 4.53-7.082.793-1.076 1.535-2.194 2.342-3.259a7.765 7.765 0 0 1 1.308-1.486 5.906 5.906 0 0 0 1.373-1.855 1.091 1.091 0 0 0-1.645-1.4z" transform="translate(-108.459 -548.915)" style="fill:#2ca6e0"/>
        <path data-name="路径 8460" d="M333.492 566.383c-2.009 1.1-3.409 3.271-4.884 5.075q-2.272 2.778-4.5 5.595-4.572 5.77-8.995 11.679c-5.753 7.71-11.478 15.559-16.548 23.842-.108.178.145.4.271.231 5.875-7.7 11.575-15.539 17.683-23.021q4.529-5.548 9.207-10.943 2.348-2.69 4.734-5.339c1.553-1.723 3.479-3.346 4.422-5.586.429-1.022-.446-2.047-1.39-1.533z" transform="translate(-112.625 -532.545)" style="fill:#2ca6e0"/>
        <path data-name="路径 8461" d="M341.065 589.624a47.561 47.561 0 0 0-4.619 4.3c-.717.748-1.442 1.489-2.151 2.247-.759.811-1.445 1.667-2.145 2.532-.093.115.029.322.156.225.809-.615 1.605-1.225 2.386-1.9.8-.694 1.582-1.427 2.371-2.143a48.544 48.544 0 0 0 4.5-4.555c.302-.352-.104-1.021-.498-.706z" transform="translate(-119.807 -537.528)" style="fill:#2ca6e0"/>
        <path data-name="路径 8462" d="M313.324 534.774a2.952 2.952 0 0 0-.961.924c-.214.4-.268.876-.484 1.285-.421.793-.89 1.558-1.323 2.343-.9 1.623-1.717 3.295-2.52 4.975a62.97 62.97 0 0 0-4.02 10.077.251.251 0 0 0 .454.211c1.843-2.994 3.448-6.169 5.2-9.236.862-1.513 1.766-2.994 2.648-4.492.455-.772.91-1.546 1.387-2.3a6.679 6.679 0 0 1 .86-.987 2.593 2.593 0 0 0 .506-1.317c.186-1.051-.818-2.147-1.747-1.483z" transform="translate(-113.794 -525.771)" style="fill:#2ca6e0"/>
        <path data-name="路径 8463" d="M176.63 607.875c-1.653-2.082-3.38-4.089-5.116-6.085-3.4-3.9-6.9-7.683-10.428-11.441s-7.08-7.481-10.717-11.1a104.233 104.233 0 0 0-11.275-10.234c-.7-.516-1.388.6-.863 1.236 3.3 4 7.055 7.491 10.686 11.112s7.281 7.249 10.87 10.936c3.509 3.6 6.959 7.279 10.433 10.925 1.737 1.824 3.464 3.659 5.232 5.447a70.572 70.572 0 0 0 5.389 5.349c.156.127.37-.121.266-.293a59.468 59.468 0 0 0-4.477-5.852z" transform="translate(-78.299 -533.108)" style="fill:#2ca6e0"/>
        <path data-name="路径 8464" d="M157.285 609.545a219.485 219.485 0 0 0-22.385-17.377c-3.843-2.662-7.759-5.183-11.713-7.634q-3.1-1.924-6.239-3.784c-1.99-1.18-3.826-2.374-6.132-2.4a1.351 1.351 0 0 0-.967 2.049c1.42 2.006 3.309 2.919 5.332 4.021q2.9 1.581 5.78 3.218c4.122 2.344 8.2 4.784 12.271 7.235 8.033 4.838 15.872 10.039 23.829 15.02.191.117.398-.193.224-.348z" transform="translate(-72.223 -535.134)" style="fill:#2ca6e0"/>
        <path data-name="路径 8465" d="M160.139 568.945c-.85-1.609-1.64-3.264-2.479-4.883q-1.226-2.367-2.362-4.788c-.8-1.708-1.433-3.661-3.155-4.449a1.222 1.222 0 0 0-1.512.949c-.324 2.039.91 3.71 1.887 5.3a124.566 124.566 0 0 0 2.961 4.586 52.915 52.915 0 0 0 3.131 4.192 25.985 25.985 0 0 0 3.471 3.876c.14.111.366-.075.3-.255a35.448 35.448 0 0 0-2.242-4.528z" transform="translate(-80.979 -530.088)" style="fill:#2ca6e0"/>
        <path data-name="路径 8466" d="M196.995 702.882a36.229 36.229 0 0 0-8.343-4.717 34.93 34.93 0 0 0-4.491-1.519c-1.393-.355-3.27-.973-4.684-.471a.542.542 0 0 0-.153.919c1.21.778 2.9.771 4.28 1.057 1.534.316 3.056.65 4.555 1.105a44.049 44.049 0 0 1 8.72 3.81c.109.062.215-.109.116-.184z" transform="translate(-87.085 -560.294)" style="fill:#2ca6e0"/>
        <path data-name="路径 8467" d="M175.783 705.115a36.447 36.447 0 0 0-13.41-5.4 39.723 39.723 0 0 0-7.342-.669c-1.188 0-2.372.056-3.554.175a8.833 8.833 0 0 0-3.659.915.512.512 0 0 0 .152.967 13.64 13.64 0 0 0 3.489-.208 45.157 45.157 0 0 1 3.467-.284 38.707 38.707 0 0 1 7.164.366 43.564 43.564 0 0 1 13.61 4.283c.087.04.161-.093.083-.145z" transform="translate(-80.328 -560.948)" style="fill:#2ca6e0"/>
        <path data-name="路径 8468" d="M188.452 672.6a35.861 35.861 0 0 0-4.356-2.092q-1.12-.452-2.273-.814a4.372 4.372 0 0 0-2.467-.422.692.692 0 0 0-.3 1.145 4.451 4.451 0 0 0 2.109.666q1.111.242 2.2.56a28.459 28.459 0 0 1 4.6 1.788 34.1 34.1 0 0 1 7.987 5.461.073.073 0 0 0 .1-.1 30.039 30.039 0 0 0-7.6-6.192z" transform="translate(-87.025 -554.564)" style="fill:#2ca6e0"/>
        <path data-name="路径 8469" d="M250.517 643.072a9.11 9.11 0 0 0-2.154 3.763 40.5 40.5 0 0 0-1.354 4.06 36.866 36.866 0 0 0-.912 4.2c-.111.682-.195 1.38-.241 2.069-.049.745.058 1.464.053 2.2 0 .194.315.249.349.047.119-.715.384-1.414.544-2.123.142-.63.282-1.256.435-1.884a37.777 37.777 0 0 1 1.206-3.979 33.682 33.682 0 0 1 1.7-3.846 14.844 14.844 0 0 0 1.751-3.713.834.834 0 0 0-1.377-.794z" transform="translate(-101.355 -548.929)" style="fill:#2ca6e0"/>
        <path data-name="路径 8470" d="M324.172 608.728c-1.2-.064-2.276 1.013-3.18 1.689q-1.5 1.118-2.928 2.313-2.86 2.389-5.47 5.042a72.035 72.035 0 0 0-9.171 11.489c-.079.123.108.274.205.159a101.574 101.574 0 0 1 10.2-10.409 87.245 87.245 0 0 1 5.569-4.547q1.488-1.114 3.012-2.182c.964-.674 2.218-1.241 2.626-2.416a.91.91 0 0 0-.863-1.138z" transform="translate(-113.666 -541.631)" style="fill:#2ca6e0"/>
        <path data-name="路径 8471" d="M172.9 644.013c-6.447-7.556-13.46-15.035-21.3-21.165-3.912-3.061-7.953-5.928-12.1-8.668-2.094-1.384-4.211-2.738-6.3-4.133-1.932-1.29-4.221-3.19-6.6-3.343-1.944-.124-2.4 2.205-1.428 3.447a8.826 8.826 0 0 0 3.108 2c1.119.573 2.27 1.085 3.393 1.651 2.063 1.039 4.084 2.2 6.056 3.4 4.195 2.554 8.261 5.343 12.215 8.254s8 5.721 11.8 8.832 7.452 6.454 10.969 9.9c.126.117.287-.053.187-.175z" transform="translate(-75.442 -541.198)" style="fill:#2ca6e0"/>
        <path data-name="路径 8472" d="M123.527 619.162a23.159 23.159 0 0 0-7.863-6.1 37.551 37.551 0 0 0-4.673-1.869q-1.157-.37-2.335-.67a3.223 3.223 0 0 0-2.612.039.921.921 0 0 0-.326 1.245 2.97 2.97 0 0 0 1.981 1.112q1.183.281 2.346.634a43.419 43.419 0 0 1 4.534 1.648c1.444.621 2.868 1.286 4.316 1.9 1.533.649 2.986 1.52 4.481 2.258a.126.126 0 0 0 .151-.197z" transform="translate(-71.356 -541.959)" style="fill:#2ca6e0"/>
        <path data-name="路径 8473" d="M373.157 648.452a3.019 3.019 0 0 0-.966-.059q-.344.047-.689.1c-.4.065-.8.131-1.193.235a16.25 16.25 0 0 0-2.622.921 21.793 21.793 0 0 0-2.288 1.174c-.37.227-.729.472-1.083.722-.384.272-.706.624-1.1.883a.141.141 0 0 0 .143.244 7.884 7.884 0 0 1 1.278-.354c.39-.1.772-.216 1.164-.309.821-.2 1.618-.431 2.454-.56.762-.118 1.513-.287 2.278-.384a11.115 11.115 0 0 0 2.619-.461 1.164 1.164 0 0 0 .82-1.077 1.119 1.119 0 0 0-.815-1.075z" transform="translate(-126.445 -550.111)" style="fill:#2ca6e0"/>
    </g>
</svg>
