<svg xmlns="http://www.w3.org/2000/svg" width="152.99" height="154.5" viewBox="0 0 152.99 154.5">
    <g data-name="组 52">
        <path data-name="路径 8474" d="M910.6 714.123a15.922 15.922 0 0 0-3.1-4.107 48.035 48.035 0 0 0-3.861-3.4c-.672-.566-1.45.805-.676 1.279a26.3 26.3 0 0 1 3.853 3.078c1.209 1.1 2.3 2.37 3.562 3.4.138.116.291-.104.222-.25z" transform="translate(-841.9 -634.558)" style="fill:#f7b52c"/>
        <path data-name="路径 8475" d="M913.31 726.33a12.129 12.129 0 0 0-3.7.143 14.768 14.768 0 0 0-1.773.459 5.544 5.544 0 0 0-1.837.808 1.06 1.06 0 0 0-.366 1.233.869.869 0 0 0 1.054.572 11.764 11.764 0 0 0 1.649-.946 13.863 13.863 0 0 1 1.606-.786 20.185 20.185 0 0 1 3.417-1.073c.224-.048.147-.388-.05-.41z" transform="translate(-843.379 -644.561)" style="fill:#f7b52c"/>
        <path data-name="路径 8476" d="M919.333 735.911a3.283 3.283 0 0 0-1.3.717 12.5 12.5 0 0 0-1.216 1.11c-.361.387-.732.779-1.057 1.2a5.481 5.481 0 0 0-.565.8c-.066.132-.113.282-.166.42a1.4 1.4 0 0 0-.048.735.654.654 0 0 0 .8.5c.6-.14.953-.829 1.28-1.348.288-.458.552-.932.844-1.386.282-.438.543-.891.816-1.336a4.917 4.917 0 0 0 .638-1.386.026.026 0 0 0-.026-.026z" transform="translate(-848.134 -649.448)" style="fill:#f7b52c"/>
        <path data-name="路径 8477" d="M921.269 740.072a22.375 22.375 0 0 0-1.469 1.842 14.336 14.336 0 0 0-1.283 1.919 21.177 21.177 0 0 0-1.643 4.637c-.178.764-.478 1.927-.008 2.622a.773.773 0 0 0 .9.338c.47-.157.7-.755.824-1.236.2-.772.288-1.579.472-2.356.19-.8.422-1.6.658-2.389a33.177 33.177 0 0 1 1.849-5.125c.096-.204-.146-.424-.3-.252z" transform="translate(-848.971 -651.521)" style="fill:#f7b52c"/>
        <path data-name="路径 8478" d="M934.421 741.5a53.336 53.336 0 0 0-.307-2.2 80.354 80.354 0 0 0-.762-4.088c-.059-.284-.425-.2-.44.066a82.735 82.735 0 0 0-.155 4.226c0 .692-.009 1.381.015 2.073a8.267 8.267 0 0 0 .1 1.118 4.831 4.831 0 0 0 .35 1.045.576.576 0 0 0 1.078-.156 5.646 5.646 0 0 0 .121-2.084z" transform="translate(-857.136 -649.004)" style="fill:#f7b52c"/>
        <path data-name="路径 8479" d="M948.448 733.977c-.265-.277-.53-.555-.8-.823a23.087 23.087 0 0 0-1.739-1.55 18.573 18.573 0 0 0-3.807-2.354.243.243 0 0 0-.226.428 23.49 23.49 0 0 1 3.3 2.873q.756.788 1.438 1.656c.208.266.416.534.6.817.279.417.49.858.971 1.015a.781.781 0 0 0 .958-.807 1.968 1.968 0 0 0-.695-1.255z" transform="translate(-861.694 -646.066)" style="fill:#f7b52c"/>
        <path data-name="路径 8480" d="M961.991 725.175a2.906 2.906 0 0 0-1.566-.287l-1.422-.06q-1.6-.067-3.2-.155c-2.1-.114-4.177-.2-6.282-.138-.217.006-.283.385-.053.435 2.028.447 4.046.747 6.1 1.021 1.028.138 2.055.277 3.081.427l1.541.225a3.133 3.133 0 0 0 1.623.055.883.883 0 0 0 .178-1.523z" transform="translate(-865.518 -643.683)" style="fill:#f7b52c"/>
        <path data-name="路径 8481" d="M955.268 700.678a1.367 1.367 0 0 0-.63.3q-1.1.766-2.15 1.627a23.9 23.9 0 0 0-2.214 2.089c-.17.181.055.523.257.369a43.447 43.447 0 0 1 4.373-2.98c.353-.207.967-.441.888-1a.472.472 0 0 0-.524-.405z" transform="translate(-865.969 -631.623)" style="fill:#f7b52c"/>
        <path data-name="路径 8482" d="M964.231 706.685a.942.942 0 0 0-1.266-.64 2.54 2.54 0 0 0-.692.488c-.332.272-.66.555-1 .815-.362.277-.73.543-1.095.815a4.521 4.521 0 0 0-1.013.94c-.132.181-.067.533.192.512a8.34 8.34 0 0 0 2.438-.9c.375-.161.761-.3 1.141-.443a4.519 4.519 0 0 0 .76-.31 1.207 1.207 0 0 0 .535-1.277z" transform="translate(-870.463 -634.308)" style="fill:#f7b52c"/>
        <path data-name="路径 8483" d="M977.773 669.781a5.615 5.615 0 0 0-1.733 1.412q-.711.717-1.4 1.458-1.387 1.485-2.691 3.062a78.69 78.69 0 0 0-4.8 6.562c-.152.228.18.5.352.3a63.188 63.188 0 0 1 5.535-5.66q1.4-1.279 2.861-2.463.775-.626 1.565-1.225a6.363 6.363 0 0 0 1.671-1.494c.601-.917-.406-2.339-1.36-1.952z" transform="translate(-874.516 -615.961)" style="fill:#f7b52c"/>
        <path data-name="路径 8484" d="M951 676.863a1.1 1.1 0 0 0-.451-.291 1 1 0 0 0-1.154.519 24.189 24.189 0 0 0-1.521 3.111c-.5 1.044-1.007 2.08-1.492 3.131s-.96 2.11-1.422 3.175a17.265 17.265 0 0 0-1.15 3.167c-.06.282.281.558.473.3a20.817 20.817 0 0 0 1.663-2.834q.809-1.524 1.653-3.025c.563-1 1.128-2 1.725-2.981a34.2 34.2 0 0 0 1.836-2.908 1.254 1.254 0 0 0-.16-1.364z" transform="translate(-862.725 -619.403)" style="fill:#f7b52c"/>
        <path data-name="路径 8485" d="M936.972 697.244a3.976 3.976 0 0 0 0-1.7.336.336 0 0 0-.626-.09 3.451 3.451 0 0 0-.324 1.8q-.041.872-.029 1.746a23.466 23.466 0 0 0 .382 3.563.258.258 0 0 0 .509-.077c-.067-1.165-.036-2.32-.009-3.486q.025-.884.097-1.756z" transform="translate(-858.776 -628.889)" style="fill:#f7b52c"/>
        <path data-name="路径 8486" d="m925.777 678.929-.73-2.648c-.213-.773-.413-2.189-1.157-2.553a.662.662 0 0 0-.936.271c-.417.891.193 2.03.5 2.869l.95 2.581c.645 1.753 1.41 3.456 2.185 5.142.12.26.461.073.41-.191-.356-1.833-.727-3.675-1.222-5.471z" transform="translate(-852.107 -617.946)" style="fill:#f7b52c"/>
        <path data-name="路径 8487" d="M918.033 682.41c-.84-1.727-1.748-3.408-2.649-5.1-.444-.832-.929-1.634-1.407-2.443-.469-.793-.969-1.846-1.823-2.178-.367-.142-.747.229-.747.628a4.852 4.852 0 0 0 1.227 2.522c.555.8 1.1 1.6 1.69 2.375 1.136 1.487 2.262 2.978 3.45 4.414.126.16.346-.04.259-.218z" transform="translate(-846.337 -617.451)" style="fill:#f7b52c"/>
        <path data-name="路径 8488" d="M922.3 702.362a21.104 21.104 0 0 0-.57-1.782c-.224-.626-.443-1.476-1.08-1.716a.5.5 0 0 0-.609.382c-.214.617.231 1.361.461 1.906.241.571.47 1.146.72 1.712.5 1.121.922 2.273 1.436 3.383a.211.211 0 0 0 .4-.119 24.6 24.6 0 0 0-.758-3.766z" transform="translate(-850.676 -630.694)" style="fill:#f7b52c"/>
        <path data-name="路径 8489" d="M909.574 696.675a31.654 31.654 0 0 0-3.134-5.588 24.452 24.452 0 0 0-1.966-2.515q-.532-.583-1.088-1.137a5.268 5.268 0 0 0-.672-.609 1.626 1.626 0 0 0-1.045-.247.974.974 0 0 0-.853 1.237 2.121 2.121 0 0 0 .382.925 4.649 4.649 0 0 0 .68.595c.368.293.734.588 1.09.9a62.377 62.377 0 0 1 2.28 2.063 39.8 39.8 0 0 1 4.047 4.614c.138.18.36-.05.279-.238z" transform="translate(-840.964 -624.491)" style="fill:#f7b52c"/>
        <path data-name="路径 8490" d="M849.951 666.32c-3.237-3.836-7.693-6.645-11.789-9.2q-3.126-1.953-6.371-3.66c-2.105-1.107-4.426-2.741-6.8-2.814a1.086 1.086 0 0 0-.675 1.8c1.766 1.563 4.148 2.079 6.228 3a92.757 92.757 0 0 1 6.732 3.342c4.291 2.341 8.29 5.39 12.632 7.592a.038.038 0 0 0 .043-.06z" transform="translate(-802.132 -606.311)" style="fill:#f7b52c"/>
        <path data-name="路径 8491" d="M854.378 675.562a34.484 34.484 0 0 0-7.562-5.308q-1.986-1.126-4.023-2.14a15.93 15.93 0 0 0-4.364-1.758.642.642 0 0 0-.445 1.168 22.549 22.549 0 0 0 3.987 1.9 89.881 89.881 0 0 1 4.363 2.068c2.662 1.358 5.263 3 8 4.159.043.017.078-.051.044-.089z" transform="translate(-809.049 -614.257)" style="fill:#f7b52c"/>
        <path data-name="路径 8492" d="M845.082 683.361a77.822 77.822 0 0 0-16.308-11.022q-4.146-2.188-8.455-3.961a138.306 138.306 0 0 0-4.784-1.884c-1.46-.538-3.059-1.354-4.618-1.149a1.091 1.091 0 0 0-.482 1.968c1.208.953 2.791 1.129 4.2 1.538a77.86 77.86 0 0 1 4.582 1.462 98.663 98.663 0 0 1 8.993 3.738 163.988 163.988 0 0 1 16.642 9.638c.181.111.4-.172.23-.328z" transform="translate(-795.027 -613.733)" style="fill:#f7b52c"/>
        <path data-name="路径 8493" d="M810.761 677.651a65.949 65.949 0 0 0-6.168-2.431c-1.04-.356-2.092-.667-3.139-.994a12.318 12.318 0 0 0-3.181-.815 1.062 1.062 0 0 0-.471 1.922 12.305 12.305 0 0 0 3.14.942c1.106.266 2.21.55 3.322.783a65.068 65.068 0 0 0 6.44 1.053c.26.029.257-.368.057-.46z" transform="translate(-788.636 -617.83)" style="fill:#f7b52c"/>
        <path data-name="路径 8494" d="M818.735 698.711q-1.592-.425-3.195-.8c-1.992-.472-3.991-.927-6.01-1.225q-3.164-.467-6.343-.788c-2.113-.211-4.36-.713-6.4.067a1.226 1.226 0 0 0 0 2.263c2.015.821 4.284.445 6.4.472q3.056.039 6.108.221c2.027.121 4.057.172 6.084.3q1.632.105 3.262.25a11.07 11.07 0 0 0 2.79.146c.01 0 .011-.019 0-.024a9.9 9.9 0 0 0-2.696-.882z" transform="translate(-787.969 -629.025)" style="fill:#f7b52c"/>
        <path data-name="路径 8495" d="M812.549 706.271a103.88 103.88 0 0 0-14.627-1.107 110.6 110.6 0 0 0-7.284.16q-1.957.1-3.908.276a7.4 7.4 0 0 0-3.319.731 1.236 1.236 0 0 0 .253 2.144 8.044 8.044 0 0 0 3.388-.243c1.193-.208 2.388-.4 3.586-.576 2.421-.349 4.85-.6 7.284-.8a134.07 134.07 0 0 1 14.583-.229c.181.007.231-.327.044-.356z" transform="translate(-781.328 -633.889)" style="fill:#f7b52c"/>
        <path data-name="路径 8496" d="M792.15 719.712a29.651 29.651 0 0 0-6.383 1.182 28.643 28.643 0 0 0-3.03 1.071c-.91.394-2.482.836-2.931 1.895-.2.473-.068 1.162.472 1.283 1.039.234 2.107-.635 3.019-1.107.96-.5 1.911-1.011 2.89-1.462a66.703 66.703 0 0 1 6.018-2.427c.205-.07.18-.453-.055-.435z" transform="translate(-779.717 -641.253)" style="fill:#f7b52c"/>
        <path data-name="路径 8497" d="M843.262 726.155a26.049 26.049 0 0 0-5.3-.184c-1.754.013-3.512.039-5.264.135s-3.506.215-5.246.443c-1.636.214-3.928.134-5.28 1.281a1.065 1.065 0 0 0 .216 1.835c1.536.565 3.434-.176 4.979-.462 1.8-.332 3.583-.7 5.378-1.039 1.721-.321 3.44-.656 5.166-.942a39.19 39.19 0 0 0 5.346-.916c.068-.02.076-.136.005-.151z" transform="translate(-800.982 -644.398)" style="fill:#f7b52c"/>
        <path data-name="路径 8498" d="M825.262 735.149a40.279 40.279 0 0 0-9.865 1.03 35.015 35.015 0 0 0-4.84 1.3 13.064 13.064 0 0 0-4.467 2.331c-.761.676.109 1.7.837 1.591a20.206 20.206 0 0 0 4.559-1.623c1.508-.62 3-1.264 4.534-1.818 3.04-1.1 6.154-1.834 9.265-2.632.093-.028.068-.175-.023-.179z" transform="translate(-792.91 -649.05)" style="fill:#f7b52c"/>
        <path data-name="路径 8499" d="M815.054 747a32.735 32.735 0 0 0-9.379 1.79c-1.55.457-3.091.949-4.614 1.511-1.411.52-3.108.982-4.176 2.192-.312.353-.1 1.036.38 1.012 1.431-.071 2.771-.964 4.061-1.572a58.134 58.134 0 0 1 4.644-1.962c2.991-1.1 6.121-1.728 9.1-2.843.061-.021.053-.128-.016-.128z" transform="translate(-788.328 -655.058)" style="fill:#f7b52c"/>
        <path data-name="路径 8500" d="M885.344 731.922a30.37 30.37 0 0 0-3.051-.128 18.95 18.95 0 0 0-2.876.428 12.4 12.4 0 0 0-5.505 2.213c-.426.367.063.947.465.882a15.02 15.02 0 0 0 2.729-.9c.872-.319 1.753-.617 2.642-.875s1.781-.471 2.676-.692a27.225 27.225 0 0 1 2.921-.707c.124-.016.131-.216-.001-.221z" transform="translate(-827.285 -647.357)" style="fill:#f7b52c"/>
        <path data-name="路径 8501" d="M901.934 741.092a14.373 14.373 0 0 0-3.808 2.325 15.727 15.727 0 0 0-1.621 1.591 10.952 10.952 0 0 0-.742.942 4.055 4.055 0 0 0-.545 1.1c-.1.288.263.616.494.419a5.332 5.332 0 0 0 .761-.765c.233-.292.462-.588.7-.877.47-.578.963-1.138 1.481-1.662a22.565 22.565 0 0 1 3.373-2.833c.106-.075.036-.294-.093-.24z" transform="translate(-838.139 -652.065)" style="fill:#f7b52c"/>
        <path data-name="路径 8502" d="M857.36 746.592a11.88 11.88 0 0 0-4.5.389c-1.581.343-3.16.743-4.71 1.23A39.374 39.374 0 0 0 843.6 750a8.617 8.617 0 0 0-3.861 2.775.621.621 0 0 0 .478.922 6.815 6.815 0 0 0 2.245-.554 14.319 14.319 0 0 0 2.005-.868c1.443-.694 2.9-1.319 4.369-1.957s2.926-1.224 4.418-1.75a18.761 18.761 0 0 0 4.138-1.7c.092-.062.088-.255-.032-.276z" transform="translate(-810.038 -654.803)" style="fill:#f7b52c"/>
        <path data-name="路径 8503" d="M839.714 759.363a10.064 10.064 0 0 0-3.8 1.225 38.621 38.621 0 0 0-3.8 2.049 49.055 49.055 0 0 0-3.6 2.393 16.914 16.914 0 0 0-3.411 3 .54.54 0 0 0 .607.87 19.278 19.278 0 0 0 3.373-2.526c1.122-.945 2.236-1.9 3.4-2.774a31.452 31.452 0 0 1 3.483-2.3 34.022 34.022 0 0 1 1.759-.932 15.36 15.36 0 0 0 2-.964c.02-.004.013-.041-.011-.041z" transform="translate(-802.607 -661.312)" style="fill:#f7b52c"/>
        <path data-name="路径 8504" d="M848.706 753.693a69.867 69.867 0 0 0-13.563 7.5c-2.189 1.5-4.373 3-6.5 4.606-2.039 1.536-4.4 3.051-5.935 5.217-.47.661.1 1.616.836 1.2 2.2-1.25 4.018-3.33 5.966-5 2.017-1.723 4.079-3.385 6.226-4.9 4.239-3 8.682-5.659 13.048-8.423.095-.058.031-.243-.078-.2z" transform="translate(-801.379 -658.44)" style="fill:#f7b52c"/>
        <path data-name="路径 8505" d="M861.224 759.377a42.05 42.05 0 0 0-6.026 5.146c-1.974 1.845-3.9 3.746-5.81 5.675s-3.813 3.856-5.7 5.812c-.92.956-1.811 1.939-2.691 2.94s-2 2.046-2.274 3.448c-.112.574.358 1.286.943 1.043a7.308 7.308 0 0 0 2.7-2.71c.808-1.077 1.627-2.145 2.436-3.221 1.653-2.2 3.368-4.342 5.176-6.385a148.399 148.399 0 0 1 5.446-5.809c1.918-1.945 4.1-3.737 5.839-5.876.03-.034-.003-.085-.039-.063z" transform="translate(-809.561 -661.316)" style="fill:#f7b52c"/>
        <path data-name="路径 8506" d="M882.031 759.263a81.76 81.76 0 0 0-6.492 5.969 103.667 103.667 0 0 0-3.038 3.208 21.521 21.521 0 0 0-2.844 3.541c-.154.268.165.656.411.455a26.848 26.848 0 0 0 2.925-3.1c1.008-1.135 2.01-2.273 3.035-3.389 2.019-2.2 4.063-4.37 6.1-6.545.072-.066-.021-.202-.097-.139z" transform="translate(-825.196 -661.253)" style="fill:#f7b52c"/>
        <path data-name="路径 8507" d="M872.052 763.766a25.91 25.91 0 0 0-4.15 3.366 105.171 105.171 0 0 0-4.157 3.893c-2.714 2.658-5.345 5.426-7.922 8.245s-5.1 5.7-7.544 8.647c-1.224 1.474-2.4 3-3.552 4.543-.578.772-1.139 1.559-1.7 2.347a12.978 12.978 0 0 0-1.542 2.377c-.475 1.133.67 2.127 1.547 1.319a14.518 14.518 0 0 0 1.744-2.291c.563-.785 1.134-1.564 1.7-2.349 1.13-1.572 2.285-3.121 3.429-4.681q3.326-4.534 6.912-8.815c2.391-2.848 4.874-5.59 7.414-8.275 1.309-1.384 2.642-2.739 3.958-4.115a38.724 38.724 0 0 0 3.9-4.16c.019-.028-.005-.068-.037-.051z" transform="translate(-810.909 -663.537)" style="fill:#f7b52c"/>
        <path data-name="路径 8508" d="M895.232 768.188q-2.641 2.756-5.052 5.758-1.19 1.481-2.353 2.986a13.994 13.994 0 0 0-2.221 3.136c-.158.4.192.952.6.66a13.417 13.417 0 0 0 2.427-2.908q1.185-1.571 2.346-3.163 2.269-3.119 4.284-6.445c.008-.019-.017-.039-.031-.024z" transform="translate(-833.265 -665.774)" style="fill:#f7b52c"/>
        <path data-name="路径 8509" d="M904.423 764.6a84.773 84.773 0 0 0-3.889 5.937 84.363 84.363 0 0 0-1.8 3.124 21.105 21.105 0 0 0-1.557 3.24.287.287 0 0 0 .517.241 33.684 33.684 0 0 0 1.7-3.19c.534-1.039 1.07-2.077 1.627-3.1 1.129-2.079 2.33-4.111 3.552-6.124.057-.096-.083-.219-.15-.128z" transform="translate(-839.129 -663.945)" style="fill:#f7b52c"/>
        <path data-name="路径 8510" d="M897.451 781.889c-2.154 4.106-4.307 8.193-6.2 12.455-.907 2.039-1.784 4.1-2.576 6.2-.825 2.185-1.889 4.427-1.967 6.8a.793.793 0 0 0 1.483.444 6.7 6.7 0 0 0 .85-1.483c.182-.464.338-.938.5-1.413a297.17 297.17 0 0 1 1.121-3.339c.741-2.152 1.455-4.315 2.2-6.464 1.526-4.381 3.068-8.774 4.869-13.028.081-.196-.175-.371-.28-.172z" transform="translate(-833.84 -672.663)" style="fill:#f7b52c"/>
        <path data-name="路径 8511" d="M868.512 819.279a9.513 9.513 0 0 1-.906 1.572c-.264.465-.505.944-.746 1.425-.5 1-.965 2.005-1.417 3.027s-.87 2.059-1.272 3.108a8.955 8.955 0 0 0-.891 3.24c.005.43.525.716.805.369a9.7 9.7 0 0 0 1.318-3.034c.351-1.028.709-2.052 1.056-3.081s.7-2.047 1.051-3.071c.173-.51.356-1.017.518-1.533a10.276 10.276 0 0 1 .621-1.957c.058-.099-.098-.183-.137-.065z" transform="translate(-821.99 -691.593)" style="fill:#f7b52c"/>
        <path data-name="路径 8512" d="M905.444 786.346c-1.424 4.176-2.646 8.441-3.837 12.7-.586 2.1-1.174 4.195-1.737 6.3a28.2 28.2 0 0 0-1.328 6.346.44.44 0 0 0 .824.247 26.833 26.833 0 0 0 1.835-5.974c.538-2.184 1.051-4.375 1.564-6.566 1.011-4.316 2-8.652 2.77-13.029.011-.063-.07-.087-.091-.024z" transform="translate(-839.829 -674.944)" style="fill:#f7b52c"/>
        <path data-name="路径 8513" d="M910.756 794c-.81 4.878-1.856 9.711-2.708 14.581-.422 2.408-.867 4.81-1.3 7.215q-.327 1.8-.662 3.607a10.387 10.387 0 0 0-.311 3.344.438.438 0 0 0 .819.119 10.044 10.044 0 0 0 .881-3.251q.321-1.807.631-3.616c.422-2.481.807-4.971 1.187-7.461.735-4.814 1.155-9.661 1.71-14.5a.123.123 0 0 0-.247-.038z" transform="translate(-843.462 -678.784)" style="fill:#f7b52c"/>
        <path data-name="路径 8514" d="M927.152 770.067a53.655 53.655 0 0 0-.126-2.124 15.187 15.187 0 0 0-.108-1.022 1.51 1.51 0 0 0-.211-.736.034.034 0 0 0-.05 0 1.519 1.519 0 0 0-.254.736c-.072.354-.119.7-.171 1.058-.1.691-.169 1.391-.235 2.088s-.1 1.417-.155 2.124c-.026.367-.047.733-.061 1.1a3.823 3.823 0 0 0 .16 1.1.528.528 0 0 0 1.035 0 3.82 3.82 0 0 0 .212-1.1c.007-.367.006-.733 0-1.1-.011-.708-.009-1.417-.036-2.124z" transform="translate(-853.607 -664.757)" style="fill:#f7b52c"/>
        <path data-name="路径 8515" d="M939.263 779.665c-.162-.554-.333-1.1-.507-1.653-.349-1.107-.692-2.224-1.124-3.294-.028-.069-.141-.037-.132.04.137 1.161.371 2.311.594 3.456.112.568.225 1.136.348 1.7a5.618 5.618 0 0 0 .557 1.733.323.323 0 0 0 .6-.181 5.746 5.746 0 0 0-.336-1.801z" transform="translate(-859.537 -669.06)" style="fill:#f7b52c"/>
        <path data-name="路径 8516" d="M943.861 758.911c-.066-.447-.138-.894-.21-1.341-.132-.828-.285-1.652-.429-2.478s-.3-1.647-.46-2.469a14.354 14.354 0 0 0-.573-2.445.035.035 0 0 0-.065.009 14.668 14.668 0 0 0 .047 2.524q.066 1.258.161 2.514c.063.838.117 1.677.193 2.514.041.451.082.9.126 1.353.018.181.068.386.078.565a1.81 1.81 0 0 0 .079.578.6.6 0 0 0 1.182-.177 5.391 5.391 0 0 0-.129-1.147z" transform="translate(-861.854 -656.656)" style="fill:#f7b52c"/>
        <path data-name="路径 8517" d="M949.987 752.674c-.136-.625-.273-1.258-.468-1.865s-.369-1.234-.595-1.831c-.233-.616-.5-1.214-.741-1.826-.065-.165-.3-.047-.259.121.156.623.263 1.263.362 1.9s.234 1.267.31 1.911.181 1.264.254 1.9a3.239 3.239 0 0 0 .507 1.837.406.406 0 0 0 .667-.095 3.2 3.2 0 0 0-.037-2.052z" transform="translate(-864.808 -655.094)" style="fill:#f7b52c"/>
        <path data-name="路径 8518" d="M953.337 810.05c-.315-1.118-.646-2.231-.974-3.345q-.957-3.246-1.966-6.47c-1.342-4.3-2.642-8.657-4.233-12.849a.137.137 0 1 0-.261.08c.817 4.441 1.963 8.84 3.04 13.212q.786 3.19 1.618 6.362c.3 1.124.588 2.249.9 3.368.261.944.38 2.225 1.111 2.86a.717.717 0 0 0 1.222-.356 5.322 5.322 0 0 0-.457-2.862z" transform="translate(-863.786 -675.436)" style="fill:#f7b52c"/>
        <path data-name="路径 8519" d="M933.769 810.741q-.1-1.858-.207-3.715c-.142-2.547-.317-5.092-.483-7.637-.329-5.034-.858-10.047-1.321-15.068-.016-.172-.249-.18-.248 0 .025 5.023-.017 10.047.143 15.068.079 2.477.148 4.955.251 7.431l.154 3.715a11.855 11.855 0 0 0 .458 3.68c.209.56.95.662 1.126 0a10.928 10.928 0 0 0 .127-3.474z" transform="translate(-856.506 -673.871)" style="fill:#f7b52c"/>
        <path data-name="路径 8520" d="M944.256 841.293a247.928 247.928 0 0 0-1.286-10.013c-.656-4.5-1.5-8.952-2.274-13.431a.141.141 0 0 0-.278.041c.429 4.528.678 9.081 1.016 13.619.167 2.241.314 4.484.493 6.723.086 1.088.166 2.176.251 3.264a10.593 10.593 0 0 0 .53 3.36.881.881 0 0 0 1.649-.238 10.126 10.126 0 0 0-.101-3.325z" transform="translate(-861.012 -690.843)" style="fill:#f7b52c"/>
        <path data-name="路径 8521" d="M925.866 826.571c-.056-1.93-.107-3.859-.2-5.787-.18-3.856-.219-7.73-.564-11.573a.053.053 0 1 0-.106 0c-.345 3.843-.383 7.717-.563 11.573-.09 1.928-.14 3.857-.2 5.787-.044 1.521-.506 3.735.4 5.007a.551.551 0 0 0 .834 0c.912-1.278.444-3.473.399-5.007z" transform="translate(-852.749 -686.501)" style="fill:#f7b52c"/>
        <path data-name="路径 8522" d="M966.469 820.091q-.37-1.241-.752-2.477-.7-2.284-1.435-4.557c-1.035-3.223-2.184-6.406-3.337-9.58-1.1-3.039-2.229-6.07-3.424-9.067a75.767 75.767 0 0 0-4.027-9.166.036.036 0 0 0-.065.03c.776 3.194 2 6.309 3.041 9.409 1.051 3.134 2.1 6.266 3.108 9.418s1.944 6.334 2.919 9.5q.7 2.282 1.381 4.573.339 1.146.675 2.292a4.492 4.492 0 0 0 .948 2.227.751.751 0 0 0 1.281-.374 3.918 3.918 0 0 0-.313-2.228z" transform="translate(-867.595 -674.395)" style="fill:#f7b52c"/>
        <path data-name="路径 8523" d="M974.579 807.045q-.984-1.943-1.957-3.891-2.078-4.163-4.109-8.355c-2.675-5.524-5.253-11.111-8.112-16.523a.018.018 0 0 0-.032.015c2.075 5.793 4.562 11.392 7.073 16.965q1.879 4.171 3.8 8.318 1 2.163 2.019 4.319a14.9 14.9 0 0 0 2.2 3.908c.4.431 1-.01.9-.577a16.025 16.025 0 0 0-1.782-4.179z" transform="translate(-871.105 -670.875)" style="fill:#f7b52c"/>
        <path data-name="路径 8524" d="M998.037 836.812a10.482 10.482 0 0 0-.946-2.5 79.32 79.32 0 0 0-1.2-2.557 85.874 85.874 0 0 0-2.686-5.145c-1.839-3.222-3.878-6.279-5.993-9.285-.078-.111-.247.034-.176.15a108.908 108.908 0 0 1 5.317 9.894c.816 1.7 1.623 3.4 2.382 5.132a28.081 28.081 0 0 0 2.243 4.993c.436.606 1.157-.08 1.059-.682z" transform="translate(-884.59 -690.613)" style="fill:#f7b52c"/>
        <path data-name="路径 8525" d="M988.267 801.631q-1.19-1.574-2.367-3.158-2.418-3.248-4.819-6.511c-3.146-4.3-6.152-8.764-9.555-12.824-.027-.033-.077.009-.055.047 2.661 4.69 5.778 9.061 8.717 13.54q2.18 3.323 4.326 6.672 1.076 1.671 2.144 3.349c.655 1.032 1.3 2.419 2.351 3 .63.346 1.29-.221 1.152-.979a8.07 8.07 0 0 0-1.894-3.136z" transform="translate(-876.719 -671.309)" style="fill:#f7b52c"/>
        <path data-name="路径 8526" d="M965.454 632c2.617-3.763 5.23-7.508 7.609-11.463 1.138-1.892 2.25-3.814 3.281-5.78 1.073-2.049 2.391-4.12 2.747-6.466a.8.8 0 0 0-1.419-.652 6.49 6.49 0 0 0-1.016 1.349c-.235.435-.445.882-.657 1.331-.5 1.052-.994 2.1-1.5 3.15-.987 2.028-1.948 4.07-2.942 6.094-2.025 4.126-4.07 8.262-6.352 12.222-.111.191.122.401.249.215z" transform="translate(-873.537 -584.41)" style="fill:#f7b52c"/>
        <path data-name="路径 8527" d="M962.143 627.014c1.9-3.937 3.612-7.992 5.292-12.048.827-2 1.655-3.991 2.46-6a27.648 27.648 0 0 0 2.06-6.1.445.445 0 0 0-.789-.363 26.176 26.176 0 0 0-2.518 5.662 549.257 549.257 0 0 0-2.32 6.288c-1.508 4.135-2.994 8.293-4.272 12.523-.019.061.059.097.087.038z" transform="translate(-871.958 -581.866)" style="fill:#f7b52c"/>
        <path data-name="路径 8528" d="M959.522 615.287c1.375-4.721 2.978-9.364 4.393-14.071.7-2.327 1.423-4.646 2.137-6.968q.536-1.743 1.079-3.482a10.274 10.274 0 0 0 .7-3.272.442.442 0 0 0-.8-.234 9.8 9.8 0 0 0-1.254 3.1q-.53 1.746-1.049 3.5c-.708 2.4-1.382 4.814-2.051 7.229-1.293 4.668-2.277 9.415-3.393 14.134-.034.141.195.21.238.064z" transform="translate(-870.556 -574.158)" style="fill:#f7b52c"/>
        <path data-name="路径 8529" d="M919.4 595.324c.181 1.154.379 2.305.574 3.456q.569 3.355 1.192 6.7c.828 4.452 1.606 8.962 2.693 13.347a.136.136 0 1 0 .268-.042c-.29-4.521-.911-9.047-1.468-13.536q-.406-3.275-.86-6.54c-.163-1.157-.32-2.314-.5-3.469-.149-.973-.117-2.261-.766-3a.71.71 0 0 0-1.254.179 5.361 5.361 0 0 0 .121 2.905z" transform="translate(-850.235 -576.616)" style="fill:#f7b52c"/>
        <path data-name="路径 8530" d="m943.771 593.914-.229 3.714c-.158 2.546-.282 5.094-.415 7.642-.264 5.038-.325 10.086-.454 15.129 0 .172.225.214.246.036.563-4.984 1.193-9.959 1.622-14.961.212-2.468.434-4.934.622-7.4l.283-3.706a11.913 11.913 0 0 0-.024-3.715c-.141-.585-.864-.792-1.117-.161a10.864 10.864 0 0 0-.534 3.422z" transform="translate(-862.154 -575.686)" style="fill:#f7b52c"/>
        <path data-name="路径 8531" d="M936.1 564.833c-.01 1.1-.01 2.193-.011 3.289 0 2.275.053 4.549.115 6.823.123 4.558.444 9.092.683 13.643a.141.141 0 0 0 .281 0c.1-4.55.39-9.1.586-13.649.1-2.246.213-4.49.3-6.737.041-1.091.09-2.182.132-3.272a10.69 10.69 0 0 0-.132-3.408.879.879 0 0 0-1.663 0 10.106 10.106 0 0 0-.291 3.311z" transform="translate(-858.822 -560.925)" style="fill:#f7b52c"/>
        <path data-name="路径 8532" d="M952.664 587.43c-.17 1.921-.346 3.841-.483 5.766-.273 3.85-.688 7.7-.8 11.556 0 .076.09.089.105.015.792-3.762 1.284-7.6 1.914-11.4.315-1.9.591-3.8.872-5.709.222-1.5.939-3.631.193-5.022a.553.553 0 0 0-.827-.119c-1.046 1.146-.838 3.383-.974 4.913z" transform="translate(-866.562 -571.782)" style="fill:#f7b52c"/>
        <path data-name="路径 8533" d="M903.407 571.026q.222 1.284.455 2.564.432 2.365.89 4.723c.649 3.345 1.415 6.665 2.187 9.977.739 3.172 1.5 6.338 2.334 9.481a77.631 77.631 0 0 0 2.92 9.665.035.035 0 0 0 .068-.02c-.4-3.278-1.247-6.543-1.914-9.764-.675-3.258-1.352-6.515-1.979-9.784s-1.186-6.559-1.782-9.838q-.43-2.363-.834-4.732l-.4-2.37a4.6 4.6 0 0 0-.68-2.344.743.743 0 0 0-1.314.187 3.94 3.94 0 0 0 .049 2.255z" transform="translate(-842.187 -564.64)" style="fill:#f7b52c"/>
        <path data-name="路径 8534" d="M890.816 586.441q.748 2.067 1.485 4.139 1.573 4.426 3.1 8.872c2.006 5.86 3.908 11.769 6.109 17.544a.018.018 0 0 0 .034-.01c-1.38-6.041-3.19-11.949-5.028-17.834q-1.375-4.406-2.8-8.792-.742-2.289-1.5-4.572a15.359 15.359 0 0 0-1.727-4.19c-.343-.484-1-.133-.957.444a16.431 16.431 0 0 0 1.284 4.399z" transform="translate(-835.271 -571.267)" style="fill:#f7b52c"/>
        <path data-name="路径 8535" d="M874.49 567.785a10.7 10.7 0 0 0 .645 2.617c.28.908.579 1.809.886 2.706a88.698 88.698 0 0 0 2.061 5.486c1.446 3.458 3.11 6.781 4.855 10.064.064.121.25 0 .192-.124a112.351 112.351 0 0 1-4.115-10.571c-.61-1.8-1.21-3.606-1.76-5.43a28.846 28.846 0 0 0-1.64-5.271c-.356-.662-1.15-.088-1.124.523z" transform="translate(-827.661 -563.982)" style="fill:#f7b52c"/>
        <path data-name="路径 8536" d="M872.992 596.582q1 1.731 1.978 3.47 2.017 3.566 4.016 7.146c2.616 4.715 5.074 9.57 7.973 14.083.023.036.078 0 .061-.039-2.09-5.031-4.668-9.812-7.058-14.673q-1.773-3.607-3.508-7.235-.872-1.811-1.734-3.627c-.528-1.117-1-2.585-1.979-3.308-.585-.434-1.3.035-1.258.806a8.338 8.338 0 0 0 1.509 3.377z" transform="translate(-826.139 -576.763)" style="fill:#f7b52c"/>
        <path data-name="路径 8537" d="M991.4 790.426a7.612 7.612 0 0 0-2.067-2.585c-.878-.9-1.785-1.762-2.681-2.638-1.748-1.707-3.543-3.353-5.3-5.051-3.417-3.306-6.807-6.689-10.425-9.726-.062-.052-.124.055-.079.113 3.012 3.821 6.332 7.355 9.573 10.937 1.6 1.768 3.161 3.58 4.771 5.338.8.879 1.6 1.769 2.421 2.63a7.931 7.931 0 0 0 2.6 2.288 1.021 1.021 0 0 0 1.187-1.306z" transform="translate(-876.402 -666.902)" style="fill:#f7b52c"/>
        <path data-name="路径 8538" d="M1005.239 792.1c-.745-1.68-2.272-3.041-3.459-4.345s-2.423-2.6-3.682-3.848q-3.919-3.876-8.118-7.385c-5.629-4.7-11.618-8.828-17.5-13.119-.135-.1-.252.135-.125.237q8.524 6.849 16.714 14.188c2.668 2.392 5.313 4.821 7.853 7.38 1.249 1.257 2.484 2.53 3.69 3.838s2.335 3 3.8 3.974c.546.363 1.082-.346.827-.92z" transform="translate(-877.142 -663.343)" style="fill:#f7b52c"/>
        <path data-name="路径 8539" d="M970.652 751.876a6.339 6.339 0 0 0-2.217-2.6q-1.362-1.122-2.744-2.21c-.894-.7-1.789-1.4-2.7-2.082-.959-.716-1.888-1.512-2.894-2.144-.166-.1-.325.134-.2.286.759.924 1.643 1.725 2.461 2.585s1.665 1.7 2.506 2.535c.818.814 1.646 1.613 2.48 2.408a5.957 5.957 0 0 0 2.862 1.87c.294.032.535-.361.446-.648z" transform="translate(-870.846 -652.938)" style="fill:#f7b52c"/>
        <path data-name="路径 8540" d="M1016.616 779.7c-.526-1.268-1.915-2.051-2.916-2.817a192.238 192.238 0 0 0-3.391-2.548q-3.342-2.444-6.8-4.692a158.915 158.915 0 0 0-14.514-8.087c-.156-.08-.289.156-.137.258 4.622 3.127 9.056 6.559 13.58 9.854q3.352 2.443 6.672 4.94c1.082.813 2.164 1.624 3.236 2.451 1.089.839 2.158 1.94 3.52 2.092.721.08.994-.862.75-1.451z" transform="translate(-885.483 -662.413)" style="fill:#f7b52c"/>
        <path data-name="路径 8541" d="M1013.381 762.822a15.305 15.305 0 0 0-4.717-2.524c-1.725-.71-3.455-1.405-5.183-2.109-3.337-1.359-6.665-2.747-10-4.1-6.778-2.741-13.531-5.561-20.342-8.2-.131-.051-.221.18-.1.25 6.443 3.581 13.043 6.821 19.676 9.947 3.249 1.53 6.524 2.986 9.808 4.42 1.715.75 3.43 1.5 5.156 2.218a14.545 14.545 0 0 0 5.156 1.555.878.878 0 0 0 .546-1.457z" transform="translate(-877.485 -654.493)" style="fill:#f7b52c"/>
        <path data-name="路径 8542" d="M1036.047 762.22a3.726 3.726 0 0 0-1.558-1.411c-.674-.444-1.369-.853-2.061-1.262a65.613 65.613 0 0 0-3.912-2.17q-4.14-2.078-8.44-3.724a77.01 77.01 0 0 0-17.489-4.664c-.02 0-.024.033 0 .038a105.828 105.828 0 0 1 17.051 5.705 88.739 88.739 0 0 1 8.089 4.147c1.292.745 2.586 1.486 3.86 2.268.687.422 1.361.866 2.046 1.29a3.59 3.59 0 0 0 1.879.823.7.7 0 0 0 .535-1.04z" transform="translate(-892.455 -656.064)" style="fill:#f7b52c"/>
        <path data-name="路径 8543" d="M1004.172 742.635c-.511-.9-1.587-1.119-2.448-1.464q-1.576-.63-3.18-1.148a86.143 86.143 0 0 0-6.663-1.884 73.239 73.239 0 0 0-13.172-1.988c-.13-.006-.165.236-.031.256a88.52 88.52 0 0 1 12.925 2.851 74.92 74.92 0 0 1 6.215 2.213c.995.407 1.983.834 2.973 1.255.929.4 2.007 1.184 3.013.915a.713.713 0 0 0 .368-1.006z" transform="translate(-880.325 -649.569)" style="fill:#f7b52c"/>
        <path data-name="路径 8544" d="M1029.923 736.186a5.454 5.454 0 0 0-2.474-1.034q-1.4-.346-2.806-.628-2.888-.58-5.811-.909a65.915 65.915 0 0 0-11.936-.3c-.158.011-.161.272 0 .274a67 67 0 0 1 11.63 1.064q2.81.528 5.576 1.3 1.384.385 2.755.832a6.456 6.456 0 0 0 2.619.6c.473-.063.924-.78.447-1.199z" transform="translate(-894.583 -648.061)" style="fill:#f7b52c"/>
        <path data-name="路径 8545" d="M1065.456 736.235a23.817 23.817 0 0 0-5.431-2.115c-1.9-.628-3.814-1.222-5.75-1.719a62.307 62.307 0 0 0-5.689-1.172 20.681 20.681 0 0 0-5.85-.353.027.027 0 0 0-.006.051 43.355 43.355 0 0 0 5.631 1.207 82.95 82.95 0 0 1 5.65 1.329c1.813.492 3.621 1.04 5.39 1.7q1.413.529 2.805 1.122a21.9 21.9 0 0 0 2.782 1.176c.66.176 1.077-.834.468-1.226z" transform="translate(-912.763 -646.852)" style="fill:#f7b52c"/>
        <path data-name="路径 8546" d="M1026.326 718.595a29.1 29.1 0 0 0-3.734-.438c-1.3-.125-2.6-.265-3.909-.342a68.547 68.547 0 0 0-8.024-.008 56.525 56.525 0 0 0-7.556.963q-1.928.377-3.835.864a17.126 17.126 0 0 0-3.612 1.137c-.047.024-.024.112.027.109a29.071 29.071 0 0 0 3.546-.662q1.979-.373 3.975-.626a87.931 87.931 0 0 1 7.634-.62 67.3 67.3 0 0 1 7.489.127c1.3.1 2.614.209 3.91.4s2.583.566 3.888.736c.843.108 1.029-1.451.201-1.64z" transform="translate(-888.944 -640.231)" style="fill:#f7b52c"/>
        <path data-name="路径 8547" d="M1028.606 704.546c-1.578-.454-3.58.02-5.2.128-1.771.12-3.543.235-5.314.378q-5.128.416-10.236 1.085a136.913 136.913 0 0 0-9.975 1.7 69.024 69.024 0 0 0-10.334 2.638c-.036.013-.033.08.009.077 3.375-.261 6.752-.982 10.114-1.425q5.181-.683 10.368-1.274 5.108-.577 10.237-.9c1.709-.107 3.419-.2 5.13-.244.856-.022 1.712-.028 2.567-.032a8.283 8.283 0 0 0 2.628-.184 1.054 1.054 0 0 0 .006-1.947z" transform="translate(-884.845 -633.483)" style="fill:#f7b52c"/>
        <path data-name="路径 8548" d="M1011.112 689.194a39.332 39.332 0 0 0-9.279 1.1 89.7 89.7 0 0 0-9.246 2.262 160.862 160.862 0 0 0-18.051 6.823 94.269 94.269 0 0 0-9.821 4.633c-.125.073-.039.291.1.25 2.99-.9 5.9-2.239 8.816-3.4q4.491-1.786 9.031-3.41a128.629 128.629 0 0 1 18.041-5.173 76.16 76.16 0 0 1 5.336-.883c1.758-.223 3.528-.276 5.273-.6.852-.162.588-1.556-.2-1.602z" transform="translate(-873.274 -625.801)" style="fill:#f7b52c"/>
        <path data-name="路径 8549" d="M1037.614 677.266a6.1 6.1 0 0 0-2.822.244c-1.126.25-2.252.505-3.371.792a123.933 123.933 0 0 0-6.5 1.831q-3.142.989-6.252 2.1a63.84 63.84 0 0 0-6.208 2.4c-.139.068-.037.3.1.262 2.115-.543 4.193-1.306 6.3-1.91s4.229-1.167 6.357-1.684c2.07-.5 4.142-1 6.223-1.446 1.07-.23 2.139-.463 3.211-.683a7.752 7.752 0 0 0 3.084-.937c.325-.227.304-.864-.122-.969z" transform="translate(-897.424 -619.734)" style="fill:#f7b52c"/>
        <path data-name="路径 8550" d="M1004.275 683.028q.525-.215 1.051-.427 1.166-.471 2.34-.926a7.432 7.432 0 0 0 2.258-1.069c.37-.314.3-1.051-.256-1.044a6.551 6.551 0 0 0-2.352.708q-1.251.511-2.495 1.042a115.595 115.595 0 0 0-4.421 1.991q-2.277 1.087-4.527 2.24a26.661 26.661 0 0 0-4.706 2.712c-.14.113-.062.373.123.322a32.652 32.652 0 0 0 4.606-1.967q2.375-1.079 4.778-2.085 1.8-.754 3.6-1.5" transform="translate(-886.65 -620.941)" style="fill:#f7b52c"/>
        <path data-name="路径 8551" d="M1014.212 665.933c-1.468.373-2.908 1.6-4.207 2.41l-4.03 2.526c-2.779 1.742-5.607 3.421-8.3 5.32-.124.087-.016.279.113.214 2.914-1.466 5.734-3.174 8.576-4.8l4.118-2.36c1.331-.763 3.027-1.428 4.113-2.588a.43.43 0 0 0-.383-.722z" transform="translate(-889.949 -614.042)" style="fill:#f7b52c"/>
        <path data-name="路径 8552" d="M1011.389 649.265c-2.836.94-5.486 2.909-8.027 4.56s-5.068 3.392-7.509 5.249a96.351 96.351 0 0 0-13.977 12.255c-.041.046.013.131.064.092 4.891-3.661 9.531-7.681 14.539-11.163 2.505-1.742 5.03-3.453 7.6-5.077 2.54-1.6 5.379-2.911 7.714-4.858.441-.365.213-1.263-.404-1.058z" transform="translate(-881.979 -605.6)" style="fill:#f7b52c"/>
        <path data-name="路径 8553" d="M1019.615 626.207a5.843 5.843 0 0 0-2.2 1.482q-1.037.882-2.054 1.792-2.141 1.92-4.182 3.974a102.043 102.043 0 0 0-7.741 8.712c-.114.144.069.352.192.212a106.665 106.665 0 0 1 8-8.2q2.138-1.957 4.377-3.775 1.052-.855 2.125-1.677a6.71 6.71 0 0 0 1.968-1.819.47.47 0 0 0-.485-.701z" transform="translate(-892.878 -593.945)" style="fill:#f7b52c"/>
        <path data-name="路径 8554" d="M934.1 649.131c-.092-.8-.2-1.6-.341-2.4a8.793 8.793 0 0 0-.637-2.393.346.346 0 0 0-.649.194 12.33 12.33 0 0 0 .4 2.467q.246 1.164.471 2.335c.306 1.613.558 3.236.79 4.864.023.163.255.119.255-.039a42.988 42.988 0 0 0-.289-5.028z" transform="translate(-856.991 -603.029)" style="fill:#f7b52c"/>
        <path data-name="路径 8555" d="M952.128 644.783a9.526 9.526 0 0 0-.448 2.189c-.09.723-.185 1.446-.267 2.171-.167 1.478-.355 2.955-.45 4.442a.111.111 0 0 0 .22.033c.358-1.443.626-2.911.911-4.373.143-.732.274-1.467.409-2.2a9.336 9.336 0 0 0 .216-2.172.3.3 0 0 0-.591-.09z" transform="translate(-866.347 -603.23)" style="fill:#f7b52c"/>
        <path data-name="路径 8556" d="M917.366 665.762c-.1-.246-.2-.485-.305-.726a2.307 2.307 0 0 0-.17-.352l-.23-.346a.191.191 0 0 0-.345.161 4.673 4.673 0 0 0 .257.753c.116.244.23.489.355.727.247.468.487.938.763 1.386a.125.125 0 0 0 .226-.105c-.159-.511-.357-1.002-.551-1.498z" transform="translate(-848.816 -613.194)" style="fill:#f7b52c"/>
        <path data-name="路径 8557" d="M898.878 670.468c-.139-.294-.326-.557-.488-.836a12.34 12.34 0 0 0-1.2-1.606 9.346 9.346 0 0 0-2.925-2.6.47.47 0 0 0-.529.757c.843.957 1.864 1.711 2.763 2.6.44.438.835.928 1.271 1.37.223.225.416.483.638.708.2.2.369.534.637.611a.147.147 0 0 0 .179-.151c.023-.3-.224-.594-.346-.853z" transform="translate(-837.33 -613.768)" style="fill:#f7b52c"/>
        <path data-name="路径 8558" d="M972.961 664.89a2.578 2.578 0 0 0-.738.892 6.2 6.2 0 0 1-.616 1.029 22.137 22.137 0 0 0-1.234 1.993 37.927 37.927 0 0 0-1.972 4.219.132.132 0 0 0 .237.111c.779-1.314 1.578-2.651 2.475-3.87.433-.588.839-1.2 1.28-1.781a4.261 4.261 0 0 1 .715-.812 3.228 3.228 0 0 0 .75-1.013.6.6 0 0 0-.897-.768z" transform="translate(-875.165 -613.442)" style="fill:#f7b52c"/>
        <path data-name="路径 8559" d="M1004.429 598.27a10.422 10.422 0 0 0-2.669 2.773q-1.241 1.518-2.461 3.057-2.5 3.154-4.915 6.383c-3.144 4.213-6.272 8.5-9.042 13.029-.059.1.079.217.148.126 3.211-4.207 6.325-8.492 9.663-12.58a237.204 237.204 0 0 1 5.031-5.98q1.283-1.47 2.587-2.917a11.654 11.654 0 0 0 2.417-3.053c.234-.558-.244-1.118-.759-.838z" transform="translate(-883.732 -579.78)" style="fill:#f7b52c"/>
        <path data-name="路径 8560" d="M1019.411 618.5a26 26 0 0 0-2.524 2.351c-.391.409-.788.814-1.175 1.228-.415.444-.79.911-1.172 1.384-.051.063.016.176.086.123.442-.336.877-.669 1.3-1.037s.865-.78 1.3-1.171a26.575 26.575 0 0 0 2.458-2.489c.164-.201-.057-.566-.273-.389z" transform="translate(-898.501 -590.026)" style="fill:#f7b52c"/>
        <path data-name="路径 8561" d="M995.173 570.768a1.625 1.625 0 0 0-.525.505c-.117.221-.146.479-.265.7-.229.433-.486.851-.723 1.281-.49.886-.938 1.8-1.377 2.719a34.45 34.45 0 0 0-2.2 5.507.137.137 0 0 0 .248.116c1.007-1.636 1.884-3.371 2.839-5.047.471-.826.965-1.636 1.447-2.454.249-.422.5-.845.758-1.259a3.644 3.644 0 0 1 .47-.54 1.419 1.419 0 0 0 .276-.719c.109-.577-.44-1.172-.948-.809z" transform="translate(-886.136 -565.849)" style="fill:#f7b52c"/>
        <path data-name="路径 8562" d="M866.88 621.8a89.774 89.774 0 0 0-2.8-3.325c-1.855-2.132-3.772-4.2-5.7-6.252s-3.868-4.089-5.856-6.069a56.993 56.993 0 0 0-6.162-5.592c-.38-.282-.758.328-.471.675 1.8 2.185 3.855 4.093 5.84 6.072s3.979 3.961 5.94 5.976c1.918 1.97 3.8 3.978 5.7 5.97.95 1 1.893 2 2.859 2.977a38.664 38.664 0 0 0 2.945 2.923c.085.07.2-.066.145-.16a32.475 32.475 0 0 0-2.44-3.195z" transform="translate(-813.145 -580.938)" style="fill:#f7b52c"/>
        <path data-name="路径 8563" d="M847.134 625.766a119.927 119.927 0 0 0-12.232-9.5c-2.1-1.455-4.24-2.832-6.4-4.172q-1.7-1.052-3.41-2.068a6.769 6.769 0 0 0-3.351-1.312.738.738 0 0 0-.528 1.119 7.594 7.594 0 0 0 2.914 2.2q1.586.864 3.158 1.759a310.591 310.591 0 0 1 6.706 3.954c4.39 2.643 8.674 5.486 13.022 8.208.104.066.217-.102.121-.188z" transform="translate(-800.651 -585.103)" style="fill:#f7b52c"/>
        <path data-name="路径 8564" d="M861.914 595.96c-.464-.879-.9-1.784-1.354-2.669q-.67-1.293-1.29-2.616c-.438-.933-.784-2-1.724-2.431a.668.668 0 0 0-.827.519 4.319 4.319 0 0 0 1.032 2.894q.784 1.272 1.618 2.506a28.774 28.774 0 0 0 1.711 2.291 14.2 14.2 0 0 0 1.9 2.119c.076.06.2-.042.165-.14a19.44 19.44 0 0 0-1.231-2.473z" transform="translate(-818.656 -574.727)" style="fill:#f7b52c"/>
        <path data-name="路径 8565" d="M891.275 714.762a19.8 19.8 0 0 0-4.56-2.578 19.1 19.1 0 0 0-2.454-.83 4.8 4.8 0 0 0-2.56-.257.3.3 0 0 0-.083.5 6.858 6.858 0 0 0 2.339.577c.838.173 1.67.355 2.489.6a24.055 24.055 0 0 1 4.765 2.082c.059.044.118-.056.064-.094z" transform="translate(-831.213 -636.843)" style="fill:#f7b52c"/>
        <path data-name="路径 8566" d="M869.481 716.969a19.923 19.923 0 0 0-7.328-2.952 21.767 21.767 0 0 0-4.012-.366c-.649 0-1.3.031-1.942.1a4.834 4.834 0 0 0-2 .5.28.28 0 0 0 .083.528 7.429 7.429 0 0 0 1.906-.114 24.52 24.52 0 0 1 1.895-.155 21.17 21.17 0 0 1 3.914.2 23.8 23.8 0 0 1 7.439 2.343c.048.019.088-.053.045-.084z" transform="translate(-817.318 -638.187)" style="fill:#f7b52c"/>
        <path data-name="路径 8567" d="M886.516 689.562a19.523 19.523 0 0 0-2.38-1.143q-.612-.247-1.242-.445a2.394 2.394 0 0 0-1.349-.231.378.378 0 0 0-.165.626 2.425 2.425 0 0 0 1.152.364q.608.133 1.2.306a15.521 15.521 0 0 1 2.513.977 18.643 18.643 0 0 1 4.37 2.984.04.04 0 0 0 .057-.056 16.4 16.4 0 0 0-4.156-3.382z" transform="translate(-831.09 -625.059)" style="fill:#f7b52c"/>
        <path data-name="路径 8568" d="M942.068 664.917a4.982 4.982 0 0 0-1.177 2.057 22.172 22.172 0 0 0-.74 2.219 20.166 20.166 0 0 0-.5 2.3c-.061.373-.106.754-.131 1.131-.027.407.032.8.029 1.2 0 .106.172.137.191.026.065-.39.21-.772.3-1.16.078-.344.154-.687.237-1.029a20.733 20.733 0 0 1 .659-2.175 18.379 18.379 0 0 1 .931-2.1 8.107 8.107 0 0 0 .957-2.029.455.455 0 0 0-.756-.44z" transform="translate(-860.556 -613.471)" style="fill:#f7b52c"/>
        <path data-name="路径 8569" d="M1000.907 635.13c-.658-.035-1.244.554-1.738.923q-.818.611-1.6 1.264-1.562 1.306-2.989 2.756a39.352 39.352 0 0 0-5.012 6.279c-.043.067.059.149.112.086a55.508 55.508 0 0 1 5.577-5.688c.979-.868 2-1.7 3.043-2.485q.813-.609 1.645-1.192c.527-.368 1.213-.678 1.435-1.32a.5.5 0 0 0-.473-.623z" transform="translate(-885.872 -598.463)" style="fill:#f7b52c"/>
        <path data-name="路径 8570" d="M860.527 653.758a82.732 82.732 0 0 0-11.637-11.566 102.156 102.156 0 0 0-6.61-4.737c-1.145-.757-2.3-1.5-3.443-2.258-1.056-.706-2.307-1.744-3.606-1.827-1.062-.068-1.31 1.2-.78 1.884a4.816 4.816 0 0 0 1.7 1.094c.612.313 1.24.593 1.854.9 1.128.568 2.232 1.2 3.31 1.858 2.292 1.4 4.514 2.92 6.674 4.511s4.37 3.126 6.448 4.826 4.073 3.527 5.994 5.409c.063.066.153-.028.096-.094z" transform="translate(-807.27 -597.573)" style="fill:#f7b52c"/>
        <path data-name="路径 8571" d="M827.378 641.328a12.665 12.665 0 0 0-4.3-3.332 20.46 20.46 0 0 0-2.554-1.022q-.632-.2-1.276-.366a1.761 1.761 0 0 0-1.428.021.5.5 0 0 0-.178.68 1.623 1.623 0 0 0 1.083.607q.646.153 1.281.347a23.82 23.82 0 0 1 2.478.9c.789.339 1.567.7 2.358 1.038.838.355 1.632.831 2.449 1.233a.069.069 0 0 0 .087-.106z" transform="translate(-798.868 -599.139)" style="fill:#f7b52c"/>
        <path data-name="路径 8572" d="M1046.971 669.641a1.649 1.649 0 0 0-.528-.032c-.125.017-.251.036-.376.056-.218.036-.438.072-.652.128a8.889 8.889 0 0 0-1.433.5 11.852 11.852 0 0 0-1.251.642c-.2.124-.4.258-.591.394-.21.148-.386.341-.6.482a.077.077 0 0 0 .078.133 4.338 4.338 0 0 1 .7-.194c.213-.053.421-.118.636-.169.449-.107.884-.236 1.341-.306.417-.065.827-.157 1.245-.21a6.068 6.068 0 0 0 1.431-.253.636.636 0 0 0 .448-.589.611.611 0 0 0-.448-.582z" transform="translate(-912.151 -615.902)" style="fill:#f7b52c"/>
    </g>
</svg>
