<svg width="24" height="24" viewBox="0 0 24 24" fill="none" xmlns="http://www.w3.org/2000/svg">
<path d="M18.3791 21H14.4852C14.2605 21 14.0359 20.7997 14.0359 20.4993V15.4923C14.0359 13.9903 13.0624 12.8887 11.9392 12.8887C10.8159 12.8887 9.84243 14.0904 9.84243 15.4923V20.4993C9.84243 20.7997 9.61778 21 9.39314 21H5.5741C5.34945 21 5.1248 20.7997 5.1248 20.4993V10.5855H3.47738C3.25273 10.5855 3.10296 10.4854 3.02808 10.185C2.9532 9.9847 3.02808 9.68428 3.25273 9.58414L11.7894 3.0751C11.9392 2.97497 12.0889 2.97497 12.2387 3.0751L20.7754 9.58414C20.9251 9.68428 21 9.9847 21 10.185C20.9251 10.4854 20.7005 10.5855 20.5507 10.5855H18.8284V20.3992C18.8284 20.6996 18.6037 21 18.3791 21ZM14.9345 19.8985H17.9298V10.0848C17.9298 9.78442 18.1544 9.58414 18.3791 9.58414H18.9782L12.014 4.17663L4.97504 9.48401H5.5741C5.79875 9.48401 6.0234 9.68428 6.0234 9.9847V19.7983H9.01872V15.3922C9.01872 13.2893 10.3666 11.6871 12.014 11.6871C13.6615 11.6871 15.0094 13.3894 15.0094 15.3922L14.9345 19.8985Z" fill="#083A6F" stroke="#083A6F" stroke-width="0.75" stroke-miterlimit="10"/>
</svg>
