<svg xmlns="http://www.w3.org/2000/svg" width="36.408" height="36.192" viewBox="0 0 36.408 36.192">
    <path fill="#fff" d="M38.13 29.167c-1.293-.862-1.939-4.524-2.8-8.833-.431-2.37-.862-5.17-1.508-7.971-2.154-9.048-9.694-9.048-9.694-9.263a.927.927 0 0 0-.862.862.927.927 0 0 0 .862.862s6.032 0 7.755 7.755c.646 2.8 1.077 5.386 1.508 7.755.646 3.662 1.293 6.678 2.154 8.4H7.109C8.186 26.8 8.617 24 9.263 20.334c.431-1.939.862-4.524 1.508-7.325 1.939-7.755 7.54-7.755 7.755-7.755a.927.927 0 0 0 .862-.862.927.927 0 0 0-.862-.862s-7.325 0-9.694 9.263C8.4 15.379 7.97 18.18 7.539 20.55c-.646 4.309-1.508 7.755-2.585 8.833H3.662a.862.862 0 1 0 0 1.723H14c0 1.723.215 4.739 2.585 6.463a8.54 8.54 0 0 0 4.739 1.723 6.939 6.939 0 0 0 4.309-1.508 7.206 7.206 0 0 0 2.8-6.678h9.91a.927.927 0 0 0 .862-.862 1.018 1.018 0 0 0-1.075-1.077zm-13.787 7.109a5.791 5.791 0 0 1-6.894-.215 5.475 5.475 0 0 1-1.723-4.955H26.5a5.328 5.328 0 0 1-2.157 5.17z" transform="translate(-2.8 -3.1)"/>
</svg>
