<?xml version="1.0" encoding="utf-8"?>
<!-- Generator: Adobe Illustrator 24.2.1, SVG Export Plug-In . SVG Version: 6.00 Build 0)  -->
<svg version="1.1" id="圖層_1" xmlns="http://www.w3.org/2000/svg" xmlns:xlink="http://www.w3.org/1999/xlink" x="0px" y="0px"
	 viewBox="0 0 46 46" style="enable-background:new 0 0 46 46;" xml:space="preserve">
<style type="text/css">
	.st0{fill:none;stroke:url(#SVGID_1_);stroke-linecap:round;}
	.st1{fill:none;stroke:url(#SVGID_2_);stroke-linecap:round;}
	.st2{fill:none;stroke:url(#SVGID_3_);stroke-linecap:round;}
	.st3{fill:none;stroke:url(#SVGID_4_);stroke-linecap:round;}
	.st4{fill:none;stroke:url(#SVGID_5_);stroke-linecap:round;}
	.st5{fill:none;stroke:url(#SVGID_6_);stroke-linecap:round;}
	.st6{fill:none;stroke:url(#SVGID_7_);stroke-linecap:round;}
</style>
<linearGradient id="SVGID_1_" gradientUnits="userSpaceOnUse" x1="-724.5925" y1="292.5216" x2="-724.5925" y2="293.0325" gradientTransform="matrix(43.886 0 0 -43.8577 31822.4395 12863.543)">
	<stop  offset="0" style="stop-color:#81C3F3"/>
	<stop  offset="1" style="stop-color:#157EFB"/>
</linearGradient>
<path class="st0" d="M13.8,42.9c3.2,1.5,6.9,2.2,10.7,2c11-0.7,19.9-9.8,20.4-20.8c0.6-13-10-23.6-22.9-23C11,1.6,1.9,10.5,1.1,21.5
	c-0.2,2.5,0.1,4.8,0.7,7.1c0.1,0.3,0.2,0.5,0.3,0.8"/>
<linearGradient id="SVGID_2_" gradientUnits="userSpaceOnUse" x1="-682.3739" y1="281.1541" x2="-682.3739" y2="281.6897" gradientTransform="matrix(-12.4 0 0 -14.7 -8450.7637 4149.3999)">
	<stop  offset="0" style="stop-color:#81C3F3"/>
	<stop  offset="1" style="stop-color:#157EFB"/>
</linearGradient>
<path class="st1" d="M4.5,19.8c1.1-6.8,6-12.4,12.4-14.7"/>
<linearGradient id="SVGID_3_" gradientUnits="userSpaceOnUse" x1="-463.117" y1="268.5073" x2="-463.117" y2="269.0616" gradientTransform="matrix(0.2403 -2.5889 -9.4593 -0.878 2669.9644 -923.3074)">
	<stop  offset="0" style="stop-color:#81C3F3"/>
	<stop  offset="1" style="stop-color:#157EFB"/>
</linearGradient>
<path class="st2" d="M20.8,41.4c-3.5-0.3-6.6-1.5-9.2-3.5"/>
<linearGradient id="SVGID_4_" gradientUnits="userSpaceOnUse" x1="6.2027" y1="31.2163" x2="12.0614" y2="31.2163">
	<stop  offset="0" style="stop-color:#81C3F3"/>
	<stop  offset="1" style="stop-color:#157EFB"/>
</linearGradient>
<path class="st3" d="M6.7,24.5v11.6c0,2,1.4,1.8,1.4,1.8h3.5"/>
<linearGradient id="SVGID_5_" gradientUnits="userSpaceOnUse" x1="6.2" y1="24.7964" x2="33.9965" y2="24.7964">
	<stop  offset="0" style="stop-color:#81C3F3"/>
	<stop  offset="1" style="stop-color:#157EFB"/>
</linearGradient>
<path class="st4" d="M17.8,21.8c0.6-1.4,1.3-2.6,1.3-2.6c1.7-2.7,0.6-5.1,0.6-5.1c-0.7-2.8,1.6-1.7,1.6-1.7c5.1,2.7,2.4,9.7,2.4,9.7
	c4.6-0.9,7.7,0,7.7,0c2.9,1.1,1.1,4,1.1,4c2.5,2.5-0.2,4.2-0.2,4.2c0.8,2.9-1.9,3.7-1.9,3.7c0.8,1.7-0.4,2.6-0.4,2.6
	c-1.6,1.4-11.3,0.9-11.3,0.9c-3.8-0.3-3.8-2.5-3.8-2.5V24.4c0-1.4-1.3-1.2-1.3-1.2H8.4c-1.9,0-1.7,1.3-1.7,1.3"/>
<g>
	
		<linearGradient id="SVGID_6_" gradientUnits="userSpaceOnUse" x1="-653.6813" y1="278.9953" x2="-652.6868" y2="278.9953" gradientTransform="matrix(8.493 0 0 -12.4 5577.894 3471.1313)">
		<stop  offset="0" style="stop-color:#81C3F3"/>
		<stop  offset="1" style="stop-color:#157EFB"/>
	</linearGradient>
	<path class="st5" d="M27.3,13.6c0,1,0.1,1.6,0.6,2.1c0.2,0.2,0.6,0.4,0.9,0.5c0.2,0.1,0.2,0.1,0.4,0.1c0.2,0.1,0.5,0.1,0.8,0.1h0.6
		c0.9,0,1.5-0.2,2.1-0.5c0.6-0.4,1-1,1-1.9c0-0.9-0.5-1.5-1.4-1.9c-0.3-0.1-0.9-0.3-1.7-0.5L28.5,11c-1-0.4-1.4-1-1.4-1.9
		c0-0.8,0.3-1.3,1-1.8c0.5-0.3,1.1-0.5,1.9-0.5h0.6C31.3,6.8,32,7,32.5,7.4c0.6,0.4,0.9,0.9,0.9,1.8"/>
	
		<linearGradient id="SVGID_7_" gradientUnits="userSpaceOnUse" x1="8.016" y1="282.9136" x2="8.016" y2="283.8585" gradientTransform="matrix(1 0 0 -16 22.284 4545.9307)">
		<stop  offset="0" style="stop-color:#81C3F3"/>
		<stop  offset="1" style="stop-color:#157EFB"/>
	</linearGradient>
	<path class="st6" d="M30.3,5.5V18"/>
</g>
</svg>
