<svg xmlns="http://www.w3.org/2000/svg" width="41.186" height="28.5" viewBox="0 0 41.186 28.5">
    <defs>
        <style>
            .cls-1{fill:#fff}
        </style>
    </defs>
    <g id="myinvest_2" transform="translate(-1 -4.8)">
        <path id="Path_3436" d="M41.744 4.8H9.233a.674.674 0 0 0-.633.633v4.644c0 .211 0 .422.211.422H5.433a.674.674 0 0 0-.633.633v4.644c0 .211 0 .422.211.422H1.633a.674.674 0 0 0-.633.635v15.834a.674.674 0 0 0 .633.633h32.511a.674.674 0 0 0 .633-.633v-5.278c.211.211.211.211.422.211h2.533a.674.674 0 0 0 .633-.633v-5.278c.211.211.211.211.422.211h2.533a.674.674 0 0 0 .633-.633V5.433c.425-.422.214-.633-.209-.633zM10.078 8.178v-1.9h1.9a3.359 3.359 0 0 1-1.9 1.9zm30.822 0a2.855 2.855 0 0 1-1.9-1.9h1.9zM22.322 10.5a3.7 3.7 0 0 1 3.167-2.111 3.974 3.974 0 0 1 3.167 2.111.207.207 0 0 1 .211.211l-6.545-.211zM8.178 11.978a3.359 3.359 0 0 1-1.9 1.9v-1.9zm28.922 1.9a2.855 2.855 0 0 1-1.9-1.9h1.9zM18.522 16.2a3.7 3.7 0 0 1 3.167-2.111 3.974 3.974 0 0 1 3.167 2.111.207.207 0 0 1 .211.211l-6.545-.211zM2.267 30.133a2.855 2.855 0 0 1 1.9 1.9h-1.9zm0-1.478v-7.388a4.031 4.031 0 0 0 3.378-3.378h24.066a4.031 4.031 0 0 0 3.378 3.378v7.389a4.031 4.031 0 0 0-3.378 3.378H5.644a3.632 3.632 0 0 0-3.377-3.378zM33.3 19.789a2.855 2.855 0 0 1-1.9-1.9h1.9zm-29.133-1.9a2.855 2.855 0 0 1-1.9 1.9v-1.9zM31.4 32.033a2.855 2.855 0 0 1 1.9-1.9v1.9zm3.378-14.989a.674.674 0 0 0-.633-.633h-8.234l.211-.211v-.633a5.169 5.169 0 0 0-4.433-2.744 4.779 4.779 0 0 0-4.433 2.744c0 .211-.211.422 0 .633 0 .211 0 .211.211.211h-11.4c.211-.211.211-.211.211-.422v-.633a4.282 4.282 0 0 0 3.378-3.378h24.066a4.031 4.031 0 0 0 3.378 3.378v7.389a5.032 5.032 0 0 0-2.322 1.267zm3.8-5.7a.674.674 0 0 0-.633-.633h-8.234l.211-.211v-.633a5.169 5.169 0 0 0-4.433-2.744 5.442 5.442 0 0 0-4.433 2.744c-.211.211 0 .633.211.844h-11.4c.211-.211.211-.211.211-.422v-.633a4.031 4.031 0 0 0 3.378-3.378h24.066A4.031 4.031 0 0 0 40.9 9.656v7.389a5.032 5.032 0 0 0-2.322 1.267zm-3.8 13.722a.654.654 0 0 0 .422.211.776.776 0 0 0 .633-.211 4.416 4.416 0 0 1 1.267-.844v1.9h-1.9c-.211 0-.422 0-.422.211zm3.8-5.7a.654.654 0 0 0 .422.211.776.776 0 0 0 .633-.211 4.416 4.416 0 0 1 1.267-.844v1.9H39c-.211 0-.422 0-.422.211z" class="cls-1"/>
        <path id="Path_3437" d="M11.778 11.3c-2.956 0-5.278 2.744-5.278 6.333s2.322 6.333 5.278 6.333 5.278-2.744 5.278-6.333-2.534-6.333-5.278-6.333zm0 1.478c2.111 0 3.8 2.111 3.8 4.856s-1.689 4.856-3.8 4.856-3.8-2.111-3.8-4.856 1.689-4.856 3.8-4.856z" class="cls-1" transform="translate(6.111 7.222)"/>
        <path id="Path_3438" d="M5.211 13.3A2 2 0 0 0 3.1 15.411a2 2 0 0 0 2.111 2.111 2 2 0 0 0 2.111-2.111A1.988 1.988 0 0 0 5.211 13.3zm0 1.478a.56.56 0 0 1 .633.633.56.56 0 0 1-.633.633.56.56 0 0 1-.633-.633.674.674 0 0 1 .633-.633z" class="cls-1" transform="translate(2.333 9.444)"/>
        <path id="Path_3439" d="M17.022 15.411a2 2 0 0 0-2.111-2.111 2 2 0 0 0-2.111 2.111 2 2 0 0 0 2.111 2.111 2.116 2.116 0 0 0 2.111-2.111zm-2.111-.633a.56.56 0 0 1 .633.633.56.56 0 0 1-.633.633.56.56 0 0 1-.633-.633.56.56 0 0 1 .633-.633z" class="cls-1" transform="translate(13.111 9.444)"/>
    </g>
</svg>
