<svg xmlns="http://www.w3.org/2000/svg" width="33.143" height="34.8" viewBox="0 0 33.143 34.8">
    <defs>
        <style>
            .cls-1{fill:#fff}
        </style>
    </defs>
    <g id="myinvest_3" transform="translate(-2.3 -2.8)">
        <path id="Path_3440" d="M32.336 2.8H15.35a2.832 2.832 0 0 0-2.9 2.9v12.429a6.034 6.034 0 0 0-4.143 5.8 2.627 2.627 0 0 0 .207 1.243h-.207a6.007 6.007 0 1 0 4.35 10.15 2.922 2.922 0 0 0 2.9 2.279h16.986a2.832 2.832 0 0 0 2.9-2.9V5.7a3.148 3.148 0 0 0-3.107-2.9zm0 34.179H15.35a1.857 1.857 0 0 1-1.864-1.864v-.829a6.743 6.743 0 0 0 .829-2.9 4.756 4.756 0 0 0-.829-2.9V5.7a1.857 1.857 0 0 1 1.864-1.864h16.986A1.857 1.857 0 0 1 34.2 5.7v29.414a1.857 1.857 0 0 1-1.864 1.865zm-24.029-.622a4.971 4.971 0 1 1 0-9.943 4.971 4.971 0 1 1 0 9.943zm1.036-12.428a4.743 4.743 0 0 1 3.107-4.557v7.664a8.127 8.127 0 0 0-2.9-1.657c0-.415-.207-.829-.207-1.45z" class="cls-1"/>
        <path id="Path_3441" d="M26.221 4.5h-17.4a.661.661 0 0 0-.621.621v6.629a.661.661 0 0 0 .621.621h17.4a.661.661 0 0 0 .621-.621V4.914c.001-.207-.206-.414-.621-.414zM9.443 11.336v-5.8h16.364v5.8z" class="cls-1" transform="translate(6.321 1.821)"/>
        <path id="Path_3442" d="M8.821 4.743h3.314a.661.661 0 0 0 .621-.621.661.661 0 0 0-.621-.621H8.821a.661.661 0 0 0-.621.621q.311.621.621.621z" class="cls-1" transform="translate(6.321 .75)"/>
        <path id="Path_3443" d="M12.964 8.8H8.821a.661.661 0 0 0-.621.621v1.864a.661.661 0 0 0 .621.621h4.143a.661.661 0 0 0 .621-.621V9.421a.549.549 0 0 0-.621-.621zm-3.521 1.864v-.828h3.107v.621H9.443z" class="cls-1" transform="translate(6.321 6.429)"/>
        <path id="Path_3444" d="M16.164 8.8h-4.143a.661.661 0 0 0-.621.621v1.864a.661.661 0 0 0 .621.621h4.143a.661.661 0 0 0 .621-.621V9.421a.549.549 0 0 0-.621-.621zm-3.521 1.864v-.828h3.107v.621h-3.107z" class="cls-1" transform="translate(9.75 6.429)"/>
        <path id="Path_3445" d="M19.364 8.8h-4.143a.661.661 0 0 0-.621.621v1.864a.661.661 0 0 0 .621.621h4.143a.661.661 0 0 0 .621-.621V9.421a.549.549 0 0 0-.621-.621zm-3.521 1.864v-.828h3.107v.621h-3.107z" class="cls-1" transform="translate(13.179 6.429)"/>
        <path id="Path_3446" d="M12.964 10.6H8.821a.661.661 0 0 0-.621.621v3.729a.661.661 0 0 0 .621.621h4.143a.661.661 0 0 0 .621-.621v-3.729a.661.661 0 0 0-.621-.621zm-3.521 3.936v-2.693h3.107v2.693z" class="cls-1" transform="translate(6.321 8.357)"/>
        <path id="Path_3447" d="M16.164 10.6h-4.143a.661.661 0 0 0-.621.621v3.729a.661.661 0 0 0 .621.621h4.143a.661.661 0 0 0 .621-.621v-3.729a.661.661 0 0 0-.621-.621zm-3.521 3.936v-2.693h3.107v2.693z" class="cls-1" transform="translate(9.75 8.357)"/>
        <path id="Path_3448" d="M19.364 10.6h-4.143a.661.661 0 0 0-.621.621v3.729a.661.661 0 0 0 .621.621h4.143a.661.661 0 0 0 .621-.621v-3.729a.661.661 0 0 0-.621-.621zm-3.521 3.936v-2.693h3.107v2.693z" class="cls-1" transform="translate(13.179 8.357)"/>
        <path id="Path_3449" d="M12.964 13.4H8.821a.661.661 0 0 0-.621.621v3.729a.661.661 0 0 0 .621.621h4.143a.661.661 0 0 0 .621-.621v-3.729a.549.549 0 0 0-.621-.621zm-3.521 3.729v-2.693h3.107v2.693z" class="cls-1" transform="translate(6.321 11.357)"/>
        <path id="Path_3450" d="M16.164 13.4h-4.143a.661.661 0 0 0-.621.621v3.729a.661.661 0 0 0 .621.621h4.143a.661.661 0 0 0 .621-.621v-3.729a.549.549 0 0 0-.621-.621zm-3.521 3.729v-2.693h3.107v2.693z" class="cls-1" transform="translate(9.75 11.357)"/>
        <path id="Path_3451" d="M19.364 13.4h-4.143a.661.661 0 0 0-.621.621v3.729a.661.661 0 0 0 .621.621h4.143a.661.661 0 0 0 .621-.621v-3.729a.549.549 0 0 0-.621-.621zm-3.521 3.729v-2.693h3.107v2.693z" class="cls-1" transform="translate(13.179 11.357)"/>
        <path id="Path_3452" d="M12.964 16.1H8.821a.661.661 0 0 0-.621.621v3.729a.661.661 0 0 0 .621.621h4.143a.661.661 0 0 0 .621-.621v-3.729a.549.549 0 0 0-.621-.621zm-3.521 3.729v-2.693h3.107v2.693z" class="cls-1" transform="translate(6.321 14.25)"/>
        <path id="Path_3453" d="M16.164 16.1h-4.143a.661.661 0 0 0-.621.621v3.729a.661.661 0 0 0 .621.621h4.143a.661.661 0 0 0 .621-.621v-3.729a.549.549 0 0 0-.621-.621zm-3.521 3.729v-2.693h3.107v2.693z" class="cls-1" transform="translate(9.75 14.25)"/>
        <path id="Path_3454" d="M19.364 16.1h-4.143a.661.661 0 0 0-.621.621v3.729a.661.661 0 0 0 .621.621h4.143a.661.661 0 0 0 .621-.621v-3.729a.549.549 0 0 0-.621-.621zm-3.521 3.729v-2.693h3.107v2.693z" class="cls-1" transform="translate(13.179 14.25)"/>
        <path id="Path_3455" d="M6.786 15.529v-.207a.661.661 0 0 0-.621-.621.549.549 0 0 0-.621.621v.414A1.337 1.337 0 0 0 4.3 16.979v1.036a1.337 1.337 0 0 0 1.243 1.243h1.243a.2.2 0 0 1 .207.207V20.5a.2.2 0 0 1-.207.207H5.75a.2.2 0 0 1-.207-.207v-.414a.661.661 0 0 0-.621-.621.661.661 0 0 0-.621.621v.414a1.337 1.337 0 0 0 1.243 1.243v.414a.661.661 0 0 0 .621.621.549.549 0 0 0 .621-.621v-.414A1.337 1.337 0 0 0 8.029 20.5v-1.036a1.337 1.337 0 0 0-1.243-1.243H5.543a.2.2 0 0 1-.207-.207v-1.035a.2.2 0 0 1 .207-.207h1.036a.2.2 0 0 1 .207.207v.414a.661.661 0 0 0 .621.621.661.661 0 0 0 .621-.621v-.414a1.385 1.385 0 0 0-1.242-1.45z" class="cls-1" transform="translate(2.143 12.75)"/>
    </g>
</svg>
