<svg xmlns="http://www.w3.org/2000/svg" width="36.933" height="32.6" viewBox="0 0 36.933 32.6">
    <defs>
        <style>
            .cls-1{fill:#fff}
        </style>
    </defs>
    <g id="myinvest_1" transform="translate(-1.3 -3.3)">
        <path id="Path_3429" d="M33.9 3.3H13.869a4.444 4.444 0 0 0-4.517 4.517V30.6H2.086a.845.845 0 0 0-.786.786A4.444 4.444 0 0 0 5.817 35.9h20.031a4.444 4.444 0 0 0 4.517-4.517V8.406h7.07a.845.845 0 0 0 .786-.786A4.235 4.235 0 0 0 33.9 3.3zM21.528 31.972a6.087 6.087 0 0 0 1.178 2.553H6.013a3.152 3.152 0 0 1-3.142-2.553zm4.517 2.553a3.1 3.1 0 0 1-3.145-3.142.845.845 0 0 0-.786-.786H10.53V7.817a3.272 3.272 0 0 1 3.339-3.142h16.692a4.634 4.634 0 0 0-1.375 3.142v23.566a3.1 3.1 0 0 1-3.141 3.142zM33.9 4.675a3.152 3.152 0 0 1 3.142 2.553h-6.284A3.01 3.01 0 0 1 33.9 4.675z" class="cls-1"/>
        <path id="Path_3430" d="M8.086 8.871h11a.845.845 0 0 0 .786-.786.845.845 0 0 0-.786-.786h-11a.845.845 0 0 0-.786.786.845.845 0 0 0 .786.786z" class="cls-1" transform="translate(5.783 3.855)"/>
        <path id="Path_3431" d="M7.986 10.071h13.157a.845.845 0 0 0 .786-.786.845.845 0 0 0-.786-.786H7.986a1.3 1.3 0 0 0-.786.982c0 .394.393.59.786.59z" class="cls-1" transform="translate(5.687 5.012)"/>
        <path id="Path_3432" d="M7.686 11.271h10.6a.845.845 0 0 0 .786-.786.845.845 0 0 0-.782-.785H7.686a.845.845 0 0 0-.786.786.845.845 0 0 0 .786.785z" class="cls-1" transform="translate(5.398 6.169)"/>
        <path id="Path_3433" d="M22.6 11H7.086a.786.786 0 1 0 0 1.571H22.4a.845.845 0 0 0 .786-.786c.003-.392-.193-.785-.586-.785z" class="cls-1" transform="translate(4.819 7.422)"/>
        <path id="Path_3434" d="M22.011 12.2H7.086a.786.786 0 1 0 0 1.571h14.728a.845.845 0 0 0 .786-.786c0-.392-.2-.785-.589-.785z" class="cls-1" transform="translate(4.819 8.578)"/>
        <path id="Path_3435" d="M19.261 13.4H7.086a.786.786 0 1 0 0 1.571h11.98a.845.845 0 0 0 .786-.786c-.001-.392-.198-.785-.591-.785z" class="cls-1" transform="translate(4.819 9.735)"/>
    </g>
</svg>
