<svg xmlns="http://www.w3.org/2000/svg" width="72" height="72" viewBox="0 0 72 72">
    <defs>
        <linearGradient id="4ugxjkw6ea" x1="50%" x2="50%" y1="0%" y2="100%">
            <stop offset="0%" stop-color="#81C3F3"/>
            <stop offset="100%" stop-color="#157EFB"/>
        </linearGradient>
        <linearGradient id="993jh5wuub" x1="50%" x2="50%" y1="0%" y2="100%">
            <stop offset="0%" stop-color="#81C3F3"/>
            <stop offset="100%" stop-color="#157EFB"/>
        </linearGradient>
        <linearGradient id="zv10nl2y9c" x1="50%" x2="50%" y1="0%" y2="100%">
            <stop offset="0%" stop-color="#81C3F3"/>
            <stop offset="100%" stop-color="#157EFB"/>
        </linearGradient>
        <linearGradient id="bui3m4sd0d" x1="50%" x2="50%" y1="0%" y2="100%">
            <stop offset="0%" stop-color="#81C3F3"/>
            <stop offset="100%" stop-color="#157EFB"/>
        </linearGradient>
        <linearGradient id="8eug6w9c0e" x1="50%" x2="50%" y1="0%" y2="100%">
            <stop offset="0%" stop-color="#81C3F3"/>
            <stop offset="100%" stop-color="#157EFB"/>
        </linearGradient>
        <linearGradient id="1fpgntfvuf" x1="50%" x2="50%" y1="0%" y2="100%">
            <stop offset="0%" stop-color="#81C3F3"/>
            <stop offset="100%" stop-color="#157EFB"/>
        </linearGradient>
        <linearGradient id="ibqian9yzg" x1="50%" x2="50%" y1="0%" y2="100%">
            <stop offset="0%" stop-color="#81C3F3"/>
            <stop offset="100%" stop-color="#157EFB"/>
        </linearGradient>
        <linearGradient id="swjvgj090h" x1="50%" x2="50%" y1="0%" y2="100%">
            <stop offset="0%" stop-color="#81C3F3"/>
            <stop offset="100%" stop-color="#157EFB"/>
        </linearGradient>
        <linearGradient id="8nu8wxsc5i" x1="50%" x2="50%" y1="0%" y2="100%">
            <stop offset="0%" stop-color="#81C3F3"/>
            <stop offset="100%" stop-color="#157EFB"/>
        </linearGradient>
        <linearGradient id="mtt24fnj7j" x1="50%" x2="50%" y1="0%" y2="100%">
            <stop offset="0%" stop-color="#81C3F3"/>
            <stop offset="100%" stop-color="#157EFB"/>
        </linearGradient>
        <linearGradient id="j8s9hc92xk" x1="50%" x2="50%" y1="0%" y2="100%">
            <stop offset="0%" stop-color="#81C3F3"/>
            <stop offset="100%" stop-color="#157EFB"/>
        </linearGradient>
        <linearGradient id="mln8fps4fl" x1="50%" x2="50%" y1="0%" y2="100%">
            <stop offset="0%" stop-color="#81C3F3"/>
            <stop offset="100%" stop-color="#157EFB"/>
        </linearGradient>
        <linearGradient id="5lauuz5zkm" x1="50%" x2="50%" y1="0%" y2="100%">
            <stop offset="0%" stop-color="#81C3F3"/>
            <stop offset="100%" stop-color="#157EFB"/>
        </linearGradient>
        <linearGradient id="pm667aqp5n" x1="50%" x2="50%" y1="0%" y2="100%">
            <stop offset="0%" stop-color="#81C3F3"/>
            <stop offset="100%" stop-color="#157EFB"/>
        </linearGradient>
        <linearGradient id="xjj6s95pbo" x1="50%" x2="50%" y1="0%" y2="100%">
            <stop offset="0%" stop-color="#81C3F3"/>
            <stop offset="100%" stop-color="#157EFB"/>
        </linearGradient>
        <linearGradient id="yuuvsqs7vp" x1="50%" x2="50%" y1="0%" y2="100%">
            <stop offset="0%" stop-color="#81C3F3"/>
            <stop offset="100%" stop-color="#157EFB"/>
        </linearGradient>
        <linearGradient id="5tdaa0iujq" x1="50%" x2="50%" y1="0%" y2="100%">
            <stop offset="0%" stop-color="#81C3F3"/>
            <stop offset="100%" stop-color="#157EFB"/>
        </linearGradient>
        <linearGradient id="voc5ba769r" x1="50%" x2="50%" y1="0%" y2="100%">
            <stop offset="0%" stop-color="#81C3F3"/>
            <stop offset="100%" stop-color="#157EFB"/>
        </linearGradient>
        <linearGradient id="q0ta96qpos" x1="50%" x2="50%" y1="0%" y2="100%">
            <stop offset="0%" stop-color="#81C3F3"/>
            <stop offset="100%" stop-color="#157EFB"/>
        </linearGradient>
        <linearGradient id="t39uchm39t" x1="50%" x2="50%" y1="0%" y2="100%">
            <stop offset="0%" stop-color="#81C3F3"/>
            <stop offset="100%" stop-color="#157EFB"/>
        </linearGradient>
        <linearGradient id="t01q9cudmu" x1="50%" x2="50%" y1="0%" y2="100%">
            <stop offset="0%" stop-color="#81C3F3"/>
            <stop offset="100%" stop-color="#157EFB"/>
        </linearGradient>
        <linearGradient id="jnn8w7ff7v" x1="50%" x2="50%" y1="0%" y2="100%">
            <stop offset="0%" stop-color="#81C3F3"/>
            <stop offset="100%" stop-color="#157EFB"/>
        </linearGradient>
        <linearGradient id="eh3p4yylkw" x1="50%" x2="50%" y1="0%" y2="100%">
            <stop offset="0%" stop-color="#81C3F3"/>
            <stop offset="100%" stop-color="#157EFB"/>
        </linearGradient>
        <linearGradient id="kotptx06vx" x1="50%" x2="50%" y1="0%" y2="100%">
            <stop offset="0%" stop-color="#81C3F3"/>
            <stop offset="100%" stop-color="#157EFB"/>
        </linearGradient>
        <linearGradient id="54tjbjt6ey" x1="50%" x2="50%" y1="0%" y2="100%">
            <stop offset="0%" stop-color="#81C3F3"/>
            <stop offset="100%" stop-color="#157EFB"/>
        </linearGradient>
        <linearGradient id="uh6va55jnz" x1="50%" x2="50%" y1="0%" y2="100%">
            <stop offset="0%" stop-color="#81C3F3"/>
            <stop offset="100%" stop-color="#157EFB"/>
        </linearGradient>
        <linearGradient id="cmsxj1mt8A" x1="50%" x2="50%" y1="0%" y2="100%">
            <stop offset="0%" stop-color="#81C3F3"/>
            <stop offset="100%" stop-color="#157EFB"/>
        </linearGradient>
        <linearGradient id="ysyw6z0vzB" x1="50%" x2="50%" y1="0%" y2="100%">
            <stop offset="0%" stop-color="#81C3F3"/>
            <stop offset="100%" stop-color="#157EFB"/>
        </linearGradient>
        <linearGradient id="e505s921aC" x1="50%" x2="50%" y1="0%" y2="100%">
            <stop offset="0%" stop-color="#81C3F3"/>
            <stop offset="100%" stop-color="#157EFB"/>
        </linearGradient>
        <linearGradient id="mc764qiczD" x1="50%" x2="50%" y1="0%" y2="100%">
            <stop offset="0%" stop-color="#81C3F3"/>
            <stop offset="100%" stop-color="#157EFB"/>
        </linearGradient>
        <linearGradient id="uoynzb2wxE" x1="50%" x2="50%" y1="0%" y2="100%">
            <stop offset="0%" stop-color="#81C3F3"/>
            <stop offset="100%" stop-color="#157EFB"/>
        </linearGradient>
        <linearGradient id="zyhqjjolwF" x1="50%" x2="50%" y1="0%" y2="100%">
            <stop offset="0%" stop-color="#81C3F3"/>
            <stop offset="100%" stop-color="#157EFB"/>
        </linearGradient>
        <linearGradient id="c0qkmt35fG" x1="50%" x2="50%" y1="0%" y2="100%">
            <stop offset="0%" stop-color="#81C3F3"/>
            <stop offset="100%" stop-color="#157EFB"/>
        </linearGradient>
        <linearGradient id="n42lh3edwH" x1="50%" x2="50%" y1="0%" y2="100%">
            <stop offset="0%" stop-color="#81C3F3"/>
            <stop offset="100%" stop-color="#157EFB"/>
        </linearGradient>
        <linearGradient id="w3l4nsw4rI" x1="50%" x2="50%" y1="0%" y2="100%">
            <stop offset="0%" stop-color="#81C3F3"/>
            <stop offset="100%" stop-color="#157EFB"/>
        </linearGradient>
    </defs>
    <g fill="none" fill-rule="evenodd" stroke-linecap="round" stroke-linejoin="round" opacity=".5">
        <g>
            <g>
                <g>
                    <g>
                        <path stroke="url(#4ugxjkw6ea)" d="M30.947 70.556c2.638.36 5.37.429 8.16.17 16.812-1.559 30.31-15.25 31.659-32.08C72.5 16.98 54.56-.973 32.9.735 15.71 2.089 1.85 16.133.702 33.34c-.48 7.181 1.2 13.94 4.454 19.69 1.25 2.209 3.619 3.552 6.159 3.552h45.381c1.87 0 3.399-1.528 3.399-3.398V17.95c0-1.87-1.53-3.399-3.4-3.399H14.808c-1.87 0-3.4 1.53-3.4 3.4v35.234" transform="translate(-769 -1837) translate(391 1474) translate(378 363)"/>
                        <path stroke="url(#993jh5wuub)" d="M60.095 20.834L11.407 20.834" transform="translate(-769 -1837) translate(391 1474) translate(378 363)"/>
                        <path stroke="url(#zv10nl2y9c)" d="M22.4 41.788c0 .907-.738 1.644-1.646 1.644-.91 0-1.644-.737-1.644-1.644 0-.91.735-1.645 1.644-1.645.908 0 1.645.736 1.645 1.645z" transform="translate(-769 -1837) translate(391 1474) translate(378 363)"/>
                        <path stroke="url(#bui3m4sd0d)" d="M20.058 34.798c0 .909-.736 1.645-1.644 1.645-.91 0-1.644-.736-1.644-1.645s.735-1.645 1.644-1.645c.908 0 1.644.736 1.644 1.645z" transform="translate(-769 -1837) translate(391 1474) translate(378 363)"/>
                        <path stroke="url(#zv10nl2y9c)" d="M27.82 34.798c0 .909-.737 1.645-1.644 1.645-.91 0-1.645-.736-1.645-1.645s.735-1.645 1.645-1.645c.907 0 1.645.736 1.645 1.645z" transform="translate(-769 -1837) translate(391 1474) translate(378 363)"/>
                        <path stroke="url(#bui3m4sd0d)" d="M23.153 29.525c0 .908-.736 1.645-1.643 1.645-.91 0-1.645-.737-1.645-1.645s.735-1.645 1.645-1.645c.907 0 1.643.737 1.643 1.645z" transform="translate(-769 -1837) translate(391 1474) translate(378 363)"/>
                        <path stroke="url(#zv10nl2y9c)" d="M30.094 27.88c0 .908-.738 1.645-1.645 1.645-.91 0-1.645-.737-1.645-1.645s.735-1.645 1.645-1.645c.907 0 1.645.737 1.645 1.645zM33.972 34.798c0 .909-.738 1.645-1.645 1.645-.91 0-1.645-.736-1.645-1.645s.735-1.645 1.645-1.645c.907 0 1.645.736 1.645 1.645zM30.947 41.788c0 .907-.737 1.644-1.645 1.644s-1.644-.737-1.644-1.644c0-.91.736-1.645 1.644-1.645.908 0 1.645.736 1.645 1.645z" transform="translate(-769 -1837) translate(391 1474) translate(378 363)"/>
                        <path stroke="url(#8eug6w9c0e)" d="M35.482 49.425c0 .907-.737 1.644-1.644 1.644-.91 0-1.645-.737-1.645-1.644 0-.909.736-1.645 1.645-1.645.907 0 1.644.736 1.644 1.645z" transform="translate(-769 -1837) translate(391 1474) translate(378 363)"/>
                        <path stroke="url(#zv10nl2y9c)" d="M40.887 46.408c0 .908-.736 1.644-1.645 1.644s-1.645-.736-1.645-1.644c0-.908.736-1.645 1.645-1.645s1.645.737 1.645 1.645z" transform="translate(-769 -1837) translate(391 1474) translate(378 363)"/>
                        <path stroke="url(#8eug6w9c0e)" d="M37.934 40.958c0 .908-.738 1.644-1.645 1.644-.91 0-1.645-.736-1.645-1.644 0-.908.735-1.644 1.645-1.644.907 0 1.645.736 1.645 1.644z" transform="translate(-769 -1837) translate(391 1474) translate(378 363)"/>
                        <path stroke="url(#zv10nl2y9c)" d="M43.304 39.375c0 .909-.737 1.645-1.645 1.645-.91 0-1.645-.736-1.645-1.645 0-.907.735-1.645 1.645-1.645.908 0 1.645.738 1.645 1.645zM40.887 33.153c0 .909-.736 1.645-1.645 1.645s-1.645-.736-1.645-1.645.736-1.645 1.645-1.645 1.645.736 1.645 1.645zM36.288 29.309c0 .907-.737 1.645-1.644 1.645-.91 0-1.645-.738-1.645-1.645 0-.909.735-1.645 1.645-1.645.907 0 1.644.736 1.644 1.645z" transform="translate(-769 -1837) translate(391 1474) translate(378 363)"/>
                        <path stroke="url(#1fpgntfvuf)" d="M20.365 30.706L18.779 33.194" transform="translate(-769 -1837) translate(391 1474) translate(378 363)"/>
                        <path stroke="url(#ibqian9yzg)" d="M18.778 36.443L20.177 40.249" transform="translate(-769 -1837) translate(391 1474) translate(378 363)"/>
                        <path stroke="url(#swjvgj090h)" d="M20.058 34.798L24.531 34.798" transform="translate(-769 -1837) translate(391 1474) translate(378 363)"/>
                        <path stroke="url(#8nu8wxsc5i)" d="M22.511 30.824L25.812 33.195" transform="translate(-769 -1837) translate(391 1474) translate(378 363)"/>
                        <path stroke="url(#mtt24fnj7j)" d="M26.804 27.88L22.883 28.621" transform="translate(-769 -1837) translate(391 1474) translate(378 363)"/>
                        <path stroke="url(#j8s9hc92xk)" d="M28.449 29.525L26.539 33.195" transform="translate(-769 -1837) translate(391 1474) translate(378 363)"/>
                        <path stroke="url(#mln8fps4fl)" d="M29.074 29.401L32.327 33.153" transform="translate(-769 -1837) translate(391 1474) translate(378 363)"/>
                        <path stroke="url(#5lauuz5zkm)" d="M30.094 27.88L33.151 28.621" transform="translate(-769 -1837) translate(391 1474) translate(378 363)"/>
                        <path stroke="url(#pm667aqp5n)" d="M35.944 30.307L38.062 32.009" transform="translate(-769 -1837) translate(391 1474) translate(378 363)"/>
                        <path stroke="url(#xjj6s95pbo)" d="M37.597 33.914L33.972 34.798" transform="translate(-769 -1837) translate(391 1474) translate(378 363)"/>
                        <path stroke="url(#yuuvsqs7vp)" d="M30.682 34.798L27.82 34.798" transform="translate(-769 -1837) translate(391 1474) translate(378 363)"/>
                        <path stroke="url(#5tdaa0iujq)" d="M25.913 36.42L21.509 40.249" transform="translate(-769 -1837) translate(391 1474) translate(378 363)"/>
                        <path stroke="url(#voc5ba769r)" d="M26.804 36.318L28.725 40.25" transform="translate(-769 -1837) translate(391 1474) translate(378 363)"/>
                        <path stroke="url(#q0ta96qpos)" d="M22.399 41.788L27.657 41.788" transform="translate(-769 -1837) translate(391 1474) translate(378 363)"/>
                        <path stroke="url(#t39uchm39t)" d="M30.094 40.142L32.327 36.443" transform="translate(-769 -1837) translate(391 1474) translate(378 363)"/>
                        <path stroke="url(#t01q9cudmu)" d="M38.66 34.689L36.856 39.313" transform="translate(-769 -1837) translate(391 1474) translate(378 363)"/>
                        <path stroke="url(#jnn8w7ff7v)" d="M39.808 34.695L41.341 37.761" transform="translate(-769 -1837) translate(391 1474) translate(378 363)"/>
                        <path stroke="url(#eh3p4yylkw)" d="M40.208 40.142L37.934 40.958" transform="translate(-769 -1837) translate(391 1474) translate(378 363)"/>
                        <path stroke="url(#kotptx06vx)" d="M34.643 40.958L30.947 41.788" transform="translate(-769 -1837) translate(391 1474) translate(378 363)"/>
                        <path stroke="url(#54tjbjt6ey)" d="M32.998 36.443L35.482 39.313" transform="translate(-769 -1837) translate(391 1474) translate(378 363)"/>
                        <path stroke="url(#uh6va55jnz)" d="M39.242 44.763L37.294 42.254" transform="translate(-769 -1837) translate(391 1474) translate(378 363)"/>
                        <path stroke="url(#cmsxj1mt8A)" d="M30.256 43.433L32.795 47.78" transform="translate(-769 -1837) translate(391 1474) translate(378 363)"/>
                        <path stroke="url(#ysyw6z0vzB)" d="M35.482 48.934L37.934 47.397" transform="translate(-769 -1837) translate(391 1474) translate(378 363)"/>
                        <path stroke="url(#zv10nl2y9c)" d="M16.984 17.695c0 .679-.551 1.23-1.23 1.23-.68 0-1.232-.551-1.232-1.23 0-.68.552-1.232 1.232-1.232.679 0 1.23.551 1.23 1.232z" transform="translate(-769 -1837) translate(391 1474) translate(378 363)"/>
                        <path stroke="url(#e505s921aC)" d="M22.3 17.695c0 .679-.55 1.23-1.23 1.23-.68 0-1.23-.551-1.23-1.23 0-.68.55-1.232 1.23-1.232.68 0 1.23.551 1.23 1.232z" transform="translate(-769 -1837) translate(391 1474) translate(378 363)"/>
                        <path stroke="url(#zv10nl2y9c)" d="M27.617 17.695c0 .679-.551 1.23-1.23 1.23-.68 0-1.232-.551-1.232-1.23 0-.68.552-1.232 1.232-1.232.679 0 1.23.551 1.23 1.232z" transform="translate(-769 -1837) translate(391 1474) translate(378 363)"/>
                        <path stroke="url(#mc764qiczD)" d="M40.237 25.836L55.621 25.836" transform="translate(-769 -1837) translate(391 1474) translate(378 363)"/>
                        <path stroke="url(#uoynzb2wxE)" d="M45.691 30.706L55.621 30.706M45.691 35.575L55.621 35.575" transform="translate(-769 -1837) translate(391 1474) translate(378 363)"/>
                        <path stroke="url(#zyhqjjolwF)" d="M55.62 46.364c0 2.952-2.393 5.345-5.343 5.345-2.952 0-5.345-2.393-5.345-5.345 0-2.95 2.393-5.344 5.345-5.344 2.95 0 5.344 2.393 5.344 5.344z" transform="translate(-769 -1837) translate(391 1474) translate(378 363)"/>
                        <path stroke="url(#c0qkmt35fG)" d="M47.537 46.495L49.377 48.336 53.025 44.689" transform="translate(-769 -1837) translate(391 1474) translate(378 363)"/>
                        <path stroke="url(#n42lh3edwH)" d="M17.285 12.044C22.292 8.1 28.612 5.747 35.482 5.747c5.72 0 11.058 1.632 15.576 4.453" transform="translate(-769 -1837) translate(391 1474) translate(378 363)"/>
                        <path stroke="url(#w3l4nsw4rI)" d="M45.36 62.924c-3.087 1.1-6.413 1.698-9.878 1.698-5.902 0-11.398-1.737-16.006-4.726" transform="translate(-769 -1837) translate(391 1474) translate(378 363)"/>
                    </g>
                </g>
            </g>
        </g>
    </g>
</svg>
