<?xml version="1.0" encoding="utf-8"?>
<!-- Generator: Adobe Illustrator 22.0.1, SVG Export Plug-In . SVG Version: 6.00 Build 0)  -->
<svg version="1.1" id="圖層_1" xmlns="http://www.w3.org/2000/svg" xmlns:xlink="http://www.w3.org/1999/xlink" x="0px" y="0px"
	 viewBox="0 0 650 650" style="enable-background:new 0 0 650 650;" xml:space="preserve">
<style type="text/css">
	.st0{fill:none;stroke:#259EDA;stroke-width:2;stroke-miterlimit:10;stroke-dasharray:5;}
	.st1{fill:#16336F;}
	.st2{clip-path:url(#SVGID_2_);}
	.st3{fill:url(#SVGID_3_);}
	.st4{clip-path:url(#SVGID_2_);fill:none;stroke:#FFFFFF;stroke-width:2;stroke-miterlimit:10;}
	.st5{fill:#FFFFFF;}
	.st6{fill:#3E3F3F;}
	.st7{fill:#2097AC;}
	.st8{fill:#5BBFB5;}
	.st9{fill:none;}
</style>
<polyline class="st0" points="397.1,550.5 230.5,550.5 230.5,591 "/>
<g>
	<g>
		<path class="st1" d="M175.9,626.6c-1.3,2.2-3.3,3.4-6,3.4c-2.8,0-4.8-1.1-6-3.4c-1-1.8-1.5-4.1-1.5-7c0-2.9,0.5-5.2,1.5-7.1
			c1.3-2.3,3.3-3.5,6.1-3.5c2.7,0,4.8,1.2,6.1,3.5c1,1.8,1.5,4.2,1.5,7.1C177.4,622.5,176.9,624.9,175.9,626.6z M169.8,612.5
			c-2.5,0-3.7,2.4-3.7,7.1c0,4.6,1.2,6.9,3.7,6.9c2.5,0,3.8-2.3,3.8-6.9C173.6,614.9,172.3,612.5,169.8,612.5z"/>
		<path class="st1" d="M180.3,629.7v-4.7h4.7v4.7H180.3z"/>
		<path class="st1" d="M200.7,627.9c-1.3,1.4-3,2.1-5.2,2.1c-4.6,0-7-2.2-7.2-6.7h3.8c0.1,1.1,0.4,1.9,0.9,2.4
			c0.5,0.5,1.2,0.8,2.3,0.8c1,0,1.9-0.4,2.5-1.2c0.5-0.7,0.9-1.5,0.9-2.6c0-1-0.3-1.9-0.9-2.5c-0.6-0.6-1.4-0.9-2.4-0.9
			c-1.6,0-2.7,0.9-3.2,2.7h-3.5l0.6-12.5h12.3v3.4h-8.8l-0.1,3.5c1-0.5,2-0.7,3.1-0.7c2,0,3.6,0.7,4.9,2c1.2,1.3,1.9,3,1.9,5
			C202.5,624.8,201.9,626.5,200.7,627.9z"/>
		<path class="st1" d="M214.5,618.1c-0.9,1-2.1,1.5-3.6,1.5c-1.6,0-2.8-0.5-3.6-1.5c-0.9-1-1.3-2.2-1.3-3.8c0-1.6,0.4-2.8,1.3-3.8
			c0.9-1,2.1-1.5,3.7-1.5c1.5,0,2.8,0.5,3.7,1.5c0.9,1,1.3,2.3,1.3,3.8C215.8,615.9,215.4,617.1,214.5,618.1z M209,630l-2.1-2.2
			l19.5-18.8l2.1,2.1L209,630z M210.9,611.8c-1.3,0-2,0.9-2,2.6s0.7,2.6,2,2.6c1.3,0,2-0.9,2-2.6S212.2,611.8,210.9,611.8z
			 M228.1,628.5c-0.9,1-2.1,1.5-3.6,1.5c-1.6,0-2.8-0.5-3.6-1.5c-0.9-1-1.3-2.2-1.3-3.8c0-1.6,0.4-2.8,1.3-3.8
			c0.9-1,2.1-1.5,3.7-1.5c1.5,0,2.8,0.5,3.7,1.5c0.9,1,1.3,2.2,1.3,3.8C229.4,626.2,229,627.5,228.1,628.5z M224.5,622.1
			c-1.3,0-2,0.9-2,2.6c0,1.7,0.7,2.6,2,2.6s2-0.9,2-2.6C226.5,623,225.8,622.1,224.5,622.1z"/>
		<path class="st1" d="M236.3,607v-2.2h3v2.2h4v2.9h-4v1.2h3.9v12.5h-4v1.4h4.3v3h-4.3v4h-3v-4h-4v-3h4v-1.4h-3.9v-12.5h4v-1.2h-4
			V607H236.3z M236.5,615.9v-1.7h-1.2v1.7H236.5z M236.5,620.5v-1.7h-1.2v1.7H236.5z M239.1,615.9h1.2v-1.7h-1.2V615.9z
			 M239.1,620.5h1.2v-1.7h-1.2V620.5z M249.6,606.1v-1.3h3.2v1.3h6.5v2.7h-6.5v0.8h5.7v9.6h-0.3c0.7,0.8,1.3,1.6,1.8,2.5l-2.5,1.4
			c-0.2-0.4-0.4-0.8-0.6-1.1c-0.1,0-0.2,0-0.3,0v1.4h3v2.9h-3v1.9c0,1.6-0.3,2.6-0.8,3.1c-0.6,0.5-1.6,0.9-3.1,0.9
			c-0.6,0-1.2-0.1-1.7-0.1l-0.6-3.3c0.7,0.2,1.5,0.4,2.2,0.4c0.5,0,0.9-0.5,0.9-1.4v-1.3h-4.6c0.5,0.7,1,1.4,1.4,2l-2.6,1.5
			c-0.5-0.9-1-1.8-1.8-2.6l1.6-0.9h-3.5v-2.9h9.5v-1.1c-2.7,0.2-5.7,0.4-9,0.4l-0.5-2.6c2,0,3.9,0,5.7-0.1v-0.9h-5.6v-9.6h5.6v-0.8
			h-5.8v-2.7H249.6z M249.6,613.2v-0.9h-2.5v0.9H249.6z M249.6,616.6v-0.8h-2.5v0.8H249.6z M252.8,613.2h2.6v-0.9h-2.6V613.2z
			 M252.8,616.6h2.6v-0.8h-2.6V616.6z M255,619.5l0.4-0.2h-2.5v0.8c0.9,0,1.7-0.1,2.5-0.2C255.2,619.8,255.1,619.7,255,619.5z"/>
		<path class="st1" d="M271.9,609.2v3.3h-9.4v-3.3H271.9z M271.3,626.6c1.1-0.2,2.3-0.6,3.6-1.1c0.1,0,0.2-0.1,0.3-0.1h-3.4v-2.7
			h3.8v-0.7h-2.7v-2.6h2.7v-0.7h-3.2V616h3.2v-0.7h3.2v0.7h3.8v-0.7h3.2v0.7h3.3v2.6h-3.3v0.7h2.6v2.6h-2.6v0.7h3.8v2.7h-2.7
			l1.8,1.2c-0.5,0.7-1,1.4-1.6,1.9c0.8,0.5,1.8,0.8,2.9,1.1l-1.5,2.9c-2-0.7-3.7-1.7-5.1-3.1c-1.2-1.1-2.1-2.5-2.8-4h-0.7
			c-0.4,0.4-0.9,0.8-1.2,1.1v2.3c0.9-0.2,1.8-0.4,2.6-0.6l0.5,2.4c-2.1,0.8-4.4,1.4-6.9,2l-1-2.8c0.5-0.1,1.1-0.2,1.7-0.3v-1.1
			c-1.1,0.5-2.1,1-3,1.2l-1.2-2.2v3.9h-5v1.1h-3.2v-10.3h8.2V626.6z M271.2,613.5v3.2h-7.7v-3.2H271.2z M271.2,617.6v3.2h-7.7v-3.2
			H271.2z M270.9,605.2v3.2h-7.1v-3.2H270.9z M268.1,628.1V625h-1.8v3.1H268.1z M282.5,604.8v1.2h7v2.9h-17.6V606h7v-1.2H282.5z
			 M280.6,609.6v5.3h-8.1v-5.3H280.6z M277.5,612.6v-0.8h-1.9v0.8H277.5z M282.6,618.6h-3.8v0.7h3.8V618.6z M282.6,622.6v-0.7h-3.8
			v0.7H282.6z M289.2,609.6v5.3h-8.1v-5.3H289.2z M284.7,626.6c0.5-0.4,0.9-0.9,1.2-1.3h-2.2C284,625.8,284.3,626.3,284.7,626.6z
			 M286.1,612.6v-0.8h-1.9v0.8H286.1z"/>
		<path class="st1" d="M318.7,608c-3,0.4-6.3,0.6-9.8,0.8v3.4h9.5v3.5h-9.5v3.6h11.5v3.4h-11.5v4.7c0,1.8-0.3,3-0.8,3.6
			c-0.6,0.7-1.8,1.1-3.4,1.1c-1.7,0-3.3-0.1-4.7-0.4l-0.6-3.7c1.6,0.3,3.2,0.5,4.7,0.5c0.4,0,0.7-0.1,0.9-0.4
			c0.1-0.3,0.2-0.9,0.2-1.6v-3.9h-12.2v-3.4h12.2v-3.6h-10v-3.5h10V609c-3.2,0.2-6.5,0.2-10.1,0.3l-1.1-3.2c7.6,0,15.3-0.4,22.9-1.3
			L318.7,608z"/>
		<path class="st1" d="M330.1,606.3c-0.9,1.9-1.8,3.6-2.6,5c0.2,0.2,0.5,0.4,0.8,0.6c0.7-1.3,1.3-2.7,1.9-4l3.1,1.3
			c-1.1,2-2.1,3.9-3.1,5.5l2.1-0.4c0.6,2,1.1,4.1,1.3,6.2l-2.9,0.7c-0.1-0.4-0.1-0.8-0.1-1.2c-0.2,0.1-0.4,0.1-0.6,0.1v12h-3.1v-8
			c-0.4,2-0.8,3.7-1.2,5.1l-2.7-0.8c0.6-2.3,1.1-4.5,1.4-6.8l2.5,0.6v-1.7c-0.9,0.2-1.9,0.3-2.9,0.4l-0.6-3.3c0.6,0,1.2-0.1,1.7-0.1
			c0.5-0.9,1.1-1.7,1.6-2.6c-1.2-1.1-2.5-2.2-3.8-3.4l1.8-2.3c0.1,0.1,0.3,0.2,0.4,0.3c0.8-1.5,1.5-3,2.1-4.6L330.1,606.3z
			 M329.7,615.6c-0.4,0.6-0.7,1.2-1,1.6c0.5,0,0.9-0.1,1.4-0.1C329.9,616.6,329.8,616.1,329.7,615.6z M333.9,627.3l-2.7,0.9
			c-0.2-2.1-0.6-4.1-1.1-5.8l2.6-0.8C333.2,623.3,333.6,625.2,333.9,627.3z M349.8,618.4v10.4h-2.4c0.2,0.1,0.5,0.1,0.8,0.2
			c0.9,0.2,1.8,0.3,2.7,0.4l-1.5,2.7c-0.9-0.2-1.8-0.5-2.6-0.8c-1-0.4-1.9-0.8-2.8-1.2l1.2-1.3h-6.4l1.3,1.8c-1.8,0.7-3.9,1.2-6,1.7
			l-1.3-2.6c1.4-0.2,2.8-0.5,4.1-0.9h-2.7v-10.4H349.8z M340.4,605.6v-0.9h3.2v0.9h7v2.5h-7v0.5h6v2.4h-15.2v-2.4h6v-0.5h-7.2v-2.5
			H340.4z M350.5,611.5v6.4h-17.2v-6.4H350.5z M336.4,613.7v1.9h1.8v-1.9H336.4z M346.7,621.2v-0.5h-9.5v0.5H346.7z M346.7,623.8
			v-0.5h-9.5v0.5H346.7z M346.7,626.4V626h-9.5v0.5H346.7z M340.9,613.7v1.9h1.8v-1.9H340.9z M347.4,615.6v-1.9h-2v1.9H347.4z"/>
		<path class="st1" d="M362.7,606v-1.3h3.2v1.3h3.2v-1.3h3.3v1.3h6.7v5.7h-6.7v0.7h8.3c-0.2,2.5-0.5,4.1-1.1,4.7
			c-0.4,0.5-1,0.7-1.8,0.8v10.6h-3.2c0.4,0.1,0.8,0.2,1.2,0.3c1.4,0.3,2.7,0.5,4,0.7l-1.6,3c-1.5-0.3-2.9-0.7-4.3-1.1
			c-1.6-0.5-3.2-1.1-4.6-1.6l1.5-1.2h-6.7l1,1.2c-1.2,0.6-2.6,1.2-4.2,1.6c-1.6,0.5-3.3,0.9-5.2,1.2l-1.3-2.8c1.9-0.2,3.5-0.6,5-1
			c0.3-0.1,0.5-0.1,0.8-0.2h-4v-9.1c-0.2,0.1-0.4,0.2-0.6,0.2l-1.7-2.7c1.9-0.6,3.4-1.2,4.7-1.9h-1.5l-0.2,0.6l-3.2-0.5l1.9-5.8h7
			v-0.7h-7.8V606H362.7z M362.4,611.7h-3.9l-0.3,0.7h3.7C362.1,612.2,362.3,611.9,362.4,611.7z M374.8,619.9v-0.6h-15.1v0.6H374.8z
			 M374.8,622.9v-0.7h-15.1v0.7H374.8z M374.8,625.8v-0.7h-15.1v0.7H374.8z M374.6,616.7l-0.3-1.4c1.2,0.2,2.2,0.2,3,0.2
			c0.1,0,0.2,0,0.2-0.1c0.1-0.1,0.1-0.2,0.1-0.5h-5.1v1.4h-3.3v-1.4h-5.3c-0.3,0.3-0.6,0.6-0.9,0.9c-0.4,0.4-0.9,0.7-1.3,0.9H374.6z
			 M369.2,611.7h-3.4c-0.1,0.2-0.2,0.5-0.2,0.7h3.6V611.7z M366,609.2h3.2v-0.7H366V609.2z M372.5,609.2h3.5v-0.7h-3.5V609.2z"/>
	</g>
</g>
<polyline class="st0" points="239,422.8 72.5,422.8 72.5,463.3 "/>
<polyline class="st0" points="239,243.5 72.5,243.5 72.5,203 "/>
<polyline class="st0" points="440.4,123.7 273.9,123.7 273.9,83.2 "/>
<g>
	<defs>
		<path id="SVGID_1_" d="M378.7,127.4c-503.4,164.8,6.4,521.6,119.7,444.9C593,508.3,696.4,23.3,378.7,127.4z"/>
	</defs>
	<clipPath id="SVGID_2_">
		<use xlink:href="#SVGID_1_"  style="overflow:visible;"/>
	</clipPath>
	<g class="st2">
		
			<linearGradient id="SVGID_3_" gradientUnits="userSpaceOnUse" x1="620.0845" y1="920.3178" x2="233.9876" y2="555.0905" gradientTransform="matrix(0.9112 -0.4121 0.4121 0.9112 -325.6645 -179.0126)">
			<stop  offset="0" style="stop-color:#5BBFB5"/>
			<stop  offset="0.1161" style="stop-color:#56B9B7"/>
			<stop  offset="0.3164" style="stop-color:#49A8B8"/>
			<stop  offset="0.5766" style="stop-color:#358CB6"/>
			<stop  offset="0.8836" style="stop-color:#2065AB"/>
			<stop  offset="0.9999" style="stop-color:#1B54A5"/>
		</linearGradient>
		<path class="st3" d="M378.7,127.4c-503.4,164.8,6.4,521.6,119.7,444.9C593,508.3,696.4,23.3,378.7,127.4z"/>
	</g>
	<line class="st4" x1="482" y1="332.3" x2="280.7" y2="83.7"/>
	<line class="st4" x1="482" y1="332.3" x2="133.5" y2="326.1"/>
	<path class="st4" d="M160.5,415.7"/>
	<path class="st4" d="M482,332.3"/>
	<line class="st4" x1="482" y1="332.3" x2="238.4" y2="539"/>
</g>
<g>
	<path class="st5" d="M392.1,507.8v-3.4l1.9,0.2c0.3,0,0.5,0.1,0.5,0.3c0,0.1-0.1,0.3-0.4,0.5v2.5h8.6v13.8h-2.1v-1.9h-6.5v6.7h-2.1
		v-6.7H386v1.9h-2.1v-13.8H392.1z M392.1,512.8v-3.1H386v3.1H392.1z M392.1,517.8v-3.2H386v3.2H392.1z M394.2,512.8h6.5v-3.1h-6.5
		V512.8z M394.2,517.8h6.5v-3.2h-6.5V517.8z"/>
	<path class="st5" d="M410.3,522c0.1,0.1,0.2,0.1,0.2,0.2c0,0.1-0.1,0.3-0.2,0.4c-0.7,1.5-1.4,2.8-2.2,3.8l-1.9-0.9
		c1-1.2,1.8-2.6,2.4-4.3L410.3,522z M414.7,505.4V521h-7.5v-15.7H414.7z M412.7,509.9v-2.7h-3.5v2.7H412.7z M412.7,514.6v-2.7h-3.5
		v2.7H412.7z M412.7,516.5h-3.5v2.7h3.5V516.5z M415.8,524.7L414,526c-0.7-1.4-1.5-2.6-2.4-3.6l1.4-1.1
		C413.9,522.2,414.8,523.3,415.8,524.7z M418.4,506v-1.7l1.8,0.1c0.3,0,0.5,0.1,0.5,0.2c0,0.1-0.1,0.3-0.4,0.6v0.8h2.9v-1.7l1.8,0.1
		c0.3,0,0.5,0.1,0.5,0.2c0,0.1-0.1,0.3-0.4,0.6v0.8h2.8v1.7h-2.8v1.2h2.5v1.6h-2.5v1.3h3.2v1.8H423v1.1h4.8v6.4h1v1.7h-1v1.5
		c0,0.9-0.6,1.5-1.7,1.8c-0.9,0.2-1.8,0.3-2.7,0.3l-0.8-2l2.3,0c0.6,0,0.9-0.3,0.9-0.7v-0.9H418v3.3h-2v-3.3h-1.2v-1.7h1.2v-6.4h4.9
		v-1.1h-5.9v-1.8h3.3v-1.3h-2.7V509h2.7v-1.2h-3V506H418.4z M421,518v-1.5H418v1.5H421z M421,521.2v-1.6H418v1.6H421z M423.4,507.8
		h-2.9v1.2h2.9V507.8z M423.4,510.6h-2.9v1.3h2.9V510.6z M423,518h2.8v-1.5H423V518z M423,521.2h2.8v-1.6H423V521.2z"/>
	<path class="st5" d="M435.3,513.4h6.4c-0.1,2.8-0.2,4.8-0.5,6.2c-0.2,1.3-0.7,2.3-1.2,2.8c-0.6,0.5-1.6,0.8-3.2,1l-1.2-2.2l2-0.3
		c0.9-0.1,1.4-0.7,1.6-1.6c0.2-0.8,0.3-2.1,0.3-3.9h-4.1v1.4c0,1.9-0.2,3.6-0.7,5.1c-0.3,1.1-0.9,2.6-1.8,4.3l-2.1-1
		c0.9-1.4,1.5-2.7,1.8-3.8c0.4-1.6,0.7-3.1,0.7-4.6v-9.1h10c0-1.1,0-2.2,0-3.4l2.2,0.2c0.3,0.1,0.5,0.2,0.5,0.3
		c0,0.2-0.2,0.5-0.6,0.9v2h4.6c-0.9-0.9-1.9-1.6-2.7-2.2l1.3-1.2c1,0.6,2.1,1.4,3,2.3l-1.2,1.1h2.1v2h-7.1c0.1,2.9,0.3,5.2,0.6,6.8
		c0.1,0.7,0.3,1.3,0.5,1.9c0,0,0-0.1,0.1-0.2c0.9-1.5,1.7-3.3,2.4-5.5l2.2,1c0.2,0.1,0.3,0.3,0.3,0.5c0,0.1-0.2,0.3-0.7,0.5
		c-1.1,2.7-2.2,4.7-3.1,6.1c-0.1,0.1-0.1,0.2-0.2,0.2c0.2,0.4,0.4,0.8,0.6,1.1c0.7,1.1,1.3,1.7,1.8,1.7c0.1,0,0.3-0.1,0.5-0.4
		c0.2-0.3,0.6-1.4,1.2-3.4l1.8,1.5c-0.5,1.6-0.9,2.7-1.4,3.5c-0.6,0.9-1.3,1.4-1.9,1.4s-1.4-0.4-2.1-1c-0.7-0.7-1.4-1.5-2-2.6
		c-0.3,0.3-0.7,0.7-1,0.9c-0.9,0.8-1.9,1.5-3.2,2.2l-1.7-1.7c1.4-0.7,2.5-1.4,3.4-2.2c0.6-0.4,1.1-0.9,1.6-1.4
		c-0.6-1.6-1-3.3-1.3-5.3c-0.2-1.4-0.3-3.3-0.4-5.5h-7.9V513.4z"/>
	<path class="st5" d="M465.2,508.6v-4.3l2,0.2c0.4,0,0.6,0.1,0.6,0.3c0,0.1-0.1,0.3-0.4,0.6v3.2h9.4v2h-8.8c1.5,2.6,2.9,4.6,4.4,6.1
		c1.3,1.3,3.1,2.6,5.5,3.9l-2.3,2.1c-1.9-1.4-3.5-2.9-4.6-4.3c-1.3-1.5-2.5-3.5-3.6-5.8v8.1h4.4v2h-4.4v2.9h-2.2v-2.9h-4.3v-2h4.3
		v-7.8c-1.3,2.5-2.5,4.5-3.8,6.1c-1.3,1.6-2.9,2.9-4.7,4.1l-2-2c2.3-1.3,4.2-2.8,5.9-4.5c1.2-1.2,2.5-3.1,3.9-5.7h-8.5v-2H465.2z"/>
</g>
<g>
	<path class="st5" d="M225.5,246.1c0.2,0.1,0.4,0.2,0.4,0.3c0,0.1-0.1,0.2-0.2,0.3c-0.2,0.1-0.7,0.6-1.3,1.4h14.2v2.1h-7.4v3.1h6.4
		v2h-6.4v4.5h8.3v2.2h-8.3v5.2H229V262h-11.3v-2.2h4v-6.5h7.3v-3.1h-6c-1,1.2-2.1,2.3-3.3,3.4l-2.2-1.2c2.5-1.9,4.5-4.3,6.1-7
		L225.5,246.1z M229,255.3h-5.1v4.5h5.1V255.3z"/>
	<path class="st5" d="M250,246.5c0.2,0.1,0.4,0.2,0.4,0.3c0,0.2-0.2,0.4-0.7,0.6c-0.6,1.4-1.2,2.6-1.7,3.7v16.2h-2.3v-12.3
		c-0.7,1-1.5,2.1-2.3,3.3l-1.7-1.7c1.4-1.7,2.5-3.4,3.5-5.1c0.9-1.6,1.8-3.5,2.7-5.9L250,246.5z M255.3,246.1c0.3,0,0.5,0.2,0.5,0.4
		s-0.2,0.4-0.5,0.7c-0.3,0.2-0.4,0.5-0.4,0.9v6.3c0.9-0.3,1.7-0.7,2.4-1c1.3-0.6,2.8-1.6,4.6-3l1.7,1.8c0.1,0.1,0.2,0.2,0.2,0.4
		c-0.1,0.1-0.1,0.2-0.2,0.2l-0.6-0.1c-0.1,0-0.3,0.1-0.6,0.2c-2.5,1.8-5,3.2-7.5,4v5.9c0,0.7,0.1,1.2,0.4,1.6
		c0.2,0.3,0.7,0.4,1.5,0.4h2.6c0.7,0,1.2-0.1,1.5-0.5c0.3-0.3,0.6-1.2,0.9-2.7l2.2,0.9c-0.4,1.9-0.8,3.2-1.4,3.7
		c-0.5,0.5-1,0.8-1.7,0.8h-5c-1,0-1.8-0.3-2.4-1c-0.5-0.6-0.7-1.5-0.7-2.6v-17.6L255.3,246.1z"/>
	<path class="st5" d="M270.7,247.5v-2.3l2,0.2c0.4,0,0.6,0.1,0.6,0.3c0,0.1-0.1,0.3-0.4,0.6v1.2h3.9v1.9h-3.9v2.2h4.6v1.9h-11.4
		v-1.9h4.6v-2.2H267v-1.9H270.7z M276.8,257.2v1.9h-4v2.3h4.6v1.9h-4.6v4.1h-2.2v-4.1h-4.5v-1.9h4.5V259h-3.8v-1.9H276.8z
		 M271,256.4L269,257c-0.3-1-0.8-1.9-1.4-2.8l2.1-0.4C270.2,254.6,270.6,255.5,271,256.4z M275.6,254.1c0.3,0,0.5,0.2,0.5,0.3
		c0,0.2-0.2,0.4-0.5,0.6l-1,2l-1.9-0.4l1.3-2.8L275.6,254.1z M280.2,248.1v6.6h5.7c0.4-0.3,0.7-0.5,0.9-0.5c0.1,0,0.6,0.5,1.5,1.3
		c0.1,0.1,0.2,0.2,0.2,0.3c0,0.2-0.1,0.3-0.2,0.4c-0.1,0.2-0.4,0.8-0.7,2c-0.6,2.2-1.3,3.8-1.9,4.9c0.8,0.8,1.7,1.5,2.8,2.1
		l-1.4,1.9c-1-0.8-1.9-1.5-2.6-2.2c-0.7,0.9-1.6,1.6-2.5,2.2l-1.4-1.6c0.9-0.5,1.7-1.1,2.3-1.8c0.1-0.1,0.2-0.2,0.3-0.3
		c0,0-0.1-0.1-0.1-0.1c-0.9-1.3-1.7-3.2-2.3-5.6l1.9-0.5c0.4,1.8,1,3.2,1.7,4.3c0-0.1,0.1-0.2,0.2-0.4c0.4-1,0.9-2.5,1.4-4.6h-5.7
		v10.7h-2.2v-21.1h9.3c0,2.9-0.1,4.8-0.4,5.5c-0.2,0.8-0.5,1.3-1.1,1.5c-0.6,0.3-1.6,0.5-3,0.5l-1-2.2c1.4,0,2.3-0.1,2.6-0.2
		c0.2-0.1,0.4-0.3,0.6-0.8c0.1-0.3,0.3-1.1,0.3-2.4H280.2z"/>
	<path class="st5" d="M300.7,246v1.8h-3.4v2.6h2.8v2.7l1.1-0.3c0.4,1.3,0.8,2.6,1,3.7c0-0.5,0-1,0-1.5v-9.3l1.9,0.2
		c0.3,0.1,0.4,0.2,0.4,0.3c0,0.2-0.1,0.3-0.4,0.5c0,2.3-0.1,4.5-0.1,6.5l1-0.3c0.5,1.5,0.9,2.9,1.2,4.2v-11l1.8,0.1
		c0.3,0,0.5,0.1,0.5,0.2c0,0.1-0.1,0.3-0.4,0.5v6.2l0.9-0.3c0.5,1.2,0.9,2.4,1.2,3.5v-10.5l1.8,0.1c0.3,0,0.5,0.1,0.5,0.3
		c0,0.1-0.1,0.3-0.4,0.5v20.6h-1.9v-9.3l-1.1,0.3c-0.2-1.2-0.5-2.5-1-4v13h-1.9v-9.4l-1.4,0.3c-0.1-1.1-0.4-2.4-0.9-3.8v0.6
		c0,2.1-0.1,4-0.2,5.6c-0.1,1.3-0.3,2.5-0.6,3.6c-0.2,1-0.6,2-1.1,3.1l-2.1-0.9c0.5-0.9,0.9-1.8,1.2-2.9c0.3-1,0.5-2.1,0.6-3.4
		c0.1-0.6,0.1-1.3,0.2-2.1l-1.3,0.3c-0.1-1.2-0.4-2.6-0.9-4.2v12h-7.7v1h-1.9v-16.8h2.8v-2.6h-3.1V246H300.7z M298.3,260.8v-2.3
		h-1.4c-0.7,0-1-0.3-1-1v-5.4h-0.9v0.7c0,1.3-0.1,2.5-0.3,3.6c-0.2,1.2-0.6,2.2-1,3l-1.1-0.6v2H298.3z M293,256.1
		c0.2-1.1,0.3-2.2,0.3-3.3v-0.7h-0.9v5.8C292.7,257.3,292.9,256.7,293,256.1z M298.3,264.4v-1.9h-5.9v1.9H298.3z M295.8,247.8h-0.9
		v2.6h0.9V247.8z M297.3,256.7c0,0.2,0.1,0.3,0.3,0.3h0.8v-4.8h-1V256.7z"/>
	<path class="st5" d="M326.9,245.5c0.4,0,0.6,0.1,0.6,0.3c0,0.1-0.1,0.3-0.4,0.5v1.5h9v1.9h-10.3l0.9,0.5c0.2,0.1,0.3,0.2,0.3,0.3
		c0,0.2-0.1,0.3-0.4,0.5l-2.2,2.7c0.4,0.4,0.7,0.7,1,1.1l3.3-3.5l1.5,0.8c0.2,0.1,0.3,0.2,0.3,0.3c0,0.2-0.1,0.4-0.4,0.5l-5,4.8
		c1.3-0.1,2.5-0.3,3.7-0.6c-0.3-0.4-0.6-0.8-0.9-1.2l1.2-1c1,1,2,2.4,2.9,4l-1.6,1c-0.2-0.5-0.5-0.9-0.7-1.3
		c-0.8,0.2-1.8,0.4-2.9,0.6v2h9.8v2h-9.8v4.2h-2.2V263h-9.9v-2h9.9v-1.6c-1,0.2-2.1,0.4-3.2,0.6c-0.2,0.2-0.3,0.3-0.5,0.3
		c-0.1,0-0.2-0.1-0.2-0.3l-0.4-1.9c0.7,0,1.4-0.1,2.1-0.2l1.7-1.8c-1.1-1.2-2.4-2.3-3.6-3.3l1.3-1.3c0.4,0.3,0.9,0.7,1.3,1l1.8-2.7
		h-9.4v-1.9h9.4v-2.5L326.9,245.5z M320.7,257.2l-4.1,2.2c-0.2,0.4-0.4,0.6-0.6,0.6s-0.2-0.1-0.3-0.3l-0.7-1.8
		c1.9-0.6,3.8-1.4,5.7-2.4V257.2z M320.3,253.5l-1.4,1.3c-1-1.2-2-2.2-2.9-2.9l1.3-1.2C318.3,251.5,319.4,252.4,320.3,253.5z
		 M335.8,251.1c0.2,0.1,0.3,0.2,0.3,0.3c0,0.2-0.1,0.4-0.4,0.5l-3,2.6l-1.5-0.7l3.1-3.4L335.8,251.1z M336.4,258.7l-1.4,1.3
		c-1.1-1.4-2.2-2.6-3.3-3.4l1.3-1.2C334.1,256.3,335.3,257.4,336.4,258.7z"/>
</g>
<g>
	<g>
		<path class="st1" d="M26.3,475c-0.2,0.4-0.3,0.8-0.5,1.2h17.8v3.3H24.1c-0.1,0.1-0.1,0.2-0.2,0.3c-0.2,0.4-0.5,0.7-0.7,1h18.1
			c0,2.5-0.1,4.7-0.2,6.8h3.6v3.2H41c-0.1,1.3-0.2,2.5-0.3,3.6h2.4v3.2h-2.9c-0.1,0.4-0.1,0.7-0.2,1c-0.2,0.9-0.8,1.6-1.6,2.2
			c-0.9,0.5-1.9,0.7-3.1,0.7c-0.8,0-1.8-0.1-2.9-0.1l-0.3-3.3c1.3,0.2,2.3,0.4,3.2,0.4c0.4,0,0.7-0.2,1-0.5c0.1-0.1,0.2-0.2,0.2-0.4
			H23.2l-0.2,1.5h-3.6l1.1-8.3h-3.2v-3.2H21l0.6-4.7c-0.4,0.4-0.7,0.8-1,1.1l-3.1-2.4c1.2-1.1,2.2-2.3,3.1-3.7c1-1.4,1.7-2.7,2.2-4
			L26.3,475z M30.6,494.3c-1.1-0.8-2.2-1.5-3.5-2.3l1.9-1.3h-4.7l-0.5,3.6H30.6z M31.4,487.6c-1.3-0.8-2.6-1.6-4.1-2.4L29,484h-3.8
			l-0.5,3.6H31.4z M34.5,492.9l-1.4,1.4h4c0.1-1.2,0.2-2.3,0.3-3.6h-6.6C32.1,491.5,33.4,492.2,34.5,492.9z M35.5,486.2l-1.4,1.4
			h3.6c0-1.2,0.1-2.3,0.1-3.6h-6.1C32.9,484.7,34.2,485.4,35.5,486.2z"/>
		<path class="st1" d="M71.9,475.5v21.4c0,3.1-1.4,4.7-4,4.7c-1,0-2.1-0.2-3.4-0.5l-0.8-3.9c1.3,0.6,2.5,0.9,3.7,0.9
			c0.7,0,1.1-0.8,1.1-2.4V493H55.4c-0.2,0.9-0.4,1.7-0.6,2.5c-0.5,2-1.5,4-2.8,6l-3.2-1.9c1.4-2.5,2.4-4.7,2.9-6.5
			c0.5-2.2,0.8-4.5,0.8-6.8v-10.8h1.6H71.9z M68.4,489.7v-3.9H55.9v2.2c0,0.6,0,1.2-0.1,1.7H68.4z M68.4,482.5v-3.7H55.9v3.7H68.4z"
			/>
		<path class="st1" d="M89.9,478.3v-4.2h3.6v4.2h11.3v3.4h-9.5c1.2,2.2,2.5,4.2,4,5.9c1.8,2.1,3.9,3.9,6.3,5.3l-1.9,3.7
			c-1.5-0.9-2.9-2.1-4.2-3.4v3.2h-6v5.1h-3.6v-5.1h-6.2v-2.9c-1.4,1.4-2.7,2.4-3.8,3.1l-1.8-3.1c1.9-1.3,4-3.3,6.1-5.9
			c1.6-1.9,2.9-3.9,3.9-5.9h-9.1v-3.4H89.9z M89.9,492.9v-7.4c-1,1.8-2,3.3-3,4.7c-0.9,1-1.8,1.9-2.6,2.7H89.9z M99.2,492.9
			c-0.9-0.9-1.7-1.8-2.4-2.7c-1.2-1.5-2.3-3.1-3.3-4.9v7.6H99.2z"/>
		<path class="st1" d="M113.8,494c-0.7,2.6-1.4,4.7-2.2,6.4l-3.3-1.8c0.9-1.9,1.6-3.9,2.2-5.8L113.8,494z M121.8,474.9
			c-0.2,0.6-0.4,1.1-0.6,1.5h11.3v15.8h-9.2c0.9,1,1.6,2.1,2.2,3.2l-3.1,1.8c-0.6-1.3-1.5-2.5-2.6-3.7l2.1-1.3h-10.4v-15.8h5.8
			c0.3-0.8,0.5-1.6,0.7-2.4L121.8,474.9z M117.9,492.8v3.8c0,0.8,0.6,1.2,1.8,1.2c0.5,0.1,1.3,0.1,2.3,0.1c2.2,0,3.5,0,4-0.2
			c0.5-0.2,0.7-0.4,0.9-0.8c0.1-0.2,0.2-0.8,0.4-1.9l3.4,2c-0.2,1.9-0.7,3-1.5,3.5c-0.5,0.2-1.2,0.4-2.1,0.5c-0.6,0.1-2.2,0.2-5,0.2
			c-1.3,0-2.4-0.1-3.4-0.2c-2.8-0.1-4.1-1.2-4.1-3.3v-5H117.9z M129,480.7v-1.1h-14.1v1.1H129z M129,484.7v-1.1h-14.1v1.1H129z
			 M129,489v-1.3h-14.1v1.3H129z M135.9,497.9l-3.5,2c-0.7-1.9-1.7-3.6-2.9-5.3l3.2-2C134,494.3,135.1,496,135.9,497.9z"/>
		<path class="st1" d="M164.9,501.5h-3.5v-1.4h-17.7v1.6h-3.4v-26.4h24.6V501.5z M161.4,496.7v-18.1h-17.7v18.1H161.4z M158.6,481.1
			V494h-12.2v-12.9H158.6z M155.1,490.7v-6.3h-5.3v6.3H155.1z"/>
		<path class="st1" d="M184.1,488.9v3.3h-5.2v5.1c0,1.7-0.3,2.9-0.8,3.3c-0.6,0.6-1.5,0.9-2.9,0.9c-0.7,0-1.3-0.1-1.9-0.2l-0.5-2.9
			c-0.2,0.4-0.3,0.8-0.5,1.1l-3.1-1.5c0.9-1.7,1.4-3.4,1.7-5.1l3.1,0.7c-0.2,1.5-0.5,2.9-1,4.3c0.7,0.2,1.5,0.4,2.2,0.4
			c0.1,0,0.2-0.5,0.2-1.5v-4.5h-5.9v-3.3H184.1z M175.2,476v-1.8h3.4v1.8h5.6v3.3h-5.6v1.2h4.3v3.2h-12.5v-3.2h4.8v-1.2h-5.7V476
			H175.2z M182.6,484.7v3.1h-11.8v-3.1H182.6z M183.6,496.1c0.9-1.4,1.7-3,2.4-4.8c0.9-2.2,1.4-5.3,1.8-9.1h-0.3
			c-0.6,1.6-1.2,3-1.8,4.3l-2.9-1.5c1.4-3.2,2.6-6.7,3.7-10.7l3.2,1.1c-0.3,1.3-0.6,2.6-1,3.7h8.4c-0.5,2.8-1.3,5.6-2.6,8.3
			l-2.6-1.5c0.5-1.1,0.9-2.3,1.2-3.6h-1.7c-0.1,1-0.2,2-0.3,2.9c0.4,2.5,0.9,4.7,1.6,6.5c0.9,2.7,2.2,5,4.2,7.1l-3,2.9
			c-1.3-1.8-2.4-3.6-3.1-5.6c-0.4-1.1-0.8-2.4-1.1-3.9c-0.2,0.5-0.3,0.9-0.5,1.3c-1.2,3.2-2.8,5.9-5,8.2l-2.4-3.1
			c0.5-0.5,0.9-1.1,1.4-1.7l-2.7,0.9c-0.2-1.5-0.6-2.8-1.2-3.9l3.1-0.9C182.8,493.8,183.3,494.9,183.6,496.1z"/>
	</g>
</g>
<g>
	<g>
		<path class="st1" d="M40.4,188.2l4.2-0.4c0.1,0.9,0.5,1.7,1.1,2.2c0.6,0.5,1.3,0.8,2,0.8c0.9,0,1.6-0.4,2.2-1.1
			c0.6-0.7,0.9-1.8,0.9-3.2c0-1.3-0.3-2.3-0.9-3c-0.6-0.7-1.4-1-2.3-1c-1.2,0-2.3,0.5-3.2,1.6l-3.4-0.5l2.1-11.3h11v3.9h-7.9
			l-0.7,3.7c0.9-0.5,1.9-0.7,2.8-0.7c1.8,0,3.4,0.7,4.7,2c1.3,1.3,1.9,3.1,1.9,5.2c0,1.8-0.5,3.4-1.6,4.8c-1.4,1.9-3.4,2.9-5.9,2.9
			c-2,0-3.6-0.5-4.9-1.6C41.4,191.4,40.7,190,40.4,188.2z"/>
		<path class="st1" d="M57,186.1v-3.8c1.3-1.4,2.7-2,4.4-2c0.6,0,1.2,0.1,1.7,0.2c0.5,0.1,1.5,0.5,2.8,1c1.4,0.5,2.3,0.8,2.8,0.8
			c0.6,0,1.2-0.2,1.9-0.5s1.4-0.9,2.1-1.6v4c-0.5,0.5-1.1,0.9-1.9,1.3s-1.7,0.6-2.5,0.6c-0.5,0-1-0.1-1.4-0.2s-1.2-0.4-2.2-0.8
			c-1.5-0.7-2.7-1-3.6-1C59.7,184,58.3,184.7,57,186.1z"/>
		<path class="st1" d="M89.1,189.9v3.9H74.5c0.2-1.5,0.6-2.9,1.4-4.2c0.8-1.3,2.4-3,4.7-5.2c1.9-1.8,3-2.9,3.5-3.6
			c0.6-0.9,0.9-1.7,0.9-2.6c0-0.9-0.3-1.6-0.7-2.1s-1.2-0.7-2.1-0.7c-0.9,0-1.6,0.3-2.1,0.8c-0.5,0.5-0.8,1.4-0.9,2.6l-4.2-0.4
			c0.2-2.3,1-3.9,2.3-4.9c1.3-1,2.9-1.5,4.9-1.5c2.1,0,3.8,0.6,5.1,1.7c1.2,1.2,1.8,2.6,1.8,4.3c0,1-0.2,1.9-0.5,2.8
			c-0.4,0.9-0.9,1.8-1.7,2.8c-0.5,0.6-1.4,1.6-2.7,2.8s-2.1,2-2.5,2.4c-0.4,0.4-0.6,0.8-0.9,1.2H89.1z"/>
		<path class="st1" d="M99,171.9c2.1,0,3.8,0.8,4.9,2.3c1.4,1.8,2.1,4.7,2.1,8.9c0,4.1-0.7,7.1-2.1,8.9c-1.2,1.5-2.8,2.2-4.9,2.2
			c-2.1,0-3.8-0.8-5.1-2.4c-1.3-1.6-1.9-4.5-1.9-8.7c0-4.1,0.7-7,2.1-8.8C95.2,172.7,96.9,171.9,99,171.9z M99,175.4
			c-0.5,0-1,0.2-1.4,0.5c-0.4,0.3-0.7,0.9-0.9,1.7c-0.3,1.1-0.4,2.9-0.4,5.4c0,2.6,0.1,4.3,0.4,5.3c0.3,1,0.6,1.6,1,1.9
			c0.4,0.3,0.8,0.5,1.3,0.5s1-0.2,1.4-0.5s0.7-0.9,0.9-1.7c0.3-1.1,0.4-2.9,0.4-5.4c0-2.6-0.1-4.3-0.4-5.3c-0.3-1-0.6-1.6-1-1.9
			S99.5,175.4,99,175.4z"/>
		<path class="st1" d="M108.9,177.4c0-1.9,0.4-3.4,1.3-4.3c0.9-0.9,2-1.4,3.5-1.4c1.5,0,2.7,0.5,3.6,1.4c0.9,0.9,1.3,2.4,1.3,4.3
			c0,1.9-0.4,3.4-1.3,4.3c-0.9,0.9-2,1.4-3.5,1.4c-1.5,0-2.7-0.5-3.6-1.4C109.3,180.8,108.9,179.4,108.9,177.4z M112.1,177.4
			c0,1.4,0.2,2.4,0.5,2.8c0.2,0.4,0.6,0.5,1,0.5c0.4,0,0.8-0.2,1-0.5c0.3-0.5,0.5-1.4,0.5-2.8s-0.2-2.4-0.5-2.8
			c-0.2-0.4-0.6-0.5-1-0.5c-0.4,0-0.8,0.2-1,0.5C112.3,175,112.1,175.9,112.1,177.4z M116.8,194.6h-3.1l11.6-23h3L116.8,194.6z
			 M123.5,188.9c0-1.9,0.4-3.4,1.3-4.3c0.9-0.9,2-1.4,3.5-1.4c1.5,0,2.7,0.5,3.5,1.4c0.9,0.9,1.3,2.4,1.3,4.3c0,2-0.4,3.4-1.3,4.3
			c-0.9,0.9-2,1.4-3.5,1.4c-1.5,0-2.7-0.5-3.6-1.4C124,192.3,123.5,190.8,123.5,188.9z M126.8,188.9c0,1.4,0.2,2.4,0.5,2.8
			c0.2,0.4,0.6,0.5,1,0.5c0.4,0,0.8-0.2,1-0.5c0.3-0.5,0.5-1.4,0.5-2.8s-0.2-2.4-0.5-2.8c-0.2-0.4-0.6-0.5-1-0.5
			c-0.4,0-0.8,0.2-1,0.5C126.9,186.5,126.8,187.5,126.8,188.9z"/>
	</g>
</g>
<g>
	<path class="st5" d="M229.4,377.6v1.9h-3.8v2.6h3.3v16.4h-2.1v-1.7h-6.9v1.7h-2.1V382h3.2v-2.6h-3.7v-1.9H229.4z M226.8,391v-1.7
		h-1.7c-0.8,0-1.2-0.4-1.2-1.2v-4.2h-1.1c0,1.3-0.2,2.4-0.4,3.4c-0.2,0.8-0.6,1.7-1.2,2.9l-1.2-0.6v1.5H226.8z M220.6,386.9
		c0.3-1,0.4-2,0.4-2.9h-1.1v4.6C220.2,387.9,220.4,387.3,220.6,386.9z M226.8,394.8v-1.9h-6.9v1.9H226.8z M223.8,379.5h-1.1v2.6h1.1
		V379.5z M225.5,387c0,0.3,0.1,0.4,0.4,0.4h0.9v-3.5h-1.2V387z M238.7,377.5v9.3h-6.2v8.8c0,0.6,0.2,0.9,0.8,0.9h2.9
		c0.5,0,0.8-0.1,1.1-0.4c0.2-0.2,0.4-1.1,0.6-2.6l2.2,0.7c-0.2,1.8-0.6,3-1.1,3.6c-0.5,0.6-1.2,0.9-2.1,0.9h-4.1
		c-1.7,0-2.5-0.6-2.5-1.8v-12h6.3v-5.1h-6.2v-2.1H238.7z"/>
	<path class="st5" d="M246.1,392.2c0.2,0.1,0.4,0.2,0.4,0.3c0,0.1-0.1,0.3-0.4,0.4c-0.7,2.2-1.5,4.1-2.4,5.5l-1.9-1.1
		c1-1.7,1.8-3.6,2.6-5.9L246.1,392.2z M254.3,377c0.3,0,0.5,0.2,0.5,0.4c0,0.2-0.2,0.4-0.6,0.6l-0.9,0.6h7.2v12.1h-15.9v-12.1h5.8
		l2.1-1.9L254.3,377z M258.4,382v-1.6h-11.8v1.6H258.4z M258.4,385.3v-1.6h-11.8v1.6H258.4z M258.4,387h-11.8v1.6h11.8V387z
		 M249.2,391.3c0.3,0,0.5,0.2,0.5,0.4s-0.2,0.4-0.5,0.7c-0.3,0.2-0.4,0.4-0.4,0.8v1.3c0,0.7,0.1,1.1,0.3,1.5
		c0.2,0.3,0.7,0.4,1.4,0.4h5.7c0.7,0,1.2-0.1,1.6-0.4c0.4-0.2,0.7-0.9,0.9-1.9l1.9,0.9c-0.6-0.9-1.3-1.7-1.9-2.4l1.5-1.2
		c1.4,1.3,2.7,2.9,4.1,4.9l-2,1.3c-0.5-0.9-1-1.7-1.5-2.5c-0.4,1.4-0.8,2.3-1.3,2.7c-0.5,0.4-1,0.6-1.7,0.6h-8.2
		c-1,0-1.8-0.3-2.3-0.9c-0.5-0.6-0.7-1.4-0.7-2.5v-4.1L249.2,391.3z M257,394.2l-2,1.3c-1.4-1.2-2.9-2.3-4.5-3.1l1.5-1.2
		C253.6,391.9,255.3,393,257,394.2z"/>
	<path class="st5" d="M277.9,377c0.4,0,0.6,0.1,0.6,0.3c0,0.1-0.2,0.3-0.5,0.6v3h10v2.1h-12.4c-0.1,1.3-0.2,2.4-0.3,3.4h10.1
		c0,4.8-0.2,7.8-0.7,9c-0.3,1.2-0.9,2.1-1.8,2.5c-0.9,0.5-2.6,0.7-4.9,0.7l-1.1-2.3c2.5,0,4.1-0.1,4.5-0.4c0.4-0.2,0.8-0.7,1.1-1.5
		c0.3-0.8,0.6-2.8,0.6-6.1H275c-0.1,0.7-0.3,1.3-0.5,1.9c-0.6,2.1-1.4,3.7-2.3,5s-2.1,2.4-3.6,3.5l-2.1-1.6c1.7-0.9,2.9-1.9,3.7-3.1
		c0.9-1.2,1.7-2.6,2.2-4.4c0.5-1.7,0.9-4,1-6.7h-7.3v-2.1h9.6v-4.1L277.9,377z"/>
	<path class="st5" d="M302.8,381c0-1.3,0-2.7,0-4.2l2.4,0.2c0.4,0,0.6,0.2,0.6,0.3c0,0.2-0.2,0.5-0.7,0.9c0,0.9,0,1.8,0,2.6h4.3
		c-0.9-1.1-1.7-2-2.6-2.7l1.5-1.4c1,0.9,2,1.9,2.9,3.1l-1.2,1h2v2.1h-7c0.1,2.5,0.3,4.4,0.5,5.8c0.4,2.3,1.1,4.1,1.9,5.4
		c0.6,1.1,1.2,1.7,1.6,1.7c0.1,0,0.3-0.1,0.5-0.3c0.2-0.2,0.6-1.1,1.1-2.8l1.9,1.6c-0.5,1.4-0.9,2.3-1.4,3c-0.6,0.8-1.3,1.2-1.9,1.2
		c-0.7,0-1.3-0.4-2-1c-0.9-0.8-1.7-2-2.5-3.6c-0.9-1.8-1.4-3.9-1.8-6.4c-0.1-1.2-0.3-2.7-0.3-4.6h-12.2V381H302.8z M301.7,386.3v2.1
		h-4.4v5.8c1.6-0.2,3.2-0.4,4.7-0.7v2c-2.1,0.4-5.4,1-10,1.7c-0.2,0.3-0.4,0.5-0.6,0.5c-0.2,0-0.3-0.1-0.3-0.4l-0.6-2.5
		c1.5-0.1,2.9-0.2,4.4-0.4v-6.1h-4v-2.1H301.7z"/>
</g>
<g>
	<path class="st6" d="M280.8,57.5c-2.4,4.7-6.1,10.5-11,14.6l-0.7,0.6l0.6,0.7c0.4,0.5,9.7,11.2,21.6,8l0.8-0.2l-0.1-0.8
		c0-0.2-1.6-18.9,2.9-27.2c0.7,0,0.7,0,1.4,0.1c0.6,1.6,1.3,3.2,2.2,4.7c1.9,4,4.9,9.2,9,13.7c-1.9,1.5-0.9,3.9-0.2,5.2
		c-2.5,2-6.3,4.2-10.6,4.6c-0.4-1.1-1.4-2.9-3.2-3.5c0.1,1.4,0.1,2.2,0.1,2.3l0.1,1.5l-1.6,0.4c-0.6,0.2-1.3,0.3-1.9,0.4l0.7,0.2
		c11.9,3.3,21.2-7.5,21.6-8l0.6-0.7l-0.7-0.6c-5.2-4.5-9-10.8-11.4-15.6 M290.2,63.1c-0.3-1.2-1.4-2.3-3-3c-2.4-1-5-0.5-5.9,1.1
		c-0.8,1.6,0.4,3.7,2.9,4.7c2.4,1,5,0.5,5.8-1c-0.4,4.3-0.4,8.6-0.3,11.5c-2.4,0-3.7,2.4-4.2,3.6c-4.3-0.4-8.1-2.6-10.6-4.6
		c0.7-1.3,1.7-3.7-0.2-5.2c3.8-4.2,6.7-9.1,8.6-13c3-0.5,6-1.5,8.8-2.7C291.2,57.1,290.6,60.1,290.2,63.1z M300.9,57.8
		C300.9,57.8,300.9,57.8,300.9,57.8L301,58C301,57.9,300.9,57.8,300.9,57.8z"/>
</g>
<path class="st7" d="M295,19c0.3,1,1.4,1.9,3,2.5c2.4,0.8,5,0.4,5.9-0.9c0.8-1.3-0.4-3.1-2.9-3.9c-2.4-0.8-5-0.4-5.8,0.9"/>
<g>
	<g id="XMLID_1_">
		<g>
			<path class="st6" d="M313.9,55.3c1.7,2.4,2.9,6,1.3,8.6c-1.8,3.1-5.3,3.9-8.6,4.7c-10.8,2.6-21.9,3.8-32.6,6.9l0.7,2.1L263,81.3
				l-11.3-34.7l11.7-3.8l0.8,2.5l0.1,0.3c2.6-1.3,4-4.6,5.6-8.5c2.3-5.5,5.9-12.9,13.7-14.7l3.3,6.5c0,0,8.9-5,15.5-5.4
				c2.2-0.1,4.7,0.5,5.9,2.5c1.4,2.3,1.2,5.1,0.4,7.7c4.2,1.5,5.3,6.7,3.9,10.8C315.8,47.3,315.7,51.7,313.9,55.3z M310.6,63
				c2.8-1.7,1.2-5-0.5-7c-0.3-0.4-0.3-1.1-0.1-1.5c1.7-2.9,2.2-6.3-0.9-8.4c-0.5-0.4-0.6-1.2-0.3-1.7c1.4-3,0.9-7.3-2.9-7.8
				c-1-0.1-1.3-1.3-1-2.1c0.1-0.2,0.4-1.3,0.6-2c0.3-1.3,0.5-2.7-0.1-3.9c-0.7-1.6-3.1-1.5-4.5-1.3c-0.1,0-0.2,0-0.2,0
				c0,0,0,0,0,0.1c0,0-0.1,0-0.1,0c-4.8,0.8-9.3,3.3-13.5,5.6c-0.8,0.4-1.9,0.2-2.2-0.8c-0.5-1.8-1-3.3-1.6-4.9
				c-5.2,2-7.3,6.9-9.3,11.6c-1.8,4.2-4.3,9-8.3,10.7l7.3,21.9c8.8-2.6,18.6-3.8,27.6-5.6C303.7,65.2,307.8,64.8,310.6,63z
				 M261.5,51.1l-1.1-3.4l-3.4,1.1l1.1,3.4L261.5,51.1z"/>
			<path class="st5" d="M310.2,56c1.7,1.9,3.2,5.3,0.5,7c-2.8,1.7-6.9,2.2-10,2.9c-9,1.8-18.8,3-27.6,5.6l-7.3-21.9
				c4.1-1.7,6.5-6.5,8.3-10.7c2-4.8,4.1-9.7,9.3-11.6c0.6,1.6,1.1,3.1,1.6,4.9c0.3,1,1.4,1.2,2.2,0.8c4.2-2.3,8.7-4.8,13.5-5.6
				c0,0,0.1,0,0.1,0c0,0,0,0,0-0.1c0.1,0,0.2,0,0.2,0c1.5-0.2,3.8-0.4,4.5,1.3c0.6,1.2,0.4,2.7,0.1,3.9c-0.2,0.7-0.5,1.9-0.6,2
				c-0.3,0.8,0,2,1,2.1c3.8,0.5,4.4,4.8,2.9,7.8c-0.3,0.5-0.2,1.4,0.3,1.7c3,2.1,2.5,5.5,0.9,8.4C309.8,55,309.8,55.7,310.2,56z"/>
		</g>
		<g>
		</g>
	</g>
</g>
<path class="st6" d="M284.2,23.5c0,0-2.5-5.4-12.2-13.3c7.9-7.6,17.9-8.5,22.9-6.9c-1.5,0.2-3.6,0.7-3.6,0.7l0.3,3.1
	c0,0-2.5-0.5-3.2-2.8C284.6,4.5,277.8,8,277.8,8s2.2,2.7-0.2,4.3c3.3,1.6,10.3,13.1,11.2,15.1s-2.3,2-2.3,2L284.2,23.5z"/>
<path class="st6" d="M304.2,23.8c0,0,5.6-8.8,11.6-12.4c-1.9-2-4.8-4.3-10.9-6.5c-6.1-2.1-12.1-0.4-12.1-0.4s0.7,6.9,0,13.2
	c-0.6,6.3-2.9,9.6-2.9,9.6S304.1,24.1,304.2,23.8z"/>
<path class="st5" d="M299.5,5.5c0,0,4.7,0.1,10.6,3.7c-2.2,3.2,0.2,4.3,0.2,4.3s-5.9,5.3-8.6,10.6c-3.2,0.1-8.8,2.2-8.8,2.2
	s3.1-6.5,2.4-17.9C298.3,8.3,299.5,5.5,299.5,5.5z"/>
<path class="st8" d="M287.7,14.7c-2.4,1.1-3.7,3.5-2.9,5.3c0.8,1.8,3.5,2.3,5.9,1.2c0.4-0.2,0.7-0.4,1-0.6c0.2-2,0.4-4,0.5-6
	C291,13.9,289.3,13.9,287.7,14.7z"/>
<path class="st8" d="M299.5,20.6c2.4-1.1,3.7-3.5,2.9-5.3c-0.8-1.8-3.5-2.3-5.9-1.2c-0.4,0.2-0.7,0.4-1,0.6c-0.2,2-0.5,3.9-0.8,5.8
	C295.9,21.2,297.9,21.4,299.5,20.6z"/>
<path class="st9" d="M302.5,23.4"/>
<g>
	<path class="st5" d="M420.3,166.5c0.2,0.1,0.3,0.2,0.3,0.3c0,0.2-0.1,0.3-0.4,0.5c-1.3,3.6-2.6,6.7-4.1,9.1l-2.4-1.1
		c1.8-2.7,3.3-5.9,4.4-9.7L420.3,166.5z M426.4,160.7c0.3,0,0.4,0.1,0.4,0.3c0,0.2-0.2,0.4-0.6,0.7v17.6c0,1-0.3,1.8-1,2.3
		c-0.5,0.5-1.9,0.8-4.1,0.8l-0.9-2.3h2.4c0.8,0,1.3-0.4,1.3-1.2v-18.3L426.4,160.7z M433.1,170.4c0.6,1.5,1.6,3.1,2.8,4.8l-2.5,1.1
		c-1-1.6-1.8-3.2-2.4-4.7c-0.7-1.7-1.2-3.6-1.6-5.6l2.1-0.5C432,167.3,432.5,169,433.1,170.4z"/>
	<path class="st5" d="M443.9,165.6c0.2,0.1,0.3,0.2,0.3,0.3c0,0.1-0.2,0.2-0.6,0.3c-0.1,0.3-0.3,0.5-0.4,0.8h3.1
		c0.1-0.2,0.2-0.3,0.3-0.5c0.1-0.1,0.1-0.2,0.2-0.2c0.1,0,0.3,0.1,0.4,0.3l0.9,1c0.1,0.1,0.1,0.2,0.1,0.3c0,0.1-0.2,0.3-0.6,0.5
		c-0.9,1.4-1.7,2.6-2.5,3.5c0.3,0.2,0.5,0.4,0.8,0.5c0.9,0.6,2.3,1.2,4.1,1.8l-1.4,1.7c-0.3-0.1-0.7-0.3-0.9-0.5v6.7h-1.9v-1h-4v1
		h-1.9v-6.5c-0.3,0.1-0.5,0.2-0.8,0.3l-1.3-1.5c1.9-0.6,3.5-1.5,4.8-2.6c-0.6-0.5-1.1-1.1-1.6-1.7c-0.3,0.3-0.7,0.7-1,1l-1.6-1.3
		c0.8-0.6,1.6-1.3,2.2-2c0.6-0.7,1.2-1.7,1.8-2.8L443.9,165.6z M445,160.8c0.3,0,0.5,0.1,0.5,0.3c0,0.1-0.1,0.3-0.4,0.5v1.1h4.2
		v-1.6h10.7v1.8h-4.3l-0.5,2.3h4v12.9h-9.1v-12.9h3l0.5-2.3h-4.2v3.9h-1.9v-2.4h-7.3v2.4h-1.9v-4.1h4.7v-2.1L445,160.8z
		 M446.9,174.9c-0.9-0.5-1.8-1-2.6-1.6c-0.1-0.1-0.3-0.2-0.4-0.3c-0.1,0.1-0.3,0.2-0.4,0.3c-0.8,0.6-1.6,1.1-2.5,1.6H446.9z
		 M445.8,179.4v-2.8h-4v2.8H445.8z M443.8,170.7c0.5-0.5,1-1.3,1.6-2.1h-3.2c-0.1,0.1-0.1,0.2-0.2,0.2c0,0-0.1,0.1-0.1,0.1
		C442.6,169.6,443.2,170.2,443.8,170.7z M453.9,179.1c0.1,0.1,0.2,0.2,0.2,0.3c0,0.1-0.1,0.2-0.3,0.3c-0.8,0.8-1.8,1.7-3.2,2.6
		l-1.7-1.3c1.3-0.7,2.5-1.5,3.6-2.6L453.9,179.1z M457.3,168.8v-1.9h-5.1v1.9H457.3z M457.3,172.6v-2.1h-5.1v2.1H457.3z
		 M457.3,174.4h-5.1v2.1h5.1V174.4z M460.7,180.5l-1.6,1.7c-1.2-0.8-2.3-1.8-3.1-2.8l1.1-1.1C458,179.2,459.2,179.9,460.7,180.5z"/>
	<path class="st5" d="M470.8,162.7c0.2,0.1,0.3,0.2,0.3,0.4c0,0.1-0.3,0.2-0.8,0.4c-0.7,2-1.6,3.7-2.6,5.2c-1,1.4-2.1,2.6-3.3,3.7
		l-2.2-1.4c1.5-1.3,2.7-2.5,3.6-3.8c0.9-1.2,1.8-2.9,2.6-5.1L470.8,162.7z M479.9,169.9c0,4.8-0.2,7.8-0.5,9
		c-0.2,1.2-0.7,2.1-1.5,2.5c-0.8,0.5-2.1,0.7-4,0.7l-1-2.2c2,0,3.2-0.1,3.6-0.4c0.3-0.2,0.6-0.7,0.8-1.5c0.3-0.8,0.4-2.8,0.5-6.2h-5
		c-0.2,1.9-0.5,3.5-1,4.6c-0.6,1.4-1.4,2.6-2.2,3.4c-0.9,0.9-2,1.7-3.5,2.4l-2.1-1.6c1.6-0.6,2.8-1.2,3.5-2c0.9-0.8,1.6-1.7,2.1-2.9
		c0.5-1,0.8-2.4,0.9-4H467v-2H479.9z M478.8,161.2c0.2,2.4,0.9,4.4,2.1,5.9c0.8,1.1,2.2,2.3,4.2,3.8l-2.1,1.4
		c-2.2-1.7-3.7-3.3-4.7-4.8c-0.8-1.1-1.3-2.5-1.6-4.3h-4.8v-2.1H478.8z"/>
	<path class="st5" d="M489.4,162.8v-2.6l1.8,0.1c0.3,0,0.5,0.1,0.5,0.2c0,0.1-0.1,0.3-0.4,0.6v1.6h2.6v-2.6l1.8,0.1
		c0.3,0,0.5,0.1,0.5,0.2c0,0.1-0.1,0.3-0.4,0.6v1.6h2.2v1.9h-2.2v2.7h2.7v1.1c0.6-1,1.1-2,1.5-3c0.4-1.1,0.8-2.9,1.2-5.3l2.2,0.4
		c0.2,0.1,0.4,0.2,0.4,0.4c0,0.2-0.2,0.3-0.7,0.5c-0.2,1.2-0.5,2.3-0.7,3.2h6.3v1.9h-1.1c-0.2,2.4-0.5,4.3-0.9,5.7
		c-0.4,1.4-0.8,2.7-1.3,3.8c-0.2,0.5-0.4,0.9-0.7,1.3c1,1.2,2.4,2.3,4.1,3.5l-1.6,1.7c-1.5-1.1-2.7-2.3-3.7-3.4
		c-0.2,0.2-0.3,0.4-0.5,0.5c-1,0.9-2.2,1.9-3.7,3l-1.8-1.9c1.4-0.8,2.5-1.5,3.3-2.2c0.5-0.4,0.9-0.9,1.4-1.3
		c-0.1-0.1-0.2-0.2-0.2-0.4c-0.9-1.5-1.5-3.7-1.9-6.5c-0.3,0.4-0.5,0.8-0.8,1.1l-1.7-1.4c0.2-0.3,0.4-0.5,0.5-0.8h-11.8v-1.9h2.9
		v-2.7h-2.2v-1.9H489.4z M497.5,170.3v10.2c0,0.9-0.5,1.5-1.4,1.8c-0.8,0.2-1.5,0.3-2.2,0.3l-0.8-2l1.7,0c0.5,0,0.7-0.3,0.7-0.7
		v-1.2h-5.6v3.7h-2v-12.1h0.9H497.5z M495.5,173.8v-1.7h-5.6v1.7H495.5z M495.5,177v-1.6h-5.6v1.6H495.5z M494.1,167.4v-2.7h-2.6
		v2.7H494.1z M502,169.5c0.2,2.5,0.8,4.4,1.7,5.9c0.6-1.1,1-2.3,1.4-3.8c0.3-1.3,0.6-2.9,0.8-5.1h-3.7c0,0.1-0.1,0.1-0.1,0.2
		c-0.3,0.9-0.8,1.9-1.4,2.9L502,169.5z"/>
</g>
</svg>
