<svg xmlns="http://www.w3.org/2000/svg" width="72" height="73" viewBox="0 0 72 73">
    <defs>
        <linearGradient id="z4jppimgja" x1="50%" x2="50%" y1="0%" y2="100%">
            <stop offset="0%" stop-color="#81C3F3"/>
            <stop offset="100%" stop-color="#157EFB"/>
        </linearGradient>
        <linearGradient id="tzrfqptahb" x1="50%" x2="50%" y1="0%" y2="100%">
            <stop offset="0%" stop-color="#81C3F3"/>
            <stop offset="100%" stop-color="#157EFB"/>
        </linearGradient>
        <linearGradient id="jbpcgk60cc" x1="50%" x2="50%" y1="0%" y2="100%">
            <stop offset="0%" stop-color="#81C3F3"/>
            <stop offset="100%" stop-color="#157EFB"/>
        </linearGradient>
        <linearGradient id="mqp9pujlud" x1="50%" x2="50%" y1="0%" y2="100%">
            <stop offset="0%" stop-color="#81C3F3"/>
            <stop offset="100%" stop-color="#157EFB"/>
        </linearGradient>
        <linearGradient id="6jk84rjc4e" x1="50%" x2="50%" y1="0%" y2="100%">
            <stop offset="0%" stop-color="#81C3F3"/>
            <stop offset="100%" stop-color="#157EFB"/>
        </linearGradient>
        <linearGradient id="0aync1b99f" x1="50%" x2="50%" y1="0%" y2="100%">
            <stop offset="0%" stop-color="#81C3F3"/>
            <stop offset="100%" stop-color="#157EFB"/>
        </linearGradient>
        <linearGradient id="s11zck10gg" x1="50%" x2="50%" y1="0%" y2="100%">
            <stop offset="0%" stop-color="#81C3F3"/>
            <stop offset="100%" stop-color="#157EFB"/>
        </linearGradient>
        <linearGradient id="kaxmak33th" x1="50%" x2="50%" y1="0%" y2="100%">
            <stop offset="0%" stop-color="#81C3F3"/>
            <stop offset="100%" stop-color="#157EFB"/>
        </linearGradient>
        <linearGradient id="lts3cuiaui" x1="50%" x2="50%" y1="0%" y2="100%">
            <stop offset="0%" stop-color="#81C3F3"/>
            <stop offset="100%" stop-color="#157EFB"/>
        </linearGradient>
        <linearGradient id="9ayagt9s0j" x1="50%" x2="50%" y1="0%" y2="100%">
            <stop offset="0%" stop-color="#81C3F3"/>
            <stop offset="100%" stop-color="#157EFB"/>
        </linearGradient>
        <linearGradient id="i3zbw1bmjk" x1="50%" x2="50%" y1="0%" y2="100%">
            <stop offset="0%" stop-color="#81C3F3"/>
            <stop offset="100%" stop-color="#157EFB"/>
        </linearGradient>
    </defs>
    <g fill="none" fill-rule="evenodd" stroke-linecap="round" opacity=".5">
        <g>
            <g>
                <g>
                    <g>
                        <path stroke="url(#z4jppimgja)" stroke-linejoin="round" d="M21.912 58.213V18.416l-.06-3.982c0-1.907 1.533-3.467 3.408-3.467h.702c.544 0 1.084.3 1.275.818.33.893 1.177 1.534 2.166 1.534H42.1c.99 0 1.838-.64 2.167-1.534.19-.519.73-.818 1.275-.818h.703c1.873 0 3.407 1.56 3.407 3.467v43.784" transform="translate(-769 -1680) translate(391 1474) translate(378 193) translate(0 13)"/>
                        <path stroke="url(#tzrfqptahb)" stroke-linejoin="round" d="M49.59 58.213c0 1.858-1.478 3.363-3.304 3.363h-21.07s-1.354.062-1.354 1.379c0 1.314 1.354 1.45 1.354 1.45h22.81c2.389 0 4.345-1.99 4.345-4.423V12.668c0-2.431-1.956-4.422-4.346-4.422H23.478c-2.39 0-4.346 1.99-4.346 4.422v47.314c0 8.085-5.189 4.423-5.189 4.423-1.035-.835-2.023-1.728-2.96-2.676C4.582 55.254.62 46.29.62 36.378.62 16.636 16.35.632 35.75.632c19.402 0 35.13 16.004 35.13 35.746 0 18.065-13.167 33-30.268 35.407" transform="translate(-769 -1680) translate(391 1474) translate(378 193) translate(0 13)"/>
                        <path stroke="url(#jbpcgk60cc)" d="M33.844 44.203s-.372-3.293 1.724-3.293 1.857 3.293 1.857 3.293-.027 3.834 3.45 3.834c3.476 0 3.806-3.873 3.806-3.873s.704-3.956-2.374-7.17c0 0-2.52-3.158-7.004-3.158 0 0-5.439-.08-8.119 6.21 0 0-1.406 3.807.85 7.72" transform="translate(-769 -1680) translate(391 1474) translate(378 193) translate(0 13)"/>
                        <path stroke="url(#mqp9pujlud)" d="M34.037 50.071l-2.374-2.886s-2.064-2.697-1.016-6.116c0 0 1.235-3.826 5.226-3.826 3.99 0 5.068 4.202 5.068 4.202s.256.95.207 2.888" transform="translate(-769 -1680) translate(391 1474) translate(378 193) translate(0 13)"/>
                        <path stroke="url(#6jk84rjc4e)" d="M26.379 35.163s3.894-5.24 9.444-5.24c5.552 0 9.302 4.946 9.302 4.946" transform="translate(-769 -1680) translate(391 1474) translate(378 193) translate(0 13)"/>
                        <path stroke="url(#0aync1b99f)" d="M27.305 29.462s3.73-3.103 8.456-3.103c4.728 0 8.436 3.103 8.436 3.103" transform="translate(-769 -1680) translate(391 1474) translate(378 193) translate(0 13)"/>
                        <path stroke="url(#s11zck10gg)" d="M62.591 38.217c0 1.506-1.2 2.726-2.679 2.726-1.48 0-2.679-1.22-2.679-2.726 0-1.505 1.2-2.726 2.68-2.726 1.479 0 2.678 1.221 2.678 2.726z" transform="translate(-769 -1680) translate(391 1474) translate(378 193) translate(0 13)"/>
                        <path stroke="url(#kaxmak33th)" d="M66.708 29.171c0 1.136-.905 2.055-2.02 2.055-1.116 0-2.02-.92-2.02-2.055 0-1.135.904-2.055 2.02-2.055 1.115 0 2.02.92 2.02 2.055z" transform="translate(-769 -1680) translate(391 1474) translate(378 193) translate(0 13)"/>
                        <path stroke="url(#lts3cuiaui)" d="M57.938 36.378L52.424 33.018" transform="translate(-769 -1680) translate(391 1474) translate(378 193) translate(0 13)"/>
                        <path stroke="url(#9ayagt9s0j)" d="M61.131 35.802L63.717 30.964" transform="translate(-769 -1680) translate(391 1474) translate(378 193) translate(0 13)"/>
                        <path stroke="url(#i3zbw1bmjk)" stroke-linejoin="round" d="M8.579 23.703c-1.487 3.22-2.37 6.57-2.696 9.919-.703 7.239 1.198 14.47 5.23 20.354" transform="translate(-769 -1680) translate(391 1474) translate(378 193) translate(0 13)"/>
                    </g>
                </g>
            </g>
        </g>
    </g>
</svg>
