<svg xmlns="http://www.w3.org/2000/svg" width="66.122" height="62" viewBox="0 0 66.122 62">
    <defs>
        <style>
            .cls-1{fill:#083a6e}
        </style>
    </defs>
    <g id="invest_choose_3" transform="translate(-11.1 -12.8)">
        <path id="Path_3388" d="M50.954 37.122a1.127 1.127 0 0 1-1.154-1.154v-1.814a1.154 1.154 0 1 1 2.309 0v1.814a1.127 1.127 0 0 1-1.155 1.154z" class="cls-1" transform="translate(25.114 13.109)"/>
        <path id="Path_3389" d="M50.954 36.605a1.127 1.127 0 0 1-1.154-1.154v-3.133a1.154 1.154 0 1 1 2.309 0v3.133a1.127 1.127 0 0 1-1.155 1.154zm0-9.564a1.127 1.127 0 0 1-1.154-1.154v-3.133a1.154 1.154 0 1 1 2.309 0v3.133a1.127 1.127 0 0 1-1.155 1.154z" class="cls-1" transform="translate(25.114 5.711)"/>
        <path id="Path_3390" d="M50.954 20.822a1.127 1.127 0 0 1-1.154-1.154v-1.814a1.154 1.154 0 1 1 2.309 0v1.814a1.127 1.127 0 0 1-1.155 1.154z" class="cls-1" transform="translate(25.114 2.531)"/>
        <path id="Path_3391" d="M71.286 60.454h-54.25a5.911 5.911 0 0 1-5.936-5.936V18.736a5.911 5.911 0 0 1 5.936-5.936h54.25a5.911 5.911 0 0 1 5.936 5.936v1.814a1.154 1.154 0 1 1-2.309 0v-1.814a3.66 3.66 0 0 0-3.628-3.628H17.036a3.66 3.66 0 0 0-3.628 3.628v35.617a3.66 3.66 0 0 0 3.628 3.628h54.25a3.66 3.66 0 0 0 3.628-3.628v-5.276a1.154 1.154 0 1 1 2.309 0v5.277a5.95 5.95 0 0 1-5.937 6.1z" class="cls-1"/>
        <path id="Path_3392" d="M76.068 39.609H12.254a1.154 1.154 0 0 1 0-2.309h63.814a1.154 1.154 0 0 1 0 2.309z" class="cls-1" transform="translate(0 15.899)"/>
        <path id="Path_3393" d="M40.846 47.39H27.654a1.127 1.127 0 0 1-1.154-1.154v-4.782a1.127 1.127 0 0 1 1.154-1.154h13.192A1.127 1.127 0 0 1 42 41.454v4.782a1.389 1.389 0 0 1-1.154 1.154zm-12.2-2.309h11.045v-2.472H28.644z" class="cls-1" transform="translate(9.994 17.846)"/>
        <path id="Path_3394" d="M46.49 55.072H25.054a1.127 1.127 0 0 1-1.154-1.154v-4.452a1.127 1.127 0 0 1 1.154-1.154h.989v-3.958A1.127 1.127 0 0 1 27.2 43.2h17.147a1.127 1.127 0 0 1 1.153 1.154v3.957h.989a1.127 1.127 0 0 1 1.154 1.154v4.452a1.127 1.127 0 0 1-1.153 1.155zm-20.281-2.308H45.5v-2.309h-.989a1.127 1.127 0 0 1-1.154-1.155v-3.956H28.352v4.122A1.127 1.127 0 0 1 27.2 50.62h-.989z" class="cls-1" transform="translate(8.306 19.728)"/>
        <path id="Path_3395" d="M57.226 51.309H20.454a1.154 1.154 0 1 1 0-2.309H57.39a1.127 1.127 0 0 1 1.154 1.154 1.4 1.4 0 0 1-1.318 1.155z" class="cls-1" transform="translate(5.321 23.492)"/>
        <path id="Path_3396" d="M38.556 48.609h-12.2a1.154 1.154 0 0 1 0-2.309h12.2a1.127 1.127 0 0 1 1.154 1.154 1.239 1.239 0 0 1-1.154 1.155z" class="cls-1" transform="translate(9.15 21.739)"/>
        <path id="Path_3397" d="M42.137 35.921a.907.907 0 0 1-.824-.495l-4.123-5.112a1.043 1.043 0 0 1 .165-1.484A1.268 1.268 0 0 1 39 29l3.133 3.957 5.116-7.257a1.075 1.075 0 0 1 1.814 1.154l-5.936 8.41a.9.9 0 0 1-.989.66z" class="cls-1" transform="translate(16.782 8.044)"/>
        <path id="Path_3398" d="M45.5 45.1a12.2 12.2 0 1 1 12.2-12.2 12.175 12.175 0 0 1-12.2 12.2zm0-22.1a9.894 9.894 0 1 0 9.9 9.9 9.923 9.923 0 0 0-9.9-9.891z" class="cls-1" transform="translate(14.406 5.127)"/>
        <path id="Path_3399" d="M39.139 30.881H16.054a1.127 1.127 0 0 1-1.154-1.154V17.854a1.127 1.127 0 0 1 1.154-1.154h23.085a1.127 1.127 0 0 1 1.154 1.154v11.873a1.127 1.127 0 0 1-1.154 1.154zm-21.93-2.144H38.15v-9.564H17.209z" class="cls-1" transform="translate(2.466 2.531)"/>
        <path id="Path_3400" d="M39.139 30.009H16.054a1.154 1.154 0 0 1 0-2.309h23.085a1.154 1.154 0 1 1 0 2.309z" class="cls-1" transform="translate(2.466 9.669)"/>
        <path id="Path_3401" d="M39.139 32.909H16.054a1.154 1.154 0 0 1 0-2.309h23.085a1.154 1.154 0 1 1 0 2.309z" class="cls-1" transform="translate(2.466 11.551)"/>
        <path id="Path_3402" d="M39.139 35.909H16.054a1.154 1.154 0 0 1 0-2.309h23.085a1.154 1.154 0 1 1 0 2.309z" class="cls-1" transform="translate(2.466 13.498)"/>
    </g>
</svg>
