<?xml version="1.0" encoding="utf-8"?>
<!-- Generator: Adobe Illustrator 22.0.1, SVG Export Plug-In . SVG Version: 6.00 Build 0)  -->
<svg version="1.1" id="圖層_1" xmlns="http://www.w3.org/2000/svg" xmlns:xlink="http://www.w3.org/1999/xlink" x="0px" y="0px"
	 viewBox="0 0 650 650" style="enable-background:new 0 0 650 650;" xml:space="preserve">
<style type="text/css">
	.st0{fill:none;stroke:#9B9B9B;stroke-width:2;stroke-miterlimit:10;stroke-dasharray:5;}
	.st1{fill:#9B9B9B;}
	.st2{clip-path:url(#SVGID_2_);}
	.st3{fill:url(#SVGID_3_);}
	.st4{clip-path:url(#SVGID_2_);fill:none;stroke:#FFFFFF;stroke-width:2;stroke-miterlimit:10;}
	.st5{fill:#FFFFFF;}
	.st6{fill:#6C6772;}
	.st7{fill:#2097AC;}
	.st8{fill:#5BBFB5;}
	.st9{fill:none;}
</style>
<polyline class="st0" points="396.9,550.5 230.3,550.5 230.3,591 "/>
<g>
	<g>
		<path class="st1" d="M183.7,626.6c-1.3,2.2-3.3,3.4-6,3.4c-2.8,0-4.8-1.1-6-3.4c-1-1.8-1.5-4.1-1.5-7c0-2.9,0.5-5.2,1.5-7.1
			c1.3-2.3,3.3-3.5,6.1-3.5c2.7,0,4.8,1.2,6.1,3.5c1,1.8,1.5,4.2,1.5,7.1C185.2,622.5,184.7,624.9,183.7,626.6z M177.6,612.5
			c-2.5,0-3.7,2.4-3.7,7.1c0,4.6,1.2,6.9,3.7,6.9c2.5,0,3.8-2.3,3.8-6.9C181.4,614.9,180.1,612.5,177.6,612.5z"/>
		<path class="st1" d="M188.1,629.7v-4.7h4.7v4.7H188.1z"/>
		<path class="st1" d="M207.9,625.3v4.2h-3.7v-4.2h-8.7v-2.5l9.2-13.4h3.3V622h3.1v3.3H207.9z M204.2,616.3l-3.9,5.7h3.9V616.3z"/>
		<path class="st1" d="M214.9,629.5v-3.2c6.4-5.6,9.6-9.5,9.6-11.5c0-1.6-1-2.4-2.9-2.4c-1.1,0-1.8,0.3-2.2,0.9
			c-0.3,0.5-0.5,1.4-0.4,2.6h-4c0.1-4.7,2.3-7,6.6-7c1.9,0,3.4,0.5,4.7,1.4c1.3,1.1,2,2.5,2,4.3c0,2.7-2.6,6.4-7.8,11.2h8v3.6H214.9
			z"/>
		<path class="st1" d="M245.5,627.9c-1.3,1.4-3,2.1-5.2,2.1c-4.6,0-7-2.2-7.2-6.7h3.8c0.1,1.1,0.4,1.9,0.9,2.4
			c0.5,0.5,1.2,0.8,2.3,0.8c1,0,1.9-0.4,2.5-1.2c0.5-0.7,0.9-1.5,0.9-2.6c0-1-0.3-1.9-0.9-2.5c-0.6-0.6-1.4-0.9-2.4-0.9
			c-1.6,0-2.7,0.9-3.2,2.7h-3.5l0.6-12.5h12.3v3.4h-8.8l-0.1,3.5c1-0.5,2-0.7,3.1-0.7c2,0,3.6,0.7,4.9,2c1.2,1.3,1.9,3,1.9,5
			C247.4,624.8,246.8,626.5,245.5,627.9z"/>
		<path class="st1" d="M259.4,618.1c-0.9,1-2.1,1.5-3.6,1.5c-1.6,0-2.8-0.5-3.6-1.5c-0.9-1-1.3-2.2-1.3-3.8c0-1.6,0.4-2.8,1.3-3.8
			c0.9-1,2.1-1.5,3.7-1.5c1.5,0,2.8,0.5,3.7,1.5c0.9,1,1.3,2.3,1.3,3.8C260.7,615.9,260.3,617.1,259.4,618.1z M253.9,630l-2.1-2.2
			l19.5-18.8l2.1,2.1L253.9,630z M255.8,611.8c-1.3,0-2,0.9-2,2.6s0.7,2.6,2,2.6c1.3,0,2-0.9,2-2.6S257.1,611.8,255.8,611.8z
			 M273,628.5c-0.9,1-2.1,1.5-3.6,1.5c-1.6,0-2.8-0.5-3.6-1.5c-0.9-1-1.3-2.2-1.3-3.8c0-1.6,0.4-2.8,1.3-3.8c0.9-1,2.1-1.5,3.7-1.5
			c1.5,0,2.8,0.5,3.7,1.5c0.9,1,1.3,2.2,1.3,3.8C274.3,626.2,273.9,627.5,273,628.5z M269.4,622.1c-1.3,0-2,0.9-2,2.6
			c0,1.7,0.7,2.6,2,2.6s2-0.9,2-2.6C271.4,623,270.7,622.1,269.4,622.1z"/>
	</g>
</g>
<polyline class="st0" points="238.9,422.8 72.3,422.8 72.3,463.3 "/>
<polyline class="st0" points="238.9,243.5 72.3,243.5 72.3,203 "/>
<polyline class="st0" points="440.3,123.7 273.7,123.7 273.7,83.2 "/>
<g>
	<defs>
		<path id="SVGID_1_" d="M378.6,127.4c-503.4,164.8,6.4,521.6,119.7,444.9C592.8,508.3,696.2,23.3,378.6,127.4z"/>
	</defs>
	<clipPath id="SVGID_2_">
		<use xlink:href="#SVGID_1_"  style="overflow:visible;"/>
	</clipPath>
	<g class="st2">
		
			<linearGradient id="SVGID_3_" gradientUnits="userSpaceOnUse" x1="619.9182" y1="920.2426" x2="233.8213" y2="555.0152" gradientTransform="matrix(0.9112 -0.4121 0.4121 0.9112 -325.6645 -179.0126)">
			<stop  offset="0" style="stop-color:#555557"/>
			<stop  offset="9.633780e-03" style="stop-color:#555557"/>
			<stop  offset="0.4478" style="stop-color:#7C7A7B"/>
			<stop  offset="0.7928" style="stop-color:#969596"/>
			<stop  offset="1" style="stop-color:#A0A0A0"/>
		</linearGradient>
		<path class="st3" d="M378.6,127.4c-503.4,164.8,6.4,521.6,119.7,444.9C592.8,508.3,696.2,23.3,378.6,127.4z"/>
	</g>
	<line class="st4" x1="481.8" y1="332.3" x2="280.5" y2="83.7"/>
	<line class="st4" x1="481.8" y1="332.3" x2="133.4" y2="326.1"/>
	<path class="st4" d="M160.4,415.7"/>
	<path class="st4" d="M481.8,332.3"/>
	<line class="st4" x1="481.8" y1="332.3" x2="238.2" y2="539"/>
</g>
<g>
	<path class="st5" d="M391.9,507.8v-3.4l1.9,0.2c0.3,0,0.5,0.1,0.5,0.3c0,0.1-0.1,0.3-0.4,0.5v2.5h8.6v13.8h-2.1v-1.9H394v6.7h-2.1
		v-6.7h-6.2v1.9h-2.1v-13.8H391.9z M391.9,512.8v-3.1h-6.2v3.1H391.9z M391.9,517.8v-3.2h-6.2v3.2H391.9z M394,512.8h6.5v-3.1H394
		V512.8z M394,517.8h6.5v-3.2H394V517.8z"/>
	<path class="st5" d="M410.1,522c0.1,0.1,0.2,0.1,0.2,0.2c0,0.1-0.1,0.3-0.2,0.4c-0.7,1.5-1.4,2.8-2.2,3.8l-1.9-0.9
		c1-1.2,1.8-2.6,2.4-4.3L410.1,522z M414.5,505.4V521H407v-15.7H414.5z M412.5,509.9v-2.7H409v2.7H412.5z M412.5,514.6v-2.7H409v2.7
		H412.5z M412.5,516.5H409v2.7h3.5V516.5z M415.6,524.7l-1.8,1.2c-0.7-1.4-1.5-2.6-2.4-3.6l1.4-1.1
		C413.7,522.2,414.6,523.3,415.6,524.7z M418.2,506v-1.7l1.8,0.1c0.3,0,0.5,0.1,0.5,0.2c0,0.1-0.1,0.3-0.4,0.6v0.8h2.9v-1.7l1.8,0.1
		c0.3,0,0.5,0.1,0.5,0.2c0,0.1-0.1,0.3-0.4,0.6v0.8h2.8v1.7h-2.8v1.2h2.5v1.6h-2.5v1.3h3.2v1.8h-5.6v1.1h4.8v6.4h1v1.7h-1v1.5
		c0,0.9-0.6,1.5-1.7,1.8c-0.9,0.2-1.8,0.3-2.7,0.3l-0.8-2l2.3,0c0.6,0,0.9-0.3,0.9-0.7v-0.9h-7.8v3.3h-2v-3.3h-1.2v-1.7h1.2v-6.4
		h4.9v-1.1h-5.9v-1.8h3.3v-1.3h-2.7V509h2.7v-1.2h-3V506H418.2z M420.8,518v-1.5h-2.9v1.5H420.8z M420.8,521.2v-1.6h-2.9v1.6H420.8z
		 M423.2,507.8h-2.9v1.2h2.9V507.8z M423.2,510.6h-2.9v1.3h2.9V510.6z M422.8,518h2.8v-1.5h-2.8V518z M422.8,521.2h2.8v-1.6h-2.8
		V521.2z"/>
	<path class="st5" d="M435.1,513.4h6.4c-0.1,2.8-0.2,4.8-0.5,6.2c-0.2,1.3-0.7,2.3-1.2,2.8c-0.6,0.5-1.6,0.8-3.2,1l-1.2-2.2l2-0.3
		c0.9-0.1,1.4-0.7,1.6-1.6c0.2-0.8,0.3-2.1,0.3-3.9h-4.1v1.4c0,1.9-0.2,3.6-0.7,5.1c-0.3,1.1-0.9,2.6-1.8,4.3l-2.1-1
		c0.9-1.4,1.5-2.7,1.8-3.8c0.4-1.6,0.7-3.1,0.7-4.6v-9.1h10c0-1.1,0-2.2,0-3.4l2.2,0.2c0.3,0.1,0.5,0.2,0.5,0.3
		c0,0.2-0.2,0.5-0.6,0.9v2h4.6c-0.9-0.9-1.9-1.6-2.7-2.2l1.3-1.2c1,0.6,2.1,1.4,3,2.3l-1.2,1.1h2.1v2h-7.1c0.1,2.9,0.3,5.2,0.6,6.8
		c0.1,0.7,0.3,1.3,0.5,1.9c0,0,0-0.1,0.1-0.2c0.9-1.5,1.7-3.3,2.4-5.5l2.2,1c0.2,0.1,0.3,0.3,0.3,0.5c0,0.1-0.2,0.3-0.7,0.5
		c-1.1,2.7-2.2,4.7-3.1,6.1c-0.1,0.1-0.1,0.2-0.2,0.2c0.2,0.4,0.4,0.8,0.6,1.1c0.7,1.1,1.3,1.7,1.8,1.7c0.1,0,0.3-0.1,0.5-0.4
		c0.2-0.3,0.6-1.4,1.2-3.4l1.8,1.5c-0.5,1.6-0.9,2.7-1.4,3.5c-0.6,0.9-1.3,1.4-1.9,1.4s-1.4-0.4-2.1-1c-0.7-0.7-1.4-1.5-2-2.6
		c-0.3,0.3-0.7,0.7-1,0.9c-0.9,0.8-1.9,1.5-3.2,2.2l-1.7-1.7c1.4-0.7,2.5-1.4,3.4-2.2c0.6-0.4,1.1-0.9,1.6-1.4
		c-0.6-1.6-1-3.3-1.3-5.3c-0.2-1.4-0.3-3.3-0.4-5.5h-7.9V513.4z"/>
	<path class="st5" d="M465,508.6v-4.3l2,0.2c0.4,0,0.6,0.1,0.6,0.3c0,0.1-0.1,0.3-0.4,0.6v3.2h9.4v2h-8.8c1.5,2.6,2.9,4.6,4.4,6.1
		c1.3,1.3,3.1,2.6,5.5,3.9l-2.3,2.1c-1.9-1.4-3.5-2.9-4.6-4.3c-1.3-1.5-2.5-3.5-3.6-5.8v8.1h4.4v2h-4.4v2.9H465v-2.9h-4.3v-2h4.3
		v-7.8c-1.3,2.5-2.5,4.5-3.8,6.1c-1.3,1.6-2.9,2.9-4.7,4.1l-2-2c2.3-1.3,4.2-2.8,5.9-4.5c1.2-1.2,2.5-3.1,3.9-5.7h-8.5v-2H465z"/>
</g>
<g>
	<path class="st5" d="M225.4,246.1c0.2,0.1,0.4,0.2,0.4,0.3c0,0.1-0.1,0.2-0.2,0.3c-0.2,0.1-0.7,0.6-1.3,1.4h14.2v2.1h-7.4v3.1h6.4
		v2h-6.4v4.5h8.3v2.2h-8.3v5.2h-2.3V262h-11.3v-2.2h4v-6.5h7.3v-3.1h-6c-1,1.2-2.1,2.3-3.3,3.4l-2.2-1.2c2.5-1.9,4.5-4.3,6.1-7
		L225.4,246.1z M228.8,255.3h-5.1v4.5h5.1V255.3z"/>
	<path class="st5" d="M249.8,246.5c0.2,0.1,0.4,0.2,0.4,0.3c0,0.2-0.2,0.4-0.7,0.6c-0.6,1.4-1.2,2.6-1.7,3.7v16.2h-2.3v-12.3
		c-0.7,1-1.5,2.1-2.3,3.3l-1.7-1.7c1.4-1.7,2.5-3.4,3.5-5.1c0.9-1.6,1.8-3.5,2.7-5.9L249.8,246.5z M255.2,246.1
		c0.3,0,0.5,0.2,0.5,0.4s-0.2,0.4-0.5,0.7c-0.3,0.2-0.4,0.5-0.4,0.9v6.3c0.9-0.3,1.7-0.7,2.4-1c1.3-0.6,2.8-1.6,4.6-3l1.7,1.8
		c0.1,0.1,0.2,0.2,0.2,0.4c-0.1,0.1-0.1,0.2-0.2,0.2l-0.6-0.1c-0.1,0-0.3,0.1-0.6,0.2c-2.5,1.8-5,3.2-7.5,4v5.9
		c0,0.7,0.1,1.2,0.4,1.6c0.2,0.3,0.7,0.4,1.5,0.4h2.6c0.7,0,1.2-0.1,1.5-0.5c0.3-0.3,0.6-1.2,0.9-2.7l2.2,0.9
		c-0.4,1.9-0.8,3.2-1.4,3.7c-0.5,0.5-1,0.8-1.7,0.8h-5c-1,0-1.8-0.3-2.4-1c-0.5-0.6-0.7-1.5-0.7-2.6v-17.6L255.2,246.1z"/>
	<path class="st5" d="M270.5,247.5v-2.3l2,0.2c0.4,0,0.6,0.1,0.6,0.3c0,0.1-0.1,0.3-0.4,0.6v1.2h3.9v1.9h-3.9v2.2h4.6v1.9h-11.4
		v-1.9h4.6v-2.2h-3.6v-1.9H270.5z M276.7,257.2v1.9h-4v2.3h4.6v1.9h-4.6v4.1h-2.2v-4.1H266v-1.9h4.5V259h-3.8v-1.9H276.7z
		 M270.8,256.4l-1.9,0.6c-0.3-1-0.8-1.9-1.4-2.8l2.1-0.4C270,254.6,270.4,255.5,270.8,256.4z M275.4,254.1c0.3,0,0.5,0.2,0.5,0.3
		c0,0.2-0.2,0.4-0.5,0.6l-1,2l-1.9-0.4l1.3-2.8L275.4,254.1z M280.1,248.1v6.6h5.7c0.4-0.3,0.7-0.5,0.9-0.5c0.1,0,0.6,0.5,1.5,1.3
		c0.1,0.1,0.2,0.2,0.2,0.3c0,0.2-0.1,0.3-0.2,0.4c-0.1,0.2-0.4,0.8-0.7,2c-0.6,2.2-1.3,3.8-1.9,4.9c0.8,0.8,1.7,1.5,2.8,2.1
		l-1.4,1.9c-1-0.8-1.9-1.5-2.6-2.2c-0.7,0.9-1.6,1.6-2.5,2.2l-1.4-1.6c0.9-0.5,1.7-1.1,2.3-1.8c0.1-0.1,0.2-0.2,0.3-0.3
		c0,0-0.1-0.1-0.1-0.1c-0.9-1.3-1.7-3.2-2.3-5.6l1.9-0.5c0.4,1.8,1,3.2,1.7,4.3c0-0.1,0.1-0.2,0.2-0.4c0.4-1,0.9-2.5,1.4-4.6h-5.7
		v10.7h-2.2v-21.1h9.3c0,2.9-0.1,4.8-0.4,5.5c-0.2,0.8-0.5,1.3-1.1,1.5c-0.6,0.3-1.6,0.5-3,0.5l-1-2.2c1.4,0,2.3-0.1,2.6-0.2
		c0.2-0.1,0.4-0.3,0.6-0.8c0.1-0.3,0.3-1.1,0.3-2.4H280.1z"/>
	<path class="st5" d="M300.5,246v1.8h-3.4v2.6h2.8v2.7l1.1-0.3c0.4,1.3,0.8,2.6,1,3.7c0-0.5,0-1,0-1.5v-9.3l1.9,0.2
		c0.3,0.1,0.4,0.2,0.4,0.3c0,0.2-0.1,0.3-0.4,0.5c0,2.3-0.1,4.5-0.1,6.5l1-0.3c0.5,1.5,0.9,2.9,1.2,4.2v-11l1.8,0.1
		c0.3,0,0.5,0.1,0.5,0.2c0,0.1-0.1,0.3-0.4,0.5v6.2l0.9-0.3c0.5,1.2,0.9,2.4,1.2,3.5v-10.5l1.8,0.1c0.3,0,0.5,0.1,0.5,0.3
		c0,0.1-0.1,0.3-0.4,0.5v20.6h-1.9v-9.3l-1.1,0.3c-0.2-1.2-0.5-2.5-1-4v13h-1.9v-9.4l-1.4,0.3c-0.1-1.1-0.4-2.4-0.9-3.8v0.6
		c0,2.1-0.1,4-0.2,5.6c-0.1,1.3-0.3,2.5-0.6,3.6c-0.2,1-0.6,2-1.1,3.1l-2.1-0.9c0.5-0.9,0.9-1.8,1.2-2.9c0.3-1,0.5-2.1,0.6-3.4
		c0.1-0.6,0.1-1.3,0.2-2.1l-1.3,0.3c-0.1-1.2-0.4-2.6-0.9-4.2v12h-7.7v1h-1.9v-16.8h2.8v-2.6h-3.1V246H300.5z M298.1,260.8v-2.3
		h-1.4c-0.7,0-1-0.3-1-1v-5.4h-0.9v0.7c0,1.3-0.1,2.5-0.3,3.6c-0.2,1.2-0.6,2.2-1,3l-1.1-0.6v2H298.1z M292.8,256.1
		c0.2-1.1,0.3-2.2,0.3-3.3v-0.7h-0.9v5.8C292.5,257.3,292.7,256.7,292.8,256.1z M298.1,264.4v-1.9h-5.9v1.9H298.1z M295.6,247.8
		h-0.9v2.6h0.9V247.8z M297.1,256.7c0,0.2,0.1,0.3,0.3,0.3h0.8v-4.8h-1V256.7z"/>
	<path class="st5" d="M326.7,245.5c0.4,0,0.6,0.1,0.6,0.3c0,0.1-0.1,0.3-0.4,0.5v1.5h9v1.9h-10.3l0.9,0.5c0.2,0.1,0.3,0.2,0.3,0.3
		c0,0.2-0.1,0.3-0.4,0.5l-2.2,2.7c0.4,0.4,0.7,0.7,1,1.1l3.3-3.5l1.5,0.8c0.2,0.1,0.3,0.2,0.3,0.3c0,0.2-0.1,0.4-0.4,0.5l-5,4.8
		c1.3-0.1,2.5-0.3,3.7-0.6c-0.3-0.4-0.6-0.8-0.9-1.2l1.2-1c1,1,2,2.4,2.9,4l-1.6,1c-0.2-0.5-0.5-0.9-0.7-1.3
		c-0.8,0.2-1.8,0.4-2.9,0.6v2h9.8v2h-9.8v4.2h-2.2V263h-9.9v-2h9.9v-1.6c-1,0.2-2.1,0.4-3.2,0.6c-0.2,0.2-0.3,0.3-0.5,0.3
		c-0.1,0-0.2-0.1-0.2-0.3l-0.4-1.9c0.7,0,1.4-0.1,2.1-0.2l1.7-1.8c-1.1-1.2-2.4-2.3-3.6-3.3l1.3-1.3c0.4,0.3,0.9,0.7,1.3,1l1.8-2.7
		h-9.4v-1.9h9.4v-2.5L326.7,245.5z M320.5,257.2l-4.1,2.2c-0.2,0.4-0.4,0.6-0.6,0.6s-0.2-0.1-0.3-0.3l-0.7-1.8
		c1.9-0.6,3.8-1.4,5.7-2.4V257.2z M320.1,253.5l-1.4,1.3c-1-1.2-2-2.2-2.9-2.9l1.3-1.2C318.2,251.5,319.2,252.4,320.1,253.5z
		 M335.6,251.1c0.2,0.1,0.3,0.2,0.3,0.3c0,0.2-0.1,0.4-0.4,0.5l-3,2.6l-1.5-0.7l3.1-3.4L335.6,251.1z M336.2,258.7l-1.4,1.3
		c-1.1-1.4-2.2-2.6-3.3-3.4l1.3-1.2C333.9,256.3,335.1,257.4,336.2,258.7z"/>
</g>
<g>
	<g>
		<path class="st1" d="M26.2,475c-0.2,0.4-0.3,0.8-0.5,1.2h17.8v3.3H23.9c-0.1,0.1-0.1,0.2-0.2,0.3c-0.2,0.4-0.5,0.7-0.7,1h18.1
			c0,2.5-0.1,4.7-0.2,6.8h3.6v3.2h-3.8c-0.1,1.3-0.2,2.5-0.3,3.6h2.4v3.2H40c-0.1,0.4-0.1,0.7-0.2,1c-0.2,0.9-0.8,1.6-1.6,2.2
			c-0.9,0.5-1.9,0.7-3.1,0.7c-0.8,0-1.8-0.1-2.9-0.1L32,498c1.3,0.2,2.3,0.4,3.2,0.4c0.4,0,0.7-0.2,1-0.5c0.1-0.1,0.2-0.2,0.2-0.4
			H23.1l-0.2,1.5h-3.6l1.1-8.3h-3.2v-3.2h3.6l0.6-4.7c-0.4,0.4-0.7,0.8-1,1.1l-3.1-2.4c1.2-1.1,2.2-2.3,3.1-3.7c1-1.4,1.7-2.7,2.2-4
			L26.2,475z M30.4,494.3c-1.1-0.8-2.2-1.5-3.5-2.3l1.9-1.3H24l-0.5,3.6H30.4z M31.2,487.6c-1.3-0.8-2.6-1.6-4.1-2.4l1.7-1.2H25
			l-0.5,3.6H31.2z M34.4,492.9l-1.4,1.4h4c0.1-1.2,0.2-2.3,0.3-3.6h-6.6C32,491.5,33.2,492.2,34.4,492.9z M35.3,486.2l-1.4,1.4h3.6
			c0-1.2,0.1-2.3,0.1-3.6h-6.1C32.7,484.7,34,485.4,35.3,486.2z"/>
		<path class="st1" d="M56.4,475.1c-0.2,0.5-0.4,0.9-0.5,1.4h17.8v3.5h-9v3.6h8.1v3.4h-8.1v4.4h10.2v3.4H64.6v6.8h-3.6v-6.8H48v-3.4
			h3.2V484c-0.4,0.4-0.7,0.7-0.9,1l-2.6-2.6c1.2-1.3,2.2-2.6,3-3.9c0.9-1.4,1.6-2.9,2.2-4.4L56.4,475.1z M61.1,480h-6.9
			c-0.1,0.2-0.2,0.3-0.3,0.5c-0.7,1.2-1.4,2.2-2.3,3.1h9.5V480z M61.1,487h-6.3v4.4h6.3V487z"/>
		<path class="st1" d="M92.2,474.9v3.2h-3.8v1.9H92v21.6h-3.2v-1.4h-7.4v1.4h-3.2V480h3.4v-1.9h-3.8v-3.2H92.2z M88.8,492.1v-1.7
			h-1.1c-1.6,0-2.4-0.9-2.4-2.6v-4.8h-0.7v1.6c0,1.5-0.2,2.8-0.5,4c-0.3,1.1-0.8,2-1.2,2.7l-1.4-1.1v1.9H88.8z M81.9,487.2
			c0.2-0.9,0.4-1.7,0.4-2.6v-1.6h-0.9v5.4C81.6,488,81.8,487.7,81.9,487.2z M88.8,497v-1.8h-7.4v1.8H88.8z M84.7,480h0.7v-1.9h-0.7
			V480z M87.8,487.1c0,0.5,0.2,0.7,0.7,0.7h0.4v-4.8h-1.1V487.1z M104.7,474.8V489h-3.4v-1.4h-4.7v8.8c0,0.7,0.1,1.1,0.4,1.2
			c0.2,0.1,0.9,0.2,2.2,0.2c0.9,0,1.4,0,1.7-0.1c0.4-0.1,0.7-0.2,0.9-0.4c0.2-0.4,0.4-1.5,0.4-3.5l3.4,1.7c-0.3,2.5-0.7,4.1-1.2,4.9
			c-0.4,0.3-0.8,0.5-1.2,0.6c-1.2,0.1-2.6,0.2-4.1,0.2c-2.2,0-3.6-0.1-4.3-0.2c-1.2-0.1-1.8-1.4-1.8-3.7v-12.8h8.2v-6.2h-8v-3.3
			H104.7z"/>
		<path class="st1" d="M118.9,474.6v22.6c0,2.9-1.3,4.3-3.8,4.3c-0.5,0-1.2-0.1-1.9-0.4l-0.7-3.6c0.7,0.4,1.4,0.6,2,0.6
			c0.7,0,1.1-0.7,1.1-2.2v-4.3h-3c0,2.1-0.2,3.9-0.4,5.6c-0.2,1.7-0.6,3.2-1,4.5l-3.2-1.2c0.4-1.3,0.8-2.8,1-4.7
			c0.2-1.7,0.4-4,0.4-6.8v-14.4h1.6H118.9z M115.6,481.5v-3.7h-3v3.7H115.6z M115.6,488.5v-3.9h-3v3.9H115.6z M131.6,474.8v6.2
			c0,0.8,0.1,1.2,0.3,1.3c0.1,0.1,0.3,0.1,0.5,0.1c0.1,0,0.2,0,0.2-0.1c0.1-0.1,0.1-0.1,0.1-0.2c0.1-0.2,0.1-0.9,0.2-2.1l3.1,1.5
			c-0.1,1.8-0.4,2.9-1,3.3c-0.3,0.2-0.6,0.4-1,0.4c-0.6,0.1-1.1,0.1-1.6,0.1c-1.5,0-2.4-0.1-2.7-0.4c-0.9-0.2-1.3-1.2-1.3-3v-4h-3.1
			c-0.2,2.4-0.6,4.2-1.3,5.2c-0.6,1.2-1.7,2.1-3.3,2.7l-1.5-3c0.9-0.4,1.7-1.1,2.2-1.9c0.5-0.9,0.8-3,0.8-6.1h1.5H131.6z
			 M134.1,486.5v2.4c-1,2.8-2.3,5-3.7,6.7c1.5,1,3.4,1.9,5.5,2.5l-1.8,3.5c-2.4-0.9-4.5-2-6.3-3.5c-2,1.6-4.3,2.7-6.7,3.5l-1.6-3.2
			c2.3-0.6,4.3-1.5,5.9-2.7c-1.5-1.7-2.8-3.8-3.7-6.1h-1.5v-3.1H134.1z M127.8,493.5c1-1.2,1.8-2.5,2.5-3.9h-5.1
			C125.8,491.1,126.7,492.4,127.8,493.5z"/>
		<path class="st1" d="M152.9,474.9v3.2h-3.8v1.9h3.7v21.6h-3.2v-1.4h-7.4v1.4H139V480h3.4v-1.9h-3.8v-3.2H152.9z M149.6,492.1v-1.7
			h-1.1c-1.6,0-2.4-0.9-2.4-2.6v-4.8h-0.7v1.6c0,1.5-0.2,2.8-0.5,4c-0.3,1.1-0.8,2-1.2,2.7l-1.4-1.1v1.9H149.6z M142.7,487.2
			c0.2-0.9,0.4-1.7,0.4-2.6v-1.6h-0.9v5.4C142.4,488,142.6,487.7,142.7,487.2z M149.6,497v-1.8h-7.4v1.8H149.6z M145.5,480h0.7v-1.9
			h-0.7V480z M148.6,487.1c0,0.5,0.2,0.7,0.7,0.7h0.4v-4.8h-1.1V487.1z M165.5,474.8V489h-3.4v-1.4h-4.7v8.8c0,0.7,0.1,1.1,0.4,1.2
			c0.2,0.1,0.9,0.2,2.2,0.2c0.9,0,1.4,0,1.7-0.1c0.4-0.1,0.7-0.2,0.9-0.4c0.2-0.4,0.4-1.5,0.4-3.5l3.4,1.7c-0.3,2.5-0.7,4.1-1.2,4.9
			c-0.4,0.3-0.8,0.5-1.2,0.6c-1.2,0.1-2.6,0.2-4.1,0.2c-2.2,0-3.6-0.1-4.3-0.2c-1.2-0.1-1.8-1.4-1.8-3.7v-12.8h8.2v-6.2h-8v-3.3
			H165.5z"/>
		<path class="st1" d="M174.4,494c-0.7,2.6-1.4,4.7-2.2,6.4l-3.3-1.8c0.9-1.9,1.6-3.9,2.2-5.8L174.4,494z M182.4,474.9
			c-0.2,0.6-0.4,1.1-0.6,1.5h11.3v15.8h-9.2c0.9,1,1.6,2.1,2.2,3.2l-3.1,1.8c-0.6-1.3-1.5-2.5-2.6-3.7l2.1-1.3H172v-15.8h5.8
			c0.3-0.8,0.5-1.6,0.7-2.4L182.4,474.9z M178.5,492.8v3.8c0,0.8,0.6,1.2,1.8,1.2c0.5,0.1,1.3,0.1,2.3,0.1c2.2,0,3.5,0,4-0.2
			c0.5-0.2,0.7-0.4,0.9-0.8c0.1-0.2,0.2-0.8,0.4-1.9l3.4,2c-0.2,1.9-0.7,3-1.5,3.5c-0.5,0.2-1.2,0.4-2.1,0.5c-0.6,0.1-2.2,0.2-5,0.2
			c-1.3,0-2.4-0.1-3.4-0.2c-2.8-0.1-4.1-1.2-4.1-3.3v-5H178.5z M189.6,480.7v-1.1h-14.1v1.1H189.6z M189.6,484.7v-1.1h-14.1v1.1
			H189.6z M189.6,489v-1.3h-14.1v1.3H189.6z M196.5,497.9l-3.5,2c-0.7-1.9-1.7-3.6-2.9-5.3l3.2-2C194.6,494.3,195.7,496,196.5,497.9
			z"/>
		<path class="st1" d="M23,510.6v2.4h7.2v3.3H23v2.5c2.7-0.3,5.1-0.6,7.2-1l0.5,3.1c-0.7,0.2-1.4,0.3-2.1,0.4l2.9,0.8
			c-0.3,0.6-0.5,1.1-0.8,1.6h10.8v14.4H38v-1H23.7v1h-3.4v-14.4h6.6c0.2-0.7,0.5-1.4,0.7-2.2c-3.1,0.5-6.4,1-9.8,1.3l-0.6-3.5
			c0.9-0.1,1.7-0.1,2.5-0.2v-8.6H23z M38,528.7V527H23.7v1.7H38z M38,533.9V532H23.7v1.9H38z M34.7,510.5v3.3c2.6-0.7,5-1.6,7.3-2.6
			l2.1,3c-2.9,1.2-6,2.1-9.4,3v0.5c0,0.7,0.2,1.1,0.7,1.2c0.6,0.2,1.3,0.3,2.2,0.3c0.9,0,1.6,0,2-0.1c0.4,0,0.7-0.1,0.9-0.3
			c0.3-0.2,0.5-0.9,0.6-2.1l3.5,1.5c-0.2,1-0.5,2-0.9,3c-0.3,0.6-0.9,0.9-1.7,1.1c-0.9,0.2-2.4,0.2-4.4,0.2c-2.1,0-3.3-0.1-3.7-0.4
			c-1.8-0.1-2.7-1.2-2.7-3.3v-8.2H34.7z"/>
		<path class="st1" d="M74.1,512.2v3.4H63.9c-0.4,0.8-0.9,1.6-1.4,2.4v20h-3.7v-14.7c-0.1,0.1-0.2,0.2-0.3,0.4
			c-2.7,3.3-5.5,6.1-8.5,8.4l-2.6-2.7c3-2.2,5.7-4.7,8.1-7.7c1.8-2.2,3.3-4.2,4.4-6H48.2v-3.4H74.1z M74.8,529.3l-3.1,3.1
			c-2.3-3.6-5.1-7.2-8.2-10.7l3.2-2.3C69.5,522.2,72.2,525.5,74.8,529.3z"/>
		<path class="st1" d="M87.8,512.1v3.2h-3.7c-0.5,2.5-1.1,4.6-1.7,6.4h5.7v0.9c1.8-1.6,3.2-3.3,4.1-5.1c0.3-0.6,0.6-1.3,0.9-2h-1.6
			v2.7h-3.5v-5.8h6c0.1-0.6,0.2-1.2,0.3-1.9l3.3,0.5c-0.1,0.5-0.2,1-0.2,1.4h7.8v5.8h-3.5v-2.7h-5.2c-0.4,1.3-0.9,2.5-1.5,3.6
			c-0.1,0.2-0.2,0.4-0.3,0.6h2.3c0.3-0.9,0.6-1.7,0.8-2.6l3.5,0.7c-0.2,0.7-0.4,1.3-0.6,1.9h3.9v3.1h-4.9v1.5h4.3v3.1h-4.3v1.7h4.3
			v3.1h-4.3v1.5h5.2v3.2H93v1.1h-3.3v-12.5c-0.2,0.2-0.4,0.3-0.6,0.5l-0.9-1.3v12.3h-3.2v-1.7h-1.8v2.6h-3.2v-10.6
			c-0.3,0.5-0.5,0.8-0.7,1.1l-1.8-3.1c0.6-1.1,1.3-2.8,2.1-5c0.5-1.6,0.9-3.3,1.3-4.9h-2.3v-3.2H87.8z M84.9,532v-7.2h-1.8v7.2H84.9
			z M96.6,522.8H93v1.5h3.6V522.8z M96.6,527.4H93v1.7h3.6V527.4z M96.6,533.7v-1.5H93v1.5H96.6z"/>
		<path class="st1" d="M131.6,519.1v3.3H124v3.7h8v3.2h-8v4.7c1.6,0.1,3.4,0.2,5.5,0.2c2.2,0,4.3-0.1,6-0.4l-1.1,3.9h-4.9
			c-4,0-7-0.2-9-0.5c-1.7-0.3-3.2-0.9-4.4-1.7c-0.9-0.6-1.6-1.3-2.2-2.2c-0.9,1.8-2,3.3-3.3,4.8l-2.6-2.5c1.5-1.8,2.6-3.5,3.5-5.3
			c0.9-2,1.5-4.1,1.8-6.4l3.3,0.7c-0.2,1.9-0.7,3.7-1.2,5.3c0.6,0.9,1.2,1.6,1.9,2.2c0.9,0.8,2,1.3,3.2,1.6v-11.2h-8.2v-3.3H131.6z
			 M123.9,510.5v2.4H135v5.7h-3.4v-2.4h-19.2v2.4h-3.4v-5.7h11.3v-2.4H123.9z"/>
	</g>
</g>
<g>
	<path class="st5" d="M229.2,377.6v1.9h-3.8v2.6h3.3v16.4h-2.1v-1.7h-6.9v1.7h-2.1V382h3.2v-2.6h-3.7v-1.9H229.2z M226.6,391v-1.7
		h-1.7c-0.8,0-1.2-0.4-1.2-1.2v-4.2h-1.1c0,1.3-0.2,2.4-0.4,3.4c-0.2,0.8-0.6,1.7-1.2,2.9l-1.2-0.6v1.5H226.6z M220.4,386.9
		c0.3-1,0.4-2,0.4-2.9h-1.1v4.6C220,387.9,220.2,387.3,220.4,386.9z M226.6,394.8v-1.9h-6.9v1.9H226.6z M223.7,379.5h-1.1v2.6h1.1
		V379.5z M225.4,387c0,0.3,0.1,0.4,0.4,0.4h0.9v-3.5h-1.2V387z M238.6,377.5v9.3h-6.2v8.8c0,0.6,0.2,0.9,0.8,0.9h2.9
		c0.5,0,0.8-0.1,1.1-0.4c0.2-0.2,0.4-1.1,0.6-2.6l2.2,0.7c-0.2,1.8-0.6,3-1.1,3.6c-0.5,0.6-1.2,0.9-2.1,0.9h-4.1
		c-1.7,0-2.5-0.6-2.5-1.8v-12h6.3v-5.1h-6.2v-2.1H238.6z"/>
	<path class="st5" d="M245.9,392.2c0.2,0.1,0.4,0.2,0.4,0.3c0,0.1-0.1,0.3-0.4,0.4c-0.7,2.2-1.5,4.1-2.4,5.5l-1.9-1.1
		c1-1.7,1.8-3.6,2.6-5.9L245.9,392.2z M254.1,377c0.3,0,0.5,0.2,0.5,0.4c0,0.2-0.2,0.4-0.6,0.6l-0.9,0.6h7.2v12.1h-15.9v-12.1h5.8
		l2.1-1.9L254.1,377z M258.2,382v-1.6h-11.8v1.6H258.2z M258.2,385.3v-1.6h-11.8v1.6H258.2z M258.2,387h-11.8v1.6h11.8V387z
		 M249,391.3c0.3,0,0.5,0.2,0.5,0.4s-0.2,0.4-0.5,0.7c-0.3,0.2-0.4,0.4-0.4,0.8v1.3c0,0.7,0.1,1.1,0.3,1.5c0.2,0.3,0.7,0.4,1.4,0.4
		h5.7c0.7,0,1.2-0.1,1.6-0.4c0.4-0.2,0.7-0.9,0.9-1.9l1.9,0.9c-0.6-0.9-1.3-1.7-1.9-2.4l1.5-1.2c1.4,1.3,2.7,2.9,4.1,4.9l-2,1.3
		c-0.5-0.9-1-1.7-1.5-2.5c-0.4,1.4-0.8,2.3-1.3,2.7c-0.5,0.4-1,0.6-1.7,0.6h-8.2c-1,0-1.8-0.3-2.3-0.9c-0.5-0.6-0.7-1.4-0.7-2.5
		v-4.1L249,391.3z M256.8,394.2l-2,1.3c-1.4-1.2-2.9-2.3-4.5-3.1l1.5-1.2C253.5,391.9,255.1,393,256.8,394.2z"/>
	<path class="st5" d="M277.7,377c0.4,0,0.6,0.1,0.6,0.3c0,0.1-0.2,0.3-0.5,0.6v3h10v2.1h-12.4c-0.1,1.3-0.2,2.4-0.3,3.4h10.1
		c0,4.8-0.2,7.8-0.7,9c-0.3,1.2-0.9,2.1-1.8,2.5c-0.9,0.5-2.6,0.7-4.9,0.7l-1.1-2.3c2.5,0,4.1-0.1,4.5-0.4c0.4-0.2,0.8-0.7,1.1-1.5
		c0.3-0.8,0.6-2.8,0.6-6.1h-8.2c-0.1,0.7-0.3,1.3-0.5,1.9c-0.6,2.1-1.4,3.7-2.3,5s-2.1,2.4-3.6,3.5l-2.1-1.6
		c1.7-0.9,2.9-1.9,3.7-3.1c0.9-1.2,1.7-2.6,2.2-4.4c0.5-1.7,0.9-4,1-6.7H266v-2.1h9.6v-4.1L277.7,377z"/>
	<path class="st5" d="M302.6,381c0-1.3,0-2.7,0-4.2l2.4,0.2c0.4,0,0.6,0.2,0.6,0.3c0,0.2-0.2,0.5-0.7,0.9c0,0.9,0,1.8,0,2.6h4.3
		c-0.9-1.1-1.7-2-2.6-2.7l1.5-1.4c1,0.9,2,1.9,2.9,3.1l-1.2,1h2v2.1h-7c0.1,2.5,0.3,4.4,0.5,5.8c0.4,2.3,1.1,4.1,1.9,5.4
		c0.6,1.1,1.2,1.7,1.6,1.7c0.1,0,0.3-0.1,0.5-0.3c0.2-0.2,0.6-1.1,1.1-2.8l1.9,1.6c-0.5,1.4-0.9,2.3-1.4,3c-0.6,0.8-1.3,1.2-1.9,1.2
		c-0.7,0-1.3-0.4-2-1c-0.9-0.8-1.7-2-2.5-3.6c-0.9-1.8-1.4-3.9-1.8-6.4c-0.1-1.2-0.3-2.7-0.3-4.6h-12.2V381H302.6z M301.5,386.3v2.1
		h-4.4v5.8c1.6-0.2,3.2-0.4,4.7-0.7v2c-2.1,0.4-5.4,1-10,1.7c-0.2,0.3-0.4,0.5-0.6,0.5c-0.2,0-0.3-0.1-0.3-0.4l-0.6-2.5
		c1.5-0.1,2.9-0.2,4.4-0.4v-6.1h-4v-2.1H301.5z"/>
</g>
<g>
	<path class="st6" d="M272.9,57.5c-2.4,4.7-6.1,10.5-11,14.6l-0.7,0.6l0.6,0.7c0.4,0.5,9.7,11.2,21.6,8l0.8-0.2l-0.1-0.8
		c0-0.2-1.6-18.9,2.9-27.2c0.7,0,0.7,0,1.4,0.1c0.6,1.6,1.3,3.2,2.2,4.7c1.9,4,4.9,9.2,9,13.7c-1.9,1.5-0.9,3.9-0.2,5.2
		c-2.5,2-6.3,4.2-10.6,4.6c-0.4-1.1-1.4-2.9-3.2-3.5c0.1,1.4,0.1,2.2,0.1,2.3l0.1,1.5l-1.6,0.4c-0.6,0.2-1.3,0.3-1.9,0.4l0.7,0.2
		c11.9,3.3,21.2-7.5,21.6-8l0.6-0.7l-0.7-0.6c-5.2-4.5-9-10.8-11.4-15.6 M282.3,63.1c-0.3-1.2-1.4-2.3-3-3c-2.4-1-5-0.5-5.9,1.1
		c-0.8,1.6,0.4,3.7,2.9,4.7c2.4,1,5,0.5,5.8-1c-0.4,4.3-0.4,8.6-0.3,11.5c-2.4,0-3.7,2.4-4.2,3.6c-4.3-0.4-8.1-2.6-10.6-4.6
		c0.7-1.3,1.7-3.7-0.2-5.2c3.8-4.2,6.7-9.1,8.6-13c3-0.5,6-1.5,8.8-2.7C283.2,57.1,282.6,60.1,282.3,63.1z M292.9,57.8
		C292.9,57.8,293,57.8,292.9,57.8L293,58C293,57.9,293,57.8,292.9,57.8z"/>
</g>
<path class="st7" d="M287.1,19c0.3,1,1.4,1.9,3,2.5c2.4,0.8,5,0.4,5.9-0.9c0.8-1.3-0.4-3.1-2.9-3.9c-2.4-0.8-5-0.4-5.8,0.9"/>
<g>
	<g id="XMLID_3_">
		<g>
			<path class="st6" d="M275.8,22.4l3.3,6.5c0,0,8.9-5,15.5-5.4c2.2-0.1,4.7,0.5,5.9,2.5c1.3,2.3,1.2,5.1,0.4,7.7
				c4.2,1.5,5.3,6.7,3.9,10.8c3.1,2.8,3,7.2,1.2,10.8c1.7,2.4,2.9,6,1.3,8.6c-1.8,3.1-5.3,3.9-8.6,4.7c-10.8,2.6-21.9,3.8-32.6,6.9
				l0.7,2.1l-11.8,3.8l-11.3-34.7l11.8-3.8l0.8,2.5l0.1,0.3c2.6-1.3,4-4.6,5.7-8.5C264.4,31.6,267.9,24.2,275.8,22.4z M275.3,27.3
				c-5.2,2-7.3,6.9-9.3,11.6c-1.8,4.2-4.3,9-8.3,10.7l7.3,21.9c8.8-2.6,18.6-3.8,27.6-5.6c3.2-0.6,7.2-1.1,10-2.9
				c2.8-1.7,1.2-5-0.4-7c-0.3-0.4-0.3-1.1-0.1-1.5c1.7-2.9,2.2-6.3-0.8-8.4c-0.5-0.4-0.6-1.2-0.3-1.7c1.4-3,0.9-7.3-2.9-7.8
				c-1-0.1-1.3-1.3-1-2.1c0.1-0.2,0.4-1.3,0.6-2c0.3-1.3,0.5-2.7-0.1-3.9c-0.7-1.6-3.1-1.5-4.5-1.3c-0.1,0-0.2,0-0.2,0
				c0,0,0,0,0,0.1c0,0-0.1,0-0.1,0c-4.8,0.8-9.3,3.3-13.5,5.6c-0.8,0.4-1.9,0.2-2.2-0.8C276.4,30.4,276,28.9,275.3,27.3z
				 M253.6,51.1l-1.1-3.4l-3.4,1.1l1.1,3.4L253.6,51.1z"/>
			<path class="st5" d="M302.2,56c1.7,1.9,3.2,5.3,0.4,7c-2.8,1.7-6.8,2.2-10,2.9c-9,1.8-18.8,3-27.6,5.6l-7.3-21.9
				c4.1-1.7,6.6-6.5,8.3-10.7c2-4.8,4.1-9.7,9.3-11.6c0.6,1.6,1.1,3.1,1.6,4.9c0.3,1,1.4,1.2,2.2,0.8c4.2-2.3,8.7-4.8,13.5-5.6
				c0,0,0.1,0,0.1,0c0,0,0,0,0-0.1c0.1,0,0.2,0,0.2,0c1.4-0.2,3.8-0.4,4.5,1.3c0.6,1.2,0.4,2.7,0.1,3.9c-0.2,0.7-0.5,1.9-0.6,2
				c-0.3,0.8,0,2,1,2.1c3.8,0.5,4.4,4.8,2.9,7.8c-0.3,0.5-0.2,1.4,0.3,1.7c3,2.1,2.5,5.5,0.8,8.4C301.9,55,301.9,55.7,302.2,56z"/>
		</g>
		<g>
		</g>
	</g>
</g>
<path class="st6" d="M276.3,23.5c0,0-2.5-5.4-12.2-13.3C272,2.6,282,1.7,287,3.3c-1.5,0.2-3.6,0.7-3.6,0.7l0.3,3.1
	c0,0-2.5-0.5-3.2-2.8C276.7,4.5,269.9,8,269.9,8s2.2,2.7-0.2,4.3c3.3,1.6,10.3,13.1,11.2,15.1c0.9,1.9-2.3,2-2.3,2L276.3,23.5z"/>
<path class="st6" d="M296.3,23.8c0,0,5.6-8.8,11.6-12.4c-1.9-2-4.8-4.3-10.9-6.5c-6.1-2.1-12.1-0.4-12.1-0.4s0.7,6.9,0,13.2
	s-2.9,9.6-2.9,9.6S296.1,24.1,296.3,23.8z"/>
<path class="st5" d="M291.6,5.5c0,0,4.7,0.1,10.6,3.7c-2.2,3.2,0.2,4.3,0.2,4.3s-5.9,5.3-8.6,10.6c-3.2,0.1-8.8,2.2-8.8,2.2
	s3.1-6.5,2.4-17.9C290.4,8.3,291.6,5.5,291.6,5.5z"/>
<path class="st8" d="M279.7,14.7c-2.4,1.1-3.7,3.5-2.9,5.3c0.8,1.8,3.5,2.3,5.9,1.2c0.4-0.2,0.7-0.4,1-0.6c0.2-2,0.4-4,0.5-6
	C283.1,13.9,281.3,13.9,279.7,14.7z"/>
<path class="st8" d="M291.6,20.6c2.4-1.1,3.7-3.5,2.9-5.3c-0.8-1.8-3.5-2.3-5.9-1.2c-0.4,0.2-0.7,0.4-1,0.6c-0.2,2-0.5,3.9-0.8,5.8
	C288,21.2,290,21.4,291.6,20.6z"/>
<path class="st9" d="M294.5,23.4"/>
<g>
	
		<rect x="275.6" y="6.2" transform="matrix(0.7071 0.7071 -0.7071 0.7071 115.8388 -184.3364)" class="st1" width="9.6" height="83"/>
	
		<rect x="275.6" y="6.2" transform="matrix(-0.7071 0.7071 -0.7071 -0.7071 512.431 -116.9327)" class="st1" width="9.6" height="83"/>
</g>
<g>
	<path class="st5" d="M399,151.2c0.2,0.1,0.3,0.2,0.3,0.3c0,0.2-0.1,0.3-0.4,0.5l-2.5,2.9c0.6,0.4,1.1,0.8,1.7,1.2l1.8-2.6l1.5,1
		c0.2,0.1,0.3,0.3,0.3,0.4s-0.2,0.2-0.5,0.3l-4.3,5.5c1-0.1,1.9-0.2,2.8-0.4c-0.2-0.4-0.4-0.9-0.6-1.2l1.8-0.4
		c0.7,1.5,1.2,2.8,1.5,4.2l-1.8,0.4c-0.1-0.4-0.2-0.9-0.4-1.3c-0.4,0.1-0.8,0.1-1.2,0.2v10h-2v-9.7c-1,0.1-2.1,0.3-3.2,0.5
		c-0.1,0.2-0.3,0.4-0.5,0.4c-0.1,0-0.2-0.1-0.2-0.3l-0.4-1.9c0.6,0,1.2-0.1,1.8-0.1l2.3-3.3c-1.4-1-2.7-1.9-3.9-2.7l1.1-1.5
		c0.2,0.1,0.4,0.3,0.6,0.4l2.5-3.5L399,151.2z M396.5,164.9c0.2,0,0.3,0.1,0.3,0.3c0,0.2-0.1,0.4-0.4,0.6c-0.4,2-0.9,3.8-1.4,5.2
		l-2-0.7c0.3-0.7,0.7-1.5,0.9-2.4c0.3-1.1,0.5-2.3,0.7-3.6L396.5,164.9z M403,169.1l-1.9,0.4c-0.4-1.7-0.9-3.3-1.4-4.7l1.9-0.4
		C402.2,166,402.7,167.6,403,169.1z M405.9,154.8c0.1,0,0.2,0.2,0.2,0.3c0,0.2-0.2,0.3-0.6,0.4c-0.4,0.6-0.9,1.5-1.6,2.5
		c0.8,1.2,1.5,2.4,1.9,3.6l-1.7,0.4c-0.5-1.5-1.3-2.8-2.3-3.9c0.9-1.4,1.6-2.7,2.1-4L405.9,154.8z M415,151.4v1.8h-12.7v-1.8H415z
		 M414.5,163.2v1.9h-4.6v4.4h5.1v1.9h-12.7v-1.9h5.5v-4.4H403v-1.9H414.5z M410,154.8c0.1,0,0.2,0.2,0.2,0.3c0,0.2-0.2,0.3-0.6,0.4
		c-0.4,0.6-0.9,1.5-1.6,2.5c0.9,1.2,1.7,2.4,2.2,3.6l-1.7,0.4c-0.6-1.5-1.5-2.8-2.6-3.9c0.9-1.4,1.6-2.7,2.2-4L410,154.8z
		 M414.5,154.8c0.1,0,0.2,0.2,0.2,0.3c0,0.2-0.2,0.3-0.6,0.4c-0.5,0.7-1.1,1.5-1.9,2.5c1,1.2,1.7,2.4,2.3,3.6l-1.7,0.4
		c-0.6-1.5-1.5-2.8-2.6-3.9c1-1.4,1.8-2.7,2.5-4L414.5,154.8z"/>
	<path class="st5" d="M422,159.3l-1.3,1.4c-1.1-0.9-2.2-1.8-3.5-2.6l1.4-1.4C420,157.6,421.1,158.4,422,159.3z M423.2,164.6
		c-1.2,2.5-2.4,4.7-3.7,6.8c0,0.5-0.1,0.8-0.4,0.8l-1.8-1.4c1.7-2.3,3.3-4.8,4.7-7.7L423.2,164.6z M423.2,153l-1.3,1.4
		c-1-0.9-2.2-1.8-3.4-2.6l1.4-1.3C421.2,151.3,422.3,152.1,423.2,153z M426.4,162.8c0.3,0,0.4,0.1,0.4,0.2c0,0.1-0.2,0.3-0.5,0.6
		v0.7h9.9v-1.5l1.9,0.2c0.3,0,0.5,0.1,0.5,0.3c0,0.1-0.1,0.3-0.4,0.5v8.7h-2.1v-2.9h-10.6c-0.1,0.3-0.3,0.7-0.4,0.9
		c-0.4,0.8-1,1.4-1.6,2l-1.7-1.5c0.7-0.5,1.2-1.1,1.6-1.8c0.3-0.6,0.6-1.4,0.8-2.3c0.1-0.8,0.2-2.1,0.2-4.1L426.4,162.8z
		 M428.6,155.1c0,2-0.1,3.5-0.2,4.5c-0.1,1-0.3,1.7-0.6,2c-0.3,0.4-0.8,0.6-1.6,0.7l-0.9-1.6l0.8-0.2c0.3-0.1,0.5-0.5,0.6-1.1
		c0-0.6,0.1-1.5,0.1-2.7H426c0,0.7-0.1,1.3-0.2,1.8c-0.1,0.5-0.2,1-0.3,1.4c-0.1,0.5-0.3,0.9-0.6,1.3c-0.2,0.4-0.6,0.7-0.9,1.1
		l-1.3-1.4c0.3-0.2,0.6-0.5,0.8-0.7c0.2-0.3,0.4-0.6,0.6-1c0.1-0.3,0.2-0.8,0.3-1.3c0.1-0.3,0.1-0.7,0.2-1.2h-1.1v-1.6H428.6z
		 M432.2,150.4c0.4,0,0.6,0.1,0.6,0.3c0,0.1-0.1,0.3-0.4,0.6v0.8h6.9v1.8h-15.9V152h6.8v-1.8L432.2,150.4z M436.2,167.6v-1.7h-9.9
		c0,0.7-0.1,1.3-0.2,1.7H436.2z M431.4,156.1l1.3-1.8l1.2,0.6c0.2,0.1,0.3,0.2,0.3,0.2c0,0.1,0,0.2-0.1,0.3h1.5v0
		c0.2,0,0.4-0.1,0.6-0.2c0.7-0.2,1.3-0.6,1.9-1l1.1,1.2c0.1,0.1,0.2,0.2,0.2,0.4c0,0.1-0.1,0.1-0.2,0.1l-0.5-0.1
		c-0.1,0-0.3,0-0.5,0.1c-0.1,0-0.1,0-0.1,0c0.1,1,0.3,1.8,0.6,2.5c0.3,0.9,0.7,1.7,1.1,2.4l-1.7,1.3c-0.3-0.6-0.5-1.4-0.7-2.2
		c-0.2-0.9-0.5-2-0.6-3.5c-0.4,0.1-0.8,0.3-1.2,0.4v3.3c0.5-0.1,1.1-0.2,1.6-0.3v1.5l-2.9,0.6c-0.2,0.4-0.3,0.6-0.5,0.6
		c-0.1,0-0.2-0.1-0.2-0.3l-0.6-1.6c0.3,0,0.6-0.1,0.9-0.1v-4.9l-1.7,2.1v4.5H430v-5.1h0.2c-0.4-1-0.8-1.8-1.2-2.7l1.5-0.3
		C430.8,154.9,431.2,155.6,431.4,156.1z"/>
	<path class="st5" d="M444.3,160.7c0.1,0.1,0.2,0.1,0.2,0.2c0,0.1-0.1,0.2-0.2,0.3c-0.4,1.2-0.8,2.2-1.2,3l-1.6-0.8
		c0.6-0.9,1-2.1,1.4-3.4L444.3,160.7z M446.1,151.2c0.2,0.1,0.3,0.2,0.3,0.3c0,0.2-0.1,0.3-0.4,0.5l-1.6,2.4
		c0.3,0.2,0.5,0.4,0.8,0.6l2.2-2.6l1.5,0.9c0.1,0.1,0.2,0.2,0.2,0.4s-0.1,0.2-0.4,0.3l-3.3,3.5c0.7-0.1,1.3-0.3,2-0.4
		c-0.1-0.3-0.2-0.6-0.3-0.9l1.5-0.4c0.5,1,0.8,2,1,2.9v-1h6v1.4h-5.9c0,0.1,0,0.2,0.1,0.3l-1.9,0.5c0-0.4-0.1-0.9-0.2-1.4
		c-0.4,0.1-0.8,0.2-1.2,0.3v5.2c0.2-0.2,0.4-0.5,0.6-0.7l1.9,0.7c0.2,0.1,0.4,0.2,0.4,0.3c0,0.1-0.1,0.2-0.2,0.3
		c-0.1,0-0.4,0.2-0.7,0.5h14.7v1.7h-3.1c-1.1,1.2-2.2,2.2-3.3,2.8c1.9,0.3,4.2,0.6,7,0.9l-1.2,1.9c-3.4-0.4-6.2-0.9-8.5-1.6
		c-1,0.3-2,0.6-3.1,0.8c-1.7,0.3-4.4,0.6-8.2,0.8c-0.3-0.6-0.7-1.2-1.1-1.8c3.9-0.1,6.6-0.3,8.3-0.6c0.4,0,0.8-0.1,1.2-0.2
		c-1.6-0.7-3.2-1.6-4.8-2.7c-0.8,0.7-1.6,1.3-2.5,1.9l-2.1-1.1c1.7-1,3-2.1,4.2-3.3h-1.5v-5.2c-0.6,0.2-1.3,0.3-2,0.5
		c-0.1,0.2-0.2,0.3-0.4,0.3c-0.1,0-0.2-0.1-0.2-0.3l-0.5-1.8c0.4,0,0.8-0.1,1.2-0.2l1.2-1.5c-0.7-0.6-1.5-1.2-2.4-1.8l1.1-1.4
		c0.1,0,0.1,0.1,0.2,0.1l1.6-2.9L446.1,151.2z M449.5,162.3l-1.3,0.9c-0.4-1-0.9-1.8-1.4-2.6l1-0.9
		C448.3,160.5,448.9,161.3,449.5,162.3z M453.8,168.8c0.1,0,0.2,0.1,0.3,0.1c0.3-0.1,0.6-0.2,0.8-0.3c1-0.5,2-1.1,2.8-1.9h-9.2
		C450.3,167.6,452,168.3,453.8,168.8z M456.2,153v1.1l0.8-0.9c0.1,0.1,0.2,0.2,0.3,0.2l1.9-3.1l1.5,0.8c0.2,0.1,0.3,0.2,0.3,0.3
		c0,0.2-0.1,0.4-0.4,0.5l-2,2.6c0.3,0.2,0.5,0.5,0.8,0.7l2.3-2.8l1.5,0.9c0.1,0.1,0.2,0.2,0.2,0.4s-0.1,0.2-0.4,0.3l-3.4,3.5
		c0.7-0.1,1.3-0.2,1.9-0.3c-0.1-0.3-0.1-0.7-0.2-1l1.5-0.4c0.5,1.4,0.9,2.6,1.1,3.8l-1.7,0.4c0.6,0.8,1.2,1.9,1.7,3.1l-1.5,1
		c-0.5-1.3-1-2.5-1.6-3.4l1.2-0.9c0-0.4-0.1-0.7-0.2-1.1c-0.4,0.1-0.8,0.2-1.2,0.3v5.5h-1.9v-5.1c-0.6,0.1-1.1,0.2-1.7,0.4
		c-0.1,0.2-0.3,0.3-0.4,0.3c-0.1,0-0.2-0.1-0.2-0.3l-0.4-1.8c0.4,0,0.8-0.1,1.2-0.1l1-1.2c-0.8-0.6-1.6-1.2-2.4-1.9l0.1-0.2h-6.7
		V153H456.2z M455.7,155.3v1.4h-6v-1.4H455.7z M455.7,159.9v2.6c0.4-0.7,0.8-1.4,1-2.3l1.4,0.7c0.1,0,0.2,0.1,0.2,0.2
		c0,0.1-0.1,0.2-0.2,0.3c-0.4,1-0.8,1.8-1.2,2.5l-1.2-0.6v0.9h-6v-4.3H455.7z M455.2,150.9v1.3H450v-1.3H455.2z M453.7,161.3h-2.2
		v1.4h2.2V161.3z"/>
	<path class="st5" d="M476.1,152.5c-0.8,0.2-1.7,0.4-2.6,0.5v1.4h5v1.8h-5v1.1h4.5v7.4h-4.5v1.2h4.4v1.8h-4.4v1.4
		c1.6-0.1,3.2-0.3,4.7-0.5v1.1c0.6-1,1.1-2,1.4-3c0.5-1.4,0.8-3.1,1.1-5c0.1-1,0.2-2.6,0.3-4.8h-1.9v-2h2c0-1.3,0-2.8,0-4.5l2,0.1
		c0.3,0,0.5,0.1,0.5,0.2c0,0.1-0.2,0.3-0.4,0.5c0,1.4,0,2.6,0,3.7h4.3c0,6.7-0.1,10.9-0.4,12.7c-0.2,1.7-0.6,2.8-1.1,3.5
		c-0.6,0.7-1.6,1-3.1,1l-1-2.2c1.5,0,2.3-0.2,2.6-0.6c0.3-0.3,0.5-1,0.6-2.2c0.2-1.3,0.3-4.6,0.4-10.2h-2.3
		c-0.1,2.5-0.2,4.4-0.4,5.9c-0.3,2.1-0.7,3.8-1.1,5c-0.6,1.8-1.3,3.2-2.1,4.4l-2.1-1.2c0.1-0.2,0.2-0.3,0.3-0.5
		c-2.4,0.3-5.9,0.7-10.5,1.2c-0.2,0.2-0.3,0.4-0.5,0.4c-0.2,0-0.3-0.1-0.3-0.4l-0.5-2.1c1.9-0.1,3.7-0.2,5.5-0.4v-1.5h-4.6V166h4.6
		v-1.2h-4.6v-7.4h4.6v-1.1h-5.3v-1.8h5.3v-1.2c-1.3,0.1-2.7,0.1-4.3,0.1l-0.9-1.8h2.6c2.7,0,5.2-0.4,7.5-1.1l1.6,1.6
		c0.1,0.1,0.1,0.2,0.1,0.4c0,0.1,0,0.2-0.1,0.2c-0.2,0-0.3,0-0.5-0.2c-0.3-0.1-0.5-0.1-0.6-0.1C476.9,152.3,476.6,152.4,476.1,152.5
		z M471.5,160.3v-1.2h-2.6v1.2H471.5z M471.5,161.8h-2.6v1.2h2.6V161.8z M473.5,160.3h2.6v-1.2h-2.6V160.3z M476.1,161.8h-2.6v1.2
		h2.6V161.8z"/>
	<path class="st5" d="M500.3,156.7c0-0.2,0-0.4,0-0.6v-4c0-0.5-0.1-1.1-0.2-1.8l2.4,0.2c0.4,0,0.6,0.1,0.6,0.3
		c0,0.3-0.2,0.5-0.6,0.8v4.6c0,0.2,0,0.4,0,0.6h9.1v2.1h-9.1c0.9,2.8,2.1,5,3.6,6.6c1.4,1.8,3.5,3.2,6.4,4.5l-2,2.3
		c-2.5-1.3-4.5-3-6.2-5.3c-1-1.3-1.8-2.9-2.6-4.8c-0.2,0.6-0.4,1.2-0.6,1.7c-0.8,1.7-2.1,3.4-4.1,5c-1.4,1.2-3.1,2.3-5.1,3.3l-2-1.8
		c2-1,3.6-1.9,4.7-2.7c1.8-1.3,3.1-2.6,3.8-4c0.8-1.4,1.3-3,1.5-4.8H491v-2.1H500.3z"/>
</g>
<g>
	<g>
		<path class="st1" d="M21.8,188.8V185h7.6v3.8H21.8z"/>
		<path class="st1" d="M39.2,193.9H35l7.5-16.6H33v-3.5h13.9v2.5L39.2,193.9z"/>
		<path class="st1" d="M59,182.5c-0.9,1-2.1,1.5-3.6,1.5c-1.6,0-2.8-0.5-3.6-1.5c-0.9-1-1.3-2.3-1.3-3.8c0-1.6,0.4-2.8,1.3-3.8
			c0.9-1,2.1-1.5,3.7-1.5c1.5,0,2.8,0.5,3.7,1.5c0.9,1,1.3,2.2,1.3,3.8C60.3,180.2,59.9,181.5,59,182.5z M53.5,194.3l-2.1-2.2
			l19.5-18.8l2.1,2.1L53.5,194.3z M55.4,176.1c-1.3,0-2,0.9-2,2.6s0.7,2.6,2,2.6c1.3,0,2-0.9,2-2.6S56.7,176.1,55.4,176.1z
			 M72.6,192.8c-0.9,1-2.1,1.5-3.6,1.5c-1.6,0-2.8-0.5-3.6-1.5c-0.9-1-1.3-2.2-1.3-3.8c0-1.5,0.4-2.8,1.3-3.8c0.9-1,2.1-1.5,3.7-1.5
			c1.5,0,2.8,0.5,3.7,1.5c0.9,1,1.3,2.2,1.3,3.8C73.9,190.6,73.5,191.9,72.6,192.8z M69,186.5c-1.3,0-2,0.9-2,2.6
			c0,1.7,0.7,2.6,2,2.6s2-0.9,2-2.6C71,187.3,70.3,186.5,69,186.5z"/>
		<path class="st1" d="M82.1,185.6c-0.5,0-1.2-0.3-2.2-1c-0.9-0.6-1.5-1-1.7-1c-0.5,0-1.4,0.6-2.6,1.7v-3.4c0.7-0.8,1.6-1.2,2.6-1.2
			c0.5,0,1.2,0.3,2.2,1c0.9,0.7,1.5,1,1.6,1c0.7,0,1.5-0.6,2.6-1.7v3.4C84,185.2,83.1,185.6,82.1,185.6z"/>
		<path class="st1" d="M87.7,193.9v-3.2c6.4-5.6,9.6-9.5,9.6-11.5c0-1.6-1-2.4-2.9-2.4c-1.1,0-1.8,0.3-2.2,0.9
			c-0.3,0.5-0.5,1.4-0.4,2.6h-4c0.1-4.7,2.3-7,6.6-7c1.9,0,3.4,0.5,4.7,1.4c1.3,1.1,2,2.5,2,4.3c0,2.7-2.6,6.4-7.8,11.2h8v3.6H87.7z
			"/>
		<path class="st1" d="M119.1,191c-1.3,2.3-3.3,3.4-6,3.4c-2.8,0-4.8-1.1-6-3.4c-1-1.8-1.6-4.1-1.6-7c0-2.9,0.5-5.2,1.5-7.1
			c1.3-2.3,3.3-3.5,6.1-3.5c2.7,0,4.8,1.2,6.1,3.5c1,1.8,1.5,4.2,1.5,7.1C120.7,186.9,120.2,189.2,119.1,191z M113.1,176.9
			c-2.5,0-3.7,2.4-3.7,7.1c0,4.6,1.2,6.9,3.7,6.9c2.5,0,3.8-2.3,3.8-6.9C116.8,179.2,115.6,176.9,113.1,176.9z"/>
		<path class="st1" d="M132.2,182.5c-0.9,1-2.1,1.5-3.6,1.5c-1.6,0-2.8-0.5-3.6-1.5c-0.9-1-1.3-2.3-1.3-3.8c0-1.6,0.4-2.8,1.3-3.8
			c0.9-1,2.1-1.5,3.7-1.5c1.5,0,2.8,0.5,3.7,1.5c0.9,1,1.3,2.2,1.3,3.8C133.5,180.2,133,181.5,132.2,182.5z M126.6,194.3l-2.1-2.2
			l19.5-18.8l2.1,2.1L126.6,194.3z M128.5,176.1c-1.3,0-2,0.9-2,2.6s0.7,2.6,2,2.6c1.3,0,2-0.9,2-2.6S129.8,176.1,128.5,176.1z
			 M145.8,192.8c-0.9,1-2.1,1.5-3.6,1.5c-1.6,0-2.8-0.5-3.6-1.5c-0.9-1-1.3-2.2-1.3-3.8c0-1.5,0.4-2.8,1.3-3.8
			c0.9-1,2.1-1.5,3.7-1.5c1.5,0,2.8,0.5,3.7,1.5c0.9,1,1.3,2.2,1.3,3.8C147.1,190.6,146.6,191.9,145.8,192.8z M142.1,186.5
			c-1.3,0-2,0.9-2,2.6c0,1.7,0.7,2.6,2,2.6s2-0.9,2-2.6C144.1,187.3,143.5,186.5,142.1,186.5z"/>
	</g>
</g>
</svg>
