<svg xmlns="http://www.w3.org/2000/svg" width="73" height="73" viewBox="0 0 73 73">
    <defs>
        <linearGradient id="ba0wljcuwa" x1="50%" x2="50%" y1="0%" y2="100%">
            <stop offset="0%" stop-color="#81C3F3"/>
            <stop offset="100%" stop-color="#157EFB"/>
        </linearGradient>
        <linearGradient id="hvgq4npj0b" x1="50%" x2="50%" y1="0%" y2="100%">
            <stop offset="0%" stop-color="#81C3F3"/>
            <stop offset="100%" stop-color="#157EFB"/>
        </linearGradient>
        <linearGradient id="6jh9t47c8c" x1="50%" x2="50%" y1="0%" y2="100%">
            <stop offset="0%" stop-color="#81C3F3"/>
            <stop offset="100%" stop-color="#157EFB"/>
        </linearGradient>
        <linearGradient id="gionwagifd" x1="50%" x2="50%" y1="0%" y2="100%">
            <stop offset="0%" stop-color="#81C3F3"/>
            <stop offset="100%" stop-color="#157EFB"/>
        </linearGradient>
        <linearGradient id="epstnxjq6e" x1="50%" x2="50%" y1="0%" y2="100%">
            <stop offset="0%" stop-color="#81C3F3"/>
            <stop offset="100%" stop-color="#157EFB"/>
        </linearGradient>
        <linearGradient id="5fsamrli3f" x1="50%" x2="50%" y1="0%" y2="100%">
            <stop offset="0%" stop-color="#81C3F3"/>
            <stop offset="100%" stop-color="#157EFB"/>
        </linearGradient>
    </defs>
    <g fill="none" fill-rule="evenodd">
        <g>
            <g>
                <g>
                    <g>
                        <path stroke="url(#ba0wljcuwa)" stroke-linecap="round" stroke-linejoin="round" d="M50.677 14.506v37.261c0 2.556-2.054 4.646-4.565 4.646 0 0-1.274-.164-1.274-1.33 0-1.169 1.274-1.297 1.274-1.297 1.218-.421 2.102-1.599 2.102-2.977V11.156c0-1.727-1.39-3.14-3.086-3.14h-.637c-.493 0-.98.27-1.154.74-.297.81-1.068 1.39-1.963 1.39H29.876c-.895 0-1.664-.58-1.963-1.39-.172-.47-.66-.74-1.154-.74h-.636c-1.698 0-3.086 1.413-3.086 3.14V51.999c0 .692-.552 1.254-1.233 1.254-.68 0-1.231-.562-1.231-1.254V10.198c0-2.556 2.054-4.646 4.566-4.646h20.973c2.072 0 3.832 1.423 4.384 3.355l.047.175s.134.498.134 5.424z" transform="translate(-738 -1508) translate(391 1474) translate(348 22) translate(0 13)"/>
                        <path stroke="url(#hvgq4npj0b)" stroke-linecap="round" stroke-linejoin="round" d="M41.997 67.907v-2.5l.968-4.67V49.294s.072-1.75-1.76-1.75-1.757 1.856-1.757 1.856V51.1v-2.86s.021-1.807-1.678-1.807c-1.612 0-1.643 1.817-1.643 1.817v2.85-2.85s0-1.792-1.779-1.792c-1.777 0-1.777 1.808-1.777 1.808v2.83V39.31s.02-1.757-1.729-1.757c-1.748 0-1.713 1.661-1.713 1.661V58.35v-6.69s0-2.862-2.177-2.862c-2.023 0-2.023 2.536-2.023 2.536v8.39c0 .556.2 1.092.563 1.508l3.284 3.77c.228.262.353.6.353.949v1.956c0 4.542-3.714 3.083-3.714 3.083C10.715 66.524 0 52.661 0 36.25 0 15.433 17.248-1.288 37.996.079 55.808 1.252 70.208 16.056 71.194 34.19c.591 10.861-3.52 20.755-10.449 27.766" transform="translate(-738 -1508) translate(391 1474) translate(348 22) translate(0 13)"/>
                        <path stroke="url(#6jh9t47c8c)" d="M43.887 19.676H27.364c-.996 0-1.81-.828-1.81-1.842v-.579c0-1.013.814-1.842 1.81-1.842h16.523c.994 0 1.808.83 1.808 1.842v.58c0 1.013-.814 1.841-1.808 1.841z" transform="translate(-738 -1508) translate(391 1474) translate(348 22) translate(0 13)"/>
                        <path stroke="url(#gionwagifd)" d="M43.887 29.47H27.364c-.996 0-1.81-.829-1.81-1.842v-.578c0-1.013.814-1.842 1.81-1.842h16.523c.994 0 1.808.829 1.808 1.842v.578c0 1.013-.814 1.842-1.808 1.842z" transform="translate(-738 -1508) translate(391 1474) translate(348 22) translate(0 13)"/>
                        <path stroke="url(#gionwagifd)" stroke-linecap="round" d="M27.365 39.263c-.996 0-1.81-.827-1.81-1.84v-.58c0-1.013.814-1.841 1.81-1.841h16.522c.995 0 1.81.828 1.81 1.842v.579c0 1.013-.815 1.84-1.81 1.84H34.19" transform="translate(-738 -1508) translate(391 1474) translate(348 22) translate(0 13)"/>
                        <path stroke="url(#epstnxjq6e)" stroke-linecap="round" stroke-linejoin="round" d="M7.207 46.362c-1.165-3.27-1.8-6.799-1.8-10.478 0-8.445 3.346-16.095 8.762-21.652" transform="translate(-738 -1508) translate(391 1474) translate(348 22) translate(0 13)"/>
                        <path stroke="url(#5fsamrli3f)" stroke-linecap="round" stroke-linejoin="round" d="M65.844 35.884c0 3.607-.61 7.07-1.732 10.286-2.425 6.952-7.237 12.753-13.433 16.382" transform="translate(-738 -1508) translate(391 1474) translate(348 22) translate(0 13)"/>
                    </g>
                </g>
            </g>
        </g>
    </g>
</svg>
