<svg xmlns="http://www.w3.org/2000/svg" width="61" height="80.858" viewBox="0 0 61 80.858">
    <defs>
        <style>
            .cls-1{fill:#083a6e}
        </style>
    </defs>
    <g id="invest_choose" transform="translate(-14.8 -8.3)">
        <path id="Path_3359" d="M45.976 13.482H23.941a1.341 1.341 0 0 1 0-2.682h22.035a1.341 1.341 0 0 1 0 2.682z" class="cls-1" transform="translate(7.145 2.29)"/>
        <path id="Path_3360" d="M29.54 38.563a1.294 1.294 0 0 1-1.15-.766l-3.257-8.239a1.334 1.334 0 0 1 2.491-.958l3.257 8.239a1.417 1.417 0 0 1-.766 1.724z" class="cls-1" transform="translate(9.402 17.83)"/>
        <path id="Path_3361" d="M34.314 40.561a1.294 1.294 0 0 1-1.15-.766l-6.131-15.138a1.334 1.334 0 0 1 2.491-.958l5.94 14.945a1.417 1.417 0 0 1-.766 1.724c.002.193-.192.193-.384.193z" class="cls-1" transform="translate(11.143 13.341)"/>
        <path id="Path_3362" d="M37.622 39.069a1.294 1.294 0 0 1-1.15-.766l-5.94-14.945a1.334 1.334 0 1 1 2.491-.958l5.94 14.945a1.417 1.417 0 0 1-.766 1.724z" class="cls-1" transform="translate(14.349 12.151)"/>
        <path id="Path_3363" d="M42.864 42.57a1.294 1.294 0 0 1-1.15-.766l-4.981-12.647a1.334 1.334 0 0 1 2.491-.958l4.982 12.646a1.417 1.417 0 0 1-.766 1.724c-.192-.191-.384.001-.576.001z" class="cls-1" transform="translate(20.029 17.464)"/>
        <path id="Path_3364" d="M68.455 79.631a1.294 1.294 0 0 1-1.15-.766l-6.514-16.287a.87.87 0 0 1 0-.958l3.257-8.431a10.634 10.634 0 0 0 0-6.9l-5.173-12.452a3.408 3.408 0 0 0-4.024-2.108 2.5 2.5 0 0 0-1.916 1.724 2.842 2.842 0 0 0 0 2.491 1.334 1.334 0 0 1-2.491.958L45.079 23.3a2.241 2.241 0 0 0-2.491-1.533 2.98 2.98 0 0 0-1.533 1.15 2.267 2.267 0 0 0-.192 1.916 1.334 1.334 0 0 1-2.491.958l-1.15-3.066a2.315 2.315 0 0 0-1.341-1.341 2.267 2.267 0 0 0-1.916.192 2.309 2.309 0 0 0-.766 2.874l1.15 2.874a1.334 1.334 0 1 1-2.491.958 2.315 2.315 0 0 0-1.341-1.341 2.267 2.267 0 0 0-1.916.192A2.309 2.309 0 0 0 27.835 30l2.682 6.706a1.334 1.334 0 0 1-2.491.958 2.315 2.315 0 0 0-1.341-1.341 2.267 2.267 0 0 0-1.916.192A2.309 2.309 0 0 0 24 39.393l9.389 23.184 2.874 3.641a35.721 35.721 0 0 1 5.557 9.389l.766 1.916a1.334 1.334 0 1 1-2.491.958l-.383-1.724a35.543 35.543 0 0 0-5.173-8.622L31.475 64.3c0-.192-.192-.192-.192-.383l-9.388-23.374a4.582 4.582 0 0 1 1.916-5.94 5.622 5.622 0 0 1 3.066-.766l-1.15-2.682a4.582 4.582 0 0 1 1.916-5.94 6.067 6.067 0 0 1 3.066-.766 4.648 4.648 0 0 1 2.108-4.982 4.945 4.945 0 0 1 4.024-.575 4.233 4.233 0 0 1 2.491 1.916 8.037 8.037 0 0 1 2.682-1.724 5.041 5.041 0 0 1 5.557 3.066l3.641 9.005A5.7 5.7 0 0 1 61.366 32.5l4.982 12.646a11.693 11.693 0 0 1 0 8.814l-3.066 7.856L69.6 77.523a1.417 1.417 0 0 1-.766 1.724c.004.384-.187.384-.379.384z" class="cls-1" transform="translate(6.126 9.527)"/>
        <path id="Path_3365" d="M74.2 51.782H16.141a1.341 1.341 0 0 1 0-2.682H74.2a1.341 1.341 0 0 1 0 2.682z" class="cls-1" transform="translate(0 37.375)"/>
        <path id="Path_3366" d="M31.482 52.616a5.073 5.073 0 0 1-4.982-4.982 4.715 4.715 0 0 1 3.449-4.6 1.1 1.1 0 0 1 1.341.383l.766.958c1.15 1.533 2.3 3.257 3.449 4.982a1.537 1.537 0 0 1-.192 1.533 5.106 5.106 0 0 1-3.831 1.726zm-1.533-6.706a2.08 2.08 0 0 0-.766 1.724 2.33 2.33 0 0 0 2.3 2.3 2.723 2.723 0 0 0 1.15-.383 44.2 44.2 0 0 0-2.682-3.641z" class="cls-1" transform="translate(10.718 31.751)"/>
        <path id="Path_3367" d="M46.565 89.158H21.273a5.152 5.152 0 0 1-5.173-5.174V13.473A5.152 5.152 0 0 1 21.273 8.3h39.471a5.152 5.152 0 0 1 5.173 5.173v28.358a1.073 1.073 0 0 1-.958 1.15 1.49 1.49 0 0 1-1.533-.383 3.2 3.2 0 0 0-3.449-1.341 2.5 2.5 0 0 0-1.916 1.724 2.842 2.842 0 0 0 0 2.491 1.334 1.334 0 1 1-2.491.958l-5.365-13.6a2.241 2.241 0 0 0-2.491-1.533 2.98 2.98 0 0 0-1.533 1.15 2.267 2.267 0 0 0-.192 1.916 1.334 1.334 0 0 1-2.491.958l-1.15-3.066a2.315 2.315 0 0 0-1.341-1.341 2.267 2.267 0 0 0-1.916.192 2.309 2.309 0 0 0-.766 2.874l1.15 2.874a1.344 1.344 0 0 1-.766 1.724 1.417 1.417 0 0 1-1.724-.766 2.315 2.315 0 0 0-1.341-1.341 2.267 2.267 0 0 0-1.916.192 2.309 2.309 0 0 0-.766 2.874l2.682 6.706a1.334 1.334 0 1 1-2.491.958 2.315 2.315 0 0 0-1.341-1.341 2.267 2.267 0 0 0-1.916.192 2.309 2.309 0 0 0-.766 2.874L38.518 72.1l2.874 3.641a35.721 35.721 0 0 1 5.557 9.389l.766 1.916a.9.9 0 0 1-.192 1.15c-.191.77-.574.962-.958.962zM21.273 10.982a2.536 2.536 0 0 0-2.491 2.491v70.511a2.536 2.536 0 0 0 2.491 2.491h23.376v-.192a35.543 35.543 0 0 0-5.173-8.622l-3.066-3.832c0-.192-.192-.192-.192-.383L26.83 50.07a4.582 4.582 0 0 1 1.916-5.94 5.622 5.622 0 0 1 3.066-.766l-1.15-2.682a4.582 4.582 0 0 1 1.916-5.94 6.067 6.067 0 0 1 3.066-.766 4.648 4.648 0 0 1 2.108-4.982 4.945 4.945 0 0 1 4.024-.575 4.233 4.233 0 0 1 2.491 1.916 8.037 8.037 0 0 1 2.682-1.724 5.041 5.041 0 0 1 5.557 3.066l3.641 9.005a5.959 5.959 0 0 1 3.066-2.3 5.887 5.887 0 0 1 4.024.383V13.473a2.536 2.536 0 0 0-2.491-2.491z" class="cls-1" transform="translate(1.191)"/>
    </g>
</svg>
