<svg xmlns="http://www.w3.org/2000/svg" width="97" height="113" viewBox="0 0 97 113">
    <g fill="none" fill-rule="evenodd">
        <g>
            <g>
                <path stroke="#F6D949" stroke-width="1.908" d="M0.4 71.74L0.4 38.053 65.69 0.133 94.475 16.751 94.475 93.851 66.584 109.964z" transform="translate(-841 -307) translate(841.77 308.638)"/>
                <path fill="#F6D949" d="M54.22 81.915c-6.276.016-11.41-5.1-11.416-11.375-.005-6.292 5.095-11.412 11.374-11.417 6.29-.006 11.4 5.086 11.417 11.375.017 6.274-5.09 11.4-11.376 11.417m.026-25.328C46.523 56.571 40.26 62.83 40.27 70.55c.011 7.654 6.255 13.894 13.911 13.904 7.681.01 13.95-6.254 13.948-13.934-.002-7.663-6.233-13.916-13.884-13.932" transform="translate(-841 -307) translate(841.77 308.638)"/>
                <path fill="#F6D949" d="M54.983 69.392c-.392-.115-.794-.097-1.187-.162-.803-.135-1.269-.832-1.068-1.569.203-.743.938-1.1 1.701-.847.374.124.646.387.948.614.597.448 1.315.389 1.763-.132.443-.514.4-1.247-.11-1.77-.119-.121-.248-.231-.379-.338-.622-.51-1.29-1.635-1.463-2.47-.136-.657-.67-1.088-1.308-1.054-.662.036-1.154.541-1.19 1.243-.018.317-.03.636.001.95.037.383-.07.6-.457.758-.617.254-1.088.713-1.452 1.278-1.612 2.507-.022 5.617 3.023 5.882.651.055 1.143.28 1.34.947.162.553-.032 1.002-.458 1.347-.456.37-1.12.334-1.704-.088-.238-.17-.44-.39-.652-.596-.586-.577-1.33-.632-1.857-.13-.524.5-.519 1.252.017 1.869.291.335.58.724.984.88 1.025.395 1.362 1.076 1.237 2.154-.079.677.53 1.194 1.191 1.22.652.025 1.21-.45 1.29-1.144.042-.355.04-.718.015-1.075-.025-.358.09-.544.43-.719 1.356-.694 2.023-1.852 2.102-3.194.012-1.867-1.119-3.367-2.757-3.853" transform="translate(-841 -307) translate(841.77 308.638)"/>
                <path fill="#F6D949" d="M87.717 90.348l-21.663 12.514L6.263 68.329V41.831l8.8-5.111c1.277 1.276 2.557 2.547 3.816 3.84.992 1.019 2.1 1.697 3.579 1.523.281-.033.365.137.47.322 4.196 7.398 13.351 9.19 19.935 6.652.343-.132.678-.192 1.041-.192 4.265.006 8.53-.033 12.793.021 1.857.024 3.456-.417 4.519-1.68 1.443 1.346 2.901 2.661 4.307 4.03 1.209 1.178 2.348 2.428 3.537 3.626 2.692 2.711 7.236 1.77 8.4-1.818.565-1.743.367-3.491-.91-4.996-2.239-2.639-4.447-5.304-6.667-7.96-1.354-1.619-2.716-3.232-4.059-4.86-2.255-2.734-5.189-4.054-8.692-4.079-5.383-.037-10.767-.071-16.148.022-1.96.034-3.262-.894-4.466-2.209-.164-.179-.101-.334-.063-.52.286-1.382-.081-2.559-1.009-3.561L65.174 7.615 87.717 20.63v69.718zM33.178 26.199l.355.351c.652.649.669 1.358.026 2.001-3.519 3.526-7.048 7.044-10.57 10.568-.267.267-.568.43-1.044.44-.369.018-.697-.228-1.005-.538-1.2-1.21-2.405-2.415-3.615-3.615l15.853-9.207zm13.718 15.039c.224.045.462.036.693.036 3.273.002 6.545-.006 9.817.005 1.61.006 2.729 1.28 2.552 2.869-.144 1.288-1.219 2.187-2.664 2.189-4.582.008-9.163.004-13.745.001-.383 0-.756.02-1.116.17-2.667 1.11-5.428 1.349-8.256.848-3.889-.689-6.915-2.665-8.986-6.067-.254-.417-.169-.631.146-.944 3.026-3.003 6.046-6.016 9.045-9.048.367-.372.563-.407.919-.003 1.538 1.745 3.487 2.465 5.811 2.4 2.573-.072 5.15-.017 7.726-.016 2.745 0 5.49-.016 8.234.004 2.472.018 4.717.766 6.345 2.659 3.771 4.385 7.445 8.853 11.15 13.295.972 1.165.9 2.638-.138 3.58-1.062.965-2.548.896-3.625-.204-2.687-2.746-5.36-5.506-8.043-8.256-.173-.178-.252-.348-.251-.608.022-3.253-2.116-5.408-5.364-5.413-3.209-.006-6.418-.002-9.628-.001-.189 0-.383-.01-.568.021-.627.103-1.063.606-1.078 1.222-.015.62.391 1.136 1.024 1.261zM65.171 5L33.785 23.229l-2.272 1.32-14.408 8.368-3.682 2.139L4 40.528v29.108l62.054 35.839L89.98 91.654v-72.33L65.171 5z" transform="translate(-841 -307) translate(841.77 308.638)"/>
            </g>
        </g>
    </g>
</svg>
