<svg xmlns="http://www.w3.org/2000/svg" id="logo_puhey" width="127.555" height="59.792" viewBox="0 0 127.555 59.792">
    <defs>
        <style>
            .cls-1{fill:#3e3a39}.cls-3{fill:#083a6e}
        </style>
    </defs>
    <g id="Group_3" data-name="Group 3" transform="translate(0 43.218)">
        <path id="Path_2" d="M28.752 47.444l-1.888-.944v.1a10 10 0 0 1-1.364 3.047v.1l.944.524a10.9 10.9 0 0 0 2.2-2.2c.21-.1.42-.1.42-.315a.335.335 0 0 0-.315-.315z" class="cls-1" data-name="Path 2" transform="translate(-13.647 -42.514)"/>
        <path id="Path_3" d="M16.8 58.728h2.1v-.734h7.76v.734h2.1V51.7H16.8zm2.1-4.3v-1.679h7.76v1.678zm7.762.944v1.783H18.9v-1.784z" class="cls-1" data-name="Path 3" transform="translate(-14.073 -42.259)"/>
        <path id="Path_4" d="M25.634 46.476h4.93v-.944h-5.035a13.655 13.655 0 0 0 1.993-1.573c.315-.1.524-.1.524-.315 0-.1-.21-.21-.315-.21l-1.887-.734v.1A9.622 9.622 0 0 1 24.48 45l-.1.1.944.524h-5.04l1.573-.944-.1-.1a21.342 21.342 0 0 0-2.837-1.88l-.944.734.1.1c.839.944 1.364 1.678 1.678 2.1h-4.505v.944h4.825v3.776h-1.993l1.574-1.154h.1v-.1a14.036 14.036 0 0 0-2.413-2.518l-.944.629v.1a10.172 10.172 0 0 1 1.573 3.042v.1H14.2v.944h17.1v-1.039h-5.771v-3.882zm-1.888 0v3.881h-1.679v-3.881z" class="cls-1" data-name="Path 4" transform="translate(-14.2 -42.7)"/>
        <path id="Path_5" d="M51.48 56.139v-.944h-3.147v-1.889h2.413v-.944h-2.413v-1.783h2.413v-.944h-2.413v-1.783h3.042v-.944h-3.252c.315-.42 1.364-1.469 1.364-1.573a.226.226 0 0 0-.21-.21L47.6 44.6h-.1v.1c-.21 1.049-.42 1.469-.629 2.308h-2.2a12.427 12.427 0 0 1 .839-1.259c.1-.1.21-.21.21-.315 0-.21-.1-.21-.21-.315l-1.792-.519v.1a12.429 12.429 0 0 1-2.518 5.14v.1l.629.629 1.049-1.049v6.818h8.6zm-7.028-6.4v-1.782h1.888v1.783zm0 2.622v-1.782h1.888v1.783zm0 2.832v-1.887h1.888v1.888z" class="cls-1" data-name="Path 5" transform="translate(-12.878 -42.607)"/>
        <path id="Path_6" d="M37.9 49.479a16.361 16.361 0 0 1 2.2 2.413V52l1.259-1.259.1-.1h-.1a17.573 17.573 0 0 0-2.727-1.783l-.734.629v-5.043h14.056V43.5H35.8v15.525h1.993v-.734h14.371v-.944H37.9z" class="cls-1" data-name="Path 6" transform="translate(-13.142 -42.661)"/>
        <path id="Path_7" d="M41.962 46.583a29.329 29.329 0 0 0-2.833-1.783l-.629.629h.1a16.026 16.026 0 0 1 2.2 2.308v.1l1.154-1.259z" class="cls-1" data-name="Path 7" transform="translate(-13.01 -42.597)"/>
        <path id="Path_8" d="M41.457 50.8a23.236 23.236 0 0 1-3.257 4.406l-.1.1 1.259.944a.385.385 0 0 0 .315.1c.21 0 .21-.1.21-.42a26.487 26.487 0 0 0 2.416-4.396l-.839-.734z" class="cls-1" data-name="Path 8" transform="translate(-13.03 -42.303)"/>
        <path id="Path_9" d="M67.788 52.6a11.312 11.312 0 0 1-1.888 3.671v.1l.839.524a23.346 23.346 0 0 0 2.832-2.727c.315-.21.315-.21.315-.315a.226.226 0 0 0-.21-.21z" class="cls-1" data-name="Path 9" transform="translate(-11.668 -42.215)"/>
        <path id="Path_10" d="M66.185 42.8h-2.623c-1.259 2.622-3.147 4.825-7.658 6.923h-.1l.734.734a15.67 15.67 0 0 0 3.986-1.888v.944h3.147v2.308h-5.56v.944h5.56v4.72h-7.242v.944H72.9v-.944h-7.135v-4.72h5.455v-.944h-5.455v-2.308h3.252v-.839a26.764 26.764 0 0 0 3.883 1.888l.734-.839h-.1c-2.734-1.259-5.566-2.937-7.349-6.923zm-5.56 5.769a15.244 15.244 0 0 0 4.2-3.671 19.155 19.155 0 0 0 4.2 3.671z" class="cls-1" data-name="Path 10" transform="translate(-12.163 -42.695)"/>
        <path id="Path_11" d="M60.988 57l1.993-1.049v-.1a14.982 14.982 0 0 0-3.042-3.051l-.839.629v.1a15.069 15.069 0 0 1 1.888 3.357z" class="cls-1" data-name="Path 11" transform="translate(-12.001 -42.205)"/>
        <path id="Path_12" d="M92.494 53.819l-.944.21v.1c.21.839.315 1.154.524 1.993-.21.1-.839.21-1.154.315v-3.142h2.413v-7.238H90.92v-2.413c.1-.21.21-.315.21-.524s-.1-.315-.42-.315l-1.888-.1v.1a3.933 3.933 0 0 1 .1 1.154v1.993h-2.407v7.238h2.413v3.567a22.636 22.636 0 0 1-2.622.524h-.1l.524 1.364c0 .1.21.21.315.21a.562.562 0 0 0 .42-.315 49.271 49.271 0 0 0 4.72-1.783 13.157 13.157 0 0 1 .21 1.573v.315l1.783-.839v-.1c-.321-.635-.74-1.894-1.684-3.887zm-1.678-1.469V47h.734v5.35zM88.927 47v5.35h-.734V47z" class="cls-1" data-name="Path 12" transform="translate(-10.674 -42.7)"/>
        <path id="Path_13" d="M77.6 58.916h1.783v-5.14l.42.42a4.851 4.851 0 0 0 1.783-3.252h.42v1.573c0 1.154.21 1.259 1.364 1.259h1.049v3.567c0 .524 0 .524-.21.524a6.551 6.551 0 0 1-1.259-.1h-.1l.42 1.049h1.469c1.469 0 1.469-.315 1.469-1.469V50H77.5v8.916zm6.923-8.077v1.783H84c-.524 0-.524 0-.524-.42v-1.363zm-4.2 0a4.273 4.273 0 0 1-.944 2.308v-2.308z" class="cls-1" data-name="Path 13" transform="translate(-11.1 -42.342)"/>
        <path id="Path_14" d="M84.325 54H79.5v.944h1.364v3.042h1.783v-3.042h1.678z" class="cls-1" data-name="Path 14" transform="translate(-11.002 -42.147)"/>
        <path id="Rectangle_9" d="M0 0H9.755V0.944H0z" class="cls-1" data-name="Rectangle 9" transform="translate(65.876 .839)"/>
        <path id="Path_15" d="M85.643 49.071V45.4H78.3v3.671zm-1.888-2.727v1.783h-3.567v-1.783z" class="cls-1" data-name="Path 15" transform="translate(-11.061 -42.568)"/>
        <path id="Path_16" d="M108.313 51.786l1.364-1.573a17.4 17.4 0 0 0-3.147-2.413h-.1l-.524.734a20.137 20.137 0 0 1 2.407 3.252z" class="cls-1" data-name="Path 16" transform="translate(-9.709 -42.45)"/>
        <path id="Path_17" d="M108.513 47.767l1.364-1.364a14.557 14.557 0 0 0-3.147-2.2h-.1l-.524.734a9.483 9.483 0 0 1 2.407 2.83z" class="cls-1" data-name="Path 17" transform="translate(-9.699 -42.627)"/>
        <path id="Path_18" d="M105.887 52.87a13.137 13.137 0 0 1-2.622-4.2v-.42h2.308v-.944h-2.308v-2.618h.1c.315 0 .944-.1 1.783-.21a.793.793 0 0 0 .42.1c.21 0 .21-.1.21-.21a.385.385 0 0 0-.1-.315l-1.05-1.253h-.1c-1.469.944-5.35 1.154-6.5 1.259h-.1l.42.944a27.515 27.515 0 0 0 2.832-.1v2.413h-3.16v.944h3.042a13.943 13.943 0 0 1-3.462 6.5l.629.734h.1a13.247 13.247 0 0 0 2.937-3.357v7.028h1.993v-7.554a14.927 14.927 0 0 0 1.888 1.993h.1z" class="cls-1" data-name="Path 18" transform="translate(-10.116 -42.695)"/>
        <path id="Path_19" d="M112.662 52.026v-8.392a.8.8 0 0 0 .21-.42c0-.21-.21-.21-.315-.21l-1.888-.1h-.1V43a8.1 8.1 0 0 1 .1 1.049v8.6L105 54.334h-.1l.315.944 5.35-1.573v5.56h1.993v-6.19l2.518-.734-.315-.839z" class="cls-1" data-name="Path 19" transform="translate(-9.758 -42.69)"/>
        <path id="Path_20" d="M125.623 51.092l-.1-1.049h-.1c-.839.42-1.049.524-1.783.839h-.1V47.42h1.888v-.944h-1.888v-3.042a.631.631 0 0 0 .1-.42c0-.1-.1-.21-.315-.21l-1.888-.1v.1a5.107 5.107 0 0 1 .1 1.259v2.413h-2.518v.944h2.518v4.406c-.1 0-.1 0-.21.1a23.438 23.438 0 0 1-2.518.839h-.1l.524 1.573a.226.226 0 0 0 .21.21c.1 0 .21-.1.42-.42.734-.315.944-.42 1.364-.629l.42-.21v4.091c0 .524 0 .734-.524.734-.315 0-.734-.1-1.259-.1h-.1l.21 1.154h1.993c1.573 0 1.573-.524 1.573-1.678v-5.14a15.81 15.81 0 0 0 2.1-1.259z" class="cls-1" data-name="Path 20" transform="translate(-9.082 -42.7)"/>
        <path id="Path_21" d="M136.163 58.22a11.205 11.205 0 0 1-4.3-2.2 11.466 11.466 0 0 0 3.147-6.5v-.1h-3.462v-2.949h4.406v-.944h-4.406v-1.993a.545.545 0 0 0 .21-.42c0-.1-.1-.21-.315-.21l-2.1-.1v.21a2.923 2.923 0 0 1 .1 1.049v1.573h-4.091v.944h4.091v2.937h-3.567v.944h6.724a10.456 10.456 0 0 1-1.993 4.406 9.011 9.011 0 0 1-1.678-3.986v-.1l-1.993.524v.1a9.034 9.034 0 0 0 2.413 4.615 12.409 12.409 0 0 1-5.14 2.308h-.1l.524.839a14.946 14.946 0 0 0 5.769-2.308 12.8 12.8 0 0 0 4.93 2.2l.839-.839z" class="cls-1" data-name="Path 21" transform="translate(-8.818 -42.695)"/>
    </g>
    <g id="Group_5" data-name="Group 5">
        <g id="Group_4" data-name="Group 4" transform="translate(0 1.049)">
            <path id="Rectangle_10" fill="#cf391a" d="M0 0H6.189V5.874H0z" data-name="Rectangle 10"/>
            <path id="Rectangle_11" d="M0 0H5.979V23.602H0z" class="cls-3" data-name="Rectangle 11" transform="translate(.105 10.175)"/>
        </g>
        <path id="Path_22" d="M50.4 36.306h6.294V22.879h14.9v-5.454h-14.9V7.355h17.1V1.9H50.4z" class="cls-3" data-name="Path 22" transform="translate(-12.427 -1.48)"/>
        <path id="Rectangle_12" d="M0 0H5.979V34.826H0z" class="cls-3" data-name="Rectangle 12" transform="translate(65.036)"/>
        <path id="Path_23" d="M103.469 24.3c0 3.776-2.1 6.4-5.245 6.4s-5.35-2.518-5.35-6.4V11.5H87v13.112c0 6.713 4.511 11.119 11.224 11.119s11.224-4.511 11.224-11.119V11.5h-5.979z" class="cls-3" data-name="Path 23" transform="translate(-10.635 -1.01)"/>
        <path id="Path_24" d="M35.924 11.5c-6.713 0-11.224 4.511-11.224 11.119v13.217h5.979v-12.9c0-3.776 2.2-6.4 5.35-6.4s5.245 2.518 5.245 6.4v12.8h5.769V22.619c0-6.713-4.406-11.119-11.119-11.119z" class="cls-3" data-name="Path 24" transform="translate(-13.686 -1.01)"/>
        <path id="Path_25" d="M136.956 12.2h-7.238l-5.14 7.553-5.14-7.553H112.3l8.287 11.644L112.2 35.8h6.923l5.56-7.972 5.35 7.972h6.923l-8.392-11.853z" class="cls-3" data-name="Path 25" transform="translate(-9.401 -.976)"/>
    </g>
</svg>
