<svg xmlns="http://www.w3.org/2000/svg" xmlns:xlink="http://www.w3.org/1999/xlink" width="450" height="288" viewBox="0 0 450 288">
  <defs>
    <filter id="矩形_1429" x="0" y="0" width="450" height="288" filterUnits="userSpaceOnUse">
      <feOffset dy="3" input="SourceAlpha"/>
      <feGaussianBlur stdDeviation="3" result="blur"/>
      <feFlood flood-opacity="0.161"/>
      <feComposite operator="in" in2="blur"/>
      <feComposite in="SourceGraphic"/>
    </filter>
    <linearGradient id="linear-gradient" x2="1" gradientUnits="objectBoundingBox">
      <stop offset="0" stop-color="#3360a7"/>
      <stop offset="1" stop-color="#363e91"/>
    </linearGradient>
    <linearGradient id="linear-gradient-2" x1="0.585" y1="0.299" x2="0.905" y2="-0.141" gradientUnits="objectBoundingBox">
      <stop offset="0" stop-color="#fff"/>
      <stop offset="1" stop-color="#1a1311"/>
    </linearGradient>
    <linearGradient id="linear-gradient-3" x1="0.162" y1="0.368" x2="1.031" y2="0.562" gradientUnits="objectBoundingBox">
      <stop offset="0" stop-color="#fff" stop-opacity="0"/>
      <stop offset="0.092" stop-color="#d8f0fb" stop-opacity="0.227"/>
      <stop offset="0.233" stop-color="#a0dcf7" stop-opacity="0.557"/>
      <stop offset="0.35" stop-color="#76ccf3" stop-opacity="0.796"/>
      <stop offset="0.436" stop-color="#5dc3f1" stop-opacity="0.945"/>
      <stop offset="0.482" stop-color="#54c0f1"/>
      <stop offset="0.566" stop-color="#78cdf4" stop-opacity="0.784"/>
      <stop offset="0.683" stop-color="#a8def7" stop-opacity="0.51"/>
      <stop offset="0.789" stop-color="#cdecfa" stop-opacity="0.29"/>
      <stop offset="0.881" stop-color="#e8f6fd" stop-opacity="0.133"/>
      <stop offset="0.954" stop-color="#f8fcfe" stop-opacity="0.035"/>
      <stop offset="1" stop-color="#fff" stop-opacity="0"/>
    </linearGradient>
    <linearGradient id="linear-gradient-4" x1="-12.088" y1="75.691" x2="-11.896" y2="74.734" xlink:href="#linear-gradient-2"/>
    <linearGradient id="linear-gradient-5" x1="-20.47" y1="67.984" x2="-19.634" y2="68.189" xlink:href="#linear-gradient-3"/>
    <linearGradient id="linear-gradient-6" x1="31.674" y1="32.571" x2="31.946" y2="32.115" xlink:href="#linear-gradient-2"/>
    <linearGradient id="linear-gradient-7" x1="72.166" y1="40.736" x2="73.864" y2="40.873" xlink:href="#linear-gradient-3"/>
  </defs>
  <g id="组_4219" data-name="组 4219" transform="translate(-13226 -432)">
    <!-- <g transform="matrix(1, 0, 0, 1, 13226, 432)" filter="url(#矩形_1429)">
      <rect id="矩形_1429-2" data-name="矩形 1429" width="428" height="270" rx="20" transform="translate(9 6)" fill="#fff"/>
    </g> -->
    <path id="交叉_3" data-name="交叉 3" d="M151.24,61c-.307,0-.46-.554-.243-.878L191.225,0H390.9a20,20,0,0,1,20,20V61Z" transform="translate(13252.105 438)" fill="url(#linear-gradient)"/>
    <g id="组_4217" data-name="组 4217" transform="translate(13190.946 160.893)">
      <g id="组_4212" data-name="组 4212" transform="translate(75.054 290.436)">
        <g id="组_4206" data-name="组 4206" transform="translate(19.019)">
          <path id="路径_5589" data-name="路径 5589" d="M206.743,291.86a6.554,6.554,0,0,0-2.585-1.261,7.671,7.671,0,0,0-7.751,3.261h0a9.845,9.845,0,0,1,6.278.742,10.558,10.558,0,0,1,4.83,5.693,19.107,19.107,0,0,1,1.237,7.623c0,.081-.007.163-.01.245a24.81,24.81,0,0,1-.286,2.9q-.188,1.187-.5,2.406h0a43.02,43.02,0,0,0,2.1-11.978,17.125,17.125,0,0,0-1.119-6.68A8.007,8.007,0,0,0,206.743,291.86Z" transform="translate(-196.407 -290.436)" fill="#003575"/>
          <path id="路径_5590" data-name="路径 5590" d="M196.407,307.265h0a9.845,9.845,0,0,1,6.278.742,10.558,10.558,0,0,1,4.83,5.693,19.108,19.108,0,0,1,1.237,7.623c0,.081-.007.163-.01.245a24.811,24.811,0,0,1-.286,2.9q-.188,1.187-.5,2.406h0a43.019,43.019,0,0,0,2.1-11.978C209.5,302.395,196.407,307.265,196.407,307.265Z" transform="translate(-196.407 -303.84)" opacity="0.82" fill="url(#linear-gradient-2)" style="mix-blend-mode: multiply;isolation: isolate"/>
          <path id="路径_5591" data-name="路径 5591" d="M210.064,301.5a17.126,17.126,0,0,0-1.119-6.68,8.007,8.007,0,0,0-2.2-2.957,6.554,6.554,0,0,0-2.585-1.261,7.671,7.671,0,0,0-7.751,3.261S209.5,288.99,210.064,301.5Z" transform="translate(-196.408 -290.436)" opacity="0.21" fill="url(#linear-gradient-3)"/>
        </g>
        <g id="组_4207" data-name="组 4207" transform="translate(7.567 23.886)">
          <path id="路径_5592" data-name="路径 5592" d="M142.7,452.807a6.556,6.556,0,0,0,2.378-1.618,7.672,7.672,0,0,0,1.018-8.347h0a9.846,9.846,0,0,1-3.762,5.081,10.558,10.558,0,0,1-7.34,1.365,19.107,19.107,0,0,1-7.231-2.711c-.069-.042-.138-.087-.207-.13a24.787,24.787,0,0,1-2.379-1.691q-.937-.752-1.843-1.624h0a43.023,43.023,0,0,0,9.353,7.772,17.131,17.131,0,0,0,6.354,2.345A8.009,8.009,0,0,0,142.7,452.807Z" transform="translate(-123.337 -442.842)" fill="#003575"/>
          <path id="路径_5593" data-name="路径 5593" d="M146.1,442.842h0a9.846,9.846,0,0,1-3.762,5.081,10.558,10.558,0,0,1-7.34,1.365,19.107,19.107,0,0,1-7.231-2.711c-.069-.042-.138-.087-.207-.13a24.787,24.787,0,0,1-2.379-1.691q-.937-.752-1.843-1.624h0a43.023,43.023,0,0,0,9.353,7.772C143.826,456.624,146.1,442.842,146.1,442.842Z" transform="translate(-123.337 -442.842)" opacity="0.82" fill="url(#linear-gradient-4)" style="mix-blend-mode: multiply;isolation: isolate"/>
          <path id="路径_5594" data-name="路径 5594" d="M183.017,450.9a17.131,17.131,0,0,0,6.354,2.345,8.009,8.009,0,0,0,3.659-.443,6.556,6.556,0,0,0,2.378-1.618,7.671,7.671,0,0,0,1.018-8.347S194.153,456.624,183.017,450.9Z" transform="translate(-173.664 -442.842)" opacity="0.21" fill="url(#linear-gradient-5)"/>
        </g>
        <g id="组_4208" data-name="组 4208" transform="translate(0 3.599)">
          <path id="路径_5595" data-name="路径 5595" d="M75.126,325.3a6.557,6.557,0,0,0,.206,2.869,7.671,7.671,0,0,0,6.71,5.069h0a9.845,9.845,0,0,1-2.507-5.8,10.558,10.558,0,0,1,2.5-7.034,19.1,19.1,0,0,1,5.974-4.894c.071-.039.144-.076.216-.114a24.8,24.8,0,0,1,2.656-1.209q1.121-.433,2.33-.779h0a43.02,43.02,0,0,0-11.417,4.19,17.126,17.126,0,0,0-5.217,4.319A8.006,8.006,0,0,0,75.126,325.3Z" transform="translate(-75.054 -313.401)" fill="#003575"/>
          <path id="路径_5596" data-name="路径 5596" d="M93.463,333.236h0a9.845,9.845,0,0,1-2.507-5.8,10.558,10.558,0,0,1,2.5-7.034,19.1,19.1,0,0,1,5.974-4.894c.071-.039.144-.076.216-.114a24.8,24.8,0,0,1,2.656-1.209q1.121-.433,2.33-.779h0a43.02,43.02,0,0,0-11.417,4.19C82.683,324.353,93.463,333.236,93.463,333.236Z" transform="translate(-86.476 -313.401)" opacity="0.82" fill="url(#linear-gradient-6)" style="mix-blend-mode: multiply;isolation: isolate"/>
          <path id="路径_5597" data-name="路径 5597" d="M81.8,340.138a17.127,17.127,0,0,0-5.217,4.319,8.009,8.009,0,0,0-1.453,3.387,6.557,6.557,0,0,0,.206,2.869,7.671,7.671,0,0,0,6.71,5.069S71.261,346.9,81.8,340.138Z" transform="translate(-75.054 -335.948)" opacity="0.21" fill="url(#linear-gradient-7)"/>
        </g>
        <g id="组_4211" data-name="组 4211" transform="translate(9.663 12.844)">
          <g id="组_4209" data-name="组 4209" transform="translate(0 0.173)">
            <rect id="矩形_1424" data-name="矩形 1424" width="1.639" height="1.548" fill="#c22312"/>
            <path id="路径_5598" data-name="路径 5598" d="M137.371,390.656a.448.448,0,0,0-.457.439v5.8h1.117a.448.448,0,0,0,.457-.439v-5.8Z" transform="translate(-136.882 -387.966)" fill="#002d5c"/>
          </g>
          <g id="组_4210" data-name="组 4210" transform="translate(3.869)">
            <path id="路径_5599" data-name="路径 5599" d="M167.571,373.832v-1a.448.448,0,0,0-.457-.439h-5.722v9.106h1.219a.447.447,0,0,0,.446-.428s0-.006,0-.01,0-.006,0-.01v-3.09H167v-1s0-.006,0-.01,0-.006,0-.01a.447.447,0,0,0-.447-.429h-3.495v-2.68Z" transform="translate(-161.392 -372.388)" fill="#002d5c"/>
            <path id="路径_5600" data-name="路径 5600" d="M214.642,373.864v-1.009a.448.448,0,0,0-.457-.439h-7.135v1s0,.008,0,.012,0,.008,0,.012a.447.447,0,0,0,.449.426h2.518v.071h0v7.582H211.2l.023,0,.023,0a.446.446,0,0,0,.433-.434v-7.219Z" transform="translate(-199.894 -372.412)" fill="#002d5c"/>
          </g>
        </g>
      </g>
      <g id="组_4216" data-name="组 4216" transform="translate(113.372 292.721)">
        <g id="组_4213" data-name="组 4213" transform="translate(0.049 21.482)">
          <path id="路径_5601" data-name="路径 5601" d="M358.734,455.414l-.926-.459L357.8,455a4.207,4.207,0,0,1-.693,1.5l-.025.034.45.247.021.012.019-.015a7.94,7.94,0,0,0,1.093-1.072c.1-.032.2-.073.2-.155,0-.064-.071-.1-.124-.134l-.023.029h0Z" transform="translate(-351.246 -452.937)" fill="#2f2c2c"/>
          <path id="路径_5602" data-name="路径 5602" d="M328.311,476h1.04v-.358H333.2V476h1.049v-3.483h-5.934Zm1.04-2.163v-.852H333.2v.852Zm3.844.468v.878h-3.844V474.3Z" transform="translate(-326.986 -467.744)" fill="#2f2c2c"/>
          <path id="路径_5603" data-name="路径 5603" d="M325.535,444h2.438v-.468h-2.515a9.224,9.224,0,0,0,1.015-.759c.134-.04.24-.073.24-.182,0-.063-.079-.1-.153-.122l-.945-.354-.013.035a4.145,4.145,0,0,1-.7,1.089l-.032.035.464.259h-2.509l.786-.445-.037-.034a10.22,10.22,0,0,0-1.423-.958l-.021-.012-.448.346.045.047a7.363,7.363,0,0,1,.845,1.056h-2.242V444h2.419v1.944h-1.007l.807-.562.029-.02-.019-.03a5.99,5.99,0,0,0-1.2-1.242l-.021-.016-.441.279.022.032a6.594,6.594,0,0,1,.787,1.531l.012.027h-1.854v.459h8.528v-.459h-2.852Zm-.976,0v1.944h-.827V444Z" transform="translate(-319.859 -442.081)" fill="#2f2c2c"/>
          <path id="路径_5604" data-name="路径 5604" d="M413.743,454.291v-.468h-1.591v-.93h1.2v-.468h-1.2v-.878h1.2v-.459h-1.2v-.878h1.49v-.467h-1.636a5.745,5.745,0,0,0,.661-.8c0-.057-.04-.1-.119-.123l-.837-.245-.038-.011-.009.038a8.338,8.338,0,0,1-.339,1.142h-1.1c.228-.342.316-.484.417-.652a.188.188,0,0,0,.1-.141.152.152,0,0,0-.118-.14l-.886-.284-.008.042a6.315,6.315,0,0,1-1.263,2.553l-.02.027.317.29.025-.024c.139-.132.272-.264.517-.527v3.4Zm-3.477-3.2v-.878h.947v.878Zm0,1.337v-.878h.947v.878Zm0,1.4v-.93h.947v.93Z" transform="translate(-394.566 -447.516)" fill="#2f2c2c"/>
          <path id="路径_5605" data-name="路径 5605" d="M392.747,447.914l.02.019a6.235,6.235,0,0,1,1.061,1.181l.026.04.6-.637.028-.029-.031-.025a7.981,7.981,0,0,0-1.358-.878l-.024-.013-.324.328v-2.517h6.991v-.468h-7.995v7.712h1v-.376h7.165v-.467h-7.165Z" transform="translate(-380.477 -444.471)" fill="#2f2c2c"/>
          <path id="路径_5606" data-name="路径 5606" d="M402.154,450.259a9.523,9.523,0,0,0-1.423-.869l-.025-.012-.321.336.029.025a7.556,7.556,0,0,1,1.1,1.166l.026.034.649-.654Z" transform="translate(-387.766 -448.234)" fill="#2f2c2c"/>
          <path id="路径_5607" data-name="路径 5607" d="M400.911,469.049a13.409,13.409,0,0,1-1.632,2.211l-.03.03.614.472a.235.235,0,0,0,.133.06c.086,0,.092-.078.1-.186v-.012a14.38,14.38,0,0,0,1.213-2.176l.009-.021-.381-.422Z" transform="translate(-386.807 -464.785)" fill="#2f2c2c"/>
          <path id="路径_5608" data-name="路径 5608" d="M492.77,475.428l-.012.042a5.725,5.725,0,0,1-.924,1.771l-.023.032.438.274.022.014.02-.016a12.508,12.508,0,0,0,1.418-1.337l.019-.012c.154-.089.178-.1.178-.157a.168.168,0,0,0-.085-.121Z" transform="translate(-464.863 -470.202)" fill="#2f2c2c"/>
          <path id="路径_5609" data-name="路径 5609" d="M463.128,442.707l-.01-.022H461.8l-.01.021a6.958,6.958,0,0,1-3.818,3.434l-.051.023.372.343.023.013.021-.008a10.794,10.794,0,0,0,1.986-.928v.444h1.592v1.158h-2.75v.459h2.75v2.372h-3.6v.459h8.2v-.459h-3.56v-2.372h2.732v-.459h-2.732v-1.158h1.61V445.6a12.959,12.959,0,0,0,1.926.943l.025.01.343-.417-.044-.02A6.6,6.6,0,0,1,463.128,442.707Zm-2.764,2.853a7.281,7.281,0,0,0,2.07-1.834,8.569,8.569,0,0,0,2.072,1.834Z" transform="translate(-436.284 -442.59)" fill="#2f2c2c"/>
          <path id="路径_5610" data-name="路径 5610" d="M469.705,478.052l.985-.5-.026-.035a8.539,8.539,0,0,0-1.516-1.528l-.022-.016-.43.308.022.031a7.507,7.507,0,0,1,.951,1.657Z" transform="translate(-445.371 -470.66)" fill="#2f2c2c"/>
          <path id="路径_5611" data-name="路径 5611" d="M562.509,448.27l-.013-.028-.479.142.01.035c.11.4.148.554.241.986l-.563.153V448h1.2v-3.6h-1.2v-1.222a.657.657,0,0,0,.083-.235c0-.084-.073-.133-.193-.133l-.923-.028.013.048a1.846,1.846,0,0,1,.063.585v.985h-1.2V448h1.2V449.8c-.63.149-.951.2-1.32.26l-.065.011.285.69a.173.173,0,0,0,.135.11c.074,0,.146-.071.214-.145.826-.271,1.619-.562,2.36-.863.053.333.08.609.1.8,0,.05.009.092.013.127l.006.052.894-.421-.009-.03A11.57,11.57,0,0,0,562.509,448.27Zm-.805-.737v-2.661h.358v2.661Zm-.957-2.661v2.661H560.4v-2.661Z" transform="translate(-521.825 -442.676)" fill="#2f2c2c"/>
          <path id="路径_5612" data-name="路径 5612" d="M530.991,470.842h.884v-2.568l.219.193.024-.019a2.535,2.535,0,0,0,.892-1.6h.225v.758c0,.595.111.614.7.614h.515v1.851c0,.238,0,.269-.119.269a5.443,5.443,0,0,1-.629-.061l-.063-.009.2.511h.734c.718,0,.745-.139.745-.727v-3.672h-4.324Zm3.459-3.993v.9h-.258c-.285,0-.285-.013-.285-.225v-.679Zm-2.128,0a2.4,2.4,0,0,1-.447,1.163v-1.163Z" transform="translate(-497.902 -462.573)" fill="#2f2c2c"/>
          <path id="路径_5613" data-name="路径 5613" d="M539.557,480.152h-2.4v.459h.708v1.477h.893v-1.477h.8Z" transform="translate(-503.1 -474.186)" fill="#2f2c2c"/>
          <rect id="矩形_1425" data-name="矩形 1425" width="4.867" height="0.459" transform="translate(32.786 0.479)" fill="#2f2c2c"/>
          <path id="路径_5614" data-name="路径 5614" d="M536.725,453.2v-1.822h-3.68V453.2Zm-.93-1.354v.9H534v-.9Z" transform="translate(-499.634 -449.923)" fill="#2f2c2c"/>
          <path id="路径_5615" data-name="路径 5615" d="M626.006,460.974l.027.051.643-.831-.022-.023a7.982,7.982,0,0,0-1.579-1.212l-.029-.019-.279.369-.02.026.023.023A8.323,8.323,0,0,1,626.006,460.974Z" transform="translate(-576.965 -456.298)" fill="#2f2c2c"/>
          <path id="路径_5616" data-name="路径 5616" d="M627.069,448.492l.026.039.648-.735.023-.026-.025-.025a6.443,6.443,0,0,0-1.562-1.089l-.048-.025-.268.357.024.023A8.206,8.206,0,0,1,627.069,448.492Z" transform="translate(-577.906 -445.919)" fill="#2f2c2c"/>
          <path id="路径_5617" data-name="路径 5617" d="M601.889,447.708l-.023-.024a5.319,5.319,0,0,1-1.258-2.077v-.176h1.159v-.459h-1.159V443.68l.033,0c.165-.019.471-.055.892-.13a.581.581,0,0,0,.206.051c.116,0,.129-.075.129-.107a.248.248,0,0,0-.073-.147l-.526-.618-.027.017a8.632,8.632,0,0,1-3.247.606h-.057l.218.463.01.021h.024c.421,0,.895-.02,1.407-.058v1.2H598v.459h1.535a6.929,6.929,0,0,1-1.718,3.249l-.025.025.315.341.028-.024a7.151,7.151,0,0,0,1.456-1.649v3.494h1.012v-3.787a6.2,6.2,0,0,0,.95.982l.029.025Z" transform="translate(-554.237 -442.624)" fill="#2f2c2c"/>
          <path id="路径_5618" data-name="路径 5618" d="M625.774,447.394V443.2a.4.4,0,0,0,.1-.206c0-.114-.128-.116-.172-.116h0l-.929-.035h-.047l.013.065a1.937,1.937,0,0,1,.041.5v4.28l-2.806.831-.038.012.174.454,2.671-.8v2.784h.994v-3.086l1.252-.37-.153-.437Z" transform="translate(-574.592 -442.724)" fill="#2f2c2c"/>
          <path id="路径_5619" data-name="路径 5619" d="M671.506,446.915l-.065-.505-.047.025c-.4.212-.536.273-.894.435l-.027.013v-1.74h.957v-.459h-.957v-1.527a.584.584,0,0,0,.073-.21c0-.071-.065-.116-.164-.116l-.946-.045.006.044a4.955,4.955,0,0,1,.027.633v1.221h-1.233v.459h1.233v2.174l-.118.043a11.461,11.461,0,0,1-1.252.409l-.039.009.241.76a.13.13,0,0,0,.11.108c.066,0,.129-.062.185-.184.34-.158.448-.212.68-.327l.193-.1v2.028c0,.276-.009.348-.239.348a3.7,3.7,0,0,1-.619-.078l-.053-.01.108.564h1.005c.8,0,.8-.249.8-.85V447.5c.284-.152.661-.366,1.012-.576Z" transform="translate(-613.489 -442.674)" fill="#2f2c2c"/>
          <path id="路径_5620" data-name="路径 5620" d="M692.4,450.553a5.8,5.8,0,0,1-2.165-1.077,5.666,5.666,0,0,0,1.575-3.225l.005-.042h-1.734v-1.446h2.208V444.3h-2.208v-1.016l.018-.022a.3.3,0,0,0,.092-.192.131.131,0,0,0-.146-.125l-1.059-.045.019.09a2.252,2.252,0,0,1,.063.508v.8h-2.052v.468h2.052v1.446h-1.794v.467h3.369a4.893,4.893,0,0,1-.977,2.192,4.3,4.3,0,0,1-.819-1.989l-.006-.042-.994.264.007.034a4.876,4.876,0,0,0,1.214,2.323,6.267,6.267,0,0,1-2.547,1.156l-.052.012.282.433.025-.005a7.523,7.523,0,0,0,2.852-1.143A6.151,6.151,0,0,0,692.1,451l.023,0,.331-.437Z" transform="translate(-629.012 -442.767)" fill="#2f2c2c"/>
        </g>
        <g id="组_4215" data-name="组 4215" transform="translate(0 0)">
          <g id="组_4214" data-name="组 4214" transform="translate(0 0.51)">
            <rect id="矩形_1426" data-name="矩形 1426" width="3.087" height="2.915" fill="#c22312"/>
            <rect id="矩形_1427" data-name="矩形 1427" width="2.965" height="11.76" transform="translate(0.049 5.067)" fill="#002d5c"/>
          </g>
          <path id="路径_5621" data-name="路径 5621" d="M440.362,323.354H443.5v-6.664h7.424v-2.72H443.5v-5.047H452V306.2H440.362Z" transform="translate(-421.427 -306.016)" fill="#002d5c"/>
          <rect id="矩形_1428" data-name="矩形 1428" width="2.965" height="17.337" transform="translate(32.39)" fill="#002d5c"/>
          <path id="路径_5622" data-name="路径 5622" d="M570.435,344.646c0,1.886-1.053,3.16-2.621,3.16s-2.647-1.274-2.647-3.16v-6.395H562.2v6.566a5.6,5.6,0,0,0,11.2,0v-6.566h-2.964Z" transform="translate(-524.172 -333.042)" fill="#002d5c"/>
          <path id="路径_5623" data-name="路径 5623" d="M359.927,338.251a5.286,5.286,0,0,0-5.611,5.562v6.566h2.964v-6.395c0-1.887,1.078-3.161,2.646-3.161s2.622,1.274,2.622,3.161v6.395h2.964v-6.566A5.266,5.266,0,0,0,359.927,338.251Z" transform="translate(-348.867 -333.042)" fill="#002d5c"/>
          <path id="路径_5624" data-name="路径 5624" d="M658.478,340.6H654.9l-2.572,3.8-2.548-3.8H646.2l4.141,5.807-4.19,5.954h3.479l2.744-3.945,2.671,3.945H658.5l-4.19-5.9Z" transform="translate(-594.967 -335.021)" fill="#002d5c"/>
        </g>
      </g>
    </g>
  </g>
</svg>
