<svg xmlns="http://www.w3.org/2000/svg" width="550" height="300" viewBox="0 0 550 300">
    <defs>
        <linearGradient id="zahvhm49ja" x1="100%" x2="0%" y1="50%" y2="50%">
            <stop offset="0%" stop-color="#CBCCCC"/>
            <stop offset="100%" stop-color="#FEFEFE"/>
        </linearGradient>
        <linearGradient id="rk1el4dgkb" x1="100%" x2="0%" y1="50%" y2="50%">
            <stop offset="0%" stop-color="#CBCCCC"/>
            <stop offset="100%" stop-color="#FEFEFE"/>
        </linearGradient>
        <linearGradient id="9c960c4vqc" x1="50%" x2="50%" y1="0%" y2="100%">
            <stop offset="0%" stop-color="#81C3F3"/>
            <stop offset="100%" stop-color="#157EFB"/>
        </linearGradient>
    </defs>
    <g fill="none" fill-rule="evenodd">
        <g>
            <g transform="translate(-831 -140) translate(831 140)">
                <rect width="549.172" height="300" x=".828" fill="url(#zahvhm49ja)" fill-opacity=".8" rx="25"/>
                <path fill="url(#rk1el4dgkb)" d="M323.884 0v.874l211.484 296.881c-2.05.936-4.248 1.602-6.55 1.955H323.056v-1.165L110.385 0h213.498zM.828 207.153l65.933 92.557H22.01C10.015 297.872.828 287.51.828 275v-67.847zM525 0c13.807 0 25 11.193 25 25v100.799L460.385 0H525z"/>
                <path fill="url(#9c960c4vqc)" d="M112.148 52.886H87.456c-2.047 0-3.71 1.242-3.813 2.795h-3.659c-.149 0-3.643-.066-3.643-3.905 0-3.189 2.794-5.863 2.824-5.89L84.323 41h19.325c4.687 0 8.5 3.813 8.5 8.5v3.386zm-8.5 35.96H84.323l-5.159-4.887c-.029-.027-2.823-2.7-2.823-5.89 0-3.839 3.494-3.904 3.641-3.905h3.642v.301c0 1.623 1.718 2.943 3.832 2.943h24.692v2.937c0 4.687-3.813 8.5-8.5 8.5zm-68.558-8.5v-2.938h24.693c2.113 0 3.833-1.32 3.833-2.943v-.3h3.638c.15 0 3.644.065 3.644 3.904 0 3.19-2.794 5.863-2.823 5.891l-5.158 4.885H43.59c-4.686 0-8.5-3.813-8.5-8.5zM43.59 41h19.327l5.16 4.886c.027.027 2.821 2.701 2.821 5.89 0 3.84-3.494 3.904-3.642 3.905h-3.66c-.102-1.553-1.766-2.795-3.813-2.795H35.09V49.5c0-4.687 3.814-8.5 8.5-8.5zm19.026 24.647v8.818c0 1.053-1.297 1.943-2.833 1.943H35.09v-10.76h27.526zm0-1H35.09v-10.76h24.693c1.536 0 2.833.89 2.833 1.942v8.818zm21.008 8.517h-3.642c-.047 0-4.64.056-4.64 4.905 0 3.628 3.008 6.498 3.135 6.616l4.392 4.16H64.371l4.39-4.158c.128-.12 3.137-2.99 3.137-6.618 0-4.849-4.595-4.905-4.642-4.905h-3.64V56.681h3.64c.047 0 4.642-.056 4.642-4.905 0-3.627-3.009-6.497-3.136-6.616L64.372 41h18.497l-4.39 4.158c-.129.121-3.138 2.991-3.138 6.618 0 4.85 4.594 4.905 4.641 4.905h3.642v16.483zm1-8.517V55.83c0-1.053 1.296-1.943 2.832-1.943h24.692v10.761H84.624zm0 1h27.524v10.761H87.456c-1.536 0-2.832-.89-2.832-1.943v-8.818zM103.648 40H43.59c-5.238 0-9.5 4.262-9.5 9.5v30.845c0 5.238 4.262 9.5 9.5 9.5h60.058c5.238 0 9.5-4.262 9.5-9.5V49.5c0-5.238-4.262-9.5-9.5-9.5z"/>
            </g>
        </g>
    </g>
</svg>
