<?xml version="1.0"?>
<svg xmlns="http://www.w3.org/2000/svg" xmlns:xlink="http://www.w3.org/1999/xlink" xmlns:svgjs="http://svgjs.com/svgjs" version="1.1" width="512" height="512" x="0" y="0" viewBox="0 0 64 64" style="enable-background:new 0 0 512 512" xml:space="preserve" class=""><g><g xmlns="http://www.w3.org/2000/svg" fill="#304b68"><path d="m24.224 34.173-16.062-24.627 1.676-1.092 13.938 21.373 8.292-21.191 1.864.728z" fill="#304b68" data-original="#304b68" style=""/><path d="m54.404 55.803-30.182-22.393-14.409 20.171-1.626-1.162 15.591-21.829 31.818 23.607z" fill="#304b68" data-original="#304b68" style=""/><path d="m23.053 25.5h32.894v2h-32.894z" transform="matrix(.943 -.334 .334 .943 -6.583 14.717)" fill="#304b68" data-original="#304b68" style=""/></g><circle xmlns="http://www.w3.org/2000/svg" cx="24" cy="32" fill="#4ac3ed" r="9" data-original="#4ac3ed" style="" class=""/><circle xmlns="http://www.w3.org/2000/svg" cx="9" cy="9" fill="#4ac3ed" r="7" data-original="#4ac3ed" style="" class=""/><circle xmlns="http://www.w3.org/2000/svg" cx="33" cy="9" fill="#808fff" r="7" data-original="#76cc7a" style="" class=""/><path xmlns="http://www.w3.org/2000/svg" d="m32 12.414-2.707-2.707 1.414-1.414 1.293 1.293 4.293-4.293 1.414 1.414z" fill="#304b68" data-original="#304b68" style=""/><circle xmlns="http://www.w3.org/2000/svg" cx="55" cy="21" fill="#808fff" r="7" data-original="#76cc7a" style="" class=""/><path xmlns="http://www.w3.org/2000/svg" d="m54 24.414-2.707-2.707 1.414-1.414 1.293 1.293 4.293-4.293 1.414 1.414z" fill="#304b68" data-original="#304b68" style=""/><circle xmlns="http://www.w3.org/2000/svg" cx="55" cy="55" fill="#4ac3ed" r="7" data-original="#4ac3ed" style="" class=""/><circle xmlns="http://www.w3.org/2000/svg" cx="9" cy="53" fill="#808fff" r="7" data-original="#76cc7a" style="" class=""/><path xmlns="http://www.w3.org/2000/svg" d="m8 56.414-2.707-2.707 1.414-1.414 1.293 1.293 4.293-4.293 1.414 1.414z" fill="#304b68" data-original="#304b68" style=""/></g></svg>
