<?xml version="1.0" encoding="utf-8"?>
<!-- Generator: Adobe Illustrator 24.2.1, SVG Export Plug-In . SVG Version: 6.00 Build 0)  -->
<svg version="1.1" id="圖層_1"
	xmlns="http://www.w3.org/2000/svg"
	xmlns:xlink="http://www.w3.org/1999/xlink" x="0px" y="0px" viewBox="0 0 90 90" style="enable-background:new 0 0 90 90;" xml:space="preserve">
	<style type="text/css">
	.st0{opacity:0.8;fill:none;stroke:url(#SVGID_1_);enable-background:new    ;}
	.st1{opacity:0.8;fill:none;stroke:url(#SVGID_2_);enable-background:new    ;}
	.st2{opacity:0.6;fill:none;stroke:url(#SVGID_3_);enable-background:new    ;}
	.st3{opacity:0.6;fill:none;stroke:url(#SVGID_4_);enable-background:new    ;}
	.st4{opacity:0.4;fill:none;stroke:url(#SVGID_5_);enable-background:new    ;}
	.st5{opacity:0.4;fill:none;stroke:url(#SVGID_6_);enable-background:new    ;}
	.st6{fill-rule:evenodd;clip-rule:evenodd;fill:#FFFFFF;}
	.flash{
		animation: flash 3s infinite;
	}
	
    @keyframes flash {
        0%{
            opacity: 0;
        }

        50%{
		    opacity: 1;
        }

		100% {
            opacity: 0;
		}
	}
	</style>
	<g>
		<g>

			<linearGradient id="SVGID_1_" gradientUnits="userSpaceOnUse" x1="-197.3508" y1="9.8704" x2="-197.3508" y2="8.8704" gradientTransform="matrix(20.156 0 0 34.722 3989.448 -262.9997)">
				<stop offset="0" style="stop-color:#C9D1D9"/>
				<stop offset="1" style="stop-color:#FFFFFF"/>
			</linearGradient>
			<path class="st0" d="M25.2,79.7C13.1,72.8,5,59.8,5,45"/>

			<linearGradient id="SVGID_2_" gradientUnits="userSpaceOnUse" x1="-199.9562" y1="9.0512" x2="-199.9562" y2="8.0512" gradientTransform="matrix(28.3 0 0 38.255 5735.0996 -301.2547)">
				<stop offset="0" style="stop-color:#C9D1D9"/>
				<stop offset="1" style="stop-color:#FFFFFF"/>
			</linearGradient>
			<path class="st1" d="M56.7,6.7C73.1,11.8,85,27,85,45"/>

			<linearGradient id="SVGID_3_" gradientUnits="userSpaceOnUse" x1="-194.2691" y1="16.0966" x2="-194.2691" y2="15.0966" gradientTransform="matrix(15.884 0 0 20.402 3157.7498 -253.8941)">
				<stop offset="0" style="stop-color:#C9D1D9"/>
				<stop offset="1" style="stop-color:#FFFFFF"/>
			</linearGradient>
			<path class="st2" d="M77.8,54.1c-2.4,8.7-8.2,16-15.9,20.4"/>

			<linearGradient id="SVGID_4_" gradientUnits="userSpaceOnUse" x1="-201.5017" y1="12.3418" x2="-201.5017" y2="11.3418" gradientTransform="matrix(33.308 0 0 27.156 6731.7559 -297.0005)">
				<stop offset="0" style="stop-color:#C9D1D9"/>
				<stop offset="1" style="stop-color:#FFFFFF"/>
			</linearGradient>
			<path class="st3" d="M11.7,38.2C14.9,22.7,28.6,11,45,11"/>

			<linearGradient id="SVGID_5_" gradientUnits="userSpaceOnUse" x1="-190.2925" y1="7.6956" x2="-190.2925" y2="6.6956" gradientTransform="matrix(12.232 0 0 46 2399.0242 -284.8242)">
				<stop offset="0" style="stop-color:#C9D1D9"/>
				<stop offset="1" style="stop-color:#FFFFFF"/>
			</linearGradient>
			<path class="st4" d="M65.6,23.2C71.4,28.6,75,36.4,75,45c0,2.1-0.2,4.1-0.6,6c-1.5,7.4-5.8,13.8-11.6,18.1"/>

			<linearGradient id="SVGID_6_" gradientUnits="userSpaceOnUse" x1="-160.5" y1="14.3374" x2="-160.5" y2="13.3374" gradientTransform="matrix(4.409 0 0 23.093 724.072 -278.6642)">
				<stop offset="0" style="stop-color:#C9D1D9"/>
				<stop offset="1" style="stop-color:#FFFFFF"/>
			</linearGradient>
			<path class="st5" d="M15.9,52.4C15.3,50.1,15,47.6,15,45c0-5.7,1.6-11.1,4.4-15.7"/>
			<path class="st6" d="M45,0C20.2,0,0,20.2,0,45s20.2,45,45,45s45-20.2,45-45S69.8,0,45,0 M45,1c24.3,0,44,19.7,44,44S69.3,89,45,89
			S1,69.3,1,45S20.7,1,45,1"/>
		</g>
		<g>
			<path class="st6 flash" d="M46,63c0-0.8,0.3-1.3,0.8-1.8s1.1-0.8,1.8-0.8c0.8,0,1.3,0.3,1.8,0.8s0.8,1.1,0.8,1.8c0,0.8-0.3,1.3-0.8,1.8
			s-1.1,0.8-1.8,0.8c-0.8,0-1.3-0.3-1.8-0.8C46.3,64.4,46,63.8,46,63"/>
			<path class="st6 flash" d="M31.3,63c0-0.8,0.3-1.3,0.8-1.8s1.1-0.8,1.8-0.8c0.8,0,1.3,0.3,1.8,0.8s0.8,1.1,0.8,1.8
			c0,0.8-0.3,1.3-0.8,1.8s-1.1,0.8-1.8,0.8c-0.8,0-1.3-0.3-1.8-0.8C31.6,64.3,31.3,63.8,31.3,63"/>
			<path class="st6 flash" d="M38.7,63c0-0.8,0.3-1.3,0.8-1.8s1.1-0.8,1.8-0.8c0.8,0,1.3,0.3,1.8,0.8s0.8,1.1,0.8,1.8s-0.3,1.3-0.8,1.8
			s-1.1,0.8-1.8,0.8c-0.6,0-1.3-0.3-1.8-0.8C38.9,64.4,38.7,63.8,38.7,63"/>
			<path class="st6 flash" d="M49.4,28.6c0.1-0.8,0.4-1.2,1-1.7c0.6-0.4,1.2-0.6,1.9-0.5c0.8,0.1,1.2,0.4,1.7,1c0.4,0.6,0.6,1.2,0.5,1.9
			c-0.1,0.8-0.4,1.2-1,1.7c-0.6,0.4-1.2,0.6-1.9,0.5c-0.8-0.1-1.2-0.4-1.7-1C49.4,30,49.3,29.4,49.4,28.6"/>
			<path class="st6 flash" d="M53.3,63c0-0.8,0.3-1.3,0.8-1.8s1.1-0.8,1.8-0.8c0.8,0,1.3,0.3,1.8,0.8s0.8,1.1,0.8,1.8s-0.3,1.3-0.8,1.8
			c-0.5,0.6-1,0.9-1.8,0.9s-1.3-0.3-1.8-0.8C53.5,64.4,53.3,63.8,53.3,63"/>
			<path class="st6 flash" d="M43.8,50.2c0-0.8,0.3-1.3,0.8-1.8s1.1-0.8,1.8-0.8c0.6,0,1.3,0.3,1.8,0.8s0.8,1.1,0.8,1.8
			c0,0.6-0.3,1.3-0.8,1.8s-1.1,0.8-1.8,0.8c-0.8,0-1.3-0.3-1.8-0.8C44,51.5,43.8,50.8,43.8,50.2"/>
			<path class="st6 flash" d="M53.5,40.7c0-0.8,0.3-1.3,0.8-1.8s1.2-0.7,1.8-0.7c0.8,0,1.3,0.3,1.8,0.8s0.7,1.2,0.7,1.8
			c0,0.8-0.3,1.3-0.8,1.8s-1.2,0.7-1.8,0.7c-0.8,0-1.3-0.3-1.8-0.8C53.7,41.9,53.4,41.4,53.5,40.7"/>
			<path class="st6 flash" d="M38.3,55.4c0-0.8,0.3-1.3,0.8-1.8s1.1-0.8,1.8-0.8c0.8,0,1.3,0.3,1.8,0.8s0.8,1.1,0.8,1.8
			c0,0.6-0.3,1.3-0.8,1.8S41.5,58,40.8,58c-0.8,0-1.3-0.3-1.8-0.8C38.5,56.8,38.3,56.2,38.3,55.4"/>
			<path class="st6 flash" d="M53.6,33.9c0-0.8,0.3-1.3,0.8-1.8s1.1-0.8,1.8-0.8c0.8,0,1.3,0.3,1.8,0.8s0.8,1.1,0.8,1.8
			c0,0.6-0.3,1.3-0.8,1.8s-1.1,0.8-1.8,0.8c-0.8,0-1.3-0.3-1.8-0.8C53.9,35.1,53.6,34.5,53.6,33.9"/>
			<path class="st6 flash" d="M49.5,45.9c0-0.8,0.3-1.3,0.8-1.8s1.1-0.8,1.8-0.8c0.8,0,1.3,0.3,1.8,0.8s0.8,1.1,0.8,1.8
			c0,0.8-0.3,1.3-0.8,1.8s-1.1,0.8-1.8,0.8c-0.8,0-1.3-0.3-1.8-0.8C49.7,47.2,49.5,46.5,49.5,45.9"/>
			<path class="st6 flash" d="M36.2,30.1c0-0.8,0.3-1.3,0.8-1.8s1.1-0.8,1.8-0.8c0.8,0,1.3,0.3,1.8,0.8s0.8,1.1,0.8,1.8s-0.3,1.3-0.8,1.8
			c-0.5,0.5-1.1,0.8-1.8,0.8c-0.8,0-1.3-0.3-1.8-0.8C36.5,31.3,36.2,30.7,36.2,30.1"/>
			<path class="st6 flash" d="M31.6,36.1c0-0.8,0.3-1.3,0.8-1.8c0.5-0.5,1.1-0.8,1.8-0.8c0.8,0,1.3,0.3,1.8,0.8s0.8,1.1,0.8,1.8
			c0,0.8-0.3,1.3-0.8,1.8s-1.1,0.8-1.8,0.8c-0.8,0-1.3-0.3-1.8-0.8C31.9,37.4,31.6,36.7,31.6,36.1"/>
			<path class="st6 flash" d="M43.3,26.8c0-0.8,0.3-1.3,0.8-1.8s1.1-0.8,1.8-0.8c0.8,0,1.3,0.3,1.8,0.8s0.8,1.1,0.8,1.8s-0.3,1.3-0.8,1.8
			s-1.1,0.8-1.8,0.8c-0.8,0-1.3-0.3-1.8-0.8C43.6,28.2,43.3,27.6,43.3,26.8"/>
		</g>
	</g>
</svg>
