<?xml version="1.0" encoding="utf-8"?>
<!-- Generator: Adobe Illustrator 24.2.1, SVG Export Plug-In . SVG Version: 6.00 Build 0)  -->
<svg version="1.1" id="圖層_1" xmlns="http://www.w3.org/2000/svg" xmlns:xlink="http://www.w3.org/1999/xlink" x="0px" y="0px"
	 viewBox="0 0 46 46" style="enable-background:new 0 0 46 46;" xml:space="preserve">
<style type="text/css">
	.st0{fill:none;stroke:url(#SVGID_1_);stroke-linecap:round;}
	.st1{fill:none;stroke:url(#SVGID_2_);stroke-linecap:round;}
	.st2{fill:none;stroke:url(#SVGID_3_);stroke-linecap:round;}
	.st3{fill:none;stroke:url(#SVGID_4_);stroke-linecap:round;}
	.st4{fill:none;stroke:url(#SVGID_5_);stroke-linecap:round;stroke-linejoin:round;}
	.st5{fill:none;stroke:url(#SVGID_6_);stroke-linecap:round;stroke-linejoin:round;}
	.st6{fill:none;stroke:url(#SVGID_7_);stroke-linecap:round;stroke-linejoin:round;}
	.st7{fill:none;stroke:url(#SVGID_8_);stroke-linecap:round;stroke-linejoin:round;}
	.st8{fill:none;stroke:url(#SVGID_9_);stroke-linecap:round;stroke-linejoin:round;}
	.st9{fill:none;stroke:url(#SVGID_10_);stroke-linecap:round;stroke-linejoin:round;}
	.st10{fill:none;stroke:url(#SVGID_11_);stroke-linecap:round;stroke-linejoin:round;}
	.st11{fill:none;stroke:url(#SVGID_12_);stroke-linecap:round;}
</style>
<g>
	
		<linearGradient id="SVGID_1_" gradientUnits="userSpaceOnUse" x1="-421.4513" y1="532.0475" x2="-421.4513" y2="531.5177" gradientTransform="matrix(5.287 1.5157 4.5196 -15.7649 -135.0473 9044.6514)">
		<stop  offset="0" style="stop-color:#81C3F3"/>
		<stop  offset="1" style="stop-color:#157EFB"/>
	</linearGradient>
	<path class="st0" d="M39.8,13.7c2.3,4.2,3.1,9.3,1.6,14.3c-0.3,1-0.7,2-1,2.9"/>
	
		<linearGradient id="SVGID_2_" gradientUnits="userSpaceOnUse" x1="-354.25" y1="514.6317" x2="-354.25" y2="514.0836" gradientTransform="matrix(3.2 0 0 -10.5 1139.4 5418.5)">
		<stop  offset="0" style="stop-color:#81C3F3"/>
		<stop  offset="1" style="stop-color:#157EFB"/>
	</linearGradient>
	<path class="st1" d="M4.2,23c0-3.9,1.2-7.5,3.2-10.5"/>
	<linearGradient id="SVGID_3_" gradientUnits="userSpaceOnUse" x1="10.2224" y1="21.7573" x2="17.1555" y2="21.7573">
		<stop  offset="0" style="stop-color:#81C3F3"/>
		<stop  offset="1" style="stop-color:#157EFB"/>
	</linearGradient>
	<path class="st2" d="M10.7,34.5V11.4c0-1.3,1.1-2.4,2.4-2.4h3.5"/>
	<linearGradient id="SVGID_4_" gradientUnits="userSpaceOnUse" x1="14.9783" y1="23.7964" x2="35.7776" y2="23.7964">
		<stop  offset="0" style="stop-color:#81C3F3"/>
		<stop  offset="1" style="stop-color:#157EFB"/>
	</linearGradient>
	<path class="st3" d="M29.1,9h3.7c1.3,0,2.4,1.1,2.4,2.4v24.8c0,1.3-1.1,2.4-2.4,2.4H15.5"/>
	<g>
		<linearGradient id="SVGID_5_" gradientUnits="userSpaceOnUse" x1="16.4493" y1="18.7346" x2="29.3745" y2="18.7346">
			<stop  offset="0" style="stop-color:#81C3F3"/>
			<stop  offset="1" style="stop-color:#157EFB"/>
		</linearGradient>
		<polyline class="st4" points="16.9,21.2 20.6,17.5 24.1,21.1 28.9,16.3 28.9,19.2 		"/>
		<linearGradient id="SVGID_6_" gradientUnits="userSpaceOnUse" x1="25.3785" y1="16.2771" x2="29.3745" y2="16.2771">
			<stop  offset="0" style="stop-color:#81C3F3"/>
			<stop  offset="1" style="stop-color:#157EFB"/>
		</linearGradient>
		<line class="st5" x1="25.9" y1="16.3" x2="28.9" y2="16.3"/>
		<linearGradient id="SVGID_7_" gradientUnits="userSpaceOnUse" x1="21.4622" y1="27.2329" x2="31.2347" y2="27.2329">
			<stop  offset="0" style="stop-color:#81C3F3"/>
			<stop  offset="1" style="stop-color:#157EFB"/>
		</linearGradient>
		<line class="st6" x1="22" y1="27.2" x2="30.7" y2="27.2"/>
		<linearGradient id="SVGID_8_" gradientUnits="userSpaceOnUse" x1="21.4622" y1="32.9703" x2="31.2347" y2="32.9703">
			<stop  offset="0" style="stop-color:#81C3F3"/>
			<stop  offset="1" style="stop-color:#157EFB"/>
		</linearGradient>
		<line class="st7" x1="22" y1="33" x2="30.7" y2="33"/>
		<linearGradient id="SVGID_9_" gradientUnits="userSpaceOnUse" x1="14.7653" y1="27.2329" x2="19.9949" y2="27.2329">
			<stop  offset="0" style="stop-color:#81C3F3"/>
			<stop  offset="1" style="stop-color:#157EFB"/>
		</linearGradient>
		<polyline class="st8" points="15.3,26.9 16.9,28.5 19.5,26 		"/>
		<linearGradient id="SVGID_10_" gradientUnits="userSpaceOnUse" x1="14.7653" y1="32.9703" x2="19.9949" y2="32.9703">
			<stop  offset="0" style="stop-color:#81C3F3"/>
			<stop  offset="1" style="stop-color:#157EFB"/>
		</linearGradient>
		<polyline class="st9" points="15.3,32.7 16.9,34.2 19.5,31.7 		"/>
	</g>
	<linearGradient id="SVGID_11_" gradientUnits="userSpaceOnUse" x1="15.6267" y1="9.2571" x2="30.3733" y2="9.2571">
		<stop  offset="0" style="stop-color:#81C3F3"/>
		<stop  offset="1" style="stop-color:#157EFB"/>
	</linearGradient>
	<path class="st10" d="M16.1,11.3h13.7c0,0,0.1-2.9-3.5-4.1h-6.8C19.5,7.2,16.5,7.9,16.1,11.3z"/>
	
		<linearGradient id="SVGID_12_" gradientUnits="userSpaceOnUse" x1="-503.7727" y1="552.2352" x2="-503.7727" y2="551.2814" gradientTransform="matrix(43.9999 0 0 -43.9454 22188.9258 24270.2793)">
		<stop  offset="0" style="stop-color:#81C3F3"/>
		<stop  offset="1" style="stop-color:#157EFB"/>
	</linearGradient>
	<path class="st11" d="M19.4,38.6h-8.5c-2.4,0-4.7-1.2-6.1-3.2C2,31.3,0.6,26.2,1.1,20.7c1-10.2,9.2-18.4,19.4-19.5
		C33.8-0.3,45,10,45,23c0,12.2-9.8,22-22,22"/>
</g>
</svg>
