<?xml version="1.0"?>
<svg xmlns="http://www.w3.org/2000/svg" id="Capa_1" enable-background="new 0 0 512 512" height="512px" viewBox="0 0 512 512" width="512px" class=""><g transform="matrix(6.12323e-17 -1 1 6.12323e-17 0 512)"><g><path d="m235.501 97.841c-2.391 0-4.815-.58-7.063-1.803-18.358-9.986-39.185-15.264-60.231-15.264-21.047 0-41.874 5.278-60.231 15.264-7.186 3.907-16.177 1.25-20.084-5.932-3.908-7.184-1.252-16.176 5.932-20.084 22.687-12.341 48.408-18.864 74.383-18.864s51.696 6.523 74.383 18.864c7.184 3.908 9.84 12.9 5.932 20.084-2.686 4.936-7.771 7.735-13.021 7.735z" fill="#fbcc85" data-original="#FBCC85" class=""/><path d="m503.404 246.829c6.911 24.347 8.231 49.973 3.763 75.268-6.014 34.059-22.16 65.027-46.689 89.557-65.586 65.586-172.301 65.585-237.886 0-65.586-65.586-65.586-172.301 0-237.886 24.53-24.53 55.498-40.675 89.557-46.689 33.257-5.874 67.087-1.743 97.831 11.946l-22.086 49.602c-20.817-9.269-43.744-12.063-66.302-8.079-23.035 4.068-43.993 15-60.606 31.614-44.415 44.415-44.415 116.684 0 161.1 44.415 44.415 116.684 44.415 161.099 0 16.614-16.614 27.546-37.571 31.614-60.606 2.988-16.918 2.164-34.044-2.346-50.332z" fill="#fbcc85" data-original="#FBCC85" class=""/><path d="m507.168 322.097c-6.016 34.058-22.159 65.026-46.688 89.554-36.974 36.974-87 53.106-135.367 48.388 37.447-3.637 73.885-19.769 102.504-48.388 24.539-24.529 40.682-55.496 46.698-89.554 3.904-22.159 3.379-44.587-1.473-66.169l30.566-9.097c6.902 24.344 8.231 49.975 3.76 75.266z" fill="#e8b66b" data-original="#E8B66B" class=""/><path d="m236.867 337.663c5.326 12.455 12.98 24.148 22.963 34.408-16.638 9.282-34.81 16.112-54.044 20.006-8.798-12.002-15.803-24.92-21.016-38.375 18.626-2.08 36.212-7.653 52.097-16.039z" fill="#e8b66b" data-original="#E8B66B" class=""/><path d="m451.353 262.322c-1.503-5.429-3.416-10.765-5.733-15.97l49.602-22.086c3.277 7.361 6.007 14.898 8.182 22.562" fill="#fbcc85" data-original="#FBCC85" class=""/><path d="m447.967 261.144c-4.905 1.449-10.087-1.095-11.973-5.848-5.081-12.808-12.804-24.573-22.637-34.407-9.834-9.834-21.599-17.556-34.406-22.637-4.754-1.886-7.297-7.068-5.848-11.973l16.823-56.958c1.614-5.464 7.499-8.415 12.858-6.482 24.841 8.964 47.636 23.422 66.419 42.205 18.782 18.782 33.241 41.577 42.205 66.419 1.934 5.359-1.018 11.244-6.481 12.858z" fill="#d9ecfd" data-original="#D9ECFD" class=""/><path d="m504.923 244.318-21.51 6.356c.598-1.968.598-4.152-.165-6.253-8.963-24.848-23.427-47.636-42.207-66.427-15.721-15.721-34.264-28.413-54.456-37.386l3.338-11.291c1.617-5.46 7.5-8.417 12.857-6.48 24.848 8.963 47.636 23.426 66.427 42.207 18.78 18.78 33.234 41.579 42.197 66.416 1.935 5.358-1.011 11.251-6.481 12.858z" fill="#c5e2ff" data-original="#C5E2FF" class="active-path"/><path d="m212.421 91.798 12.414-32.338c2.04-5.326 8.159-7.809 13.351-5.429 27.248 12.445 50.582 31.874 67.92 56.65 3.575 5.11 6.84 10.374 9.787 15.783-1.247.185-2.493.402-3.74.618-17.328 3.06-33.842 8.736-49.119 16.813-.453-.701-.927-1.391-1.411-2.081-11.394-16.277-26.589-29.154-44.308-37.602-4.616-2.215-6.728-7.634-4.894-12.414z" fill="#d9ecfd" data-original="#D9ECFD" class=""/><path d="m336.414 207.025c0 92.748-75.451 168.209-168.209 168.209-92.099 0-166.571-73.113-168.178-165.201-.628-35.768 9.879-70.197 30.277-99.352 17.338-24.776 40.682-44.205 67.931-56.65 5.182-2.38 11.301.103 13.341 5.429l12.414 32.338c1.834 4.78-.268 10.199-4.893 12.414-17.719 8.448-32.915 21.325-44.298 37.602-13.671 19.522-20.769 42.567-20.501 66.54.69 60.637 49.49 110.529 110.096 112.517 64.541 2.122 117.73-49.768 117.73-113.846 0-3.76-.185-7.5-.546-11.198 12.167-7.562 25.683-12.743 40.013-15.278 4.162-.731 8.334-1.236 12.507-1.514 1.544 9.179 2.316 18.533 2.316 27.99z" fill="#d9ecfd" data-original="#D9ECFD" class=""/><g fill="#c5e2ff"><path d="m336.414 207.025c0 92.748-75.451 168.209-168.209 168.209-5.316 0-10.58-.247-15.762-.721 85.444-7.922 152.551-80.015 152.551-167.488 0-7.325-.464-14.587-1.401-21.758 5.821-2.05 11.837-3.626 17.997-4.718 4.162-.731 8.334-1.236 12.507-1.514 1.545 9.179 2.317 18.533 2.317 27.99z" data-original="#C5E2FF" class="active-path"/><path d="m336.25 199.556c-3.688.206-7.387.628-11.075 1.277-16.329 2.895-31.39 9.993-43.969 20.686.608-4.749.917-9.581.917-14.495 0-3.76-.185-7.5-.546-11.198 12.167-7.562 25.683-12.743 40.013-15.278 4.162-.731 8.334-1.236 12.507-1.514 1.133 6.759 1.854 13.609 2.153 20.522z" data-original="#C5E2FF" class="active-path"/></g></g></g> </svg>
