<?xml version="1.0"?>
<svg xmlns="http://www.w3.org/2000/svg" xmlns:xlink="http://www.w3.org/1999/xlink" xmlns:svgjs="http://svgjs.com/svgjs" version="1.1" width="512" height="512" x="0" y="0" viewBox="0 0 426.703 426.703" style="enable-background:new 0 0 512 512" xml:space="preserve" class=""><g><g xmlns="http://www.w3.org/2000/svg"><g fill="#62667c"><path d="m396.303 95.217v220.71h-145.615l-6.047 23.536h-62.58l-6.047-23.536h-145.614v-220.71c.02-10.154 8.246-18.38 18.4-18.4h329.097c10.151-.014 18.391 8.203 18.405 18.353.001.016.001.032.001.047z" fill="#4c4c4c" data-original="#62667c" style="" class=""/><path d="m180.282 324.815h-149.882v-8.888h145.615z" fill="#4c4c4c" data-original="#62667c" style="" class=""/><path d="m396.303 315.927v8.888h-149.882l4.267-8.888z" fill="#4c4c4c" data-original="#62667c" style="" class=""/></g><path d="m377.372 99.323v197.673h-328.025v-197.673c0-1.98 1.605-3.585 3.585-3.585h320.855c1.98 0 3.585 1.605 3.585 3.585z" fill="#448bca" data-original="#69b0ee" style="" class=""/><path d="m426.703 321.885v5.865c0 12.226-9.911 22.137-22.137 22.137h-382.429c-12.226-.001-22.137-9.912-22.137-22.137v-5.865c0-3.291 2.668-5.958 5.958-5.958h170.057l6.047 12.713h62.58l6.047-12.713h170.057c3.289 0 5.957 2.667 5.957 5.958z" fill="#3c3c3c" data-original="#525666" style="" class=""/><g fill="#eeefee" opacity=".5"><path d="m112.467 296.996h-9.855l145.703-201.258h9.856z" fill="#69b0ee" data-original="#eeefee" style="" class=""/><path d="m178.388 296.996h-39.35l145.703-201.258h39.35z" fill="#69b0ee" data-original="#eeefee" style="" class=""/></g></g></g></svg>
