<svg width="22" height="22" viewBox="0 0 22 22" fill="none" xmlns="http://www.w3.org/2000/svg">
<g clip-path="url(#clip0_10974_7331)">
<path d="M17.7022 22C17.467 21.8541 17.2724 21.6919 17.2643 21.3837C17.2562 20.9945 17.5238 20.7107 17.9292 20.7026C18.7564 20.6945 19.5916 20.6945 20.4187 20.7026C20.6377 20.7026 20.7025 20.6458 20.7025 20.4269C20.6944 19.6322 20.6944 18.8375 20.7025 18.0428C20.7025 17.6211 20.8566 17.3779 21.1648 17.2887C21.481 17.1995 21.7405 17.3211 21.9676 17.6698C21.9757 17.6779 21.9838 17.6941 21.9919 17.7022C21.9919 19.0808 21.9919 20.4674 21.9919 21.846C21.9919 21.9757 21.9676 22 21.8378 22C20.4674 21.9919 19.0888 22 17.7022 22Z" fill="#083A6F"/>
<path d="M0.446006 22C0.105423 21.8216 -0.0081042 21.5459 4.90446e-06 21.1647C0.0162231 20.0943 4.90458e-06 19.0158 0.00811401 17.9454C0.00811401 17.4264 0.49466 17.1102 0.940661 17.3291C1.20015 17.4589 1.30557 17.6697 1.30557 17.9616C1.30557 18.7807 1.31368 19.6078 1.29746 20.4268C1.29746 20.6457 1.36233 20.7106 1.58128 20.7025C2.37597 20.6944 3.17066 20.6944 3.96536 20.6944C4.37892 20.6944 4.6303 20.8485 4.7195 21.1647C4.8087 21.481 4.68707 21.7405 4.33838 21.9675C4.33027 21.9756 4.31405 21.9837 4.30594 21.9919C3.01659 22 1.72724 22 0.446006 22Z" fill="#083A6F"/>
<path d="M22 4.25728C21.9351 4.3627 21.8865 4.49244 21.7811 4.57353C21.5621 4.74383 21.3269 4.78437 21.0756 4.67084C20.8161 4.55732 20.7107 4.33837 20.7107 4.06266C20.7107 3.23553 20.7107 2.41651 20.7107 1.58938C20.7107 1.28935 20.7107 1.28935 20.4106 1.28935C19.5916 1.28935 18.7645 1.28935 17.9455 1.28935C17.6697 1.28935 17.4589 1.16771 17.3454 0.916329C17.2319 0.681165 17.2643 0.45411 17.4184 0.251382C17.5319 0.0892002 17.7022 0 17.913 0C19.0645 0 20.216 0 21.3675 0C21.6919 0 21.8703 0.202728 22 0.470328C22 1.73535 22 2.99226 22 4.25728Z" fill="#083A6F"/>
<path d="M11.0041 18.9511C9.04165 18.9511 7.07925 18.9511 5.12496 18.9511C4.58165 18.9511 4.35459 18.7159 4.34648 18.1888C4.33837 17.4103 4.33026 16.6319 4.53299 15.8615C5.0763 13.8018 6.31699 12.3097 8.23885 11.3853C8.42536 11.2961 8.40914 11.2555 8.26318 11.142C7.50092 10.55 6.97383 9.7959 6.69001 8.86335C6.63325 8.68495 6.54405 8.6363 6.36565 8.6363C4.93034 8.64441 3.48692 8.64441 2.0516 8.6363C1.5164 8.6363 1.20015 8.1903 1.40288 7.71997C1.52451 7.43615 1.76779 7.33884 2.05971 7.33884C3.40582 7.33884 4.75194 7.33884 6.09805 7.33884C6.16292 7.33884 6.22779 7.33073 6.29267 7.33884C6.43052 7.35506 6.48729 7.2983 6.5035 7.15233C6.57649 6.45495 6.79543 5.79811 7.16034 5.19804C8.49834 2.97614 11.5717 2.36796 13.6476 3.90869C14.7261 4.70338 15.3424 5.77378 15.4965 7.09557C15.5208 7.3064 15.6019 7.34695 15.7965 7.34695C17.1832 7.33884 18.5699 7.33884 19.9646 7.34695C20.5079 7.34695 20.8242 7.80917 20.6052 8.2795C20.4755 8.55521 20.2403 8.64441 19.9565 8.64441C18.5861 8.64441 17.2237 8.64441 15.8533 8.64441C15.4154 8.64441 15.4154 8.64441 15.2613 9.06608C14.9613 9.90943 14.4504 10.6068 13.7449 11.1582C13.6071 11.2636 13.5909 11.3042 13.7693 11.3853C15.9263 12.4314 17.2075 14.1424 17.6049 16.5102C17.7103 17.1265 17.6697 17.7509 17.6616 18.3753C17.6535 18.6916 17.394 18.9349 17.0778 18.9592C16.8994 18.9673 16.721 18.9673 16.5426 18.9673C14.6937 18.9511 12.8448 18.9511 11.0041 18.9511ZM10.9959 17.6536C11.9042 17.6536 12.8124 17.6536 13.7206 17.6536C14.5315 17.6536 15.3343 17.6536 16.1452 17.6536C16.3074 17.6536 16.3885 17.605 16.3723 17.4347C16.3561 17.2238 16.348 17.0049 16.3236 16.7941C15.983 13.8586 13.2341 11.7259 10.2986 12.1313C7.73609 12.4881 5.74125 14.5884 5.65205 17.3374C5.64394 17.6455 5.64394 17.6455 5.95208 17.6455C7.63067 17.6536 9.30925 17.6536 10.9959 17.6536ZM10.9797 7.34695C11.9447 7.34695 12.9097 7.34695 13.8747 7.34695C14.2153 7.34695 14.2234 7.33073 14.1666 6.99826C14.1666 6.97393 14.1585 6.95771 14.1504 6.93339C13.672 4.73582 11.3122 3.68164 9.36602 4.8088C8.51456 5.29535 8.0118 6.06571 7.84151 7.0307C7.78474 7.33073 7.80096 7.34695 8.08478 7.34695C9.04976 7.34695 10.0147 7.34695 10.9797 7.34695ZM11.0041 8.64441C10.0877 8.64441 9.1714 8.64441 8.25507 8.64441C8.00369 8.64441 7.97936 8.67684 8.08478 8.89579C8.68485 10.104 9.66605 10.769 11.0041 10.769C12.3421 10.769 13.3233 10.104 13.9233 8.89579C14.0288 8.67684 14.0044 8.64441 13.753 8.64441C12.8367 8.64441 11.9204 8.64441 11.0041 8.64441Z" fill="#083A6F"/>
<path d="M0.00811768 2.36786C0.00811768 1.81644 0.00811768 1.26502 0.00811768 0.713601C0.0162268 0.2676 0.267609 0 0.71361 0C1.82456 0 2.92739 0 4.03834 0C4.46002 0 4.73573 0.2676 4.73573 0.648728C4.73573 1.02986 4.45191 1.28935 4.02212 1.28935C3.21121 1.28935 2.39219 1.29746 1.58128 1.28935C1.36234 1.28935 1.29747 1.35422 1.29747 1.57317C1.30557 2.4003 1.30557 3.23553 1.29747 4.06266C1.28936 4.56543 0.819028 4.87357 0.373027 4.67084C0.121645 4.54921 0.0162268 4.33026 0.00811768 4.06266C0.00811768 3.49502 0.00811768 2.92739 0.00811768 2.36786Z" fill="#083A6F"/>
</g>
<defs>
<clipPath id="clip0_10974_7331">
<rect width="22" height="22" fill="white"/>
</clipPath>
</defs>
</svg>
