<?xml version="1.0" encoding="utf-8"?>
<!-- Generator: Adobe Illustrator 24.2.1, SVG Export Plug-In . SVG Version: 6.00 Build 0)  -->
<svg version="1.1" id="圖層_1" xmlns="http://www.w3.org/2000/svg" xmlns:xlink="http://www.w3.org/1999/xlink" x="0px" y="0px"
	 viewBox="0 0 729.5 95.4" style="enable-background:new 0 0 729.5 95.4;" xml:space="preserve">
<style type="text/css">
	.st0{opacity:0.75;}
	.st1{fill:#EEEEEF;}
	.st2{fill:url(#SVGID_3_);}
	.st3{fill:url(#SVGID_4_);}
	.st4{fill:url(#SVGID_5_);}
	.st5{fill:url(#SVGID_6_);}
	.st6{fill:url(#SVGID_7_);}
	.st7{fill:url(#SVGID_8_);}
	.st8{fill:#888888;}
	.st9{fill:#FFFFFF;}
	.st10{fill:#D0392A;}
	.st11{filter:url(#Adobe_OpacityMaskFilter);}
	.st12{fill:none;stroke:#3E3A39;stroke-width:2;stroke-miterlimit:10;}
	.st13{opacity:0.3;fill:#FFFFFF;}
	.st14{fill:#036EB7;}
	.st15{fill:#E50012;}
	.st16{fill:#FFFFFF;stroke:#AE1E24;stroke-width:10;stroke-linecap:round;stroke-linejoin:round;stroke-miterlimit:10;}
	.st17{fill:#FFFFFF;stroke:#D0392A;stroke-width:10;stroke-linecap:round;stroke-linejoin:round;stroke-miterlimit:10;}
	.st18{fill:url(#SVGID_10_);}
	.st19{fill:url(#SVGID_11_);}
	.st20{fill:url(#SVGID_12_);}
	.st21{fill:url(#SVGID_13_);}
	.st22{fill:url(#SVGID_14_);}
	.st23{fill:url(#SVGID_15_);}
	.st24{fill:url(#SVGID_16_);}
	.st25{fill:url(#SVGID_17_);}
	.st26{fill:url(#SVGID_18_);}
	.st27{fill:url(#SVGID_19_);}
	.st28{fill:url(#SVGID_20_);}
	.st29{fill:url(#SVGID_21_);}
	.st30{fill:url(#SVGID_22_);}
	.st31{fill:url(#SVGID_23_);}
	.st32{fill:url(#SVGID_24_);}
	.st33{fill:url(#SVGID_25_);}
	.st34{fill:url(#SVGID_26_);}
	.st35{fill:url(#SVGID_27_);}
	.st36{fill:url(#SVGID_28_);}
	.st37{fill:url(#SVGID_29_);}
	.st38{fill:url(#SVGID_30_);}
	.st39{fill:url(#SVGID_31_);}
	.st40{fill:url(#SVGID_32_);}
	.st41{fill:url(#SVGID_33_);}
	.st42{fill:url(#SVGID_34_);}
	.st43{fill:url(#SVGID_35_);}
	.st44{fill:url(#SVGID_36_);}
	.st45{fill:url(#SVGID_37_);}
	.st46{fill:url(#SVGID_38_);}
	.st47{fill:url(#SVGID_39_);}
	.st48{fill:url(#SVGID_40_);}
	.st49{fill:url(#SVGID_41_);}
	.st50{fill:url(#SVGID_42_);}
	.st51{fill:url(#SVGID_43_);}
	.st52{fill:url(#SVGID_44_);}
	.st53{fill:url(#SVGID_45_);}
	.st54{fill:url(#SVGID_46_);}
	.st55{fill:url(#SVGID_47_);}
	.st56{fill:url(#SVGID_48_);}
	.st57{fill:url(#SVGID_49_);}
	.st58{fill:url(#SVGID_50_);}
	.st59{fill:url(#SVGID_51_);}
	.st60{fill:url(#SVGID_52_);}
	.st61{fill:url(#SVGID_53_);}
	.st62{fill:url(#SVGID_54_);}
	.st63{fill:url(#SVGID_55_);}
	.st64{fill:url(#SVGID_56_);}
	.st65{fill:url(#SVGID_57_);}
	.st66{fill:url(#SVGID_58_);}
	.st67{fill:url(#SVGID_59_);}
	.st68{fill:url(#SVGID_60_);}
	.st69{fill:url(#SVGID_61_);}
	.st70{fill:url(#SVGID_62_);}
	.st71{fill:url(#SVGID_63_);}
	.st72{fill:url(#SVGID_64_);}
	.st73{fill:url(#SVGID_65_);}
	.st74{fill:url(#SVGID_66_);}
	.st75{fill:none;stroke:#036EB7;stroke-width:2;stroke-miterlimit:10;}
	.st76{fill:url(#SVGID_67_);}
	.st77{fill:url(#SVGID_68_);}
	.st78{fill:url(#SVGID_69_);}
	.st79{fill:url(#SVGID_70_);}
	.st80{fill:url(#SVGID_71_);}
	.st81{fill:url(#SVGID_72_);}
	.st82{fill:url(#SVGID_73_);}
	.st83{fill:url(#SVGID_74_);}
	.st84{fill:url(#SVGID_75_);}
	.st85{fill:url(#SVGID_76_);}
	.st86{fill:url(#SVGID_77_);}
	.st87{fill:url(#SVGID_78_);}
	.st88{fill:url(#SVGID_79_);}
	.st89{fill:#B3B3B3;}
	.st90{fill:#777778;}
	.st91{fill:url(#SVGID_80_);}
	.st92{fill:url(#SVGID_81_);}
	.st93{fill:url(#SVGID_82_);}
	.st94{fill:url(#SVGID_83_);}
	.st95{fill:url(#SVGID_84_);}
	.st96{fill:url(#SVGID_85_);}
	.st97{fill:url(#SVGID_86_);}
	.st98{clip-path:url(#SVGID_88_);fill:url(#SVGID_89_);}
	.st99{clip-path:url(#SVGID_91_);}
	.st100{fill:url(#SVGID_92_);}
	.st101{fill:url(#SVGID_93_);}
	.st102{fill:url(#SVGID_94_);}
	.st103{fill:#124380;}
	.st104{opacity:0.82;fill:url(#SVGID_95_);}
	.st105{opacity:0.21;fill:url(#SVGID_96_);}
	.st106{opacity:0.82;fill:url(#SVGID_97_);}
	.st107{opacity:0.21;fill:url(#SVGID_98_);}
	.st108{opacity:0.82;fill:url(#SVGID_99_);}
	.st109{opacity:0.21;fill:url(#SVGID_100_);}
	.st110{fill:#C7391A;}
	.st111{fill:#083A6E;}
	.st112{fill:#3D3A39;}
	.st113{fill:#0A559A;}
	.st114{fill:#2E3D47;}
	.st115{fill:#E72410;}
	.st116{fill-rule:evenodd;clip-rule:evenodd;fill:#E72410;}
	.st117{opacity:0.82;fill:url(#SVGID_101_);}
	.st118{opacity:0.21;fill:url(#SVGID_102_);}
	.st119{opacity:0.82;fill:url(#SVGID_103_);}
	.st120{opacity:0.21;fill:url(#SVGID_104_);}
	.st121{opacity:0.82;fill:url(#SVGID_105_);}
	.st122{opacity:0.21;fill:url(#SVGID_106_);}
	.st123{fill:#124385;}
	.st124{opacity:0.82;fill:url(#SVGID_107_);}
	.st125{opacity:0.21;fill:url(#SVGID_108_);}
	.st126{opacity:0.82;fill:url(#SVGID_109_);}
	.st127{opacity:0.21;fill:url(#SVGID_111_);}
	.st128{opacity:0.82;fill:url(#SVGID_112_);}
	.st129{opacity:0.21;fill:url(#SVGID_114_);}
	.st130{fill:#CE391A;}
	.st131{fill:url(#SVGID_116_);}
	.st132{fill:none;stroke:url(#SVGID_117_);stroke-width:2;stroke-miterlimit:10;}
	.st133{fill:url(#SVGID_119_);}
	.st134{fill:url(#SVGID_122_);}
	.st135{clip-path:url(#SVGID_124_);}
	.st136{fill:none;stroke:#FF9825;stroke-width:1.4185;stroke-linecap:round;stroke-miterlimit:10;}
	.st137{fill:url(#SVGID_126_);}
	.st138{fill:url(#SVGID_128_);}
	.st139{clip-path:url(#SVGID_129_);}
	.st140{fill:url(#SVGID_131_);}
	.st141{fill:none;stroke:url(#SVGID_132_);stroke-width:2;stroke-miterlimit:10;}
	.st142{fill:url(#SVGID_133_);}
	.st143{fill:url(#SVGID_134_);}
	.st144{fill:url(#SVGID_135_);}
	.st145{fill:url(#SVGID_136_);}
	.st146{fill:url(#SVGID_137_);}
	.st147{fill:#717071;}
	.st148{fill:url(#SVGID_138_);}
	.st149{fill:url(#SVGID_139_);}
	.st150{fill:url(#SVGID_140_);}
	.st151{fill:url(#SVGID_141_);}
	.st152{fill:url(#SVGID_142_);}
	.st153{fill:url(#SVGID_143_);}
	.st154{fill:url(#SVGID_144_);}
	.st155{fill:url(#SVGID_145_);}
	.st156{fill:url(#SVGID_146_);}
	.st157{fill:url(#SVGID_147_);}
	.st158{fill:url(#SVGID_148_);}
	.st159{fill:url(#SVGID_149_);}
	.st160{fill:url(#SVGID_150_);}
	.st161{fill:url(#SVGID_151_);}
	.st162{fill:url(#SVGID_152_);}
	.st163{fill:url(#SVGID_153_);}
	.st164{fill:url(#SVGID_154_);}
	.st165{fill:url(#SVGID_155_);}
	.st166{fill:url(#SVGID_156_);}
	.st167{fill:url(#SVGID_157_);}
	.st168{fill:url(#SVGID_158_);}
	.st169{fill:url(#SVGID_159_);}
	.st170{fill:url(#SVGID_160_);}
	.st171{fill:url(#SVGID_161_);}
	.st172{fill:url(#SVGID_162_);}
	.st173{fill:url(#SVGID_163_);}
	.st174{fill:url(#SVGID_164_);}
	.st175{fill:url(#SVGID_165_);}
	.st176{fill:url(#SVGID_166_);}
	.st177{fill:url(#SVGID_167_);}
	.st178{fill:url(#SVGID_168_);}
	.st179{fill:url(#SVGID_169_);}
	.st180{fill:url(#SVGID_170_);}
	.st181{fill:url(#SVGID_171_);}
	.st182{fill:url(#SVGID_172_);}
	.st183{fill:url(#SVGID_173_);}
	.st184{fill:url(#SVGID_174_);}
	.st185{clip-path:url(#SVGID_176_);fill:url(#SVGID_177_);}
	.st186{clip-path:url(#SVGID_179_);}
	.st187{fill:url(#SVGID_181_);}
	.st188{fill:url(#SVGID_182_);}
	.st189{fill:url(#SVGID_184_);}
	.st190{fill:url(#SVGID_186_);}
	.st191{fill:none;stroke:url(#SVGID_187_);stroke-width:2;stroke-miterlimit:10;}
	.st192{fill:url(#SVGID_189_);}
	.st193{fill:url(#SVGID_192_);}
	.st194{clip-path:url(#SVGID_194_);}
	.st195{fill:url(#SVGID_196_);}
	.st196{fill:url(#SVGID_198_);}
	.st197{clip-path:url(#SVGID_199_);}
</style>
<g>
	<g>
		<g>
			<g>
				<path class="st103" d="M81.1,4.9C79.3,3.5,77,2.1,74,1.4c-7.6-1.8-15.9,1.8-21.1,8.9l0,0l0,0c0,0,0,0,0,0
					c8.7-1.5,14.4,0.6,17.1,2c5.8,2.9,10.3,8.4,13.2,15.5c2.4,5.9,3.6,13,3.4,20.8c0,0.2,0,0.4,0,0.7c-0.1,2.6-0.4,5.2-0.8,7.9
					c-0.3,2.2-0.8,4.4-1.4,6.6c0,0,0,0,0,0s5.6-16.3,5.7-32.7c0-6.4-0.8-12.8-3.1-18.2C85.2,8.6,82.3,5.9,81.1,4.9z"/>
				<linearGradient id="SVGID_2_" gradientUnits="userSpaceOnUse" x1="74.6993" y1="24.5533" x2="86.5922" y2="-0.1135">
					<stop  offset="0" style="stop-color:#FFFFFF"/>
					<stop  offset="1" style="stop-color:#231815"/>
				</linearGradient>
				<path style="opacity:0.82;fill:url(#SVGID_2_);" d="M52.9,10.3L52.9,10.3L52.9,10.3L52.9,10.3L52.9,10.3
					C52.9,10.3,52.9,10.3,52.9,10.3c8.7-1.5,14.4,0.6,17.1,2c5.8,2.9,10.3,8.4,13.2,15.5c2.4,5.9,3.6,13,3.4,20.8c0,0.2,0,0.4,0,0.7
					c-0.1,2.6-0.4,5.2-0.8,7.9c-0.3,2.2-0.8,4.4-1.4,6.6c0,0,0,0,0,0s5.6-16.3,5.7-32.7C88.6-2.9,52.9,10.3,52.9,10.3z"/>
				<linearGradient id="SVGID_3_" gradientUnits="userSpaceOnUse" x1="58.9215" y1="12.1174" x2="91.299" y2="17.9662">
					<stop  offset="0" style="stop-color:#FFFFFF;stop-opacity:0"/>
					<stop  offset="0.1075" style="stop-color:#D8EFFA;stop-opacity:0.2232"/>
					<stop  offset="0.2825" style="stop-color:#9FD6F2;stop-opacity:0.5865"/>
					<stop  offset="0.4124" style="stop-color:#7CC7ED;stop-opacity:0.8561"/>
					<stop  offset="0.4817" style="stop-color:#6EC1EB"/>
					<stop  offset="0.5437" style="stop-color:#85CBEE;stop-opacity:0.8804"/>
					<stop  offset="0.6956" style="stop-color:#B9E1F5;stop-opacity:0.5873"/>
					<stop  offset="0.8278" style="stop-color:#DFF1FB;stop-opacity:0.3323"/>
					<stop  offset="0.9336" style="stop-color:#F6FBFE;stop-opacity:0.128"/>
					<stop  offset="1" style="stop-color:#FFFFFF;stop-opacity:0"/>
				</linearGradient>
				<path style="opacity:0.21;fill:url(#SVGID_3_);" d="M90.1,31.2c0-6.4-0.8-12.8-3.1-18.2c-1.9-4.4-4.8-7.1-6-8.1
					C79.3,3.5,77,2.1,74,1.4c-7.6-1.8-15.9,1.8-21.1,8.9C52.9,10.3,88.6-2.9,90.1,31.2z"/>
			</g>
			<g>
				<path class="st103" d="M74.5,93.4c2.1-0.9,4.5-2.2,6.5-4.4c5.3-5.7,6.4-14.7,2.8-22.8l0,0l0,0l0,0c-3,8.3-7.7,12.2-10.3,13.9
					c-5.4,3.6-12.4,4.8-20,3.7c-6.3-0.9-13.1-3.4-19.7-7.4c-0.2-0.1-0.4-0.2-0.6-0.4c-2.2-1.4-4.4-2.9-6.5-4.6
					c-1.7-1.4-3.4-2.8-5-4.4l0,0c0,0,11.4,13,25.5,21.2c5.5,3.2,11.5,5.7,17.3,6.4C69.2,95.1,73,93.9,74.5,93.4z"/>
				
					<linearGradient id="SVGID_4_" gradientUnits="userSpaceOnUse" x1="-7325.3706" y1="939.0881" x2="-7313.4771" y2="914.42" gradientTransform="matrix(-0.4965 0.868 -0.868 -0.4965 -2761.3372 6902.7344)">
					<stop  offset="0" style="stop-color:#FFFFFF"/>
					<stop  offset="1" style="stop-color:#231815"/>
				</linearGradient>
				<path style="opacity:0.82;fill:url(#SVGID_4_);" d="M83.7,66.2L83.7,66.2L83.7,66.2L83.7,66.2L83.7,66.2L83.7,66.2
					c-3,8.3-7.7,12.2-10.3,13.9c-5.4,3.6-12.4,4.8-20,3.7c-6.3-0.9-13.1-3.4-19.7-7.4c-0.2-0.1-0.4-0.2-0.6-0.4
					c-2.2-1.4-4.4-2.9-6.5-4.6c-1.7-1.4-3.4-2.8-5-4.4l0,0c0,0,11.4,13,25.5,21.2C77.5,103.8,83.7,66.2,83.7,66.2z"/>
				
					<linearGradient id="SVGID_5_" gradientUnits="userSpaceOnUse" x1="-7341.1484" y1="926.652" x2="-7308.77" y2="932.501" gradientTransform="matrix(-0.4965 0.868 -0.868 -0.4965 -2761.3372 6902.7344)">
					<stop  offset="0" style="stop-color:#FFFFFF;stop-opacity:0"/>
					<stop  offset="0.1075" style="stop-color:#D8EFFA;stop-opacity:0.2232"/>
					<stop  offset="0.2825" style="stop-color:#9FD6F2;stop-opacity:0.5865"/>
					<stop  offset="0.4124" style="stop-color:#7CC7ED;stop-opacity:0.8561"/>
					<stop  offset="0.4817" style="stop-color:#6EC1EB"/>
					<stop  offset="0.5437" style="stop-color:#85CBEE;stop-opacity:0.8804"/>
					<stop  offset="0.6956" style="stop-color:#B9E1F5;stop-opacity:0.5873"/>
					<stop  offset="0.8278" style="stop-color:#DFF1FB;stop-opacity:0.3323"/>
					<stop  offset="0.9336" style="stop-color:#F6FBFE;stop-opacity:0.128"/>
					<stop  offset="1" style="stop-color:#FFFFFF;stop-opacity:0"/>
				</linearGradient>
				<path style="opacity:0.21;fill:url(#SVGID_5_);" d="M47.2,88.2c5.5,3.2,11.5,5.7,17.3,6.4c4.7,0.5,8.5-0.6,10-1.2
					c2.1-0.9,4.5-2.2,6.5-4.4c5.3-5.7,6.4-14.7,2.8-22.8C83.7,66.2,77.5,103.8,47.2,88.2z"/>
			</g>
			<g>
				<path class="st103" d="M1.2,43.3c-0.3,2.3-0.3,5,0.6,7.8C4,58.5,11.3,64,20.1,64.9h0v0h0c-5.7-6.8-6.7-12.7-6.8-15.8
					C12.8,42.6,15.3,36,20,29.9c3.9-5,9.5-9.7,16.3-13.4c0.2-0.1,0.4-0.2,0.6-0.3c2.3-1.2,4.7-2.3,7.2-3.3c2-0.8,4.2-1.5,6.4-2.1
					c0,0,0,0,0,0c0,0-16.9,3.3-31.2,11.4C13.8,25.4,8.7,29.3,5.2,34C2.3,37.9,1.4,41.7,1.2,43.3z"/>
				
					<linearGradient id="SVGID_6_" gradientUnits="userSpaceOnUse" x1="-2856.0537" y1="7032.5562" x2="-2844.1611" y2="7007.8901" gradientTransform="matrix(-0.5016 -0.8651 0.8651 -0.5016 -7495.0586 1095.7001)">
					<stop  offset="0" style="stop-color:#FFFFFF"/>
					<stop  offset="1" style="stop-color:#231815"/>
				</linearGradient>
				<path style="opacity:0.82;fill:url(#SVGID_6_);" d="M20.1,64.9L20.1,64.9L20.1,64.9L20.1,64.9L20.1,64.9L20.1,64.9
					c-5.7-6.8-6.7-12.7-6.8-15.8C12.8,42.6,15.3,36,20,29.9c3.9-5,9.5-9.7,16.3-13.4c0.2-0.1,0.4-0.2,0.6-0.3
					c2.3-1.2,4.7-2.3,7.2-3.3c2-0.8,4.2-1.5,6.4-2.1c0,0,0,0,0,0c0,0-16.9,3.3-31.2,11.4C-9.4,40.7,20.1,64.9,20.1,64.9z"/>
				
					<linearGradient id="SVGID_7_" gradientUnits="userSpaceOnUse" x1="-2871.8325" y1="7020.1201" x2="-2839.4546" y2="7025.9692" gradientTransform="matrix(-0.5016 -0.8651 0.8651 -0.5016 -7495.0586 1095.7001)">
					<stop  offset="0" style="stop-color:#FFFFFF;stop-opacity:0"/>
					<stop  offset="0.1075" style="stop-color:#D8EFFA;stop-opacity:0.2232"/>
					<stop  offset="0.2825" style="stop-color:#9FD6F2;stop-opacity:0.5865"/>
					<stop  offset="0.4124" style="stop-color:#7CC7ED;stop-opacity:0.8561"/>
					<stop  offset="0.4817" style="stop-color:#6EC1EB"/>
					<stop  offset="0.5437" style="stop-color:#85CBEE;stop-opacity:0.8804"/>
					<stop  offset="0.6956" style="stop-color:#B9E1F5;stop-opacity:0.5873"/>
					<stop  offset="0.8278" style="stop-color:#DFF1FB;stop-opacity:0.3323"/>
					<stop  offset="0.9336" style="stop-color:#F6FBFE;stop-opacity:0.128"/>
					<stop  offset="1" style="stop-color:#FFFFFF;stop-opacity:0"/>
				</linearGradient>
				<path style="opacity:0.21;fill:url(#SVGID_7_);" d="M19.4,22.3C13.8,25.4,8.7,29.3,5.2,34c-2.8,3.8-3.7,7.7-4,9.2
					c-0.3,2.3-0.3,5,0.6,7.8C4,58.5,11.3,64,20.1,64.9C20.1,64.9-9.4,40.7,19.4,22.3z"/>
			</g>
			<g>
				<g>
					<rect x="27.4" y="36.5" class="st110" width="4.5" height="4.2"/>
					<path class="st111" d="M28.7,43.9c-0.7,0-1.2,0.5-1.2,1.2v15.8H30h0.5c0.7,0,1.2-0.5,1.2-1.2v-2.2V43.9H28.7z"/>
				</g>
				<g>
					<path class="st111" d="M54.8,40v-2.7c0-0.7-0.6-1.2-1.2-1.2H37.9v24.8h3.3c0,0,0,0,0,0c0,0,0,0,0,0c0.7,0,1.2-0.5,1.2-1.2
						c0,0,0,0,0,0c0,0,0,0,0,0v-8.4h10.8v-2.7c0,0,0,0,0,0s0,0,0,0c0-0.6-0.6-1.2-1.2-1.2c0,0,0,0,0,0s0,0,0,0h-9.5V40H54.8z"/>
					<path class="st111" d="M78.2,40v-2.8c0-0.7-0.6-1.2-1.2-1.2h-6.8h-4.5h-8.1v2.7c0,0,0,0,0,0c0,0,0,0,0,0c0,0.6,0.6,1.2,1.2,1.2
						c0,0,0,0,0,0c0,0,0,0,0,0h6.8v0.2h0v20.7h3.2c0,0,0,0,0.1,0c0,0,0,0,0.1,0c0.7,0,1.2-0.5,1.2-1.2c0,0,0,0,0,0c0,0,0,0,0,0V40
						H78.2z"/>
				</g>
			</g>
		</g>
		<g>
			<g>
				<path class="st112" d="M170.9,65.7l-2.7-1.3l0,0.1c-0.4,1.7-1.1,3.1-2,4.4l-0.1,0.1l1.3,0.7l0.1,0l0.1,0c1.3-1,2.4-2.2,3.2-3.1
					c0.3-0.1,0.6-0.2,0.6-0.5C171.2,65.9,171,65.8,170.9,65.7L170.9,65.7L170.9,65.7L170.9,65.7z"/>
				<path class="st112" d="M152.8,82.6h3v-1h11.3v1h3.1V72.4h-17.4V82.6z M155.9,76.2v-2.5h11.3v2.5H155.9z M167.1,77.6v2.6h-11.3
					v-2.6H167.1z"/>
				<path class="st112" d="M165.5,64h7.1v-1.4h-7.4c0.5-0.3,1.2-0.8,3-2.2c0.4-0.1,0.7-0.2,0.7-0.5c0-0.2-0.2-0.3-0.4-0.4l-2.8-1
					l0,0.1c-0.4,1-1.3,2.4-2.1,3.2l-0.1,0.1l1.4,0.8h-7.3l2.3-1.3l-0.1-0.1c-1.2-1.1-3.9-2.6-4.2-2.8l-0.1,0l-1.3,1l0.1,0.1
					c1.3,1.3,2,2.4,2.5,3.1h-6.6V64h7.1v5.7h-2.9l2.4-1.6l0.1-0.1l-0.1-0.1c-0.9-1.4-2.7-3-3.5-3.6l-0.1,0l-1.3,0.8l0.1,0.1
					c1,1.4,1.3,2.1,2.3,4.5l0,0.1h-5.4v1.3h25v-1.3h-8.3V64z M162.7,64v5.7h-2.4V64H162.7z"/>
				<path class="st112" d="M205.1,78.3v-1.4h-4.7v-2.7h3.5v-1.4h-3.5v-2.6h3.5v-1.3h-3.5v-2.6h4.4v-1.4H200c0.5-0.5,1.9-2.1,1.9-2.3
					c0-0.2-0.1-0.3-0.3-0.4l-2.5-0.7l-0.1,0l0,0.1c-0.4,1.6-0.6,2.2-1,3.3h-3.2c0.7-1,0.9-1.4,1.2-1.9c0.1-0.1,0.3-0.2,0.3-0.4
					c0-0.2-0.2-0.4-0.3-0.4l-2.6-0.8l0,0.1c-0.5,2.8-2.1,5.4-3.7,7.5l-0.1,0.1l0.9,0.9l0.1-0.1c0.4-0.4,0.8-0.8,1.5-1.5v10H205.1z
					 M194.9,68.9v-2.6h2.8v2.6H194.9z M194.9,72.8v-2.6h2.8v2.6H194.9z M194.9,76.9v-2.7h2.8v2.7H194.9z"/>
				<path class="st112" d="M184.8,68.5L184.8,68.5c2,1.9,2.7,2.7,3.2,3.5l0.1,0.1l1.8-1.9l0.1-0.1l-0.1-0.1c-1.1-0.9-2.1-1.6-4-2.6
					l-0.1,0L184.8,68.5v-7.4h20.5v-1.4h-23.4v22.6h2.9v-1.1h21v-1.4h-21V68.5z"/>
				<path class="st112" d="M191.1,64.3c-1.7-1.3-3.8-2.4-4.2-2.5l-0.1,0l-0.9,1l0.1,0.1c0.7,0.6,2,1.8,3.2,3.4l0.1,0.1L191.1,64.3
					L191.1,64.3z"/>
				<path class="st112" d="M190.2,70.9c-0.6,1.1-3,4.7-4.8,6.5l-0.1,0.1l1.8,1.4c0.2,0.1,0.3,0.2,0.4,0.2c0.3,0,0.3-0.2,0.3-0.5l0,0
					c1.1-1.5,3-5,3.5-6.4l0-0.1l-1.1-1.2L190.2,70.9z"/>
				<path class="st112" d="M230.6,73.7l0,0.1c-0.1,0.5-0.8,2.5-2.7,5.2l-0.1,0.1l1.3,0.8l0.1,0l0.1,0c1.2-0.9,3.2-2.8,4.2-3.9l0.1,0
					c0.5-0.3,0.5-0.3,0.5-0.5c0-0.2-0.2-0.3-0.2-0.4L230.6,73.7z"/>
				<path class="st112" d="M227.5,58.8L227.5,58.8l-3.9-0.1l0,0.1c-1.9,3.8-4.5,7-11.2,10.1l-0.1,0.1l1.1,1l0.1,0l0.1,0
					c2.3-0.8,4.2-1.7,5.8-2.7v1.3h4.7v3.4h-8.1v1.3h8.1v6.9h-10.5v1.3h24v-1.3H227v-6.9h8v-1.3h-8v-3.4h4.7v-1.3
					c1.7,1.1,3.6,1.9,5.6,2.8l0.1,0l1-1.2l-0.1-0.1C234.2,66.9,230.1,64.4,227.5,58.8z M219.4,67.1c3-1.8,4.9-3.8,6.1-5.4
					c2,2.4,3.9,4,6.1,5.4H219.4z"/>
				<path class="st112" d="M220.2,80.1l2.9-1.5l-0.1-0.1c-1.8-2.4-4.2-4.3-4.4-4.5l-0.1,0l-1.3,0.9l0.1,0.1c1.9,2.6,2.5,4.1,2.8,4.9
					L220.2,80.1z"/>
				<path class="st112" d="M268,74.8L268,74.8l-1.4,0.3l0,0.1c0.3,1.2,0.4,1.6,0.7,2.9c-0.4,0.1-1.3,0.3-1.6,0.4V74h3.5V63.5h-3.5
					v-3.6c0.1-0.3,0.2-0.5,0.2-0.7c0-0.2-0.2-0.4-0.6-0.4l-2.7-0.1l0,0.1c0.2,0.6,0.2,0.9,0.2,1.7v2.9h-3.5V74h3.5v5.3
					c-1.8,0.4-2.8,0.6-3.9,0.8l-0.2,0l0.8,2c0.1,0.2,0.2,0.3,0.4,0.3c0.2,0,0.4-0.2,0.6-0.4c2.4-0.8,4.7-1.6,6.9-2.5
					c0.2,1,0.2,1.8,0.3,2.3c0,0.1,0,0.3,0,0.4l0,0.2l2.6-1.2l0-0.1C270.1,79.4,269.4,77.6,268,74.8z M265.7,72.6v-7.8h1v7.8H265.7z
					 M262.9,64.8v7.8h-1v-7.8H262.9z"/>
				<path class="st112" d="M245.8,82.6h2.6v-7.5l0.6,0.6l0.1-0.1c1.9-1.6,2.5-3.7,2.6-4.7h0.7v2.2c0,1.7,0.3,1.8,2,1.8h1.5v5.4
					c0,0.7,0,0.8-0.3,0.8c-0.3,0-1-0.1-1.8-0.2l-0.2,0l0.6,1.5h2.1c2.1,0,2.2-0.4,2.2-2.1V69.6h-12.7V82.6z M255.9,70.9v2.6h-0.8
					c-0.8,0-0.8,0-0.8-0.7v-2H255.9z M249.7,70.9c-0.1,1.4-0.8,2.7-1.3,3.4v-3.4H249.7z"/>
				<polygon class="st112" points="255.7,75.9 248.6,75.9 248.6,77.2 250.7,77.2 250.7,81.6 253.3,81.6 253.3,77.2 255.7,77.2 				
					"/>
				<rect x="244.9" y="59.8" class="st112" width="14.2" height="1.3"/>
				<path class="st112" d="M257.5,68v-5.3h-10.8V68H257.5z M254.8,64.1v2.6h-5.2v-2.6H254.8z"/>
				<path class="st112" d="M292.5,72.1l0.1,0.1l1.9-2.4l-0.1-0.1c-1-1.1-1.9-1.7-4.6-3.5l-0.1-0.1l-0.8,1.1l-0.1,0.1l0.1,0.1
					C290,68.5,291.7,70.7,292.5,72.1z"/>
				<path class="st112" d="M292.8,65.9l0.1,0.1l1.9-2.2l0.1-0.1l-0.1-0.1c-1.7-1.7-3.9-2.8-4.6-3.2l-0.1-0.1l-0.8,1l0.1,0.1
					C290.8,63,291.5,64,292.8,65.9z"/>
				<path class="st112" d="M288.4,73.3L288.4,73.3c-2.5-2.5-3.5-5.3-3.8-6.1v-0.5h3.4v-1.3h-3.4v-3.8l0.1,0c0.5-0.1,1.4-0.2,2.6-0.4
					c0.3,0.1,0.4,0.1,0.6,0.1c0.3,0,0.4-0.2,0.4-0.3c0-0.1-0.1-0.3-0.2-0.4l-1.5-1.8l-0.1,0c-2.2,1.4-7.7,1.7-9.5,1.8l-0.2,0
					l0.6,1.4l0,0.1h0.1c1.2,0,2.6-0.1,4.1-0.2v3.5H277v1.3h4.5c-0.9,3.7-2.7,7.1-5,9.5l-0.1,0.1l0.9,1l0.1-0.1
					c1.5-1.3,3-2.8,4.3-4.8v10.2h3V71.5c0.5,0.7,1.4,1.7,2.8,2.9l0.1,0.1L288.4,73.3z"/>
				<path class="st112" d="M298.8,72.1V59.8c0.1-0.2,0.3-0.4,0.3-0.6c0-0.3-0.4-0.3-0.5-0.3c0,0,0,0,0,0l-2.7-0.1l-0.1,0l0,0.2
					c0.1,0.3,0.1,0.6,0.1,1.5v12.5l-8.2,2.4l-0.1,0l0.5,1.3l7.8-2.3v8.1h2.9v-9l3.7-1.1l-0.4-1.3L298.8,72.1z"/>
				<path class="st112" d="M318.8,70.8l-0.2-1.5l-0.1,0.1c-1.2,0.6-1.6,0.8-2.6,1.3l-0.1,0v-5.1h2.8v-1.3h-2.8v-4.5
					c0.1-0.2,0.2-0.5,0.2-0.6c0-0.2-0.2-0.3-0.5-0.3l-2.8-0.1l0,0.1c0.1,0.6,0.1,1.2,0.1,1.9v3.6h-3.6v1.3h3.6V72
					c-0.1,0-0.2,0.1-0.3,0.1c-0.8,0.3-2.4,0.9-3.7,1.2l-0.1,0l0.7,2.2c0,0.2,0.2,0.3,0.3,0.3c0.2,0,0.4-0.2,0.5-0.5
					c1-0.5,1.3-0.6,2-1l0.6-0.3v5.9c0,0.8,0,1-0.7,1c-0.5,0-1-0.1-1.8-0.2l-0.2,0l0.3,1.7h2.9c2.3,0,2.3-0.7,2.3-2.5v-7.4
					C316.6,72.1,317.7,71.5,318.8,70.8L318.8,70.8z"/>
				<path class="st112" d="M334.5,81.2c-1.9-0.5-4.2-1.4-6.3-3.2c1.9-2,4-4.9,4.6-9.4l0-0.1h-5.1v-4.2h6.5v-1.4h-6.5v-3l0.1-0.1
					c0.1-0.2,0.3-0.3,0.3-0.6c0-0.2-0.2-0.4-0.4-0.4l-3.1-0.1l0.1,0.3c0.1,0.4,0.2,0.9,0.2,1.5v2.3h-6v1.4h6v4.2h-5.3v1.4h9.9
					c-0.4,2.4-1.3,4.5-2.9,6.4c-1.2-1.6-2.1-3.7-2.4-5.8l0-0.1l-2.9,0.8l0,0.1c0.7,3.5,2.8,6,3.6,6.8c-1.2,0.9-3.6,2.5-7.5,3.4
					l-0.2,0l0.8,1.3l0.1,0c4.5-0.9,7.1-2.5,8.3-3.3c0.9,0.7,3.3,2.3,7.2,3.2l0.1,0l1-1.3L334.5,81.2z"/>
			</g>
			<g>
				<g>
					<rect x="111.1" y="14.1" class="st110" width="5.6" height="5.3"/>
					<rect x="111.2" y="23.4" class="st111" width="5.4" height="21.4"/>
				</g>
				<polygon class="st111" points="145.6,44.8 151.3,44.8 151.3,32.7 164.8,32.7 164.8,27.7 151.3,27.7 151.3,18.5 166.8,18.5 
					166.8,13.5 145.6,13.5 				"/>
				<rect x="170.1" y="13.2" class="st111" width="5.4" height="31.6"/>
				<path class="st111" d="M195.4,34.4c0,3.4-1.9,5.8-4.8,5.8c-2.9,0-4.8-2.3-4.8-5.8V22.7h-5.4v12c0,6.1,4.1,10.1,10.2,10.1
					c6.1,0,10.2-4.1,10.2-10.1v-12h-5.4V34.4z"/>
				<path class="st111" d="M131.2,22.7c-6.1,0-10.2,4.1-10.2,10.1v12h5.4V33.2c0-3.4,2-5.8,4.8-5.8c2.9,0,4.8,2.3,4.8,5.8v11.7h5.4
					v-12C141.4,26.8,137.4,22.7,131.2,22.7z"/>
				<polygon class="st111" points="226.9,23.4 220.4,23.4 215.7,30.3 211,23.4 204.5,23.4 212,34 204.4,44.8 210.7,44.8 215.8,37.6 
					220.6,44.8 226.9,44.8 219.3,34 				"/>
				<path class="st113" d="M244.6,22.1v6.6H240v2.1h4.6v14h2.5v-14h6.7v-2.1h-6.7v-6.6c0-3.2,1.9-5.2,4.8-5.2c0.6,0,1.2,0.1,1.9,0.3
					V15c-0.8-0.2-1.6-0.3-2.3-0.3C247.4,14.7,244.6,17.7,244.6,22.1z"/>
				<g>
					<rect x="258.7" y="14.8" class="st110" width="2.6" height="5.2"/>
					<rect x="258.7" y="24.2" class="st113" width="2.5" height="20.7"/>
				</g>
				<path class="st113" d="M318.6,22.9c-5.9,0-10,4.5-10,11c0,6.5,4.2,10.9,10.2,10.9c4.2,0,7.6-2.1,8.8-5.5h-2.7
					c-1.1,2.3-3.4,3.4-6.1,3.4c-4.2,0-7.4-3.3-7.7-7.9h17.3v-0.8C328.3,27.5,324.5,22.9,318.6,22.9z M311,33c0.3-4.7,3.4-8,7.7-8
					c4.4,0,7,3.8,7.1,8H311z"/>
				<path class="st113" d="M341.3,25.1c3.4,0,5.8,1.9,6.5,5h2.5c-0.8-4.5-4.5-7.1-9.1-7.1c-6,0-10.2,4.5-10.2,11
					c0,6.4,4.2,10.9,10.2,10.9c4.6,0,8.2-2.7,9.1-7.1h-2.5c-0.7,3-3.2,5-6.5,5c-4.5,0-7.7-3.6-7.7-8.8
					C333.6,28.7,336.8,25.1,341.3,25.1z"/>
				<path class="st113" d="M364.3,23.5c-0.1,0-0.2,0-0.3,0c-0.2,0-0.4,0-0.6,0c-2.7,0-5,0.9-6.6,2.6V14.4h-2.5v18.2v12.2v0h2.5v0h0
					V33.1c0.4-4.2,3.2-7.4,7-7.4c0.2,0,0.3,0,0.4,0c2.6,0.3,4.6,2,5.3,4.6c0.2,0.7,0.3,1.5,0.3,2.4v12.1h2.5v0V32.6v0
					C372.4,27.3,369.2,23.5,364.3,23.5z"/>
				<path class="st113" d="M276,23.5c-5.3,0-9.1,3.6-9.1,9.1v12.2h2.5V32.7c0-4.2,2.8-7,6.5-7c3.8,0,6.6,2.7,6.6,7v12.1h2.5V32.6
					C285.1,27.2,281.3,23.5,276,23.5z"/>
				<polygon class="st113" points="298.1,15.1 295.6,15.1 284.3,15.1 284.3,17.2 295.6,17.2 295.6,44.8 298.1,44.8 298.1,17.2 
					309.3,17.2 309.3,15.1 				"/>
			</g>
		</g>
	</g>
	<g>
		<g>
			<g>
				<path class="st114" d="M558.2,52.5h4.5c1.2-3.9,2-8,2.6-12.1h-4.2C560.6,43.5,559.2,49.9,558.2,52.5z M578.1,35.2h-6.7v-2.8h6.7
					v-3.5h-3.3c0.5-1.6,0.9-3.5,1.3-5.1h1.7v-3.5h-6.5c-0.4-1-0.9-2.5-1.2-3.4h-4.9c0.3,1.1,0.7,2.4,1.1,3.4h-6.4v3.5h1.8
					c0.3,1.6,0.8,3.5,1.2,5.1h-3.3v3.5h7v2.8h-7v3.5h7v15h4.9v-15h6.7V35.2z M570.7,28.9h-3.7c-0.4-1.6-0.9-3.6-1.1-5.1h6.1
					C571.6,25.3,571.1,27.3,570.7,28.9z M585,29v-5.4c0-0.4,0.3-0.8,0.8-0.9c3.5-0.5,6.2-1,9.6-2v-3.5c-4,0.9-8.7,1.7-12.8,2.3
					c-0.7,0.1-1.3,0.4-1.7,0.9c-0.5,0.6-0.8,1.4-0.8,2.2v17.1c0,5-0.9,10.5-3.2,14h5.3c2.3-4.4,2.8-10.9,2.8-16.6v-4.7h3.7v21.2h4.9
					V32.5h2.3V29H585z M576.6,40.4h-4c0.2,2.7,0.6,6.6,1.2,9.4h4.2C577.3,47.2,576.8,43.2,576.6,40.4z"/>
				<path class="st114" d="M637.4,18.9h-5.2c-1.2,3.9-2.5,7.7-5,11.1h5.7C635,26.4,636.4,22.6,637.4,18.9z M615.8,29.9
					c-2.2-3.5-3.8-7.3-5.1-11.1h-5.2c1.3,3.7,2.7,7.6,4.8,11.1H615.8z M631.5,50c-0.8,0-1.4-0.6-1.4-1.4V35.8h9.6v-3.7h-15.5V16.8
					h-5.6v15.3h-15.7v3.7h9.6c0.7,11.4-6.6,15.8-10.5,17.9h8.2c2.8-2,8-6,7.8-17.9h6.6v13.4c0,3.3,1.8,4.5,3.9,4.5h10.8l1.6-3.8
					H631.5z"/>
				<path class="st114" d="M658.1,37.6h5.1v-3.5h-5.1v-3.3h5.1v-3.5h-15.3v3.5h5.4v3.3h-5.4v3.5h5.4v11.9c-1.7,0.3-4.4,0.7-5.7,0.9
					v3.7c3.8-0.6,12.2-2.2,16.4-3.3v-3.7c-1.4,0.4-4.1,1.1-5.7,1.5V37.6z M651.9,47.3c-0.6-2-1.2-6-1.4-8.1h-3.6
					c0.2,2.1,0.9,6.2,1.4,8.1H651.9z M658.8,46.3h3.7c0.5-1.9,1.1-5.3,1.2-7h-3.5C659.9,41.3,659.4,44.2,658.8,46.3z M658.3,16.8
					h-6.1c-1.8,0-2.6,1.1-2.8,1.6c-0.5,1.3-1.7,5-2.9,7.6h4.7c0.7-1.7,1.4-3.9,1.9-5.1c0.1-0.4,0.6-0.7,1-0.7h2.4
					c0.4,0,0.8,0.3,1,0.7c0.4,1.2,1.2,3.4,1.9,5.1h4.7c-1.2-2.6-2.4-6.3-2.9-7.6C660.9,17.8,660.1,16.8,658.3,16.8z M679.8,46.4
					c2-3.2,3.9-6.4,4.9-8.7h-4.5c-0.6,1.4-1.6,3.2-2.5,4.8c-0.8-1.6-1.5-3.2-2-4.7H671c1.9,6,5.4,12.4,8.6,16.1h5.8
					C683.7,52.1,681.7,49.4,679.8,46.4z M670,49.3V35.5h9.9c1.2,0,2.2-0.5,2.9-1.3c0.5-0.6,0.8-1.5,0.8-2.4V20.4
					c0-1.2-0.5-2.1-1.2-2.8c-0.7-0.5-1.6-0.9-2.6-0.9h-10.8c-1.1,0-2,0.4-2.7,1.1c-0.7,0.7-1.1,1.8-1.1,3.1v29.3
					c0,0.8,0.4,1.7,1.1,2.4c0.6,0.6,1.5,1.1,2.5,1.1h5l2.1-3.3H671C670.5,50.5,670,50,670,49.3z M670,21.2c0-0.5,0.5-1,1-1h6.6
					c0.5,0,1.1,0.6,1.1,1.1v3H670V21.2z M670,27.9h8.8v3c0,0.5-0.4,1-1,1H670V27.9z"/>
				<path class="st114" d="M727.4,17.8h-20.7v3.7h20.7V17.8z M703.5,16.8h-4.9c-1.2,2.2-4.7,7.1-8,10.9h5.4
					C699.1,24,702.6,18.6,703.5,16.8z M689.5,40.3h5.2c0.7-0.6,1.6-1.6,2.5-2.7l-0.2,4v12.1h4.8V31.3c1.4-2.1,2.5-3.9,2.9-4.8h-4.8
					C698.4,29.3,693.2,36.7,689.5,40.3z M705.5,28.4v3.7h13.3v16.6c0,0.8-0.5,1.2-1,1.2h-7.4l1.6,3.7h9.1c1.7,0,3.3-1.5,3.3-3.2
					V32.2h4.1v-3.7H705.5z"/>
			</g>
			<g>
				<path class="st114" d="M714.5,78.1c0-0.6,0-1.3,0.1-1.9c0-0.6,0-1.4,0-2.2c0-1.6-0.3-2.8-1-3.5c-0.7-0.7-1.7-1.1-2.9-1.1
					c-0.8,0-1.5,0.2-2.1,0.6c-0.6,0.4-1.1,0.9-1.6,1.6H707l0.1-1.9h-3.6c0.1,0.9,0.1,1.8,0.2,2.7c0,0.9,0,1.8,0,2.8v1c0,1,0,2,0,2.9
					s-0.1,1.7-0.2,2.6h3.7c-0.1-0.8-0.1-1.7-0.2-2.6c0-0.9,0-1.8,0-2.9v-1c0-1.1,0.2-2,0.5-2.7c0.3-0.6,0.9-1,1.6-1
					c0.6,0,1.1,0.2,1.5,0.7c0.4,0.5,0.5,1.2,0.5,2.3c0,1.5,0,2.8-0.1,4c0,1.2-0.1,2.2-0.2,3h3.8c0-0.6-0.1-1.2-0.1-1.8
					C714.6,79.3,714.5,78.7,714.5,78.1z M700.7,80.5c-0.1-0.1-0.2-0.3-0.3-0.5c-0.1-0.2-0.1-0.5-0.1-0.9c0-0.9,0-1.8,0-2.7
					c0-0.9,0-1.9,0-2.9c0-0.7-0.1-1.3-0.3-1.9c-0.2-0.5-0.5-0.9-0.9-1.3c-0.4-0.3-0.9-0.6-1.4-0.7c-0.5-0.1-1.1-0.2-1.8-0.2
					c-0.8,0-1.6,0.1-2.4,0.4c-0.8,0.3-1.6,0.7-2.3,1.3l0.3,1.5h0.2c0.1-0.2,0.3-0.3,0.5-0.5c0.2-0.2,0.5-0.3,0.8-0.4
					c0.3-0.1,0.6-0.2,0.9-0.3c0.3-0.1,0.6-0.1,0.9-0.1c0.7,0,1.3,0.2,1.7,0.6c0.4,0.4,0.6,0.9,0.6,1.5c0,0.2,0,0.4-0.1,0.6
					c-0.1,0.1-0.2,0.3-0.4,0.4c-0.2,0.1-0.5,0.2-0.9,0.4c-0.4,0.1-0.9,0.3-1.7,0.4c-0.6,0.1-1.1,0.3-1.5,0.5
					c-0.5,0.2-0.8,0.4-1.2,0.7c-0.3,0.3-0.6,0.6-0.8,1c-0.2,0.4-0.3,0.9-0.3,1.4c0,0.4,0.1,0.8,0.2,1.2c0.1,0.4,0.3,0.7,0.6,1
					c0.3,0.3,0.7,0.5,1.1,0.7c0.5,0.2,1,0.2,1.6,0.2c0.8,0,1.4-0.2,1.9-0.5c0.5-0.3,0.9-0.7,1.3-1.3c0.2,0.6,0.5,1,0.8,1.3
					c0.4,0.3,0.9,0.4,1.5,0.4c0.4,0,0.7-0.1,1.1-0.2c0.3-0.1,0.8-0.2,1.2-0.4v-0.6c-0.2,0-0.5,0-0.7,0
					C701,80.7,700.8,80.6,700.7,80.5z M697.2,76.3c0,0.4,0,0.9,0,1.6c0,0.8-0.2,1.4-0.5,1.8c-0.3,0.4-0.8,0.6-1.3,0.6
					c-0.4,0-0.8-0.1-1-0.5c-0.3-0.3-0.4-0.8-0.4-1.4c0-0.6,0.1-1.1,0.3-1.4c0.2-0.3,0.5-0.6,0.8-0.8c0.3-0.2,0.7-0.3,1-0.5
					c0.4-0.1,0.7-0.3,1.1-0.5C697.2,75.6,697.2,75.9,697.2,76.3z M727.7,80.9c-0.2-0.4-0.5-0.8-0.8-1.4c-0.3-0.5-0.6-1.1-1-1.6
					c-0.3-0.6-0.7-1.1-1-1.6c-0.3-0.5-0.6-0.9-0.8-1.3c-0.1-0.1-0.3-0.5-0.6-0.9c0.4-0.4,0.7-0.8,0.9-1c0.3-0.4,0.7-0.8,1.1-1.2
					c0.4-0.4,0.7-0.8,1.1-1.2c0.3-0.4,0.8-0.8,1-1h-2.8c-0.7,0.8-1.3,1.3-1.9,2c-0.6,0.6-1.1,1.1-1.5,1.6c-0.2,0.2-0.4,0.4-0.6,0.6
					c0-0.2,0-0.4,0-0.6v-1.6c0-1.6,0-3.1,0-4.5c0-1.4,0.1-2.7,0.1-4.1h-3.7c0.1,1.4,0.1,2.8,0.1,4.1c0,1.3,0.1,2.8,0.1,4.5v1.6
					c0,1.6,0,3.1-0.1,4.5c0,1.4-0.1,2.7-0.1,4h3.7c-0.1-1.3-0.1-2.7-0.1-4c0-0.6,0-1.3,0-1.9c0.7,1.1,1.6,2.6,1.8,2.9
					c0.3,0.5,0.5,0.9,0.8,1.3c0.2,0.4,0.5,0.8,0.7,1.1c0.2,0.3,0.3,0.5,0.4,0.6h3.8C728.1,81.6,727.9,81.3,727.7,80.9z M687,73.6
					c-0.5-0.3-0.9-0.6-1.4-0.7c-0.5-0.2-1-0.2-1.3-0.3v0c0.4-0.1,0.8-0.2,1.3-0.4c0.5-0.2,0.9-0.4,1.3-0.8c0.4-0.3,0.7-0.7,1-1.2
					c0.3-0.5,0.4-1.1,0.4-1.8c0-0.7-0.1-1.3-0.4-1.7c-0.2-0.5-0.6-0.9-1-1.2c-0.4-0.3-0.9-0.5-1.5-0.7c-0.6-0.1-1.3-0.2-2.1-0.2
					h-6.5c0.1,1.1,0.1,2.1,0.2,3.2c0,1.1,0.1,2.3,0.1,3.7v3.4c0,1.4,0,2.6-0.1,3.7c0,1.1-0.1,2.1-0.2,3.1h6.2c0.8,0,1.5-0.1,2.2-0.2
					c0.7-0.2,1.3-0.4,1.8-0.8c0.5-0.4,0.9-0.9,1.3-1.5c0.3-0.6,0.5-1.4,0.5-2.3c0-0.8-0.2-1.4-0.5-1.9
					C687.8,74.4,687.5,73.9,687,73.6z M680.6,68c0-0.6,0-1.2,0.1-1.9c0.2,0,0.3-0.1,0.5-0.1c0.1,0,0.4,0,0.8,0
					c0.5,0,0.9,0.1,1.3,0.2c0.3,0.2,0.6,0.4,0.8,0.6c0.2,0.3,0.4,0.6,0.5,0.9c0.1,0.4,0.1,0.7,0.1,1.1c0,0.5-0.1,1-0.3,1.4
					c-0.2,0.4-0.4,0.7-0.7,1c-0.3,0.3-0.6,0.5-0.9,0.6c-0.3,0.1-0.7,0.2-1.1,0.2h-1.1c0-0.4,0-0.8,0-1.3c0-0.4,0-0.8,0-1.3
					C680.6,69.1,680.6,68.6,680.6,68z M684.6,78.4c-0.1,0.4-0.4,0.8-0.6,1.1c-0.3,0.3-0.5,0.5-0.9,0.6c-0.3,0.2-0.7,0.2-1.1,0.2
					c-0.3,0-0.5,0-0.7,0c-0.2,0-0.4,0-0.7,0c0-0.2,0-0.5,0-0.8c0-0.3,0-0.7,0-1.1c0-0.4,0-0.8,0-1.2c0-0.4,0-0.8,0-1.2
					c0-0.5,0-1,0-1.3c0-0.4,0-0.7,0-1.1c0.2,0,0.3,0,0.5,0c0.2,0,0.4,0,0.6,0c1,0,1.8,0.3,2.3,0.9c0.5,0.6,0.8,1.4,0.8,2.6
					C684.8,77.5,684.7,78,684.6,78.4z"/>
				<path class="st114" d="M625.7,77.3c-0.7-0.9-1.4-1.9-2.1-2.9c-0.6-0.9-1.4-1.9-2-2.7c0.7-0.8,1.4-1.6,1.7-2
					c0.6-0.7,1.2-1.3,1.8-2c0.6-0.7,1.2-1.3,1.8-1.9c0.6-0.6,1-1,1.2-1.3h-3.4c-0.2,0.3-0.4,0.5-0.9,1.1c-0.5,0.5-1,1.2-1.6,1.9
					c-0.6,0.7-1.2,1.3-1.8,2.1c-0.5,0.6-1,1.1-1.6,1.7v-1.2c0-1.2,0-2.3,0-3.3c0-1,0.1-1.7,0.2-2.2h-3.8c0.1,1.1,0.1,2.1,0.1,3.2
					c0,1,0,2.3,0,3.7v3.4c0,1.3,0,2.6,0,3.7c0,1-0.1,2.1-0.1,3.1h3.8c-0.1-0.8-0.2-1.8-0.2-3.1c0-1.3,0-2.9,0-4.6v-0.4l0,0.1
					c0.8,1.1,1.7,2.3,3,4.2c0.9,1.3,1.8,2.6,2.8,3.8h4.5c-0.3-0.4-0.8-1-1.4-1.8C627,79.1,626.4,78.3,625.7,77.3z M584.6,78.1
					c0-0.6,0-1.3,0-1.9c0-0.6,0-1.4,0-2.2c0-1.6-0.3-2.8-0.9-3.5c-0.6-0.7-1.5-1.1-2.8-1.1c-0.8,0-1.5,0.2-2.2,0.6
					c-0.6,0.4-1.2,0.9-1.6,1.6l-0.1,0c0-1.6,0-3.1,0.1-4.5c0-1.4,0.1-2.7,0.2-4.1h-3.7c0.1,1.4,0.1,2.8,0.1,4.1c0,1.3,0,2.8,0,4.5
					v1.6c0,1.6,0,3.1,0,4.5c0,1.4-0.1,2.7-0.1,4h3.7c0-0.4-0.1-0.9-0.1-1.4c0-0.5,0-1.1-0.1-1.6c0-0.5,0-1,0-1.4c0-0.4,0-0.8,0-1v-1
					c0-1.1,0.2-2,0.5-2.7c0.4-0.6,0.9-1,1.7-1c0.7,0,1.2,0.2,1.5,0.7c0.4,0.5,0.5,1.3,0.5,2.3c0,1.5,0,2.8-0.1,4
					c0,1.2-0.1,2.2-0.2,3h3.6c0-0.6-0.1-1.2-0.1-1.8C584.6,79.3,584.6,78.7,584.6,78.1z M605.2,78.1c0-0.6,0-1.3,0-1.9
					c0-0.6,0-1.4,0-2.2c0-1.6-0.3-2.8-1-3.5c-0.6-0.7-1.5-1.1-2.8-1.1c-0.8,0-1.5,0.2-2.2,0.6c-0.6,0.4-1.2,0.9-1.6,1.6h0l0.1-1.9
					h-3.6c0.1,0.9,0.1,1.8,0.2,2.7c0,0.9,0,1.8,0,2.8v1c0,1,0,2,0,2.9c0,0.9-0.1,1.7-0.2,2.6h3.7c-0.1-0.8-0.1-1.7-0.2-2.6
					c0-0.9,0-1.8,0-2.9v-1c0-1.1,0.2-2,0.5-2.7c0.4-0.6,0.9-1,1.7-1c0.7,0,1.2,0.2,1.5,0.7c0.4,0.5,0.5,1.3,0.5,2.3
					c0,1.5,0,2.8-0.1,4c0,1.2-0.1,2.2-0.2,3h3.6c0-0.6-0.1-1.2-0.1-1.8C605.2,79.3,605.2,78.7,605.2,78.1z M589.5,63.1
					c-0.6,0-1,0.2-1.4,0.6c-0.4,0.4-0.6,0.8-0.6,1.4c0,0.5,0.2,1,0.6,1.4c0.4,0.4,0.9,0.6,1.4,0.6c0.6,0,1-0.2,1.4-0.6
					c0.4-0.4,0.6-0.8,0.6-1.4c0-0.5-0.2-1-0.6-1.4C590.5,63.3,590,63.1,589.5,63.1z M591.2,72.4c0-0.9,0.1-1.8,0.2-2.7h-3.8
					c0.1,0.9,0.1,1.8,0.2,2.7c0,0.9,0,1.8,0,2.8v1c0,1,0,2,0,2.9c0,0.9-0.1,1.7-0.2,2.6h3.8c-0.1-0.8-0.1-1.7-0.2-2.6
					c0-0.9,0-1.8,0-2.9v-1C591.2,74.3,591.2,73.3,591.2,72.4z M661.8,79.8c-0.7,0-1.2-0.1-1.5-0.4c-0.3-0.2-0.5-0.6-0.5-1
					c0-0.2,0.1-0.4,0.2-0.6c0.1-0.2,0.3-0.3,0.5-0.3c0.2,0,0.4,0,0.6,0c0.2,0,0.4,0,0.5,0c0.7,0,1.4-0.1,2-0.3
					c0.6-0.2,1.1-0.5,1.5-0.8c0.4-0.4,0.7-0.8,0.9-1.3c0.2-0.5,0.3-1.1,0.3-1.7c0-0.6-0.1-1.2-0.3-1.6c-0.2-0.5-0.5-0.8-1-1.1l0.1,0
					l2.1,0.1v-1.2c-0.4,0-0.9,0-1.3,0c-0.4,0-0.8,0-1.2,0c-0.3,0-0.5,0-0.7,0c-0.2,0-0.4,0-0.7,0c-0.3,0-0.6,0-0.9-0.1
					c-0.3,0-0.6,0-0.9,0c-0.8,0-1.5,0.1-2.2,0.3c-0.7,0.2-1.2,0.4-1.7,0.8c-0.4,0.3-0.8,0.8-1,1.2c-0.2,0.5-0.4,1.1-0.4,1.7
					c0,1.1,0.3,1.9,0.8,2.6c0.5,0.7,1.3,1.1,2.3,1.3v0.1c-0.7,0.2-1.3,0.5-1.7,1.1c-0.4,0.5-0.6,1-0.6,1.6c0,0.4,0.1,0.7,0.3,1
					c0.2,0.3,0.5,0.5,0.8,0.6l0,0c-0.7,0.3-1.1,0.6-1.5,1.1c-0.4,0.5-0.6,1.2-0.6,2c0,1,0.4,1.8,1.2,2.5c0.9,0.6,2.1,0.9,3.7,0.9
					c2.7,0,6.4-1,6.4-4.3C667.5,80.6,665.5,79.8,661.8,79.8z M661.5,70.5c0.5,0,0.8,0.2,1.1,0.7c0.3,0.5,0.5,1.2,0.5,2.3
					c0,1.1-0.1,2-0.4,2.4c-0.3,0.5-0.7,0.7-1.2,0.7c-0.2,0-0.4-0.1-0.6-0.1c-0.2-0.1-0.4-0.3-0.5-0.5c-0.2-0.2-0.3-0.5-0.4-0.9
					c-0.1-0.4-0.1-0.8-0.1-1.4C659.8,71.5,660.3,70.5,661.5,70.5z M664.6,85.2c-0.1,0.3-0.3,0.6-0.6,0.8c-0.3,0.2-0.6,0.4-0.9,0.6
					c-0.4,0.1-0.8,0.2-1.2,0.2c-0.4,0-0.8-0.1-1.2-0.2c-0.4-0.1-0.7-0.3-1-0.5c-0.3-0.2-0.5-0.5-0.7-0.8c-0.2-0.3-0.2-0.7-0.2-1.2
					c0-0.6,0.1-1.2,0.3-1.6c0.2-0.4,0.5-0.6,0.7-0.7c0.3-0.2,0.8-0.3,1.6-0.3c0.5,0,1,0,1.4,0.1c0.4,0.1,0.8,0.2,1.1,0.4
					c0.3,0.2,0.5,0.4,0.7,0.7c0.2,0.3,0.2,0.8,0.2,1.3C664.8,84.5,664.7,84.9,664.6,85.2z M634.9,69.4c-1.9,0-3.3,0.5-4.4,1.6
					c-1.1,1.1-1.6,2.6-1.6,4.4c0,1,0.1,1.9,0.5,2.7c0.3,0.8,0.7,1.5,1.3,2.1c0.5,0.6,1.2,1,2,1.3c0.7,0.3,1.5,0.4,2.4,0.4
					c0.9,0,1.6-0.1,2.4-0.4c0.8-0.3,1.4-0.7,1.9-1.3c0.6-0.6,1-1.3,1.3-2.1c0.3-0.8,0.5-1.7,0.5-2.7c0-1.9-0.5-3.3-1.6-4.4
					C638.2,70,636.8,69.4,634.9,69.4z M634.9,80.9c-1.5,0-2.3-1.9-2.3-5.8c0-1.5,0.2-2.6,0.5-3.4c0.3-0.8,1-1.2,1.8-1.2
					c0.8,0,1.4,0.4,1.8,1.2c0.3,0.8,0.5,1.9,0.5,3.4C637.2,79,636.4,80.9,634.9,80.9z M654.1,78.1c0-0.6,0-1.3,0-1.9
					c0-0.6,0-1.4,0-2.2c0-1.6-0.3-2.8-1-3.5c-0.7-0.7-1.6-1.1-2.9-1.1c-0.8,0-1.5,0.2-2.2,0.6c-0.6,0.4-1.1,0.9-1.6,1.6h0l0.1-1.9
					h-3.5c0.1,0.9,0.1,1.8,0.2,2.7c0,0.9,0,1.8,0,2.8v1c0,1,0,2,0,2.9c0,0.9-0.1,1.7-0.2,2.6h3.6c-0.1-0.8-0.1-1.7-0.2-2.6
					c0-0.9,0-1.8,0-2.9v-1c0-1.1,0.2-2,0.5-2.7c0.3-0.6,0.9-1,1.6-1c0.7,0,1.2,0.2,1.5,0.7c0.4,0.5,0.5,1.3,0.5,2.3c0,1.5,0,2.8,0,4
					c0,1.2-0.1,2.2-0.2,3h3.8c0-0.6-0.1-1.2-0.1-1.8C654.1,79.3,654.1,78.7,654.1,78.1z M570.8,74.1c-0.4-0.6-1-1.1-1.7-1.5
					c-0.7-0.4-1.3-0.8-2.1-1c-0.7-0.3-1.4-0.6-2.1-0.9c-0.6-0.3-1.2-0.6-1.6-1c-0.4-0.4-0.7-0.9-0.7-1.5c0-0.6,0.2-1.1,0.7-1.6
					c0.5-0.4,1.2-0.7,2-0.7c2,0,3.4,0.7,4.2,2.1h0.2l0.8-2.5c-0.6-0.4-1.4-0.7-2.2-0.9c-0.8-0.2-1.8-0.3-3-0.3
					c-0.8,0-1.6,0.1-2.4,0.3c-0.7,0.2-1.4,0.6-1.9,1c-0.5,0.5-1,1-1.3,1.7c-0.3,0.7-0.4,1.4-0.4,2.3c0.1,0.9,0.3,1.7,0.8,2.3
					c0.4,0.6,1,1.1,1.6,1.5c0.6,0.4,1.3,0.8,2.1,1c0.7,0.3,1.4,0.6,2.1,0.9c0.6,0.3,1.2,0.6,1.6,1.1c0.4,0.4,0.7,0.9,0.7,1.5
					c0,0.7-0.2,1.3-0.7,1.8c-0.5,0.5-1.3,0.9-2.4,0.8c-0.6-0.1-1.2-0.1-1.7-0.3c-0.5-0.2-1-0.4-1.3-0.7c-0.4-0.3-0.8-0.7-1-1
					c-0.3-0.3-0.4-0.8-0.6-1.2l-0.3,0l-0.9,2.7c0.5,0.3,1.5,1,2.3,1.3c0.9,0.3,1.8,0.7,2.9,0.7c1.2,0.1,2.1-0.1,3-0.4
					c0.9-0.3,1.6-0.8,2.2-1.2c0.6-0.5,1.1-1.1,1.4-1.8c0.3-0.7,0.4-1.4,0.4-2.3C571.5,75.5,571.2,74.7,570.8,74.1z"/>
			</g>
		</g>
		<g>
			<g>
				<g>
					<path class="st115" d="M511.8,27.4c-6.5-5.1-21.6-8.9-38.4-10c-3-0.2-6.1-0.4-9.1-0.4c-2.8,0-5.6,0.1-8.4,0.3l0,0
						c-17.1,1-32.6,4.9-39.2,10.1c-2.6,2-3.8,4.9-3.8,7.9c0,2.5,0.4,4.8,2.7,6.8c6.1,5.5,23.7,10.8,40.3,12.6
						c2.8,0.3,5.7,0.5,8.4,0.5c2.9,0,6.1-0.2,9.1-0.5c16.3-1.6,33.5-7,39.5-12.5c2.2-2,2.8-4.3,2.8-6.8
						C515.6,32.3,514.4,29.4,511.8,27.4z M496.9,42.2c-3.8,4.4-12.4,8.2-23.5,9.7c-2.8,0.4-5.9,0.6-9.1,0.6c-2.9,0-5.8-0.2-8.4-0.5
						c-11.5-1.3-20.4-5.2-24.3-9.7c-1.5-1.8-2.2-4.4-2.2-6.3c0-2,0.8-5.2,4-7.6c4.2-3.2,12.4-6.5,22.5-7.9c2.6-0.4,5.5-0.5,8.4-0.6
						c3.1,0.1,6.2,0.3,9.1,0.8c9.8,1.4,17.7,4.6,21.8,7.8c3.1,2.4,4,5.6,4,7.6C499.1,37.7,498.5,40.4,496.9,42.2z"/>
					<path class="st116" d="M472,30.7c0.5-0.1,1-0.2,1.4-0.4c0.7-0.2,1.3-0.6,2.1-1c0.5-0.5,1-0.9,1.4-1.5c0.2-1,0.2-1.8,0-2.7
						c-0.5-0.4-0.9-0.8-1.6-1.1c-0.7-0.1-1.3-0.2-2,0c-0.4,0.1-0.8,0.5-1.1,0.9c-1.6,1.9-2.5,3.4-2.5,6
						C470.5,30.9,471.3,30.8,472,30.7z M455.9,29.6c0.6,0.3,1.3,0.5,1.7,0.7c0.4,0.2,1.4,0.4,1.6,0c0.4-0.7,0.1-1.7,0-2.5
						c-0.2-1.1-0.8-2.1-1.5-3.1c-0.5-0.6-1.1-1.3-1.9-1.6c-0.1,0-0.1-0.1-0.2-0.1c-0.7-0.2-1.6-0.2-2.1,0.2c-0.8,0.7-1.6,2-1.2,3.3
						C452.8,28,454.4,29,455.9,29.6z M473.4,44h-0.1c-0.4-0.2-0.7-0.5-0.7-1.2v-5h4.6v-5.4h-3.7l-5.9-0.1l0.1-9.5h-6.1v9.5l-5.6,0.1
						h-4.3v5.4h4.6c-0.1,1.1-0.1,2.3-0.1,3.2c-0.1,0.3-0.1,0.6-0.1,0.9c-0.2,0.9-0.5,1.8-1,2.7c-0.8,1.3-1.7,2.4-2.5,3.7
						c-0.1,0.7,0.6,0.7,0.9,0.6c1-0.5,1.8-1,2.5-1.5c0.7-0.5,1.5-1.1,2.4-1.7c1.2-0.9,2.4-2.5,3.1-3.6c0.7-1,1.2-1.7,1.7-3.2l0.2-1
						l2.4-0.1l0.6,0.4l-0.1,8.3c0.2,1.2,1.1,2,1.7,2.2l3.7,0.1l1.8-0.1l1.1-0.1c1.9-1.2,2.5-2.3,2.8-4.7L473.4,44z"/>
				</g>
			</g>
			<g>
				<path class="st114" d="M501.1,65.5c0-0.2,0.2-0.5,0.5-0.5h7.9c0.2,0,0.5,0.3,0.5,0.5v2.6h2.5v-3c0-0.9-0.6-2.1-2.1-2.1H507
					c-0.3-0.6-0.6-1.4-0.8-2.1h-2.9c0.2,0.6,0.5,1.5,0.8,2.1h-3.2c-1.5,0-2.1,1.1-2.1,2.1v3h2.5V65.5z M499,72.3h3.3
					c1.5-1.1,2.5-3.4,2.6-5.9h-2.6C502.1,70.1,499.7,71.8,499,72.3z M506.2,66.4V70c0,1.6,1.1,2.3,2.5,2.3h3.2l0.6-2h-3
					c-0.4,0-0.6-0.2-0.6-0.5v-3.4H506.2z M498.3,69.9c-0.5,0.2-1.2,0.6-1.8,0.8V67h1.4V65h-1.4v-4.1h-2.8V65h-2.2l0,2.1h2.2v4.9
					c-0.7,0.3-1.7,0.6-2.4,0.8V75c0.7-0.2,1.7-0.6,2.4-0.9v5.2c0,0.4-0.3,0.5-0.6,0.5h-1.6l0.6,2h2.2c1.4,0,2.2-1.1,2.2-2.1v-6.9
					c0.5-0.2,1.2-0.5,1.8-0.8V69.9z M506.8,79.8v-4.5h5.1v-2H499v2h4.7v4.5h-5.6v2h14.4v-2H506.8z"/>
				<path class="st114" d="M482.7,78.9c0.6-1.5,1.2-3,1.6-4.6h-2.8c-0.5,1.6-1,3.1-1.9,4.6H482.7z M472.2,74.3h-2.9
					c0.5,1.6,1.1,3.1,1.7,4.6h3.1C473.3,77.4,472.7,75.9,472.2,74.3z M478.5,73.4h8v-2.1h-8v-2.8h3.6v-1.8c1,1.2,1.4,1.7,1.8,2h3.8
					c-1.9-1.9-3.9-4.1-5.3-6.2c-0.2-0.3-0.9-1.4-2.3-1.4h-6.6c-1.3,0-2,1-2.3,1.4c-1.4,2.1-3.4,4.3-5.3,6.2h3.8
					c0.4-0.4,0.9-0.9,1.8-2v1.7h3.6v2.8h-8v2.1h8v6.4h-8.7v2.1h20.8v-2.1h-8.7V73.4z M471.8,66.5c0.6-0.7,1.3-1.6,2.2-2.8
					c0.2-0.3,0.4-0.4,0.8-0.4h3.9c0.4,0,0.6,0.1,0.8,0.4c0.9,1.2,1.7,2.1,2.2,2.8H471.8z"/>
				<path class="st114" d="M416,81.1h2.6c0.7-2.2,1.1-4.6,1.5-6.9h-2.4C417.3,76,416.5,79.6,416,81.1z M427.3,71.3h-3.8v-1.6h3.8v-2
					h-1.9c0.3-0.9,0.5-2,0.7-2.9h1v-2h-3.7c-0.2-0.6-0.5-1.4-0.7-2h-2.8c0.2,0.6,0.4,1.4,0.6,2h-3.6v2h1c0.2,0.9,0.4,2,0.7,2.9h-1.9
					v2h4v1.6h-4v2h4v8.5h2.8v-8.5h3.8V71.3z M423.1,67.7h-2.1c-0.2-0.9-0.5-2.1-0.7-2.9h3.5C423.6,65.6,423.3,66.8,423.1,67.7z
					 M431.2,67.7v-3c0-0.3,0.2-0.5,0.4-0.5c2-0.3,3.5-0.6,5.5-1.1v-2c-2.3,0.5-4.9,1-7.3,1.3c-0.4,0.1-0.7,0.2-1,0.5
					c-0.3,0.3-0.4,0.8-0.4,1.2v9.7c0,2.8-0.5,5.9-1.8,7.9h3c1.3-2.5,1.6-6.2,1.6-9.4v-2.7h2.1v12h2.8v-12h1.3v-2H431.2z M426.4,74.2
					h-2.3c0.1,1.5,0.4,3.8,0.7,5.3h2.4C426.8,78.1,426.5,75.8,426.4,74.2z"/>
				<path class="st114" d="M460.9,62h-3c-0.7,2.2-1.4,4.3-2.8,6.3h3.2C459.5,66.3,460.3,64.2,460.9,62z M448.6,68.3
					c-1.3-2-2.2-4.1-2.9-6.3h-2.9c0.8,2.1,1.5,4.3,2.7,6.3H448.6z M457.5,79.6c-0.5,0-0.8-0.3-0.8-0.8v-7.3h5.4v-2.1h-8.8v-8.7h-3.2
					v8.7h-8.9v2.1h5.5c0.4,6.5-3.8,8.9-5.9,10.2h4.7c1.6-1.1,4.6-3.4,4.4-10.2h3.7v7.6c0,1.9,1.1,2.6,2.2,2.6h6.1l0.9-2.1H457.5z"/>
			</g>
			<rect x="534.7" y="17" class="st115" width="5.7" height="64.8"/>
		</g>
	</g>
</g>
</svg>
