<?xml version="1.0" encoding="utf-8"?>
<!-- Generator: Adobe Illustrator 24.2.1, SVG Export Plug-In . SVG Version: 6.00 Build 0)  -->
<svg version="1.1" id="圖層_1" xmlns="http://www.w3.org/2000/svg" xmlns:xlink="http://www.w3.org/1999/xlink" x="0px" y="0px"
	 viewBox="0 0 570.7 371.7" style="enable-background:new 0 0 570.7 371.7;" xml:space="preserve">
<style type="text/css">
	.st0{opacity:0.75;}
	.st1{fill:#EEEEEF;}
	.st2{fill:url(#SVGID_3_);}
	.st3{fill:url(#SVGID_4_);}
	.st4{fill:url(#SVGID_5_);}
	.st5{fill:url(#SVGID_6_);}
	.st6{fill:url(#SVGID_7_);}
	.st7{fill:url(#SVGID_8_);}
	.st8{fill:#888888;}
	.st9{fill:#FFFFFF;}
	.st10{fill:#D0392A;}
	.st11{filter:url(#Adobe_OpacityMaskFilter);}
	.st12{fill:none;stroke:#3E3A39;stroke-width:2;stroke-miterlimit:10;}
	.st13{opacity:0.3;fill:#FFFFFF;}
	.st14{fill:#036EB7;}
	.st15{fill:url(#SVGID_10_);}
	.st16{fill:url(#SVGID_11_);}
	.st17{fill:url(#SVGID_12_);}
	.st18{fill:url(#SVGID_13_);}
	.st19{fill:url(#SVGID_14_);}
	.st20{fill:url(#SVGID_15_);}
	.st21{fill:url(#SVGID_16_);}
	.st22{fill:url(#SVGID_17_);}
	.st23{fill:url(#SVGID_18_);}
	.st24{fill:url(#SVGID_19_);}
	.st25{fill:url(#SVGID_20_);}
	.st26{fill:url(#SVGID_21_);}
	.st27{fill:url(#SVGID_22_);}
	.st28{fill:url(#SVGID_23_);}
	.st29{fill:url(#SVGID_24_);}
	.st30{fill:url(#SVGID_25_);}
	.st31{fill:url(#SVGID_26_);}
	.st32{fill:url(#SVGID_27_);}
	.st33{fill:url(#SVGID_28_);}
	.st34{fill:url(#SVGID_29_);}
	.st35{fill:url(#SVGID_30_);}
	.st36{fill:url(#SVGID_31_);}
	.st37{fill:url(#SVGID_32_);}
	.st38{fill:url(#SVGID_33_);}
	.st39{fill:url(#SVGID_34_);}
	.st40{fill:url(#SVGID_35_);}
	.st41{fill:url(#SVGID_36_);}
	.st42{fill:url(#SVGID_37_);}
	.st43{fill:url(#SVGID_38_);}
	.st44{fill:url(#SVGID_39_);}
	.st45{fill:url(#SVGID_40_);}
	.st46{fill:url(#SVGID_41_);}
	.st47{fill:url(#SVGID_42_);}
	.st48{fill:url(#SVGID_43_);}
	.st49{fill:url(#SVGID_44_);}
	.st50{fill:url(#SVGID_45_);}
	.st51{fill:url(#SVGID_46_);}
	.st52{fill:url(#SVGID_47_);}
	.st53{fill:url(#SVGID_48_);}
	.st54{fill:url(#SVGID_49_);}
	.st55{fill:url(#SVGID_50_);}
	.st56{fill:url(#SVGID_51_);}
	.st57{fill:url(#SVGID_52_);}
	.st58{fill:url(#SVGID_53_);}
	.st59{fill:url(#SVGID_54_);}
	.st60{fill:url(#SVGID_55_);}
	.st61{fill:url(#SVGID_56_);}
	.st62{fill:url(#SVGID_57_);}
	.st63{fill:url(#SVGID_58_);}
	.st64{fill:url(#SVGID_59_);}
	.st65{fill:url(#SVGID_60_);}
	.st66{fill:url(#SVGID_61_);}
	.st67{fill:url(#SVGID_62_);}
	.st68{fill:url(#SVGID_63_);}
	.st69{fill:url(#SVGID_64_);}
	.st70{fill:url(#SVGID_65_);}
	.st71{fill:url(#SVGID_66_);}
	.st72{fill:none;stroke:#036EB7;stroke-width:2;stroke-miterlimit:10;}
	.st73{fill:url(#SVGID_67_);}
	.st74{fill:url(#SVGID_68_);}
	.st75{fill:url(#SVGID_69_);}
	.st76{fill:url(#SVGID_70_);}
	.st77{fill:url(#SVGID_71_);}
	.st78{fill:url(#SVGID_72_);}
	.st79{fill:url(#SVGID_73_);}
	.st80{fill:url(#SVGID_74_);}
	.st81{fill:url(#SVGID_75_);}
	.st82{fill:url(#SVGID_76_);}
	.st83{fill:url(#SVGID_77_);}
	.st84{fill:url(#SVGID_78_);}
	.st85{fill:url(#SVGID_79_);}
	.st86{fill:#B3B3B3;}
	.st87{fill:#777778;}
	.st88{fill:url(#SVGID_80_);}
	.st89{fill:url(#SVGID_81_);}
	.st90{fill:url(#SVGID_82_);}
	.st91{fill:url(#SVGID_83_);}
	.st92{fill:url(#SVGID_84_);}
	.st93{fill:url(#SVGID_85_);}
	.st94{fill:url(#SVGID_86_);}
	.st95{clip-path:url(#SVGID_88_);fill:url(#SVGID_89_);}
	.st96{clip-path:url(#SVGID_91_);}
	.st97{fill:url(#SVGID_92_);}
	.st98{fill:url(#SVGID_93_);}
	.st99{fill:url(#SVGID_94_);}
	.st100{fill:#124380;}
	.st101{opacity:0.82;fill:url(#SVGID_95_);}
	.st102{opacity:0.21;fill:url(#SVGID_96_);}
	.st103{opacity:0.82;fill:url(#SVGID_97_);}
	.st104{opacity:0.21;fill:url(#SVGID_98_);}
	.st105{opacity:0.82;fill:url(#SVGID_99_);}
	.st106{opacity:0.21;fill:url(#SVGID_100_);}
	.st107{fill:#C7391A;}
	.st108{fill:#083A6E;}
	.st109{fill:#3D3A39;}
	.st110{fill:#0A559A;}
	.st111{fill:#2E3D47;}
	.st112{fill:#E72410;}
	.st113{fill-rule:evenodd;clip-rule:evenodd;fill:#E72410;}
	.st114{fill:#124385;}
	.st115{opacity:0.82;fill:url(#SVGID_101_);}
	.st116{opacity:0.21;fill:url(#SVGID_102_);}
	.st117{opacity:0.82;fill:url(#SVGID_103_);}
	.st118{opacity:0.21;fill:url(#SVGID_104_);}
	.st119{opacity:0.82;fill:url(#SVGID_105_);}
	.st120{opacity:0.21;fill:url(#SVGID_106_);}
	.st121{fill:#CE391A;}
	.st122{fill:url(#SVGID_107_);}
	.st123{fill:none;stroke:url(#SVGID_108_);stroke-width:2;stroke-miterlimit:10;}
	.st124{fill:url(#SVGID_109_);}
	.st125{fill:url(#SVGID_112_);}
	.st126{clip-path:url(#SVGID_114_);}
	.st127{fill:none;stroke:#FF9825;stroke-width:1.4185;stroke-linecap:round;stroke-miterlimit:10;}
	.st128{fill:url(#SVGID_117_);}
	.st129{fill:url(#SVGID_120_);}
	.st130{clip-path:url(#SVGID_122_);}
	.st131{fill:url(#SVGID_125_);}
	.st132{fill:none;stroke:url(#SVGID_126_);stroke-width:2;stroke-miterlimit:10;}
	.st133{fill:url(#SVGID_127_);}
	.st134{fill:url(#SVGID_128_);}
	.st135{fill:url(#SVGID_129_);}
	.st136{fill:url(#SVGID_130_);}
	.st137{fill:url(#SVGID_131_);}
	.st138{fill:#717071;}
	.st139{fill:#E50012;}
	.st140{fill:url(#SVGID_132_);}
	.st141{fill:url(#SVGID_133_);}
	.st142{fill:url(#SVGID_134_);}
	.st143{fill:url(#SVGID_135_);}
	.st144{fill:url(#SVGID_136_);}
	.st145{fill:url(#SVGID_137_);}
	.st146{fill:url(#SVGID_138_);}
	.st147{fill:url(#SVGID_139_);}
	.st148{fill:url(#SVGID_140_);}
	.st149{fill:url(#SVGID_141_);}
	.st150{fill:url(#SVGID_142_);}
	.st151{fill:url(#SVGID_143_);}
	.st152{fill:url(#SVGID_144_);}
	.st153{fill:url(#SVGID_145_);}
	.st154{fill:url(#SVGID_146_);}
	.st155{fill:url(#SVGID_147_);}
	.st156{fill:url(#SVGID_148_);}
	.st157{fill:url(#SVGID_149_);}
	.st158{fill:url(#SVGID_150_);}
	.st159{fill:url(#SVGID_151_);}
	.st160{fill:url(#SVGID_152_);}
	.st161{fill:url(#SVGID_153_);}
	.st162{fill:url(#SVGID_154_);}
	.st163{fill:url(#SVGID_155_);}
	.st164{fill:url(#SVGID_156_);}
	.st165{fill:url(#SVGID_157_);}
	.st166{fill:url(#SVGID_158_);}
	.st167{fill:url(#SVGID_159_);}
	.st168{fill:url(#SVGID_160_);}
	.st169{fill:url(#SVGID_161_);}
	.st170{fill:url(#SVGID_162_);}
	.st171{fill:url(#SVGID_163_);}
	.st172{fill:url(#SVGID_164_);}
	.st173{fill:url(#SVGID_165_);}
	.st174{fill:url(#SVGID_166_);}
	.st175{fill:url(#SVGID_167_);}
	.st176{fill:url(#SVGID_168_);}
	.st177{clip-path:url(#SVGID_170_);fill:url(#SVGID_171_);}
	.st178{clip-path:url(#SVGID_173_);}
	.st179{fill:url(#SVGID_174_);}
	.st180{fill:url(#SVGID_175_);}
	.st181{fill:url(#SVGID_176_);}
	.st182{fill:url(#SVGID_177_);}
	.st183{fill:none;stroke:url(#SVGID_178_);stroke-width:2;stroke-miterlimit:10;}
	.st184{fill:url(#SVGID_179_);}
	.st185{fill:url(#SVGID_182_);}
	.st186{clip-path:url(#SVGID_184_);}
	.st187{fill:url(#SVGID_187_);}
	.st188{fill:url(#SVGID_190_);}
	.st189{clip-path:url(#SVGID_192_);}
</style>
<g>
	<g class="st0">
		
			<image style="overflow:visible;opacity:0.15;" width="2459" height="1629" xlink:href="A089433D.png"  transform="matrix(0.24 0 0 0.24 -7.1453 -7.1222)">
		</image>
		<g>
			<path class="st1" d="M541,361.7H21c-11,0-20-9-20-20V21C1,10,10,1,21,1h520c11,0,20,9,20,20v320.7C561,352.7,552,361.7,541,361.7
				z"/>
		</g>
	</g>
	<g>
		<g>
			<path class="st14" d="M184.1,220.1v25.8h-4.4v-42.1h17.8v16.4H184.1z M184.1,207v3.2h9.2V207H184.1z M193.3,216.8v-3.5h-9.2v3.5
				H193.3z M206,234.7V245h-4v-10.3h-5.8c-0.4,3.2-1.9,8.1-6.3,11c-0.6-0.8-2-2-2.9-2.6c3.6-2.2,4.9-5.8,5.3-8.4h-5.5V231h5.6v-4.6
				h-4.8v-3.6H211v3.6h-5v4.6h6v3.7H206z M202,231v-4.6h-5.7v4.6H202z M219.4,240.4c0,2.4-0.5,3.7-2.1,4.5c-1.5,0.7-3.9,0.9-7.5,0.8
				c-0.1-1.2-0.8-3.2-1.4-4.4c2.4,0,4.9,0,5.7,0c0.7,0,1-0.3,1-1v-20.2h-13.8v-16.5h18.2V240.4z M205.5,207v3.2h9.5V207H205.5z
				 M215,216.9v-3.6h-9.5v3.6H215z"/>
			<path class="st14" d="M239.2,233.1c-0.3,4.5-1.7,9.5-6,12.9c-0.6-0.9-1.8-2.2-2.6-2.9c3.5-2.5,4.4-6.5,4.7-10h-4.4v-3.6h4.5v-5
				h-5.1v-3.6h7.5c0.7-2.5,1.6-6.2,1.9-8.8l3.5,0.7c-0.8,2.7-1.6,5.7-2.3,8.1h3.6v3.6h-5.2v5h4.4v3.6H239.2z M244.4,211.7h-13.7V208
				h5.1c-0.5-1.5-1.2-3.2-2-4.6l3.7-1.1c1,1.7,2,4,2.5,5.7h4.4V211.7z M233,220.6c0-2-0.5-5.2-1.3-7.6l3-0.7
				c0.8,2.4,1.4,5.5,1.5,7.5L233,220.6z M257.7,214.3c-0.3,20.4-0.5,27-1.6,28.9c-0.7,1.2-1.5,1.6-2.7,1.8c-1,0.2-2.4,0.1-3.8,0.1
				c0-1.1-0.4-2.6-1-3.6c1.3,0.1,2.4,0.1,3.1,0.1c0.5,0,0.9-0.1,1.2-0.8c0.7-1.2,1-7.2,1.2-24.5h-2.7c-0.5,12.3-2,22.3-6.8,29.7
				c-0.5-0.7-2.1-2-2.9-2.6c4.4-6.3,5.9-15.6,6.3-27h-2.6v-3.8h2.7c0-3.4,0-7,0-10.6h3.5c0,3.7,0,7.2-0.1,10.6h6.3V214.3z
				 M268.9,224.5v5.7h4.8v3.6h-4.8v12h-4v-12h-4.6v-3.6h4.6v-5.7h-5.5v-3.6h8c0.8-2.5,1.6-6.4,2-9l3.4,0.8c-0.6,2.7-1.4,5.8-2.2,8.2
				h3.6v3.6H268.9z M273.7,211.6h-14.1v-3.6h5.2c-0.5-1.6-1.3-3.4-2.1-4.8l3.7-1.1c1,1.8,2,4.1,2.7,5.9h4.6V211.6z M262.2,220.7
				c0-2.1-0.6-5.3-1.4-7.8l3-0.8c0.9,2.4,1.5,5.6,1.6,7.7L262.2,220.7z"/>
			<path class="st14" d="M314.1,238.7c4.5,1.4,9.1,3.1,12.1,4.3l-3.3,2.7c-3.1-1.5-8.5-3.6-13.8-5.3l1.8-1.8h-12.7l3.5,1.5
				c-3.9,2.3-9.9,4.4-14.7,5.7c-0.7-0.9-2.3-2.5-3.2-3.3c4.7-0.8,10.1-2.3,13.5-3.9h-7.4V224c-1.2,0.3-2.5,0.6-3.9,0.9
				c-0.4-1-1.4-2.7-2.1-3.5c5.8-0.9,9.3-2.3,11.3-3.9H287c0.5-2.3,1-5.5,1.3-8.1h9.3V207h-11.3v-2.8h11.3v-2.4h4v2.4h6.5v-2.4h4.2
				v2.4h10.4v7.9h-10.4v2.5h13.4c0,0,0,0.8-0.1,1.3c-0.3,2.7-0.6,4.2-1.2,5c-0.7,0.6-1.5,0.9-2.5,1c-0.3,0-0.6,0-1.1,0v16.8H314.1z
				 M291.9,212.1c-0.1,0.9-0.3,1.7-0.4,2.5h5.6c0.3-0.8,0.5-1.6,0.6-2.5H291.9z M316.5,223.4h-22.4v2.4h22.4V223.4z M316.5,228.4
				h-22.4v2.5h22.4V228.4z M294.1,236h22.4v-2.5h-22.4V236z M300.4,217.5c-0.7,1.2-1.6,2.2-2.9,3.2h10.7v-3.2H300.4z M308.2,212.1
				h-6.5c0,0.9-0.1,1.7-0.3,2.5h6.8V212.1z M301.7,209.3h6.5V207h-6.5V209.3z M312.4,207v2.4h6.3V207H312.4z M312.4,217.5v3.2h5.1
				c-0.1-0.6-0.4-1.1-0.6-1.5c1.3,0.1,2.4,0.2,2.9,0.2c0.5,0,0.8,0,1.1-0.3c0.2-0.2,0.3-0.6,0.5-1.5H312.4z"/>
			<path class="st14" d="M376.5,240.3c0,2.6-0.6,3.9-2.4,4.6c-1.8,0.7-4.6,0.8-9,0.8c-0.2-1.2-0.9-3.2-1.5-4.3
				c3.1,0.1,6.2,0.1,7.2,0.1c0.9,0,1.2-0.3,1.2-1.2v-8.6h-11.6v13.7h-4.5v-13.7h-11c-0.8,5.3-2.5,10.7-6,14.5
				c-0.7-0.9-2.5-2.4-3.5-2.9c5.2-5.8,5.7-14.3,5.7-21.1v-17.1h35.4V240.3z M355.9,227.4v-7.1h-10.4v1.9c0,1.6,0,3.4-0.2,5.2H355.9z
				 M345.5,209.3v6.8h10.4v-6.8H345.5z M372,209.3h-11.6v6.8H372V209.3z M372,227.4v-7.1h-11.6v7.1H372z"/>
		</g>
	</g>
	<g>
		<g>
			<path class="st139" d="M214,298c1,1.1,2.5,1.9,4.1,1.9c3,0,5.6-2.4,5.9-9.6c-1.5,1.8-3.6,2.9-5.5,2.9c-4.2,0-7-2.6-7-7.9
				c0-5,3.4-8.2,7.4-8.2c4.8,0,8.7,3.9,8.7,12.1c0,9.9-4.5,13.8-9.3,13.8c-2.9,0-4.9-1.2-6.4-2.7L214,298z M223.9,287.3
				c-0.4-4.9-2.2-7.2-5-7.2c-2.1,0-3.8,1.9-3.8,5.2c0,3.2,1.4,5,4,5C220.6,290.4,222.4,289.5,223.9,287.3z"/>
			<path class="st139" d="M234.6,307.2c2.3-1,3.7-2.7,3.7-4.7c-0.1,0-0.2,0-0.4,0c-1.4,0-2.6-0.9-2.6-2.5c0-1.5,1.2-2.5,2.7-2.5
				c1.9,0,3,1.6,3,4.2c0,3.6-2.1,6.3-5.6,7.6L234.6,307.2z"/>
			<path class="st139" d="M247.9,290c0-8.7,3.2-12.9,8.1-12.9c4.9,0,8.1,4.3,8.1,12.9c0,8.7-3.2,13.1-8.1,13.1
				C251,303.1,247.9,298.7,247.9,290z M260.3,290c0-7.2-1.8-9.8-4.4-9.8c-2.5,0-4.4,2.6-4.4,9.8c0,7.2,1.8,10,4.4,10
				C258.5,300,260.3,297.3,260.3,290z"/>
			<path class="st139" d="M270.7,290c0-8.7,3.2-12.9,8.1-12.9c4.9,0,8.1,4.3,8.1,12.9c0,8.7-3.2,13.1-8.1,13.1
				C273.8,303.1,270.7,298.7,270.7,290z M283.1,290c0-7.2-1.8-9.8-4.4-9.8c-2.5,0-4.4,2.6-4.4,9.8c0,7.2,1.8,10,4.4,10
				C281.3,300,283.1,297.3,283.1,290z"/>
			<path class="st139" d="M293.4,290c0-8.7,3.2-12.9,8.1-12.9c4.9,0,8.1,4.3,8.1,12.9c0,8.7-3.2,13.1-8.1,13.1
				C296.6,303.1,293.4,298.7,293.4,290z M305.9,290c0-7.2-1.8-9.8-4.4-9.8c-2.5,0-4.4,2.6-4.4,9.8c0,7.2,1.8,10,4.4,10
				C304.1,300,305.9,297.3,305.9,290z"/>
			<path class="st139" d="M342.6,301.7c1.3,0,1.5-0.9,1.6-5.9c0.7,0.6,2.1,1.1,3,1.4c-0.3,5.9-1.2,7.5-4.3,7.5h-4.5
				c-3.4,0-4.2-1.1-4.2-4.4V289h-5.8c-0.6,7.2-2.1,13.1-10.1,16.3c-0.3-0.8-1.3-1.9-2-2.5c7.1-2.7,8.3-7.7,8.7-13.7h-8.2v-3.1h29.9
				v3.1h-9.2v11.3c0,1.2,0.2,1.4,1.4,1.4H342.6z M343.7,279.7h-23.9v-3.1h23.9V279.7z"/>
		</g>
	</g>
	<g>
		
			<linearGradient id="SVGID_2_" gradientUnits="userSpaceOnUse" x1="185.0476" y1="44.7766" x2="314.3775" y2="174.1065" gradientTransform="matrix(1 0 0 -1 0 177.8356)">
			<stop  offset="0" style="stop-color:#606EB2"/>
			<stop  offset="1" style="stop-color:#4490CC"/>
		</linearGradient>
		<path style="fill:url(#SVGID_2_);" d="M237.1,67h32.1c1.1,0,2-0.9,2-2c0-1.1-0.9-2-2-2h-32.1c-1.1,0-2,0.9-2,2
			C235.1,66.1,236,67,237.1,67z"/>
		
			<linearGradient id="SVGID_3_" gradientUnits="userSpaceOnUse" x1="188.0553" y1="41.7689" x2="317.3852" y2="171.0988" gradientTransform="matrix(1 0 0 -1 0 177.8356)">
			<stop  offset="0" style="stop-color:#606EB2"/>
			<stop  offset="1" style="stop-color:#4490CC"/>
		</linearGradient>
		<path class="st2" d="M237.1,73h32.1c1.1,0,2-0.9,2-2s-0.9-2-2-2h-32.1c-1.1,0-2,0.9-2,2S236,73,237.1,73z"/>
		
			<linearGradient id="SVGID_4_" gradientUnits="userSpaceOnUse" x1="188.0553" y1="41.7689" x2="317.3852" y2="171.0988" gradientTransform="matrix(1 0 0 -1 0 177.8356)">
			<stop  offset="0" style="stop-color:#606EB2"/>
			<stop  offset="1" style="stop-color:#4490CC"/>
		</linearGradient>
		<path class="st3" d="M237.1,79h20.1c1.1,0,2-0.9,2-2s-0.9-2-2-2h-20.1c-1.1,0-2,0.9-2,2S236,79,237.1,79z"/>
		
			<linearGradient id="SVGID_5_" gradientUnits="userSpaceOnUse" x1="222.143" y1="7.6812" x2="351.4729" y2="137.0111" gradientTransform="matrix(1 0 0 -1 0 177.8356)">
			<stop  offset="0" style="stop-color:#606EB2"/>
			<stop  offset="1" style="stop-color:#4490CC"/>
		</linearGradient>
		<path class="st4" d="M297.2,123.1h-60.2c-1.1,0-2,0.9-2,2s0.9,2,2,2h60.2c1.1,0,2-0.9,2-2S298.3,123.1,297.2,123.1z"/>
		
			<linearGradient id="SVGID_6_" gradientUnits="userSpaceOnUse" x1="225.1508" y1="4.6735" x2="354.4806" y2="134.0033" gradientTransform="matrix(1 0 0 -1 0 177.8356)">
			<stop  offset="0" style="stop-color:#606EB2"/>
			<stop  offset="1" style="stop-color:#4490CC"/>
		</linearGradient>
		<path class="st5" d="M297.2,129.2h-60.2c-1.1,0-2,0.9-2,2c0,1.1,0.9,2,2,2h60.2c1.1,0,2-0.9,2-2
			C299.2,130.1,298.3,129.2,297.2,129.2z"/>
		
			<linearGradient id="SVGID_7_" gradientUnits="userSpaceOnUse" x1="218.1327" y1="11.6915" x2="347.4626" y2="141.0214" gradientTransform="matrix(1 0 0 -1 0 177.8356)">
			<stop  offset="0" style="stop-color:#606EB2"/>
			<stop  offset="1" style="stop-color:#4490CC"/>
		</linearGradient>
		<path class="st6" d="M257.1,135.2h-20.1c-1.1,0-2,0.9-2,2c0,1.1,0.9,2,2,2h20.1c1.1,0,2-0.9,2-2
			C259.1,136.1,258.2,135.2,257.1,135.2z"/>
		
			<linearGradient id="SVGID_8_" gradientUnits="userSpaceOnUse" x1="203.094" y1="26.7302" x2="332.4239" y2="156.0601" gradientTransform="matrix(1 0 0 -1 0 177.8356)">
			<stop  offset="0" style="stop-color:#606EB2"/>
			<stop  offset="1" style="stop-color:#4490CC"/>
		</linearGradient>
		<path class="st7" d="M237.1,119.1h32.1c1.1,0,2-0.9,2-2V85c0-1.1-0.9-2-2-2h-32.1c-1.1,0-2,0.9-2,2v32.1
			C235.1,118.2,236,119.1,237.1,119.1z M239.1,87.1h28.1v28.1h-28.1V87.1z"/>
		<g>
			<defs>
				<polygon id="SVGID_169_" points="272.8,101.1 272.8,59.6 317.8,59.6 317.8,32.6 214.8,32.6 214.8,169 317.8,169 317.8,119.1 
					314.2,114.3 281.9,114.3 272.8,114.3 				"/>
			</defs>
			<clipPath id="SVGID_9_">
				<use xlink:href="#SVGID_169_"  style="overflow:visible;"/>
			</clipPath>
			
				<linearGradient id="SVGID_10_" gradientUnits="userSpaceOnUse" x1="210.2116" y1="19.6129" x2="339.5415" y2="148.9427" gradientTransform="matrix(1 0 0 -1 0 177.8356)">
				<stop  offset="0" style="stop-color:#606EB2"/>
				<stop  offset="1" style="stop-color:#4490CC"/>
			</linearGradient>
			<path style="clip-path:url(#SVGID_9_);fill:url(#SVGID_10_);" d="M343.9,121.9l-16.3-17.8c-0.4-0.4-0.9-0.6-1.4-0.6
				c-0.5,0-1.1,0.2-1.5,0.6l-3.3-3.3c6.3-10.3,4.8-23.6-3.8-32.1c-1.3-1.3-2.8-2.5-4.4-3.6V40.9c0-1.1-0.9-2-2-2H223
				c-1.1,0-2,0.9-2,2v120.3c0,1.1,0.9,2,2,2h88.2c1.1,0,2-0.9,2-2v-51.6l3,3c-0.8,0.8-0.8,2-0.1,2.8l16.3,17.8c0,0,0,0,0.1,0.1
				c2.7,2.7,7.2,2.7,9.9,0l1.4-1.4C346.6,129.1,346.7,124.7,343.9,121.9L343.9,121.9z M289.2,42.9h20.1v20c-0.7-0.3-1.3-0.5-2-0.7
				V46.9c0-1.1-0.9-2-2-2h-16V42.9z M249.1,42.9h36.1v7c0,1.7-1.3,3-3,3h-30.1c-1.7,0-3-1.3-3-3V42.9z M252.1,57h30.1
				c3.9,0,7-3.1,7-7v-1h14v12.4c-1.3-0.2-2.7-0.3-4-0.3c-14.4,0-26.1,11.7-26.1,26.1s11.7,26.1,26.1,26.1c0,0,0,0,0,0
				c1.3,0,2.7-0.1,4-0.3v24.3h-14c-1.1,0-2,0.9-2,2v14h-56.1V49h14v1C245.1,53.8,248.2,57,252.1,57z M300.4,141.2l-9.2,9.2v-9.2
				H300.4z M309.3,159.2H225V42.9h20.1v2h-16c-1.1,0-2,0.9-2,2v108.3c0,1.1,0.9,2,2,2h60.2c0.5,0,1-0.2,1.4-0.6l16-16
				c0.4-0.4,0.6-0.9,0.6-1.4v-27.3c0.7-0.2,1.3-0.5,2-0.7V159.2z M314.8,102.7c-8.6,8.6-22.6,8.6-31.2,0c-8.6-8.6-8.6-22.6,0-31.2
				c8.6-8.6,22.6-8.6,31.2,0C323.5,80.1,323.5,94,314.8,102.7z M316.3,106.9l1.4-1.4c0,0,0,0,0,0c0,0,0,0,0,0l1.4-1.4l2.8,2.8
				l-2.8,2.8L316.3,106.9z M341.1,129l-1.4,1.4c-1.2,1.2-3,1.2-4.2,0l-15-16.4l0.1-0.1l0,0l5.6-5.6l14.9,16.3c0,0,0,0,0.1,0.1
				C342.3,125.9,342.3,127.8,341.1,129L341.1,129z"/>
		</g>
		<g>
			<defs>
				<rect id="SVGID_172_" x="271.3" y="62.5" width="75.9" height="48.1"/>
			</defs>
			<clipPath id="SVGID_11_">
				<use xlink:href="#SVGID_172_"  style="overflow:visible;"/>
			</clipPath>
			<g style="clip-path:url(#SVGID_11_);">
				
					<linearGradient id="SVGID_12_" gradientUnits="userSpaceOnUse" x1="260.1616" y1="9.4733" x2="387.655" y2="136.9667" gradientTransform="matrix(1 0 0 -1 0 177.8356)">
					<stop  offset="0" style="stop-color:#606EB2"/>
					<stop  offset="1" style="stop-color:#4490CC"/>
				</linearGradient>
				<path class="st17" d="M277.8,140.7c0,1.1,0.9,2,2,2h16c1.1,0,2-0.9,2-2s-0.9-2-2-2h-16C278.7,138.7,277.8,139.6,277.8,140.7z"/>
				
					<linearGradient id="SVGID_13_" gradientUnits="userSpaceOnUse" x1="233.092" y1="36.5429" x2="360.5854" y2="164.0363" gradientTransform="matrix(1 0 0 -1 0 177.8356)">
					<stop  offset="0" style="stop-color:#606EB2"/>
					<stop  offset="1" style="stop-color:#4490CC"/>
				</linearGradient>
				<path class="st18" d="M336.9,62.5h-13V31.5c0-3.9-3.1-7-7-7h-58.1c-3.9,0-7,3.1-7,7v110.3c0,3.9,3.1,7,7,7h58.1c3.9,0,7-3.1,7-7
					v-31.1h13c3.9,0,7-3.1,7-7V69.6C343.9,65.7,340.8,62.5,336.9,62.5z M297.2,28.5l-1,4h-16.9l-1-4H297.2z M319.9,141.7
					c0,1.7-1.3,3-3,3h-58.1c-1.7,0-3-1.3-3-3V31.5c0-1.7,1.3-3,3-3h15.5l1.6,6.5c0.2,0.9,1,1.5,1.9,1.5h20.1c0.9,0,1.7-0.6,1.9-1.5
					l1.6-6.5h15.5c1.7,0,3,1.3,3,3v31.1h-37.1c-3.9,0-7,3.1-7,7v34.1c0,3.9,3.1,7,7,7h37.1V141.7z M339.9,103.6c0,1.7-1.3,3-3,3
					h-54.1c-1.7,0-3-1.3-3-3v-1h60.2V103.6z M339.9,98.6h-60.2v-4h60.2V98.6z M339.9,90.6h-60.2V69.6c0-1.7,1.3-3,3-3h54.1
					c1.7,0,3,1.3,3,3V90.6z"/>
				
					<linearGradient id="SVGID_14_" gradientUnits="userSpaceOnUse" x1="230.0843" y1="39.5507" x2="357.5777" y2="167.0441" gradientTransform="matrix(1 0 0 -1 0 177.8356)">
					<stop  offset="0" style="stop-color:#606EB2"/>
					<stop  offset="1" style="stop-color:#4490CC"/>
				</linearGradient>
				<path class="st19" d="M296.8,68.6h-10c-2.8,0-5,2.2-5,5v6c0,2.8,2.2,5,5,5h10c2.8,0,5-2.2,5-5v-6
					C301.8,70.8,299.6,68.6,296.8,68.6z M296.8,80.6h-10c-0.6,0-1-0.4-1-1v-1h2c1.1,0,2-0.9,2-2s-0.9-2-2-2h-2v-1c0-0.6,0.4-1,1-1
					h10c0.6,0,1,0.4,1,1v1h-2c-1.1,0-2,0.9-2,2s0.9,2,2,2h2v1C297.8,80.1,297.4,80.6,296.8,80.6z"/>
			</g>
		</g>
	</g>
</g>
</svg>
