<?xml version="1.0" encoding="utf-8"?>
<!-- Generator: Adobe Illustrator 24.2.1, SVG Export Plug-In . SVG Version: 6.00 Build 0)  -->
<svg version="1.1" id="圖層_1" xmlns="http://www.w3.org/2000/svg" xmlns:xlink="http://www.w3.org/1999/xlink" x="0px" y="0px"
	 viewBox="0 0 570.7 371.7" style="enable-background:new 0 0 570.7 371.7;" xml:space="preserve">
<style type="text/css">
	.st0{opacity:0.75;}
	.st1{fill:#EEEEEF;}
	.st2{fill:url(#SVGID_3_);}
	.st3{fill:url(#SVGID_4_);}
	.st4{fill:url(#SVGID_5_);}
	.st5{fill:url(#SVGID_6_);}
	.st6{fill:url(#SVGID_7_);}
	.st7{fill:url(#SVGID_8_);}
	.st8{fill:#888888;}
	.st9{fill:#FFFFFF;}
	.st10{fill:#D0392A;}
	.st11{filter:url(#Adobe_OpacityMaskFilter);}
	.st12{fill:none;stroke:#3E3A39;stroke-width:2;stroke-miterlimit:10;}
	.st13{opacity:0.3;fill:#FFFFFF;}
	.st14{fill:#036EB7;}
	.st15{fill:url(#SVGID_10_);}
	.st16{fill:url(#SVGID_11_);}
	.st17{fill:url(#SVGID_12_);}
	.st18{fill:url(#SVGID_13_);}
	.st19{fill:url(#SVGID_14_);}
	.st20{fill:url(#SVGID_15_);}
	.st21{fill:url(#SVGID_16_);}
	.st22{fill:url(#SVGID_17_);}
	.st23{fill:url(#SVGID_18_);}
	.st24{fill:url(#SVGID_19_);}
	.st25{fill:url(#SVGID_20_);}
	.st26{fill:url(#SVGID_21_);}
	.st27{fill:url(#SVGID_22_);}
	.st28{fill:url(#SVGID_23_);}
	.st29{fill:url(#SVGID_24_);}
	.st30{fill:url(#SVGID_25_);}
	.st31{fill:url(#SVGID_26_);}
	.st32{fill:url(#SVGID_27_);}
	.st33{fill:url(#SVGID_28_);}
	.st34{fill:url(#SVGID_29_);}
	.st35{fill:url(#SVGID_30_);}
	.st36{fill:url(#SVGID_31_);}
	.st37{fill:url(#SVGID_32_);}
	.st38{fill:url(#SVGID_33_);}
	.st39{fill:url(#SVGID_34_);}
	.st40{fill:url(#SVGID_35_);}
	.st41{fill:url(#SVGID_36_);}
	.st42{fill:url(#SVGID_37_);}
	.st43{fill:url(#SVGID_38_);}
	.st44{fill:url(#SVGID_39_);}
	.st45{fill:url(#SVGID_40_);}
	.st46{fill:url(#SVGID_41_);}
	.st47{fill:url(#SVGID_42_);}
	.st48{fill:url(#SVGID_43_);}
	.st49{fill:url(#SVGID_44_);}
	.st50{fill:url(#SVGID_45_);}
	.st51{fill:url(#SVGID_46_);}
	.st52{fill:url(#SVGID_47_);}
	.st53{fill:url(#SVGID_48_);}
	.st54{fill:url(#SVGID_49_);}
	.st55{fill:url(#SVGID_50_);}
	.st56{fill:url(#SVGID_51_);}
	.st57{fill:url(#SVGID_52_);}
	.st58{fill:url(#SVGID_53_);}
	.st59{fill:url(#SVGID_54_);}
	.st60{fill:url(#SVGID_55_);}
	.st61{fill:url(#SVGID_56_);}
	.st62{fill:url(#SVGID_57_);}
	.st63{fill:url(#SVGID_58_);}
	.st64{fill:url(#SVGID_59_);}
	.st65{fill:url(#SVGID_60_);}
	.st66{fill:url(#SVGID_61_);}
	.st67{fill:url(#SVGID_62_);}
	.st68{fill:url(#SVGID_63_);}
	.st69{fill:url(#SVGID_64_);}
	.st70{fill:url(#SVGID_65_);}
	.st71{fill:url(#SVGID_66_);}
	.st72{fill:none;stroke:#036EB7;stroke-width:2;stroke-miterlimit:10;}
	.st73{fill:url(#SVGID_67_);}
	.st74{fill:url(#SVGID_68_);}
	.st75{fill:url(#SVGID_69_);}
	.st76{fill:url(#SVGID_70_);}
	.st77{fill:url(#SVGID_71_);}
	.st78{fill:url(#SVGID_72_);}
	.st79{fill:url(#SVGID_73_);}
	.st80{fill:url(#SVGID_74_);}
	.st81{fill:url(#SVGID_75_);}
	.st82{fill:url(#SVGID_76_);}
	.st83{fill:url(#SVGID_77_);}
	.st84{fill:url(#SVGID_78_);}
	.st85{fill:url(#SVGID_79_);}
	.st86{fill:#B3B3B3;}
	.st87{fill:#777778;}
	.st88{fill:url(#SVGID_80_);}
	.st89{fill:url(#SVGID_81_);}
	.st90{fill:url(#SVGID_82_);}
	.st91{fill:url(#SVGID_83_);}
	.st92{fill:url(#SVGID_84_);}
	.st93{fill:url(#SVGID_85_);}
	.st94{fill:url(#SVGID_86_);}
	.st95{clip-path:url(#SVGID_88_);fill:url(#SVGID_89_);}
	.st96{clip-path:url(#SVGID_91_);}
	.st97{fill:url(#SVGID_92_);}
	.st98{fill:url(#SVGID_93_);}
	.st99{fill:url(#SVGID_94_);}
	.st100{fill:#124380;}
	.st101{opacity:0.82;fill:url(#SVGID_95_);}
	.st102{opacity:0.21;fill:url(#SVGID_96_);}
	.st103{opacity:0.82;fill:url(#SVGID_97_);}
	.st104{opacity:0.21;fill:url(#SVGID_98_);}
	.st105{opacity:0.82;fill:url(#SVGID_99_);}
	.st106{opacity:0.21;fill:url(#SVGID_100_);}
	.st107{fill:#C7391A;}
	.st108{fill:#083A6E;}
	.st109{fill:#3D3A39;}
	.st110{fill:#0A559A;}
	.st111{fill:#2E3D47;}
	.st112{fill:#E72410;}
	.st113{fill-rule:evenodd;clip-rule:evenodd;fill:#E72410;}
	.st114{fill:#124385;}
	.st115{opacity:0.82;fill:url(#SVGID_101_);}
	.st116{opacity:0.21;fill:url(#SVGID_102_);}
	.st117{opacity:0.82;fill:url(#SVGID_103_);}
	.st118{opacity:0.21;fill:url(#SVGID_104_);}
	.st119{opacity:0.82;fill:url(#SVGID_105_);}
	.st120{opacity:0.21;fill:url(#SVGID_106_);}
	.st121{fill:#CE391A;}
	.st122{fill:url(#SVGID_107_);}
	.st123{fill:none;stroke:url(#SVGID_108_);stroke-width:2;stroke-miterlimit:10;}
	.st124{fill:url(#SVGID_109_);}
	.st125{fill:url(#SVGID_112_);}
	.st126{clip-path:url(#SVGID_114_);}
	.st127{fill:none;stroke:#FF9825;stroke-width:1.4185;stroke-linecap:round;stroke-miterlimit:10;}
	.st128{fill:url(#SVGID_117_);}
	.st129{fill:url(#SVGID_120_);}
	.st130{clip-path:url(#SVGID_122_);}
	.st131{fill:url(#SVGID_125_);}
	.st132{fill:none;stroke:url(#SVGID_126_);stroke-width:2;stroke-miterlimit:10;}
	.st133{fill:url(#SVGID_127_);}
	.st134{fill:url(#SVGID_128_);}
	.st135{fill:url(#SVGID_129_);}
	.st136{fill:url(#SVGID_130_);}
	.st137{fill:url(#SVGID_131_);}
	.st138{fill:#717071;}
	.st139{fill:#E50012;}
	.st140{fill:url(#SVGID_132_);}
	.st141{fill:url(#SVGID_133_);}
	.st142{fill:url(#SVGID_134_);}
	.st143{fill:url(#SVGID_135_);}
	.st144{fill:url(#SVGID_136_);}
	.st145{fill:url(#SVGID_137_);}
	.st146{fill:url(#SVGID_138_);}
	.st147{fill:url(#SVGID_139_);}
	.st148{fill:url(#SVGID_140_);}
	.st149{fill:url(#SVGID_141_);}
	.st150{fill:url(#SVGID_142_);}
	.st151{fill:url(#SVGID_143_);}
	.st152{fill:url(#SVGID_144_);}
	.st153{fill:url(#SVGID_145_);}
	.st154{fill:url(#SVGID_146_);}
	.st155{fill:url(#SVGID_147_);}
	.st156{fill:url(#SVGID_148_);}
	.st157{fill:url(#SVGID_149_);}
	.st158{fill:url(#SVGID_150_);}
	.st159{fill:url(#SVGID_151_);}
	.st160{fill:url(#SVGID_152_);}
	.st161{fill:url(#SVGID_153_);}
	.st162{fill:url(#SVGID_154_);}
	.st163{fill:url(#SVGID_155_);}
	.st164{fill:url(#SVGID_156_);}
	.st165{fill:url(#SVGID_157_);}
	.st166{fill:url(#SVGID_158_);}
	.st167{fill:url(#SVGID_159_);}
	.st168{fill:url(#SVGID_160_);}
	.st169{fill:url(#SVGID_161_);}
	.st170{fill:url(#SVGID_162_);}
	.st171{fill:url(#SVGID_163_);}
	.st172{fill:url(#SVGID_164_);}
	.st173{fill:url(#SVGID_165_);}
	.st174{fill:url(#SVGID_166_);}
	.st175{fill:url(#SVGID_167_);}
	.st176{fill:url(#SVGID_168_);}
	.st177{clip-path:url(#SVGID_170_);fill:url(#SVGID_171_);}
	.st178{clip-path:url(#SVGID_173_);}
	.st179{fill:url(#SVGID_174_);}
	.st180{fill:url(#SVGID_175_);}
	.st181{fill:url(#SVGID_176_);}
	.st182{fill:url(#SVGID_177_);}
	.st183{fill:none;stroke:url(#SVGID_178_);stroke-width:2;stroke-miterlimit:10;}
	.st184{fill:url(#SVGID_179_);}
	.st185{fill:url(#SVGID_182_);}
	.st186{clip-path:url(#SVGID_184_);}
	.st187{fill:url(#SVGID_187_);}
	.st188{fill:url(#SVGID_190_);}
	.st189{clip-path:url(#SVGID_192_);}
</style>
<g>
	<g class="st0">
		
			<image style="overflow:visible;opacity:0.15;" width="2459" height="1629" xlink:href="C894D6.png"  transform="matrix(0.24 0 0 0.24 -7.1453 -7.1222)">
		</image>
		<g>
			<path class="st1" d="M541,361.7H21c-11,0-20-9-20-20V21C1,10,10,1,21,1h520c11,0,20,9,20,20v320.7C561,352.7,552,361.7,541,361.7
				z"/>
		</g>
	</g>
	<g>
		<linearGradient id="SVGID_2_" gradientUnits="userSpaceOnUse" x1="175.624" y1="57.0008" x2="310.9604" y2="192.3372">
			<stop  offset="0" style="stop-color:#606EB2"/>
			<stop  offset="1" style="stop-color:#4490CC"/>
		</linearGradient>
		<path style="fill:url(#SVGID_2_);" d="M296.3,157.6c-4.8,0-65.7-10.8-72.7-12c-5.9-1-10.4-8.1-10.4-16.5c0-9.3,5.2-16.6,11.9-16.6
			c1,0,2,0.2,2.9,0.5c28.6,10.4,71.5,26.2,71.5,26.2c3.7,1.3,6.3,4.9,6.3,8.9C305.8,153.3,301.5,157.6,296.3,157.6z M225.1,117.2
			c-3.9,0-7.1,5.4-7.1,11.9c0,6,2.8,11.2,6.4,11.8c27.1,4.8,68.5,11.9,71.9,11.9c2.6,0,4.7-2.1,4.7-4.7c0-2-1.3-3.8-3.1-4.5
			c0,0-42.9-15.8-71.5-26.2C226,117.3,225.6,117.2,225.1,117.2z"/>
		<linearGradient id="SVGID_3_" gradientUnits="userSpaceOnUse" x1="197.8055" y1="34.8188" x2="333.1428" y2="170.1561">
			<stop  offset="0" style="stop-color:#606EB2"/>
			<stop  offset="1" style="stop-color:#4490CC"/>
		</linearGradient>
		<path class="st2" d="M303,154.8l-3.4-3.4l30.8-30.8c0.9-0.9,1.4-2.1,1.4-3.4c0-3.5-3.3-4.5-3.3-4.5l-16-5.8
			c-19.7-7.2-39.8-14.6-55.4-20.3c-0.4-0.1-0.8-0.2-1.3-0.2c-1.6,0-2.8,0.9-3.6,1.7l-30.8,30.8l-3.4-3.4L249,84.8
			c2.8-2.8,6.6-3.8,9.9-2.6c15.6,5.7,35.7,13.1,55.4,20.3l15.8,5.8c2.2,0.6,6.6,3.4,6.6,9c0,2.5-1,4.9-2.8,6.7L303,154.8z"/>
		<linearGradient id="SVGID_4_" gradientUnits="userSpaceOnUse" x1="196.9487" y1="35.6748" x2="332.2866" y2="171.0127">
			<stop  offset="0" style="stop-color:#606EB2"/>
			<stop  offset="1" style="stop-color:#4490CC"/>
		</linearGradient>
		<path class="st3" d="M273.2,124.7l-23.9-8.9l20.3-20.3l23.9,8.9L273.2,124.7z M257.9,113.9l14.1,5.3l12.9-12.9l-14.1-5.3
			L257.9,113.9z"/>
		<linearGradient id="SVGID_5_" gradientUnits="userSpaceOnUse" x1="197.5365" y1="35.0763" x2="332.8821" y2="170.4219">
			<stop  offset="0" style="stop-color:#606EB2"/>
			<stop  offset="1" style="stop-color:#4490CC"/>
		</linearGradient>
		<path class="st4" d="M289.2,122h-4.7v4.7h4.7V122z"/>
		<linearGradient id="SVGID_6_" gradientUnits="userSpaceOnUse" x1="204.6547" y1="27.9581" x2="340.0003" y2="163.3037">
			<stop  offset="0" style="stop-color:#606EB2"/>
			<stop  offset="1" style="stop-color:#4490CC"/>
		</linearGradient>
		<path class="st5" d="M296.3,114.9h-4.7v4.7h4.7V114.9z"/>
		<linearGradient id="SVGID_7_" gradientUnits="userSpaceOnUse" x1="211.7837" y1="20.8512" x2="347.113" y2="156.1805">
			<stop  offset="0" style="stop-color:#606EB2"/>
			<stop  offset="1" style="stop-color:#4490CC"/>
		</linearGradient>
		<path class="st6" d="M303.4,107.7h-4.7v4.7h4.7V107.7z"/>
		<linearGradient id="SVGID_8_" gradientUnits="userSpaceOnUse" x1="201.1073" y1="31.5288" x2="336.4365" y2="166.8581">
			<stop  offset="0" style="stop-color:#606EB2"/>
			<stop  offset="1" style="stop-color:#4490CC"/>
		</linearGradient>
		<path class="st7" d="M301,126.7h-4.7v4.7h4.7V126.7z"/>
		<linearGradient id="SVGID_9_" gradientUnits="userSpaceOnUse" x1="208.2131" y1="24.3988" x2="343.5587" y2="159.7444">
			<stop  offset="0" style="stop-color:#606EB2"/>
			<stop  offset="1" style="stop-color:#4490CC"/>
		</linearGradient>
		<path style="fill:url(#SVGID_9_);" d="M308.2,119.6h-4.7v4.7h4.7V119.6z"/>
		<linearGradient id="SVGID_10_" gradientUnits="userSpaceOnUse" x1="215.3313" y1="17.2806" x2="350.6769" y2="152.6262">
			<stop  offset="0" style="stop-color:#606EB2"/>
			<stop  offset="1" style="stop-color:#4490CC"/>
		</linearGradient>
		<path class="st15" d="M315.3,112.5h-4.7v4.7h4.7V112.5z"/>
		<linearGradient id="SVGID_11_" gradientUnits="userSpaceOnUse" x1="244.0699" y1="-11.4456" x2="379.407" y2="123.8915">
			<stop  offset="0" style="stop-color:#606EB2"/>
			<stop  offset="1" style="stop-color:#4490CC"/>
		</linearGradient>
		<path class="st16" d="M279,61.6l-3.9-2.7c1.2-1.7,2.7-3.1,4.5-4.2l13.6-8.2c3.4-2,7.6-2.9,10.3-2.9c7.3,0,43.8,9.7,45.3,10.1
			l-1.2,4.6c-10.4-2.8-38.5-10-44.1-10c-2,0-5.4,0.8-7.8,2.3L282,58.8C280.8,59.6,279.8,60.5,279,61.6z"/>
		<linearGradient id="SVGID_12_" gradientUnits="userSpaceOnUse" x1="235.2574" y1="-2.6339" x2="370.5952" y2="132.7039">
			<stop  offset="0" style="stop-color:#606EB2"/>
			<stop  offset="1" style="stop-color:#4490CC"/>
		</linearGradient>
		<path class="st17" d="M294.1,86.4c-3.7,0-7.3-2.7-7.3-7.1c0-3.1,2-5.8,5.1-6.8l24.2-10.3l1.9,4.4l-24.4,10.4c-1.3,0.5-2,1.3-2,2.4
			c0,1.6,1.4,2.4,2.4,2.4c0,0,18.9-1.8,24.3-3c4.8-1.1,8.7-2.4,12.1-3.5c4.6-1.5,8.6-2.8,13.1-3l0.2,4.7c-3.8,0.2-7.3,1.3-11.8,2.8
			c-3.5,1.2-7.5,2.5-12.5,3.6C313.5,84.6,294.9,86.3,294.1,86.4L294.1,86.4z"/>
		<linearGradient id="SVGID_13_" gradientUnits="userSpaceOnUse" x1="229.8634" y1="2.7651" x2="365.1978" y2="138.0994">
			<stop  offset="0" style="stop-color:#606EB2"/>
			<stop  offset="1" style="stop-color:#4490CC"/>
		</linearGradient>
		<path class="st18" d="M316.7,105.9l-4.4-1.7l8.3-21.1c0.2-0.6,0.3-1.3,0.3-2c0-0.3,0-0.7-0.1-0.9l4.7-0.5c0,0.4,0.1,1.1,0.1,1.5
			c0,1.3-0.2,2.5-0.7,3.7L316.7,105.9z"/>
		<linearGradient id="SVGID_14_" gradientUnits="userSpaceOnUse" x1="219.6472" y1="12.9742" x2="354.9882" y2="148.3151">
			<stop  offset="0" style="stop-color:#606EB2"/>
			<stop  offset="1" style="stop-color:#4490CC"/>
		</linearGradient>
		<path class="st19" d="M264.6,86.7l-4.5-1.6l7.4-20.1c1.6-4.2,5.6-7.1,10.2-7.1c1.3,0,2.5,0.2,3.7,0.7l24.3,8.7l-1.6,4.5L279.7,63
			c-3.1-1.1-6.7,0.6-7.8,3.6L264.6,86.7z"/>
		<linearGradient id="SVGID_15_" gradientUnits="userSpaceOnUse" x1="213.8887" y1="18.7382" x2="349.2227" y2="154.0722">
			<stop  offset="0" style="stop-color:#606EB2"/>
			<stop  offset="1" style="stop-color:#4490CC"/>
		</linearGradient>
		<path class="st20" d="M265.2,78.1l1.6-4.5l15.8,5.8l-1.6,4.5L265.2,78.1z"/>
		<linearGradient id="SVGID_16_" gradientUnits="userSpaceOnUse" x1="189.9246" y1="42.7009" x2="325.2608" y2="178.0371">
			<stop  offset="0" style="stop-color:#606EB2"/>
			<stop  offset="1" style="stop-color:#4490CC"/>
		</linearGradient>
		<path class="st21" d="M232.4,116.1l30.9-30.8l3.4,3.4l-30.9,30.8L232.4,116.1z"/>
		<linearGradient id="SVGID_17_" gradientUnits="userSpaceOnUse" x1="171.5023" y1="61.1244" x2="306.8371" y2="196.4592">
			<stop  offset="0" style="stop-color:#606EB2"/>
			<stop  offset="1" style="stop-color:#4490CC"/>
		</linearGradient>
		<path class="st22" d="M229.4,128.7l1.6-4.5l20.7,7.6l-1.6,4.5L229.4,128.7z"/>
		<linearGradient id="SVGID_18_" gradientUnits="userSpaceOnUse" x1="177.0939" y1="55.5343" x2="312.4277" y2="190.8681">
			<stop  offset="0" style="stop-color:#606EB2"/>
			<stop  offset="1" style="stop-color:#4490CC"/>
		</linearGradient>
		<path class="st23" d="M255.3,138.1l1.6-4.5l4.2,1.6l-1.6,4.5L255.3,138.1z"/>
	</g>
	<g>
		<g>
			<path class="st14" d="M186.2,210.8c-2,1.4-4,2.6-6,3.6c-0.7-0.9-2.3-2.4-3.2-3.2c5.1-2.2,10.6-5.9,13.8-9.7l4,1.5
				c-1.2,1.6-2.8,3.1-4.4,4.5v10h-4.3V210.8z M196,240.1c-3.9,2.4-9.9,4.7-14.7,6c-0.8-0.9-2.4-2.5-3.4-3.3c4.9-1,10.7-2.6,14-4.5
				L196,240.1z M184.1,218.8h31.3v19.3h-31.3V218.8z M188.4,224.3H211v-2.7h-22.6V224.3z M188.4,229.7H211V227h-22.6V229.7z
				 M188.4,235.3H211v-2.8h-22.6V235.3z M199.7,207.4c-0.8-1.7-1.3-3.6-1.5-5.6h4.1c0.2,2,0.9,3.7,1.8,5.3l9.5-0.5
				c-2-1-4.9-2-7.4-2.6l2.1-2.3c2.7,0.5,6.4,1.7,8.4,2.8l-1.8,2l5.1-0.3l0.3,3.4l-13.6,0.9c2.6,2.6,6,4.2,8.9,4.2
				c1.3,0,1.6-0.9,1.8-3.5c0.9,0.7,2.3,1.3,3.4,1.6c-0.6,4.7-2,5.8-5.4,5.8c-5.1,0-10.5-2.9-13.9-7.8l-9,0.6l-0.3-3.5L199.7,207.4z
				 M206.5,238.3c5.1,1.7,10.9,3.9,14.4,5.6l-5.1,2.1c-2.8-1.5-7.9-3.7-12.9-5.4L206.5,238.3z"/>
			<path class="st14" d="M237.4,232.4c-1.2,3.6-2.8,7.5-4.2,10.2c-0.8-0.5-2.5-1.3-3.5-1.6c1.6-2.5,3.1-6.2,4-9.5L237.4,232.4z
				 M243.9,230.2v15.6h-4.2v-15.6h-9.6v-3.7h23.2v3.7H243.9z M239.7,209.7h-8.9v-3.6h8.9v-4h4.2v4h9v3.6h-9v3.4h8v3.6h-20v-3.6h7.8
				V209.7z M251.3,220.7c2.8-4.8,4.4-11.7,5.2-18.8l4.4,0.6c-0.4,2.7-0.9,5.4-1.4,8h10.8l0.7-0.2l3,0.9c-0.9,4.5-2.3,9.6-3.5,12.9
				l-3.6-1.1c0.8-2.2,1.6-5.3,2.2-8.4h-10.5c-1.1,3.7-2.4,7-4,9.6c-0.7-0.6-2.1-1.6-3.2-2.3v1.6h-19.1v-3.6h19.1V220.7z
				 M249.4,231.5c1.3,2.4,2.8,5.5,3.5,7.4l-3.6,1.6c-0.6-2-2-5.2-3.2-7.7L249.4,231.5z M264.4,220.2c0,1.4,0,2.9-0.1,4.6
				c1.6,7.7,4.9,14.4,10.5,17.3c-1,0.9-2.4,2.6-3,3.7c-4.2-2.6-7.1-7.1-9-12.6c-1.4,4.4-3.8,8.9-8.1,12.8c-0.8-1-2.3-2.4-3.4-3
				c8.3-7.2,9-16.6,9-22.9v-2.2h4.2V220.2z"/>
			<path class="st14" d="M297.7,216h9.3v4.1h-9.3v1.5c2.4,2,7.5,7,8.8,8.3l-2.5,3.8c-1.3-1.7-4-4.7-6.3-7.1v19.2h-4.5v-19
				c-2.4,5-5.3,9.7-8.3,12.8c-0.4-1.3-1.6-3.2-2.4-4.4c3.6-3.4,7.5-9.6,9.7-15.1h-8.7V216h9.6v-7.1c-2.9,0.6-5.9,1-8.6,1.3
				c-0.2-1-0.9-2.5-1.4-3.5c7-1.1,15-2.7,19.5-4.8l3.2,3.4c-2.4,1-5.2,1.8-8.3,2.5V216z M314.7,233.9h-4.4v-26.4h4.4V233.9z
				 M324.9,202.4V240c0,2.8-0.7,4.1-2.4,4.8c-1.7,0.7-4.6,0.9-8.9,0.9c-0.2-1.2-0.9-3.4-1.6-4.6c3.2,0.1,6.2,0.1,7.2,0.1
				c0.9,0,1.2-0.3,1.2-1.2v-37.6H324.9z"/>
			<path class="st14" d="M379.3,236.4h-19.2v9.5h-4.7v-9.5h-19.2v-4.1h19.2v-3.6h4.7v3.6h19.2V236.4z M349.1,223.7
				c-3.6,1.9-7.3,3.9-10.5,5.4l-2.3-3.6c3-1.2,7.5-3.1,11.9-5.1L349.1,223.7z M365.3,229.4c-0.3-0.7-0.7-1.5-1.2-2.4
				c-12,1.2-13.7,1.4-14.8,1.9c-0.1-0.8-0.8-2.7-1.2-3.7c1.2-0.1,2.4-1.1,3.9-2.4c0.9-0.6,2.6-2.2,4.7-4.2c-4.7,0.3-5.7,0.6-6.4,0.9
				c-0.2-0.8-0.9-2.6-1.2-3.6c0.7-0.1,1.4-0.8,2.2-1.6c0.6-0.5,1.9-2.2,3.1-4.2h-16.9v-4.1h18.8c-0.6-1.2-1.3-2.3-1.9-3.3l4.5-1.1
				c1,1.3,2.1,3.1,2.7,4.4h17.4v4.1h-19.9c-1.2,1.8-2.6,3.6-4,5.1l5.3-0.2c1.1-1.2,2.2-2.6,3.2-3.9l3.5,2
				c-3.5,4.2-7.5,8.1-11.5,11.3l6.9-0.5c-0.6-1-1.3-1.9-2-2.8l3.3-1.2c2.1,2.5,4.4,5.9,5.3,8.3L365.3,229.4z M344.9,219.5
				c-1.5-1.6-4.6-3.9-7.2-5.5l3-2.4c2.5,1.5,5.7,3.7,7.3,5.3L344.9,219.5z M375.4,229.5c-2-1.9-6.1-4.7-9.4-6.6l3.1-2.4
				c3.2,1.8,7.3,4.5,9.5,6.4L375.4,229.5z M376.9,213.6c-2.1,2.2-4.8,4.4-7,6l-3.3-2.1c2.1-1.6,4.9-4.1,6.5-6L376.9,213.6z"/>
		</g>
	</g>
	<g>
		<g>
			<path class="st138" d="M143.9,300.3c0,1.4-0.3,2.1-1.2,2.5c-1,0.5-2.4,0.5-4.4,0.5c-0.2-0.7-0.6-1.9-1-2.6c1.4,0.1,2.8,0.1,3.2,0
				c0.4,0,0.6-0.2,0.6-0.6v-3.6h-6.6c-0.4,2.5-1,5-2.4,6.9c-0.5-0.5-1.6-1.4-2.3-1.7c2.1-2.9,2.3-7,2.3-10.1v-7.5h11.8V300.3z
				 M158.5,278.9v2.7H130v-2.7h7.3c-0.5-1.2-1.7-2.8-2.7-3.9l2.8-1c1.2,1.3,2.5,3.1,3.1,4.3l-1.6,0.6h9.2c1.1-1.5,2.2-3.5,2.8-5
				l3.2,1c-0.9,1.4-1.8,2.8-2.7,4H158.5z M141,294.3v-2.7h-6.2v0.1c0,0.8,0,1.7-0.1,2.7H141z M134.8,286.6v2.8h6.2v-2.8H134.8z
				 M150,297.5h-2.8v-13h2.8V297.5z M153.6,283.6h2.9v16.4c0,1.6-0.4,2.4-1.4,2.8c-1.1,0.5-2.7,0.6-5.1,0.5
				c-0.1-0.8-0.6-2.1-1.1-2.8c1.8,0.1,3.5,0.1,4,0c0.5,0,0.7-0.2,0.7-0.6V283.6z"/>
			<path class="st138" d="M193.2,298.2v3h-27.5v-3H193.2z M191.5,277.1v3h-24v-3H191.5z M189,287.3v3h-19.4v-3H189z"/>
			<path class="st138" d="M208.8,275c-0.7,2.1-1.5,4.2-2.5,6.1v22.3h-2.8v-17.3c-0.9,1.3-1.7,2.5-2.7,3.5c-0.2-0.7-1-2.4-1.5-3.1
				c2.7-3,5.2-7.7,6.8-12.4L208.8,275z M228.3,275.8v27.3h-2.8v-1.6h-13.2v1.9h-2.7v-27.5H228.3z M225.5,298.9v-20.4h-13.2v20.4
				H225.5z M220.1,284.9v3.2h3.4v8.5h-9v-8.5h3.2v-3.2h-4.3v-2.2h4.3v-3.5h2.4v3.5h4.4v2.2H220.1z M221.2,290.3h-4.4v4.2h4.4V290.3z
				"/>
			<path class="st138" d="M260.2,299.4c0,1.9-0.5,2.8-1.8,3.3c-1.3,0.5-3.5,0.6-6.8,0.6c-0.2-0.9-0.8-2.3-1.3-3.1
				c2.5,0.1,5.1,0.1,5.8,0.1c0.7,0,1-0.3,1-0.9v-5.6h-14.5c-0.8,3.6-2.4,7.1-5.5,9.7c-0.4-0.6-1.6-1.7-2.3-2.2
				c5-4.3,5.5-10.6,5.5-15.6v-10h19.9V299.4z M257.1,290.8v-4.7h-13.8c0,1.5-0.1,3.1-0.3,4.7H257.1z M243.4,278.5v4.7h13.8v-4.7
				H243.4z"/>
			<path class="st139" d="M270.6,289c0-8.2,3-12.1,7.6-12.1c4.6,0,7.6,4,7.6,12.1c0,8.2-3,12.3-7.6,12.3
				C273.5,301.3,270.6,297.2,270.6,289z M282.3,289c0-6.8-1.7-9.2-4.1-9.2s-4.1,2.5-4.1,9.2c0,6.8,1.7,9.4,4.1,9.4
				S282.3,295.8,282.3,289z"/>
			<path class="st139" d="M292.8,298.7c0-1.5,1.1-2.6,2.5-2.6c1.4,0,2.5,1.1,2.5,2.6s-1.1,2.6-2.5,2.6
				C293.9,301.3,292.8,300.2,292.8,298.7z"/>
			<path class="st139" d="M317.7,281.6c-0.9-1-2.3-1.8-3.7-1.8c-3,0-5.5,2.3-5.7,9c1.4-1.7,3.4-2.7,5.1-2.7c4,0,6.6,2.4,6.6,7.4
				c0,4.7-3.2,7.7-7,7.7c-4.5,0-8.1-3.7-8.1-11.7c0-9.1,4.3-12.7,8.9-12.7c2.6,0,4.5,1.1,5.9,2.5L317.7,281.6z M316.7,293.6
				c0-3-1.3-4.7-3.9-4.7c-1.4,0-3,0.7-4.4,2.8c0.4,4.7,2.1,6.9,4.6,6.9C315.1,298.5,316.7,296.6,316.7,293.6z"/>
			<path class="st139" d="M326.1,295c0-3.1,2-5.2,4.2-6.3v-0.2c-1.8-1.2-3.2-3-3.2-5.5c0-3.7,2.8-6.1,6.7-6.1c4.1,0,6.7,2.6,6.7,6.2
				c0,2.4-1.6,4.4-3.1,5.5v0.2c2.1,1.2,4,3,4,6.2c0,3.5-3.1,6.2-7.6,6.2C329.4,301.3,326.1,298.7,326.1,295z M337.9,295
				c0-2.9-2.6-4-5.8-5.3c-1.6,1.1-2.8,2.9-2.8,4.9c0,2.3,2,4,4.5,4C336.3,298.6,337.9,297.2,337.9,295z M337.5,283.4
				c0-2.2-1.3-3.8-3.6-3.8c-1.9,0-3.4,1.3-3.4,3.4c0,2.6,2.2,3.7,4.9,4.8C336.8,286.5,337.5,285,337.5,283.4z"/>
			<path class="st139" d="M347.3,284.3c0-4.7,2.2-7.4,5.5-7.4c3.3,0,5.5,2.7,5.5,7.4s-2.2,7.5-5.5,7.5
				C349.5,291.8,347.3,289,347.3,284.3z M355.6,284.3c0-3.6-1.2-5.2-2.8-5.2c-1.6,0-2.8,1.6-2.8,5.2c0,3.6,1.2,5.3,2.8,5.3
				C354.4,289.6,355.6,287.9,355.6,284.3z M366.4,276.9h2.3l-12.9,24.4h-2.3L366.4,276.9z M364,293.8c0-4.7,2.2-7.4,5.5-7.4
				c3.3,0,5.5,2.7,5.5,7.4s-2.2,7.5-5.5,7.5C366.2,301.3,364,298.6,364,293.8z M372.3,293.8c0-3.6-1.2-5.2-2.8-5.2
				c-1.7,0-2.8,1.6-2.8,5.2c0,3.6,1.2,5.3,2.8,5.3C371.1,299.1,372.3,297.4,372.3,293.8z"/>
			<path class="st139" d="M390.1,298.9c1.8,0.6,4.1,0.8,6.9,0.8c1.9,0,11,0,13.4-0.1c-0.5,0.7-1,2-1.2,2.9H397
				c-6.4,0-10.2-0.9-12.6-4.9c-0.4,2.3-0.9,4.4-1.7,6c-0.5-0.4-1.8-1-2.5-1.3c1.7-3.2,2.1-8.3,2.2-13.9l2.8,0.2
				c0,1.4-0.1,2.9-0.2,4.2c0.6,1.9,1.4,3.3,2.4,4.3v-11H381v-2.6h5.7V280h-4.9v-2.6h4.9v-3.3h2.8v3.3h4.4v2.6h-4.4v3.6h5.2v2.6h-4.7
				v4.2h4.4v2.6h-4.4V298.9z M400.5,297.9c-3.3,0-4.3-0.9-4.3-4.4v-18.1h12v11.7h-9.2v6.3c0,1.4,0.3,1.7,1.7,1.7h5
				c1.3,0,1.5-0.8,1.7-4.3c0.6,0.5,1.8,1,2.6,1.2c-0.4,4.4-1.2,5.8-4.1,5.8H400.5z M399.1,278.1v6.5h6.3v-6.5H399.1z"/>
			<path class="st138" d="M419.1,293.2c2.5-0.9,3.9-2.4,4.1-4.3c-0.1,0-0.3,0-0.4,0c-1.4,0-2.7-0.9-2.7-2.6c0-1.6,1.2-2.6,2.7-2.6
				c2,0,3.1,1.6,3.1,4c0,3.6-2.2,6.3-5.9,7.5L419.1,293.2z"/>
			<path class="st138" d="M62.8,320.5c-1,1.6-2.1,3-3.3,4.1c-0.4-0.5-1.4-1.5-2-2c1.9-1.7,3.7-4.3,4.7-6.9l2.7,0.8
				c-0.2,0.5-0.4,1.1-0.7,1.6h7.6v2.3h-5.4c1,0.8,2,1.9,2.6,2.5l-1.9,1.7c-0.6-0.9-2-2.2-3.1-3.2l1.2-1H62.8z M85,334.8
				c0,0,0,0.7-0.1,1.2c-0.4,4.3-0.8,6.3-1.6,7.1c-0.6,0.6-1.2,0.9-2.2,0.9c-0.8,0.1-2.4,0.1-4,0c0-0.8-0.4-2-0.8-2.7
				c1.4,0.2,2.9,0.2,3.5,0.2c0.5,0,0.9,0,1.1-0.3c0.4-0.4,0.7-1.5,1-3.8h-8.5v8h-2.9v-6.8c-2.8,2.9-6.6,5.4-10.2,6.8
				c-0.4-0.7-1.2-1.8-1.9-2.3c3.6-1.1,7.3-3.2,9.9-5.6h-7.7c0.4-2,0.9-5.1,1.2-7.5h8.9v-2.5h-10v-2.5h23.4v7.4H73.3v2.5H85z
				 M64,332.3c-0.1,0.9-0.2,1.7-0.4,2.5h6.7v-2.5H64z M86.6,318.2v2.3h-6.3c1,0.8,2.2,1.8,2.8,2.5l-2,1.7c-0.7-0.8-2.1-2.1-3.3-3.1
				l1.4-1.1H76c-0.7,1.2-1.6,2.2-2.4,3c-0.5-0.5-1.6-1.3-2.2-1.8c1.7-1.4,3.2-3.6,4-5.9l2.7,0.6c-0.2,0.6-0.4,1.2-0.7,1.7H86.6z
				 M73.3,329.9h7.5v-2.5h-7.5V329.9z"/>
			<path class="st138" d="M120.4,318.7v25.4h-3.1v-2H97v2.3h-3v-25.6H120.4z M117.3,339.2v-4.5c-0.4,0.2-1.2,0.2-2,0.2h-3.1
				c-2.6,0-3.1-1.2-3.1-4v-9.2h-3.9c-0.2,8.2-0.9,12.9-6.1,15.6c-0.3-0.7-1.1-1.8-1.8-2.3c4.5-2.2,4.9-6,5.1-13.2H97v17.6H117.3z
				 M117.3,321.6h-5.4v9.3c0,1.1,0.1,1.5,0.8,1.5h2.7c0.5,0,1.4-0.1,1.9-0.2c0,0.5,0.1,1.1,0.1,1.6V321.6z"/>
			<path class="st138" d="M136.6,317c-0.7,2.1-1.5,4.2-2.5,6.1v22.3h-2.8v-17.3c-0.9,1.3-1.7,2.5-2.7,3.5c-0.2-0.7-1-2.4-1.5-3.1
				c2.7-3,5.2-7.7,6.8-12.4L136.6,317z M156.1,317.8v27.3h-2.8v-1.6h-13.2v1.9h-2.7v-27.5H156.1z M153.3,340.9v-20.4h-13.2v20.4
				H153.3z M147.9,326.9v3.2h3.4v8.5h-9v-8.5h3.2v-3.2h-4.3v-2.2h4.3v-3.5h2.4v3.5h4.4v2.2H147.9z M149,332.3h-4.4v4.2h4.4V332.3z"
				/>
			<path class="st138" d="M188.1,341.4c0,1.9-0.5,2.8-1.8,3.3c-1.3,0.5-3.5,0.6-6.8,0.6c-0.2-0.9-0.8-2.3-1.3-3.1
				c2.5,0.1,5.1,0.1,5.8,0.1c0.7,0,1-0.3,1-0.9v-5.6h-14.5c-0.8,3.6-2.4,7.1-5.5,9.7c-0.4-0.6-1.6-1.7-2.3-2.2
				c5-4.3,5.5-10.6,5.5-15.6v-10h19.9V341.4z M184.9,332.8v-4.7h-13.8c0,1.5-0.1,3.1-0.3,4.7H184.9z M171.2,320.5v4.7h13.8v-4.7
				H171.2z"/>
			<path class="st138" d="M207.6,340.9c1.8,0.6,4.1,0.8,6.9,0.8c1.9,0,11,0,13.4-0.1c-0.5,0.7-1,2-1.2,2.9h-12.2
				c-6.4,0-10.2-0.9-12.6-4.9c-0.4,2.3-0.9,4.4-1.7,6c-0.5-0.4-1.8-1-2.5-1.3c1.7-3.2,2.1-8.3,2.2-13.9l2.8,0.2
				c0,1.4-0.1,2.9-0.2,4.2c0.6,1.9,1.4,3.3,2.4,4.3v-11h-6.3v-2.6h5.7V322h-4.9v-2.6h4.9v-3.3h2.8v3.3h4.4v2.6H207v3.6h5.2v2.6h-4.7
				v4.2h4.4v2.6h-4.4V340.9z M218,339.9c-3.3,0-4.3-0.9-4.3-4.4v-18.1h12v11.7h-9.2v6.3c0,1.4,0.3,1.7,1.7,1.7h5
				c1.3,0,1.5-0.8,1.7-4.3c0.6,0.5,1.8,1,2.6,1.2c-0.4,4.4-1.2,5.8-4.1,5.8H218z M216.6,320.1v6.5h6.3v-6.5H216.6z"/>
			<path class="st139" d="M233.5,340.7c6.9-6.1,10.5-10.7,10.5-14.6c0-2.6-1.4-4.3-4-4.3c-1.9,0-3.4,1.2-4.6,2.6l-2.1-2
				c2-2.2,4.1-3.5,7.2-3.5c4.3,0,7.1,2.8,7.1,7.1c0,4.5-3.6,9.2-8.6,14c1.2-0.1,2.7-0.2,3.8-0.2h5.9v3.1h-15.2V340.7z"/>
			<path class="st139" d="M255.8,340.7c0-1.5,1.1-2.6,2.5-2.6s2.5,1.1,2.5,2.6s-1.1,2.6-2.5,2.6S255.8,342.2,255.8,340.7z"/>
			<path class="st139" d="M270,338.5c0.9,1.1,2.4,1.8,3.9,1.8c2.8,0,5.3-2.3,5.5-9c-1.4,1.7-3.4,2.8-5.2,2.8c-3.9,0-6.6-2.5-6.6-7.4
				c0-4.7,3.2-7.7,7-7.7c4.5,0,8.2,3.6,8.2,11.4c0,9.3-4.2,13-8.8,13c-2.7,0-4.6-1.1-6-2.5L270,338.5z M279.3,328.5
				c-0.4-4.6-2.1-6.8-4.7-6.8c-2,0-3.6,1.8-3.6,4.9c0,3,1.3,4.7,3.8,4.7C276.3,331.4,277.9,330.5,279.3,328.5z"/>
			<path class="st139" d="M289.1,337c0-3.1,2-5.2,4.2-6.3v-0.2c-1.8-1.2-3.2-3-3.2-5.5c0-3.7,2.8-6.1,6.7-6.1c4.1,0,6.7,2.6,6.7,6.2
				c0,2.4-1.6,4.4-3.1,5.5v0.2c2.1,1.2,4,3,4,6.2c0,3.5-3.1,6.2-7.6,6.2C292.4,343.3,289.1,340.7,289.1,337z M301,337
				c0-2.9-2.6-4-5.8-5.3c-1.6,1.1-2.8,2.9-2.8,4.9c0,2.3,2,4,4.5,4C299.3,340.6,301,339.2,301,337z M300.5,325.4
				c0-2.2-1.3-3.8-3.6-3.8c-1.9,0-3.4,1.3-3.4,3.4c0,2.6,2.2,3.7,4.9,4.8C299.8,328.5,300.5,327,300.5,325.4z"/>
			<path class="st139" d="M310.3,326.3c0-4.7,2.2-7.4,5.5-7.4c3.3,0,5.5,2.7,5.5,7.4s-2.2,7.5-5.5,7.5
				C312.5,333.8,310.3,331,310.3,326.3z M318.6,326.3c0-3.6-1.2-5.2-2.8-5.2c-1.6,0-2.8,1.6-2.8,5.2c0,3.6,1.2,5.3,2.8,5.3
				C317.4,331.6,318.6,329.9,318.6,326.3z M329.4,318.9h2.3l-12.9,24.4h-2.3L329.4,318.9z M327,335.8c0-4.7,2.2-7.4,5.5-7.4
				c3.3,0,5.5,2.7,5.5,7.4s-2.2,7.5-5.5,7.5C329.2,343.3,327,340.6,327,335.8z M335.3,335.8c0-3.6-1.2-5.2-2.8-5.2
				c-1.7,0-2.8,1.6-2.8,5.2c0,3.6,1.2,5.3,2.8,5.3C334.1,341.1,335.3,339.4,335.3,335.8z"/>
			<path class="st139" d="M358.7,330.9c-1,0-1.9,0.7-2.7,2.1l-2-1.4c1.4-2.4,3.1-3.4,4.8-3.4c2.9,0,4.3,2.9,6.3,2.9
				c1,0,1.9-0.7,2.7-2.1l2,1.5c-1.5,2.4-3.2,3.4-4.8,3.4C362.1,333.8,360.7,330.9,358.7,330.9z"/>
			<path class="st139" d="M377,339.8h5.2v-16.4h-4.2v-2.3c2.2-0.4,3.8-1,5.1-1.8h2.8v20.5h4.6v3H377V339.8z"/>
			<path class="st139" d="M412.9,336.5h-3v6.3h-3.5v-6.3h-10.2v-2.5l9.4-14.8h4.3v14.4h3V336.5z M406.5,333.7v-6.2
				c0-1.3,0.1-3.3,0.2-4.5h-0.1c-0.6,1.2-1.2,2.4-1.9,3.6l-4.6,7.1H406.5z"/>
			<path class="st139" d="M419.4,340.7c0-1.5,1.1-2.6,2.5-2.6c1.4,0,2.5,1.1,2.5,2.6s-1.1,2.6-2.5,2.6
				C420.5,343.3,419.4,342.2,419.4,340.7z"/>
			<path class="st139" d="M431.3,337c0-3.1,2-5.2,4.2-6.3v-0.2c-1.8-1.2-3.2-3-3.2-5.5c0-3.7,2.8-6.1,6.7-6.1c4.1,0,6.7,2.6,6.7,6.2
				c0,2.4-1.6,4.4-3.1,5.5v0.2c2.1,1.2,4,3,4,6.2c0,3.5-3.1,6.2-7.6,6.2C434.6,343.3,431.3,340.7,431.3,337z M443.1,337
				c0-2.9-2.6-4-5.8-5.3c-1.6,1.1-2.8,2.9-2.8,4.9c0,2.3,2,4,4.5,4C441.4,340.6,443.1,339.2,443.1,337z M442.6,325.4
				c0-2.2-1.3-3.8-3.6-3.8c-1.9,0-3.4,1.3-3.4,3.4c0,2.6,2.2,3.7,4.9,4.8C441.9,328.5,442.6,327,442.6,325.4z"/>
			<path class="st139" d="M452.7,337c0-3.1,2-5.2,4.2-6.3v-0.2c-1.8-1.2-3.2-3-3.2-5.5c0-3.7,2.8-6.1,6.7-6.1c4.1,0,6.7,2.6,6.7,6.2
				c0,2.4-1.6,4.4-3.1,5.5v0.2c2.1,1.2,4,3,4,6.2c0,3.5-3.1,6.2-7.6,6.2C456,343.3,452.7,340.7,452.7,337z M464.5,337
				c0-2.9-2.6-4-5.8-5.3c-1.6,1.1-2.8,2.9-2.8,4.9c0,2.3,2,4,4.5,4C462.9,340.6,464.5,339.2,464.5,337z M464.1,325.4
				c0-2.2-1.3-3.8-3.6-3.8c-1.9,0-3.4,1.3-3.4,3.4c0,2.6,2.2,3.7,4.9,4.8C463.4,328.5,464.1,327,464.1,325.4z"/>
			<path class="st139" d="M473.8,326.3c0-4.7,2.2-7.4,5.5-7.4c3.3,0,5.5,2.7,5.5,7.4s-2.2,7.5-5.5,7.5
				C476.1,333.8,473.8,331,473.8,326.3z M482.2,326.3c0-3.6-1.2-5.2-2.8-5.2c-1.6,0-2.8,1.6-2.8,5.2c0,3.6,1.2,5.3,2.8,5.3
				C481,331.6,482.2,329.9,482.2,326.3z M493,318.9h2.3l-12.9,24.4h-2.3L493,318.9z M490.5,335.8c0-4.7,2.2-7.4,5.5-7.4
				c3.3,0,5.5,2.7,5.5,7.4s-2.2,7.5-5.5,7.5C492.8,343.3,490.5,340.6,490.5,335.8z M498.9,335.8c0-3.6-1.2-5.2-2.8-5.2
				c-1.7,0-2.8,1.6-2.8,5.2c0,3.6,1.2,5.3,2.8,5.3C497.7,341.1,498.9,339.4,498.9,335.8z"/>
		</g>
	</g>
</g>
</svg>
