<svg width="24" height="24" viewBox="0 0 24 24" fill="none" xmlns="http://www.w3.org/2000/svg">
<g clip-path="url(#clip0_5029_20715)">
<path d="M17 13C20.09 10.19 23 7.56 23 5.3C23 3.45 21.55 2 19.7 2C18.66 2 17.65 2.49 17 3.25C16.34 2.49 15.34 2 14.3 2C12.45 2 11 3.45 11 5.3C11 7.56 13.91 10.19 17 13ZM14.3 4C14.74 4 15.19 4.21 15.48 4.55L17 6.34L18.52 4.55C18.81 4.21 19.26 4 19.7 4C20.44 4 21 4.56 21 5.3C21 6.42 18.96 8.47 17 10.29C15.04 8.47 13 6.41 13 5.3C13 4.56 13.56 4 14.3 4Z" fill="#FF1F1F"/>
<path d="M19 16H17C17 14.8 16.25 13.72 15.13 13.3L8.97 11H1V22H7V20.56L14 22.5L22 20V19C22 17.34 20.66 16 19 16ZM3 20V13H5V20H3ZM13.97 20.41L7 18.48V13H8.61L14.43 15.17C14.77 15.3 15 15.63 15 16C15 16 13.01 15.95 12.7 15.85L10.32 15.06L9.69 16.96L12.07 17.75C12.58 17.92 13.11 18.01 13.65 18.01H19C19.39 18.01 19.74 18.24 19.9 18.57L13.97 20.41Z" fill="#083A6F"/>
</g>
<defs>
<clipPath id="clip0_5029_20715">
<rect width="24" height="24" fill="white"/>
</clipPath>
</defs>
</svg>
