<?xml version="1.0" encoding="utf-8"?>
<!-- Generator: Adobe Illustrator 24.2.1, SVG Export Plug-In . SVG Version: 6.00 Build 0)  -->
<svg version="1.1" id="圖層_1" xmlns="http://www.w3.org/2000/svg" xmlns:xlink="http://www.w3.org/1999/xlink" x="0px" y="0px"
	 viewBox="0 0 147.6 55.7" style="enable-background:new 0 0 147.6 55.7;" xml:space="preserve">
<style type="text/css">
	.st0{enable-background:new    ;}
	.st1{fill:#036EB7;}
	.st2{fill:none;stroke:#036EB7;}
</style>
<g class="st0">
	<path class="st1" d="M22.5,40.4l-0.7,0.1c-3.5,0.5-6,0.7-7.5,0.8c-0.3,0-0.5-0.2-0.5-0.6c0-0.2,0-0.4,0.1-0.5
		c0.1-0.2,0.3-0.2,0.6-0.2c0.8,0,1.7-0.1,2.9-0.3c0-0.1,0-0.1-0.1-0.2c-0.6-5-1.2-9.6-1.9-13.9c-0.1-0.5,0.1-0.8,0.6-1
		c3.3-0.4,5.6-0.7,6.7-0.7c0.4,0,0.7,0.2,0.9,0.6c0.4,1.3,0.9,3.5,1.5,6.7c0.6,3.2,1,5.7,1.2,7.3c0.8-0.1,1.5-0.3,2.2-0.4
		c0.5-0.1,0.8,0.1,0.8,0.6c0,0.4-0.1,0.6-0.5,0.7c-1.3,0.3-3,0.6-5,0.8c0,0.6-0.1,1.1-0.3,1.7c0.4,0.5,1.1,1,2,1.5
		c0.9,0.5,1.6,0.7,2.3,0.8c0.1,0,0.2,0,0.2,0c0.5,0,0.7,0.2,0.7,0.6s-0.2,0.6-0.6,0.7c-0.1,0-0.3,0-0.5,0C26.9,45.3,26,45,25,44.5
		c-0.8-0.4-1.4-0.8-1.9-1.2c-0.3,0.7-0.6,1.4-1.1,2.2c-0.7,1.1-1.3,1.7-1.9,1.7c-0.4,0-0.7-0.2-0.8-0.6c0-0.2,0.1-0.4,0.2-0.6
		C21,44.7,22,42.8,22.5,40.4z M23.1,27.8c-0.2-1.1-0.4-2-0.6-2.6c-1.7,0.1-3.6,0.3-5.6,0.7c0.1,0.9,0.3,1.7,0.4,2.6L23.1,27.8z
		 M23.9,31.4c-0.2-0.9-0.3-1.7-0.5-2.3l-6,0.6l0.3,2.4L23.9,31.4z M17.9,33.4c0.1,0.8,0.1,1.5,0.2,2.2l6.4-0.6
		c-0.1-0.7-0.3-1.5-0.4-2.3L17.9,33.4z M24.8,36.3l-6.4,0.6c0.1,0.8,0.2,1.7,0.3,2.5c0,0,0,0.1,0,0.1c0.9-0.1,1.8-0.2,2.8-0.3
		c1.3-0.2,2.5-0.4,3.5-0.5C25,38,24.9,37.2,24.8,36.3z"/>
	<path class="st1" d="M54.3,17.5c0,0.8-0.2,1.6-0.6,2.5c0.1,0,0.3,0.1,0.5,0.1c0.4,0.1,1.9,0.4,4.5,0.7c0.7,0.1,1,0.5,0.9,1.2
		c-0.3,2.1-1.6,4.7-4.1,7.8c-2.4,3-4.6,4.7-6.6,5.1c-1.3,0.2-2.1,0-2.2-0.7c0-0.4,0.2-0.7,0.6-0.7c0.1,0,0.3,0,0.4,0
		c0.3,0.1,0.6,0.1,0.9,0c0.5-0.1,1.4-0.6,2.6-1.5c0.8-0.6,1.7-1.5,2.7-2.7c-0.3-0.1-0.8-0.2-1.2-0.5c-0.9-0.5-1.4-1-1.6-1.3
		c-0.2-0.6,0-0.9,0.5-1c0.3,0,0.5,0.1,0.7,0.2c0.5,0.5,1.3,1,2.3,1.4c0.2,0,0.3,0.1,0.4,0.2c0.2-0.2,0.3-0.4,0.4-0.6
		c1.5-2,2.5-3.9,2.9-5.6c0-0.1,0-0.2-0.1-0.2c-0.9-0.1-1.9-0.2-2.9-0.3c-1-0.2-1.7-0.3-2.2-0.5c-0.8,1.6-1.8,2.7-3,3.4
		c-0.1,0-0.2,0.1-0.2,0.1c-0.1,0-0.2,0.1-0.3,0.1c-0.4,0-0.7-0.2-0.7-0.6c0-0.3,0.1-0.5,0.4-0.7c1-0.5,1.9-1.5,2.6-2.9
		c0.6-1.2,0.9-2.3,1-3.3c0-0.4,0.2-0.6,0.6-0.7C54.1,16.7,54.3,17,54.3,17.5z M65.1,36.7c0.2,0.6,0.4,1.5,0.6,2.5
		c0.2,1.1,0.3,1.7,0.3,2c0,0.3-0.2,0.6-0.7,0.8c-1.3,0.3-3.2,0.6-5.5,0.8c-0.9,0.1-1.3-0.3-1.2-0.9c0-2.2-0.2-3.8-0.6-4.9
		c-0.1-0.5,0.1-0.8,0.6-0.9c0.4,0,0.6,0.1,0.7,0.4c1.6-0.2,3.2-0.4,4.7-0.5C64.4,36,64.8,36.2,65.1,36.7z M59.5,37.8
		c0.1,0.9,0.2,2,0.3,3.5c0,0.1,0,0.2,0.1,0.2c2.4-0.3,4-0.5,4.5-0.7c0,0,0.1-0.1,0-0.1c-0.2-1.1-0.4-2.1-0.6-3.1
		c0-0.1-0.1-0.2-0.3-0.2C62.4,37.5,61,37.7,59.5,37.8z"/>
	<path class="st1" d="M83.2,32.2c0.1,0,0.2,0,0.1-0.2l0-0.1c-0.1-0.4-0.2-1.3-0.6-2.9c-0.9,0.3-1.8,0.5-2.7,0.8
		c-0.5,0.1-0.8,0-0.9-0.5c-0.1-0.3,0.1-0.6,0.5-0.7c0.1,0,0.1-0.1,0.3-0.1c0.9-0.3,1.7-0.5,2.6-0.8c-0.3-1.1-0.5-2.5-0.9-4
		c-1.5,0.1-2.6,0.1-3.2,0c-0.2-0.1-0.3-0.3-0.3-0.5c0-0.4,0.2-0.7,0.6-0.8c0.4,0,1-0.1,1.9-0.1c0.3,0,0.5,0,0.8,0
		c-0.1-0.7-0.3-1.4-0.5-2c-0.1-0.5,0-0.8,0.5-0.9c0.4-0.1,0.7,0.1,0.8,0.5c0.2,0.8,0.3,1.6,0.5,2.3c0.8-0.1,1.7-0.2,2.6-0.3
		c0.6-0.1,0.8,0.1,0.9,0.6c0,0.4-0.2,0.7-0.8,0.8l-0.9,0.1c-0.5,0.1-1,0.1-1.5,0.2c0.3,1.5,0.6,2.7,0.8,3.8c0.5-0.2,1-0.3,1.5-0.4
		c0.1,0,0.1-0.1,0.2-0.1c0.5-0.1,0.8,0,0.9,0.5c0,0.3-0.1,0.6-0.4,0.7c-0.1,0-0.1,0.1-0.2,0.1c-0.6,0.2-1.2,0.3-1.7,0.5
		c0.3,1.5,0.5,2.5,0.5,2.9c0.1,0.7,0.1,1.3-0.1,1.5c-0.2,0.3-0.6,0.5-1.1,0.6c-0.7,0-1.1-0.1-1.2-0.6c-0.1-0.3,0-0.6,0.3-0.8
		C82.7,32.2,82.9,32.2,83.2,32.2z M99.1,12.7c0.2,0.5,0.3,1.3,0.5,2.1c0.2,0.9,0.3,1.5,0.2,1.7c0,0.3-0.2,0.6-0.7,0.8
		c-1.5,0.4-3.5,0.7-6.2,0.9c-0.9,0.1-1.3-0.3-1.2-0.9c0-1.9-0.1-3.3-0.5-4.2c-0.1-0.5,0.1-0.8,0.6-0.9c0.3,0,0.6,0.1,0.7,0.4
		c1.8-0.2,3.6-0.4,5.4-0.6C98.5,12,98.9,12.2,99.1,12.7z M92.8,13.9c0.1,0.7,0.1,1.7,0.2,2.8c0,0.1,0,0.2,0.1,0.2
		c2.8-0.3,4.6-0.6,5.2-0.8c0,0,0.1-0.1,0-0.1c-0.1-0.9-0.3-1.7-0.5-2.4c0-0.1-0.1-0.2-0.3-0.2C96.2,13.6,94.6,13.7,92.8,13.9z
		 M97.7,30.8c0,1.5-0.1,2.7-0.4,3.6c-0.1,0.3-0.3,0.4-0.6,0.5c-0.5,0.1-0.8-0.1-0.8-0.6c0-0.1,0-0.2,0-0.3c0.5-1.8,0.4-4.8-0.2-9
		c-0.2-0.7,0-1.1,0.6-1.3c2.5-0.4,4.3-0.5,5.3-0.6c0.4,0,0.7,0.2,0.9,0.6c0.4,1.6,0.9,4.6,1.6,9.1l0.2,1.4c0.1,1.1-0.2,1.7-1.2,1.8
		c-0.7,0.1-1.1-0.2-1.2-0.6c-0.1-0.4,0.1-0.6,0.4-0.7c0.2,0,0.3,0,0.5,0c0.1,0,0.2-0.1,0.1-0.3c-0.2-1.5-0.4-2.9-0.6-4.1L97.7,30.8z
		 M101.6,26.1c-0.1-0.6-0.2-1.1-0.3-1.6c-0.9,0.1-2.3,0.2-4.1,0.4c0.1,0.6,0.2,1.1,0.2,1.6L101.6,26.1z M97.5,27.8
		c0.1,0.6,0.1,1.2,0.2,1.7l4.4-0.5c-0.1-0.6-0.2-1.2-0.3-1.7L97.5,27.8z"/>
	<path class="st1" d="M114,12c0.9,0,2.2-0.1,4-0.3l-0.3-1.8c-0.1-0.4,0.1-0.7,0.6-0.8c0.4-0.1,0.7,0.1,0.8,0.5l0.4,1.9
		c1.5-0.2,2.6-0.3,3.5-0.5c0.4-0.1,0.7,0.1,0.8,0.6c0.1,0.4-0.1,0.6-0.6,0.7c-0.3,0-0.7,0.1-1,0.2c-0.8,0.1-1.6,0.2-2.4,0.3l0.5,2.6
		c1.1-0.1,1.9-0.2,2.6-0.3c0.4-0.1,0.7,0.1,0.8,0.6c0.1,0.4-0.1,0.6-0.6,0.7c-0.3,0-0.6,0.1-0.9,0.2c-2.1,0.3-4.2,0.5-6.2,0.6
		c-0.2,0-0.3,0-0.4,0c-0.3-0.1-0.5-0.3-0.5-0.7c0-0.4,0.2-0.6,0.6-0.6c0.7,0,1.8-0.1,3.2-0.2l-0.5-2.6c-1.3,0.1-2.6,0.2-3.9,0.3
		c-0.2,0-0.3,0-0.5,0c-0.3-0.1-0.5-0.3-0.5-0.7C113.4,12.3,113.6,12.1,114,12z M116.9,24.2c0.4,0,0.9-0.1,1.5-0.1
		c1.7-0.2,3.7-0.5,6.1-1c0.5,0,0.7,0.2,0.8,0.5c0.1,0.4-0.1,0.6-0.6,0.8c-1.1,0.3-2.2,0.5-3.2,0.6c0.2,0.6,0.3,1.3,0.5,2
		c1.4,0.9,2.7,1.3,4,1.1c0.4,0,0.7,0.2,0.7,0.6c0,0.4-0.2,0.6-0.5,0.7l-0.2,0c-1.3,0.1-2.5-0.1-3.6-0.7c0.2,1,0.3,1.7,0.4,2.2
		c0.2,0.7,0.1,1.3-0.3,1.6c-0.3,0.3-0.7,0.4-1.2,0.5c-0.7,0.1-1.1-0.1-1.3-0.6c-0.1-0.4,0.1-0.7,0.5-0.7c0.1,0,0.3,0,0.6,0
		c0.3,0,0.4-0.2,0.4-0.6c-0.1-0.5-0.2-1.3-0.5-2.4c-0.3,0.4-0.7,0.8-1.2,1.2c-1.2,0.9-2,1.3-2.7,1.3c-0.4,0-0.6-0.1-0.7-0.4
		c-0.1-0.4,0.1-0.7,0.5-0.8c0.8-0.3,1.6-0.7,2.2-1.2c0.7-0.6,1.2-1.2,1.6-1.8c-0.1-0.6-0.3-1.2-0.4-1.8c-0.6,0.1-1.2,0.2-1.7,0.2
		c-0.8,0.1-1.4,0.1-2,0.1c-0.3-0.1-0.5-0.3-0.5-0.6C115.9,24.4,116.2,24.2,116.9,24.2z M116.8,20.4l6.7-0.8c0.4,0,0.7,0.2,0.7,0.6
		c0,0.4-0.2,0.6-0.6,0.7l-6.7,0.8c-0.4,0-0.6-0.2-0.7-0.5C116.2,20.7,116.4,20.5,116.8,20.4z M132.1,13.5c0,0.8-0.1,1.6-0.3,2.5
		c2.9-0.1,4.8-0.1,5.6,0.1c0.5,0.2,0.7,0.5,0.7,1.1c0,1.3-0.1,2.3-0.5,3c-0.2,0.4-0.6,0.5-1,0.4c-0.3-0.1-0.4-0.4-0.3-0.8
		c0.1-0.3,0.2-0.6,0.3-1c0.1-0.3,0.1-0.8,0.2-1.3c0-0.1-0.1-0.2-0.2-0.2c-0.9-0.1-2.7-0.1-5.2,0c-0.1,0.5-0.3,1-0.5,1.5
		c-0.4,1.1-0.9,1.7-1.3,1.7c-0.4,0-0.7-0.1-0.8-0.6c0-0.2,0.1-0.4,0.2-0.6c0.9-1.4,1.5-3.3,1.7-5.9c0.1-0.3,0.3-0.5,0.5-0.5
		C131.8,12.8,132.1,13,132.1,13.5z M134.3,27.7c-0.1,0.2-0.2,0.5-0.3,0.7c-0.6,1.1-1.1,1.7-1.6,1.7c-0.4,0-0.7-0.2-0.8-0.6
		c0-0.2,0.1-0.4,0.2-0.6c1.2-1.4,2-3.4,2.4-6c0.1-0.3,0.3-0.5,0.5-0.5c0.5,0,0.8,0.2,0.8,0.7c0,1-0.3,2.1-0.7,3.3
		c1.6,1.3,3.2,1.8,4.7,1.6c0.4,0,0.7,0.2,0.8,0.6c0,0.4-0.2,0.7-0.6,0.7l-0.2,0C137.6,29.5,135.9,29,134.3,27.7z"/>
</g>
<g class="st0">
	<path class="st2" d="M22.5,40.4l-0.7,0.1c-3.5,0.5-6,0.7-7.5,0.8c-0.3,0-0.5-0.2-0.5-0.6c0-0.2,0-0.4,0.1-0.5
		c0.1-0.2,0.3-0.2,0.6-0.2c0.8,0,1.7-0.1,2.9-0.3c0-0.1,0-0.1-0.1-0.2c-0.6-5-1.2-9.6-1.9-13.9c-0.1-0.5,0.1-0.8,0.6-1
		c3.3-0.4,5.6-0.7,6.7-0.7c0.4,0,0.7,0.2,0.9,0.6c0.4,1.3,0.9,3.5,1.5,6.7c0.6,3.2,1,5.7,1.2,7.3c0.8-0.1,1.5-0.3,2.2-0.4
		c0.5-0.1,0.8,0.1,0.8,0.6c0,0.4-0.1,0.6-0.5,0.7c-1.3,0.3-3,0.6-5,0.8c0,0.6-0.1,1.1-0.3,1.7c0.4,0.5,1.1,1,2,1.5
		c0.9,0.5,1.6,0.7,2.3,0.8c0.1,0,0.2,0,0.2,0c0.5,0,0.7,0.2,0.7,0.6s-0.2,0.6-0.6,0.7c-0.1,0-0.3,0-0.5,0C26.9,45.3,26,45,25,44.5
		c-0.8-0.4-1.4-0.8-1.9-1.2c-0.3,0.7-0.6,1.4-1.1,2.2c-0.7,1.1-1.3,1.7-1.9,1.7c-0.4,0-0.7-0.2-0.8-0.6c0-0.2,0.1-0.4,0.2-0.6
		C21,44.7,22,42.8,22.5,40.4z M23.1,27.8c-0.2-1.1-0.4-2-0.6-2.6c-1.7,0.1-3.6,0.3-5.6,0.7c0.1,0.9,0.3,1.7,0.4,2.6L23.1,27.8z
		 M23.9,31.4c-0.2-0.9-0.3-1.7-0.5-2.3l-6,0.6l0.3,2.4L23.9,31.4z M17.9,33.4c0.1,0.8,0.1,1.5,0.2,2.2l6.4-0.6
		c-0.1-0.7-0.3-1.5-0.4-2.3L17.9,33.4z M24.8,36.3l-6.4,0.6c0.1,0.8,0.2,1.7,0.3,2.5c0,0,0,0.1,0,0.1c0.9-0.1,1.8-0.2,2.8-0.3
		c1.3-0.2,2.5-0.4,3.5-0.5C25,38,24.9,37.2,24.8,36.3z"/>
	<path class="st2" d="M54.3,17.5c0,0.8-0.2,1.6-0.6,2.5c0.1,0,0.3,0.1,0.5,0.1c0.4,0.1,1.9,0.4,4.5,0.7c0.7,0.1,1,0.5,0.9,1.2
		c-0.3,2.1-1.6,4.7-4.1,7.8c-2.4,3-4.6,4.7-6.6,5.1c-1.3,0.2-2.1,0-2.2-0.7c0-0.4,0.2-0.7,0.6-0.7c0.1,0,0.3,0,0.4,0
		c0.3,0.1,0.6,0.1,0.9,0c0.5-0.1,1.4-0.6,2.6-1.5c0.8-0.6,1.7-1.5,2.7-2.7c-0.3-0.1-0.8-0.2-1.2-0.5c-0.9-0.5-1.4-1-1.6-1.3
		c-0.2-0.6,0-0.9,0.5-1c0.3,0,0.5,0.1,0.7,0.2c0.5,0.5,1.3,1,2.3,1.4c0.2,0,0.3,0.1,0.4,0.2c0.2-0.2,0.3-0.4,0.4-0.6
		c1.5-2,2.5-3.9,2.9-5.6c0-0.1,0-0.2-0.1-0.2c-0.9-0.1-1.9-0.2-2.9-0.3c-1-0.2-1.7-0.3-2.2-0.5c-0.8,1.6-1.8,2.7-3,3.4
		c-0.1,0-0.2,0.1-0.2,0.1c-0.1,0-0.2,0.1-0.3,0.1c-0.4,0-0.7-0.2-0.7-0.6c0-0.3,0.1-0.5,0.4-0.7c1-0.5,1.9-1.5,2.6-2.9
		c0.6-1.2,0.9-2.3,1-3.3c0-0.4,0.2-0.6,0.6-0.7C54.1,16.7,54.3,17,54.3,17.5z M65.1,36.7c0.2,0.6,0.4,1.5,0.6,2.5
		c0.2,1.1,0.3,1.7,0.3,2c0,0.3-0.2,0.6-0.7,0.8c-1.3,0.3-3.2,0.6-5.5,0.8c-0.9,0.1-1.3-0.3-1.2-0.9c0-2.2-0.2-3.8-0.6-4.9
		c-0.1-0.5,0.1-0.8,0.6-0.9c0.4,0,0.6,0.1,0.7,0.4c1.6-0.2,3.2-0.4,4.7-0.5C64.4,36,64.8,36.2,65.1,36.7z M59.5,37.8
		c0.1,0.9,0.2,2,0.3,3.5c0,0.1,0,0.2,0.1,0.2c2.4-0.3,4-0.5,4.5-0.7c0,0,0.1-0.1,0-0.1c-0.2-1.1-0.4-2.1-0.6-3.1
		c0-0.1-0.1-0.2-0.3-0.2C62.4,37.5,61,37.7,59.5,37.8z"/>
	<path class="st2" d="M83.2,32.2c0.1,0,0.2,0,0.1-0.2l0-0.1c-0.1-0.4-0.2-1.3-0.6-2.9c-0.9,0.3-1.8,0.5-2.7,0.8
		c-0.5,0.1-0.8,0-0.9-0.5c-0.1-0.3,0.1-0.6,0.5-0.7c0.1,0,0.1-0.1,0.3-0.1c0.9-0.3,1.7-0.5,2.6-0.8c-0.3-1.1-0.5-2.5-0.9-4
		c-1.5,0.1-2.6,0.1-3.2,0c-0.2-0.1-0.3-0.3-0.3-0.5c0-0.4,0.2-0.7,0.6-0.8c0.4,0,1-0.1,1.9-0.1c0.3,0,0.5,0,0.8,0
		c-0.1-0.7-0.3-1.4-0.5-2c-0.1-0.5,0-0.8,0.5-0.9c0.4-0.1,0.7,0.1,0.8,0.5c0.2,0.8,0.3,1.6,0.5,2.3c0.8-0.1,1.7-0.2,2.6-0.3
		c0.6-0.1,0.8,0.1,0.9,0.6c0,0.4-0.2,0.7-0.8,0.8l-0.9,0.1c-0.5,0.1-1,0.1-1.5,0.2c0.3,1.5,0.6,2.7,0.8,3.8c0.5-0.2,1-0.3,1.5-0.4
		c0.1,0,0.1-0.1,0.2-0.1c0.5-0.1,0.8,0,0.9,0.5c0,0.3-0.1,0.6-0.4,0.7c-0.1,0-0.1,0.1-0.2,0.1c-0.6,0.2-1.2,0.3-1.7,0.5
		c0.3,1.5,0.5,2.5,0.5,2.9c0.1,0.7,0.1,1.3-0.1,1.5c-0.2,0.3-0.6,0.5-1.1,0.6c-0.7,0-1.1-0.1-1.2-0.6c-0.1-0.3,0-0.6,0.3-0.8
		C82.7,32.2,82.9,32.2,83.2,32.2z M99.1,12.7c0.2,0.5,0.3,1.3,0.5,2.1c0.2,0.9,0.3,1.5,0.2,1.7c0,0.3-0.2,0.6-0.7,0.8
		c-1.5,0.4-3.5,0.7-6.2,0.9c-0.9,0.1-1.3-0.3-1.2-0.9c0-1.9-0.1-3.3-0.5-4.2c-0.1-0.5,0.1-0.8,0.6-0.9c0.3,0,0.6,0.1,0.7,0.4
		c1.8-0.2,3.6-0.4,5.4-0.6C98.5,12,98.9,12.2,99.1,12.7z M92.8,13.9c0.1,0.7,0.1,1.7,0.2,2.8c0,0.1,0,0.2,0.1,0.2
		c2.8-0.3,4.6-0.6,5.2-0.8c0,0,0.1-0.1,0-0.1c-0.1-0.9-0.3-1.7-0.5-2.4c0-0.1-0.1-0.2-0.3-0.2C96.2,13.6,94.6,13.7,92.8,13.9z
		 M97.7,30.8c0,1.5-0.1,2.7-0.4,3.6c-0.1,0.3-0.3,0.4-0.6,0.5c-0.5,0.1-0.8-0.1-0.8-0.6c0-0.1,0-0.2,0-0.3c0.5-1.8,0.4-4.8-0.2-9
		c-0.2-0.7,0-1.1,0.6-1.3c2.5-0.4,4.3-0.5,5.3-0.6c0.4,0,0.7,0.2,0.9,0.6c0.4,1.6,0.9,4.6,1.6,9.1l0.2,1.4c0.1,1.1-0.2,1.7-1.2,1.8
		c-0.7,0.1-1.1-0.2-1.2-0.6c-0.1-0.4,0.1-0.6,0.4-0.7c0.2,0,0.3,0,0.5,0c0.1,0,0.2-0.1,0.1-0.3c-0.2-1.5-0.4-2.9-0.6-4.1L97.7,30.8z
		 M101.6,26.1c-0.1-0.6-0.2-1.1-0.3-1.6c-0.9,0.1-2.3,0.2-4.1,0.4c0.1,0.6,0.2,1.1,0.2,1.6L101.6,26.1z M97.5,27.8
		c0.1,0.6,0.1,1.2,0.2,1.7l4.4-0.5c-0.1-0.6-0.2-1.2-0.3-1.7L97.5,27.8z"/>
	<path class="st2" d="M114,12c0.9,0,2.2-0.1,4-0.3l-0.3-1.8c-0.1-0.4,0.1-0.7,0.6-0.8c0.4-0.1,0.7,0.1,0.8,0.5l0.4,1.9
		c1.5-0.2,2.6-0.3,3.5-0.5c0.4-0.1,0.7,0.1,0.8,0.6c0.1,0.4-0.1,0.6-0.6,0.7c-0.3,0-0.7,0.1-1,0.2c-0.8,0.1-1.6,0.2-2.4,0.3l0.5,2.6
		c1.1-0.1,1.9-0.2,2.6-0.3c0.4-0.1,0.7,0.1,0.8,0.6c0.1,0.4-0.1,0.6-0.6,0.7c-0.3,0-0.6,0.1-0.9,0.2c-2.1,0.3-4.2,0.5-6.2,0.6
		c-0.2,0-0.3,0-0.4,0c-0.3-0.1-0.5-0.3-0.5-0.7c0-0.4,0.2-0.6,0.6-0.6c0.7,0,1.8-0.1,3.2-0.2l-0.5-2.6c-1.3,0.1-2.6,0.2-3.9,0.3
		c-0.2,0-0.3,0-0.5,0c-0.3-0.1-0.5-0.3-0.5-0.7C113.4,12.3,113.6,12.1,114,12z M116.9,24.2c0.4,0,0.9-0.1,1.5-0.1
		c1.7-0.2,3.7-0.5,6.1-1c0.5,0,0.7,0.2,0.8,0.5c0.1,0.4-0.1,0.6-0.6,0.8c-1.1,0.3-2.2,0.5-3.2,0.6c0.2,0.6,0.3,1.3,0.5,2
		c1.4,0.9,2.7,1.3,4,1.1c0.4,0,0.7,0.2,0.7,0.6c0,0.4-0.2,0.6-0.5,0.7l-0.2,0c-1.3,0.1-2.5-0.1-3.6-0.7c0.2,1,0.3,1.7,0.4,2.2
		c0.2,0.7,0.1,1.3-0.3,1.6c-0.3,0.3-0.7,0.4-1.2,0.5c-0.7,0.1-1.1-0.1-1.3-0.6c-0.1-0.4,0.1-0.7,0.5-0.7c0.1,0,0.3,0,0.6,0
		c0.3,0,0.4-0.2,0.4-0.6c-0.1-0.5-0.2-1.3-0.5-2.4c-0.3,0.4-0.7,0.8-1.2,1.2c-1.2,0.9-2,1.3-2.7,1.3c-0.4,0-0.6-0.1-0.7-0.4
		c-0.1-0.4,0.1-0.7,0.5-0.8c0.8-0.3,1.6-0.7,2.2-1.2c0.7-0.6,1.2-1.2,1.6-1.8c-0.1-0.6-0.3-1.2-0.4-1.8c-0.6,0.1-1.2,0.2-1.7,0.2
		c-0.8,0.1-1.4,0.1-2,0.1c-0.3-0.1-0.5-0.3-0.5-0.6C115.9,24.4,116.2,24.2,116.9,24.2z M116.8,20.4l6.7-0.8c0.4,0,0.7,0.2,0.7,0.6
		c0,0.4-0.2,0.6-0.6,0.7l-6.7,0.8c-0.4,0-0.6-0.2-0.7-0.5C116.2,20.7,116.4,20.5,116.8,20.4z M132.1,13.5c0,0.8-0.1,1.6-0.3,2.5
		c2.9-0.1,4.8-0.1,5.6,0.1c0.5,0.2,0.7,0.5,0.7,1.1c0,1.3-0.1,2.3-0.5,3c-0.2,0.4-0.6,0.5-1,0.4c-0.3-0.1-0.4-0.4-0.3-0.8
		c0.1-0.3,0.2-0.6,0.3-1c0.1-0.3,0.1-0.8,0.2-1.3c0-0.1-0.1-0.2-0.2-0.2c-0.9-0.1-2.7-0.1-5.2,0c-0.1,0.5-0.3,1-0.5,1.5
		c-0.4,1.1-0.9,1.7-1.3,1.7c-0.4,0-0.7-0.1-0.8-0.6c0-0.2,0.1-0.4,0.2-0.6c0.9-1.4,1.5-3.3,1.7-5.9c0.1-0.3,0.3-0.5,0.5-0.5
		C131.8,12.8,132.1,13,132.1,13.5z M134.3,27.7c-0.1,0.2-0.2,0.5-0.3,0.7c-0.6,1.1-1.1,1.7-1.6,1.7c-0.4,0-0.7-0.2-0.8-0.6
		c0-0.2,0.1-0.4,0.2-0.6c1.2-1.4,2-3.4,2.4-6c0.1-0.3,0.3-0.5,0.5-0.5c0.5,0,0.8,0.2,0.8,0.7c0,1-0.3,2.1-0.7,3.3
		c1.6,1.3,3.2,1.8,4.7,1.6c0.4,0,0.7,0.2,0.8,0.6c0,0.4-0.2,0.7-0.6,0.7l-0.2,0C137.6,29.5,135.9,29,134.3,27.7z"/>
</g>
</svg>
