<svg id="组_3914" data-name="组 3914" xmlns="http://www.w3.org/2000/svg" width="86.476" height="68.21" viewBox="0 0 86.476 68.21">
  <path id="路径_11666" data-name="路径 11666" d="M268.881,306.288c.27-.622.437-.995.6-1.372a4.324,4.324,0,0,1,4.027-2.7,11.679,11.679,0,0,1,2.125.014,3.51,3.51,0,0,1,3.1,2.257,12.1,12.1,0,0,1,.3,7.826,6.92,6.92,0,0,1-2.707,3.849c-.548.4-.815.8-.534,1.476.133.322.135.7.251,1.03a16.544,16.544,0,0,1,.528,6.309,19.489,19.489,0,0,1-1.856,7.154,12.264,12.264,0,0,1-2.452,3.66,18.2,18.2,0,0,0-1.7,1.8,21.317,21.317,0,0,1-4.715,4.244,67.384,67.384,0,0,1-15.726,8.427,87.692,87.692,0,0,1-9.456,2.978,45.061,45.061,0,0,1-8.064,1.117c-1,.078-2,.147-3,.261a42.666,42.666,0,0,1-6.728.016c-1.062-.046-2.123-.135-3.184-.2a15.351,15.351,0,0,1-4.263-1.135,17.952,17.952,0,0,1-6.136-3.8,13.634,13.634,0,0,1-2.289-2.919,17.854,17.854,0,0,1-2.509-5.634c-.163-.8-.412-1.589-.617-2.366a6.991,6.991,0,0,0-2.183-.1,15.607,15.607,0,0,1-3.689-.421,4.64,4.64,0,0,1-3.118-2.151,2.463,2.463,0,0,0-.2-.3c-1.86-2.28-1.892-4.866-1.247-7.556.193-.8.435-1.595.671-2.387a2.6,2.6,0,0,1,1.139-1.534,4.924,4.924,0,0,1,4.552-.655c.873.352,1.712.791,2.556,1.211.679.338.924,1.05,1.341,1.614a.392.392,0,0,0,.314.107.324.324,0,0,0,.223-.2c.424-2.083.825-4.17,1.257-6.252a.845.845,0,0,0-.474-1.028,7.026,7.026,0,0,1-2.241-2.218,5.71,5.71,0,0,1-1.3-3.763c.031-1.58-.173-3.171.458-4.722,1.048-2.581,2.078-5.15,4.155-7.13.64-.611,1.252-1.257,1.832-1.927A22.74,22.74,0,0,1,214,294.37a6.908,6.908,0,0,1,1.452-.639,20.755,20.755,0,0,1,6.422-1.124,4.64,4.64,0,0,0,3.468-1.46,4.127,4.127,0,0,1,.992-.731,40.483,40.483,0,0,1,7.837-3.235,22.88,22.88,0,0,1,4.2-.555,37.623,37.623,0,0,1,4.43-.007,20.05,20.05,0,0,1,4.8,1.142c1.294.4,2.6.751,3.9,1.115,2.083.58,4.224,1.081,5.987,2.489a22.478,22.478,0,0,0,2.091,1.325,5.119,5.119,0,0,1,2.312,3.218,4.289,4.289,0,0,0,.272.841,4.361,4.361,0,0,1,.222,3.116c-.2.758-.121,1.209.6,1.578a16.937,16.937,0,0,1,3.027,2.439C266.917,304.639,267.815,305.392,268.881,306.288Zm-17.287-5.139a18.3,18.3,0,0,1-3.113,3.019,6.827,6.827,0,0,1-5.9,1.717,12.468,12.468,0,0,1-2.232-.545,1.38,1.38,0,0,0-1.737.367c-1.626,1.9-3.9,2.814-6.061,3.894a3.938,3.938,0,0,1-.995.366c-2.887.551-5.747.716-8.453-.747a.53.53,0,0,0-.752.167c-.8.938-1.572,1.9-2.41,2.811-1.038,1.122-2.089,2.241-3.213,3.274-.865.794-1.847,1.463-2.789,2.173a6.914,6.914,0,0,1-3.951,1.774,13.46,13.46,0,0,0-1.386.266.851.851,0,0,0-.778.81c-.349,1.918-.676,3.839-1.082,5.743a20.973,20.973,0,0,0-.431,4.925,19.3,19.3,0,0,1-.175,3.352,7.664,7.664,0,0,0,.045,3.345A27.424,27.424,0,0,0,208.8,344.6a12.87,12.87,0,0,0,2.742,3.442,16.446,16.446,0,0,0,10.582,3.877c1.238-.006,2.477.115,3.716.152a19.247,19.247,0,0,0,1.944-.03c2.179-.158,4.362-.295,6.532-.528a38.666,38.666,0,0,0,5.6-.833,90.761,90.761,0,0,0,9.306-2.853,64.871,64.871,0,0,0,15.318-8.05,20.046,20.046,0,0,0,4.213-3.747,19.388,19.388,0,0,1,1.726-1.779,13.4,13.4,0,0,0,2.35-3.3,16.031,16.031,0,0,0,1.732-7.693,10.122,10.122,0,0,0-.153-2.645c-.451-1.712-.882-3.43-1.367-5.132a9.224,9.224,0,0,0-1.489-3,52.973,52.973,0,0,0-9.08-8.9,10.285,10.285,0,0,0-1.05-.656,1.115,1.115,0,0,0-1.159-.1,5.858,5.858,0,0,1-3.989.12,11.341,11.341,0,0,1-3.447-1.34A2.082,2.082,0,0,0,251.594,301.15Zm-10.447,1.986a3.7,3.7,0,0,0,1.878.59,4.53,4.53,0,0,0,4.495-1.886,4.528,4.528,0,0,1,1.284-1.2,2.084,2.084,0,0,0,.867-2.441,6.207,6.207,0,0,1-.215-.857,5.554,5.554,0,0,1,.059-1.229.752.752,0,0,1,.748-.634,1.57,1.57,0,0,1,1.158.337,2.343,2.343,0,0,1,1.087,2.27,1.388,1.388,0,0,0,.851,1.587,14.235,14.235,0,0,0,4.583,1.276,2.384,2.384,0,0,0,2.457-1.411,2.432,2.432,0,0,0-.166-2.685,22.275,22.275,0,0,0-3.832-3.9c-1.556-1.294-3.5-1.677-5.351-2.2-1.415-.4-2.83-.787-4.226-1.26a18.8,18.8,0,0,0-4.3-1,37.779,37.779,0,0,0-7.407.388,3.233,3.233,0,0,0-.513.136,57.982,57.982,0,0,0-7.375,2.99,5.386,5.386,0,0,0-.863.611c-.532.374-1.05.769-1.6,1.107a2.191,2.191,0,0,1-2.179.274,3.068,3.068,0,0,0-2.084-.1,2.865,2.865,0,0,1-1.221.121,3,3,0,0,0-1.549.272,19.6,19.6,0,0,0-8.625,5.983c-.334.413-.679.821-1.049,1.2a16.521,16.521,0,0,0-3.927,6.647,9.867,9.867,0,0,0-.523,3.466,16.288,16.288,0,0,0,.852,3.962,2.2,2.2,0,0,0,2.4,1.7,18.347,18.347,0,0,1,1.95-.014,4.475,4.475,0,0,0,2.971-.928,36.441,36.441,0,0,1,3.024-2.154,12.687,12.687,0,0,0,2.236-1.718,5.72,5.72,0,0,1,.823-.665,7.552,7.552,0,0,0,3.209-3.867,3.481,3.481,0,0,0,.215-2.339c-.746-2.528,0-4.9.936-7.227a1.16,1.16,0,0,1,.927-.73c2.2-.431,4.392,2.324,3.653,4.038-.418.969-.608,2.021-1.131,2.97-.313.566-.654,1.116-.964,1.685a.863.863,0,0,0,.527,1.384,6.561,6.561,0,0,0,1.555.307,10.148,10.148,0,0,0,6.644-1.341,3.419,3.419,0,0,1,.634-.315,10.412,10.412,0,0,0,2.993-2.176.544.544,0,0,0,.046-.9,3.788,3.788,0,0,1-1.131-3.392,4.155,4.155,0,0,0-.122-1.039,2.25,2.25,0,0,1,2.313-2.65c.414-.013.83.022,1.241-.005a2.246,2.246,0,0,1,1.856.848c.488.512.716,1.221,1.333,1.64a.816.816,0,0,1,.19.981,14.919,14.919,0,0,1-.629,1.459A14.347,14.347,0,0,0,241.147,303.136Zm-37.373,29.342h.027c0-.472,0-.944,0-1.415.01-2.631.05-2.669-1.732-4.531a4.9,4.9,0,0,0-3.792-1.609c-1.5.069-2.458.683-2.678,2.068-.092.579-.347,1.13-.452,1.707a6.926,6.926,0,0,0,1.337,6.15,3.526,3.526,0,0,0,1.854,1.269,16.845,16.845,0,0,0,4.561.437.791.791,0,0,0,.867-.891C203.792,334.6,203.774,333.54,203.774,332.478Zm71.238-17.9a6.44,6.44,0,0,0,2.217-4.175c.07-.941.082-1.886.17-2.825a5.728,5.728,0,0,0-.444-2.414,1.546,1.546,0,0,0-1.466-1.086,11.058,11.058,0,0,0-2.121.022,2.668,2.668,0,0,0-2.4,1.828,3.066,3.066,0,0,0,.478,3.16A17.793,17.793,0,0,1,275.012,314.581Zm-37.1-14.894c.019.352.034.7.058,1.053a1.491,1.491,0,0,0,.476.914.625.625,0,0,0,1.046-.006,16.371,16.371,0,0,0,1.057-1.614,1.43,1.43,0,0,0-.248-2.049,1.174,1.174,0,0,0-2.024.189A2.6,2.6,0,0,0,237.916,299.688Zm-14.852,3.488c.072.5-.167,1.112.2,1.226.639.2.539-.591.805-.913a5.347,5.347,0,0,0,.783-2.295,1.128,1.128,0,0,0-.5-1.212c-.212-.173-.446-.173-.556.091A9.471,9.471,0,0,0,223.064,303.176Z" transform="translate(-193.054 -286.558)" fill="#458de5" fill-rule="evenodd"/>
  <path id="路径_11667" data-name="路径 11667" d="M258.1,365.094c-.822-.086-1.642-.179-2.464-.253-.706-.066-1.414-.155-2.12-.155a10.389,10.389,0,0,1-6.1-2.054,21.659,21.659,0,0,1-3.4-3.092,4.372,4.372,0,0,1-1.315-3.362c.039-.588.009-1.182.042-1.771a1.6,1.6,0,0,1,.189-.666.682.682,0,0,1,.408-.275.493.493,0,0,1,.545.352,1.984,1.984,0,0,1,.117.692,5.631,5.631,0,0,0,1.979,4.01,21.9,21.9,0,0,0,3.055,2.41,7.883,7.883,0,0,0,4.173,1.287,21.266,21.266,0,0,1,3,.189,13.422,13.422,0,0,0,6.433-.813,13.266,13.266,0,0,0,5.222-3.208,16.761,16.761,0,0,0,2.97-3.247c1.007-1.727,2.354-3.253,3.045-5.165a2.209,2.209,0,0,1,.774-.951.979.979,0,0,1,1.6.652,1.79,1.79,0,0,1,.015.528,5.159,5.159,0,0,1-.633,2.2,57.409,57.409,0,0,1-3.591,5.685,9.124,9.124,0,0,1-1.606,1.637,5.609,5.609,0,0,0-.95.794c-2.1,2.384-4.936,3.366-7.886,4.1A10.862,10.862,0,0,1,258.1,365.094Z" transform="translate(-212.59 -311.052)" fill="#458de5" fill-rule="evenodd"/>
  <path id="路径_11668" data-name="路径 11668" d="M245.14,340.639a5.972,5.972,0,0,1-.082.98,1.316,1.316,0,0,1-.867,1.027,3.521,3.521,0,0,1-2.237-.015,1.347,1.347,0,0,1-.86-1.227,3.441,3.441,0,0,1,1.451-3.021,1.573,1.573,0,0,1,2.472.973A10.8,10.8,0,0,1,245.14,340.639Z" transform="translate(-211.955 -306.829)" fill="#458de5" fill-rule="evenodd"/>
  <path id="路径_11669" data-name="路径 11669" d="M283.338,329.958a1.63,1.63,0,0,1,1.25.573,3.337,3.337,0,0,1,.8,1.752,1.935,1.935,0,0,1-2.243,1.891,2.391,2.391,0,0,1-1.489-3.141A1.791,1.791,0,0,1,283.338,329.958Z" transform="translate(-227.857 -303.639)" fill="#458de5" fill-rule="evenodd"/>
</svg>
