<svg xmlns="http://www.w3.org/2000/svg" width="142.79" height="122.41" viewBox="0 0 142.79 122.41">
  <g id="组_3913" data-name="组 3913" transform="matrix(0.899, 0.438, -0.438, 0.899, 33.769, 0)">
    <path id="路径_11662" data-name="路径 11662" d="M337.024,406.263a8,8,0,0,1,.341,4.1,3.706,3.706,0,0,1-.494,1.685,4.026,4.026,0,0,1-3.215,2.125,7.056,7.056,0,0,1-6.578-2.613,7,7,0,0,0-1.739-1.7,5.038,5.038,0,0,0-1.2,1.34,7.2,7.2,0,0,1-6.091,2.674,3.273,3.273,0,0,1-1.211-.224,19.837,19.837,0,0,1-3.514-1.658,13.722,13.722,0,0,1-5.189-6.344,12.631,12.631,0,0,1-.454-2.786c-.073-.477-.359-.613-.728-.356a1.442,1.442,0,0,0-.278.22,4.551,4.551,0,0,1-3.558,1.255,5.533,5.533,0,0,1-3.66-1.083,19.707,19.707,0,0,1-5.263-5.184,11.534,11.534,0,0,1-1.448-2.386,2.028,2.028,0,0,1,.83-2.633,10.859,10.859,0,0,1,1.5-.936,76.156,76.156,0,0,0,13.436-9.152,24.939,24.939,0,0,0,5.013-6.161,2.346,2.346,0,0,0,.353-1.518,14.27,14.27,0,0,1,.275-3.7c.254-1.571.455-3.154.653-4.736a20.384,20.384,0,0,1,.83-3.436,10.048,10.048,0,0,0,.428-1.529,3.221,3.221,0,0,1,.56-1.246c.665-1.112,1.227-2.288,1.791-3.457a19.554,19.554,0,0,1,1.861-3,38.494,38.494,0,0,1,5.444-5.786,31.071,31.071,0,0,1,8.019-5.437c.966-.438,1.862-1.026,2.82-1.483a13.651,13.651,0,0,1,3.514-1.183,5.215,5.215,0,0,0,2.435-.963,6.24,6.24,0,0,1,2.3-.883,25.8,25.8,0,0,1,4-.728,30.109,30.109,0,0,1,7.759.218c2.1.3,4.218.475,6.311.874a20.554,20.554,0,0,1,4.825,1.706c1.124.523,2.2,1.141,3.338,1.64a19.528,19.528,0,0,1,4.715,3.11,63.791,63.791,0,0,1,10.006,10.245,10.378,10.378,0,0,1,1.5,2.593c.31.829.693,1.631,1,2.46a7.911,7.911,0,0,0,3.022,3.82,27.6,27.6,0,0,1,2.367,1.859,46,46,0,0,0,7.264,4.714c2.369,1.392,5,2.081,7.48,3.147a7.43,7.43,0,0,0,1.545.375,7.691,7.691,0,0,1,2.309.877,2.662,2.662,0,0,1,1.371,1.954,8.378,8.378,0,0,1-.4,5.375c-.834,1.716-1.018,3.624-1.657,5.4a11.228,11.228,0,0,1-5.409,6.064,6.416,6.416,0,0,1-3.083.7c-.531.008-1.062.036-1.592.075a.5.5,0,0,0-.531.563,1.7,1.7,0,0,0,.028.352,4.349,4.349,0,0,1-.682,3.207,3.955,3.955,0,0,1-2.208,1.928,32.532,32.532,0,0,1-4.051,1.273c-.855.19-.975.3-.738,1.052a2.878,2.878,0,0,1-1.113,3.279,29.347,29.347,0,0,1-3.17,2.258,3.475,3.475,0,0,1-1.523.428c-1.113.143-2.228.269-3.34.431-2.575.372-4.578-.762-6.392-2.4a1.739,1.739,0,0,1-.521-.909c-.163-.69-.325-1.38-.5-2.067a3.365,3.365,0,0,1,.154-1.742c.215-.8.448-1.589.625-2.394a.8.8,0,0,0-.17-.649c-.193-.181-.423.035-.6.176a51.711,51.711,0,0,1-5.712,3.874,16.083,16.083,0,0,1-2.364,1.2c-2.295.933-4.537,2-6.91,2.742a10.054,10.054,0,0,1-1.354.411,51.576,51.576,0,0,1-8.968.968c-1.358-.018-2.713-.1-4.071-.13a11.428,11.428,0,0,1-2.448-.349q-3.355-.82-6.715-1.611C337.929,406.393,337.638,406.363,337.024,406.263Zm8.073-57.445c.947,1.917,1.906,3.792,2.961,5.615a28.635,28.635,0,0,0,8.538,9.788,15.575,15.575,0,0,0,1.979,1.159,64.582,64.582,0,0,0,14.764,4.864,11.093,11.093,0,0,1,2.187.7,30.359,30.359,0,0,0,5.727,1.827,32,32,0,0,1,3.42.908,5.916,5.916,0,0,0,2.668.718,12.064,12.064,0,0,0,.471-2.78,6.424,6.424,0,0,0-.073-1.584c-.168-1.468-.424-2.927-.527-4.4a20.089,20.089,0,0,0-1.78-6.808,16.986,16.986,0,0,0-1.551-2.768,55.04,55.04,0,0,0-9.7-10.278,12.886,12.886,0,0,0-2.734-1.948c-1.489-.72-2.946-1.505-4.44-2.213a14.834,14.834,0,0,0-3.8-1.434,73.1,73.1,0,0,0-14.23-1.5,22.6,22.6,0,0,0-3.88.312c-.277.056-.7.142-.774.326-.441,1.12-1.524,1.238-2.419,1.588a33.5,33.5,0,0,0-4.531,2c-1.689.969-3.362,1.967-5.059,2.922a17.345,17.345,0,0,0-3.414,2.508c-1.161,1.093-2.376,2.127-3.552,3.2a23.4,23.4,0,0,0-4.286,5.384c-1.02,1.719-1.761,3.6-2.632,5.412a7.876,7.876,0,0,0-.754,3.947,18.411,18.411,0,0,1-.889,7.333c-.1.275-.151.57-.238.852a6.166,6.166,0,0,0-.22,2.094c.113,2.957.557,5.878.937,8.806a7.213,7.213,0,0,0,1.067,3.292.709.709,0,0,0,.56-.449,15.209,15.209,0,0,1,.927-1.712,46.142,46.142,0,0,1,6.717-7.514c2.059-1.856,4.273-3.542,6.415-5.306a12.01,12.01,0,0,0,1.2-1.043,73.26,73.26,0,0,0,6.017-6.964,23.49,23.49,0,0,0,3.507-6.9,18.777,18.777,0,0,0,.745-5.762A13.075,13.075,0,0,1,345.1,348.817Zm.345,4.834c-.036.92-.084,1.783-.1,2.647a20.542,20.542,0,0,1-1.471,6.7,19.859,19.859,0,0,1-2.668,4.372,44.577,44.577,0,0,1-8.2,9,70.894,70.894,0,0,0-9.171,8.573,29.721,29.721,0,0,0-3.888,5.682,1.331,1.331,0,0,0-.013,1.48,16.015,16.015,0,0,0,4.648,5.266c1.836,1.184,3.708,2.31,5.571,3.447a2.785,2.785,0,0,0,.814.34,30.222,30.222,0,0,1,5.588,2.209,11.612,11.612,0,0,0,2.151.8c2.356.548,4.706,1.118,7.064,1.666a6.744,6.744,0,0,0,1.22.181,51.679,51.679,0,0,0,10.065-.227,28.738,28.738,0,0,0,6.469-1.741c.878-.347,1.734-.753,2.617-1.084a36.207,36.207,0,0,0,9.968-5.989,12.459,12.459,0,0,0,1.29-1.207c1.166-1.253,2.332-2.51,3.454-3.8a16.25,16.25,0,0,0,2.811-4.061c.237-.541.371-1.112.573-1.649.192-.516.752-.88.97-1.443a10.329,10.329,0,0,0,.519-1.312q.63-2.67,1.186-5.356c.216-1.04.064-1.3-1-1.735a27.412,27.412,0,0,0-4.728-1.46,33.51,33.51,0,0,1-6.953-2.027,6.632,6.632,0,0,0-1.528-.432,66.877,66.877,0,0,1-10.863-3.167,28.961,28.961,0,0,1-5.608-2.61,21.562,21.562,0,0,1-6.316-5.868,35.511,35.511,0,0,1-3.588-6.087C346.158,354.372,346.123,353.818,345.442,353.651Zm56.283,38.508a7.415,7.415,0,0,0,3.29-.556,8.92,8.92,0,0,0,4.481-4.795,53.169,53.169,0,0,1,1.839-5.518,5.815,5.815,0,0,0,.269-3.642,1.243,1.243,0,0,0-.825-1.047,5.1,5.1,0,0,0-1-.335,15.954,15.954,0,0,1-3.87-1.218,16.875,16.875,0,0,0-1.685-.539,7.688,7.688,0,0,1-1.33-.471q-2.48-1.367-4.923-2.8a31.78,31.78,0,0,1-6.179-4.717c-.588-.578-1.235-1.1-1.86-1.638a.372.372,0,0,0-.469-.082c-.2.116-.145.3-.129.468.061.587.153,1.171.206,1.759a25.767,25.767,0,0,1,.422,5.28c-.036.312.224.391.468.357a13.356,13.356,0,0,1,3-.076,3.409,3.409,0,0,1,2.865,1.8c.172.309.348.615.512.93a6.123,6.123,0,0,1-.5,6.33,8.3,8.3,0,0,1-3.341,3.069,1.6,1.6,0,0,0-.435.3,10.455,10.455,0,0,1-5.134,2.212,1.714,1.714,0,0,0-1.466,1.049,22.108,22.108,0,0,1-4.467,6.333c-.679.739-1.331,1.5-2.027,2.225a2.118,2.118,0,0,0-.609,1.941,5.859,5.859,0,0,1,0,2.107,7.754,7.754,0,0,0-.11,1.936,3.752,3.752,0,0,0,.964,2.759,5.264,5.264,0,0,0,4.4,1.437,12.267,12.267,0,0,1,1.933-.233c1.993-.019,3.395-1.207,4.808-2.37.453-.371.457-.711.151-1.261a2.562,2.562,0,0,0-.4-.584c-1.2-1.18-.56-2.543,1.192-2.542a1.583,1.583,0,0,0,.176-.021,24.036,24.036,0,0,0,5.118-1.372,2.509,2.509,0,0,0,1.5-1.4c.653-1.388.289-2.239-1.167-2.683a8.389,8.389,0,0,1-1.169-.4,2.147,2.147,0,0,1-.679-.542,1.128,1.128,0,0,1-.067-1.325,1.064,1.064,0,0,1,1.025-.57,3.76,3.76,0,0,1,1.209.239,4.941,4.941,0,0,0,2.6.289C400.78,392.188,401.254,392.184,401.725,392.159Zm-85.118-1.335c-.146-.394-.224-.677-.351-.936a14.967,14.967,0,0,1-1.4-5.095c-.163-1.587-.395-3.166-.605-4.747-.021-.164-.043-.4-.269-.389a.672.672,0,0,0-.421.232c-.306.36-.583.743-.865,1.123A29.006,29.006,0,0,1,307.684,386a70.361,70.361,0,0,1-11.465,7.657,11.076,11.076,0,0,0-1.057.641.61.61,0,0,0-.159.925,13.268,13.268,0,0,1,.958,1.26c1.116,2.13,3.005,3.478,4.9,4.77a3.754,3.754,0,0,0,4.327-.012,23.978,23.978,0,0,1,2.139-1.247c1.068-.516,1.716-.2,1.959.934a25.09,25.09,0,0,1,.409,2.626,6.526,6.526,0,0,0,.83,2.5,12.481,12.481,0,0,0,3.822,4.119,17.784,17.784,0,0,0,3.019,1.462,1.74,1.74,0,0,0,.69.132,5.585,5.585,0,0,0,4.718-1.983c.483-.595.894-1.247,1.355-1.86a1.306,1.306,0,0,1,2.232-.107,25.736,25.736,0,0,0,2.4,2.58,4.965,4.965,0,0,0,4.787,1.633,1.9,1.9,0,0,0,1.637-1.4c.393-1.36.684-2.748,1.023-4.123a.666.666,0,0,0-.39-.868,41.188,41.188,0,0,0-4.065-1.744,16.729,16.729,0,0,1-4.331-1.965c-.776-.519-.825-.5-1.461.153a2.845,2.845,0,0,1-1.326.837,9.123,9.123,0,0,1-6.573-.3,16.616,16.616,0,0,1-2.337-1.257c-1.885-1.339-3.35-2.981-3.516-5.453a11.515,11.515,0,0,1,.488-3.668,1.427,1.427,0,0,1,1.422-1.11C314.884,391.068,315.637,390.945,316.607,390.823Zm70.979-5.529a11.1,11.1,0,0,0,3.31-1.414c.6-.463,1.256-.86,1.894-1.277a6.891,6.891,0,0,0,2.538-3.075c.707-1.645.17-3.224-.686-4.7a1.2,1.2,0,0,0-.842-.6,5.623,5.623,0,0,0-3.451.216,1.272,1.272,0,0,0-.846,1.212,14.716,14.716,0,0,1-.532,3.276C388.505,380.938,388.094,382.949,387.587,385.295Zm-64.254,16.051c.466-.059.938-.1,1.4-.188a.688.688,0,0,0,.39-.321c.093-.166-.024-.33-.173-.434-.193-.136-.394-.259-.594-.386a15.956,15.956,0,0,1-5.326-5.1,1.814,1.814,0,0,0-.416-.568,2.621,2.621,0,0,1-1.162-1.692c-.067-.327-.378-.417-.7-.374-.176.022-.352.043-.526.074-2.188.384-1.843.371-2.146,2.347a3.75,3.75,0,0,0,.614,2.879A8.6,8.6,0,0,0,317.246,400,8.388,8.388,0,0,0,323.332,401.346Z" transform="translate(-292.573 -337.205)" fill="#ffbd24" fill-rule="evenodd"/>
    <path id="路径_11663" data-name="路径 11663" d="M374.491,423.816a14.931,14.931,0,0,1-.106-1.543,1.141,1.141,0,0,1,1.266-1.18,9.131,9.131,0,0,0,4.736-1.119,21.727,21.727,0,0,1,6.295-1.659c1.762-.172,3.517-.43,5.272-.664a7.514,7.514,0,0,1,2.466.062,1.32,1.32,0,0,1,1.147,1.17,3.053,3.053,0,0,1,.073.526,23.942,23.942,0,0,1-.018,3.522,34.547,34.547,0,0,1-.937,5.4,7.439,7.439,0,0,1-2.623,3.67,8.4,8.4,0,0,1-7.195,1.5,11.772,11.772,0,0,1-2.351-.759c-1.034-.425-2.031-.921-3.092-1.3a5.107,5.107,0,0,1-2.753-2.394c-.676-1.242-1.305-2.513-1.884-3.8A6.079,6.079,0,0,1,374.491,423.816Zm13.8-3.836,0-.013c-.936.116-1.871.237-2.807.352a8.647,8.647,0,0,0-2.754.583,25.4,25.4,0,0,1-5.053,1.557c-.228.056-.46.1-.69.148a.459.459,0,0,0-.4.5,3.456,3.456,0,0,0,.118,1.048,18.32,18.32,0,0,0,2,4.115,3.026,3.026,0,0,0,1.672,1.249,13.291,13.291,0,0,1,2.591,1.113,9.378,9.378,0,0,0,4.98.9,5.888,5.888,0,0,0,4.931-3.968,27.478,27.478,0,0,0,.83-4.866,18.053,18.053,0,0,0,.006-2.644.6.6,0,0,0-.685-.62,7.516,7.516,0,0,0-.88.063C390.864,419.655,389.577,419.819,388.292,419.98Z" transform="translate(-324.772 -368.838)" fill="#ffbd24" fill-rule="evenodd"/>
    <path id="路径_11664" data-name="路径 11664" d="M367.537,409.9a2.32,2.32,0,0,1,.314-1.236,1.881,1.881,0,0,1,3.121-.2,3.113,3.113,0,0,1,.592,2,2.191,2.191,0,0,1-1.981,1.927,1.852,1.852,0,0,1-1.916-1.488C367.61,410.673,367.6,410.434,367.537,409.9Z" transform="translate(-322.076 -364.962)" fill="#ffbd24" fill-rule="evenodd"/>
    <path id="路径_11665" data-name="路径 11665" d="M406.846,403.46a1.749,1.749,0,0,1-.743,1.929,2.656,2.656,0,0,1-2.518.243.771.771,0,0,1-.4-.33,2.908,2.908,0,0,1-.162-2.689,2.516,2.516,0,0,1,3.1-.768C406.526,402.1,406.724,402.523,406.846,403.46Z" transform="translate(-335.94 -362.546)" fill="#ffbd24" fill-rule="evenodd"/>
  </g>
</svg>
