<?xml version="1.0" encoding="utf-8"?>
<!-- Generator: Adobe Illustrator 24.2.1, SVG Export Plug-In . SVG Version: 6.00 Build 0)  -->
<svg version="1.1" id="圖層_1" xmlns="http://www.w3.org/2000/svg" xmlns:xlink="http://www.w3.org/1999/xlink" x="0px" y="0px"
	 viewBox="0 0 144 36" style="enable-background:new 0 0 144 36;" xml:space="preserve">
<style type="text/css">
	.st0{enable-background:new    ;}
	.st1{fill:#0666B2;}
	.st2{fill:none;stroke:#0666B2;}
</style>
<g class="st0">
	<path class="st1" d="M13,7.4c-0.2,3.1-0.5,5.6-1,7.5c-0.1,0.3-0.1,0.5-0.2,0.8c1.2-0.2,2.5-0.4,3.7-0.6c0.1-0.4,0.1-0.7,0.2-1.1
		c0.1-0.4,0.3-0.5,0.6-0.5c0.5,0,0.7,0.3,0.7,0.7c0,0.2-0.1,0.4-0.1,0.6c0.4-0.1,0.8-0.1,1.2-0.2c0.5-0.1,0.8,0.1,0.8,0.6
		c0,0.4-0.1,0.6-0.5,0.7c-0.1,0-0.3,0.1-0.5,0.1c-0.5,0.1-0.9,0.2-1.4,0.3c-0.5,2.1-1.3,3.9-2.2,5.6c-0.1,0.2-0.3,0.5-0.4,0.6
		c1.5,0.8,2.9,1.7,4.3,2.6c0.2,0.1,0.4,0.3,0.4,0.5c0,0.4-0.2,0.7-0.6,0.7c-0.2,0-0.4,0-0.5-0.1c-1.7-1.1-3.1-1.9-4.3-2.6
		c-1.3,1.7-2.8,2.9-4.5,3.6c-0.2,0.1-0.4,0.2-0.7,0.2c-0.2,0-0.3,0-0.5,0c-0.3-0.1-0.5-0.3-0.4-0.6c0-0.3,0.1-0.5,0.4-0.6
		c1.7-0.5,3.2-1.6,4.5-3.3c-0.3-0.2-0.6-0.3-0.8-0.5c-1.5-0.7-2.3-1.2-2.5-1.3c-0.3-0.1-0.4-0.3-0.4-0.6c0-0.2,0.1-0.4,0.3-0.6
		c0.5-0.8,0.9-1.8,1.3-2.9c-1.5,0.1-3,0.2-4.4,0.2H5.2c-0.4,0-0.6-0.2-0.7-0.7c0-0.4,0.2-0.6,0.7-0.7c1.7,0,3.5-0.1,5.2-0.3
		c0.1-0.3,0.2-0.5,0.2-0.8c0.6-2.1,1-4.6,1.2-7.7c0-0.4,0.3-0.7,0.7-0.7C12.9,6.8,13.1,7,13,7.4z M15.1,16.6
		c-1.3,0.2-2.6,0.4-3.8,0.5c-0.4,1.2-0.8,2.3-1.4,3.4c1,0.5,1.9,1,2.9,1.5c0.1-0.2,0.2-0.3,0.3-0.5C14,20,14.7,18.4,15.1,16.6z
		 M30.4,16.6c0.2,1.2,0.3,2.6,0.2,4.3c0,0.6-0.3,1-1,1.1c-2.4,0.1-4,0.1-4.9,0c-0.4,0-0.6-0.3-0.5-0.7c0-2.3-0.1-3.9-0.2-4.9
		c0-0.5,0.2-0.8,0.7-0.8c0.2,0,0.4,0.1,0.5,0.3c1.5-0.1,2.8-0.1,3.9,0C29.8,15.8,30.3,16.1,30.4,16.6z M25.4,17.1
		c0.1,1.2,0.1,2.3,0.1,3.4c0,0.2,0,0.3,0.1,0.3c1,0,2.2,0,3.5,0c0.1,0,0.1-0.1,0.1-0.3c0-1.1-0.1-2.1-0.2-3.1c0-0.2-0.1-0.3-0.3-0.3
		C27.8,17,26.6,17.1,25.4,17.1z"/>
	<path class="st1" d="M47.1,12.7c-0.3,1.2-1.1,2.4-2.4,3.4c0,0,0,0-0.1,0c0.2,2,0.4,4.1,0.5,6.1v0.1c0,0.4-0.2,0.6-0.7,0.6
		c-0.4,0-0.6-0.2-0.7-0.6l-0.4-5.4c-0.6,0.4-1.2,0.6-1.8,0.8c-0.3,0.1-0.7,0.1-1,0.1c-0.3-0.1-0.4-0.2-0.5-0.5
		c0-0.4,0.1-0.7,0.5-0.8c1.2-0.2,2.3-0.8,3.3-1.5c1-0.8,1.6-1.7,1.9-2.6c0.1-0.4,0.4-0.5,0.7-0.5C46.9,11.9,47.1,12.2,47.1,12.7z
		 M65.9,10.4c-2,0-4.1,0-6.5-0.1c-3.5-0.2-5.7-0.4-6.6-0.6c-0.4-0.1-0.5-0.4-0.5-0.8c0.1-0.3,0.3-0.5,0.6-0.5c0.1,0,0.3,0,0.5,0
		c1.1,0.2,3.1,0.3,6.2,0.5c2.6,0.1,4.7,0.2,6.3,0.1c0.5,0,0.7,0.2,0.7,0.7C66.6,10.2,66.3,10.4,65.9,10.4z M58.9,18.1
		c0.1,0.6,0.2,1.3,0.2,2.3c0,0.9,0,1.5,0,1.7c0,0.3-0.3,0.6-0.8,0.7c-1,0.2-2.4,0.2-4.2,0.1c-0.9-0.1-1.2-0.4-1-1.1
		c0.3-1.8,0.3-3.2,0.1-4.1c0-0.5,0.2-0.8,0.7-0.8c0.2,0,0.4,0.1,0.6,0.3c1.1,0,2.2,0.1,3.3,0.1C58.4,17.3,58.7,17.6,58.9,18.1z
		 M54.7,18.4c0,0.8-0.1,1.7-0.2,2.9c0,0.1,0,0.2,0.1,0.2c1.7,0.1,2.7,0.1,3.1,0c0,0,0.1-0.1,0.1-0.2c0-0.9-0.1-1.7-0.2-2.5
		c0-0.1-0.1-0.2-0.2-0.2C56.5,18.5,55.6,18.5,54.7,18.4z M64,16.6c0.2,1,0.3,2.4,0.5,4.2c0.2,1.9,0.2,3.4,0.2,4.5
		c0,2.1-0.8,3.1-2.4,3.1c-0.6-0.1-1.1-0.2-1.4-0.3c-0.2-0.1-0.3-0.3-0.4-0.5c0-0.5,0.2-0.7,0.6-0.7c0.1,0,0.2,0,0.2,0.1
		c0.4,0.1,0.7,0.2,1,0.2c0.7-0.1,1.1-0.7,1-1.8c0-1.1-0.1-2.5-0.2-4.3C63,19.4,62.9,18,62.7,17c0-0.2,0-0.4,0.1-0.6
		c0.1-0.2,0.3-0.3,0.6-0.3C63.7,16.2,63.9,16.4,64,16.6z"/>
	<path class="st1" d="M80.7,23.7c0.1,0.1,0.2,0,0.2-0.1v-0.1c0-0.4-0.1-1.4-0.2-3c-1,0.2-1.9,0.3-2.8,0.4c-0.5,0.1-0.8-0.2-0.8-0.7
		c0-0.4,0.2-0.6,0.6-0.7c0.1,0,0.2,0,0.3,0c0.9-0.2,1.8-0.3,2.7-0.4c-0.1-1.2-0.2-2.5-0.3-4.1c-1.6-0.1-2.6-0.2-3.2-0.4
		c-0.2-0.1-0.2-0.3-0.3-0.5c0-0.4,0.3-0.6,0.7-0.7c0.4,0,1,0.1,1.9,0.2c0.3,0,0.5,0,0.8,0.1c0-0.7-0.1-1.4-0.2-2.1
		c-0.1-0.5,0.2-0.8,0.7-0.8c0.4,0,0.7,0.2,0.7,0.6c0.1,0.8,0.1,1.6,0.2,2.4c0.8,0,1.7,0,2.6,0c0.6,0,0.8,0.3,0.8,0.7
		c0,0.4-0.3,0.7-0.9,0.7h-0.9c-0.6,0-1.1,0-1.5,0c0.1,1.5,0.2,2.8,0.3,3.9c0.5-0.1,1.1-0.2,1.6-0.2c0.1,0,0.2,0,0.2,0
		c0.5-0.1,0.8,0.2,0.8,0.7c0,0.3-0.2,0.6-0.5,0.7c-0.1,0-0.1,0-0.2,0c-0.6,0.1-1.2,0.2-1.7,0.3c0.1,1.5,0.1,2.5,0.1,2.9
		c0,0.8-0.1,1.3-0.3,1.5c-0.2,0.3-0.6,0.4-1.2,0.4c-0.7,0-1-0.3-1.1-0.7c0-0.4,0.1-0.6,0.4-0.7C80.2,23.6,80.4,23.6,80.7,23.7z
		 M99.2,6.5c0.1,0.6,0.2,1.3,0.2,2.2c0,0.9,0,1.5,0,1.7c0,0.3-0.3,0.6-0.8,0.7c-1.5,0.2-3.6,0.2-6.3,0.1c-0.9-0.1-1.2-0.4-1-1.1
		c0.3-1.9,0.3-3.3,0.1-4.2c0-0.5,0.2-0.8,0.7-0.8c0.3,0,0.5,0.2,0.6,0.5c1.8,0,3.6,0.1,5.4,0.1C98.6,5.7,99,6,99.2,6.5z M92.8,6.9
		c0,0.7-0.1,1.7-0.2,2.8c0,0.1,0,0.2,0.1,0.2c2.8,0.1,4.6,0.1,5.3,0c0,0,0.1-0.1,0.1-0.1C98,8.8,98,8,97.9,7.2
		c0-0.1-0.1-0.2-0.2-0.2C96.1,7,94.5,6.9,92.8,6.9z M95.3,24.3c-0.2,1.5-0.5,2.7-0.9,3.5c-0.2,0.2-0.4,0.4-0.6,0.4
		c-0.5,0-0.8-0.2-0.8-0.7c0-0.1,0-0.2,0.1-0.3c0.8-1.7,1.1-4.7,1.1-9c-0.1-0.7,0.2-1.1,0.7-1.2c2.6,0,4.3,0.1,5.3,0.2
		c0.4,0,0.7,0.3,0.8,0.7c0.1,1.6,0.2,4.7,0.3,9.3v1.4c0,1.1-0.5,1.6-1.4,1.6c-0.7,0-1.1-0.3-1.1-0.8c0-0.4,0.1-0.6,0.5-0.7
		c0.2,0,0.3,0,0.5,0.1c0.1,0,0.2-0.1,0.2-0.2c0-1.5,0-2.9-0.1-4.2L95.3,24.3z M95.5,21.3c0,0.6,0,1.2-0.1,1.7l4.4,0.1
		c0-0.6,0-1.2,0-1.8L95.5,21.3z M99.7,20.1c0-0.6,0-1.1-0.1-1.6c-0.9-0.1-2.3-0.1-4.2-0.1c0,0.6,0,1.2,0,1.7L99.7,20.1z"/>
	<path class="st1" d="M114,7.9c0.9,0.1,2.2,0.2,4,0.3l-0.1-1.8c0-0.4,0.2-0.7,0.7-0.7c0.4,0,0.7,0.2,0.7,0.6l0.1,1.9
		c1.5,0,2.6,0.1,3.6,0c0.4,0,0.7,0.2,0.7,0.7c0,0.4-0.2,0.6-0.7,0.6c-0.3,0-0.7,0-1.1,0c-0.8,0-1.6,0-2.4,0l0.2,2.6
		c1.1,0,1.9,0.1,2.7,0c0.4,0,0.7,0.2,0.7,0.7c0,0.4-0.2,0.6-0.7,0.6c-0.3,0-0.6,0-0.9,0c-2.1,0-4.2-0.1-6.2-0.3
		c-0.2,0-0.3,0-0.4-0.1c-0.3-0.1-0.5-0.4-0.4-0.7c0-0.4,0.3-0.6,0.7-0.5c0.7,0.1,1.8,0.2,3.2,0.2l-0.2-2.7c-1.3,0-2.6-0.1-3.9-0.2
		c-0.2,0-0.3,0-0.5-0.1c-0.3-0.1-0.5-0.4-0.4-0.7C113.4,8.1,113.6,7.9,114,7.9z M115.2,20.4c0.4,0,0.9,0.1,1.5,0.1
		c1.7,0.1,3.8,0,6.2-0.1c0.5,0,0.7,0.3,0.7,0.6c0,0.4-0.2,0.6-0.7,0.7c-1.2,0.1-2.3,0.1-3.3,0.2c0.1,0.6,0.1,1.3,0.2,2
		c1.2,1.1,2.5,1.7,3.8,1.7c0.4,0.1,0.6,0.3,0.6,0.7c-0.1,0.4-0.3,0.6-0.6,0.6h-0.2c-1.3,0-2.5-0.4-3.5-1.2c0.1,1,0.1,1.7,0.1,2.2
		c0.1,0.8-0.1,1.3-0.5,1.6c-0.3,0.2-0.8,0.3-1.3,0.3c-0.7,0-1.1-0.3-1.2-0.8c0-0.4,0.2-0.6,0.6-0.6c0.1,0,0.3,0,0.6,0.1
		c0.3,0,0.5-0.1,0.5-0.6c0-0.5-0.1-1.3-0.2-2.4c-0.4,0.4-0.8,0.7-1.4,1c-1.3,0.7-2.2,1-2.8,0.9c-0.4,0-0.6-0.2-0.7-0.5
		c0-0.4,0.2-0.7,0.6-0.8c0.9-0.2,1.6-0.5,2.3-0.9c0.8-0.5,1.4-1.1,1.8-1.6c0-0.6-0.1-1.3-0.2-1.8c-0.6,0-1.2,0-1.7,0
		c-0.8,0-1.4-0.1-2-0.2c-0.3-0.1-0.5-0.3-0.5-0.6C114.2,20.5,114.5,20.3,115.2,20.4z M115.6,16.6l6.8,0.1c0.4,0,0.6,0.2,0.6,0.7
		c0,0.4-0.3,0.6-0.7,0.6l-6.8-0.1c-0.4-0.1-0.6-0.3-0.6-0.6C114.9,16.8,115.2,16.6,115.6,16.6z M131.7,11.9
		c-0.1,0.8-0.3,1.6-0.7,2.4c2.9,0.3,4.7,0.6,5.6,0.9c0.4,0.2,0.6,0.6,0.5,1.2c-0.2,1.3-0.5,2.3-0.9,2.9c-0.3,0.3-0.6,0.4-1,0.2
		c-0.3-0.2-0.4-0.4-0.2-0.8c0.1-0.3,0.3-0.6,0.5-1c0.1-0.3,0.3-0.8,0.4-1.3c0-0.1,0-0.2-0.2-0.3c-0.9-0.3-2.6-0.5-5.1-0.7
		c-0.2,0.5-0.4,1-0.7,1.4c-0.6,1-1.1,1.5-1.5,1.5c-0.4,0-0.7-0.2-0.7-0.7c0-0.2,0.1-0.4,0.3-0.5c1.1-1.2,1.9-3.1,2.5-5.6
		c0.2-0.3,0.4-0.4,0.6-0.4C131.5,11.2,131.7,11.4,131.7,11.9z M131.9,26.3c-0.1,0.2-0.3,0.4-0.4,0.6c-0.7,1-1.3,1.5-1.9,1.5
		c-0.4,0-0.7-0.2-0.7-0.7c0-0.2,0.1-0.4,0.3-0.5c1.4-1.2,2.5-3.1,3.3-5.6c0.2-0.3,0.4-0.4,0.6-0.4c0.5,0,0.7,0.3,0.7,0.8
		c-0.2,1-0.6,2-1.2,3.2c1.4,1.5,2.9,2.2,4.4,2.2c0.4,0,0.7,0.3,0.7,0.7c-0.1,0.4-0.3,0.6-0.7,0.7h-0.2
		C135,28.5,133.3,27.8,131.9,26.3z"/>
</g>
<g class="st0">
	<path class="st2" d="M13,7.4c-0.2,3.1-0.5,5.6-1,7.5c-0.1,0.3-0.1,0.5-0.2,0.8c1.2-0.2,2.5-0.4,3.7-0.6c0.1-0.4,0.1-0.7,0.2-1.1
		c0.1-0.4,0.3-0.5,0.6-0.5c0.5,0,0.7,0.3,0.7,0.7c0,0.2-0.1,0.4-0.1,0.6c0.4-0.1,0.8-0.1,1.2-0.2c0.5-0.1,0.8,0.1,0.8,0.6
		c0,0.4-0.1,0.6-0.5,0.7c-0.1,0-0.3,0.1-0.5,0.1c-0.5,0.1-0.9,0.2-1.4,0.3c-0.5,2.1-1.3,3.9-2.2,5.6c-0.1,0.2-0.3,0.5-0.4,0.6
		c1.5,0.8,2.9,1.7,4.3,2.6c0.2,0.1,0.4,0.3,0.4,0.5c0,0.4-0.2,0.7-0.6,0.7c-0.2,0-0.4,0-0.5-0.1c-1.7-1.1-3.1-1.9-4.3-2.6
		c-1.3,1.7-2.8,2.9-4.5,3.6c-0.2,0.1-0.4,0.2-0.7,0.2c-0.2,0-0.3,0-0.5,0c-0.3-0.1-0.5-0.3-0.4-0.6c0-0.3,0.1-0.5,0.4-0.6
		c1.7-0.5,3.2-1.6,4.5-3.3c-0.3-0.2-0.6-0.3-0.8-0.5c-1.5-0.7-2.3-1.2-2.5-1.3c-0.3-0.1-0.4-0.3-0.4-0.6c0-0.2,0.1-0.4,0.3-0.6
		c0.5-0.8,0.9-1.8,1.3-2.9c-1.5,0.1-3,0.2-4.4,0.2H5.2c-0.4,0-0.6-0.2-0.7-0.7c0-0.4,0.2-0.6,0.7-0.7c1.7,0,3.5-0.1,5.2-0.3
		c0.1-0.3,0.2-0.5,0.2-0.8c0.6-2.1,1-4.6,1.2-7.7c0-0.4,0.3-0.7,0.7-0.7C12.9,6.8,13.1,7,13,7.4z M15.1,16.6
		c-1.3,0.2-2.6,0.4-3.8,0.5c-0.4,1.2-0.8,2.3-1.4,3.4c1,0.5,1.9,1,2.9,1.5c0.1-0.2,0.2-0.3,0.3-0.5C14,20,14.7,18.4,15.1,16.6z
		 M30.4,16.6c0.2,1.2,0.3,2.6,0.2,4.3c0,0.6-0.3,1-1,1.1c-2.4,0.1-4,0.1-4.9,0c-0.4,0-0.6-0.3-0.5-0.7c0-2.3-0.1-3.9-0.2-4.9
		c0-0.5,0.2-0.8,0.7-0.8c0.2,0,0.4,0.1,0.5,0.3c1.5-0.1,2.8-0.1,3.9,0C29.8,15.8,30.3,16.1,30.4,16.6z M25.4,17.1
		c0.1,1.2,0.1,2.3,0.1,3.4c0,0.2,0,0.3,0.1,0.3c1,0,2.2,0,3.5,0c0.1,0,0.1-0.1,0.1-0.3c0-1.1-0.1-2.1-0.2-3.1c0-0.2-0.1-0.3-0.3-0.3
		C27.8,17,26.6,17.1,25.4,17.1z"/>
	<path class="st2" d="M47.1,12.7c-0.3,1.2-1.1,2.4-2.4,3.4c0,0,0,0-0.1,0c0.2,2,0.4,4.1,0.5,6.1v0.1c0,0.4-0.2,0.6-0.7,0.6
		c-0.4,0-0.6-0.2-0.7-0.6l-0.4-5.4c-0.6,0.4-1.2,0.6-1.8,0.8c-0.3,0.1-0.7,0.1-1,0.1c-0.3-0.1-0.4-0.2-0.5-0.5
		c0-0.4,0.1-0.7,0.5-0.8c1.2-0.2,2.3-0.8,3.3-1.5c1-0.8,1.6-1.7,1.9-2.6c0.1-0.4,0.4-0.5,0.7-0.5C46.9,11.9,47.1,12.2,47.1,12.7z
		 M65.9,10.4c-2,0-4.1,0-6.5-0.1c-3.5-0.2-5.7-0.4-6.6-0.6c-0.4-0.1-0.5-0.4-0.5-0.8c0.1-0.3,0.3-0.5,0.6-0.5c0.1,0,0.3,0,0.5,0
		c1.1,0.2,3.1,0.3,6.2,0.5c2.6,0.1,4.7,0.2,6.3,0.1c0.5,0,0.7,0.2,0.7,0.7C66.6,10.2,66.3,10.4,65.9,10.4z M58.9,18.1
		c0.1,0.6,0.2,1.3,0.2,2.3c0,0.9,0,1.5,0,1.7c0,0.3-0.3,0.6-0.8,0.7c-1,0.2-2.4,0.2-4.2,0.1c-0.9-0.1-1.2-0.4-1-1.1
		c0.3-1.8,0.3-3.2,0.1-4.1c0-0.5,0.2-0.8,0.7-0.8c0.2,0,0.4,0.1,0.6,0.3c1.1,0,2.2,0.1,3.3,0.1C58.4,17.3,58.7,17.6,58.9,18.1z
		 M54.7,18.4c0,0.8-0.1,1.7-0.2,2.9c0,0.1,0,0.2,0.1,0.2c1.7,0.1,2.7,0.1,3.1,0c0,0,0.1-0.1,0.1-0.2c0-0.9-0.1-1.7-0.2-2.5
		c0-0.1-0.1-0.2-0.2-0.2C56.5,18.5,55.6,18.5,54.7,18.4z M64,16.6c0.2,1,0.3,2.4,0.5,4.2c0.2,1.9,0.2,3.4,0.2,4.5
		c0,2.1-0.8,3.1-2.4,3.1c-0.6-0.1-1.1-0.2-1.4-0.3c-0.2-0.1-0.3-0.3-0.4-0.5c0-0.5,0.2-0.7,0.6-0.7c0.1,0,0.2,0,0.2,0.1
		c0.4,0.1,0.7,0.2,1,0.2c0.7-0.1,1.1-0.7,1-1.8c0-1.1-0.1-2.5-0.2-4.3C63,19.4,62.9,18,62.7,17c0-0.2,0-0.4,0.1-0.6
		c0.1-0.2,0.3-0.3,0.6-0.3C63.7,16.2,63.9,16.4,64,16.6z"/>
	<path class="st2" d="M80.7,23.7c0.1,0.1,0.2,0,0.2-0.1v-0.1c0-0.4-0.1-1.4-0.2-3c-1,0.2-1.9,0.3-2.8,0.4c-0.5,0.1-0.8-0.2-0.8-0.7
		c0-0.4,0.2-0.6,0.6-0.7c0.1,0,0.2,0,0.3,0c0.9-0.2,1.8-0.3,2.7-0.4c-0.1-1.2-0.2-2.5-0.3-4.1c-1.6-0.1-2.6-0.2-3.2-0.4
		c-0.2-0.1-0.2-0.3-0.3-0.5c0-0.4,0.3-0.6,0.7-0.7c0.4,0,1,0.1,1.9,0.2c0.3,0,0.5,0,0.8,0.1c0-0.7-0.1-1.4-0.2-2.1
		c-0.1-0.5,0.2-0.8,0.7-0.8c0.4,0,0.7,0.2,0.7,0.6c0.1,0.8,0.1,1.6,0.2,2.4c0.8,0,1.7,0,2.6,0c0.6,0,0.8,0.3,0.8,0.7
		c0,0.4-0.3,0.7-0.9,0.7h-0.9c-0.6,0-1.1,0-1.5,0c0.1,1.5,0.2,2.8,0.3,3.9c0.5-0.1,1.1-0.2,1.6-0.2c0.1,0,0.2,0,0.2,0
		c0.5-0.1,0.8,0.2,0.8,0.7c0,0.3-0.2,0.6-0.5,0.7c-0.1,0-0.1,0-0.2,0c-0.6,0.1-1.2,0.2-1.7,0.3c0.1,1.5,0.1,2.5,0.1,2.9
		c0,0.8-0.1,1.3-0.3,1.5c-0.2,0.3-0.6,0.4-1.2,0.4c-0.7,0-1-0.3-1.1-0.7c0-0.4,0.1-0.6,0.4-0.7C80.2,23.6,80.4,23.6,80.7,23.7z
		 M99.2,6.5c0.1,0.6,0.2,1.3,0.2,2.2c0,0.9,0,1.5,0,1.7c0,0.3-0.3,0.6-0.8,0.7c-1.5,0.2-3.6,0.2-6.3,0.1c-0.9-0.1-1.2-0.4-1-1.1
		c0.3-1.9,0.3-3.3,0.1-4.2c0-0.5,0.2-0.8,0.7-0.8c0.3,0,0.5,0.2,0.6,0.5c1.8,0,3.6,0.1,5.4,0.1C98.6,5.7,99,6,99.2,6.5z M92.8,6.9
		c0,0.7-0.1,1.7-0.2,2.8c0,0.1,0,0.2,0.1,0.2c2.8,0.1,4.6,0.1,5.3,0c0,0,0.1-0.1,0.1-0.1C98,8.8,98,8,97.9,7.2
		c0-0.1-0.1-0.2-0.2-0.2C96.1,7,94.5,6.9,92.8,6.9z M95.3,24.3c-0.2,1.5-0.5,2.7-0.9,3.5c-0.2,0.2-0.4,0.4-0.6,0.4
		c-0.5,0-0.8-0.2-0.8-0.7c0-0.1,0-0.2,0.1-0.3c0.8-1.7,1.1-4.7,1.1-9c-0.1-0.7,0.2-1.1,0.7-1.2c2.6,0,4.3,0.1,5.3,0.2
		c0.4,0,0.7,0.3,0.8,0.7c0.1,1.6,0.2,4.7,0.3,9.3v1.4c0,1.1-0.5,1.6-1.4,1.6c-0.7,0-1.1-0.3-1.1-0.8c0-0.4,0.1-0.6,0.5-0.7
		c0.2,0,0.3,0,0.5,0.1c0.1,0,0.2-0.1,0.2-0.2c0-1.5,0-2.9-0.1-4.2L95.3,24.3z M95.5,21.3c0,0.6,0,1.2-0.1,1.7l4.4,0.1
		c0-0.6,0-1.2,0-1.8L95.5,21.3z M99.7,20.1c0-0.6,0-1.1-0.1-1.6c-0.9-0.1-2.3-0.1-4.2-0.1c0,0.6,0,1.2,0,1.7L99.7,20.1z"/>
	<path class="st2" d="M114,7.9c0.9,0.1,2.2,0.2,4,0.3l-0.1-1.8c0-0.4,0.2-0.7,0.7-0.7c0.4,0,0.7,0.2,0.7,0.6l0.1,1.9
		c1.5,0,2.6,0.1,3.6,0c0.4,0,0.7,0.2,0.7,0.7c0,0.4-0.2,0.6-0.7,0.6c-0.3,0-0.7,0-1.1,0c-0.8,0-1.6,0-2.4,0l0.2,2.6
		c1.1,0,1.9,0.1,2.7,0c0.4,0,0.7,0.2,0.7,0.7c0,0.4-0.2,0.6-0.7,0.6c-0.3,0-0.6,0-0.9,0c-2.1,0-4.2-0.1-6.2-0.3
		c-0.2,0-0.3,0-0.4-0.1c-0.3-0.1-0.5-0.4-0.4-0.7c0-0.4,0.3-0.6,0.7-0.5c0.7,0.1,1.8,0.2,3.2,0.2l-0.2-2.7c-1.3,0-2.6-0.1-3.9-0.2
		c-0.2,0-0.3,0-0.5-0.1c-0.3-0.1-0.5-0.4-0.4-0.7C113.4,8.1,113.6,7.9,114,7.9z M115.2,20.4c0.4,0,0.9,0.1,1.5,0.1
		c1.7,0.1,3.8,0,6.2-0.1c0.5,0,0.7,0.3,0.7,0.6c0,0.4-0.2,0.6-0.7,0.7c-1.2,0.1-2.3,0.1-3.3,0.2c0.1,0.6,0.1,1.3,0.2,2
		c1.2,1.1,2.5,1.7,3.8,1.7c0.4,0.1,0.6,0.3,0.6,0.7c-0.1,0.4-0.3,0.6-0.6,0.6h-0.2c-1.3,0-2.5-0.4-3.5-1.2c0.1,1,0.1,1.7,0.1,2.2
		c0.1,0.8-0.1,1.3-0.5,1.6c-0.3,0.2-0.8,0.3-1.3,0.3c-0.7,0-1.1-0.3-1.2-0.8c0-0.4,0.2-0.6,0.6-0.6c0.1,0,0.3,0,0.6,0.1
		c0.3,0,0.5-0.1,0.5-0.6c0-0.5-0.1-1.3-0.2-2.4c-0.4,0.4-0.8,0.7-1.4,1c-1.3,0.7-2.2,1-2.8,0.9c-0.4,0-0.6-0.2-0.7-0.5
		c0-0.4,0.2-0.7,0.6-0.8c0.9-0.2,1.6-0.5,2.3-0.9c0.8-0.5,1.4-1.1,1.8-1.6c0-0.6-0.1-1.3-0.2-1.8c-0.6,0-1.2,0-1.7,0
		c-0.8,0-1.4-0.1-2-0.2c-0.3-0.1-0.5-0.3-0.5-0.6C114.2,20.5,114.5,20.3,115.2,20.4z M115.6,16.6l6.8,0.1c0.4,0,0.6,0.2,0.6,0.7
		c0,0.4-0.3,0.6-0.7,0.6l-6.8-0.1c-0.4-0.1-0.6-0.3-0.6-0.6C114.9,16.8,115.2,16.6,115.6,16.6z M131.7,11.9
		c-0.1,0.8-0.3,1.6-0.7,2.4c2.9,0.3,4.7,0.6,5.6,0.9c0.4,0.2,0.6,0.6,0.5,1.2c-0.2,1.3-0.5,2.3-0.9,2.9c-0.3,0.3-0.6,0.4-1,0.2
		c-0.3-0.2-0.4-0.4-0.2-0.8c0.1-0.3,0.3-0.6,0.5-1c0.1-0.3,0.3-0.8,0.4-1.3c0-0.1,0-0.2-0.2-0.3c-0.9-0.3-2.6-0.5-5.1-0.7
		c-0.2,0.5-0.4,1-0.7,1.4c-0.6,1-1.1,1.5-1.5,1.5c-0.4,0-0.7-0.2-0.7-0.7c0-0.2,0.1-0.4,0.3-0.5c1.1-1.2,1.9-3.1,2.5-5.6
		c0.2-0.3,0.4-0.4,0.6-0.4C131.5,11.2,131.7,11.4,131.7,11.9z M131.9,26.3c-0.1,0.2-0.3,0.4-0.4,0.6c-0.7,1-1.3,1.5-1.9,1.5
		c-0.4,0-0.7-0.2-0.7-0.7c0-0.2,0.1-0.4,0.3-0.5c1.4-1.2,2.5-3.1,3.3-5.6c0.2-0.3,0.4-0.4,0.6-0.4c0.5,0,0.7,0.3,0.7,0.8
		c-0.2,1-0.6,2-1.2,3.2c1.4,1.5,2.9,2.2,4.4,2.2c0.4,0,0.7,0.3,0.7,0.7c-0.1,0.4-0.3,0.6-0.7,0.7h-0.2
		C135,28.5,133.3,27.8,131.9,26.3z"/>
</g>
</svg>
