<?xml version="1.0" encoding="utf-8"?>
<!-- Generator: Adobe Illustrator 24.2.1, SVG Export Plug-In . SVG Version: 6.00 Build 0)  -->
<svg version="1.1" id="圖層_1" xmlns="http://www.w3.org/2000/svg" xmlns:xlink="http://www.w3.org/1999/xlink" x="0px" y="0px"
	 viewBox="0 0 299 36" style="enable-background:new 0 0 299 36;" xml:space="preserve">
<style type="text/css">
	.st0{enable-background:new    ;}
	.st1{fill:#0666B2;}
	.st2{fill:none;stroke:#0666B2;}
</style>
<g class="st0">
	<path class="st1" d="M11.9,12.2c0.5,0.1,0.6,0.5,0.2,1.2c-0.9,1.3-1.9,2.5-2.8,3.7c0.5,1.1,0.9,2.1,1.2,3.1
		c0.6-0.1,1.1-0.3,1.7-0.4c0.1,0,0.2,0,0.2,0c0.5-0.1,0.7,0.1,0.8,0.6c0,0.3-0.2,0.5-0.5,0.6c-0.1,0-0.2,0.1-0.3,0.1
		c-0.5,0.1-1,0.2-1.5,0.4c0.3,1.3,0.5,2.4,0.4,3.4c0,1.5-0.6,2.3-1.7,2.3c-0.8,0-1.4-0.1-1.7-0.4c-0.2-0.2-0.3-0.4-0.3-0.6
		c0-0.4,0.3-0.6,0.8-0.6c0.4,0.2,0.8,0.3,1.3,0.3c0.3-0.1,0.4-0.5,0.4-1.2c0-0.7-0.2-1.7-0.5-2.9c-1.4,0.3-2.9,0.6-4.3,0.9
		c-0.5,0.1-0.7-0.1-0.8-0.6c0-0.4,0.1-0.6,0.5-0.7c0.1,0,0.2-0.1,0.3-0.1C6.7,21,8,20.7,9.3,20.5c-0.4-1.2-0.7-2.1-1.1-2.9
		C8.1,17.4,8,17.2,8,17c0-0.2,0.1-0.5,0.4-0.9c0.3-0.4,1-1.2,2.2-2.7c-2.9-0.2-4.8-0.4-5.8-0.6c-0.3-0.1-0.5-0.4-0.5-0.7
		c0-0.4,0.3-0.6,0.7-0.6c0.2,0,0.6,0.1,0.9,0.1c0.5,0.1,1,0.1,1.5,0.2C9.2,12,10.7,12.2,11.9,12.2z M17,6.6c1.6,0.1,3.3,0.2,4.9,0.2
		l-0.3-2.1c-0.1-0.5,0.2-0.7,0.7-0.8c0.4,0,0.6,0.2,0.7,0.6l0.3,2.4c2.2,0,4.4,0,6.6,0c0.5,0,0.7,0.2,0.7,0.6C30.6,7.8,30.4,8,30,8
		c-3.1,0.1-5.8,0.1-8.2,0c-2.3,0-4-0.1-4.8-0.2c-0.5,0-0.7-0.3-0.7-0.7C16.2,6.7,16.5,6.5,17,6.6z M27.4,18.5
		c-0.3,1.3-1.1,2.7-2.2,4.2c-1.3,1.7-2.8,2.8-4.4,3.4c-0.1,0-0.2,0.1-0.3,0.1c-0.1,0-0.2,0-0.3,0c-0.4,0-0.6-0.3-0.6-0.7
		c0-0.3,0.2-0.5,0.5-0.6c1.5-0.5,2.9-1.5,4.2-3c0.2-0.3,0.4-0.6,0.6-0.8c-1.1-0.1-2.2-0.3-3.5-0.6c-0.5-0.1-0.8-0.2-1-0.4
		c-0.4-0.2-0.4-0.5-0.1-0.9c1.4-1.6,2.2-2.9,2.5-3.8c0-0.1,0-0.2,0.1-0.3c0.1-0.4,0.3-0.6,0.7-0.5c0.4,0,0.7,0.3,0.6,0.7
		c0,0.1,0,0.2,0,0.3c-0.2,1.1-0.9,2.3-2.1,3.7c1.2,0.2,2.3,0.4,3.5,0.6c0.3-0.6,0.6-1.2,0.7-1.8c0.1-0.4,0.3-0.6,0.7-0.6
		C27.3,17.7,27.5,18,27.4,18.5z M28.5,25c-0.2,0.9-0.8,1.9-1.7,2.9c0,0-0.1,0.1-0.1,0.1c0.9,1.1,1.8,1.5,2.7,1.2
		c0.5,0,0.7,0.3,0.7,0.7c0,0.3-0.2,0.5-0.6,0.6c-1.4,0.3-2.6-0.2-3.8-1.7c-0.8,0.6-1.6,1.1-2.5,1.3c-0.1,0-0.2,0-0.2,0.1
		c0,0-0.1,0-0.3,0c-0.4,0-0.6-0.3-0.6-0.7c0-0.3,0.2-0.5,0.5-0.6c1.1-0.3,2.2-0.9,3.1-1.9c0.8-0.9,1.3-1.7,1.5-2.4
		c0.1-0.4,0.3-0.6,0.6-0.6C28.3,24.3,28.6,24.6,28.5,25z"/>
	<path class="st1" d="M46.8,7.6c0.6,0.1,1.4,0.2,2.5,0.3c1.1,0.1,3.8,0.3,8.2,0.4c0.4,0,0.6,0.1,0.7,0.4c0.1,0.2,0,0.5-0.1,0.7
		c-1.2,1.7-2.5,3.5-3.8,5.1c1.4,1.9,2.3,3.9,2.7,5.9c2.8,0,4.6,0.1,5.6,0c0.5,0,0.7,0.2,0.7,0.6c0,0.4-0.2,0.7-0.6,0.7
		c-1,0-2.8,0-5.5,0c0,0.4,0,0.7,0,1.1c0,1.6-0.3,2.9-0.9,4c-0.6,1.1-1.5,1.6-2.6,1.6c-1,0-1.6-0.3-2-0.7c-0.2-0.2-0.3-0.4-0.2-0.6
		c0.1-0.3,0.3-0.5,0.7-0.5c0.2,0,0.3,0.1,0.3,0.1c0.5,0.3,0.9,0.4,1.3,0.4c0.6-0.1,1.1-0.4,1.4-1c0.5-0.8,0.7-1.9,0.7-3.3
		c0-0.4,0-0.8-0.1-1.1c-0.4,0-0.8,0-1.3,0c-4.2-0.1-7-0.2-8.3-0.4c-0.4-0.1-0.6-0.3-0.6-0.7c0-0.5,0.2-0.7,0.7-0.6
		c1.3,0.1,4,0.2,8.2,0.4c0.4,0,0.7,0,1,0c-0.4-1.9-1.3-3.7-2.6-5.3c-0.2-0.2-0.2-0.3-0.3-0.5c0-0.2,0.1-0.3,0.2-0.5
		c1-1.3,2.2-2.8,3.4-4.5c-2,0-4-0.1-6-0.3c-2-0.2-3.2-0.3-3.6-0.4c-0.4-0.1-0.5-0.3-0.6-0.6C46.1,7.8,46.3,7.6,46.8,7.6z"/>
	<path class="st1" d="M77.2,17.4c-0.4,0-0.6-0.1-0.7-0.5c-0.1-0.4,0.1-0.7,0.4-0.8c0.9-0.3,1.8-0.9,2.6-1.7c0.7-0.8,1.2-1.6,1.6-2.5
		c0.1-0.3,0.3-0.4,0.6-0.4c0.4,0,0.7,0.2,0.7,0.6c0,0.1,0,0.2,0,0.2c-0.4,1-0.9,1.8-1.6,2.6c0.1,0.1,0.1,0.2,0.1,0.3l0.4,6.2
		c0,0.5-0.2,0.7-0.7,0.7c-0.4,0-0.6-0.2-0.7-0.6l-0.4-5.4c-0.7,0.5-1.3,0.9-2,1.1C77.5,17.3,77.3,17.4,77.2,17.4z M89.8,18.8
		c-0.4,0.7-1,1.6-1.8,2.9c0.6,0.3,1.2,0.6,1.9,0.9c0.4,0.2,0.5,0.6,0.4,1.1c-0.2,1.1-0.6,2.1-1.2,3.1c0.1,0,0.1,0.1,0.2,0.1
		c1.6,0.8,3,1.2,4.1,1.2c0.2,0,0.5-0.1,0.7-0.1c0.2,0,0.4-0.1,0.5-0.1c0.6-0.1,0.9,0.1,0.9,0.7c0,0.6-0.7,0.9-2.1,0.9
		c-1.3,0-2.9-0.5-4.7-1.4c-0.1,0-0.2-0.1-0.3-0.2c-0.6,0.8-1.3,1.5-2.1,2.1C86,30,85.8,30,85.7,30c-0.5,0-0.7-0.3-0.7-0.7
		c0-0.2,0.1-0.4,0.3-0.5c0.7-0.5,1.3-1,1.8-1.6c-0.9-0.6-1.6-1.1-2.2-1.7c-0.1-0.1-0.2-0.3-0.2-0.4c0-0.4,0.2-0.7,0.7-0.7
		c0.2,0,0.3,0.1,0.5,0.2c0.5,0.5,1.2,1,2,1.5c0.4-0.8,0.8-1.6,1.1-2.5c-1.2-0.5-1.9-0.8-2.1-1.1c-0.2-0.2-0.3-0.4-0.3-0.6
		c0-0.2,0.1-0.4,0.2-0.6c0.5-0.7,1-1.5,1.5-2.2c-0.7-0.1-1.3-0.2-2-0.3c-0.6-0.1-1.1-0.3-1.4-0.5c-0.2-0.2-0.3-0.4-0.3-0.6
		c0-0.4,0.2-0.5,0.6-0.5c0.2,0,0.4,0,0.6,0.1c1.1,0.3,1.9,0.5,2.6,0.6c0.3,0,0.7,0.1,1.1,0.1C89.9,17.9,90,18.2,89.8,18.8z M97,6.4
		v1.1c0.7,0.1,1.5,0.1,2.4,0.2c0.5,0,0.8,0.3,0.9,0.7c0.1,0.8,0.1,1.6,0.1,2.4c0.6,0,1.1,0,1.5,0c0.4,0,0.7,0.2,0.7,0.6
		c0,0.4-0.2,0.6-0.7,0.7c-0.4,0-0.7,0-1.1,0c-0.1,0-0.3,0-0.4,0c0,0.6,0,1.2,0,1.8c0,0.5-0.2,0.9-0.7,1C99,14.9,98.1,15,97,15v2.2
		l2.1,0c0.4,0,0.6,0.2,0.6,0.7c0,0.4-0.2,0.6-0.7,0.6l-2-0.1v1.8c1,0,1.9-0.1,2.6-0.2c0.5,0,0.7,0.2,0.7,0.7c0,0.4-0.2,0.6-0.6,0.7
		c-0.7,0.1-1.6,0.1-2.8,0.1v2.3c0,0.5-0.2,0.7-0.7,0.7c-0.5,0-0.7-0.2-0.7-0.7v-2.3c-1.2,0-2.1-0.1-2.6-0.3
		c-0.3-0.1-0.5-0.3-0.5-0.6c0-0.2,0.1-0.4,0.2-0.5s0.3-0.2,0.6-0.1c0.5,0.1,1.3,0.2,2.3,0.2v-1.8l-2.2,0c-0.4-0.1-0.6-0.3-0.6-0.6
		c0-0.5,0.2-0.7,0.7-0.7l2.1,0.1V15c-0.6,0-1.2,0-1.9,0c-0.4-0.1-0.7-0.3-0.7-0.6c0-0.4,0.2-0.7,0.7-0.7c0.7,0,1.4,0,1.9,0v-1.8
		c-1.1,0-2.1-0.1-3.1-0.2c-0.2,0-0.3,0-0.5-0.1c-0.3-0.1-0.5-0.4-0.4-0.7c0-0.4,0.3-0.6,0.7-0.5c0.8,0.1,1.9,0.2,3.3,0.2V8.7
		c-0.7-0.1-1.4-0.1-2.1-0.2C93.2,8.4,93,8.2,93,7.8c0-0.4,0.2-0.7,0.7-0.7c0.2,0,0.9,0.1,2,0.2v-1c0-0.5,0.2-0.7,0.7-0.7
		C96.8,5.7,97,5.9,97,6.4z M99,10.7c0-0.6,0-1.2-0.1-1.8c-0.6,0-1.2-0.1-1.9-0.1v1.8c0.4,0,0.8,0,1.1,0C98.5,10.7,98.8,10.7,99,10.7
		z M97,13.7c0.9,0,1.6,0,2,0c0-0.6,0-1.1,0-1.6c-0.7,0-1.4,0-2-0.1V13.7z"/>
	<path class="st1" d="M132.5,7.8c0.4,0,0.7,0.2,0.7,0.7c0,0.4-0.3,0.6-0.7,0.6c-4.7-0.1-9.7-0.3-14.8-0.5c-0.1,0-0.2,0-0.1,0.1
		c-0.3,2.7-0.7,5-1.2,6.8c-0.5,1.5-1.1,2.6-1.8,3.2c-0.2,0.1-0.3,0.2-0.5,0.2c-0.4,0-0.7-0.2-0.7-0.7c0-0.2,0.1-0.3,0.2-0.5
		c0.6-0.7,1-1.6,1.5-2.7c0.6-1.7,1-4.1,1.2-7c0-0.6,0.3-0.8,0.8-0.8c2.2,0.1,4.5,0.2,6.8,0.3l-0.7-2.5c-0.1-0.5,0.2-0.7,0.7-0.8
		c0.4,0,0.6,0.2,0.7,0.6l0.7,2.8C127.7,7.7,130.1,7.8,132.5,7.8z M123.2,27c0.3-0.2,0.6-0.1,0.9,0.2c0.1,0.2,0.1,0.5,0,0.7
		c0,0.1-0.1,0.2-0.3,0.3c-0.5,0.4-1.2,0.8-2.1,1.1c-0.6,0.2-1.1,0.4-1.7,0.5c-0.1,0-0.3,0.1-0.4,0.1c-0.4,0-0.6-0.2-0.7-0.6
		c0-0.4,0.2-0.7,0.7-0.7c0.7-0.1,1.3-0.3,1.8-0.5C122,27.7,122.6,27.4,123.2,27z M120.6,23.7c0.7,0.6,1.3,1,2,1.2
		c0.4,0.1,0.6,0.4,0.5,0.9c-0.1,0.4-0.4,0.5-0.8,0.4c-0.1,0-0.3-0.1-0.4-0.1c-0.9-0.4-1.6-0.8-2.2-1.4c-0.2-0.2-0.2-0.3-0.3-0.5
		c0-0.4,0.2-0.6,0.6-0.7C120.3,23.6,120.5,23.6,120.6,23.7z M126.4,29.4c0.1,0.1,0.2,0,0.2-0.1v-0.1c0-0.8-0.1-3.2-0.4-7.2
		c-0.9,0-2,0-3.1,0c-0.4,0-0.7-0.3-0.7-0.7c0-0.4,0.2-0.6,0.6-0.6h3.1c0-0.5-0.1-1-0.1-1.5c-1.4,0-2.8-0.1-4.2-0.1
		c-0.2,0-0.4,0-0.6,0c-0.3-0.1-0.5-0.4-0.4-0.7c0-0.4,0.3-0.6,0.7-0.5c1,0,2.5,0.1,4.3,0.1c0-0.6-0.1-1.1-0.1-1.7
		c-0.9,0-1.8-0.1-2.8-0.1c-0.2,0-0.3,0-0.6-0.1c-0.4-0.1-0.5-0.3-0.6-0.6c0-0.5,0.3-0.7,0.7-0.7c0.9,0,1.9,0.1,3.1,0.1
		c0-0.6-0.1-1.1-0.1-1.7c-0.1-0.5,0.2-0.8,0.7-0.8c0.4,0,0.6,0.2,0.7,0.6c0,0.7,0.1,1.3,0.1,1.9c1,0,2,0.1,3,0.1
		c0.4,0,0.7,0.2,0.8,0.6c0.1,0.8,0.1,1.6,0.1,2.4c0.8,0,1.5,0,2.1,0c0.4,0,0.7,0.2,0.7,0.7c0,0.4-0.2,0.6-0.7,0.6h-2.1
		c0,0.6,0,1.3,0,1.8c0,0.4-0.3,0.7-0.6,0.7c-0.6,0.1-1.5,0.1-2.7,0.2c0.3,3.9,0.4,6.2,0.4,6.9c0,0.7-0.1,1.2-0.3,1.5
		c-0.2,0.3-0.6,0.4-1.2,0.4c-0.6,0-1-0.3-1-0.7c0-0.3,0.1-0.6,0.3-0.7C125.9,29.3,126.1,29.3,126.4,29.4z M129.4,17.9
		c0-0.6,0-1.1-0.1-1.7c-0.8,0-1.6,0-2.4,0c0,0.6,0.1,1.2,0.1,1.7c0.4,0,0.8,0,1.2,0H129.4z M127.4,20.6c1.1,0,1.8,0,2.1,0v-1.4
		c-0.8,0-1.5,0-2.2,0C127.3,19.7,127.3,20.2,127.4,20.6z M130.1,25.4c0.2,0.3,0.4,0.5,0.6,0.8c0.6-0.5,1.2-1.2,1.8-2
		c0.2-0.2,0.4-0.4,0.6-0.4c0.5,0,0.7,0.3,0.6,0.8c0,0.2-0.1,0.4-0.3,0.6c-0.5,0.6-1.1,1.2-1.7,1.8c0.2,0.1,0.3,0.3,0.5,0.4
		c1,0.7,1.8,1.1,2.5,1.2c0.1,0,0.2,0,0.3,0.1c0.4,0.1,0.6,0.3,0.6,0.7s-0.3,0.6-0.7,0.6c-0.1,0-0.3,0-0.5-0.1
		c-0.9-0.2-1.9-0.7-3-1.4c-1.2-0.8-2-1.7-2.5-2.5c0-0.1-0.1-0.2-0.1-0.3c0-0.4,0.3-0.6,0.7-0.6C129.7,25,129.9,25.1,130.1,25.4z"/>
	<path class="st1" d="M179.1,12.8c-1.3,0.1-2.6,0.1-4,0c-0.2,0.8-0.5,1.6-0.8,2.3c2.1,0.1,3.9,0.1,5.2,0.1c0.5,0,0.7,0.2,0.7,0.7
		c0,0.5-0.2,0.7-0.7,0.7c-1.8,0-3.7,0-5.8-0.1c-0.2,0.5-0.5,0.9-0.7,1.3c-2,3.4-4.6,5.8-7.9,7.2c-0.1,0.1-0.3,0.1-0.4,0.2
		c-0.1,0-0.2,0.1-0.4,0.1c-0.4,0-0.6-0.3-0.6-0.7c0-0.3,0.1-0.5,0.4-0.6c0.1,0,0.2-0.1,0.3-0.1c3-1.3,5.5-3.5,7.4-6.7
		c0.2-0.3,0.3-0.5,0.4-0.8c-2.5-0.2-4.1-0.3-4.8-0.5c-0.4-0.1-0.5-0.4-0.5-0.8c0.1-0.3,0.3-0.5,0.6-0.5c0.1,0,0.3,0,0.4,0
		c0.9,0.1,2.6,0.3,5,0.4c0.4-0.8,0.7-1.5,0.9-2.3c-2.4-0.1-4-0.2-4.6-0.4c-0.4-0.1-0.5-0.4-0.5-0.8c0.1-0.3,0.3-0.5,0.6-0.5
		c0.1,0,0.2,0,0.3,0c0.8,0.1,2.3,0.2,4.5,0.3c0.2-1,0.3-1.9,0.4-2.8c0-0.4,0.3-0.6,0.7-0.6c0.4,0,0.7,0.3,0.7,0.7
		c-0.1,1-0.2,1.9-0.4,2.8c1.5,0.1,2.7,0.1,3.7,0.1c0.5,0,0.7,0.2,0.7,0.7C179.8,12.6,179.6,12.8,179.1,12.8z M167.9,9.9
		c-0.5,0-0.7-0.2-0.7-0.7c0-0.4,0.2-0.6,0.6-0.7c1-0.2,2.3-0.6,3.9-1.4c1.8-1,3-1.9,3.7-2.7c0.1-0.1,0.3-0.2,0.5-0.2
		c0.5,0,0.7,0.2,0.7,0.7c0,0.2-0.1,0.3-0.2,0.4c-0.8,0.9-2.1,1.8-4,2.9c-1.7,0.9-3,1.4-4.2,1.6C168.1,9.9,168,9.9,167.9,9.9z
		 M179.8,21.8c0.5,0,0.9,0.3,1,0.7c0.2,2.1,0.3,4.7,0.3,7.7c0,0.7-0.2,1.1-0.8,1.2c-2.3,0-4.4,0-6.3-0.2c-0.7-0.1-1-0.5-0.8-1.2
		c0.3-2.8,0.5-5.4,0.4-8c0-0.5,0.3-0.7,0.7-0.7c0.3,0,0.5,0.1,0.6,0.3C177.1,21.6,178.7,21.7,179.8,21.8z M179.6,28.4l-5-0.1
		c0,0.5-0.1,1.1-0.1,1.6c1.6,0.1,3.3,0.2,5.1,0.2C179.7,29.5,179.7,28.9,179.6,28.4z M174.8,25.7c0,0.4-0.1,0.9-0.1,1.3l4.9,0.1
		c0-0.5,0-0.9,0-1.3L174.8,25.7z M179.5,24.5c0-0.5,0-1-0.1-1.5c-1.2-0.1-2.7-0.1-4.5-0.1c0,0.5,0,1,0,1.5L179.5,24.5z"/>
	<path class="st1" d="M208.6,25.3c0,0.1,0,0.2-0.1,0.2c-0.3,0.7-0.7,1.4-1.2,2.1c-0.8,1.1-1.4,1.6-1.9,1.6c-0.4,0-0.7-0.2-0.7-0.7
		c0-0.2,0.1-0.4,0.3-0.6c0.8-0.6,1.6-1.7,2.3-3.1c0.2-0.3,0.4-0.5,0.7-0.4C208.5,24.6,208.7,24.8,208.6,25.3z M212.8,6
		c0.5,0,0.9,0.3,1,0.7c0.2,3.6,0.3,7.9,0.3,12.9c0,0.7-0.2,1.1-0.8,1.2c-2.7,0-5.2,0-7.4-0.2c-0.7-0.1-1-0.5-0.8-1.2
		c0.3-4.6,0.4-9,0.4-13.2c0-0.4,0.3-0.7,0.7-0.7c0.3,0,0.5,0.1,0.6,0.4C209.5,5.9,211.5,5.9,212.8,6z M212.7,15.9l-6.1-0.2
		c0,1.2-0.1,2.4-0.2,3.6c2,0.1,4.1,0.2,6.3,0.2C212.7,18.3,212.7,17.1,212.7,15.9z M206.8,11.9c0,0.9-0.1,1.7-0.1,2.6l6,0.1
		c0-0.9,0-1.8-0.1-2.6L206.8,11.9z M212.6,10.7c0-1.2-0.1-2.3-0.1-3.4c-1.5-0.1-3.3-0.1-5.6-0.1c0,1.1,0,2.2,0,3.4L212.6,10.7z
		 M212.2,26.3v1.8c0,0.5,0.2,0.9,0.5,1c0.2,0.2,0.8,0.2,1.7,0.3c0.6,0,1-0.1,1.2-0.2c0.2-0.1,0.3-0.3,0.3-0.6c0-0.5,0.2-0.7,0.6-0.7
		c0.4,0,0.7,0.3,0.7,0.8c0,0.8-0.3,1.4-0.8,1.7c-0.5,0.3-1.1,0.4-1.9,0.4c-1.2,0-2.1-0.2-2.7-0.6c-0.6-0.4-0.9-1-0.9-1.8v-2
		c0-0.5,0.2-0.7,0.7-0.7C212,25.6,212.2,25.9,212.2,26.3z"/>
	<path class="st1" d="M235.8,14.8c1.4,0.1,2.8,0.2,4.2,0.2c0.2-0.7,0.4-1.4,0.5-2.1c0.1-0.4,0.3-0.6,0.7-0.6c0.5,0,0.8,0.3,0.7,0.8
		c-0.1,0.7-0.3,1.3-0.4,1.9c3.8,0.1,7.8,0.2,11.9,0.1c0.4,0,0.7,0.2,0.7,0.6c0,0.4-0.2,0.6-0.6,0.6c-4.2,0.1-7.9,0.1-11.1,0
		c-0.5,0-0.9,0-1.3,0c-0.2,0.7-0.5,1.4-0.9,2c-1,1.8-2.2,3-3.7,3.7c-0.2,0-0.3,0.1-0.5,0.1c-0.1,0-0.3,0-0.5,0
		c-0.3-0.1-0.5-0.3-0.5-0.7c0-0.3,0.1-0.5,0.4-0.6c1.4-0.4,2.5-1.5,3.5-3.1c0.2-0.4,0.5-0.9,0.7-1.5c-1.8-0.1-3-0.1-3.8-0.2
		c-0.4,0-0.7-0.3-0.7-0.7C235.1,15,235.4,14.8,235.8,14.8z M249,9.1c0.1,0.1,0.2,0.3,0.2,0.5c0,0.4-0.2,0.6-0.5,0.7
		c-0.3,0-0.5,0-0.7-0.2c-0.5-0.5-1.5-1.1-2.9-2C245,8.1,245,8.2,245,8.2c-1.2,0.9-2.2,1.5-2.9,1.8c-0.3,0.1-0.6,0.2-0.9,0.2
		c-0.4,0-0.6-0.3-0.6-0.6c0-0.3,0.1-0.5,0.5-0.6c0.9-0.4,1.8-0.9,2.7-1.6c-1-0.5-1.7-0.9-2.4-1.2c-0.2-0.1-0.3-0.2-0.4-0.4
		c-0.1-0.2-0.1-0.4,0-0.6c0.1-0.2,0.3-0.3,0.6-0.3c0.2,0,0.3,0,0.4,0.1c0.7,0.2,1.6,0.7,2.8,1.4c0.8-0.7,1.3-1.2,1.6-1.7
		c0.2-0.3,0.4-0.4,0.7-0.3c0.4,0.1,0.6,0.4,0.5,0.8c0,0.1-0.1,0.2-0.1,0.4c-0.3,0.5-0.8,1-1.4,1.6C247.5,7.9,248.4,8.6,249,9.1z
		 M249.1,20.3l0.1,2.6c1,0,2,0.1,3,0.1c0.4,0.1,0.7,0.3,0.8,0.6c0.2,0.8,0.3,2,0.3,3.5c0,1-0.5,1.4-1.4,1.4c-0.7,0-1-0.3-1-0.8
		c0.1-0.5,0.4-0.7,1.1-0.6c0-0.6-0.1-1.6-0.2-2.8c-0.8,0-1.6-0.1-2.4-0.1l0.1,6.9c0,0.5-0.2,0.7-0.7,0.7c-0.5,0-0.7-0.2-0.7-0.7
		l-0.1-6.9c-0.8,0-1.6,0-2.4-0.1c-0.1,1.4-0.3,2.4-0.6,3.3c0,0.1-0.1,0.2-0.2,0.3c-0.2,0.2-0.4,0.3-0.6,0.2
		c-0.4-0.1-0.6-0.3-0.6-0.7c0-0.1,0.1-0.2,0.1-0.4c0.3-1.1,0.5-2.4,0.6-3.8c0-0.4,0.3-0.7,0.7-0.7c0.3,0,0.5,0.2,0.6,0.4
		c0.8,0,1.6,0,2.3,0.1l-0.1-2.6c0-0.5,0.2-0.7,0.7-0.7C248.9,19.6,249.1,19.8,249.1,20.3z"/>
	<path class="st1" d="M271.6,11.7v-0.6c0-1,0.1-1.7,0.1-2.4c-0.4,0-0.9-0.1-1.3-0.1c-0.2,0-0.3,0-0.5-0.1c-0.3-0.1-0.5-0.4-0.4-0.7
		c0-0.4,0.3-0.6,0.7-0.5c0.8,0.1,1.9,0.2,3.4,0.3c-0.2-0.6-0.4-1.3-0.5-2.2c0-0.5,0.2-0.7,0.7-0.7c0.4,0,0.6,0.2,0.7,0.6
		c0.2,1,0.3,1.7,0.6,2.3c0,0,0,0.1,0,0.1h0.4c1.4,0.1,2.5,0.1,3.5,0c0.4,0,0.7,0.2,0.7,0.7c0,0.4-0.2,0.6-0.7,0.6c-0.3,0-0.7,0-1,0
		c-1.7,0-3.3-0.1-4.9-0.2c-0.1,1.2-0.1,2.1-0.1,2.8c0,0.5,0.3,0.8,0.9,0.8c1.2,0,2,0,2.7-0.1c0.2,0,0.5-0.1,0.7-0.1
		c0.4,0,0.6,0.1,0.7,0.5c0,0.3,0,0.5-0.2,0.7c-0.2,0.1-0.3,0.1-0.5,0.1c-0.9,0.2-2,0.3-3.6,0.2C272.3,13.7,271.6,13,271.6,11.7z
		 M278.8,25.9c0.6,0.1,1.5,0.1,2.6,0.2l-0.1-2.5c0-0.1,0-0.1,0-0.2c-1.3,0.3-2.4,0.5-3.2,0.6c-0.5,0-0.7-0.2-0.7-0.7
		c0-0.4,0.2-0.6,0.7-0.6c1.2-0.2,2.3-0.5,3.5-0.8c1.4-0.4,2.5-0.7,3.3-1c0.1,0,0.2,0,0.2,0c0.4,0,0.7,0.2,0.7,0.6
		c0,0.3-0.1,0.5-0.4,0.6c0,0-0.1,0-0.1,0.1c-1,0.3-2,0.6-2.8,0.8c0.2,0.2,0.2,0.3,0.2,0.6c0,0.8,0.1,1.6,0.1,2.4c0.7,0,1.2,0,1.7,0
		c0.5,0,0.7,0.2,0.7,0.7c0,0.4-0.2,0.6-0.7,0.6c-0.2,0-0.4,0-0.7,0c-0.3,0-0.7,0-1,0c0,0.9,0.1,1.7,0.1,2.5c1.1,0,2.2-0.1,3.3-0.2
		c0.5,0,0.8,0.2,0.7,0.6c0,0.4-0.2,0.7-0.7,0.7c-2.8,0.2-5.1,0.2-6.9,0.2c-0.8,0-1.5-0.1-2.1-0.2c-0.3-0.1-0.5-0.3-0.5-0.7
		c0-0.5,0.4-0.7,1-0.6c0.4,0.1,1,0.1,1.5,0.1c0.7,0,1.4,0,2.2,0l-0.1-2.6c-0.9,0-1.8-0.1-2.6-0.2c-0.1,0-0.2,0-0.3-0.1
		c-0.3-0.1-0.5-0.3-0.4-0.7C278.1,26,278.4,25.8,278.8,25.9z M288.1,11.5c0.9-1,1.5-1.9,2.1-2.9c-1.2-0.2-2.3-0.4-3.5-0.7
		c-0.6,0.7-1.1,1.1-1.5,1.4c-0.5,0.3-0.9,0.5-1.1,0.5c-0.4,0-0.7-0.2-0.7-0.6c0-0.3,0.1-0.5,0.4-0.6c0.1,0,0.2-0.1,0.3-0.1
		c0.5-0.3,1.1-0.8,1.8-1.5c0.7-0.9,1.2-1.6,1.5-2.1c0-0.1,0.1-0.2,0.1-0.3c0.2-0.3,0.5-0.4,0.9-0.3c0.4,0.2,0.5,0.5,0.3,0.9
		c-0.2,0.6-0.6,1.2-1.1,1.8c1,0.2,2.2,0.4,3.4,0.6c0.7,0.1,0.9,0.5,0.6,1.1c-0.8,1.5-1.9,3.1-3.5,4.9c-2,2.2-3.6,3.2-4.8,3.1
		c-0.4,0-0.6-0.2-0.7-0.7c0-0.4,0.2-0.6,0.6-0.6c0.2,0,0.5-0.1,0.7-0.2c0.3-0.2,0.7-0.4,1.1-0.6l-1.7-1l-0.2-0.1
		c-0.2-0.2-0.3-0.4-0.2-0.7c0.1-0.4,0.4-0.5,0.8-0.4l0.1,0.1l2.2,1.3c0.3-0.3,0.7-0.6,1-1c0.1-0.1,0.1-0.1,0.2-0.2l-1.2-0.8
		l-0.1-0.1c-0.2-0.2-0.3-0.4-0.2-0.7c0.1-0.4,0.4-0.5,0.8-0.4l0.1,0L288.1,11.5z"/>
</g>
<g class="st0">
	<path class="st2" d="M11.9,12.2c0.5,0.1,0.6,0.5,0.2,1.2c-0.9,1.3-1.9,2.5-2.8,3.7c0.5,1.1,0.9,2.1,1.2,3.1
		c0.6-0.1,1.1-0.3,1.7-0.4c0.1,0,0.2,0,0.2,0c0.5-0.1,0.7,0.1,0.8,0.6c0,0.3-0.2,0.5-0.5,0.6c-0.1,0-0.2,0.1-0.3,0.1
		c-0.5,0.1-1,0.2-1.5,0.4c0.3,1.3,0.5,2.4,0.4,3.4c0,1.5-0.6,2.3-1.7,2.3c-0.8,0-1.4-0.1-1.7-0.4c-0.2-0.2-0.3-0.4-0.3-0.6
		c0-0.4,0.3-0.6,0.8-0.6c0.4,0.2,0.8,0.3,1.3,0.3c0.3-0.1,0.4-0.5,0.4-1.2c0-0.7-0.2-1.7-0.5-2.9c-1.4,0.3-2.9,0.6-4.3,0.9
		c-0.5,0.1-0.7-0.1-0.8-0.6c0-0.4,0.1-0.6,0.5-0.7c0.1,0,0.2-0.1,0.3-0.1C6.7,21,8,20.7,9.3,20.5c-0.4-1.2-0.7-2.1-1.1-2.9
		C8.1,17.4,8,17.2,8,17c0-0.2,0.1-0.5,0.4-0.9c0.3-0.4,1-1.2,2.2-2.7c-2.9-0.2-4.8-0.4-5.8-0.6c-0.3-0.1-0.5-0.4-0.5-0.7
		c0-0.4,0.3-0.6,0.7-0.6c0.2,0,0.6,0.1,0.9,0.1c0.5,0.1,1,0.1,1.5,0.2C9.2,12,10.7,12.2,11.9,12.2z M17,6.6c1.6,0.1,3.3,0.2,4.9,0.2
		l-0.3-2.1c-0.1-0.5,0.2-0.7,0.7-0.8c0.4,0,0.6,0.2,0.7,0.6l0.3,2.4c2.2,0,4.4,0,6.6,0c0.5,0,0.7,0.2,0.7,0.6C30.6,7.8,30.4,8,30,8
		c-3.1,0.1-5.8,0.1-8.2,0c-2.3,0-4-0.1-4.8-0.2c-0.5,0-0.7-0.3-0.7-0.7C16.2,6.7,16.5,6.5,17,6.6z M27.4,18.5
		c-0.3,1.3-1.1,2.7-2.2,4.2c-1.3,1.7-2.8,2.8-4.4,3.4c-0.1,0-0.2,0.1-0.3,0.1c-0.1,0-0.2,0-0.3,0c-0.4,0-0.6-0.3-0.6-0.7
		c0-0.3,0.2-0.5,0.5-0.6c1.5-0.5,2.9-1.5,4.2-3c0.2-0.3,0.4-0.6,0.6-0.8c-1.1-0.1-2.2-0.3-3.5-0.6c-0.5-0.1-0.8-0.2-1-0.4
		c-0.4-0.2-0.4-0.5-0.1-0.9c1.4-1.6,2.2-2.9,2.5-3.8c0-0.1,0-0.2,0.1-0.3c0.1-0.4,0.3-0.6,0.7-0.5c0.4,0,0.7,0.3,0.6,0.7
		c0,0.1,0,0.2,0,0.3c-0.2,1.1-0.9,2.3-2.1,3.7c1.2,0.2,2.3,0.4,3.5,0.6c0.3-0.6,0.6-1.2,0.7-1.8c0.1-0.4,0.3-0.6,0.7-0.6
		C27.3,17.7,27.5,18,27.4,18.5z M28.5,25c-0.2,0.9-0.8,1.9-1.7,2.9c0,0-0.1,0.1-0.1,0.1c0.9,1.1,1.8,1.5,2.7,1.2
		c0.5,0,0.7,0.3,0.7,0.7c0,0.3-0.2,0.5-0.6,0.6c-1.4,0.3-2.6-0.2-3.8-1.7c-0.8,0.6-1.6,1.1-2.5,1.3c-0.1,0-0.2,0-0.2,0.1
		c0,0-0.1,0-0.3,0c-0.4,0-0.6-0.3-0.6-0.7c0-0.3,0.2-0.5,0.5-0.6c1.1-0.3,2.2-0.9,3.1-1.9c0.8-0.9,1.3-1.7,1.5-2.4
		c0.1-0.4,0.3-0.6,0.6-0.6C28.3,24.3,28.6,24.6,28.5,25z"/>
	<path class="st2" d="M46.8,7.6c0.6,0.1,1.4,0.2,2.5,0.3c1.1,0.1,3.8,0.3,8.2,0.4c0.4,0,0.6,0.1,0.7,0.4c0.1,0.2,0,0.5-0.1,0.7
		c-1.2,1.7-2.5,3.5-3.8,5.1c1.4,1.9,2.3,3.9,2.7,5.9c2.8,0,4.6,0.1,5.6,0c0.5,0,0.7,0.2,0.7,0.6c0,0.4-0.2,0.7-0.6,0.7
		c-1,0-2.8,0-5.5,0c0,0.4,0,0.7,0,1.1c0,1.6-0.3,2.9-0.9,4c-0.6,1.1-1.5,1.6-2.6,1.6c-1,0-1.6-0.3-2-0.7c-0.2-0.2-0.3-0.4-0.2-0.6
		c0.1-0.3,0.3-0.5,0.7-0.5c0.2,0,0.3,0.1,0.3,0.1c0.5,0.3,0.9,0.4,1.3,0.4c0.6-0.1,1.1-0.4,1.4-1c0.5-0.8,0.7-1.9,0.7-3.3
		c0-0.4,0-0.8-0.1-1.1c-0.4,0-0.8,0-1.3,0c-4.2-0.1-7-0.2-8.3-0.4c-0.4-0.1-0.6-0.3-0.6-0.7c0-0.5,0.2-0.7,0.7-0.6
		c1.3,0.1,4,0.2,8.2,0.4c0.4,0,0.7,0,1,0c-0.4-1.9-1.3-3.7-2.6-5.3c-0.2-0.2-0.2-0.3-0.3-0.5c0-0.2,0.1-0.3,0.2-0.5
		c1-1.3,2.2-2.8,3.4-4.5c-2,0-4-0.1-6-0.3c-2-0.2-3.2-0.3-3.6-0.4c-0.4-0.1-0.5-0.3-0.6-0.6C46.1,7.8,46.3,7.6,46.8,7.6z"/>
	<path class="st2" d="M77.2,17.4c-0.4,0-0.6-0.1-0.7-0.5c-0.1-0.4,0.1-0.7,0.4-0.8c0.9-0.3,1.8-0.9,2.6-1.7c0.7-0.8,1.2-1.6,1.6-2.5
		c0.1-0.3,0.3-0.4,0.6-0.4c0.4,0,0.7,0.2,0.7,0.6c0,0.1,0,0.2,0,0.2c-0.4,1-0.9,1.8-1.6,2.6c0.1,0.1,0.1,0.2,0.1,0.3l0.4,6.2
		c0,0.5-0.2,0.7-0.7,0.7c-0.4,0-0.6-0.2-0.7-0.6l-0.4-5.4c-0.7,0.5-1.3,0.9-2,1.1C77.5,17.3,77.3,17.4,77.2,17.4z M89.8,18.8
		c-0.4,0.7-1,1.6-1.8,2.9c0.6,0.3,1.2,0.6,1.9,0.9c0.4,0.2,0.5,0.6,0.4,1.1c-0.2,1.1-0.6,2.1-1.2,3.1c0.1,0,0.1,0.1,0.2,0.1
		c1.6,0.8,3,1.2,4.1,1.2c0.2,0,0.5-0.1,0.7-0.1c0.2,0,0.4-0.1,0.5-0.1c0.6-0.1,0.9,0.1,0.9,0.7c0,0.6-0.7,0.9-2.1,0.9
		c-1.3,0-2.9-0.5-4.7-1.4c-0.1,0-0.2-0.1-0.3-0.2c-0.6,0.8-1.3,1.5-2.1,2.1C86,30,85.8,30,85.7,30c-0.5,0-0.7-0.3-0.7-0.7
		c0-0.2,0.1-0.4,0.3-0.5c0.7-0.5,1.3-1,1.8-1.6c-0.9-0.6-1.6-1.1-2.2-1.7c-0.1-0.1-0.2-0.3-0.2-0.4c0-0.4,0.2-0.7,0.7-0.7
		c0.2,0,0.3,0.1,0.5,0.2c0.5,0.5,1.2,1,2,1.5c0.4-0.8,0.8-1.6,1.1-2.5c-1.2-0.5-1.9-0.8-2.1-1.1c-0.2-0.2-0.3-0.4-0.3-0.6
		c0-0.2,0.1-0.4,0.2-0.6c0.5-0.7,1-1.5,1.5-2.2c-0.7-0.1-1.3-0.2-2-0.3c-0.6-0.1-1.1-0.3-1.4-0.5c-0.2-0.2-0.3-0.4-0.3-0.6
		c0-0.4,0.2-0.5,0.6-0.5c0.2,0,0.4,0,0.6,0.1c1.1,0.3,1.9,0.5,2.6,0.6c0.3,0,0.7,0.1,1.1,0.1C89.9,17.9,90,18.2,89.8,18.8z M97,6.4
		v1.1c0.7,0.1,1.5,0.1,2.4,0.2c0.5,0,0.8,0.3,0.9,0.7c0.1,0.8,0.1,1.6,0.1,2.4c0.6,0,1.1,0,1.5,0c0.4,0,0.7,0.2,0.7,0.6
		c0,0.4-0.2,0.6-0.7,0.7c-0.4,0-0.7,0-1.1,0c-0.1,0-0.3,0-0.4,0c0,0.6,0,1.2,0,1.8c0,0.5-0.2,0.9-0.7,1C99,14.9,98.1,15,97,15v2.2
		l2.1,0c0.4,0,0.6,0.2,0.6,0.7c0,0.4-0.2,0.6-0.7,0.6l-2-0.1v1.8c1,0,1.9-0.1,2.6-0.2c0.5,0,0.7,0.2,0.7,0.7c0,0.4-0.2,0.6-0.6,0.7
		c-0.7,0.1-1.6,0.1-2.8,0.1v2.3c0,0.5-0.2,0.7-0.7,0.7c-0.5,0-0.7-0.2-0.7-0.7v-2.3c-1.2,0-2.1-0.1-2.6-0.3
		c-0.3-0.1-0.5-0.3-0.5-0.6c0-0.2,0.1-0.4,0.2-0.5s0.3-0.2,0.6-0.1c0.5,0.1,1.3,0.2,2.3,0.2v-1.8l-2.2,0c-0.4-0.1-0.6-0.3-0.6-0.6
		c0-0.5,0.2-0.7,0.7-0.7l2.1,0.1V15c-0.6,0-1.2,0-1.9,0c-0.4-0.1-0.7-0.3-0.7-0.6c0-0.4,0.2-0.7,0.7-0.7c0.7,0,1.4,0,1.9,0v-1.8
		c-1.1,0-2.1-0.1-3.1-0.2c-0.2,0-0.3,0-0.5-0.1c-0.3-0.1-0.5-0.4-0.4-0.7c0-0.4,0.3-0.6,0.7-0.5c0.8,0.1,1.9,0.2,3.3,0.2V8.7
		c-0.7-0.1-1.4-0.1-2.1-0.2C93.2,8.4,93,8.2,93,7.8c0-0.4,0.2-0.7,0.7-0.7c0.2,0,0.9,0.1,2,0.2v-1c0-0.5,0.2-0.7,0.7-0.7
		C96.8,5.7,97,5.9,97,6.4z M99,10.7c0-0.6,0-1.2-0.1-1.8c-0.6,0-1.2-0.1-1.9-0.1v1.8c0.4,0,0.8,0,1.1,0C98.5,10.7,98.8,10.7,99,10.7
		z M97,13.7c0.9,0,1.6,0,2,0c0-0.6,0-1.1,0-1.6c-0.7,0-1.4,0-2-0.1V13.7z"/>
	<path class="st2" d="M132.5,7.8c0.4,0,0.7,0.2,0.7,0.7c0,0.4-0.3,0.6-0.7,0.6c-4.7-0.1-9.7-0.3-14.8-0.5c-0.1,0-0.2,0-0.1,0.1
		c-0.3,2.7-0.7,5-1.2,6.8c-0.5,1.5-1.1,2.6-1.8,3.2c-0.2,0.1-0.3,0.2-0.5,0.2c-0.4,0-0.7-0.2-0.7-0.7c0-0.2,0.1-0.3,0.2-0.5
		c0.6-0.7,1-1.6,1.5-2.7c0.6-1.7,1-4.1,1.2-7c0-0.6,0.3-0.8,0.8-0.8c2.2,0.1,4.5,0.2,6.8,0.3l-0.7-2.5c-0.1-0.5,0.2-0.7,0.7-0.8
		c0.4,0,0.6,0.2,0.7,0.6l0.7,2.8C127.7,7.7,130.1,7.8,132.5,7.8z M123.2,27c0.3-0.2,0.6-0.1,0.9,0.2c0.1,0.2,0.1,0.5,0,0.7
		c0,0.1-0.1,0.2-0.3,0.3c-0.5,0.4-1.2,0.8-2.1,1.1c-0.6,0.2-1.1,0.4-1.7,0.5c-0.1,0-0.3,0.1-0.4,0.1c-0.4,0-0.6-0.2-0.7-0.6
		c0-0.4,0.2-0.7,0.7-0.7c0.7-0.1,1.3-0.3,1.8-0.5C122,27.7,122.6,27.4,123.2,27z M120.6,23.7c0.7,0.6,1.3,1,2,1.2
		c0.4,0.1,0.6,0.4,0.5,0.9c-0.1,0.4-0.4,0.5-0.8,0.4c-0.1,0-0.3-0.1-0.4-0.1c-0.9-0.4-1.6-0.8-2.2-1.4c-0.2-0.2-0.2-0.3-0.3-0.5
		c0-0.4,0.2-0.6,0.6-0.7C120.3,23.6,120.5,23.6,120.6,23.7z M126.4,29.4c0.1,0.1,0.2,0,0.2-0.1v-0.1c0-0.8-0.1-3.2-0.4-7.2
		c-0.9,0-2,0-3.1,0c-0.4,0-0.7-0.3-0.7-0.7c0-0.4,0.2-0.6,0.6-0.6h3.1c0-0.5-0.1-1-0.1-1.5c-1.4,0-2.8-0.1-4.2-0.1
		c-0.2,0-0.4,0-0.6,0c-0.3-0.1-0.5-0.4-0.4-0.7c0-0.4,0.3-0.6,0.7-0.5c1,0,2.5,0.1,4.3,0.1c0-0.6-0.1-1.1-0.1-1.7
		c-0.9,0-1.8-0.1-2.8-0.1c-0.2,0-0.3,0-0.6-0.1c-0.4-0.1-0.5-0.3-0.6-0.6c0-0.5,0.3-0.7,0.7-0.7c0.9,0,1.9,0.1,3.1,0.1
		c0-0.6-0.1-1.1-0.1-1.7c-0.1-0.5,0.2-0.8,0.7-0.8c0.4,0,0.6,0.2,0.7,0.6c0,0.7,0.1,1.3,0.1,1.9c1,0,2,0.1,3,0.1
		c0.4,0,0.7,0.2,0.8,0.6c0.1,0.8,0.1,1.6,0.1,2.4c0.8,0,1.5,0,2.1,0c0.4,0,0.7,0.2,0.7,0.7c0,0.4-0.2,0.6-0.7,0.6h-2.1
		c0,0.6,0,1.3,0,1.8c0,0.4-0.3,0.7-0.6,0.7c-0.6,0.1-1.5,0.1-2.7,0.2c0.3,3.9,0.4,6.2,0.4,6.9c0,0.7-0.1,1.2-0.3,1.5
		c-0.2,0.3-0.6,0.4-1.2,0.4c-0.6,0-1-0.3-1-0.7c0-0.3,0.1-0.6,0.3-0.7C125.9,29.3,126.1,29.3,126.4,29.4z M129.4,17.9
		c0-0.6,0-1.1-0.1-1.7c-0.8,0-1.6,0-2.4,0c0,0.6,0.1,1.2,0.1,1.7c0.4,0,0.8,0,1.2,0H129.4z M127.4,20.6c1.1,0,1.8,0,2.1,0v-1.4
		c-0.8,0-1.5,0-2.2,0C127.3,19.7,127.3,20.2,127.4,20.6z M130.1,25.4c0.2,0.3,0.4,0.5,0.6,0.8c0.6-0.5,1.2-1.2,1.8-2
		c0.2-0.2,0.4-0.4,0.6-0.4c0.5,0,0.7,0.3,0.6,0.8c0,0.2-0.1,0.4-0.3,0.6c-0.5,0.6-1.1,1.2-1.7,1.8c0.2,0.1,0.3,0.3,0.5,0.4
		c1,0.7,1.8,1.1,2.5,1.2c0.1,0,0.2,0,0.3,0.1c0.4,0.1,0.6,0.3,0.6,0.7s-0.3,0.6-0.7,0.6c-0.1,0-0.3,0-0.5-0.1
		c-0.9-0.2-1.9-0.7-3-1.4c-1.2-0.8-2-1.7-2.5-2.5c0-0.1-0.1-0.2-0.1-0.3c0-0.4,0.3-0.6,0.7-0.6C129.7,25,129.9,25.1,130.1,25.4z"/>
	<path class="st2" d="M179.1,12.8c-1.3,0.1-2.6,0.1-4,0c-0.2,0.8-0.5,1.6-0.8,2.3c2.1,0.1,3.9,0.1,5.2,0.1c0.5,0,0.7,0.2,0.7,0.7
		c0,0.5-0.2,0.7-0.7,0.7c-1.8,0-3.7,0-5.8-0.1c-0.2,0.5-0.5,0.9-0.7,1.3c-2,3.4-4.6,5.8-7.9,7.2c-0.1,0.1-0.3,0.1-0.4,0.2
		c-0.1,0-0.2,0.1-0.4,0.1c-0.4,0-0.6-0.3-0.6-0.7c0-0.3,0.1-0.5,0.4-0.6c0.1,0,0.2-0.1,0.3-0.1c3-1.3,5.5-3.5,7.4-6.7
		c0.2-0.3,0.3-0.5,0.4-0.8c-2.5-0.2-4.1-0.3-4.8-0.5c-0.4-0.1-0.5-0.4-0.5-0.8c0.1-0.3,0.3-0.5,0.6-0.5c0.1,0,0.3,0,0.4,0
		c0.9,0.1,2.6,0.3,5,0.4c0.4-0.8,0.7-1.5,0.9-2.3c-2.4-0.1-4-0.2-4.6-0.4c-0.4-0.1-0.5-0.4-0.5-0.8c0.1-0.3,0.3-0.5,0.6-0.5
		c0.1,0,0.2,0,0.3,0c0.8,0.1,2.3,0.2,4.5,0.3c0.2-1,0.3-1.9,0.4-2.8c0-0.4,0.3-0.6,0.7-0.6c0.4,0,0.7,0.3,0.7,0.7
		c-0.1,1-0.2,1.9-0.4,2.8c1.5,0.1,2.7,0.1,3.7,0.1c0.5,0,0.7,0.2,0.7,0.7C179.8,12.6,179.6,12.8,179.1,12.8z M167.9,9.9
		c-0.5,0-0.7-0.2-0.7-0.7c0-0.4,0.2-0.6,0.6-0.7c1-0.2,2.3-0.6,3.9-1.4c1.8-1,3-1.9,3.7-2.7c0.1-0.1,0.3-0.2,0.5-0.2
		c0.5,0,0.7,0.2,0.7,0.7c0,0.2-0.1,0.3-0.2,0.4c-0.8,0.9-2.1,1.8-4,2.9c-1.7,0.9-3,1.4-4.2,1.6C168.1,9.9,168,9.9,167.9,9.9z
		 M179.8,21.8c0.5,0,0.9,0.3,1,0.7c0.2,2.1,0.3,4.7,0.3,7.7c0,0.7-0.2,1.1-0.8,1.2c-2.3,0-4.4,0-6.3-0.2c-0.7-0.1-1-0.5-0.8-1.2
		c0.3-2.8,0.5-5.4,0.4-8c0-0.5,0.3-0.7,0.7-0.7c0.3,0,0.5,0.1,0.6,0.3C177.1,21.6,178.7,21.7,179.8,21.8z M179.6,28.4l-5-0.1
		c0,0.5-0.1,1.1-0.1,1.6c1.6,0.1,3.3,0.2,5.1,0.2C179.7,29.5,179.7,28.9,179.6,28.4z M174.8,25.7c0,0.4-0.1,0.9-0.1,1.3l4.9,0.1
		c0-0.5,0-0.9,0-1.3L174.8,25.7z M179.5,24.5c0-0.5,0-1-0.1-1.5c-1.2-0.1-2.7-0.1-4.5-0.1c0,0.5,0,1,0,1.5L179.5,24.5z"/>
	<path class="st2" d="M208.6,25.3c0,0.1,0,0.2-0.1,0.2c-0.3,0.7-0.7,1.4-1.2,2.1c-0.8,1.1-1.4,1.6-1.9,1.6c-0.4,0-0.7-0.2-0.7-0.7
		c0-0.2,0.1-0.4,0.3-0.6c0.8-0.6,1.6-1.7,2.3-3.1c0.2-0.3,0.4-0.5,0.7-0.4C208.5,24.6,208.7,24.8,208.6,25.3z M212.8,6
		c0.5,0,0.9,0.3,1,0.7c0.2,3.6,0.3,7.9,0.3,12.9c0,0.7-0.2,1.1-0.8,1.2c-2.7,0-5.2,0-7.4-0.2c-0.7-0.1-1-0.5-0.8-1.2
		c0.3-4.6,0.4-9,0.4-13.2c0-0.4,0.3-0.7,0.7-0.7c0.3,0,0.5,0.1,0.6,0.4C209.5,5.9,211.5,5.9,212.8,6z M212.7,15.9l-6.1-0.2
		c0,1.2-0.1,2.4-0.2,3.6c2,0.1,4.1,0.2,6.3,0.2C212.7,18.3,212.7,17.1,212.7,15.9z M206.8,11.9c0,0.9-0.1,1.7-0.1,2.6l6,0.1
		c0-0.9,0-1.8-0.1-2.6L206.8,11.9z M212.6,10.7c0-1.2-0.1-2.3-0.1-3.4c-1.5-0.1-3.3-0.1-5.6-0.1c0,1.1,0,2.2,0,3.4L212.6,10.7z
		 M212.2,26.3v1.8c0,0.5,0.2,0.9,0.5,1c0.2,0.2,0.8,0.2,1.7,0.3c0.6,0,1-0.1,1.2-0.2c0.2-0.1,0.3-0.3,0.3-0.6c0-0.5,0.2-0.7,0.6-0.7
		c0.4,0,0.7,0.3,0.7,0.8c0,0.8-0.3,1.4-0.8,1.7c-0.5,0.3-1.1,0.4-1.9,0.4c-1.2,0-2.1-0.2-2.7-0.6c-0.6-0.4-0.9-1-0.9-1.8v-2
		c0-0.5,0.2-0.7,0.7-0.7C212,25.6,212.2,25.9,212.2,26.3z"/>
	<path class="st2" d="M235.8,14.8c1.4,0.1,2.8,0.2,4.2,0.2c0.2-0.7,0.4-1.4,0.5-2.1c0.1-0.4,0.3-0.6,0.7-0.6c0.5,0,0.8,0.3,0.7,0.8
		c-0.1,0.7-0.3,1.3-0.4,1.9c3.8,0.1,7.8,0.2,11.9,0.1c0.4,0,0.7,0.2,0.7,0.6c0,0.4-0.2,0.6-0.6,0.6c-4.2,0.1-7.9,0.1-11.1,0
		c-0.5,0-0.9,0-1.3,0c-0.2,0.7-0.5,1.4-0.9,2c-1,1.8-2.2,3-3.7,3.7c-0.2,0-0.3,0.1-0.5,0.1c-0.1,0-0.3,0-0.5,0
		c-0.3-0.1-0.5-0.3-0.5-0.7c0-0.3,0.1-0.5,0.4-0.6c1.4-0.4,2.5-1.5,3.5-3.1c0.2-0.4,0.5-0.9,0.7-1.5c-1.8-0.1-3-0.1-3.8-0.2
		c-0.4,0-0.7-0.3-0.7-0.7C235.1,15,235.4,14.8,235.8,14.8z M249,9.1c0.1,0.1,0.2,0.3,0.2,0.5c0,0.4-0.2,0.6-0.5,0.7
		c-0.3,0-0.5,0-0.7-0.2c-0.5-0.5-1.5-1.1-2.9-2C245,8.1,245,8.2,245,8.2c-1.2,0.9-2.2,1.5-2.9,1.8c-0.3,0.1-0.6,0.2-0.9,0.2
		c-0.4,0-0.6-0.3-0.6-0.6c0-0.3,0.1-0.5,0.5-0.6c0.9-0.4,1.8-0.9,2.7-1.6c-1-0.5-1.7-0.9-2.4-1.2c-0.2-0.1-0.3-0.2-0.4-0.4
		c-0.1-0.2-0.1-0.4,0-0.6c0.1-0.2,0.3-0.3,0.6-0.3c0.2,0,0.3,0,0.4,0.1c0.7,0.2,1.6,0.7,2.8,1.4c0.8-0.7,1.3-1.2,1.6-1.7
		c0.2-0.3,0.4-0.4,0.7-0.3c0.4,0.1,0.6,0.4,0.5,0.8c0,0.1-0.1,0.2-0.1,0.4c-0.3,0.5-0.8,1-1.4,1.6C247.5,7.9,248.4,8.6,249,9.1z
		 M249.1,20.3l0.1,2.6c1,0,2,0.1,3,0.1c0.4,0.1,0.7,0.3,0.8,0.6c0.2,0.8,0.3,2,0.3,3.5c0,1-0.5,1.4-1.4,1.4c-0.7,0-1-0.3-1-0.8
		c0.1-0.5,0.4-0.7,1.1-0.6c0-0.6-0.1-1.6-0.2-2.8c-0.8,0-1.6-0.1-2.4-0.1l0.1,6.9c0,0.5-0.2,0.7-0.7,0.7c-0.5,0-0.7-0.2-0.7-0.7
		l-0.1-6.9c-0.8,0-1.6,0-2.4-0.1c-0.1,1.4-0.3,2.4-0.6,3.3c0,0.1-0.1,0.2-0.2,0.3c-0.2,0.2-0.4,0.3-0.6,0.2
		c-0.4-0.1-0.6-0.3-0.6-0.7c0-0.1,0.1-0.2,0.1-0.4c0.3-1.1,0.5-2.4,0.6-3.8c0-0.4,0.3-0.7,0.7-0.7c0.3,0,0.5,0.2,0.6,0.4
		c0.8,0,1.6,0,2.3,0.1l-0.1-2.6c0-0.5,0.2-0.7,0.7-0.7C248.9,19.6,249.1,19.8,249.1,20.3z"/>
	<path class="st2" d="M271.6,11.7v-0.6c0-1,0.1-1.7,0.1-2.4c-0.4,0-0.9-0.1-1.3-0.1c-0.2,0-0.3,0-0.5-0.1c-0.3-0.1-0.5-0.4-0.4-0.7
		c0-0.4,0.3-0.6,0.7-0.5c0.8,0.1,1.9,0.2,3.4,0.3c-0.2-0.6-0.4-1.3-0.5-2.2c0-0.5,0.2-0.7,0.7-0.7c0.4,0,0.6,0.2,0.7,0.6
		c0.2,1,0.3,1.7,0.6,2.3c0,0,0,0.1,0,0.1h0.4c1.4,0.1,2.5,0.1,3.5,0c0.4,0,0.7,0.2,0.7,0.7c0,0.4-0.2,0.6-0.7,0.6c-0.3,0-0.7,0-1,0
		c-1.7,0-3.3-0.1-4.9-0.2c-0.1,1.2-0.1,2.1-0.1,2.8c0,0.5,0.3,0.8,0.9,0.8c1.2,0,2,0,2.7-0.1c0.2,0,0.5-0.1,0.7-0.1
		c0.4,0,0.6,0.1,0.7,0.5c0,0.3,0,0.5-0.2,0.7c-0.2,0.1-0.3,0.1-0.5,0.1c-0.9,0.2-2,0.3-3.6,0.2C272.3,13.7,271.6,13,271.6,11.7z
		 M278.8,25.9c0.6,0.1,1.5,0.1,2.6,0.2l-0.1-2.5c0-0.1,0-0.1,0-0.2c-1.3,0.3-2.4,0.5-3.2,0.6c-0.5,0-0.7-0.2-0.7-0.7
		c0-0.4,0.2-0.6,0.7-0.6c1.2-0.2,2.3-0.5,3.5-0.8c1.4-0.4,2.5-0.7,3.3-1c0.1,0,0.2,0,0.2,0c0.4,0,0.7,0.2,0.7,0.6
		c0,0.3-0.1,0.5-0.4,0.6c0,0-0.1,0-0.1,0.1c-1,0.3-2,0.6-2.8,0.8c0.2,0.2,0.2,0.3,0.2,0.6c0,0.8,0.1,1.6,0.1,2.4c0.7,0,1.2,0,1.7,0
		c0.5,0,0.7,0.2,0.7,0.7c0,0.4-0.2,0.6-0.7,0.6c-0.2,0-0.4,0-0.7,0c-0.3,0-0.7,0-1,0c0,0.9,0.1,1.7,0.1,2.5c1.1,0,2.2-0.1,3.3-0.2
		c0.5,0,0.8,0.2,0.7,0.6c0,0.4-0.2,0.7-0.7,0.7c-2.8,0.2-5.1,0.2-6.9,0.2c-0.8,0-1.5-0.1-2.1-0.2c-0.3-0.1-0.5-0.3-0.5-0.7
		c0-0.5,0.4-0.7,1-0.6c0.4,0.1,1,0.1,1.5,0.1c0.7,0,1.4,0,2.2,0l-0.1-2.6c-0.9,0-1.8-0.1-2.6-0.2c-0.1,0-0.2,0-0.3-0.1
		c-0.3-0.1-0.5-0.3-0.4-0.7C278.1,26,278.4,25.8,278.8,25.9z M288.1,11.5c0.9-1,1.5-1.9,2.1-2.9c-1.2-0.2-2.3-0.4-3.5-0.7
		c-0.6,0.7-1.1,1.1-1.5,1.4c-0.5,0.3-0.9,0.5-1.1,0.5c-0.4,0-0.7-0.2-0.7-0.6c0-0.3,0.1-0.5,0.4-0.6c0.1,0,0.2-0.1,0.3-0.1
		c0.5-0.3,1.1-0.8,1.8-1.5c0.7-0.9,1.2-1.6,1.5-2.1c0-0.1,0.1-0.2,0.1-0.3c0.2-0.3,0.5-0.4,0.9-0.3c0.4,0.2,0.5,0.5,0.3,0.9
		c-0.2,0.6-0.6,1.2-1.1,1.8c1,0.2,2.2,0.4,3.4,0.6c0.7,0.1,0.9,0.5,0.6,1.1c-0.8,1.5-1.9,3.1-3.5,4.9c-2,2.2-3.6,3.2-4.8,3.1
		c-0.4,0-0.6-0.2-0.7-0.7c0-0.4,0.2-0.6,0.6-0.6c0.2,0,0.5-0.1,0.7-0.2c0.3-0.2,0.7-0.4,1.1-0.6l-1.7-1l-0.2-0.1
		c-0.2-0.2-0.3-0.4-0.2-0.7c0.1-0.4,0.4-0.5,0.8-0.4l0.1,0.1l2.2,1.3c0.3-0.3,0.7-0.6,1-1c0.1-0.1,0.1-0.1,0.2-0.2l-1.2-0.8
		l-0.1-0.1c-0.2-0.2-0.3-0.4-0.2-0.7c0.1-0.4,0.4-0.5,0.8-0.4l0.1,0L288.1,11.5z"/>
</g>
</svg>
