<?xml version="1.0" encoding="utf-8"?>
<!-- Generator: Adobe Illustrator 24.2.1, SVG Export Plug-In . SVG Version: 6.00 Build 0)  -->
<svg version="1.1" id="圖層_1" xmlns="http://www.w3.org/2000/svg" xmlns:xlink="http://www.w3.org/1999/xlink" x="0px" y="0px"
	 viewBox="0 0 144 36" style="enable-background:new 0 0 144 36;" xml:space="preserve">
<style type="text/css">
	.st0{enable-background:new    ;}
	.st1{fill:#0666B2;}
	.st2{fill:none;stroke:#0666B2;}
</style>
<g class="st0">
	<path class="st1" d="M8.8,16.3c0.5,0,0.8,0.2,0.7,0.6c0,0.4-0.3,0.6-0.8,0.7H8.3c-1.4,0-2.3-0.2-2.7-0.6c-0.1-0.1-0.2-0.2-0.2-0.4
		C5.4,16.2,5.6,16,6,16c0.2,0,0.4,0.1,0.8,0.2C7.3,16.3,8,16.4,8.8,16.3z M7.8,26.2c-0.4,0-0.6-0.2-0.7-0.6c0-0.5,0.2-0.7,0.6-0.8
		c0.5,0,0.9-0.1,1.3-0.2c0.4-0.1,0.8-0.3,1.1-0.4c0.2-0.2,0.5-0.2,0.8-0.1c0.3,0.2,0.4,0.5,0.3,0.9c-0.2,0.3-0.8,0.6-1.5,0.8
		C8.8,26.1,8.2,26.2,7.8,26.2z M8.2,9.2c0.2,0.2,0.6,0.3,1.1,0.5c0.4,0.2,0.8,0.3,1.2,0.3c0.5,0.1,0.7,0.3,0.7,0.8
		c-0.1,0.4-0.3,0.6-0.7,0.6c-0.5,0-1.1-0.1-1.9-0.4c-0.8-0.3-1.2-0.6-1.4-0.9c-0.1-0.4,0-0.7,0.2-0.8C7.7,9,7.9,9.1,8.2,9.2z
		 M24.9,5.6c-0.3,1.6-1,3.2-2.2,4.9c-1.3,2-2.7,3.3-4.3,4c-0.1,0-0.2,0.1-0.3,0.1c-0.1,0-0.2,0-0.3,0c-0.4,0-0.6-0.3-0.6-0.7
		c0-0.3,0.2-0.5,0.5-0.6c1.4-0.6,2.8-1.7,4-3.6c1-1.6,1.6-3.1,1.9-4.4c0.1-0.4,0.3-0.6,0.7-0.6C24.8,4.9,25,5.1,24.9,5.6z
		 M27.9,24.8c0.1,0.6,0.1,1.4,0.2,2.4c0,1,0,1.6,0,1.8c0,0.3-0.3,0.5-0.8,0.6c-1.1,0.2-2.6,0.3-4.6,0.1c-0.9-0.1-1.2-0.4-1-1.1
		c0.3-2,0.3-3.5,0.1-4.4c0-0.5,0.2-0.8,0.7-0.8c0.3,0,0.4,0.1,0.5,0.3c0.6-1,1-2.8,1.2-5.3c-1.6,0-3.1-0.1-4.6-0.1
		c-0.2,0-0.4,0-0.5,0c-0.3-0.1-0.5-0.4-0.4-0.7c0-0.4,0.3-0.6,0.7-0.5c1.1,0.1,2.7,0.1,4.9,0.1c0.1-0.9,0.1-1.8,0.2-2.8
		c0-0.4,0.2-0.7,0.6-0.7c0.5,0,0.7,0.2,0.7,0.7c0,1-0.1,1.9-0.1,2.7c1.5,0,2.8,0,3.9,0c0.4,0,0.7,0.2,0.7,0.7c0,0.4-0.2,0.6-0.7,0.6
		h-4c-0.2,2.4-0.6,4.2-1.1,5.4c0.8,0,1.6,0.1,2.4,0.1C27.4,24,27.7,24.3,27.9,24.8z M23.2,25.1c0,0.8-0.1,1.8-0.2,3.2
		c0,0.1,0,0.2,0.1,0.2c1.9,0.1,3.1,0.1,3.6,0c0,0,0.1-0.1,0.1-0.1c0-1-0.1-1.9-0.2-2.8c0-0.1-0.1-0.2-0.2-0.2
		C25.3,25.2,24.3,25.2,23.2,25.1z"/>
	<path class="st1" d="M44.2,28.2c0.4,0,1,0.1,1.5,0.1c0.4,0,0.9,0,1.3,0c0-0.5,0.1-1.2,0.1-2c-0.9-0.1-1.8-0.1-2.7-0.2
		c-0.1,0-0.2,0-0.3-0.1c-0.3-0.1-0.5-0.4-0.4-0.7c0-0.4,0.3-0.6,0.7-0.5c0.6,0.1,1.5,0.2,2.7,0.3c0-0.7,0-1.3,0-2.1
		c-0.2,0-0.4,0-0.6,0c-1.5-0.1-2.4-0.2-2.9-0.3c-0.6-0.2-0.7-0.5-0.5-1.1c0.4-1.7,0.5-3.4,0.2-5.1c0-0.5,0.2-0.8,0.7-0.8
		c0.3,0,0.4,0.1,0.5,0.2c1,0,1.9,0,2.7,0v-2.4c-1.9-0.1-3.8-0.2-5.6-0.4c-0.2,0-0.4-0.1-0.6-0.1c-0.3-0.1-0.5-0.4-0.4-0.7
		c0-0.4,0.3-0.6,0.7-0.5c1.3,0.2,3.2,0.4,5.8,0.5v-1.8c0-0.4,0.2-0.7,0.7-0.7c0.5,0,0.7,0.2,0.7,0.7v1.8c1.4,0,2.6,0,3.5,0
		c0.4,0,0.7,0.2,0.7,0.7c0,0.4-0.2,0.6-0.7,0.6c-0.4,0-0.8,0-1.3,0c-0.8,0-1.5,0-2.3,0v2.3c1.1,0,2,0.1,2.7,0.2
		c0.4,0.1,0.7,0.3,0.8,0.7c0.1,1,0.1,2,0.1,3c0,1-0.1,1.8-0.3,2.4c-0.1,0.4-0.4,0.7-0.9,0.7c-0.9,0-1.7,0-2.5,0c0,0.8,0,1.4,0,2.1
		c0.9,0,1.7,0.1,2.3,0c0.4,0,0.7,0.2,0.7,0.7c0,0.4-0.2,0.6-0.7,0.6c-0.2,0-0.5,0-0.8,0c-0.5,0-1,0-1.5-0.1c0,0.8-0.1,1.5-0.1,2
		c0.9,0,1.8,0,2.7-0.1c0.5,0,0.8,0.3,0.7,0.6c0,0.4-0.2,0.7-0.7,0.7c-2.2,0.2-4,0.2-5.4,0.1c-0.8,0-1.5-0.1-2.1-0.2
		c-0.3-0.1-0.5-0.3-0.5-0.7C43.2,28.3,43.6,28.1,44.2,28.2z M48.6,5.8c-0.3,1-0.9,1.8-1.8,2.6c-0.8,0.6-1.6,1-2.5,1.3
		c-0.2,0.1-0.5,0.1-0.8,0.1c-0.3-0.1-0.4-0.2-0.5-0.5c0-0.4,0.1-0.7,0.5-0.8c0.9-0.2,1.7-0.5,2.4-1.1c0.7-0.6,1.2-1.2,1.4-1.9
		C47.3,5.2,47.6,5,47.9,5C48.4,5.1,48.6,5.3,48.6,5.8z M44.9,19.9c0,0.5-0.1,1.1-0.2,1.6c0.9,0.1,1.8,0.1,2.6,0.2c0-0.6,0-1.1,0-1.6
		L44.9,19.9z M45,17.1c0,0.5,0.1,1,0,1.5l2.3,0.1v-1.6C46.5,17.1,45.8,17.1,45,17.1z M48.6,21.7c0.8,0,1.5,0,2.1,0
		c0.1-0.5,0.1-1,0.2-1.5l-2.3-0.1C48.7,20.6,48.6,21.2,48.6,21.7z M50.9,18.9c0-0.5,0-1,0-1.5c-0.7-0.1-1.4-0.1-2.2-0.1v1.6
		L50.9,18.9z M63.6,22.1c0.1,0,0.2,0,0.4,0.1c0.2,0.1,0.3,0.1,0.5,0.1c0.2,0,0.3-0.2,0.3-0.4c0-1.2,0-2.3-0.1-3.2
		c0-0.1-0.2-0.2-0.3-0.2c-0.3-0.1-1-0.2-2.2-0.3c-1.1,4.9-2.7,7.5-4.8,7.9c-0.6,0-0.8-0.2-0.8-0.7c0-0.4,0.2-0.6,0.6-0.7
		c1.5-0.4,2.7-2.7,3.7-6.6C60,18,59.1,18,58.1,17.9c-0.4-0.1-0.6-0.3-0.6-0.6c0-0.5,0.2-0.7,0.7-0.7c1,0.1,2,0.1,2.8,0.2
		c0.2-1,0.4-2,0.6-3.2c0.1-0.4,0.3-0.6,0.8-0.6c0.4,0,0.6,0.3,0.6,0.8c-0.2,1.1-0.4,2.1-0.5,3.1c0.9,0.1,1.8,0.2,2.5,0.3
		c0.6,0.1,1,0.4,1.1,1c0.1,1.2,0.2,2.4,0.1,3.7c0,1.1-0.5,1.7-1.6,1.7c-1,0-1.4-0.3-1.4-0.9C63.2,22.4,63.3,22.2,63.6,22.1z"/>
	<path class="st1" d="M87.3,5.2c0.1,0.6,0.1,1.3,0.2,2.3c0,1,0,1.5,0,1.7c0,0.3-0.3,0.6-0.8,0.7C85.5,10,84,10,82,9.9
		c-0.9-0.1-1.2-0.4-1-1.1c0.3-1.9,0.3-3.3,0.1-4.3c0-0.5,0.2-0.8,0.7-0.8c0.3,0,0.5,0.2,0.6,0.5c1.3,0,2.5,0.1,3.7,0.1
		C86.8,4.4,87.1,4.6,87.3,5.2z M82.6,5.5c0,0.8-0.1,1.7-0.2,2.9c0,0.1,0,0.2,0.1,0.2c1.9,0.1,3.1,0.1,3.6-0.1c0,0,0.1,0,0.1-0.1
		c0-0.9-0.1-1.8-0.2-2.6c0-0.1-0.1-0.2-0.2-0.2C84.8,5.6,83.7,5.6,82.6,5.5z M95.2,14.1c0.6,0.1,1,0.4,1.1,1
		c0.2,1.8,0.3,3.9,0.2,6.2c0,0.6-0.3,0.9-1,0.9c-1.3,0-2.5,0-3.5,0l0.1,3.4c2,0.1,3.7,0.1,4.9,0.1c0.5,0,0.7,0.2,0.7,0.7
		c0,0.5-0.3,0.7-0.7,0.7c-1.5,0-3.1,0-4.9-0.1l0.2,4.2c0,0.5-0.2,0.7-0.7,0.7c-0.4,0-0.6-0.2-0.7-0.6l-0.2-4.4
		c-2.3-0.1-3.9-0.2-4.5-0.4c-0.4-0.1-0.5-0.4-0.5-0.8c0.1-0.3,0.3-0.5,0.6-0.5c0.1,0,0.2,0,0.4,0c0.8,0.1,2.1,0.2,4.1,0.3l-0.1-3.3
		c-1.9-0.1-3.3-0.2-4.1-0.4c-0.6-0.1-0.9-0.5-0.7-1.2c0.4-2.9,0.6-5.3,0.5-7.1c0-0.4,0.3-0.6,0.7-0.6s0.6,0.2,0.7,0.5
		C91.9,13.8,94.3,14,95.2,14.1z M90.7,20.8l-0.1-2.5l-3-0.1c-0.1,0.8-0.2,1.6-0.3,2.4C88.3,20.7,89.4,20.8,90.7,20.8z M87.8,14.9
		c0,0.6,0,1.3-0.1,2l2.8,0.1l-0.1-1.9C89.5,15,88.6,14.9,87.8,14.9z M97.5,5.3c0.1,0.5,0.2,1.2,0.2,2.1c0,0.9,0,1.4,0,1.6
		c0,0.3-0.3,0.6-0.8,0.7c-1.1,0.2-2.5,0.2-4.4,0.1c-0.9-0.1-1.2-0.4-1-1.1c0.3-1.8,0.3-3.1,0.1-4c-0.1-0.5,0.2-0.8,0.7-0.8
		c0.3,0,0.5,0.2,0.6,0.5c1.2,0,2.4,0.1,3.6,0.2C97,4.5,97.4,4.8,97.5,5.3z M91.9,15.2l0.1,1.8l3.1,0.1c0-0.6-0.1-1.2-0.1-1.7
		C93.8,15.3,92.8,15.2,91.9,15.2z M95,18.5L92,18.4l0.1,2.5c1,0,2,0,3,0C95.1,20,95.1,19.2,95,18.5z M93.1,5.7
		c0,0.7-0.1,1.6-0.2,2.6c0,0.1,0,0.2,0.1,0.2c1.8,0.1,3,0.1,3.4,0c0,0,0.1-0.1,0.1-0.1c0-0.8-0.1-1.5-0.2-2.3c0-0.1-0.1-0.2-0.2-0.2
		C95.1,5.8,94.1,5.7,93.1,5.7z"/>
	<path class="st1" d="M115.3,16.7c-0.6,0.4-1.3,0.7-1.9,0.9c-0.3,0.1-0.7,0.1-1,0.1c-0.3-0.1-0.4-0.2-0.5-0.5c0-0.4,0.1-0.7,0.5-0.8
		c1.2-0.2,2.2-0.7,3.2-1.5c1-0.8,1.6-1.6,1.8-2.5c0.1-0.4,0.3-0.5,0.7-0.5c0.5,0,0.7,0.3,0.6,0.8c-0.3,1.2-1,2.2-2.1,3.2
		c0.1,2.2,0.3,4.4,0.4,6.5v0.1c0,0.4-0.2,0.6-0.7,0.6c-0.4,0-0.6-0.2-0.7-0.6L115.3,16.7z M124.5,25.5c1.3,0.2,3.2,0.4,5.7,0.5V26
		c0.1-0.1,0.2-0.3,0.3-0.4c0.4-0.7,0.8-1.5,1.1-2.6c0.4-1.3,0.6-2.3,0.7-3.3c0-0.4,0.2-0.6,0.7-0.6c0.5,0,0.7,0.3,0.7,0.7
		c-0.1,1-0.3,2.2-0.8,3.6c-0.4,1.2-0.7,2.2-1.1,2.8c1.7,0.1,3.2,0.1,4.3,0c0.4,0,0.7,0.2,0.7,0.7c0,0.4-0.2,0.6-0.7,0.6
		c-0.4,0-0.9,0-1.4,0c-3.5,0-6.8-0.2-10-0.6c-0.2,0-0.5-0.1-0.6-0.1c-0.3-0.1-0.5-0.4-0.4-0.7C123.8,25.6,124.1,25.5,124.5,25.5z
		 M124.6,13.3c1.4,0.2,3.6,0.3,6.6,0.4c1.7,0.1,3.2,0.1,4.3,0c0.4,0,0.7,0.2,0.7,0.7c0,0.4-0.2,0.6-0.7,0.6c-0.4,0-0.9,0-1.3,0
		c-3.2,0-6.3-0.2-9.3-0.4c-0.2,0-0.4-0.1-0.6-0.1c-0.3-0.1-0.5-0.4-0.4-0.7C123.9,13.4,124.1,13.2,124.6,13.3z M128.5,24.1
		c-0.4,0-0.6-0.1-0.7-0.5c-0.4-0.9-0.8-2.3-1-4.3c0-0.5,0.2-0.7,0.7-0.7c0.4,0,0.6,0.2,0.7,0.6c0.2,1.7,0.5,3,0.9,3.9
		c0,0.1,0.1,0.2,0.1,0.3C129.2,23.7,129,24,128.5,24.1z M129.1,7.4c0.5,0.4,1,0.8,1.5,1.3c0.5,0.4,0.9,0.8,1.3,1.3
		c0.2,0.1,0.2,0.2,0.3,0.4c0,0.5-0.2,0.7-0.7,0.7c-0.2,0-0.3-0.1-0.4-0.2c-1-0.9-1.8-1.7-2.7-2.5C128.1,8.4,128,8.2,128,8
		c0-0.5,0.2-0.7,0.7-0.7C128.8,7.3,128.9,7.4,129.1,7.4z"/>
</g>
<g class="st0">
	<path class="st2" d="M8.8,16.3c0.5,0,0.8,0.2,0.7,0.6c0,0.4-0.3,0.6-0.8,0.7H8.3c-1.4,0-2.3-0.2-2.7-0.6c-0.1-0.1-0.2-0.2-0.2-0.4
		C5.4,16.2,5.6,16,6,16c0.2,0,0.4,0.1,0.8,0.2C7.3,16.3,8,16.4,8.8,16.3z M7.8,26.2c-0.4,0-0.6-0.2-0.7-0.6c0-0.5,0.2-0.7,0.6-0.8
		c0.5,0,0.9-0.1,1.3-0.2c0.4-0.1,0.8-0.3,1.1-0.4c0.2-0.2,0.5-0.2,0.8-0.1c0.3,0.2,0.4,0.5,0.3,0.9c-0.2,0.3-0.8,0.6-1.5,0.8
		C8.8,26.1,8.2,26.2,7.8,26.2z M8.2,9.2c0.2,0.2,0.6,0.3,1.1,0.5c0.4,0.2,0.8,0.3,1.2,0.3c0.5,0.1,0.7,0.3,0.7,0.8
		c-0.1,0.4-0.3,0.6-0.7,0.6c-0.5,0-1.1-0.1-1.9-0.4c-0.8-0.3-1.2-0.6-1.4-0.9c-0.1-0.4,0-0.7,0.2-0.8C7.7,9,7.9,9.1,8.2,9.2z
		 M24.9,5.6c-0.3,1.6-1,3.2-2.2,4.9c-1.3,2-2.7,3.3-4.3,4c-0.1,0-0.2,0.1-0.3,0.1c-0.1,0-0.2,0-0.3,0c-0.4,0-0.6-0.3-0.6-0.7
		c0-0.3,0.2-0.5,0.5-0.6c1.4-0.6,2.8-1.7,4-3.6c1-1.6,1.6-3.1,1.9-4.4c0.1-0.4,0.3-0.6,0.7-0.6C24.8,4.9,25,5.1,24.9,5.6z
		 M27.9,24.8c0.1,0.6,0.1,1.4,0.2,2.4c0,1,0,1.6,0,1.8c0,0.3-0.3,0.5-0.8,0.6c-1.1,0.2-2.6,0.3-4.6,0.1c-0.9-0.1-1.2-0.4-1-1.1
		c0.3-2,0.3-3.5,0.1-4.4c0-0.5,0.2-0.8,0.7-0.8c0.3,0,0.4,0.1,0.5,0.3c0.6-1,1-2.8,1.2-5.3c-1.6,0-3.1-0.1-4.6-0.1
		c-0.2,0-0.4,0-0.5,0c-0.3-0.1-0.5-0.4-0.4-0.7c0-0.4,0.3-0.6,0.7-0.5c1.1,0.1,2.7,0.1,4.9,0.1c0.1-0.9,0.1-1.8,0.2-2.8
		c0-0.4,0.2-0.7,0.6-0.7c0.5,0,0.7,0.2,0.7,0.7c0,1-0.1,1.9-0.1,2.7c1.5,0,2.8,0,3.9,0c0.4,0,0.7,0.2,0.7,0.7c0,0.4-0.2,0.6-0.7,0.6
		h-4c-0.2,2.4-0.6,4.2-1.1,5.4c0.8,0,1.6,0.1,2.4,0.1C27.4,24,27.7,24.3,27.9,24.8z M23.2,25.1c0,0.8-0.1,1.8-0.2,3.2
		c0,0.1,0,0.2,0.1,0.2c1.9,0.1,3.1,0.1,3.6,0c0,0,0.1-0.1,0.1-0.1c0-1-0.1-1.9-0.2-2.8c0-0.1-0.1-0.2-0.2-0.2
		C25.3,25.2,24.3,25.2,23.2,25.1z"/>
	<path class="st2" d="M44.2,28.2c0.4,0,1,0.1,1.5,0.1c0.4,0,0.9,0,1.3,0c0-0.5,0.1-1.2,0.1-2c-0.9-0.1-1.8-0.1-2.7-0.2
		c-0.1,0-0.2,0-0.3-0.1c-0.3-0.1-0.5-0.4-0.4-0.7c0-0.4,0.3-0.6,0.7-0.5c0.6,0.1,1.5,0.2,2.7,0.3c0-0.7,0-1.3,0-2.1
		c-0.2,0-0.4,0-0.6,0c-1.5-0.1-2.4-0.2-2.9-0.3c-0.6-0.2-0.7-0.5-0.5-1.1c0.4-1.7,0.5-3.4,0.2-5.1c0-0.5,0.2-0.8,0.7-0.8
		c0.3,0,0.4,0.1,0.5,0.2c1,0,1.9,0,2.7,0v-2.4c-1.9-0.1-3.8-0.2-5.6-0.4c-0.2,0-0.4-0.1-0.6-0.1c-0.3-0.1-0.5-0.4-0.4-0.7
		c0-0.4,0.3-0.6,0.7-0.5c1.3,0.2,3.2,0.4,5.8,0.5v-1.8c0-0.4,0.2-0.7,0.7-0.7c0.5,0,0.7,0.2,0.7,0.7v1.8c1.4,0,2.6,0,3.5,0
		c0.4,0,0.7,0.2,0.7,0.7c0,0.4-0.2,0.6-0.7,0.6c-0.4,0-0.8,0-1.3,0c-0.8,0-1.5,0-2.3,0v2.3c1.1,0,2,0.1,2.7,0.2
		c0.4,0.1,0.7,0.3,0.8,0.7c0.1,1,0.1,2,0.1,3c0,1-0.1,1.8-0.3,2.4c-0.1,0.4-0.4,0.7-0.9,0.7c-0.9,0-1.7,0-2.5,0c0,0.8,0,1.4,0,2.1
		c0.9,0,1.7,0.1,2.3,0c0.4,0,0.7,0.2,0.7,0.7c0,0.4-0.2,0.6-0.7,0.6c-0.2,0-0.5,0-0.8,0c-0.5,0-1,0-1.5-0.1c0,0.8-0.1,1.5-0.1,2
		c0.9,0,1.8,0,2.7-0.1c0.5,0,0.8,0.3,0.7,0.6c0,0.4-0.2,0.7-0.7,0.7c-2.2,0.2-4,0.2-5.4,0.1c-0.8,0-1.5-0.1-2.1-0.2
		c-0.3-0.1-0.5-0.3-0.5-0.7C43.2,28.3,43.6,28.1,44.2,28.2z M48.6,5.8c-0.3,1-0.9,1.8-1.8,2.6c-0.8,0.6-1.6,1-2.5,1.3
		c-0.2,0.1-0.5,0.1-0.8,0.1c-0.3-0.1-0.4-0.2-0.5-0.5c0-0.4,0.1-0.7,0.5-0.8c0.9-0.2,1.7-0.5,2.4-1.1c0.7-0.6,1.2-1.2,1.4-1.9
		C47.3,5.2,47.6,5,47.9,5C48.4,5.1,48.6,5.3,48.6,5.8z M44.9,19.9c0,0.5-0.1,1.1-0.2,1.6c0.9,0.1,1.8,0.1,2.6,0.2c0-0.6,0-1.1,0-1.6
		L44.9,19.9z M45,17.1c0,0.5,0.1,1,0,1.5l2.3,0.1v-1.6C46.5,17.1,45.8,17.1,45,17.1z M48.6,21.7c0.8,0,1.5,0,2.1,0
		c0.1-0.5,0.1-1,0.2-1.5l-2.3-0.1C48.7,20.6,48.6,21.2,48.6,21.7z M50.9,18.9c0-0.5,0-1,0-1.5c-0.7-0.1-1.4-0.1-2.2-0.1v1.6
		L50.9,18.9z M63.6,22.1c0.1,0,0.2,0,0.4,0.1c0.2,0.1,0.3,0.1,0.5,0.1c0.2,0,0.3-0.2,0.3-0.4c0-1.2,0-2.3-0.1-3.2
		c0-0.1-0.2-0.2-0.3-0.2c-0.3-0.1-1-0.2-2.2-0.3c-1.1,4.9-2.7,7.5-4.8,7.9c-0.6,0-0.8-0.2-0.8-0.7c0-0.4,0.2-0.6,0.6-0.7
		c1.5-0.4,2.7-2.7,3.7-6.6C60,18,59.1,18,58.1,17.9c-0.4-0.1-0.6-0.3-0.6-0.6c0-0.5,0.2-0.7,0.7-0.7c1,0.1,2,0.1,2.8,0.2
		c0.2-1,0.4-2,0.6-3.2c0.1-0.4,0.3-0.6,0.8-0.6c0.4,0,0.6,0.3,0.6,0.8c-0.2,1.1-0.4,2.1-0.5,3.1c0.9,0.1,1.8,0.2,2.5,0.3
		c0.6,0.1,1,0.4,1.1,1c0.1,1.2,0.2,2.4,0.1,3.7c0,1.1-0.5,1.7-1.6,1.7c-1,0-1.4-0.3-1.4-0.9C63.2,22.4,63.3,22.2,63.6,22.1z"/>
	<path class="st2" d="M87.3,5.2c0.1,0.6,0.1,1.3,0.2,2.3c0,1,0,1.5,0,1.7c0,0.3-0.3,0.6-0.8,0.7C85.5,10,84,10,82,9.9
		c-0.9-0.1-1.2-0.4-1-1.1c0.3-1.9,0.3-3.3,0.1-4.3c0-0.5,0.2-0.8,0.7-0.8c0.3,0,0.5,0.2,0.6,0.5c1.3,0,2.5,0.1,3.7,0.1
		C86.8,4.4,87.1,4.6,87.3,5.2z M82.6,5.5c0,0.8-0.1,1.7-0.2,2.9c0,0.1,0,0.2,0.1,0.2c1.9,0.1,3.1,0.1,3.6-0.1c0,0,0.1,0,0.1-0.1
		c0-0.9-0.1-1.8-0.2-2.6c0-0.1-0.1-0.2-0.2-0.2C84.8,5.6,83.7,5.6,82.6,5.5z M95.2,14.1c0.6,0.1,1,0.4,1.1,1
		c0.2,1.8,0.3,3.9,0.2,6.2c0,0.6-0.3,0.9-1,0.9c-1.3,0-2.5,0-3.5,0l0.1,3.4c2,0.1,3.7,0.1,4.9,0.1c0.5,0,0.7,0.2,0.7,0.7
		c0,0.5-0.3,0.7-0.7,0.7c-1.5,0-3.1,0-4.9-0.1l0.2,4.2c0,0.5-0.2,0.7-0.7,0.7c-0.4,0-0.6-0.2-0.7-0.6l-0.2-4.4
		c-2.3-0.1-3.9-0.2-4.5-0.4c-0.4-0.1-0.5-0.4-0.5-0.8c0.1-0.3,0.3-0.5,0.6-0.5c0.1,0,0.2,0,0.4,0c0.8,0.1,2.1,0.2,4.1,0.3l-0.1-3.3
		c-1.9-0.1-3.3-0.2-4.1-0.4c-0.6-0.1-0.9-0.5-0.7-1.2c0.4-2.9,0.6-5.3,0.5-7.1c0-0.4,0.3-0.6,0.7-0.6s0.6,0.2,0.7,0.5
		C91.9,13.8,94.3,14,95.2,14.1z M90.7,20.8l-0.1-2.5l-3-0.1c-0.1,0.8-0.2,1.6-0.3,2.4C88.3,20.7,89.4,20.8,90.7,20.8z M87.8,14.9
		c0,0.6,0,1.3-0.1,2l2.8,0.1l-0.1-1.9C89.5,15,88.6,14.9,87.8,14.9z M97.5,5.3c0.1,0.5,0.2,1.2,0.2,2.1c0,0.9,0,1.4,0,1.6
		c0,0.3-0.3,0.6-0.8,0.7c-1.1,0.2-2.5,0.2-4.4,0.1c-0.9-0.1-1.2-0.4-1-1.1c0.3-1.8,0.3-3.1,0.1-4c-0.1-0.5,0.2-0.8,0.7-0.8
		c0.3,0,0.5,0.2,0.6,0.5c1.2,0,2.4,0.1,3.6,0.2C97,4.5,97.4,4.8,97.5,5.3z M91.9,15.2l0.1,1.8l3.1,0.1c0-0.6-0.1-1.2-0.1-1.7
		C93.8,15.3,92.8,15.2,91.9,15.2z M95,18.5L92,18.4l0.1,2.5c1,0,2,0,3,0C95.1,20,95.1,19.2,95,18.5z M93.1,5.7
		c0,0.7-0.1,1.6-0.2,2.6c0,0.1,0,0.2,0.1,0.2c1.8,0.1,3,0.1,3.4,0c0,0,0.1-0.1,0.1-0.1c0-0.8-0.1-1.5-0.2-2.3c0-0.1-0.1-0.2-0.2-0.2
		C95.1,5.8,94.1,5.7,93.1,5.7z"/>
	<path class="st2" d="M115.3,16.7c-0.6,0.4-1.3,0.7-1.9,0.9c-0.3,0.1-0.7,0.1-1,0.1c-0.3-0.1-0.4-0.2-0.5-0.5c0-0.4,0.1-0.7,0.5-0.8
		c1.2-0.2,2.2-0.7,3.2-1.5c1-0.8,1.6-1.6,1.8-2.5c0.1-0.4,0.3-0.5,0.7-0.5c0.5,0,0.7,0.3,0.6,0.8c-0.3,1.2-1,2.2-2.1,3.2
		c0.1,2.2,0.3,4.4,0.4,6.5v0.1c0,0.4-0.2,0.6-0.7,0.6c-0.4,0-0.6-0.2-0.7-0.6L115.3,16.7z M124.5,25.5c1.3,0.2,3.2,0.4,5.7,0.5V26
		c0.1-0.1,0.2-0.3,0.3-0.4c0.4-0.7,0.8-1.5,1.1-2.6c0.4-1.3,0.6-2.3,0.7-3.3c0-0.4,0.2-0.6,0.7-0.6c0.5,0,0.7,0.3,0.7,0.7
		c-0.1,1-0.3,2.2-0.8,3.6c-0.4,1.2-0.7,2.2-1.1,2.8c1.7,0.1,3.2,0.1,4.3,0c0.4,0,0.7,0.2,0.7,0.7c0,0.4-0.2,0.6-0.7,0.6
		c-0.4,0-0.9,0-1.4,0c-3.5,0-6.8-0.2-10-0.6c-0.2,0-0.5-0.1-0.6-0.1c-0.3-0.1-0.5-0.4-0.4-0.7C123.8,25.6,124.1,25.5,124.5,25.5z
		 M124.6,13.3c1.4,0.2,3.6,0.3,6.6,0.4c1.7,0.1,3.2,0.1,4.3,0c0.4,0,0.7,0.2,0.7,0.7c0,0.4-0.2,0.6-0.7,0.6c-0.4,0-0.9,0-1.3,0
		c-3.2,0-6.3-0.2-9.3-0.4c-0.2,0-0.4-0.1-0.6-0.1c-0.3-0.1-0.5-0.4-0.4-0.7C123.9,13.4,124.1,13.2,124.6,13.3z M128.5,24.1
		c-0.4,0-0.6-0.1-0.7-0.5c-0.4-0.9-0.8-2.3-1-4.3c0-0.5,0.2-0.7,0.7-0.7c0.4,0,0.6,0.2,0.7,0.6c0.2,1.7,0.5,3,0.9,3.9
		c0,0.1,0.1,0.2,0.1,0.3C129.2,23.7,129,24,128.5,24.1z M129.1,7.4c0.5,0.4,1,0.8,1.5,1.3c0.5,0.4,0.9,0.8,1.3,1.3
		c0.2,0.1,0.2,0.2,0.3,0.4c0,0.5-0.2,0.7-0.7,0.7c-0.2,0-0.3-0.1-0.4-0.2c-1-0.9-1.8-1.7-2.7-2.5C128.1,8.4,128,8.2,128,8
		c0-0.5,0.2-0.7,0.7-0.7C128.8,7.3,128.9,7.4,129.1,7.4z"/>
</g>
</svg>
