<svg xmlns="http://www.w3.org/2000/svg" width="50" height="62" viewBox="0 0 50 62">
    <g fill="none">
        <path fill="#F4B362" d="M41.077 48.763c5.426-3.99 8.883-9.96 8.883-16.622 0-3.564-.997-6.795-2.753-9.575-.04-.08-.066-.16-.053-.252.253-2.487.2-6.184-.638-11.716C44.761-1.01 41.343-.279 40.146.372c-.252.147-.452.36-.572.625l-5.08 11.756c-.132.306-.465.465-.784.372-2.713-.758-5.638-1.157-8.697-1.157-3.47 0-6.782.519-9.774 1.49-.319.106-.678-.054-.81-.373L9.175 1.011c-.12-.266-.32-.492-.572-.625-1.197-.652-4.628-1.397-6.357 10.226-.877 5.877-.89 9.707-.585 12.18.04.333.133.626.28.892.066.12.066.252.013.372C.73 26.476.053 29.202.053 32.154c0 6.623 3.404 12.553 8.763 16.53.639.478.719 1.396.173 1.98-1.808 1.89-5.133 6.065-5.16 11.171h6.118v-.013H45.97c-.027-5.013-3.258-9.15-5.08-11.077-.545-.585-.465-1.503.186-1.982z"/>
        <path fill="#FEFBF7" d="M11.53 46.689c2.326 1.689 1.821 3.178 1.821 3.178l-.08 1.795c-.997 3.843-3.35 5.891-3.35 9.482 0 .226 0 .465.013.691h30.132c.014-.226.014-.465.014-.691 0-3.59-2.607-5.585-3.351-9.482l-.08-1.795s-.505-1.49 1.822-3.178c0 0 10.266-8.232 2.127-16.45C32.46 22.021 25 32.686 25 32.686S17.553 22.021 9.402 30.24c-8.152 8.218 2.127 16.45 2.127 16.45z"/>
        <g transform="translate(12.234 20.213)">
            <path fill="#5C2C0A" d="M19.574 6.822c.413-.226.812-.652.931-.798l.014-.013.026-.027c.452-.519 1.104-.851 1.849-.851.93 0 1.742.519 2.154 1.29.013.026.026.053.04.093.013.013.013.04.026.053l.04.08c.2.439.506.851.745 1.144.146.186.106.465-.106.585-.44.252-.984.704-.984.704-.453.572-1.144.931-1.915.931-1.038 0-1.915-.651-2.274-1.556v-.013c-.027-.066-.04-.12-.067-.186-.12-.28-.359-.585-.585-.824-.173-.2-.12-.493.106-.612zM5.957 6.822c-.412-.226-.81-.652-.93-.798l-.014-.013-.026-.027c-.452-.519-1.104-.851-1.849-.851-.93 0-1.742.519-2.154 1.29-.013.026-.027.053-.04.093-.013.013-.013.04-.026.053l-.04.08c-.2.439-.506.851-.745 1.144-.146.186-.106.465.106.585.44.252.984.704.984.704.453.572 1.144.931 1.915.931 1.038 0 1.915-.651 2.274-1.556v-.013c.027-.066.04-.12.067-.186.12-.28.359-.585.585-.824.173-.2.12-.493-.107-.612z"/>
            <circle cx="3.032" cy="6.755" r="1" fill="#FCFCFC"/>
            <circle cx="21.316" cy="6.755" r="1" fill="#FCFCFC"/>
            <ellipse cx="4.972" cy="2.501" fill="#FEFBF7" rx="1.396" ry="2.008" transform="rotate(-45 4.972 2.5)"/>
            <ellipse cx="20.89" cy="2.5" fill="#FEFBF7" rx="2.008" ry="1.396" transform="rotate(-45 20.89 2.5)"/>
        </g>
        <path fill="#FEFBF7" d="M12.62 12.553L8.604 3.311c-.16-.372-.466-.651-.851-.758-1.011-.266-2.9.253-3.923 7.101-.599 3.99-.612 6.596-.4 8.285.16 1.356 1.81 1.928 2.807.997 1.263-1.21 3.178-2.792 5.718-4.282.705-.425.984-1.33.665-2.1zM36.184 12.553l4.015-9.242c.16-.372.466-.651.852-.758 1.01-.266 2.898.253 3.922 7.101.599 3.99.612 6.596.4 8.285-.16 1.356-1.81 1.928-2.807.997-1.263-1.21-3.178-2.792-5.718-4.282-.704-.425-.984-1.33-.664-2.1z"/>
        <path fill="#5C2C0A" d="M33.896 40.013c-.266-.266-.678-.266-.944 0-2.327 2.327-5.904.226-7.128-.611-.106-.08-.172-.2-.172-.333v-.718-.053c2.367-.28 4.175-2.061 4.175-4.216 0-2.353-2.167-4.255-4.84-4.255s-4.84 1.902-4.84 4.255c0 2.155 1.821 3.937 4.175 4.216v.771c0 .133-.067.253-.173.333-1.223.837-4.787 2.938-7.128.611-.252-.252-.651-.266-.917-.026-.28.252-.28.718 0 .984.97.957 2.154 1.45 3.537 1.45.811 0 1.675-.174 2.593-.506 1.064-.399 1.968-.931 2.527-1.317.133-.093.305-.093.438 0 .572.373 1.477.918 2.527 1.317.918.332 1.782.505 2.593.505 1.383 0 2.58-.492 3.55-1.463.293-.266.293-.691.027-.944z"/>
        <path fill="#F2F0ED" d="M20.598 49.215s3.484 2.035 9.15 0c5.664-2.034-2.088 3.192-2.088 3.192s-1.423.944-2.474.944c-1.05 0-2.726-1.17-2.726-1.17s-5.625-4.269-1.862-2.966z"/>
    </g>
</svg>
