<svg xmlns="http://www.w3.org/2000/svg" width="50" height="50" viewBox="0 0 50 50">
    <defs>
        <linearGradient id="a" x1="0%" x2="93.236%" y1="-7.62%" y2="109.584%">
            <stop offset="0%" stop-color="#FF7783"/>
            <stop offset="100%" stop-color="#F03C57"/>
        </linearGradient>
    </defs>
    <path fill="url(#a)" fill-rule="nonzero" d="M28.553 11.191v-1.035a1.036 1.036 0 0 1 2.073 0v1.035h2.098a1.036 1.036 0 1 1 0 2.07h-4.18c-.583 0-1.052.465-1.052 1.035 0 .57.47 1.035 1.053 1.035h2.09c1.724 0 3.126 1.388 3.126 3.105s-1.402 3.105-3.127 3.105h-.008v1.035a1.036 1.036 0 0 1-2.073 0V21.54h-2.098a1.036 1.036 0 1 1 0-2.07h4.18c.583 0 1.052-.465 1.052-1.035 0-.57-.47-1.035-1.053-1.035h-2.09c-1.724 0-3.126-1.388-3.126-3.105s1.402-3.105 3.127-3.105h.008zM11.314 31.395a1.235 1.235 0 0 1 0-.124v-1.968c0-1.027-.844-1.863-1.89-1.863H8.379c-1.046 0-1.89.836-1.89 1.863v10.35c0 1.027.844 1.863 1.89 1.863h1.045a1.243 1.243 0 1 1 0 2.484H8.379C5.963 44 4 42.056 4 39.653v-10.35c0-2.403 1.963-4.347 4.379-4.347h1.045c2.356 0 4.281 1.85 4.375 4.17.351-.229.765-.501 1.258-.827 1.93-1.277 2.67-1.747 3.314-2.072 1.448-.73 1.675-.84 2.256-1.063 1.66-.638 3.118-.646 5.205.031l5.611 1.82c2.201.714 3.413 3.065 2.7 5.254-.712 2.19-3.077 3.38-5.278 2.667l-4.676-1.517a1.242 1.242 0 1 1 .77-2.362l4.675 1.516a1.695 1.695 0 0 0 2.143-1.071 1.69 1.69 0 0 0-1.103-2.124l-5.61-1.82c-1.562-.507-2.434-.502-3.543-.076-.467.18-.68.283-2.028.962-.514.26-1.253.73-3.061 1.925-1.312.868-2.074 1.363-2.63 1.693v6.556a1.243 1.243 0 1 1-2.488 0v-7.223zm24.929 3.186a1.245 1.245 0 0 1-1.698-.462 1.24 1.24 0 0 1 .463-1.694l5.971-3.404c2.08-1.013 4.588-.162 5.598 1.907 1.011 2.07.14 4.565-1.88 5.546l-9.366 5.217a8.516 8.516 0 0 1-6.88.624l-7.303-2.479a.83.83 0 0 0-.63.04l-4.206 2.048c-.618.3-1.363.044-1.664-.572a1.241 1.241 0 0 1 .573-1.66l4.206-2.049a3.323 3.323 0 0 1 2.522-.158l7.304 2.478a6.023 6.023 0 0 0 4.866-.44l9.427-5.25a1.69 1.69 0 0 0 .795-2.256c-.407-.832-1.422-1.177-2.199-.802l-5.9 3.366zM20.334 20.693a1.245 1.245 0 0 1-2.276 1.003 12.48 12.48 0 0 1-.446-8.97c2.175-6.632 9.36-10.258 16.047-8.106 6.691 2.154 10.356 9.28 8.18 15.915a12.566 12.566 0 0 1-3.854 5.71 1.246 1.246 0 0 1-1.754-.148 1.24 1.24 0 0 1 .149-1.75 10.083 10.083 0 0 0 3.094-4.585c1.746-5.325-1.196-11.045-6.579-12.777-5.387-1.734-11.17 1.185-12.918 6.514a10.001 10.001 0 0 0 .357 7.194z"/>
</svg>
