<?xml version="1.0" encoding="iso-8859-1"?>
<!-- Generator: Adobe Illustrator 21.0.0, SVG Export Plug-In . SVG Version: 6.00 Build 0)  -->
<svg version="1.2" baseProfile="tiny" id="&#x5716;&#x5C64;_1"
	 xmlns="http://www.w3.org/2000/svg" xmlns:xlink="http://www.w3.org/1999/xlink" x="0px" y="0px" viewBox="0 0 150 60"
	 overflow="scroll" xml:space="preserve">
<g>
</g>
<g>
	<g>
		<path fill="#3E3A39" d="M28.6,47.4l-1.8-0.9l0,0.1c-0.3,1.1-0.7,2-1.3,2.9l0,0.1l0.9,0.5l0,0l0,0c0.9-0.7,1.6-1.4,2.1-2.1
			c0.2-0.1,0.4-0.1,0.4-0.3C28.9,47.5,28.7,47.4,28.6,47.4L28.6,47.4L28.6,47.4L28.6,47.4z"/>
		<path fill="#3E3A39" d="M16.8,58.4h2v-0.7h7.4v0.7h2v-6.7H16.8V58.4z M18.8,54.3v-1.6h7.4v1.6H18.8z M26.2,55.2v1.7h-7.4v-1.7
			H26.2z"/>
		<path fill="#3E3A39" d="M25.1,46.3h4.7v-0.9H25c0.3-0.2,0.8-0.5,1.9-1.5c0.3-0.1,0.5-0.1,0.5-0.3c0-0.1-0.2-0.2-0.3-0.2l-1.8-0.7
			l0,0.1c-0.2,0.6-0.9,1.6-1.3,2.1l-0.1,0.1l0.9,0.5H20l1.5-0.9l-0.1-0.1c-0.8-0.7-2.5-1.7-2.7-1.8l0,0l-0.9,0.7l0.1,0.1
			c0.8,0.9,1.3,1.6,1.6,2h-4.3v0.9h4.6V50h-1.9l1.5-1.1l0.1,0l0-0.1c-0.6-0.9-1.8-2-2.3-2.4l0,0L16.3,47l0,0.1
			c0.7,0.9,0.9,1.4,1.5,2.9l0,0.1h-3.6v0.9h16.3V50h-5.5V46.3z M23.3,46.3V50h-1.6v-3.7H23.3z"/>
		<path fill="#3E3A39" d="M51,55.6v-0.9h-3v-1.8h2.3V52h-2.3v-1.7h2.3v-0.9h-2.3v-1.7h2.9v-0.9h-3.1c0.3-0.4,1.3-1.4,1.3-1.5
			c0-0.1-0.1-0.2-0.2-0.2l-1.6-0.5l-0.1,0l0,0.1c-0.2,1-0.4,1.4-0.6,2.2h-2.1c0.4-0.7,0.6-0.9,0.8-1.2c0.1-0.1,0.2-0.2,0.2-0.3
			c0-0.2-0.1-0.2-0.2-0.3l-1.7-0.5l0,0.1c-0.3,1.9-1.4,3.5-2.4,4.9l0,0.1l0.6,0.6l0,0c0.3-0.3,0.5-0.5,1-1v6.5H51z M44.3,49.5v-1.7
			h1.8v1.7H44.3z M44.3,52v-1.7h1.8V52H44.3z M44.3,54.7v-1.8h1.8v1.8H44.3z"/>
		<path fill="#3E3A39" d="M37.8,49.2L37.8,49.2c1.3,1.2,1.7,1.8,2.1,2.3l0,0.1l1.2-1.2l0.1-0.1l-0.1,0c-0.7-0.6-1.4-1-2.6-1.7l0,0
			L37.8,49.2v-4.8h13.4v-0.9H35.8v14.8h1.9v-0.7h13.7v-0.9H37.8V49.2z"/>
		<path fill="#3E3A39" d="M41.8,46.5c-1.1-0.9-2.5-1.5-2.7-1.7l0,0l-0.6,0.6l0.1,0c0.5,0.4,1.3,1.2,2.1,2.2l0,0.1L41.8,46.5
			L41.8,46.5z"/>
		<path fill="#3E3A39" d="M41.3,50.8c-0.4,0.7-1.9,3.1-3.1,4.2l-0.1,0.1l1.2,0.9c0.1,0.1,0.2,0.1,0.3,0.1c0.2,0,0.2-0.1,0.2-0.4l0,0
			c0.7-1,2-3.3,2.3-4.2l0,0L41.3,50.8L41.3,50.8z"/>
		<path fill="#3E3A39" d="M67.7,52.6L67.7,52.6c-0.1,0.4-0.5,1.7-1.8,3.5l0,0.1l0.8,0.5l0,0l0,0c0.8-0.6,2.1-1.9,2.7-2.6l0,0
			c0.3-0.2,0.3-0.2,0.3-0.3c0-0.1-0.1-0.2-0.2-0.2L67.7,52.6z"/>
		<path fill="#3E3A39" d="M65.7,42.8L65.7,42.8l-2.5,0l0,0c-1.2,2.5-3,4.6-7.3,6.6l-0.1,0l0.7,0.7l0,0l0,0c1.5-0.5,2.8-1.1,3.8-1.8
			v0.9h3v2.2h-5.3v0.9h5.3v4.5h-6.9v0.9h15.7v-0.9h-6.8v-4.5h5.2v-0.9h-5.2v-2.2h3.1v-0.8c1.1,0.7,2.3,1.2,3.7,1.8l0,0l0.7-0.8
			l-0.1,0C70.1,48.2,67.4,46.6,65.7,42.8z M60.4,48.3c2-1.2,3.2-2.5,4-3.5c1.3,1.5,2.6,2.6,4,3.5H60.4z"/>
		<path fill="#3E3A39" d="M60.9,56.8l1.9-1l0-0.1c-1.2-1.6-2.7-2.8-2.9-2.9l0,0l-0.8,0.6l0,0.1c1.2,1.7,1.6,2.7,1.8,3.2L60.9,56.8z"
			/>
		<path fill="#3E3A39" d="M92.2,53.3L92.2,53.3l-0.9,0.2l0,0.1c0.2,0.8,0.3,1.1,0.5,1.9c-0.2,0.1-0.8,0.2-1.1,0.3v-3h2.3v-6.9h-2.3
			v-2.3c0.1-0.2,0.2-0.3,0.2-0.5c0-0.2-0.1-0.3-0.4-0.3l-1.8-0.1l0,0.1c0.1,0.4,0.1,0.6,0.1,1.1v1.9h-2.3v6.9h2.3v3.4
			c-1.2,0.3-1.8,0.4-2.5,0.5l-0.1,0l0.5,1.3c0,0.1,0.2,0.2,0.3,0.2c0.1,0,0.3-0.1,0.4-0.3c1.6-0.5,3.1-1.1,4.5-1.7
			c0.1,0.6,0.2,1.2,0.2,1.5c0,0.1,0,0.2,0,0.2l0,0.1l1.7-0.8l0-0.1C93.5,56.4,93.1,55.2,92.2,53.3z M90.6,51.9v-5.1h0.7v5.1H90.6z
			 M88.8,46.8v5.1h-0.7v-5.1H88.8z"/>
		<path fill="#3E3A39" d="M77.6,58.5h1.7v-4.9l0.4,0.4l0,0c1.3-1,1.6-2.4,1.7-3.1h0.4v1.5c0,1.1,0.2,1.2,1.3,1.2h1V57
			c0,0.5,0,0.5-0.2,0.5c-0.2,0-0.7,0-1.2-0.1l-0.1,0l0.4,1h1.4c1.4,0,1.4-0.3,1.4-1.4v-7h-8.3V58.5z M84.2,50.8v1.7h-0.5
			c-0.5,0-0.5,0-0.5-0.4v-1.3H84.2z M80.2,50.8c-0.1,0.9-0.5,1.8-0.9,2.2v-2.2H80.2z"/>
		<polygon fill="#3E3A39" points="84.1,54 79.5,54 79.5,54.9 80.8,54.9 80.8,57.8 82.5,57.8 82.5,54.9 84.1,54.9 		"/>
		<rect x="77" y="43.5" fill="#3E3A39" width="9.3" height="0.9"/>
		<path fill="#3E3A39" d="M85.3,48.9v-3.5h-7v3.5H85.3z M83.5,46.3V48h-3.4v-1.7H83.5z"/>
		<path fill="#3E3A39" d="M108.2,51.6L108.2,51.6l1.3-1.5l0,0c-0.7-0.7-1.2-1.1-3-2.3l-0.1,0l-0.5,0.7l0,0l0,0
			C106.5,49.2,107.7,50.6,108.2,51.6z"/>
		<path fill="#3E3A39" d="M108.4,47.6L108.4,47.6l1.3-1.3l0,0l0,0c-1.1-1.1-2.5-1.8-3-2.1l-0.1,0l-0.5,0.7l0,0
			C107.1,45.6,107.5,46.3,108.4,47.6z"/>
		<path fill="#3E3A39" d="M105.5,52.4L105.5,52.4c-1.6-1.7-2.3-3.5-2.5-4V48h2.2v-0.9h-2.2v-2.5l0.1,0c0.3,0,0.9-0.1,1.7-0.2
			c0.2,0.1,0.3,0.1,0.4,0.1c0.2,0,0.2-0.1,0.2-0.2c0-0.1,0-0.2-0.1-0.3l-1-1.2l-0.1,0c-1.4,0.9-5.1,1.1-6.2,1.2l-0.1,0l0.4,0.9l0,0
			h0c0.8,0,1.7,0,2.7-0.1v2.3h-3V48h2.9c-0.6,2.4-1.7,4.6-3.3,6.2l0,0l0.6,0.7l0.1,0c1-0.9,2-1.8,2.8-3.2v6.7h1.9v-7.2
			c0.4,0.5,0.9,1.1,1.8,1.9l0.1,0L105.5,52.4z"/>
		<path fill="#3E3A39" d="M112.3,51.6v-8c0.1-0.1,0.2-0.3,0.2-0.4c0-0.2-0.2-0.2-0.3-0.2c0,0,0,0,0,0l-1.8-0.1l-0.1,0l0,0.1
			c0,0.2,0.1,0.4,0.1,1v8.2l-5.4,1.6l-0.1,0l0.3,0.9l5.1-1.5v5.3h1.9v-5.9l2.4-0.7l-0.3-0.8L112.3,51.6z"/>
		<path fill="#3E3A39" d="M125.3,50.7l-0.1-1l-0.1,0c-0.8,0.4-1,0.5-1.7,0.8l-0.1,0v-3.3h1.8v-0.9h-1.8v-2.9
			c0.1-0.1,0.1-0.3,0.1-0.4c0-0.1-0.1-0.2-0.3-0.2l-1.8-0.1l0,0.1c0.1,0.4,0.1,0.8,0.1,1.2v2.3h-2.4v0.9h2.4v4.2
			c-0.1,0-0.1,0-0.2,0.1c-0.5,0.2-1.6,0.6-2.4,0.8l-0.1,0l0.5,1.5c0,0.1,0.1,0.2,0.2,0.2c0.1,0,0.2-0.1,0.4-0.4
			c0.7-0.3,0.9-0.4,1.3-0.6l0.4-0.2v3.9c0,0.5,0,0.7-0.5,0.7c-0.3,0-0.7-0.1-1.2-0.1l-0.1,0l0.2,1.1h1.9c1.5,0,1.5-0.5,1.5-1.6v-4.9
			C123.9,51.6,124.6,51.2,125.3,50.7L125.3,50.7z"/>
		<path fill="#3E3A39" d="M135.6,57.5c-1.2-0.4-2.8-0.9-4.1-2.1c1.2-1.3,2.6-3.2,3-6.2l0-0.1h-3.3v-2.8h4.2v-0.9h-4.2v-1.9l0,0
			c0.1-0.1,0.2-0.2,0.2-0.4c0-0.1-0.1-0.2-0.3-0.2l-2-0.1l0,0.2c0.1,0.2,0.1,0.6,0.1,1v1.5h-3.9v0.9h3.9v2.8h-3.4v0.9h6.4
			c-0.3,1.5-0.9,2.9-1.9,4.2c-0.8-1.1-1.4-2.4-1.6-3.8l0-0.1l-1.9,0.5l0,0.1c0.4,2.3,1.8,3.9,2.3,4.4c-0.8,0.6-2.4,1.7-4.9,2.2
			l-0.1,0l0.5,0.8l0,0c2.9-0.6,4.7-1.6,5.5-2.2c0.6,0.5,2.2,1.5,4.7,2.1l0,0L135.6,57.5L135.6,57.5z"/>
	</g>
	<g>
		<g>
			<rect x="14.2" y="2.5" fill="#CF391A" width="5.9" height="5.6"/>
			<rect x="14.3" y="12.2" fill="#083A6E" width="5.7" height="22.5"/>
		</g>
		<polygon fill="#083A6E" points="50.4,34.7 56.4,34.7 56.4,21.9 70.6,21.9 70.6,16.7 56.4,16.7 56.4,7.1 72.7,7.1 72.7,1.9 
			50.4,1.9 		"/>
		<rect x="76.2" y="1.5" fill="#083A6E" width="5.7" height="33.2"/>
		<path fill="#083A6E" d="M102.7,23.7c0,3.6-2,6.1-5,6.1c-3,0-5.1-2.4-5.1-6.1V11.5H87V24c0,6.4,4.3,10.6,10.7,10.6
			c6.4,0,10.7-4.3,10.7-10.6V11.5h-5.7V23.7z"/>
		<path fill="#083A6E" d="M35.4,11.5c-6.4,0-10.7,4.3-10.7,10.6v12.6h5.7V22.4c0-3.6,2.1-6.1,5.1-6.1s5,2.4,5,6.1v12.2H46V22.1
			C46,15.7,41.8,11.5,35.4,11.5z"/>
		<polygon fill="#083A6E" points="135.8,12.2 128.9,12.2 124,19.4 119.1,12.2 112.3,12.2 120.2,23.3 112.2,34.7 118.8,34.7 
			124.1,27.1 129.2,34.7 135.8,34.7 127.8,23.4 		"/>
	</g>
</g>
<g>
</g>
<g>
</g>
<g>
</g>
<g>
</g>
<g>
</g>
<g>
</g>
</svg>
