<?xml version="1.0"?>
<svg xmlns="http://www.w3.org/2000/svg" xmlns:xlink="http://www.w3.org/1999/xlink" version="1.1" x="0px" y="0px" viewBox="0 0 58 58" style="enable-background:new 0 0 58 58;" xml:space="preserve" width="512px" height="512px" class=""><g><g id="_x31_3-Info_Box">
	<path style="fill:#020252" d="M26.64,0.094C12.722,1.194,1.399,12.368,0.125,26.271c-0.537,5.864,0.678,11.405,3.176,16.168   c0.908,1.731,1.023,3.768,0.35,5.603L0,58l10.55-3.517c1.747-0.582,3.664-0.472,5.304,0.365c4.77,2.434,10.299,3.589,16.144,3.001   c13.793-1.389,24.814-12.666,25.908-26.485C59.322,13.488,44.515-1.32,26.64,0.094z" data-original="#EBBA16" class="" data-old_color="#EBBA16"/>
	<circle style="fill:#FFFFFF" cx="29" cy="29" r="24" data-original="#FFFFFF" class="" data-old_color="#FFFFFF"/>
	<circle style="fill:#FFD628" cx="29" cy="15" r="3" data-original="#E83132" class="active-path" data-old_color="#E83132"/>
	<path style="fill:#FFD628" d="M29,46L29,46c-1.657,0-3-1.343-3-3V26c0-1.657,1.343-3,3-3h0c1.657,0,3,1.343,3,3v17   C32,44.657,30.657,46,29,46z" data-original="#E83132" class="active-path" data-old_color="#E83132"/>
</g></g> </svg>
