<svg xmlns="http://www.w3.org/2000/svg" width="80" height="80" viewBox="0 0 80 80">
  <g id="组_733" data-name="组 733" transform="translate(-203 -2115)">
    <g id="组_92" data-name="组 92" transform="translate(-929 -121)">
      <g id="椭圆_12" data-name="椭圆 12" transform="translate(1132 2236)" fill="none" stroke="#153a71" stroke-width="2">
        <circle cx="40" cy="40" r="40" stroke="none"/>
        <circle cx="40" cy="40" r="39" fill="none"/>
      </g>
    </g>
    <g id="组_95" data-name="组 95" transform="translate(193 2111)">
      <path id="路径_83" data-name="路径 83" d="M224,48h1.733v1.733H224Z" transform="translate(-178.333 -28.533)" fill="#153a71"/>
      <path id="路径_84" data-name="路径 84" d="M272,48h1.733v1.733H272Z" transform="translate(-221.133 -28.533)" fill="#153a71"/>
      <path id="路径_85" data-name="路径 85" d="M227.465,83.465a.867.867,0,0,0,.481-.146l2.6-1.733a.867.867,0,0,0-.962-1.442l-2.119,1.414-2.119-1.413a.867.867,0,1,0-.962,1.442l2.6,1.733A.867.867,0,0,0,227.465,83.465Z" transform="translate(-178.332 -57.065)" fill="#153a71"/>
      <path id="路径_86" data-name="路径 86" d="M366.067,152.867a.867.867,0,1,0-1.733,0,3.467,3.467,0,0,1-3.467,3.467.867.867,0,0,0,0,1.733,3.467,3.467,0,0,1,3.467,3.467.867.867,0,1,0,1.733,0,3.467,3.467,0,0,1,3.467-3.467.867.867,0,1,0,0-1.733A3.467,3.467,0,0,1,366.067,152.867Zm-.867,5.8a5.238,5.238,0,0,0-1.465-1.465,5.238,5.238,0,0,0,1.465-1.465,5.238,5.238,0,0,0,1.465,1.465A5.238,5.238,0,0,0,365.2,158.665Z" transform="translate(-299.6 -121.267)" fill="#153a71"/>
      <path id="路径_87" data-name="路径 87" d="M32.867,198.067a3.467,3.467,0,0,1,3.467,3.467.867.867,0,1,0,1.733,0,3.467,3.467,0,0,1,3.467-3.467.867.867,0,0,0,0-1.733,3.467,3.467,0,0,1-3.467-3.467.867.867,0,1,0-1.733,0,3.467,3.467,0,0,1-3.467,3.467.867.867,0,0,0,0,1.733Zm4.333-2.331a5.238,5.238,0,0,0,1.465,1.465,5.238,5.238,0,0,0-1.465,1.465,5.238,5.238,0,0,0-1.465-1.465A5.238,5.238,0,0,0,37.2,195.735Z" transform="translate(-7.133 -156.933)" fill="#153a71"/>
      <path id="路径_88" data-name="路径 88" d="M74.267,50.667h-13V46.333a.867.867,0,0,0-.867-.867H56.067V35.508L65.2,28.864,67.976,27.2a2.8,2.8,0,1,0-2.88-4.8h0l-2.519,1.511-6.51,3.617V16H42.2V27.527l-6.494-3.608L33.168,22.4a2.8,2.8,0,1,0-2.88,4.8l2.768,1.661,9.143,6.65v9.959H39.6a.867.867,0,0,0-.867.867v4.333h-13a.867.867,0,0,0-.867.867v4.333a.867.867,0,0,0-.867.867v10.4a.867.867,0,0,0,.867.867H73.4a.867.867,0,0,0,.867-.867V57.6a.867.867,0,0,0,.867-.867v-5.2a.867.867,0,0,0-.867-.867Zm-.867,5.2H61.267V52.4H63v1.733h1.733V52.4h1.733v1.733H68.2V52.4h1.733v1.733h1.733V52.4H73.4Zm-14.733,5.2H39.6V57.6h3.467v1.733H44.8V57.6h1.733v1.733h1.733V57.6H50v1.733h1.733V57.6h1.733v1.733H55.2V57.6h3.467Zm-32.933,0V57.6h1.733v1.733H29.2V57.6h1.733v1.733h1.733V57.6H34.4v1.733h1.733V57.6h1.733v3.467ZM40.467,52.4H42.2v1.733h1.733V52.4h1.733v1.733H47.4V52.4h1.733v1.733h1.733V52.4H52.6v1.733h1.733V52.4h1.733v1.733H57.8V52.4h1.733v3.467H40.467Zm15.6-19.035V29.51l6.562-3.646,1,2Zm9.924-9.478a1.065,1.065,0,1,1,1.1,1.827l-1.993,1.2L64.141,25ZM43.933,17.733h10.4v10.4h-10.4Zm5.2,17.474.82,2.46-.82,2.46-.82-2.46Zm0-4.185-.867-1.155H50Zm-18.359-6.7a1.058,1.058,0,0,1,.656-.547,1.082,1.082,0,0,1,.3-.043,1.055,1.055,0,0,1,.545.153L34.132,25l-.953,1.912-1.993-1.2A1.071,1.071,0,0,1,30.775,24.32Zm3.862,3.543,1-2L42.2,29.51v3.855Zm9.3,2H46.1l2.068,2.757L46.578,37.39a.847.847,0,0,0,0,.548l1.733,5.2a.867.867,0,0,0,1.647,0l1.733-5.2a.847.847,0,0,0,0-.548L50.1,32.624l2.064-2.757h2.167v15.6h-10.4ZM40.467,47.2H42.2v1.733h1.733V47.2h1.733v1.733H47.4V47.2h1.733v1.733h1.733V47.2H52.6v1.733h1.733V47.2h1.733v1.733H57.8V47.2h1.733v3.467H40.467ZM26.6,52.4h1.733v1.733h1.733V52.4H31.8v1.733h1.733V52.4h1.733v1.733H37V52.4h1.733v3.467H26.6Zm-.867,10.4h1.733v1.733H29.2V62.8h1.733v1.733h1.733V62.8H34.4v1.733h1.733V62.8h1.733v3.467H25.733Zm13.867,0h3.467v1.733H44.8V62.8h1.733v1.733h1.733V62.8H50v1.733h1.733V62.8h1.733v1.733H55.2V62.8h3.467v3.467H39.6Zm32.933,3.467H60.4V62.8h1.733v1.733h1.733V62.8H65.6v1.733h1.733V62.8h1.733v1.733H70.8V62.8h1.733Zm0-5.2H60.4V57.6h1.733v1.733h1.733V57.6H65.6v1.733h1.733V57.6h1.733v1.733H70.8V57.6h1.733Z" transform="translate(0)" fill="#153a71"/>
      <path id="路径_89" data-name="路径 89" d="M136,200h1.733v1.733H136Z" transform="translate(-99.867 -164.067)" fill="#153a71"/>
      <path id="路径_90" data-name="路径 90" d="M344,240h1.733v1.733H344Z" transform="translate(-285.333 -199.733)" fill="#153a71"/>
    </g>
  </g>
</svg>
