<svg xmlns="http://www.w3.org/2000/svg" width="80" height="80" viewBox="0 0 80 80">
  <g id="组_732" data-name="组 732" transform="translate(-203 -1915)">
    <g id="组_91" data-name="组 91" transform="translate(-929 -321)">
      <g id="椭圆_12" data-name="椭圆 12" transform="translate(1132 2236)" fill="none" stroke="#153a71" stroke-width="2">
        <circle cx="40" cy="40" r="40" stroke="none"/>
        <circle cx="40" cy="40" r="39" fill="none"/>
      </g>
    </g>
    <g id="组_94" data-name="组 94" transform="translate(-1554.66 1891.421)">
      <path id="路径_81" data-name="路径 81" d="M1777.229,87.912a1.164,1.164,0,0,0-.193-.082,1.442,1.442,0,0,1-.941-2.492,3.634,3.634,0,0,1,.575-.641,32.282,32.282,0,0,0,8.453-12.107,65.816,65.816,0,0,0,3.433-10.323,1.079,1.079,0,0,0-.151-.772c-1.384-2.04-2.8-4.056-4.193-6.093a2.218,2.218,0,0,1,1.239-3.52,2.195,2.195,0,0,1,2.393.96c.689.965,1.357,1.945,2.18,2.924.372-2.645.744-5.29,1.128-8.02h-.695c-1.441,0-2.881-.013-4.322,0a1.9,1.9,0,0,1-1.981-1.2,1.927,1.927,0,0,1,.545-2.211q5.542-5.536,11.083-11.072a1.9,1.9,0,0,1,2.91-.015c1.206,1.187,2.4,2.39,3.6,3.586a1.987,1.987,0,0,1,.183.2.8.8,0,0,1-.042,1.122.782.782,0,0,1-1.081.017,3.617,3.617,0,0,1-.354-.333c-1.108-1.108-2.222-2.209-3.316-3.33-.306-.313-.528-.331-.846-.01q-5.423,5.463-10.859,10.913a2.549,2.549,0,0,0-.316.526,2.209,2.209,0,0,0,.577.168c1.765.014,3.53.011,5.294.01,1.087,0,1.384.3,1.235,1.365-.462,3.313-.952,6.621-1.413,9.934a1.079,1.079,0,0,0,.154.685c.634.961,1.3,1.9,1.955,2.848a2.221,2.221,0,0,0,1.912,1.03c1.243,0,2.485.017,3.727.007a2.251,2.251,0,0,0,1.952-1.059c.633-.941,1.3-1.858,1.916-2.809a1.261,1.261,0,0,0,.172-.792c-.457-3.331-.943-6.658-1.41-9.987-.124-.885.191-1.22,1.108-1.22,1.8,0,3.6.006,5.4,0a2.526,2.526,0,0,0,.594-.15,2.053,2.053,0,0,0-.275-.532c-1.413-1.439-2.84-2.864-4.261-4.294a3.128,3.128,0,0,1-.364-.4.792.792,0,0,1,1.09-1.125,1.447,1.447,0,0,1,.245.209c1.529,1.526,3.071,3.041,4.581,4.587a1.886,1.886,0,0,1-.621,3.207,3.122,3.122,0,0,1-1.009.119c-1.583.012-3.165.005-4.873.005l1.132,8.1c.164-.183.26-.272.334-.376.649-.908,1.276-1.831,1.945-2.724a2.189,2.189,0,0,1,3.963,1.465,2.544,2.544,0,0,1-.438,1.132q-2.013,3.005-4.084,5.971a1.293,1.293,0,0,0-.229,1.187,58.39,58.39,0,0,0,5.755,14.72,27.548,27.548,0,0,0,6.527,7.84,3.032,3.032,0,0,1,.785.941,1.2,1.2,0,0,1-.826,1.8c-.117.033-.232.076-.347.115h-29.719c-.38-.239-.716-.506-.566-1.031.156-.548.588-.615,1.068-.6.287.008.576,0,.864,0h2.8a2.551,2.551,0,0,0,.035-.273q-.01-8.232-.025-16.464a9.025,9.025,0,0,0-2.426-5.815c-.055.172-.1.306-.141.443a65.892,65.892,0,0,1-3.542,9.937,33.468,33.468,0,0,1-8.236,11.615c-.164.143-.309.309-.549.552h.743c2.07,0,4.139,0,6.209.009.707,0,1.142.474.928,1.035-.087.229-.335.4-.51.591Zm20.839-1.623c.54,0,1.021,0,1.5,0,.945,0,.98-.033.98-.964,0-5.184.012-10.369,0-15.553a9.719,9.719,0,0,1,1.808-5.764c2.046-2.916,4.062-5.854,6.087-8.784a3.651,3.651,0,0,0,.557-.917.831.831,0,0,0-.181-.726c-.124-.109-.52-.046-.7.078a2.715,2.715,0,0,0-.566.713q-2.584,3.726-5.161,7.456a3.88,3.88,0,0,1-3.327,1.783c-1.206.009-2.413,0-3.619,0a3.887,3.887,0,0,1-3.366-1.808q-2.188-3.179-4.389-6.349c-.4-.577-.777-1.172-1.214-1.718a.842.842,0,0,0-.645-.243.615.615,0,0,0-.417.413.979.979,0,0,0,.2.625c2.123,3.1,4.227,6.22,6.4,9.289a10.448,10.448,0,0,1,1.944,6.272c-.016,3.816,0,7.633,0,11.449,0,1.368,0,2.736,0,4.1,0,.311.039.615.422.629.675.025,1.352.007,2.065.007,0-1.526,0-2.981,0-4.436,0-2.052,0-4.1.005-6.156,0-.6.309-.955.789-.96s.8.351.828.939c.008.144,0,.288,0,.432q0,4.752,0,9.5Zm4.125-.034h14.827l.081-.109c-.126-.09-.259-.171-.378-.27a27.17,27.17,0,0,1-5.253-5.98,52.232,52.232,0,0,1-6.249-14.09c-.2-.674-.4-1.351-.609-2.077a9.288,9.288,0,0,0-2.443,6.25c.042,5.291,0,10.582,0,15.873C1802.167,85.975,1802.183,86.1,1802.193,86.255Z" transform="translate(0)" fill="#153a71"/>
      <path id="路径_82" data-name="路径 82" d="M1906.656,176.869a4.465,4.465,0,1,1-4.462,4.413A4.513,4.513,0,0,1,1906.656,176.869Zm-.011,7.305a2.842,2.842,0,1,0-2.829-2.854A2.834,2.834,0,0,0,1906.645,184.174Z" transform="translate(-109.414 -124.767)" fill="#153a71"/>
    </g>
  </g>
</svg>
