<svg xmlns="http://www.w3.org/2000/svg" width="80" height="80" viewBox="0 0 80 80">
  <g id="组_731" data-name="组 731" transform="translate(-203 -1715)">
    <g id="组_90" data-name="组 90" transform="translate(-929 -521)">
      <g id="椭圆_12" data-name="椭圆 12" transform="translate(1132 2236)" fill="none" stroke="#153a71" stroke-width="2">
        <circle cx="40" cy="40" r="40" stroke="none"/>
        <circle cx="40" cy="40" r="39" fill="none"/>
      </g>
    </g>
    <g id="组_93" data-name="组 93" transform="translate(-862.385 1755.81)">
      <path id="路径_71" data-name="路径 71" d="M1099.672,145.242c-.832,0-1.609-.012-2.385.007-.251.006-.271-.16-.334-.313a4.673,4.673,0,0,0-4.726-2.942,13.117,13.117,0,0,0-1.612.331v-.413q0-5.188,0-10.375c0-.123.043-.277-.014-.364-.087-.134-.245-.306-.372-.305s-.284.176-.363.312c-.059.1-.017.265-.017.4,0,3.026.006,6.052,0,9.079a1.724,1.724,0,0,1-2.522,1.619,1.7,1.7,0,0,1-.928-1.386,3.059,3.059,0,0,1-.014-.333q0-5.688,0-11.376a2.466,2.466,0,0,1,2.133-2.572,4.424,4.424,0,0,1,.665-.03c3.471-.011,6.942,0,10.412-.036,1.778-.018,3.555-.111,5.332-.183a1.151,1.151,0,0,0,.544-.175c1.594-1.014,3.175-2.047,4.769-3.061a1.951,1.951,0,0,1,2.2,3.224c-1.869,1.246-3.764,2.455-5.666,3.651a2.017,2.017,0,0,1-.951.254c-1.653.074-3.308.116-4.962.166-.892.027-1.19.329-1.19,1.225q0,6.5,0,13.006Z" transform="translate(0 -135.746)" fill="#153a71"/>
      <path id="路径_72" data-name="路径 72" d="M1104.815,3.923V1.705h19.612a1.719,1.719,0,0,0,1.95-1.959q0-9.746,0-19.491a1.675,1.675,0,0,0-1.836-1.84q-15.489,0-30.978,0a1.667,1.667,0,0,0-1.8,1.805q-.006,4.132,0,8.263v.386l-2.055.7c0-.039-.015-.154-.015-.27q0-4.632,0-9.264a3.651,3.651,0,0,1,3.834-3.846q15.526,0,31.052,0a3.646,3.646,0,0,1,3.867,3.883q0,9.987,0,19.973a3.66,3.66,0,0,1-3.88,3.876h-19.752Z" transform="translate(-3.062 0)" fill="#153a71"/>
      <path id="路径_73" data-name="路径 73" d="M1274.979,511.68q-2.463,0-4.926,0c-.764,0-1.11-.341-1.107-1.106,0-1.074-.035-2.152.047-3.22a3.678,3.678,0,0,1,3.447-3.383c1.7-.078,3.409-.08,5.108,0a3.736,3.736,0,0,1,3.445,3.669c.016,1.012.008,2.025,0,3.037a.907.907,0,0,1-1.016,1Q1277.479,511.684,1274.979,511.68Z" transform="translate(-169.024 -488.607)" fill="#153a71"/>
      <path id="路径_74" data-name="路径 74" d="M1094.7,511.69q-2.463,0-4.927,0c-.726,0-1.08-.343-1.073-1.059a33.58,33.58,0,0,1,.083-3.512,3.61,3.61,0,0,1,3.357-3.133c1.712-.08,3.434-.087,5.145,0a3.748,3.748,0,0,1,3.463,3.7c.016,1,.008,2,0,3a.918.918,0,0,1-1.014,1.008C1098.057,511.693,1096.378,511.69,1094.7,511.69Z" transform="translate(-2.138 -488.617)" fill="#153a71"/>
      <path id="路径_75" data-name="路径 75" d="M1455.468,511.61q-2.463,0-4.926,0c-.749,0-1.085-.335-1.087-1.081,0-.926-.005-1.852,0-2.778a3.779,3.779,0,0,1,3.714-3.875c1.529-.054,3.063-.054,4.592,0a3.784,3.784,0,0,1,3.737,3.893c.006.914,0,1.827,0,2.741,0,.771-.333,1.1-1.107,1.1h-4.926Z" transform="translate(-336.157 -488.537)" fill="#153a71"/>
      <path id="路径_76" data-name="路径 76" d="M1157.187,67.388a3.568,3.568,0,1,1-3.554,3.593A3.552,3.552,0,0,1,1157.187,67.388Z" transform="translate(-62.264 -84.439)" fill="#153a71"/>
      <path id="路径_77" data-name="路径 77" d="M1487.566,398.433a3.449,3.449,0,1,1-3.473,3.413A3.443,3.443,0,0,1,1487.566,398.433Z" transform="translate(-368.229 -390.946)" fill="#153a71"/>
      <path id="路径_78" data-name="路径 78" d="M1307.214,398.439a3.449,3.449,0,1,1-3.444,3.439A3.427,3.427,0,0,1,1307.214,398.439Z" transform="translate(-201.273 -390.952)" fill="#153a71"/>
      <path id="路径_79" data-name="路径 79" d="M1123.523,401.9a3.448,3.448,0,1,1,3.477,3.441A3.428,3.428,0,0,1,1123.523,401.9Z" transform="translate(-34.385 -390.951)" fill="#153a71"/>
      <path id="路径_80" data-name="路径 80" d="M1476.427,274.59c-.777,0-1.553,0-2.33,0-.426,0-.519-.1-.521-.523,0-.444.006-.888,0-1.331-.006-.31.135-.459.441-.459q2.385,0,4.771,0a.394.394,0,0,1,.452.452q0,.7,0,1.405c0,.327-.156.464-.48.461C1477.98,274.584,1477.2,274.59,1476.427,274.59Z" transform="translate(-358.489 -274.138)" fill="#153a71"/>
    </g>
  </g>
</svg>
