<svg xmlns="http://www.w3.org/2000/svg" width="81.91" height="80.833" viewBox="0 0 81.91 80.833">
  <g id="组_699" data-name="组 699" transform="translate(0 55.931) rotate(-60)">
    <g id="组_697" data-name="组 697">
      <path id="路径_1527" data-name="路径 1527" d="M418.844,301.047c.092-.458.286-.817,1.141-1.191,1.764-.777,5.649.041,5.926.065a60.175,60.175,0,0,1,8.728,2.434,105,105,0,0,1,12.29,5.474,84.926,84.926,0,0,1,11.955,7.456,75.9,75.9,0,0,1,10.4,9.529,66,66,0,0,1,5.285,6.6,74.032,74.032,0,0,1,8.829,17.416.358.358,0,0,1-.656.285,81.554,81.554,0,0,0-10.845-15.623c-1.769-2.035-3.6-4-5.512-5.9a95.978,95.978,0,0,0-10.206-8.694,97.045,97.045,0,0,0-11.26-7.3c-3.123-1.75-6.339-3.422-9.643-4.888a62.006,62.006,0,0,0-10.074-3.566l-5.99-1.759C418.958,301.244,418.816,301.176,418.844,301.047Z" transform="translate(-418.84 -299.521)" fill="#909090" fill-rule="evenodd"/>
    </g>
    <g id="组_698" data-name="组 698" transform="translate(42.201 26.18)">
      <path id="路径_1528" data-name="路径 1528" d="M436.808,322.138a2.1,2.1,0,0,1,2.478-2.155.52.52,0,0,1,.213.076,3.87,3.87,0,0,1,.64,1.391,10.769,10.769,0,0,1,.474,1.987,36.622,36.622,0,0,1,.294,4.516c.145,3.948.95,8.616.98,12.973a24.894,24.894,0,0,1-.61,6.012,3.962,3.962,0,0,1-.485,1.162,2.717,2.717,0,0,1-.726.754,2.616,2.616,0,0,1-2.266.342,8.825,8.825,0,0,1-2.437-1.571c-1.772-1.41-3.584-2.726-5.39-4.023-1.7-1.223-3.446-2.373-5.163-3.576-2.593-1.818-5.094-3.691-7.847-5.407a.844.844,0,1,1,.736-1.519,74.622,74.622,0,0,1,10.7,4.588,72.707,72.707,0,0,1,9.16,6.3,25.437,25.437,0,0,0,.19-3.07c.035-4.314-.68-8.949-.755-12.856Z" transform="translate(-416.485 -319.94)" fill="#909090" fill-rule="evenodd"/>
    </g>
  </g>
</svg>
