<?xml version="1.0" encoding="utf-8"?>
<!-- Generator: Adobe Illustrator 24.2.1, SVG Export Plug-In . SVG Version: 6.00 Build 0)  -->
<svg version="1.1" id="圖層_1" xmlns="http://www.w3.org/2000/svg" xmlns:xlink="http://www.w3.org/1999/xlink" x="0px" y="0px"
	 viewBox="0 0 682 71" style="enable-background:new 0 0 682 71;" xml:space="preserve">
<style type="text/css">
	.st0{enable-background:new    ;}
</style>
<g class="st0">
	<path d="M40.5,22.5V30l1-1.1c5.2,2.6,12.7,6.7,16.4,9.7l-4.2,5.2c-2.8-2.4-8.3-6-13.1-8.7v22.8h-6.1V22.5H17v-5.8h42.8v5.8H40.5z"
		/>
	<path d="M82.9,14.9c-1.1,3-2.3,6.1-3.7,9.1v34h-5.4V33.5c-1.1,1.5-2.1,2.9-3.2,4.1c-0.4-1.4-1.8-4.8-2.7-6.2
		c4-4.4,7.6-11.2,9.8-18.1L82.9,14.9z M112.2,15.7v41.9h-5.4v-2.4h-18V58h-5.2V15.7H112.2z M106.8,50.3V20.6h-18v29.7H106.8z
		 M99.9,30.6v4.1h4.6v12.9H91.2V34.8h4.3v-4.1h-5.5v-4.1h5.5v-4.9h4.4v4.9h5.8v4.1H99.9z M100.2,38.7h-4.9v5h4.9V38.7z"/>
	<path d="M136.1,43.2c-0.6-1.6-1.6-4-2.7-6.3V58h-5.2V38.6c-1.3,4.5-2.8,8.6-4.6,11.4c-0.5-1.6-1.8-4.2-2.6-5.7
		c2.7-3.8,5-10.6,6.2-16.4h-4.8v-5.3h5.7v-9.5h5.2v9.5h4.8v5.3h-4.8v1.5c1.2,1.6,5.1,8,6,9.4L136.1,43.2z M162,37.7
		c-0.3-0.6-0.7-1.2-1.2-1.9c-1.2,4-3,7.5-5.2,10.6c3.1,2.7,6.9,4.8,11.4,6.1c-1.3,1.2-3,3.6-3.8,5.1c-4.6-1.6-8.4-3.9-11.4-6.9
		c-3.2,3-7,5.4-11.5,7.3c-0.7-1.3-2.4-3.5-3.6-4.5c4.6-1.7,8.4-4.1,11.5-7.1c-2.2-3-3.8-6.4-5.3-10.1c-0.6,0.6-1.3,1.2-1.9,1.7
		c-0.9-1.1-2.7-2.6-3.9-3.6c3-2.3,6.1-6.2,8-9.4l5,2.3c-1.5,2.4-3.5,4.9-5.5,7.2l2.8-0.7c1.1,3,2.5,5.8,4.3,8.3
		c1.7-2.4,3-5.2,3.8-8.3l4.8,1.3c-1.7-2.4-4.2-5.2-6.4-7.3l3.3-2.7h-17.9v-5.2h10.8c-0.7-1.7-1.9-3.7-3-5.3l5-1.9
		c1.5,1.8,3,4.2,3.6,5.9l-3,1.3h13.1v5.2h-7.5c2.9,2.7,6.3,6.4,7.9,9L162,37.7z"/>
	<path d="M217.2,15v43.1h-5.6v-1.7h-30v1.7h-5.4V15H217.2z M211.7,51.2V20.2h-30v31.1H211.7z M198.7,44.7c-0.1,1.1-0.1,2.6,0,3.5
		c-8.2,2-9.6,2.5-10.4,3c-0.2-0.9-0.8-2.4-1.3-2.9c0.7-0.3,1.6-0.9,1.6-2.7v-1.7c-1.3,0.5-2.6,0.9-3.8,1.3c-0.6-0.8-1.9-2.4-2.7-3.2
		c3.1-0.6,6.4-1.6,9.1-2.9h-5.5v-6.9h22.1v6.9h-10.3c-1.3,1.1-3,2.1-4.8,3v4.1L198.7,44.7z M210,30.9h-26.7v-3.2H194v-1.9h-8.4v-3.1
		h8.4v-2h5.2v2h8.8v3.1h-8.8v1.9H210V30.9z M190.5,36.6h12.4v-2h-12.4V36.6z M210.5,41.8c-1.2,1-2.6,1.8-4,2.5
		c1.7,1.2,3.2,2.3,4.2,3.3l-3.6,2.2c-2.4-2.3-7.4-5.9-11.5-8.4l3.5-1.9c1.3,0.8,2.9,1.8,4.5,2.8c1.3-0.9,2.7-1.9,3.6-2.7L210.5,41.8
		z"/>
	<path d="M271.1,33.8v3.9h-43v-3.9h18.5v-1.7h-13.8v-3.5h13.8V27h-15.5v-3.7h15.5v-2h5.7v2h16.1V27h-16.1v1.6h14.5v3.5h-14.5v1.7
		H271.1z M236.9,19.7h-8.7v-4.3h8.7v-2.3h5.7v2.3h6.2v4.3h-6.2v2.4h-5.7V19.7z M265.5,53.1c0,2.4-0.6,3.5-2.4,4.1
		c-1.7,0.7-4.3,0.7-7.6,0.7c-0.3-1.3-1.1-2.9-1.7-4.1c2,0.1,4.4,0,5,0c0.7,0,1-0.2,1-0.8V52h-21.2c-0.8,2.4-2.1,4.6-4.5,6.3
		c-0.8-1.1-3-3.4-4.1-4.1c3.6-2.4,3.9-5.7,3.9-8.6v-6.3h31.6V53.1z M259.9,48.9v-1.5h-20.4c0,0.5-0.1,1-0.1,1.5H259.9z M239.6,43
		v1.4h20.3V43H239.6z M256.9,19.7h-6.5v-4.3h6.5v-2.3h5.7v2.3h8.3v4.3h-8.3v2.4h-5.7V19.7z"/>
	<path d="M304.1,44.6c-2,5.7-7.7,10.6-20.8,13.4c-0.6-1.2-2.2-3.5-3.5-4.8c10.8-2,15.7-5.1,17.9-8.7h-17v-5.3h4.8V28.1h13.8V24h5.9
		v4.2h14.5v11.2h4.4v5.3H304.1z M289.5,22.2h-7.9v-4.8h7.9v-4.1h5.8v4.1h6.1v4.8h-6.1v4.1h-5.8V22.2z M299.2,39.3c0-0.4,0-0.9,0-1.3
		v-4.9H291v6.2H299.2z M305.8,44.8c5.9,2.2,14.4,6,18.7,8.7l-2.9,4.7c-4.1-2.7-12.3-6.8-18.5-9.4L305.8,44.8z M309.8,22.2h-6.3v-4.8
		h6.3v-4.1h5.8v4.1h7.7v4.8h-7.7v3.9h-5.8V22.2z M305.1,33.1v5c0,0.4,0,0.8,0,1.2h8.8v-6.2H305.1z"/>
	<path d="M350.3,15.4c-1.2,2.9-2.7,5.9-4.5,8.8v33.7h-6V32.7c-1.6,2-3.3,3.8-5,5.4c-0.5-1.3-2.2-4.4-3.2-5.8
		c5.2-4.4,10.2-11.5,13.1-18.7L350.3,15.4z M363.5,32.7c1.3,10.7,3.9,17.8,7.7,18.2c1.1,0.1,1.7-2.3,2.1-7.6
		c1.1,1.2,3.6,2.7,4.7,3.3c-1.2,9.3-3.8,11.5-6.5,11.3c-8.1-0.8-11.9-9.8-13.6-24.4l-9.5,1.3l-0.8-5.5l9.7-1.3
		c-0.3-4.3-0.6-9-0.8-14.1h5.8c0.1,4.7,0.3,9.2,0.6,13.3l13.7-1.8l0.8,5.4L363.5,32.7z M372.1,24.2c-1.2-2.3-4.1-5.6-6.6-8.1
		l4.3-2.6c2.5,2.3,5.5,5.5,6.9,7.7L372.1,24.2z"/>
	<path d="M429.8,19.7v4.8h-43.5v-4.8H406c-0.8-1.7-2-3.7-3.1-5.3l5.8-1.4c1.6,2.1,3.3,4.8,4.1,6.8H429.8z M392.4,42.6H424v15.3h-5.9
		v-1.5H398V58h-5.6V42.6z M423.4,31.8H393v-4.5h30.5V31.8z M393,34.8h30.5v4.5H393V34.8z M398,47.3v4.3h20.1v-4.3H398z"/>
	<path d="M463.6,13.3c0,2-0.1,4.6-0.3,7.5c0.7,6.5,3.6,24.6,20.4,32c-1.8,1.4-3.4,3.3-4.2,4.9c-10.7-5.1-16-14.4-18.8-22.7
		c-2.6,8.4-7.7,17.1-17.7,23c-1-1.5-2.8-3.4-4.8-4.7c19.5-10.4,18.6-31.9,18.8-40H463.6z"/>
	<path d="M499.8,41.3c-1.1,4.7-2.8,9.7-4.8,12.9c-0.9-0.8-2.8-2.2-3.9-2.7c1.9-2.8,3.3-7,4.1-11.1L499.8,41.3z M513.8,23.7h-21.9v-5
		h9c-0.4-1.4-1.1-3.1-1.6-4.4l5.2-1.1c0.9,1.7,1.7,3.8,2.3,5.5h7.1V23.7z M506,39v13.5c0,2.3-0.4,3.6-1.9,4.4
		c-1.4,0.8-3.3,0.9-5.9,0.8c-0.2-1.4-0.9-3.4-1.6-4.7c1.5,0,3.1,0,3.6,0c0.5,0,0.7-0.1,0.7-0.6V39H494V26.1h18.1V39H506z
		 M498.9,34.6h8.1v-4h-8.1V34.6z M510.6,39.7c1.5,2.6,3,6.2,3.6,8.5l-4.2,2c-0.5-2.4-1.8-6-3.3-8.7L510.6,39.7z M530.8,52.9
		c0.3,0,0.7,0,0.8-0.2c0.2-0.1,0.4-0.5,0.5-1.4c0.1-0.8,0.2-2.8,0.2-5.3c1,1,2.9,1.9,4.4,2.4c0,2.3-0.3,4.8-0.6,5.9
		c-0.4,1.1-1,1.8-1.8,2.3c-0.8,0.4-2,0.6-2.9,0.6h-3c-1.2,0-2.5-0.4-3.3-1.1c-0.9-0.8-1.2-1.8-1.2-5.2v-11
		c-1.6,7.1-4.4,13.5-9.4,18.4c-0.9-1.2-2.5-2.7-3.9-3.6c6.5-6,8.7-14.8,9.6-24.1h-5.7v-5.1h6c0.2-4.1,0.1-8.2,0.2-12h5.3
		c0,3.9-0.1,8-0.3,12h10.1v5.1h-10.5c-0.1,0.8-0.2,1.6-0.3,2.4h3.7v18.2c0,0.9,0,1.3,0.2,1.5s0.4,0.2,0.7,0.2H530.8z M531.1,24.7
		c-0.9-2.1-3-5.3-4.8-7.6l3.7-2.2c1.9,2.2,4.1,5.3,5.1,7.3L531.1,24.7z"/>
	<path d="M569.8,51.8c1.2,0.1,2.5,0.1,3.8,0.1c2.7,0,11.9,0,15.3-0.1c-0.8,1.3-1.6,3.8-1.9,5.5h-13.7c-8.8,0-14.7-1.2-18.8-6.8
		c-1.7,3.2-3.9,5.7-6.7,7.6c-0.8-1.1-3-3.2-4.3-4c4.9-3,7.8-8.1,8.9-14.5l5.7,0.9c-0.3,1.5-0.7,3-1.1,4.4c1.5,3.3,3.8,5,6.9,6V38.6
		h-18.7v-5h42.3v5h-17.8v3.6h14.8v4.9h-14.8V51.8z M583,31.5h-33.4V14.8H583V31.5z M577.2,18.8h-22v2.4h22V18.8z M577.2,25h-22v2.5
		h22V25z"/>
	<path d="M612.1,15.1c-1.2,3.3-2.8,6.7-4.6,9.8v33H602V33.4c-1.1,1.4-2.2,2.7-3.2,3.9c-0.5-1.4-2.1-4.6-3.1-6
		c4.3-4.3,8.5-11.1,10.9-18L612.1,15.1z M629.1,27.1v24.6c0,2.7-0.5,4.3-2.2,5.3c-1.7,0.9-4,1.2-7.1,1.2c-0.2-1.7-1.1-4.2-2-5.8
		c2,0,4,0,4.7,0c0.6,0,0.9-0.2,0.9-0.8V27.1h-5.6c-1.3,2.8-2.9,5.3-4.5,7.3c-1-1-3.3-2.9-4.6-3.7c3.6-4.1,6.5-10.7,8.2-17.3l5.6,1.2
		c-0.6,2.4-1.4,4.8-2.3,7.2h16.5l0.9-0.2l4,0.8c-0.6,3.9-1.4,8.4-2.1,11.1l-4.8-0.8c0.2-1.5,0.5-3.5,0.8-5.6H629.1z M621.1,35.7
		c-1.4,6.1-3.8,12.1-6.5,16c-1.1-0.9-3.5-2.4-4.9-3.1c2.7-3.4,4.8-8.8,5.9-14.1L621.1,35.7z M635.9,34.1c2.5,4.9,4.6,11.3,5.2,15.6
		l-5.5,1.9c-0.5-4.3-2.5-10.8-4.8-15.8L635.9,34.1z"/>
	<path d="M655,49.6c0-2.7,2.2-4.8,5-4.8s5,2,5,4.8c0,2.8-2.2,4.7-5,4.7S655,52.4,655,49.6z M655.8,25.1l-0.2-7.2h8.8l-0.2,7.2
		l-1.7,16.4h-4.9L655.8,25.1z"/>
</g>
</svg>
