<?xml version="1.0" encoding="utf-8"?>
<!-- Generator: Adobe Illustrator 24.2.1, SVG Export Plug-In . SVG Version: 6.00 Build 0)  -->
<svg version="1.1" id="圖層_1" xmlns="http://www.w3.org/2000/svg" xmlns:xlink="http://www.w3.org/1999/xlink" x="0px" y="0px"
	 viewBox="0 0 975 405" style="enable-background:new 0 0 975 405;" xml:space="preserve">
<style type="text/css">
	.st0{enable-background:new    ;}
	.st1{fill:#153A71;}
	.st2{fill:none;stroke:#153A71;stroke-width:4;}
</style>
<g>
	<g class="st0">
		<path class="st1" d="M141.2,271.3v14.4H4.7v-14.4h22.3c-1.7-6-5.4-13.9-9.1-19.9l11.7-4.3H12.7v-14.4h25.9
			c-2.1-3.9-4.9-8.4-7.6-11.8l15.7-5.7c4.2,4.5,8.4,10.5,10.2,14.8l-6.4,2.7h36.7c3.6-5.3,7.6-12.3,10-17.5l17.5,5.1
			c-2.5,4.5-5.2,8.7-7.9,12.4h27V247h-19.5l12.6,3.4c-3.7,7.7-7.6,15.3-10.9,20.8H141.2z M23.3,292.3h99.4V355h-18.3v-3.9H40.7v4.5
			H23.3V292.3z M33.1,247c4.4,6,8.1,13.9,9.6,19.3l-12,5h18.9V247H33.1z M40.7,305.8v9.1h63.7v-9.1H40.7z M104.5,337.3V328H40.7v9.3
			H104.5z M78.4,247H66.2v24.3h12.1V247z M101.6,267.9c3-5.7,6.6-14.5,8.7-20.8h-15v24.3h17.8L101.6,267.9z"/>
		<path class="st1" d="M305.9,335.8v14.8H174.7V220.2h128.2V235h-59.2l10.9,3.2c-1.6,4.5-3.5,9-5.5,13.3h16.2
			c-1.4-3.8-2.9-7.7-4.5-10.8l15.7-4.7c2.5,4.8,5.3,10.5,6.8,15.5h17.5V265h-22.3v7.9h18v12.2h-18v7.9h18v12.3h-18v8.2h23.4v13.5
			h-55v5.1h-15.4V280c-2,2.4-3.9,4.7-6,6.8c-1.2-2.1-3.9-6-6.6-9.1l-7.5,8.8c-3.9-4.3-12.4-10.5-19.2-14.5v63.9H305.9z M192.1,235
			v35.8l8.4-9.7c5.5,2.8,12.1,6.9,16.9,10.8c9.1-9.4,17.4-22.9,22.3-36.9h-31.2c6.8,3.5,15.3,8.5,19.5,12.8l-10,11.4
			c-3.9-4.3-12.6-10.3-19.3-14.1l9-10H192.1z M195.7,320.4c5.5-7.6,13.5-19.9,20.1-31.5l10,10.5c-5.3,10.3-12,22-18.1,32.2
			L195.7,320.4z M262.6,265h-15.7v7.9h15.7V265z M262.6,285.1h-15.7v7.9h15.7V285.1z M262.6,305.4h-15.7v8.2h15.7V305.4z"/>
		<path class="st1" d="M378.2,309.3c-1.8-5.1-5.1-12.6-8.4-19.8v66.1h-16.3V295c-4,13.9-8.8,26.8-14.2,35.5
			c-1.6-4.9-5.5-13.2-8.2-17.7c8.4-11.8,15.6-33.1,19.5-51.3h-14.8v-16.5h17.8v-29.7h16.3v29.5h14.8v16.6h-14.8v4.8
			c3.9,5.1,15.9,25,18.6,29.4L378.2,309.3z M459.2,292.2c-1-1.9-2.3-3.9-3.7-6c-3.9,12.4-9.3,23.5-16.3,33.1
			c9.7,8.5,21.6,15.1,35.7,19.2c-4,3.8-9.3,11.1-11.8,16c-14.2-5-26.1-12.3-35.7-21.6c-9.9,9.4-21.7,16.9-36,22.8
			c-2.3-4-7.6-10.9-11.2-13.9c14.2-5.4,26.2-12.9,35.8-22.2c-6.7-9.4-12-19.9-16.5-31.6c-1.9,2-4,3.6-6,5.3
			c-2.7-3.3-8.4-8.3-12.3-11.1c9.4-7.2,19.2-19.3,25-29.2l15.7,7.2c-4.8,7.7-10.9,15.5-17.1,22.3l8.7-2.3
			c3.3,9.4,7.9,18.1,13.5,25.8c5.2-7.6,9.3-16.3,11.8-25.9l15.1,4c-5.4-7.6-13-16.2-19.9-22.8l10.2-8.5h-55.8v-16.3h33.7
			c-2.1-5.3-5.8-11.7-9.4-16.6l15.7-5.8c4.6,5.5,9.3,13.2,11.4,18.4l-9.4,4h40.8v16.3h-23.5c9.1,8.5,19.8,19.9,24.6,28.2
			L459.2,292.2z"/>
		<path class="st1" d="M631.7,221.2v134.5h-17.4v-5.4h-93.7v5.4h-16.8V221.2H631.7z M614.3,334.3v-97h-93.7v97H614.3z M573.8,314.1
			c-0.5,3.3-0.3,8.3,0,10.8c-25.5,6.3-29.8,7.8-32.4,9.3c-0.6-2.7-2.5-7.3-4-9.1c2.2-1.1,4.9-2.7,4.9-8.4v-5.4
			c-4,1.5-8.1,2.8-11.8,4c-1.8-2.4-6-7.5-8.5-9.9c9.8-2,20.1-5.1,28.5-9h-17.1v-21.4h69.1v21.4h-32.2c-4.2,3.5-9.4,6.6-15.1,9.3
			v12.7L573.8,314.1z M609.1,270.7h-83.4v-9.9h33.4V255h-26.4v-9.6h26.4v-6.3h16.2v6.3h27.6v9.6h-27.6v5.8h33.7V270.7z M548.2,288.7
			h38.7v-6.2h-38.7V288.7z M610.7,304.9c-3.9,3-8.3,5.5-12.6,7.9c5.3,3.8,9.9,7.2,13.2,10.2l-11.4,6.8c-7.5-7-23.2-18.5-35.8-26.1
			l10.8-6c4.2,2.6,9,5.7,13.9,8.9c4.2-2.9,8.5-6,11.4-8.5L610.7,304.9z"/>
		<path class="st1" d="M746.6,274.2c9.9,29.2,28,52.8,56.1,64.2c-4.5,3.8-10.3,11.7-13.2,16.8c-27.1-12.8-44.5-34.6-56.2-63.6
			c-8.1,25-24.3,48.4-56.1,63.7c-2.9-4.9-8.1-11.4-13.3-15.1c34.3-15.3,48.6-40.2,54.4-66h-51.6v-18.4h54.6
			c1.5-14.1,1.3-27.7,1.5-40h19.5c-0.1,12.3-0.3,26.1-1.8,40h58.9v18.4H746.6z"/>
		<path class="st1" d="M927.2,300.7c-1.2,9.3-3.8,18.1-8.2,26.1c13.8,6.6,31,10.8,51.3,12.6c-3.8,3.9-8.4,11.2-10.6,15.9
			c-20.3-2.5-37.3-7.8-51.3-15.7c-7.2,6.6-17.4,12.1-30.7,16c-2.3-3.9-7.5-11.1-11.1-14.8c12-2.7,20.8-6.6,27.3-11.5
			c-7.3-6.1-13.3-13.8-18.4-22.3l14.5-4.5c3.6,5.8,8.4,10.9,14,15.4c3-5.4,4.6-10.9,5.5-17.1h-33.4v-43.8h34.5v-10.5h-37.6v-13.8
			c-2.7,5.7-5.7,11.5-9,17.2v106h-16.9v-80.5c-4,5.1-8.1,9.9-12.3,14.1c-1.6-4.3-6.4-13.9-9.4-18.3c14.2-13.5,28.2-34.6,36.3-55.9
			l16.5,5.4c-1.3,3.2-2.7,6.3-4,9.6h36.6v-13.6h17.7v13.6h39.7v16.2h-39.7v10.5h35.7v43.8H927.2z M910.4,286.3v-1.9v-12.9H892v14.8
			H910.4z M928.1,271.5v13v1.8h18.6v-14.8H928.1z"/>
	</g>
	<g class="st0">
		<path class="st2" d="M361.7,165.6h-95.5c1.1-9.4,4.4-18.3,10-26.6c5.5-8.3,15.9-18.1,31.2-29.4c9.3-6.9,15.3-12.2,17.9-15.8
			c2.6-3.6,3.9-7,3.9-10.2c0-3.5-1.3-6.5-3.9-8.9c-2.6-2.5-5.8-3.7-9.7-3.7c-4.1,0-7.4,1.3-10,3.8c-2.6,2.6-4.3,7.1-5.2,13.5
			l-31.9-2.6c1.3-9,3.5-15.9,6.9-21c3.3-5,8-8.9,14.1-11.6c6.1-2.7,14.5-4,25.2-4c11.2,0,19.9,1.3,26.1,3.8
			c6.2,2.6,11.1,6.5,14.7,11.8c3.6,5.3,5.4,11.2,5.4,17.8c0,7-2,13.6-6.1,20c-4.1,6.4-11.5,13.3-22.3,20.9
			c-6.4,4.4-10.7,7.5-12.9,9.3c-2.2,1.8-4.7,4.1-7.6,7h49.7V165.6z"/>
		<path class="st2" d="M391.3,107.8c0-21.8,3.9-37,11.8-45.7c7.8-8.7,19.8-13,35.8-13c7.7,0,14,1,19,2.9c4.9,1.9,9,4.4,12.1,7.4
			s5.6,6.3,7.4,9.6s3.2,7.3,4.3,11.8c2.1,8.5,3.2,17.4,3.2,26.7c0,20.8-3.5,36-10.5,45.6c-7,9.6-19.1,14.5-36.3,14.5
			c-9.6,0-17.4-1.5-23.4-4.6s-10.8-7.6-14.6-13.5c-2.8-4.2-4.9-10-6.4-17.3C392,124.8,391.3,116.7,391.3,107.8z M422.8,107.9
			c0,14.6,1.3,24.5,3.9,29.9c2.6,5.3,6.3,8,11.2,8c3.2,0,6-1.1,8.4-3.4c2.4-2.3,4.1-5.8,5.2-10.7c1.1-4.9,1.7-12.5,1.7-22.9
			c0-15.2-1.3-25.4-3.9-30.7s-6.4-7.9-11.6-7.9c-5.3,0-9.1,2.7-11.4,8C424,83.6,422.8,93.5,422.8,107.9z"/>
		<path class="st2" d="M607.1,165.6h-95.5c1.1-9.4,4.4-18.3,10-26.6c5.5-8.3,15.9-18.1,31.2-29.4c9.3-6.9,15.3-12.2,17.9-15.8
			c2.6-3.6,3.9-7,3.9-10.2c0-3.5-1.3-6.5-3.9-8.9c-2.6-2.5-5.8-3.7-9.7-3.7c-4.1,0-7.4,1.3-10,3.8c-2.6,2.6-4.3,7.1-5.2,13.5
			L514,85.6c1.3-9,3.5-15.9,6.9-21c3.3-5,8-8.9,14.1-11.6c6.1-2.7,14.5-4,25.2-4c11.2,0,19.9,1.3,26.1,3.8
			c6.2,2.6,11.1,6.5,14.7,11.8c3.6,5.3,5.4,11.2,5.4,17.8c0,7-2,13.6-6.1,20c-4.1,6.4-11.5,13.3-22.3,20.9
			c-6.4,4.4-10.7,7.5-12.9,9.3c-2.2,1.8-4.7,4.1-7.6,7h49.7V165.6z"/>
		<path class="st2" d="M708.8,49.1v116.5h-32.2V89.2c-5.2,4-10.2,7.2-15.1,9.6c-4.9,2.4-11,4.8-18.3,7V79.8
			c10.8-3.5,19.2-7.7,25.2-12.6c6-4.9,10.7-10.9,14.1-18.1H708.8z"/>
	</g>
</g>
</svg>
