<?xml version="1.0" encoding="utf-8"?>
<!-- Generator: Adobe Illustrator 24.2.1, SVG Export Plug-In . SVG Version: 6.00 Build 0)  -->
<svg version="1.1" id="圖層_1" xmlns="http://www.w3.org/2000/svg" xmlns:xlink="http://www.w3.org/1999/xlink" x="0px" y="0px"
	 viewBox="0 0 686 72" style="enable-background:new 0 0 686 72;" xml:space="preserve">
<style type="text/css">
	.st0{enable-background:new    ;}
	.st1{fill:#404040;}
</style>
<g>
	<g class="st0">
		<path class="st1" d="M54.8,16c-1,3.1-2.4,5.8-4.2,8.1c0.9,2.4,2,3.7,3.2,3.7c0.7,0,1-1.2,1.1-4.4c0.4,0.4,1.1,0.8,1.5,1
			c-0.3,4.1-1,5.3-2.8,5.3c-1.8,0-3.3-1.5-4.4-3.9c-1.4,1.6-3.1,2.9-4.9,4c-0.3-0.4-0.9-1.1-1.3-1.4c2.1-1.2,4-2.6,5.5-4.4
			c-0.9-2.7-1.4-6.2-1.8-10.1h-8.3v3.1h6.1v0.8c-0.1,5.4-0.3,7.4-0.8,8c-0.4,0.5-0.8,0.6-1.4,0.7c-0.6,0-1.7,0-2.9,0
			c0-0.6-0.2-1.2-0.5-1.7c1.1,0.1,2.1,0.1,2.5,0.1c0.3,0,0.6,0,0.7-0.3c0.3-0.4,0.5-1.9,0.6-6h-4.4v0.2c0,3.4-0.4,8.2-2.5,11.3
			c-0.3-0.4-1.1-1-1.5-1.2c2-2.9,2.2-7,2.2-10.1V12h10c-0.1-1.3-0.1-2.7-0.1-4h1.8c0,1.4,0,2.7,0.1,4h7.8v1.8h-7.6
			c0.2,3.2,0.7,6,1.3,8.3c1.3-1.9,2.3-4.1,3.1-6.5L54.8,16z M50.7,8c1.5,0.7,3.4,1.9,4.3,2.7L53.9,12c-0.9-0.8-2.7-2.1-4.2-2.9
			L50.7,8z"/>
		<path class="st1" d="M82.2,21.5c-0.4,4.9-0.9,6.9-1.6,7.7c-0.4,0.4-0.9,0.6-1.5,0.6c-0.6,0.1-1.8,0-3,0c0-0.5-0.2-1.2-0.5-1.6
			c1.2,0.1,2.2,0.1,2.7,0.1c0.4,0,0.6,0,0.8-0.2c0.5-0.5,0.9-2,1.3-5.7H66c-1.3,1.1-2.7,2-4.2,2.8c-0.2-0.4-0.6-1.1-1-1.5
			c4.4-2.3,7.8-5.9,10.1-10h-8.5v-1.6h4.8c-0.3-1-1.1-2.4-1.8-3.5L66.9,8c0.8,1.1,1.7,2.5,2,3.5l-1.3,0.6h4.3
			c0.7-1.4,1.2-2.8,1.7-4.2l1.8,0.5c-0.5,1.2-1,2.5-1.5,3.7h4.9c-0.2,1.4-0.5,3.1-0.8,4.3h2.8c-0.2,1.4-0.5,3-0.8,4.3h2.4L82.2,21.5
			z M62,28.7c1.5-1.1,2.4-3.1,2.8-4.9l1.5,0.5c-0.5,2-1.3,4.1-2.9,5.4L62,28.7z M70.2,18c-0.8,1-1.6,1.9-2.4,2.8h10.4
			c0.2-0.8,0.3-1.8,0.5-2.8H70.2z M69.3,24.2c0.5,1.4,0.7,3.2,0.7,4.4l-1.6,0.2c0.1-1.2-0.2-3-0.6-4.4L69.3,24.2z M73,13.7
			c-0.5,0.9-1.1,1.8-1.7,2.7h4.9c0.2-0.8,0.4-1.8,0.6-2.7H73z M72.9,23.8c0.6,1.2,1.1,2.8,1.3,3.9l-1.5,0.4c-0.2-1-0.7-2.7-1.2-3.9
			L72.9,23.8z M76.8,27c-0.3-0.9-1-2.3-1.8-3.3l1.2-0.5c0.8,1,1.5,2.3,1.8,3.1L76.8,27z"/>
		<path class="st1" d="M109,17v1.5H87.7V17h7.4v-4.7H89v-1.5h4.5c-0.3-0.7-0.9-1.7-1.5-2.4l1.5-0.6c0.8,0.7,1.4,1.8,1.8,2.5l-1,0.5
			h6.9c0.6-0.9,1.3-2.1,1.7-3l1.8,0.6c-0.5,0.8-1,1.7-1.5,2.4h4.7v1.5h-6.3V17H109z M91.6,12.6c0.9,1.1,1.6,2.5,1.9,3.5l-1.6,0.6
			c-0.2-1-1-2.5-1.8-3.6L91.6,12.6z M90.9,20h15v9.8h-1.8V29H92.7v0.8h-1.8V20z M92.7,21.4v2.4h11.4v-2.4H92.7z M104.1,27.6v-2.4
			H92.7v2.4H104.1z M96.8,17h3v-4.7h-3V17z M103,16.3c0.7-1,1.5-2.6,2-3.7l1.6,0.5c-0.7,1.3-1.5,2.8-2.2,3.7L103,16.3z"/>
		<path class="st1" d="M135.5,27.4v1.5H115V8.8h20v1.5h-18.3v17H135.5z M118,15.3c1.2,0.5,2.6,1.3,3.4,2l-1,1.2
			c-0.7-0.7-2.1-1.6-3.3-2.1L118,15.3z M122,20.9c-0.9,1.7-2,3.8-3,5.4l-1.2-1.1c0.9-1.3,2.2-3.4,3.2-5.3L122,20.9z M121.4,14.2
			c-0.6-0.7-2-1.6-3.1-2.2l1-1.1c1.1,0.5,2.5,1.4,3.2,2.1L121.4,14.2z M130.5,15.2v2h3.4v1.3h-3.4v2h3.4v1.3h-3.4V24h4.2v1.4h-9.3v1
			h-1.6V17c-0.5,0.7-1.1,1.4-1.6,2c-0.2-0.3-0.8-1-1.1-1.3c1.8-1.7,3.3-4.2,4.2-6.9l1.5,0.4c-0.3,0.9-0.7,1.7-1.1,2.5h3.7
			c-0.3-0.7-0.7-1.5-1.1-2.2l1.6-0.5c0.5,0.8,1.1,1.9,1.3,2.7h3.4v1.4H130.5z M128.9,15.2h-3.5v2h3.5V15.2z M128.9,18.5h-3.5v2h3.5
			V18.5z M128.9,21.8h-3.5V24h3.5V21.8z"/>
		<path class="st1" d="M147.2,21.6c-0.3-0.8-1.1-2.4-1.8-3.7v11.9h-1.6V18.2c-0.8,2.8-1.8,5.6-3,7.2c-0.2-0.5-0.6-1.3-1-1.7
			c1.5-2,2.9-5.8,3.6-9.1h-2.8V13h3.1V7.9h1.6V13h2.7v1.7h-2.7v1c0.6,0.8,2.4,4,2.8,4.7L147.2,21.6z M159.1,18.4
			c-0.6,2.3-1.6,4.3-2.9,6c1.7,1.7,3.7,3,6.1,3.8c-0.4,0.3-0.9,1.1-1.2,1.5c-2.4-0.9-4.4-2.2-6-4c-1.6,1.7-3.6,3.1-6,4.2
			c-0.2-0.4-0.7-1-1.1-1.3c2.4-1.1,4.4-2.4,6-4.1c-1.3-1.7-2.4-3.7-3.2-6l1.5-0.4c0.7,1.9,1.6,3.6,2.8,5c1.1-1.5,1.9-3.2,2.4-5.1
			L159.1,18.4z M153.5,14.4c-1.1,1.9-2.7,3.9-4.3,5.3c-0.3-0.3-0.9-0.8-1.2-1.1c1.6-1.3,3.1-3.3,3.9-5L153.5,14.4z M161.8,13.1
			h-13.1v-1.7h6c-0.4-0.8-1.2-2.1-1.9-3l1.5-0.6c0.8,0.9,1.6,2.1,2,2.9l-1.6,0.7h7V13.1z M157.6,13.6c1.6,1.5,3.4,3.6,4.2,4.9
			l-1.3,1.1c-0.8-1.4-2.6-3.6-4.1-5.1L157.6,13.6z"/>
		<path class="st1" d="M187.5,9v20.9h-1.8v-1h-16.5v1h-1.7V9H187.5z M185.8,27.2V10.6h-16.5v16.6H185.8z M178.3,24.2
			c0,0.3,0,0.9,0,1.2c-4.4,1.2-5.1,1.4-5.4,1.6c-0.1-0.3-0.3-0.9-0.5-1.1c0.4-0.1,0.9-0.4,0.9-1.3v-1.8c-0.9,0.3-1.7,0.6-2.5,0.8
			c-0.2-0.2-0.6-0.8-0.9-1.1c1.9-0.4,4-1.1,5.5-1.9H172v-3.6h11.1v3.6h-5.8c-0.7,0.6-1.7,1.1-2.6,1.6V25L178.3,24.2z M184.6,16.2
			h-14.1V15h6.2v-1.5h-4.8v-1.1h4.8v-1.3h1.6v1.3h5v1.1h-5V15h6.3V16.2z M173.5,19.7h8V18h-8V19.7z M184.5,21.9
			c-0.8,0.6-1.8,1.1-2.7,1.6c1.1,0.7,2.1,1.5,2.8,2l-1.2,0.8c-1.4-1.2-4.2-3.2-6.5-4.5l1.1-0.7c0.9,0.5,1.8,1,2.7,1.7
			c0.9-0.5,1.9-1.2,2.6-1.6L184.5,21.9z"/>
		<path class="st1" d="M205.4,16.6c1.7,5.3,4.8,9.6,9.4,11.5c-0.4,0.4-1,1.2-1.3,1.7c-4.6-2.2-7.7-6.4-9.6-11.9
			c-1.2,4.6-3.7,9.2-9.6,11.9c-0.3-0.5-0.8-1.1-1.3-1.5c6-2.6,8.4-7.2,9.3-11.7h-8.9v-1.8h9.1C203,12.3,203,9.9,203,8h1.9
			c0,1.9,0,4.3-0.4,6.8h9.9v1.8H205.4z"/>
		<path class="st1" d="M226.7,8.4c-0.7,1.7-1.5,3.4-2.5,5v16.6h-1.7V16c-0.8,1.2-1.8,2.2-2.6,3.1c-0.2-0.4-0.7-1.3-1-1.7
			c2.4-2.3,4.8-5.9,6.1-9.5L226.7,8.4z M234.3,21.1c-0.2,1.7-0.6,3.2-1.6,4.6c2.4,1.3,5.4,2.1,8.8,2.5c-0.4,0.4-0.8,1.1-1.1,1.6
			c-3.4-0.5-6.4-1.4-8.8-2.9c-1.2,1.2-2.9,2.2-5.4,2.9c-0.2-0.4-0.7-1.1-1.1-1.5c2.4-0.6,4-1.4,5.1-2.4c-1.4-1.1-2.6-2.4-3.5-3.9
			l1.5-0.5c0.7,1.2,1.8,2.3,3,3.2c0.8-1.1,1.1-2.4,1.3-3.7h-5.8v-6.6h5.9v-2.4h-6.6v-1.6h6.6V8h1.8v2.6h6.9v1.6h-6.9v2.4h6.1v6.6
			H234.3z M232.7,19.6c0-0.4,0-0.7,0-1.1v-2.5h-4.3v3.6H232.7z M234.4,16.1v2.5c0,0.4,0,0.7,0,1.1h4.4v-3.6H234.4z"/>
		<path class="st1" d="M248.2,22.2c1.8-0.8,2.9-1.9,3-3.5c-0.1,0-0.3,0-0.4,0c-1,0-1.8-0.6-1.8-1.7s0.8-1.7,1.8-1.7
			c1.3,0,2,1.1,2,2.8c0,2.6-1.6,4.6-4.2,5.4L248.2,22.2z"/>
		<path class="st1" d="M279.3,27.8c0.9,0,1.1-0.4,1.2-3.2c0.4,0.3,1.1,0.6,1.6,0.7c-0.2,3.3-0.7,4.1-2.6,4.1h-3.7
			c-2.2,0-2.7-0.6-2.7-2.4v-6h-4.2c-0.4,5-1.6,7.6-7.6,8.8c-0.1-0.5-0.6-1.2-0.9-1.5c5.4-1.1,6.4-3.1,6.7-7.3h-6.4v-1.7h21.1V21
			h-6.9v6c0,0.7,0.2,0.8,1.2,0.8H279.3z M263,15.9h-1.8v-5.3h9.3c-0.3-0.8-0.8-1.7-1.2-2.4l1.8-0.5c0.6,0.9,1.2,2.1,1.5,3h8.4v5.3
			h-1.8v-3.6H263V15.9z M264.6,16.6v-1.7h12.9v1.7H264.6z"/>
		<path class="st1" d="M306.8,16c-1,3.1-2.4,5.8-4.2,8.1c0.9,2.4,2,3.7,3.2,3.7c0.7,0,1-1.2,1.1-4.4c0.4,0.4,1.1,0.8,1.5,1
			c-0.3,4.1-1,5.3-2.8,5.3c-1.8,0-3.3-1.5-4.4-3.9c-1.4,1.6-3.1,2.9-4.9,4c-0.3-0.4-0.9-1.1-1.3-1.4c2.1-1.2,4-2.6,5.5-4.4
			c-0.9-2.7-1.4-6.2-1.8-10.1h-8.3v3.1h6.1v0.8c-0.1,5.4-0.3,7.4-0.8,8c-0.4,0.5-0.8,0.6-1.4,0.7c-0.6,0-1.7,0-2.9,0
			c0-0.6-0.2-1.2-0.5-1.7c1.1,0.1,2.1,0.1,2.5,0.1c0.3,0,0.6,0,0.7-0.3c0.3-0.4,0.5-1.9,0.6-6h-4.4v0.2c0,3.4-0.4,8.2-2.5,11.3
			c-0.3-0.4-1.1-1-1.5-1.2c2-2.9,2.2-7,2.2-10.1V12h10c-0.1-1.3-0.1-2.7-0.1-4h1.8c0,1.4,0,2.7,0.1,4h7.8v1.8h-7.6
			c0.2,3.2,0.7,6,1.3,8.3c1.3-1.9,2.3-4.1,3.1-6.5L306.8,16z M302.7,8c1.5,0.7,3.4,1.9,4.3,2.7l-1.1,1.2c-0.9-0.8-2.7-2.1-4.2-2.9
			L302.7,8z"/>
		<path class="st1" d="M316.9,15.9c0,4.1-0.3,9.9-2.4,13.8c-0.3-0.3-1.1-0.7-1.5-0.8c2-3.8,2.2-9.2,2.2-13v-7h18.2V13h-16.5V15.9z
			 M333.9,21.4c0,0,0,0.5,0,0.6c-0.2,4.7-0.5,6.4-1,7c-0.3,0.4-0.7,0.6-1.2,0.6c-0.5,0-1.2,0-2,0c0-0.2-0.1-0.5-0.2-0.8l-0.1,0.1
			c-0.1-0.2-0.3-0.4-0.6-0.7c-3.9,0.3-7.9,0.6-10.8,0.9l-0.1-1.3c1.6-0.1,3.7-0.2,5.9-0.4v-1.1h-4.6V24c-0.4,0.3-0.9,0.6-1.3,0.9
			c-0.3-0.4-0.8-0.8-1.2-1c1.9-1,3.3-2.2,4.2-3.4h-2.7v-3.2h15.1v3.2h-10.6c-0.2,0.3-0.5,0.6-0.7,0.9H333.9z M316.9,10.1v1.6h14.8
			v-1.6H316.9z M318.2,16c1.4-0.2,3.5-0.6,5.5-1v1c-1.8,0.4-3.7,0.8-5.2,1.1L318.2,16z M319,13.2c1.5,0.2,3.2,0.5,4.2,0.9l-0.4,1
			c-1-0.4-2.7-0.8-4.1-1L319,13.2z M319.6,19.6h3v-1.4h-3V19.6z M320.9,22.5c-0.3,0.3-0.7,0.6-1.1,0.9h3.8v-0.9H320.9z M323.7,25.4
			v-1.1h-3.2v1.1H323.7z M323.9,19.6h3.1v-1.4h-3.1V19.6z M324.7,16.9v-3.6h1.7v3.6H324.7z M330.2,28.3c0.2,0,0.4,0,0.6,0
			c0.3,0,0.5,0,0.6-0.2c0.3-0.4,0.6-1.8,0.8-5.6h-7v0.9h4.6v2.9h-1.3c0.7,0.6,1.5,1.3,1.9,1.9L330.2,28.3z M328.3,24.3h-3.1v1.1h3.1
			V24.3z M325.2,27.3l2.4-0.2c-0.2-0.2-0.4-0.3-0.6-0.5l0.6-0.3h-2.5V27.3z M332.1,17.1c-1.1-0.4-2.9-0.8-4.6-1.1l0.3-0.9
			c1.7,0.2,3.6,0.6,4.7,1L332.1,17.1z M332.5,14c-1.2,0.5-3,0.8-4.2,1l-0.4-0.8c1.2-0.2,3-0.7,4.1-1.1L332.5,14z M328.5,19.6h3.1
			v-1.4h-3.1V19.6z"/>
		<path class="st1" d="M348.4,16.8c0,0,0,0.6,0,0.8c-0.3,7.5-0.6,10.1-1.2,10.9c-0.4,0.5-0.8,0.7-1.4,0.7c-0.5,0.1-1.3,0.1-2.2,0
			c0-0.5-0.2-1.2-0.4-1.6c0.8,0.1,1.5,0.1,1.8,0.1c0.3,0,0.5,0,0.7-0.3c0.4-0.5,0.7-2.8,1-9h-3.1c-0.3,4.8-1,8.7-3.1,11.3
			c-0.3-0.4-0.9-1-1.3-1.3c2.6-3.1,2.8-8.4,2.9-14.9h-2.4v-1.7h9.7v1.7h-5.5c0,1.1,0,2.3-0.1,3.3H348.4z M344.4,11.8
			c-0.3-0.9-1.2-2.4-2-3.4l1.6-0.6c0.8,1,1.7,2.4,2.1,3.3L344.4,11.8z M356.2,8.3c-0.1,0.5-0.3,0.9-0.4,1.3c1.3,2.5,3.6,5.3,5.9,6.5
			c-0.4,0.3-1,1-1.3,1.5c-1.9-1.3-4-3.7-5.3-6.2c-1.2,2.7-3,4.9-5.2,6.4c-0.3-0.4-0.8-1-1.2-1.4c2.8-1.7,4.9-4.9,6-8.5L356.2,8.3z
			 M352.1,23.7c2.2,1.1,5.1,2.8,6.6,4l-1.2,1.6c-1.4-1.3-4.2-3.1-6.5-4.2L352.1,23.7z M356.6,21.6c-0.9-0.9-2.7-2.3-4.1-3.3l1.2-1.2
			c1.4,0.9,3.3,2.2,4.2,3.1L356.6,21.6z"/>
		<path class="st1" d="M385.1,11.2v18.6h-1.8v-1.2h-12.8v1.3h-1.8V11.2h6c0.4-1.1,0.7-2.4,0.9-3.3l2,0.3c-0.4,1-0.8,2.1-1.2,3H385.1
			z M370.5,12.9v3.6h12.8v-3.6H370.5z M370.5,18.1v3.5h12.8v-3.5H370.5z M383.3,26.8v-3.6h-12.8v3.6H383.3z"/>
		<path class="st1" d="M409,27.6c2.5,0,2.9-0.7,3.2-4.4c0.5,0.3,1.3,0.6,1.8,0.7c-0.4,4.2-1.2,5.4-5,5.4h-9c-3.8,0-5-0.6-5-3.3v-8.9
			h14.3v-6h-14.6V9.3H411v11h-1.8v-1.5h-12.5V26c0,1.3,0.6,1.6,3.1,1.6H409z"/>
		<path class="st1" d="M431,16.6c1.7,5.3,4.8,9.6,9.4,11.5c-0.4,0.4-1,1.2-1.3,1.7c-4.6-2.2-7.7-6.4-9.6-11.9
			c-1.2,4.6-3.7,9.2-9.6,11.9c-0.3-0.5-0.8-1.1-1.3-1.5c6-2.6,8.4-7.2,9.3-11.7h-8.9v-1.8h9.1c0.4-2.5,0.3-4.9,0.4-6.8h1.9
			c0,1.9,0,4.3-0.4,6.8h9.9v1.8H431z"/>
		<path class="st1" d="M466.6,25.2H457v2.8c0,0.9-0.2,1.3-0.9,1.6c-0.8,0.3-2,0.2-3.9,0.2c-0.1-0.5-0.4-1.1-0.6-1.5
			c1.5,0,2.8,0,3.2,0c0.4,0,0.5-0.1,0.5-0.4v-2.7h-10v-1.5h10v-1c1.3-0.5,2.7-1.1,3.8-1.8h-9.4v-1.3H461l0.4-0.1l1.1,0.9
			c-1.5,1.2-3.5,2.2-5.4,3v0.4h9.6V25.2z M447.5,20.8h-1.7v-4.3h1.9l-0.5-7.1c1.4-0.2,3.5-0.8,4.6-1.2l0.8,1.1
			c-1.1,0.4-2.5,0.7-3.7,0.9l0.1,1.2h3.5v1.2h-3.4l0.1,1.3h3.4v1.2h-3.3l0.1,1.3h13.2c0-0.4,0.1-0.9,0.1-1.3h-3.5v-1.2h3.6l0.1-1.3
			h-3.6v-1.2h3.6l0.1-1.3h-3.8V8.8h5.5c-0.1,2.4-0.3,5.5-0.5,7.6h1.9v4.3h-1.8v-3h-16.9V20.8z M457.8,16.3c-0.4-0.4-1-0.9-1.7-1.4
			c-0.8,0.6-1.6,1.1-2.4,1.6c-0.2-0.2-0.7-0.7-1-0.9c0.8-0.4,1.6-0.8,2.3-1.3c-0.6-0.4-1.2-0.7-1.7-0.9l0.9-0.8
			c0.6,0.3,1.2,0.6,1.8,1c0.4-0.4,0.9-0.8,1.2-1.3l1.2,0.4c-0.4,0.5-0.9,1-1.4,1.5c0.7,0.4,1.3,0.9,1.7,1.3L457.8,16.3z M457.7,12
			c-0.4-0.4-1-0.8-1.7-1.2c-0.7,0.6-1.5,1.1-2.2,1.4c-0.2-0.2-0.7-0.6-1-0.9c0.7-0.3,1.5-0.8,2.1-1.2c-0.6-0.3-1.2-0.6-1.7-0.9
			l0.9-0.8c0.6,0.2,1.2,0.6,1.8,0.9c0.4-0.4,0.8-0.8,1.1-1.2l1.2,0.3c-0.4,0.5-0.8,1-1.3,1.5c0.6,0.4,1.2,0.8,1.7,1.1L457.7,12z"/>
		<path class="st1" d="M493,27.4v1.7h-21.3v-1.7h9.7v-6.1h-7.1v-1.7h7.1v-5.2h-5.6c-0.8,1.5-1.6,2.8-2.5,3.9
			c-0.3-0.3-1.1-0.8-1.6-1.1c2-2.1,3.5-5.4,4.4-8.8l1.8,0.4c-0.4,1.3-0.8,2.6-1.3,3.8h4.9V7.9h1.8v4.6h8.6v1.8h-8.6v5.2h7.7v1.7
			h-7.7v6.1H493z"/>
		<path class="st1" d="M501.5,18.6c-0.8-0.8-2.5-1.9-3.8-2.6l1.1-1.2c1.3,0.6,3,1.7,3.9,2.4L501.5,18.6z M503.3,21.9
			c-1,2.4-2.3,5.2-3.4,7.3l-1.6-1.1c1.1-1.8,2.5-4.8,3.6-7.3L503.3,21.9z M502.7,12.2c-0.8-0.7-2.5-1.9-3.9-2.7l1.2-1.2
			c1.3,0.7,3,1.8,3.9,2.6L502.7,12.2z M506.3,15.8c0,4.1-0.3,10-2.8,14c-0.3-0.2-1.1-0.6-1.5-0.8c2.4-3.9,2.6-9.3,2.6-13.2V9.1h14.9
			v1.6h-13.2V15.8z M519.7,27.6v1.5h-13.9v-1.5h6.5v-3.4h-4.9v-1.5h4.9v-2.1h1.8v2.1h4.9v1.5H514v3.4H519.7z M512.2,18.1v-3h-4.3
			v-1.5h4.3v-2.4h1.7v2.4h4.5v1.5H514v3h5.4v1.5h-12.5v-1.5H512.2z"/>
		<path class="st1" d="M530.9,8.2c-0.4,1.2-0.8,2.5-1.2,3.5h4v15.6h-6.7v1.9h-1.6V11.8h2.7c0.4-1.2,0.8-2.8,1-3.9L530.9,8.2z
			 M532,13.4h-5v5h5V13.4z M532,25.7V20h-5v5.8H532z M545.3,12.6c-0.4,10.9-0.7,14.6-1.7,15.8c-0.5,0.7-1.1,0.9-1.9,1
			c-0.8,0.1-2.2,0-3.6,0c0-0.5-0.3-1.2-0.6-1.8c1.6,0.1,3,0.1,3.6,0.1c0.5,0,0.7,0,1-0.4c0.8-0.8,1.2-4.5,1.5-14h-6.1
			c-0.7,1.6-1.4,3.1-2.3,4.2c-0.3-0.3-1.1-0.8-1.5-1c1.6-2.1,2.9-5.4,3.7-8.7l1.7,0.4c-0.3,1.2-0.6,2.3-1,3.5h7.2V12.6z M540,23.4
			c-0.7-1.4-2.3-3.8-3.6-5.5l1.4-0.8c1.3,1.7,3,4,3.8,5.4L540,23.4z"/>
		<path class="st1" d="M557.6,21.6c-0.3-0.8-1.1-2.4-1.8-3.7v11.9h-1.6V18.2c-0.8,2.8-1.8,5.6-3,7.2c-0.2-0.5-0.6-1.3-1-1.7
			c1.5-2,2.9-5.8,3.6-9.1h-2.8V13h3.1V7.9h1.6V13h2.7v1.7h-2.7v1c0.6,0.8,2.4,4,2.8,4.7L557.6,21.6z M569.5,18.4
			c-0.6,2.3-1.6,4.3-2.9,6c1.7,1.7,3.7,3,6.1,3.8c-0.4,0.3-0.9,1.1-1.2,1.5c-2.4-0.9-4.4-2.2-6-4c-1.6,1.7-3.6,3.1-6,4.2
			c-0.2-0.4-0.7-1-1.1-1.3c2.4-1.1,4.4-2.4,6-4.1c-1.3-1.7-2.4-3.7-3.2-6l1.5-0.4c0.7,1.9,1.6,3.6,2.8,5c1.1-1.5,1.9-3.2,2.4-5.1
			L569.5,18.4z M563.9,14.4c-1.1,1.9-2.7,3.9-4.3,5.3c-0.3-0.3-0.9-0.8-1.2-1.1c1.6-1.3,3.1-3.3,3.9-5L563.9,14.4z M572.2,13.1
			h-13.1v-1.7h6c-0.4-0.8-1.2-2.1-1.9-3l1.5-0.6c0.8,0.9,1.6,2.1,2,2.9l-1.6,0.7h7V13.1z M568,13.6c1.6,1.5,3.4,3.6,4.2,4.9
			l-1.3,1.1c-0.8-1.4-2.6-3.6-4.1-5.1L568,13.6z"/>
		<path class="st1" d="M597.9,9v20.9h-1.8v-1h-16.5v1H578V9H597.9z M596.2,27.2V10.6h-16.5v16.6H596.2z M588.7,24.2
			c0,0.3,0,0.9,0,1.2c-4.4,1.2-5.1,1.4-5.4,1.6c-0.1-0.3-0.3-0.9-0.5-1.1c0.4-0.1,0.9-0.4,0.9-1.3v-1.8c-0.9,0.3-1.7,0.6-2.5,0.8
			c-0.2-0.2-0.6-0.8-0.9-1.1c1.9-0.4,4-1.1,5.5-1.9h-3.4v-3.6h11.1v3.6h-5.8c-0.7,0.6-1.7,1.1-2.6,1.6V25L588.7,24.2z M595,16.2
			h-14.1V15h6.2v-1.5h-4.8v-1.1h4.8v-1.3h1.6v1.3h5v1.1h-5V15h6.3V16.2z M583.9,19.7h8V18h-8V19.7z M594.9,21.9
			c-0.8,0.6-1.8,1.1-2.7,1.6c1.1,0.7,2.1,1.5,2.8,2l-1.2,0.8c-1.4-1.2-4.2-3.2-6.5-4.5l1.1-0.7c0.9,0.5,1.8,1,2.7,1.7
			c0.9-0.5,1.9-1.2,2.6-1.6L594.9,21.9z"/>
		<path class="st1" d="M625.2,24.5h-5.7v3.4c0,0.9-0.2,1.4-1,1.6c-0.7,0.3-1.9,0.3-3.9,0.3c-0.1-0.5-0.3-1.1-0.6-1.5
			c1.5,0,2.8,0,3.2,0c0.4,0,0.5-0.1,0.5-0.4v-3.4h-9.1c1.4,0.8,3.1,2.1,3.9,3l-1.3,1.2c-0.8-0.9-2.5-2.2-4-3.1l1.2-1h-5V23h14.2
			v-1.5c-4.9,0.1-9.7,0.2-13.2,0.3l-0.1-1.4c2.4,0,5.5,0,9-0.1V19h-7.3v-6.5h7.3v-1.3h-9.2V9.8h9.2V8h1.7v1.8h9v1.4h-9v1.3h7.6V19
			H620c1.6,0.6,3.3,1.6,4.3,2.3l-1.1,1c-0.4-0.3-0.8-0.6-1.4-1l-2.4,0.1V23h5.7V24.5z M607.8,15.2h5.7v-1.4h-5.7V15.2z M613.4,17.8
			v-1.5h-5.7v1.5H613.4z M615.2,13.8v1.4h5.8v-1.4H615.2z M621,16.4h-5.8v1.5h5.8V16.4z M615.2,20.4l4.5-0.1
			c-0.6-0.3-1.2-0.6-1.8-0.7l0.6-0.5h-3.3V20.4z"/>
		<path class="st1" d="M651.5,22.5V24h-9.9v5.9h-1.8V24h-9.7v-1.5h9.7v-2h1.8v2H651.5z M649.2,21.4c-1.9-0.7-4.7-1.5-7.8-2.2
			c-2.6,1.1-6,1.7-10.4,1.9c-0.2-0.5-0.4-1.1-0.7-1.5c3.3-0.1,6-0.5,8.1-1c-1.6-0.3-3.3-0.6-5.1-0.9c0.7-0.7,1.6-1.5,2.4-2.3h-5.4
			V14h6.7c0.7-0.8,1.4-1.7,1.9-2.5l1.7,0.5c-0.4,0.6-1,1.3-1.5,1.9h5.9c0.3-0.5,0.5-1.1,0.7-1.7l1.7,0.4c-0.1,0.5-0.3,0.8-0.5,1.2
			h4.2v1.5h-5c-0.7,1.1-1.7,2-2.8,2.8c2.9,0.6,5.6,1.3,7.6,2L649.2,21.4z M637.8,25.1c-1.5,1.6-3.9,3.1-6,4.1c-0.3-0.3-1-1-1.5-1.2
			c2.2-0.8,4.4-2,5.7-3.4L637.8,25.1z M632.4,13.2h-1.7V9.7h9.2c-0.3-0.5-0.6-1-0.9-1.4l1.8-0.4c0.4,0.5,0.9,1.2,1.2,1.8h8.8v3.4
			h-1.7v-1.9h-16.7V13.2z M637.8,15.4c-0.5,0.5-1,1-1.5,1.5c1.6,0.2,3.1,0.5,4.7,0.8c1.2-0.6,2.3-1.4,3.1-2.3H637.8z M644.7,24.3
			c2.2,1,4.9,2.5,6.4,3.7l-1.3,1.3c-1.3-1.2-4.1-2.8-6.3-3.9L644.7,24.3z"/>
	</g>
	<g class="st0">
		<path class="st1" d="M41.1,47.4c-0.5,0.9-1.1,1.8-1.7,2.6v15.7h-1.9V52.4c-2.4,2.8-5.4,5.2-8.7,7c-0.3-0.5-0.8-1.2-1.2-1.6
			c4.7-2.4,8.8-6.4,11.2-10.5H28.2v-1.8h20.5v1.8H41.1z M41.2,51.4c2.8,1.8,6.4,4.5,8.2,6.3L48,59.1c-1.7-1.8-5.3-4.7-8.1-6.5
			L41.2,51.4z"/>
		<path class="st1" d="M62.3,45.5c-0.7,1.9-1.6,4.3-2.4,6.2c1.7,2,2.2,3.7,2.2,5.2c0,1.2-0.3,2.3-0.9,2.8c-0.3,0.3-0.8,0.4-1.3,0.5
			c-0.5,0.1-1.1,0.1-1.6,0c0-0.5-0.2-1.1-0.5-1.6c0.6,0,1,0.1,1.4,0c0.3,0,0.6-0.1,0.7-0.2c0.4-0.3,0.5-0.9,0.5-1.7
			c0-1.3-0.4-3-2.2-4.9c0.7-1.7,1.4-3.8,1.9-5.4h-3.5v19.3h-1.6V44.9h5.7l0.3-0.1L62.3,45.5z M75.4,57.5c-1.2,1-2.8,2.1-4.1,2.9
			c1.2,1.7,2.7,3,4.6,3.8c-0.4,0.3-0.9,1.1-1.2,1.5c-3.7-1.8-6-5.4-7.2-10.2h-2.3v7.9l4.2-1c0,0.5,0,1.2,0.1,1.6
			c-4.9,1.3-5.7,1.6-6.1,1.9c-0.1-0.4-0.5-1.1-0.8-1.5c0.4-0.2,0.9-0.7,0.9-1.7V45H74v10.5h-4.9c0.4,1.3,0.8,2.5,1.4,3.6
			c1.2-0.8,2.8-2,3.7-2.8L75.4,57.5z M65.2,46.6v2.9h7v-2.9H65.2z M65.2,53.9h7v-3h-7V53.9z"/>
		<path class="st1" d="M88.4,58.3c-0.4-0.8-1.4-2.4-2.2-3.6v11.1h-1.8V55.2c-1,2.4-2.2,4.8-3.5,6.3c-0.2-0.5-0.6-1.2-0.9-1.6
			c1.5-1.7,3.2-4.8,4.1-7.5h-3.8v-1.7h4V47c-1.1,0.2-2.2,0.4-3.3,0.6c-0.1-0.4-0.3-1-0.5-1.4c2.7-0.4,5.8-1.1,7.6-1.9l1.1,1.4
			c-0.9,0.4-2,0.7-3.1,1v4h3.5v1.7h-3.5v0.4c0.7,0.8,2.8,3.5,3.3,4.1L88.4,58.3z M99.3,59.5v6.3h-1.8v-6l-7.8,1.3l-0.3-1.7l8.1-1.3
			V43.9h1.8v13.9l2.8-0.4l0.3,1.6L99.3,59.5z M94.6,56.3c-0.9-1.1-2.7-2.5-4.2-3.5l1.1-1.1c1.5,0.9,3.4,2.4,4.3,3.4L94.6,56.3z
			 M95.2,50c-0.7-1-2.4-2.4-3.8-3.4l1.1-1c1.4,0.9,3.1,2.3,3.9,3.3L95.2,50z"/>
		<path class="st1" d="M114.4,59.8c-1.4,1.9-3.6,3.8-5.4,5.1c-0.3-0.3-1.1-0.9-1.5-1.2c1.9-1.2,3.9-2.9,5.1-4.6L114.4,59.8z
			 M118.8,57.8v5.8c0,1-0.2,1.5-1,1.8c-0.7,0.3-2,0.3-3.7,0.3c-0.1-0.5-0.4-1.3-0.7-1.8c1.4,0.1,2.7,0.1,3.1,0
			c0.4,0,0.5-0.1,0.5-0.4V58c-6.5,0.5-7.5,0.6-8.2,0.9c-0.1-0.4-0.3-1.2-0.5-1.7c0.8-0.1,1.8-0.5,3.3-1.2c0.9-0.4,3-1.4,5.3-2.8
			c-5.4,0.3-6.2,0.4-6.7,0.6c-0.1-0.3-0.3-1.2-0.6-1.7c0.6,0,1.2-0.3,1.9-0.7c0.9-0.4,3.5-2,5.5-3.8c-2.9,0.7-5.9,1.4-8.7,1.9
			c-0.1-0.5-0.3-1.1-0.5-1.5c5.4-1,11.5-2.5,14.9-4.1l1.3,1.4c-1.9,0.9-4.3,1.6-6.9,2.3l1.5,1c-1.6,1.2-3.4,2.4-5.1,3.3l5.9-0.3
			c1-0.6,1.9-1.2,2.7-1.9l1.4,1.2c-3.3,2.3-6.6,4.2-10,5.7l10.2-0.7c-0.8-0.8-1.6-1.7-2.3-2.4l1.4-0.7c1.8,1.6,3.9,3.8,4.9,5.3
			l-1.5,0.9c-0.3-0.5-0.8-1.1-1.3-1.7L118.8,57.8z M122.3,58.9c1.9,1.4,4.3,3.4,5.5,4.7l-1.5,1.1c-1.2-1.3-3.5-3.4-5.4-4.8
			L122.3,58.9z"/>
		<path class="st1" d="M135.6,58.2c1.8-0.8,2.9-1.9,3-3.5c-0.1,0-0.3,0-0.4,0c-1,0-1.8-0.6-1.8-1.7s0.8-1.7,1.8-1.7
			c1.3,0,2,1.1,2,2.8c0,2.6-1.6,4.6-4.2,5.4L135.6,58.2z"/>
		<path class="st1" d="M156.4,59.5c-1.8,2.4-4.6,4.8-7.2,6.5c-0.4-0.4-1-0.9-1.4-1.2c2.6-1.5,5.4-3.9,6.8-5.9L156.4,59.5z
			 M166.6,45.7v10.8h-16.3V45.7H166.6z M152.1,54.8h12.6v-7.4h-12.6V54.8z M162.2,58.7c2.4,1.8,5.4,4.3,6.9,6.1l-1.6,1.1
			c-1.4-1.7-4.3-4.4-6.7-6.2L162.2,58.7z"/>
		<path class="st1" d="M190.6,59.1c-0.8,1.3-1.8,2.4-3.1,3.3c2.9,0.7,5.6,1.4,7.6,2.1l-1.6,1.3c-2-0.7-4.7-1.6-7.9-2.3
			c-2.7,1.3-6.2,2-10.7,2.3c-0.1-0.5-0.4-1.2-0.7-1.6c3.5-0.2,6.4-0.6,8.7-1.4c-1.8-0.4-3.7-0.7-5.6-1c0.7-0.8,1.4-1.8,2.2-2.8h-5.2
			v-1.5h6.2c0.6-0.9,1-1.7,1.4-2.5l1.7,0.4c-0.3,0.7-0.7,1.4-1.2,2.1h7c0.2-0.5,0.4-0.9,0.6-1.4l1.7,0.5c-0.1,0.3-0.2,0.6-0.3,0.9
			h4.1v1.5H190.6z M181.1,46.6h-6.5V45h20.5v1.6h-6.7v2h5.7v6.2h-18.3v-6.2h5.3V46.6z M177.5,53.3h3.6V50h-3.6V53.3z M181.4,59.1
			c-0.5,0.7-0.9,1.3-1.3,1.9c1.7,0.3,3.4,0.6,5.1,0.9c1.3-0.7,2.4-1.6,3.3-2.8H181.4z M186.7,46.6h-3.9v2h3.9V46.6z M182.8,53.3h3.9
			V50h-3.9V53.3z M188.4,50v3.2h4V50H188.4z"/>
		<path class="st1" d="M207.4,44.5c-0.7,1.8-1.5,3.5-2.5,5.1v16.1h-1.7V52.3c-0.8,1.1-1.6,2.1-2.4,3c-0.2-0.4-0.7-1.3-1-1.8
			c2.4-2.3,4.6-5.9,5.9-9.5L207.4,44.5z M215.7,50.2v13.5c0,1-0.2,1.5-0.8,1.8c-0.6,0.3-1.7,0.4-3.2,0.4c-0.1-0.5-0.4-1.3-0.6-1.8
			c1.1,0,2.2,0,2.5,0s0.4-0.1,0.4-0.4V50.2h-3.6c-0.7,1.6-1.5,3-2.3,4.1c-0.3-0.3-1-0.9-1.4-1.1c1.8-2.2,3.1-5.6,3.9-9.1l1.8,0.4
			c-0.4,1.4-0.8,2.8-1.3,4.1h9.7l0.3-0.1l1.2,0.3c-0.3,1.8-0.7,3.8-1.1,5.1l-1.5-0.3c0.1-0.9,0.4-2.1,0.6-3.4H215.7z M211.8,54.5
			c-0.8,3.1-2,6.2-3.5,8.2c-0.3-0.3-1.1-0.7-1.5-1c1.5-1.8,2.6-4.7,3.3-7.5L211.8,54.5z M219,53.9c1.4,2.5,2.6,5.8,3,8l-1.7,0.6
			c-0.4-2.2-1.6-5.5-2.9-8.1L219,53.9z"/>
		<path class="st1" d="M245.8,63.7c1,0,1.1-0.6,1.2-3.7c0.4,0.3,1.2,0.6,1.7,0.7c-0.2,3.7-0.7,4.7-2.7,4.7h-3.7
			c-2.2,0-2.8-0.6-2.8-2.5v-7.7l-3.6,0.2c-0.4,5.3-1.7,8.6-7.6,10.4c-0.2-0.5-0.7-1.2-1-1.5c5.4-1.5,6.4-4.3,6.8-8.8
			c-3.4,0.2-4.1,0.3-4.6,0.5c-0.1-0.4-0.4-1.3-0.7-1.8c0.6-0.1,1.2-0.8,2-1.8c0.5-0.5,1.5-1.8,2.7-3.5h-6v-1.7h7.2
			c0.7-1,1.3-2.1,1.9-3.2l2,0.7c-0.5,0.8-1,1.7-1.6,2.5H248v1.7h-12.4c-1.3,1.8-2.6,3.5-4,5l11.2-0.5c-1-1-2.1-2-3.1-2.8l1.4-0.9
			c2.2,1.7,4.7,4.1,5.9,5.8l-1.6,1c-0.3-0.5-0.7-1-1.2-1.6l-3.1,0.2v7.8c0,0.8,0.2,0.9,1.2,0.9H245.8z"/>
		<path class="st1" d="M257,54.2c-0.8-0.7-2.5-1.8-3.9-2.4l1-1.3c1.4,0.6,3.1,1.5,3.9,2.2L257,54.2z M253.6,64.6
			c1-1.8,2.3-4.9,3.3-7.6l1.4,0.9c-0.9,2.5-2.1,5.4-3.1,7.6L253.6,64.6z M255.1,44.2c1.3,0.6,3,1.6,3.8,2.4l-1.1,1.4
			c-0.8-0.8-2.4-1.9-3.8-2.6L255.1,44.2z M267.5,51.3V53h6.7v11c0,0.8-0.2,1.2-0.7,1.5c-0.6,0.2-1.5,0.2-3,0.2
			c-0.1-0.4-0.3-1-0.5-1.4c1,0,1.9,0,2.2,0c0.3,0,0.4,0,0.4-0.3v-2.3c-0.3,0.2-0.6,0.5-0.8,0.8c-0.7-0.7-1.2-1.6-1.6-2.9
			c-0.4,1.2-1,2.2-1.9,3c-0.1-0.2-0.5-0.6-0.8-0.8c1.2-0.9,1.8-2.4,1.9-3.8h0.4c0-0.3-0.1-0.6-0.1-0.9h-1.4v-1.2h2.3
			c0.1,2.7,0.8,4.7,2,5.7v-7.1h-5.1v11h-1.6v-3.6c-0.2,0.2-0.6,0.5-0.7,0.7c-0.6-0.7-1.2-1.7-1.5-2.9c-0.4,1.2-0.9,2.3-1.8,3
			c-0.2-0.2-0.6-0.6-0.8-0.7c1.2-0.9,1.7-2.5,1.9-4h0.4c0-0.3-0.1-0.6-0.1-0.9h-1.4v-1.2h2.3c0.1,2.6,0.7,4.7,1.7,5.7v-7.1H261v11.2
			h-1.6V53h6.4v-1.7h-3.4v-3.6h-3.6v-1.6h3.6v-2.3h1.7v2.3h5.2v-2.3h1.8v2.3h3.8v1.6h-3.8v3.6H267.5z M264.2,49.8h5.2v-2h-5.2V49.8z
			"/>
		<path class="st1" d="M284.3,50.1c-0.3,2-1.3,3.2-3.9,3.9c-0.1-0.4-0.5-0.9-0.8-1.1c2.2-0.5,3-1.3,3.2-2.8H280v-1.3h4.4V47h-3.5
			v-1.3h3.5V44h1.6v1.6h3.6V47H286v1.8h4.3v1.3h-2.9v1.2c0,0.5,0,0.7,0.4,0.7h1.4c0.3,0,0.8,0,1.1-0.1c0,0.4,0.1,0.8,0.1,1.2
			c-0.2,0.1-0.7,0.1-1.1,0.1h-1.7c-1.2,0-1.5-0.5-1.5-1.8v-1.2H284.3z M279.7,65.2c1.2-0.9,2.3-2.6,3-4.2l1.7,0.4
			c-0.6,1.6-1.8,3.4-3,4.4L279.7,65.2z M299.8,58.6c0.2,0,0.3,0,0.4-0.1c0.1-0.1,0.1-0.3,0.2-0.8c0-0.5,0.1-1.5,0.1-2.9
			c0.3,0.3,0.8,0.5,1.2,0.6c0,1.2-0.1,2.8-0.2,3.3c-0.1,0.6-0.3,0.9-0.6,1.1c-0.3,0.2-0.6,0.3-1,0.3H299c-0.4,0-0.9-0.1-1.2-0.5
			c-0.3-0.3-0.4-0.7-0.4-2.3v-8.3H295c-0.1,1.5-0.2,2.9-0.5,4.2c1,0.7,1.9,1.4,2.5,1.9l-0.8,1.5c-0.5-0.5-1.2-1.1-2-1.7
			c-0.6,2.3-1.7,4.2-3.5,5.6c-0.2-0.4-0.8-0.9-1.2-1.2l0.2-0.2c-3.6,0.4-7.2,0.8-9.8,1l-0.2-1.5c1.3-0.1,2.9-0.2,4.6-0.4V56h-3.8
			v-1.4h3.8v-1.7h1.6v1.7h3.7V56H286v2c1.4-0.1,2.9-0.3,4.3-0.4l0,1c1.3-1.2,2-2.8,2.5-4.8c-0.8-0.6-1.5-1.1-2.2-1.6l0.8-1.3
			c0.5,0.4,1.1,0.8,1.7,1.2c0.1-1,0.2-2.1,0.3-3.2h-2.6v-1.6h2.7c0-1.1,0-2.2,0-3.4h1.6c0,1.2,0,2.3-0.1,3.4h3.9v10
			c0,0.6,0,1,0.1,1.1c0.1,0.1,0.2,0.1,0.3,0.1H299.8z M288.4,61.4c0.3,1.3,0.6,3,0.6,4l-1.8,0.2c0-1-0.2-2.7-0.5-4.1L288.4,61.4z
			 M293.2,61.2c0.6,1.3,1.2,3,1.4,4l-1.8,0.4c-0.2-1.1-0.7-2.8-1.3-4.1L293.2,61.2z M298.2,60.9c1.2,1.3,2.5,3.1,3.1,4.3l-1.8,0.6
			c-0.6-1.2-1.8-3-3-4.4L298.2,60.9z"/>
		<path class="st1" d="M305.7,54.6c0.6-1.6,1-4.2,1.2-6.1l1.4,0.2c-0.1,1.9-0.6,4.6-1.1,6.4L305.7,54.6z M309.3,43.9h1.7v21.9h-1.7
			V43.9z M312.3,47.4c0.6,1.1,1.2,2.6,1.5,3.5l-1.3,0.7c-0.3-1-0.9-2.5-1.5-3.7L312.3,47.4z M327.7,51.7V53h-14.6v-1.4h6.3V50h-5
			v-1.3h5v-1.5h-5.7v-1.4h5.7v-1.9h1.8v1.9h5.8v1.4h-5.8v1.5h5.2V50h-5.2v1.7H327.7z M326.2,63.9c0,0.9-0.2,1.4-0.8,1.6
			c-0.7,0.3-1.8,0.3-3.5,0.3c-0.1-0.5-0.3-1.1-0.5-1.5c1.2,0,2.4,0,2.7,0c0.3,0,0.4-0.1,0.4-0.4v-1.8h-8.4c-0.2,1.4-0.7,2.9-1.6,4
			c-0.3-0.4-0.9-1-1.3-1.2c1.3-1.8,1.5-4.2,1.5-6.1v-4.4h11.5V63.9z M324.5,60.8v-1.8h-8.1c0,0.6,0,1.2-0.1,1.8H324.5z M316.4,55.7
			v1.8h8.1v-1.8H316.4z"/>
		<path class="st1" d="M340.7,57l-1.6,1.4c-1.6-1.9-3.6-3.9-5.3-5.3l1.6-1.4C337.1,53.1,339.3,55.2,340.7,57z"/>
		<path class="st1" d="M366.7,59.2c0,0,0,0.5-0.1,0.7c-0.4,3.2-0.8,4.6-1.4,5.2c-0.5,0.4-1,0.5-1.7,0.6c-0.6,0-1.9,0-3.3-0.1
			c0-0.5-0.2-1.1-0.5-1.6c1.3,0.1,2.6,0.2,3,0.2s0.7,0,0.9-0.2c0.4-0.3,0.7-1.3,1-3.3h-7.2c-1.3,2.7-3.8,4.3-9.5,5.2
			c-0.1-0.4-0.5-1.1-0.8-1.5c4.8-0.6,7.2-1.8,8.4-3.7h-7.1v-1.5h7.8c0.1-0.4,0.2-0.9,0.3-1.4h1.8c-0.1,0.5-0.2,0.9-0.3,1.4H366.7z
			 M353.4,47.1c1.2,0.2,2.7,0.6,4.1,1c1.5-0.5,3.1-1.1,4.5-1.8h-13.3V45h15.6l0.4-0.1l1.2,1c-1.8,1.1-4,2.1-6.2,2.9l0.6,0.2
			l-0.4,0.5h6.3v7.2c0,0.9-0.2,1.2-0.9,1.4c-0.7,0.2-1.7,0.2-3.4,0.2c-0.1-0.4-0.4-0.9-0.6-1.2c1.2,0,2.4,0,2.7,0
			c0.4,0,0.5-0.1,0.5-0.4v-0.7h-5.9v1.6h-1.7v-1.6h-5.9v2.3h-1.7v-8.7h8.4c-1.5-0.5-3.4-1-5-1.4L353.4,47.1z M350.8,50.7v1.5h5.9
			v-1.5H350.8z M356.7,54.7v-1.4h-5.9v1.4H356.7z M364.3,50.7h-5.9v1.5h5.9V50.7z M364.3,54.7v-1.4h-5.9v1.4H364.3z"/>
		<path class="st1" d="M382.2,52.8c0,0,0,0.6,0,0.8c-0.3,7.5-0.6,10.1-1.2,10.9c-0.4,0.5-0.8,0.7-1.4,0.7c-0.5,0.1-1.3,0.1-2.2,0
			c0-0.5-0.2-1.2-0.4-1.6c0.8,0.1,1.5,0.1,1.8,0.1c0.3,0,0.5,0,0.7-0.3c0.4-0.5,0.7-2.8,1-9h-3.1c-0.3,4.8-1,8.7-3.1,11.3
			c-0.3-0.4-0.9-1-1.3-1.3c2.6-3.1,2.8-8.4,2.9-14.9h-2.4v-1.7h9.7v1.7h-5.5c0,1.1,0,2.3-0.1,3.3H382.2z M378.2,47.8
			c-0.3-0.9-1.2-2.4-2-3.4l1.6-0.6c0.8,1,1.7,2.4,2.1,3.3L378.2,47.8z M389.9,44.3c-0.1,0.5-0.3,0.9-0.4,1.3
			c1.3,2.5,3.6,5.3,5.9,6.5c-0.4,0.3-1,1-1.3,1.5c-1.9-1.3-4-3.7-5.3-6.2c-1.2,2.7-3,4.9-5.2,6.4c-0.3-0.4-0.8-1-1.2-1.4
			c2.8-1.7,4.9-4.9,6-8.5L389.9,44.3z M385.8,59.7c2.2,1.1,5.1,2.8,6.6,4l-1.2,1.6c-1.4-1.3-4.2-3.1-6.5-4.2L385.8,59.7z
			 M390.3,57.6c-0.9-0.9-2.7-2.3-4.1-3.3l1.2-1.2c1.4,0.9,3.3,2.2,4.2,3.1L390.3,57.6z"/>
		<path class="st1" d="M406.7,55.6c-0.8,0.3-1.7,0.6-2.5,1v7.1c0,1-0.2,1.5-0.8,1.8c-0.6,0.3-1.5,0.4-3,0.3
			c-0.1-0.4-0.3-1.2-0.5-1.7c1,0,2,0,2.3,0c0.3,0,0.4-0.1,0.4-0.4v-6.5l-2.9,1.1l-0.5-1.7c0.9-0.3,2.1-0.7,3.3-1.2v-5.1h-3v-1.7h3
			v-4.8h1.7v4.8h2.4v1.7h-2.4v4.5l2.2-0.8L406.7,55.6z M410.6,44.1h1.7v10.5c0,4.8-0.7,8.6-5.6,11.2c-0.3-0.4-0.8-1-1.2-1.3
			c3.6-1.8,4.8-4.3,5.1-7.3c-1.3,1-2.7,2-3.8,2.9l-1-1.5c1.2-0.7,3.1-2,4.9-3.2v-0.7V44.1z M409,52.7c-0.3-1.4-1.3-3.5-2.4-5.1
			l1.3-0.7c1.1,1.5,2.1,3.6,2.5,5L409,52.7z M419.3,64c0.6,0,0.7-0.7,0.8-3.4c0.4,0.3,1,0.6,1.5,0.7c-0.2,3.2-0.6,4.3-2.2,4.3h-2.5
			c-1.7,0-2.2-0.6-2.2-2.8V44.1h1.7v10.6l0.5-0.4c1.7,1.3,3.7,3.2,4.7,4.4l-1.2,1.3c-0.9-1.1-2.5-2.7-4-4v6.9c0,1,0.1,1.2,0.7,1.2
			H419.3z M421,47.4c-1,1.8-2.2,3.8-3.1,5.2l-1.3-0.7c0.9-1.4,2.1-3.7,2.8-5.3L421,47.4z"/>
		<path class="st1" d="M433,62.1v3.7h-1.7v-3.7h-5.4v-1.6h5.4v-1.7h-4.4v-8.1h10.7v8.1H433v1.7h5.4v1.6H433z M431.6,49.4h-4.9v-4.8
			h4.9V49.4z M430.2,45.9H428v2.3h2.2V45.9z M428.4,54.1h3v-2h-3V54.1z M428.4,57.4h3v-2h-3V57.4z M437.8,49.4h-5v-4.8h5V49.4z
			 M436,52.1h-3.1v2h3.1V52.1z M436,55.4h-3.1v2h3.1V55.4z M436.4,45.9h-2.3v2.3h2.3V45.9z M447.1,53.6c-0.8,2.3-2,4.6-3.5,6.6
			c0.6,2.2,1.4,3.5,2.3,3.6c0.5,0,0.9-1.3,1-3.7c0.3,0.4,1.1,0.8,1.4,1c-0.5,3.8-1.4,4.8-2.4,4.8c-1.6-0.1-2.7-1.5-3.6-4
			c-1.4,1.6-2.9,2.9-4.6,3.7c-0.3-0.4-0.8-0.9-1.3-1.2c2-1,3.8-2.5,5.4-4.4c-0.5-2.1-0.9-4.7-1.2-7.6l-2.6,0.3l-0.2-1.6l2.7-0.3
			c-0.2-2.1-0.3-4.3-0.4-6.7h1.7c0,2.3,0.2,4.5,0.3,6.5l5.6-0.7l0.2,1.6l-5.7,0.7c0.2,2.2,0.5,4.2,0.8,6c1.1-1.7,1.9-3.5,2.5-5.4
			L447.1,53.6z M446,49.1c-0.5-1.1-1.7-2.8-2.8-4.1l1.3-0.7c1.1,1.2,2.4,2.8,2.9,4L446,49.1z"/>
		<path class="st1" d="M454.8,58.2c1.8-0.8,2.9-1.9,3-3.5c-0.1,0-0.3,0-0.4,0c-1,0-1.8-0.6-1.8-1.7s0.8-1.7,1.8-1.7
			c1.3,0,2,1.1,2,2.8c0,2.6-1.6,4.6-4.2,5.4L454.8,58.2z"/>
		<path class="st1" d="M474.8,57.7c1.2,1.9,2.7,4.5,3.3,6.1l-1.6,0.9c-0.3-0.6-0.6-1.5-1.1-2.4c-6,2.1-6.8,2.5-7.3,2.9
			c-0.1-0.5-0.5-1.4-0.7-1.8c0.4-0.2,1-0.6,1-1.5V45.2h9.1v11.3h-7.4v5.9l4.6-1.5c-0.5-0.9-1-1.7-1.4-2.5L474.8,57.7z M470.1,46.8
			v3.1h5.6v-3.1H470.1z M475.7,54.8v-3.3h-5.6v3.3H475.7z M487.5,59.1c0,1-0.2,1.5-0.9,1.8c-0.6,0.3-1.7,0.3-3.5,0.3
			c-0.1-0.5-0.3-1.2-0.5-1.7c1.2,0,2.4,0,2.7,0c0.3,0,0.5-0.1,0.5-0.4V47h-4.3v18.8h-1.8V45.3h7.8V59.1z"/>
		<path class="st1" d="M500.3,45.3c-0.6,1-1.3,2.1-2.2,3.2c1.3,2.6,1.6,5.4,1.6,8.3c0,3.4-0.2,6.4-1.2,7.8c-0.3,0.4-0.8,0.7-1.3,0.8
			c-0.8,0.2-1.8,0.2-2.8,0.1c0-0.6-0.2-1.2-0.5-1.8c1.2,0.1,2,0.1,2.6,0c0.3,0,0.6-0.2,0.7-0.4c0.6-0.8,0.8-3.5,0.8-6.6
			c0-0.4,0-0.9,0-1.3c-1.1,1.8-2.6,3.5-4,4.6c-0.2-0.5-0.6-1.2-1-1.5c1.8-1.2,3.7-3.5,4.7-5.8c-0.2-1-0.4-2-0.9-3c-1,1.1-2,2-3,2.8
			c-0.2-0.5-0.6-1.2-1-1.6c1-0.6,2.2-1.6,3.2-2.7c-0.6-0.9-1.4-1.9-2.4-2.8l1.2-1c0.9,0.8,1.7,1.7,2.3,2.5c0.7-0.8,1.3-1.8,1.8-2.6
			L500.3,45.3z M513.9,59.8c-1.1,1.4-2.7,2.5-4.5,3.4c1.8,0.6,3.9,0.9,6,1.1c-0.4,0.3-0.8,1-1,1.4c-2.4-0.3-4.8-0.9-7-1.7
			c-2.2,0.8-4.6,1.3-7.1,1.7c-0.1-0.4-0.5-1.1-0.8-1.4c2-0.2,4.1-0.6,6-1.2c-1.4-0.7-2.6-1.5-3.6-2.4l0.7-0.3h-1.6v-1.4h11.6
			l0.3-0.1L513.9,59.8z M504.6,47.1h-4v-1.4h4v-1.8h1.6v4.5l1.2-0.7c0.7,0.7,1.5,1.6,1.9,2.1h4.8v1.2h-5.2v1.1h4.6v1.1h-4.6v1.2h4.6
			v1.1h-4.6v1.2h5.5V58h-10.9v0.6h-1.6v-6.3c-0.4,0.5-0.7,0.8-1.1,1.2c-0.3-0.3-0.9-0.8-1.2-1.1c1.3-1.1,2.6-2.7,3.4-4.3l1.5,0.5
			c-0.2,0.5-0.5,0.9-0.8,1.4h3.7c-0.4-0.5-0.8-1-1.2-1.4v0h-1.6V47.1z M507.3,51.1h-3.8v1.1h3.8V51.1z M507.3,53.3h-3.8v1.2h3.8
			V53.3z M507.3,55.6h-3.8v1.2h3.8V55.6z M503.6,60.5c0.9,0.8,2.2,1.5,3.7,2.1c1.5-0.6,2.8-1.3,3.7-2.1H503.6z M510.4,48.6h-1.7
			v-4.7h1.7v1.7h4.6V47h-4.6V48.6z"/>
		<path class="st1" d="M529.6,47.1v18.7h-1.7v-4.3c-3,0.5-6.1,1-8.4,1.3l-0.3-1.8c0.7-0.1,1.5-0.2,2.3-0.3V47.1h-1.9v-1.7h11.6v1.7
			H529.6z M527.9,47.1h-4.7v3.2h4.7V47.1z M527.9,51.9h-4.7v3.3h4.7V51.9z M523.2,60.4c1.5-0.2,3.1-0.4,4.7-0.7v-3h-4.7V60.4z
			 M540.8,47.5c-0.6,5.1-2,9.1-3.9,12.2c1.3,1.9,3,3.5,4.9,4.5c-0.4,0.3-1,1-1.3,1.5c-1.9-1.1-3.5-2.5-4.8-4.3
			c-1.4,1.8-3.1,3.2-4.9,4.3c-0.3-0.5-0.8-1.1-1.2-1.4c1.9-1,3.6-2.5,5-4.4c-1.7-2.8-2.8-6.3-3.6-10.2l1.7-0.3
			c0.6,3.3,1.6,6.3,3,8.9c1.4-2.4,2.4-5.4,3-9h-8.1v-1.8h8.6l0.3-0.1L540.8,47.5z"/>
		<path class="st1" d="M552.2,59.4h4.3V61h-4.3v4.8h-1.7V61h-4.5v-1.5h4.5v-2.6h-4v-1.6h2.2c-0.1-0.8-0.6-2-1.1-2.9L549,52
			c0.6,0.9,1.1,2.1,1.2,2.9l-1.2,0.4h3c0.6-1,1.3-2.4,1.7-3.4l1.5,0.4c-0.5,1-1.1,2.1-1.6,3h2.4v1.6h-3.8V59.4z M556.4,51.9h-10.3
			v-1.6h4.5v-2.4h-3.8v-1.5h3.8V44h1.7v2.4h3.6v1.5h-3.6v2.4h4.2V51.9z M567.2,53.4c-0.5,2.8-1.5,5.5-2.9,7.8c1.1,1.3,2.4,2.3,3.8,3
			c-0.4,0.3-0.9,1-1.2,1.4c-1.3-0.7-2.5-1.8-3.6-3c-1,1.3-2.2,2.4-3.5,3.3c-0.2-0.3-0.5-0.6-0.8-0.9v0.8h-1.6V45h9.3v4.6
			c0,0.9-0.2,1.4-0.9,1.6s-1.9,0.3-3.8,0.3c-0.1-0.5-0.3-1.1-0.6-1.6c1.5,0,2.7,0,3.1,0c0.4,0,0.5-0.1,0.5-0.4v-3h-6v6.5h6.8
			l0.3-0.1L567.2,53.4z M559,64.4c1.2-0.8,2.3-1.9,3.3-3.2c-1.3-1.9-2.3-4.2-3-6.6H559V64.4z M560.7,54.6c0.6,1.8,1.4,3.6,2.4,5.2
			c1-1.6,1.6-3.4,2.1-5.2H560.7z"/>
		<path class="st1" d="M591.6,65.8h-1.8v-1.2h-10.7v1.2h-1.8v-7.9c-1.3,0.5-2.7,0.8-4,1.2c-0.1-0.5-0.6-1.2-0.9-1.6
			c3-0.6,6.2-1.8,9-3.3c-1.2-1.2-3-2.6-4.6-3.8c-0.8,0.6-1.7,1.1-2.7,1.6c-0.3-0.4-0.8-1.1-1.2-1.3c3.9-1.9,6.6-4.5,8-6.8l2,0.4
			c-0.5,0.7-1,1.4-1.6,2h8.5l0.3-0.1l1.2,0.7c-2,3.8-5.4,6.8-9.4,8.9h9.5V65.8z M580,47.9c-0.5,0.5-1.1,1-1.6,1.4
			c1.6,1.2,3.6,2.7,4.8,3.8c2.3-1.4,4.3-3.2,5.7-5.2H580z M589.8,62.9v-5.4h-10.7v5.4H589.8z"/>
		<path class="st1" d="M608.5,53.8h-6.8v12h-1.8V45h8.5V53.8z M601.7,46.6v2.1h5.1v-2.1H601.7z M606.8,52.3V50h-5.1v2.3H606.8z
			 M619.5,63.4c0,1.2-0.3,1.8-1.1,2.1c-0.8,0.3-2.3,0.3-4.4,0.3c-0.1-0.5-0.4-1.3-0.6-1.8c1.6,0.1,3.3,0.1,3.8,0
			c0.4,0,0.6-0.1,0.6-0.6v-9.6h-7V45h8.8V63.4z M612.4,46.6v2.1h5.3v-2.1H612.4z M617.7,52.3V50h-5.3v2.3H617.7z"/>
		<path class="st1" d="M632.2,61c-1.4,1.7-3.7,3.3-5.7,4.4c-0.3-0.3-1-0.9-1.3-1.2c2-0.9,4.2-2.3,5.4-3.8L632.2,61z M646.8,58.3v1.5
			h-9.8v6.1h-1.8v-6.1h-9.8v-1.5H646.8z M632.4,46.4h-6.7v-1.5h20.6v1.5h-6.8v1.8h5.6v5.5h-18v-5.5h5.3V46.4z M628.3,56.7v-1.4h15.5
			v1.4H628.3z M628.8,52.3h3.6v-2.8h-3.6V52.3z M637.8,46.4h-3.8v1.8h3.8V46.4z M634.1,52.3h3.8v-2.8h-3.8V52.3z M639.5,49.6v2.8
			h3.8v-2.8H639.5z M640.8,60.5c1.9,1.1,4.5,2.6,5.8,3.7l-1.4,1c-1.2-1.1-3.7-2.7-5.7-3.8L640.8,60.5z"/>
		<path class="st1" d="M654.5,62.2c0-1.1,0.9-1.9,1.9-1.9s1.9,0.7,1.9,1.9c0,1.2-0.9,1.9-1.9,1.9S654.5,63.4,654.5,62.2z
			 M655.1,48.9L655,46h2.9l0,2.8l-0.6,9.3h-1.6L655.1,48.9z"/>
	</g>
</g>
</svg>
