<?xml version="1.0" encoding="utf-8"?>
<!-- Generator: Adobe Illustrator 24.2.1, SVG Export Plug-In . SVG Version: 6.00 Build 0)  -->
<svg version="1.1" id="圖層_1" xmlns="http://www.w3.org/2000/svg" xmlns:xlink="http://www.w3.org/1999/xlink" x="0px" y="0px"
	 viewBox="0 0 1130.5 191" style="enable-background:new 0 0 1130.5 191;" xml:space="preserve">
<style type="text/css">
	.st0{enable-background:new    ;}
	.st1{fill:#153A71;}
	.st2{fill:none;stroke:#153A71;stroke-width:4;}
</style>
<g>
	<g class="st0">
		<path class="st1" d="M495.7,85.2v10.9H392V85.2h17c-1.3-4.6-4.1-10.6-7-15.2l8.9-3.3H398V55.8h19.7c-1.6-3-3.8-6.4-5.8-9l12-4.3
			c3.2,3.4,6.4,8,7.8,11.3l-4.9,2.1h27.9c2.7-4,5.8-9.3,7.6-13.3l13.3,3.9c-1.9,3.4-4,6.6-6,9.5h20.5v10.9h-14.8l9.6,2.6
			c-2.9,5.8-5.8,11.6-8.3,15.8H495.7z M406.1,101.1h75.6v47.7h-13.9v-3h-48.4v3.4h-13.2V101.1z M413.5,66.7
			c3.3,4.6,6.2,10.6,7.3,14.7l-9.1,3.8h14.4V66.7H413.5z M419.4,111.4v7h48.4v-7H419.4z M467.8,135.3v-7.1h-48.4v7.1H467.8z
			 M448,66.7h-9.2v18.5h9.2V66.7z M465.6,82.6c2.3-4.3,5-11.1,6.6-15.8h-11.4v18.5h13.6L465.6,82.6z"/>
		<path class="st1" d="M620.9,134.2v11.3h-99.7V46.3h97.5v11.3h-45l8.3,2.4c-1.3,3.4-2.6,6.8-4.2,10.1H590c-1-2.8-2.2-5.8-3.4-8.2
			l12-3.5c1.9,3.6,4,8,5.1,11.7H617v10.3h-17v6h13.7v9.2H600v6h13.7v9.3H600v6.3h17.8v10.3H576v3.9h-11.7V91.8
			c-1.5,1.8-3,3.5-4.6,5.1c-0.9-1.6-3-4.6-5-7l-5.7,6.7c-3-3.3-9.5-8-14.6-11.1v48.6H620.9z M534.4,57.6v27.2l6.4-7.4
			c4.2,2.2,9.2,5.2,12.9,8.2c7-7.2,13.2-17.4,17-28h-23.7c5.1,2.6,11.6,6.5,14.8,9.7l-7.6,8.7c-3-3.3-9.6-7.9-14.7-10.7l6.8-7.6
			H534.4z M537.1,122.5c4.2-5.8,10.3-15.2,15.3-23.9l7.6,8c-4,7.9-9.1,16.8-13.8,24.5L537.1,122.5z M588,80.4h-12v6h12V80.4z
			 M588,95.7h-12v6h12V95.7z M588,111.1h-12v6.3h12V111.1z"/>
		<path class="st1" d="M675.9,114c-1.4-3.9-3.9-9.6-6.4-15v50.3H657v-46.1c-3.1,10.6-6.7,20.4-10.8,27c-1.3-3.8-4.2-10-6.3-13.5
			c6.4-9,11.9-25.2,14.8-39h-11.3V65.2H657V42.7h12.4v22.5h11.3v12.7h-11.3v3.6c3,3.9,12.1,19,14.1,22.3L675.9,114z M737.4,101
			c-0.8-1.5-1.7-3-2.8-4.6c-3,9.5-7.1,17.9-12.4,25.2c7.4,6.5,16.4,11.5,27.1,14.6c-3.1,2.9-7.1,8.4-9,12.2
			c-10.8-3.8-19.8-9.3-27.1-16.4c-7.5,7.2-16.5,12.9-27.4,17.3c-1.7-3.1-5.8-8.3-8.6-10.6c10.8-4.1,20-9.8,27.2-16.9
			c-5.1-7.2-9.1-15.2-12.5-24.1c-1.5,1.5-3.1,2.7-4.6,4c-2.1-2.5-6.4-6.3-9.3-8.4c7.2-5.5,14.6-14.7,19-22.2l12,5.5
			c-3.6,5.8-8.3,11.7-13,17l6.6-1.7c2.5,7.2,6,13.8,10.3,19.6c4-5.8,7.1-12.4,9-19.7l11.5,3.1c-4.1-5.8-9.9-12.3-15.2-17.3L726,71
			h-42.4V58.6h25.6c-1.6-4-4.4-8.9-7.2-12.7l12-4.4c3.5,4.2,7.1,10,8.7,14l-7.2,3.1h31V71h-17.9c7,6.5,15,15.2,18.7,21.4L737.4,101z
			"/>
		<path class="st1" d="M868.5,47.1v102.3h-13.2v-4.1H784v4.1h-12.8V47.1H868.5z M855.3,133.1V59.3H784v73.8H855.3z M824.5,117.7
			c-0.3,2.5-0.2,6.3,0,8.2c-19.4,4.8-22.7,5.9-24.6,7.1c-0.5-2.1-1.9-5.6-3.1-7c1.7-0.8,3.8-2.1,3.8-6.4v-4.1
			c-3.1,1.1-6.2,2.2-9,3.1c-1.4-1.8-4.6-5.7-6.5-7.5c7.4-1.5,15.3-3.9,21.7-6.8h-13V87.9h52.6v16.3h-24.5c-3.2,2.6-7.2,5-11.5,7.1
			v9.7L824.5,117.7z M851.3,84.7h-63.4v-7.5h25.4v-4.4h-20.1v-7.3h20.1v-4.8h12.3v4.8h21v7.3h-21v4.4h25.6V84.7z M805,98.4h29.4
			v-4.7H805V98.4z M852.6,110.7c-3,2.3-6.3,4.2-9.6,6c4,2.8,7.5,5.5,10,7.8l-8.7,5.1c-5.7-5.4-17.7-14-27.2-19.8l8.2-4.6
			c3.2,1.9,6.8,4.3,10.6,6.7c3.2-2.2,6.5-4.6,8.7-6.5L852.6,110.7z"/>
		<path class="st1" d="M955.8,87.3c7.5,22.2,21.3,40.1,42.6,48.8c-3.4,2.9-7.9,8.9-10,12.8c-20.6-9.7-33.9-26.3-42.7-48.3
			c-6.2,19-18.5,36.8-42.6,48.4c-2.2-3.8-6.2-8.7-10.1-11.5c26.1-11.6,36.9-30.6,41.4-50.2h-39.2v-14h41.5c1.1-10.7,1-21.1,1.1-30.4
			h14.8c-0.1,9.3-0.2,19.8-1.4,30.4H996v14H955.8z"/>
		<path class="st1" d="M1093.1,107.5c-0.9,7.1-2.8,13.8-6.3,19.8c10.5,5,23.6,8.2,39,9.6c-2.8,3-6.4,8.5-8.1,12.1
			c-15.4-1.9-28.4-5.9-39-12c-5.5,5-13.2,9.2-23.4,12.2c-1.7-3-5.7-8.4-8.4-11.3c9.1-2.1,15.8-5,20.7-8.8c-5.6-4.7-10.1-10.5-14-17
			l11.1-3.4c2.7,4.4,6.4,8.3,10.6,11.7c2.3-4.1,3.5-8.3,4.2-13h-25.4V74.2h26.2v-8h-28.6V55.8c-2.1,4.3-4.3,8.8-6.8,13.1v80.6H1032
			V88.3c-3.1,3.9-6.2,7.5-9.3,10.7c-1.3-3.3-4.9-10.6-7.2-13.9c10.8-10.3,21.4-26.3,27.6-42.5l12.5,4.1c-1,2.4-2.1,4.8-3.1,7.3h27.8
			V43.6h13.5v10.4h30.2v12.3h-30.2v8h27.1v33.3H1093.1z M1080.3,96.6v-1.5v-9.8h-14v11.3H1080.3z M1093.8,85.3v9.9v1.4h14.1V85.3
			H1093.8z"/>
	</g>
	<g class="st0">
		<path class="st2" d="M82.3,142H4.7c0.9-7.7,3.6-14.9,8.1-21.6s13-14.7,25.4-23.9c7.6-5.6,12.4-9.9,14.5-12.8
			c2.1-2.9,3.2-5.7,3.2-8.3c0-2.8-1-5.3-3.1-7.3s-4.7-3-7.9-3c-3.3,0-6,1-8.1,3.1c-2.1,2.1-3.5,5.7-4.2,11L6.6,77.1
			c1-7.3,2.9-13,5.6-17c2.7-4.1,6.5-7.2,11.5-9.4c4.9-2.2,11.8-3.3,20.5-3.3c9.1,0,16.2,1,21.2,3.1c5.1,2.1,9,5.3,11.9,9.6
			c2.9,4.3,4.3,9.1,4.3,14.4c0,5.7-1.7,11.1-5,16.3c-3.3,5.2-9.4,10.8-18.1,17c-5.2,3.6-8.7,6.1-10.4,7.6c-1.8,1.4-3.8,3.3-6.2,5.6
			h40.4V142z"/>
		<path class="st2" d="M106.3,95.1c0-17.7,3.2-30.1,9.6-37.1c6.4-7.1,16.1-10.6,29.1-10.6c6.3,0,11.4,0.8,15.4,2.3
			c4,1.5,7.3,3.6,9.8,6c2.5,2.5,4.5,5.1,6,7.8c1.5,2.7,2.6,5.9,3.5,9.6c1.7,6.9,2.6,14.2,2.6,21.7c0,16.9-2.9,29.2-8.6,37.1
			c-5.7,7.8-15.6,11.7-29.5,11.7c-7.8,0-14.2-1.2-19-3.7s-8.8-6.2-11.9-11c-2.2-3.4-4-8.1-5.2-14.1
			C106.9,108.9,106.3,102.3,106.3,95.1z M131.9,95.2c0,11.8,1,19.9,3.1,24.3c2.1,4.3,5.1,6.5,9.1,6.5c2.6,0,4.9-0.9,6.8-2.8
			c1.9-1.8,3.3-4.8,4.3-8.7c0.9-4,1.4-10.2,1.4-18.6c0-12.4-1-20.7-3.1-24.9c-2.1-4.3-5.2-6.4-9.4-6.4c-4.3,0-7.4,2.2-9.3,6.5
			C132.9,75.4,131.9,83.5,131.9,95.2z"/>
		<path class="st2" d="M281.7,142h-77.6c0.9-7.7,3.6-14.9,8.1-21.6s13-14.7,25.4-23.9c7.6-5.6,12.4-9.9,14.5-12.8
			c2.1-2.9,3.2-5.7,3.2-8.3c0-2.8-1-5.3-3.1-7.3s-4.7-3-7.9-3c-3.3,0-6,1-8.1,3.1c-2.1,2.1-3.5,5.7-4.2,11L206,77.1
			c1-7.3,2.9-13,5.6-17c2.7-4.1,6.5-7.2,11.5-9.4c4.9-2.2,11.8-3.3,20.5-3.3c9.1,0,16.2,1,21.2,3.1c5.1,2.1,9,5.3,11.9,9.6
			c2.9,4.3,4.3,9.1,4.3,14.4c0,5.7-1.7,11.1-5,16.3c-3.3,5.2-9.4,10.8-18.1,17c-5.2,3.6-8.7,6.1-10.4,7.6c-1.8,1.4-3.8,3.3-6.2,5.6
			h40.4V142z"/>
		<path class="st2" d="M364.3,47.4V142h-26.2V80c-4.2,3.2-8.3,5.8-12.3,7.8c-4,2-8.9,3.9-14.9,5.7V72.3c8.8-2.8,15.6-6.2,20.5-10.2
			c4.9-4,8.7-8.9,11.4-14.7H364.3z"/>
	</g>
</g>
</svg>
