<?xml version="1.0" encoding="utf-8"?>
<svg version="1.1" xmlns="http://www.w3.org/2000/svg" xmlns:xlink="http://www.w3.org/1999/xlink" viewBox="0 0 400 116">
    <style type="text/css">
        .st2{ fill:white; }
    </style>
    <g>
        <path class="st2" d="M76.5,83.6c2.3-2.5,3.5-6.7,4-10.7l3.8,1c-0.7,4.4-1.7,8.9-4.2,11.6L76.5,83.6z M77.6,66.1
            c3.1-0.1,6.8-0.2,11-0.4v-3.9H79v-4.3h9.6V54h-9.4V32.4h24.1V54h-9.8v3.4h10v4.3h-10v3.7c3.6-0.2,7.3-0.4,11-0.5l-0.2,4.4
            c-9.5,0.7-19.5,1.1-26.5,1.6L77.6,66.1z M83.4,50.1h5.8V36.3h-5.8V50.1z M86.4,38.4c1,2.8,1.8,6.5,1.9,8.8L85.6,48
            c-0.1-2.4-0.8-6.1-1.7-8.9L86.4,38.4z M89.1,72.7c0.9,3.2,1.5,7.5,1.5,10.3l-3.7,0.5c0-2.8-0.5-7.1-1.3-10.4L89.1,72.7z M94.8,72.2
            c1.3,3,2.5,7,2.9,9.6l-3.6,0.8c-0.3-2.6-1.5-6.7-2.8-9.8L94.8,72.2z M98.9,36.3h-6.1v13.8h6.1V36.3z M93.3,47.4
            c0.9-2.5,2-6.5,2.5-9.2l3.1,1.1c-1.1,3-2.3,6.7-3.3,8.9L93.3,47.4z M100.5,70.8c2.1,2.8,4.1,6.5,5,9.1l-3.7,1.6
            c-0.8-2.6-2.8-6.5-4.7-9.3L100.5,70.8z M119.9,48.3v10.3h10v26.6h-5.3v-2.3h-13.3v2.6h-5.1V58.6h8.3V30.5h5.4v12.7h12.2v5.2H119.9z
             M124.5,63.7h-13.3v14.1h13.3V63.7z"/>
        <path class="st2" d="M194.7,57.5c-2.7,5-6.1,9.5-10.1,13.6c2,5.6,4.3,8.9,6.8,8.9c1.4,0,2.2-2.9,2.5-10.4c1.3,1.3,3.2,2.6,4.7,3.1
            c-1,10.2-2.8,13-7.7,13c-4.6,0-8.1-4-10.7-10.4c-3.7,3.2-7.7,5.9-11.9,8.1c-0.9-1.4-2.4-3.2-3.8-4.5c4.9-2.3,9.6-5.5,13.9-9.2
            c-1.4-4.9-2.5-10.6-3.2-16.8h-13.3v8.4l10-2l0.4,5c-3.4,0.8-7,1.6-10.4,2.3v11.9c0,3.3-0.8,4.9-2.9,5.8c-2.1,0.9-5.5,1.1-10.3,1.1
            c-0.3-1.6-1.3-4.1-2.1-5.6c3.7,0.1,7.1,0.1,8.2,0.1c1.1-0.1,1.4-0.4,1.4-1.3V68c-4.3,0.9-8.2,1.7-11.6,2.5l-1.6-5.6
            c3.5-0.6,8.2-1.4,13.1-2.4V53H144v-5.3h12.1v-8.3c-3.5,0.6-7.1,1.1-10.3,1.5c-0.3-1.3-1-3.4-1.7-4.6c8.3-1.3,17.9-3.2,23.7-5.2
            l3.9,4.7c-2.9,1-6.4,1.8-9.9,2.5v9.4h12.7c-0.5-5.4-0.7-11-0.8-16.7h5.8c-0.1,5.8,0.2,11.5,0.7,16.7h17V53h-16.4
            c0.6,4.5,1.3,8.5,2.2,12.2c2.7-3.1,5-6.4,6.8-9.8L194.7,57.5z M191.6,45.1c-1.7-2.8-5.6-7.1-8.9-10.1l4.2-2.9
            c3.4,2.9,7.4,7,9.2,9.8L191.6,45.1z"/>
        <path class="st2" d="M225.4,69.2h10.2v4.7h-10.2v11.4h-5.2V73.9h-10.7v-4.7h10.7v-5.8h-9.5v-4.7h5c-0.4-1.9-1.5-4.6-2.6-6.7
            l3.7-1.1h-7.4v-4.7h10.7V41h-9v-4.7h9v-5.6h5.2v5.6h8.7V41h-8.7v5.2h10.1v4.7h-6.6l3.9,1c-1.1,2.2-2.4,4.7-3.5,6.8h5.1v4.7h-9V69.2
            z M217.4,50.9c1.3,2.2,2.4,5,2.8,6.8l-2.9,1h7.1c1.3-2.4,2.7-5.5,3.5-7.8H217.4z M262.6,54.5c-1.3,7-3.5,13.5-6.8,19.1
            c2.6,2.9,5.6,5.4,8.9,7.1c-1.3,1-2.9,3.1-3.7,4.4c-3.1-1.7-5.8-4.1-8.3-7c-2.2,2.9-4.9,5.5-7.9,7.5c-0.5-0.8-1.4-1.7-2.3-2.6v2.4
            h-5.1V33.2h23.7v11.3c0,2.6-0.5,4-2.6,4.7c-2,0.8-5,0.8-9.5,0.8c-0.2-1.4-1-3.5-1.7-4.8c3.4,0.1,6.6,0.1,7.4,0.1
            c1-0.1,1.2-0.2,1.2-0.9v-6.4h-13.4v15.4h15.7l1-0.2L262.6,54.5z M242.6,80.9c2.6-2,5-4.4,7-7.1c-2.9-4.5-5.3-9.8-7-15.5V80.9z
             M247.1,57.9c1.3,4,3.1,7.8,5.3,11.2c1.9-3.5,3.3-7.3,4.2-11.2H247.1z"/>
        <path class="st2" d="M323.5,85.5h-5.8v-2.9H293v2.9h-5.6V66.3c-3.1,1-6.3,1.9-9.4,2.7c-0.6-1.6-1.9-3.9-2.9-5.2
            c7.4-1.5,15-4.1,21.8-7.6c-2.7-2.7-6.9-6.1-10.5-8.8c-1.9,1.3-4,2.5-6.2,3.6c-0.8-1.4-2.6-3.5-3.8-4.4c9.7-4.4,16.4-10.7,19.9-16.4
            l6.4,1.3c-1.1,1.6-2.3,3.2-3.7,4.8h19.5l0.9-0.3l3.8,2.3c-4.6,9.1-12.4,16.3-21.5,21.5h21.8V85.5z M294.1,41.4
            c-1.1,1-2.2,1.9-3.2,2.8c3.8,2.7,8.4,6.3,11.2,9c5.1-3.3,9.5-7.2,12.8-11.8H294.1z M317.7,77.5V64.9H293v12.6H317.7z"/>
    </g>
</svg>
