<?xml version="1.0" encoding="utf-8"?>
<!-- Generator: Adobe Illustrator 24.2.1, SVG Export Plug-In . SVG Version: 6.00 Build 0)  -->
<svg version="1.1" id="圖層_1" xmlns="http://www.w3.org/2000/svg" xmlns:xlink="http://www.w3.org/1999/xlink" x="0px" y="0px"
	 viewBox="0 0 1150 66" style="enable-background:new 0 0 1150 66;" xml:space="preserve">
<style type="text/css">
	.st0{fill:#153A71;}
	.st1{enable-background:new    ;}
	.st2{fill:#FFFFFF;}
</style>
<path id="矩形_17" class="st0" d="M20,0h1110c11,0,20,9,20,20v26c0,11-9,20-20,20H20C9,66,0,57,0,46V20C0,9,9,0,20,0z"/>
<g class="st1">
	<path class="st2" d="M15.9,38.8h-3.3v-2.4h3.6l0.8-6.3h-3.6v-2.4h3.9l1-7.8h2.2l-0.9,7.8h5.6l1-7.8h2.2l-0.9,7.8h3.4v2.4h-3.6
		l-0.8,6.3H30v2.4H26l-1,8.7h-2.3l1-8.7h-5.6l-1.1,8.7h-2.2L15.9,38.8z M24.1,36.4l0.8-6.3h-5.7l-0.8,6.3H24.1z"/>
	<path class="st2" d="M56.6,23.5c-0.4,1.2-0.8,2.4-1.3,3.5h12.1v23.4h-2.9v-2.2H45.2v2.2h-2.8V27h10c0.3-1.1,0.7-2.4,0.9-3.5H38.1
		v-2.6h9.8c-0.8-1.3-2.1-3-3.2-4.3l2.5-1.1c1.4,1.3,2.9,3.2,3.6,4.5L49,20.9h10c1.2-1.6,2.6-3.7,3.5-5.3l3.1,0.8
		c-1,1.6-2.2,3.2-3.4,4.5h9.6v2.6H56.6z M64.5,29.5H45.2v3.8h19.4V29.5z M64.5,35.6H45.2v3.9h19.4V35.6z M64.5,45.7v-4H45.2v4H64.5z
		"/>
	<path class="st2" d="M86,27.4v1.3c0,6.4-0.5,15.6-4.4,21.8C81,50,79.8,49.2,79.1,49c3.8-5.9,4.1-14.3,4.1-20.4V17.6h28v9.8H86z
		 M86,20.1v4.6h22.4v-4.6H86z M111.8,30.9v19.5h-2.7v-1.6H88.2V30.9H91v15.3h18.2V30.9H111.8z M98.9,40.8v-5.6h-5.2v-2.4h5.2v-4.5
		h2.6v4.5h5.2v2.4h-5.2v5.6h6.1v2.4h-15v-2.4H98.9z"/>
	<path class="st2" d="M128.6,36v10.8c0,1.6-0.3,2.4-1.3,2.8c-0.9,0.5-2.3,0.6-4.6,0.5c-0.1-0.7-0.5-1.9-0.8-2.7c1.6,0,3,0,3.4,0
		c0.5,0,0.7-0.2,0.7-0.7v-9.9c-1.7,0.6-3.3,1.1-4.7,1.6l-0.7-2.7c1.5-0.4,3.3-1,5.4-1.6v-8.2h-4.9v-2.6h4.9v-7.6h2.6v7.6h4v2.6h-4
		v7.3l3.6-1.2l0.4,2.6L128.6,36z M155.9,31v2h-19.5c0,5.5-0.7,12.8-4.4,17.6c-0.4-0.5-1.4-1.4-2-1.7c3.6-4.6,3.9-11.2,3.9-16.4V18.5
		h10.4c-0.3-0.8-0.7-1.7-1-2.4l2.6-0.6c0.5,1,1.1,2.2,1.4,3.1h8.1v2.2h-19V31H155.9z M144.2,46.8c-2.2,1.3-5,2.6-7,3.5
		c-0.3-0.5-0.9-1.4-1.3-1.8c1.9-0.9,4.7-2.2,6.3-3.3L144.2,46.8z M140.5,29.5v-3.8h-3v-1.8h3v-2.2h2.4v2.2h6.2v-2.2h2.5v2.2h3.3v1.8
		h-3.3v3.8H140.5z M154.4,44.6H138V34.4h16.4V44.6z M140.2,38.6h4.6v-2.4h-4.6V38.6z M140.2,42.8h4.6v-2.5h-4.6V42.8z M142.8,25.7v2
		h6.2v-2H142.8z M152.1,36.2h-4.8v2.4h4.8V36.2z M152.1,40.4h-4.8v2.5h4.8V40.4z M149.4,45.2c2.3,1.1,4.9,2.5,6.4,3.5l-1.5,1.7
		c-1.5-1-4-2.5-6.2-3.6L149.4,45.2z"/>
	<path class="st2" d="M182.6,29.4c2.7,8.4,7.6,15.2,14.9,18.2c-0.7,0.6-1.6,1.8-2.1,2.7c-7.3-3.5-12.1-10.2-15.1-18.8
		c-1.8,7.3-5.9,14.6-15.2,18.8c-0.4-0.8-1.3-1.7-2.1-2.3c9.4-4.1,13.2-11.4,14.8-18.6h-14v-2.9h14.5c0.6-4,0.5-7.8,0.6-10.8h3
		c0,3-0.1,6.8-0.6,10.8H197v2.9H182.6z"/>
	<path class="st2" d="M216.8,34.7l-4.5,1.5V47c0,1.6-0.3,2.4-1.3,2.8c-0.9,0.5-2.4,0.6-4.8,0.6c-0.1-0.8-0.5-1.9-0.8-2.8
		c1.6,0.1,3.1,0.1,3.5,0c0.5,0,0.7-0.2,0.7-0.7V37l-4.5,1.4l-0.7-2.7c1.4-0.4,3.2-1,5.2-1.6v-8.3h-4.7v-2.6h4.7v-7.6h2.7v7.6h4.6
		v2.6h-4.6v7.4l4.1-1.3L216.8,34.7z M238,17.5c0,0,0,0.8,0,1.3c-0.4,8.3-0.8,11.4-1.8,12.5c-0.6,0.8-1.3,1-2.3,1.1
		c-0.9,0.1-2.6,0.1-4.3,0c0-0.8-0.3-1.9-0.8-2.7c1.7,0.2,3.3,0.2,3.9,0.2c0.6,0,0.9,0,1.3-0.4c0.6-0.7,1-3.1,1.3-9.4h-7.9
		c-0.8,5.7-2.7,10.5-8.8,13.3c-0.3-0.7-1.1-1.7-1.7-2.2c5.3-2.2,7-6.4,7.7-11.1h-6.5v-2.6H238z M219.1,34.8h18.4v15.3h-2.8v-1.7
		h-12.8v1.8h-2.7V34.8z M221.8,37.4v8.5h12.8v-8.5H221.8z"/>
	<path class="st2" d="M272.4,37.8c2.4,2,5.9,3.6,9.2,4.5c-0.6,0.5-1.4,1.6-1.8,2.2c-1.9-0.6-3.8-1.5-5.5-2.5c0,0.2,0,0.3-0.1,0.4
		c-0.4,4.5-0.8,6.4-1.7,7.2c-0.6,0.6-1.3,0.8-2.2,0.8c-0.9,0.1-2.7,0.1-4.5-0.1c0-0.6-0.3-1.6-0.7-2.2c1.8,0.2,3.5,0.2,4.1,0.2
		c0.6,0,1,0,1.3-0.3c0.4-0.4,0.8-1.7,1.1-4.6h-8.6c-1.6,3.5-4.8,5.8-11.4,7.1c-0.2-0.6-0.9-1.6-1.4-2.1c5.4-1,8.3-2.6,9.8-5h-7.4
		v-1.3c-1.4,0.7-3,1.4-4.7,2.1c-0.3-0.6-1.1-1.6-1.6-2c3.5-1.1,6.3-2.7,8.5-4.3h-7.6v-2.3h10c0.6-0.7,1.1-1.4,1.5-2.2h-7.1V22.9
		h24.8v10.4h-14.7c-0.4,0.8-0.8,1.5-1.3,2.2h20.3v2.3H272.4z M256.1,20.5h-8.8v-2.2h8.8v-2.6h2.7v2.6h4.5v2.2h-4.5v1.8h-2.7V20.5z
		 M273.2,41.3c-1.5-1-2.9-2.2-4-3.5h-10.8c-1.2,1.2-2.7,2.4-4.4,3.5h7c0.3-0.8,0.5-1.7,0.6-2.7h2.7c-0.2,1-0.3,1.8-0.6,2.7H273.2z
		 M254.3,27.2h19.3v-2.5h-19.3V27.2z M254.3,31.5h19.3V29h-19.3V31.5z M268.8,20.5h-4.1v-2.2h4.1v-2.6h2.8v2.6h9v2.2h-9v1.8h-2.8
		V20.5z"/>
</g>
<g class="st1">
	<path class="st2" d="M337.9,38.8h-3.3v-2.4h3.6l0.8-6.3h-3.6v-2.4h3.9l1-7.8h2.2l-0.9,7.8h5.6l1-7.8h2.2l-0.9,7.8h3.4v2.4h-3.6
		l-0.8,6.3h3.6v2.4H348l-1,8.7h-2.3l1-8.7h-5.6l-1.1,8.7h-2.2L337.9,38.8z M346.1,36.4l0.8-6.3h-5.7l-0.8,6.3H346.1z"/>
	<path class="st2" d="M371.9,16.8c-1.1,2.7-2.5,5.5-4.1,8v25.5h-2.8V29c-1.4,1.9-2.9,3.7-4.5,5.2c-0.3-0.7-1.2-2.1-1.7-2.8
		c4.1-3.6,8-9.4,10.3-15.4L371.9,16.8z M383.7,34.7v11.5h9.8V49h-22.3v-2.7h9.7V34.7H370V32h10.9V22h-8.4v-2.7h20.2V22h-9v10h10.6
		v2.7H383.7z"/>
	<path class="st2" d="M412.5,37.6c0.7-1.6,1.5-3.9,2.1-6.1h-3.6v15.7c0,1.4-0.3,2.2-1.3,2.7c-1,0.4-2.5,0.4-4.7,0.4
		c-0.1-0.7-0.5-1.9-0.9-2.6c1.6,0,3.1,0,3.6,0c0.5,0,0.6-0.2,0.6-0.6V34.9c-1.5,3.6-3.5,7.2-5.5,9.3c-0.3-0.8-1-1.9-1.5-2.6
		c2.4-2.2,4.7-6.3,6.1-10.2h-5.7V29h10.2c-2-1.7-5.5-3.8-8.4-5.1l1.7-1.8c1.2,0.5,2.5,1.1,3.7,1.7c1.4-1.1,2.8-2.4,4-3.8H402v-2.5
		h12.8l0.5-0.1l1.8,1.1c-1.5,2.3-3.9,4.7-6.2,6.5c1.3,0.8,2.4,1.6,3.2,2.3l-1.4,1.6h2.8l0.4-0.2l1.7,0.6c-0.2,0.6-0.4,1.3-0.6,2
		c2.5-0.7,4.9-1.7,6.8-2.9c-1.5-1.4-2.8-2.9-3.9-4.6c-0.9,1-1.8,1.9-2.7,2.7c-0.5-0.5-1.6-1.3-2.3-1.6c3-2.2,5.7-5.7,7.2-9.3
		l2.7,0.7c-0.5,1.1-1.1,2.2-1.7,3.3h12.6v2.4h-2.9c-1.1,2.6-2.6,4.7-4.6,6.5c2.4,1.5,5.2,2.7,8.2,3.3c-0.6,0.6-1.4,1.7-1.8,2.4
		c-3.2-0.9-6.1-2.2-8.6-4c-2.4,1.7-5.2,2.9-8.3,3.9c-0.2-0.4-0.6-1-1-1.5c-0.6,2.2-1.4,4.4-2.2,5.9L412.5,37.6z M434.8,36.9
		c0,0,0,0.8-0.1,1.2c-0.7,7.1-1.4,10-2.5,11.1c-0.6,0.7-1.4,0.9-2.4,1c-0.9,0-2.5,0.1-4.2,0c-0.1-0.8-0.3-1.9-0.8-2.6
		c1.6,0.2,3.2,0.2,3.8,0.2s0.9,0,1.3-0.4c0.7-0.7,1.3-2.8,1.9-8.1h-6.4c-1.3,4.8-4,8.8-10.1,11.1c-0.3-0.6-1.1-1.7-1.7-2.2
		c5.2-1.9,7.6-5.1,8.8-9h-5.9v-2.4h6.5c0.2-1.2,0.4-2.5,0.5-3.8h2.8c-0.1,1.3-0.3,2.5-0.5,3.8H434.8z M421.7,22.1
		c1,1.8,2.5,3.5,4.3,4.9c1.6-1.4,2.8-3,3.7-4.9H421.7z"/>
	<path class="st2" d="M477.5,33.7h-8.2v16.8h-2.8V33.7h-11.6c-0.3,6.3-1.9,12.4-9.7,16.8c-0.4-0.6-1.4-1.7-2-2.1
		c7-4,8.6-9.3,8.9-14.7h-8.5v-2.7h8.5v-8.4c-2.4,0.7-4.9,1.3-7.2,1.9c-0.2-0.7-0.6-1.7-1-2.3c6-1.4,12.7-3.5,16.5-5.8l2.1,2.3
		c-2.1,1.1-4.7,2.1-7.6,3v9.3h11.6V16.5h2.8v14.5h8.2V33.7z"/>
	<path class="st2" d="M497.8,38.4c-0.1-0.6-0.3-1.4-0.6-2.2c-8.8,1.4-10,1.7-10.7,2.1c-0.2-0.6-0.6-1.9-0.9-2.7
		c0.8-0.2,1.7-1.1,2.8-2.5c0.6-0.7,1.8-2.2,3.2-4.3c-4,0.5-4.8,0.7-5.4,0.9c-0.2-0.5-0.6-1.9-0.9-2.6c0.6-0.2,1.3-1,2.1-2.1
		c0.8-1.1,3.4-5.4,5-9.5l2.7,1.1c-1.7,3.6-3.8,7.2-5.9,10.1l4-0.4c1-1.6,2-3.4,2.9-5.1l2.4,1.4c-2.5,4.4-5.5,8.7-8.5,12.2l6.5-1
		c-0.5-1.2-1-2.4-1.4-3.5l2-0.7c1.3,2.5,2.4,5.7,2.8,7.7L497.8,38.4z M489.4,40.4c-0.4,3.2-1.1,6.8-1.9,9.2
		c-0.5-0.3-1.6-0.6-2.2-0.8c0.9-2.3,1.4-5.7,1.8-8.7L489.4,40.4z M493.3,39.8c0.5,2.4,0.9,5.5,1,7.6l-2.2,0.5
		c-0.1-2.1-0.5-5.2-0.9-7.6L493.3,39.8z M497.3,38.9c0.8,2,1.6,4.5,1.9,6.1l-2.1,0.7c-0.3-1.7-1.1-4.3-1.8-6.2L497.3,38.9z
		 M518.5,28.8c-1,5.5-2.9,10.1-5.4,13.8c1.8,2.3,4,4.1,6.7,5.3c-0.6,0.5-1.5,1.6-1.9,2.4c-2.5-1.3-4.7-3.2-6.5-5.4
		c-2,2.4-4.3,4.3-6.7,5.6c-0.4-0.7-1.1-1.7-1.8-2.1c2.5-1.3,4.9-3.3,6.9-5.9c-1.9-3.1-3.3-6.8-4.3-10.8c-0.7,7.6-2.2,13.7-5.6,18.5
		c-0.5-0.5-1.8-1.4-2.5-1.7c5-6.2,5.8-15.9,5.9-28.2h-3.7v-2.7H513l0.5-0.2l1.9,0.3c-0.4,3.1-1.1,7.3-1.7,10.6h2.7l0.5-0.1
		L518.5,28.8z M506.1,20.2c-0.1,2.8-0.2,5.6-0.3,8.1h5.2c0.5-2.5,1-5.7,1.4-8.1H506.1z M507.8,30.9c0.9,3.4,2.1,6.5,3.7,9.2
		c1.7-2.7,3-5.8,3.9-9.2H507.8z"/>
	<path class="st2" d="M545.6,16.7c3.5,5.3,10.1,10.4,16.1,12.9c-0.6,0.6-1.5,1.7-1.9,2.5C554,29.4,548,24.5,544,19.4
		c-3.9,4.8-10.3,10.1-15.7,13c-0.3-0.7-1.1-1.7-1.7-2.3c4.7-2.2,10.4-6.5,14.1-10.7H534v-2.7H545.6z M545.4,46.8h14.8v2.6h-32.1
		v-2.6h14.4v-6.3h-10.6V38h10.6v-5.8h-9v-2.5h21.2v2.5h-9.3V38h10.8v2.5h-10.8V46.8z"/>
	<path class="st2" d="M574.6,39.7c-0.9,2.7-2.5,5.7-3.9,7.6c-0.5-0.3-1.4-1.1-2-1.4c1.5-1.8,2.8-4.4,3.6-6.8L574.6,39.7z
		 M579.3,37.1v13.2h-2.8V37.1h-7.6v-2.4h7.6v-4h-7.8v-2.4h10.5c0.7-1.7,1.6-4.3,2.1-6l2.6,0.5c-0.7,1.8-1.4,3.9-2.1,5.5h4.8v2.4
		h-7.3v4h6.9v2.4H579.3z M586,22h-16.6v-2.4h7.4c-0.5-1.1-1.1-2.4-1.7-3.5l2.7-0.7c0.8,1.3,1.6,2.9,2.1,4.2h6V22z M573.3,28.1
		c-0.2-1.4-0.8-3.6-1.4-5.3l2.2-0.5c0.8,1.6,1.4,3.8,1.6,5.2L573.3,28.1z M582.9,38.9c1.2,1.9,2.5,4.3,3.2,6l-2,1.1
		c-0.6-1.6-2-4.3-3.1-6.1L582.9,38.9z M603.2,31.1H599v19.1h-2.7V31.1h-5.2v1.3c0,5.4-0.5,12.9-4,17.8c-0.5-0.5-1.6-1.4-2.2-1.7
		c3.2-4.6,3.5-11.1,3.5-16.1V19.3c4.3-0.7,9.1-1.8,11.8-3l2.3,2.1c-3.1,1.2-7.5,2.1-11.5,2.7v7.2h12.1V31.1z"/>
	<path class="st2" d="M621.8,34.3c-1.3,0.5-2.7,1-4,1.6v11.3c0,1.6-0.4,2.3-1.3,2.8c-0.9,0.5-2.3,0.6-4.7,0.5
		c-0.1-0.7-0.5-1.8-0.8-2.6c1.6,0,3.2,0,3.6,0c0.5,0,0.6-0.1,0.6-0.7V36.8l-4.5,1.7l-0.7-2.7c1.4-0.5,3.3-1.1,5.2-1.8v-8h-4.7v-2.6
		h4.7v-7.6h2.7v7.6h3.7V26h-3.7V33l3.4-1.3L621.8,34.3z M627.9,16h2.7v16.6c0,7.5-1.1,13.6-8.9,17.7c-0.4-0.6-1.3-1.6-1.9-2.1
		c5.7-2.8,7.5-6.8,8-11.6c-2.1,1.6-4.2,3.2-6,4.5l-1.5-2.4c1.9-1.2,4.9-3.2,7.8-5.1v-1.1V16z M625.4,29.6c-0.5-2.2-2.1-5.5-3.7-8.1
		l2.1-1.1c1.7,2.4,3.3,5.7,4,7.9L625.4,29.6z M641.7,47.4c0.9,0,1.1-1.1,1.2-5.4c0.6,0.5,1.6,1,2.4,1.2c-0.3,5.1-0.9,6.8-3.5,6.8h-4
		c-2.7,0-3.5-0.9-3.5-4.4V16h2.7v16.8l0.7-0.7c2.7,2.1,5.9,5.1,7.4,7l-1.9,2c-1.4-1.7-3.9-4.3-6.3-6.4v10.9c0,1.6,0.2,1.8,1.1,1.8
		H641.7z M644.4,21.3c-1.6,2.8-3.4,6.1-4.9,8.2l-2-1.1c1.5-2.2,3.4-5.9,4.4-8.4L644.4,21.3z"/>
	<path class="st2" d="M663.3,44.5v5.9h-2.7v-5.9h-8.6V42h8.6v-2.7h-7V26.4h16.9v12.8h-7.2V42h8.5v2.5H663.3z M661.1,24.4h-7.8v-7.6
		h7.8V24.4z M659,18.8h-3.5v3.6h3.5V18.8z M656,31.8h4.7v-3.2H656V31.8z M656,37.1h4.7v-3.2H656V37.1z M670.9,24.4H663v-7.6h7.9
		V24.4z M668.1,28.6h-4.9v3.2h4.9V28.6z M668.1,33.9h-4.9v3.2h4.9V33.9z M668.7,18.8h-3.6v3.6h3.6V18.8z M685.6,31
		c-1.3,3.7-3.1,7.3-5.5,10.5c1,3.5,2.2,5.5,3.6,5.6c0.8,0,1.4-2.1,1.6-5.8c0.5,0.6,1.7,1.3,2.2,1.5c-0.8,6-2.2,7.7-3.7,7.6
		c-2.5-0.1-4.3-2.4-5.7-6.4c-2.2,2.5-4.6,4.5-7.3,5.9c-0.5-0.6-1.3-1.5-2.1-2c3.2-1.5,6.1-4,8.5-6.9c-0.8-3.3-1.4-7.4-1.9-12
		l-4.1,0.5l-0.3-2.6l4.2-0.5c-0.3-3.3-0.5-6.9-0.6-10.6h2.7c0.1,3.6,0.3,7.1,0.5,10.3l8.9-1.1l0.3,2.5l-9,1.1
		c0.3,3.5,0.8,6.7,1.3,9.4c1.7-2.6,3.1-5.5,4-8.5L685.6,31z M684,24c-0.8-1.8-2.6-4.5-4.4-6.4l2.1-1.2c1.8,1.9,3.7,4.5,4.6,6.3
		L684,24z"/>
</g>
<g class="st1">
	<path class="st2" d="M743.9,38.9h-3.3v-2.4h3.6l0.8-6.3h-3.6v-2.4h3.9l1-7.8h2.2l-1,7.8h5.6l1-7.8h2.2l-0.9,7.8h3.4v2.4h-3.6
		l-0.8,6.3h3.6v2.4H754l-1,8.7h-2.3l1-8.7h-5.6l-1.1,8.7h-2.2L743.9,38.9z M752.1,36.4l0.8-6.3h-5.7l-0.8,6.3H752.1z"/>
	<path class="st2" d="M780.5,39h-10.2l-2.7,8.5H764l9.5-27.8h3.9l9.5,27.8h-3.7L780.5,39z M779.6,36.2l-1.3-4.3
		c-1-3.2-1.9-6.2-2.8-9.4h-0.2c-0.9,3.3-1.8,6.3-2.8,9.4l-1.4,4.3H779.6z"/>
	<path class="st2" d="M794.6,19.7h3.5v27.8h-3.5V19.7z"/>
	<path class="st2" d="M826.1,29.7v5.2h13.3v2.6h-13.3v9.3h15v2.6h-32.6v-2.6h14.7v-9.3h-13v-2.6h13v-5.2h-8.2v-2.1
		c-1.9,1.1-4,2-6,2.8c-0.4-0.8-1.2-1.9-1.9-2.6c7.1-2.3,14.1-6.8,17.7-12.4l2.6,1.2c-0.3,0.4-0.6,0.9-1,1.4c3.8,4,10.4,8,16.2,9.8
		c-0.7,0.6-1.6,1.7-2,2.5c-2-0.8-4.1-1.7-6.1-2.9v2.4H826.1z M815.6,38.3c1.5,2.1,3,5,3.6,6.8l-2.5,1c-0.5-1.7-2.1-4.8-3.5-6.9
		L815.6,38.3z M834,27.1c-3.4-2-6.8-4.6-9.2-7.1c-2.5,2.7-5.5,5.2-8.9,7.1H834z M829.5,45.3c1.3-1.9,3-4.9,4-7l2.7,1
		c-1.4,2.4-3.1,5.1-4.5,6.9L829.5,45.3z"/>
	<path class="st2" d="M849.7,17.4h17.8v2.5h-17.8V17.4z M866.9,47.3c0,1.2-0.2,1.9-1.1,2.3c-0.8,0.3-2.1,0.4-4.1,0.4
		c-0.1-0.6-0.4-1.6-0.7-2.2c1.4,0,2.7,0,3,0c0.4,0,0.5-0.2,0.5-0.5V34h-12.1v16.3h-2.3V31.8h16.7V47.3z M865.7,29.7h-14.2V22h14.2
		V29.7z M859.6,42v7.4h-2.2V42h-3.9v-1.9h5.2c0.9-1.6,2-3.8,2.5-5.4l1.9,0.8c-0.8,1.5-1.7,3.2-2.5,4.6h2.7V42H859.6z M863.1,24.1
		h-9.2v3.6h9.2V24.1z M855.7,34.8c0.9,1.4,1.8,3.2,2.2,4.4l-1.7,0.6c-0.3-1.2-1.3-3.1-2.1-4.5L855.7,34.8z M881.8,50.5
		c-0.1-0.9-0.3-1.9-0.6-3.1c-4.4,0.8-9,1.6-12.4,2.3l-0.7-2.6c1.7-0.2,3.9-0.6,6.3-1v-8.5h-5.6V23.3h5.6V16h2.5v7.2h5.5v14.3h-5.5
		v8.1l3.6-0.6c-0.5-1.6-1.1-3.3-1.7-4.8l2.1-0.5c1.4,3.3,2.8,7.6,3.2,10.1L881.8,50.5z M870.9,35.1h3.7v-9.4h-3.7V35.1z M880.2,25.7
		h-3.5v9.4h3.5V25.7z"/>
	<path class="st2" d="M903.8,38.5c-0.6-1.3-2.2-3.7-3.5-5.7v17.6h-2.8V33.6c-1.6,3.8-3.5,7.6-5.5,9.9c-0.3-0.8-0.9-1.9-1.4-2.5
		c2.4-2.7,5.1-7.6,6.5-11.9h-6v-2.7h6.4v-5.7c-1.7,0.3-3.5,0.6-5.2,0.9c-0.2-0.6-0.5-1.6-0.8-2.2c4.3-0.7,9.2-1.8,12.1-3l1.7,2.2
		c-1.4,0.6-3.2,1.1-5,1.5v6.3h5.6V29h-5.6v0.7c1.2,1.3,4.4,5.5,5.2,6.5L903.8,38.5z M920.9,40.5v9.9h-2.8v-9.5L905.8,43l-0.5-2.7
		l12.8-2.1V15.7h2.8v22l4.4-0.7l0.4,2.6L920.9,40.5z M913.6,35.4c-1.4-1.7-4.3-4-6.7-5.5l1.7-1.7c2.4,1.5,5.4,3.7,6.8,5.4
		L913.6,35.4z M914.4,25.4c-1.2-1.6-3.8-3.8-6-5.4l1.8-1.6c2.3,1.4,4.9,3.6,6.2,5.2L914.4,25.4z"/>
	<path class="st2" d="M945.3,34.9c-1.5,0.5-3.1,0.9-4.6,1.4V47c0,1.6-0.4,2.4-1.4,2.8c-0.9,0.5-2.5,0.5-5.1,0.5
		c-0.1-0.7-0.5-1.8-0.9-2.6c1.8,0,3.5,0,3.9,0c0.6,0,0.8-0.2,0.8-0.7v-9.9l-4.6,1.3l-0.8-2.8c1.5-0.3,3.3-0.8,5.4-1.4V26h-4.9v-2.7
		h4.9v-7.6h2.8v7.6h4.2V26h-4.2v7.5c1.4-0.4,2.8-0.8,4.2-1.2L945.3,34.9z M965.5,30.7c-1.6,5.2-4.3,9.3-7.7,12.5
		c2.7,2.2,6,3.9,9.8,4.9c-0.6,0.6-1.4,1.7-1.8,2.4c-4-1.2-7.3-3-10.1-5.5c-3.2,2.5-6.9,4.2-10.8,5.4c-0.3-0.8-1-1.9-1.5-2.5
		c3.7-1,7.2-2.6,10.3-4.8c-2.7-2.8-4.7-6.3-6.2-10.4l0.1,0h-1.3V30h8.1v-5.7h-8.9v-2.6h8.9v-6h2.8v6h9.1v2.6h-9.1V30h6l0.5-0.1
		L965.5,30.7z M950.2,32.6c1.3,3.3,3.2,6.3,5.6,8.7c2.6-2.4,4.7-5.3,6.1-8.7H950.2z"/>
	<path class="st2" d="M981.9,28.3v22h-2.7v-22h-4.7v-2.6h4.7v-10h2.7v10h4.5v2.6H981.9z M996,35.6c0,0,0,0.8,0,1.1
		c-0.3,8.6-0.6,11.7-1.4,12.7c-0.5,0.6-1.1,0.9-1.9,1c-0.6,0.1-1.7,0.1-2.8,0c0-0.7-0.3-1.7-0.6-2.2c1.1,0.1,1.9,0.1,2.4,0.1
		c0.4,0,0.7-0.1,0.9-0.4c0.5-0.6,0.8-3.2,1-10h-3c-0.6,5.3-2.1,9.7-5.5,12.7c-0.3-0.5-1.1-1.4-1.6-1.7c3-2.5,4.2-6.3,4.7-10.9h-3.6
		v-2.3h3.8c0.1-1.3,0.1-2.6,0.2-3.9h2.5c0,1.3-0.1,2.7-0.2,3.9H996z M997.3,22.2c-1.3,4.2-4,7.3-9.4,9.3c-0.3-0.6-0.9-1.5-1.4-2
		c4.6-1.6,7-4,8.1-7.3H988v-2.3h7.3c0.3-1.3,0.4-2.7,0.5-4.1h2.6c-0.1,1.5-0.3,2.8-0.5,4.1h9.4c0,0,0,0.7-0.1,1.1
		c-0.5,5.6-1,7.9-1.9,8.8c-0.6,0.6-1.3,0.9-2.2,1c-0.8,0-2.4,0-4,0c-0.1-0.8-0.3-1.7-0.8-2.4c1.6,0.2,3.1,0.2,3.7,0.2
		c0.5,0,0.8,0,1.1-0.3c0.6-0.5,0.9-2.1,1.3-5.9H997.3z M1008.8,35.6c0,0,0,0.8,0,1.1c-0.3,8.6-0.5,11.7-1.3,12.7
		c-0.5,0.6-1.1,0.9-1.9,1c-0.7,0.1-1.9,0.1-3.1,0c-0.1-0.7-0.3-1.7-0.6-2.3c1.1,0.1,2.1,0.1,2.6,0.1s0.7,0,1-0.3
		c0.5-0.6,0.7-3.1,0.9-10h-3.4c-0.6,5.4-2.1,9.7-5.8,12.5c-0.3-0.5-1-1.4-1.6-1.8c3.2-2.4,4.4-6.1,4.9-10.8H997v-2.3h3.7
		c0.1-1.3,0.1-2.6,0.2-4h2.5c0,1.4-0.1,2.7-0.2,4H1008.8z"/>
	<path class="st2" d="M1035.9,16.5c-0.2,0.2-0.4,0.5-0.5,0.7c3.5,3.5,10.1,6.5,16,7.9c-0.6,0.5-1.4,1.5-1.8,2.2
		c-3.1-0.9-6.3-2.2-9.3-3.8v1.2h-13.1v-1c-2.9,1.6-6.2,2.9-9.3,3.9c-0.3-0.5-1.1-1.6-1.6-2.2c6.9-1.8,13.6-5.2,17.2-9.8L1035.9,16.5
		z M1021,26.6h25.4v9.6H1021V26.6z M1023.2,37.9h21.4v12.3h-2.8v-1.1H1026v1.3h-2.8V37.9z M1023.4,34.2h9v-5.7h-9V34.2z M1027.7,29
		c1,1.3,1.9,3.1,2.3,4.3l-2.2,0.8c-0.3-1.2-1.2-3-2.1-4.4L1027.7,29z M1026,39.9v2.6h15.7v-2.6H1026z M1041.7,47.1v-2.6H1026v2.6
		H1041.7z M1038.9,22.6c-1.8-1.1-3.6-2.4-5-3.8c-1.4,1.4-3.1,2.7-4.9,3.8H1038.9z M1043.8,28.5h-9v5.7h9V28.5z M1037.2,33.4
		c0.7-1.3,1.7-3.3,2.1-4.6l2.4,0.8c-0.8,1.6-1.8,3.3-2.6,4.5L1037.2,33.4z"/>
	<path class="st2" d="M1075.3,42.8c-5.9,1.4-12.3,2.9-16.8,3.9l-0.5-2.8l2.7-0.5V17.6h12.3v23.1l2.1-0.5L1075.3,42.8z M1063.2,20.2
		v5.5h7.1v-5.5H1063.2z M1070.3,28.3h-7.1v5.5h7.1V28.3z M1063.2,42.8c2.2-0.5,4.6-1,7.1-1.5v-5h-7.1V42.8z M1091.7,24.3
		c0,0,0,1.1,0,1.4c-0.4,15.9-0.8,21.3-2,23c-0.7,1-1.5,1.3-2.7,1.4c-1.1,0.1-3.2,0-5.2,0c-0.1-0.8-0.3-2-0.8-2.7
		c2.2,0.2,4.1,0.2,4.9,0.2c0.6,0,1.1-0.1,1.4-0.6c1-1.1,1.4-6.2,1.7-20h-5.9c-0.6,9.9-2.7,18.4-10.3,23.5c-0.4-0.7-1.3-1.7-2.1-2.1
		c7.2-4.5,9.1-12.3,9.7-21.4h-6v-2.7h6.2c0.1-2.8,0.1-5.6,0.1-8.5h2.7c0,2.9,0,5.8-0.1,8.5H1091.7z"/>
	<path class="st2" d="M1132.6,24c0,0,0,1.1-0.1,1.5c-0.8,15.6-1.6,21.2-3.3,23.1c-0.9,1.1-1.8,1.4-3.2,1.5c-1.3,0.1-3.8,0-6.1-0.1
		c0-0.8-0.4-2.1-1-2.9c2.6,0.2,5,0.3,6,0.3c0.8,0,1.3-0.1,1.7-0.6c1.4-1.3,2.2-6.6,2.9-20h-13c-0.5,7.9-3,17.1-14.1,23.8
		c-0.5-0.7-1.5-1.8-2.2-2.2c10.3-6.1,12.7-14.4,13.3-21.5h-12.2V24h12.3c0-0.6,0-1.1,0-1.6v-6.6h2.9v6.6c0,0.5,0,1.1,0,1.6H1132.6z"
		/>
</g>
</svg>
