<?xml version="1.0" encoding="utf-8"?>
<!-- Generator: Adobe Illustrator 24.2.1, SVG Export Plug-In . SVG Version: 6.00 Build 0)  -->
<svg version="1.1" id="圖層_1" xmlns="http://www.w3.org/2000/svg" xmlns:xlink="http://www.w3.org/1999/xlink" x="0px" y="0px"
	 viewBox="0 0 517 47" style="enable-background:new 0 0 517 47;" xml:space="preserve">
<style type="text/css">
	.st0{enable-background:new    ;}
	.st1{fill:#404040;}
</style>
<g class="st0">
	<path class="st1" d="M18.3,27.9h5.4v2.5h-5.4v6.1h-2.8v-6.1H9.8v-2.5h5.7v-3.1h-5.1v-2.5h2.7c-0.2-1-0.8-2.5-1.4-3.6l2-0.6h-4v-2.5
		h5.7v-2.8h-4.8v-2.5h4.8v-3h2.8v3h4.6v2.5h-4.6v2.8h5.4v2.5h-3.5l2.1,0.5c-0.6,1.2-1.3,2.5-1.9,3.6h2.7v2.5h-4.8V27.9z M14,18.1
		c0.7,1.2,1.3,2.7,1.5,3.6L14,22.3h3.8c0.7-1.3,1.4-2.9,1.9-4.2H14z M38.1,20.1c-0.7,3.7-1.9,7.2-3.6,10.2c1.4,1.6,3,2.9,4.8,3.8
		c-0.7,0.5-1.5,1.6-2,2.4c-1.6-0.9-3.1-2.2-4.4-3.7c-1.2,1.6-2.6,2.9-4.2,4c-0.3-0.4-0.7-0.9-1.2-1.4v1.3h-2.7V8.7h12.6v6
		c0,1.4-0.3,2.1-1.4,2.5c-1.1,0.4-2.7,0.4-5.1,0.4c-0.1-0.8-0.5-1.9-0.9-2.6c1.8,0.1,3.5,0.1,4,0c0.5,0,0.6-0.1,0.6-0.5v-3.4h-7.2
		v8.2h8.4l0.5-0.1L38.1,20.1z M27.4,34.1c1.4-1.1,2.7-2.3,3.7-3.8c-1.6-2.4-2.8-5.2-3.7-8.3V34.1z M29.9,21.9c0.7,2.1,1.7,4.2,2.8,6
		c1-1.9,1.8-3.9,2.2-6H29.9z"/>
	<path class="st1" d="M70.6,36.6h-3.1v-1.5H54.4v1.5h-3V26.4c-1.7,0.5-3.4,1-5,1.4c-0.3-0.8-1-2.1-1.5-2.8c4-0.8,8-2.2,11.6-4.1
		c-1.4-1.4-3.7-3.3-5.6-4.7c-1,0.7-2.1,1.3-3.3,1.9c-0.4-0.7-1.4-1.9-2-2.4c5.2-2.3,8.7-5.7,10.6-8.7l3.4,0.7
		c-0.6,0.9-1.2,1.7-2,2.6H68l0.5-0.2l2,1.2c-2.4,4.9-6.6,8.7-11.5,11.5h11.6V36.6z M54.9,13.1c-0.6,0.5-1.2,1-1.7,1.5
		c2,1.4,4.5,3.4,6,4.8c2.7-1.8,5.1-3.8,6.8-6.3H54.9z M67.5,32.3v-6.7H54.4v6.7H67.5z"/>
	<path class="st1" d="M90.5,30.4h-6.7v2.7H81V9.3h9.4V30.4z M83.8,12v6.4h3.9V12H83.8z M87.7,27.8V21h-3.9v6.8H87.7z M101.6,13.5
		v3.6h6.7v2.6h-2.6v3.1h3.4v2.6h-3.4v7.9c0,1.5-0.4,2.3-1.4,2.8c-1.1,0.5-2.8,0.5-5.2,0.5c-0.1-0.8-0.6-2-1-2.8
		c1.8,0.1,3.6,0.1,4.1,0.1c0.5,0,0.7-0.2,0.7-0.6v-7.8H91.1v-2.6h11.6v-3.1H92.3v-2.6h6.3v-3.6H91v-2.7h7.6V7.2h2.9v3.6h7.6v2.7
		H101.6z M95.2,26.3c1.4,1.6,3.2,3.8,4,5.3l-2.6,1.6c-0.7-1.4-2.4-3.8-3.8-5.5L95.2,26.3z"/>
	<path class="st1" d="M119.6,19.7v17h-2.9V8.5h11.8v11.1H119.6z M119.6,10.8V13h6v-2.2H119.6z M125.7,17.5v-2.4h-6v2.4H125.7z
		 M143.1,32.9c0,1.7-0.4,2.7-1.5,3.2c-1.1,0.5-2.9,0.5-5.6,0.5c-0.1-0.8-0.5-2.1-0.9-2.9h-8.6v1.6h-2.7V21.9h12v11.7
		c1.6,0.1,3.1,0,3.6,0c0.6,0,0.7-0.2,0.7-0.7V19.7H131V8.5h12.1V32.9z M126.5,24.1v2.5h6.5v-2.5H126.5z M133,31.5v-2.7h-6.5v2.7H133
		z M133.9,10.8V13h6.2v-2.2H133.9z M140.1,17.5v-2.4h-6.2v2.4H140.1z"/>
	<path class="st1" d="M154.3,14.4c0-1.6,1.2-2.7,2.7-2.7c1.5,0,2.7,1.1,2.7,2.7c0,1.6-1.2,2.7-2.7,2.7
		C155.5,17.1,154.3,16,154.3,14.4z M154.3,29.9c0-1.6,1.2-2.7,2.7-2.7c1.5,0,2.7,1.1,2.7,2.7c0,1.5-1.2,2.6-2.7,2.6
		C155.5,32.6,154.3,31.5,154.3,29.9z"/>
	<path class="st1" d="M180.7,25.4c1.6,2.6,3.6,6,4.4,8.2l-2.7,1.5c-0.3-0.8-0.7-1.9-1.3-3c-7.8,2.6-9,3.1-9.7,3.7
		c-0.2-0.9-0.7-2.3-1.2-3c0.6-0.3,1.4-0.9,1.4-2.1V8.9h12.7v15.3h-9.7v7.1l5.2-1.6c-0.6-1.1-1.1-2.1-1.7-3L180.7,25.4z M174.6,11.5
		v3.6h6.7v-3.6H174.6z M181.3,21.5v-3.7h-6.7v3.7H181.3z M197.5,27.4c0,1.5-0.3,2.3-1.2,2.8c-1,0.5-2.4,0.5-4.6,0.5
		c-0.1-0.8-0.4-2-0.9-2.8c1.4,0.1,2.8,0.1,3.2,0c0.4,0,0.6-0.2,0.6-0.6V11.8h-4.9v24.8h-3V9.1h10.8V27.4z"/>
	<path class="st1" d="M230.2,9.3v26.8H227v-2h-15.1v2.1h-3v-27H230.2z M211.9,12.3v7.8H227v-7.8H211.9z M227,31.2v-8.1h-15.1v8.1
		H227z"/>
	<path class="st1" d="M249.3,32.1c1.8,0.6,4.1,0.8,6.9,0.8c1.9,0,11,0,13.4-0.1c-0.5,0.7-1,2-1.2,2.9h-12.2
		c-6.4,0-10.2-0.9-12.6-4.9c-0.4,2.3-0.9,4.4-1.7,6c-0.5-0.4-1.8-1-2.5-1.3c1.7-3.2,2.1-8.3,2.2-13.9l2.8,0.2c0,1.4-0.1,2.9-0.2,4.2
		c0.6,1.9,1.4,3.3,2.4,4.3v-11h-6.3v-2.6h5.7v-3.6H241v-2.6h4.9V7.3h2.8v3.3h4.4v2.6h-4.4v3.6h5.2v2.6h-4.7v4.2h4.4v2.6h-4.4V32.1z
		 M259.8,31.1c-3.3,0-4.3-0.9-4.3-4.4V8.7h12v11.7h-9.2v6.3c0,1.4,0.3,1.7,1.7,1.7h5c1.3,0,1.5-0.8,1.7-4.3c0.6,0.5,1.8,1,2.6,1.2
		c-0.4,4.4-1.2,5.8-4.1,5.8H259.8z M258.4,11.3v6.5h6.3v-6.5H258.4z"/>
	<path class="st1" d="M304.1,32.7v2.8h-28.5v-2.8h12.6v-5.2h-9.7v-2.8h9.7V21h3.1v3.7h10v2.8h-10v5.2H304.1z M300.5,21.8
		c-0.5-0.6-1.1-1.4-1.9-2.2c-16.8,0.7-18.7,0.8-20,1.2c-0.2-0.6-0.6-2.1-1-2.9c0.6-0.1,1.3-0.6,2.2-1.5c0.7-0.6,2.6-2.5,4.3-4.8
		h-7.8V8.9h26.7v2.8h-15c-1.7,2.2-3.5,4.3-5.3,5.9l13.4-0.4c-1.2-1.1-2.4-2.1-3.6-3l2.4-1.6c2.8,2.1,6.5,5.2,8.2,7.5L300.5,21.8z"/>
	<path class="st1" d="M310.4,32c6.9-6.1,10.5-10.7,10.5-14.6c0-2.6-1.4-4.3-4-4.3c-1.9,0-3.4,1.2-4.6,2.6l-2.1-2
		c2-2.2,4.1-3.5,7.2-3.5c4.3,0,7.1,2.8,7.1,7.1c0,4.5-3.6,9.2-8.6,14c1.2-0.1,2.7-0.2,3.8-0.2h5.9v3.1h-15.2V32z"/>
	<path class="st1" d="M332,22.2c0-8.2,3-12.1,7.6-12.1c4.6,0,7.6,4,7.6,12.1c0,8.2-3,12.3-7.6,12.3C334.9,34.5,332,30.4,332,22.2z
		 M343.7,22.2c0-6.8-1.7-9.2-4.1-9.2c-2.4,0-4.1,2.5-4.1,9.2c0,6.8,1.7,9.4,4.1,9.4C342,31.6,343.7,29.1,343.7,22.2z"/>
	<path class="st1" d="M353.3,32c6.9-6.1,10.5-10.7,10.5-14.6c0-2.6-1.4-4.3-4-4.3c-1.9,0-3.4,1.2-4.6,2.6l-2.1-2
		c2-2.2,4.1-3.5,7.2-3.5c4.3,0,7.1,2.8,7.1,7.1c0,4.5-3.6,9.2-8.6,14c1.2-0.1,2.7-0.2,3.8-0.2h5.9v3.1h-15.2V32z"/>
	<path class="st1" d="M376.1,31.1h5.2V14.7H377v-2.3c2.2-0.4,3.8-1,5.1-1.8h2.8v20.5h4.6v3h-13.4V31.1z"/>
	<path class="st1" d="M404.1,8.6h2.6l-8.9,31.3h-2.6L404.1,8.6z"/>
	<path class="st1" d="M412,22.2c0-8.2,3-12.1,7.6-12.1c4.6,0,7.6,4,7.6,12.1c0,8.2-3,12.3-7.6,12.3C414.9,34.5,412,30.4,412,22.2z
		 M423.7,22.2c0-6.8-1.7-9.2-4.1-9.2c-2.4,0-4.1,2.5-4.1,9.2c0,6.8,1.7,9.4,4.1,9.4C422,31.6,423.7,29.1,423.7,22.2z"/>
	<path class="st1" d="M435.6,29.8c0.9,1.1,2.4,1.8,3.9,1.8c2.8,0,5.3-2.3,5.5-9c-1.4,1.7-3.4,2.8-5.2,2.8c-3.9,0-6.6-2.5-6.6-7.4
		c0-4.7,3.2-7.7,7-7.7c4.5,0,8.2,3.6,8.2,11.4c0,9.3-4.2,13-8.8,13c-2.7,0-4.6-1.1-6-2.5L435.6,29.8z M445,19.7
		c-0.4-4.6-2.1-6.8-4.7-6.8c-2,0-3.6,1.8-3.6,4.9c0,3,1.3,4.7,3.8,4.7C441.9,22.6,443.6,21.8,445,19.7z"/>
	<path class="st1" d="M462.6,8.6h2.6l-8.9,31.3h-2.6L462.6,8.6z"/>
	<path class="st1" d="M470.4,32c6.9-6.1,10.5-10.7,10.5-14.6c0-2.6-1.4-4.3-4-4.3c-1.9,0-3.4,1.2-4.6,2.6l-2.1-2
		c2-2.2,4.1-3.5,7.2-3.5c4.3,0,7.1,2.8,7.1,7.1c0,4.5-3.6,9.2-8.6,14c1.2-0.1,2.7-0.2,3.8-0.2h5.9v3.1h-15.2V32z"/>
	<path class="st1" d="M491.9,28.3c0-3.1,2-5.2,4.2-6.3v-0.2c-1.8-1.2-3.2-3-3.2-5.5c0-3.7,2.8-6.1,6.7-6.1c4.1,0,6.7,2.6,6.7,6.2
		c0,2.4-1.6,4.4-3.1,5.5v0.2c2.1,1.2,4,3,4,6.2c0,3.5-3.1,6.2-7.6,6.2C495.2,34.5,491.9,31.9,491.9,28.3z M503.7,28.3
		c0-2.9-2.6-4-5.8-5.3c-1.6,1.1-2.8,2.9-2.8,4.9c0,2.3,2,4,4.5,4C502.1,31.9,503.7,30.5,503.7,28.3z M503.3,16.6
		c0-2.2-1.3-3.8-3.6-3.8c-1.9,0-3.4,1.3-3.4,3.4c0,2.6,2.2,3.7,4.9,4.8C502.5,19.7,503.3,18.2,503.3,16.6z"/>
</g>
</svg>
