<?xml version="1.0" encoding="utf-8"?>
<!-- Generator: Adobe Illustrator 24.2.1, SVG Export Plug-In . SVG Version: 6.00 Build 0)  -->
<svg version="1.1" id="圖層_1" xmlns="http://www.w3.org/2000/svg" xmlns:xlink="http://www.w3.org/1999/xlink" x="0px" y="0px"
	 viewBox="0 0 1038 60" style="enable-background:new 0 0 1038 60;" xml:space="preserve">
<style type="text/css">
	.st0{fill:#153A71;}
	.st1{enable-background:new    ;}
	.st2{fill:#FFFFFF;}
</style>
<path id="矩形_17" class="st0" d="M20,0h998c11,0,20,9,20,20v20c0,11-9,20-20,20H20C9,60,0,51,0,40V20C0,9,9,0,20,0z"/>
<g class="st1">
	<path class="st2" d="M23.2,35h-2.9v-2.1h3.2l0.7-5.5H21v-2.1h3.4l0.9-6.8h1.9l-0.8,6.8h4.9l0.9-6.8h1.9l-0.8,6.8h2.9v2.1H33
		l-0.7,5.5h3.1V35h-3.4l-0.9,7.5h-2l0.9-7.5h-4.9l-0.9,7.5h-1.9L23.2,35z M30.4,32.9l0.7-5.5h-4.9l-0.7,5.5H30.4z"/>
	<path class="st2" d="M58.6,21.8c-0.4,1.1-0.7,2.1-1.1,3H68v20.3h-2.5v-1.9H48.7v1.9h-2.4V24.8h8.6c0.3-1,0.6-2.1,0.8-3H42.5v-2.3
		H51c-0.7-1.1-1.8-2.6-2.8-3.7l2.1-0.9c1.2,1.2,2.5,2.8,3.1,3.9L52,19.5h8.7c1.1-1.4,2.3-3.2,3-4.6l2.7,0.7
		c-0.9,1.4-1.9,2.8-2.9,3.9h8.3v2.3H58.6z M65.5,27H48.7v3.3h16.8V27z M65.5,32.2H48.7v3.4h16.8V32.2z M65.5,41v-3.5H48.7V41H65.5z"
		/>
	<path class="st2" d="M84.1,25.1v1.1c0,5.5-0.5,13.6-3.9,18.9c-0.5-0.4-1.5-1-2.1-1.3c3.3-5.1,3.6-12.4,3.6-17.7v-9.6H106v8.5H84.1z
		 M84.1,18.8v4h19.4v-4H84.1z M106.6,28.1v17h-2.3v-1.4H86.1V28.2h2.4v13.3h15.8V28.1H106.6z M95.3,36.8v-4.9h-4.5v-2.1h4.5v-3.9
		h2.2v3.9h4.6v2.1h-4.6v4.9h5.3v2h-13v-2H95.3z"/>
	<path class="st2" d="M121.2,32.6V42c0,1.4-0.3,2-1.1,2.5c-0.8,0.4-2,0.5-4,0.5c-0.1-0.6-0.4-1.7-0.7-2.4c1.4,0,2.6,0,2.9,0
		c0.4,0,0.6-0.1,0.6-0.6v-8.6c-1.5,0.5-2.8,1-4.1,1.4l-0.6-2.4c1.3-0.3,2.9-0.9,4.7-1.4v-7.1h-4.2v-2.3h4.2V15h2.3v6.6h3.5v2.3h-3.5
		v6.4l3.1-1.1l0.3,2.3L121.2,32.6z M144.8,28.2V30h-16.9c0,4.8-0.6,11.1-3.9,15.2c-0.3-0.4-1.2-1.2-1.7-1.5c3.1-4,3.4-9.7,3.4-14.2
		V17.4h9c-0.3-0.7-0.6-1.5-0.9-2.1l2.3-0.6c0.4,0.8,1,1.9,1.3,2.7h7v1.9h-16.5v8.9H144.8z M134.7,42c-1.9,1.1-4.3,2.2-6,3.1
		c-0.2-0.5-0.8-1.2-1.2-1.6c1.6-0.8,4.1-1.9,5.4-2.8L134.7,42z M131.4,26.9v-3.3h-2.6v-1.6h2.6v-1.9h2v1.9h5.4v-1.9h2.1v1.9h2.9v1.6
		H141v3.3H131.4z M143.5,40.1h-14.3v-8.9h14.3V40.1z M131.2,34.9h4v-2.1h-4V34.9z M131.2,38.5h4v-2.1h-4V38.5z M133.5,23.7v1.7h5.4
		v-1.7H133.5z M141.5,32.8h-4.2v2.1h4.2V32.8z M141.5,36.4h-4.2v2.1h4.2V36.4z M139.2,40.6c2,1,4.2,2.2,5.6,3l-1.3,1.5
		c-1.3-0.9-3.5-2.1-5.4-3.2L139.2,40.6z"/>
	<path class="st2" d="M168.1,26.9c2.3,7.3,6.6,13.2,13,15.8c-0.6,0.6-1.4,1.6-1.8,2.3c-6.3-3-10.5-8.8-13.1-16.3
		c-1.6,6.3-5.1,12.7-13.2,16.3c-0.4-0.7-1.2-1.5-1.8-2c8.2-3.6,11.5-9.9,12.8-16.1h-12.2v-2.5h12.6c0.5-3.5,0.5-6.8,0.5-9.4h2.6
		c0,2.6-0.1,5.9-0.5,9.4h13.6v2.5H168.1z"/>
	<path class="st2" d="M197.7,31.4l-3.9,1.3v9.4c0,1.4-0.3,2-1.2,2.5c-0.8,0.4-2,0.5-4.2,0.5c-0.1-0.7-0.4-1.7-0.7-2.4
		c1.4,0.1,2.7,0.1,3.1,0c0.4,0,0.6-0.1,0.6-0.6v-8.6l-3.9,1.3l-0.6-2.3c1.3-0.4,2.8-0.8,4.5-1.4v-7.2h-4.1v-2.3h4.1V15h2.4v6.6h4
		v2.3h-4v6.5l3.5-1.1L197.7,31.4z M216.1,16.6c0,0,0,0.7,0,1.1c-0.4,7.2-0.7,9.9-1.6,10.9c-0.5,0.7-1.1,0.9-2,1
		c-0.8,0.1-2.2,0.1-3.7,0c0-0.7-0.3-1.7-0.7-2.3c1.5,0.1,2.9,0.1,3.4,0.1c0.5,0,0.8,0,1.1-0.3c0.5-0.6,0.9-2.7,1.2-8.2h-6.8
		c-0.7,5-2.4,9.1-7.6,11.6c-0.3-0.6-1-1.5-1.5-1.9c4.6-1.9,6.1-5.6,6.7-9.6h-5.6v-2.3H216.1z M199.7,31.6h15.9v13.3h-2.4v-1.5h-11.1
		v1.6h-2.4V31.6z M202.1,33.8v7.4h11.1v-7.4H202.1z"/>
	<path class="st2" d="M246,34.2c2.1,1.7,5.1,3.2,8,3.9c-0.6,0.4-1.2,1.4-1.6,1.9c-1.6-0.5-3.3-1.3-4.8-2.2c0,0.1,0,0.3-0.1,0.3
		c-0.4,3.9-0.7,5.6-1.5,6.3c-0.5,0.5-1.1,0.7-1.9,0.7c-0.8,0.1-2.3,0.1-3.9-0.1c0-0.6-0.3-1.4-0.6-1.9c1.6,0.1,3.1,0.2,3.6,0.2
		c0.6,0,0.9,0,1.1-0.3c0.4-0.4,0.7-1.5,0.9-4h-7.5c-1.4,3-4.2,5-9.9,6.2c-0.2-0.6-0.8-1.4-1.2-1.8c4.7-0.8,7.2-2.2,8.5-4.3h-6.4
		v-1.1c-1.3,0.6-2.6,1.3-4.1,1.8c-0.3-0.6-0.9-1.4-1.4-1.8c3.1-1,5.5-2.3,7.4-3.8h-6.6v-2h8.7c0.5-0.6,1-1.3,1.3-1.9h-6.2v-9.1h21.6
		v9.1h-12.7c-0.3,0.7-0.7,1.3-1.2,1.9h17.6v2H246z M231.9,19.2h-7.6v-1.9h7.6V15h2.4v2.3h3.9v1.9h-3.9v1.6h-2.4V19.2z M246.7,37.2
		c-1.3-0.9-2.5-1.9-3.5-3h-9.4c-1.1,1.1-2.3,2.1-3.9,3h6c0.3-0.7,0.4-1.5,0.6-2.3h2.3c-0.1,0.8-0.3,1.6-0.5,2.3H246.7z M230.3,25
		h16.8v-2.1h-16.8V25z M230.3,28.7h16.8v-2.1h-16.8V28.7z M242.8,19.2h-3.6v-1.9h3.6V15h2.4v2.3h7.8v1.9h-7.8v1.6h-2.4V19.2z"/>
</g>
<g class="st1">
	<path class="st2" d="M315.2,35.1h-2.9V33h3.2l0.7-5.5H313v-2.1h3.4l0.9-6.8h1.9l-0.8,6.8h4.9l0.9-6.8h1.9l-0.8,6.8h2.9v2.1H325
		l-0.7,5.5h3.1v2.1h-3.4l-0.9,7.5h-2l0.9-7.5h-4.9l-0.9,7.5h-1.9L315.2,35.1z M322.4,33l0.7-5.5h-4.9l-0.7,5.5H322.4z"/>
	<path class="st2" d="M344.8,15.9c-1,2.4-2.2,4.8-3.5,7v22.2h-2.4V26.5c-1.3,1.7-2.5,3.2-3.9,4.5c-0.3-0.6-1-1.8-1.5-2.4
		c3.6-3.2,7-8.2,9-13.4L344.8,15.9z M355.1,31.5v10h8.5v2.4h-19.3v-2.4h8.4v-10h-9.4v-2.4h9.4v-8.7h-7.3v-2.3h17.6v2.3h-7.9v8.7h9.2
		v2.4H355.1z"/>
	<path class="st2" d="M380,34c0.6-1.4,1.3-3.4,1.8-5.3h-3.2v13.6c0,1.3-0.3,1.9-1.1,2.3c-0.9,0.3-2.1,0.4-4.1,0.4
		c-0.1-0.6-0.4-1.6-0.8-2.2c1.4,0,2.7,0,3.1,0c0.4,0,0.5-0.1,0.5-0.5V31.7c-1.3,3.2-3,6.3-4.8,8.1c-0.3-0.7-0.9-1.7-1.3-2.3
		c2-1.9,4.1-5.5,5.3-8.8h-5v-2.1h8.8c-1.7-1.5-4.8-3.3-7.3-4.4l1.5-1.6c1,0.4,2.1,1,3.2,1.5c1.2-0.9,2.5-2.1,3.5-3.3h-9.3v-2.1H382
		l0.4-0.1l1.6,1c-1.3,2-3.4,4.1-5.4,5.6c1.1,0.7,2.1,1.4,2.8,2l-1.3,1.4h2.4l0.4-0.1l1.5,0.5c-0.2,0.6-0.3,1.2-0.5,1.8
		c2.2-0.6,4.2-1.5,5.9-2.5c-1.3-1.2-2.5-2.5-3.4-4c-0.8,0.9-1.6,1.7-2.4,2.3c-0.5-0.4-1.4-1.1-2-1.4c2.6-1.9,5-4.9,6.3-8.1l2.3,0.6
		c-0.4,1-1,1.9-1.5,2.8h11v2.1h-2.5c-0.9,2.2-2.3,4.1-4,5.6c2.1,1.3,4.5,2.3,7.2,2.9c-0.5,0.5-1.2,1.5-1.6,2.1
		c-2.8-0.8-5.3-1.9-7.5-3.5c-2.1,1.5-4.5,2.5-7.2,3.4c-0.2-0.3-0.5-0.8-0.9-1.3c-0.6,1.9-1.2,3.8-1.9,5.1L380,34z M399.4,33.4
		c0,0,0,0.7-0.1,1.1c-0.6,6.1-1.2,8.6-2.2,9.6c-0.6,0.6-1.2,0.8-2,0.9c-0.8,0-2.2,0.1-3.7,0c-0.1-0.7-0.3-1.7-0.7-2.3
		c1.4,0.1,2.7,0.2,3.3,0.2c0.5,0,0.8,0,1.1-0.3c0.6-0.6,1.1-2.5,1.6-7h-5.5c-1.2,4.2-3.5,7.6-8.7,9.7c-0.3-0.6-1-1.5-1.5-1.9
		c4.6-1.7,6.6-4.4,7.7-7.8h-5.1v-2h5.7c0.2-1.1,0.3-2.1,0.4-3.3h2.5c-0.1,1.1-0.3,2.2-0.5,3.3H399.4z M388,20.5
		c0.9,1.6,2.2,3,3.7,4.3c1.4-1.2,2.4-2.6,3.2-4.3H388z"/>
	<path class="st2" d="M436.5,30.6h-7.1v14.6h-2.5V30.6h-10.1c-0.3,5.4-1.7,10.8-8.4,14.6c-0.4-0.6-1.2-1.5-1.7-1.8
		c6.1-3.4,7.5-8.1,7.7-12.8H407v-2.4h7.4v-7.3c-2.1,0.6-4.2,1.2-6.3,1.6c-0.1-0.6-0.5-1.5-0.9-2c5.2-1.2,11-3,14.3-5l1.8,2
		c-1.8,1-4.1,1.8-6.6,2.6v8.1h10V15.6h2.5v12.6h7.1V30.6z"/>
	<path class="st2" d="M454.1,34.7c-0.1-0.6-0.3-1.2-0.5-1.9c-7.6,1.2-8.6,1.5-9.3,1.8c-0.1-0.5-0.5-1.7-0.8-2.3
		c0.7-0.1,1.5-1,2.4-2.1c0.5-0.6,1.6-1.9,2.8-3.7c-3.5,0.4-4.2,0.6-4.7,0.8c-0.1-0.5-0.5-1.7-0.8-2.2c0.6-0.1,1.2-0.8,1.8-1.8
		c0.7-1,3-4.7,4.3-8.3l2.3,1c-1.5,3.1-3.3,6.2-5.1,8.7l3.5-0.3c0.9-1.4,1.7-2.9,2.5-4.4l2.1,1.3c-2.2,3.8-4.8,7.6-7.4,10.6l5.7-0.8
		c-0.4-1-0.8-2.1-1.2-3l1.7-0.6c1.1,2.2,2.1,5,2.4,6.7L454.1,34.7z M446.9,36.4c-0.3,2.8-1,5.9-1.7,8c-0.4-0.2-1.4-0.6-1.9-0.7
		c0.8-2,1.3-5,1.6-7.6L446.9,36.4z M450.2,35.9c0.4,2.1,0.8,4.8,0.9,6.6l-1.9,0.4c-0.1-1.8-0.4-4.5-0.8-6.6L450.2,35.9z M453.7,35.1
		c0.7,1.7,1.4,3.9,1.7,5.3l-1.8,0.6c-0.2-1.5-1-3.7-1.6-5.4L453.7,35.1z M472.1,26.4c-0.9,4.8-2.5,8.8-4.7,11.9
		c1.6,2,3.5,3.6,5.8,4.6c-0.6,0.5-1.3,1.4-1.7,2c-2.2-1.1-4.1-2.7-5.6-4.7c-1.7,2-3.7,3.7-5.8,4.9c-0.3-0.6-1-1.5-1.6-1.8
		c2.2-1.2,4.2-2.9,6-5.1c-1.6-2.7-2.8-5.9-3.7-9.3c-0.6,6.6-1.9,11.9-4.9,16c-0.4-0.4-1.6-1.2-2.1-1.5c4.3-5.4,5-13.8,5.1-24.5h-3.2
		v-2.3h11.7l0.4-0.1l1.7,0.3c-0.4,2.7-0.9,6.3-1.5,9.2h2.3l0.4-0.1L472.1,26.4z M461.3,18.9c-0.1,2.5-0.1,4.9-0.3,7.1h4.5
		c0.4-2.2,0.9-5,1.2-7.1H461.3z M462.8,28.1c0.8,2.9,1.8,5.7,3.2,8c1.5-2.3,2.6-5,3.4-8H462.8z"/>
	<path class="st2" d="M495.6,15.9c3.1,4.6,8.7,9,14,11.2c-0.5,0.5-1.3,1.5-1.7,2.1c-5-2.3-10.2-6.6-13.6-11
		c-3.4,4.2-9,8.8-13.6,11.3c-0.3-0.6-1-1.5-1.5-2c4.1-1.9,9-5.6,12.3-9.3h-5.9v-2.3H495.6z M495.5,42h12.9v2.2h-27.9V42H493v-5.5
		h-9.2v-2.2h9.2v-5h-7.8V27h18.4v2.2h-8.1v5h9.4v2.2h-9.4V42z"/>
	<path class="st2" d="M520.8,35.9c-0.8,2.3-2.2,4.9-3.4,6.6c-0.4-0.3-1.2-0.9-1.7-1.2c1.3-1.6,2.4-3.8,3.1-5.9L520.8,35.9z
		 M524.9,33.5V45h-2.4V33.5h-6.6v-2.1h6.6V28h-6.7v-2.1h9.1c0.6-1.5,1.4-3.7,1.8-5.2l2.2,0.5c-0.6,1.6-1.2,3.4-1.8,4.8h4.2V28h-6.3
		v3.5h6v2.1H524.9z M530.7,20.5h-14.5v-2h6.5c-0.4-1-1-2.1-1.5-3l2.4-0.6c0.7,1.1,1.4,2.5,1.8,3.6h5.2V20.5z M519.7,25.8
		c-0.2-1.2-0.7-3.1-1.3-4.6l1.9-0.5c0.7,1.4,1.2,3.3,1.4,4.5L519.7,25.8z M528,35.1c1.1,1.6,2.2,3.8,2.8,5.2l-1.7,1
		c-0.5-1.4-1.7-3.7-2.7-5.3L528,35.1z M545.6,28.3H542V45h-2.4V28.3h-4.5v1.2c0,4.7-0.4,11.2-3.4,15.5c-0.4-0.5-1.4-1.2-1.9-1.5
		c2.8-4,3-9.6,3-14V18.1c3.7-0.6,7.9-1.6,10.3-2.6l2,1.8c-2.7,1-6.5,1.8-10,2.4V26h10.5V28.3z"/>
	<path class="st2" d="M561.8,31.1c-1.2,0.5-2.3,0.9-3.4,1.4v9.8c0,1.4-0.3,2-1.2,2.4c-0.8,0.4-2,0.5-4.1,0.5
		c-0.1-0.6-0.4-1.6-0.7-2.3c1.4,0,2.7,0,3.1,0c0.4,0,0.6-0.1,0.6-0.6v-8.9l-3.9,1.5l-0.6-2.3c1.3-0.4,2.8-1,4.6-1.6v-7h-4.1v-2.3
		h4.1V15h2.3v6.6h3.2v2.3h-3.2V30l3-1.1L561.8,31.1z M567.1,15.2h2.3v14.5c0,6.5-1,11.8-7.8,15.4c-0.4-0.6-1.2-1.4-1.7-1.8
		c5-2.5,6.5-5.9,7-10.1c-1.8,1.4-3.7,2.8-5.2,3.9l-1.3-2c1.7-1,4.2-2.7,6.7-4.5v-1V15.2z M564.9,27c-0.4-1.9-1.8-4.8-3.2-7l1.8-1
		c1.5,2.1,2.9,5,3.4,6.9L564.9,27z M579.1,42.5c0.8,0,1-1,1.1-4.7c0.6,0.5,1.4,0.9,2.1,1c-0.2,4.4-0.8,5.9-3,5.9h-3.4
		c-2.4,0-3-0.8-3-3.8V15.2h2.3v14.6l0.6-0.6c2.3,1.8,5.1,4.5,6.4,6l-1.6,1.7c-1.2-1.5-3.4-3.7-5.4-5.5v9.4c0,1.4,0.2,1.6,1,1.6
		H579.1z M581.5,19.8c-1.4,2.4-3,5.3-4.3,7.1l-1.8-1c1.3-1.9,2.9-5.1,3.8-7.3L581.5,19.8z"/>
	<path class="st2" d="M597.9,40v5.1h-2.3V40h-7.5v-2.2h7.5v-2.3h-6.1V24.3h14.7v11.2h-6.3v2.3h7.4V40H597.9z M596,22.6h-6.8V16h6.8
		V22.6z M594.1,17.7h-3v3.1h3V17.7z M591.5,29h4.1v-2.7h-4.1V29z M591.5,33.5h4.1v-2.8h-4.1V33.5z M604.4,22.6h-6.9V16h6.9V22.6z
		 M602,26.2h-4.2V29h4.2V26.2z M602,30.8h-4.2v2.8h4.2V30.8z M602.5,17.7h-3.1v3.1h3.1V17.7z M617.2,28.3c-1.1,3.2-2.7,6.4-4.8,9.1
		c0.9,3,1.9,4.8,3.1,4.9c0.7,0,1.2-1.8,1.4-5c0.5,0.5,1.5,1.1,1.9,1.3c-0.7,5.2-1.9,6.7-3.2,6.6c-2.1-0.1-3.8-2.1-5-5.5
		c-1.9,2.1-4,3.9-6.3,5.1c-0.4-0.6-1.2-1.3-1.8-1.7c2.8-1.3,5.3-3.4,7.4-6c-0.7-2.9-1.2-6.4-1.6-10.4l-3.5,0.5l-0.3-2.2l3.7-0.5
		c-0.2-2.9-0.4-6-0.5-9.2h2.3c0.1,3.1,0.2,6.1,0.5,8.9l7.7-1l0.3,2.2l-7.8,1c0.3,3.1,0.7,5.8,1.2,8.2c1.5-2.3,2.7-4.8,3.5-7.4
		L617.2,28.3z M615.8,22.2c-0.7-1.6-2.3-3.9-3.8-5.6l1.8-1c1.6,1.7,3.2,3.9,4,5.4L615.8,22.2z"/>
</g>
<g class="st1">
	<path class="st2" d="M680.2,35.1h-2.9V33h3.2l0.7-5.5H678v-2.1h3.4l0.9-6.8h1.9l-0.8,6.8h4.9l0.9-6.8h1.9l-0.8,6.8h2.9v2.1H690
		l-0.7,5.5h3.1v2.1h-3.4l-0.9,7.5h-2l0.9-7.5h-4.9l-0.9,7.5h-1.9L680.2,35.1z M687.4,33l0.7-5.5h-4.9l-0.7,5.5H687.4z"/>
	<path class="st2" d="M712,35.2h-8.8l-2.3,7.4h-3.1l8.2-24.2h3.4l8.2,24.2h-3.2L712,35.2z M711.2,32.8l-1.2-3.7
		c-0.9-2.7-1.6-5.4-2.4-8.2h-0.1c-0.8,2.8-1.6,5.4-2.4,8.2l-1.2,3.7H711.2z"/>
	<path class="st2" d="M724.2,18.4h3.1v24.2h-3.1V18.4z"/>
	<path class="st2" d="M751.6,27.1v4.5h11.5v2.2h-11.5v8.1h13v2.3h-28.4v-2.3h12.8v-8.1h-11.3v-2.2h11.3v-4.5h-7.1v-1.8
		c-1.7,0.9-3.5,1.7-5.2,2.4c-0.4-0.7-1-1.7-1.7-2.2c6.1-2,12.2-5.9,15.3-10.8l2.2,1.1c-0.2,0.4-0.5,0.8-0.8,1.2
		c3.3,3.5,9.1,6.9,14.1,8.5c-0.6,0.5-1.4,1.5-1.7,2.1c-1.7-0.7-3.5-1.5-5.3-2.5v2H751.6z M742.5,34.6c1.3,1.8,2.6,4.3,3.2,5.9
		l-2.1,0.9c-0.5-1.5-1.8-4.1-3-6L742.5,34.6z M758.5,24.8c-3-1.7-5.9-4-8-6.2c-2.2,2.4-4.8,4.5-7.7,6.2H758.5z M754.6,40.6
		c1.2-1.6,2.6-4.2,3.4-6.1l2.3,0.9c-1.2,2.1-2.7,4.4-3.9,6L754.6,40.6z"/>
	<path class="st2" d="M772.1,16.5h15.5v2.1h-15.5V16.5z M787.1,42.4c0,1.1-0.2,1.6-0.9,2c-0.7,0.3-1.8,0.3-3.5,0.3
		c-0.1-0.6-0.4-1.4-0.6-1.9c1.2,0,2.3,0,2.6,0c0.3,0,0.4-0.1,0.4-0.5V30.9h-10.5v14.2h-2V29h14.5V42.4z M786,27.1h-12.3v-6.7H786
		V27.1z M780.8,37.8v6.4h-1.9v-6.4h-3.4v-1.7h4.5c0.8-1.4,1.7-3.3,2.2-4.7l1.7,0.7c-0.7,1.3-1.5,2.8-2.2,4h2.3v1.7H780.8z
		 M783.8,22.3h-8v3.1h8V22.3z M777.4,31.6c0.8,1.2,1.6,2.8,1.9,3.8l-1.5,0.6c-0.3-1-1.1-2.7-1.8-3.9L777.4,31.6z M800.1,45.2
		c-0.1-0.8-0.3-1.7-0.6-2.7c-3.8,0.7-7.8,1.4-10.8,2l-0.6-2.3c1.5-0.2,3.4-0.5,5.4-0.9v-7.4h-4.9V21.5h4.9v-6.3h2.2v6.3h4.8v12.4
		h-4.8V41l3.2-0.6c-0.4-1.4-1-2.9-1.5-4.2l1.8-0.5c1.2,2.8,2.4,6.6,2.7,8.8L800.1,45.2z M790.5,31.8h3.2v-8.2h-3.2V31.8z
		 M798.6,23.6h-3v8.2h3V23.6z"/>
	<path class="st2" d="M819.1,34.7c-0.6-1.1-1.9-3.2-3.1-4.9v15.3h-2.4V30.5c-1.4,3.3-3.1,6.6-4.8,8.6c-0.2-0.7-0.8-1.7-1.2-2.2
		c2.1-2.3,4.4-6.6,5.7-10.4h-5.2v-2.3h5.5v-5c-1.5,0.3-3.1,0.6-4.5,0.8c-0.1-0.5-0.5-1.4-0.7-1.9c3.7-0.6,8-1.6,10.5-2.6l1.5,1.9
		c-1.2,0.5-2.7,1-4.3,1.3v5.5h4.9v2.3H816v0.6c1,1.2,3.9,4.8,4.6,5.7L819.1,34.7z M834,36.5v8.6h-2.4v-8.2l-10.8,1.8l-0.4-2.3
		l11.2-1.8V15h2.4v19.1l3.9-0.6l0.4,2.2L834,36.5z M827.6,32.1c-1.2-1.5-3.7-3.5-5.8-4.8l1.5-1.5c2.1,1.3,4.7,3.2,5.9,4.7
		L827.6,32.1z M828.4,23.4c-1-1.4-3.3-3.3-5.2-4.7l1.6-1.4c2,1.3,4.3,3.1,5.4,4.5L828.4,23.4z"/>
	<path class="st2" d="M855.2,31.7c-1.3,0.4-2.7,0.8-4,1.2v9.3c0,1.4-0.4,2-1.2,2.4c-0.8,0.4-2.2,0.5-4.5,0.4
		c-0.1-0.6-0.5-1.6-0.8-2.2c1.6,0,3,0,3.4,0c0.5,0,0.7-0.2,0.7-0.6v-8.6l-4,1.2l-0.7-2.4c1.3-0.3,2.9-0.7,4.7-1.2v-7.2h-4.2v-2.3
		h4.2V15h2.4v6.6h3.7v2.3h-3.7v6.5c1.2-0.3,2.4-0.7,3.7-1.1L855.2,31.7z M872.7,28c-1.4,4.5-3.7,8.1-6.7,10.9
		c2.4,1.9,5.2,3.4,8.5,4.3c-0.5,0.5-1.2,1.5-1.6,2.1c-3.4-1.1-6.4-2.6-8.8-4.8c-2.8,2.1-6,3.7-9.4,4.7c-0.3-0.7-0.9-1.7-1.3-2.2
		c3.2-0.9,6.3-2.2,8.9-4.2c-2.3-2.5-4.1-5.5-5.4-9l0.1,0H856v-2.3h7.1v-4.9h-7.7v-2.3h7.7V15h2.4v5.2h7.9v2.3h-7.9v4.9h5.2l0.4-0.1
		L872.7,28z M859.4,29.7c1.1,2.9,2.8,5.5,4.9,7.6c2.3-2,4.1-4.6,5.3-7.6H859.4z"/>
	<path class="st2" d="M886.9,26v19.1h-2.3V26h-4.1v-2.2h4.1V15h2.3v8.7h3.9V26H886.9z M899.2,32.2c0,0,0,0.7,0,1
		c-0.3,7.5-0.5,10.1-1.2,11c-0.4,0.6-0.9,0.8-1.6,0.8c-0.6,0.1-1.5,0.1-2.4,0c0-0.6-0.2-1.5-0.5-1.9c0.9,0.1,1.7,0.1,2,0.1
		c0.4,0,0.6-0.1,0.8-0.3c0.4-0.6,0.7-2.7,0.9-8.7h-2.6c-0.5,4.6-1.8,8.4-4.8,11c-0.3-0.5-0.9-1.2-1.4-1.5c2.6-2.1,3.6-5.5,4.1-9.5
		h-3.1v-2h3.3c0.1-1.1,0.1-2.2,0.1-3.4h2.1c0,1.2-0.1,2.3-0.2,3.4H899.2z M900.3,20.6c-1.1,3.7-3.5,6.3-8.2,8.1
		c-0.2-0.5-0.8-1.3-1.3-1.7c4-1.4,6-3.5,7.1-6.3h-5.8v-2h6.3c0.2-1.1,0.4-2.3,0.4-3.6h2.3c-0.1,1.3-0.2,2.5-0.4,3.6h8.2
		c0,0,0,0.6-0.1,1c-0.4,4.9-0.9,6.9-1.6,7.6c-0.5,0.6-1.1,0.8-1.9,0.8c-0.7,0-2,0-3.4,0c-0.1-0.7-0.3-1.5-0.7-2.1
		c1.4,0.1,2.7,0.2,3.2,0.2c0.5,0,0.7,0,1-0.3c0.5-0.4,0.8-1.8,1.1-5.1H900.3z M910.3,32.2c0,0,0,0.7,0,1c-0.2,7.5-0.5,10.1-1.2,11
		c-0.4,0.5-0.9,0.8-1.6,0.8c-0.6,0.1-1.7,0.1-2.7,0c-0.1-0.6-0.3-1.5-0.5-2c1,0.1,1.8,0.1,2.2,0.1s0.6,0,0.8-0.3
		c0.4-0.6,0.6-2.7,0.8-8.6h-2.9c-0.6,4.7-1.8,8.4-5,10.9c-0.3-0.5-0.9-1.2-1.4-1.6c2.7-2.1,3.8-5.3,4.3-9.3h-3v-2h3.2
		c0.1-1.1,0.1-2.2,0.1-3.4h2.2c0,1.2-0.1,2.3-0.2,3.4H910.3z"/>
	<path class="st2" d="M933.9,15.7c-0.2,0.2-0.3,0.4-0.5,0.6c3.1,3,8.8,5.6,13.9,6.9c-0.5,0.4-1.2,1.3-1.6,1.9
		c-2.7-0.8-5.5-1.9-8.1-3.3v1h-11.4v-0.9c-2.5,1.4-5.3,2.5-8.1,3.4c-0.3-0.4-1-1.4-1.4-1.9c6-1.6,11.8-4.5,14.9-8.5L933.9,15.7z
		 M920.9,24.4h22v8.3h-22V24.4z M922.8,34.3h18.5V45h-2.5v-1h-13.7v1.1h-2.4V34.3z M923,31h7.8v-4.9H923V31z M926.7,26.5
		c0.9,1.2,1.7,2.7,2,3.7l-1.9,0.7c-0.3-1.1-1-2.6-1.8-3.9L926.7,26.5z M925.2,36v2.2h13.7V36H925.2z M938.9,42.3V40h-13.7v2.2H938.9
		z M936.4,21c-1.6-1-3.1-2.1-4.4-3.3c-1.3,1.2-2.7,2.3-4.3,3.3H936.4z M940.7,26.1h-7.9V31h7.9V26.1z M935,30.3
		c0.6-1.1,1.5-2.8,1.8-4l2.1,0.7c-0.7,1.4-1.6,2.9-2.2,3.9L935,30.3z"/>
	<path class="st2" d="M968,38.5c-5.1,1.2-10.7,2.5-14.6,3.4l-0.4-2.5l2.3-0.5V16.6H966v20.1l1.8-0.4L968,38.5z M957.6,18.9v4.8h6.2
		v-4.8H957.6z M963.7,25.9h-6.2v4.8h6.2V25.9z M957.6,38.5c1.9-0.4,4-0.9,6.2-1.3v-4.4h-6.2V38.5z M982.3,22.5c0,0,0,0.9,0,1.2
		c-0.3,13.8-0.7,18.5-1.8,20c-0.6,0.9-1.3,1.1-2.4,1.3c-1,0.1-2.8,0-4.5,0c-0.1-0.7-0.3-1.7-0.7-2.3c1.9,0.1,3.6,0.1,4.3,0.1
		c0.6,0,0.9-0.1,1.2-0.5c0.8-1,1.2-5.3,1.5-17.4h-5.1c-0.5,8.6-2.3,16-9,20.4c-0.4-0.6-1.2-1.5-1.8-1.8c6.3-3.9,7.9-10.7,8.4-18.6
		h-5.2v-2.3h5.3c0.1-2.4,0.1-4.9,0.1-7.4h2.4c0,2.5,0,5-0.1,7.4H982.3z"/>
	<path class="st2" d="M1017.9,22.2c0,0,0,0.9-0.1,1.3c-0.7,13.5-1.4,18.4-2.9,20.1c-0.8,0.9-1.6,1.2-2.8,1.3c-1.2,0.1-3.3,0-5.3-0.1
		c0-0.7-0.3-1.8-0.8-2.5c2.2,0.2,4.4,0.2,5.2,0.2c0.7,0,1.1-0.1,1.5-0.5c1.2-1.1,1.9-5.8,2.5-17.4H1004c-0.5,6.8-2.6,14.8-12.2,20.7
		c-0.4-0.6-1.3-1.6-1.9-1.9c8.9-5.3,11.1-12.5,11.6-18.7h-10.6v-2.4h10.7c0-0.5,0-1,0-1.4v-5.7h2.5v5.7c0,0.5,0,0.9,0,1.4H1017.9z"
		/>
</g>
</svg>
