<svg xmlns="http://www.w3.org/2000/svg" xmlns:xlink="http://www.w3.org/1999/xlink" width="172.453" height="57.667" viewBox="0 0 172.453 57.667">
  <defs>
    <linearGradient id="linear-gradient" x1="1.292" y1="0.058" x2="0.655" y2="0.399" gradientUnits="objectBoundingBox">
      <stop offset="0" stop-color="#fff" stop-opacity="0"/>
      <stop offset="0.484" stop-color="#6b6b6b" stop-opacity="0.8"/>
      <stop offset="1" stop-color="#fff" stop-opacity="0"/>
    </linearGradient>
    <linearGradient id="linear-gradient-2" x1="0.543" y1="0.577" x2="0.608" y2="1.433" gradientUnits="objectBoundingBox">
      <stop offset="0" stop-color="#fff" stop-opacity="0"/>
      <stop offset="0.507" stop-color="#6b6b6b" stop-opacity="0.702"/>
      <stop offset="1" stop-color="#fff" stop-opacity="0"/>
    </linearGradient>
    <linearGradient id="linear-gradient-3" x1="0.262" y1="0.611" x2="-0.121" y2="0.742" gradientUnits="objectBoundingBox">
      <stop offset="0" stop-color="#fff" stop-opacity="0"/>
      <stop offset="0.502" stop-color="#6b6b6b" stop-opacity="0.702"/>
      <stop offset="1" stop-color="#fff" stop-opacity="0"/>
    </linearGradient>
  </defs>
  <g id="组_746" data-name="组 746" transform="translate(-847.985 -432.454)">
    <g id="组_741" data-name="组 741" transform="translate(847.985 432.454)">
      <g id="组_735" data-name="组 735" transform="translate(32.582 0)">
        <path id="路径_1529" data-name="路径 1529" d="M990.086,434.845a11.321,11.321,0,0,0-4.428-2.117c-4.758-1.079-10,1.078-13.278,5.476h0a17.169,17.169,0,0,1,10.755,1.246,17.834,17.834,0,0,1,8.274,9.56,31.512,31.512,0,0,1,2.12,12.8c0,.136-.011.273-.017.41a40.83,40.83,0,0,1-.49,4.877q-.321,1.993-.848,4.04h0a70.983,70.983,0,0,0,3.6-20.113,28.248,28.248,0,0,0-1.917-11.216A13.486,13.486,0,0,0,990.086,434.845Z" transform="translate(-972.379 -432.454)" fill="#fff"/>
        <path id="路径_1530" data-name="路径 1530" d="M972.379,449.992h0a17.169,17.169,0,0,1,10.755,1.246,17.834,17.834,0,0,1,8.274,9.56,31.512,31.512,0,0,1,2.12,12.8c0,.136-.011.273-.017.41a40.83,40.83,0,0,1-.49,4.877q-.321,1.993-.848,4.04h0a70.983,70.983,0,0,0,3.6-20.113C994.807,441.814,972.379,449.992,972.379,449.992Z" transform="translate(-972.379 -444.241)" opacity="0.82" fill="url(#linear-gradient)" style="mix-blend-mode: multiply;isolation: isolate"/>
        <path id="路径_1531" data-name="路径 1531" d="M995.774,451.026a28.253,28.253,0,0,0-1.917-11.216,13.486,13.486,0,0,0-3.771-4.965,11.321,11.321,0,0,0-4.428-2.117c-4.757-1.079-10,1.078-13.278,5.476C972.379,438.2,994.807,430.027,995.774,451.026Z" transform="translate(-972.379 -432.454)" fill="#fff" opacity="0.21"/>
      </g>
      <g id="组_736" data-name="组 736" transform="translate(12.963 40.108)">
        <path id="路径_1532" data-name="路径 1532" d="M930.655,602.312a11.241,11.241,0,0,0,4.073-2.716c3.318-3.512,4.01-9.043,1.744-14.016h0a16.585,16.585,0,0,1-6.444,8.531c-3.395,2.193-7.794,2.945-12.575,2.292a33.145,33.145,0,0,1-12.388-4.552c-.119-.071-.237-.145-.355-.218a42.487,42.487,0,0,1-4.076-2.839q-1.6-1.263-3.156-2.727h0A73.313,73.313,0,0,0,913.5,599.117a29.717,29.717,0,0,0,10.885,3.938A13.97,13.97,0,0,0,930.655,602.312Z" transform="translate(-897.478 -585.579)" fill="#fff"/>
        <path id="路径_1533" data-name="路径 1533" d="M936.472,585.579h0a16.585,16.585,0,0,1-6.444,8.531c-3.395,2.193-7.794,2.945-12.575,2.292a33.145,33.145,0,0,1-12.388-4.552c-.119-.071-.237-.145-.355-.218a42.487,42.487,0,0,1-4.076-2.839q-1.6-1.263-3.156-2.727h0A73.313,73.313,0,0,0,913.5,599.117C932.578,608.721,936.472,585.579,936.472,585.579Z" transform="translate(-897.478 -585.579)" opacity="0.82" fill="url(#linear-gradient-2)" style="mix-blend-mode: multiply;isolation: isolate"/>
        <path id="路径_1534" data-name="路径 1534" d="M958.653,599.118a29.716,29.716,0,0,0,10.885,3.938,13.969,13.969,0,0,0,6.269-.743,11.244,11.244,0,0,0,4.073-2.716c3.318-3.512,4.01-9.043,1.743-14.016C981.624,585.58,977.73,608.722,958.653,599.118Z" transform="translate(-942.63 -585.58)" fill="#fff" opacity="0.21"/>
      </g>
      <g id="组_737" data-name="组 737" transform="translate(0 6.044)">
        <path id="路径_1535" data-name="路径 1535" d="M848.108,475.5a10.8,10.8,0,0,0,.353,4.817c1.435,4.575,5.968,7.938,11.494,8.512h0c-3.565-4.193-4.184-7.843-4.3-9.745-.232-3.979,1.312-8.086,4.287-11.812a32.6,32.6,0,0,1,10.233-8.218c.122-.065.247-.128.371-.192a42.912,42.912,0,0,1,4.55-2.031q1.92-.727,3.991-1.308h0a74.7,74.7,0,0,0-19.558,7.036,29.213,29.213,0,0,0-8.937,7.252A13.3,13.3,0,0,0,848.108,475.5Z" transform="translate(-847.985 -455.528)" fill="#fff"/>
        <path id="路径_1536" data-name="路径 1536" d="M870.2,488.833h0c-3.565-4.193-4.184-7.843-4.3-9.745-.232-3.979,1.312-8.086,4.287-11.812a32.6,32.6,0,0,1,10.233-8.218c.122-.065.247-.128.371-.192a42.912,42.912,0,0,1,4.55-2.031q1.92-.727,3.991-1.308h0a74.7,74.7,0,0,0-19.558,7.036C851.735,473.918,870.2,488.833,870.2,488.833Z" transform="translate(-858.233 -455.528)" opacity="0.82" fill="url(#linear-gradient-3)" style="mix-blend-mode: multiply;isolation: isolate"/>
        <path id="路径_1537" data-name="路径 1537" d="M859.536,482.391a29.217,29.217,0,0,0-8.937,7.252,13.3,13.3,0,0,0-2.49,5.688,10.8,10.8,0,0,0,.353,4.817c1.435,4.575,5.968,7.938,11.494,8.512C859.956,508.66,841.488,493.745,859.536,482.391Z" transform="translate(-847.986 -475.355)" fill="#fff" opacity="0.21"/>
      </g>
      <g id="组_740" data-name="组 740" transform="translate(16.553 21.567)">
        <g id="组_738" data-name="组 738" transform="translate(0 0.29)">
          <rect id="矩形_54" data-name="矩形 54" width="2.808" height="2.599" fill="#c22312"/>
          <path id="路径_1538" data-name="路径 1538" d="M912.178,533.147a.761.761,0,0,0-.783.738v9.747h1.914a.761.761,0,0,0,.782-.738v-9.747Z" transform="translate(-911.34 -528.63)" fill="#fff"/>
        </g>
        <g id="组_739" data-name="组 739" transform="translate(6.627)">
          <path id="路径_1539" data-name="路径 1539" d="M947.071,517.218V515.53a.761.761,0,0,0-.783-.737h-9.8v15.291h2.055l.017,0,.017,0a.759.759,0,0,0,.763-.72c0-.005,0-.011,0-.016s0-.011,0-.016v-5.189h6.753V522.47c0-.005,0-.011,0-.016s0-.011,0-.016a.76.76,0,0,0-.766-.72l-.015,0-.015,0h-5.957v-4.5Z" transform="translate(-936.486 -514.793)" fill="#fff"/>
          <path id="路径_1540" data-name="路径 1540" d="M996.294,517.252v-1.693a.761.761,0,0,0-.782-.738H983.289v1.673c0,.007,0,.014,0,.021s0,.014,0,.021a.76.76,0,0,0,.77.716h4.314v.119h0V530.1H990.4c.013,0,.026,0,.04,0s.026,0,.04,0a.757.757,0,0,0,.742-.729V517.252Z" transform="translate(-971.029 -514.814)" fill="#fff"/>
        </g>
      </g>
    </g>
    <g id="组_745" data-name="组 745" transform="translate(914.254 436.787)">
      <g id="组_742" data-name="组 742" transform="translate(0.082 35.901)">
        <path id="路径_1541" data-name="路径 1541" d="M1141.286,599.706l-1.548-.766-.019.074a7.03,7.03,0,0,1-1.158,2.506l-.041.057.753.414.036.02.032-.025a13.277,13.277,0,0,0,1.827-1.791c.164-.053.333-.122.333-.259,0-.107-.119-.174-.207-.224l-.039.049h0Z" transform="translate(-1128.771 -595.568)" fill="#fff"/>
        <path id="路径_1542" data-name="路径 1542" d="M1109.752,622.318h1.739v-.6h6.425v.6h1.754V616.5h-9.917Zm1.739-3.615v-1.424h6.425V618.7Zm6.425.782v1.468h-6.425v-1.468Z" transform="translate(-1107.538 -608.527)" fill="#fff"/>
        <path id="路径_1543" data-name="路径 1543" d="M1110.786,589.268h4.074v-.782h-4.2a15.429,15.429,0,0,0,1.7-1.269c.225-.067.4-.123.4-.3,0-.1-.132-.161-.256-.2l-1.579-.591-.022.058a6.918,6.918,0,0,1-1.171,1.82l-.052.058.774.433h-4.193l1.314-.743-.062-.057a17.1,17.1,0,0,0-2.379-1.6l-.036-.02-.748.578.074.079a12.3,12.3,0,0,1,1.412,1.765h-3.747v.782h4.043v3.249h-1.682l1.349-.938.049-.034-.032-.05a10.006,10.006,0,0,0-2.013-2.075l-.035-.027-.737.467.037.053a11.031,11.031,0,0,1,1.316,2.559l.019.045h-3.1v.766h14.253v-.766h-4.766Zm-1.631,0v3.249h-1.382v-3.249Z" transform="translate(-1101.3 -586.065)" fill="#fff"/>
        <path id="路径_1544" data-name="路径 1544" d="M1198.738,602.145v-.782h-2.659v-1.555h2v-.782h-2V597.56h2v-.767h-2v-1.468h2.49v-.781h-2.734a9.586,9.586,0,0,0,1.1-1.34c0-.1-.067-.164-.2-.206l-1.4-.41-.063-.018-.016.064a13.919,13.919,0,0,1-.567,1.909h-1.839c.38-.571.528-.809.7-1.09a.313.313,0,0,0,.171-.235.254.254,0,0,0-.2-.234l-1.481-.474-.013.07a10.55,10.55,0,0,1-2.111,4.267l-.033.045.529.486.042-.04c.232-.22.454-.441.864-.88v5.688Zm-5.811-5.353v-1.468h1.582v1.468Zm0,2.234V597.56h1.582v1.467Zm0,2.337v-1.555h1.582v1.555Z" transform="translate(-1166.687 -590.822)" fill="#fff"/>
        <path id="路径_1545" data-name="路径 1545" d="M1174.862,593.911l.033.032a10.434,10.434,0,0,1,1.774,1.973l.043.067,1.008-1.064.046-.049-.053-.042a13.321,13.321,0,0,0-2.27-1.468l-.04-.022-.541.548v-4.206h11.684V588.9h-13.361v12.889h1.677v-.628h11.975v-.781h-11.975Z" transform="translate(-1154.356 -588.157)" fill="#fff"/>
        <path id="路径_1546" data-name="路径 1546" d="M1184.783,594.834a15.939,15.939,0,0,0-2.378-1.453l-.041-.02-.536.562.048.042a12.625,12.625,0,0,1,1.836,1.948l.043.057,1.084-1.094Z" transform="translate(-1160.736 -591.45)" fill="#fff"/>
        <path id="路径_1547" data-name="路径 1547" d="M1183.468,613.063a22.416,22.416,0,0,1-2.728,3.7l-.051.05,1.026.788a.393.393,0,0,0,.222.1c.144,0,.153-.131.166-.311l0-.02a24.109,24.109,0,0,0,2.026-3.636l.014-.036-.637-.706Z" transform="translate(-1159.896 -605.937)" fill="#fff"/>
        <path id="路径_1548" data-name="路径 1548" d="M1274.855,619.412l-.02.071a9.565,9.565,0,0,1-1.543,2.959l-.039.053.733.459.037.023.034-.026a20.9,20.9,0,0,0,2.37-2.235l.032-.019c.258-.149.3-.172.3-.263a.281.281,0,0,0-.142-.2Z" transform="translate(-1228.214 -610.678)" fill="#fff"/>
        <path id="路径_1549" data-name="路径 1549" d="M1248.064,586.706l-.017-.036h-2.2l-.017.035c-1.079,2.178-2.577,3.988-6.381,5.74l-.085.039.622.573.039.022.035-.013a18.074,18.074,0,0,0,3.32-1.551v.742h2.66v1.934h-4.6v.767h4.6v3.965h-6.011v.767h13.7v-.767h-5.95v-3.965h4.566v-.767h-4.566v-1.934h2.691v-.72a21.668,21.668,0,0,0,3.22,1.576l.042.017.573-.7-.074-.033A11.022,11.022,0,0,1,1248.064,586.706Zm-4.62,4.768a12.168,12.168,0,0,0,3.46-3.065,14.318,14.318,0,0,0,3.463,3.065Z" transform="translate(-1203.201 -586.512)" fill="#fff"/>
        <path id="路径_1550" data-name="路径 1550" d="M1251.823,623.432l1.647-.837-.043-.059a14.284,14.284,0,0,0-2.533-2.553l-.037-.027-.718.515.036.051a12.569,12.569,0,0,1,1.59,2.77Z" transform="translate(-1211.153 -611.078)" fill="#fff"/>
        <path id="路径_1551" data-name="路径 1551" d="M1346.063,595.935l-.022-.046-.8.238.016.058c.183.667.247.926.4,1.649l-.942.256v-2.6h2v-6.009h-2v-2.042a1.1,1.1,0,0,0,.139-.393c0-.14-.121-.223-.322-.223l-1.543-.046.021.08a3.081,3.081,0,0,1,.105.977v1.647H1341.1v6.009h2.014v3c-1.053.249-1.589.335-2.207.435l-.109.018.476,1.154a.29.29,0,0,0,.226.184c.124,0,.245-.118.358-.242,1.38-.453,2.707-.939,3.945-1.443.089.556.134,1.019.165,1.33.008.083.015.154.022.212l.01.086,1.494-.7-.015-.051A19.315,19.315,0,0,0,1346.063,595.935Zm-1.345-1.231v-4.447h.6V594.7Zm-1.6-4.447V594.7h-.583v-4.447Z" transform="translate(-1278.07 -586.586)" fill="#fff"/>
        <path id="路径_1552" data-name="路径 1552" d="M1312.432,617.821h1.477V613.53l.367.322.04-.032a4.238,4.238,0,0,0,1.491-2.673h.376v1.266c0,.994.186,1.026,1.169,1.026h.861v3.093c0,.4-.007.449-.2.449a9.109,9.109,0,0,1-1.052-.1l-.1-.015.33.855h1.227c1.2,0,1.245-.233,1.245-1.216v-6.138h-7.227Zm5.781-6.674v1.511h-.431c-.476,0-.476-.021-.476-.376v-1.135Zm-3.557,0a4.008,4.008,0,0,1-.746,1.943v-1.943Z" transform="translate(-1257.131 -604)" fill="#fff"/>
        <path id="路径_1553" data-name="路径 1553" d="M1322.61,624.137H1318.6v.767h1.183v2.468h1.493V624.9h1.337Z" transform="translate(-1261.681 -614.165)" fill="#fff"/>
        <rect id="矩形_55" data-name="矩形 55" width="8.134" height="0.767" transform="translate(54.794 0.8)" fill="#fff"/>
        <path id="路径_1554" data-name="路径 1554" d="M1320.637,598.411v-3.045h-6.151v3.045Zm-1.554-2.263v1.5h-3v-1.5Z" transform="translate(-1258.647 -592.93)" fill="#fff"/>
        <path id="路径_1555" data-name="路径 1555" d="M1408.292,606.323l.045.085,1.075-1.388-.036-.038a13.351,13.351,0,0,0-2.639-2.025l-.048-.032-.466.616-.033.043.039.038A13.918,13.918,0,0,1,1408.292,606.323Z" transform="translate(-1326.33 -598.508)" fill="#fff"/>
        <path id="路径_1556" data-name="路径 1556" d="M1409.319,593.725l.044.066,1.083-1.228.038-.043-.042-.041a10.756,10.756,0,0,0-2.61-1.821l-.08-.041-.448.6.039.038A13.7,13.7,0,0,1,1409.319,593.725Z" transform="translate(-1327.154 -589.425)" fill="#fff"/>
        <path id="路径_1557" data-name="路径 1557" d="M1386.077,595.038l-.038-.039a8.89,8.89,0,0,1-2.1-3.471v-.294h1.937v-.767h-1.937v-2.161l.055-.007c.276-.032.788-.092,1.491-.218a.972.972,0,0,0,.344.086c.195,0,.216-.125.216-.179a.412.412,0,0,0-.123-.245l-.879-1.033-.045.028c-1.234.777-4.411,1-5.426,1.012l-.1,0,.364.774.016.036h.04c.7,0,1.5-.033,2.352-.1v2h-2.66v.767h2.566a11.577,11.577,0,0,1-2.871,5.429l-.041.042.527.57.046-.039a11.943,11.943,0,0,0,2.434-2.757v5.839h1.692V593.99a10.354,10.354,0,0,0,1.588,1.64l.049.041Z" transform="translate(-1306.438 -586.541)" fill="#fff"/>
        <path id="路径_1558" data-name="路径 1558" d="M1409.792,594.432v-7.006a.669.669,0,0,0,.17-.345c0-.191-.214-.194-.287-.194h0l-1.553-.058-.079,0,.022.109a3.234,3.234,0,0,1,.069.832v7.154l-4.69,1.388-.064.019.29.758,4.464-1.336V600.4h1.661v-5.157l2.093-.618-.256-.731Z" transform="translate(-1324.254 -586.628)" fill="#fff"/>
        <path id="路径_1559" data-name="路径 1559" d="M1455.26,593.672l-.109-.845-.079.041c-.673.355-.9.457-1.494.727l-.045.021v-2.908h1.6v-.767h-1.6v-2.551a.974.974,0,0,0,.123-.352c0-.118-.109-.194-.274-.194l-1.581-.076.01.074a8.29,8.29,0,0,1,.045,1.058v2.041h-2.06v.767h2.06v3.633l-.2.073a19.15,19.15,0,0,1-2.092.684l-.064.015.4,1.271a.218.218,0,0,0,.183.18c.111,0,.215-.1.308-.307.569-.265.748-.354,1.136-.546l.323-.16v3.39c0,.46-.015.581-.4.581a6.164,6.164,0,0,1-1.034-.13l-.089-.017.18.942h1.68c1.338,0,1.338-.416,1.338-1.42v-4.242c.475-.254,1.1-.612,1.692-.962Z" transform="translate(-1358.299 -586.584)" fill="#fff"/>
        <path id="路径_1560" data-name="路径 1560" d="M1477.82,599.678a9.7,9.7,0,0,1-3.618-1.8,9.469,9.469,0,0,0,2.632-5.39l.009-.07h-2.9V590h3.69v-.782h-3.69v-1.7l.03-.037a.5.5,0,0,0,.154-.321.219.219,0,0,0-.244-.208l-1.77-.076.031.151a3.778,3.778,0,0,1,.106.849v1.34h-3.429V590h3.429v2.417h-3v.781h5.63a8.176,8.176,0,0,1-1.632,3.664,7.182,7.182,0,0,1-1.369-3.325l-.01-.069-1.661.441.011.057a8.154,8.154,0,0,0,2.03,3.882A10.472,10.472,0,0,1,1468,599.78l-.087.019.471.724.042-.009a12.576,12.576,0,0,0,4.767-1.911,10.273,10.273,0,0,0,4.124,1.824l.039.008.554-.731Z" transform="translate(-1371.885 -586.666)" fill="#fff"/>
      </g>
      <g id="组_744" data-name="组 744" transform="translate(0 0)">
        <g id="组_743" data-name="组 743" transform="translate(0 0.852)">
          <rect id="矩形_56" data-name="矩形 56" width="5.159" height="4.872" fill="#c22312"/>
          <rect id="矩形_57" data-name="矩形 57" width="4.955" height="19.655" transform="translate(0.082 8.468)" fill="#fff"/>
        </g>
        <path id="路径_1561" data-name="路径 1561" d="M1221.8,478.85h5.241V467.712h12.407v-4.545h-12.407v-8.435h14.209v-4.545H1221.8Z" transform="translate(-1190.159 -449.876)" fill="#fff"/>
        <rect id="矩形_58" data-name="矩形 58" width="4.955" height="28.975" transform="translate(54.132)" fill="#fff"/>
        <path id="路径_1562" data-name="路径 1562" d="M1357.4,492.922c0,3.153-1.761,5.282-4.381,5.282s-4.423-2.129-4.423-5.282V482.235h-4.954v10.973c0,5.569,3.767,9.3,9.377,9.3s9.336-3.727,9.336-9.3V482.235H1357.4Z" transform="translate(-1280.085 -473.53)" fill="#fff"/>
        <path id="路径_1563" data-name="路径 1563" d="M1145.134,482.235c-5.61,0-9.377,3.727-9.377,9.3V502.5h4.954V491.817c0-3.153,1.8-5.282,4.423-5.282s4.381,2.129,4.381,5.282V502.5h4.954V491.531C1154.47,485.962,1150.744,482.235,1145.134,482.235Z" transform="translate(-1126.65 -473.53)" fill="#fff"/>
        <path id="路径_1564" data-name="路径 1564" d="M1448.192,484.582h-5.979l-4.3,6.347-4.259-6.347h-5.978l6.921,9.7-7,9.95h5.814l4.586-6.593,4.464,6.593h5.774l-7-9.868Z" transform="translate(-1342.048 -475.262)" fill="#fff"/>
      </g>
    </g>
  </g>
</svg>
