<svg xmlns="http://www.w3.org/2000/svg" width="20.999" height="20.994" viewBox="0 0 20.999 20.994">
  <g id="Group_402" data-name="Group 402" transform="translate(-897.093 743.863)">
    <path id="Path_258" data-name="Path 258" d="M907.583-722.89c-1.546,0-3.095.054-4.638-.013A5.7,5.7,0,0,1,898-725.618a5.961,5.961,0,0,1-.869-3.086c-.032-3.114-.071-6.23.01-9.342a5.55,5.55,0,0,1,2.965-5.055,5.942,5.942,0,0,1,2.793-.725c3.125-.03,6.252-.07,9.376.009a5.554,5.554,0,0,1,5.056,2.966,5.878,5.878,0,0,1,.722,2.761c.031,3.147.074,6.3-.009,9.442a5.532,5.532,0,0,1-2.935,5.006,6.21,6.21,0,0,1-2.889.744C910.676-722.866,909.129-722.89,907.583-722.89Zm8.693-10.857c-.052-1.322-.068-3.057-.206-4.783a3.44,3.44,0,0,0-2.766-3.192,9.969,9.969,0,0,0-2.194-.248q-3.512-.045-7.024,0a10,10,0,0,0-2.165.23,3.6,3.6,0,0,0-2.862,3.7c-.089,2.471-.076,4.946-.08,7.419a17.716,17.716,0,0,0,.138,2.443,3.457,3.457,0,0,0,2.72,3.165,9.523,9.523,0,0,0,2.192.257c2.727.01,5.455,0,8.182-.059a3.808,3.808,0,0,0,2.813-1.106,3.808,3.808,0,0,0,1.121-2.807C916.2-730.266,916.226-731.8,916.276-733.747Z" fill="#fff"/>
    <path id="Path_259" data-name="Path 259" d="M979.032-656.519a5.445,5.445,0,0,1-5.43-5.435,5.445,5.445,0,0,1,5.444-5.422,5.445,5.445,0,0,1,5.413,5.419,5.443,5.443,0,0,1-5.427,5.438Zm-.006-1.915a3.527,3.527,0,0,0,3.517-3.516,3.53,3.53,0,0,0-3.491-3.51,3.53,3.53,0,0,0-3.535,3.5,3.529,3.529,0,0,0,3.509,3.527Z" transform="translate(-71.435 -71.417)" fill="#fff"/>
    <path id="Path_260" data-name="Path 260" d="M1122.64-686.962a1.228,1.228,0,0,1-.891-.364,1.228,1.228,0,0,1-.354-.895,1.236,1.236,0,0,1,.365-.909,1.236,1.236,0,0,1,.911-.358,1.246,1.246,0,0,1,.89.37,1.246,1.246,0,0,1,.36.894,1.236,1.236,0,0,1-.369.907,1.237,1.237,0,0,1-.912.355Z" transform="translate(-209.43 -50.77)" fill="#fff"/>
  </g>
</svg>
