<svg id="组_96" data-name="组 96" xmlns="http://www.w3.org/2000/svg" width="51.667" height="51.673" viewBox="0 0 51.667 51.673">
  <path id="路径_91" data-name="路径 91" d="M1395.293,128.157a25.821,25.821,0,1,1-29.081-25.288,25.026,25.026,0,0,1,10.619.841,5.1,5.1,0,0,1,1.3.532,1.823,1.823,0,0,1,.82,2.2,1.9,1.9,0,0,1-1.877,1.427,4.27,4.27,0,0,1-1.383-.278,21.805,21.805,0,1,0,15.37,23.981,21.579,21.579,0,0,0-1.883-12.435c-.072-.153-.148-.3-.216-.458a2.045,2.045,0,0,1,.85-2.937c1.085-.519,2.16-.069,2.805,1.215a25.734,25.734,0,0,1,2.254,6.7A19.557,19.557,0,0,1,1395.293,128.157Z" transform="translate(-1343.641 -102.645)" fill="#f29600"/>
  <path id="路径_92" data-name="路径 92" d="M1359.391,123.055a7.99,7.99,0,0,1,4.6,1.618,27.248,27.248,0,0,1,5.705,5.714c.7.891.749.9,1.262-.07a147.564,147.564,0,0,1,8.49-14.509,48.513,48.513,0,0,1,9.415-10.674,8.687,8.687,0,0,1,4.052-1.982,3.15,3.15,0,0,1,.8-.063c.292.03.676-.007.828.281.177.335-.187.537-.363.763a166.414,166.414,0,0,0-21.1,35.542c-.677,1.546-1.284,3.123-1.954,4.672-.135.313-.122.865-.581.833-.33-.023-.39-.509-.5-.819a49.227,49.227,0,0,0-4.207-8.751,42.143,42.143,0,0,0-9.036-10.846c-.251-.207-.655-.4-.59-.764.073-.414.538-.465.882-.579A6.746,6.746,0,0,1,1359.391,123.055Z" transform="translate(-1345.594 -102.713)" fill="#f29600"/>
</svg>
