<svg width="80" height="80" viewBox="0 0 80 80" fill="none" xmlns="http://www.w3.org/2000/svg">
<g clip-path="url(#clip0_3397_658)">
<path d="M0 48.8774C0.438299 48.1464 1.08531 47.9375 1.92017 47.9375C4.23689 47.9584 6.55361 47.9375 8.87034 47.9584C9.99739 47.9584 10.3313 48.209 10.7488 49.3161C11.8967 49.3161 13.0655 49.3161 14.2343 49.3161C15.4031 49.3161 15.5492 49.4414 16.0083 50.5485C16.071 50.7156 16.3214 50.8827 16.5093 50.9036C18.5338 51.2586 20.5583 51.6764 22.5828 51.9062C23.7099 52.0315 24.8578 51.7808 26.0057 51.6764C29.6374 51.3422 33.269 50.9871 36.9006 50.6947C37.3806 50.6529 37.9233 50.82 38.3616 51.0498C39.2173 51.5302 40.0313 52.115 40.8453 52.679C41.1792 52.9088 41.4088 52.9088 41.7219 52.6581C42.4106 52.0942 43.0994 51.5302 43.8508 51.0915C44.2891 50.8409 44.8735 50.6529 45.3744 50.6947C49.6948 51.0707 54.0151 51.572 58.3564 51.8853C59.5043 51.9688 60.694 51.5302 61.8836 51.3004C62.3219 51.2169 62.7394 51.1124 63.1777 51.0498C63.6786 50.9662 64.0543 50.8827 64.1586 50.2143C64.263 49.5459 64.8682 49.3161 65.5361 49.3161C66.7884 49.3161 68.0407 49.3161 69.3139 49.3161C69.5434 48.209 70.2739 47.9375 71.2758 47.9375C73.5925 47.9584 75.9092 47.9375 78.2259 47.9584C79.5617 47.9584 80.0209 48.4388 80.0209 49.7338C80.0209 57.4414 80.0209 65.149 80.0209 72.8774C80.0209 74.1934 79.5617 74.6738 78.2259 74.6738C75.9092 74.6738 73.5925 74.6529 71.2758 74.6947C70.2739 74.7156 69.5226 74.444 69.293 73.337C68.0407 73.337 66.8093 73.3996 65.5987 73.3161C65.1396 73.2952 64.7013 72.9192 64.2421 72.7521C64.0334 72.6686 63.7829 72.5224 63.5742 72.585C61.508 73.149 59.4626 73.7338 57.3337 74.3396C57.4589 75.6346 56.5614 75.9479 55.5387 76.2195C51.0723 77.4101 46.6058 78.6425 42.1393 79.8748C41.9932 79.9166 41.8471 79.9793 41.701 80.0419C41.4506 80.0419 41.1792 80.0419 40.9288 80.0419C40.8453 80.0002 40.7618 79.9166 40.6574 79.8957C34.2917 77.3474 27.9259 74.7991 21.5601 72.2508C21.3723 72.1673 21.1636 72.0837 20.9757 72.0837C19.3478 72.0628 17.6989 72.0837 16.0918 72.0837C15.6118 73.2325 15.3822 73.3787 14.1299 73.3787C12.982 73.3787 11.8549 73.3787 10.7488 73.3787C10.3313 74.5067 9.99739 74.7365 8.87034 74.7365C6.55361 74.7365 4.23689 74.7156 1.92017 74.7573C1.08531 74.7782 0.45917 74.5485 0.0208714 73.8174C0 65.4623 0 57.1699 0 48.8774ZM16.0292 69.3474C17.5737 69.3474 19.0347 69.3056 20.4957 69.3683C21.2053 69.3892 21.9567 69.5145 22.6037 69.7652C28.6147 72.1464 34.6256 74.5693 40.6366 76.9506C41.0957 77.1385 41.701 77.1594 42.2019 77.0341C45.2283 76.2613 48.2338 75.4257 51.2392 74.5902C51.8236 74.4231 52.408 74.256 53.1385 74.068C49.1104 70.7678 45.2074 67.572 41.3045 64.3761C40.9496 64.6268 40.6366 64.8566 40.3026 65.0445C37.965 66.444 34.9804 65.5667 33.7908 63.1438C32.8933 61.3056 33.3733 58.9871 34.9804 57.6921C36.2536 56.6686 37.5685 55.7286 38.9877 54.6634C37.9859 54.162 37.3389 53.2639 36.0866 53.4101C32.9559 53.7861 29.8252 53.9949 26.6736 54.3083C24.336 54.538 22.0193 54.7678 19.7026 54.2038C18.5338 53.9114 17.3024 53.7861 16.0501 53.5772C16.0292 58.8409 16.0292 64.0419 16.0292 69.3474ZM43.496 62.6842C43.7882 62.9349 43.9969 63.1229 44.2056 63.29C47.2111 65.7547 50.2792 68.1359 53.1803 70.7051C54.4952 71.8539 55.6222 72.209 57.3128 71.6033C59.4626 70.8096 61.7375 70.3083 63.929 69.6816C63.929 64.3135 63.929 59.0289 63.929 53.6816C63.5742 53.7443 63.3029 53.7652 63.0316 53.8278C60.527 54.3918 58.0224 54.7887 55.3926 54.4127C52.4706 53.9741 49.5069 53.7861 46.5432 53.5145C46.0214 53.4728 45.3326 53.3474 44.9778 53.5981C42.1811 55.5824 39.426 57.6503 36.6919 59.7391C35.9196 60.3239 35.7944 61.431 36.3162 62.2038C36.838 62.9975 37.8189 63.2691 38.7373 62.8304C38.9877 62.7051 39.2173 62.538 39.4469 62.3709C40.9705 61.243 42.4733 60.0942 44.0177 58.9453C44.5604 59.6764 45.0822 60.3657 45.604 61.0759C44.8943 61.619 44.2056 62.1203 43.496 62.6842ZM72.0689 50.6738C72.0689 57.8174 72.0689 64.8774 72.0689 71.9584C73.8429 71.9584 75.5544 71.9584 77.3076 71.9584C77.3076 64.8357 77.3076 57.7756 77.3076 50.6738C75.5335 50.6738 73.8221 50.6738 72.0689 50.6738ZM2.73415 50.6738C2.73415 57.8383 2.73415 64.8983 2.73415 71.9584C4.50822 71.9584 6.21967 71.9584 7.93112 71.9584C7.93112 64.8357 7.93112 57.7756 7.93112 50.6738C6.15706 50.6738 4.46648 50.6738 2.73415 50.6738ZM66.7467 52.0315C66.7467 58.2769 66.7467 64.4388 66.7467 70.6007C67.6233 70.6007 68.4581 70.6007 69.3139 70.6007C69.3139 64.397 69.3139 58.2352 69.3139 52.0315C68.4372 52.0315 67.6233 52.0315 66.7467 52.0315ZM10.707 52.0315C10.707 58.256 10.707 64.4179 10.707 70.6007C11.5836 70.6007 12.3976 70.6007 13.2742 70.6007C13.2742 64.397 13.2742 58.2352 13.2742 52.0315C12.4185 52.0315 11.6045 52.0315 10.707 52.0315Z" fill="#036EB7"/>
<path d="M41.326 33.316C42.2861 33.316 43.1001 33.316 43.9767 33.316C43.9767 34.2142 43.9767 35.0288 43.9767 35.9479C43.1418 35.9479 42.3069 35.9479 41.3886 35.9479C41.3886 36.867 41.3886 37.7025 41.3886 38.6006C40.4494 38.6006 39.6354 38.6006 38.6962 38.6006C38.6962 37.7442 38.6962 36.9087 38.6962 35.9897C37.757 35.9897 36.943 35.9897 36.0664 35.9897C36.0664 35.0915 36.0664 34.2769 36.0664 33.3369C36.9221 33.3369 37.757 33.3369 38.6753 33.3369C38.6753 32.4179 38.6753 31.5824 38.6753 30.7051C39.5937 30.7051 40.4285 30.7051 41.3469 30.7051C41.326 31.5197 41.326 32.3552 41.326 33.316Z" fill="#036EB7"/>
<path d="M19.4961 75.8853C19.8509 75.0498 20.1848 74.2769 20.5397 73.4414C23.6704 74.7782 26.7385 76.0941 29.8692 77.4518C29.5144 78.2874 29.1804 79.0602 28.8256 79.8957C25.6949 78.5589 22.6268 77.243 19.4961 75.8853Z" fill="#036EB7"/>
<path d="M0.00134013 10.2771C0.356154 9.52518 0.961424 9.27453 1.77541 9.29542C2.92333 9.33719 4.05039 9.29542 5.32354 9.29542C5.32354 8.23014 5.32354 7.22753 5.32354 6.22492C5.32354 5.59829 5.32354 4.97166 5.32354 4.34503C5.34441 3.09176 5.80358 2.61135 7.07674 2.59046C7.32719 2.59046 7.59852 2.59046 7.95333 2.59046C7.95333 1.71317 7.95333 0.877664 7.95333 -0.0205078C8.89255 -0.0205078 9.7274 -0.0205078 10.6457 -0.0205078C10.6457 0.815001 10.6457 1.65051 10.6457 2.59046C11.0214 2.59046 11.3136 2.59046 11.6058 2.59046C12.8372 2.61135 13.3173 3.04999 13.3173 4.28236C13.3382 5.66095 13.3173 7.03954 13.3173 8.41813C13.3173 8.66879 13.3382 8.91944 13.359 9.27453C14.4652 9.27453 15.5296 9.27453 16.5732 9.27453C18.3264 9.27453 18.6395 9.58785 18.6395 11.3842C18.6395 13.473 18.6395 15.5617 18.6395 17.6296C18.6395 17.922 18.6395 18.1936 18.6395 18.5905C19.0152 18.5905 19.3282 18.5905 19.6204 18.5905C23.0851 18.5905 26.5497 18.5905 30.0144 18.5905C31.5797 18.5905 31.9972 19.0082 31.9972 20.5957C31.9972 28.1779 31.9972 35.7602 31.9972 43.3424C31.9972 44.8672 31.5797 45.285 30.0561 45.285C20.664 45.285 11.251 45.285 1.85889 45.3059C1.02404 45.3059 0.377025 45.1179 -0.0195312 44.345C0.00134013 32.9821 0.00134013 21.6192 0.00134013 10.2771ZM15.9262 42.6113C15.9262 32.3764 15.9262 22.204 15.9262 12.0317C11.4806 12.0317 7.09761 12.0317 2.71462 12.0317C2.71462 22.2458 2.71462 32.4181 2.71462 42.6113C7.13935 42.6113 11.5015 42.6113 15.9262 42.6113ZM29.2839 29.3059C29.2839 28.345 29.2839 27.5304 29.2839 26.6322C28.4073 26.6322 27.5724 26.6322 26.7376 26.6322C26.7376 25.7132 26.7376 24.8777 26.7376 23.9586C27.6142 23.9586 28.449 23.9586 29.3048 23.9586C29.3048 23.0604 29.3048 22.2458 29.3048 21.3685C25.7566 21.3685 22.2711 21.3685 18.723 21.3685C18.723 28.4704 18.723 35.5304 18.723 42.6113C22.2711 42.6113 25.7775 42.6113 29.3048 42.6113C29.3048 39.0604 29.3048 35.5722 29.3048 32.0004C28.4282 32.0004 27.6142 32.0004 26.7376 32.0004C26.7376 31.0813 26.7376 30.2458 26.7376 29.3267C27.6142 29.3059 28.4282 29.3059 29.2839 29.3059ZM8.05769 5.30586C8.05769 6.62179 8.05769 7.91683 8.05769 9.23275C8.93429 9.23275 9.76915 9.23275 10.604 9.23275C10.604 7.89594 10.604 6.6009 10.604 5.30586C9.7274 5.30586 8.93429 5.30586 8.05769 5.30586Z" fill="#036EB7"/>
<path d="M13.2756 25.3369C13.2756 26.1933 13.2756 27.0079 13.2756 27.8852C12.4198 27.8852 11.585 27.8852 10.6875 27.8852C10.6875 27.0288 10.6875 26.2142 10.6875 25.3369C11.5641 25.3369 12.399 25.3369 13.2756 25.3369Z" fill="#036EB7"/>
<path d="M5.38672 25.3369C6.26332 25.3369 7.0773 25.3369 7.9539 25.3369C7.9539 26.1933 7.9539 27.0079 7.9539 27.9061C7.11904 27.9061 6.28419 27.9061 5.38672 27.9061C5.38672 27.0706 5.38672 26.2351 5.38672 25.3369Z" fill="#036EB7"/>
<path d="M10.707 19.9902C11.5836 19.9902 12.3976 19.9902 13.2742 19.9902C13.2742 20.8466 13.2742 21.6821 13.2742 22.5803C12.4185 22.5803 11.5836 22.5803 10.707 22.5803C10.707 21.7239 10.707 20.9093 10.707 19.9902Z" fill="#036EB7"/>
<path d="M5.36719 19.9902C6.24379 19.9902 7.05777 19.9902 7.93437 19.9902C7.93437 20.8466 7.93437 21.6821 7.93437 22.5803C7.07864 22.5803 6.24379 22.5803 5.36719 22.5803C5.36719 21.7239 5.36719 20.9093 5.36719 19.9902Z" fill="#036EB7"/>
<path d="M10.707 14.6846C11.5628 14.6846 12.3767 14.6846 13.2533 14.6846C13.2533 15.5201 13.2533 16.3556 13.2533 17.2538C12.4394 17.2538 11.5836 17.2538 10.707 17.2538C10.707 16.3974 10.707 15.5619 10.707 14.6846Z" fill="#036EB7"/>
<path d="M5.36719 14.6846C6.22291 14.6846 7.0369 14.6846 7.9135 14.6846C7.9135 15.5201 7.9135 16.3556 7.9135 17.2538C7.09951 17.2538 6.24379 17.2538 5.36719 17.2538C5.36719 16.3974 5.36719 15.5619 5.36719 14.6846Z" fill="#036EB7"/>
<path d="M5.36719 33.2323C5.36719 32.3759 5.36719 31.5404 5.36719 30.6631C6.20204 30.6631 7.0369 30.6631 7.9135 30.6631C7.9135 31.4986 7.9135 32.3341 7.9135 33.2323C7.07864 33.2323 6.24379 33.2323 5.36719 33.2323Z" fill="#036EB7"/>
<path d="M23.9826 24.042C23.9826 24.9193 23.9826 25.713 23.9826 26.5694C23.1269 26.5694 22.292 26.5694 21.3945 26.5694C21.3945 25.7339 21.3945 24.9193 21.3945 24.042C22.2294 24.042 23.0642 24.042 23.9826 24.042Z" fill="#036EB7"/>
<path d="M21.4141 29.3477C22.2698 29.3477 23.0838 29.3477 23.9395 29.3477C23.9395 30.2041 23.9395 31.0396 23.9395 31.9377C23.1046 31.9377 22.2907 31.9377 21.4141 31.9377C21.4141 31.1022 21.4141 30.2458 21.4141 29.3477Z" fill="#036EB7"/>
<path d="M80.0011 44.345C79.6045 45.1179 78.9575 45.3059 78.1226 45.3059C68.7305 45.285 59.3175 45.285 49.9254 45.285C48.3809 45.285 47.9844 44.8672 47.9844 43.3424C47.9844 35.7602 47.9844 28.1779 47.9844 20.5957C47.9844 19.0082 48.3809 18.5905 49.9672 18.5905C53.4318 18.5905 56.8965 18.5905 60.3611 18.5905C60.6533 18.5905 60.9664 18.5905 61.3421 18.5905C61.3421 18.1936 61.3421 17.9012 61.3421 17.6296C61.3421 15.5408 61.3421 13.4521 61.3421 11.3842C61.3421 9.58785 61.6551 9.27453 63.4083 9.27453C64.4728 9.27453 65.5163 9.27453 66.6225 9.27453C66.6434 8.91944 66.6643 8.66879 66.6643 8.41813C66.6643 7.03954 66.6643 5.66095 66.6643 4.28236C66.6851 3.04999 67.1443 2.61135 68.3757 2.59046C68.6679 2.59046 68.981 2.59046 69.3358 2.59046C69.3358 1.65051 69.3358 0.815001 69.3358 -0.0205078C70.2541 -0.0205078 71.089 -0.0205078 72.0282 -0.0205078C72.0282 0.877664 72.0282 1.71317 72.0282 2.59046C72.383 2.59046 72.6335 2.59046 72.9048 2.59046C74.178 2.61135 74.658 3.07088 74.658 4.34503C74.658 4.97166 74.658 5.59829 74.658 6.22492C74.658 7.22753 74.658 8.23014 74.658 9.29542C75.9103 9.29542 77.0582 9.31631 78.2061 9.29542C79.0201 9.27453 79.6254 9.52518 79.9802 10.2771C80.0011 21.6192 80.0011 32.9821 80.0011 44.345ZM77.2878 42.6113C77.2878 32.4181 77.2878 22.2458 77.2878 12.0317C72.9048 12.0317 68.5009 12.0317 64.0762 12.0317C64.0762 22.204 64.0762 32.3764 64.0762 42.6113C68.5009 42.6113 72.8839 42.6113 77.2878 42.6113ZM53.2648 29.3059C53.2648 30.2249 53.2648 31.0604 53.2648 31.9795C52.4091 31.9795 51.5743 31.9795 50.6977 31.9795C50.6977 35.5513 50.6977 39.0395 50.6977 42.5905C54.2249 42.5905 57.7104 42.5905 61.2794 42.5905C61.2794 35.5304 61.2794 28.4495 61.2794 21.3476C57.7313 21.3476 54.2458 21.3476 50.6977 21.3476C50.6977 22.2249 50.6977 23.0395 50.6977 23.9377C51.5534 23.9377 52.3674 23.9377 53.2648 23.9377C53.2648 24.8568 53.2648 25.6923 53.2648 26.6113C52.43 26.6113 51.5951 26.6113 50.7185 26.6113C50.7185 27.5095 50.7185 28.3241 50.7185 29.285C51.5743 29.3059 52.4091 29.3059 53.2648 29.3059ZM69.4193 5.30586C69.4193 6.62179 69.4193 7.89594 69.4193 9.23275C70.2541 9.23275 71.089 9.23275 71.9656 9.23275C71.9656 7.91683 71.9656 6.6009 71.9656 5.30586C71.089 5.30586 70.275 5.30586 69.4193 5.30586Z" fill="#036EB7"/>
<path d="M66.7266 25.3369C66.7266 26.1933 66.7266 27.0079 66.7266 27.8852C67.5823 27.8852 68.4171 27.8852 69.3146 27.8852C69.3146 27.0288 69.3146 26.2142 69.3146 25.3369C68.4589 25.3369 67.6032 25.3369 66.7266 25.3369Z" fill="#036EB7"/>
<path d="M74.6375 25.3369C73.7609 25.3369 72.9469 25.3369 72.0703 25.3369C72.0703 26.1933 72.0703 27.0079 72.0703 27.9061C72.9052 27.9061 73.74 27.9061 74.6375 27.9061C74.6375 27.0706 74.6375 26.2351 74.6375 25.3369Z" fill="#036EB7"/>
<path d="M69.3133 19.9902C68.4367 19.9902 67.6227 19.9902 66.7461 19.9902C66.7461 20.8466 66.7461 21.6821 66.7461 22.5803C67.6018 22.5803 68.4367 22.5803 69.3133 22.5803C69.3133 21.7239 69.3133 20.9093 69.3133 19.9902Z" fill="#036EB7"/>
<path d="M74.6375 19.9902C73.7609 19.9902 72.9469 19.9902 72.0703 19.9902C72.0703 20.8466 72.0703 21.6821 72.0703 22.5803C72.926 22.5803 73.7609 22.5803 74.6375 22.5803C74.6375 21.7239 74.6375 20.9093 74.6375 19.9902Z" fill="#036EB7"/>
<path d="M69.2924 14.6846C68.4367 14.6846 67.6227 14.6846 66.7461 14.6846C66.7461 15.5201 66.7461 16.3556 66.7461 17.2538C67.5601 17.2538 68.4158 17.2538 69.2924 17.2538C69.2924 16.3974 69.2924 15.5619 69.2924 14.6846Z" fill="#036EB7"/>
<path d="M74.6362 14.6846C73.7804 14.6846 72.9664 14.6846 72.0898 14.6846C72.0898 15.5201 72.0898 16.3556 72.0898 17.2538C72.9038 17.2538 73.7596 17.2538 74.6362 17.2538C74.6362 16.3974 74.6362 15.5619 74.6362 14.6846Z" fill="#036EB7"/>
<path d="M74.6362 33.2323C74.6362 32.3759 74.6362 31.5404 74.6362 30.6631C73.8013 30.6631 72.9664 30.6631 72.0898 30.6631C72.0898 31.4986 72.0898 32.3341 72.0898 33.2323C72.9247 33.2323 73.7596 33.2323 74.6362 33.2323Z" fill="#036EB7"/>
<path d="M56.0195 24.042C56.0195 24.9193 56.0195 25.713 56.0195 26.5694C56.8753 26.5694 57.7101 26.5694 58.6076 26.5694C58.6076 25.7339 58.6076 24.9193 58.6076 24.042C57.7727 24.042 56.9379 24.042 56.0195 24.042Z" fill="#036EB7"/>
<path d="M58.5879 29.3477C57.7322 29.3477 56.9182 29.3477 56.0625 29.3477C56.0625 30.2041 56.0625 31.0396 56.0625 31.9377C56.8974 31.9377 57.7113 31.9377 58.5879 31.9377C58.5879 31.1022 58.5879 30.2458 58.5879 29.3477Z" fill="#036EB7"/>
</g>
<defs>
<clipPath id="clip0_3397_658">
<rect width="80" height="80" fill="white"/>
</clipPath>
</defs>
</svg>
