<svg width="80" height="80" viewBox="0 0 80 80" fill="none" xmlns="http://www.w3.org/2000/svg">
<path d="M40.2691 0.0208726C40.5822 0.459197 40.9579 0.855777 41.1666 1.33585C42.2102 3.67358 43.233 6.05306 44.2349 8.41166C44.4227 8.87086 44.6523 9.05871 45.195 9.12133C47.9084 9.33006 50.6428 9.62227 53.3562 9.87274C53.9615 9.93536 54.379 10.2276 54.5668 10.812C54.7547 11.4173 54.4416 11.8556 54.0032 12.2313C51.9995 14.0055 49.9957 15.7797 47.9711 17.533C47.5954 17.867 47.4701 18.1383 47.5954 18.6601C48.2007 21.1648 48.7433 23.6695 49.286 26.1951C49.3278 26.3412 49.3278 26.5082 49.3695 26.6543C49.5365 27.2388 49.4113 27.8441 48.8686 28.0737C48.4511 28.2406 47.8041 28.2406 47.4284 28.0319C45.2367 26.8004 43.0451 25.5272 40.9161 24.1914C40.1021 23.6695 39.5177 23.6904 38.7036 24.1914C36.6372 25.5063 34.5082 26.6961 32.4001 27.9484C31.8574 28.2615 31.3147 28.4911 30.7303 28.0945C30.1041 27.6771 30.125 27.0718 30.2711 26.4247C30.8555 23.8365 31.4191 21.2483 32.0244 18.681C32.1496 18.1592 32.0035 17.8878 31.6487 17.5539C29.6658 15.8214 27.7038 14.089 25.7209 12.3566C25.2199 11.9183 24.8025 11.4799 25.0738 10.7494C25.3243 10.0397 25.8878 9.91449 26.5558 9.85187C29.2275 9.62227 31.8783 9.33006 34.55 9.10046C35.0092 9.05871 35.1553 8.84999 35.3223 8.47428C36.345 6.0948 37.3678 3.69445 38.4323 1.31497C38.641 0.834904 39.0376 0.438325 39.3298 0C39.6429 0.0208726 39.956 0.0208726 40.2691 0.0208726ZM29.2692 12.1061C29.624 12.4401 29.8536 12.6488 30.0832 12.8367C31.3982 13.9846 32.6923 15.1535 34.0073 16.2806C34.6543 16.8233 34.9257 17.4078 34.6752 18.2635C34.4247 19.1402 34.2578 20.0377 34.0699 20.9144C33.8194 22.0415 33.5898 23.1686 33.2976 24.4836C35.2596 23.3147 37.0547 22.2919 38.8289 21.2066C39.5177 20.7891 40.1021 20.7891 40.7909 21.2066C42.2728 22.125 43.7757 23.0016 45.2785 23.8783C45.5707 24.0452 45.8629 24.2122 46.3221 24.4627C45.8212 22.2502 45.4037 20.2047 44.9237 18.2009C44.7358 17.4078 44.9445 16.8651 45.529 16.3433C46.9066 15.1535 48.2633 13.9429 49.6409 12.7323C49.8496 12.5444 50.0375 12.3566 50.3297 12.0852C48.0337 11.8556 45.9255 11.6469 43.7965 11.4591C43.0869 11.3964 42.6694 11.0416 42.3981 10.4154C41.6884 8.74562 40.9579 7.07582 40.2273 5.40601C40.1021 5.13466 39.9769 4.88419 39.7681 4.46674C38.8915 6.49138 38.0566 8.36992 37.2843 10.2485C36.9712 10.9999 36.5329 11.4173 35.6771 11.4799C33.6107 11.6469 31.5443 11.8765 29.2692 12.1061Z" fill="#023D64"/>
<path d="M44.0746 45.9405C46.9133 45.9405 49.6058 45.9405 52.3193 45.9405C54.6779 45.9405 57.0573 45.9405 59.416 45.9405C62.1711 45.9405 64.1749 47.4225 64.8011 49.8855C65.4064 52.3067 64.2793 54.6027 61.8372 55.8759C61.7746 55.9176 61.7119 55.9594 61.6493 56.0011C63.1939 59.3616 62.693 61.428 59.7499 63.724C60.5848 65.0181 61.044 66.4166 60.6474 67.982C60.2717 69.4848 59.3325 70.612 58.0384 71.4886C59.1237 72.9914 59.4994 74.6195 58.9568 76.3728C58.3097 78.4809 56.3686 79.9838 54.1769 79.9838C47.2681 80.0046 40.3801 80.0046 33.4713 79.9838C32.2816 79.9838 31.2379 79.5037 30.3822 78.6688C28.3366 76.6859 25.8319 75.6214 23.0767 75.0161C23.0141 74.9952 22.9306 75.0161 22.9098 75.0161C22.6802 75.5588 22.5341 76.1223 22.2418 76.5815C21.7826 77.2912 21.0521 77.646 20.1754 77.646C15.7922 77.646 11.4298 77.6669 7.04658 77.646C5.48113 77.646 4.4375 76.498 4.4375 74.8491C4.4375 71.3634 4.4375 67.8776 4.4375 64.3919C4.4375 59.3616 4.4375 54.3522 4.4375 49.3219C4.4375 47.2555 5.43939 46.2536 7.50577 46.2536C11.4298 46.2536 15.3747 46.2536 19.2988 46.2536C21.5948 46.2536 22.2001 46.6919 22.8889 48.8836C23.5986 48.2365 24.2456 47.5686 24.9761 47.005C26.6877 45.6692 28.4619 44.396 30.1734 43.0392C32.699 41.0355 34.2645 38.4264 34.7445 35.212C34.9533 33.8553 35.0994 32.4568 35.0367 31.0792C34.9324 28.8876 37.0614 27.1761 38.7521 26.863C41.1733 26.4246 43.4275 27.677 44.2833 30.0147C46.141 35.0242 46.141 40.0336 44.3668 45.0639C44.2624 45.3352 44.179 45.5857 44.0746 45.9405ZM43.8659 77.5208C44.5964 77.5208 45.3269 77.5208 46.0575 77.5208C48.7083 77.5208 51.3591 77.5417 54.0308 77.5208C55.4502 77.4999 56.5147 76.5398 56.7025 75.1622C56.8695 73.9307 56.0972 72.6783 54.9075 72.3026C54.5735 72.1983 54.1978 72.1774 53.843 72.1148C53.1542 71.9895 52.8202 71.5303 52.8202 70.8416C52.8202 70.1945 53.342 69.6936 54.0308 69.6727C54.4274 69.6727 54.8031 69.7353 55.1997 69.7771C56.9112 69.9649 58.6228 68.0446 58.2471 66.3957C57.9757 65.1642 57.0991 64.4128 55.7632 64.2667C54.824 64.1623 54.3439 63.6822 54.3857 62.91C54.4483 62.1585 55.0118 61.7202 55.9511 61.7828C56.2642 61.8037 56.5564 61.8872 56.8695 61.929C57.1408 61.9498 57.4539 61.9916 57.7044 61.929C59.0402 61.6159 60.1882 60.0713 60.0421 58.7981C59.8751 57.3578 58.748 56.3977 57.1617 56.356C56.5355 56.3351 55.9094 56.3768 55.2832 56.3351C54.3648 56.2516 53.8221 55.208 54.3857 54.4983C54.6779 54.1643 55.2414 53.9139 55.7215 53.893C57.0991 53.8095 58.4767 53.893 59.8543 53.8512C61.378 53.8095 62.4634 52.5989 62.4216 51.0752C62.3799 49.5515 61.2319 48.487 59.5829 48.487C53.9265 48.487 48.2909 48.487 42.6344 48.487C40.9437 48.487 40.4428 47.6938 41.1733 46.2119C42.3422 43.8741 42.9892 41.3903 43.1353 38.8021C43.3023 36.0678 42.864 33.417 41.883 30.8496C41.4864 29.806 40.4636 29.2633 39.2948 29.4303C38.1676 29.5973 37.6041 30.2652 37.5206 31.5176C37.4788 32.2898 37.3953 33.083 37.3536 33.8553C37.1866 38.4055 35.2663 42.1208 31.7806 45.0221C31.0918 45.5857 30.1943 45.9197 29.5055 46.5041C27.3348 48.3826 25.2266 50.3238 23.1394 52.2649C22.9306 52.4528 22.7845 52.8494 22.7845 53.1416C22.7637 59.3825 22.7637 65.6443 22.7637 71.8852C22.7637 72.3653 22.9098 72.5531 23.3898 72.6575C26.6877 73.3254 29.6725 74.6404 32.1563 76.9781C32.5738 77.3747 33.3252 77.5834 33.9305 77.5834C37.2492 77.5417 40.568 77.5208 43.8659 77.5208ZM7.00483 48.8418C7.00483 57.6709 7.00483 66.3957 7.00483 75.1413C11.4507 75.1413 15.8339 75.1413 20.2172 75.1413C20.2172 66.3331 20.2172 57.5874 20.2172 48.8418C15.7505 48.8418 11.409 48.8418 7.00483 48.8418Z" fill="#023D64"/>
<path d="M58.1796 29.8074C58.5136 28.3254 58.785 26.6765 59.265 25.0902C59.599 23.963 59.3903 23.2325 58.4301 22.5228C57.2195 21.6253 56.155 20.5399 55.007 19.5589C54.5269 19.1415 54.2556 18.6823 54.4852 18.0561C54.6939 17.4299 55.1949 17.2421 55.821 17.1794C57.5535 17.0333 59.2859 16.8455 61.0392 16.6994C61.6236 16.6576 61.9576 16.4489 62.1872 15.8853C62.8342 14.2573 63.5648 12.6918 64.2327 11.0846C64.4832 10.5002 64.838 10.041 65.5477 10.041C66.2156 10.0619 66.5496 10.5002 66.8 11.0638C67.5097 12.7127 68.2402 14.3616 68.9082 16.0106C69.096 16.4489 69.3465 16.6368 69.8266 16.6785C71.6425 16.8246 73.4584 17.0333 75.2743 17.1794C75.8796 17.2212 76.3388 17.4299 76.5475 18.0352C76.7771 18.6614 76.5058 19.1415 76.0257 19.5381C74.669 20.7278 73.3332 21.9384 71.9764 23.0864C71.559 23.4412 71.4755 23.7752 71.6007 24.297C72.0182 25.9668 72.373 27.6366 72.7487 29.3064C72.8948 29.9326 72.9575 30.5588 72.3521 31.018C71.7468 31.4563 71.1833 31.2267 70.6197 30.8928C69.1169 29.9952 67.6141 29.1395 66.1321 28.2211C65.6938 27.9497 65.3807 27.9288 64.9424 28.2211C63.3769 29.2021 61.7697 30.1205 60.1834 31.0389C59.1607 31.6024 58.1588 31.0389 58.1796 29.8074ZM72.3521 19.4128C70.9746 19.2876 69.8057 19.1415 68.6368 19.0789C67.8228 19.0371 67.301 18.6823 66.9879 17.8891C66.5496 16.762 66.0277 15.6557 65.5059 14.4243C64.9841 15.614 64.4832 16.6368 64.0866 17.7013C63.7318 18.6405 63.1473 19.0371 62.1663 19.0789C61.0392 19.1206 59.9329 19.2876 58.6597 19.4128C59.6199 20.2477 60.3921 21.02 61.2479 21.6879C62.0828 22.335 62.3124 23.0655 62.0202 24.0674C61.7071 25.111 61.5401 26.1964 61.2688 27.4488C62.4377 26.76 63.4395 26.2173 64.3788 25.5911C65.1511 25.0693 65.8399 25.111 66.6122 25.612C67.5723 26.2382 68.5742 26.7808 69.7013 27.4488C69.43 26.1755 69.2213 25.0484 68.929 23.963C68.6786 23.0447 68.8873 22.3767 69.6387 21.7714C70.5571 21.0826 71.3711 20.2895 72.3521 19.4128Z" fill="#023D64"/>
<path d="M6.70896 30.1211C7.16816 28.0547 7.56474 26.1971 8.00306 24.3394C8.14917 23.7759 8.04481 23.4419 7.60648 23.0662C6.24976 21.9182 4.95566 20.7284 3.61981 19.5596C3.16062 19.163 2.84753 18.7038 3.07713 18.0568C3.28585 17.4306 3.78679 17.2218 4.41297 17.1801C6.20802 17.034 7.98219 16.8253 9.77723 16.6792C10.2782 16.6374 10.5495 16.4287 10.7374 15.9695C11.4053 14.3414 12.1358 12.7134 12.8246 11.0853C13.0751 10.5009 13.4299 10.0208 14.1187 10.0417C14.8284 10.0417 15.1624 10.5426 15.4128 11.127C16.0808 12.7134 16.8113 14.2579 17.4375 15.8651C17.688 16.4913 18.0428 16.6792 18.6481 16.7209C20.3805 16.867 22.1129 17.0549 23.8662 17.201C24.4715 17.2427 24.9307 17.4514 25.1603 18.0359C25.3899 18.6621 25.1395 19.1421 24.6594 19.5596C23.2818 20.7493 21.9251 21.9808 20.5475 23.1705C20.1718 23.4836 20.0883 23.7967 20.1927 24.2559C20.5892 25.9257 20.9441 27.5955 21.3407 29.2653C21.4868 29.9124 21.612 30.5595 20.9858 31.0395C20.3596 31.5196 19.7752 31.2482 19.1908 30.8934C17.8132 30.0585 16.3939 29.3071 15.0371 28.4096C14.3692 27.9504 13.8891 28.013 13.2421 28.4304C11.8019 29.3488 10.3199 30.2255 8.79622 31.0395C8.42051 31.2274 7.81521 31.2482 7.4395 31.0813C7.04292 30.8934 6.87594 30.3507 6.70896 30.1211ZM20.9441 19.4343C19.6082 19.3091 18.4811 19.163 17.3331 19.1004C16.4565 19.0586 15.8929 18.7247 15.5589 17.8689C15.1415 16.7627 14.6197 15.6773 14.0979 14.4667C13.576 15.6773 13.0542 16.7418 12.6368 17.8689C12.3028 18.7038 11.7601 19.0795 10.8626 19.1213C9.71462 19.1839 8.56662 19.33 7.25165 19.4552C8.23266 20.3319 9.06756 21.125 9.94421 21.8138C10.6956 22.4191 10.8835 23.0871 10.633 24.0054C10.3408 25.0908 10.1321 26.2179 9.86072 27.4912C10.8835 26.8859 11.781 26.4684 12.5533 25.884C13.6387 25.07 14.5988 25.1326 15.6633 25.9257C16.4356 26.4893 17.3122 26.9067 18.3141 27.4912C18.0219 26.1345 17.7714 25.0073 17.5001 23.8802C17.3122 23.0871 17.4584 22.4817 18.1054 21.9391C19.0447 21.1668 19.9213 20.3527 20.9441 19.4343Z" fill="#023D64"/>
<path d="M17.0157 52.995C17.0157 53.7673 16.4939 54.2891 15.7633 54.2683C15.0536 54.2474 14.511 53.6838 14.5318 52.9533C14.5527 52.2019 15.0954 51.6592 15.8051 51.6592C16.5147 51.6801 17.0365 52.2227 17.0157 52.995Z" fill="#023D64"/>
</svg>
