<svg width="438" height="524" viewBox="0 0 438 524" fill="none" xmlns="http://www.w3.org/2000/svg">
<g opacity="0.2" clip-path="url(#clip0_3457_516)">
<path d="M241.278 29.7759C241.499 30.0778 241.432 30.52 241.131 30.7406C240.83 30.9613 240.388 30.8925 240.166 30.5906C239.945 30.2887 240.012 29.8465 240.313 29.6259C240.638 29.3883 241.056 29.474 241.278 29.7759Z" fill="url(#paint0_linear_3457_516)"/>
<path d="M247.205 48.4961C247.613 49.0535 247.514 49.8404 246.935 50.2647C246.379 50.6721 245.593 50.5703 245.167 49.9896C244.758 49.4323 244.858 48.6453 245.437 48.221C246.033 47.8199 246.796 47.9387 247.205 48.4961Z" fill="url(#paint1_linear_3457_516)"/>
<path d="M295.934 81.2196C296.189 81.568 296.115 82.0504 295.768 82.3049C295.421 82.5595 294.939 82.4845 294.683 82.1361C294.428 81.7878 294.501 81.3054 294.849 81.0508C295.156 80.79 295.678 80.8713 295.934 81.2196Z" fill="url(#paint2_linear_3457_516)"/>
<path d="M303.216 53.6756C304.316 52.8695 304.552 51.3218 303.743 50.2187C302.935 49.1156 301.388 48.8749 300.288 49.681C299.188 50.4871 298.952 52.0349 299.761 53.1379C300.57 54.241 302.117 54.4817 303.216 53.6756Z" fill="url(#paint3_linear_3457_516)"/>
<path d="M281.816 43.5112C282.429 44.3473 282.251 45.513 281.417 46.124C280.584 46.735 279.419 46.5537 278.806 45.7176C278.193 44.8815 278.371 43.7158 279.204 43.1048C280.038 42.4938 281.203 42.6751 281.816 43.5112Z" fill="url(#paint4_linear_3457_516)"/>
<path d="M267.642 3.48742C268.346 2.97187 268.496 1.98205 267.979 1.27659C267.462 0.571135 266.473 0.417183 265.77 0.93273C265.066 1.44828 264.915 2.4381 265.432 3.14355C265.95 3.84901 266.939 4.00296 267.642 3.48742Z" fill="url(#paint5_linear_3457_516)"/>
<path d="M237.491 28.1597C238.138 29.0422 237.948 30.2883 237.068 30.9333C236.188 31.5782 234.943 31.3844 234.296 30.5019C233.649 29.6194 233.839 28.3733 234.719 27.7283C235.622 27.0664 236.844 27.2772 237.491 28.1597Z" fill="url(#paint6_linear_3457_516)"/>
<path d="M301.751 51.6778L295.282 81.6986L280.309 44.617L301.751 51.6778Z" stroke="url(#paint7_linear_3457_516)" stroke-miterlimit="10" stroke-linecap="round" stroke-linejoin="round"/>
<path d="M235.921 29.3099L266.706 2.20872L246.211 49.2232L235.921 29.3099Z" stroke="url(#paint8_linear_3457_516)" stroke-miterlimit="10" stroke-linecap="round" stroke-linejoin="round"/>
<path d="M280.314 44.6121L235.923 29.3096L246.213 49.2229L280.314 44.6121Z" stroke="url(#paint9_linear_3457_516)" stroke-miterlimit="10" stroke-linecap="round" stroke-linejoin="round"/>
</g>
<g opacity="0.2" clip-path="url(#clip1_3457_516)">
<path d="M200.972 483.788C200.61 483.691 200.386 483.304 200.483 482.944C200.579 482.583 200.967 482.36 201.329 482.457C201.69 482.554 201.914 482.941 201.818 483.301C201.714 483.689 201.333 483.885 200.972 483.788Z" fill="url(#paint10_linear_3457_516)"/>
<path d="M184.63 472.9C183.963 472.721 183.547 472.046 183.733 471.352C183.912 470.687 184.589 470.274 185.284 470.46C185.952 470.639 186.367 471.315 186.181 472.008C185.967 472.694 185.298 473.079 184.63 472.9Z" fill="url(#paint11_linear_3457_516)"/>
<path d="M126.147 477.888C125.73 477.776 125.485 477.354 125.597 476.938C125.708 476.522 126.131 476.278 126.548 476.39C126.966 476.502 127.21 476.924 127.099 477.34C127.022 477.736 126.564 477.999 126.147 477.888Z" fill="url(#paint12_linear_3457_516)"/>
<path d="M137.71 503.926C137.357 505.243 138.142 506.598 139.463 506.952C140.784 507.306 142.141 506.525 142.494 505.208C142.847 503.891 142.062 502.536 140.741 502.182C139.42 501.828 138.063 502.609 137.71 503.926Z" fill="url(#paint13_linear_3457_516)"/>
<path d="M160.761 498.454C159.76 498.186 159.169 497.166 159.436 496.168C159.704 495.169 160.726 494.581 161.727 494.85C162.729 495.118 163.32 496.138 163.052 497.136C162.785 498.135 161.763 498.723 160.761 498.454Z" fill="url(#paint14_linear_3457_516)"/>
<path d="M196.872 520.793C196.646 521.635 197.148 522.502 197.993 522.728C198.838 522.955 199.705 522.455 199.931 521.613C200.157 520.771 199.655 519.904 198.81 519.678C197.965 519.452 197.097 519.951 196.872 520.793Z" fill="url(#paint15_linear_3457_516)"/>
<path d="M204.938 482.679C203.881 482.395 203.249 481.305 203.532 480.251C203.814 479.197 204.907 478.569 205.964 478.852C207.021 479.135 207.652 480.226 207.37 481.28C207.08 482.361 205.995 482.962 204.938 482.679Z" fill="url(#paint16_linear_3457_516)"/>
<path d="M140.103 504.566L126.354 477.106L161.244 496.649L140.103 504.566Z" stroke="url(#paint17_linear_3457_516)" stroke-miterlimit="10" stroke-linecap="round" stroke-linejoin="round"/>
<path d="M205.443 480.798L198.403 521.204L184.953 471.712L205.443 480.798Z" stroke="url(#paint18_linear_3457_516)" stroke-miterlimit="10" stroke-linecap="round" stroke-linejoin="round"/>
<path d="M161.244 496.657L205.441 480.8L184.95 471.713L161.244 496.657Z" stroke="url(#paint19_linear_3457_516)" stroke-miterlimit="10" stroke-linecap="round" stroke-linejoin="round"/>
</g>
<path d="M15.6317 230.393C15.2527 230.393 15 230.14 15 229.761C15 182.265 34.5832 137.422 69.9593 103.443C105.083 69.9682 150.945 51.3994 199.082 51.3994C199.461 51.3994 199.714 51.6521 199.714 52.031C199.714 52.41 199.461 52.6626 199.082 52.6626C100.029 52.6626 16.2634 133.759 16.2634 229.761C16.2634 230.14 16.0107 230.393 15.6317 230.393Z" fill="url(#paint20_linear_3457_516)"/>
<path d="M200.217 55.3159C201.962 55.3159 203.376 53.9021 203.376 52.158C203.376 50.4139 201.962 49 200.217 49C198.473 49 197.059 50.4139 197.059 52.158C197.059 53.9021 198.473 55.3159 200.217 55.3159Z" fill="#AFD6E2"/>
<path d="M242.921 481.767C242.542 481.767 242.289 481.514 242.289 481.135C242.289 480.756 242.542 480.503 242.921 480.503C341.974 480.503 425.74 399.407 425.74 303.405C425.74 303.026 425.992 302.773 426.371 302.773C426.75 302.773 427.003 303.026 427.003 303.405C427.003 350.901 407.42 395.744 372.044 429.723C336.92 463.324 291.058 481.767 242.921 481.767Z" fill="url(#paint21_linear_3457_516)"/>
<path d="M244.184 481.009C244.184 482.146 243.299 483.03 242.162 483.03C241.025 483.03 240.141 482.146 240.141 481.009C240.141 479.873 241.025 478.988 242.162 478.988C243.299 478.988 244.184 479.873 244.184 481.009Z" fill="#AFD6E2"/>
<path d="M36.0055 208.872C36.0055 209.623 36.0055 210.374 36.0055 211.125C35.9867 211.219 35.9585 211.304 35.9492 211.398C35.8271 212.234 35.752 213.069 35.5829 213.896C34.1368 220.873 28.1739 226.582 21.1499 227.718C20.4832 227.831 19.8071 227.906 19.1404 228C18.3892 228 17.6379 228 16.8867 228C16.7834 227.981 16.6801 227.953 16.5768 227.934C15.7223 227.803 14.849 227.737 14.0132 227.549C4.02188 225.324 -2.13821 214.947 0.688298 205.097C3.37394 195.744 12.7925 190.251 22.2862 192.504C29.1599 194.129 34.5688 199.923 35.7426 206.9C35.8459 207.548 35.921 208.214 36.0055 208.872ZM33.7612 209.989C33.7612 201.313 26.709 194.26 18.0323 194.242C9.35561 194.232 2.26588 201.313 2.26588 209.999C2.26588 218.666 9.31805 225.728 17.9948 225.746C26.6715 225.756 33.7612 218.675 33.7612 209.989Z" fill="#F29500"/>
<path d="M19.1447 218.873C19.1447 219.305 19.1541 219.699 19.1447 220.103C19.126 220.761 18.6377 221.249 18.0085 221.239C17.3981 221.23 16.9098 220.742 16.9004 220.113C16.891 219.699 16.9004 219.296 16.9004 218.976C16.2619 218.648 15.6233 218.404 15.0881 218.028C13.7265 217.07 13.0316 215.727 12.9659 214.065C12.9377 213.352 13.3978 212.826 14.0552 212.816C14.7031 212.798 15.182 213.286 15.2102 214.009C15.2759 215.615 16.5812 216.826 18.1681 216.751C19.6894 216.685 20.882 215.37 20.8256 213.821C20.7693 212.347 19.5579 211.173 18.0555 211.135C15.9332 211.079 14.3556 210.112 13.4354 208.196C12.0926 205.398 13.6514 202.046 16.6375 201.21C16.7126 201.191 16.7878 201.153 16.891 201.125C16.891 200.731 16.891 200.337 16.891 199.933C16.9004 199.247 17.3793 198.75 18.0273 198.759C18.647 198.768 19.126 199.257 19.1353 199.923C19.1447 200.318 19.1353 200.722 19.1353 201.125C20.1026 201.369 20.9383 201.82 21.6238 202.524C22.5441 203.473 23.023 204.609 23.0699 205.933C23.0981 206.647 22.6286 207.173 21.9806 207.191C21.3327 207.21 20.8538 206.722 20.8162 205.999C20.7505 204.393 19.4546 203.191 17.8583 203.257C16.3276 203.323 15.1257 204.656 15.2008 206.224C15.2665 207.68 16.4779 208.844 17.9616 208.872C19.849 208.91 21.3327 209.708 22.3281 211.314C24.0559 214.112 22.638 217.803 19.4922 218.77C19.3889 218.807 19.2762 218.836 19.1447 218.873Z" fill="#F29500"/>
<path d="M437.004 328.591C437.004 329.196 437.004 329.801 437.004 330.407C436.989 330.482 436.967 330.55 436.959 330.626C436.861 331.299 436.8 331.972 436.664 332.638C435.499 338.259 430.696 342.858 425.037 343.773C424.5 343.864 423.956 343.924 423.419 344C422.813 344 422.208 344 421.603 344C421.52 343.985 421.437 343.962 421.354 343.947C420.665 343.841 419.962 343.788 419.288 343.637C411.24 341.844 406.278 333.485 408.554 325.55C410.718 318.016 418.305 313.591 425.953 315.406C431.49 316.715 435.847 321.382 436.793 327.003C436.876 327.525 436.936 328.062 437.004 328.591ZM435.197 329.491C435.197 322.502 429.516 316.821 422.526 316.806C415.536 316.798 409.825 322.502 409.825 329.499C409.825 336.481 415.506 342.169 422.496 342.185C429.485 342.192 435.197 336.488 435.197 329.491Z" fill="#F29500"/>
<path d="M423.421 336.648C423.421 336.995 423.428 337.313 423.421 337.638C423.405 338.168 423.012 338.561 422.505 338.554C422.014 338.546 421.62 338.153 421.613 337.646C421.605 337.313 421.613 336.988 421.613 336.731C421.098 336.466 420.584 336.269 420.153 335.967C419.056 335.195 418.496 334.113 418.443 332.775C418.42 332.2 418.791 331.776 419.321 331.768C419.843 331.753 420.228 332.147 420.251 332.729C420.304 334.023 421.355 334.998 422.634 334.938C423.859 334.885 424.82 333.826 424.775 332.578C424.729 331.39 423.753 330.445 422.543 330.414C420.833 330.369 419.563 329.59 418.821 328.047C417.74 325.793 418.995 323.092 421.401 322.419C421.461 322.404 421.522 322.373 421.605 322.351C421.605 322.033 421.605 321.715 421.605 321.39C421.613 320.838 421.998 320.437 422.52 320.444C423.02 320.452 423.405 320.845 423.413 321.382C423.421 321.7 423.413 322.025 423.413 322.351C424.192 322.547 424.865 322.91 425.418 323.478C426.159 324.242 426.545 325.157 426.582 326.224C426.605 326.799 426.227 327.222 425.705 327.237C425.183 327.252 424.797 326.859 424.767 326.277C424.714 324.983 423.67 324.015 422.384 324.068C421.151 324.121 420.183 325.195 420.243 326.458C420.296 327.631 421.272 328.569 422.467 328.591C423.988 328.622 425.183 329.265 425.985 330.558C427.377 332.812 426.235 335.785 423.7 336.564C423.617 336.595 423.526 336.617 423.421 336.648Z" fill="#F29500"/>
<defs>
<linearGradient id="paint0_linear_3457_516" x1="239.336" y1="30.3425" x2="241.747" y2="29.0407" gradientUnits="userSpaceOnUse">
<stop stop-color="#30ACFF"/>
<stop offset="1" stop-color="#00426F"/>
</linearGradient>
<linearGradient id="paint1_linear_3457_516" x1="243.644" y1="49.5349" x2="248.066" y2="47.1482" gradientUnits="userSpaceOnUse">
<stop stop-color="#30ACFF"/>
<stop offset="1" stop-color="#00426F"/>
</linearGradient>
<linearGradient id="paint2_linear_3457_516" x1="293.748" y1="81.8558" x2="296.461" y2="80.3908" gradientUnits="userSpaceOnUse">
<stop stop-color="#30ACFF"/>
<stop offset="1" stop-color="#00426F"/>
</linearGradient>
<linearGradient id="paint3_linear_3457_516" x1="296.785" y1="52.2491" x2="305.426" y2="47.5841" gradientUnits="userSpaceOnUse">
<stop stop-color="#30ACFF"/>
<stop offset="1" stop-color="#00426F"/>
</linearGradient>
<linearGradient id="paint4_linear_3457_516" x1="276.556" y1="45.0458" x2="283.088" y2="41.52" gradientUnits="userSpaceOnUse">
<stop stop-color="#30ACFF"/>
<stop offset="1" stop-color="#00426F"/>
</linearGradient>
<linearGradient id="paint5_linear_3457_516" x1="263.529" y1="2.57512" x2="269.056" y2="-0.408284" gradientUnits="userSpaceOnUse">
<stop stop-color="#30ACFF"/>
<stop offset="1" stop-color="#00426F"/>
</linearGradient>
<linearGradient id="paint6_linear_3457_516" x1="231.908" y1="29.7888" x2="238.841" y2="26.046" gradientUnits="userSpaceOnUse">
<stop stop-color="#30ACFF"/>
<stop offset="1" stop-color="#00426F"/>
</linearGradient>
<linearGradient id="paint7_linear_3457_516" x1="265.334" y1="55.5941" x2="304.502" y2="31.5551" gradientUnits="userSpaceOnUse">
<stop stop-color="#30ACFF"/>
<stop offset="1" stop-color="#00426F"/>
</linearGradient>
<linearGradient id="paint8_linear_3457_516" x1="217.383" y1="38.3645" x2="297.17" y2="4.78326" gradientUnits="userSpaceOnUse">
<stop stop-color="#30ACFF"/>
<stop offset="1" stop-color="#00426F"/>
</linearGradient>
<linearGradient id="paint9_linear_3457_516" x1="223.864" y1="38.1494" x2="276.1" y2="7.94882" gradientUnits="userSpaceOnUse">
<stop stop-color="#30ACFF"/>
<stop offset="1" stop-color="#00426F"/>
</linearGradient>
<linearGradient id="paint10_linear_3457_516" x1="202.132" y1="482.13" x2="201.066" y2="484.655" gradientUnits="userSpaceOnUse">
<stop stop-color="#30ACFF"/>
<stop offset="1" stop-color="#00426F"/>
</linearGradient>
<linearGradient id="paint11_linear_3457_516" x1="186.756" y1="469.862" x2="184.802" y2="474.49" gradientUnits="userSpaceOnUse">
<stop stop-color="#30ACFF"/>
<stop offset="1" stop-color="#00426F"/>
</linearGradient>
<linearGradient id="paint12_linear_3457_516" x1="127.453" y1="476.023" x2="126.255" y2="478.864" gradientUnits="userSpaceOnUse">
<stop stop-color="#30ACFF"/>
<stop offset="1" stop-color="#00426F"/>
</linearGradient>
<linearGradient id="paint13_linear_3457_516" x1="143.618" y1="501.012" x2="139.8" y2="510.06" gradientUnits="userSpaceOnUse">
<stop stop-color="#30ACFF"/>
<stop offset="1" stop-color="#00426F"/>
</linearGradient>
<linearGradient id="paint14_linear_3457_516" x1="163.902" y1="493.965" x2="161.016" y2="500.803" gradientUnits="userSpaceOnUse">
<stop stop-color="#30ACFF"/>
<stop offset="1" stop-color="#00426F"/>
</linearGradient>
<linearGradient id="paint15_linear_3457_516" x1="200.65" y1="518.93" x2="198.208" y2="524.716" gradientUnits="userSpaceOnUse">
<stop stop-color="#30ACFF"/>
<stop offset="1" stop-color="#00426F"/>
</linearGradient>
<linearGradient id="paint16_linear_3457_516" x1="208.272" y1="477.913" x2="205.209" y2="485.172" gradientUnits="userSpaceOnUse">
<stop stop-color="#30ACFF"/>
<stop offset="1" stop-color="#00426F"/>
</linearGradient>
<linearGradient id="paint17_linear_3457_516" x1="166.05" y1="478.714" x2="150.556" y2="521.98" gradientUnits="userSpaceOnUse">
<stop stop-color="#30ACFF"/>
<stop offset="1" stop-color="#00426F"/>
</linearGradient>
<linearGradient id="paint18_linear_3457_516" x1="214.231" y1="462.133" x2="173.035" y2="538.268" gradientUnits="userSpaceOnUse">
<stop stop-color="#30ACFF"/>
<stop offset="1" stop-color="#00426F"/>
</linearGradient>
<linearGradient id="paint19_linear_3457_516" x1="209.311" y1="466.357" x2="187.482" y2="522.609" gradientUnits="userSpaceOnUse">
<stop stop-color="#30ACFF"/>
<stop offset="1" stop-color="#00426F"/>
</linearGradient>
<linearGradient id="paint20_linear_3457_516" x1="199.743" y1="140.924" x2="15" y2="140.924" gradientUnits="userSpaceOnUse">
<stop stop-color="#036EB7"/>
<stop offset="1" stop-color="white"/>
</linearGradient>
<linearGradient id="paint21_linear_3457_516" x1="242.243" y1="392.274" x2="426.986" y2="392.274" gradientUnits="userSpaceOnUse">
<stop stop-color="#036EB7"/>
<stop offset="1" stop-color="white"/>
</linearGradient>
<clipPath id="clip0_3457_516">
<rect width="47.1667" height="83.3645" fill="white" transform="translate(229 27.8857) rotate(-36.2432)"/>
</clipPath>
<clipPath id="clip1_3457_516">
<rect width="47.1667" height="83.3645" fill="white" transform="translate(211.73 477.576) rotate(105)"/>
</clipPath>
</defs>
</svg>
