<svg width="79" height="80" viewBox="0 0 79 80" fill="none" xmlns="http://www.w3.org/2000/svg">
<g clip-path="url(#clip0_3410_707)">
<path d="M40.7437 0C40.6939 0.846473 40.6442 1.69295 40.5945 2.60581C39.7657 2.60581 38.9535 2.60581 38.0584 2.60581C38.0087 1.74274 37.9589 0.86307 37.9258 0C38.8706 0 39.8154 0 40.7437 0Z" fill="#023D64"/>
<path d="M47.7523 27.8012C48.7469 25.1621 49.7249 22.5397 50.7194 19.8675C47.3711 19.8675 44.1223 19.8675 40.8071 19.8675C40.8071 29.0958 40.8071 38.324 40.8071 47.6186C41.6193 47.6186 42.4481 47.6186 43.3266 47.6186C43.3266 48.5148 43.3266 49.3613 43.3266 50.2576C40.7408 50.2576 38.155 50.2576 35.5029 50.2576C35.5029 49.4111 35.5029 48.5812 35.5029 47.6684C36.3482 47.6684 37.1604 47.6684 38.039 47.6684C38.039 38.3738 38.039 29.1621 38.039 19.8841C34.757 19.8841 31.4915 19.8841 28.1432 19.8841C28.2924 20.2825 28.425 20.6476 28.5576 21.0128C29.3367 23.0875 30.1157 25.1455 30.8617 27.2202C31.0274 27.6518 31.2263 27.8177 31.6904 27.8177C33.9779 27.8177 34.2265 28.0833 34.1437 30.3904C34.011 34.4568 31.2263 37.7431 27.4802 38.2742C23.5186 38.8385 19.8388 36.6476 18.7116 32.8966C18.347 31.685 18.3635 30.3406 18.3138 29.046C18.2807 28.2991 18.8774 27.7182 19.6399 27.8343C21.0654 28.0501 21.5792 27.3862 21.9936 26.1248C22.839 23.5356 23.8667 20.9962 24.8281 18.4402C25.2093 17.4111 25.5243 17.1953 26.6183 17.1953C29.9997 17.1953 33.3812 17.1953 36.7626 17.1953C37.0444 17.1953 37.3096 17.1953 37.7737 17.1953C36.7295 15.8177 35.8012 14.5729 34.873 13.3281C33.8619 11.9837 33.8784 11.8177 34.873 10.4733C35.967 9.01277 37.0444 7.55219 38.155 6.1082C38.9672 5.04596 39.8789 5.04596 40.6911 6.1082C41.8845 7.68497 43.0614 9.26173 44.2383 10.8551C44.8516 11.6684 44.8516 12.1497 44.2383 12.963C43.2272 14.324 42.216 15.6684 41.0723 17.1953C41.4867 17.1953 41.7519 17.1953 42.0171 17.1953C45.4317 17.1953 48.8298 17.1953 52.2444 17.1953C53.3384 17.1953 53.6367 17.4111 54.0345 18.4568C55.1285 21.3779 56.2225 24.2991 57.3 27.2202C57.4657 27.6518 57.6646 27.8343 58.1288 27.8012C60.582 27.6352 60.5985 28.3987 60.5654 30.3738C60.4991 34.5065 57.5155 37.8924 53.5207 38.3074C49.4099 38.7389 45.7467 36.1331 44.9013 32.0667C44.7024 31.1041 44.7024 30.1082 44.719 29.1124C44.7356 28.2659 45.266 27.8177 46.1445 27.8012C46.6583 27.7846 47.1722 27.8012 47.7523 27.8012ZM57.8635 30.4899C54.3329 30.4899 50.8686 30.4899 47.4042 30.4899C47.2882 33.3115 49.7746 35.768 52.6588 35.7348C55.5429 35.7182 57.9796 33.2783 57.8635 30.4899ZM31.4252 30.5065C27.9443 30.5065 24.4468 30.5065 20.9659 30.5065C20.8168 33.2451 23.2865 35.7182 26.1541 35.7514C29.0383 35.768 31.4915 33.3613 31.4252 30.5065ZM37.1107 11.9173C37.8898 12.9464 38.6357 13.9422 39.4147 15.0045C40.2104 13.9422 40.9563 12.9464 41.7188 11.9173C40.9397 10.8717 40.1938 9.87584 39.4147 8.8302C38.6191 9.90903 37.8732 10.8883 37.1107 11.9173ZM26.1873 22.3074C25.458 24.2493 24.8115 25.992 24.1485 27.768C25.5574 27.768 26.8338 27.768 28.2261 27.768C27.5631 25.9754 26.9166 24.2327 26.1873 22.3074ZM54.681 27.768C54.0014 25.9754 53.3549 24.2493 52.6256 22.2908C51.8963 24.2493 51.2498 25.9754 50.5868 27.768C51.9957 27.768 53.2721 27.768 54.681 27.768Z" fill="#023D64"/>
<path d="M61.8778 62.9542C61.1319 62.4562 60.4523 62.0081 59.6899 61.4936C59.8722 61.2114 60.0048 60.9791 60.1705 60.7467C61.6126 58.589 63.0547 56.4148 64.4968 54.2571C65.1267 53.2944 65.077 52.4977 64.3642 51.9832C63.6349 51.4521 62.7564 51.6347 62.0602 52.4811C60.1042 54.921 58.1483 57.3442 56.2089 59.8006C54.8995 61.4604 54.4022 63.4853 54.0375 65.5102C53.7392 67.1699 53.5237 68.8629 53.4739 70.5392C53.4408 71.7177 53.6397 72.9127 53.9215 74.0745C54.3193 75.7177 54.8995 77.311 55.4299 79.0206C54.6011 79.2861 53.8055 79.5351 52.9104 79.8172C52.5623 78.7052 52.2805 77.6264 51.8993 76.5807C49.8604 71.1202 50.8881 65.8255 52.7612 60.5973C53.1093 59.6181 53.7557 58.7052 54.4022 57.8753C56.1592 55.5849 57.9991 53.3608 59.7893 51.087C61.5298 48.8961 63.2371 48.4811 65.8063 49.6928C66.1875 48.6471 66.5688 47.6181 66.9334 46.5724C68.0274 43.5185 69.0883 40.448 70.2155 37.394C70.9116 35.5019 72.7184 34.3235 74.6246 34.4065C76.6303 34.4894 78.3707 35.8006 78.8348 37.7592C79.0503 38.672 79.0006 39.6679 78.9011 40.6139C78.2215 47.5517 77.4922 54.4894 76.796 61.4272C76.6468 62.9044 76.133 64.199 75.1716 65.3276C72.7847 68.1492 70.4144 70.9874 68.0274 73.7924C67.6959 74.1741 67.6794 74.4563 67.8948 74.8878C68.5579 76.1492 69.1878 77.4272 69.8674 78.8048C69.0717 79.2031 68.3258 79.5849 67.5136 79.9998C66.6019 78.1575 65.6903 76.3816 64.8283 74.5724C64.5465 73.9915 64.8449 73.477 65.2427 73.0123C67.7125 70.0911 70.1491 67.1367 72.6521 64.2488C73.6466 63.1036 74.1273 61.8753 74.2765 60.3816C74.9395 53.394 75.6689 46.3899 76.3816 39.4023C76.4977 38.2073 75.9507 37.3442 74.8898 37.0953C73.9118 36.8629 73.0002 37.4106 72.6024 38.506C70.9614 43.1036 69.3204 47.7177 67.6794 52.3152C67.6296 52.4314 67.5633 52.5641 67.5633 52.6803C67.6794 54.3401 66.7677 55.5849 65.9058 56.8629C64.5797 58.8878 63.2536 60.9127 61.8778 62.9542Z" fill="#023D64"/>
<path d="M19.3592 61.5106C18.6133 62.0086 17.9172 62.4733 17.1712 62.9712C16.5248 61.992 15.9115 61.0625 15.2816 60.1496C14.2705 58.6393 13.2262 57.1455 12.2648 55.5853C11.9002 55.0044 11.7344 54.3073 11.5355 53.6434C11.3366 52.9795 11.3034 52.2658 11.0714 51.6185C9.54641 47.2866 7.98829 42.9546 6.43017 38.6227C6.03235 37.494 5.15383 36.9297 4.19244 37.1289C3.18132 37.3281 2.55144 38.1247 2.63432 39.2368C2.7835 41.1289 2.98241 43.021 3.18132 44.9131C3.67859 49.826 4.22559 54.7554 4.65656 59.6683C4.82232 61.6102 5.36932 63.2534 6.71196 64.7305C9.11544 67.3862 11.3532 70.2077 13.6903 72.9463C14.3036 73.66 14.4031 74.3073 13.9556 75.1372C13.1102 76.7471 12.3146 78.3903 11.5023 80.0335C10.7067 79.6351 9.9608 79.27 9.14859 78.855C9.8945 77.3447 10.6404 75.8675 11.3863 74.3405C9.4801 72.0666 7.59047 69.7928 5.65111 67.5355C1.93814 63.2202 2.46856 63.6849 1.87184 58.2243C1.29169 52.7637 0.761262 47.3032 0.197687 41.826C0.114808 40.9961 0.0153538 40.1662 -0.0343734 39.3364C-0.133828 36.9629 1.35799 34.9878 3.56256 34.5397C5.86659 34.0749 8.00486 35.27 8.83365 37.5438C10.2094 41.3281 11.5521 45.1289 12.9113 48.9297C12.9942 49.1787 13.0936 49.411 13.1765 49.6268C13.8727 49.4276 14.5191 49.1455 15.1822 49.0625C16.5911 48.8965 17.8177 49.3779 18.7128 50.4899C20.8511 53.1123 22.9728 55.7513 25.0447 58.4235C26.3211 60.0666 26.9012 62.0086 27.3488 64.0003C28.0284 66.9878 28.5754 70.0252 28.0615 73.0459C27.6803 75.3032 26.8183 77.494 26.1553 79.8011C25.2602 79.5355 24.4646 79.2866 23.6026 79.021C24.017 77.6434 24.332 76.299 24.8458 75.021C25.7906 72.6808 25.658 70.2741 25.3597 67.8675C25.2271 66.7886 25.0116 65.7098 24.7961 64.6476C24.3485 62.4733 23.5032 60.5148 22.0279 58.8052C20.2378 56.7139 18.5636 54.5065 16.8563 52.3488C16.3922 51.7679 15.7623 51.5189 15.1324 51.8011C14.7015 52.0003 14.2871 52.4982 14.1379 52.9463C14.0384 53.3115 14.2705 53.8592 14.5191 54.2243C15.9281 56.4152 17.3867 58.5563 18.8288 60.7305C19.0112 60.9629 19.1603 61.1953 19.3592 61.5106Z" fill="#023D64"/>
<path d="M11.7852 27.8838C12.5808 27.8838 13.3764 27.8838 14.2715 27.8838C14.2715 28.6971 14.2715 29.5103 14.2715 30.4066C13.5256 30.4896 12.7134 30.5726 11.7852 30.6722C11.7852 29.7095 11.7852 28.8464 11.7852 27.8838Z" fill="#023D64"/>
<path d="M48.982 1.67676C49.8605 2.0419 50.6561 2.39045 51.5512 2.77219C51.17 3.58547 50.8053 4.33236 50.4075 5.14564C49.645 4.83028 48.9157 4.51493 48.0703 4.16638C48.3687 3.35311 48.667 2.55643 48.982 1.67676Z" fill="#023D64"/>
<path d="M64.5117 27.7842C65.44 27.7842 66.2522 27.7842 67.0478 27.7842C67.0478 28.7302 67.0478 29.6265 67.0478 30.5892C66.1361 30.4896 65.3239 30.4232 64.5117 30.3402C64.5117 29.4937 64.5117 28.697 64.5117 27.7842Z" fill="#023D64"/>
<path d="M16.2926 17.9256C15.9942 18.7389 15.7124 19.4858 15.414 20.2991C14.5853 20.0501 13.7896 19.8011 12.8945 19.519C13.1763 18.7389 13.425 18.0086 13.7399 17.3115C13.8062 17.1787 14.1377 17.0294 14.2869 17.0791C14.9333 17.3115 15.5632 17.6103 16.2926 17.9256Z" fill="#023D64"/>
<path d="M24.0664 47.7174C23.5194 48.4145 23.0056 49.0784 22.4586 49.8087C21.7293 49.178 21.0662 48.6136 20.3203 47.9829C20.9502 47.319 21.5138 46.7049 22.1271 46.0576C22.7901 46.6219 23.4034 47.1531 24.0664 47.7174Z" fill="#023D64"/>
<path d="M45.7461 52.1492C46.5915 51.8837 47.3539 51.6513 48.1662 51.3857C48.4645 52.199 48.7629 52.9625 49.0944 53.8422C48.2159 54.1243 47.3705 54.4065 46.4257 54.7052C46.1936 53.8588 45.9782 53.0455 45.7461 52.1492Z" fill="#023D64"/>
<path d="M56.6875 9.46048C57.2842 8.82977 57.8644 8.23226 58.4777 7.56836C59.1407 8.26545 59.754 8.91276 60.417 9.59326C59.754 10.1742 59.1241 10.7219 58.5606 11.2032C57.9473 10.6389 57.3505 10.0746 56.6875 9.46048Z" fill="#023D64"/>
<path d="M63.3834 20.1662C63.085 19.3529 62.8032 18.606 62.4883 17.7761C63.2839 17.4276 64.063 17.0956 64.9083 16.7305C65.2399 17.6101 65.5548 18.4566 65.9029 19.3529C65.0409 19.635 64.2619 19.884 63.3834 20.1662Z" fill="#023D64"/>
<path d="M16.6406 43.7174C17.4031 43.1863 18.0827 42.705 18.7955 42.207C19.3093 42.8709 19.8232 43.5182 20.3536 44.2153C19.674 44.7962 19.0441 45.344 18.3645 45.9415C17.7844 45.178 17.2374 44.4809 16.6406 43.7174Z" fill="#023D64"/>
<path d="M22.3594 5.84238C23.1716 5.27807 23.8843 4.78014 24.6634 4.23242C25.1441 5.0125 25.5916 5.7262 26.0723 6.47309C25.3762 6.95441 24.7297 7.41914 24.0004 7.91707C23.4534 7.25317 22.9395 6.58927 22.3594 5.84238Z" fill="#023D64"/>
<path d="M12.1986 22.2568C13.1268 22.4394 13.9225 22.6054 14.7844 22.788C14.6518 23.651 14.5524 24.4311 14.4197 25.2942C13.5578 25.2112 12.729 25.1282 11.8008 25.0286C11.9334 24.0826 12.0494 23.2361 12.1986 22.2568Z" fill="#023D64"/>
<path d="M64.0478 32.8633C64.9429 33.0459 65.722 33.2118 66.6171 33.3944C66.385 34.3073 66.1695 35.1869 65.9375 36.1164C65.0755 35.8508 64.2799 35.6019 63.418 35.3363C63.6169 34.5064 63.8158 33.7264 64.0478 32.8633Z" fill="#023D64"/>
<path d="M60.0542 42.1572C60.767 42.6552 61.4466 43.1365 62.2091 43.6676C61.6455 44.4145 61.0985 45.1116 60.5018 45.8917C59.8056 45.2942 59.1591 44.7464 58.4961 44.1821C59.0265 43.485 59.5238 42.8543 60.0542 42.1572Z" fill="#023D64"/>
<path d="M50.5039 50.3903C51.2332 49.9754 51.9294 49.577 52.7085 49.1455C53.1726 49.8758 53.6201 50.5895 54.1008 51.3696C53.2721 51.8343 52.5261 52.2658 51.6642 52.7472C51.283 51.9505 50.9017 51.2036 50.5039 50.3903Z" fill="#023D64"/>
<path d="M29.8203 53.892C30.1353 53.0289 30.4336 52.2322 30.732 51.4189C31.5608 51.6845 32.3067 51.9169 33.152 52.1824C32.9366 53.0289 32.7211 53.8422 32.5056 54.7384C31.5608 54.4397 30.7154 54.1741 29.8203 53.892Z" fill="#023D64"/>
<path d="M33.0497 3.45236C32.8343 2.60589 32.6188 1.80921 32.3867 0.896343C33.2984 0.697172 34.1437 0.5146 35.1051 0.31543C35.2543 1.1785 35.3869 2.00838 35.5361 2.92124C34.7073 3.10381 33.9117 3.26979 33.0497 3.45236Z" fill="#023D64"/>
<path d="M28.2941 5.22864C27.8962 4.41536 27.5316 3.68507 27.1172 2.87179C27.9791 2.50665 28.7913 2.1415 29.6864 1.74316C30.0014 2.60623 30.2997 3.38632 30.6147 4.21619C29.8356 4.54814 29.1063 4.8635 28.2941 5.22864Z" fill="#023D64"/>
<path d="M56.3409 5.74277C55.7608 6.50626 55.2635 7.15356 54.7331 7.85066C54.0203 7.35273 53.3573 6.888 52.6445 6.39008C53.1087 5.64319 53.5396 4.94609 54.0203 4.14941C54.7994 4.68053 55.5287 5.17846 56.3409 5.74277Z" fill="#023D64"/>
<path d="M20.2392 7.68457C20.8856 8.34847 21.4658 8.96258 22.0625 9.59328C21.4824 10.224 20.9354 10.8049 20.3221 11.4356C19.6756 10.8713 19.0292 10.3236 18.3164 9.72606C18.9629 9.04557 19.5762 8.39826 20.2392 7.68457Z" fill="#023D64"/>
<path d="M64.4134 25.1448C64.2808 24.2983 64.1482 23.5182 64.0156 22.6385C64.861 22.456 65.6732 22.29 66.5849 22.1074C66.734 23.0369 66.8667 23.8834 67.0324 24.846C66.1207 24.9456 65.292 25.0452 64.4134 25.1448Z" fill="#023D64"/>
<path d="M12.9432 36.1828C12.6946 35.2367 12.4791 34.4069 12.2305 33.4608C13.109 33.2782 13.9378 33.0957 14.7997 32.9131C15.0152 33.7264 15.2141 34.4733 15.4462 35.3529C14.6671 35.6185 13.8715 35.8674 12.9432 36.1828Z" fill="#023D64"/>
<path d="M18.7443 13.4772C18.2802 14.2075 17.8658 14.888 17.4017 15.6349C16.6392 15.2199 15.9099 14.8216 15.0977 14.3734C15.5949 13.5602 16.0756 12.7967 16.5729 11.9834C17.3354 12.4979 18.0316 12.9792 18.7443 13.4772Z" fill="#023D64"/>
<path d="M54.8164 47.7008C55.4629 47.1365 56.0762 46.6219 56.6729 46.0908C57.3028 46.6883 57.9161 47.2692 58.5957 47.8999C57.8498 48.5473 57.1702 49.1448 56.4408 49.7755C55.8938 49.0784 55.38 48.4145 54.8164 47.7008Z" fill="#023D64"/>
<path d="M43.6244 55.2865C42.6795 55.3861 41.8342 55.469 40.8562 55.5686C40.8065 54.6724 40.7568 53.8259 40.707 52.9462C41.5855 52.8632 42.3646 52.7802 43.2431 52.6807C43.3757 53.5437 43.4918 54.3736 43.6244 55.2865Z" fill="#023D64"/>
<path d="M15.1651 41.3282C14.7341 40.4652 14.3363 39.6685 13.9219 38.822C14.7507 38.4569 15.5297 38.1249 16.3419 37.7764C16.7232 38.5399 17.0713 39.2535 17.4691 40.0502C16.69 40.4652 15.9773 40.8801 15.1651 41.3282Z" fill="#023D64"/>
<path d="M62.5207 37.71C63.3661 38.0751 64.112 38.3905 64.9408 38.7556C64.5264 39.6187 64.1286 40.4154 63.7142 41.2784C62.9351 40.8469 62.2224 40.4486 61.4102 40.017C61.7748 39.2535 62.1229 38.5232 62.5207 37.71Z" fill="#023D64"/>
<path d="M63.6515 14.2074C62.8227 14.6722 62.11 15.0705 61.3475 15.502C60.8999 14.7717 60.4524 14.0912 59.9883 13.3444C60.701 12.8464 61.3806 12.3651 62.1266 11.834C62.6404 12.6141 63.1211 13.361 63.6515 14.2074Z" fill="#023D64"/>
<path d="M35.2539 55.3031C35.3865 54.4068 35.5025 53.5935 35.6351 52.6973C36.4474 52.7803 37.2596 52.8466 38.0552 52.9296C38.0552 53.8093 38.0552 54.6226 38.0552 55.552C37.0938 55.4525 36.2153 55.3861 35.2539 55.3031Z" fill="#023D64"/>
<path d="M45.6299 3.40256C44.8012 3.23659 44.0221 3.07061 43.1602 2.90464C43.2762 2.04157 43.3922 1.21169 43.5248 0.298828C44.4531 0.481401 45.315 0.663973 46.2598 0.846546C46.0609 1.72621 45.8454 2.53949 45.6299 3.40256Z" fill="#023D64"/>
<path d="M26.157 49.1621C26.9361 49.6102 27.6323 49.992 28.3782 50.4069C27.9969 51.187 27.6323 51.9173 27.2345 52.7638C26.4222 52.3156 25.6432 51.8841 24.7812 51.4194C25.2454 50.6559 25.6929 49.9422 26.157 49.1621Z" fill="#023D64"/>
</g>
<defs>
<clipPath id="clip0_3410_707">
<rect width="79" height="80" fill="white"/>
</clipPath>
</defs>
</svg>
