<svg width="32" height="34" viewBox="0 0 32 34" fill="none" xmlns="http://www.w3.org/2000/svg">
<path d="M2.6989 16.1169C4.04835 16.1169 5.39781 16.5584 6.52235 17.4416C8.32162 18.7662 9.89598 20.3117 11.2454 22.0779C11.9202 22.7403 11.9202 22.7403 12.37 22.0779C14.3941 18.1039 16.8681 14.1299 19.3421 10.1558C21.5912 6.84416 24.0652 3.97403 27.2139 1.54545C28.1136 0.662338 29.2381 0.220779 30.5876 0C30.8125 0 31.0374 0 31.2623 0C31.4872 0 31.7121 1.64493e-08 31.937 0.220779C32.1619 0.441558 31.7121 0.441558 31.7121 0.662338C24.7399 9.49351 18.6674 19.4286 14.1692 29.5844C13.4945 30.9091 13.0447 32.2338 12.5949 33.3377C12.5949 33.5584 12.5949 34 12.1451 34C11.9202 34 11.9202 33.5584 11.6952 33.3377C10.7956 30.9091 9.67107 28.4805 8.09671 26.2727C6.07253 22.961 3.59854 19.8701 0.674725 17.4416C0.224908 17.4416 0 17.2208 0 17C0 16.5584 0.449817 16.5584 0.674725 16.5584C1.34945 16.3377 2.02418 16.1169 2.6989 16.1169Z" fill="white"/>
</svg>
