<svg width="80" height="80" viewBox="0 0 80 80" fill="none" xmlns="http://www.w3.org/2000/svg">
<g clip-path="url(#clip0_3408_695)">
<path d="M18.5826 71.3898C32.9178 71.3898 47.1336 71.3898 61.421 71.3898C61.421 71.0321 61.421 70.722 61.421 70.3881C61.421 64.759 61.421 59.1537 61.421 53.5246C61.421 53.2622 61.3972 52.976 61.4449 52.7136C61.5642 51.9504 62.0412 51.4972 62.8283 51.4256C63.5677 51.3779 64.1879 51.9504 64.2833 52.7136C64.3072 52.9522 64.3072 53.1907 64.3072 53.4292C64.3072 59.7262 64.3072 66.047 64.3072 72.3439C64.3072 76.9712 61.3018 79.9766 56.6506 79.9766C45.5594 79.9766 34.4443 79.9766 23.3531 79.9766C18.7735 79.9766 15.7442 76.9712 15.7442 72.3916C15.7442 66.0947 15.7442 59.7739 15.7442 53.4769C15.7442 53.2145 15.7204 52.9283 15.7681 52.6659C15.9112 51.9027 16.3883 51.4256 17.1754 51.4256C17.9625 51.4256 18.4395 51.9027 18.5826 52.6659C18.6304 52.9522 18.6065 53.2622 18.6065 53.5485C18.6065 59.1299 18.6065 64.7351 18.6065 70.3165C18.5826 70.6743 18.5826 70.9844 18.5826 71.3898ZM18.9643 74.3237C19.5129 76.0649 21.0633 77.1382 23.1145 77.1382C29.9363 77.1382 36.7341 77.1382 43.5558 77.1382C48.04 77.1382 52.5481 77.1382 57.0323 77.1382C58.9881 77.1382 60.5862 76.0172 61.0394 74.3237C47.0144 74.3237 33.0132 74.3237 18.9643 74.3237Z" fill="#036EB7"/>
<path d="M51.427 2.86225C51.427 3.45856 51.4509 3.95945 51.427 4.46035C51.3316 6.70245 49.5427 8.53906 47.3006 8.56291C42.4586 8.61061 37.5928 8.61061 32.7508 8.56291C30.461 8.53906 28.6721 6.67859 28.6005 4.38879C28.5767 3.91175 28.6005 3.45856 28.6005 2.95766C26.3823 2.95766 24.2117 2.7907 22.0651 3.00537C19.9422 3.22004 18.6065 5.10435 18.6065 7.3226C18.6065 13.715 18.6065 20.1073 18.6065 26.4997C18.6065 26.7859 18.6304 27.096 18.5826 27.3822C18.4157 28.0978 17.9625 28.551 17.1992 28.551C16.4121 28.551 15.9351 28.0978 15.7681 27.3345C15.7204 27.096 15.7442 26.8575 15.7442 26.619C15.7442 20.2504 15.7442 13.8819 15.7442 7.51342C15.7204 3.05307 18.7496 0 23.21 0C34.3966 0 45.5832 0 56.7699 0C61.2541 0 64.2833 3.02922 64.2833 7.51342C64.2833 13.8819 64.2833 20.2504 64.2833 26.619C64.2833 26.8575 64.3072 27.096 64.2595 27.3345C64.1163 28.0978 63.6393 28.5748 62.8522 28.5748C62.0651 28.5748 61.588 28.1216 61.4449 27.3345C61.3972 27.0483 61.4211 26.7382 61.4211 26.452C61.4211 20.1789 61.4211 13.9058 61.4211 7.63268C61.4211 4.60346 59.6798 2.88611 56.6506 2.88611C54.9571 2.86225 53.2636 2.86225 51.427 2.86225ZM48.5648 2.90996C42.7925 2.90996 37.1157 2.90996 31.4151 2.90996C31.4151 3.29159 31.4151 3.62552 31.4151 3.9356C31.4389 5.19976 31.916 5.6768 33.2278 5.70066C33.7049 5.70066 34.1819 5.70066 34.659 5.70066C38.7377 5.70066 42.7925 5.70066 46.8713 5.70066C48.04 5.70066 48.5409 5.17591 48.5648 4.00716C48.5886 3.67323 48.5648 3.31544 48.5648 2.90996Z" fill="#036EB7"/>
<path d="M40.0272 24.2813C48.5901 24.2575 55.6742 31.2938 55.7219 39.8567C55.7457 48.5628 48.7571 55.6707 40.1226 55.6945C31.3689 55.7184 24.3325 48.7297 24.3087 39.976C24.2848 31.3415 31.3212 24.3052 40.0272 24.2813ZM40.051 27.1436C32.8716 27.1436 27.1232 32.9158 27.1471 40.0953C27.1709 47.1316 32.9431 52.8561 40.051 52.8561C47.0874 52.8561 52.8835 47.0601 52.8596 39.9999C52.8358 32.9158 47.0874 27.1436 40.051 27.1436Z" fill="#036EB7"/>
<path d="M70.0088 25.8077C70.0088 27.9782 70.0088 30.1488 70.0088 32.2955C70.0088 33.822 69.5556 34.2752 68.0768 34.2752C65.0714 34.2752 62.0661 34.2752 59.0607 34.2752C57.8442 34.2752 57.1764 33.7743 57.1764 32.8679C57.1525 31.9377 57.8442 31.4129 59.1084 31.4129C61.756 31.4129 64.4036 31.4129 67.1704 31.4129C67.1704 30.4112 67.1704 29.4332 67.1704 28.4553C67.1704 27.1196 67.1466 25.7838 67.1704 24.4481C67.1943 23.3986 67.719 22.8739 68.7685 22.85C69.007 22.85 69.2455 22.8262 69.4841 22.85C70.7482 22.9693 71.7023 22.8023 72.561 21.5382C73.9683 19.4869 76.9975 19.4869 78.7625 21.2519C80.5515 23.0409 80.4083 25.9508 78.4763 27.5728C76.5681 29.1708 73.6105 28.8369 72.2986 26.7379C71.7023 25.8077 71.106 25.5453 70.0088 25.8077ZM77.1406 24.2573C77.1167 23.494 76.4727 22.85 75.7095 22.8739C74.8985 22.8739 74.2545 23.5656 74.3022 24.3766C74.3499 25.1398 75.0178 25.76 75.781 25.7361C76.5204 25.6884 77.1406 25.0206 77.1406 24.2573Z" fill="#036EB7"/>
<path d="M10.0209 54.216C10.0209 52.0216 10.0209 49.851 10.0209 47.6805C10.0209 46.1539 10.4741 45.7246 11.9767 45.7246C15.006 45.7246 18.0352 45.7246 21.0883 45.7246C22.2093 45.7246 22.8772 46.2494 22.8772 47.1319C22.8772 48.0144 22.2332 48.563 21.1121 48.563C18.4168 48.563 15.6977 48.563 12.8831 48.563C12.8831 50.0895 12.8831 51.5684 12.8831 53.0472C12.8831 53.7866 12.8831 54.526 12.8831 55.2893C12.8831 56.6727 12.4061 57.1259 10.9988 57.1498C10.8318 57.1498 10.641 57.1498 10.4741 57.1498C9.28145 57.0782 8.37507 57.1498 7.54025 58.4139C6.15683 60.5368 3.0799 60.5368 1.29099 58.7479C-0.497915 56.959 -0.354802 54.049 1.62492 52.4271C3.53309 50.8528 6.51461 51.1867 7.80262 53.3096C8.32737 54.2398 8.94752 54.4068 10.0209 54.216ZM4.29636 57.1259C5.05963 57.1259 5.70364 56.4819 5.70364 55.7186C5.70364 54.9315 5.03578 54.2637 4.2248 54.2875C3.46154 54.3114 2.84138 54.9792 2.86523 55.7425C2.88909 56.5058 3.53309 57.1259 4.29636 57.1259Z" fill="#036EB7"/>
<path d="M12.8576 31.4367C15.6722 31.4367 18.3675 31.4367 21.0628 31.4606C21.4683 31.4606 22.0169 31.5083 22.2077 31.7468C22.5178 32.1284 22.804 32.7486 22.7563 33.2018C22.6609 33.9651 22.0169 34.2751 21.2297 34.2751C18.4867 34.2751 15.7676 34.2751 13.0246 34.2751C10.0192 34.2751 9.99539 34.2274 9.99539 31.2459C9.99539 29.4809 9.99539 27.7396 9.99539 25.9746C9.99539 25.9269 9.97154 25.8553 9.92383 25.7361C9.06516 25.6407 8.3496 25.5453 7.77714 26.6186C6.89462 28.2882 4.77178 28.9323 2.95902 28.336C1.17011 27.7635 -0.0463494 26.0461 0.0013548 24.138C0.049059 22.2537 1.33707 20.6317 3.22139 20.1308C5.03415 19.6538 6.99002 20.3932 7.8964 22.0628C8.25419 22.7307 8.65967 22.9215 9.35138 22.85C9.89998 22.8023 10.4724 22.8261 11.0449 22.85C12.3568 22.85 12.8576 23.3509 12.8576 24.7104C12.8815 26.9048 12.8576 29.0992 12.8576 31.4367ZM4.27088 22.85C3.50762 22.8738 2.88746 23.5178 2.88746 24.2811C2.88746 25.0921 3.57917 25.7361 4.39014 25.6884C5.15341 25.6407 5.77357 24.9728 5.72586 24.2095C5.67816 23.4701 5.03415 22.85 4.27088 22.85Z" fill="#036EB7"/>
<path d="M70.0078 54.216C71.0573 54.4068 71.7013 54.2637 72.2738 53.2857C73.2278 51.6399 75.3268 51.0436 77.1396 51.6638C78.9046 52.2601 80.0734 53.9536 80.0257 55.8618C79.978 57.7222 78.6661 59.368 76.8772 59.8451C75.0167 60.346 73.037 59.6065 72.1306 57.913C71.7729 57.2213 71.3435 57.0782 70.6757 57.1259C70.1509 57.1736 69.6023 57.1259 69.0776 57.1259C67.6703 57.1259 67.1933 56.6489 67.1933 55.2655C67.1933 53.0711 67.1933 50.8767 67.1933 48.563C66.8355 48.563 66.5015 48.563 66.1915 48.563C63.7824 48.563 61.3733 48.563 58.9643 48.563C57.8432 48.563 57.1992 48.0144 57.1992 47.1319C57.1992 46.2494 57.8432 45.7246 58.9881 45.7246C62.0889 45.7246 65.1658 45.7246 68.2666 45.7246C69.5546 45.7246 70.0317 46.2255 70.0555 47.5135C70.0078 49.7318 70.0078 51.95 70.0078 54.216ZM75.7562 54.2875C74.9929 54.2637 74.325 54.8838 74.3012 55.6471C74.2773 56.4104 74.8736 57.0782 75.6369 57.1259C76.424 57.1736 77.1396 56.5058 77.1396 55.7186C77.1396 54.9554 76.5194 54.3114 75.7562 54.2875Z" fill="#036EB7"/>
<path d="M14.359 41.4311C12.5701 41.4311 10.7812 41.4549 9.0161 41.4311C8.56291 41.4311 8.30054 41.5265 8.06202 41.9797C7.08408 43.8401 5.12821 44.6511 3.17233 44.1263C1.28801 43.6016 0 41.9081 0 39.9761C0 38.0441 1.28801 36.3983 3.22004 35.8735C5.12821 35.3488 7.08408 36.1836 8.03816 37.9964C8.30054 38.4972 8.58676 38.5688 9.0638 38.5688C12.5939 38.5449 16.1479 38.545 19.678 38.5927C20.1789 38.5927 20.799 38.855 21.133 39.2128C21.3953 39.499 21.4431 40.2623 21.2284 40.5724C20.966 40.9779 20.3697 41.3356 19.8927 41.3595C18.0561 41.4788 16.1956 41.4311 14.359 41.4311ZM4.29338 41.4072C5.05665 41.4072 5.70066 40.787 5.72451 40.0238C5.74836 39.2605 5.12821 38.5927 4.36494 38.5688C3.55397 38.5449 2.88611 39.189 2.88611 39.9999C2.88611 40.787 3.50626 41.4072 4.29338 41.4072Z" fill="#036EB7"/>
<path d="M65.6184 41.4308C63.8295 41.4308 62.0406 41.4308 60.2755 41.4308C59.226 41.4308 58.582 40.8822 58.582 40.0235C58.582 39.1648 59.2022 38.5924 60.2517 38.5924C63.8295 38.5924 67.3835 38.5924 70.9613 38.5924C71.4622 38.5924 71.7245 38.4731 71.9869 37.9961C72.941 36.1833 74.873 35.3723 76.805 35.8732C78.6894 36.3741 80.0012 38.0438 80.0012 39.9996C80.0012 41.9555 78.6894 43.649 76.8289 44.126C74.8969 44.6269 72.941 43.816 71.9869 42.0271C71.7245 41.5023 71.4145 41.4069 70.8897 41.4069C69.1247 41.4308 67.3835 41.4308 65.6184 41.4308ZM77.139 40.0235C77.1628 39.2602 76.5427 38.5924 75.7794 38.5685C75.0161 38.5446 74.3483 39.1648 74.3006 39.9281C74.2529 40.739 74.9207 41.4308 75.7078 41.4308C76.4711 41.4308 77.1151 40.7867 77.139 40.0235Z" fill="#036EB7"/>
<path d="M42.7918 35.7308C40.9075 35.7308 39.0948 35.7308 37.2104 35.7308C37.2104 36.6611 37.2104 37.5436 37.2104 38.5692C38.9278 38.5692 40.6451 38.5692 42.3625 38.5692C44.6523 38.5692 45.7256 39.6426 45.7256 41.9801C45.7256 42.6957 45.7256 43.4112 45.7256 44.1268C45.7018 45.9634 44.533 47.1322 42.6964 47.156C42.3148 47.156 41.9332 47.156 41.48 47.156C41.313 48.3248 41.8139 50.0421 39.9057 49.9467C38.2122 49.8751 38.6654 48.3248 38.5462 47.1322C38.0214 47.1322 37.5205 47.156 37.0196 47.1322C35.7316 47.0606 34.6344 46.1304 34.3482 44.8901C34.1335 43.9598 34.5152 43.1966 35.3023 42.9342C36.0417 42.6957 36.7334 43.0773 37.115 43.9598C37.1627 44.0552 37.1866 44.1745 37.2343 44.2461C39.1186 44.2461 40.9552 44.2461 42.8395 44.2461C42.8395 43.3158 42.8395 42.4571 42.8395 41.4315C42.2432 41.4315 41.6231 41.4315 41.0268 41.4315C39.8342 41.4315 38.6416 41.4315 37.449 41.4315C35.4931 41.4315 34.3243 40.2627 34.3243 38.3307C34.3243 37.5198 34.3243 36.7326 34.3243 35.9217C34.3482 34.0373 35.4931 32.8686 37.3774 32.8447C37.759 32.8447 38.1407 32.8447 38.57 32.8447C38.6893 31.6521 38.2361 30.1256 40.0965 30.0063C41.0745 29.9586 41.3846 30.6026 41.5277 32.8447C42.0047 32.8447 42.5056 32.8209 42.9827 32.8447C44.1514 32.8924 45.0101 33.4887 45.511 34.5382C46.0119 35.6354 45.7495 36.6134 44.8908 36.995C43.9606 37.3766 43.245 36.9473 42.7918 35.7308Z" fill="#036EB7"/>
</g>
<defs>
<clipPath id="clip0_3408_695">
<rect width="80" height="80" fill="white"/>
</clipPath>
</defs>
</svg>
