<svg width="80" height="80" viewBox="0 0 80 80" fill="none" xmlns="http://www.w3.org/2000/svg">
<g clip-path="url(#clip0_3412_747)">
<path d="M12.8589 33.1072C3.42434 30.8024 -2.26225 20.9585 0.861064 11.5024C3.74744 2.77868 13.0312 -1.96015 21.8842 0.796984C30.4356 3.46796 36.1653 13.161 32.3312 23.1556C36.1438 23.1556 39.9348 23.1556 43.8767 23.1556C43.8767 22.8756 43.8767 22.574 43.8767 22.2725C43.8767 15.4443 43.8767 8.61605 43.8767 1.78783C43.8767 0.366182 44.2644 0 45.7076 0C55.6807 0 65.6537 0 75.6268 0C77.0485 0 77.4362 0.387722 77.4362 1.83091C77.4362 24.9219 77.4362 48.0129 77.4362 71.1039C77.4362 71.4486 77.4362 71.7932 77.4362 72.2671C77.8455 72.2671 78.2547 72.2456 78.6424 72.2671C79.504 72.3102 79.9995 72.7625 80.021 73.6241C80.0425 75.2827 80.0425 76.9628 80.021 78.6214C79.9995 79.483 79.5256 79.9569 78.664 80C78.4486 80.0215 78.2332 80 78.0178 80C52.7081 80 27.3985 80 2.06731 80C0.322561 80 0.020999 79.6984 0.020999 77.9321C0.020999 76.5967 0.020999 75.2396 0.020999 73.9041C0.020999 72.6979 0.473342 72.2671 1.67959 72.2671C5.08293 72.2671 8.5078 72.2671 11.9111 72.2671C12.2127 72.2671 12.4927 72.2671 12.8374 72.2671C12.8589 59.1922 12.8589 46.182 12.8589 33.1072ZM74.7868 56.7367C74.7868 38.6645 74.7868 20.6354 74.7868 2.64943C65.3091 2.64943 55.8961 2.64943 46.5046 2.64943C46.5046 20.7216 46.5046 38.7076 46.5046 56.7367C55.9391 56.7367 65.3306 56.7367 74.7868 56.7367ZM43.8121 72.224C43.8121 58.4383 43.8121 44.7388 43.8121 30.9747C43.489 30.9747 43.2305 30.9747 42.9505 30.9747C37.4362 30.9747 31.9435 30.9747 26.4292 30.9962C25.9553 30.9962 25.4599 31.2116 25.0075 31.3839C23.5643 31.944 22.1642 32.6764 20.678 33.0425C19.0409 33.4518 17.2962 33.5164 15.573 33.7318C15.573 46.4836 15.573 59.3646 15.573 72.2456C18.1578 72.2456 20.6564 72.2456 23.2628 72.2456C23.2628 70.9531 23.1551 69.6823 23.3059 68.433C23.4351 67.3344 23.672 66.1712 24.1675 65.2235C25.5245 62.6602 28.5186 61.454 31.3188 62.1648C34.0975 62.8756 36.1007 65.3958 36.1653 68.2822C36.1869 69.5961 36.1653 70.9101 36.1653 72.2456C38.7286 72.224 41.2488 72.224 43.8121 72.224ZM16.8223 2.58481C9.00323 2.56327 2.60581 8.91761 2.58427 16.7367C2.56273 24.5342 8.89553 30.9316 16.6715 30.9747C24.5121 31.0178 30.9311 24.6634 30.9526 16.8444C30.9957 9.00377 24.6414 2.60635 16.8223 2.58481ZM54.1944 72.2456C54.1944 70.867 54.1729 69.553 54.1944 68.2391C54.259 64.965 56.8223 62.2294 60.0749 61.9494C63.3705 61.6694 66.4076 63.9095 66.9246 67.2052C67.14 68.5622 67.0323 69.9838 67.0754 71.3839C67.0754 71.664 67.0754 71.944 67.0754 72.2025C69.7248 72.2025 72.245 72.2025 74.7652 72.2025C74.7652 67.8945 74.7652 63.651 74.7652 59.4076C65.3091 59.4076 55.8961 59.4076 46.5046 59.4076C46.5046 63.7157 46.5046 67.9806 46.5046 72.2456C49.0678 72.2456 51.5665 72.2456 54.1944 72.2456ZM77.3716 74.895C52.4066 74.895 27.5277 74.895 2.64889 74.895C2.64889 75.7566 2.64889 76.5751 2.64889 77.3721C27.5924 77.3721 52.4712 77.3721 77.3716 77.3721C77.3716 76.5536 77.3716 75.7566 77.3716 74.895ZM33.559 72.224C33.559 71.0178 33.559 69.8761 33.559 68.7561C33.559 68.5407 33.559 68.3253 33.559 68.1099C33.4297 66.2574 31.965 64.7281 30.1125 64.5342C28.2386 64.3188 26.2999 65.5035 26.0199 67.3775C25.783 68.9499 25.9768 70.6085 25.9768 72.224C28.4324 72.224 30.9526 72.224 33.559 72.224ZM64.5121 72.224C64.5121 70.8885 64.5337 69.6392 64.5121 68.3683C64.469 66.3436 62.9612 64.7065 61.0011 64.5126C59.0194 64.3403 57.1454 65.6543 56.8869 67.6575C56.6931 69.1438 56.8438 70.6731 56.8438 72.224C59.3856 72.224 61.9058 72.224 64.5121 72.224ZM43.8336 25.8912C43.7259 25.8481 43.6828 25.8266 43.6397 25.8266C39.5256 25.8266 35.433 25.8051 31.3188 25.8266C31.1249 25.8266 30.8664 25.8912 30.7587 26.0205C30.1556 26.7528 29.5956 27.5283 28.9925 28.3468C33.9682 28.3468 38.8794 28.3468 43.8336 28.3468C43.8336 27.5067 43.8336 26.7097 43.8336 25.8912Z" fill="#036EB7"/>
<path d="M49.0234 10.2319C49.0234 9.0472 49.0234 7.86249 49.0234 6.67779C49.0234 5.62232 49.4973 5.14844 50.5528 5.14844C52.9653 5.14844 55.3993 5.14844 57.8118 5.14844C58.8673 5.14844 59.3412 5.62232 59.3412 6.67779C59.3412 9.09028 59.3412 11.5243 59.3412 13.9368C59.3412 14.9923 58.8673 15.4662 57.8118 15.4662C55.3993 15.4662 52.9653 15.4662 50.5528 15.4662C49.4973 15.4662 49.0234 14.9923 49.0234 13.9368C49.0234 12.709 49.0234 11.4812 49.0234 10.2319ZM56.7133 12.8598C56.7133 11.1366 56.7133 9.45646 56.7133 7.79787C54.99 7.79787 53.3099 7.79787 51.6513 7.79787C51.6513 9.52108 51.6513 11.1581 51.6513 12.8598C53.353 12.8598 54.99 12.8598 56.7133 12.8598Z" fill="#036EB7"/>
<path d="M72.2435 10.3181C72.2435 11.5243 72.2435 12.7306 72.2435 13.9368C72.2435 14.9923 71.7696 15.4662 70.7141 15.4662C68.3017 15.4662 65.8676 15.4662 63.4551 15.4662C62.3997 15.4662 61.9258 14.9923 61.9258 13.9368C61.9258 11.5243 61.9258 9.09028 61.9258 6.67779C61.9258 5.62232 62.3997 5.14844 63.4551 5.14844C65.8676 5.14844 68.3017 5.14844 70.7141 5.14844C71.7696 5.14844 72.222 5.62232 72.2435 6.67779C72.265 7.90557 72.2435 9.11182 72.2435 10.3181ZM69.6371 7.79787C67.9139 7.79787 66.2338 7.79787 64.5752 7.79787C64.5752 9.52108 64.5752 11.2012 64.5752 12.8598C66.2984 12.8598 67.9355 12.8598 69.6371 12.8598C69.6371 11.1797 69.6371 9.52108 69.6371 7.79787Z" fill="#036EB7"/>
<path d="M49.0234 23.2204C49.0234 22.0141 49.0234 20.8079 49.0234 19.6016C49.0234 18.5461 49.4973 18.0723 50.5528 18.0723C52.9653 18.0723 55.3993 18.0723 57.8118 18.0723C58.8673 18.0723 59.3412 18.5461 59.3412 19.6016C59.3412 22.0141 59.3412 24.4481 59.3412 26.8606C59.3412 27.9161 58.8673 28.39 57.8118 28.39C55.3993 28.39 52.9653 28.39 50.5528 28.39C49.4973 28.39 49.0234 27.9161 49.0234 26.8606C49.0234 25.6544 49.0234 24.4266 49.0234 23.2204ZM51.6729 20.6786C51.6729 22.4234 51.6729 24.082 51.6729 25.7405C53.3961 25.7405 55.0762 25.7405 56.7348 25.7405C56.7348 24.0173 56.7348 22.3587 56.7348 20.6786C55.0331 20.6786 53.3745 20.6786 51.6729 20.6786Z" fill="#036EB7"/>
<path d="M72.2435 23.3065C72.2435 24.4912 72.2435 25.6759 72.2435 26.8606C72.2435 27.9161 71.7696 28.39 70.7141 28.39C68.3017 28.39 65.8676 28.39 63.4551 28.39C62.3997 28.39 61.9258 27.9161 61.9258 26.8606C61.9258 24.4481 61.9258 22.0141 61.9258 19.6016C61.9258 18.5461 62.3997 18.0723 63.4551 18.0723C65.8676 18.0723 68.3017 18.0723 70.7141 18.0723C71.7696 18.0723 72.2435 18.5461 72.2435 19.6016C72.265 20.8294 72.2435 22.0787 72.2435 23.3065ZM64.5752 20.6786C64.5752 22.4234 64.5752 24.082 64.5752 25.7405C66.2984 25.7405 67.9786 25.7405 69.6371 25.7405C69.6371 24.0173 69.6371 22.3587 69.6371 20.6786C67.9355 20.6786 66.2769 20.6786 64.5752 20.6786Z" fill="#036EB7"/>
<path d="M59.3412 36.2089C59.3412 37.3936 59.3412 38.5783 59.3412 39.763C59.3412 40.8184 58.8673 41.2923 57.8118 41.2923C55.3993 41.2923 52.9653 41.2923 50.5528 41.2923C49.4973 41.2923 49.0234 40.8184 49.0234 39.763C49.0234 37.3505 49.0234 34.9164 49.0234 32.504C49.0234 31.4485 49.4973 30.9746 50.5528 30.9746C52.9653 30.9746 55.3993 30.9746 57.8118 30.9746C58.8673 30.9746 59.3412 31.4485 59.3412 32.504C59.3627 33.7317 59.3412 34.9811 59.3412 36.2089ZM56.7348 38.6644C56.7348 36.9197 56.7348 35.2611 56.7348 33.581C55.0116 33.581 53.353 33.581 51.6729 33.581C51.6729 35.3042 51.6729 36.9843 51.6729 38.6644C53.3745 38.6644 55.0331 38.6644 56.7348 38.6644Z" fill="#036EB7"/>
<path d="M54.1069 54.1947C52.9222 54.1947 51.7375 54.1947 50.5528 54.1947C49.4973 54.1947 49.0234 53.7208 49.0234 52.6653C49.0234 50.2528 49.0234 47.8188 49.0234 45.4063C49.0234 44.3508 49.4973 43.877 50.5528 43.877C52.9653 43.877 55.3993 43.877 57.8118 43.877C58.8673 43.877 59.3412 44.3508 59.3412 45.4063C59.3412 47.8188 59.3412 50.2528 59.3412 52.6653C59.3412 53.7208 58.8673 54.1947 57.8118 54.1947C56.584 54.1947 55.3562 54.1947 54.1069 54.1947ZM51.6513 46.4618C51.6513 48.2065 51.6513 49.8866 51.6513 51.5452C53.3745 51.5452 55.0547 51.5452 56.6917 51.5452C56.6917 49.822 56.6917 48.1419 56.6917 46.4618C55.0116 46.4618 53.3745 46.4618 51.6513 46.4618Z" fill="#036EB7"/>
<path d="M67.1403 43.8768C68.325 43.8768 69.5097 43.8768 70.6944 43.8768C71.7714 43.8768 72.2453 44.3506 72.2453 45.3846C72.2668 47.8401 72.2668 50.2742 72.2453 52.7298C72.2453 53.7206 71.7498 54.1945 70.7375 54.1945C68.2819 54.1945 65.8478 54.216 63.3923 54.1945C62.4014 54.1945 61.9275 53.6991 61.9275 52.6867C61.9275 50.2311 61.906 47.7971 61.9275 45.3415C61.9275 44.3506 62.423 43.8768 63.4354 43.8768C64.6847 43.8552 65.9125 43.8768 67.1403 43.8768ZM64.5339 51.5666C66.2786 51.5666 67.9372 51.5666 69.6174 51.5666C69.6174 49.8434 69.6174 48.1632 69.6174 46.5262C67.8942 46.5262 66.214 46.5262 64.5339 46.5262C64.5339 48.2063 64.5339 49.8434 64.5339 51.5666Z" fill="#036EB7"/>
<path d="M67.0973 41.2923C65.8911 41.2923 64.6848 41.2923 63.4786 41.2923C62.4231 41.2923 61.9492 40.8184 61.9492 39.763C61.9492 37.3505 61.9492 34.9164 61.9492 32.504C61.9492 31.4485 62.4231 30.9746 63.4786 30.9746C65.8911 30.9746 68.3251 30.9746 70.7376 30.9746C71.7931 30.9746 72.2669 31.4485 72.2669 32.504C72.2669 34.9164 72.2669 37.3505 72.2669 39.763C72.2669 40.8184 71.7931 41.2923 70.7376 41.2923C69.5098 41.2923 68.3036 41.2923 67.0973 41.2923ZM64.5556 38.6429C66.3003 38.6429 67.9589 38.6429 69.6175 38.6429C69.6175 36.9197 69.6175 35.2396 69.6175 33.581C67.8943 33.581 66.2357 33.581 64.5556 33.581C64.5556 35.2826 64.5556 36.9412 64.5556 38.6429Z" fill="#036EB7"/>
<path d="M23.2184 46.4622C22.0122 46.4622 20.8059 46.4622 19.5997 46.4622C18.5442 46.4622 18.0703 45.9884 18.0703 44.9329C18.0703 42.5204 18.0703 40.0864 18.0703 37.6739C18.0703 36.6184 18.5442 36.1445 19.5997 36.1445C22.0122 36.1445 24.4462 36.1445 26.8587 36.1445C27.9141 36.1445 28.388 36.6184 28.388 37.6739C28.388 40.0864 28.388 42.5204 28.388 44.9329C28.388 45.9884 27.9141 46.4622 26.8587 46.4622C25.6524 46.4622 24.4462 46.4622 23.2184 46.4622ZM20.6767 43.8128C22.4214 43.8128 24.1015 43.8128 25.7601 43.8128C25.7601 42.0896 25.7601 40.4526 25.7601 38.7509C24.0585 38.7509 22.3783 38.7509 20.6767 38.7509C20.6767 40.4526 20.6767 42.1111 20.6767 43.8128Z" fill="#036EB7"/>
<path d="M41.2904 41.3788C41.2904 42.5635 41.2904 43.7482 41.2904 44.9329C41.2904 45.9884 40.8165 46.4622 39.761 46.4622C37.3485 46.4622 34.9145 46.4622 32.502 46.4622C31.4465 46.4622 30.9727 45.9884 30.9727 44.9329C30.9727 42.5204 30.9727 40.0864 30.9727 37.6739C30.9727 36.6184 31.4465 36.1445 32.502 36.1445C34.9145 36.1445 37.3485 36.1445 39.761 36.1445C40.8165 36.1445 41.2904 36.6184 41.2904 37.6739C41.2904 38.9017 41.2904 40.1295 41.2904 41.3788ZM38.6409 43.8344C38.6409 42.0896 38.6409 40.4095 38.6409 38.7509C36.9177 38.7509 35.2807 38.7509 33.579 38.7509C33.579 40.4526 33.579 42.1327 33.579 43.8344C35.3022 43.8344 36.9393 43.8344 38.6409 43.8344Z" fill="#036EB7"/>
<path d="M23.2184 59.3646C22.0122 59.3646 20.8059 59.3646 19.5997 59.3646C18.5442 59.3646 18.0703 58.8907 18.0703 57.8352C18.0703 55.4228 18.0703 52.9887 18.0703 50.5762C18.0703 49.5208 18.5442 49.0469 19.5997 49.0469C22.0122 49.0469 24.4462 49.0469 26.8587 49.0469C27.9141 49.0469 28.388 49.5208 28.388 50.5762C28.388 52.9887 28.388 55.4228 28.388 57.8352C28.388 58.8907 27.9141 59.3646 26.8587 59.3646C25.6524 59.3646 24.4462 59.3646 23.2184 59.3646ZM25.7601 51.6748C24.0369 51.6748 22.3568 51.6748 20.6982 51.6748C20.6982 53.398 20.6982 55.0781 20.6982 56.7367C22.4214 56.7367 24.0585 56.7367 25.7601 56.7367C25.7601 55.035 25.7601 53.398 25.7601 51.6748Z" fill="#036EB7"/>
<path d="M30.9744 54.1089C30.9744 52.9242 30.9744 51.7394 30.9744 50.5547C30.9744 49.4993 31.4483 49.0254 32.5038 49.0254C34.9163 49.0254 37.3503 49.0254 39.7628 49.0254C40.8183 49.0254 41.2921 49.4993 41.2921 50.5547C41.2921 52.9672 41.2921 55.4013 41.2921 57.8138C41.2921 58.8692 40.8183 59.3431 39.7628 59.3431C37.3503 59.3431 34.9163 59.3431 32.5038 59.3431C31.4483 59.3431 30.9744 58.8692 30.9744 57.8138C30.9529 56.586 30.9744 55.3582 30.9744 54.1089ZM33.6023 51.6533C33.6023 53.398 33.6023 55.0566 33.6023 56.7152C35.3255 56.7152 37.0057 56.7152 38.6642 56.7152C38.6642 54.992 38.6642 53.3334 38.6642 51.6533C36.9841 51.6533 35.3255 51.6533 33.6023 51.6533Z" fill="#036EB7"/>
<path d="M18.0707 28.3686C17.166 28.3686 16.3906 28.3686 15.4859 28.3686C15.4859 27.7008 15.4428 27.0331 15.5075 26.3653C15.5505 25.8268 15.3782 25.5899 14.8613 25.3745C12.8365 24.5775 11.5441 22.6174 11.6949 20.6788C12.4918 20.6788 13.2888 20.6788 14.1504 20.6788C14.1935 20.8511 14.2366 21.0665 14.2797 21.2603C14.6458 22.5743 15.8736 23.3928 17.1445 23.1989C18.4369 23.0051 19.4062 21.8419 19.3631 20.528C19.3201 19.1925 18.243 18.1155 16.8645 18.0509C15.2705 18.0078 13.935 17.4477 12.8796 16.2415C10.5963 13.5921 11.5225 9.54251 14.7535 8.18548C15.3567 7.927 15.5505 7.62544 15.5075 7.00078C15.4644 6.41919 15.4859 5.81607 15.4859 5.19141C16.3475 5.19141 17.166 5.19141 18.0707 5.19141C18.0707 5.85915 18.0923 6.52689 18.0707 7.19464C18.0492 7.69006 18.2 7.927 18.6954 8.12086C20.6986 8.89631 21.948 10.7488 21.9264 12.8381C21.1079 12.8381 20.2894 12.8381 19.4493 12.8381C19.3847 12.6227 19.3416 12.3858 19.277 12.1489C18.8893 10.8995 17.6615 10.1241 16.4121 10.318C15.1197 10.5334 14.172 11.6965 14.2366 13.0105C14.3012 14.2813 15.3136 15.3153 16.606 15.4445C17.1876 15.5091 17.7907 15.5307 18.3507 15.703C20.4186 16.3276 21.8833 18.2447 21.9695 20.3556C22.0556 22.5312 20.8279 24.5129 18.8031 25.3099C18.2 25.5468 18.0492 25.8484 18.0923 26.43C18.1138 27.0762 18.0707 27.7008 18.0707 28.3686Z" fill="#036EB7"/>
</g>
<defs>
<clipPath id="clip0_3412_747">
<rect width="80" height="80" fill="white"/>
</clipPath>
</defs>
</svg>
