<svg width="49" height="49" viewBox="0 0 49 49" fill="none" xmlns="http://www.w3.org/2000/svg">
<path d="M25.2349 42.1535C34.7618 42.1535 42.4854 34.2795 42.4854 24.5325C42.4854 14.7854 34.7278 6.91144 25.2349 6.91144C15.708 6.91144 7.98438 14.7854 7.98438 24.5325C7.98438 34.2795 15.708 42.1535 25.2349 42.1535Z" fill="#3BA8F3"/>
<path d="M44.6763 18.9494C45.4467 18.9494 46.0713 18.3127 46.0713 17.5273C46.0713 16.7418 45.4467 16.1051 44.6763 16.1051C43.9058 16.1051 43.2812 16.7418 43.2812 17.5273C43.2812 18.3127 43.9058 18.9494 44.6763 18.9494Z" fill="#3BA8F3"/>
<path d="M46.7183 13.3996C47.2445 13.3996 47.671 12.9647 47.671 12.4283C47.671 11.8919 47.2445 11.4571 46.7183 11.4571C46.1922 11.4571 45.7656 11.8919 45.7656 12.4283C45.7656 12.9647 46.1922 13.3996 46.7183 13.3996Z" fill="#3BA8F3"/>
<path d="M8.76519 12.9817C9.29135 12.9817 9.71788 12.5469 9.71788 12.0105C9.71788 11.4741 9.29135 11.0392 8.76519 11.0392C8.23903 11.0392 7.8125 11.4741 7.8125 12.0105C7.8125 12.5469 8.23903 12.9817 8.76519 12.9817Z" fill="#3BA8F3"/>
<path d="M2.94897 31.7127C3.92612 31.7127 4.71826 30.9052 4.71826 29.909C4.71826 28.9128 3.92612 28.1053 2.94897 28.1053C1.97182 28.1053 1.17969 28.9128 1.17969 29.909C1.17969 30.9052 1.97182 31.7127 2.94897 31.7127Z" fill="#3BA8F3"/>
<path d="M33.8127 29.6958L20.6218 36.9755C19.8593 37.3918 18.9133 37.1103 18.4968 36.3312L11.6798 23.4549C11.2721 22.6768 11.5481 21.7112 12.3115 21.2859L25.5024 14.0062C26.2649 13.59 27.2109 13.8714 27.6274 14.6505L34.4533 27.5279C34.861 28.306 34.5752 29.2796 33.8127 29.6958Z" fill="url(#paint0_linear_961_1140)"/>
<path d="M32.0622 28.1707L20.4643 34.5706C20.1396 34.7531 19.7325 34.6245 19.5537 34.2932L13.9176 23.6457C13.7388 23.3144 13.8649 22.8988 14.1896 22.7163L25.7875 16.3164C26.1122 16.1338 26.5193 16.2624 26.6981 16.5938L32.3343 27.2412C32.5131 27.5726 32.3869 27.9881 32.0622 28.1707Z" fill="white"/>
<path d="M24.3575 27.212L20.1229 29.5473L20.9394 25.9359L24.3575 27.212Z" fill="#33FA47"/>
<path d="M27.8623 25.2779L21.7671 28.6454L22.9456 23.4471L27.8623 25.2779Z" fill="#2B7807"/>
<path d="M19.4198 25.4332C19.9184 25.49 20.3678 25.1234 20.4235 24.6145C20.4792 24.1056 20.1202 23.6471 19.6216 23.5903C19.123 23.5336 18.6736 23.9002 18.6179 24.4091C18.5622 24.918 18.9212 25.3765 19.4198 25.4332Z" fill="#33FA47"/>
<path d="M35.2408 32.4681L20.2442 32.7705C19.3793 32.7839 18.6652 32.0916 18.6455 31.2045L18.3796 16.5749C18.3673 15.6928 19.0468 14.9638 19.9166 14.9427L34.9133 14.6403C35.7781 14.6269 36.4922 15.3192 36.5119 16.2063L36.7853 30.841C36.7976 31.723 36.1057 32.4546 35.2408 32.4681Z" fill="url(#paint1_linear_961_1140)"/>
<path d="M34.3694 30.2939L21.184 30.5592C20.8134 30.5696 20.5095 30.265 20.4996 29.8869L20.2804 17.7901C20.2706 17.4121 20.5696 17.1018 20.9402 17.0913L34.1256 16.826C34.4962 16.8156 34.8002 17.1202 34.81 17.4983L35.0292 29.5951C35.0391 29.9731 34.74 30.2834 34.3694 30.2939Z" fill="white"/>
<path d="M27.9603 25.8422L23.1467 25.9378L25.4968 23.1103L27.9603 25.8422Z" fill="#2B7807"/>
<path d="M31.9404 25.7601L25.0091 25.9032L28.3947 21.8347L31.9404 25.7601Z" fill="#2B7807"/>
<path d="M24.3728 21.952C24.7904 22.2355 25.3546 22.1199 25.6331 21.6937C25.9115 21.2675 25.7987 20.6922 25.3811 20.4086C24.9635 20.1251 24.3993 20.2408 24.1209 20.667C23.8424 21.0932 23.9552 21.6685 24.3728 21.952Z" fill="#2B7807"/>
<defs>
<linearGradient id="paint0_linear_961_1140" x1="24.4206" y1="13.0389" x2="21.6219" y2="37.6359" gradientUnits="userSpaceOnUse">
<stop stop-color="white"/>
<stop offset="0.9964" stop-color="#E5E5E5"/>
</linearGradient>
<linearGradient id="paint1_linear_961_1140" x1="34.3871" y1="13.275" x2="20.5611" y2="33.6383" gradientUnits="userSpaceOnUse">
<stop stop-color="white"/>
<stop offset="0.9964" stop-color="#E5E5E5"/>
</linearGradient>
</defs>
</svg>
