<svg width="47" height="37" viewBox="0 0 47 37" fill="none" xmlns="http://www.w3.org/2000/svg">
<path d="M24.2349 36.1534C33.7618 36.1534 41.4854 28.2795 41.4854 18.5324C41.4854 8.78534 33.7278 0.911377 24.2349 0.911377C14.708 0.911377 6.98438 8.78534 6.98438 18.5324C6.98438 28.2795 14.708 36.1534 24.2349 36.1534Z" fill="#3BA8F3"/>
<path d="M43.6763 12.9494C44.4467 12.9494 45.0713 12.3127 45.0713 11.5272C45.0713 10.7418 44.4467 10.105 43.6763 10.105C42.9058 10.105 42.2812 10.7418 42.2812 11.5272C42.2812 12.3127 42.9058 12.9494 43.6763 12.9494Z" fill="#3BA8F3"/>
<path d="M45.7183 7.39951C46.2445 7.39951 46.671 6.96467 46.671 6.42827C46.671 5.89187 46.2445 5.45703 45.7183 5.45703C45.1922 5.45703 44.7656 5.89187 44.7656 6.42827C44.7656 6.96467 45.1922 7.39951 45.7183 7.39951Z" fill="#3BA8F3"/>
<path d="M7.76519 6.98166C8.29135 6.98166 8.71788 6.54682 8.71788 6.01042C8.71788 5.47402 8.29135 5.03918 7.76519 5.03918C7.23903 5.03918 6.8125 5.47402 6.8125 6.01042C6.8125 6.54682 7.23903 6.98166 7.76519 6.98166Z" fill="#3BA8F3"/>
<path d="M1.94897 25.7127C2.92612 25.7127 3.71826 24.9051 3.71826 23.909C3.71826 22.9128 2.92612 22.1052 1.94897 22.1052C0.971823 22.1052 0.179688 22.9128 0.179688 23.909C0.179688 24.9051 0.971823 25.7127 1.94897 25.7127Z" fill="#3BA8F3"/>
<path d="M17.0028 8.16619C16.9593 7.44249 17.4374 7.11966 17.682 7.04871C18.0895 6.91567 18.7143 7.04871 18.9588 7.52763C19.9097 9.92223 23.0067 13.1949 23.2512 13.1949C23.4957 13.1949 26.1038 13.0086 26.4841 13.0086C26.7449 12.9448 27.6795 13.39 28.1142 13.6206L30.0159 15.1105C30.36 14.5784 31.1352 13.3758 31.4829 12.8224C32.0534 12.2636 32.5424 12.4233 33.0314 12.7425C33.4227 12.998 33.3393 13.6472 33.2488 13.9398C32.7417 14.8001 31.6296 16.691 31.2384 17.3721C30.7603 17.9681 30.043 17.8333 29.7442 17.6914L27.6252 16.2546L27.761 19.8998C28.6756 20.4053 30.7222 21.5494 31.5916 22.0815C32.1132 22.9542 31.8089 23.6336 31.5916 23.8642L28.0327 27.6689C27.7067 27.9705 26.8808 28.4246 26.1853 27.8286C25.4898 27.2326 25.8231 26.3918 26.0766 26.0459L28.3315 23.4118L25.5061 21.9485L23.5772 26.1789L20.453 30.3296C20.1361 30.7198 19.312 31.3513 18.5513 30.7553C17.7906 30.1593 18.0351 29.3895 18.2525 29.0791L21.2137 24.822L22.9796 20.3787C22.889 19.678 22.6318 17.7446 22.3276 15.6161C20.616 14.7114 17.0571 9.07082 17.0028 8.16619Z" fill="white"/>
<ellipse cx="24.5793" cy="10.1883" rx="2.22771" ry="2.18175" fill="white"/>
</svg>
