<svg width="49" height="49" viewBox="0 0 49 49" fill="none" xmlns="http://www.w3.org/2000/svg">
<path d="M25.2349 42.1534C34.7618 42.1534 42.4854 34.2795 42.4854 24.5324C42.4854 14.7853 34.7278 6.91138 25.2349 6.91138C15.708 6.91138 7.98438 14.7853 7.98438 24.5324C7.98438 34.2795 15.708 42.1534 25.2349 42.1534Z" fill="#FFC535"/>
<path d="M44.6763 18.9493C45.4467 18.9493 46.0713 18.3126 46.0713 17.5271C46.0713 16.7417 45.4467 16.105 44.6763 16.105C43.9058 16.105 43.2812 16.7417 43.2812 17.5271C43.2812 18.3126 43.9058 18.9493 44.6763 18.9493Z" fill="#FFC535"/>
<path d="M46.7183 13.3995C47.2445 13.3995 47.671 12.9647 47.671 12.4283C47.671 11.8919 47.2445 11.457 46.7183 11.457C46.1922 11.457 45.7656 11.8919 45.7656 12.4283C45.7656 12.9647 46.1922 13.3995 46.7183 13.3995Z" fill="#FFC535"/>
<path d="M8.76519 12.9817C9.29135 12.9817 9.71788 12.5468 9.71788 12.0104C9.71788 11.474 9.29135 11.0392 8.76519 11.0392C8.23903 11.0392 7.8125 11.474 7.8125 12.0104C7.8125 12.5468 8.23903 12.9817 8.76519 12.9817Z" fill="#FFC535"/>
<path d="M2.94897 31.7127C3.92612 31.7127 4.71826 30.9051 4.71826 29.909C4.71826 28.9128 3.92612 28.1052 2.94897 28.1052C1.97182 28.1052 1.17969 28.9128 1.17969 29.909C1.17969 30.9051 1.97182 31.7127 2.94897 31.7127Z" fill="#FFC535"/>
<path d="M33.8127 29.6961L20.6218 36.9757C19.8593 37.392 18.9133 37.1106 18.4968 36.3315L11.6798 23.4551C11.2721 22.677 11.5481 21.7114 12.3115 21.2861L25.5024 14.0065C26.2649 13.5902 27.2109 13.8716 27.6274 14.6507L34.4533 27.5281C34.861 28.3062 34.5752 29.2798 33.8127 29.6961Z" fill="url(#paint0_linear_961_1242)"/>
<path d="M32.0622 28.1708L20.4643 34.5707C20.1396 34.7533 19.7325 34.6247 19.5537 34.2933L13.9176 23.6459C13.7388 23.3145 13.8649 22.899 14.1896 22.7164L25.7875 16.3165C26.1122 16.134 26.5193 16.2626 26.6981 16.5939L32.3343 27.2414C32.5131 27.5727 32.3869 27.9883 32.0622 28.1708Z" fill="white"/>
<path d="M24.3575 27.2123L20.1229 29.5475L20.9394 25.9361L24.3575 27.2123Z" fill="#33FA47"/>
<path d="M27.8623 25.2782L21.7671 28.6457L22.9456 23.4474L27.8623 25.2782Z" fill="#2B7807"/>
<path d="M19.4198 25.4336C19.9184 25.4903 20.3678 25.1237 20.4235 24.6148C20.4792 24.1059 20.1202 23.6474 19.6216 23.5906C19.123 23.5339 18.6736 23.9005 18.6179 24.4094C18.5622 24.9183 18.9212 25.3768 19.4198 25.4336Z" fill="#33FA47"/>
<path d="M35.2408 32.4682L20.2442 32.7706C19.3793 32.7841 18.6652 32.0918 18.6455 31.2047L18.3796 16.5751C18.3673 15.693 19.0468 14.964 19.9166 14.9429L34.9133 14.6405C35.7781 14.6271 36.4922 15.3194 36.5119 16.2065L36.7853 30.8412C36.7976 31.7232 36.1057 32.4548 35.2408 32.4682Z" fill="url(#paint1_linear_961_1242)"/>
<path d="M34.3694 30.2941L21.184 30.5594C20.8134 30.5699 20.5095 30.2652 20.4996 29.8872L20.2804 17.7903C20.2706 17.4123 20.5696 17.102 20.9402 17.0916L34.1256 16.8263C34.4962 16.8158 34.8002 17.1205 34.81 17.4985L35.0292 29.5953C35.0391 29.9734 34.74 30.2837 34.3694 30.2941Z" fill="white"/>
<path d="M27.9603 25.8425L23.1467 25.9381L25.4968 23.1106L27.9603 25.8425Z" fill="#2B7807"/>
<path d="M31.9404 25.7604L25.0091 25.9034L28.3947 21.8349L31.9404 25.7604Z" fill="#2B7807"/>
<path d="M24.3728 21.9523C24.7904 22.2358 25.3546 22.1201 25.6331 21.6939C25.9115 21.2677 25.7987 20.6924 25.3811 20.4089C24.9635 20.1253 24.3993 20.241 24.1209 20.6672C23.8424 21.0934 23.9552 21.6687 24.3728 21.9523Z" fill="#2B7807"/>
<defs>
<linearGradient id="paint0_linear_961_1242" x1="24.4206" y1="13.0391" x2="21.6219" y2="37.6361" gradientUnits="userSpaceOnUse">
<stop stop-color="white"/>
<stop offset="0.9964" stop-color="#E5E5E5"/>
</linearGradient>
<linearGradient id="paint1_linear_961_1242" x1="34.3871" y1="13.2752" x2="20.5611" y2="33.6385" gradientUnits="userSpaceOnUse">
<stop stop-color="white"/>
<stop offset="0.9964" stop-color="#E5E5E5"/>
</linearGradient>
</defs>
</svg>
