<svg width="45" height="45" viewBox="0 0 45 45" fill="none" xmlns="http://www.w3.org/2000/svg">
<path opacity="0.4" d="M1.27961 18.243L32.9596 3.97047C34.0621 3.48522 35.3671 3.92622 35.9071 5.02947L44.7946 23.868C45.2896 24.948 44.8396 26.2282 43.7146 26.757L12.0346 41.0295C10.9321 41.5147 9.62711 41.0737 9.08711 39.9705L0.199609 21.132C-0.295391 20.0295 0.15461 18.7717 1.27961 18.243C1.27961 18.243 1.27961 18.2865 1.27961 18.243Z" fill="#64D4F2"/>
<path d="M3.06035 18.9487L32.3104 5.757C33.3229 5.29425 34.4929 5.7135 34.9654 6.70575L42.8629 23.4263C43.3354 24.4193 42.9079 25.566 41.8954 26.0288L12.6454 39.2213C11.6329 39.684 10.4629 39.2648 9.99035 38.2718L2.09285 21.5513C1.64285 20.6033 2.07035 19.4115 3.06035 18.9487Z" fill="#FEFBF7"/>
<path d="M35.0265 18.552C35.6565 17.427 35.769 16.1475 35.229 15.0007C34.9365 14.3827 34.509 13.9192 33.969 13.5885C33.9465 13.5885 33.9465 13.566 33.9465 13.5442C33.789 13.1032 33.474 12.4642 32.889 11.5815C31.629 9.72897 31.089 10.125 30.954 10.3462C30.9315 10.3905 30.909 10.434 30.909 10.5007L30.9765 12.927C30.9765 12.993 30.9315 13.0372 30.864 13.059C30.324 13.1475 29.784 13.302 29.244 13.5675C28.6365 13.854 28.0965 14.2072 27.669 14.604C27.624 14.6482 27.5565 14.6482 27.489 14.604L25.599 12.9487C25.554 12.9045 25.509 12.8827 25.4415 12.8827C25.1715 12.8602 24.519 13.0155 25.1715 15.1327C25.4865 16.2135 25.8015 16.8757 26.0715 17.2725C26.1165 17.3167 26.139 17.361 26.184 17.4045C26.2065 17.427 26.2065 17.4495 26.2065 17.4712C26.184 17.9782 26.2965 18.5077 26.544 19.0155C27.084 20.1405 28.164 20.8905 29.424 21.1545C29.5815 21.177 29.6715 21.3315 29.6265 21.486C29.469 21.9487 29.2215 22.941 29.6265 23.802L30.684 23.3167L35.949 20.9122L36.984 20.4487C36.579 19.5885 35.679 19.1475 35.184 18.9487C35.0265 18.8385 34.959 18.684 35.0265 18.5512V18.552Z" fill="#F4B362"/>
<path d="M29.6959 20.5815C30.2359 20.6917 30.2809 20.979 30.2809 20.979L30.4159 21.2865C30.5509 22.0155 30.3034 22.5667 30.5959 23.2065C30.6184 23.2507 30.6409 23.2942 30.6634 23.3167L35.9734 20.8905C35.9509 20.8455 35.9284 20.802 35.9284 20.7795C35.6359 20.1622 35.0284 20.0295 34.5784 19.434L34.4209 19.1257C34.4209 19.1257 34.2184 18.9045 34.4884 18.4417C34.4884 18.4417 35.6134 16.1917 33.5209 15.4417C31.4059 14.6917 30.9784 17.118 30.9784 17.118C30.9784 17.118 28.7959 15.8827 28.0309 17.934C27.2434 19.986 29.6959 20.5815 29.6959 20.5815Z" fill="#FEFBF7"/>
<path d="M31.6512 15.5737C31.6962 15.5077 31.7412 15.3975 31.7412 15.3532C31.7862 15.2212 31.8537 15.111 31.9887 15.0667C32.1462 15 32.3262 15.0217 32.4612 15.111L32.4837 15.1327H32.5062C32.5737 15.1987 32.6637 15.243 32.7312 15.2647C32.7762 15.2872 32.7987 15.3315 32.7537 15.375C32.7087 15.4635 32.6412 15.5737 32.6412 15.5737C32.6187 15.7065 32.5062 15.8167 32.3937 15.8827C32.2137 15.9712 32.0112 15.927 31.8762 15.7942L31.8537 15.7717C31.8087 15.7282 31.7412 15.7065 31.6737 15.684C31.6287 15.6615 31.6062 15.5962 31.6512 15.5737ZM29.2662 16.6545C29.1762 16.6545 29.0637 16.611 29.0412 16.5885C28.9287 16.5442 28.7712 16.5225 28.6587 16.5885C28.5012 16.6545 28.3887 16.809 28.3887 16.986V17.052C28.3887 17.1397 28.3662 17.2282 28.3438 17.3167C28.3438 17.361 28.3662 17.4045 28.4112 17.4045C28.5012 17.4045 28.6362 17.4495 28.6362 17.4495C28.7712 17.5147 28.9062 17.5147 29.0412 17.4495C29.2212 17.361 29.3337 17.184 29.3112 17.007V16.9635C29.3112 16.8975 29.3337 16.8315 29.3562 16.7647C29.3562 16.6987 29.3112 16.6545 29.2662 16.6545Z" fill="#5C2C0A"/>
<path d="M29.4317 16.236C29.5733 15.8467 29.3726 15.4164 28.9834 15.2747C28.5942 15.133 28.1638 15.3337 28.0221 15.723C27.8805 16.1122 28.0812 16.5426 28.4704 16.6842C28.8596 16.8259 29.29 16.6252 29.4317 16.236Z" fill="#FEFBF7"/>
<path d="M32.2129 14.952C32.3546 14.5627 32.1539 14.1324 31.7647 13.9907C31.3754 13.849 30.945 14.0497 30.8034 14.439C30.6617 14.8282 30.8624 15.2586 31.2516 15.4002C31.6409 15.5419 32.0713 15.3412 32.2129 14.952Z" fill="#FEFBF7"/>
<path d="M27.1045 14.625L25.642 13.3687C25.5745 13.3245 25.507 13.3027 25.4395 13.3027C25.237 13.347 24.9445 13.5675 25.327 14.8252C25.552 15.5527 25.7545 15.9937 25.9345 16.2802C26.0695 16.5015 26.407 16.4572 26.497 16.2367C26.6095 15.9277 26.8345 15.5092 27.1495 15.045C27.262 14.913 27.2395 14.7367 27.1045 14.6265V14.625ZM31.222 12.7282L31.177 10.8307C31.177 10.7655 31.1995 10.677 31.267 10.6327C31.4245 10.5007 31.7845 10.434 32.527 11.5372C32.9545 12.177 33.1795 12.618 33.2695 12.927C33.3595 13.1692 33.112 13.4122 32.8645 13.3245C32.5495 13.2135 32.077 13.1032 31.5145 13.0372C31.357 13.0372 31.222 12.9045 31.222 12.7282Z" fill="#FEFBF7"/>
<path d="M33.0662 17.625C32.9987 17.6032 32.9312 17.625 32.9087 17.6917C32.6837 18.2655 31.8962 18.1987 31.6037 18.1545C31.5812 18.1545 31.5587 18.1327 31.5362 18.111L31.4687 17.9782C31.8512 17.736 32.0312 17.2942 31.8512 16.9192C31.6487 16.5225 31.1312 16.368 30.6587 16.5667C30.1862 16.7872 29.9612 17.2725 30.1637 17.6917C30.3437 18.0667 30.7937 18.2212 31.2437 18.0892L31.3112 18.2212V18.2872C31.1762 18.5295 30.7037 19.1692 30.1187 18.9712C30.0512 18.9487 29.9837 18.9712 29.9612 19.0372C29.9387 19.1032 29.9612 19.1917 30.0512 19.2135C30.2987 19.302 30.5462 19.2795 30.7937 19.1692C30.9287 19.1032 31.0637 19.0155 31.1987 18.8827C31.3562 18.7282 31.4687 18.5737 31.5362 18.4635C31.5587 18.441 31.5812 18.4192 31.6037 18.4192C31.7387 18.4417 31.9412 18.4642 32.1437 18.4417C32.3237 18.4192 32.5037 18.3757 32.6387 18.3315C32.8862 18.2212 33.0437 18.0442 33.1337 17.802C33.1562 17.7135 33.1337 17.6475 33.0662 17.6257V17.625Z" fill="#5C2C0A"/>
<path d="M31.4954 20.25C31.4954 20.25 32.2604 20.3167 33.0928 19.5225C33.9253 18.7282 32.9803 20.2282 32.9803 20.2282C32.9803 20.2282 32.8003 20.493 32.6203 20.5807C32.4403 20.6692 32.0579 20.6032 32.0579 20.6032C32.0579 20.6032 30.7304 20.3385 31.4954 20.2507V20.25Z" fill="#F2F0ED"/>
<path d="M4 20.5208L9.44467 18.0317L11.0515 21.4102L5.60679 23.8993L4 20.5208Z" fill="#64D4F2"/>
<path d="M7.08408 20.8455C6.92658 20.9115 6.72408 20.8005 6.61158 20.5582C6.49908 20.316 6.54408 20.0955 6.70158 20.0295C6.85908 19.9635 7.06158 20.0745 7.17408 20.3167C7.26408 20.5372 7.21908 20.7795 7.08408 20.8462V20.8455ZM7.73658 20.5365C7.57908 20.6025 7.37658 20.4922 7.26408 20.25C7.15158 20.0287 7.19658 19.7865 7.35408 19.7205C7.51158 19.6537 7.71408 19.764 7.82658 20.007C7.93908 20.25 7.89408 20.4705 7.73658 20.5365ZM6.92658 21.441C6.88158 21.4635 6.81408 21.4635 6.74658 21.4635C6.65658 21.441 6.58908 21.396 6.49908 21.3307C6.40908 21.264 6.36408 21.198 6.34158 21.1102C6.31908 21.0217 6.31908 20.9332 6.38658 20.8672C6.43158 20.8012 6.52158 20.7787 6.61158 20.8012C6.70158 20.8237 6.76908 20.8672 6.85908 20.9332C6.92658 21 6.99408 21.066 7.01658 21.1537C7.03908 21.2422 7.03908 21.3307 6.97158 21.3967C6.97158 21.4192 6.94908 21.441 6.92658 21.441ZM8.29908 20.823C8.27658 20.823 8.25408 20.8455 8.23158 20.8455C8.16408 20.8455 8.07408 20.8005 8.02908 20.7127C7.98408 20.6467 7.96158 20.5582 7.96158 20.448C7.96158 20.3377 7.98408 20.25 8.00658 20.1832C8.05158 20.0955 8.11908 20.0512 8.20908 20.0512C8.27658 20.0512 8.36658 20.0955 8.41158 20.1832C8.45658 20.25 8.47908 20.3377 8.47908 20.448C8.47908 20.5365 8.45658 20.6467 8.43408 20.7127C8.36658 20.7787 8.34408 20.8012 8.29908 20.823ZM7.64658 22.2345C7.57908 22.2795 7.48908 22.2795 7.42158 22.2795C7.35408 22.257 7.26408 22.2127 7.21908 22.1467C7.17408 22.1025 7.15158 22.0365 7.12908 21.9705C7.10658 21.882 7.08408 21.7717 7.08408 21.6832C7.08408 21.5287 7.12908 21.3967 7.19658 21.264L7.33158 21.066C7.37658 21.021 7.42158 20.9557 7.46658 20.9332C7.55658 20.889 7.69158 20.9107 7.78158 20.9107C7.89408 20.9332 7.98408 20.9557 8.07408 21C8.25408 21.066 8.41158 21.198 8.52408 21.3525C8.56908 21.4185 8.59158 21.4852 8.61408 21.5512C8.63658 21.639 8.61408 21.7275 8.56908 21.7935C8.52408 21.8602 8.45658 21.9037 8.34408 21.9262C8.27658 21.9487 8.18658 21.9487 8.14158 21.9262H7.93908V21.9487C7.91658 21.9922 7.87158 22.0582 7.82658 22.1025C7.78158 22.1467 7.73658 22.2127 7.64658 22.2352C7.66908 22.2352 7.64658 22.2352 7.64658 22.2352V22.2345Z" fill="#CDEDF9"/>
<path d="M20.3594 13.0264L20.7263 12.8586L28.9993 30.2511L28.6316 30.4193L20.3594 13.0264Z" fill="#EFEFEF"/>
<path d="M18.8543 14.868L12.1043 17.9557C11.8568 18.066 11.5643 17.9557 11.4518 17.7135C11.3393 17.4705 11.4518 17.184 11.6993 17.0737L18.4493 13.9852C18.6968 13.875 18.9893 13.9852 19.1018 14.2282C19.2143 14.4705 19.1018 14.757 18.8543 14.868ZM19.9343 17.1615L13.1843 20.25C12.9368 20.3602 12.6443 20.25 12.5318 20.007C12.4193 19.7647 12.5318 19.4782 12.7793 19.368L19.5293 16.2795C19.7768 16.1692 20.0693 16.2795 20.1818 16.5217C20.2943 16.7647 20.1818 17.0512 19.9343 17.1615ZM22.7018 22.941L8.77434 29.2935C8.52684 29.4045 8.23434 29.2935 8.12184 29.0512C8.00934 28.809 8.12184 28.5217 8.36934 28.4115L22.2743 22.059C22.5218 21.9487 22.8143 22.059 22.9268 22.3012C23.0393 22.5442 22.9493 22.8307 22.7018 22.941Z" fill="#AFAFAF"/>
<path d="M23.7809 25.2352L9.8759 31.5877C9.6284 31.6987 9.3359 31.5877 9.2234 31.3455C9.1109 31.1032 9.2234 30.816 9.4709 30.7057L23.3759 24.3532C23.6234 24.243 23.9159 24.3532 24.0284 24.5955C24.1409 24.8385 24.0284 25.125 23.7809 25.2352Z" fill="#0C4759"/>
<path d="M23.7809 25.2352L9.8759 31.5877C9.6284 31.6987 9.3359 31.5877 9.2234 31.3455C9.1109 31.1032 9.2234 30.816 9.4709 30.7057L23.3759 24.3532C23.6234 24.243 23.9159 24.3532 24.0284 24.5955C24.1409 24.8385 24.0284 25.125 23.7809 25.2352ZM26.0984 30.0885L12.1934 36.441C11.9459 36.5512 11.6534 36.441 11.5409 36.1987C11.4284 35.9557 11.5409 35.6692 11.7884 35.559L25.6934 29.2065C25.9409 29.0955 26.2334 29.2065 26.3459 29.4487C26.4359 29.691 26.3459 29.9782 26.0984 30.0885ZM24.8834 27.5295L10.9784 33.882C10.7309 33.993 10.4384 33.882 10.3259 33.6397C10.2134 33.3967 10.3259 33.1102 10.5734 33L24.4784 26.6475C24.7259 26.5365 25.0184 26.6475 25.1309 26.8897C25.2209 27.132 25.1084 27.4192 24.8834 27.5295ZM37.3259 22.3455L30.9134 25.2795C30.6659 25.3897 30.3734 25.2795 30.2609 25.0365C30.1484 24.7942 30.2609 24.507 30.5084 24.3967L36.9209 21.4635C37.1684 21.3532 37.4609 21.4635 37.5734 21.7057C37.6859 21.9487 37.5734 22.2352 37.3259 22.3455ZM39.0809 24.1545L30.8909 27.9045C30.6434 28.0147 30.3509 27.9045 30.2384 27.6615C30.1259 27.4192 30.2384 27.132 30.4859 27.0217L38.6759 23.2717C38.9234 23.1615 39.2159 23.2717 39.3284 23.5147C39.4409 23.7352 39.3284 24.0442 39.0809 24.1545Z" fill="#AFAFAF"/>
</svg>
