<svg width="18" height="25" viewBox="0 0 18 25" fill="none" xmlns="http://www.w3.org/2000/svg">
<path d="M0.00288957 1.21478C-0.0423892 0.460922 0.455677 0.124643 0.71037 0.0507351C1.13486 -0.0878416 1.78574 0.0507351 2.04043 0.549611C3.0309 3.04399 6.25701 6.45298 6.51171 6.45298C6.7664 6.45298 9.48312 6.25897 9.87931 6.25897C10.151 6.19245 11.1245 6.65623 11.5773 6.89642L13.5582 8.44848C13.9167 7.89418 14.7241 6.64144 15.0864 6.06496C15.6807 5.48294 16.19 5.64923 16.6994 5.98182C17.1069 6.24789 17.0201 6.92414 16.9258 7.22901C16.3976 8.12514 15.2392 10.0948 14.8317 10.8043C14.3336 11.4251 13.5865 11.2847 13.2752 11.1369L11.0679 9.64024L11.2094 13.4372C12.1621 13.9638 14.294 15.1556 15.1996 15.7099C15.7429 16.619 15.426 17.3266 15.1996 17.5668L11.4924 21.5301C11.1528 21.8442 10.2925 22.3172 9.56802 21.6964C8.84356 21.0756 9.1907 20.1998 9.45482 19.8395L11.8037 17.0957L8.86054 15.5713L6.8513 19.9781L3.59689 24.3017C3.26673 24.7082 2.40832 25.3659 1.61594 24.7451C0.823565 24.1243 1.07826 23.3224 1.30465 22.999L4.38927 18.5646L6.22871 13.9361C6.13438 13.2063 5.86648 11.1923 5.54953 8.97507C3.76668 8.03275 0.059488 2.1571 0.00288957 1.21478Z" fill="white"/>
<ellipse cx="7.89866" cy="3.32112" rx="2.32054" ry="2.27266" fill="white"/>
</svg>
