<svg width="29" height="28" viewBox="0 0 29 28" fill="none" xmlns="http://www.w3.org/2000/svg">
<path fill-rule="evenodd" clip-rule="evenodd" d="M25.8638 10.2844C25.2126 9.81705 24.4514 9.57065 23.6564 9.57065H18.0489V5.5432C18.0489 3.75889 17.5245 2.46739 16.4926 1.71118C14.8603 0.504643 12.6275 1.19288 12.5344 1.21837C12.213 1.32033 12.0016 1.61771 12.0016 1.94909V6.59679C12.0016 10.1739 7.67969 11.4484 7.67969 11.4484V25.7755C7.67969 25.7755 9.07521 26.921 10.124 26.921H21.4404C24.0031 26.921 25.6355 25.57 25.9315 23.2164L27.3693 14.0059C27.5977 12.57 27.0056 11.1086 25.8638 10.2844Z" fill="white" stroke="#263238" stroke-width="1.2" stroke-linecap="round" stroke-linejoin="round"/>
<path fill-rule="evenodd" clip-rule="evenodd" d="M1 12.5059C1 11.6614 1.68429 10.9768 2.52879 10.9768H6.09865C6.94298 10.9768 7.62744 11.6653 7.62744 12.5059V25.4709C7.62744 26.3154 6.94315 27 6.09865 27H2.52879C1.68446 27 1 26.3115 1 25.4709V12.5059Z" fill="#76B6FF" stroke="#263238" stroke-width="1.2" stroke-linecap="round" stroke-linejoin="round"/>
</svg>
