<svg width="100" height="100" viewBox="0 0 100 100" fill="none" xmlns="http://www.w3.org/2000/svg">
<rect opacity="0.4" x="1.5" y="1.5" width="97" height="97" rx="48.5" stroke="#036EB7" stroke-width="3"/>
<g clip-path="url(#clip0_6268_46826)">
<path d="M65.9938 38.4372C67.6917 38.4945 68.555 39.0533 68.9291 40.3142C69.3176 41.618 68.8572 42.6926 67.4327 43.7386C68.1953 44.6842 68.4111 45.7445 67.9363 46.8907C67.4471 48.0943 66.3104 48.3522 65.1737 48.6531C65.9219 49.5987 66.1521 50.5874 65.7636 51.6763C65.4615 52.4787 64.9003 53.0231 64.0658 53.2667C62.814 53.6393 61.5622 54.0261 60.296 54.37C59.9795 54.456 59.6054 54.5276 59.2888 54.4703C58.8428 54.3843 58.6269 54.4989 58.4543 54.9288C57.7924 56.4762 57.073 57.995 56.3823 59.5281C55.85 60.7173 54.8284 61.3048 53.5334 61.2045C53.3608 61.1901 53.1162 61.2904 53.001 61.4051C51.4759 63.0671 49.6054 64.0128 47.332 64.1131C46.9579 64.1274 46.8572 64.371 46.7421 64.6289C45.6054 67.1363 44.4687 69.658 43.332 72.1654C43.0298 72.8245 42.7708 73.0108 42.3823 72.8245C41.9938 72.6383 41.9507 72.2514 42.2241 71.6496C43.4471 68.9416 44.6845 66.2336 45.8787 63.5256C46.109 63.0098 46.4111 62.8522 46.9579 62.8522C48.6989 62.8379 50.2241 62.2361 51.5334 61.0898C51.7061 60.9466 51.85 60.7603 52.0514 60.5454C50.5982 59.8003 49.2169 59.0983 47.7924 58.3532C47.5046 58.7974 47.2169 59.2272 46.9291 59.6427C46.6989 59.9723 46.4399 60.2588 45.9938 59.9866C45.6341 59.7717 45.591 59.3705 45.9219 58.912C47.4471 56.7628 48.2816 54.413 48.0226 51.7623C47.7924 49.4125 46.8284 47.3636 45.4183 45.5009C45.2744 45.3147 45.1305 45.1284 44.9867 44.9564C44.5262 44.3833 44.555 44.0968 45.1593 43.6239C46.5838 42.492 47.9938 41.3744 49.4183 40.2425C50.1665 39.6551 50.9147 39.0676 51.6485 38.4658C52.2528 37.993 52.4687 37.2909 52.2528 36.5889C51.9363 35.5572 50.7852 35.199 49.8644 35.8725C47.8931 37.3196 45.9363 38.7667 43.9651 40.2139C43.001 40.9303 42.0226 41.6467 41.073 42.3631C39.9795 43.1941 39.4759 44.326 39.3032 45.6729C39.0874 47.3636 38.7852 49.0256 38.5118 50.702C38.3679 51.5903 38.1665 52.4644 38.0802 53.3527C37.8787 55.4589 37.0874 57.3646 36.1953 59.2415C35.2456 61.2618 34.3536 63.3107 33.4183 65.3596C33.26 65.7035 33.0442 66.0044 32.5982 65.8611C32.2241 65.7465 32.109 65.3166 32.2816 64.8725C32.296 64.8295 32.3248 64.7722 32.3536 64.7292C33.6197 61.9209 34.9291 59.1412 36.1377 56.3043C36.5118 55.4159 36.6413 54.413 36.7996 53.453C37.2313 51.0172 37.6341 48.5814 38.037 46.1457C38.1377 45.5439 38.1809 44.9421 38.3248 44.3547C38.6413 43.0938 39.332 42.0765 40.3823 41.3028C42.814 39.5118 45.2313 37.7208 47.6485 35.9154C47.8644 35.7578 48.0514 35.5143 48.1665 35.2707C49.7349 31.8893 51.2744 28.5078 52.8284 25.1264C53.5622 23.5503 55.073 23.0202 56.6413 23.8082C60.1521 25.5849 63.6485 27.3616 67.1449 29.1669C68.5406 29.8833 69.073 31.574 68.3967 33.0642C67.6485 34.7262 66.8859 36.3883 66.1377 38.0503C66.0802 38.1649 66.037 38.2939 65.9938 38.4372ZM60.8715 44.283C60.2528 43.5523 59.9651 42.7356 60.1233 41.8186C60.368 40.4574 61.26 39.7267 62.5694 39.5118C63.8931 39.2969 64.814 38.6808 65.1162 37.3196C65.1305 37.2336 65.1881 37.162 65.2313 37.076C65.7636 35.8868 66.296 34.6976 66.8428 33.4653C62.3823 31.1872 57.9651 28.9233 53.4903 26.6309C52.3104 29.1956 51.1593 31.703 49.9795 34.2677C50.3536 34.2534 50.6557 34.2104 50.9579 34.2247C52.0514 34.2964 53.0298 35.0844 53.3608 36.1733C53.7349 37.3912 53.3608 38.6808 52.368 39.4688C51.001 40.5721 49.6054 41.661 48.2385 42.7499C47.5478 43.3087 46.8428 43.8675 46.1521 44.4263C46.2385 44.5553 46.296 44.6269 46.3392 44.6985C47.9507 46.8478 49.001 49.2262 49.2169 51.9342C49.2313 52.1491 49.4471 52.4214 49.6341 52.5217C51.4039 53.4673 53.2025 54.37 54.9867 55.287C55.4903 55.5449 56.0082 55.8028 56.555 56.075C56.8859 55.3586 57.2025 54.6995 57.4759 54.0261C57.5478 53.8398 57.519 53.539 57.4183 53.367C56.3967 51.6906 57.1305 49.7134 59.0154 49.1546C59.332 49.0543 59.6341 48.954 59.9795 48.8394C58.814 47.4495 58.9291 45.329 60.8715 44.283ZM49.26 53.7969C49.0154 54.6565 49.0154 54.6565 49.7205 55.0291C49.8931 55.115 50.0802 55.201 50.2528 55.3013C50.6269 55.5162 50.742 55.8314 50.5406 56.204C50.3392 56.5908 50.0082 56.5765 49.6629 56.4189C49.3751 56.2899 49.0874 56.1467 48.7708 55.9891C48.6126 56.4189 48.4687 56.7914 48.3392 57.164C48.4111 57.2356 48.4399 57.2786 48.4831 57.3072C50.109 58.1383 51.7349 58.9836 53.3751 59.8003C54.0082 60.1155 54.7421 59.9006 55.1018 59.2702C55.4615 58.6398 55.7349 57.9663 56.0658 57.2786C53.7636 56.1037 51.5334 54.9574 49.26 53.7969ZM67.3751 32.3191C67.6054 31.2732 67.3176 30.6857 66.4399 30.2415C64.2241 29.1096 62.0082 27.9777 59.778 26.8458C58.5262 26.2153 57.2888 25.5563 56.037 24.9401C55.1881 24.5246 54.4687 24.7396 54.0802 25.5419C58.4974 27.7771 62.9147 30.0266 67.3751 32.3191ZM63.4327 49.2692C63.3751 49.2692 63.3176 49.2549 63.2744 49.2692C61.8356 49.699 60.3823 50.0859 58.9579 50.5587C58.3104 50.7736 58.0514 51.619 58.2816 52.2924C58.5118 52.9372 59.1305 53.3527 59.7492 53.1951C61.1305 52.8226 62.5118 52.4214 63.8644 51.9772C64.5118 51.7623 64.8572 51.0172 64.7133 50.3581C64.5694 49.7134 64.0514 49.2835 63.4327 49.2692ZM60.4399 46.8907C60.4543 47.7218 61.1881 48.4525 61.9507 48.2519C63.3464 47.8937 64.7421 47.4639 66.1233 47.0197C66.8284 46.7904 67.1449 46.0024 66.9291 45.3003C66.6989 44.5839 66.0514 44.1684 65.3464 44.3547C64.0226 44.7272 62.6989 45.1141 61.3895 45.5296C60.7708 45.7158 60.4255 46.2746 60.4399 46.8907ZM67.8212 41.1309C67.8212 40.2855 67.1161 39.5548 66.3536 39.741C64.9291 40.0992 63.519 40.5291 62.1233 40.9876C61.4183 41.2312 61.1162 42.0765 61.3751 42.7786C61.6485 43.5093 62.2816 43.8245 63.0586 43.6096C64.296 43.2514 65.5334 42.8932 66.7708 42.5207C67.4615 42.3058 67.8212 41.8186 67.8212 41.1309Z" fill="#036EB7"/>
<path d="M65.8046 64.2564C64.9125 65.0445 63.9772 65.7895 63.1283 66.6206C61.5024 68.211 60.2074 70.0593 59.2578 72.1369C59.1715 72.3375 58.8693 72.4234 58.6679 72.5667C58.5384 72.3375 58.3369 72.1225 58.3082 71.879C57.7902 67.294 60.8118 62.8953 64.2938 61.1043C67.2866 59.5568 70.4377 59.3849 73.6895 59.9437C74.4089 60.0726 74.5959 60.6744 74.1931 61.2762C73.6175 62.1645 73.0132 63.0385 72.5815 63.9842C72.2074 64.8009 71.6463 65.2594 70.8118 65.4743C70.6967 65.503 70.5815 65.546 70.4521 65.5889C70.4377 65.5889 70.4377 65.6176 70.3657 65.7036C70.7542 65.8039 71.1139 65.8898 71.5312 66.0045C71.4592 66.1764 71.4017 66.3197 71.3297 66.4486C69.3154 70.1883 66.2506 72.6813 62.1787 73.8419C60.9844 74.1858 60.078 74.7159 59.5024 75.8335C59.301 76.2347 59.0132 76.5786 58.7542 76.9511C58.524 77.295 58.2218 77.5099 57.8046 77.295C57.3873 77.08 57.301 76.6789 57.5024 76.2777C58.3945 74.501 59.2146 72.6957 60.2362 70.9906C61.7182 68.5405 63.5744 66.377 65.7758 64.5287C65.8333 64.4857 65.8765 64.4284 65.9197 64.3711C65.9053 64.3424 65.8477 64.2994 65.8046 64.2564ZM69.6895 62.5227C68.9556 62.9669 68.2362 63.3538 67.56 63.8266C63.9916 66.3483 61.4017 69.7011 59.3297 73.4837C58.8118 74.4294 58.4233 75.4323 57.9916 76.4066C57.9341 76.5356 58.0348 76.7218 58.0636 76.8795C58.1931 76.7935 58.3513 76.7505 58.4233 76.6359C58.6823 76.292 58.9413 75.9481 59.1427 75.5613C59.7326 74.4437 60.5672 73.6556 61.8621 73.4694C62.1067 73.4264 62.3369 73.3118 62.5815 73.2401C66.006 72.0939 68.6823 70.0163 70.524 66.9215C70.6247 66.7495 70.711 66.5632 70.8262 66.3483C69.6751 66.0904 68.6103 65.8612 67.5456 65.6319C67.5456 65.5889 67.56 65.5316 67.56 65.4886C67.8046 65.4743 68.0492 65.46 68.2938 65.417C69.1571 65.2737 70.0348 65.1448 70.8837 64.9442C71.4736 64.8152 71.8621 64.4427 72.1211 63.8552C72.4664 63.0672 72.8837 62.3078 73.3441 61.5914C74.0779 60.4738 74.1211 60.4595 72.783 60.2876C70.2938 59.958 67.819 60.0583 65.488 61.0899C61.6175 62.7806 59.4017 65.7466 58.7542 69.8874C58.6535 70.5321 58.7398 71.1912 58.7398 71.8503C59.819 69.7584 61.1427 67.9244 62.7542 66.291C64.524 64.5 66.524 63.0385 68.9125 62.1359C69.3441 61.9926 69.5744 62.0642 69.6895 62.5227Z" fill="#036EB7"/>
<path d="M50.9719 79.001C43.0583 78.9293 36.9288 76.293 31.8065 71.3068C30.6842 70.2179 29.7201 68.9427 28.7129 67.7391C28.5691 67.5672 28.4683 67.2806 28.4971 67.0657C28.5259 66.8794 28.7561 66.6072 28.9144 66.5929C29.1302 66.5786 29.4324 66.7075 29.5906 66.8794C30.2813 67.6675 30.8712 68.5128 31.5762 69.2722C36.2381 74.33 41.9791 77.21 48.9 77.6685C50.8424 77.7974 52.7705 77.6398 54.6842 77.2959C55.2453 77.1956 55.5762 77.3533 55.6482 77.7688C55.7201 78.1843 55.4611 78.4995 54.9 78.5711C53.3748 78.7574 51.8208 78.915 50.9719 79.001Z" fill="#036EB7"/>
<path d="M37.965 29.9418C37.7204 33.8247 36.6125 37.3638 34.0082 40.301C33.2024 41.2037 32.2096 41.9344 31.3031 42.7368C30.9866 43.0234 30.7132 43.009 30.3535 42.7654C27.3607 40.7452 25.4182 37.9799 24.3823 34.5411C23.8787 32.8648 23.6484 31.1311 23.6484 29.3687C23.6484 28.9102 23.7635 28.681 24.2671 28.552C26.4398 28.0219 28.4254 27.0046 30.3391 25.8727C30.6988 25.6577 30.9434 25.6721 31.3031 25.8727C33.2743 27.0332 35.2887 28.0649 37.5333 28.6236C37.706 28.6666 37.893 28.9389 37.9362 29.1251C38.0082 29.3974 37.965 29.6983 37.965 29.9418ZM24.2096 30.2427C24.5261 35.0999 26.3247 39.1691 30.3679 42.1064C30.6988 42.3499 30.9146 42.3499 31.2456 42.092C35.4182 38.9399 37.2024 34.6128 37.3894 29.5263C37.3894 29.383 37.2168 29.1395 37.0729 29.0965C34.9722 28.5377 33.0585 27.5634 31.2024 26.4744C30.9146 26.3025 30.7132 26.3168 30.4254 26.4888C28.7564 27.4631 27.0297 28.3514 25.1592 28.9245C24.1664 29.2111 24.1664 29.2111 24.2096 30.2427Z" fill="#036EB7"/>
<path d="M23 49.8141C23.0144 47.1347 23.3741 44.3121 24.1655 41.5611C24.1942 41.4608 24.223 41.3605 24.2518 41.2459C24.4388 40.6441 24.6835 40.4435 25.1007 40.5725C25.4748 40.6871 25.5899 41.031 25.4173 41.6184C24.2518 45.6446 23.9065 49.7281 24.482 53.8833C24.5827 54.6283 24.7266 55.359 24.8561 56.1041C24.9712 56.6916 24.8417 57.0211 24.4532 57.1071C24.036 57.193 23.777 56.9638 23.6619 56.3763C23.2302 54.2844 23.0144 52.1496 23 49.8141Z" fill="#036EB7"/>
<path d="M50.8568 21.6024C50.828 22.0896 50.5546 22.2472 50.1086 22.2472C47.9503 22.2758 45.8208 22.5767 43.7345 23.1498C41.2885 23.8233 39.0151 24.8406 36.8856 26.2017C36.5834 26.388 36.2381 26.5026 36.0223 26.1731C35.8928 25.9725 35.9215 25.6429 35.9503 25.385C35.9647 25.2847 36.1374 25.1701 36.2525 25.0985C39.7201 22.9063 43.4755 21.5308 47.5762 21.1296C48.4539 21.0436 49.3316 21.0436 50.2093 21.0006C50.6266 20.9863 50.8136 21.2156 50.8568 21.6024Z" fill="#036EB7"/>
<path d="M76.9718 44.1688C76.8135 44.312 76.6409 44.5843 76.3963 44.6559C76.0222 44.7705 75.8063 44.4983 75.72 44.1401C75.4466 43.0655 75.1876 41.9909 74.8711 40.9306C74.1085 38.4375 72.943 36.1307 71.5042 33.9529C71.461 33.8812 71.4035 33.8096 71.3603 33.7236C71.1445 33.3654 71.1301 33.0215 71.4898 32.7779C71.8639 32.52 72.1804 32.692 72.3963 33.0502C73.0725 34.1964 73.7919 35.2997 74.3819 36.4889C75.5473 38.7957 76.3963 41.2172 76.8855 43.7676C76.8999 43.8535 76.9286 43.9395 76.9718 44.1688Z" fill="#036EB7"/>
<path d="M77.0013 55.5884C76.7711 56.6343 76.6128 57.5513 76.3538 58.4397C76.2963 58.6403 75.9078 58.8838 75.6776 58.8695C75.3178 58.8552 75.1308 58.5256 75.2027 58.1674C75.3754 57.2648 75.5624 56.3764 75.7783 55.4881C75.8646 55.1442 76.138 54.9436 76.4689 55.0726C76.6847 55.1585 76.843 55.4308 77.0013 55.5884Z" fill="#036EB7"/>
<path d="M53.3175 45.1435C54.6125 43.768 55.8643 42.4355 57.1161 41.1029C58.7132 39.3979 60.3103 37.7072 61.9074 36.0022C62.1664 35.7156 62.4542 35.4577 62.8139 35.7872C63.1736 36.1168 63.0153 36.4607 62.7132 36.7615C59.7492 39.9137 56.7995 43.0659 53.8355 46.2037C53.447 46.6193 53.188 46.6193 52.7995 46.2181C51.9362 45.3011 51.0729 44.3841 50.224 43.4671C50.1808 43.4241 50.1233 43.3954 50.1233 43.3525C50.1233 43.0802 50.0225 42.7363 50.152 42.5358C50.3535 42.2349 50.6988 42.3495 50.9434 42.5931C51.4614 43.1375 51.9794 43.6963 52.4974 44.2408C52.7276 44.556 53.001 44.8282 53.3175 45.1435Z" fill="#036EB7"/>
<path d="M29.258 35.2719C30.1933 34.2546 31.1142 33.2659 32.035 32.263C32.7832 31.4606 33.517 30.6582 34.2509 29.8559C34.4667 29.6266 34.6537 29.6409 34.8839 29.8415C35.9775 30.8302 35.9919 30.8302 35.0134 31.9048C33.2724 33.8104 31.5027 35.6874 29.776 37.6073C29.4163 37.9942 29.1717 37.9942 28.812 37.636C28.2652 37.0915 27.6897 36.59 27.1142 36.0742C26.8696 35.8593 26.8408 35.673 27.0278 35.3865C27.9055 34.1256 27.8911 34.1113 29.0134 35.0999C29.071 35.1429 29.1429 35.1859 29.258 35.2719ZM29.2724 37.2635C31.2437 35.1286 33.1717 33.0367 35.1142 30.9448C34.9127 30.7299 34.7545 30.5723 34.5818 30.386C34.4523 30.5006 34.3516 30.6009 34.2509 30.7012C32.7401 32.3489 31.2005 33.9823 29.7041 35.6444C29.3732 36.0169 29.1286 36.0456 28.7832 35.6874C28.553 35.4438 28.294 35.2289 28.0206 34.9853C27.8336 35.2432 27.6753 35.4581 27.517 35.673C28.1214 36.2175 28.6681 36.719 29.2724 37.2635Z" fill="#036EB7"/>
<path d="M31.0851 28.5514C31.0851 29.583 31.0851 30.5717 31.0851 31.546C31.0851 31.7036 31.1139 31.8755 31.0708 32.0331C31.0276 32.1621 30.8981 32.2624 30.8118 32.377C30.7254 32.2481 30.5528 32.1334 30.5528 32.0045C30.524 31.0732 30.5384 30.1418 30.5384 29.2105C30.5384 28.9813 30.5384 28.752 30.5384 28.5371C29.0564 29.2678 27.5744 30.0129 25.9197 30.8296C26.0923 31.7179 26.2938 32.7639 26.4952 33.8098C26.5096 33.9101 26.5959 34.0104 26.5959 34.1107C26.5815 34.2683 26.524 34.4259 26.4808 34.5692C26.3513 34.4832 26.1499 34.4259 26.0923 34.3113C25.9485 33.9245 25.8046 33.5376 25.747 33.1364C25.6175 32.2911 25.5312 31.4314 25.4305 30.586C25.4017 30.2995 25.5024 30.1418 25.819 30.0559C27.5312 29.6117 29.0564 28.7807 30.4377 27.6917C30.6679 27.5055 30.8118 27.4768 31.0851 27.6774C31.7038 28.1216 32.3945 28.4798 33.0276 28.8953C33.1859 28.9956 33.2722 29.2105 33.4017 29.3681C33.2146 29.3968 32.9844 29.4828 32.8405 29.4254C32.2938 29.1675 31.7326 28.8666 31.0851 28.5514Z" fill="#036EB7"/>
<path d="M30.5524 40.0849C30.5524 39.4401 30.538 38.8097 30.5668 38.1649C30.5812 37.8927 30.3654 37.4199 30.8114 37.4199C31.2862 37.4199 31.0848 37.9214 31.0992 38.1936C31.128 38.8097 31.1136 39.4401 31.1136 40.1709C31.2862 40.0419 31.4013 39.9846 31.5021 39.8986C33.3294 38.1076 34.4517 35.9154 35.2287 33.5227C35.3438 33.1788 35.4157 32.8206 35.5452 32.491C35.6028 32.3334 35.7754 32.2188 35.8905 32.0898C35.9481 32.2618 36.1064 32.4767 36.0632 32.62C35.6172 33.8809 35.2143 35.1704 34.6675 36.3883C33.9049 38.0933 32.797 39.5548 31.3869 40.8013C30.9841 41.1595 30.6819 41.1738 30.3078 40.787C29.7467 40.1995 29.1423 39.6694 28.5956 39.0819C28.4805 38.9673 28.5236 38.7237 28.4805 38.5375C28.6531 38.5948 28.8833 38.6091 28.9985 38.7237C29.4733 39.1966 29.9193 39.7124 30.3797 40.2139C30.4229 40.1565 30.4805 40.1279 30.5524 40.0849Z" fill="#036EB7"/>
</g>
<defs>
<clipPath id="clip0_6268_46826">
<rect width="54" height="58" fill="white" transform="translate(23 21)"/>
</clipPath>
</defs>
</svg>
