<svg width="100" height="100" viewBox="0 0 100 100" fill="none" xmlns="http://www.w3.org/2000/svg">
<rect opacity="0.4" x="1.5" y="1.5" width="97" height="97" rx="48.5" stroke="#036EB7" stroke-width="3"/>
<g clip-path="url(#clip0_6268_46825)">
<path d="M37.9891 53.49C37.9891 55.9749 35.9713 58.0776 33.473 58.0776C30.9748 58.0776 28.957 56.0705 28.957 53.49C28.957 50.9094 30.9748 48.9023 33.473 48.9023C35.9713 48.9023 37.9891 51.005 37.9891 53.49Z" stroke="#036EB7" stroke-width="1.5" stroke-linecap="round" stroke-linejoin="round"/>
<path d="M37.606 69.8319L37.702 63.4284L40.2003 66.6779C41.2572 68.016 43.1789 68.2071 44.428 67.0602L50.7697 61.1346L48.0793 58.4585L43.4672 62.9505C42.9867 63.4284 42.3141 63.2372 42.0259 62.6638C40.2003 59.1275 39.1433 58.0762 34.9156 58.0762H32.033C27.8052 58.0762 25.2109 59.0319 25.2109 62.6638V67.8248C25.2109 68.9717 26.0757 69.8319 27.2287 69.8319H34.1469V67.1558C34.1469 66.3912 33.5704 65.8178 32.8017 65.8178H29.1504V63.8107" stroke="#036EB7" stroke-width="1.5" stroke-linecap="round" stroke-linejoin="round"/>
<path d="M23.4805 73.1772H49.4235V69.832H23.4805V73.1772Z" stroke="#036EB7" stroke-width="1.5" stroke-linecap="round" stroke-linejoin="round"/>
<path d="M24.8242 76.5229V73.1777H48.0769V76.5229" stroke="#036EB7" stroke-width="1.5" stroke-linecap="round" stroke-linejoin="round"/>
<path d="M49.4253 34.4688C49.4253 35.998 48.1762 37.3361 46.5427 37.3361C45.0054 37.3361 43.6602 36.0936 43.6602 34.4688C43.6602 32.844 44.9093 31.6016 46.5427 31.6016C48.1762 31.6016 49.4253 32.9396 49.4253 34.4688ZM49.4253 49.5697C49.4253 51.0989 48.1762 52.437 46.5427 52.437C45.0054 52.437 43.6602 51.1945 43.6602 49.5697C43.6602 48.0405 44.9093 46.7024 46.5427 46.7024C48.1762 46.7024 49.4253 48.0405 49.4253 49.5697Z" stroke="#036EB7" stroke-width="1.5" stroke-linecap="round" stroke-linejoin="round"/>
<path d="M63.1636 57.7891C63.1636 59.4139 61.9145 60.6564 60.281 60.6564C58.6475 60.6564 57.3984 59.4139 57.3984 57.7891C57.3984 56.1644 58.6475 54.9219 60.281 54.9219C61.9145 54.9219 63.1636 56.1644 63.1636 57.7891Z" stroke="#036EB7" stroke-width="1.5" stroke-linecap="round" stroke-linejoin="round"/>
<path d="M63.1636 41.829C63.1636 43.4537 61.9145 44.6962 60.281 44.6962C58.6475 44.6962 57.3984 43.4537 57.3984 41.829C57.3984 40.2998 58.6475 38.9617 60.281 38.9617C61.9145 38.9617 63.1636 40.2998 63.1636 41.829ZM63.1636 26.3458C63.1636 27.875 61.9145 29.213 60.281 29.213C58.6475 29.213 57.3984 27.9706 57.3984 26.3458C57.3984 24.721 58.6475 23.4785 60.281 23.4785C61.9145 23.4785 63.1636 24.721 63.1636 26.3458Z" stroke="#036EB7" stroke-width="1.5" stroke-linecap="round" stroke-linejoin="round"/>
<path d="M76.519 34.4688C76.519 35.998 75.2699 37.3361 73.6365 37.3361C72.0991 37.3361 70.7539 36.0936 70.7539 34.4688C70.7539 32.844 72.003 31.6016 73.6365 31.6016C75.2699 31.6016 76.519 32.9396 76.519 34.4688Z" stroke="#036EB7" stroke-width="1.5" stroke-linecap="round" stroke-linejoin="round"/>
<path d="M64.507 55.3043L69.4074 52.437M69.4074 31.6016L64.507 28.7344M69.4074 62.3769L64.507 59.5096M55.7632 44.3131L50.8629 47.1804M50.8629 52.437L55.7632 55.3043M64.507 39.4388L69.4074 36.5715M37.2188 39.4388L42.1191 36.5715M50.8629 36.5715L55.7632 39.4388" stroke="#036EB7" stroke-width="1.5" stroke-linecap="round" stroke-linejoin="round"/>
<path d="M73.7348 44.888V39.1534M60.3789 36.9552V31.2207" stroke="#036EB7" stroke-width="1.5" stroke-linecap="round" stroke-linejoin="round"/>
</g>
<defs>
<clipPath id="clip0_6268_46825">
<rect width="55" height="55" fill="white" transform="translate(23 22)"/>
</clipPath>
</defs>
</svg>
