<svg width="100" height="100" viewBox="0 0 100 100" fill="none" xmlns="http://www.w3.org/2000/svg">
<rect opacity="0.4" x="1.5" y="1.5" width="97" height="97" rx="48.5" stroke="#036EB7" stroke-width="3"/>
<path d="M76.9891 50.1234C76.6837 51.236 76.1492 52.1523 75.0584 52.6758C73.2586 53.5485 71.1097 52.7522 70.368 50.8979C70.2262 50.527 70.0408 50.4397 69.6808 50.4506C68.5028 50.4725 67.3247 50.4725 66.1466 50.4506C65.7976 50.4506 65.634 50.5161 65.6558 50.9088C65.6885 51.6069 65.6776 52.3159 65.6558 53.014C65.6449 53.3194 65.754 53.4067 66.0485 53.3958C66.5393 53.374 67.0302 53.3849 67.521 53.3958C68.2519 53.4176 68.5791 53.7448 68.5791 54.4757C68.59 55.6864 68.5791 56.8972 68.59 58.1189C68.59 58.3152 68.47 58.6534 68.8518 58.6207C69.1572 58.5988 69.539 58.8388 69.7463 58.3261C70.248 57.0826 71.1534 56.2973 72.5169 56.09C74.3603 55.8064 76.0619 57.0608 76.411 58.9697C76.7273 60.6822 75.5056 62.493 73.7931 62.8747C72.1024 63.2456 70.4662 62.4166 69.8008 60.8022C69.6481 60.4314 69.4626 60.3441 69.1027 60.3659C68.6773 60.3877 68.2628 60.3768 67.8374 60.3659C67.172 60.355 66.8666 60.0605 66.8666 59.3951C66.8557 58.1516 66.8338 56.8972 66.8775 55.6537C66.8993 55.1301 66.6266 55.1519 66.2666 55.1519C65.9067 55.1519 65.6558 55.1192 65.6558 55.6428C65.6776 60.6168 65.6667 65.5908 65.6667 70.5648C65.6667 72.3755 65.0559 73.8917 63.616 75.037C62.7216 75.746 61.6853 76.1496 60.5509 76.1496C53.5044 76.1605 46.4579 76.1824 39.4114 76.1387C36.5099 76.1169 34.3174 73.7063 34.3065 70.663C34.2956 65.9398 34.3065 61.2058 34.3065 56.4827C34.3065 56.2755 34.3065 56.0573 34.3065 55.85C34.3065 55.2065 33.9138 54.9447 33.2812 55.1628C33.0521 55.2392 33.1284 55.4137 33.1284 55.5555C33.1175 56.7554 33.1284 57.9444 33.1284 59.1442C33.1284 60.115 32.8776 60.3659 31.9177 60.3659C31.8631 60.3659 31.8086 60.3768 31.765 60.3659C30.8923 60.2459 30.3142 60.4314 29.8561 61.3585C29.158 62.7438 27.4236 63.2456 25.9183 62.7438C24.4567 62.253 23.5404 60.835 23.6277 59.2533C23.7149 57.7807 24.8712 56.4609 26.3546 56.1555C27.8599 55.85 29.3652 56.6136 30.0961 58.0098C30.216 58.2389 30.1615 58.5879 30.5542 58.6425C31.2632 58.7515 31.3723 58.6643 31.3723 57.9335C31.3723 56.8099 31.3723 55.6864 31.3723 54.5629C31.3832 53.7339 31.6995 53.4176 32.5176 53.4067C33.0085 53.3958 33.4993 53.3958 33.9902 53.4067C34.2192 53.4067 34.3065 53.3303 34.3065 53.1013C34.2956 52.3268 34.2956 51.5523 34.3065 50.7779C34.3065 50.5161 34.1974 50.4506 33.9574 50.4506C32.6594 50.4615 31.3614 50.4615 30.0524 50.4506C29.7252 50.4506 29.7143 50.6688 29.627 50.876C28.7871 52.9267 26.3001 53.6685 24.4894 52.425C23.2786 51.596 22.7332 50.0689 23.1259 48.6617C23.5295 47.2437 24.7839 46.262 26.311 46.1747C27.6963 46.0984 29.0816 46.9601 29.5943 48.2909C29.7361 48.6508 29.9106 48.749 30.2706 48.749C31.4704 48.7272 32.6594 48.7272 33.8593 48.749C34.1974 48.749 34.3283 48.6617 34.3065 48.3018C34.2847 47.6037 34.2847 46.8947 34.3065 46.1966C34.3174 45.8584 34.1865 45.7712 33.8811 45.793C33.423 45.8148 32.9648 45.8039 32.5067 45.793C31.6886 45.7821 31.3723 45.4657 31.3614 44.6258C31.3505 43.4478 31.3614 42.2697 31.3505 41.0917C31.3505 40.8953 31.4923 40.5681 31.1105 40.5681C30.7832 40.5681 30.4124 40.3827 30.1833 40.8953C29.2671 43.0224 26.9219 43.775 25.0893 42.586C23.8458 41.7789 23.2677 40.2845 23.6277 38.8119C23.9767 37.4048 25.2202 36.3685 26.7364 36.2267C28.1326 36.0958 29.5725 36.9576 30.1397 38.332C30.3033 38.7356 30.4996 38.8665 30.9032 38.8228C31.1977 38.7901 31.5032 38.8119 31.7977 38.8119C32.8885 38.8119 33.1066 39.0301 33.1066 40.1536C33.1066 41.2662 33.1394 42.3679 33.0957 43.4696C33.0739 43.9713 33.2593 44.0477 33.6957 44.0368C34.0992 44.0259 34.3174 44.015 34.3174 43.4805C34.2956 38.5065 34.3065 33.5325 34.3065 28.5585C34.3065 26.7478 34.9501 25.2316 36.4008 24.1081C37.3171 23.3882 38.3751 23.0173 39.5205 23.0173C46.5015 23.0064 53.4717 22.9846 60.4527 23.0173C63.4633 23.05 65.6558 25.417 65.6667 28.5694C65.6776 33.4889 65.6667 38.4083 65.6667 43.3387C65.6667 44.0041 66.0376 44.244 66.692 44.0368C66.9429 43.9495 66.8557 43.7532 66.8557 43.6005C66.8666 42.3897 66.8557 41.1789 66.8666 39.9572C66.8666 39.0955 67.1393 38.8337 68.001 38.8228C68.0555 38.8228 68.1101 38.8119 68.1537 38.8228C69.0481 38.9428 69.6699 38.7792 70.1607 37.7975C70.837 36.4231 72.5823 35.954 74.0658 36.4449C75.5383 36.9358 76.4764 38.3865 76.3564 39.9682C76.2474 41.4298 75.0911 42.7278 73.6404 43.0224C72.0914 43.3278 70.5207 42.5533 69.8662 41.0808C69.6808 40.6663 69.4845 40.4917 69.0154 40.5245C68.6991 40.5463 68.59 40.6335 68.59 40.9608C68.6009 42.1388 68.6009 43.3169 68.59 44.4949C68.59 45.5094 68.3173 45.7712 67.3138 45.7821C66.7902 45.793 66.103 45.5639 65.7867 45.8693C65.4376 46.1966 65.6776 46.8947 65.6776 47.4292C65.6558 48.7272 65.6667 48.7272 66.9538 48.7272C67.9246 48.7272 68.8845 48.7272 69.8553 48.7272C70.0844 48.7272 70.2262 48.6836 70.3353 48.4327C70.9897 46.8838 72.2878 46.0329 73.7604 46.1529C75.4074 46.2947 76.5091 47.2546 76.9236 48.9126C76.9346 48.9563 76.9782 48.9999 77 49.0435C76.9891 49.4144 76.9891 49.7634 76.9891 50.1234ZM63.9214 48.6945C63.9214 43.775 63.9105 38.8555 63.9323 33.9361C63.9323 33.467 63.8014 33.358 63.3433 33.358C54.4534 33.3689 45.5634 33.3689 36.6626 33.358C36.2045 33.358 36.0409 33.4452 36.0409 33.9579C36.0518 43.7968 36.0518 53.6357 36.0409 63.4856C36.0409 63.9873 36.1827 64.0855 36.6517 64.0855C45.5307 64.0746 54.3988 64.0746 63.2779 64.0855C63.8451 64.0855 63.9214 63.911 63.9214 63.4092C63.9105 58.5007 63.9214 53.5921 63.9214 48.6945ZM49.9811 65.8199C45.5198 65.8199 41.0585 65.8308 36.5972 65.809C36.1608 65.809 36.0409 65.918 36.0518 66.3653C36.0845 67.8051 36.0518 69.2449 36.0627 70.6848C36.0736 72.9536 37.5134 74.4044 39.7932 74.4044C46.5888 74.4153 53.3844 74.4153 60.1909 74.4044C62.4598 74.4044 63.9105 72.9427 63.9214 70.6739C63.9323 69.234 63.8996 67.7942 63.9323 66.3543C63.9432 65.9071 63.8014 65.809 63.376 65.809C58.9038 65.8308 54.4425 65.8199 49.9811 65.8199ZM49.9811 31.6454C54.4643 31.6454 58.9474 31.6454 63.4197 31.6563C63.8014 31.6563 63.9432 31.5691 63.9214 31.1655C63.8887 30.2492 63.9214 29.333 63.9105 28.4276C63.8887 26.2897 62.4271 24.8062 60.3 24.7953C53.428 24.7844 46.5561 24.7844 39.695 24.7953C37.5571 24.7953 36.0954 26.2678 36.0736 28.4058C36.0627 29.3002 36.1063 30.1947 36.0627 31.0891C36.0409 31.58 36.2154 31.6563 36.6626 31.6563C41.0912 31.6345 45.5307 31.6454 49.9811 31.6454ZM72.9532 41.3862C73.9022 41.3862 74.6657 40.6226 74.6548 39.6845C74.6439 38.7792 73.8694 38.0156 72.9641 38.0047C72.026 37.9938 71.2624 38.7683 71.2734 39.7173C71.2843 40.6553 72.0151 41.3862 72.9532 41.3862ZM28.6998 59.4824C28.6998 58.5334 27.9363 57.7916 26.9764 57.8026C26.0492 57.8135 25.3075 58.5661 25.3075 59.4933C25.3075 60.4095 26.0601 61.1731 26.9764 61.184C27.9254 61.1949 28.6998 60.4314 28.6998 59.4824ZM26.4092 51.2796C27.3582 51.2905 28.1435 50.527 28.1435 49.5889C28.1435 48.6836 27.38 47.9091 26.4637 47.8982C25.5147 47.8873 24.7403 48.6508 24.7403 49.5998C24.7403 50.527 25.482 51.2687 26.4092 51.2796ZM72.9641 57.8026C72.026 57.8026 71.2843 58.5334 71.2734 59.4606C71.2624 60.4095 72.026 61.184 72.9641 61.184C73.9022 61.184 74.6766 60.3986 74.6657 59.4606C74.6439 58.5443 73.8913 57.8026 72.9641 57.8026ZM28.6998 39.6955C28.6998 38.7465 27.9145 37.9829 26.9873 37.9938C26.071 38.0156 25.3184 38.7792 25.3184 39.6955C25.3184 40.6226 26.0601 41.3644 26.9873 41.3753C27.9472 41.3971 28.6998 40.6553 28.6998 39.6955ZM75.222 49.6325C75.2438 48.6836 74.4912 47.9091 73.5531 47.8982C72.6368 47.8873 71.8624 48.629 71.8406 49.5453C71.8078 50.4725 72.5823 51.2687 73.5204 51.2796C74.4585 51.2905 75.2111 50.5597 75.222 49.6325Z" fill="#036EB7"/>
<path d="M49.9937 36.9688C56.353 36.9797 61.5124 42.15 61.5124 48.5202C61.5124 54.8904 56.353 60.0499 49.9828 60.0499C43.6235 60.0499 38.4422 54.8577 38.4531 48.5093C38.4641 42.1282 43.6453 36.9579 49.9937 36.9688ZM49.9719 58.3046C55.3386 58.3264 59.7781 53.8978 59.789 48.5202C59.7999 43.1317 55.404 38.7249 50.0046 38.7249C44.6161 38.714 40.1984 43.1099 40.1875 48.4984C40.1766 53.876 44.5725 58.2828 49.9719 58.3046Z" fill="#036EB7"/>
<path d="M49.9142 73.2491C48.1689 73.1945 46.7727 71.7329 46.8381 70.0312C46.9145 68.2751 48.3325 66.9334 50.0887 66.9879C51.8012 67.0316 53.1974 68.5041 53.1429 70.1839C53.0666 71.9401 51.6376 73.3036 49.9142 73.2491ZM51.3758 70.1185C51.3758 69.3659 50.7105 68.7005 49.9687 68.7114C49.2379 68.7223 48.6052 69.3659 48.5943 70.0967C48.5834 70.8602 49.2161 71.5256 49.9687 71.5256C50.7214 71.5365 51.3758 70.8711 51.3758 70.1185Z" fill="#036EB7"/>
<path d="M49.9807 28.8089C48.8027 28.8089 47.6355 28.8089 46.4575 28.8089C45.9994 28.8089 45.6176 28.6562 45.4758 28.1872C45.3231 27.6963 45.5958 27.2273 46.1193 27.1073C46.3048 27.0636 46.5011 27.0527 46.6975 27.0527C48.9118 27.0527 51.1152 27.0527 53.3295 27.0527C53.4713 27.0527 53.6131 27.0527 53.744 27.0746C54.2675 27.1509 54.5621 27.4781 54.5511 27.9472C54.5511 28.4271 54.213 28.7871 53.6676 28.8089C52.8822 28.8416 52.086 28.8198 51.3006 28.8198C50.8534 28.8089 50.4171 28.8089 49.9807 28.8089Z" fill="#036EB7"/>
<path d="M48.0166 43.457C48.7038 43.457 49.0201 43.6752 49.2165 44.3188C50.0018 46.8821 50.7872 49.4455 51.5726 52.0088C51.7362 52.5433 51.5508 52.8378 50.9726 53.0123C50.4272 53.176 50.1327 53.0233 49.9691 52.5106C49.8164 52.0306 49.8055 51.3871 49.4783 51.1035C49.1183 50.798 48.4638 51.0162 47.9402 51.0053C47.4821 50.9944 46.9367 50.8744 46.5986 51.0816C46.2604 51.2998 46.2932 51.8997 46.1623 52.3361C45.9441 53.0778 45.4423 53.2741 44.777 52.8705C44.4824 52.6851 44.3406 52.467 44.4606 52.0852C45.2787 49.4782 46.0641 46.8603 46.8713 44.2533C47.0567 43.6643 47.3621 43.4679 48.0166 43.457ZM48.0821 45.8786C48.0493 45.8786 48.0166 45.8677 47.9839 45.8677C47.6457 47.0566 47.3076 48.2456 46.9585 49.4455C46.9258 49.5655 46.904 49.6963 47.1003 49.6963C47.7657 49.6963 48.442 49.6963 49.151 49.6963C48.7802 48.3656 48.4311 47.1221 48.0821 45.8786Z" fill="#036EB7"/>
<path d="M53.8984 48.2692C53.8984 46.9493 53.8984 45.6404 53.8984 44.3205C53.8984 43.7533 54.1166 43.5461 54.7056 43.5352C55.2947 43.5352 55.5455 43.7424 55.5455 44.2878C55.5564 46.9602 55.5564 49.6218 55.5455 52.2942C55.5455 52.8396 55.2728 53.0687 54.7056 53.0687C54.1384 53.0687 53.8984 52.8396 53.8984 52.2724C53.8984 50.9416 53.8984 49.6109 53.8984 48.2692Z" fill="#036EB7"/>
</svg>
