<svg width="80" height="80" viewBox="0 0 80 80" fill="none" xmlns="http://www.w3.org/2000/svg">
<path d="M2.1 0C17.8 0 33.5 0 49.3 0C51.4 0.7 51.5 2.5 51.4 4.4C52.7 4.5 54 4.2 55 5.2C56 6.1 55.9 7.4 55.9 8.7C56.3 8.7 56.6 8.7 56.8 8.7C58.9 8.5 60.4 9.8 60.3 12.2C60.2 13.8 60.3 15.5 60.3 17.1C60.3 17.3 60.3 17.6 60.3 17.9C60.6 17.9 60.7 17.9 60.9 17.9C69.6 18 77 23.6 79.3 32C79.6 33.2 79.8 34.4 80 35.6C80 36.7 80 37.8 80 38.9C80 39.1 79.9 39.3 79.9 39.5C79.5 41.2 79.2 42.9 78.6 44.5C77.9 46.5 76.7 48.3 75.3 49.9C74.8 50.5 74.2 50.5 73.6 50.1C73.1 49.7 73 49.1 73.5 48.4C73.6 48.2 73.8 48 73.9 47.9C75.1 46.4 76.1 44.7 76.7 42.8C76.4 42.7 76.2 42.6 76 42.6C71.2 41.3 66.5 40.1 61.7 38.8C61.2 38.7 60.9 38.8 60.5 39.2C57 42.7 53.5 46.2 50 49.7C49.8 49.9 49.7 50 49.5 50.2C49.9 50.5 50.2 50.8 50.5 51C51.1 51.4 51.6 51.8 52.2 52.1C57.6 55 63 55.1 68.5 52.4C69.5 51.9 70.1 52 70.4 52.7C70.8 53.4 70.6 54.1 69.5 54.5C67.9 55.1 66.4 55.8 64.8 56.2C63.3 56.6 61.7 56.6 60.1 56.9C60.1 57.1 60.1 57.4 60.1 57.7C60.1 61.1 60.1 64.6 60.1 68C60.1 68.5 59.8 69.1 59.5 69.5C56.1 72.9 52.7 76.3 49.3 79.7C48.9 80.1 48.3 80.3 47.8 80.3C35.8 80.3 23.8 80.3 11.8 80.3C10 80.3 8.9 79.2 8.9 77.4C8.9 77 8.9 76.6 8.9 76.2C7.5 75.7 6.2 76 5.2 75C4.2 74 4.5 72.7 4.4 71.4C4.1 71.4 3.8 71.4 3.5 71.4C1.3 71.6 0 70.3 0 67.9C0.1 46.4 0 25 0 3.5C0 1.9 0.5 0.7 2.1 0ZM57.8 18C57.8 16 57.8 14 57.8 12C57.8 11.2 57.5 11 56.8 11C41.9 11 27.1 11 12.2 11C11.2 11 11.2 11 11.2 12.1C11.2 33.6 11.2 55.1 11.2 76.7C11.2 77.8 11.2 77.8 12.2 77.8C23.5 77.8 34.8 77.8 46.2 77.8C46.5 77.8 46.7 77.8 47 77.8C47 77.5 47 77.2 47 76.9C47 74.6 47 72.2 47 69.9C47 68.1 48.1 67 49.9 67C51 67 52.1 67 53.3 67C54.8 67 56.3 67 57.8 67C57.8 63.5 57.8 60 57.8 56.5C53.1 55.7 49.2 53.6 46.1 50C43 46.4 41.4 42.2 41.4 37.4C41.4 33.2 42.6 29.3 45.1 25.9C48.2 21.4 52.5 18.9 57.8 18ZM8.9 73.4C8.9 73 8.9 72.6 8.9 72.3C8.9 52.2 8.9 32.1 8.9 11.9C8.9 9.6 9.9 8.6 12.2 8.6C25.6 8.6 39 8.6 52.4 8.6C52.7 8.6 53.1 8.6 53.4 8.6C53.6 6.7 53.6 6.7 51.9 6.7C42.2 6.7 32.4 6.7 22.7 6.7C22.4 6.7 22.2 6.7 21.9 6.7C21.2 6.6 20.8 6.2 20.8 5.5C20.8 4.7 21.3 4.4 22.4 4.4C30.9 4.4 39.4 4.4 47.9 4.4C48.2 4.4 48.6 4.4 48.9 4.4C49 4.2 49 4 49 3.8C49 2.3 49 2.3 47.6 2.3C32.9 2.3 18.2 2.3 3.6 2.3C2.5 2.3 2.5 2.3 2.5 3.5C2.5 24.9 2.5 46.4 2.5 67.8C2.5 68 2.4 68.3 2.5 68.5C2.5 68.7 2.7 69 2.9 69C3.4 69.1 3.9 69 4.5 69C4.5 68.5 4.5 68.2 4.5 67.8C4.5 47.7 4.5 27.7 4.5 7.6C4.5 5.4 5.6 4.4 7.7 4.4C10.1 4.4 12.6 4.4 15 4.4C16 4.4 16.5 4.8 16.5 5.6C16.5 6.4 16.1 6.7 15.1 6.7C12.8 6.7 10.5 6.7 8.2 6.7C6.9 6.7 6.9 6.7 6.9 8C6.9 29.2 6.9 50.4 6.9 71.6C6.8 73.6 6.8 73.6 8.9 73.4ZM66.5 21.2C59.6 18.6 50.8 20.8 46.2 28.2C41.9 35.1 43.5 43.7 47.9 48.2C48 48.1 48.1 48.1 48.1 48C51.9 44.2 55.6 40.5 59.4 36.7C59.6 36.5 59.8 36.1 60 35.8C61.6 32.3 63.1 28.9 64.7 25.4C65.3 24 65.9 22.6 66.5 21.2ZM77.3 40.3C78.8 34 75.6 25.6 68.7 22.2C66.6 26.9 64.5 31.6 62.3 36.3C67.4 37.7 72.3 39 77.3 40.3ZM49.4 75.6C51.6 73.5 53.8 71.3 56.1 69.1C54 69.1 52 69.1 49.9 69.1C49.7 69.1 49.5 69.5 49.5 69.7C49.4 70.4 49.5 71.1 49.5 71.8C49.4 73.1 49.4 74.4 49.4 75.6Z" fill="black"/>
<path d="M19.8999 67.5C19.8999 64.8 19.8999 62.2 19.8999 59.6C19.8999 58.2 20.1999 57.9 21.5999 57.9C22.9999 57.9 24.2999 57.9 25.6999 57.9C25.6999 57.6 25.6999 57.3 25.6999 57C25.6999 55 25.6999 53 25.6999 51.1C25.6999 50 26.0999 49.6 27.1999 49.6C28.8999 49.6 30.6999 49.6 32.3999 49.6C33.4999 49.6 33.7999 50 33.8999 51.1C33.8999 52.3 33.8999 53.6 33.8999 54.9C35.2999 54.9 36.6999 54.9 37.9999 54.9C39.4999 54.9 39.7999 55.2 39.7999 56.7C39.7999 60 39.7999 63.3 39.7999 66.6C39.7999 66.9 39.7999 67.2 39.7999 67.4C40.1999 67.5 40.5999 67.5 40.8999 67.5C41.4999 67.7 41.7999 68.1 41.6999 68.7C41.6999 69.3 41.2999 69.7 40.6999 69.8C40.3999 69.8 40.1999 69.8 39.8999 69.8C33.0999 69.8 26.3999 69.8 19.5999 69.8C19.3999 69.8 19.0999 69.8 18.8999 69.8C18.2999 69.7 17.8999 69.4 17.8999 68.7C17.8999 68 18.1999 67.6 18.8999 67.5C19.1999 67.5 19.4999 67.5 19.8999 67.5ZM28.0999 52C28.0999 57.2 28.0999 62.3 28.0999 67.5C29.2999 67.5 30.3999 67.5 31.4999 67.5C31.4999 62.3 31.4999 57.2 31.4999 52C30.3999 52 29.2999 52 28.0999 52ZM33.9999 57.3C33.9999 60.7 33.9999 64.1 33.9999 67.5C35.1999 67.5 36.2999 67.5 37.3999 67.5C37.3999 64.1 37.3999 60.7 37.3999 57.3C36.2999 57.3 35.0999 57.3 33.9999 57.3ZM25.6999 67.5C25.6999 65.1 25.6999 62.7 25.6999 60.3C24.4999 60.3 23.3999 60.3 22.2999 60.3C22.2999 62.7 22.2999 65.1 22.2999 67.5C23.3999 67.5 24.4999 67.5 25.6999 67.5Z" fill="black"/>
<path d="M30.4999 19.3C34.1999 19.3 37.8999 19.3 41.5999 19.3C41.9999 19.3 42.6 19.5 42.9 19.8C43.5 20.4 42.9999 21.4 42.1999 21.6C41.8999 21.6 41.7 21.6 41.4 21.6C34.0999 21.6 26.8999 21.6 19.5999 21.6C19.3999 21.6 19.1999 21.6 18.9999 21.6C18.2999 21.5 17.7999 21 17.8999 20.4C17.8999 19.8 18.3999 19.3 19.0999 19.3C20.3999 19.3 21.7999 19.3 23.0999 19.3C25.4999 19.3 27.9999 19.3 30.4999 19.3Z" fill="black"/>
<path d="M27.9 27.9C30.6 27.9 33.4 27.9 36.1 27.9C36.4 27.9 36.7 27.9 37 27.9C37.6 28 37.9 28.4 37.9 28.9C37.9 29.5 37.7 29.9 37.1 30.1C36.8 30.2 36.5 30.2 36.3 30.2C30.7 30.2 25.2 30.2 19.6 30.2C19.4 30.2 19.3 30.2 19.1 30.2C18.4 30.1 17.9 29.6 18 29C18 28.4 18.5 27.9 19.2 27.9C20.6 27.9 22 27.9 23.4 27.9C24.8 27.9 26.3 27.9 27.9 27.9Z" fill="black"/>
<path d="M26.7 36.5C29.2 36.5 31.7 36.5 34.2 36.5C34.9 36.5 35.3 36.9 35.4 37.6C35.4 38.3 35 38.7 34.3 38.8C34.1 38.8 33.8 38.8 33.6 38.8C31.7 38.8 29.9 38.8 28 38.8C25.3 38.8 22.5 38.8 19.8 38.8C19.6 38.8 19.4 38.8 19.2 38.8C18.4 38.7 17.9 38.3 18 37.6C18 36.9 18.5 36.5 19.3 36.5C21.7 36.5 24.2 36.5 26.7 36.5Z" fill="black"/>
</svg>
