<svg width="42" height="42" viewBox="0 0 42 42" fill="none" xmlns="http://www.w3.org/2000/svg">
<rect width="42" height="42" fill="#E5E5E5"/>
<rect width="24928" height="17536" transform="translate(-18761 -6533)" fill="white"/>
<g clip-path="url(#clip0_0_1)">
<rect width="1920" height="1620" transform="translate(-934 -768)" fill="white"/>
<rect x="-574" y="-704" width="1200" height="1556" fill="url(#paint0_linear_0_1)"/>
<rect x="-94" y="-49" width="670" height="851" rx="20" fill="white"/>
<rect x="-63.25" y="-23.25" width="608.5" height="108.5" rx="9.25" stroke="#F3F3F3" stroke-width="1.5"/>
<g clip-path="url(#clip1_0_1)">
<path d="M24.78 8.82C25.0425 8.82 25.2525 8.82 25.41 8.82C29.82 8.82 34.23 8.82 38.6925 8.82C39.7425 8.82 39.9525 9.03 39.9525 10.1325C39.9525 19.95 39.9525 29.715 39.9525 39.5325C39.9525 39.7425 39.9525 39.9525 39.9525 40.2675C40.3725 40.2675 40.6875 40.2675 41.055 40.2675C41.58 40.2675 41.9475 40.635 41.9475 41.1075C41.9475 41.58 41.58 41.9475 41.055 42C40.8975 42 40.74 42 40.5825 42C27.4575 42 14.3325 42 1.25999 42C0.997494 42 0.787494 42 0.577494 41.9475C0.157494 41.79 -0.0525063 41.475 -6.26594e-06 41.0025C0.0524937 40.5825 0.314994 40.2675 0.787494 40.2675C1.15499 40.215 1.57499 40.2675 1.99499 40.2675C1.99499 40.005 1.99499 39.795 1.99499 39.5325C1.99499 26.8275 1.99499 14.07 1.99499 1.365C1.99499 0.21 2.20499 0 3.35999 0C10.0275 0 16.695 0 23.415 0C24.57 0 24.78 0.21 24.78 1.365C24.78 3.6225 24.78 5.9325 24.78 8.19C24.78 8.4 24.78 8.5575 24.78 8.82ZM22.995 40.215C22.995 27.3525 22.995 14.595 22.995 1.785C16.59 1.785 10.185 1.785 3.77999 1.785C3.77999 14.595 3.77999 27.405 3.77999 40.215C5.09249 40.215 6.40499 40.215 7.71749 40.215C7.71749 36.855 7.71749 33.495 7.71749 30.135C7.66499 30.0825 7.66499 30.0825 7.61249 30.0825C7.50749 30.0825 7.45499 30.0825 7.34999 30.0825C6.45749 30.03 6.08999 29.7675 6.08999 29.19C6.08999 28.6125 6.50999 28.2975 7.40249 28.2975C11.3925 28.2975 15.3825 28.2975 19.32 28.2975C19.4775 28.2975 19.6875 28.2975 19.845 28.2975C20.3175 28.4025 20.6325 28.7175 20.58 29.19C20.58 29.6625 20.265 29.9775 19.74 30.03C19.4775 30.03 19.215 30.03 18.9525 30.0825C18.9525 33.495 18.9525 36.855 18.9525 40.215C20.37 40.215 21.6825 40.215 22.995 40.215ZM24.78 40.215C29.295 40.215 33.705 40.215 38.1675 40.215C38.1675 30.2925 38.1675 20.475 38.1675 10.605C33.705 10.605 29.2425 10.605 24.78 10.605C24.78 20.475 24.78 30.345 24.78 40.215ZM17.22 30.0825C14.595 30.0825 12.075 30.0825 9.50249 30.0825C9.50249 33.495 9.50249 36.855 9.50249 40.1625C12.075 40.1625 14.6475 40.1625 17.22 40.1625C17.22 36.8025 17.22 33.495 17.22 30.0825Z" fill="#036EB7"/>
<path d="M18.8475 21.1574C18.5325 21.1574 18.2175 21.2099 17.9025 21.1574C17.43 21.1049 17.115 20.7374 17.115 20.3174C17.115 19.8974 17.43 19.4774 17.9025 19.4774C18.5325 19.4249 19.215 19.4249 19.845 19.4774C20.3175 19.5299 20.6325 19.8974 20.6325 20.3174C20.6325 20.7899 20.3175 21.1049 19.845 21.1574C19.53 21.1574 19.215 21.1574 18.8475 21.1574Z" fill="#036EB7"/>
<path d="M7.87496 21.1576C7.55996 21.1576 7.24496 21.1576 6.98246 21.1576C6.45746 21.1051 6.14246 20.7901 6.14246 20.3176C6.14246 19.8451 6.45746 19.4776 6.98246 19.4251C7.61246 19.3726 8.24246 19.3726 8.87246 19.4251C9.34496 19.4776 9.65996 19.7926 9.65996 20.2651C9.65996 20.7376 9.39746 21.0526 8.87246 21.1576C8.81996 21.1576 8.76746 21.1576 8.71496 21.1576C8.45246 21.1576 8.13746 21.1576 7.87496 21.1576Z" fill="#036EB7"/>
<path d="M13.335 21.1576C13.02 21.1576 12.705 21.2101 12.39 21.1576C11.9175 21.1051 11.6025 20.7376 11.655 20.2651C11.655 19.7926 11.9175 19.4776 12.39 19.4251C13.0725 19.3726 13.7025 19.3726 14.385 19.4251C14.8575 19.4776 15.12 19.7926 15.12 20.2651C15.1725 20.6851 14.805 21.1051 14.385 21.1576C14.0175 21.1576 13.7025 21.1576 13.335 21.1576Z" fill="#036EB7"/>
<path d="M7.87497 5.93269C7.55997 5.93269 7.29747 5.93269 6.98247 5.93269C6.45747 5.88019 6.08997 5.5127 6.08997 5.0402C6.08997 4.5677 6.45747 4.2002 6.92997 4.2002C7.55997 4.2002 8.13747 4.2002 8.76747 4.2002C9.23997 4.2002 9.60747 4.6202 9.55497 5.09269C9.55497 5.56519 9.23997 5.88019 8.76747 5.93269C8.71497 5.93269 8.71496 5.93269 8.66246 5.93269C8.45247 5.93269 8.13747 5.93269 7.87497 5.93269Z" fill="#036EB7"/>
<path d="M7.87496 9.71231C7.55996 9.71231 7.24496 9.71231 6.92996 9.71231C6.45746 9.65981 6.14246 9.34481 6.14246 8.8723C6.14246 8.3998 6.45746 7.9798 6.92996 7.9798C7.55996 7.9273 8.18996 7.9273 8.81996 7.9798C9.29245 7.9798 9.65995 8.3998 9.60745 8.8723C9.60745 9.34481 9.29246 9.71231 8.76746 9.71231C8.45246 9.76481 8.18996 9.71231 7.87496 9.71231Z" fill="#036EB7"/>
<path d="M18.795 17.3251C18.48 17.3251 18.165 17.3251 17.9025 17.3251C17.4825 17.2726 17.115 16.9576 17.115 16.5376C17.115 16.1176 17.325 15.6976 17.745 15.6976C18.48 15.6451 19.215 15.6451 20.0025 15.6976C20.4225 15.7501 20.6325 16.1176 20.6325 16.5901C20.58 17.0101 20.37 17.3251 19.8975 17.3776C19.53 17.3776 19.1625 17.3251 18.795 17.3251Z" fill="#036EB7"/>
<path d="M18.9 5.93244C18.585 5.93244 18.27 5.93244 17.955 5.93244C17.4825 5.87994 17.115 5.51244 17.115 5.09244C17.115 4.61994 17.4825 4.25244 17.955 4.25244C18.585 4.25244 19.1625 4.25244 19.7925 4.25244C20.265 4.25244 20.6325 4.67244 20.6325 5.09244C20.6325 5.56494 20.265 5.93244 19.7925 5.98494C19.4775 5.93244 19.1625 5.93244 18.9 5.93244Z" fill="#036EB7"/>
<path d="M13.335 9.71231C13.02 9.71231 12.705 9.71231 12.39 9.71231C11.9175 9.65981 11.6025 9.34481 11.6025 8.8723C11.6025 8.3998 11.9175 7.9798 12.39 7.9798C13.02 7.9273 13.65 7.9273 14.28 7.9798C14.7525 7.9798 15.12 8.3998 15.12 8.8723C15.12 9.34481 14.7525 9.71231 14.28 9.71231C13.965 9.76481 13.65 9.71231 13.335 9.71231Z" fill="#036EB7"/>
<path d="M18.8475 9.71231C18.5325 9.71231 18.2175 9.71231 17.9025 9.71231C17.43 9.65981 17.115 9.34481 17.0625 8.8723C17.0625 8.3998 17.3775 7.9798 17.85 7.9798C18.48 7.9273 19.11 7.9273 19.74 7.9798C20.2125 7.9798 20.58 8.3998 20.58 8.8723C20.58 9.34481 20.2125 9.71231 19.74 9.71231C19.4775 9.76481 19.1625 9.71231 18.8475 9.71231Z" fill="#036EB7"/>
<path d="M7.87496 13.5451C7.55997 13.5451 7.24497 13.5451 6.92997 13.5451C6.45747 13.4926 6.08997 13.1776 6.08997 12.7576C6.08997 12.2851 6.29997 11.9176 6.77247 11.8651C7.45496 11.8126 8.18996 11.8126 8.92496 11.8651C9.39746 11.9176 9.65996 12.3376 9.60746 12.8101C9.55496 13.2301 9.23996 13.5451 8.76746 13.5451C8.50497 13.5451 8.18996 13.5451 7.87496 13.5451Z" fill="#036EB7"/>
<path d="M13.3349 13.5448C13.0199 13.5448 12.7049 13.5448 12.3899 13.5448C11.9174 13.4923 11.6024 13.2298 11.6024 12.7573C11.5499 12.2848 11.8124 11.8648 12.2849 11.8123C12.9674 11.7598 13.7024 11.7598 14.3849 11.8123C14.8574 11.8648 15.1199 12.2848 15.1199 12.7048C15.0674 13.1248 14.7524 13.4923 14.2799 13.4923C13.9649 13.5448 13.6499 13.5448 13.3349 13.5448Z" fill="#036EB7"/>
<path d="M18.9 13.5451C18.585 13.5451 18.27 13.5451 17.955 13.5451C17.4825 13.4926 17.1675 13.1776 17.115 12.7576C17.0625 12.3376 17.3775 11.9176 17.7975 11.8651C18.48 11.8126 19.215 11.8126 19.95 11.8651C20.4225 11.9176 20.685 12.3376 20.6325 12.8101C20.58 13.2826 20.3175 13.5451 19.7925 13.5451C19.4775 13.5451 19.1625 13.5451 18.9 13.5451Z" fill="#036EB7"/>
<path d="M13.3875 5.93269C13.0725 5.93269 12.81 5.93269 12.495 5.93269C11.97 5.93269 11.6025 5.56519 11.6025 5.09269C11.6025 4.6202 11.9175 4.2527 12.4425 4.2002C13.02 4.2002 13.65 4.2002 14.2275 4.2002C14.7 4.2002 15.0675 4.6202 15.0675 5.0402C15.0675 5.5127 14.7 5.88019 14.2275 5.93269C14.0175 5.93269 13.7025 5.93269 13.3875 5.93269Z" fill="#036EB7"/>
<path d="M13.3875 17.3248C13.0725 17.3248 12.7575 17.3248 12.4425 17.3248C11.97 17.2723 11.655 16.9573 11.6025 16.5373C11.55 16.0648 11.865 15.6448 12.39 15.6448C13.0725 15.5923 13.7025 15.5923 14.385 15.6448C14.8575 15.6973 15.1725 16.1173 15.12 16.5373C15.12 16.9573 14.7525 17.3248 14.28 17.3773C14.0175 17.3773 13.7025 17.3248 13.3875 17.3248Z" fill="#036EB7"/>
<path d="M13.3875 23.2576C13.7025 23.2576 14.0175 23.2576 14.3325 23.2576C14.7525 23.3101 15.12 23.6251 15.12 24.0451C15.12 24.4651 14.91 24.8326 14.49 24.8851C13.755 24.9376 13.02 24.9376 12.285 24.8851C11.8125 24.8326 11.6025 24.4651 11.6025 23.9926C11.6025 23.5726 11.9175 23.2576 12.39 23.2051C12.4425 23.2051 12.4425 23.2051 12.495 23.2051C12.81 23.2051 13.125 23.2051 13.3875 23.2576C13.3875 23.2051 13.3875 23.2051 13.3875 23.2576Z" fill="#036EB7"/>
<path d="M18.8475 24.9376C18.5325 24.9376 18.2175 24.9376 17.955 24.9376C17.4825 24.8851 17.115 24.5176 17.115 24.0451C17.115 23.5726 17.4825 23.2051 18.0075 23.2051C18.585 23.2051 19.1625 23.2051 19.74 23.2051C20.265 23.2051 20.58 23.5726 20.6325 24.0451C20.6325 24.5176 20.3175 24.8851 19.845 24.9376C19.7925 24.9376 19.74 24.9376 19.6875 24.9376C19.425 24.9901 19.1625 24.9901 18.8475 24.9376C18.8475 24.9901 18.8475 24.9376 18.8475 24.9376Z" fill="#036EB7"/>
<path d="M7.87494 17.3248C7.55994 17.3248 7.24494 17.3248 6.92994 17.3248C6.45744 17.2723 6.19494 17.0098 6.14244 16.5373C6.08994 16.1173 6.40494 15.6448 6.82494 15.6448C7.50744 15.5923 8.24244 15.5923 8.92494 15.6448C9.39744 15.6973 9.65994 16.1173 9.60744 16.5373C9.55494 17.0098 9.29244 17.2723 8.81994 17.3248C8.50494 17.3773 8.18994 17.3248 7.87494 17.3248Z" fill="#036EB7"/>
<path d="M7.87496 23.2051C8.18996 23.2051 8.50496 23.2051 8.81996 23.2051C9.29246 23.2576 9.55496 23.5201 9.60746 23.9926C9.65996 24.4651 9.39746 24.8851 8.92496 24.9376C8.24246 24.9901 7.50746 24.9901 6.77247 24.9376C6.29997 24.8851 6.08997 24.5176 6.08997 24.0451C6.08997 23.6251 6.40497 23.3101 6.87747 23.2576C7.24497 23.2051 7.55997 23.2051 7.87496 23.2051Z" fill="#036EB7"/>
<path d="M31.4475 15.0677C30.45 15.0677 29.4 15.0677 28.4025 15.0677C27.7725 15.0677 27.3525 14.7002 27.3525 14.1752C27.3525 13.6502 27.7725 13.2827 28.4025 13.2827C30.45 13.2827 32.4975 13.2827 34.545 13.2827C35.175 13.2827 35.595 13.5977 35.595 14.1227C35.595 14.6477 35.175 15.0152 34.4925 15.0152C33.495 15.0677 32.4975 15.0677 31.4475 15.0677Z" fill="#036EB7"/>
<path d="M31.5 24.045C30.45 24.045 29.4 24.045 28.4025 24.045C27.7725 24.045 27.405 23.73 27.3525 23.205C27.3525 22.68 27.72 22.3125 28.2975 22.3125C29.925 22.3125 31.5 22.3125 33.1275 22.3125C33.6525 22.3125 34.125 22.3125 34.65 22.3125C35.2275 22.3125 35.595 22.68 35.595 23.1525C35.595 23.625 35.2275 24.045 34.65 24.045C33.6 24.045 32.55 24.045 31.5 24.045Z" fill="#036EB7"/>
<path d="M31.5 28.5074C30.45 28.5074 29.4 28.5074 28.4025 28.5074C27.7725 28.5074 27.405 28.1399 27.405 27.6674C27.405 27.1424 27.7725 26.7749 28.4025 26.7749C30.5025 26.7749 32.6025 26.7749 34.7025 26.7749C35.28 26.7749 35.7 27.1424 35.7 27.6674C35.7 28.1924 35.28 28.5074 34.7025 28.5074C33.5475 28.5074 32.55 28.5074 31.5 28.5074Z" fill="#036EB7"/>
<path d="M31.5001 17.7974C32.4976 17.7974 33.5476 17.7974 34.5451 17.7974C35.1751 17.7974 35.5951 18.1124 35.5951 18.6374C35.5951 19.1624 35.175 19.5299 34.4925 19.5299C32.445 19.5299 30.45 19.5299 28.4025 19.5299C27.72 19.5299 27.3 19.1624 27.3 18.6374C27.3 18.1124 27.72 17.7974 28.4025 17.7974C29.4525 17.7974 30.5025 17.7974 31.5001 17.7974Z" fill="#036EB7"/>
<path d="M31.5 31.2373C32.4975 31.2373 33.5475 31.2373 34.545 31.2373C35.175 31.2373 35.595 31.6048 35.595 32.1298C35.595 32.6548 35.175 32.9698 34.545 32.9698C32.4975 32.9698 30.45 32.9698 28.4025 32.9698C27.7725 32.9698 27.3525 32.6548 27.3525 32.1298C27.3525 31.6048 27.7725 31.2373 28.455 31.2373C29.4525 31.2373 30.5025 31.2373 31.5 31.2373Z" fill="#036EB7"/>
<path d="M31.4476 37.4849C30.5026 37.4849 29.5575 37.4849 28.6125 37.4849C28.455 37.4849 28.35 37.4849 28.1925 37.4849C27.6675 37.4324 27.3 37.0649 27.3 36.5924C27.3 36.1199 27.6675 35.7524 28.1925 35.7524C28.9275 35.7524 29.715 35.7524 30.4501 35.7524C31.8151 35.7524 33.1275 35.7524 34.4926 35.7524C35.1226 35.7524 35.5426 36.0674 35.5426 36.5924C35.5426 37.1174 35.1751 37.4849 34.4926 37.4849C33.5475 37.4849 32.4976 37.4849 31.4476 37.4849Z" fill="#036EB7"/>
</g>
</g>
<rect x="-1072.5" y="-971.5" width="6661" height="10916" stroke="black" stroke-width="5" stroke-dasharray="6 6"/>
<defs>
<linearGradient id="paint0_linear_0_1" x1="26" y1="-704" x2="26" y2="852" gradientUnits="userSpaceOnUse">
<stop stop-color="#F6FAFF"/>
<stop offset="1" stop-color="#E2EAF5"/>
</linearGradient>
<clipPath id="clip0_0_1">
<rect width="1920" height="1620" fill="white" transform="translate(-934 -768)"/>
</clipPath>
<clipPath id="clip1_0_1">
<rect width="42" height="42" fill="white"/>
</clipPath>
</defs>
</svg>
