<svg width="80" height="80" viewBox="0 0 80 80" fill="none" xmlns="http://www.w3.org/2000/svg">
<path d="M72.3 31C73.6 31 74.7 31 75.9 31C78.4 31 80 32.6 80 35.1C80 48.7 80 62.3 80 76C80 78.5 78.4 80.1 75.9 80.1C59.7 80.1 43.5 80.1 27.4 80.1C24.9 80.1 23.3 78.5 23.3 76C23.3 68.3 23.3 60.5 23.3 52.8C23.3 52.5 23.3 52.2 23.3 51.8C22.9 51.8 22.6 51.8 22.4 51.8C16.8 51.8 11.3 51.8 5.7 51.8C2.1 51.6 0 49.5 0 46C0 32.5 0 19 0 5.5C0 2.1 2.1 0 5.6 0C25.9 0 46.3 0 66.6 0C70.1 0 72.2 2.1 72.2 5.6C72.2 13.7 72.2 21.8 72.2 29.9C72.3 30.2 72.3 30.5 72.3 31ZM23.2 36.1C23.2 35.9 23.2 35.7 23.2 35.5C22.9 32.9 24.7 30.9 27.8 30.9C41.4 31 55.1 30.9 68.7 30.9C69 30.9 69.3 30.9 69.7 30.9C69.7 30.5 69.7 30.3 69.7 30C69.7 21.9 69.7 13.7 69.7 5.6C69.7 3.5 68.7 2.6 66.6 2.6C46.3 2.6 26 2.6 5.6 2.6C3.5 2.6 2.5 3.6 2.5 5.6C2.5 15.5 2.5 25.3 2.5 35.2C2.5 35.5 2.5 35.8 2.5 36.1C9.5 36.1 16.3 36.1 23.2 36.1ZM51.6 77.4C59.6 77.4 67.6 77.4 75.6 77.4C77.1 77.4 77.5 77 77.5 75.5C77.5 62.1 77.5 48.7 77.5 35.3C77.5 33.8 77.1 33.4 75.6 33.4C59.6 33.4 43.7 33.4 27.7 33.4C26.2 33.4 25.8 33.8 25.8 35.3C25.8 48.7 25.8 62.1 25.8 75.5C25.8 77 26.2 77.4 27.7 77.4C35.6 77.4 43.6 77.4 51.6 77.4ZM23.2 38.8C16.3 38.8 9.5 38.8 2.6 38.8C2.6 41.3 2.6 43.7 2.6 46.1C2.6 48.1 3.6 49.1 5.6 49.1C11.2 49.1 16.8 49.1 22.4 49.1C22.7 49.1 22.9 49.1 23.2 49.1C23.2 45.6 23.2 42.2 23.2 38.8Z" fill="black"/>
<path d="M18.1 5.2C25.3 5.2 31 11 31 18.2C31 25.3 25.1 31 18 31C10.9 31 5.19995 25.1 5.19995 18C5.19995 10.9 11 5.1 18.1 5.2ZM28.4 18.1C28.4 12.4 23.8 7.7 18.1 7.7C12.4 7.7 7.79995 12.4 7.69995 18C7.69995 23.7 12.3 28.4 17.9 28.4C23.7 28.4 28.4 23.8 28.4 18.1Z" fill="black"/>
<path d="M33.6001 15.3999C33.6001 14.5999 33.6001 13.7999 33.6001 12.8999C44.8001 12.8999 55.9001 12.8999 67.1001 12.8999C67.1001 13.6999 67.1001 14.4999 67.1001 15.3999C55.9001 15.3999 44.8001 15.3999 33.6001 15.3999Z" fill="black"/>
<path d="M67.0999 18.1001C67.0999 19.0001 67.0999 19.7001 67.0999 20.6001C55.8999 20.6001 44.8 20.6001 33.7 20.6001C33.7 19.8001 33.7 19.0001 33.7 18.1001C44.7 18.1001 55.8999 18.1001 67.0999 18.1001Z" fill="black"/>
<path d="M59.3 7.80005C59.3 8.70005 59.3 9.50005 59.3 10.3C53.3 10.3 47.4 10.3 41.3 10.3C41.3 9.50005 41.3 8.70005 41.3 7.80005C47.3 7.80005 53.3 7.80005 59.3 7.80005Z" fill="black"/>
<path d="M67.1 7.80005C67.1 8.60005 67.1 9.40005 67.1 10.3C65.4 10.3 63.7 10.3 62 10.3C62 9.50005 62 8.70005 62 7.80005C63.7 7.80005 65.3 7.80005 67.1 7.80005Z" fill="black"/>
<path d="M51.6999 43.8999C58.7999 43.8999 65.8999 43.8999 72.9999 43.8999C74.4999 43.8999 74.8999 44.2999 74.8999 45.7999C74.8999 54.8999 74.8999 63.9999 74.8999 73.0999C74.8999 74.5999 74.4999 74.9999 72.9999 74.9999C58.7999 74.9999 44.4999 74.9999 30.2999 74.9999C28.7999 74.9999 28.3999 74.5999 28.3999 73.0999C28.3999 63.9999 28.3999 54.8999 28.3999 45.7999C28.3999 44.2999 28.7999 43.8999 30.2999 43.8999C37.3999 43.8999 44.4999 43.8999 51.6999 43.8999ZM41.2999 54.1999C41.2999 60.1999 41.2999 66.1999 41.2999 72.1999C49.0999 72.1999 56.6999 72.1999 64.3999 72.1999C64.3999 66.1999 64.3999 60.1999 64.3999 54.1999C56.7999 54.1999 49.0999 54.1999 41.2999 54.1999ZM30.9999 54.1999C30.9999 60.1999 30.9999 66.1999 30.9999 72.1999C33.5999 72.1999 36.0999 72.1999 38.5999 72.1999C38.5999 66.1999 38.5999 60.1999 38.5999 54.1999C36.0999 54.1999 33.5999 54.1999 30.9999 54.1999ZM64.4999 51.5999C64.4999 49.8999 64.4999 48.1999 64.4999 46.4999C56.7999 46.4999 49.0999 46.4999 41.3999 46.4999C41.3999 48.1999 41.3999 49.8999 41.3999 51.5999C48.9999 51.5999 56.6999 51.5999 64.4999 51.5999ZM67.1999 54.1999C67.1999 60.1999 67.1999 66.1999 67.1999 72.1999C68.8999 72.1999 70.5999 72.1999 72.2999 72.1999C72.2999 66.1999 72.2999 60.1999 72.2999 54.1999C70.4999 54.1999 68.8999 54.1999 67.1999 54.1999ZM30.9999 51.4999C33.5999 51.4999 36.0999 51.4999 38.5999 51.4999C38.5999 49.7999 38.5999 48.0999 38.5999 46.3999C35.9999 46.3999 33.4999 46.3999 30.9999 46.3999C30.9999 48.1999 30.9999 49.7999 30.9999 51.4999ZM67.0999 46.4999C67.0999 48.1999 67.0999 49.8999 67.0999 51.5999C68.7999 51.5999 70.4999 51.5999 72.0999 51.5999C72.0999 49.8999 72.0999 48.1999 72.0999 46.4999C70.4999 46.4999 68.8999 46.4999 67.0999 46.4999Z" fill="black"/>
<path d="M28.3999 36.2C29.2999 36.2 30.0999 36.2 30.8999 36.2C30.8999 37.9 30.8999 39.4999 30.8999 41.2999C30.0999 41.2999 29.2999 41.2999 28.3999 41.2999C28.3999 39.5999 28.3999 37.9 28.3999 36.2Z" fill="black"/>
<path d="M36.1001 36.2C36.1001 37.9 36.1001 39.5 36.1001 41.2C35.3001 41.2 34.5001 41.2 33.6001 41.2C33.6001 39.5 33.6001 37.9 33.6001 36.2C34.4001 36.2 35.2001 36.2 36.1001 36.2Z" fill="black"/>
<path d="M38.8 36.2C39.7 36.2 40.4 36.2 41.3 36.2C41.3 37.9 41.3 39.4999 41.3 41.2999C40.5 41.2999 39.7 41.2999 38.8 41.2999C38.8 39.5999 38.8 37.9 38.8 36.2Z" fill="black"/>
<path d="M62 36.2C62.9 36.2 63.6 36.2 64.5 36.2C64.5 37.9 64.5 39.4999 64.5 41.2999C63.7 41.2999 62.9 41.2999 62 41.2999C62 39.5999 62 37.9 62 36.2Z" fill="black"/>
<path d="M69.6001 36.2C69.6001 37.9 69.6001 39.5 69.6001 41.2C68.8001 41.2 67.9001 41.2 67.1001 41.2C67.1001 39.5 67.1001 37.9 67.1001 36.2C67.9001 36.2 68.7001 36.2 69.6001 36.2Z" fill="black"/>
<path d="M74.8 41.2001C73.9 41.2001 73.2 41.2001 72.3 41.2001C72.3 39.5001 72.3 37.9001 72.3 36.1001C73.1 36.1001 73.9 36.1001 74.8 36.1001C74.8 37.8001 74.8 39.5001 74.8 41.2001Z" fill="black"/>
<path d="M19.4 25.7999C18.5 25.7999 17.7 25.7999 16.9 25.7999C16.9 25.6999 16.8 25.6999 16.8 25.6999C16.9 24.7999 16.6 24.1999 15.8 23.6999C14.8 23.0999 14.3 21.9999 14.2 20.6999C15 20.6999 15.8 20.6999 16.7 20.6999C16.8 20.7999 16.8 20.9999 16.9 21.1999C17.2 21.7999 17.7 22.0999 18.4 21.8999C19 21.6999 19.4 21.1999 19.3 20.5999C19.2 19.8999 18.8 19.4999 18.2 19.3999C17.8 19.2999 17.4 19.2999 17.1 19.1999C15.5 18.7999 14.6 17.6999 14.3 16.0999C14 14.5999 14.5 13.1999 15.8 12.3999C16.6 11.8999 17 11.2999 16.7 10.3999C17.6 10.3999 18.4 10.3999 19.3 10.3999C19 11.4999 19.7 11.9999 20.5 12.5999C21.4 13.1999 21.8 14.2999 21.9 15.3999C21.1 15.3999 20.3 15.3999 19.4 15.3999C19.3 15.2999 19.3 15.0999 19.2 14.8999C18.9 14.2999 18.4 13.9999 17.7 14.1999C17.1 14.3999 16.7 14.8999 16.8 15.4999C16.9 16.1999 17.3 16.5999 17.9 16.6999C18.3 16.7999 18.7 16.7999 19 16.8999C20.5 17.2999 21.5 18.2999 21.8 19.8999C22.1 21.3999 21.6 22.7999 20.3 23.6999C19.6 24.1999 19.1 24.6999 19.4 25.7999Z" fill="black"/>
</svg>
