<svg width="41" height="42" viewBox="0 0 41 42" fill="none" xmlns="http://www.w3.org/2000/svg">
<path d="M29.2401 1.47C22.7301 1.47 16.2726 1.47 9.8151 1.47C9.8151 6.4575 9.8151 11.3925 9.8151 16.4325C9.2901 16.4325 8.8176 16.4325 8.2926 16.4325C8.2926 16.275 8.2926 16.1175 8.2926 15.96C8.2926 10.9725 8.2926 6.0375 8.2926 1.05C8.2926 0.21 8.5026 0 9.3951 0C16.1676 0 22.9401 0 29.7126 0C30.5526 0 30.7626 0.21 30.7626 1.1025C30.7626 3.045 30.7626 4.9875 30.7626 6.9825C30.7626 7.14 30.7626 7.2975 30.7626 7.56C30.9726 7.56 31.1301 7.56 31.2876 7.56C33.7551 7.56 36.2226 7.56 38.6901 7.56C39.5301 7.56 39.7401 7.77 39.7401 8.61C39.7401 18.585 39.7401 28.5075 39.7401 38.4825C39.7401 38.64 39.7401 38.85 39.7401 39.06C40.0026 39.06 40.2126 39.06 40.4751 39.06C40.4751 39.585 40.4751 40.0575 40.4751 40.53C33.5451 40.53 26.5626 40.53 19.6326 40.53C19.6326 40.0575 19.6326 39.585 19.6326 39.06C22.8351 39.06 26.0376 39.06 29.2401 39.06C29.2401 26.46 29.2401 13.965 29.2401 1.47ZM30.8151 38.9025C33.3351 38.9025 35.8026 38.9025 38.2701 38.9025C38.2701 28.875 38.2701 18.9 38.2701 8.9775C35.7501 8.9775 33.3351 8.9775 30.8151 8.9775C30.8151 18.9525 30.8151 28.9275 30.8151 38.9025Z" fill="#036EB7"/>
<path d="M0.0500488 29.9251C0.0500488 26.7751 0.0500488 23.5726 0.0500488 20.4226C0.0500488 18.8476 0.942549 17.9551 2.57005 17.9551C5.87755 17.9551 9.18505 17.9551 12.4925 17.9551C12.9125 17.9551 13.28 18.0601 13.595 18.3751C14.96 19.7401 16.325 21.1051 17.6901 22.4701C18.005 22.7851 18.1101 23.1001 18.1101 23.5201C18.1101 28.8226 18.1101 34.1776 18.1101 39.4801C18.1101 41.0551 17.2176 41.9476 15.6426 41.9476C11.285 41.9476 6.92755 41.9476 2.57005 41.9476C0.942549 41.9476 0.0500488 41.0026 0.0500488 39.4801C0.0500488 36.2776 0.0500488 33.1276 0.0500488 29.9251ZM12.0725 19.4251C8.87005 19.4251 5.72005 19.4251 2.57005 19.4251C1.78255 19.4251 1.57255 19.6876 1.57255 20.4226C1.57255 26.7226 1.57255 33.0751 1.57255 39.3751C1.57255 40.1626 1.78255 40.3726 2.62255 40.3726C6.92755 40.3726 11.2325 40.3726 15.485 40.3726C16.3251 40.3726 16.535 40.1626 16.535 39.2701C16.535 34.2826 16.535 29.3476 16.535 24.3601C16.535 24.2026 16.535 24.0451 16.535 23.8351C15.3275 23.8351 14.1725 23.8351 13.07 23.8351C12.2825 23.8351 12.0725 23.5726 12.0725 22.7851C12.0725 21.7876 12.0725 20.6326 12.0725 19.4251ZM15.3275 22.4176C14.75 21.8401 14.1725 21.2101 13.595 20.6326C13.595 21.2101 13.595 21.7876 13.595 22.4176C14.1725 22.4176 14.75 22.4176 15.3275 22.4176Z" fill="#036EB7"/>
<path d="M18.0575 6.7198C18.0575 7.4023 18.0575 8.1373 18.0575 8.8198C18.0575 9.3973 17.795 9.6598 17.165 9.6598C15.7475 9.6598 14.33 9.6598 12.9125 9.6598C12.335 9.6598 12.0725 9.3973 12.0725 8.7673C12.0725 7.3498 12.0725 5.9323 12.0725 4.5148C12.0725 3.9373 12.335 3.6748 12.965 3.6748C14.3825 3.6748 15.8 3.6748 17.2175 3.6748C17.795 3.6748 18.0575 3.9373 18.0575 4.5673C18.0575 5.3023 18.0575 5.9848 18.0575 6.7198ZM16.535 8.1898C16.535 7.1923 16.535 6.1948 16.535 5.2498C15.5375 5.2498 14.54 5.2498 13.595 5.2498C13.595 6.2473 13.595 7.1923 13.595 8.1898C14.54 8.1898 15.5375 8.1898 16.535 8.1898Z" fill="#036EB7"/>
<path d="M24.095 3.6748C24.7775 3.6748 25.46 3.6748 26.1425 3.6748C26.7725 3.6748 27.035 3.9373 27.035 4.5673C27.035 5.9848 27.035 7.4023 27.035 8.8198C27.035 9.3973 26.7725 9.6598 26.1425 9.6598C24.725 9.6598 23.3075 9.6598 21.89 9.6598C21.3125 9.6598 21.05 9.3973 21.05 8.7673C21.05 7.3498 21.05 5.9323 21.05 4.5148C21.05 3.9373 21.3125 3.6748 21.9425 3.6748C22.625 3.6748 23.36 3.6748 24.095 3.6748ZM25.5125 8.1898C25.5125 7.1923 25.5125 6.1948 25.5125 5.2498C24.515 5.2498 23.57 5.2498 22.5725 5.2498C22.5725 6.2473 22.5725 7.1923 22.5725 8.1898C23.57 8.1898 24.515 8.1898 25.5125 8.1898Z" fill="#036EB7"/>
<path d="M24.095 18.6901C23.36 18.6901 22.6775 18.6901 21.9425 18.6901C21.3125 18.6901 21.05 18.4276 21.05 17.7976C21.05 16.3801 21.05 14.9626 21.05 13.5976C21.05 12.9676 21.3125 12.7051 21.9425 12.7051C23.36 12.7051 24.7775 12.7051 26.1425 12.7051C26.7725 12.7051 27.035 12.9676 27.035 13.5976C27.035 15.0151 27.035 16.4326 27.035 17.7976C27.035 18.4276 26.7725 18.6901 26.1425 18.6901C25.46 18.6901 24.7775 18.6901 24.095 18.6901ZM22.5725 17.1676C23.57 17.1676 24.5675 17.1676 25.5125 17.1676C25.5125 16.1701 25.5125 15.2251 25.5125 14.2276C24.515 14.2276 23.57 14.2276 22.5725 14.2276C22.5725 15.2251 22.5725 16.1701 22.5725 17.1676Z" fill="#036EB7"/>
<path d="M24.0425 27.7199C23.36 27.7199 22.625 27.7199 21.9425 27.7199C21.3125 27.7199 21.05 27.4574 21.05 26.8274C21.05 25.4099 21.05 23.9924 21.05 22.6274C21.05 21.9974 21.3125 21.7349 21.9425 21.7349C23.36 21.7349 24.7775 21.7349 26.1425 21.7349C26.7725 21.7349 27.035 21.9974 27.035 22.6274C27.035 24.0449 27.035 25.4624 27.035 26.8274C27.035 27.4574 26.7725 27.7199 26.1425 27.7199C25.46 27.7199 24.725 27.7199 24.0425 27.7199ZM25.5125 23.2049C24.515 23.2049 23.5175 23.2049 22.5725 23.2049C22.5725 24.2024 22.5725 25.1474 22.5725 26.1449C23.57 26.1449 24.5675 26.1449 25.5125 26.1449C25.5125 25.1474 25.5125 24.2024 25.5125 23.2049Z" fill="#036EB7"/>
<path d="M24.0425 36.6974C23.36 36.6974 22.625 36.6974 21.9425 36.6974C21.3125 36.6974 21.05 36.4349 21.05 35.8049C21.05 34.3874 21.05 32.9699 21.05 31.6049C21.05 30.9749 21.3125 30.7124 21.9425 30.7124C23.36 30.7124 24.7775 30.7124 26.1425 30.7124C26.7725 30.7124 27.035 30.9749 27.035 31.6049C27.035 33.0224 27.035 34.4399 27.035 35.8049C27.035 36.4349 26.7725 36.6974 26.1425 36.6974C25.46 36.6974 24.725 36.6974 24.0425 36.6974ZM22.5725 32.2349C22.5725 33.2324 22.5725 34.2299 22.5725 35.1749C23.57 35.1749 24.515 35.1749 25.5125 35.1749C25.5125 34.1774 25.5125 33.2324 25.5125 32.2349C24.515 32.2349 23.57 32.2349 22.5725 32.2349Z" fill="#036EB7"/>
<path d="M16.5875 14.2273C15.5375 14.2273 14.5925 14.2273 13.595 14.2273C13.595 14.9623 13.595 15.6973 13.595 16.4323C13.07 16.4323 12.5975 16.4323 12.0725 16.4323C12.0725 15.3823 12.02 14.3848 12.0725 13.3348C12.0725 12.9673 12.3875 12.7573 12.8075 12.7573C14.33 12.7573 15.8 12.7573 17.3225 12.7573C17.7425 12.7573 18.0575 13.0198 18.0575 13.4398C18.0575 14.9623 18.0575 16.4848 18.0575 18.0073C17.585 18.0073 17.1125 18.0073 16.5875 18.0073C16.5875 16.7473 16.5875 15.4873 16.5875 14.2273Z" fill="#036EB7"/>
<path d="M33.0725 12.6524C33.0725 12.1799 33.0725 11.7074 33.0725 11.2349C34.07 11.2349 35.015 11.2349 36.0125 11.2349C36.0125 11.7074 36.0125 12.1799 36.0125 12.6524C35.015 12.6524 34.07 12.6524 33.0725 12.6524Z" fill="#036EB7"/>
<path d="M36.0125 17.1678C35.015 17.1678 34.07 17.1678 33.0725 17.1678C33.0725 16.6953 33.0725 16.2228 33.0725 15.6978C34.07 15.6978 35.015 15.6978 36.0125 15.6978C36.0125 16.2228 36.0125 16.6428 36.0125 17.1678Z" fill="#036EB7"/>
<path d="M36.0125 21.6824C35.015 21.6824 34.07 21.6824 33.0725 21.6824C33.0725 21.2099 33.0725 20.7374 33.0725 20.2124C34.0175 20.2124 35.015 20.2124 36.0125 20.2124C36.0125 20.6849 36.0125 21.1574 36.0125 21.6824Z" fill="#036EB7"/>
<path d="M36.0125 24.7275C36.0125 25.2 36.0125 25.6725 36.0125 26.145C35.015 26.145 34.07 26.145 33.0725 26.145C33.0725 25.6725 33.0725 25.2 33.0725 24.7275C34.0175 24.7275 35.015 24.7275 36.0125 24.7275Z" fill="#036EB7"/>
<path d="M36.0125 30.6599C35.015 30.6599 34.07 30.6599 33.0725 30.6599C33.0725 30.1874 33.0725 29.7149 33.0725 29.1899C34.07 29.1899 35.015 29.1899 36.0125 29.1899C36.0125 29.7149 36.0125 30.1874 36.0125 30.6599Z" fill="#036EB7"/>
<path d="M36.0125 33.7051C36.0125 34.1776 36.0125 34.6501 36.0125 35.1226C35.015 35.1226 34.07 35.1226 33.0725 35.1226C33.0725 34.6501 33.0725 34.1776 33.0725 33.7051C34.0175 33.7051 35.015 33.7051 36.0125 33.7051Z" fill="#036EB7"/>
<path d="M13.5427 25.4624C13.5427 25.9349 13.5427 26.4074 13.5427 26.9324C10.5502 26.9324 7.61018 26.9324 4.61768 26.9324C4.61768 26.4599 4.61768 25.9874 4.61768 25.4624C7.55768 25.4624 10.4977 25.4624 13.5427 25.4624Z" fill="#036EB7"/>
<path d="M4.56506 31.4475C4.56506 30.975 4.56506 30.5025 4.56506 29.9775C7.55756 29.9775 10.4976 29.9775 13.4901 29.9775C13.4901 30.45 13.4901 30.9225 13.4901 31.4475C10.5501 31.4475 7.61006 31.4475 4.56506 31.4475Z" fill="#036EB7"/>
<path d="M13.5427 34.4927C13.5427 34.9652 13.5427 35.4377 13.5427 35.9102C10.5502 35.9102 7.61018 35.9102 4.61768 35.9102C4.61768 35.4377 4.61768 34.9652 4.61768 34.4927C7.55768 34.4927 10.4977 34.4927 13.5427 34.4927Z" fill="#036EB7"/>
</svg>
