<svg width="42" height="42" viewBox="0 0 42 42" fill="none" xmlns="http://www.w3.org/2000/svg">
<path d="M40.635 40.6874C41.1075 40.6874 41.5275 40.6874 41.9475 40.6874C41.9475 41.1599 41.9475 41.5799 41.9475 41.9999C27.9825 41.9999 13.965 41.9999 -0.0524902 41.9999C-0.0524902 41.5799 -0.0524902 41.1599 -0.0524902 40.6874C0.36751 40.6874 0.78751 40.6874 1.26001 40.6874C1.26001 40.4774 1.26001 40.3199 1.26001 40.1624C1.26001 32.6024 1.26001 24.9899 1.26001 17.4299C1.26001 16.4324 1.36501 16.3274 2.36251 16.2749C2.41501 16.2749 2.52001 16.2749 2.62501 16.2749C2.62501 15.6974 2.62501 15.0674 2.62501 14.4899C2.62501 13.8074 2.83501 13.5974 3.51751 13.5974C5.77501 13.5974 8.03251 13.5974 10.2375 13.5974C10.395 13.5974 10.5525 13.5974 10.71 13.5974C10.71 12.9674 10.71 12.3374 10.71 11.7599C10.71 11.1299 10.92 10.9199 11.6025 10.9199C12.4425 10.9199 13.23 10.9199 14.07 10.9199C14.07 11.3924 14.07 11.8124 14.07 12.2324C13.44 12.2324 12.7575 12.2324 12.075 12.2324C12.075 21.7349 12.075 31.1849 12.075 40.6874C13.86 40.6874 15.645 40.6874 17.4825 40.6874C17.4825 40.5299 17.4825 40.3724 17.4825 40.2149C17.4825 38.8499 17.4825 37.4849 17.4825 36.1199C17.4825 35.5424 17.745 35.2799 18.3225 35.2799C20.055 35.2799 21.735 35.2799 23.4675 35.2799C24.045 35.2799 24.3075 35.5424 24.3075 36.1199C24.3075 37.6424 24.3075 39.1649 24.3075 40.6874C26.0925 40.6874 27.8775 40.6874 29.715 40.6874C29.715 31.2374 29.715 21.7874 29.715 12.2849C29.085 12.2849 28.4025 12.2849 27.72 12.2849C27.72 11.8124 27.72 11.3924 27.72 10.9199C28.665 10.9199 29.5575 10.9199 30.5025 10.9199C30.87 10.9199 31.08 11.2349 31.08 11.6549C31.08 12.2849 31.08 12.9149 31.08 13.5974C31.29 13.5974 31.395 13.5974 31.5525 13.5974C33.81 13.5974 36.0675 13.5974 38.2725 13.5974C38.955 13.5974 39.165 13.8074 39.165 14.4899C39.165 15.0674 39.165 15.6449 39.165 16.2749C39.4275 16.2749 39.6375 16.2749 39.8475 16.2749C40.2675 16.2749 40.4775 16.5374 40.53 16.9574C40.53 17.1149 40.53 17.2199 40.53 17.3774C40.53 24.9374 40.53 32.5499 40.53 40.1099C40.635 40.2674 40.635 40.4774 40.635 40.6874ZM39.27 40.6349C39.27 32.9174 39.27 25.3049 39.27 17.6399C36.54 17.6399 33.8625 17.6399 31.185 17.6399C31.185 25.3049 31.185 32.9699 31.185 40.6349C33.8625 40.6349 36.54 40.6349 39.27 40.6349ZM2.73001 17.6399C2.73001 25.3049 2.73001 32.9699 2.73001 40.6349C5.46001 40.6349 8.13751 40.6349 10.815 40.6349C10.815 32.9699 10.815 25.3049 10.815 17.6399C8.08501 17.6399 5.40751 17.6399 2.73001 17.6399ZM22.995 36.6449C21.63 36.6449 20.3175 36.6449 19.005 36.6449C19.005 38.0099 19.005 39.3224 19.005 40.6874C20.37 40.6874 21.6825 40.6874 22.995 40.6874C22.995 39.3224 22.995 38.0099 22.995 36.6449ZM10.815 14.9624C8.55751 14.9624 6.30001 14.9624 4.09501 14.9624C4.09501 15.4349 4.09501 15.8549 4.09501 16.2749C6.35251 16.2749 8.61001 16.2749 10.815 16.2749C10.815 15.8024 10.815 15.3824 10.815 14.9624ZM37.905 14.9624C35.6475 14.9624 33.39 14.9624 31.185 14.9624C31.185 15.4349 31.185 15.8549 31.185 16.2749C33.4425 16.2749 35.7 16.2749 37.905 16.2749C37.905 15.8024 37.905 15.3824 37.905 14.9624Z" fill="#036EB7"/>
<path d="M14.2275 6.77237C14.2275 3.25487 17.01 0.262367 20.5275 -0.000133498C24.0975 -0.262634 27.2475 2.30987 27.72 5.82737C28.14 9.02987 26.355 12.0224 23.31 13.1249C23.0475 13.2299 22.89 13.3874 22.8375 13.6499C22.47 14.7524 22.1025 15.8549 21.735 16.9574C21.63 17.3249 21.4725 17.6399 21.0525 17.6399C20.58 17.6399 20.4225 17.3249 20.3175 16.9574C19.95 15.8549 19.5825 14.7524 19.215 13.6499C19.1625 13.4924 18.9525 13.2824 18.795 13.2299C16.0125 12.1799 14.2275 9.65987 14.2275 6.77237ZM20.9475 14.6474C21 14.6474 21 14.6474 21.0525 14.6474C21.2625 14.0699 21.4725 13.4924 21.63 12.9149C21.7875 12.3899 22.05 12.0749 22.6275 11.9174C25.41 11.1299 26.985 8.13737 26.25 5.35487C25.4625 2.57237 22.575 0.839867 19.7925 1.52237C17.3775 2.09987 15.645 4.19987 15.5925 6.56237C15.4875 9.13487 17.0625 11.2874 19.53 11.9699C19.95 12.0749 20.2125 12.3374 20.37 12.7574C20.475 13.3874 20.7375 14.0174 20.9475 14.6474Z" fill="#036EB7"/>
<path d="M15.5925 19.0048C16.0125 19.0048 16.485 19.0048 16.905 19.0048C17.3775 19.0048 17.5875 19.2673 17.64 19.7398C17.64 20.6323 17.64 21.4723 17.64 22.3648C17.64 22.8373 17.3775 23.0473 16.905 23.0998C16.0125 23.0998 15.1725 23.0998 14.28 23.0998C13.8075 23.0998 13.5975 22.8373 13.545 22.3648C13.545 21.4723 13.545 20.6323 13.545 19.7398C13.545 19.2673 13.8075 19.0573 14.28 19.0048C14.7 18.9523 15.12 19.0048 15.5925 19.0048ZM14.91 21.6823C15.3825 21.6823 15.8025 21.6823 16.2225 21.6823C16.2225 21.2098 16.2225 20.7898 16.2225 20.3698C15.75 20.3698 15.33 20.3698 14.91 20.3698C14.91 20.7898 14.91 21.2098 14.91 21.6823Z" fill="#036EB7"/>
<path d="M18.9525 20.9999C18.9525 20.5799 18.9525 20.1599 18.9525 19.7399C18.9525 19.2674 19.215 19.0049 19.6875 19.0049C20.58 19.0049 21.42 19.0049 22.3125 19.0049C22.785 19.0049 22.995 19.2674 23.0475 19.7399C23.0475 20.6324 23.0475 21.4724 23.0475 22.3649C23.0475 22.8374 22.785 23.0474 22.3125 23.0999C21.42 23.0999 20.58 23.0999 19.6875 23.0999C19.215 23.0999 19.005 22.8374 18.9525 22.3649C18.9525 21.8924 18.9525 21.4724 18.9525 20.9999ZM20.3175 20.3699C20.3175 20.8424 20.3175 21.2624 20.3175 21.6824C20.79 21.6824 21.21 21.6824 21.63 21.6824C21.63 21.2099 21.63 20.7899 21.63 20.3699C21.21 20.3699 20.79 20.3699 20.3175 20.3699Z" fill="#036EB7"/>
<path d="M24.36 20.9999C24.36 20.5799 24.36 20.1599 24.36 19.7924C24.36 19.2674 24.6225 19.0049 25.095 19.0049C25.935 19.0049 26.8275 19.0049 27.6675 19.0049C28.14 19.0049 28.4025 19.2674 28.4025 19.7399C28.4025 20.5799 28.4025 21.4724 28.4025 22.3124C28.4025 22.7849 28.14 23.0474 27.6675 23.0474C26.8275 23.0474 25.935 23.0474 25.095 23.0474C24.6225 23.0474 24.36 22.7849 24.36 22.3124C24.36 21.8399 24.36 21.4199 24.36 20.9999ZM25.7775 20.3699C25.7775 20.8424 25.7775 21.2624 25.7775 21.6824C26.25 21.6824 26.67 21.6824 27.09 21.6824C27.09 21.2099 27.09 20.7899 27.09 20.3699C26.6175 20.3699 26.1975 20.3699 25.7775 20.3699Z" fill="#036EB7"/>
<path d="M15.5925 28.4551C15.1725 28.4551 14.7525 28.4551 14.3325 28.4551C13.8075 28.4551 13.545 28.1926 13.545 27.7201C13.545 26.8801 13.545 25.9876 13.545 25.1476C13.545 24.6751 13.8075 24.4126 14.28 24.4126C15.12 24.4126 16.0125 24.4126 16.8525 24.4126C17.325 24.4126 17.5875 24.6751 17.5875 25.1476C17.5875 25.9876 17.5875 26.8801 17.5875 27.7201C17.5875 28.1926 17.325 28.4551 16.8525 28.4551C16.4325 28.4551 16.0125 28.4551 15.5925 28.4551ZM14.91 27.0901C15.3825 27.0901 15.8025 27.0901 16.2225 27.0901C16.2225 26.6176 16.2225 26.1976 16.2225 25.7776C15.75 25.7776 15.33 25.7776 14.91 25.7776C14.91 26.2501 14.91 26.6701 14.91 27.0901Z" fill="#036EB7"/>
<path d="M18.9525 26.4076C18.9525 25.9876 18.9525 25.5676 18.9525 25.1476C18.9525 24.6751 19.215 24.4126 19.6875 24.4126C20.58 24.4126 21.42 24.4126 22.3125 24.4126C22.785 24.4126 23.0475 24.6751 23.0475 25.1476C23.0475 26.0401 23.0475 26.8801 23.0475 27.7726C23.0475 28.2451 22.785 28.5076 22.3125 28.5076C21.42 28.5076 20.58 28.5076 19.6875 28.5076C19.215 28.5076 19.005 28.2451 18.9525 27.7726C18.9525 27.3001 18.9525 26.8276 18.9525 26.4076ZM21.63 27.0901C21.63 26.6176 21.63 26.1976 21.63 25.7776C21.1575 25.7776 20.7375 25.7776 20.3175 25.7776C20.3175 26.2501 20.3175 26.6701 20.3175 27.0901C20.79 27.0901 21.21 27.0901 21.63 27.0901Z" fill="#036EB7"/>
<path d="M26.4075 24.4126C26.8275 24.4126 27.3 24.4126 27.72 24.4126C28.1925 24.4126 28.4025 24.6751 28.455 25.1476C28.455 26.0401 28.455 26.8801 28.455 27.7726C28.455 28.2451 28.1925 28.4551 27.72 28.5076C26.8275 28.5076 25.9875 28.5076 25.095 28.5076C24.6225 28.5076 24.4125 28.2451 24.36 27.7726C24.36 26.8801 24.36 26.0401 24.36 25.1476C24.36 24.6751 24.6225 24.4651 25.095 24.4126C25.515 24.4126 25.9875 24.4126 26.4075 24.4126ZM27.09 25.7776C26.6175 25.7776 26.1975 25.7776 25.7775 25.7776C25.7775 26.2501 25.7775 26.6701 25.7775 27.0901C26.25 27.0901 26.67 27.0901 27.09 27.0901C27.09 26.6701 27.09 26.2501 27.09 25.7776Z" fill="#036EB7"/>
<path d="M15.5926 29.8198C16.0126 29.8198 16.4326 29.8198 16.8526 29.8198C17.3251 29.8198 17.5876 30.0823 17.5876 30.5548C17.5876 31.4473 17.5876 32.2873 17.5876 33.1798C17.5876 33.6523 17.3251 33.8623 16.8526 33.9148C15.9601 33.9148 15.1201 33.9148 14.2276 33.9148C13.7551 33.9148 13.5451 33.6523 13.4926 33.1798C13.4926 32.2873 13.4926 31.4473 13.4926 30.5548C13.4926 30.0823 13.7551 29.8723 14.2276 29.8198C14.7001 29.8198 15.1201 29.8198 15.5926 29.8198ZM16.2226 32.5498C16.2226 32.0773 16.2226 31.6573 16.2226 31.2373C15.7501 31.2373 15.3301 31.2373 14.9101 31.2373C14.9101 31.7098 14.9101 32.1298 14.9101 32.5498C15.3826 32.5498 15.7501 32.5498 16.2226 32.5498Z" fill="#036EB7"/>
<path d="M20.9475 33.9148C20.5275 33.9148 20.1075 33.9148 19.6875 33.9148C19.215 33.9148 18.9525 33.6523 18.9525 33.1798C18.9525 32.2873 18.9525 31.4473 18.9525 30.5548C18.9525 30.0823 19.215 29.8198 19.6875 29.8198C20.58 29.8198 21.42 29.8198 22.3125 29.8198C22.785 29.8198 23.0475 30.0823 23.0475 30.5548C23.0475 31.4473 23.0475 32.2873 23.0475 33.1798C23.0475 33.6523 22.785 33.8623 22.3125 33.9148C21.84 33.9148 21.42 33.9148 20.9475 33.9148ZM20.3175 31.1848C20.3175 31.6573 20.3175 32.0773 20.3175 32.4973C20.79 32.4973 21.21 32.4973 21.63 32.4973C21.63 32.0248 21.63 31.6048 21.63 31.1848C21.21 31.1848 20.79 31.1848 20.3175 31.1848Z" fill="#036EB7"/>
<path d="M24.36 31.8673C24.36 31.4473 24.36 30.9748 24.36 30.5548C24.36 30.0823 24.6225 29.8198 25.095 29.8198C25.9875 29.8198 26.8275 29.8198 27.72 29.8198C28.1925 29.8198 28.455 30.0823 28.455 30.5548C28.455 31.4473 28.455 32.2873 28.455 33.1798C28.455 33.6523 28.1925 33.9148 27.72 33.9148C26.8275 33.9148 25.9875 33.9148 25.095 33.9148C24.6225 33.9148 24.4125 33.6523 24.36 33.1798V33.1273C24.36 32.7073 24.36 32.2873 24.36 31.8673ZM25.7775 32.4973C26.25 32.4973 26.67 32.4973 27.09 32.4973C27.09 32.0248 27.09 31.6048 27.09 31.1848C26.6175 31.1848 26.1975 31.1848 25.7775 31.1848C25.7775 31.6573 25.7775 32.0773 25.7775 32.4973Z" fill="#036EB7"/>
<path d="M35.9101 19.0048C36.3301 19.0048 36.7501 19.0048 37.1701 19.0048C37.6426 19.0048 37.9051 19.2673 37.9051 19.7398C37.9051 20.6323 37.9051 21.4723 37.9051 22.3648C37.9051 22.8373 37.6426 23.0473 37.1701 23.0998C36.2776 23.0998 35.4376 23.0998 34.5451 23.0998C34.0726 23.0998 33.8626 22.8373 33.8101 22.3648C33.8101 21.4723 33.8101 20.6323 33.8101 19.7398C33.8101 19.2673 34.0726 19.0573 34.5451 19.0048C35.0176 18.9523 35.4901 19.0048 35.9101 19.0048ZM35.2801 20.3698C35.2801 20.7898 35.2801 21.2623 35.2801 21.6823C35.7001 21.6823 36.1726 21.6823 36.5926 21.6823C36.5926 21.2098 36.5926 20.7898 36.5926 20.3698C36.1201 20.3698 35.7001 20.3698 35.2801 20.3698Z" fill="#036EB7"/>
<path d="M35.91 24.4126C36.33 24.4126 36.75 24.4126 37.17 24.4126C37.6425 24.4126 37.905 24.6751 37.905 25.1476C37.905 25.9876 37.905 26.8801 37.905 27.7201C37.905 28.1926 37.6425 28.4551 37.17 28.4551C36.33 28.4551 35.4375 28.4551 34.5975 28.4551C34.125 28.4551 33.8625 28.1926 33.8625 27.7201C33.8625 26.8801 33.8625 25.9876 33.8625 25.1476C33.8625 24.6751 34.125 24.4126 34.5975 24.4126C35.07 24.4126 35.49 24.4126 35.91 24.4126ZM36.54 27.0901C36.54 26.6176 36.54 26.1976 36.54 25.7776C36.0675 25.7776 35.6475 25.7776 35.2275 25.7776C35.2275 26.2501 35.2275 26.6701 35.2275 27.0901C35.7 27.0901 36.12 27.0901 36.54 27.0901Z" fill="#036EB7"/>
<path d="M35.9101 29.8198C36.3301 29.8198 36.7501 29.8198 37.1701 29.8198C37.6426 29.8198 37.9051 30.0823 37.9051 30.5548C37.9051 31.4473 37.9051 32.2873 37.9051 33.1798C37.9051 33.6523 37.6426 33.8623 37.1701 33.9148C36.2776 33.9148 35.4376 33.9148 34.5451 33.9148C34.0726 33.9148 33.8626 33.6523 33.8101 33.1798C33.8101 32.2873 33.8101 31.4473 33.8101 30.5548C33.8101 30.0823 34.0726 29.8723 34.5451 29.8198C35.0176 29.8198 35.4901 29.8198 35.9101 29.8198ZM36.5401 32.4973C36.5401 32.0248 36.5401 31.6048 36.5401 31.1848C36.0676 31.1848 35.6476 31.1848 35.2276 31.1848C35.2276 31.6573 35.2276 32.0773 35.2276 32.4973C35.7001 32.4973 36.1201 32.4973 36.5401 32.4973Z" fill="#036EB7"/>
<path d="M35.9101 35.2275C36.3301 35.2275 36.7501 35.2275 37.1701 35.2275C37.6426 35.2275 37.9051 35.49 37.9051 35.9625C37.9051 36.855 37.9051 37.695 37.9051 38.5875C37.9051 39.06 37.6426 39.27 37.1701 39.3225C36.2776 39.3225 35.4376 39.3225 34.5451 39.3225C34.0726 39.3225 33.8626 39.06 33.8101 38.5875C33.8101 37.695 33.8101 36.855 33.8101 35.9625C33.8101 35.49 34.0726 35.28 34.5451 35.2275C35.0176 35.2275 35.4901 35.2275 35.9101 35.2275ZM35.2276 37.9575C35.7001 37.9575 36.1201 37.9575 36.5401 37.9575C36.5401 37.485 36.5401 37.065 36.5401 36.645C36.0676 36.645 35.6476 36.645 35.2276 36.645C35.2276 37.065 35.2276 37.485 35.2276 37.9575Z" fill="#036EB7"/>
<path d="M8.08499 20.9997C8.08499 21.4197 8.08499 21.8922 8.08499 22.3122C8.08499 22.7847 7.82249 23.0472 7.34999 23.0472C6.45749 23.0472 5.61749 23.0472 4.72499 23.0472C4.25249 23.0472 3.98999 22.7847 3.98999 22.3122C3.98999 21.4197 3.98999 20.5796 3.98999 19.6871C3.98999 19.2146 4.25249 18.9521 4.72499 18.9521C5.61749 18.9521 6.45749 18.9521 7.34999 18.9521C7.82249 18.9521 8.03249 19.2146 8.08499 19.6871C8.13749 20.1596 8.08499 20.5796 8.08499 20.9997ZM6.71999 21.6821C6.71999 21.2096 6.71999 20.7896 6.71999 20.3696C6.24749 20.3696 5.82749 20.3696 5.40749 20.3696C5.40749 20.8421 5.40749 21.2621 5.40749 21.6821C5.87999 21.6821 6.29999 21.6821 6.71999 21.6821Z" fill="#036EB7"/>
<path d="M8.08499 26.4599C8.08499 26.8799 8.08499 27.2999 8.08499 27.7199C8.08499 28.1924 7.82249 28.4549 7.34999 28.4549C6.45749 28.4549 5.61749 28.4549 4.72499 28.4549C4.25249 28.4549 3.98999 28.1924 3.98999 27.7199C3.98999 26.8274 3.98999 25.9874 3.98999 25.0949C3.98999 24.6224 4.25249 24.3599 4.72499 24.3599C5.61749 24.3599 6.45749 24.3599 7.34999 24.3599C7.82249 24.3599 8.03249 24.6224 8.08499 25.0949C8.13749 25.5674 8.08499 26.0399 8.08499 26.4599ZM5.40749 25.7774C5.40749 26.2499 5.40749 26.6699 5.40749 27.0899C5.87999 27.0899 6.29999 27.0899 6.71999 27.0899C6.71999 26.6174 6.71999 26.1974 6.71999 25.7774C6.29999 25.7774 5.87999 25.7774 5.40749 25.7774Z" fill="#036EB7"/>
<path d="M8.08499 31.8673C8.08499 32.2873 8.08499 32.7598 8.08499 33.1798C8.08499 33.6523 7.82249 33.9148 7.34999 33.9148C6.45749 33.9148 5.61749 33.9148 4.72499 33.9148C4.25249 33.9148 3.98999 33.6523 3.98999 33.1798C3.98999 32.2873 3.98999 31.4473 3.98999 30.5548C3.98999 30.0823 4.25249 29.8198 4.72499 29.8198C5.61749 29.8198 6.45749 29.8198 7.34999 29.8198C7.82249 29.8198 8.03249 30.0823 8.08499 30.5548C8.13749 30.9748 8.08499 31.4473 8.08499 31.8673ZM5.40749 31.1848C5.40749 31.6573 5.40749 32.0773 5.40749 32.4973C5.87999 32.4973 6.29999 32.4973 6.71999 32.4973C6.71999 32.0248 6.71999 31.6048 6.71999 31.1848C6.24749 31.1848 5.82749 31.1848 5.40749 31.1848Z" fill="#036EB7"/>
<path d="M6.08998 35.2275C6.50998 35.2275 6.98248 35.2275 7.40248 35.2275C7.87498 35.2275 8.08498 35.49 8.13748 35.9625C8.13748 36.855 8.13748 37.695 8.13748 38.5875C8.13748 39.06 7.87498 39.27 7.40248 39.3225C6.50998 39.3225 5.66998 39.3225 4.77748 39.3225C4.30498 39.3225 4.09498 39.06 4.04248 38.5875C4.04248 37.695 4.04248 36.855 4.04248 35.9625C4.04248 35.49 4.30498 35.28 4.77748 35.2275C5.19748 35.2275 5.61748 35.2275 6.08998 35.2275ZM6.71998 37.9575C6.71998 37.485 6.71998 37.065 6.71998 36.645C6.24748 36.645 5.82748 36.645 5.40748 36.645C5.40748 37.1175 5.40748 37.5375 5.40748 37.9575C5.87998 37.9575 6.29998 37.9575 6.71998 37.9575Z" fill="#036EB7"/>
<path d="M20.9475 10.8675C18.69 10.8675 16.905 9.02998 16.905 6.77248C16.905 4.51498 18.7425 2.72998 21 2.72998C23.2575 2.72998 25.0425 4.56748 25.0425 6.82498C25.0425 9.02998 23.205 10.8675 20.9475 10.8675ZM20.9475 4.09498C19.4775 4.09498 18.27 5.35498 18.27 6.82498C18.27 8.29498 19.4775 9.50248 21 9.50248C22.47 9.50248 23.73 8.29498 23.73 6.77248C23.6775 5.30248 22.47 4.04248 20.9475 4.09498Z" fill="#036EB7"/>
</svg>
