<svg width="42" height="42" viewBox="0 0 42 42" fill="none" xmlns="http://www.w3.org/2000/svg">
<path d="M30.8794 0C31.0894 0 31.2469 0 31.4569 0C32.1394 0.4725 31.8244 1.26 32.0869 1.8375C32.1394 1.8375 32.1919 1.89 32.2444 1.89C35.0794 2.1 37.9669 2.3625 40.8544 2.625C41.5369 2.6775 41.7469 2.8875 41.6944 3.57C41.5894 4.62 41.5369 5.6175 41.4319 6.6675C41.1169 10.3425 40.8019 14.0175 40.4869 17.6925C40.2244 21.0525 39.9094 24.4125 39.6469 27.825C39.2794 31.8675 38.9644 35.91 38.5969 39.9C38.5444 40.53 38.2819 40.74 37.6519 40.6875C37.3369 40.635 37.0219 40.635 36.7069 40.635C36.7069 40.7925 36.7069 40.845 36.7069 40.95C36.7069 41.9475 36.6019 42.0525 35.6044 42.0525C25.7869 42.0525 16.0219 42.0525 6.20441 42.0525C6.04691 42.0525 5.94191 42.0525 5.78441 42.0525C5.41691 42.0525 5.15441 41.8425 5.15441 41.475C4.99691 40.215 4.89191 39.0075 4.73441 37.8C4.36691 34.86 3.99941 31.9725 3.63191 29.0325C3.26441 26.0925 2.89691 23.1525 2.52941 20.2125C2.16191 17.2725 1.79441 14.28 1.42691 11.34C1.11191 9.135 0.849408 6.93 0.534408 4.6725C0.481908 4.095 0.639408 3.8325 1.26941 3.78C4.10441 3.4125 6.93941 3.045 9.77441 2.73C10.0369 2.6775 10.1419 2.5725 10.1419 2.31C10.1944 1.785 10.1944 1.26 10.2469 0.735C10.2994 0.2625 10.5094 0.105 10.9819 0.105C11.4019 0.105 11.7694 0.1575 12.1894 0.21C14.9194 0.42 17.6494 0.6825 20.3794 0.8925C21.2719 0.945 22.1119 1.1025 23.0044 1.05C24.8944 0.8925 26.7844 0.5775 28.6744 0.3675C29.4094 0.21 30.1444 0.105 30.8794 0ZM35.4994 5.0925C25.7869 5.0925 16.1269 5.0925 6.41441 5.0925C6.41441 17.01 6.41441 28.875 6.41441 40.74C16.1269 40.74 25.7869 40.74 35.4994 40.74C35.4994 40.53 35.4994 40.3725 35.4994 40.215C35.4994 34.02 35.4994 27.825 35.4994 21.5775C35.4994 20.9475 35.7094 20.6325 36.0769 20.6325C36.4969 20.6325 36.7069 20.895 36.7069 21.5775C36.7069 27.3 36.7069 33.075 36.7069 38.7975C36.7069 38.955 36.7069 39.1125 36.7069 39.3225C36.9694 39.3225 37.1794 39.375 37.3894 39.375C38.3869 27.51 39.4369 15.6975 40.4344 3.8325C37.6519 3.57 34.9219 3.36 32.1919 3.15C32.2444 3.4125 32.2444 3.6225 32.2969 3.885C33.5044 3.885 34.6594 3.885 35.8144 3.885C36.5494 3.885 36.7069 4.0425 36.7069 4.7775C36.7069 9.24 36.7069 13.65 36.7069 18.1125C36.7069 18.2175 36.7069 18.27 36.7069 18.375C36.7069 18.795 36.4444 19.0575 36.0769 19.0575C35.7619 19.0575 35.4994 18.795 35.4994 18.4275C35.4994 18.3225 35.4994 18.165 35.4994 18.06C35.4994 13.965 35.4994 9.8175 35.4994 5.7225C35.4994 5.46 35.4994 5.3025 35.4994 5.0925ZM1.84691 4.935C2.94941 13.545 3.99941 22.1025 5.10191 30.7125C5.10191 30.7125 5.10191 30.7125 5.15441 30.7125C5.15441 21.9975 5.15441 13.2825 5.15441 4.515C3.99941 4.6725 2.94941 4.7775 1.84691 4.935ZM30.7219 1.3125C24.2119 2.1525 17.7019 2.94 11.2444 3.78C11.2444 3.78 11.2444 3.78 11.2444 3.8325C17.8069 3.8325 24.4219 3.8325 31.0369 3.8325C30.9319 2.94 30.8269 2.1525 30.7219 1.3125ZM11.4544 1.365C11.4019 1.785 11.4019 2.1 11.3494 2.52C13.0819 2.31 14.7619 2.1 16.3894 1.89C16.3894 1.8375 16.3894 1.8375 16.3894 1.785C14.7619 1.6275 13.1344 1.47 11.4544 1.365Z" fill="#036EB7"/>
<path d="M20.2219 19.005C20.4319 19.005 20.5894 19.005 20.7469 19.005C23.1094 19.005 25.4719 19.005 27.8344 19.005C28.6744 19.005 28.8319 19.1625 28.7794 20.0025C28.6744 22.2075 27.8869 24.0975 26.4169 25.7775C26.2594 25.9875 26.2594 26.0925 26.3644 26.3025C26.6269 26.7225 26.8369 27.3 27.2044 27.51C27.5719 27.72 28.1494 27.5625 28.6744 27.5625C29.9344 27.5625 31.2469 27.5625 32.5069 27.5625C32.6644 27.5625 32.8744 27.5625 32.9794 27.615C33.1369 27.7725 33.3469 28.035 33.3469 28.1925C33.3469 28.4025 33.0844 28.56 32.8744 28.7175C32.7694 28.77 32.6119 28.7175 32.4544 28.7175C30.6694 28.7175 28.8844 28.7175 27.0994 28.7175C26.6269 28.7175 26.3119 28.56 26.0494 28.14C25.7869 27.6675 25.4719 27.2475 25.2619 26.8275C24.4219 27.2475 23.6344 27.7725 22.7944 28.0875C17.4394 30.24 11.2444 26.6175 10.4569 20.895C9.77439 15.96 12.7669 11.6025 17.6494 10.5C18.1744 10.395 18.7519 10.3425 19.3294 10.29C19.9594 10.2375 20.1694 10.5 20.1694 11.0775C20.1694 13.4925 20.1694 15.9075 20.1694 18.3225C20.2219 18.6375 20.2219 18.795 20.2219 19.005ZM19.0144 11.7075C15.7594 11.8125 12.6619 14.4375 11.8744 17.7975C11.0344 21.2625 12.7144 24.9375 15.8644 26.6175C19.0144 28.2975 22.6369 27.5625 24.6319 25.725C24.5794 25.62 24.4744 25.4625 24.4219 25.3575C24.0019 24.675 23.5294 23.9925 23.1094 23.2575C22.8994 22.89 23.0044 22.5225 23.2669 22.365C23.5819 22.2075 23.8969 22.26 24.1069 22.575C24.3169 22.8375 24.4744 23.1525 24.6319 23.415C24.8944 23.8875 25.2094 24.3075 25.5244 24.8325C26.7319 23.4675 27.3619 21.945 27.5194 20.16C27.3094 20.16 27.1519 20.16 26.9944 20.16C24.6319 20.16 22.2694 20.16 19.9594 20.16C19.1719 20.16 18.9619 20.0025 18.9619 19.215C18.9619 17.9025 18.9619 16.59 18.9619 15.225C19.0144 14.1225 19.0144 12.915 19.0144 11.7075Z" fill="#036EB7"/>
<path d="M28.6219 10.1324C29.2519 11.1299 29.9344 11.9699 30.4594 12.9149C31.1419 14.1224 31.3519 15.4349 31.4044 16.7999C31.4044 17.3249 31.1944 17.5349 30.6169 17.5349C29.1469 17.5349 27.7294 17.5349 26.2594 17.5349C24.9994 17.5349 23.7394 17.5349 22.4269 17.5349C21.7969 17.5349 21.5869 17.3249 21.5869 16.6949C21.5869 14.0174 21.5869 11.2874 21.5869 8.6099C21.5869 7.9274 21.7969 7.7174 22.4794 7.7699C24.1594 7.8224 25.7344 8.2949 27.1519 9.1874C27.2569 9.2399 27.3619 9.3449 27.4669 9.3974C27.4669 9.3974 27.5194 9.3974 27.5719 9.4499C27.9919 8.8724 28.3594 8.2949 28.7794 7.6649C29.0419 7.2974 29.3044 7.0874 29.7769 7.0874C30.7219 7.1399 31.6669 7.0874 32.6119 7.0874C33.0844 7.0874 33.3994 7.2974 33.3994 7.6649C33.3994 8.0324 33.1369 8.2949 32.6119 8.2949C31.7719 8.2949 30.9319 8.2949 30.0919 8.2949C29.9344 8.2949 29.7769 8.3474 29.7244 8.4524C29.3569 9.0824 28.9369 9.6599 28.6219 10.1324ZM30.1444 16.3274C30.1969 14.8049 28.9894 12.1799 27.8344 11.3924C27.7294 11.5499 27.5719 11.7599 27.4669 11.9174C27.2044 12.2849 26.8369 12.3899 26.5219 12.1799C26.2069 11.9699 26.2069 11.6024 26.4169 11.2349C26.5744 10.9724 26.7319 10.7624 26.8894 10.4999C25.6819 9.6074 24.3694 9.1349 22.8994 9.0299C22.8994 11.4449 22.8994 13.8599 22.8994 16.2749C25.3144 16.3274 27.7294 16.3274 30.1444 16.3274Z" fill="#036EB7"/>
<path d="M13.3444 34.1775C14.6569 34.1775 15.9694 34.1775 17.2819 34.1775C17.4394 34.1775 17.5969 34.1775 17.7544 34.23C18.0694 34.2825 18.2794 34.545 18.2269 34.8075C18.1744 35.0175 17.9644 35.2275 17.8069 35.385C17.7019 35.4375 17.5444 35.4375 17.3869 35.4375C14.7094 35.4375 11.9794 35.4375 9.30191 35.4375C9.19691 35.4375 9.03941 35.4375 8.93441 35.385C8.61941 35.3325 8.46191 35.07 8.46191 34.8075C8.46191 34.4925 8.61941 34.2825 8.93441 34.23C9.09191 34.1775 9.24941 34.1775 9.40691 34.1775C10.7194 34.1775 12.0319 34.1775 13.3444 34.1775Z" fill="#036EB7"/>
<path d="M18.2795 38.6926C17.072 38.6926 15.8645 38.6926 14.657 38.6926C14.4995 38.6926 14.342 38.6926 14.1845 38.6401C13.8695 38.5351 13.712 38.3251 13.7645 38.0101C13.7645 37.6951 13.9745 37.5376 14.2895 37.4326C14.447 37.4326 14.552 37.4326 14.7095 37.4326C17.1245 37.4326 19.592 37.4326 22.007 37.4326C22.112 37.4326 22.2695 37.4326 22.3745 37.4326C22.6895 37.4851 22.8995 37.6426 22.8995 38.0101C22.8995 38.3251 22.742 38.5351 22.427 38.6401C22.2695 38.6926 22.112 38.6926 22.007 38.6926C20.6945 38.6926 19.487 38.6926 18.2795 38.6926Z" fill="#036EB7"/>
<path d="M19.5919 32.0776C18.7519 32.0776 17.9644 32.0776 17.1244 32.0776C16.6519 32.0776 16.3894 31.8676 16.3369 31.5001C16.3369 31.1326 16.5994 30.8701 17.0719 30.8701C18.7519 30.8701 20.3794 30.8701 22.0594 30.8701C22.5319 30.8701 22.7944 31.1326 22.7944 31.5001C22.7944 31.8676 22.5319 32.0776 22.0069 32.0776C21.2719 32.0776 20.4319 32.0776 19.5919 32.0776Z" fill="#036EB7"/>
<path d="M11.7169 32.0776C10.8769 32.0776 9.98439 32.0776 9.14439 32.0776C8.61939 32.0776 8.30439 31.5526 8.56689 31.1851C8.67189 31.0276 8.93439 30.8701 9.14439 30.8701C10.8244 30.8701 12.5569 30.8701 14.2369 30.8701C14.6569 30.8701 14.9194 31.1326 14.9194 31.5001C14.9194 31.8676 14.6569 32.1301 14.1844 32.1301C13.3969 32.1301 12.5569 32.0776 11.7169 32.0776Z" fill="#036EB7"/>
<path d="M10.3519 38.6926C9.93192 38.6926 9.56442 38.6926 9.14442 38.6926C8.67192 38.6926 8.40942 38.4301 8.40942 38.0626C8.40942 37.6951 8.67192 37.4326 9.14442 37.4326C9.93192 37.4326 10.7719 37.4326 11.5594 37.4326C12.0319 37.4326 12.2944 37.6426 12.2944 38.0626C12.2944 38.4301 12.0319 38.6926 11.5594 38.6926C11.1919 38.6926 10.7719 38.6926 10.3519 38.6926Z" fill="#036EB7"/>
<path d="M21.2719 34.1775C21.5869 34.1775 21.9019 34.1775 22.2169 34.1775C22.5844 34.1775 22.7944 34.3875 22.8469 34.755C22.8469 35.1225 22.6369 35.385 22.2694 35.385C21.6394 35.4375 20.9569 35.385 20.3269 35.385C19.9594 35.385 19.6969 35.07 19.6969 34.755C19.6969 34.44 19.9594 34.1775 20.3269 34.1775C20.6419 34.1775 20.9569 34.1775 21.2719 34.1775Z" fill="#036EB7"/>
</svg>
