<svg width="80" height="80" viewBox="0 0 80 80" fill="none" xmlns="http://www.w3.org/2000/svg">
<path d="M8.80005 19.3C8.20005 18 7.60005 16.8 7.00005 15.7C4.70005 11 6.90005 5.90003 11.8 4.20003C12.4 3.90003 13 3.40003 13.6 3.00003C15.3 1.70003 17.2 0.800026 19.3 0.300026C22 -0.299974 24.6001 2.63453e-05 27.2001 1.10003C28.3001 1.60003 29.4 2.10003 30.4 2.60003C35.5 4.90003 37.7001 9.00003 36.9001 14.5C38.8001 14.5 40.6 14.5 42.6 14.5C42.6 14.4 42.6 14.2 42.5 14C41.5 9.80003 43.7 5.80003 47.8 4.30003C48.6 4.00003 49.3001 3.40003 49.9001 2.90003C52.4001 1.00003 55.1 2.6389e-05 58.1 2.6389e-05C59.2 2.6389e-05 60.4001 0.100026 61.4001 0.500026C63.8001 1.40003 66.3 2.30003 68.5 3.70003C72.6 6.20003 74.2 11.5 72.5 16C72.1 17.1 71.6 18.2 71.1 19.3C73.8 20 75 21.4 74.8 23.7C74.6 25.7 73.1 27 70.7 27.2C70.6 27.6 70.5 27.9 70.4 28.3C69.5 31.3 67.7 33.7 65.1 35.4C64.6 35.7 64.5 36 64.5 36.6C64.5 37.5 64.5 38.4 64.5 39.3C68.2 40.8 71.8 42.4 75.5 43.9C78.6 45 80 47 80 50.4C80 55.8 80 61.2 80 66.5C80 67.9 79.6 68.3 78.2 68.3C75.4 68.3 72.6 68.3 69.6 68.3C69.6 68.6 69.6 68.9 69.6 69.2C69.6 72.2 69.6 75.2 69.6 78.1C69.6 79.4 69.2 79.9 67.9 79.9C49.2 79.9 30.6 79.9 11.9 79.9C10.6 79.9 10.2 79.5 10.2 78.2C10.2 75.2 10.2 72.2 10.2 69.3C10.2 69 10.2 68.7 10.2 68.3C8.90005 68.3 7.70005 68.3 6.50005 68.3C4.80005 68.3 3.20005 68.3 1.50005 68.3C0.300049 68.3 -0.199951 67.9 -0.199951 66.6C4.88311e-05 61.1 4.88311e-05 55.6 4.88311e-05 50C4.88311e-05 47.2 1.50005 44.9 4.10005 43.8C7.70005 42.3 11.2 40.8 14.8 39.3C15.3 39.1 15.4 38.9 15.5 38.3C15.7 36.5 15.3 35.3 13.7 34.2C11.3 32.5 10 29.9 9.30005 27.1C6.30005 26.4 5.10005 25.3 5.10005 23.1C5.10005 21.2 6.40005 19.8 8.80005 19.3ZM46.5 53.2C46.7 53.3 46.9 53.3 47.1 53.4C53 55.1 59 56.7 64.9 58.4C67.5 59.1 69 60.9 69.5 63.5C69.6 64.3 69.6 65 69.7 65.8C72.3 65.8 74.8 65.8 77.4 65.8C77.4 65.5 77.4 65.2 77.4 64.9C77.4 60.1 77.4 55.3 77.4 50.5C77.4 48.2 76.6 47 74.5 46.2C70.7 44.6 66.8 43 63 41.4C62.2 41.1 61.9001 40.6 61.9001 39.7C61.9001 38.2 61.9001 36.7 61.9001 35.3C61.9001 34.5 62.3001 34.1 62.9001 33.7C64.0001 32.8 65.1 32 66 31C67.3 29.6 68 27.9 68.2 26C68.4 24.8 68.8 24.5 70 24.5C70.3 24.5 70.6 24.5 71 24.5C71.8 24.4 72.3 23.9 72.3 23.2C72.3 22.5 71.8 22 71.1 22C70.7 22 70.2 22 69.8 22C69 22 68.4 21.5 68.5 20.7C68.5 19.8 68.7 19 68.9 18.1C69.2 17.1 69.8 16.1 70.1 15.1C71.5 11.3 69.9 7.20003 66.3 5.40003C64.9 4.70003 63.4001 4.00003 61.9001 3.40003C58.8001 2.20003 55.7 2.40003 52.8 4.10003C50.9 5.10003 49.3 6.60003 47.3 7.40003C45.3 8.30003 44.6 10.2 44.8 12.4C45 14.4 45.7001 16 47.9001 16.5C48.4001 16.6 48.8001 16.8 49.2001 17.1C50.4001 17.9 51.7 18.7 52.6 19.8C55.3 23 55.8 26.7 54.3 30.6C53.9 31.6 53.5 32.5 53 33.6C53.4 33.6 53.7 33.6 54 33.6C56.3 33.6 58 35.3 58 37.4C58 39.6 56.3001 41.3 53.9001 41.3C53.4001 41.3 53 41.3 52.6 41.3C51.6 44.7 50.5001 46.6 48.4001 48.5C47.7001 49.1 46.8 49.6 46.5 50.3C46.2 51.1 46.4001 52.2 46.4001 53.1C46.5001 53 46.5 53 46.5 53.2ZM26.9 33.5C26.2 32.1 25.5 30.8 24.9 29.5C23 25.4 24.7 20.6 28.8 18.8C30 18.3 31 17.6 32 16.9C32.4 16.6 32.8 16.4 33.1 16.1C33.3 15.9 33.6001 15.7 33.7001 15.4C35.4001 11.6 33.8001 7.20003 30.1 5.30003C28.7 4.60003 27.2 3.90003 25.8 3.30003C23.8 2.50003 21.8001 2.40003 19.6 2.80003C17.5001 3.20003 15.8 4.40003 14.1 5.70003C13.7 6.00003 13.2 6.30003 12.7 6.50003C9.10005 7.70003 7.60005 11.1 9.30005 14.5C9.90005 15.8 10.7 17.1 11.2 18.4C11.5 19.1 11.5 20 11.4 20.8C11.4 21.4 10.8 21.7 10.2 21.8C9.70005 21.8 9.30005 21.8 8.80005 21.8C8.10005 21.9 7.60005 22.4 7.60005 23.1C7.60005 23.8 8.10005 24.3 8.80005 24.4C9.20005 24.4 9.60005 24.4 9.90005 24.4C11 24.4 11.4 24.7 11.5 25.8C12 29.3 13.9 31.9 17 33.6C17.6 33.9 17.9 34.4 17.9 35.1C17.9 36.5 17.9 37.9 17.9 39.4C17.9 40.7 17.8001 40.9 16.6 41.4C12.8001 43 9.00005 44.5 5.20005 46.1C3.20005 46.9 2.40005 48.1 2.40005 50.3C2.40005 55.2 2.40005 60 2.40005 64.9C2.40005 65.2 2.40005 65.5 2.40005 65.8C4.90005 65.8 7.30005 65.8 9.80005 65.8C9.90005 65.8 10 65.8 10.2 65.8C10.2 65.5 10.2 65.2 10.2 64.9C10.2 61.6 12 59.2 15.2 58.3C19.2 57.2 23.2 56.1 27.1 55C29.2 54.4 31.3001 53.8 33.4001 53.2C33.4001 52.3 33.4001 51.4 33.4001 50.6C33.4001 50.1 33.3 49.8 32.8 49.5C30.1 47.7 28.2 45.2 27.4 42.1C27.3 41.9 27.2001 41.6 27.2001 41.4C23.4001 41.1 21.8 40 21.8 37.5C21.9 35 23.5 33.7 26.9 33.5ZM67 77.4C67 77.3 67 77.2 67 77.1C67 72.9 67 68.7 67 64.5C67 62.7 65.9 61.3 64.1 60.8C58.1 59.1 52.1 57.5 46.1 55.8C45.6 55.7 45.4 55.7 45 56.1C43.7 57.4 42.4 58.7 41.1 60C40.2 60.9 39.6 60.9 38.8 60C37.5 58.7 36.2001 57.4 34.9001 56.1C34.5001 55.7 34.2001 55.6 33.7001 55.8C27.8001 57.5 21.9 59.1 15.9 60.8C13.8 61.4 12.8 62.7 12.8 64.9C12.8 68.8 12.8 72.7 12.8 76.7C12.8 76.9 12.8 77.2 12.8 77.4C15.4 77.4 17.9 77.4 20.5 77.4C20.5 74 20.5 70.6 20.5 67.2C21.4 67.2 22.2 67.2 23.1 67.2C23.1 70.6 23.1 74 23.1 77.4C34.3 77.4 45.4 77.4 56.6 77.4C56.6 74 56.6 70.6 56.6 67.2C57.5 67.2 58.3001 67.2 59.2001 67.2C59.2001 69 59.2001 70.6 59.2001 72.3C59.2001 74 59.2001 75.7 59.2001 77.4C62.0001 77.4 64.5 77.4 67 77.4ZM31.4 30.4C30.3 32.3 29.3 34.2 29.6 36.5C29.7 37.3 29.6 38.1 29.6 38.8C29.7 44 33.6001 48.3 38.9001 48.9C43.9001 49.5 48.8001 46 49.9001 41C50.3001 39.1 50.1 37 50.3 35.1C50.5 33.2 49.2 31.9 48.6 30.3C42.8 34.6 37.2 34.6 31.4 30.4ZM28.4 30.6C28.9 29.6 29.3001 28.8 29.7001 27.9C30.2001 27 31 26.8 31.8 27.4C32.6 28 33.3 28.6 34.1 29.1C36.6 30.8 39.3001 31.3 42.2001 30.6C44.4001 30.1 46.1 28.8 47.8 27.5C48.9 26.7 49.6001 26.8 50.2001 28.1C50.6001 28.8 50.9 29.5 51.3 30.3C53.2 26.6 52.4 22.4 49.3 20.2C46.7 18.4 43.9001 17.1 40.7001 16.7C38.5001 16.5 36.4001 17 34.4001 18.2C36.7001 19 38.4 20.3 39.6 22.3C38.9 22.8 38.2 23.2 37.5 23.7C37.2 23.3 36.9 22.9 36.6 22.6C35 20.8 33.0001 20.1 30.7001 20.7C28.5001 21.3 27.2001 22.8 26.7001 25C26.4001 27.1 27.4 28.8 28.4 30.6ZM40 57.5C41.3 56.2 42.4 55 43.6 53.8C43.7 53.7 43.8 53.5 43.8 53.3C43.8 52.6 43.8 51.8 43.8 50.9C41.2 51.7 38.7 51.7 36.1 50.9C36.1 51.7 36.1 52.4 36.1 53.2C36.1 53.4 36.2001 53.7 36.4001 53.8C37.6001 55.1 38.8 56.2 40 57.5ZM27.1 36.1C26.2 36.2 25.2 35.8 24.8 36.8C24.6 37.2 24.7 37.8 24.9 38.1C25.4 39 26.3001 38.6 27.2001 38.6C27.1001 37.8 27.1 37 27.1 36.1ZM52.9001 38.7C53.8001 38.7 54.7001 39 55.2001 38C55.4001 37.6 55.3 37 55.1 36.7C54.6 35.8 53.7 36.2 52.8 36.1C52.9 37 52.9001 37.8 52.9001 38.7Z" fill="black"/>
</svg>
