<svg width="80" height="80" viewBox="0 0 80 80" fill="none" xmlns="http://www.w3.org/2000/svg">
<path d="M47.2 16.8C47.7 16.8 48.1 16.8 48.4 16.8C56.8 16.8 65.2 16.8 73.7 16.8C75.7 16.8 76.1 17.2 76.1 19.3C76.1 38 76.1 56.6 76.1 75.3C76.1 75.7 76.1 76.1 76.1 76.7C76.9 76.7 77.5 76.7 78.2 76.7C79.2 76.7 79.9 77.4 79.9 78.3C79.9 79.2 79.2 79.9 78.2 80C77.9 80 77.6 80 77.3 80C52.3 80 27.3 80 2.39996 80C1.89996 80 1.49996 80 1.09996 79.9C0.299965 79.6 -0.100035 79 -3.51882e-05 78.1C0.0999648 77.3 0.599965 76.7 1.49996 76.7C2.19996 76.6 2.99996 76.7 3.79996 76.7C3.79996 76.2 3.79996 75.8 3.79996 75.3C3.79996 51.1 3.79996 26.8 3.79996 2.6C3.79996 0.4 4.19996 0 6.39996 0C19.1 0 31.8 0 44.6 0C46.8 0 47.2 0.4 47.2 2.6C47.2 6.9 47.2 11.3 47.2 15.6C47.2 16 47.2 16.3 47.2 16.8ZM43.8 76.6C43.8 52.1 43.8 27.8 43.8 3.4C31.6 3.4 19.4 3.4 7.19996 3.4C7.19996 27.8 7.19996 52.2 7.19996 76.6C9.69996 76.6 12.2 76.6 14.7 76.6C14.7 70.2 14.7 63.8 14.7 57.4C14.6 57.3 14.6 57.3 14.5 57.3C14.3 57.3 14.2 57.3 14 57.3C12.3 57.2 11.6 56.7 11.6 55.6C11.6 54.5 12.4 53.9 14.1 53.9C21.7 53.9 29.3 53.9 36.8 53.9C37.1 53.9 37.5 53.9 37.8 53.9C38.7 54.1 39.3 54.7 39.2 55.6C39.2 56.5 38.6 57.1 37.6 57.2C37.1 57.2 36.6 57.2 36.1 57.3C36.1 63.8 36.1 70.2 36.1 76.6C38.8 76.6 41.3 76.6 43.8 76.6ZM47.2 76.6C55.8 76.6 64.2 76.6 72.7 76.6C72.7 57.7 72.7 39 72.7 20.2C64.2 20.2 55.7 20.2 47.2 20.2C47.2 39 47.2 57.8 47.2 76.6ZM32.8 57.3C27.8 57.3 23 57.3 18.1 57.3C18.1 63.8 18.1 70.2 18.1 76.5C23 76.5 27.9 76.5 32.8 76.5C32.8 70.1 32.8 63.8 32.8 57.3Z" fill="black"/>
<path d="M35.8999 40.2999C35.2999 40.2999 34.6999 40.3999 34.0999 40.2999C33.1999 40.1999 32.5999 39.4999 32.5999 38.6999C32.5999 37.8999 33.1999 37.0999 34.0999 37.0999C35.2999 36.9999 36.5999 36.9999 37.7999 37.0999C38.6999 37.1999 39.2999 37.8999 39.2999 38.6999C39.2999 39.5999 38.6999 40.1999 37.7999 40.2999C37.1999 40.2999 36.5999 40.2999 35.8999 40.2999Z" fill="black"/>
<path d="M15 40.2998C14.4 40.2998 13.8 40.2998 13.3 40.2998C12.3 40.1998 11.7 39.5998 11.7 38.6998C11.7 37.7998 12.3 37.0998 13.3 36.9998C14.5 36.8998 15.7 36.8998 16.9 36.9998C17.8 37.0998 18.4 37.6998 18.4 38.5998C18.4 39.4998 17.9 40.0998 16.9 40.2998C16.8 40.2998 16.7 40.2998 16.6 40.2998C16.1 40.2998 15.5 40.2998 15 40.2998Z" fill="black"/>
<path d="M25.4001 40.2998C24.8001 40.2998 24.2001 40.3998 23.6001 40.2998C22.7001 40.1998 22.1001 39.4998 22.2001 38.5998C22.2001 37.6998 22.7001 37.0998 23.6001 36.9998C24.9001 36.8998 26.1001 36.8998 27.4001 36.9998C28.3001 37.0998 28.8001 37.6998 28.8001 38.5998C28.9001 39.3998 28.2001 40.1998 27.4001 40.2998C26.7001 40.2998 26.1001 40.2998 25.4001 40.2998Z" fill="black"/>
<path d="M14.9999 11.3C14.3999 11.3 13.8999 11.3 13.2999 11.3C12.2999 11.2 11.5999 10.5 11.5999 9.6C11.5999 8.7 12.2999 8 13.1999 8C14.3999 8 15.4999 8 16.6999 8C17.5999 8 18.2999 8.8 18.1999 9.7C18.1999 10.6 17.5999 11.2 16.6999 11.3C16.5999 11.3 16.5999 11.3 16.4999 11.3C16.0999 11.3 15.4999 11.3 14.9999 11.3Z" fill="black"/>
<path d="M15 18.5C14.4 18.5 13.8 18.5 13.2 18.5C12.3 18.4 11.7 17.8 11.7 16.9C11.7 16 12.3 15.2 13.2 15.2C14.4 15.1 15.6 15.1 16.8 15.2C17.7 15.2 18.4 16 18.3 16.9C18.3 17.8 17.7 18.5 16.7 18.5C16.1 18.6 15.6 18.5 15 18.5Z" fill="black"/>
<path d="M35.7999 33.0002C35.1999 33.0002 34.5999 33.0002 34.0999 33.0002C33.2999 32.9002 32.5999 32.3002 32.5999 31.5002C32.5999 30.7002 32.9999 29.9002 33.7999 29.9002C35.1999 29.8002 36.5999 29.8002 38.0999 29.9002C38.8999 30.0002 39.2999 30.7002 39.2999 31.6002C39.1999 32.4002 38.7999 33.0002 37.8999 33.1002C37.1999 33.1002 36.4999 33.0002 35.7999 33.0002Z" fill="black"/>
<path d="M35.9999 11.3001C35.3999 11.3001 34.7999 11.3001 34.1999 11.3001C33.2999 11.2001 32.5999 10.5001 32.5999 9.7001C32.5999 8.8001 33.2999 8.1001 34.1999 8.1001C35.3999 8.1001 36.4999 8.1001 37.6999 8.1001C38.5999 8.1001 39.2999 8.9001 39.2999 9.7001C39.2999 10.6001 38.5999 11.3001 37.6999 11.4001C37.0999 11.3001 36.4999 11.3001 35.9999 11.3001Z" fill="black"/>
<path d="M25.3999 18.5C24.7999 18.5 24.1999 18.5 23.5999 18.5C22.6999 18.4 22.0999 17.8 22.0999 16.9C22.0999 16 22.6999 15.2 23.5999 15.2C24.7999 15.1 25.9999 15.1 27.1999 15.2C28.0999 15.2 28.7999 16 28.7999 16.9C28.7999 17.8 28.0999 18.5 27.1999 18.5C26.5999 18.6 25.9999 18.5 25.3999 18.5Z" fill="black"/>
<path d="M35.9 18.5C35.3 18.5 34.7 18.5 34.1 18.5C33.2 18.4 32.6 17.8 32.5 16.9C32.5 16 33.1 15.2 34 15.2C35.2 15.1 36.4 15.1 37.6 15.2C38.5 15.2 39.2 16 39.2 16.9C39.2 17.8 38.5 18.5 37.6 18.5C37.1 18.6 36.5 18.5 35.9 18.5Z" fill="black"/>
<path d="M14.9999 25.7999C14.3999 25.7999 13.7999 25.7999 13.1999 25.7999C12.2999 25.6999 11.5999 25.0999 11.5999 24.2999C11.5999 23.3999 11.9999 22.6999 12.8999 22.5999C14.1999 22.4999 15.5999 22.4999 16.9999 22.5999C17.8999 22.6999 18.3999 23.4999 18.2999 24.3999C18.1999 25.1999 17.5999 25.7999 16.6999 25.7999C16.1999 25.7999 15.5999 25.7999 14.9999 25.7999Z" fill="black"/>
<path d="M25.4 25.7998C24.8 25.7998 24.2 25.7998 23.6 25.7998C22.7 25.6998 22.1 25.1998 22.1 24.2998C22 23.3998 22.5 22.5998 23.4 22.4998C24.7 22.3998 26.1 22.3998 27.4 22.4998C28.3 22.5998 28.8 23.3998 28.8 24.1998C28.7 24.9998 28.1 25.6998 27.2 25.6998C26.6 25.7998 26 25.7998 25.4 25.7998Z" fill="black"/>
<path d="M36 25.7999C35.4 25.7999 34.8 25.7999 34.2 25.7999C33.3 25.6999 32.7 25.0999 32.6 24.2999C32.5 23.4999 33.1 22.6999 33.9 22.5999C35.2 22.4999 36.6 22.4999 38 22.5999C38.9 22.6999 39.4 23.4999 39.3 24.3999C39.2 25.2999 38.7 25.7999 37.7 25.7999C37.1 25.7999 36.5 25.7999 36 25.7999Z" fill="black"/>
<path d="M25.4999 11.3C24.8999 11.3 24.3999 11.3 23.7999 11.3C22.7999 11.3 22.0999 10.6 22.0999 9.7C22.0999 8.8 22.6999 8.1 23.6999 8C24.7999 8 25.9999 8 27.0999 8C27.9999 8 28.6999 8.8 28.6999 9.6C28.6999 10.5 27.9999 11.2 27.0999 11.3C26.6999 11.3 26.0999 11.3 25.4999 11.3Z" fill="black"/>
<path d="M25.4999 33.0001C24.8999 33.0001 24.2999 33.0001 23.6999 33.0001C22.7999 32.9001 22.1999 32.3001 22.0999 31.5001C21.9999 30.6001 22.5999 29.8001 23.5999 29.8001C24.8999 29.7001 26.0999 29.7001 27.3999 29.8001C28.2999 29.9001 28.8999 30.7001 28.7999 31.5001C28.7999 32.3001 28.0999 33.0001 27.1999 33.1001C26.6999 33.1001 26.0999 33.0001 25.4999 33.0001Z" fill="black"/>
<path d="M25.4999 44.3002C26.0999 44.3002 26.6999 44.3002 27.2999 44.3002C28.0999 44.4002 28.7999 45.0002 28.7999 45.8002C28.7999 46.6002 28.3999 47.3002 27.5999 47.4002C26.1999 47.5002 24.7999 47.5002 23.3999 47.4002C22.4999 47.3002 22.0999 46.6002 22.0999 45.7002C22.0999 44.9002 22.6999 44.3002 23.5999 44.2002C23.6999 44.2002 23.6999 44.2002 23.7999 44.2002C24.3999 44.2002 24.9999 44.2002 25.4999 44.3002C25.4999 44.2002 25.4999 44.2002 25.4999 44.3002Z" fill="black"/>
<path d="M35.8999 47.5002C35.2999 47.5002 34.6999 47.5002 34.1999 47.5002C33.2999 47.4002 32.5999 46.7002 32.5999 45.8002C32.5999 44.9002 33.2999 44.2002 34.2999 44.2002C35.3999 44.2002 36.4999 44.2002 37.5999 44.2002C38.5999 44.2002 39.1999 44.9002 39.2999 45.8002C39.2999 46.7002 38.6999 47.4002 37.7999 47.5002C37.6999 47.5002 37.5999 47.5002 37.4999 47.5002C36.9999 47.6002 36.4999 47.6002 35.8999 47.5002C35.8999 47.6002 35.8999 47.5002 35.8999 47.5002Z" fill="black"/>
<path d="M14.9999 33.0001C14.3999 33.0001 13.7999 33.0001 13.1999 33.0001C12.2999 32.9001 11.7999 32.4001 11.6999 31.5001C11.5999 30.7001 12.1999 29.8001 12.9999 29.8001C14.2999 29.7001 15.6999 29.7001 16.9999 29.8001C17.8999 29.9001 18.3999 30.7001 18.2999 31.5001C18.1999 32.4001 17.6999 32.9001 16.7999 33.0001C16.1999 33.1001 15.5999 33.0001 14.9999 33.0001Z" fill="black"/>
<path d="M14.9999 44.2002C15.5999 44.2002 16.1999 44.2002 16.7999 44.2002C17.6999 44.3002 18.1999 44.8002 18.2999 45.7002C18.3999 46.6002 17.8999 47.4002 16.9999 47.5002C15.6999 47.6002 14.2999 47.6002 12.8999 47.5002C11.9999 47.4002 11.5999 46.7002 11.5999 45.8002C11.5999 45.0002 12.1999 44.4002 13.0999 44.3002C13.7999 44.2002 14.3999 44.2002 14.9999 44.2002Z" fill="black"/>
<path d="M59.8999 28.6998C57.9999 28.6998 55.9999 28.6998 54.0999 28.6998C52.8999 28.6998 52.0999 27.9998 52.0999 26.9998C52.0999 25.9998 52.8999 25.2998 54.0999 25.2998C57.9999 25.2998 61.8999 25.2998 65.7999 25.2998C66.9999 25.2998 67.7999 25.8998 67.7999 26.8998C67.7999 27.8998 66.9999 28.5998 65.6999 28.5998C63.7999 28.6998 61.8999 28.6998 59.8999 28.6998Z" fill="black"/>
<path d="M59.9999 45.8C57.9999 45.8 55.9999 45.8 54.0999 45.8C52.8999 45.8 52.1999 45.2 52.0999 44.2C52.0999 43.2 52.7999 42.5 53.8999 42.5C56.9999 42.5 59.9999 42.5 63.0999 42.5C64.0999 42.5 64.9999 42.5 65.9999 42.5C67.0999 42.5 67.7999 43.2 67.7999 44.1C67.7999 45 67.0999 45.8 65.9999 45.8C63.9999 45.8 61.9999 45.8 59.9999 45.8Z" fill="black"/>
<path d="M60 54.3C58 54.3 55.9999 54.3 54.0999 54.3C52.8999 54.3 52.2 53.6 52.2 52.7C52.2 51.7 52.8999 51 54.0999 51C58.0999 51 62.0999 51 66.0999 51C67.1999 51 68 51.7 68 52.7C68 53.7 67.1999 54.3 66.0999 54.3C63.8999 54.3 62 54.3 60 54.3Z" fill="black"/>
<path d="M60 33.8999C61.9 33.8999 63.9 33.8999 65.8 33.8999C67 33.8999 67.8 34.4999 67.8 35.4999C67.8 36.4999 67 37.1999 65.7 37.1999C61.8 37.1999 58 37.1999 54.1 37.1999C52.8 37.1999 52 36.4999 52 35.4999C52 34.4999 52.8 33.8999 54.1 33.8999C56.1 33.8999 58.1 33.8999 60 33.8999Z" fill="black"/>
<path d="M59.9999 59.5C61.8999 59.5 63.8999 59.5 65.7999 59.5C66.9999 59.5 67.7999 60.2 67.7999 61.2C67.7999 62.2 66.9999 62.8 65.7999 62.8C61.8999 62.8 57.9999 62.8 54.0999 62.8C52.8999 62.8 52.0999 62.2 52.0999 61.2C52.0999 60.2 52.8999 59.5 54.1999 59.5C56.0999 59.5 58.0999 59.5 59.9999 59.5Z" fill="black"/>
<path d="M59.9 71.4001C58.1 71.4001 56.3 71.4001 54.5 71.4001C54.2 71.4001 54 71.4001 53.7 71.4001C52.7 71.3001 52 70.6001 52 69.7001C52 68.8001 52.7 68.1001 53.7 68.1001C55.1 68.1001 56.6 68.1001 58 68.1001C60.6 68.1001 63.1 68.1001 65.7 68.1001C66.9 68.1001 67.7 68.7001 67.7 69.7001C67.7 70.7001 67 71.4001 65.7 71.4001C63.9 71.4001 61.9 71.4001 59.9 71.4001Z" fill="black"/>
</svg>
