<svg width="79" height="80" viewBox="0 0 79 80" fill="none" xmlns="http://www.w3.org/2000/svg">
<path d="M57.8 0C58.2001 0 58.5 0 58.9001 0C60.2001 0.9 59.6 2.4 60.1 3.5C60.2 3.5 60.3001 3.6 60.4001 3.6C65.8 4 71.3001 4.5 76.8001 5C78.1001 5.1 78.5001 5.5 78.4001 6.8C78.2001 8.8 78.1001 10.7 77.9001 12.7C77.3001 19.7 76.7001 26.7 76.1001 33.7C75.6001 40.1 75.0001 46.5 74.5001 53C73.8001 60.7 73.2001 68.4 72.5001 76C72.4001 77.2 71.9 77.6 70.7001 77.5C70.1001 77.4 69.5001 77.4 68.9001 77.4C68.9001 77.7 68.9001 77.8 68.9001 78C68.9001 79.9 68.7001 80.1 66.8001 80.1C48.1001 80.1 29.5001 80.1 10.8001 80.1C10.5001 80.1 10.3001 80.1 10.0001 80.1C9.30005 80.1 8.80005 79.7 8.80005 79C8.50005 76.6 8.30005 74.3 8.00005 72C7.30005 66.4 6.60005 60.9 5.90005 55.3C5.20005 49.7 4.50005 44.1 3.80005 38.5C3.10005 32.9 2.40005 27.2 1.70005 21.6C1.10005 17.4 0.60005 13.2 5.04535e-05 8.9C-0.0999495 7.8 0.20005 7.3 1.40005 7.2C6.80005 6.5 12.2001 5.8 17.6 5.2C18.1 5.1 18.3 4.9 18.3 4.4C18.4 3.4 18.4 2.4 18.5 1.4C18.6 0.5 19 0.2 19.9 0.2C20.7 0.2 21.4001 0.3 22.2001 0.4C27.4001 0.8 32.6 1.3 37.8 1.7C39.5 1.8 41.1 2.1 42.8 2C46.4 1.7 50 1.1 53.6 0.7C55 0.4 56.4 0.2 57.8 0ZM66.6001 9.7C48.1001 9.7 29.7001 9.7 11.2001 9.7C11.2001 32.4 11.2001 55 11.2001 77.6C29.7001 77.6 48.1001 77.6 66.6001 77.6C66.6001 77.2 66.6001 76.9 66.6001 76.6C66.6001 64.8 66.6001 53 66.6001 41.1C66.6001 39.9 67.0001 39.3 67.7001 39.3C68.5001 39.3 68.9001 39.8 68.9001 41.1C68.9001 52 68.9001 63 68.9001 73.9C68.9001 74.2 68.9001 74.5 68.9001 74.9C69.4001 74.9 69.8 75 70.2001 75C72.1001 52.4 74.1001 29.9 76.0001 7.3C70.7001 6.8 65.5 6.4 60.3 6C60.4 6.5 60.4001 6.9 60.5 7.4C62.8 7.4 65.0001 7.4 67.2001 7.4C68.6001 7.4 68.9001 7.7 68.9001 9.1C68.9001 17.6 68.9001 26 68.9001 34.5C68.9001 34.7 68.9001 34.8 68.9001 35C68.9001 35.8 68.4 36.3 67.7001 36.3C67.1001 36.3 66.6001 35.8 66.6001 35.1C66.6001 34.9 66.6001 34.6 66.6001 34.4C66.6001 26.6 66.6001 18.7 66.6001 10.9C66.6001 10.4 66.6001 10.1 66.6001 9.7ZM2.50005 9.4C4.60005 25.8 6.60005 42.1 8.70005 58.5C8.70005 58.5 8.70005 58.5 8.80005 58.5C8.80005 41.9 8.80005 25.3 8.80005 8.6C6.60005 8.9 4.60005 9.1 2.50005 9.4ZM57.5 2.5C45.1001 4.1 32.7001 5.6 20.4 7.2C20.4 7.2 20.4 7.2 20.4 7.3C32.9 7.3 45.5 7.3 58.1 7.3C57.9 5.6 57.7001 4.1 57.5 2.5ZM20.8 2.6C20.7 3.4 20.7001 4 20.6 4.8C23.9 4.4 27.1 4 30.2001 3.6C30.2001 3.5 30.2001 3.5 30.2001 3.4C27.1 3.1 24 2.8 20.8 2.6Z" fill="black"/>
<path d="M37.5 36.2C37.9 36.2 38.2 36.2 38.5 36.2C43 36.2 47.5 36.2 52 36.2C53.6 36.2 53.9 36.5 53.8 38.1C53.6 42.3 52.1 45.9 49.3 49.1C49 49.5 49 49.7 49.2 50.1C49.7 50.9 50.1 52 50.8 52.4C51.5 52.8 52.6 52.5 53.6 52.5C56 52.5 58.5 52.5 60.9 52.5C61.2 52.5 61.6 52.5 61.8 52.6C62.1 52.9 62.5 53.4 62.5 53.7C62.5 54.1 62 54.4 61.6 54.7C61.4 54.8 61.1 54.7 60.8 54.7C57.4 54.7 54 54.7 50.6 54.7C49.7 54.7 49.1 54.4 48.6 53.6C48.1 52.7 47.5 51.9 47.1 51.1C45.5 51.9 44 52.9 42.4 53.5C32.2 57.6 20.4 50.7 18.9 39.8C17.6 30.4 23.3 22.1 32.6 20C33.6 19.8 34.7 19.7 35.8 19.6C37 19.5 37.4 20 37.4 21.1C37.4 25.7 37.4 30.3 37.4 34.9C37.5 35.5 37.5 35.8 37.5 36.2ZM35.2 22.3C29 22.5 23.1 27.5 21.6 33.9C20 40.5 23.2 47.5 29.2 50.7C35.2 53.9 42.1 52.5 45.9 49C45.8 48.8 45.6 48.5 45.5 48.3C44.7 47 43.8 45.7 43 44.3C42.6 43.6 42.8 42.9 43.3 42.6C43.9 42.3 44.5 42.4 44.9 43C45.3 43.5 45.6 44.1 45.9 44.6C46.4 45.5 47 46.3 47.6 47.3C49.9 44.7 51.1 41.8 51.4 38.4C51 38.4 50.7 38.4 50.4 38.4C45.9 38.4 41.4 38.4 37 38.4C35.5 38.4 35.1 38.1 35.1 36.6C35.1 34.1 35.1 31.6 35.1 29C35.2 26.9 35.2 24.6 35.2 22.3Z" fill="black"/>
<path d="M53.5001 19.3C54.7001 21.2 56.0001 22.8 57.0001 24.6C58.3001 26.9 58.7001 29.4 58.8001 32C58.8001 33 58.4001 33.4 57.3001 33.4C54.5001 33.4 51.8001 33.4 49.0001 33.4C46.6001 33.4 44.2001 33.4 41.7001 33.4C40.5001 33.4 40.1001 33 40.1001 31.8C40.1001 26.7 40.1001 21.5 40.1001 16.4C40.1001 15.1 40.5001 14.7 41.8001 14.8C45.0001 14.9 48.0001 15.8 50.7001 17.5C50.9001 17.6 51.1001 17.8 51.3001 17.9C51.3001 17.9 51.4001 17.9 51.5001 18C52.3001 16.9 53.0001 15.8 53.8001 14.6C54.3001 13.9 54.8001 13.5 55.7001 13.5C57.5001 13.6 59.3001 13.5 61.1001 13.5C62.0001 13.5 62.6001 13.9 62.6001 14.6C62.6001 15.3 62.1001 15.8 61.1001 15.8C59.5001 15.8 57.9001 15.8 56.3001 15.8C56.0001 15.8 55.7001 15.9 55.6001 16.1C54.9001 17.3 54.1001 18.4 53.5001 19.3ZM56.4001 31.1C56.5001 28.2 54.2001 23.2 52.0001 21.7C51.8001 22 51.5001 22.4 51.3001 22.7C50.8001 23.4 50.1001 23.6 49.5001 23.2C48.9001 22.8 48.9001 22.1 49.3001 21.4C49.6001 20.9 49.9001 20.5 50.2001 20C47.9001 18.3 45.4001 17.4 42.6001 17.2C42.6001 21.8 42.6001 26.4 42.6001 31C47.2001 31.1 51.8001 31.1 56.4001 31.1Z" fill="black"/>
<path d="M24.4001 65.1C26.9001 65.1 29.4001 65.1 31.9001 65.1C32.2001 65.1 32.5001 65.1 32.8001 65.2C33.4001 65.3 33.8001 65.8 33.7001 66.3C33.6001 66.7 33.2001 67.1 32.9001 67.4C32.7001 67.5 32.4001 67.5 32.1001 67.5C27.0001 67.5 21.8001 67.5 16.7001 67.5C16.5001 67.5 16.2001 67.5 16.0001 67.4C15.4001 67.3 15.1001 66.8 15.1001 66.3C15.1001 65.7 15.4001 65.3 16.0001 65.2C16.3001 65.1 16.6001 65.1 16.9001 65.1C19.4001 65.1 21.9001 65.1 24.4001 65.1Z" fill="black"/>
<path d="M33.8001 73.7C31.5001 73.7 29.2001 73.7 26.9001 73.7C26.6001 73.7 26.3001 73.7 26.0001 73.6C25.4001 73.4 25.1001 73 25.2001 72.4C25.2001 71.8 25.6001 71.5 26.2001 71.3C26.5001 71.3 26.7001 71.3 27.0001 71.3C31.6001 71.3 36.3001 71.3 40.9001 71.3C41.1001 71.3 41.4001 71.3 41.6001 71.3C42.2001 71.4 42.6001 71.7 42.6001 72.4C42.6001 73 42.3001 73.4 41.7001 73.6C41.4001 73.7 41.1001 73.7 40.9001 73.7C38.4001 73.7 36.1001 73.7 33.8001 73.7Z" fill="black"/>
<path d="M36.3001 61.1C34.7001 61.1 33.2001 61.1 31.6001 61.1C30.7001 61.1 30.2001 60.7 30.1001 60C30.1001 59.3 30.6001 58.8 31.5001 58.8C34.7001 58.8 37.8001 58.8 41.0001 58.8C41.9001 58.8 42.4001 59.3 42.4001 60C42.4001 60.7 41.9001 61.1 40.9001 61.1C39.5001 61.1 37.9001 61.1 36.3001 61.1Z" fill="black"/>
<path d="M21.3001 61.1C19.7001 61.1 18.0001 61.1 16.4001 61.1C15.4001 61.1 14.8001 60.1 15.3001 59.4C15.5001 59.1 16.0001 58.8 16.4001 58.8C19.6001 58.8 22.9001 58.8 26.1001 58.8C26.9001 58.8 27.4001 59.3 27.4001 60C27.4001 60.7 26.9001 61.2 26.0001 61.2C24.5001 61.2 22.9001 61.1 21.3001 61.1Z" fill="black"/>
<path d="M18.7 73.7C17.9 73.7 17.2 73.7 16.4 73.7C15.5 73.7 15 73.2 15 72.5C15 71.8 15.5 71.3 16.4 71.3C17.9 71.3 19.5 71.3 21 71.3C21.9 71.3 22.4 71.7 22.4 72.5C22.4 73.2 21.9 73.7 21 73.7C20.3 73.7 19.5 73.7 18.7 73.7Z" fill="black"/>
<path d="M39.5 65.1C40.1 65.1 40.7 65.1 41.3 65.1C42 65.1 42.4 65.5 42.5 66.2C42.5 66.9 42.1 67.4 41.4 67.4C40.2 67.5 38.9 67.4 37.7 67.4C37 67.4 36.5 66.8 36.5 66.2C36.5 65.6 37 65.1 37.7 65.1C38.3 65.1 38.9 65.1 39.5 65.1Z" fill="black"/>
</svg>
<svg width="79" height="80" viewBox="0 0 79 80" fill="none" xmlns="http://www.w3.org/2000/svg">
<path d="M57.8 0C58.2001 0 58.5 0 58.9001 0C60.2001 0.9 59.6 2.4 60.1 3.5C60.2 3.5 60.3001 3.6 60.4001 3.6C65.8 4 71.3001 4.5 76.8001 5C78.1001 5.1 78.5001 5.5 78.4001 6.8C78.2001 8.8 78.1001 10.7 77.9001 12.7C77.3001 19.7 76.7001 26.7 76.1001 33.7C75.6001 40.1 75.0001 46.5 74.5001 53C73.8001 60.7 73.2001 68.4 72.5001 76C72.4001 77.2 71.9 77.6 70.7001 77.5C70.1001 77.4 69.5001 77.4 68.9001 77.4C68.9001 77.7 68.9001 77.8 68.9001 78C68.9001 79.9 68.7001 80.1 66.8001 80.1C48.1001 80.1 29.5001 80.1 10.8001 80.1C10.5001 80.1 10.3001 80.1 10.0001 80.1C9.30005 80.1 8.80005 79.7 8.80005 79C8.50005 76.6 8.30005 74.3 8.00005 72C7.30005 66.4 6.60005 60.9 5.90005 55.3C5.20005 49.7 4.50005 44.1 3.80005 38.5C3.10005 32.9 2.40005 27.2 1.70005 21.6C1.10005 17.4 0.60005 13.2 5.04535e-05 8.9C-0.0999495 7.8 0.20005 7.3 1.40005 7.2C6.80005 6.5 12.2001 5.8 17.6 5.2C18.1 5.1 18.3 4.9 18.3 4.4C18.4 3.4 18.4 2.4 18.5 1.4C18.6 0.5 19 0.2 19.9 0.2C20.7 0.2 21.4001 0.3 22.2001 0.4C27.4001 0.8 32.6 1.3 37.8 1.7C39.5 1.8 41.1 2.1 42.8 2C46.4 1.7 50 1.1 53.6 0.7C55 0.4 56.4 0.2 57.8 0ZM66.6001 9.7C48.1001 9.7 29.7001 9.7 11.2001 9.7C11.2001 32.4 11.2001 55 11.2001 77.6C29.7001 77.6 48.1001 77.6 66.6001 77.6C66.6001 77.2 66.6001 76.9 66.6001 76.6C66.6001 64.8 66.6001 53 66.6001 41.1C66.6001 39.9 67.0001 39.3 67.7001 39.3C68.5001 39.3 68.9001 39.8 68.9001 41.1C68.9001 52 68.9001 63 68.9001 73.9C68.9001 74.2 68.9001 74.5 68.9001 74.9C69.4001 74.9 69.8 75 70.2001 75C72.1001 52.4 74.1001 29.9 76.0001 7.3C70.7001 6.8 65.5 6.4 60.3 6C60.4 6.5 60.4001 6.9 60.5 7.4C62.8 7.4 65.0001 7.4 67.2001 7.4C68.6001 7.4 68.9001 7.7 68.9001 9.1C68.9001 17.6 68.9001 26 68.9001 34.5C68.9001 34.7 68.9001 34.8 68.9001 35C68.9001 35.8 68.4 36.3 67.7001 36.3C67.1001 36.3 66.6001 35.8 66.6001 35.1C66.6001 34.9 66.6001 34.6 66.6001 34.4C66.6001 26.6 66.6001 18.7 66.6001 10.9C66.6001 10.4 66.6001 10.1 66.6001 9.7ZM2.50005 9.4C4.60005 25.8 6.60005 42.1 8.70005 58.5C8.70005 58.5 8.70005 58.5 8.80005 58.5C8.80005 41.9 8.80005 25.3 8.80005 8.6C6.60005 8.9 4.60005 9.1 2.50005 9.4ZM57.5 2.5C45.1001 4.1 32.7001 5.6 20.4 7.2C20.4 7.2 20.4 7.2 20.4 7.3C32.9 7.3 45.5 7.3 58.1 7.3C57.9 5.6 57.7001 4.1 57.5 2.5ZM20.8 2.6C20.7 3.4 20.7001 4 20.6 4.8C23.9 4.4 27.1 4 30.2001 3.6C30.2001 3.5 30.2001 3.5 30.2001 3.4C27.1 3.1 24 2.8 20.8 2.6Z" fill="black"/>
<path d="M37.5 36.2C37.9 36.2 38.2 36.2 38.5 36.2C43 36.2 47.5 36.2 52 36.2C53.6 36.2 53.9 36.5 53.8 38.1C53.6 42.3 52.1 45.9 49.3 49.1C49 49.5 49 49.7 49.2 50.1C49.7 50.9 50.1 52 50.8 52.4C51.5 52.8 52.6 52.5 53.6 52.5C56 52.5 58.5 52.5 60.9 52.5C61.2 52.5 61.6 52.5 61.8 52.6C62.1 52.9 62.5 53.4 62.5 53.7C62.5 54.1 62 54.4 61.6 54.7C61.4 54.8 61.1 54.7 60.8 54.7C57.4 54.7 54 54.7 50.6 54.7C49.7 54.7 49.1 54.4 48.6 53.6C48.1 52.7 47.5 51.9 47.1 51.1C45.5 51.9 44 52.9 42.4 53.5C32.2 57.6 20.4 50.7 18.9 39.8C17.6 30.4 23.3 22.1 32.6 20C33.6 19.8 34.7 19.7 35.8 19.6C37 19.5 37.4 20 37.4 21.1C37.4 25.7 37.4 30.3 37.4 34.9C37.5 35.5 37.5 35.8 37.5 36.2ZM35.2 22.3C29 22.5 23.1 27.5 21.6 33.9C20 40.5 23.2 47.5 29.2 50.7C35.2 53.9 42.1 52.5 45.9 49C45.8 48.8 45.6 48.5 45.5 48.3C44.7 47 43.8 45.7 43 44.3C42.6 43.6 42.8 42.9 43.3 42.6C43.9 42.3 44.5 42.4 44.9 43C45.3 43.5 45.6 44.1 45.9 44.6C46.4 45.5 47 46.3 47.6 47.3C49.9 44.7 51.1 41.8 51.4 38.4C51 38.4 50.7 38.4 50.4 38.4C45.9 38.4 41.4 38.4 37 38.4C35.5 38.4 35.1 38.1 35.1 36.6C35.1 34.1 35.1 31.6 35.1 29C35.2 26.9 35.2 24.6 35.2 22.3Z" fill="black"/>
<path d="M53.5001 19.3C54.7001 21.2 56.0001 22.8 57.0001 24.6C58.3001 26.9 58.7001 29.4 58.8001 32C58.8001 33 58.4001 33.4 57.3001 33.4C54.5001 33.4 51.8001 33.4 49.0001 33.4C46.6001 33.4 44.2001 33.4 41.7001 33.4C40.5001 33.4 40.1001 33 40.1001 31.8C40.1001 26.7 40.1001 21.5 40.1001 16.4C40.1001 15.1 40.5001 14.7 41.8001 14.8C45.0001 14.9 48.0001 15.8 50.7001 17.5C50.9001 17.6 51.1001 17.8 51.3001 17.9C51.3001 17.9 51.4001 17.9 51.5001 18C52.3001 16.9 53.0001 15.8 53.8001 14.6C54.3001 13.9 54.8001 13.5 55.7001 13.5C57.5001 13.6 59.3001 13.5 61.1001 13.5C62.0001 13.5 62.6001 13.9 62.6001 14.6C62.6001 15.3 62.1001 15.8 61.1001 15.8C59.5001 15.8 57.9001 15.8 56.3001 15.8C56.0001 15.8 55.7001 15.9 55.6001 16.1C54.9001 17.3 54.1001 18.4 53.5001 19.3ZM56.4001 31.1C56.5001 28.2 54.2001 23.2 52.0001 21.7C51.8001 22 51.5001 22.4 51.3001 22.7C50.8001 23.4 50.1001 23.6 49.5001 23.2C48.9001 22.8 48.9001 22.1 49.3001 21.4C49.6001 20.9 49.9001 20.5 50.2001 20C47.9001 18.3 45.4001 17.4 42.6001 17.2C42.6001 21.8 42.6001 26.4 42.6001 31C47.2001 31.1 51.8001 31.1 56.4001 31.1Z" fill="black"/>
<path d="M24.4001 65.1C26.9001 65.1 29.4001 65.1 31.9001 65.1C32.2001 65.1 32.5001 65.1 32.8001 65.2C33.4001 65.3 33.8001 65.8 33.7001 66.3C33.6001 66.7 33.2001 67.1 32.9001 67.4C32.7001 67.5 32.4001 67.5 32.1001 67.5C27.0001 67.5 21.8001 67.5 16.7001 67.5C16.5001 67.5 16.2001 67.5 16.0001 67.4C15.4001 67.3 15.1001 66.8 15.1001 66.3C15.1001 65.7 15.4001 65.3 16.0001 65.2C16.3001 65.1 16.6001 65.1 16.9001 65.1C19.4001 65.1 21.9001 65.1 24.4001 65.1Z" fill="black"/>
<path d="M33.8001 73.7C31.5001 73.7 29.2001 73.7 26.9001 73.7C26.6001 73.7 26.3001 73.7 26.0001 73.6C25.4001 73.4 25.1001 73 25.2001 72.4C25.2001 71.8 25.6001 71.5 26.2001 71.3C26.5001 71.3 26.7001 71.3 27.0001 71.3C31.6001 71.3 36.3001 71.3 40.9001 71.3C41.1001 71.3 41.4001 71.3 41.6001 71.3C42.2001 71.4 42.6001 71.7 42.6001 72.4C42.6001 73 42.3001 73.4 41.7001 73.6C41.4001 73.7 41.1001 73.7 40.9001 73.7C38.4001 73.7 36.1001 73.7 33.8001 73.7Z" fill="black"/>
<path d="M36.3001 61.1C34.7001 61.1 33.2001 61.1 31.6001 61.1C30.7001 61.1 30.2001 60.7 30.1001 60C30.1001 59.3 30.6001 58.8 31.5001 58.8C34.7001 58.8 37.8001 58.8 41.0001 58.8C41.9001 58.8 42.4001 59.3 42.4001 60C42.4001 60.7 41.9001 61.1 40.9001 61.1C39.5001 61.1 37.9001 61.1 36.3001 61.1Z" fill="black"/>
<path d="M21.3001 61.1C19.7001 61.1 18.0001 61.1 16.4001 61.1C15.4001 61.1 14.8001 60.1 15.3001 59.4C15.5001 59.1 16.0001 58.8 16.4001 58.8C19.6001 58.8 22.9001 58.8 26.1001 58.8C26.9001 58.8 27.4001 59.3 27.4001 60C27.4001 60.7 26.9001 61.2 26.0001 61.2C24.5001 61.2 22.9001 61.1 21.3001 61.1Z" fill="black"/>
<path d="M18.7 73.7C17.9 73.7 17.2 73.7 16.4 73.7C15.5 73.7 15 73.2 15 72.5C15 71.8 15.5 71.3 16.4 71.3C17.9 71.3 19.5 71.3 21 71.3C21.9 71.3 22.4 71.7 22.4 72.5C22.4 73.2 21.9 73.7 21 73.7C20.3 73.7 19.5 73.7 18.7 73.7Z" fill="black"/>
<path d="M39.5 65.1C40.1 65.1 40.7 65.1 41.3 65.1C42 65.1 42.4 65.5 42.5 66.2C42.5 66.9 42.1 67.4 41.4 67.4C40.2 67.5 38.9 67.4 37.7 67.4C37 67.4 36.5 66.8 36.5 66.2C36.5 65.6 37 65.1 37.7 65.1C38.3 65.1 38.9 65.1 39.5 65.1Z" fill="black"/>
</svg>
