<svg width="36" height="42" viewBox="0 0 36 42" fill="none" xmlns="http://www.w3.org/2000/svg">
<path d="M4.70458 41.9574C4.34269 41.7525 3.8774 41.5989 3.61891 41.2915C3.36041 40.9842 3.20532 40.5233 3.10192 40.1135C2.99852 39.7037 3.10192 39.294 3.10192 38.7818C2.79173 38.7818 2.48154 38.7818 2.17134 38.7818C0.77548 38.7818 0 38.0135 0 36.6306C0 26.233 0 15.8354 0 5.38667C0.0516987 4.05496 0.827178 3.33789 2.22304 3.33789C3.9291 3.33789 5.58346 3.33789 7.34121 3.33789C7.34121 2.97935 7.34121 2.67203 7.34121 2.3135C7.39291 1.08423 8.37518 0.0598368 9.56425 0.00861732C10.9084 -0.0938217 12.0458 0.725691 12.2009 2.00618C12.2526 2.41593 12.2009 2.82569 12.2009 3.33789C12.6145 3.33789 12.9247 3.33789 13.2866 3.33789C13.8552 3.33789 14.4756 3.33789 15.0443 3.33789C15.5613 3.33789 15.7681 3.54276 15.8198 4.10618C15.8198 4.4135 15.8198 4.72081 15.8198 5.02813C15.8198 8.51106 15.8198 11.994 15.8198 15.4257C15.8198 16.8598 15.096 17.5769 13.6484 17.5769C11.0118 17.5769 8.42688 17.5769 5.79025 17.5769C4.49778 17.5769 3.7223 16.8086 3.7223 15.5281C3.7223 12.0452 3.7223 8.56228 3.7223 5.13057C3.7223 4.97691 3.7223 4.77203 3.7223 4.56715C3.10192 4.56715 2.48154 4.51593 1.86115 4.56715C1.65436 4.56715 1.49926 4.92569 1.34417 5.13057C1.29247 5.23301 1.34417 5.43789 1.34417 5.59154C1.34417 15.8867 1.34417 26.233 1.34417 36.5281C1.34417 37.3989 1.49926 37.6037 2.42984 37.6037C10.4948 37.6037 18.5598 37.6037 26.6765 37.6037C27.5554 37.6037 27.7622 37.3989 27.7622 36.5281C27.7622 26.233 27.7622 15.8867 27.7622 5.59154C27.7622 4.77203 27.5554 4.56715 26.7282 4.56715C23.9882 4.56715 21.2999 4.56715 18.5598 4.56715C18.4564 4.56715 18.3013 4.56715 18.1979 4.56715C17.836 4.51593 17.6292 4.31106 17.6809 3.95252C17.6809 3.59398 17.8877 3.38911 18.2496 3.33789C18.353 3.33789 18.4564 3.33789 18.5598 3.33789C21.2999 3.33789 24.0916 3.33789 26.8316 3.33789C28.2275 3.33789 29.003 4.10618 29.003 5.48911C29.003 5.79642 29.003 6.15496 29.003 6.5135C29.2097 6.5135 29.3648 6.5135 29.4682 6.5135C30.6573 6.5135 31.8464 6.5135 33.0871 6.5135C34.3279 6.5135 35.1551 7.28179 35.1551 8.56228C35.1551 19.0623 35.1551 29.5111 35.1551 40.0111C35.1551 41.0867 34.5864 41.7013 33.5524 42.0598C23.8848 41.9574 14.2688 41.9574 4.70458 41.9574ZM28.8996 7.74276C28.8996 7.99886 28.8996 8.15252 28.8996 8.3574C28.8996 17.7306 28.8996 27.155 28.8996 36.5281C28.8996 36.6818 28.8996 36.8354 28.8996 37.0403C28.8479 37.8598 28.2275 38.6281 27.4003 38.7818C27.1418 38.833 26.8316 38.833 26.5214 38.833C19.3353 38.833 12.0975 38.833 4.91137 38.833C4.75628 38.833 4.54948 38.833 4.34269 38.833C4.34269 39.1915 4.34269 39.4476 4.34269 39.755C4.34269 40.5745 4.54948 40.7794 5.37666 40.7794C13.4934 40.7794 21.61 40.7794 29.675 40.7794C30.5022 40.7794 30.709 40.5745 30.709 39.755C30.709 32.1233 30.709 24.5428 30.709 16.9111C30.709 16.8086 30.709 16.655 30.709 16.5525C30.709 16.0915 30.9675 15.8354 31.3294 15.8354C31.6913 15.8354 31.9498 16.1428 31.9498 16.5525C31.9498 24.594 31.9498 32.6867 31.9498 40.7794C32.1566 40.7794 32.4668 40.7794 32.7253 40.7794C33.6041 40.7794 33.8109 40.6257 33.8109 39.7037C33.8109 29.4086 33.8109 19.0623 33.8109 8.76715C33.8109 8.6135 33.8626 8.40862 33.8109 8.30618C33.6558 8.1013 33.5007 7.79398 33.2939 7.74276C32.8804 7.64033 32.4151 7.74276 31.9498 7.74276C31.9498 8.1013 32.0015 8.40862 32.0015 8.76715C32.0015 10.2525 32.0015 11.7379 32.0015 13.2233C32.0015 13.8379 31.7947 14.1452 31.3811 14.1452C30.9675 14.1452 30.7607 13.8379 30.7607 13.2233C30.7607 11.6867 30.7607 10.0989 30.7607 8.56228C30.7607 8.05008 30.5022 7.79398 29.9852 7.74276C29.6233 7.69155 29.2614 7.74276 28.8996 7.74276ZM8.58198 4.56715C8.58198 6.35984 8.58198 8.1013 8.58198 9.84276C8.58198 10.4062 9.20236 10.8672 9.77105 10.8672C10.4431 10.8672 10.9084 10.4062 10.9601 9.79155C10.9601 9.43301 10.9601 9.07447 10.9601 8.71594C10.9601 8.3574 11.2703 8.1013 11.5805 8.1013C11.9424 8.1013 12.2009 8.30618 12.2009 8.66472C12.2009 9.17691 12.2526 9.63789 12.1492 10.1501C11.9424 11.3793 10.805 12.1989 9.56425 12.0964C8.27179 11.994 7.28951 11.0208 7.28951 9.74033C7.28951 8.15252 7.28951 6.61593 7.28951 5.02813C7.28951 4.87447 7.28951 4.72081 7.28951 4.61837C6.46233 4.61837 5.73855 4.61837 4.96307 4.61837C4.96307 4.72081 4.96307 4.77203 4.96307 4.82325C4.96307 8.40862 4.96307 12.0452 4.96307 15.6306C4.96307 16.194 5.16987 16.3989 5.79025 16.3989C8.42688 16.3989 11.0635 16.3989 13.7001 16.3989C14.4239 16.3989 14.579 16.194 14.579 15.4769C14.579 11.994 14.579 8.51106 14.579 5.02813C14.579 4.87447 14.579 4.72081 14.579 4.61837C13.7518 4.61837 12.9764 4.61837 12.2009 4.61837C12.2009 4.92569 12.2009 5.23301 12.2009 5.54033C12.2009 6.35984 11.5805 7.07691 10.7533 7.17935C10.3397 7.23057 9.97784 7.07691 9.92614 6.71837C9.82275 6.35984 10.0812 6.10374 10.4948 5.95008C10.6499 5.89886 10.9084 5.69398 10.9084 5.54033C10.9601 5.23301 10.9084 4.87447 10.9084 4.56715C10.1846 4.56715 9.40916 4.56715 8.58198 4.56715ZM8.58198 3.28667C9.40916 3.28667 10.1846 3.28667 10.9601 3.28667C10.9601 2.92813 10.9601 2.56959 10.9601 2.26228C10.9084 1.64764 10.4431 1.23789 9.77105 1.23789C9.20236 1.23789 8.63368 1.64764 8.53028 2.15984C8.58198 2.51837 8.58198 2.87691 8.58198 3.28667Z" fill="#036EB7"/>
<path d="M18.0946 28.0769C19.8523 28.0769 21.6618 28.0769 23.4195 28.0769C24.4018 28.0769 24.9705 28.6403 24.9705 29.6135C24.9705 30.433 24.9705 31.2525 24.9705 32.072C24.9705 32.994 24.3501 33.5574 23.4712 33.5574C21.1965 33.5574 18.9217 33.5574 16.647 33.5574C16.1817 33.5574 15.8715 33.3013 15.8715 32.9428C15.8715 32.5842 16.1817 32.3281 16.647 32.3281C18.87 32.3281 21.0414 32.3281 23.2644 32.3281C23.6263 32.3281 23.7297 32.2257 23.7297 31.8671C23.7297 31.1501 23.7297 30.433 23.7297 29.7159C23.7297 29.4086 23.6263 29.3062 23.3161 29.3062C19.8006 29.3062 16.2851 29.3062 12.8213 29.3062C12.5111 29.3062 12.4077 29.4086 12.4077 29.7159C12.4077 30.4842 12.4077 31.2013 12.4077 31.9696C12.4077 32.2769 12.5111 32.3793 12.8213 32.3793C13.0798 32.3793 13.3383 32.3793 13.5968 32.3793C13.9587 32.3793 14.2172 32.6867 14.2172 32.994C14.2172 33.3525 13.9587 33.6086 13.5968 33.6086C13.2349 33.6086 12.9247 33.6086 12.5628 33.6086C11.839 33.6086 11.2186 32.994 11.2186 32.2769C11.2186 31.355 11.2186 30.3818 11.2186 29.4598C11.2186 28.6915 11.839 28.1281 12.6662 28.1281C14.4239 28.0769 16.2851 28.0769 18.0946 28.0769Z" fill="#036EB7"/>
<path d="M14.1138 24.8501C10.9601 24.8501 7.85822 24.8501 4.7046 24.8501C4.5495 24.8501 4.3944 24.8501 4.23931 24.8501C3.92912 24.7989 3.72232 24.594 3.72232 24.2867C3.67062 23.9794 3.82572 23.7745 4.13591 23.6721C4.29101 23.6208 4.4461 23.6208 4.6012 23.6208C10.9601 23.6208 17.2674 23.6208 23.6263 23.6208C23.7814 23.6208 23.9365 23.6208 24.0916 23.6721C24.4018 23.7745 24.5569 23.9794 24.5569 24.2867C24.5569 24.594 24.3501 24.7989 24.0399 24.8501C23.8848 24.8501 23.7297 24.8501 23.5746 24.8501C20.421 24.8501 17.2674 24.8501 14.1138 24.8501Z" fill="#036EB7"/>
<path d="M14.1655 20.5988C17.3191 20.5988 20.4727 20.5988 23.6263 20.5988C23.7814 20.5988 23.8848 20.5988 24.0399 20.5988C24.3501 20.65 24.5569 20.8549 24.5569 21.111C24.6086 21.4183 24.4535 21.6232 24.1433 21.7257C23.9882 21.7769 23.8331 21.7769 23.678 21.7769C17.3191 21.7769 11.0119 21.7769 4.65292 21.7769C4.49783 21.7769 4.29103 21.7769 4.13594 21.7257C3.82575 21.6232 3.72235 21.3671 3.77405 21.0598C3.82575 20.7525 3.98084 20.5988 4.29103 20.5476C4.44613 20.5476 4.54953 20.5476 4.70462 20.5476C7.85824 20.5988 11.0119 20.5988 14.1655 20.5988Z" fill="#036EB7"/>
<path d="M9.09897 30.894C9.09897 31.3038 9.09897 31.7648 9.09897 32.1745C9.04727 33.0452 8.47858 33.6087 7.59971 33.6087C6.82423 33.6087 6.04875 33.6087 5.22157 33.6087C4.39439 33.6087 3.8257 33.0965 3.774 32.277C3.7223 31.355 3.7223 30.3818 3.774 29.4599C3.774 28.6404 4.39439 28.1282 5.22157 28.1282C5.99705 28.1282 6.77253 28.1282 7.59971 28.1282C8.47858 28.1282 9.04727 28.6916 9.09897 29.5623C9.09897 29.9721 9.09897 30.4331 9.09897 30.894ZM7.8582 30.894C7.8582 30.4843 7.8582 30.1257 7.8582 29.716C7.8582 29.4599 7.7548 29.3574 7.49631 29.3574C6.77253 29.3574 6.10044 29.3574 5.37666 29.3574C5.11817 29.3574 5.01477 29.4087 5.01477 29.716C5.01477 30.4843 5.01477 31.3038 5.01477 32.0721C5.01477 32.3282 5.11817 32.4306 5.37666 32.4306C6.10044 32.4306 6.82423 32.4306 7.54801 32.4306C7.8065 32.4306 7.9099 32.3282 7.9099 32.0721C7.8065 31.6111 7.8582 31.2526 7.8582 30.894Z" fill="#036EB7"/>
<path d="M21.6618 9.48415C20.938 9.48415 20.2142 9.48415 19.4904 9.48415C19.0252 9.48415 18.715 9.22805 18.715 8.86952C18.715 8.51098 18.9735 8.25488 19.4904 8.25488C20.938 8.25488 22.3339 8.25488 23.7814 8.25488C24.2467 8.25488 24.5569 8.51098 24.5569 8.86952C24.5569 9.22805 24.2467 9.48415 23.7814 9.48415C23.1094 9.48415 22.3856 9.48415 21.6618 9.48415Z" fill="#036EB7"/>
</svg>
