<svg width="42" height="42" viewBox="0 0 42 42" fill="none" xmlns="http://www.w3.org/2000/svg">
<path d="M1.1025 0C9.345 0 17.5875 0 25.8825 0C26.985 0.3675 27.0375 1.3125 26.985 2.31C27.6675 2.3625 28.35 2.205 28.875 2.73C29.4 3.2025 29.3475 3.885 29.3475 4.5675C29.5575 4.5675 29.715 4.5675 29.82 4.5675C30.9225 4.4625 31.71 5.145 31.6575 6.405C31.605 7.245 31.6575 8.1375 31.6575 8.9775C31.6575 9.0825 31.6575 9.24 31.6575 9.3975C31.815 9.3975 31.8675 9.3975 31.9725 9.3975C36.54 9.45 40.425 12.39 41.6325 16.8C41.79 17.43 41.895 18.06 42 18.69C42 19.2675 42 19.845 42 20.4225C42 20.5275 41.9475 20.6325 41.9475 20.7375C41.7375 21.63 41.58 22.5225 41.265 23.3625C40.8975 24.4125 40.2675 25.3575 39.5325 26.1975C39.27 26.5125 38.955 26.5125 38.64 26.3025C38.3775 26.0925 38.325 25.7775 38.5875 25.41C38.64 25.305 38.745 25.2 38.7975 25.1475C39.4275 24.36 39.9525 23.4675 40.2675 22.47C40.11 22.4175 40.005 22.365 39.9 22.365C37.38 21.6825 34.9125 21.0525 32.3925 20.37C32.13 20.3175 31.9725 20.37 31.7625 20.58C29.925 22.4175 28.0875 24.255 26.25 26.0925C26.145 26.1975 26.0925 26.25 25.9875 26.355C26.1975 26.5125 26.355 26.67 26.5125 26.775C26.8275 26.985 27.09 27.195 27.405 27.3525C30.24 28.875 33.075 28.9275 35.9625 27.51C36.4875 27.2475 36.8025 27.3 36.96 27.6675C37.17 28.035 37.065 28.4025 36.4875 28.6125C35.6475 28.9275 34.86 29.295 34.02 29.505C33.2325 29.715 32.3925 29.715 31.5525 29.8725C31.5525 29.9775 31.5525 30.135 31.5525 30.2925C31.5525 32.0775 31.5525 33.915 31.5525 35.7C31.5525 35.9625 31.395 36.2775 31.2375 36.4875C29.4525 38.2725 27.6675 40.0575 25.8825 41.8425C25.6725 42.0525 25.3575 42.1575 25.095 42.1575C18.795 42.1575 12.495 42.1575 6.195 42.1575C5.25 42.1575 4.6725 41.58 4.6725 40.635C4.6725 40.425 4.6725 40.215 4.6725 40.005C3.9375 39.7425 3.255 39.9 2.73 39.375C2.205 38.85 2.3625 38.1675 2.31 37.485C2.1525 37.485 1.995 37.485 1.8375 37.485C0.6825 37.59 0 36.9075 0 35.6475C0.0525 24.36 0 13.125 0 1.8375C0 0.9975 0.2625 0.3675 1.1025 0ZM30.345 9.45C30.345 8.4 30.345 7.35 30.345 6.3C30.345 5.88 30.1875 5.775 29.82 5.775C21.9975 5.775 14.2275 5.775 6.405 5.775C5.88 5.775 5.88 5.775 5.88 6.3525C5.88 17.64 5.88 28.9275 5.88 40.2675C5.88 40.845 5.88 40.845 6.405 40.845C12.3375 40.845 18.27 40.845 24.255 40.845C24.4125 40.845 24.5175 40.845 24.675 40.845C24.675 40.6875 24.675 40.53 24.675 40.3725C24.675 39.165 24.675 37.905 24.675 36.6975C24.675 35.7525 25.2525 35.175 26.1975 35.175C26.775 35.175 27.3525 35.175 27.9825 35.175C28.77 35.175 29.5575 35.175 30.345 35.175C30.345 33.3375 30.345 31.5 30.345 29.6625C27.8775 29.2425 25.83 28.14 24.2025 26.25C22.575 24.36 21.735 22.155 21.735 19.635C21.735 17.43 22.365 15.3825 23.6775 13.5975C25.305 11.235 27.5625 9.9225 30.345 9.45ZM4.6725 38.535C4.6725 38.325 4.6725 38.115 4.6725 37.9575C4.6725 27.405 4.6725 16.8525 4.6725 6.2475C4.6725 5.04 5.1975 4.515 6.405 4.515C13.44 4.515 20.475 4.515 27.51 4.515C27.6675 4.515 27.8775 4.515 28.035 4.515C28.14 3.5175 28.14 3.5175 27.2475 3.5175C22.155 3.5175 17.01 3.5175 11.9175 3.5175C11.76 3.5175 11.655 3.5175 11.4975 3.5175C11.13 3.465 10.92 3.255 10.92 2.8875C10.92 2.4675 11.1825 2.31 11.76 2.31C16.2225 2.31 20.685 2.31 25.1475 2.31C25.305 2.31 25.515 2.31 25.6725 2.31C25.725 2.205 25.725 2.1 25.725 1.995C25.725 1.2075 25.725 1.2075 24.99 1.2075C17.2725 1.2075 9.555 1.2075 1.89 1.2075C1.3125 1.2075 1.3125 1.2075 1.3125 1.8375C1.3125 13.0725 1.3125 24.36 1.3125 35.595C1.3125 35.7 1.26 35.8575 1.3125 35.9625C1.3125 36.0675 1.4175 36.225 1.5225 36.225C1.785 36.2775 2.0475 36.225 2.3625 36.225C2.3625 35.9625 2.3625 35.805 2.3625 35.595C2.3625 25.0425 2.3625 14.5425 2.3625 3.99C2.3625 2.835 2.94 2.31 4.0425 2.31C5.3025 2.31 6.615 2.31 7.875 2.31C8.4 2.31 8.6625 2.52 8.6625 2.94C8.6625 3.36 8.4525 3.5175 7.9275 3.5175C6.72 3.5175 5.5125 3.5175 4.305 3.5175C3.6225 3.5175 3.6225 3.5175 3.6225 4.2C3.6225 15.33 3.6225 26.46 3.6225 37.59C3.57 38.64 3.57 38.64 4.6725 38.535ZM34.9125 11.13C31.29 9.765 26.67 10.92 24.255 14.805C21.9975 18.4275 22.8375 22.9425 25.1475 25.305C25.2 25.2525 25.2525 25.2525 25.2525 25.2C27.2475 23.205 29.19 21.2625 31.185 19.2675C31.29 19.1625 31.395 18.9525 31.5 18.795C32.34 16.9575 33.1275 15.1725 33.9675 13.335C34.2825 12.6 34.5975 11.865 34.9125 11.13ZM40.5825 21.1575C41.37 17.85 39.69 13.44 36.0675 11.655C34.965 14.1225 33.8625 16.59 32.7075 19.0575C35.385 19.7925 37.9575 20.475 40.5825 21.1575ZM25.935 39.69C27.09 38.5875 28.245 37.4325 29.4525 36.2775C28.35 36.2775 27.3 36.2775 26.1975 36.2775C26.0925 36.2775 25.9875 36.4875 25.9875 36.5925C25.935 36.96 25.9875 37.3275 25.9875 37.695C25.935 38.3775 25.935 39.06 25.935 39.69Z" fill="#036EB7"/>
<path d="M10.4475 35.4375C10.4475 34.02 10.4475 32.655 10.4475 31.29C10.4475 30.555 10.605 30.3975 11.34 30.3975C12.075 30.3975 12.7575 30.3975 13.4925 30.3975C13.4925 30.24 13.4925 30.0825 13.4925 29.925C13.4925 28.875 13.4925 27.825 13.4925 26.8275C13.4925 26.25 13.7025 26.04 14.28 26.04C15.1725 26.04 16.1175 26.04 17.01 26.04C17.5875 26.04 17.745 26.25 17.7975 26.8275C17.7975 27.4575 17.7975 28.14 17.7975 28.8225C18.5325 28.8225 19.2675 28.8225 19.95 28.8225C20.7375 28.8225 20.895 28.98 20.895 29.7675C20.895 31.5 20.895 33.2325 20.895 34.965C20.895 35.1225 20.895 35.28 20.895 35.385C21.105 35.4375 21.315 35.4375 21.4725 35.4375C21.7875 35.5425 21.945 35.7525 21.8925 36.0675C21.8925 36.3825 21.6825 36.5925 21.3675 36.645C21.21 36.645 21.105 36.645 20.9475 36.645C17.3775 36.645 13.86 36.645 10.29 36.645C10.185 36.645 10.0275 36.645 9.92246 36.645C9.60746 36.5925 9.39746 36.435 9.39746 36.0675C9.39746 35.7 9.55496 35.49 9.92246 35.4375C10.08 35.4375 10.2375 35.4375 10.4475 35.4375ZM14.7525 27.3C14.7525 30.03 14.7525 32.7075 14.7525 35.4375C15.3825 35.4375 15.96 35.4375 16.5375 35.4375C16.5375 32.7075 16.5375 30.03 16.5375 27.3C15.96 27.3 15.3825 27.3 14.7525 27.3ZM17.85 30.0825C17.85 31.8675 17.85 33.6525 17.85 35.4375C18.48 35.4375 19.0575 35.4375 19.635 35.4375C19.635 33.6525 19.635 31.8675 19.635 30.0825C19.0575 30.0825 18.4275 30.0825 17.85 30.0825ZM13.4925 35.4375C13.4925 34.1775 13.4925 32.9175 13.4925 31.6575C12.8625 31.6575 12.285 31.6575 11.7075 31.6575C11.7075 32.9175 11.7075 34.1775 11.7075 35.4375C12.285 35.4375 12.8625 35.4375 13.4925 35.4375Z" fill="#036EB7"/>
<path d="M16.0126 10.1326C17.9551 10.1326 19.8976 10.1326 21.8401 10.1326C22.0501 10.1326 22.3651 10.2376 22.5226 10.3951C22.8376 10.7101 22.5751 11.2351 22.1551 11.3401C21.9976 11.3401 21.8926 11.3401 21.7351 11.3401C17.9026 11.3401 14.1226 11.3401 10.2901 11.3401C10.1851 11.3401 10.0801 11.3401 9.97506 11.3401C9.60756 11.2876 9.34506 11.0251 9.39756 10.7101C9.39756 10.3951 9.66006 10.1326 10.0276 10.1326C10.7101 10.1326 11.4451 10.1326 12.1276 10.1326C13.3876 10.1326 14.7001 10.1326 16.0126 10.1326Z" fill="#036EB7"/>
<path d="M14.6475 14.6475C16.065 14.6475 17.535 14.6475 18.9525 14.6475C19.11 14.6475 19.2675 14.6475 19.425 14.6475C19.74 14.7 19.8975 14.91 19.8975 15.1725C19.8975 15.4875 19.7925 15.6975 19.4775 15.8025C19.32 15.855 19.1625 15.855 19.0575 15.855C16.1175 15.855 13.23 15.855 10.29 15.855C10.185 15.855 10.1325 15.855 10.0275 15.855C9.66005 15.8025 9.39755 15.54 9.45005 15.225C9.45005 14.91 9.71255 14.6475 10.08 14.6475C10.815 14.6475 11.55 14.6475 12.285 14.6475C13.02 14.6475 13.8075 14.6475 14.6475 14.6475Z" fill="#036EB7"/>
<path d="M14.0175 19.1626C15.33 19.1626 16.6425 19.1626 17.955 19.1626C18.3225 19.1626 18.5325 19.3726 18.585 19.7401C18.585 20.1076 18.375 20.3176 18.0075 20.3701C17.9025 20.3701 17.745 20.3701 17.64 20.3701C16.6425 20.3701 15.6975 20.3701 14.7 20.3701C13.2825 20.3701 11.8125 20.3701 10.395 20.3701C10.29 20.3701 10.185 20.3701 10.08 20.3701C9.66002 20.3176 9.39752 20.1076 9.45002 19.7401C9.45002 19.3726 9.71252 19.1626 10.1325 19.1626C11.3925 19.1626 12.705 19.1626 14.0175 19.1626Z" fill="#036EB7"/>
</svg>
