<svg width="42" height="42" viewBox="0 0 42 42" fill="none" xmlns="http://www.w3.org/2000/svg">
<path d="M4.62002 10.1325C4.30502 9.45005 3.99002 8.82005 3.67502 8.24255C2.46752 5.77505 3.62252 3.09755 6.19502 2.20505C6.51002 2.04755 6.82502 1.78505 7.14002 1.57505C8.03252 0.892548 9.03002 0.420047 10.1325 0.157547C11.55 -0.157453 12.915 4.74008e-05 14.28 0.577547C14.8575 0.840047 15.435 1.10255 15.96 1.36505C18.6375 2.57255 19.7925 4.72505 19.3725 7.61255C20.37 7.61255 21.315 7.61255 22.365 7.61255C22.365 7.56005 22.365 7.45505 22.3125 7.35005C21.7875 5.14505 22.9425 3.04505 25.095 2.25755C25.515 2.10005 25.8825 1.78505 26.1975 1.52255C27.51 0.525048 28.9275 4.74236e-05 30.5025 4.74236e-05C31.08 4.74236e-05 31.71 0.0525474 32.235 0.262547C33.495 0.735047 34.8075 1.20755 35.9625 1.94255C38.115 3.25505 38.955 6.03755 38.0625 8.40005C37.8525 8.97755 37.59 9.55505 37.3275 10.1325C38.745 10.5 39.375 11.235 39.27 12.4425C39.165 13.4925 38.3775 14.175 37.1175 14.28C37.065 14.49 37.0125 14.6475 36.96 14.8575C36.4875 16.4325 35.5425 17.6925 34.1775 18.5851C33.915 18.7425 33.8625 18.9 33.8625 19.215C33.8625 19.6875 33.8625 20.16 33.8625 20.6325C35.805 21.42 37.695 22.26 39.6375 23.0476C41.265 23.625 42 24.6751 42 26.4601C42 29.295 42 32.13 42 34.9125C42 35.6475 41.79 35.8575 41.055 35.8575C39.585 35.8575 38.115 35.8575 36.54 35.8575C36.54 36.015 36.54 36.1725 36.54 36.33C36.54 37.905 36.54 39.48 36.54 41.0025C36.54 41.685 36.33 41.9475 35.6475 41.9475C25.83 41.9475 16.065 41.9475 6.24752 41.9475C5.56502 41.9475 5.35502 41.7375 5.35502 41.055C5.35502 39.48 5.35502 37.905 5.35502 36.3825C5.35502 36.225 5.35502 36.0676 5.35502 35.8575C4.67252 35.8575 4.04252 35.8575 3.41252 35.8575C2.52002 35.8575 1.68002 35.8575 0.78752 35.8575C0.15752 35.8575 -0.10498 35.6475 -0.10498 34.965C1.95429e-05 32.0775 1.95429e-05 29.1901 1.95429e-05 26.25C1.95429e-05 24.78 0.78752 23.5725 2.15252 22.995C4.04252 22.2075 5.88002 21.42 7.77002 20.6325C8.03252 20.5275 8.08502 20.4225 8.13752 20.1075C8.24252 19.1625 8.03252 18.5325 7.19252 17.955C5.93252 17.0625 5.25002 15.6975 4.88252 14.2275C3.30752 13.86 2.67752 13.2825 2.67752 12.1275C2.67752 11.13 3.36002 10.395 4.62002 10.1325ZM24.4125 27.93C24.5175 27.9825 24.6225 27.9825 24.7275 28.035C27.825 28.9276 30.975 29.7675 34.0725 30.6601C35.4375 31.0275 36.225 31.9725 36.4875 33.3376C36.54 33.7575 36.54 34.125 36.5925 34.545C37.9575 34.545 39.27 34.545 40.635 34.545C40.635 34.3876 40.635 34.23 40.635 34.0725C40.635 31.5525 40.635 29.0325 40.635 26.5125C40.635 25.305 40.215 24.675 39.1125 24.255C37.1175 23.4151 35.07 22.5751 33.075 21.7351C32.655 21.5775 32.4975 21.3151 32.4975 20.8426C32.4975 20.055 32.4975 19.2675 32.4975 18.5325C32.4975 18.1125 32.7075 17.9025 33.0225 17.6925C33.6 17.22 34.1775 16.8 34.65 16.275C35.3325 15.54 35.7 14.6475 35.805 13.65C35.91 13.02 36.12 12.8625 36.75 12.8625C36.9075 12.8625 37.065 12.8625 37.275 12.8625C37.695 12.81 37.9575 12.5475 37.9575 12.18C37.9575 11.8125 37.695 11.55 37.3275 11.55C37.1175 11.55 36.855 11.55 36.645 11.55C36.225 11.55 35.91 11.2875 35.9625 10.8675C35.9625 10.395 36.0675 9.97505 36.1725 9.50255C36.33 8.97755 36.645 8.45255 36.8025 7.92755C37.5375 5.93255 36.6975 3.78005 34.8075 2.83505C34.0725 2.46755 33.285 2.10005 32.4975 1.78505C30.87 1.15505 29.2425 1.26005 27.72 2.15255C26.7225 2.67755 25.8825 3.46505 24.8325 3.88505C23.7825 4.35755 23.415 5.35505 23.52 6.51005C23.625 7.56005 23.9925 8.40005 25.1475 8.66255C25.41 8.71505 25.62 8.82005 25.83 8.97755C26.46 9.39755 27.1425 9.81755 27.615 10.395C29.0325 12.075 29.295 14.0175 28.5075 16.065C28.2975 16.59 28.0875 17.0625 27.825 17.64C28.035 17.64 28.1925 17.64 28.35 17.64C29.5575 17.64 30.45 18.5325 30.45 19.635C30.45 20.7901 29.5575 21.6825 28.2975 21.6825C28.035 21.6825 27.825 21.6825 27.615 21.6825C27.09 23.4675 26.5125 24.465 25.41 25.4625C25.0425 25.7775 24.57 26.04 24.4125 26.4075C24.255 26.8275 24.36 27.405 24.36 27.8775C24.4125 27.825 24.4125 27.8251 24.4125 27.93ZM14.1225 17.5875C13.755 16.8525 13.3875 16.17 13.0725 15.4875C12.075 13.335 12.9675 10.815 15.12 9.87005C15.75 9.60755 16.275 9.24005 16.8 8.87255C17.01 8.71505 17.22 8.61005 17.3775 8.45255C17.4825 8.34755 17.64 8.24255 17.6925 8.08505C18.585 6.09005 17.745 3.78005 15.8025 2.78255C15.0675 2.41505 14.28 2.04755 13.545 1.73255C12.495 1.31255 11.445 1.26005 10.29 1.47005C9.18752 1.68005 8.29502 2.31005 7.40252 2.99255C7.19252 3.15005 6.93002 3.30755 6.66752 3.41255C4.77752 4.04255 3.99002 5.82755 4.88252 7.61255C5.19752 8.29505 5.61752 8.97755 5.88002 9.66005C6.03752 10.0275 6.03752 10.5 5.98502 10.92C5.98502 11.235 5.67002 11.3925 5.35502 11.445C5.09252 11.445 4.88252 11.445 4.62002 11.445C4.25252 11.4975 3.99002 11.76 3.99002 12.1275C3.99002 12.495 4.25252 12.7575 4.62002 12.81C4.83002 12.81 5.04002 12.81 5.19752 12.81C5.77502 12.81 5.98502 12.9675 6.03752 13.545C6.30002 15.3825 7.29752 16.7475 8.92502 17.64C9.24002 17.7975 9.39752 18.06 9.39752 18.4275C9.39752 19.1625 9.39752 19.8976 9.39752 20.685C9.39752 21.3675 9.34502 21.4725 8.71502 21.7351C6.72002 22.5751 4.72502 23.3625 2.73002 24.2025C1.68002 24.6225 1.26002 25.2525 1.26002 26.4075C1.26002 28.98 1.26002 31.5 1.26002 34.0725C1.26002 34.23 1.26002 34.3876 1.26002 34.545C2.57252 34.545 3.83252 34.545 5.14502 34.545C5.19752 34.545 5.25002 34.545 5.35502 34.545C5.35502 34.3876 5.35502 34.23 5.35502 34.0725C5.35502 32.34 6.30002 31.08 7.98002 30.6075C10.08 30.03 12.18 29.4525 14.2275 28.875C15.33 28.56 16.4325 28.2451 17.535 27.93C17.535 27.4576 17.535 26.985 17.535 26.565C17.535 26.3025 17.4825 26.1451 17.22 25.9875C15.8025 25.0425 14.805 23.73 14.385 22.1025C14.3325 21.9975 14.28 21.84 14.28 21.7351C12.285 21.5775 11.445 21 11.445 19.6875C11.4975 18.375 12.3375 17.6925 14.1225 17.5875ZM35.175 40.635C35.175 40.5826 35.175 40.53 35.175 40.4775C35.175 38.2725 35.175 36.0675 35.175 33.8625C35.175 32.9175 34.5975 32.1825 33.6525 31.92C30.5025 31.0275 27.3525 30.1875 24.2025 29.295C23.94 29.2425 23.835 29.2425 23.625 29.4525C22.9425 30.135 22.26 30.8176 21.5775 31.5C21.105 31.9725 20.79 31.9725 20.37 31.5C19.6875 30.8176 19.005 30.135 18.3225 29.4525C18.1125 29.2425 17.955 29.1901 17.6925 29.295C14.595 30.1875 11.4975 31.0275 8.34752 31.92C7.24502 32.2351 6.72002 32.9175 6.72002 34.0725C6.72002 36.12 6.72002 38.1675 6.72002 40.2675C6.72002 40.3725 6.72002 40.53 6.72002 40.635C8.08502 40.635 9.39752 40.635 10.7625 40.635C10.7625 38.85 10.7625 37.065 10.7625 35.28C11.235 35.28 11.655 35.28 12.1275 35.28C12.1275 37.065 12.1275 38.85 12.1275 40.635C18.0075 40.635 23.835 40.635 29.715 40.635C29.715 38.85 29.715 37.065 29.715 35.28C30.1875 35.28 30.6075 35.28 31.08 35.28C31.08 36.225 31.08 37.065 31.08 37.9576C31.08 38.85 31.08 39.7425 31.08 40.635C32.55 40.635 33.8625 40.635 35.175 40.635ZM16.485 15.96C15.9075 16.9575 15.3825 17.955 15.54 19.1625C15.5925 19.5825 15.54 20.0025 15.54 20.37C15.5925 23.1 17.64 25.3575 20.4225 25.6726C23.0475 25.9876 25.62 24.15 26.1975 21.525C26.4075 20.5275 26.3025 19.425 26.4075 18.4275C26.5125 17.43 25.83 16.7475 25.515 15.9075C22.47 18.165 19.53 18.165 16.485 15.96ZM14.91 16.065C15.1725 15.54 15.3825 15.12 15.5925 14.6475C15.855 14.175 16.275 14.07 16.695 14.385C17.115 14.7 17.4825 15.015 17.9025 15.2775C19.215 16.17 20.6325 16.4325 22.155 16.065C23.31 15.8025 24.2025 15.12 25.095 14.4375C25.6725 14.0175 26.04 14.07 26.355 14.7525C26.565 15.12 26.7225 15.4875 26.9325 15.9075C27.93 13.965 27.51 11.76 25.8825 10.605C24.5175 9.66005 23.0475 8.97755 21.3675 8.76755C20.2125 8.66255 19.11 8.92505 18.06 9.55505C19.2675 9.97505 20.16 10.6575 20.79 11.7075C20.4225 11.97 20.055 12.18 19.6875 12.4425C19.53 12.2325 19.3725 12.0225 19.215 11.865C18.375 10.92 17.325 10.5525 16.1175 10.8675C14.9625 11.1825 14.28 11.97 14.0175 13.125C13.86 14.2275 14.385 15.12 14.91 16.065ZM21 30.1875C21.6825 29.505 22.26 28.875 22.89 28.245C22.9425 28.1925 22.995 28.0875 22.995 27.9825C22.995 27.615 22.995 27.195 22.995 26.7225C21.63 27.1425 20.3175 27.1425 18.9525 26.7225C18.9525 27.1425 18.9525 27.51 18.9525 27.93C18.9525 28.035 19.005 28.1925 19.11 28.245C19.74 28.9275 20.37 29.505 21 30.1875ZM14.2275 18.9525C13.755 19.005 13.23 18.795 13.02 19.32C12.915 19.53 12.9675 19.845 13.0725 20.0025C13.335 20.475 13.8075 20.265 14.28 20.265C14.2275 19.845 14.2275 19.425 14.2275 18.9525ZM27.7725 20.3175C28.245 20.3175 28.7175 20.475 28.98 19.95C29.085 19.74 29.0325 19.425 28.9275 19.2675C28.665 18.795 28.1925 19.005 27.72 18.9525C27.7725 19.425 27.7725 19.845 27.7725 20.3175Z" fill="#036EB7"/>
</svg>
