<svg width="68" height="80" viewBox="0 0 68 80" fill="none" xmlns="http://www.w3.org/2000/svg">
<path d="M9.67546 79.9189C8.98614 79.5286 8.09988 79.2359 7.60751 78.6506C7.11514 78.0652 6.81972 77.1871 6.62277 76.4067C6.42583 75.6262 6.62277 74.8457 6.62277 73.8701C6.03193 73.8701 5.44109 73.8701 4.85025 73.8701C2.19146 73.8701 0.714355 72.4067 0.714355 69.7725C0.714355 49.9676 0.714355 30.1628 0.714355 10.2603C0.812829 7.72373 2.28993 6.35788 4.94872 6.35788C8.19835 6.35788 11.3495 6.35788 14.6976 6.35788C14.6976 5.67495 14.6976 5.08958 14.6976 4.40666C14.7961 2.06519 16.6671 0.113975 18.932 0.0164139C21.4923 -0.178708 23.6587 1.38227 23.9541 3.82129C24.0526 4.60178 23.9541 5.38227 23.9541 6.35788C24.7419 6.35788 25.3328 6.35788 26.0221 6.35788C27.1053 6.35788 28.287 6.35788 29.3702 6.35788C30.3549 6.35788 30.7488 6.74812 30.8473 7.82129C30.8473 8.40666 30.8473 8.99202 30.8473 9.57739C30.8473 16.2115 30.8473 22.8457 30.8473 29.3823C30.8473 32.114 29.4687 33.4798 26.7114 33.4798C21.6892 33.4798 16.7656 33.4798 11.7434 33.4798C9.28156 33.4798 7.80446 32.0164 7.80446 29.5774C7.80446 22.9432 7.80446 16.3091 7.80446 9.77251C7.80446 9.47983 7.80446 9.08959 7.80446 8.69934C6.62277 8.69934 5.44109 8.60178 4.25941 8.69934C3.86551 8.69934 3.57009 9.38227 3.27467 9.77251C3.1762 9.96763 3.27467 10.3579 3.27467 10.6506C3.27467 30.2603 3.27467 49.9676 3.27467 69.5774C3.27467 71.2359 3.57009 71.6262 5.34262 71.6262C20.7045 71.6262 36.0664 71.6262 51.5268 71.6262C53.2008 71.6262 53.5947 71.2359 53.5947 69.5774C53.5947 49.9676 53.5947 30.2603 53.5947 10.6506C53.5947 9.08959 53.2008 8.69934 51.6252 8.69934C46.4061 8.69934 41.2855 8.69934 36.0664 8.69934C35.8694 8.69934 35.574 8.69934 35.3771 8.69934C34.6878 8.60178 34.2939 8.21154 34.3923 7.52861C34.3923 6.84568 34.7862 6.45544 35.4756 6.35788C35.6725 6.35788 35.8694 6.35788 36.0664 6.35788C41.2855 6.35788 46.6031 6.35788 51.8222 6.35788C54.481 6.35788 55.9581 7.82129 55.9581 10.4554C55.9581 11.0408 55.9581 11.7237 55.9581 12.4067C56.352 12.4067 56.6474 12.4067 56.8443 12.4067C59.1092 12.4067 61.3741 12.4067 63.7375 12.4067C66.1009 12.4067 67.6764 13.8701 67.6764 16.3091C67.6764 36.3091 67.6764 56.2115 67.6764 76.2115C67.6764 78.2603 66.5932 79.431 64.6238 80.114C46.2092 79.9189 27.8931 79.9189 9.67546 79.9189ZM55.7611 14.7481C55.7611 15.2359 55.7611 15.5286 55.7611 15.9189C55.7611 33.7725 55.7611 51.7237 55.7611 69.5774C55.7611 69.8701 55.7611 70.1628 55.7611 70.553C55.6627 72.114 54.481 73.5774 52.9054 73.8701C52.413 73.9676 51.8222 73.9676 51.2313 73.9676C37.5435 73.9676 23.7572 73.9676 10.0694 73.9676C9.77393 73.9676 9.38004 73.9676 8.98614 73.9676C8.98614 74.6506 8.98614 75.1384 8.98614 75.7237C8.98614 77.2847 9.38004 77.6749 10.9556 77.6749C26.416 77.6749 41.8763 77.6749 57.2382 77.6749C58.8138 77.6749 59.2077 77.2847 59.2077 75.7237C59.2077 61.1871 59.2077 46.7481 59.2077 32.2115C59.2077 32.0164 59.2077 31.7237 59.2077 31.5286C59.2077 30.6506 59.7001 30.1628 60.3894 30.1628C61.0787 30.1628 61.5711 30.7481 61.5711 31.5286C61.5711 46.8457 61.5711 62.2603 61.5711 77.6749C61.965 77.6749 62.5558 77.6749 63.0482 77.6749C64.7222 77.6749 65.1161 77.3823 65.1161 75.6262C65.1161 56.0164 65.1161 36.3091 65.1161 16.6993C65.1161 16.4067 65.2146 16.0164 65.1161 15.8213C64.8207 15.431 64.5253 14.8457 64.1314 14.7481C63.3436 14.553 62.4573 14.7481 61.5711 14.7481C61.5711 15.431 61.6695 16.0164 61.6695 16.6993C61.6695 19.5286 61.6695 22.3579 61.6695 25.1871C61.6695 26.3579 61.2756 26.9432 60.4879 26.9432C59.7001 26.9432 59.3062 26.3579 59.3062 25.1871C59.3062 22.2603 59.3062 19.2359 59.3062 16.3091C59.3062 15.3335 58.8138 14.8457 57.8291 14.7481C57.1398 14.6506 56.4504 14.7481 55.7611 14.7481ZM17.061 8.69934C17.061 12.114 17.061 15.431 17.061 18.7481C17.061 19.8213 18.2427 20.6993 19.3259 20.6993C20.606 20.6993 21.4923 19.8213 21.5908 18.6506C21.5908 17.9676 21.5908 17.2847 21.5908 16.6018C21.5908 15.9189 22.1816 15.431 22.7725 15.431C23.4618 15.431 23.9541 15.8213 23.9541 16.5042C23.9541 17.4798 24.0526 18.3579 23.8557 19.3335C23.4618 21.675 21.2953 23.2359 18.932 23.0408C16.4701 22.8457 14.5991 20.992 14.5991 18.553C14.5991 15.5286 14.5991 12.6018 14.5991 9.57739C14.5991 9.28471 14.5991 8.99202 14.5991 8.7969C13.0236 8.7969 11.6449 8.7969 10.1678 8.7969C10.1678 8.99202 10.1678 9.08959 10.1678 9.18715C10.1678 16.0164 10.1678 22.9432 10.1678 29.7725C10.1678 30.8457 10.5617 31.2359 11.7434 31.2359C16.7656 31.2359 21.7877 31.2359 26.8099 31.2359C28.1885 31.2359 28.4839 30.8457 28.4839 29.4798C28.4839 22.8457 28.4839 16.2115 28.4839 9.57739C28.4839 9.28471 28.4839 8.99202 28.4839 8.7969C26.9083 8.7969 25.4312 8.7969 23.9541 8.7969C23.9541 9.38227 23.9541 9.96763 23.9541 10.553C23.9541 12.114 22.7725 13.4798 21.1969 13.675C20.4091 13.7725 19.7198 13.4798 19.6213 12.7969C19.4243 12.114 19.9167 11.6262 20.7045 11.3335C20.9999 11.2359 21.4923 10.8457 21.4923 10.553C21.5908 9.96763 21.4923 9.28471 21.4923 8.69934C20.1137 8.69934 18.6366 8.69934 17.061 8.69934ZM17.061 6.26032C18.6366 6.26032 20.1137 6.26032 21.5908 6.26032C21.5908 5.57739 21.5908 4.89446 21.5908 4.3091C21.4923 3.13837 20.606 2.35788 19.3259 2.35788C18.2427 2.35788 17.1595 3.13837 16.9625 4.11398C17.061 4.7969 17.061 5.47983 17.061 6.26032Z" fill="black"/>
<path d="M35.1803 53.48C38.5284 53.48 41.9749 53.48 45.323 53.48C47.194 53.48 48.2773 54.5532 48.2773 56.4068C48.2773 57.9678 48.2773 59.5288 48.2773 61.0897C48.2773 62.8458 47.0956 63.919 45.4215 63.919C41.0887 63.919 36.7558 63.919 32.423 63.919C31.5367 63.919 30.9459 63.4312 30.9459 62.7483C30.9459 62.0653 31.5367 61.5775 32.423 61.5775C36.6574 61.5775 40.7933 61.5775 45.0276 61.5775C45.7169 61.5775 45.9139 61.3824 45.9139 60.6995C45.9139 59.3336 45.9139 57.9678 45.9139 56.6019C45.9139 56.0166 45.7169 55.8214 45.1261 55.8214C38.4299 55.8214 31.7337 55.8214 25.1359 55.8214C24.5451 55.8214 24.3481 56.0166 24.3481 56.6019C24.3481 58.0653 24.3481 59.4312 24.3481 60.8946C24.3481 61.48 24.5451 61.6751 25.1359 61.6751C25.6283 61.6751 26.1207 61.6751 26.613 61.6751C27.3024 61.6751 27.7947 62.2605 27.7947 62.8458C27.7947 63.5288 27.3024 64.0166 26.613 64.0166C25.9237 64.0166 25.3329 64.0166 24.6436 64.0166C23.2649 64.0166 22.0833 62.8458 22.0833 61.48C22.0833 59.7239 22.0833 57.8702 22.0833 56.1141C22.0833 54.6507 23.2649 53.5775 24.8405 53.5775C28.1886 53.48 31.7337 53.48 35.1803 53.48Z" fill="black"/>
<path d="M27.5978 47.3336C21.5909 47.3336 15.6824 47.3336 9.67555 47.3336C9.38013 47.3336 9.08471 47.3336 8.78929 47.3336C8.19844 47.2361 7.80455 46.8458 7.80455 46.2605C7.70608 45.6751 8.0015 45.2849 8.59234 45.0897C8.88776 44.9922 9.18318 44.9922 9.4786 44.9922C21.5909 44.9922 33.6046 44.9922 45.7169 44.9922C46.0123 44.9922 46.3078 44.9922 46.6032 45.0897C47.194 45.2849 47.4894 45.6751 47.4894 46.2605C47.4894 46.8458 47.0955 47.2361 46.5047 47.3336C46.2093 47.3336 45.9139 47.3336 45.6184 47.3336C39.6115 47.3336 33.6047 47.3336 27.5978 47.3336Z" fill="black"/>
<path d="M27.6963 39.2357C33.7032 39.2357 39.7101 39.2357 45.717 39.2357C46.0124 39.2357 46.2093 39.2357 46.5048 39.2357C47.0956 39.3333 47.4895 39.7235 47.4895 40.2114C47.588 40.7967 47.2925 41.187 46.7017 41.3821C46.4063 41.4796 46.1109 41.4796 45.8154 41.4796C33.7032 41.4796 21.6894 41.4796 9.57714 41.4796C9.28172 41.4796 8.88782 41.4796 8.5924 41.3821C8.00156 41.187 7.80461 40.6992 7.90309 40.1138C8.00156 39.5284 8.29698 39.2357 8.88782 39.1382C9.18324 39.1382 9.38019 39.1382 9.67561 39.1382C15.6825 39.2357 21.6894 39.2357 27.6963 39.2357Z" fill="black"/>
<path d="M18.0457 58.8459C18.0457 59.6264 18.0457 60.5045 18.0457 61.285C17.9473 62.9435 16.8641 64.0167 15.19 64.0167C13.7129 64.0167 12.2358 64.0167 10.6602 64.0167C9.08464 64.0167 8.00143 63.0411 7.90296 61.4801C7.80448 59.724 7.80448 57.8703 7.90296 56.1142C7.90296 54.5532 9.08464 53.5776 10.6602 53.5776C12.1373 53.5776 13.6144 53.5776 15.19 53.5776C16.8641 53.5776 17.9473 54.6508 18.0457 56.3093C18.0457 57.0898 18.0457 57.9679 18.0457 58.8459ZM15.6824 58.8459C15.6824 58.0654 15.6824 57.3825 15.6824 56.602C15.6824 56.1142 15.4854 55.9191 14.9931 55.9191C13.6144 55.9191 12.3343 55.9191 10.9556 55.9191C10.4633 55.9191 10.2663 56.0167 10.2663 56.602C10.2663 58.0654 10.2663 59.6264 10.2663 61.0898C10.2663 61.5776 10.4633 61.7728 10.9556 61.7728C12.3343 61.7728 13.7129 61.7728 15.0915 61.7728C15.5839 61.7728 15.7808 61.5776 15.7808 61.0898C15.5839 60.2118 15.6824 59.5289 15.6824 58.8459Z" fill="black"/>
<path d="M41.9748 18.0651C40.5962 18.0651 39.2176 18.0651 37.8389 18.0651C36.9527 18.0651 36.3618 17.5773 36.3618 16.8944C36.3618 16.2114 36.8542 15.7236 37.8389 15.7236C40.5962 15.7236 43.255 15.7236 46.0122 15.7236C46.8985 15.7236 47.4893 16.2114 47.4893 16.8944C47.4893 17.5773 46.8985 18.0651 46.0122 18.0651C44.7321 18.0651 43.3535 18.0651 41.9748 18.0651Z" fill="black"/>
</svg>
