<svg width="36" height="42" viewBox="0 0 36 42" fill="none" xmlns="http://www.w3.org/2000/svg">
<path d="M0.964992 41.9946C0.533692 41.7206 0.425867 41.3262 0.415085 40.8221C0.371955 38.521 0.792472 36.3405 2.02168 34.3682C3.17541 32.5054 4.73887 31.1138 6.64737 30.0948C8.4804 29.1086 10.3781 28.2868 12.3837 27.7389C12.6317 27.6732 12.7611 27.5636 12.7179 27.2896C12.7179 27.2677 12.7179 27.2349 12.7179 27.2129C12.7934 26.6212 12.5885 26.1939 12.1788 25.7337C10.928 24.353 10.087 22.6985 9.37534 20.9781C9.2783 20.748 9.15969 20.6056 8.9117 20.5398C8.45883 20.4083 8.14614 20.0906 7.93049 19.6742C7.21884 18.2936 6.49642 16.9239 5.80634 15.5323C5.03 13.9873 5.70929 12.3984 7.33745 11.8834C7.40215 11.8615 7.45606 11.8396 7.45606 11.8396C7.41293 10.8315 7.3051 9.84534 7.34823 8.88108C7.54232 4.64054 10.8741 0.860214 15.0038 0.18085C15.7262 0.060318 16.4702 0.0274455 17.2034 0.060318C17.9367 0.0931904 18.562 0.476702 19.0904 0.969788C19.1227 0.969788 19.1659 0.980746 19.1766 0.958831C20.3951 -0.136917 21.7968 -0.169789 23.274 0.246595C25.8834 0.969788 27.7811 3.29277 27.932 6.03214C28.0399 7.96066 27.9967 9.87821 27.4684 11.7191C27.8566 11.9273 28.2555 12.0807 28.579 12.3327C29.5386 13.0668 29.819 14.3269 29.2691 15.4117C28.5574 16.8143 27.8242 18.2169 27.1018 19.6194C26.8753 20.0577 26.5303 20.3645 26.0667 20.5398C25.9049 20.6056 25.7432 20.7699 25.6785 20.9233C25.0962 22.3259 24.3846 23.6518 23.522 24.89C23.3279 25.1639 23.1446 25.4817 22.8858 25.6789C22.3359 26.0953 22.2604 26.6322 22.3036 27.2677C22.3251 27.5307 22.3898 27.6403 22.6486 27.717C24.3415 28.1772 25.9588 28.8346 27.5331 29.6126C29.3122 30.5002 30.9404 31.585 32.2019 33.1738C33.8193 35.2119 34.5956 37.5349 34.6172 40.1428C34.6172 40.3619 34.6064 40.5811 34.6172 40.8002C34.6603 41.3042 34.4986 41.6987 34.0673 41.9727C29.6788 41.9727 25.3011 41.9727 20.9126 41.9727C20.8911 41.9398 20.8695 41.9069 20.8371 41.885C20.4382 41.6001 20.3088 41.3042 20.4166 40.9207C20.5245 40.5372 20.8371 40.329 21.3224 40.329C25.0315 40.329 28.7407 40.329 32.4607 40.329C32.6224 40.329 32.7734 40.329 32.9567 40.329C32.9675 40.1756 32.9782 40.0661 32.9675 39.9674C32.7949 36.5158 31.3285 33.8203 28.4172 31.9904C26.9616 31.0809 25.4089 30.3577 23.7916 29.7879C23.2848 29.6126 22.778 29.4592 22.2712 29.2949C21.5596 31.6617 20.1039 33.119 17.6563 33.1738C15.0793 33.2286 13.5374 31.7603 12.7826 29.3168C12.6748 29.3496 12.5777 29.3716 12.4699 29.4044C10.432 30.018 8.52353 30.8727 6.70128 31.9466C4.69574 33.1409 3.3048 34.8503 2.5608 37.0966C2.21576 38.1375 2.03246 39.2004 2.07559 40.3509C2.26968 40.3509 2.42063 40.3509 2.58237 40.3509C5.79555 40.3509 9.00874 40.3509 12.2219 40.3509C12.7718 40.3509 13.3217 40.34 13.8716 40.3509C14.2706 40.3619 14.5186 40.5811 14.6264 40.9755C14.7235 41.359 14.5725 41.6439 14.2706 41.8521C14.1951 41.9069 14.1089 41.9507 14.0226 41.9946C9.67725 41.9946 5.32112 41.9946 0.964992 41.9946ZM21.8507 8.9797C21.3439 9.50566 20.8371 10.1741 20.201 10.6452C18.2709 12.0697 15.7047 11.993 13.7746 10.5137C13.1492 10.0316 12.4699 9.74672 11.672 9.88917C10.3673 10.1193 9.54786 11.1822 9.51552 12.6505C9.50473 13.4394 9.04109 13.79 8.32944 13.538C7.93049 13.3956 7.58545 13.4503 7.3051 13.7681C7.02476 14.0859 7.05711 14.4256 7.24041 14.7872C7.91971 16.1021 8.599 17.4279 9.2783 18.7428C9.33221 18.8414 9.4616 18.94 9.56943 18.94C10.2164 18.962 10.3781 19.0715 10.6045 19.6852C11.1437 21.2082 11.8877 22.6218 12.8042 23.9476C15.144 27.3335 19.8236 27.3335 22.1742 23.9476C23.1123 22.5889 23.8562 21.1315 24.4277 19.5646C24.611 19.0496 24.859 18.9072 25.3658 18.9181C25.4736 18.9181 25.6461 18.8305 25.7001 18.7428C26.3901 17.4279 27.0586 16.113 27.7487 14.7981C27.9428 14.4146 27.9644 14.064 27.6733 13.7352C27.3821 13.4065 27.0371 13.3846 26.6381 13.538C25.9804 13.7791 25.5168 13.5051 25.4089 12.8148C25.2364 11.7081 24.6649 10.8644 23.7592 10.2617C23.1123 9.81247 22.4545 9.37417 21.8507 8.9797ZM8.93326 9.51662C9.4616 9.17694 9.91447 8.77151 10.4536 8.5414C11.9739 7.873 13.3864 8.13598 14.7019 9.13311C17.1172 10.974 20.3412 9.69194 20.8695 6.67863C20.9126 6.42661 20.9126 6.16363 20.9665 5.91161C21.0528 5.51714 21.3763 5.28703 21.7644 5.29799C22.1526 5.30895 22.4545 5.56097 22.53 5.95544C22.5623 6.13076 22.5731 6.30608 22.5947 6.4814C22.7133 7.22651 23.0368 7.88395 23.6837 8.26747C24.5787 8.79342 25.4628 9.31938 26.1314 10.2727C26.196 9.82343 26.2715 9.48374 26.2823 9.13311C26.3147 8.17981 26.347 7.21555 26.3147 6.26225C26.25 4.03788 24.611 2.13128 22.4545 1.72585C21.6782 1.58341 20.9342 1.58341 20.2872 2.1532C19.5217 2.83256 18.7453 2.8216 17.969 2.14224C17.5593 1.7916 17.0956 1.61628 16.5565 1.63819C14.1196 1.72585 12.1033 2.71203 10.583 4.6515C9.48317 6.08693 8.94404 7.71959 8.93326 9.51662ZM14.3676 27.4211C14.2059 28.9552 14.5078 30.2591 15.8448 31.0919C16.977 31.8041 18.1523 31.7712 19.2629 31.0261C20.5245 30.1824 20.794 28.9004 20.6323 27.4211C18.5405 28.3744 16.4594 28.3525 14.3676 27.4211Z" fill="#036EB7"/>
<path d="M17.2682 41.9947C17.1819 41.9289 17.0957 41.8741 17.0094 41.8084C16.6213 41.4906 16.5997 40.9427 16.9447 40.5921C17.2682 40.2634 17.8181 40.2743 18.12 40.625C18.4435 40.9975 18.3788 41.5454 17.9798 41.8413C17.9044 41.896 17.8289 41.9508 17.7534 41.9947C17.5809 41.9947 17.4299 41.9947 17.2682 41.9947Z" fill="#036EB7"/>
<path d="M1.64433 26.6979C1.97859 26.6979 2.24815 26.6979 2.50693 26.6979C3.28327 26.6979 4.07039 26.6869 4.84673 26.7088C5.37508 26.7198 5.72012 27.0704 5.70933 27.5306C5.70933 27.9799 5.36429 28.3415 4.8683 28.3524C3.52049 28.3634 2.18346 28.3634 0.835644 28.3524C0.339649 28.3415 0.0269562 28.0237 0.0161737 27.5197C-0.00539125 26.15 -0.00539125 24.7913 0.0161737 23.4216C0.0269562 22.9175 0.382779 22.5779 0.824861 22.5669C1.28851 22.5669 1.62277 22.9175 1.63355 23.4544C1.64433 24.3749 1.63355 25.2843 1.64433 26.2048C1.64433 26.3472 1.64433 26.4897 1.64433 26.6979Z" fill="#036EB7"/>
<path d="M33.3666 26.6981C33.3666 25.8982 33.3666 25.1531 33.3666 24.408C33.3666 24.0683 33.3558 23.7287 33.3774 23.389C33.3989 22.9068 33.7332 22.5781 34.1645 22.5672C34.5958 22.5562 34.9516 22.8849 34.984 23.3671C35.0163 23.7725 34.9947 24.1889 34.9947 24.5943C34.9947 25.5147 34.9947 26.4242 34.9947 27.3446C34.9947 28.0569 34.6821 28.3637 33.9812 28.3637C32.7197 28.3637 31.4581 28.3637 30.1858 28.3637C29.8192 28.3637 29.528 28.2212 29.3663 27.8706C29.2153 27.5528 29.2477 27.2131 29.5065 27.0049C29.7113 26.8406 30.0025 26.731 30.2612 26.72C31.2748 26.6872 32.2884 26.6981 33.3666 26.6981Z" fill="#036EB7"/>
<path d="M1.64452 1.64898C1.64452 1.8243 1.64452 1.96675 1.64452 2.12015C1.64452 3.04058 1.6553 3.95005 1.64452 4.87048C1.63374 5.44026 1.31026 5.7909 0.83583 5.7909C0.3614 5.7909 0.0271424 5.42931 0.0271424 4.85952C0.00557737 3.54462 0.00557737 2.22973 0.0163599 0.914828C0.0163599 0.323125 0.339835 0.00535827 0.92209 0.00535827C2.21599 -0.0055992 3.49911 0.00535827 4.79301 0.00535827C5.33213 0.00535827 5.70952 0.355997 5.70952 0.827169C5.70952 1.3093 5.34292 1.64898 4.79301 1.64898C3.76867 1.64898 2.73355 1.64898 1.64452 1.64898Z" fill="#036EB7"/>
<path d="M33.3665 1.64899C32.3529 1.64899 31.3825 1.64899 30.4229 1.64899C29.6897 1.64899 29.3015 1.37506 29.3015 0.838139C29.2907 0.290265 29.6896 0.00537109 30.4444 0.00537109C31.6305 0.00537109 32.8058 0.00537109 33.9919 0.00537109C34.682 0.00537109 34.9946 0.301223 34.9946 0.991544C35.0054 2.27357 35.0054 3.55559 34.9946 4.84857C34.9946 5.4074 34.7035 5.74709 34.2399 5.79092C33.7439 5.82379 33.3773 5.47315 33.3773 4.8924C33.3665 3.97198 33.3773 3.06251 33.3773 2.14208C33.3665 1.97772 33.3665 1.83527 33.3665 1.64899Z" fill="#036EB7"/>
</svg>
