<svg width="37" height="42" viewBox="0 0 37 42" fill="none" xmlns="http://www.w3.org/2000/svg">
<path d="M2.14551 41.9863C1.98251 41.9206 1.81951 41.8658 1.65652 41.8001C0.635079 41.3948 0.0156959 40.4527 0.0048295 39.2586C-0.00603688 37.4182 0.0048295 35.5669 0.0048295 33.7265C0.0048295 31.9519 0.0048295 30.1772 0.0048295 28.3916C0.0048295 28.2383 -0.00603687 28.0849 0.0265623 27.9425C0.0808941 27.6577 0.254756 27.4824 0.548148 27.4605C0.852407 27.4276 1.0806 27.57 1.16753 27.8658C1.211 28.0301 1.22186 28.2164 1.22186 28.3916C1.22186 31.5027 1.22186 34.6248 1.22186 37.7359C1.22186 37.9002 1.22186 38.0536 1.22186 38.2946C5.64448 35.8517 9.99103 33.4417 14.2832 31.0646C9.9693 26.6827 5.65534 22.3228 1.28706 17.8862C1.26533 18.16 1.23273 18.3791 1.23273 18.5982C1.23273 20.7453 1.23273 22.8924 1.23273 25.0395C1.23273 25.6968 1.03714 26.0035 0.60248 25.9926C0.189558 25.9816 0.0156959 25.7077 0.0156959 25.0614C0.0156959 22.9143 0.0265623 20.7672 0.0048295 18.6201C-0.00603688 17.689 0.298222 16.9221 0.971937 16.2868C1.64565 15.6514 2.29763 14.9941 2.93875 14.3259C3.08001 14.1835 3.18868 13.9315 3.18868 13.7344C3.21041 12.0802 3.19954 10.4261 3.19954 8.77191C3.19954 7.0849 4.29705 5.97848 5.98134 5.97848C7.63302 5.96753 9.29558 5.96753 10.9473 5.98944C11.2733 5.98944 11.5015 5.9018 11.7296 5.67175C13.3161 4.08333 14.9135 2.50587 16.5109 0.928404C17.7605 -0.309468 19.2492 -0.309468 20.4988 0.928404C22.1179 2.52778 23.7261 4.12715 25.3561 5.71557C25.5082 5.86894 25.769 5.96753 25.9863 5.96753C27.6489 5.98944 29.3223 5.97848 30.9849 5.97848C32.7235 5.97848 33.7993 7.07394 33.8101 8.81573C33.8101 9.22105 33.821 9.63732 33.8101 10.0426C33.7993 10.437 33.5819 10.689 33.2342 10.6999C32.8756 10.7109 32.6148 10.4589 32.604 10.0536C32.5931 9.61542 32.604 9.17723 32.5931 8.73905C32.5822 7.78599 32.028 7.2054 31.0718 7.2054C27.5728 7.2054 24.0739 7.2054 20.5749 7.2054C15.7611 7.2054 10.9473 7.2054 6.13346 7.2054C4.9273 7.2054 4.42744 7.70931 4.42744 8.91432C4.42744 12.2336 4.42744 15.5528 4.41658 18.883C4.41658 19.1459 4.49264 19.3431 4.67737 19.5293C8.20894 23.0677 11.7296 26.606 15.2395 30.1663C15.4459 30.3744 15.5872 30.3854 15.8263 30.243C16.3044 29.9581 16.7934 29.6952 17.2824 29.4323C18.0647 29.027 18.8689 29.0051 19.6621 29.4104C20.1946 29.6843 20.7161 29.9691 21.2269 30.2758C21.4333 30.3963 21.5529 30.3744 21.7158 30.2101C25.2692 26.6279 28.8333 23.0458 32.3866 19.4527C32.5062 19.3322 32.5714 19.0912 32.5714 18.9159C32.5822 16.9331 32.5822 14.9503 32.5822 12.9675C32.5822 12.8032 32.5931 12.6389 32.6474 12.4855C32.7561 12.2117 32.9734 12.0912 33.2668 12.124C33.5711 12.1569 33.7667 12.3431 33.7884 12.6608C33.8101 13.0333 33.7667 13.4057 33.8101 13.7672C33.8319 13.9644 33.9079 14.1944 34.0383 14.3259C34.712 15.027 35.3966 15.6952 36.0921 16.3744C36.7006 16.966 36.994 17.678 36.994 18.5325C36.9831 25.4229 36.994 32.3134 36.994 39.2038C36.994 40.6389 36.3203 41.5262 34.9511 41.9425C34.9185 41.9534 34.8859 41.9863 34.8533 42.0082C32.441 42.0082 30.0286 42.0082 27.6163 42.0082C27.3229 41.822 27.1056 41.57 27.236 41.1976C27.3664 40.8251 27.6815 40.7594 28.0292 40.7813C28.1379 40.7923 28.2465 40.7813 28.3552 40.7813C30.3329 40.7813 32.3106 40.7813 34.2882 40.7813C35.0598 40.7813 35.5813 40.365 35.69 39.6968C35.6357 39.6639 35.5813 39.6201 35.527 39.5872C30.1156 36.5857 24.7041 33.5951 19.2926 30.5935C18.7385 30.2868 18.2277 30.3087 17.6736 30.6154C13.0227 33.2007 8.37194 35.775 3.72113 38.3494C2.90615 38.7985 2.09117 39.2586 1.28706 39.7077C1.51526 40.4636 1.98251 40.7813 2.84095 40.7813C10.1975 40.7813 17.5649 40.7813 24.9214 40.7813C25.2692 40.7813 25.5843 40.8251 25.7147 41.1976C25.8451 41.581 25.6277 41.811 25.3344 42.0082C17.6084 41.9863 9.8715 41.9863 2.14551 41.9863ZM35.7117 38.2727C35.7117 31.4589 35.7117 24.7109 35.7117 17.919C31.3435 22.3447 27.0295 26.7156 22.7264 31.0865C27.0186 33.4527 31.3543 35.8517 35.7117 38.2727ZM23.7587 5.95657C23.7261 5.87989 23.7261 5.84703 23.7153 5.83607C22.2918 4.43388 20.89 3.00978 19.4448 1.61854C18.858 1.0489 18.0756 1.09272 17.478 1.68427C16.1197 3.02074 14.7722 4.3572 13.4139 5.70462C13.3487 5.77034 13.2944 5.85798 13.2183 5.96753C16.7608 5.95657 20.238 5.95657 23.7587 5.95657ZM3.16694 17.9738C3.16694 17.2289 3.16694 16.5716 3.16694 15.9362C2.83009 16.2649 2.49323 16.6045 2.16724 16.9221C2.4715 17.2508 2.78662 17.5794 3.16694 17.9738ZM33.8427 15.8815C33.8427 16.5935 33.8427 17.2508 33.8427 17.9519C34.2013 17.5904 34.5382 17.2508 34.875 16.9112C34.5382 16.5716 34.2013 16.243 33.8427 15.8815Z" fill="#036EB7"/>
<path d="M18.4994 11.3684C21.5093 11.3684 24.5193 11.3684 27.5293 11.3684C27.6597 11.3684 27.801 11.3684 27.9314 11.3793C28.2791 11.4012 28.4856 11.5875 28.5182 11.938C28.5508 12.2776 28.3334 12.5296 27.9748 12.5843C27.8444 12.6062 27.7032 12.5953 27.5728 12.5953C21.5311 12.5953 15.4785 12.5953 9.43681 12.5953C9.26294 12.5953 9.07822 12.5953 8.91522 12.5515C8.61096 12.4748 8.4697 12.2447 8.49143 11.938C8.51316 11.6203 8.68703 11.4341 8.99128 11.3793C9.13255 11.3574 9.28468 11.3574 9.43681 11.3574C12.4468 11.3684 15.4676 11.3684 18.4994 11.3684Z" fill="#036EB7"/>
<path d="M18.4993 17.2946C15.4675 17.2946 12.425 17.2946 9.39324 17.2946C9.27371 17.2946 9.14332 17.3056 9.02379 17.2836C8.68693 17.2289 8.48047 17.0317 8.48047 16.6811C8.48047 16.3306 8.68693 16.1334 9.02379 16.0786C9.14332 16.0567 9.26285 16.0677 9.39324 16.0677C15.4675 16.0677 21.5419 16.0677 27.6162 16.0677C27.7357 16.0677 27.8661 16.0567 27.9856 16.0786C28.3225 16.1334 28.5289 16.3306 28.5289 16.6811C28.5289 17.0317 28.3225 17.2289 27.9856 17.2836C27.8661 17.3056 27.7465 17.2946 27.6162 17.2946C24.5736 17.2946 21.531 17.2946 18.4993 17.2946Z" fill="#036EB7"/>
<path d="M18.5103 20.7783C21.5312 20.7783 24.5521 20.7783 27.5729 20.7783C27.7468 20.7783 27.9315 20.7783 28.0945 20.8221C28.377 20.8988 28.5183 21.107 28.5074 21.4027C28.5074 21.6985 28.3553 21.8957 28.0728 21.9724C27.9315 22.0052 27.7794 22.0052 27.6272 22.0052C21.5312 22.0052 15.4243 22.0052 9.32826 22.0052C9.19787 22.0052 9.0566 22.0052 8.92621 21.9724C8.64368 21.9066 8.48069 21.7095 8.46982 21.4246C8.45895 21.1179 8.60022 20.8988 8.90447 20.8221C9.0566 20.7783 9.23047 20.7893 9.39346 20.7893C12.436 20.7783 15.4678 20.7783 18.5103 20.7783Z" fill="#036EB7"/>
</svg>
