<svg width="42" height="42" viewBox="0 0 42 42" fill="none" xmlns="http://www.w3.org/2000/svg">
<path d="M37.9575 16.275C38.64 16.275 39.2175 16.275 39.8475 16.275C41.16 16.275 42 17.115 42 18.4275C42 25.5675 42 32.7075 42 39.9C42 41.2125 41.16 42.0525 39.8475 42.0525C31.3425 42.0525 22.8375 42.0525 14.385 42.0525C13.0725 42.0525 12.2325 41.2125 12.2325 39.9C12.2325 35.8575 12.2325 31.7625 12.2325 27.72C12.2325 27.5625 12.2325 27.405 12.2325 27.195C12.0225 27.195 11.865 27.195 11.76 27.195C8.82 27.195 5.9325 27.195 2.9925 27.195C1.1025 27.09 0 25.9875 0 24.15C0 17.0625 0 9.975 0 2.8875C0 1.1025 1.1025 0 2.94 0C13.5975 0 24.3075 0 34.965 0C36.8025 0 37.905 1.1025 37.905 2.94C37.905 7.1925 37.905 11.445 37.905 15.6975C37.9575 15.855 37.9575 16.0125 37.9575 16.275ZM12.18 18.9525C12.18 18.8475 12.18 18.7425 12.18 18.6375C12.0225 17.2725 12.9675 16.2225 14.595 16.2225C21.735 16.275 28.9275 16.2225 36.0675 16.2225C36.225 16.2225 36.3825 16.2225 36.5925 16.2225C36.5925 16.0125 36.5925 15.9075 36.5925 15.75C36.5925 11.4975 36.5925 7.1925 36.5925 2.94C36.5925 1.8375 36.0675 1.365 34.965 1.365C24.3075 1.365 13.65 1.365 2.94 1.365C1.8375 1.365 1.3125 1.89 1.3125 2.94C1.3125 8.1375 1.3125 13.2825 1.3125 18.48C1.3125 18.6375 1.3125 18.795 1.3125 18.9525C4.9875 18.9525 8.5575 18.9525 12.18 18.9525ZM27.09 40.635C31.29 40.635 35.49 40.635 39.69 40.635C40.4775 40.635 40.6875 40.425 40.6875 39.6375C40.6875 32.6025 40.6875 25.5675 40.6875 18.5325C40.6875 17.745 40.4775 17.535 39.69 17.535C31.29 17.535 22.9425 17.535 14.5425 17.535C13.755 17.535 13.545 17.745 13.545 18.5325C13.545 25.5675 13.545 32.6025 13.545 39.6375C13.545 40.425 13.755 40.635 14.5425 40.635C18.69 40.635 22.89 40.635 27.09 40.635ZM12.18 20.37C8.5575 20.37 4.9875 20.37 1.365 20.37C1.365 21.6825 1.365 22.9425 1.365 24.2025C1.365 25.2525 1.89 25.7775 2.94 25.7775C5.88 25.7775 8.82 25.7775 11.76 25.7775C11.9175 25.7775 12.0225 25.7775 12.18 25.7775C12.18 23.94 12.18 22.155 12.18 20.37Z" fill="#036EB7"/>
<path d="M9.50248 2.73016C13.2825 2.73016 16.275 5.77516 16.275 9.55516C16.275 13.2827 13.1775 16.2752 9.44998 16.2752C5.72248 16.2752 2.72998 13.1777 2.72998 9.45016C2.72998 5.72266 5.77498 2.67766 9.50248 2.73016ZM14.91 9.50266C14.91 6.51016 12.495 4.04266 9.50248 4.04266C6.50998 4.04266 4.09498 6.51016 4.04248 9.45016C4.04248 12.4427 6.45748 14.9102 9.39748 14.9102C12.4425 14.9102 14.91 12.4952 14.91 9.50266Z" fill="#036EB7"/>
<path d="M17.6401 8.08496C17.6401 7.66496 17.6401 7.24496 17.6401 6.77246C23.5201 6.77246 29.3476 6.77246 35.2276 6.77246C35.2276 7.19246 35.2276 7.61246 35.2276 8.08496C29.3476 8.08496 23.5201 8.08496 17.6401 8.08496Z" fill="#036EB7"/>
<path d="M35.2274 9.50244C35.2274 9.97494 35.2274 10.3424 35.2274 10.8149C29.3474 10.8149 23.5199 10.8149 17.6924 10.8149C17.6924 10.3949 17.6924 9.97494 17.6924 9.50244C23.4674 9.50244 29.3474 9.50244 35.2274 9.50244Z" fill="#036EB7"/>
<path d="M31.1326 4.09521C31.1326 4.56772 31.1326 4.98772 31.1326 5.40772C27.9826 5.40772 24.8851 5.40772 21.6826 5.40772C21.6826 4.98772 21.6826 4.56772 21.6826 4.09521C24.8326 4.09521 27.9826 4.09521 31.1326 4.09521Z" fill="#036EB7"/>
<path d="M35.2273 4.09521C35.2273 4.51522 35.2273 4.93522 35.2273 5.40772C34.3348 5.40772 33.4423 5.40772 32.5498 5.40772C32.5498 4.98772 32.5498 4.56772 32.5498 4.09521C33.4423 4.09521 34.2823 4.09521 35.2273 4.09521Z" fill="#036EB7"/>
<path d="M27.1427 23.0474C30.8702 23.0474 34.5977 23.0474 38.3252 23.0474C39.1127 23.0474 39.3227 23.2574 39.3227 24.0449C39.3227 28.8224 39.3227 33.5999 39.3227 38.3774C39.3227 39.1649 39.1127 39.3749 38.3252 39.3749C30.8702 39.3749 23.3627 39.3749 15.9077 39.3749C15.1202 39.3749 14.9102 39.1649 14.9102 38.3774C14.9102 33.5999 14.9102 28.8224 14.9102 24.0449C14.9102 23.2574 15.1202 23.0474 15.9077 23.0474C19.6352 23.0474 23.3627 23.0474 27.1427 23.0474ZM21.6827 28.4549C21.6827 31.6049 21.6827 34.7549 21.6827 37.9049C25.7777 37.9049 29.7677 37.9049 33.8102 37.9049C33.8102 34.7549 33.8102 31.6049 33.8102 28.4549C29.8202 28.4549 25.7777 28.4549 21.6827 28.4549ZM16.2752 28.4549C16.2752 31.6049 16.2752 34.7549 16.2752 37.9049C17.6402 37.9049 18.9527 37.9049 20.2652 37.9049C20.2652 34.7549 20.2652 31.6049 20.2652 28.4549C18.9527 28.4549 17.6402 28.4549 16.2752 28.4549ZM33.8627 27.0899C33.8627 26.1974 33.8627 25.3049 33.8627 24.4124C29.8202 24.4124 25.7777 24.4124 21.7352 24.4124C21.7352 25.3049 21.7352 26.1974 21.7352 27.0899C25.7252 27.0899 29.7677 27.0899 33.8627 27.0899ZM35.2802 28.4549C35.2802 31.6049 35.2802 34.7549 35.2802 37.9049C36.1727 37.9049 37.0652 37.9049 37.9577 37.9049C37.9577 34.7549 37.9577 31.6049 37.9577 28.4549C37.0127 28.4549 36.1727 28.4549 35.2802 28.4549ZM16.2752 27.0374C17.6402 27.0374 18.9527 27.0374 20.2652 27.0374C20.2652 26.1449 20.2652 25.2524 20.2652 24.3599C18.9002 24.3599 17.5877 24.3599 16.2752 24.3599C16.2752 25.3049 16.2752 26.1449 16.2752 27.0374ZM35.2277 24.4124C35.2277 25.3049 35.2277 26.1974 35.2277 27.0899C36.1202 27.0899 37.0127 27.0899 37.8527 27.0899C37.8527 26.1974 37.8527 25.3049 37.8527 24.4124C37.0127 24.4124 36.1727 24.4124 35.2277 24.4124Z" fill="#036EB7"/>
<path d="M14.9102 19.0049C15.3827 19.0049 15.8027 19.0049 16.2227 19.0049C16.2227 19.8974 16.2227 20.7374 16.2227 21.6824C15.8027 21.6824 15.3827 21.6824 14.9102 21.6824C14.9102 20.7899 14.9102 19.8974 14.9102 19.0049Z" fill="#036EB7"/>
<path d="M18.9526 19.0049C18.9526 19.8974 18.9526 20.7374 18.9526 21.6299C18.5326 21.6299 18.1126 21.6299 17.6401 21.6299C17.6401 20.7374 17.6401 19.8974 17.6401 19.0049C18.0601 19.0049 18.4801 19.0049 18.9526 19.0049Z" fill="#036EB7"/>
<path d="M20.3701 19.0049C20.8426 19.0049 21.2101 19.0049 21.6826 19.0049C21.6826 19.8974 21.6826 20.7374 21.6826 21.6824C21.2626 21.6824 20.8426 21.6824 20.3701 21.6824C20.3701 20.7899 20.3701 19.8974 20.3701 19.0049Z" fill="#036EB7"/>
<path d="M32.5498 19.0049C33.0223 19.0049 33.3898 19.0049 33.8623 19.0049C33.8623 19.8974 33.8623 20.7374 33.8623 21.6824C33.4423 21.6824 33.0223 21.6824 32.5498 21.6824C32.5498 20.7899 32.5498 19.8974 32.5498 19.0049Z" fill="#036EB7"/>
<path d="M36.54 19.0049C36.54 19.8974 36.54 20.7374 36.54 21.6299C36.12 21.6299 35.6475 21.6299 35.2275 21.6299C35.2275 20.7374 35.2275 19.8974 35.2275 19.0049C35.6475 19.0049 36.0675 19.0049 36.54 19.0049Z" fill="#036EB7"/>
<path d="M39.27 21.6301C38.7975 21.6301 38.43 21.6301 37.9575 21.6301C37.9575 20.7376 37.9575 19.8976 37.9575 18.9526C38.3775 18.9526 38.7975 18.9526 39.27 18.9526C39.27 19.8451 39.27 20.7376 39.27 21.6301Z" fill="#036EB7"/>
<path d="M10.1851 13.545C9.71258 13.545 9.29258 13.545 8.87258 13.545C8.87258 13.4925 8.82008 13.4925 8.82008 13.4925C8.87258 13.02 8.71508 12.705 8.29508 12.4425C7.77008 12.1275 7.50758 11.55 7.45508 10.8675C7.87508 10.8675 8.29508 10.8675 8.76758 10.8675C8.82008 10.92 8.82008 11.025 8.87258 11.13C9.03008 11.445 9.29258 11.6025 9.66008 11.4975C9.97508 11.3925 10.1851 11.13 10.1326 10.815C10.0801 10.4475 9.87008 10.2375 9.55508 10.185C9.34508 10.1325 9.13508 10.1325 8.97758 10.08C8.13758 9.86996 7.66508 9.29246 7.50758 8.45246C7.35008 7.66496 7.61258 6.92996 8.29508 6.50996C8.71508 6.24746 8.92508 5.93246 8.76758 5.45996C9.24008 5.45996 9.66008 5.45996 10.1326 5.45996C9.97508 6.03746 10.3426 6.29996 10.7626 6.61496C11.2351 6.92996 11.4451 7.50746 11.4976 8.08496C11.0776 8.08496 10.6576 8.08496 10.1851 8.08496C10.1326 8.03246 10.1326 7.92746 10.0801 7.82246C9.92258 7.50746 9.66008 7.34996 9.29258 7.45496C8.97758 7.55996 8.76758 7.82246 8.82008 8.13746C8.87258 8.50496 9.08258 8.71496 9.39758 8.76746C9.60758 8.81996 9.81758 8.81996 9.97508 8.87246C10.7626 9.08246 11.2876 9.60746 11.4451 10.4475C11.6026 11.235 11.3401 11.97 10.6576 12.4425C10.2901 12.705 10.0276 12.9675 10.1851 13.545Z" fill="#036EB7"/>
</svg>
