<svg width="42" height="38" viewBox="0 0 42 38" fill="none" xmlns="http://www.w3.org/2000/svg">
<path d="M8.06326 8.76923C8.06326 7.17482 8.06326 5.62471 8.06326 4.07459C8.06326 3.6317 8.10823 3.18881 8.19816 2.79021C8.64784 1.15152 10.1318 0 11.8406 0C20.6543 0 29.423 0 38.2367 0C40.2603 0 41.9241 1.59441 41.969 3.58741C42.014 4.96037 41.969 6.37762 41.969 7.75058C41.969 8.37063 41.6543 8.63636 41.0247 8.63636C39.5857 8.63636 38.1018 8.63636 36.6628 8.63636C36.483 8.63636 36.3031 8.63636 36.0782 8.63636C36.0782 8.9021 36.0782 9.07925 36.0782 9.3007C36.0782 17.5385 36.0782 25.7762 36.0782 34.014C36.0782 36.0513 34.8191 37.6014 32.8855 37.9557C32.6157 38 32.3459 38 32.1211 38C23.4872 38 14.8084 38 6.17461 38C3.83628 38 2.21743 36.4056 2.21743 34.1026C2.21743 32.8625 2.21743 31.6667 2.21743 30.4266C2.21743 29.6294 2.48724 29.3636 3.29666 29.3636C4.73564 29.3636 6.12964 29.3636 7.56861 29.3636C7.74848 29.3636 7.92836 29.3636 8.15319 29.3636C8.15319 28.345 8.15319 27.4149 8.15319 26.4406C8.15319 26.352 7.92835 26.2191 7.79345 26.1748C4.6457 25.6876 2.35234 24.0932 0.958334 21.3916C-1.78471 16.0326 1.63285 9.74359 7.74848 8.81352C7.83842 8.81352 7.92835 8.81352 8.06326 8.76923ZM9.77204 29.3193C10.0868 29.3193 10.2667 29.3193 10.4915 29.3193C16.5622 29.3193 22.6329 29.3193 28.7035 29.3193C28.8384 29.3193 29.0183 29.3193 29.1532 29.3193C29.8277 29.3193 30.1425 29.5851 30.1425 30.2937C30.1425 31.4895 30.1425 32.7296 30.1425 33.9254C30.1425 34.1469 30.1425 34.4126 30.1875 34.634C30.3673 35.5641 31.2217 36.2727 32.211 36.317C33.2003 36.317 34.0997 35.697 34.3245 34.7669C34.4144 34.4569 34.4144 34.1026 34.4144 33.7482C34.4144 24.4918 34.4144 15.1911 34.4144 5.93473C34.4144 4.47319 34.0997 3.01165 35.044 1.63869C34.8191 1.63869 34.7292 1.63869 34.5943 1.63869C27.0847 1.63869 19.5301 1.63869 12.0204 1.63869C10.6714 1.63869 9.81701 2.48019 9.77204 3.80886C9.77204 5.35897 9.77204 6.8648 9.77204 8.41492C9.77204 8.54779 9.81701 8.68065 9.81701 8.76923C12.3802 9.16783 14.3138 10.1865 15.7977 11.958C16.0675 12.3124 16.3373 12.4009 16.7421 12.4009C20.9241 12.4009 25.1061 12.4009 29.2881 12.4009C29.423 12.4009 29.6029 12.4009 29.7378 12.4009C30.1425 12.4452 30.4573 12.7552 30.5022 13.1538C30.5472 13.5967 30.2324 13.951 29.8277 14.0396C29.6478 14.0839 29.468 14.0396 29.2881 14.0396C25.4209 14.0396 21.5986 14.0396 17.7314 14.0396C17.5515 14.0396 17.3716 14.0396 17.2367 14.0396C17.4166 14.8368 17.6864 15.5455 17.7763 16.3427C17.8663 17.0956 17.7763 17.8928 17.7763 18.7343C18.0012 18.7343 18.226 18.7343 18.4059 18.7343C22.0483 18.7343 25.6457 18.7343 29.2881 18.7343C29.468 18.7343 29.6928 18.7343 29.8727 18.7786C30.2774 18.8671 30.5472 19.1329 30.5472 19.5758C30.5472 20.0186 30.3224 20.2844 29.9176 20.373C29.6928 20.4172 29.5129 20.4172 29.2881 20.4172C25.4658 20.4172 21.6885 20.4172 17.8663 20.4172C17.6414 20.4172 17.4166 20.373 17.2817 20.683C15.9326 23.7832 13.5943 25.6434 10.1767 26.1748C10.0418 26.1748 9.90694 26.352 9.90694 26.4406C9.72707 27.3706 9.77204 28.3007 9.77204 29.3193ZM3.79131 31.0023C3.79131 32.0653 3.79131 33.0839 3.79131 34.1026C3.79131 35.4755 4.69067 36.3613 6.08467 36.3613C13.5943 36.3613 21.1039 36.3613 28.5686 36.3613C28.7035 36.3613 28.8384 36.3613 29.0183 36.317C27.984 34.634 28.6136 32.7739 28.3438 31.0023C20.1596 31.0023 12.0204 31.0023 3.79131 31.0023ZM8.91765 10.4079C4.96047 10.4079 1.72279 13.5967 1.72279 17.4942C1.72279 21.4359 4.96047 24.6247 8.96262 24.5804C12.9198 24.5804 16.1125 21.3473 16.1125 17.4499C16.1125 13.5967 12.8748 10.4079 8.91765 10.4079ZM40.3052 6.95338C40.3052 5.80186 40.3502 4.69464 40.3052 3.58741C40.2603 2.52448 39.3609 1.68298 38.3266 1.63869C37.2474 1.59441 36.2132 2.34732 36.1232 3.36597C36.0333 4.56177 36.1232 5.75758 36.1232 6.95338C37.4723 6.95338 38.8663 6.95338 40.3052 6.95338Z" fill="#036EB7"/>
<path d="M22.0485 7.70628C19.6652 7.70628 17.2819 7.70628 14.9436 7.70628C14.7637 7.70628 14.5838 7.70628 14.4039 7.66199C13.9543 7.6177 13.7294 7.30768 13.6845 6.86478C13.6395 6.46618 13.9543 6.11187 14.359 6.02329C14.5388 5.979 14.7187 5.979 14.8986 5.979C19.7102 5.979 24.4768 5.979 29.2883 5.979C29.5132 5.979 29.738 5.979 29.9179 6.02329C30.3226 6.15616 30.5025 6.42189 30.5025 6.8205C30.5025 7.2191 30.2776 7.48483 29.8729 7.57341C29.6481 7.6177 29.4682 7.6177 29.2434 7.6177C26.8151 7.70628 24.4318 7.70628 22.0485 7.70628Z" fill="#036EB7"/>
<path d="M12.2451 15.2797C12.2451 15.7669 11.8854 16.1212 11.4357 16.1655C10.986 16.2098 10.6263 15.8998 10.5813 15.4126C10.4914 14.7482 10.1766 14.3496 9.54706 14.1282C8.87254 13.9068 8.19802 13.9953 7.65841 14.4825C7.07383 15.014 7.11879 15.7226 7.79331 16.0769C8.24299 16.3427 8.78261 16.4755 9.27725 16.697C9.68196 16.8298 10.0867 16.9627 10.4914 17.1399C11.5706 17.6713 12.2901 18.4242 12.2451 19.6643C12.2002 20.9044 11.4807 21.7459 10.3565 22.2331C9.95177 22.4103 9.72693 22.5431 9.68196 23.0303C9.68196 23.4289 9.32222 23.6503 8.91751 23.6061C8.5128 23.6061 8.15306 23.3846 8.15306 22.9417C8.15306 22.4988 7.92822 22.4103 7.56847 22.2331C6.48924 21.7902 5.81473 21.0373 5.63485 19.8858C5.54492 19.31 5.81473 18.8671 6.30937 18.7786C6.80402 18.69 7.16376 19 7.29867 19.62C7.43357 20.3287 7.92822 20.7716 8.6477 20.8601C9.41216 20.993 10.1766 20.6387 10.4464 20.0629C10.6713 19.62 10.6263 19.1772 10.1766 18.8671C9.7719 18.6014 9.27725 18.4685 8.82757 18.2914C8.33293 18.1142 7.79331 17.9813 7.29867 17.7156C6.2644 17.2284 5.54492 16.4312 5.58989 15.2354C5.63485 13.9953 6.35434 13.1096 7.47854 12.6667C7.83828 12.5338 8.06312 12.4009 8.10809 11.958C8.15306 11.5594 8.46783 11.338 8.91751 11.2937C9.32222 11.2937 9.68196 11.5594 9.72693 12.0023C9.72693 12.3566 9.9068 12.4895 10.2665 12.6224C11.4357 13.1096 12.2451 14.2168 12.2451 15.2797Z" fill="#036EB7"/>
</svg>
