<svg width="33" height="42" viewBox="0 0 33 42" fill="none" xmlns="http://www.w3.org/2000/svg">
<path d="M4.08376 39.1614C2.97 39.1614 1.90929 39.1614 0.795537 39.1614C0.159107 39.1614 0 39.0563 0 38.373C0 25.8623 0 13.2991 0 0.788486C0 0.105131 0.106072 0 0.795537 0C8.00841 0 15.2213 0 22.4341 0C22.7524 0 23.0175 0.105131 23.2297 0.315394C25.2981 2.31289 27.3665 4.31039 29.4349 6.25532C29.7531 6.57071 30.0183 6.88611 29.8592 7.41176C30.1774 7.41176 30.4425 7.41176 30.7077 7.41176C31.2911 7.41176 31.8215 7.41176 32.4049 7.41176C32.8292 7.41176 32.9883 7.56946 32.9883 7.98999C32.9883 8.09512 32.9883 8.14768 32.9883 8.25282C32.9883 19.239 32.9883 30.2253 32.9883 41.159C32.9883 41.8949 32.8822 42 32.1397 42C23.0706 42 13.9484 42 4.87929 42C4.13679 42 4.03072 41.8949 4.03072 41.159C4.08376 40.5282 4.08376 39.8974 4.08376 39.1614ZM28.8515 38.1627C28.8515 27.9124 28.8515 17.7672 28.8515 7.5169C28.6924 7.5169 28.5333 7.5169 28.3742 7.5169C26.5709 7.5169 24.7147 7.5169 22.9115 7.5169C22.3281 7.5169 22.169 7.3592 22.169 6.78098C22.169 5.04631 22.169 3.25907 22.169 1.52441C22.169 1.36671 22.169 1.20901 22.169 1.10388C15.0622 1.05131 8.06144 1.05131 1.06072 1.05131C1.06072 13.4568 1.06072 25.7572 1.06072 38.1627C10.342 38.1627 19.5702 38.1627 28.8515 38.1627ZM31.9806 41.0013C31.9806 30.1201 31.9806 19.2916 31.9806 8.46308C31.2911 8.46308 30.6017 8.46308 29.8592 8.46308C29.8592 8.67334 29.8592 8.83104 29.8592 9.0413C29.8592 18.8185 29.8592 28.5957 29.8592 38.3204C29.8592 39.0563 29.7531 39.1614 29.0106 39.1614C21.2143 39.1614 13.365 39.1614 5.56876 39.1614C5.40965 39.1614 5.25054 39.1614 5.09144 39.1614C5.09144 39.7922 5.09144 40.3705 5.09144 41.0013C14.1075 41.0013 23.0175 41.0013 31.9806 41.0013ZM23.2297 1.73467C23.2297 3.36421 23.2297 4.94118 23.2297 6.46558C24.8738 6.46558 26.4649 6.46558 28.162 6.46558C26.4649 4.88861 24.8738 3.31164 23.2297 1.73467Z" fill="#036EB7"/>
<path d="M9.06873 11.8799C8.53838 11.4068 8.16713 10.6709 7.95498 9.935C7.90195 9.7773 7.79587 9.61961 7.6898 9.56704C7.00034 8.98882 6.9473 8.20033 7.5307 7.56954C7.63677 7.46441 7.6898 7.30672 7.6898 7.14902C7.74284 6.62336 7.6898 6.04514 7.79587 5.51948C8.11409 3.62712 9.86427 2.26041 11.7205 2.36554C13.7359 2.47067 15.2739 4.10021 15.38 6.04514C15.38 6.30797 15.38 6.5708 15.38 6.78106C15.38 7.14902 15.38 7.46441 15.6982 7.77981C16.1755 8.2529 15.9634 9.04138 15.433 9.56704C15.2739 9.67217 15.1678 9.82987 15.1148 10.0401C14.7966 11.0914 14.6905 11.3017 13.948 12.0376C14.4784 12.1953 14.5314 12.6684 14.5845 13.0364C14.6905 13.5095 14.9027 13.8249 15.433 13.93C15.7512 13.9826 16.0695 14.1403 16.3346 14.2454C17.5014 14.7185 18.1909 15.7172 18.1909 16.9262C18.1909 17.925 18.1909 18.8712 18.1909 19.8699C18.1909 20.3956 18.0318 20.5533 17.5014 20.5533C13.5237 20.5533 9.54606 20.5533 5.56837 20.5533C5.03801 20.5533 4.87891 20.3956 4.87891 19.8699C4.87891 18.8712 4.87891 17.925 4.87891 16.9262C4.87891 15.7172 5.56837 14.6659 6.73516 14.2454C7.15945 14.0877 7.58373 13.9826 8.00802 13.7723C8.16713 13.7197 8.32623 13.562 8.37927 13.4043C8.48534 13.1415 8.53838 12.8787 8.64445 12.6159C8.75052 12.353 8.90963 12.1428 9.06873 11.8799ZM8.06105 8.41059C8.16713 8.56829 8.2732 8.62086 8.37927 8.72599C8.53838 8.93625 8.75052 9.09395 8.85659 9.30421C8.96266 9.51447 8.96266 9.72474 9.06873 9.935C9.38695 11.0389 10.3946 11.7748 11.5084 11.7748C12.6752 11.7748 13.6828 11.0389 14.0011 9.935C14.0541 9.72474 14.1071 9.51447 14.1602 9.30421C14.2132 8.98882 14.3193 8.77855 14.6905 8.62086C14.7966 8.56829 14.8496 8.46316 14.9027 8.35803C14.9027 8.30546 14.7436 8.2529 14.6905 8.14777C14.5845 8.04263 14.4784 7.9375 14.3723 7.83237C14.2662 7.72724 14.1602 7.56954 14.0541 7.51698C13.2586 7.35928 12.5691 6.99132 11.9327 6.51823C11.8266 6.46566 11.7205 6.36053 11.6145 6.4131C10.872 6.51823 10.1825 6.62336 9.43998 6.72849C9.22784 8.20033 9.22784 8.2529 8.06105 8.41059ZM10.2355 16.4531C9.59909 16.5057 9.49302 16.0326 9.22784 15.7172C8.90963 15.4018 8.69748 14.8236 8.32623 14.771C7.95498 14.6659 7.47766 14.9813 7.05337 15.1916C6.41694 15.4544 5.93962 15.8749 5.88659 16.5583C5.83355 17.557 5.88659 18.5558 5.88659 19.502C6.25784 19.502 6.62909 19.502 7.05337 19.502C7.05337 19.0289 7.05337 18.6083 7.05337 18.1878C7.05337 17.7673 7.26552 17.5045 7.58373 17.5045C8.00802 17.557 8.06105 17.8199 8.06105 18.1352C8.06105 18.5558 8.06105 19.0289 8.06105 19.502C8.53838 19.502 9.0157 19.502 9.43998 19.502C9.49302 19.502 9.65213 19.3968 9.65213 19.2917C9.86427 18.3981 10.0764 17.4519 10.2355 16.4531ZM12.8343 16.6108C12.9934 17.5045 13.2055 18.5032 13.3646 19.4494C13.895 19.4494 14.3723 19.4494 14.8496 19.4494C14.8496 18.9763 14.8496 18.5558 14.8496 18.1352C14.8496 17.6622 15.0087 17.4519 15.38 17.4519C15.8043 17.5045 15.9104 17.7673 15.8573 18.0827C15.8573 18.5032 15.8573 18.9763 15.8573 19.4494C16.2816 19.4494 16.6529 19.4494 17.0241 19.4494C17.0241 18.6083 17.0241 17.7147 17.0241 16.8737C17.0241 16.0326 16.5998 15.4544 15.8573 15.139C15.4861 14.9813 15.1148 14.8762 14.7966 14.7185C14.5845 14.6133 14.4253 14.6659 14.3193 14.8762C14.0541 15.2441 13.7889 15.6121 13.5237 15.9275C13.3646 16.1903 13.1525 16.348 12.8343 16.6108ZM8.75052 5.72974C10.0234 5.72974 11.1902 5.62461 12.357 5.20409C12.7812 5.04639 13.2055 5.25665 13.1525 5.67718C13.1525 5.83488 12.9934 5.99257 12.9403 6.20284C13.3646 6.36053 13.842 6.51823 14.2662 6.67593C14.4253 4.78356 13.3646 3.46942 11.6145 3.31172C10.2355 3.20659 8.85659 4.36304 8.75052 5.72974ZM12.357 19.502C12.0918 18.1878 11.8796 16.9262 11.6145 15.6647C11.5614 15.6647 11.5084 15.6647 11.4553 15.6647C11.1902 16.9262 10.925 18.1878 10.7128 19.502C11.2962 19.502 11.8266 19.502 12.357 19.502ZM10.4477 12.7735C10.5007 13.4569 11.1371 13.6672 11.5084 14.2454C11.8266 13.6672 12.6221 13.5095 12.5161 12.7735C11.8266 12.7735 11.1902 12.7735 10.4477 12.7735ZM10.7128 14.8762C10.2355 14.4031 9.86427 13.9826 9.33391 13.4569C9.33391 13.7723 9.22784 14.0351 9.28088 14.1403C9.49302 14.5082 9.81123 14.8762 10.1294 15.2441C10.3416 15.0864 10.5007 14.9813 10.7128 14.8762ZM12.9403 15.2967C13.0995 14.6133 14.0011 14.4031 13.7359 13.6672C13.3116 14.0877 12.8343 14.4556 12.41 14.8762C12.5161 15.0339 12.6752 15.0864 12.9403 15.2967Z" fill="#036EB7"/>
<path d="M7.31921 28.7535C5.40992 28.7535 3.87188 27.2817 3.81885 25.3368C3.81885 23.4444 5.35689 21.8674 7.26617 21.8674C9.17546 21.8674 10.7665 23.3918 10.7665 25.2842C10.7665 27.1766 9.2285 28.701 7.31921 28.7535ZM7.26617 27.7022C8.6451 27.7022 9.70582 26.5983 9.70582 25.2316C9.70582 23.9175 8.59207 22.8136 7.26617 22.8662C5.94028 22.8662 4.82653 23.9701 4.82653 25.2842C4.82653 26.6509 5.94028 27.7022 7.26617 27.7022Z" fill="#036EB7"/>
<path d="M7.26617 36.8487C5.35689 36.8487 3.81885 35.3243 3.81885 33.4319C3.81885 31.5395 5.35689 30.0151 7.26617 30.0151C9.2285 30.0151 10.7665 31.5395 10.7135 33.4845C10.7135 35.3243 9.17546 36.8487 7.26617 36.8487ZM7.26617 35.8499C8.64511 35.8499 9.70582 34.746 9.70582 33.3793C9.70582 32.0652 8.59207 30.9613 7.26617 31.0139C5.94028 31.0139 4.82653 32.1178 4.82653 33.4319C4.82653 34.746 5.94028 35.8499 7.26617 35.8499Z" fill="#036EB7"/>
<path d="M19.6767 23.8124C21.6921 23.8124 23.6544 23.8124 25.6697 23.8124C25.7758 23.8124 25.988 23.7599 26.041 23.8124C26.2001 23.9176 26.4122 24.1278 26.4653 24.2855C26.5183 24.5483 26.3062 24.7586 26.041 24.8112C25.9349 24.8112 25.8288 24.8112 25.7228 24.8112C21.639 24.8112 17.5553 24.8112 13.4715 24.8112C13.3654 24.8112 13.1533 24.8637 13.1003 24.7586C12.9411 24.6535 12.729 24.4432 12.729 24.2855C12.729 24.1278 12.9411 23.9176 13.1003 23.8124C13.2063 23.7599 13.3654 23.8124 13.4715 23.8124C15.5929 23.8124 17.6083 23.8124 19.6767 23.8124Z" fill="#036EB7"/>
<path d="M19.6237 31.9073C21.639 31.9073 23.7074 31.9073 25.7228 31.9073C25.8288 31.9073 26.041 31.8547 26.094 31.9073C26.2531 32.065 26.4653 32.2227 26.4653 32.433C26.4653 32.5907 26.2531 32.7484 26.094 32.906C26.041 32.9586 25.9349 32.906 25.8288 32.906C21.6921 32.906 17.5553 32.906 13.4185 32.906C13.3654 32.906 13.2594 32.906 13.2063 32.906C12.8881 32.8535 12.729 32.6958 12.729 32.3804C12.729 32.065 12.8881 31.9073 13.2063 31.8547C13.4715 31.8547 13.7367 31.8547 13.9488 31.8547C15.8581 31.9073 17.7674 31.9073 19.6237 31.9073Z" fill="#036EB7"/>
<path d="M2.12109 10.3555C2.12109 8.62078 2.12109 6.93868 2.12109 5.20401C2.12109 5.09888 2.12109 4.99375 2.12109 4.88862C2.17413 4.57322 2.33324 4.41553 2.65145 4.41553C2.96967 4.41553 3.12877 4.62579 3.12877 4.88862C3.12877 5.15145 3.12877 5.41428 3.12877 5.62454C3.12877 8.93618 3.12877 12.2478 3.12877 15.5595C3.12877 15.7172 3.18181 15.8749 3.12877 15.98C3.0227 16.1377 2.81056 16.4005 2.65145 16.4005C2.49234 16.4005 2.2802 16.1902 2.17413 15.98C2.12109 15.9274 2.17413 15.7172 2.17413 15.612C2.12109 13.8248 2.12109 12.0901 2.12109 10.3555Z" fill="#036EB7"/>
<path d="M16.6537 26.4931C15.5929 26.4931 14.4792 26.4931 13.4185 26.4931C12.9411 26.4931 12.729 26.3354 12.729 26.02C12.729 25.7046 12.9411 25.4944 13.4185 25.4944C15.5929 25.4944 17.7144 25.4944 19.8888 25.4944C20.3662 25.4944 20.5783 25.6521 20.5783 26.02C20.5783 26.3354 20.3662 26.4931 19.8888 26.4931C18.7751 26.4931 17.7144 26.4931 16.6537 26.4931Z" fill="#036EB7"/>
<path d="M16.6537 34.6408C15.5929 34.6408 14.4792 34.6408 13.4185 34.6408C12.9942 34.6408 12.729 34.4306 12.729 34.1152C12.782 33.7472 13.0472 33.6421 13.3654 33.6421C15.5399 33.6421 17.7144 33.6421 19.8888 33.6421C20.3131 33.6421 20.5253 33.7998 20.5253 34.1152C20.5253 34.4306 20.3131 34.6408 19.8888 34.6408C18.8281 34.6408 17.7144 34.6408 16.6537 34.6408Z" fill="#036EB7"/>
<path d="M3.12877 2.99627C3.12877 3.41679 2.96967 3.62706 2.65145 3.67962C2.33324 3.67962 2.12109 3.46936 2.12109 3.04883C2.12109 2.62831 2.2802 2.36548 2.65145 2.36548C2.96967 2.36548 3.12877 2.57574 3.12877 2.99627Z" fill="#036EB7"/>
<path d="M7.10689 25.3892C7.4251 25.0213 7.69028 24.6533 8.0085 24.3379C8.22064 24.0751 8.53885 24.0225 8.80403 24.2853C9.06921 24.4956 9.01618 24.811 8.69796 25.0738C8.27367 25.4944 7.84939 25.9149 7.37206 26.3354C7.05385 26.6508 6.84171 26.6508 6.47046 26.3354C6.20528 26.1251 5.99313 25.8623 5.72796 25.5995C5.51581 25.3892 5.51581 25.1264 5.72796 24.8636C5.9401 24.6533 6.20528 24.6533 6.47046 24.8636C6.62956 25.0213 6.73564 25.179 6.84171 25.3367C6.94778 25.3367 7.00081 25.3367 7.10689 25.3892Z" fill="#036EB7"/>
<path d="M7.05348 33.537C7.37169 33.169 7.68991 32.7485 8.00812 32.4331C8.22027 32.1703 8.53848 32.1177 8.80366 32.3806C9.06884 32.6434 8.96277 32.9062 8.69759 33.169C8.2733 33.5896 7.79598 34.0101 7.37169 34.4306C7.10651 34.6935 6.7883 34.6935 6.52312 34.4306C6.25794 34.1678 6.0458 33.9575 5.78062 33.6947C5.56848 33.4319 5.51544 33.169 5.78062 32.9588C5.99276 32.7485 6.25794 32.8011 6.52312 33.0114C6.62919 33.1165 6.7883 33.2742 7.05348 33.537Z" fill="#036EB7"/>
</svg>
