<svg width="39" height="42" viewBox="0 0 39 42" fill="none" xmlns="http://www.w3.org/2000/svg">
<path d="M27.6721 0.0333333C27.8714 0.133333 28.1039 0.2 28.3032 0.3C29.0341 0.733333 29.4327 1.36667 29.4659 2.23333C29.4659 2.56667 29.4659 2.9 29.4659 3.3C30.1635 3.3 30.8279 3.3 31.4923 3.3C32.9208 3.3 33.8842 4.23333 33.8842 5.66667C33.8842 7.26667 33.8842 8.83333 33.8842 10.4333C33.8842 10.9333 33.6184 11.2 33.2198 11.1667C32.8543 11.1333 32.655 10.8667 32.655 10.4C32.655 8.83333 32.655 7.26667 32.655 5.73333C32.655 5.5 32.6218 5.26667 32.5221 5.06667C32.3228 4.66667 31.9574 4.53333 31.4923 4.53333C28.868 4.53333 26.2436 4.53333 23.6525 4.53333C19.7658 4.53333 15.9123 4.53333 12.0256 4.53333C11.0954 4.53333 10.73 4.9 10.73 5.8C10.73 8.86667 10.73 11.9333 10.73 15C10.73 15.1333 10.73 15.2667 10.73 15.4333C11.029 15.4333 11.2947 15.4333 11.5605 15.4333C12.2249 15.4333 12.7564 15.7 13.1218 16.2667C13.2547 16.5 13.4208 16.5667 13.6865 16.5667C14.5835 16.5667 15.4472 16.5667 16.3441 16.5667C16.776 16.5667 17.0417 16.8333 17.0085 17.2C16.9753 17.5667 16.7428 17.7667 16.3109 17.7667C15.6133 17.7667 14.9157 17.7667 14.2181 17.7667C14.1516 17.7667 14.0852 17.7667 13.9523 17.8C14.2513 18.3667 14.517 18.9 14.816 19.4C14.8492 19.4667 15.0486 19.5 15.1814 19.5C16.6099 19.5 18.0383 19.5 19.4668 19.5C23.6857 19.5 27.9046 19.5 32.0903 19.5C32.2564 19.5 32.4225 19.5 32.6218 19.5C32.6218 19.3333 32.655 19.2 32.655 19.0333C32.655 17.2667 32.655 15.4667 32.655 13.7C32.655 13.5667 32.655 13.4333 32.6882 13.3C32.7547 13 32.954 12.8 33.2862 12.8C33.6184 12.8 33.8509 13 33.8842 13.3667C33.8842 13.5 33.8842 13.6 33.8842 13.7333C33.8842 15.5 33.8842 17.2333 33.8842 19C33.8842 19.1333 33.8842 19.3 33.8842 19.5C34.0503 19.5 34.1831 19.5333 34.3492 19.5333C35.1465 19.5333 35.9438 19.5333 36.7743 19.5333C38.0034 19.5667 38.9336 20.4667 39 21.7C39 21.8333 39 21.9333 39 22.0667C39 27.8667 39 33.7 39 39.5C39 39.8 39 40.0667 38.9336 40.3667C38.6678 41.4 37.8041 42.0333 36.6746 42.0333C33.0204 42.0333 29.3995 42.0333 25.7453 42.0333C17.9719 42.0333 10.1652 42.0333 2.39182 42.0333C1.22913 42.0333 0.332198 41.4 0.0664395 40.3333C0 40.1 0 39.8333 0 39.5667C0 36.5667 0 33.5667 0 30.5667C0 30.4333 0 30.3 0.0332198 30.1667C0.0996593 29.8667 0.298978 29.6667 0.597956 29.7333C0.830494 29.7667 1.02981 29.9667 1.19591 30.1333C1.29557 30.2333 1.26235 30.4667 1.26235 30.6667C1.26235 33.6 1.26235 36.5333 1.26235 39.5C1.26235 40.5 1.59455 40.8333 2.59114 40.8333C13.8859 40.8333 25.1806 40.8333 36.5085 40.8333C37.4719 40.8333 37.8041 40.5 37.8041 39.5333C37.8041 33.7333 37.8041 27.9 37.8041 22.1C37.8041 21.1333 37.4719 20.8 36.5085 20.8C29.333 20.8 22.1576 20.8 14.9821 20.8C14.3842 20.8 14.0187 20.6333 13.753 20.0667C13.2879 19.1 12.7564 18.1667 12.2581 17.2C12.0588 16.8333 11.8262 16.7 11.4276 16.7C8.30494 16.7 5.2155 16.7 2.09284 16.7C1.42845 16.7 1.22913 16.8667 1.22913 17.5333C1.22913 20.7333 1.22913 23.9 1.22913 27.1C1.22913 27.2667 1.22913 27.4667 1.19591 27.6333C1.12947 27.9333 0.896934 28.1 0.597956 28.0667C0.298978 28.0667 0.0996593 27.8667 0.0332198 27.5667C0 27.4 0 27.2667 0 27.1C0 23.9333 0 20.7667 0 17.5667C0 16.1333 0.697615 15.4333 2.12606 15.4333C3.08944 15.4333 4.05281 15.4333 5.08262 15.4333C5.08262 15.2667 5.08262 15.1 5.08262 14.9333C5.08262 10.9 5.11584 6.9 5.0494 2.86667C5.01618 1.43333 5.48126 0.466667 6.87649 0C13.8194 0.0333333 20.7624 0.0333333 27.6721 0.0333333ZM28.2368 3.3C28.2368 3.03333 28.2368 2.83333 28.2368 2.63333C28.2368 1.6 27.9046 1.26667 26.8748 1.26667C20.4634 1.26667 14.052 1.26667 7.60733 1.26667C6.64395 1.26667 6.27853 1.63333 6.27853 2.56667C6.27853 6.7 6.27853 10.8667 6.27853 15C6.27853 15.1333 6.27853 15.3 6.27853 15.4333C7.37479 15.4333 8.4046 15.4333 9.46763 15.4333C9.46763 15.2333 9.46763 15.0667 9.46763 14.9C9.46763 11.8667 9.46763 8.83333 9.46763 5.8C9.46763 4.23333 10.3646 3.33333 11.9591 3.33333C17.2078 3.33333 22.4233 3.33333 27.6721 3.33333C27.8714 3.3 28.0375 3.3 28.2368 3.3Z" fill="#036EB7"/>
<path d="M19.5332 22.1998C22.6559 22.1998 25.8118 22.1998 28.9344 22.1998C30.3296 22.1998 31.1601 22.9998 31.1601 24.3998C31.1601 28.7332 31.1601 33.0332 31.1601 37.3665C31.1601 38.7665 30.3296 39.5665 28.9344 39.5665C22.6227 39.5665 16.3441 39.5665 10.0324 39.5665C8.63713 39.5665 7.80664 38.7665 7.80664 37.3332C7.80664 32.9998 7.80664 28.6998 7.80664 24.3665C7.80664 22.9665 8.63713 22.1665 10.0324 22.1665C13.2215 22.1998 16.3773 22.1998 19.5332 22.1998ZM25.1806 38.3665C26.4429 38.3665 27.6388 38.3665 28.8348 38.3665C29.6985 38.3665 29.931 38.1332 29.931 37.2665C29.931 32.9998 29.931 28.7665 29.931 24.4998C29.931 23.6665 29.6985 23.4332 28.868 23.4332C22.6559 23.4332 16.4438 23.4332 10.2317 23.4332C9.30153 23.4332 9.06899 23.6332 9.06899 24.5998C9.06899 28.7998 9.06899 32.9998 9.06899 37.1998C9.06899 37.2998 9.06899 37.4332 9.06899 37.5332C9.10221 38.0998 9.40119 38.3665 9.96593 38.3665C10.7964 38.3665 11.6269 38.3665 12.4574 38.3665C12.8893 38.3665 13.3543 38.3665 13.8194 38.3665C13.8526 37.2332 14.1184 36.2332 14.6831 35.2998C15.2811 34.3665 16.0784 33.6665 17.075 33.1665C14.4174 31.1998 14.6167 28.0665 16.1116 26.3998C17.7726 24.5332 20.5298 24.2998 22.3901 25.8998C23.3203 26.6998 23.885 27.7332 23.9847 28.9998C24.1175 30.7665 23.3535 32.1332 21.9583 33.1665C24.0179 34.2665 25.0809 35.9998 25.1806 38.3665ZM19.5 26.0332C17.7061 26.0332 16.2445 27.5332 16.2445 29.3332C16.2445 31.1332 17.7061 32.5998 19.5 32.5998C21.2939 32.5998 22.7888 31.1332 22.7888 29.3332C22.7555 27.5332 21.2939 26.0332 19.5 26.0332ZM23.9514 38.3332C23.885 36.5665 23.1542 35.2332 21.6593 34.3998C20.0647 33.5332 18.4702 33.5998 16.9753 34.6332C15.7129 35.4998 15.0818 36.7665 15.0485 38.3332C18.0383 38.3332 20.9617 38.3332 23.9514 38.3332Z" fill="#036EB7"/>
<path d="M24.9814 11.7333C23.3537 11.7333 21.7259 11.7333 20.0649 11.7333C19.8988 11.7333 19.7327 11.7333 19.5666 11.7C19.2676 11.6333 19.1348 11.4 19.1348 11.1C19.1348 10.8 19.3009 10.6 19.5998 10.5333C19.7327 10.5 19.8988 10.5 20.0317 10.5C23.3537 10.5 26.6424 10.5 29.9644 10.5C30.5956 10.5 30.8946 10.7 30.8946 11.1C30.8946 11.5333 30.5956 11.7333 29.9312 11.7333C28.3034 11.7333 26.6424 11.7333 24.9814 11.7333Z" fill="#036EB7"/>
<path d="M25.0477 14.7665C23.3867 14.7665 21.7257 14.7665 20.0647 14.7665C19.8986 14.7665 19.7325 14.7665 19.5664 14.7332C19.3007 14.6665 19.1346 14.4332 19.1678 14.1332C19.1678 13.8332 19.3339 13.6332 19.5996 13.5665C19.7325 13.5332 19.8986 13.5332 20.0315 13.5332C23.3535 13.5332 26.6755 13.5332 29.9974 13.5332C30.1303 13.5332 30.23 13.5332 30.3628 13.5332C30.695 13.5665 30.8944 13.7999 30.8944 14.0999C30.8944 14.4332 30.7283 14.6665 30.3628 14.7332C30.23 14.7665 30.0971 14.7665 29.9642 14.7665C28.3364 14.7665 26.6755 14.7665 25.0477 14.7665Z" fill="#036EB7"/>
<path d="M25.0147 16.5669C26.6757 16.5669 28.3366 16.5669 29.9976 16.5669C30.1305 16.5669 30.2966 16.5669 30.4295 16.6002C30.7285 16.6669 30.9278 16.9002 30.8946 17.1669C30.8613 17.3669 30.662 17.6002 30.4627 17.7336C30.363 17.8336 30.1637 17.7669 29.9976 17.7669C26.6757 17.7669 23.3869 17.7669 20.0649 17.7669C19.8988 17.7669 19.7327 17.7669 19.5666 17.7336C19.2676 17.6669 19.1348 17.4336 19.1348 17.1336C19.1348 16.8336 19.3009 16.6336 19.5998 16.6002C19.7327 16.5669 19.8988 16.5669 20.0317 16.5669C21.7259 16.5669 23.3537 16.5669 25.0147 16.5669Z" fill="#036EB7"/>
<path d="M16.4439 6.7666C17.5069 6.7666 18.5367 6.7666 19.5997 6.7666C20.098 6.7666 20.3638 6.99993 20.3638 7.3666C20.3638 7.7666 20.098 7.99993 19.5997 7.99993C17.4737 7.99993 15.3808 7.99993 13.2548 7.99993C12.7897 7.99993 12.4907 7.7666 12.4907 7.39993C12.4907 7.03327 12.7897 6.79993 13.2548 6.79993C14.3178 6.7666 15.3808 6.7666 16.4439 6.7666Z" fill="#036EB7"/>
<path d="M14.7829 10.5C15.3144 10.5 15.8127 10.5 16.3442 10.5C16.8093 10.5 17.075 10.7333 17.075 11.1C17.075 11.4667 16.8093 11.7 16.3774 11.7333C15.3476 11.7333 14.2846 11.7333 13.2547 11.7333C12.8229 11.7333 12.5571 11.4667 12.5571 11.1C12.5571 10.7333 12.8229 10.5 13.288 10.5C13.753 10.5 14.2513 10.5 14.7829 10.5Z" fill="#036EB7"/>
<path d="M14.7497 13.5332C15.2812 13.5332 15.8128 13.5332 16.3443 13.5332C16.7761 13.5332 17.0087 13.7665 17.0419 14.1332C17.0419 14.4999 16.7761 14.7665 16.3443 14.7665C15.3145 14.7665 14.2514 14.7665 13.2216 14.7665C12.7898 14.7665 12.4908 14.4999 12.524 14.1665C12.524 13.7999 12.7898 13.5665 13.2548 13.5665C13.7199 13.5332 14.2514 13.5332 14.7497 13.5332Z" fill="#036EB7"/>
</svg>
